<?xml version="1.0" encoding="utf-8"?>
<!-- Generator: Adobe Illustrator 22.1.0, SVG Export Plug-In . SVG Version: 6.00 Build 0)  -->
<svg version="1.1" id="Layer_1" xmlns="http://www.w3.org/2000/svg" xmlns:xlink="http://www.w3.org/1999/xlink" x="0px" y="0px"
	 viewBox="0 0 1440 768" style="enable-background:new 0 0 1440 768;" xml:space="preserve">
<style type="text/css">
	.st0{opacity:0.5;}
	.st1{clip-path:url(#SVGID_2_);}
	.st2{fill:url(#SVGID_3_);}
</style>
<g class="st0">
	<g>
		<defs>
			<path id="SVGID_1_" d="M843.5,475.9h169.6c79.7,0,144.8,70.7,144.8,157.2s-65.2,157.2-144.8,157.2H57
				c-129,0-234.5-114.5-234.5-254.5S-72,281.3,57,281.3c54.5,0,103.9-48.4,103.9-107.6S116.3,66,61.7,66H-80.9
				C-137.6,66-184,15.7-184-45.9s46.4-111.9,103.1-111.9H26c22.1,0,40.1-19.6,40.1-43.6s-18-43.6-40.1-43.6h-58.3
				c-15.2,0-27.7-13.5-27.7-30l0,0c0-16.5,12.5-30.1,27.7-30.1c123.2,0,181,0.9,304.1,0.9c108,1,29.1,46.3,172.7,46.3
				c33,0,59.3-1.2,81-1c110.7,1.2,149.6,132.9,91.8,198c-20,22.5-62.5,64.5-65.5,108.5c-2.1,30.6,28.5,75.5,125.4,92.3h175.4
				c43.4,0,78.9,38.5,78.9,85.6s-35.5,85.7-78.9,85.7h-9c-41.8,0-75.9,37.1-75.9,82.4S801.7,475.9,843.5,475.9z M-110-244.9
				c15.3,0,27.7-13.5,27.7-30S-94.8-305-110-305s-27.7,13.5-27.7,30.1S-125.3-244.9-110-244.9z"/>
		</defs>
		<clipPath id="SVGID_2_">
			<use xlink:href="#SVGID_1_"  style="overflow:visible;"/>
		</clipPath>
		<g class="st1">
			
				<linearGradient id="SVGID_3_" gradientUnits="userSpaceOnUse" x1="-108.9669" y1="-185.8726" x2="1159.4232" y2="1325.7374" gradientTransform="matrix(1 0 0 -1 0 767)">
				<stop  offset="0" style="stop-color:#319B32"/>
				<stop  offset="9.000000e-02" style="stop-color:#4AA93F;stop-opacity:0.8"/>
				<stop  offset="0.2" style="stop-color:#62B64C;stop-opacity:0.62"/>
				<stop  offset="0.33" style="stop-color:#75C056;stop-opacity:0.48"/>
				<stop  offset="0.47" style="stop-color:#82C75D;stop-opacity:0.38"/>
				<stop  offset="0.66" style="stop-color:#8ACB61;stop-opacity:0.32"/>
				<stop  offset="1" style="stop-color:#8CCC62;stop-opacity:0.3"/>
			</linearGradient>
			<rect x="-184" y="-305" class="st2" width="1342" height="1095.3"/>
		</g>
	</g>
</g>
</svg>
