<svg id="Layer_1" data-name="Layer 1" xmlns="http://www.w3.org/2000/svg" xmlns:xlink="http://www.w3.org/1999/xlink" viewBox="0 0 1440 768"><defs><style>.cls-1{fill:none;clip-rule:evenodd;}.cls-2{opacity:0.5;}.cls-3{clip-path:url(#clip-path);}.cls-4{fill:url(#linear-gradient);}.cls-5{fill:#7f7f87;}</style><clipPath id="clip-path"><path class="cls-1" d="M843.49,475.93h169.63c79.66,0,144.84,70.73,144.84,157.18s-65.18,157.18-144.84,157.18H57c-129,0-234.52-114.53-234.52-254.52S-72,281.25,57,281.25c54.54,0,103.87-48.43,103.87-107.61S116.26,66,61.72,66H-80.9C-137.61,66-184,15.67-184-45.86s46.39-111.89,103.1-111.89H26c22.07,0,40.13-19.6,40.13-43.56S48.09-244.87,26-244.87H-32.32c-15.23,0-27.7-13.52-27.7-30.05h0C-60-291.46-47.55-305-32.32-305c123.18,0,181,.85,304.12.85,108,1,29.12,46.28,172.68,46.28,33,0,59.31-1.23,81-1,110.74,1.17,149.6,132.93,91.76,198-20,22.5-62.51,64.46-65.54,108.47-2.1,30.62,28.52,75.47,125.4,92.27H852.52c43.41,0,78.93,38.54,78.93,85.65s-35.52,85.66-78.93,85.66h-9c-41.76,0-75.92,37.07-75.92,82.39S801.73,475.93,843.49,475.93ZM-110-244.87c15.3,0,27.7-13.45,27.7-30.05S-94.75-305-110-305s-27.7,13.46-27.7,30.07S-125.35-244.87-110-244.87Z"/></clipPath><linearGradient id="linear-gradient" x1="-108.97" y1="952.87" x2="1159.42" y2="-558.74" gradientUnits="userSpaceOnUse"><stop offset="0" stop-color="#319b32"/><stop offset="0.09" stop-color="#4aa93f" stop-opacity="0.8"/><stop offset="0.2" stop-color="#62b64c" stop-opacity="0.62"/><stop offset="0.33" stop-color="#75c056" stop-opacity="0.48"/><stop offset="0.47" stop-color="#82c75d" stop-opacity="0.38"/><stop offset="0.66" stop-color="#8acb61" stop-opacity="0.32"/><stop offset="1" stop-color="#8ccc62" stop-opacity="0.3"/></linearGradient></defs><g class="cls-2"><g class="cls-3"><rect class="cls-4" x="-184" y="-304.99" width="1341.96" height="1095.28"/></g></g><rect class="cls-5" x="-18" y="701.24" width="1472" height="100.9"/></svg>