<?xml version="1.0" encoding="UTF-8"?>
<svg width="300px" height="500px" viewBox="0 0 300 500" version="1.1" xmlns="http://www.w3.org/2000/svg" xmlns:xlink="http://www.w3.org/1999/xlink">
    <!-- Generator: Sketch 64 (93537) - https://sketch.com -->
    <title>card</title>
    <desc>Created with Sketch.</desc>
    <g id="Page-1" stroke="none" stroke-width="1" fill="none" fill-rule="evenodd">
        <g id="card" fill-rule="nonzero">
            <rect id="Rectangle" fill="#B7B9B8" x="47.8187919" y="0" width="12.7348993" height="225.980565"></rect>
            <rect id="Rectangle" fill="#B7B9B8" opacity="0.5" style="mix-blend-mode: multiply;" x="47.8187919" y="0" width="3.18120805" height="225.980565"></rect>
            <rect id="Rectangle" fill="#B7B9B8" x="252.775168" y="0" width="12.7348993" height="225.980565"></rect>
            <rect id="Rectangle" fill="#B7B9B8" opacity="0.5" style="mix-blend-mode: multiply;" x="252.775168" y="0" width="3.18120805" height="225.980565"></rect>
            <rect id="Rectangle" fill="#B7B9B8" x="1.00671141" y="200.000004" width="298.580537" height="286" rx="11.63"></rect>
            <path d="M287.919463,485.273136 L12.7147651,485.273136 C9.61052229,485.275711 6.6325067,484.089146 4.43653085,481.974744 C2.24055499,479.860343 1.00670707,476.991506 1.00670707,474.000004 L1.00670707,488.717166 C1.00670707,491.710349 2.23670208,494.581679 4.43296802,496.69818 C6.62923395,498.81468 9.60877718,500.002577 12.7147651,500.000004 L287.919463,500.000004 C294.385643,500.000004 299.627517,494.948503 299.627517,488.717166 L299.627517,474.000004 C299.62196,480.227552 294.381713,485.273139 287.919463,485.273136 Z" id="Path" fill="#A0A1A0"></path>
            <path d="M299.587248,474.897842 L299.587248,211.102162 C299.581743,204.983955 294.365985,200.021044 287.919463,200.000004 L277.560403,200.000004 C276.731945,247.998453 271.704599,295.848689 262.530201,343.057328 C257.496644,368.748982 250.802013,395.147659 233.828859,415.727735 C215.436242,438.037149 186.734899,450.992851 157.489933,456.620365 C143.154362,459.41979 44.5167785,460.547204 29.8993289,460.910269 C22.852349,461.091802 15.8053691,461.063139 8.75838926,460.910269 C6.56375839,460.910269 3.81543624,460.566313 0.976510067,460.270128 L0.976510067,474.897842 C0.976510067,477.843973 2.21035365,480.669299 4.40632951,482.751633 C6.60230536,484.833966 9.58032094,486.000004 12.6845638,486.000004 L287.919463,486.000004 C294.365985,485.978959 299.581743,481.016048 299.587248,474.897842 Z" id="Path" fill="#B7B9B8" opacity="0.5" style="mix-blend-mode: multiply;"></path>
            <path d="M299.587248,474.000004 C299.581743,480.212431 294.365985,485.251772 287.919463,485.273136 L277.852349,485.273136 C277.700627,485.701634 277.519004,486.119753 277.308725,486.524629 C273.744966,492.277613 265.550336,493.024628 258.59396,493.121643 C214.208054,493.732836 85.8020134,494.334329 41.4060403,494.945523 C31.7214765,495.081344 21.6946309,495.149254 12.8255034,491.385076 C8.01653386,489.288261 3.91973958,485.925395 1.00670707,481.683585 L1.00670707,488.717166 C1.00670707,491.710349 2.23670208,494.581679 4.43296802,496.69818 C6.62923395,498.81468 9.60877718,500.002577 12.7147651,500.000004 L287.919463,500.000004 C294.385643,500.000004 299.627517,494.948503 299.627517,488.717166 L299.587248,474.000004 Z" id="Path" fill="#A0A1A0" opacity="0.5" style="mix-blend-mode: multiply;"></path>
            <path d="M20.5268456,200.000004 C16.8221477,284.993634 13.1107383,369.993634 9.39261745,455.000004 C27.7751678,453.385354 129.553691,451.445864 147.312081,446.59236 C165.07047,441.738857 182.174497,433.407647 194.40604,420.289813 C207.231544,406.541405 213.815436,388.627392 218.949664,370.923571 C235.057047,315.3758 239.788591,257.59236 243.302013,200.000004 L20.5268456,200.000004 Z" id="Path" fill="#B7B9B8" opacity="0.3" style="mix-blend-mode: screen;"></path>
            <rect id="Rectangle" fill="#9ADAFB" x="16.2885906" y="214.000004" width="268.016779" height="257" rx="9.89"></rect>
            <polygon id="Path" fill="#A2A2A2" opacity="0.3" style="mix-blend-mode: screen;" points="166.187919 471.000004 226.469799 471.000004 264.956376 214.000004 243.654362 214.000004"></polygon>
            <path d="M236.577181,214.000004 L208.963087,214.000004 C185.607383,253.223151 55.3691275,334.010414 16.2885906,402.567316 L16.2885906,461.55014 C16.2885906,466.769155 20.7462119,471.000004 26.2449664,471.000004 L155.848993,471.000004 L236.577181,214.000004 Z" id="Path" fill="#A2A2A2" opacity="0.3" style="mix-blend-mode: screen;"></path>
        </g>
    </g>
</svg>