<?xml version="1.0" encoding="UTF-8"?>
<svg width="375px" height="812px" viewBox="0 0 375 812" version="1.1" xmlns="http://www.w3.org/2000/svg" xmlns:xlink="http://www.w3.org/1999/xlink">
    <!-- Generator: Sketch 61.1 (89650) - https://sketch.com -->
    <title>F_1 Copy</title>
    <desc>Created with Sketch.</desc>
    <defs>
        <polygon id="path-1" points="0 0 1033 0 1033 1056 0 1056"></polygon>
        <polygon id="path-3" points="0.0003 0 350.7133 0 350.7133 188.516 0.0003 188.516"></polygon>
        <polygon id="path-5" points="0 0 24 0 24 26 0 26"></polygon>
    </defs>
    <g id="F_1-Copy" stroke="none" stroke-width="1" fill="none" fill-rule="evenodd">
        <rect id="Rectangle" fill="#E8F4FF" x="0" y="0" width="375" height="812"></rect>
        <g id="Group-4" transform="translate(-469.000000, -121.000000)">
            <g id="Group-3">
                <mask id="mask-2" fill="white">
                    <use xlink:href="#path-1"></use>
                </mask>
                <g id="Clip-2"></g>
                <path d="M1033,269.806097 C918.780603,155.591233 808.910691,10.4119887 682.079318,0.488220027 C564.602478,-8.70009149 446.743509,112.496712 385.412552,305.555852 C338.368148,453.644238 321.965446,639.91756 257.134181,760.581566 C209.109827,849.964127 142.201476,888.30596 83.1632968,948.485969 C53.5966533,978.623369 25.6893015,1014.75556 0,1056 L1033,1056 L1033,269.806097 Z" id="Fill-1" fill="#B7DED0" opacity="0.517206101" mask="url(#mask-2)"></path>
            </g>
            <g id="Group-3" opacity="0.645438058" transform="translate(444.000000, 82.000000)">
                <mask id="mask-4" fill="white">
                    <use xlink:href="#path-3"></use>
                </mask>
                <g id="Clip-2"></g>
                <path d="M112.0843,184.3804 C158.0633,174.4454 198.7243,147.5004 233.8163,116.1754 C268.9083,84.8504 299.4793,48.8244 333.3303,16.1624 C339.0123,10.6804 344.8103,5.2874 350.7133,-0.0006 L0.0003,-0.0006 L0.0003,173.9064 C35.1443,188.6164 74.8273,192.4314 112.0843,184.3804" id="Fill-1" fill="#9FD8C4" opacity="0.377371652" mask="url(#mask-4)"></path>
            </g>
            <g id="Group-3-Copy-3" transform="translate(527.000000, 755.000000)">
                <path d="M0,10.4016721 C0.478218636,12.9305426 0.685379452,15.5425185 1.48711871,17.9714028 C3.56545287,24.2640376 11.3548341,27.8304267 17.5225765,25.0373071 C19.6136901,24.0900357 21.6557038,21.9000794 22.5206675,19.814654 C24.2801892,15.573683 24.406638,10.9788649 23.236314,6.46065962 C22.2724781,2.73650018 19.6715337,0.514730019 15.6984852,0.173868145 C13.704226,0.00246331665 11.6588493,-0.0942765295 9.68140513,0.134912502 C2.81819421,0.930256875 0.324865825,3.73116759 0,10.4016721" id="Fill-1" fill="#B7DED0" opacity="0.0978422619"></path>
                <mask id="mask-6" fill="white">
                    <use xlink:href="#path-5"></use>
                </mask>
                <g id="Clip-2"></g>
            </g>
            <polygon id="Fill-1" fill="#7F7F87" points="421 949.76 861 949.76 861 877 421 877"></polygon>
        </g>
    </g>
</svg>