<?xml version="1.0" encoding="UTF-8"?>
<svg width="375px" height="217px" viewBox="0 0 375 217" version="1.1" xmlns="http://www.w3.org/2000/svg" xmlns:xlink="http://www.w3.org/1999/xlink">
    <!-- Generator: Sketch 61.1 (89650) - https://sketch.com -->
    <title>SAlt Intake_HTML-15</title>
    <desc>Created with Sketch.</desc>
    <defs>
        <linearGradient x1="50.0006623%" y1="0%" x2="50.0006623%" y2="100%" id="linearGradient-1">
            <stop stop-color="#3C3C50" offset="0%"></stop>
            <stop stop-color="#3C3C50" offset="27%"></stop>
            <stop stop-color="#2A2A40" offset="72%"></stop>
        </linearGradient>
        <linearGradient x1="50.0006623%" y1="0%" x2="50.0006623%" y2="99.9926692%" id="linearGradient-2">
            <stop stop-color="#3C3C50" offset="0%"></stop>
            <stop stop-color="#3C3C50" offset="27%"></stop>
            <stop stop-color="#2A2A40" offset="72%"></stop>
        </linearGradient>
        <linearGradient x1="50.0006623%" y1="0%" x2="50.0006623%" y2="100.007935%" id="linearGradient-3">
            <stop stop-color="#3C3C50" offset="0%"></stop>
            <stop stop-color="#3C3C50" offset="27%"></stop>
            <stop stop-color="#2A2A40" offset="72%"></stop>
        </linearGradient>
    </defs>
    <g id="Page-1" stroke="none" stroke-width="1" fill="none" fill-rule="evenodd">
        <g id="F_1-Copy" transform="translate(0.000000, -565.000000)" fill-rule="nonzero">
            <g id="SAlt-Intake_HTML-15" transform="translate(-168.000000, 565.000000)">
                <rect id="Rectangle" fill="url(#linearGradient-1)" x="0" y="142" width="755" height="67"></rect>
                <rect id="Rectangle" fill="url(#linearGradient-2)" x="0" y="4" width="755" height="71"></rect>
                <rect id="Rectangle" fill="url(#linearGradient-3)" x="0" y="76" width="755" height="66"></rect>
                <rect id="Rectangle" fill="#A0A0AB" x="0" y="72" width="755" height="9"></rect>
                <rect id="Rectangle" fill="#C0C0C8" x="0" y="72" width="755" height="3"></rect>
                <rect id="Rectangle" fill="#29293F" x="0" y="81" width="755" height="3"></rect>
                <rect id="Rectangle" fill="#FFFFFF" x="187" y="72" width="26" height="9"></rect>
                <rect id="Rectangle" fill="#D9D9DE" x="190" y="73" width="20" height="1" rx="0.5"></rect>
                <rect id="Rectangle" fill="#D9D9DE" x="190" y="78" width="20" height="1" rx="0.5"></rect>
                <rect id="Rectangle" fill="#D9D9DE" x="205" y="76" width="5" height="1" rx="0.5"></rect>
                <rect id="Rectangle" fill="#D9D9DE" x="196" y="76" width="7" height="1" rx="0.5"></rect>
                <rect id="Rectangle" fill="#FFFFFF" x="255" y="72" width="26" height="9"></rect>
                <rect id="Rectangle" fill="#D9D9DE" x="258" y="73" width="20" height="1" rx="0.5"></rect>
                <rect id="Rectangle" fill="#D9D9DE" x="258" y="78" width="20" height="1" rx="0.5"></rect>
                <rect id="Rectangle" fill="#D9D9DE" x="273" y="76" width="5" height="1" rx="0.5"></rect>
                <rect id="Rectangle" fill="#D9D9DE" x="264" y="76" width="7" height="1" rx="0.5"></rect>
                <rect id="Rectangle" fill="#FFFFFF" x="353" y="72" width="26" height="9"></rect>
                <rect id="Rectangle" fill="#D9D9DE" x="356" y="73" width="20" height="1" rx="0.5"></rect>
                <rect id="Rectangle" fill="#D9D9DE" x="356" y="78" width="20" height="1" rx="0.5"></rect>
                <rect id="Rectangle" fill="#D9D9DE" x="371" y="75" width="5" height="1" rx="0.5"></rect>
                <rect id="Rectangle" fill="#D9D9DE" x="362" y="75" width="7" height="1" rx="0.5"></rect>
                <rect id="Rectangle" fill="#FFFFFF" x="434" y="72" width="26" height="9"></rect>
                <rect id="Rectangle" fill="#D9D9DE" x="437" y="73" width="20" height="1" rx="0.5"></rect>
                <rect id="Rectangle" fill="#D9D9DE" x="437" y="78" width="20" height="1" rx="0.5"></rect>
                <rect id="Rectangle" fill="#D9D9DE" x="452" y="75" width="5" height="1" rx="0.5"></rect>
                <rect id="Rectangle" fill="#D9D9DE" x="443" y="75" width="7" height="1" rx="0.5"></rect>
                <rect id="Rectangle" fill="#FFFFFF" x="493" y="72" width="26" height="9"></rect>
                <rect id="Rectangle" fill="#D9D9DE" x="496" y="73" width="20" height="1" rx="0.5"></rect>
                <rect id="Rectangle" fill="#D9D9DE" x="496" y="78" width="20" height="1" rx="0.5"></rect>
                <rect id="Rectangle" fill="#D9D9DE" x="511" y="75" width="5" height="1" rx="0.5"></rect>
                <rect id="Rectangle" fill="#D9D9DE" x="502" y="75" width="7" height="1" rx="0.5"></rect>
                <rect id="Rectangle" fill="#A0A0AB" x="0" y="0" width="755" height="9"></rect>
                <rect id="Rectangle" fill="#C0C0C8" x="0" y="0" width="755" height="3"></rect>
                <rect id="Rectangle" fill="#29293F" x="0" y="9" width="755" height="3"></rect>
                <rect id="Rectangle" fill="#FFFFFF" x="190" y="0" width="26" height="9"></rect>
                <rect id="Rectangle" fill="#D9D9DE" x="193" y="1" width="20" height="1" rx="0.5"></rect>
                <rect id="Rectangle" fill="#D9D9DE" x="193" y="6" width="20" height="1" rx="0.5"></rect>
                <rect id="Rectangle" fill="#D9D9DE" x="208" y="4" width="5" height="1" rx="0.5"></rect>
                <rect id="Rectangle" fill="#D9D9DE" x="199" y="4" width="7" height="1" rx="0.5"></rect>
                <rect id="Rectangle" fill="#FFFFFF" x="473" y="0" width="26" height="9"></rect>
                <rect id="Rectangle" fill="#D9D9DE" x="476" y="1" width="20" height="1" rx="0.5"></rect>
                <rect id="Rectangle" fill="#D9D9DE" x="476" y="6" width="20" height="1" rx="0.5"></rect>
                <rect id="Rectangle" fill="#D9D9DE" x="491" y="4" width="5" height="1" rx="0.5"></rect>
                <rect id="Rectangle" fill="#D9D9DE" x="482" y="4" width="7" height="1" rx="0.5"></rect>
                <rect id="Rectangle" fill="#FFFFFF" x="370" y="0" width="26" height="9"></rect>
                <rect id="Rectangle" fill="#D9D9DE" x="373" y="1" width="20" height="1" rx="0.5"></rect>
                <rect id="Rectangle" fill="#D9D9DE" x="373" y="6" width="20" height="1" rx="0.5"></rect>
                <rect id="Rectangle" fill="#D9D9DE" x="388" y="4" width="5" height="1" rx="0.5"></rect>
                <rect id="Rectangle" fill="#D9D9DE" x="379" y="4" width="7" height="1" rx="0.5"></rect>
                <rect id="Rectangle" fill="#A0A0AB" x="0" y="140" width="755" height="9"></rect>
                <rect id="Rectangle" fill="#C0C0C8" x="0" y="140" width="755" height="3"></rect>
                <rect id="Rectangle" fill="#29293F" x="0" y="149" width="755" height="3"></rect>
                <rect id="Rectangle" fill="#FFFFFF" x="145" y="140" width="26" height="9"></rect>
                <rect id="Rectangle" fill="#FFFFFF" x="250" y="140" width="26" height="9"></rect>
                <rect id="Rectangle" fill="#D9D9DE" x="253" y="141" width="20" height="1" rx="0.5"></rect>
                <rect id="Rectangle" fill="#D9D9DE" x="253" y="146" width="20" height="1" rx="0.5"></rect>
                <rect id="Rectangle" fill="#D9D9DE" x="268" y="144" width="5" height="1" rx="0.5"></rect>
                <rect id="Rectangle" fill="#D9D9DE" x="259" y="144" width="7" height="1" rx="0.5"></rect>
                <rect id="Rectangle" fill="#FFFFFF" x="349" y="140" width="26" height="9"></rect>
                <rect id="Rectangle" fill="#D9D9DE" x="352" y="141" width="20" height="1" rx="0.5"></rect>
                <rect id="Rectangle" fill="#D9D9DE" x="352" y="146" width="20" height="1" rx="0.5"></rect>
                <rect id="Rectangle" fill="#D9D9DE" x="367" y="144" width="5" height="1" rx="0.5"></rect>
                <rect id="Rectangle" fill="#D9D9DE" x="358" y="144" width="7" height="1" rx="0.5"></rect>
                <rect id="Rectangle" fill="#FFFFFF" x="488" y="140" width="26" height="9"></rect>
                <rect id="Rectangle" fill="#D9D9DE" x="491" y="141" width="20" height="1" rx="0.5"></rect>
                <rect id="Rectangle" fill="#D9D9DE" x="491" y="146" width="20" height="1" rx="0.5"></rect>
                <rect id="Rectangle" fill="#D9D9DE" x="506" y="144" width="5" height="1" rx="0.5"></rect>
                <rect id="Rectangle" fill="#D9D9DE" x="497" y="144" width="7" height="1" rx="0.5"></rect>
                <rect id="Rectangle" fill="#A0A0AB" x="0" y="205" width="755" height="9"></rect>
                <rect id="Rectangle" fill="#C0C0C8" x="0" y="205" width="755" height="3"></rect>
                <rect id="Rectangle" fill="#29293F" x="0" y="214" width="755" height="3"></rect>
                <rect id="Rectangle" fill="#FFFFFF" x="216" y="205" width="26" height="9"></rect>
                <rect id="Rectangle" fill="#D9D9DE" x="219" y="207" width="20" height="1" rx="0.5"></rect>
                <rect id="Rectangle" fill="#D9D9DE" x="219" y="212" width="20" height="1" rx="0.5"></rect>
                <rect id="Rectangle" fill="#D9D9DE" x="234" y="209" width="5" height="1" rx="0.5"></rect>
                <rect id="Rectangle" fill="#D9D9DE" x="225" y="209" width="7" height="1" rx="0.5"></rect>
                <rect id="Rectangle" fill="#FFFFFF" x="366" y="205" width="26" height="9"></rect>
                <rect id="Rectangle" fill="#D9D9DE" x="369" y="207" width="20" height="1" rx="0.5"></rect>
                <rect id="Rectangle" fill="#D9D9DE" x="369" y="212" width="20" height="1" rx="0.5"></rect>
                <rect id="Rectangle" fill="#D9D9DE" x="384" y="209" width="5" height="1" rx="0.5"></rect>
                <rect id="Rectangle" fill="#D9D9DE" x="375" y="209" width="7" height="1" rx="0.5"></rect>
                <rect id="Rectangle" fill="#FFFFFF" x="514" y="205" width="26" height="9"></rect>
                <rect id="Rectangle" fill="#D9D9DE" x="517" y="207" width="20" height="1" rx="0.5"></rect>
                <rect id="Rectangle" fill="#D9D9DE" x="517" y="212" width="20" height="1" rx="0.5"></rect>
                <rect id="Rectangle" fill="#D9D9DE" x="532" y="209" width="5" height="1" rx="0.5"></rect>
                <rect id="Rectangle" fill="#D9D9DE" x="523" y="209" width="7" height="1" rx="0.5"></rect>
            </g>
        </g>
    </g>
</svg>