<?xml version="1.0" encoding="UTF-8"?>
<svg width="300px" height="127px" viewBox="0 0 300 127" version="1.1" xmlns="http://www.w3.org/2000/svg" xmlns:xlink="http://www.w3.org/1999/xlink">
    <!-- Generator: Sketch 61.1 (89650) - https://sketch.com -->
    <title>Group 5</title>
    <desc>Created with Sketch.</desc>
    <g id="Page-1" stroke="none" stroke-width="1" fill="none" fill-rule="evenodd">
        <g id="F_1-Copy" transform="translate(-38.000000, 0.000000)">
            <g id="Group-5" transform="translate(38.000000, -50.000000)">
                <g id="Group-7" transform="translate(22.000000, 0.000000)" fill="#8F0863">
                    <polygon id="Fill-1" points="0 147.504 7 147.504 7 4.12114787e-13 0 4.12114787e-13"></polygon>
                    <polygon id="Fill-1-Copy" points="247.628 147.504 254.628 147.504 254.628 4.12114787e-13 247.628 4.12114787e-13"></polygon>
                </g>
                <g id="Group-12" transform="translate(0.000000, 118.000000)">
                    <polygon id="Fill-3" fill="#319B32" points="0 0.2093 0 0.2133 14.297 58.4423 289.131 58.4423 299.495 0.2143 299.495 0.2093"></polygon>
                    <g id="Group-11" transform="translate(37.000000, 19.442000)">
                        <path d="M213.2183,23.8907 L12.2773,23.8907 C5.9363,23.8907 0.7473,18.7037 0.7473,12.3617 C0.7473,6.0207 5.9363,0.8317 12.2773,0.8317 L213.2183,0.8317 C219.5593,0.8317 224.7473,6.0207 224.7473,12.3617 C224.7473,18.7037 219.5593,23.8907 213.2183,23.8907" id="Fill-4" fill="#FFFFFF"></path>
                        <path d="M191.8062,0.8321 L213.2182,0.8321 C219.5592,0.8321 224.7472,6.0201 224.7472,12.3611 C224.7472,18.7031 219.5592,23.8911 213.2182,23.8911 L191.8062,23.8911" id="Fill-6" fill="#8F0863"></path>
                        <path d="M206.5689,8.4151 C204.5229,8.4151 202.8639,10.0741 202.8639,12.1201 C202.8639,14.1671 204.5229,15.8251 206.5689,15.8251 C208.6159,15.8251 210.2739,14.1671 210.2739,12.1201 C210.2739,10.0741 208.6159,8.4151 206.5689,8.4151 M212.8919,18.4431 C212.4589,18.8781 211.7559,18.8781 211.3209,18.4431 L209.3589,16.4811 C208.5519,16.9981 207.5979,17.3081 206.5689,17.3081 C203.7049,17.3081 201.3819,14.9841 201.3819,12.1201 C201.3819,9.2561 203.7049,6.9331 206.5689,6.9331 C209.4339,6.9331 211.7559,9.2561 211.7559,12.1201 C211.7559,13.1491 211.4479,14.1021 210.9309,14.9101 L212.8919,16.8711 C213.3269,17.3061 213.3269,18.0091 212.8919,18.4431" id="Fill-9" fill="#FFFFFF"></path>
                    </g>
                </g>
            </g>
        </g>
    </g>
</svg>