<?xml version="1.0" encoding="UTF-8"?>
<svg width="235px" height="316px" viewBox="0 0 235 316" version="1.1" xmlns="http://www.w3.org/2000/svg" xmlns:xlink="http://www.w3.org/1999/xlink">
    <!-- Generator: Sketch 61.1 (89650) - https://sketch.com -->
    <title>Group 4</title>
    <desc>Created with Sketch.</desc>
    <defs>
        <polygon id="path-1" points="0.0003 0.2699 234.544 0.2699 234.544 236.9979 0.0003 236.9979"></polygon>
        <polygon id="path-3" points="0 0.8049 234.5433 0.8049 234.5433 21.9999 0 21.9999"></polygon>
        <polygon id="path-5" points="0 0.2705 234.5437 0.2705 234.5437 236.9975 0 236.9975"></polygon>
        <polygon id="path-7" points="0 0.8045 234.5437 0.8045 234.5437 21.9995 0 21.9995"></polygon>
    </defs>
    <g id="Page-1" stroke="none" stroke-width="1" fill="none" fill-rule="evenodd">
        <g id="F_1-Copy" transform="translate(-70.000000, -117.000000)">
            <g id="Group-4" transform="translate(70.000000, 117.000000)">
                <g id="Group-23" transform="translate(117.500000, 71.500000) rotate(-180.000000) translate(-117.500000, -71.500000) translate(77.000000, 0.000000)">
                    <polygon id="Fill-1" fill="#B7B9B8" points="28 126 53 126 53 46 28 46"></polygon>
                    <path d="M53,45.6366022 L45.9089379,45.6366022 C45.9966698,72.4003837 45.9093855,-21.9223317 45.5530867,4.83044171 C45.2513965,27.4471581 44.7845377,50.1839632 42.6395832,72.2983083 C41.6521521,82.4768314 40.2578422,92.7294092 37.4495273,101.03755 C35.9625618,105.435801 34.0396226,109.192577 31.8328977,111.678415 C30.6297178,113.034417 29.2841975,113.571814 28,114.397424 L28,126 L53,126 L53,45.6366022 Z" id="Fill-2" fill="#B7B9B8"></path>
                    <polygon id="Fill-4" fill="#3C3C3B" points="32 97 49 97 49 89 32 89"></polygon>
                    <path d="M32,97 L34.1883993,97 C34.5598022,96.1053825 34.9132194,95.1353383 35.3696043,94.5500656 C36.4307554,93.1885667 37.7239209,92.9088197 38.932554,92.6787206 C42.2693345,92.0418904 45.6218525,91.7659625 48.9716727,91.8518916 C49,91.8518916 49,89 49,89 L32,89 L32,97 Z" id="Fill-5" fill="#2B2B2B"></path>
                    <polygon id="Fill-7" fill="#A0A1A0" points="20 126 28 126 28 46 20 46"></polygon>
                    <path d="M23.917802,84.3338107 C23.770663,91.1410284 23.5990009,98.0289404 22.6734787,104.533305 C22.0594914,108.845971 21.1353315,111.89841 20,114.703784 L20,126 L28,126 L28,46 L24.0767484,46 C25.1039964,98.9295294 25.061762,31.416236 23.917802,84.3338107" id="Fill-8" fill="#A0A1A0"></path>
                    <polygon id="Fill-10" fill="#A0A1A0" points="53 126 61 126 61 46 53 46"></polygon>
                    <path d="M61,113.905345 C58.5661652,109.700547 56.896679,103.338983 56.0501277,96.7050784 C54.9783139,88.3114439 55.0255464,79.4519398 55.081862,70.7350895 C55.1627022,57.9690638 55.2444508,45.203038 55.3257451,32.4360147 C55.4706216,9.74107955 55.6154982,107.752275 55.7603747,85.0573394 C55.8325859,73.7098718 55.9043429,62.3624042 55.9774624,51.0149366 C55.987908,49.3589545 56.0841896,47.5892484 56.0810105,45.8903704 L53,45.8903704 L53,126 L61,126 L61,113.905345 Z" id="Fill-11" fill="#A0A1A0"></path>
                    <polygon id="Fill-13" fill="#B7B9B8" points="0 143 80 143 80 126 0 126"></polygon>
                    <g id="Group-22" transform="translate(0.000000, 45.000000)">
                        <path d="M80.6114746,80.761 L74.7012203,80.761 C74.6884068,80.966 74.6938983,81.182 74.6755932,81.385 C74.2756271,85.735 72.5174237,89.005 70.5999661,90.464 C68.6825085,91.923 66.6039661,91.89 64.5730169,91.842 C45.4959153,91.386 26.4188136,90.93 7.34171186,90.474 C4.85038983,90.415 2.28310169,90.235 0,88.137 L0,98 L80.6114746,98 L80.6114746,80.761 Z" id="Fill-14" fill="#B7B9B8"></path>
                        <path d="M61.1466712,0.4573 L19.4646203,0.4573 L19.4646203,11.8233 C21.4914508,10.8623 23.5283492,9.9883 25.5776034,9.3053 C35.4074339,6.0263 45.3937729,5.7283 55.3110102,6.7043 C57.2582136,6.8963 59.2022136,7.1933 61.1466712,7.4733 L61.1466712,0.4573 Z" id="Fill-16" fill="#A0A1A0"></path>
                        <path d="M61.1466712,0.4573 L19.4646203,0.4573 L19.4646203,6.8013 C19.9286542,6.5433 20.3643153,6.2943 20.6828237,6.1803 C24.3722136,4.8623 28.0840271,3.8513 31.8086542,3.1473 C39.2569932,1.7403 46.7547559,1.5643 54.2154508,2.6233 C54.7938915,2.7053 58.1011627,3.1313 61.1466712,3.7043 L61.1466712,0.4573 Z" id="Fill-18" fill="#A0A1A0"></path>
                        <path d="M61.1466712,71.3957 C57.7364339,73.1227 54.3014847,74.6227 50.8335864,75.6617 C42.6855356,78.1037 34.4194169,78.6457 26.2191966,77.2727 C23.9800271,76.8977 21.7175186,75.9647 19.4646203,75.1417 L19.4646203,80.7607 L61.1466712,80.7607 L61.1466712,71.3957 Z" id="Fill-20" fill="#A0A1A0"></path>
                    </g>
                </g>
                <g id="Group-121-Copy" transform="translate(0.000000, 66.000000)">
                    <g id="Group-27" transform="translate(0.000000, 0.304000)">
                        <g id="Group-9">
                            <mask id="mask-2" fill="white">
                                <use xlink:href="#path-1"></use>
                            </mask>
                            <g id="Clip-8"></g>
                            <path d="M225.3513,236.9979 L9.1943,236.9979 C4.1163,236.9979 0.0003,232.8819 0.0003,227.8049 L0.0003,9.4639 C0.0003,4.3859 4.1163,0.2699 9.1943,0.2699 L225.3513,0.2699 C230.4283,0.2699 234.5443,4.3859 234.5443,9.4639 L234.5443,227.8049 C234.5443,232.8819 230.4283,236.9979 225.3513,236.9979" id="Fill-7" fill="#B7B9B8" mask="url(#mask-2)"></path>
                        </g>
                        <g id="Group-12" transform="translate(0.000000, 227.000000)">
                            <mask id="mask-4" fill="white">
                                <use xlink:href="#path-3"></use>
                            </mask>
                            <g id="Clip-11"></g>
                            <path d="M225.3513,9.9979 L9.1943,9.9979 C4.1163,9.9979 -0.0007,5.8819 -0.0007,0.8049 L-0.0007,12.8069 C-0.0007,17.8849 4.1163,21.9999 9.1943,21.9999 L225.3513,21.9999 C230.4283,21.9999 234.5433,17.8849 234.5433,12.8069 L234.5433,0.8049 C234.5433,5.8819 230.4283,9.9979 225.3513,9.9979" id="Fill-10" fill="#A0A1A0" mask="url(#mask-4)"></path>
                        </g>
                        <g id="Group-15">
                            <mask id="mask-6" fill="white">
                                <use xlink:href="#path-5"></use>
                            </mask>
                            <g id="Clip-14"></g>
                            <path d="M234.5437,227.8045 L234.5437,9.4635 C234.5437,4.3855 230.4287,0.2705 225.3517,0.2705 L217.2467,0.2705 C216.5627,39.9795 212.6747,79.6315 205.4367,118.6795 C201.4947,139.9475 196.2217,161.7985 182.8917,178.8325 C168.4447,197.2945 145.8977,208.0215 122.9227,212.6805 C111.6587,214.9645 34.1767,215.9275 22.6997,216.2315 C17.1717,216.3765 11.6397,216.3555 6.1097,216.2625 C4.3897,216.2335 2.2287,215.9795 -0.0003,215.7295 L-0.0003,227.8045 C-0.0003,232.8815 4.1157,236.9975 9.1937,236.9975 L225.3517,236.9975 C230.4287,236.9975 234.5437,232.8815 234.5437,227.8045" id="Fill-13" fill="#B7B9B8" mask="url(#mask-6)"></path>
                        </g>
                        <g id="Group-18" transform="translate(0.000000, 227.000000)">
                            <mask id="mask-8" fill="white">
                                <use xlink:href="#path-7"></use>
                            </mask>
                            <g id="Clip-17"></g>
                            <path d="M234.5437,0.8045 C234.5437,5.8815 230.4287,9.9975 225.3517,9.9975 L217.4587,9.9975 C217.3127,10.3345 217.2187,10.6925 217.0267,11.0125 C214.2297,15.7065 207.7947,16.3135 202.3307,16.3915 C167.4607,16.8875 66.5917,17.3845 31.7227,17.8805 C24.1127,17.9895 16.2317,18.0445 9.2677,14.9795 C5.3887,13.2725 2.3717,10.5045 -0.0003,7.0735 L-0.0003,12.8065 C-0.0003,17.8845 4.1157,21.9995 9.1937,21.9995 L225.3517,21.9995 C230.4287,21.9995 234.5437,17.8845 234.5437,12.8065 L234.5437,0.8045 Z" id="Fill-16" fill="#848484" mask="url(#mask-8)"></path>
                        </g>
                        <path d="M15.3377,0.2704 C12.4217,70.6274 9.5057,140.9864 6.5907,211.3444 C21.0307,210.0054 100.9797,208.4034 114.9127,204.3834 C128.8477,200.3644 142.2947,193.4704 151.9077,182.6124 C161.9807,171.2344 167.1527,156.4034 171.1867,141.7514 C183.8467,95.7764 187.5537,47.9444 190.3167,0.2704 L15.3377,0.2704 Z" id="Fill-19" fill="#9B9B9B"></path>
                        <path d="M12.0017,217.1747 L12.0017,20.0937 C12.0017,15.7747 15.5037,12.2727 19.8227,12.2727 L214.7227,12.2727 C219.0417,12.2727 222.5437,15.7747 222.5437,20.0937 L222.5437,217.1747 C222.5437,221.4937 219.0417,224.9957 214.7227,224.9957 L19.8227,224.9957 C15.5037,224.9957 12.0017,221.4937 12.0017,217.1747" id="Fill-21" fill="#9ADAFB"></path>
                        <polygon id="Fill-23" fill="#FFFFFF" opacity="0.141764323" points="129.7586 224.9959 177.1096 224.9959 207.3466 12.2719 190.6126 12.2719"></polygon>
                        <path d="M185.0173,12.2723 L163.3603,12.2723 C145.0143,44.7303 42.6823,111.5943 12.0013,168.3603 L12.0013,217.1743 C12.0013,221.4943 15.5033,224.9963 19.8233,224.9963 L121.6333,224.9963 L185.0173,12.2723 Z" id="Fill-25" fill="#FFFFFF" opacity="0.141764323"></path>
                    </g>
                </g>
            </g>
        </g>
    </g>
</svg>