<?xml version="1.0" encoding="utf-8"?>
<!-- Generator: Adobe Illustrator 22.1.0, SVG Export Plug-In . SVG Version: 6.00 Build 0)  -->
<svg version="1.1" id="Layer_1" xmlns="http://www.w3.org/2000/svg" xmlns:xlink="http://www.w3.org/1999/xlink" x="0px" y="0px"
	 viewBox="0 0 375 812" style="enable-background:new 0 0 375 812;" xml:space="preserve">
<style type="text/css">
	.st0{fill:#E8F4FF;}
	.st1{filter:url(#Adobe_OpacityMaskFilter);}
	.st2{fill:#FFFFFF;}
	.st3{opacity:0.5172;mask:url(#mask-2_1_);fill:#B7DED0;enable-background:new    ;}
	.st4{opacity:0.6454;}
	.st5{filter:url(#Adobe_OpacityMaskFilter_1_);}
	.st6{opacity:0.3774;mask:url(#mask-4_1_);fill:#9FD8C4;enable-background:new    ;}
	.st7{opacity:9.784226e-02;fill:#B7DED0;enable-background:new    ;}
</style>
<title>F_1 Copy</title>
<desc>Created with Sketch.</desc>
<g id="F_1-Copy">
	<rect id="Rectangle" class="st0" width="375" height="812"/>
	<g id="Group-4" transform="translate(-469.000000, -121.000000)">
		<g id="Group-3">
			<g id="Clip-2">
			</g>
			<defs>
				<filter id="Adobe_OpacityMaskFilter" filterUnits="userSpaceOnUse" x="0" y="0" width="1033" height="1056">
					<feColorMatrix  type="matrix" values="1 0 0 0 0  0 1 0 0 0  0 0 1 0 0  0 0 0 1 0"/>
				</filter>
			</defs>
			<mask maskUnits="userSpaceOnUse" x="0" y="0" width="1033" height="1056" id="mask-2_1_">
				<g class="st1">
					<polygon id="path-1_1_" class="st2" points="0,0 1033,0 1033,1056 0,1056 					"/>
				</g>
			</mask>
			<path id="Fill-1" class="st3" d="M1033,269.8C918.8,155.6,808.9,10.4,682.1,0.5c-117.5-9.2-235.3,112-296.7,305.1
				c-47,148.1-63.4,334.4-128.3,455c-48,89.4-114.9,127.7-174,187.9C53.6,978.6,25.7,1014.8,0,1056h1033V269.8z"/>
		</g>
		<g id="Group-3_1_" transform="translate(444.000000, 82.000000)" class="st4">
			<g id="Clip-2_1_">
			</g>
			<defs>
				<filter id="Adobe_OpacityMaskFilter_1_" filterUnits="userSpaceOnUse" x="0" y="0" width="350.7" height="188.5">
					<feColorMatrix  type="matrix" values="1 0 0 0 0  0 1 0 0 0  0 0 1 0 0  0 0 0 1 0"/>
				</filter>
			</defs>
			<mask maskUnits="userSpaceOnUse" x="0" y="0" width="350.7" height="188.5" id="mask-4_1_">
				<g class="st5">
					<polygon id="path-3_1_" class="st2" points="0,0 350.7,0 350.7,188.5 0,188.5 					"/>
				</g>
			</mask>
			<path id="Fill-1_1_" class="st6" d="M112.1,184.4c46-9.9,86.6-36.9,121.7-68.2s65.7-67.4,99.5-100C339,10.7,344.8,5.3,350.7,0H0
				v173.9C35.1,188.6,74.8,192.4,112.1,184.4"/>
		</g>
		<g id="Group-3-Copy-3" transform="translate(527.000000, 755.000000)">
			<path id="Fill-1_2_" class="st7" d="M0,10.4c0.5,2.5,0.7,5.1,1.5,7.6c2.1,6.3,9.9,9.9,16,7.1c2.1-0.9,4.1-3.1,5-5.2
				c1.8-4.2,1.9-8.8,0.7-13.4c-1-3.7-3.6-5.9-7.5-6.3c-2-0.2-4-0.3-6,0C2.8,0.9,0.3,3.7,0,10.4"/>
			<g id="Clip-2_2_">
			</g>
		</g>
	</g>
</g>
</svg>
