<?xml version="1.0" encoding="UTF-8"?>
<svg width="250px" height="300px" viewBox="0 0 250 300" version="1.1" xmlns="http://www.w3.org/2000/svg" xmlns:xlink="http://www.w3.org/1999/xlink">
    <!-- Generator: Sketch 64 (93537) - https://sketch.com -->
    <title>mobile_card</title>
    <desc>Created with Sketch.</desc>
    <defs>
        <polygon id="path-1" points="0.000319148936 0.269909651 249.514894 0.269909651 249.514894 237.006375 0.000319148936 237.006375"></polygon>
        <polygon id="path-3" points="0 0.804928782 249.514149 0.804928782 249.514149 22.0006867 0 22.0006867"></polygon>
        <polygon id="path-5" points="0 0.270509673 249.514574 0.270509673 249.514574 237.005975 0 237.005975"></polygon>
        <polygon id="path-7" points="0 0.804528768 249.514574 0.804528768 249.514574 22.0002867 0 22.0002867"></polygon>
    </defs>
    <g id="Page-1" stroke="none" stroke-width="1" fill="none" fill-rule="evenodd">
        <g id="mobile_card">
            <g id="Group-23" transform="translate(126.000000, 68.000000) rotate(-180.000000) translate(-126.000000, -68.000000) translate(84.000000, 0.000000)" fill-rule="nonzero">
                <polygon id="Fill-1" fill="#B7B9B8" points="29 120 56 120 56 44 29 44"></polygon>
                <path d="M56,43.4634307 L48.3416529,43.4634307 C48.4364034,68.9527464 48.3421363,-20.8784111 47.9573336,4.60042068 C47.6315082,26.1401506 47.1273007,47.7942507 44.8107499,68.8555317 C43.7443243,78.5493632 42.2384696,88.313723 39.2054895,96.2262381 C37.5995667,100.415049 35.5227924,103.99293 33.1395295,106.360395 C31.8400952,107.651826 30.3869333,108.163632 29,108.949928 L29,120 L56,120 L56,43.4634307 Z" id="Fill-2" fill="#B7B9B8"></path>
                <polygon id="Fill-4" fill="#3C3C3B" points="33 104 51 104 51 96 33 96"></polygon>
                <path d="M33,104 L35.3171287,104 C35.7103788,103.105383 36.0845852,102.135338 36.5678163,101.550066 C37.6913881,100.188567 39.0606221,99.9088197 40.3403513,99.6787206 C43.873413,99.0418904 47.4231379,98.7659625 50.9700064,98.8518916 C51,98.8518916 51,96 51,96 L33,96 L33,104 Z" id="Fill-5" fill="#2B2B2B"></path>
                <polygon id="Fill-7" fill="#A0A1A0" points="20 120 29 120 29 44 20 44"></polygon>
                <path d="M22.9848379,99.6066398 C22.2914711,103.703672 22.2821132,106.695905 21,109.36101 C21,110.914371 21,112.03567 21,112.724906 C21,114.420426 21,116.845458 21,120 L29,120 L29,44 L24.5695297,44 C25.7295858,94.2830529 25.6818911,30.1454242 24.3900339,80.4171202 C24.223872,86.883977 24.0300165,93.4274934 22.9848379,99.6066398 Z" id="Fill-8" fill="#A0A1A0"></path>
                <polygon id="Fill-10" fill="#A0A1A0" points="55 120 64 120 64 44 55 44"></polygon>
                <path d="M64,108.528781 C61.2619358,104.540725 59.3837639,98.5070767 58.4313937,92.2151259 C57.2256031,84.254153 57.2787397,75.8513243 57.3420947,67.5837962 C57.43304,55.4758131 57.5250071,43.3678299 57.6164632,31.2589005 C57.7794493,9.73380741 57.9424355,102.692879 58.1054215,81.1677858 C58.1866591,70.4052392 58.2673858,59.6426926 58.3496452,48.8801461 C58.3613965,47.3095239 58.4697133,45.6310397 58.4661368,44.0197328 L55,44.0197328 L55,120 L64,120 L64,108.528781 Z" id="Fill-11" fill="#A0A1A0"></path>
                <polygon id="Fill-13" fill="#B7B9B8" points="2.84217094e-14 136 84 136 84 120 2.84217094e-14 120"></polygon>
            </g>
            <g id="Group-121-Copy" transform="translate(0.000000, 50.000000)">
                <g id="Group-27">
                    <g id="Group-9">
                        <g id="Fill-7-Clipped">
                            <mask id="mask-2" fill="white">
                                <use xlink:href="#path-1"></use>
                            </mask>
                            <g id="path-1"></g>
                            <path d="M239.735426,237.006375 L9.78117021,237.006375 C4.37904255,237.006375 0.000319148936,232.890228 0.000319148936,227.813046 L0.000319148936,9.46423842 C0.000319148936,4.38605684 4.37904255,0.269909651 9.78117021,0.269909651 L239.735426,0.269909651 C245.136489,0.269909651 249.515213,4.38605684 249.515213,9.46423842 L249.515213,227.813046 C249.515213,232.890228 245.136489,237.006375 239.735426,237.006375" id="Fill-7" fill="#B7B9B8" fill-rule="nonzero" mask="url(#mask-2)"></path>
                        </g>
                    </g>
                    <g id="Group-12" transform="translate(0.000000, 227.008117)">
                        <g id="Fill-10-Clipped">
                            <mask id="mask-4" fill="white">
                                <use xlink:href="#path-3"></use>
                            </mask>
                            <g id="path-3"></g>
                            <path d="M239.735426,9.99825751 L9.78117021,9.99825751 C4.37904255,9.99825751 -0.000744680851,5.88211033 -0.000744680851,0.804928782 L-0.000744680851,12.807358 C-0.000744680851,17.8855395 4.37904255,22.0006867 9.78117021,22.0006867 L239.735426,22.0006867 C245.136489,22.0006867 249.514149,17.8855395 249.514149,12.807358 L249.514149,0.804928782 C249.514149,5.88211033 245.136489,9.99825751 239.735426,9.99825751" id="Fill-10" fill="#A0A1A0" fill-rule="nonzero" mask="url(#mask-4)"></path>
                        </g>
                    </g>
                    <g id="Group-15">
                        <g id="Fill-13-Clipped">
                            <mask id="mask-6" fill="white">
                                <use xlink:href="#path-5"></use>
                            </mask>
                            <g id="path-5"></g>
                            <path d="M249.514574,227.812646 L249.514574,9.46383841 C249.514574,4.38565682 245.136915,0.270509673 239.735851,0.270509673 L231.113511,0.270509673 C230.385851,39.9809296 226.249681,79.6343475 218.549681,118.683744 C214.356064,139.952504 208.746489,161.804286 194.565638,178.838895 C179.196489,197.301555 155.210319,208.028939 130.76883,212.688105 C118.785851,214.972187 36.3581915,215.935221 24.148617,216.239232 C18.267766,216.384237 12.3826596,216.363237 6.49968085,216.270233 C4.66989362,216.241232 2.37095745,215.987223 -0.000319148936,215.737214 L-0.000319148936,227.812646 C-0.000319148936,232.889828 4.37840426,237.005975 9.78053191,237.005975 L239.735851,237.005975 C245.136915,237.005975 249.514574,232.889828 249.514574,227.812646" id="Fill-13" fill="#B7B9B8" fill-rule="nonzero" mask="url(#mask-6)"></path>
                        </g>
                    </g>
                    <g id="Group-18" transform="translate(0.000000, 227.008117)">
                        <g id="Fill-16-Clipped">
                            <mask id="mask-8" fill="white">
                                <use xlink:href="#path-7"></use>
                            </mask>
                            <g id="path-7"></g>
                            <path d="M249.514574,0.804528768 C249.514574,5.88171032 245.136915,9.9978575 239.735851,9.9978575 L231.339043,9.9978575 C231.183723,10.3348696 231.083723,10.6928824 230.879468,11.0128938 C227.903936,15.7070616 221.058191,16.3140834 215.245426,16.3920861 C178.149681,16.8881039 70.842234,17.3851217 33.7475532,17.8811394 C25.6518085,17.9901433 17.267766,18.0451453 9.85925532,14.9800357 C5.73265957,13.2729746 2.52308511,10.5048756 -0.000319148936,7.07375294 L-0.000319148936,12.8069579 C-0.000319148936,17.8851395 4.37840426,22.0002867 9.78053191,22.0002867 L239.735851,22.0002867 C245.136915,22.0002867 249.514574,17.8851395 249.514574,12.8069579 L249.514574,0.804528768 Z" id="Fill-16" fill="#848484" fill-rule="nonzero" mask="url(#mask-8)"></path>
                        </g>
                    </g>
                    <path d="M16.3167021,0.270409669 C13.2145745,70.6299256 10.1124468,140.991442 7.01138298,211.351957 C22.3730851,210.01291 107.425213,208.410852 122.247553,204.390709 C137.072021,200.371565 151.37734,193.477318 161.603936,182.61893 C172.319894,171.240523 177.822021,156.408993 182.113511,141.756469 C195.581596,95.7798249 199.525213,47.9461144 202.464574,0.270409669 L16.3167021,0.270409669 Z" id="Fill-19" fill="#9B9B9B" fill-rule="nonzero"></path>
                    <path d="M12.767766,217.182466 L12.767766,20.0944185 C12.767766,15.7752641 16.4932979,12.2731389 21.0879787,12.2731389 L228.428404,12.2731389 C233.023085,12.2731389 236.748617,15.7752641 236.748617,20.0944185 L236.748617,217.182466 C236.748617,221.50162 233.023085,225.003746 228.428404,225.003746 L21.0879787,225.003746 C16.4932979,225.003746 12.767766,221.50162 12.767766,217.182466" id="Fill-21" fill="#9ADAFB" fill-rule="nonzero"></path>
                    <polygon id="Fill-23" fill="#FFFFFF" fill-rule="nonzero" opacity="0.141764323" points="138.041064 225.003946 188.414468 225.003946 220.581489 12.2723388 202.779362 12.2723388"></polygon>
                    <path d="M196.826915,12.2727388 L173.787553,12.2727388 C154.270532,44.7318995 45.4067021,111.59829 12.7673404,168.36632 L12.7673404,217.182066 C12.7673404,221.50222 16.4928723,225.004346 21.088617,225.004346 L129.397128,225.004346 L196.826915,12.2727388 Z" id="Fill-25" fill="#FFFFFF" fill-rule="nonzero" opacity="0.141764323"></path>
                </g>
            </g>
        </g>
    </g>
</svg>