<?xml version="1.0" encoding="UTF-8"?>
<svg width="700px" height="350px" viewBox="0 0 700 350" version="1.1" xmlns="http://www.w3.org/2000/svg" xmlns:xlink="http://www.w3.org/1999/xlink">
    <!-- Generator: Sketch 64 (93537) - https://sketch.com -->
    <title>product_rack</title>
    <desc>Created with Sketch.</desc>
    <defs>
        <linearGradient x1="50.0006623%" y1="0%" x2="50.0006623%" y2="100%" id="linearGradient-1">
            <stop stop-color="#3C3C50" offset="0%"></stop>
            <stop stop-color="#3C3C50" offset="27%"></stop>
            <stop stop-color="#2A2A40" offset="72%"></stop>
        </linearGradient>
        <linearGradient x1="50.0006623%" y1="0%" x2="50.0006623%" y2="99.9926692%" id="linearGradient-2">
            <stop stop-color="#3C3C50" offset="0%"></stop>
            <stop stop-color="#3C3C50" offset="27%"></stop>
            <stop stop-color="#2A2A40" offset="72%"></stop>
        </linearGradient>
        <linearGradient x1="50.0006623%" y1="0%" x2="50.0006623%" y2="100.007935%" id="linearGradient-3">
            <stop stop-color="#3C3C50" offset="0%"></stop>
            <stop stop-color="#3C3C50" offset="27%"></stop>
            <stop stop-color="#2A2A40" offset="72%"></stop>
        </linearGradient>
    </defs>
    <g id="Page-1" stroke="none" stroke-width="1" fill="none" fill-rule="evenodd">
        <g id="product_rack" fill-rule="nonzero">
            <rect id="Rectangle" fill="url(#linearGradient-1)" x="0" y="231" width="699.916556" height="115"></rect>
            <rect id="Rectangle" fill="url(#linearGradient-2)" x="0" y="5.99638554" width="699.916556" height="115.044578"></rect>
            <rect id="Rectangle" fill="url(#linearGradient-3)" x="0" y="126" width="699.916556" height="106.281928"></rect>
            <g id="Group-4" transform="translate(0.000000, 111.000000)">
                <rect id="Rectangle" fill="#A0A0AB" x="0" y="0.092771" width="699.916556" height="13.7638554"></rect>
                <rect id="Rectangle" fill="#C0C0C8" x="0" y="0.092771" width="699.916556" height="4.2253012"></rect>
                <rect id="Rectangle" fill="#29293F" x="0" y="13.873494" width="699.916556" height="5.28795181"></rect>
                <rect id="Rectangle" fill="#FFFFFF" x="79.4198675" y="0.084337" width="24.4675497" height="13.7807229"></rect>
                <rect id="Rectangle" fill="#D9D9DE" x="82.4701987" y="2.040963" width="18.3483444" height="1.47590361" rx="0.737951805"></rect>
                <rect id="Rectangle" fill="#D9D9DE" x="82.4701987" y="10.43253" width="18.3483444" height="1.47590361" rx="0.737951805"></rect>
                <rect id="Rectangle" fill="#D9D9DE" x="96.5072848" y="5.574698" width="4.3205298" height="2.6060241" rx="1.30301205"></rect>
                <rect id="Rectangle" fill="#D9D9DE" x="87.9311258" y="5.549397" width="6.55496689" height="2.6060241" rx="1.30301205"></rect>
                <rect id="Rectangle" fill="#FFFFFF" x="173.015894" y="0.084337" width="24.4675497" height="13.7807229"></rect>
                <rect id="Rectangle" fill="#D9D9DE" x="176.075497" y="2.040963" width="18.3483444" height="1.47590361" rx="0.737951805"></rect>
                <rect id="Rectangle" fill="#D9D9DE" x="176.075497" y="10.43253" width="18.3483444" height="1.47590361" rx="0.737951805"></rect>
                <rect id="Rectangle" fill="#D9D9DE" x="190.103311" y="5.574698" width="4.3205298" height="2.6060241" rx="1.30301205"></rect>
                <rect id="Rectangle" fill="#D9D9DE" x="181.536424" y="5.549397" width="6.55496689" height="2.6060241" rx="1.30301205"></rect>
                <rect id="Rectangle" fill="#FFFFFF" x="235.784106" y="0.084337" width="24.4675497" height="13.7807229"></rect>
                <rect id="Rectangle" fill="#D9D9DE" x="238.843709" y="2.040963" width="18.3483444" height="1.47590361" rx="0.737951805"></rect>
                <rect id="Rectangle" fill="#D9D9DE" x="238.843709" y="10.43253" width="18.3483444" height="1.47590361" rx="0.737951805"></rect>
                <rect id="Rectangle" fill="#D9D9DE" x="252.871523" y="5.574698" width="4.3205298" height="2.6060241" rx="1.30301205"></rect>
                <rect id="Rectangle" fill="#D9D9DE" x="244.304636" y="5.549397" width="6.55496689" height="2.6060241" rx="1.30301205"></rect>
                <rect id="Rectangle" fill="#FFFFFF" x="327.210596" y="0" width="24.4675497" height="13.7807229"></rect>
                <rect id="Rectangle" fill="#D9D9DE" x="330.270199" y="1.948192" width="18.3483444" height="1.47590361" rx="0.737951805"></rect>
                <rect id="Rectangle" fill="#D9D9DE" x="330.270199" y="10.348192" width="18.3483444" height="1.47590361" rx="0.737951805"></rect>
                <rect id="Rectangle" fill="#D9D9DE" x="344.298013" y="5.490361" width="4.3205298" height="2.6060241" rx="1.30301205"></rect>
                <rect id="Rectangle" fill="#D9D9DE" x="335.731126" y="5.456626" width="6.55496689" height="2.6060241" rx="1.30301205"></rect>
                <rect id="Rectangle" fill="#FFFFFF" x="401.864901" y="0" width="24.4675497" height="13.7807229"></rect>
                <rect id="Rectangle" fill="#D9D9DE" x="404.924503" y="1.948192" width="18.3483444" height="1.47590361" rx="0.737951805"></rect>
                <rect id="Rectangle" fill="#D9D9DE" x="404.924503" y="10.348192" width="18.3483444" height="1.47590361" rx="0.737951805"></rect>
                <rect id="Rectangle" fill="#D9D9DE" x="418.952318" y="5.490361" width="4.3205298" height="2.6060241" rx="1.30301205"></rect>
                <rect id="Rectangle" fill="#D9D9DE" x="410.38543" y="5.456626" width="6.55496689" height="2.6060241" rx="1.30301205"></rect>
                <rect id="Rectangle" fill="#FFFFFF" x="456.566887" y="0" width="24.4675497" height="13.7807229"></rect>
                <rect id="Rectangle" fill="#D9D9DE" x="459.62649" y="1.948192" width="18.3483444" height="1.47590361" rx="0.737951805"></rect>
                <rect id="Rectangle" fill="#D9D9DE" x="459.62649" y="10.348192" width="18.3483444" height="1.47590361" rx="0.737951805"></rect>
                <rect id="Rectangle" fill="#D9D9DE" x="473.654305" y="5.490361" width="4.3205298" height="2.6060241" rx="1.30301205"></rect>
                <rect id="Rectangle" fill="#D9D9DE" x="465.087417" y="5.456626" width="6.55496689" height="2.6060241" rx="1.30301205"></rect>
                <rect id="Rectangle" fill="#FFFFFF" x="525.203974" y="0" width="24.4675497" height="13.7807229"></rect>
                <rect id="Rectangle" fill="#D9D9DE" x="528.263576" y="1.948192" width="18.3483444" height="1.47590361" rx="0.737951805"></rect>
                <rect id="Rectangle" fill="#D9D9DE" x="528.263576" y="10.348192" width="18.3483444" height="1.47590361" rx="0.737951805"></rect>
                <rect id="Rectangle" fill="#D9D9DE" x="542.291391" y="5.490361" width="4.3205298" height="2.6060241" rx="1.30301205"></rect>
                <rect id="Rectangle" fill="#D9D9DE" x="533.724503" y="5.456626" width="6.55496689" height="2.6060241" rx="1.30301205"></rect>
                <rect id="Rectangle" fill="#FFFFFF" x="621.952318" y="0.084337" width="24.4675497" height="13.7807229"></rect>
                <rect id="Rectangle" fill="#D9D9DE" x="625.011921" y="2.040963" width="18.3483444" height="1.47590361" rx="0.737951805"></rect>
                <rect id="Rectangle" fill="#D9D9DE" x="625.011921" y="10.43253" width="18.3483444" height="1.47590361" rx="0.737951805"></rect>
                <rect id="Rectangle" fill="#D9D9DE" x="639.039735" y="5.574698" width="4.3205298" height="2.6060241" rx="1.30301205"></rect>
                <rect id="Rectangle" fill="#D9D9DE" x="630.472848" y="5.549397" width="6.55496689" height="2.6060241" rx="1.30301205"></rect>
            </g>
            <g id="Group-3">
                <rect id="Rectangle" fill="#A0A0AB" x="0" y="0.0590361446" width="699.916556" height="13.7638554"></rect>
                <rect id="Rectangle" fill="#C0C0C8" x="0" y="0.0590361446" width="699.916556" height="4.2253012"></rect>
                <rect id="Rectangle" fill="#29293F" x="0" y="13.8313253" width="699.916556" height="5.28795181"></rect>
                <rect id="Rectangle" fill="#FFFFFF" x="58.8834437" y="0" width="24.4675497" height="13.7807229"></rect>
                <rect id="Rectangle" fill="#D9D9DE" x="61.9337748" y="1.95662651" width="18.3483444" height="1.47590361" rx="0.737951805"></rect>
                <rect id="Rectangle" fill="#D9D9DE" x="61.9337748" y="10.3481928" width="18.3483444" height="1.47590361" rx="0.737951805"></rect>
                <rect id="Rectangle" fill="#D9D9DE" x="75.9708609" y="5.49036145" width="4.3205298" height="2.6060241" rx="1.30301205"></rect>
                <rect id="Rectangle" fill="#D9D9DE" x="67.394702" y="5.46506024" width="6.55496689" height="2.6060241" rx="1.30301205"></rect>
                <rect id="Rectangle" fill="#FFFFFF" x="175.927152" y="0.0506024096" width="24.4675497" height="13.7807229"></rect>
                <rect id="Rectangle" fill="#D9D9DE" x="178.977483" y="1.99879518" width="18.3483444" height="1.47590361" rx="0.737951805"></rect>
                <rect id="Rectangle" fill="#D9D9DE" x="178.977483" y="10.3987952" width="18.3483444" height="1.47590361" rx="0.737951805"></rect>
                <rect id="Rectangle" fill="#D9D9DE" x="193.01457" y="5.54096386" width="4.3205298" height="2.6060241" rx="1.30301205"></rect>
                <rect id="Rectangle" fill="#D9D9DE" x="184.438411" y="5.51566265" width="6.55496689" height="2.6060241" rx="1.30301205"></rect>
                <rect id="Rectangle" fill="#FFFFFF" x="438.62649" y="0.0506024096" width="24.4675497" height="13.7807229"></rect>
                <rect id="Rectangle" fill="#D9D9DE" x="441.686093" y="1.99879518" width="18.3483444" height="1.47590361" rx="0.737951805"></rect>
                <rect id="Rectangle" fill="#D9D9DE" x="441.686093" y="10.3987952" width="18.3483444" height="1.47590361" rx="0.737951805"></rect>
                <rect id="Rectangle" fill="#D9D9DE" x="455.713907" y="5.54096386" width="4.3205298" height="2.6060241" rx="1.30301205"></rect>
                <rect id="Rectangle" fill="#D9D9DE" x="447.14702" y="5.51566265" width="6.55496689" height="2.6060241" rx="1.30301205"></rect>
                <rect id="Rectangle" fill="#FFFFFF" x="343.139073" y="0.0506024096" width="24.4675497" height="13.7807229"></rect>
                <rect id="Rectangle" fill="#D9D9DE" x="346.198675" y="1.99879518" width="18.3483444" height="1.47590361" rx="0.737951805"></rect>
                <rect id="Rectangle" fill="#D9D9DE" x="346.198675" y="10.3987952" width="18.3483444" height="1.47590361" rx="0.737951805"></rect>
                <rect id="Rectangle" fill="#D9D9DE" x="360.22649" y="5.54096386" width="4.3205298" height="2.6060241" rx="1.30301205"></rect>
                <rect id="Rectangle" fill="#D9D9DE" x="351.659603" y="5.51566265" width="6.55496689" height="2.6060241" rx="1.30301205"></rect>
                <rect id="Rectangle" fill="#FFFFFF" x="537.275497" y="0.0506024096" width="24.4675497" height="13.7807229"></rect>
                <rect id="Rectangle" fill="#D9D9DE" x="540.335099" y="1.99879518" width="18.3483444" height="1.47590361" rx="0.737951805"></rect>
                <rect id="Rectangle" fill="#D9D9DE" x="540.335099" y="10.3987952" width="18.3483444" height="1.47590361" rx="0.737951805"></rect>
                <rect id="Rectangle" fill="#D9D9DE" x="554.362914" y="5.54096386" width="4.3205298" height="2.6060241" rx="1.30301205"></rect>
                <rect id="Rectangle" fill="#D9D9DE" x="545.796026" y="5.51566265" width="6.55496689" height="2.6060241" rx="1.30301205"></rect>
                <rect id="Rectangle" fill="#FFFFFF" x="630.797351" y="0.0506024096" width="24.4675497" height="13.7807229"></rect>
                <rect id="Rectangle" fill="#D9D9DE" x="633.856954" y="1.99879518" width="18.3483444" height="1.47590361" rx="0.737951805"></rect>
                <rect id="Rectangle" fill="#D9D9DE" x="633.856954" y="10.3987952" width="18.3483444" height="1.47590361" rx="0.737951805"></rect>
                <rect id="Rectangle" fill="#D9D9DE" x="647.884768" y="5.54096386" width="4.3205298" height="2.6060241" rx="1.30301205"></rect>
                <rect id="Rectangle" fill="#D9D9DE" x="639.317881" y="5.51566265" width="6.55496689" height="2.6060241" rx="1.30301205"></rect>
            </g>
            <g id="Group" transform="translate(0.000000, 222.000000)">
                <rect id="Rectangle" fill="#A0A0AB" x="0" y="0.008434" width="699.916556" height="13.7638554"></rect>
                <rect id="Rectangle" fill="#C0C0C8" x="0" y="0.008434" width="699.916556" height="4.2253012"></rect>
                <rect id="Rectangle" fill="#29293F" x="0" y="13.780723" width="699.916556" height="5.28795181"></rect>
                <rect id="Rectangle" fill="#FFFFFF" x="134.613245" y="0" width="24.4675497" height="13.7807229"></rect>
                <rect id="Rectangle" fill="#D9D9DE" x="137.672848" y="1.948193" width="18.3483444" height="1.47590361" rx="0.737951805"></rect>
                <rect id="Rectangle" fill="#D9D9DE" x="137.672848" y="10.348193" width="18.3483444" height="1.47590361" rx="0.737951805"></rect>
                <rect id="Rectangle" fill="#D9D9DE" x="151.700662" y="5.490361" width="4.3205298" height="2.6060241" rx="1.30301205"></rect>
                <rect id="Rectangle" fill="#D9D9DE" x="143.133775" y="5.456626" width="6.55496689" height="2.6060241" rx="1.30301205"></rect>
                <rect id="Rectangle" fill="#FFFFFF" x="231.908609" y="0" width="24.4675497" height="13.7807229"></rect>
                <rect id="Rectangle" fill="#D9D9DE" x="234.95894" y="1.948193" width="18.3483444" height="1.47590361" rx="0.737951805"></rect>
                <rect id="Rectangle" fill="#D9D9DE" x="234.95894" y="10.348193" width="18.3483444" height="1.47590361" rx="0.737951805"></rect>
                <rect id="Rectangle" fill="#D9D9DE" x="248.996026" y="5.490361" width="4.3205298" height="2.6060241" rx="1.30301205"></rect>
                <rect id="Rectangle" fill="#D9D9DE" x="240.419868" y="5.456626" width="6.55496689" height="2.6060241" rx="1.30301205"></rect>
                <rect id="Rectangle" fill="#FFFFFF" x="323.047682" y="0" width="24.4675497" height="13.7807229"></rect>
                <rect id="Rectangle" fill="#D9D9DE" x="326.107285" y="1.948193" width="18.3483444" height="1.47590361" rx="0.737951805"></rect>
                <rect id="Rectangle" fill="#D9D9DE" x="326.107285" y="10.348193" width="18.3483444" height="1.47590361" rx="0.737951805"></rect>
                <rect id="Rectangle" fill="#D9D9DE" x="340.135099" y="5.490361" width="4.3205298" height="2.6060241" rx="1.30301205"></rect>
                <rect id="Rectangle" fill="#D9D9DE" x="331.568212" y="5.456626" width="6.55496689" height="2.6060241" rx="1.30301205"></rect>
                <rect id="Rectangle" fill="#FFFFFF" x="452.50596" y="0" width="24.4675497" height="13.7807229"></rect>
                <rect id="Rectangle" fill="#D9D9DE" x="455.556291" y="1.948193" width="18.3483444" height="1.47590361" rx="0.737951805"></rect>
                <rect id="Rectangle" fill="#D9D9DE" x="455.556291" y="10.348193" width="18.3483444" height="1.47590361" rx="0.737951805"></rect>
                <rect id="Rectangle" fill="#D9D9DE" x="469.593377" y="5.490361" width="4.3205298" height="2.6060241" rx="1.30301205"></rect>
                <rect id="Rectangle" fill="#D9D9DE" x="461.017219" y="5.456626" width="6.55496689" height="2.6060241" rx="1.30301205"></rect>
                <rect id="Rectangle" fill="#FFFFFF" x="608.69404" y="0" width="24.4675497" height="13.7807229"></rect>
                <rect id="Rectangle" fill="#D9D9DE" x="611.753642" y="1.948193" width="18.3483444" height="1.47590361" rx="0.737951805"></rect>
                <rect id="Rectangle" fill="#D9D9DE" x="611.753642" y="10.348193" width="18.3483444" height="1.47590361" rx="0.737951805"></rect>
                <rect id="Rectangle" fill="#D9D9DE" x="625.781457" y="5.490361" width="4.3205298" height="2.6060241" rx="1.30301205"></rect>
                <rect id="Rectangle" fill="#D9D9DE" x="617.21457" y="5.456626" width="6.55496689" height="2.6060241" rx="1.30301205"></rect>
            </g>
            <g id="Group-2" transform="translate(0.000000, 334.000000)">
                <rect id="Rectangle" fill="#A0A0AB" x="0" y="0.008434" width="699.916556" height="13.7638554"></rect>
                <rect id="Rectangle" fill="#C0C0C8" x="0" y="0.008434" width="699.916556" height="4.2253012"></rect>
                <rect id="Rectangle" fill="#29293F" x="0" y="13.780723" width="699.916556" height="2"></rect>
                <rect id="Rectangle" fill="#FFFFFF" x="62.4437086" y="0" width="24.4675497" height="13.7807229"></rect>
                <rect id="Rectangle" fill="#D9D9DE" x="65.4940397" y="1.948193" width="18.3483444" height="1.47590361" rx="0.737951805"></rect>
                <rect id="Rectangle" fill="#D9D9DE" x="65.4940397" y="10.348193" width="18.3483444" height="1.47590361" rx="0.737951805"></rect>
                <rect id="Rectangle" fill="#D9D9DE" x="79.5311258" y="5.490362" width="4.3205298" height="2.6060241" rx="1.30301205"></rect>
                <rect id="Rectangle" fill="#D9D9DE" x="70.9549669" y="5.456627" width="6.55496689" height="2.6060241" rx="1.30301205"></rect>
                <rect id="Rectangle" fill="#FFFFFF" x="199.690066" y="0" width="24.4675497" height="13.7807229"></rect>
                <rect id="Rectangle" fill="#D9D9DE" x="202.749669" y="1.948193" width="18.3483444" height="1.47590361" rx="0.737951805"></rect>
                <rect id="Rectangle" fill="#D9D9DE" x="202.749669" y="10.348193" width="18.3483444" height="1.47590361" rx="0.737951805"></rect>
                <rect id="Rectangle" fill="#D9D9DE" x="216.777483" y="5.490362" width="4.3205298" height="2.6060241" rx="1.30301205"></rect>
                <rect id="Rectangle" fill="#D9D9DE" x="208.210596" y="5.456627" width="6.55496689" height="2.6060241" rx="1.30301205"></rect>
                <rect id="Rectangle" fill="#FFFFFF" x="339.439735" y="0" width="24.4675497" height="13.7807229"></rect>
                <rect id="Rectangle" fill="#D9D9DE" x="342.499338" y="1.948193" width="18.3483444" height="1.47590361" rx="0.737951805"></rect>
                <rect id="Rectangle" fill="#D9D9DE" x="342.499338" y="10.348193" width="18.3483444" height="1.47590361" rx="0.737951805"></rect>
                <rect id="Rectangle" fill="#D9D9DE" x="356.527152" y="5.490362" width="4.3205298" height="2.6060241" rx="1.30301205"></rect>
                <rect id="Rectangle" fill="#D9D9DE" x="347.960265" y="5.456627" width="6.55496689" height="2.6060241" rx="1.30301205"></rect>
                <rect id="Rectangle" fill="#FFFFFF" x="475.916556" y="0" width="24.4675497" height="13.7807229"></rect>
                <rect id="Rectangle" fill="#D9D9DE" x="478.976159" y="1.948193" width="18.3483444" height="1.47590361" rx="0.737951805"></rect>
                <rect id="Rectangle" fill="#D9D9DE" x="478.976159" y="10.348193" width="18.3483444" height="1.47590361" rx="0.737951805"></rect>
                <rect id="Rectangle" fill="#D9D9DE" x="493.003974" y="5.490362" width="4.3205298" height="2.6060241" rx="1.30301205"></rect>
                <rect id="Rectangle" fill="#D9D9DE" x="484.437086" y="5.456627" width="6.55496689" height="2.6060241" rx="1.30301205"></rect>
                <rect id="Rectangle" fill="#FFFFFF" x="613.849007" y="0" width="24.4675497" height="13.7807229"></rect>
                <rect id="Rectangle" fill="#D9D9DE" x="616.908609" y="1.948193" width="18.3483444" height="1.47590361" rx="0.737951805"></rect>
                <rect id="Rectangle" fill="#D9D9DE" x="616.908609" y="10.348193" width="18.3483444" height="1.47590361" rx="0.737951805"></rect>
                <rect id="Rectangle" fill="#D9D9DE" x="630.936424" y="5.490362" width="4.3205298" height="2.6060241" rx="1.30301205"></rect>
                <rect id="Rectangle" fill="#D9D9DE" x="622.369536" y="5.456627" width="6.55496689" height="2.6060241" rx="1.30301205"></rect>
            </g>
        </g>
    </g>
</svg>