<svg id="Layer_1" data-name="Layer 1" xmlns="http://www.w3.org/2000/svg" xmlns:xlink="http://www.w3.org/1999/xlink" viewBox="0 0 754.91 414.98"><defs><style>.cls-1{fill:url(#linear-gradient);}.cls-2{fill:url(#linear-gradient-2);}.cls-3{fill:url(#linear-gradient-3);}.cls-4{fill:#a0a0ab;}.cls-5{fill:#c0c0c8;}.cls-6{fill:#29293f;}.cls-7{fill:#fff;}.cls-8{fill:#d9d9de;}</style><linearGradient id="linear-gradient" x1="377.46" y1="271.34" x2="377.46" y2="399.41" gradientUnits="userSpaceOnUse"><stop offset="0" stop-color="#3c3c50"/><stop offset="0.27" stop-color="#3c3c50"/><stop offset="0.72" stop-color="#2a2a40"/></linearGradient><linearGradient id="linear-gradient-2" x1="377.46" y1="7.11" x2="377.46" y2="143.51" xlink:href="#linear-gradient"/><linearGradient id="linear-gradient-3" x1="377.46" y1="145.31" x2="377.46" y2="271.34" xlink:href="#linear-gradient"/></defs><rect class="cls-1" y="271.34" width="754.91" height="128.07"/><rect class="cls-2" y="7.11" width="754.91" height="136.41"/><rect class="cls-3" y="145.31" width="754.91" height="126.02"/><rect class="cls-4" y="137.15" width="754.91" height="16.32"/><rect class="cls-5" y="137.15" width="754.91" height="5.01"/><rect class="cls-6" y="153.49" width="754.91" height="6.27"/><rect class="cls-7" x="85.66" y="137.14" width="26.39" height="16.34"/><rect class="cls-8" x="88.95" y="139.46" width="19.79" height="1.75" rx="0.87"/><rect class="cls-8" x="88.95" y="149.41" width="19.79" height="1.75" rx="0.87"/><rect class="cls-8" x="104.09" y="143.65" width="4.66" height="3.09" rx="1.53"/><rect class="cls-8" x="94.84" y="143.62" width="7.07" height="3.09" rx="1.53"/><rect class="cls-7" x="186.61" y="137.14" width="26.39" height="16.34"/><rect class="cls-8" x="189.91" y="139.46" width="19.79" height="1.75" rx="0.87"/><rect class="cls-8" x="189.91" y="149.41" width="19.79" height="1.75" rx="0.87"/><rect class="cls-8" x="205.04" y="143.65" width="4.66" height="3.09" rx="1.53"/><rect class="cls-8" x="195.8" y="143.62" width="7.07" height="3.09" rx="1.53"/><rect class="cls-7" x="254.31" y="137.14" width="26.39" height="16.34"/><rect class="cls-8" x="257.61" y="139.46" width="19.79" height="1.75" rx="0.87"/><rect class="cls-8" x="257.61" y="149.41" width="19.79" height="1.75" rx="0.87"/><rect class="cls-8" x="272.74" y="143.65" width="4.66" height="3.09" rx="1.53"/><rect class="cls-8" x="263.5" y="143.62" width="7.07" height="3.09" rx="1.53"/><rect class="cls-7" x="352.92" y="137.04" width="26.39" height="16.34"/><rect class="cls-8" x="356.22" y="139.35" width="19.79" height="1.75" rx="0.87"/><rect class="cls-8" x="356.22" y="149.31" width="19.79" height="1.75" rx="0.87"/><rect class="cls-8" x="371.35" y="143.55" width="4.66" height="3.09" rx="1.53"/><rect class="cls-8" x="362.11" y="143.51" width="7.07" height="3.09" rx="1.53"/><rect class="cls-7" x="433.44" y="137.04" width="26.39" height="16.34"/><rect class="cls-8" x="436.74" y="139.35" width="19.79" height="1.75" rx="0.87"/><rect class="cls-8" x="436.74" y="149.31" width="19.79" height="1.75" rx="0.87"/><rect class="cls-8" x="451.87" y="143.55" width="4.66" height="3.09" rx="1.53"/><rect class="cls-8" x="442.63" y="143.51" width="7.07" height="3.09" rx="1.53"/><rect class="cls-7" x="492.44" y="137.04" width="26.39" height="16.34"/><rect class="cls-8" x="495.74" y="139.35" width="19.79" height="1.75" rx="0.87"/><rect class="cls-8" x="495.74" y="149.31" width="19.79" height="1.75" rx="0.87"/><rect class="cls-8" x="510.87" y="143.55" width="4.66" height="3.09" rx="1.53"/><rect class="cls-8" x="501.63" y="143.51" width="7.07" height="3.09" rx="1.53"/><rect class="cls-7" x="566.47" y="137.04" width="26.39" height="16.34"/><rect class="cls-8" x="569.77" y="139.35" width="19.79" height="1.75" rx="0.87"/><rect class="cls-8" x="569.77" y="149.31" width="19.79" height="1.75" rx="0.87"/><rect class="cls-8" x="584.9" y="143.55" width="4.66" height="3.09" rx="1.53"/><rect class="cls-8" x="575.66" y="143.51" width="7.07" height="3.09" rx="1.53"/><rect class="cls-7" x="670.82" y="137.14" width="26.39" height="16.34"/><rect class="cls-8" x="674.12" y="139.46" width="19.79" height="1.75" rx="0.87"/><rect class="cls-8" x="674.12" y="149.41" width="19.79" height="1.75" rx="0.87"/><rect class="cls-8" x="689.25" y="143.65" width="4.66" height="3.09" rx="1.53"/><rect class="cls-8" x="680.01" y="143.62" width="7.07" height="3.09" rx="1.53"/><rect class="cls-4" y="0.07" width="754.91" height="16.32"/><rect class="cls-5" y="0.07" width="754.91" height="5.01"/><rect class="cls-6" y="16.4" width="754.91" height="6.27"/><rect class="cls-7" x="63.51" width="26.39" height="16.34"/><rect class="cls-8" x="66.8" y="2.32" width="19.79" height="1.75" rx="0.87"/><rect class="cls-8" x="66.8" y="12.27" width="19.79" height="1.75" rx="0.87"/><rect class="cls-8" x="81.94" y="6.51" width="4.66" height="3.09" rx="1.53"/><rect class="cls-8" x="72.69" y="6.48" width="7.07" height="3.09" rx="1.53"/><rect class="cls-7" x="189.75" y="0.06" width="26.39" height="16.34"/><rect class="cls-8" x="193.04" y="2.37" width="19.79" height="1.75" rx="0.87"/><rect class="cls-8" x="193.04" y="12.33" width="19.79" height="1.75" rx="0.87"/><rect class="cls-8" x="208.18" y="6.57" width="4.66" height="3.09" rx="1.53"/><rect class="cls-8" x="198.93" y="6.54" width="7.07" height="3.09" rx="1.53"/><rect class="cls-7" x="473.09" y="0.06" width="26.39" height="16.34"/><rect class="cls-8" x="476.39" y="2.37" width="19.79" height="1.75" rx="0.87"/><rect class="cls-8" x="476.39" y="12.33" width="19.79" height="1.75" rx="0.87"/><rect class="cls-8" x="491.52" y="6.57" width="4.66" height="3.09" rx="1.53"/><rect class="cls-8" x="482.28" y="6.54" width="7.07" height="3.09" rx="1.53"/><rect class="cls-7" x="370.1" y="0.06" width="26.39" height="16.34"/><rect class="cls-8" x="373.4" y="2.37" width="19.79" height="1.75" rx="0.87"/><rect class="cls-8" x="373.4" y="12.33" width="19.79" height="1.75" rx="0.87"/><rect class="cls-8" x="388.53" y="6.57" width="4.66" height="3.09" rx="1.53"/><rect class="cls-8" x="379.29" y="6.54" width="7.07" height="3.09" rx="1.53"/><rect class="cls-7" x="579.49" y="0.06" width="26.39" height="16.34"/><rect class="cls-8" x="582.79" y="2.37" width="19.79" height="1.75" rx="0.87"/><rect class="cls-8" x="582.79" y="12.33" width="19.79" height="1.75" rx="0.87"/><rect class="cls-8" x="597.92" y="6.57" width="4.66" height="3.09" rx="1.53"/><rect class="cls-8" x="588.68" y="6.54" width="7.07" height="3.09" rx="1.53"/><rect class="cls-7" x="680.36" y="0.06" width="26.39" height="16.34"/><rect class="cls-8" x="683.66" y="2.37" width="19.79" height="1.75" rx="0.87"/><rect class="cls-8" x="683.66" y="12.33" width="19.79" height="1.75" rx="0.87"/><rect class="cls-8" x="698.79" y="6.57" width="4.66" height="3.09" rx="1.53"/><rect class="cls-8" x="689.55" y="6.54" width="7.07" height="3.09" rx="1.53"/><rect class="cls-4" y="267.88" width="754.91" height="16.32"/><rect class="cls-5" y="267.88" width="754.91" height="5.01"/><rect class="cls-6" y="284.21" width="754.91" height="6.27"/><rect class="cls-7" x="145.19" y="267.87" width="26.39" height="16.34"/><rect class="cls-8" x="148.49" y="270.18" width="19.79" height="1.75" rx="0.87"/><rect class="cls-8" x="148.49" y="280.14" width="19.79" height="1.75" rx="0.87"/><rect class="cls-8" x="163.62" y="274.38" width="4.66" height="3.09" rx="1.53"/><rect class="cls-8" x="154.38" y="274.34" width="7.07" height="3.09" rx="1.53"/><rect class="cls-7" x="250.13" y="267.87" width="26.39" height="16.34"/><rect class="cls-8" x="253.42" y="270.18" width="19.79" height="1.75" rx="0.87"/><rect class="cls-8" x="253.42" y="280.14" width="19.79" height="1.75" rx="0.87"/><rect class="cls-8" x="268.56" y="274.38" width="4.66" height="3.09" rx="1.53"/><rect class="cls-8" x="259.31" y="274.34" width="7.07" height="3.09" rx="1.53"/><rect class="cls-7" x="348.43" y="267.87" width="26.39" height="16.34"/><rect class="cls-8" x="351.73" y="270.18" width="19.79" height="1.75" rx="0.87"/><rect class="cls-8" x="351.73" y="280.14" width="19.79" height="1.75" rx="0.87"/><rect class="cls-8" x="366.86" y="274.38" width="4.66" height="3.09" rx="1.53"/><rect class="cls-8" x="357.62" y="274.34" width="7.07" height="3.09" rx="1.53"/><rect class="cls-7" x="488.06" y="267.87" width="26.39" height="16.34"/><rect class="cls-8" x="491.35" y="270.18" width="19.79" height="1.75" rx="0.87"/><rect class="cls-8" x="491.35" y="280.14" width="19.79" height="1.75" rx="0.87"/><rect class="cls-8" x="506.49" y="274.38" width="4.66" height="3.09" rx="1.53"/><rect class="cls-8" x="497.24" y="274.34" width="7.07" height="3.09" rx="1.53"/><rect class="cls-7" x="656.52" y="267.87" width="26.39" height="16.34"/><rect class="cls-8" x="659.82" y="270.18" width="19.79" height="1.75" rx="0.87"/><rect class="cls-8" x="659.82" y="280.14" width="19.79" height="1.75" rx="0.87"/><rect class="cls-8" x="674.95" y="274.38" width="4.66" height="3.09" rx="1.53"/><rect class="cls-8" x="665.71" y="274.34" width="7.07" height="3.09" rx="1.53"/><rect class="cls-4" y="392.37" width="754.91" height="16.32"/><rect class="cls-5" y="392.37" width="754.91" height="5.01"/><rect class="cls-6" y="408.7" width="754.91" height="6.27"/><rect class="cls-7" x="67.35" y="392.36" width="26.39" height="16.34"/><rect class="cls-8" x="70.64" y="394.67" width="19.79" height="1.75" rx="0.87"/><rect class="cls-8" x="70.64" y="404.63" width="19.79" height="1.75" rx="0.87"/><rect class="cls-8" x="85.78" y="398.87" width="4.66" height="3.09" rx="1.53"/><rect class="cls-8" x="76.53" y="398.83" width="7.07" height="3.09" rx="1.53"/><rect class="cls-7" x="215.38" y="392.36" width="26.39" height="16.34"/><rect class="cls-8" x="218.68" y="394.67" width="19.79" height="1.75" rx="0.87"/><rect class="cls-8" x="218.68" y="404.63" width="19.79" height="1.75" rx="0.87"/><rect class="cls-8" x="233.81" y="398.87" width="4.66" height="3.09" rx="1.53"/><rect class="cls-8" x="224.57" y="398.83" width="7.07" height="3.09" rx="1.53"/><rect class="cls-7" x="366.11" y="392.36" width="26.39" height="16.34"/><rect class="cls-8" x="369.41" y="394.67" width="19.79" height="1.75" rx="0.87"/><rect class="cls-8" x="369.41" y="404.63" width="19.79" height="1.75" rx="0.87"/><rect class="cls-8" x="384.54" y="398.87" width="4.66" height="3.09" rx="1.53"/><rect class="cls-8" x="375.3" y="398.83" width="7.07" height="3.09" rx="1.53"/><rect class="cls-7" x="513.31" y="392.36" width="26.39" height="16.34"/><rect class="cls-8" x="516.61" y="394.67" width="19.79" height="1.75" rx="0.87"/><rect class="cls-8" x="516.61" y="404.63" width="19.79" height="1.75" rx="0.87"/><rect class="cls-8" x="531.74" y="398.87" width="4.66" height="3.09" rx="1.53"/><rect class="cls-8" x="522.5" y="398.83" width="7.07" height="3.09" rx="1.53"/><rect class="cls-7" x="662.08" y="392.36" width="26.39" height="16.34"/><rect class="cls-8" x="665.38" y="394.67" width="19.79" height="1.75" rx="0.87"/><rect class="cls-8" x="665.38" y="404.63" width="19.79" height="1.75" rx="0.87"/><rect class="cls-8" x="680.51" y="398.87" width="4.66" height="3.09" rx="1.53"/><rect class="cls-8" x="671.27" y="398.83" width="7.07" height="3.09" rx="1.53"/></svg>