<svg id="Layer_1" data-name="Layer 1" xmlns="http://www.w3.org/2000/svg" viewBox="0 0 500 499.99"><defs><style>.cls-1{fill:#7e2572;}.cls-2{fill:#fff;}</style></defs><title>arrow</title><circle class="cls-1" cx="250" cy="250" r="237.01"/><path class="cls-2" d="M250,500C112.15,500,0,387.84,0,250S112.15,0,250,0,500,112.15,500,250,387.85,500,250,500Zm0-474C126.47,26,26,126.47,26,250s100.5,224,224,224S474,373.53,474,250,373.53,26,250,26Z" transform="translate(0 0)"/><path class="cls-2" d="M317.43,187.78h0a11.78,11.78,0,0,0,0,16.64L363,250l-45.59,45.59a11.76,11.76,0,0,0,0,16.63h0a11.76,11.76,0,0,0,16.64,0L396.29,250l-62.22-62.22A11.78,11.78,0,0,0,317.43,187.78Z" transform="translate(0 0)"/><path class="cls-2" d="M170.73,187.78,108.51,250l62.22,62.22a11.75,11.75,0,0,0,16.63,0h0a11.75,11.75,0,0,0,0-16.63L141.78,250l45.58-45.58a11.76,11.76,0,0,0,0-16.64h0A11.76,11.76,0,0,0,170.73,187.78Z" transform="translate(0 0)"/></svg>