<svg xmlns="http://www.w3.org/2000/svg" viewBox="0 0 296.59 566"><defs><style>.cls-1{isolation:isolate;}.cls-2,.cls-3,.cls-6{fill:#b7b9b8;}.cls-3,.cls-5{opacity:0.5;mix-blend-mode:multiply;}.cls-4,.cls-5{fill:#a0a1a0;}.cls-6,.cls-8{opacity:0.3;mix-blend-mode:screen;}.cls-7{fill:#9adafb;}.cls-8{fill:#a2a2a2;}</style></defs><g class="cls-1"><g id="Layer_1" data-name="Layer 1"><rect class="cls-2" x="46.5" width="12.65" height="255.81"/><rect class="cls-3" x="46.5" width="3.16" height="255.81"/><rect class="cls-2" x="250.09" width="12.65" height="255.81"/><rect class="cls-3" x="250.09" width="3.16" height="255.81"/><rect class="cls-2" y="251.48" width="296.59" height="299.35" rx="11.63"/><path class="cls-4" d="M285,550.82H11.63A11.62,11.62,0,0,1,0,539.2v15.17A11.62,11.62,0,0,0,11.63,566H285a11.63,11.63,0,0,0,11.63-11.63V539.2A11.63,11.63,0,0,1,285,550.82Z"/><path class="cls-3" d="M296.59,539.2V263.1A11.63,11.63,0,0,0,285,251.48H274.71a907.45,907.45,0,0,1-14.93,149.73c-5,26.89-11.65,54.52-28.51,76.06-18.27,23.35-46.78,36.91-75.83,42.8C141.2,523,43.22,524.18,28.7,524.56c-7,.19-14,.16-21,0-2.18,0-4.91-.36-7.73-.67V539.2a11.62,11.62,0,0,0,11.63,11.62H285A11.63,11.63,0,0,0,296.59,539.2Z"/><path class="cls-5" d="M296.59,539.2A11.63,11.63,0,0,1,285,550.82H275a10.35,10.35,0,0,1-.54,1.29c-3.54,5.93-11.68,6.7-18.59,6.8-44.09.63-171.64,1.25-215.74,1.88-9.62.14-19.58.21-28.39-3.67A27.84,27.84,0,0,1,0,547.12v7.25A11.62,11.62,0,0,0,11.63,566H285a11.63,11.63,0,0,0,11.63-11.63Z"/><path class="cls-6" d="M19.39,251.48Q13.87,384.92,8.33,518.38c18.26-1.69,119.36-3.72,137-8.8s34.63-13.8,46.78-27.53c12.74-14.39,19.28-33.14,24.38-51.67,16-58.14,20.7-118.62,24.19-178.9Z"/><rect class="cls-7" x="15.18" y="266.65" width="266.23" height="268.99" rx="9.89"/><polygon class="cls-8" points="164.08 535.65 223.96 535.65 262.19 266.65 241.03 266.65 164.08 535.65"/><path class="cls-8" d="M234,266.65H206.57C183.37,307.7,54,392.25,15.18,464v61.73a9.89,9.89,0,0,0,9.89,9.89H153.81Z"/></g></g></svg>