<svg id="Layer_1" data-name="Layer 1" xmlns="http://www.w3.org/2000/svg" viewBox="0 0 48.36 96.32"><defs><style>.cls-1{fill:#dbf1fd;}.cls-2{fill:#299aea;}.cls-3{fill:#1379da;}.cls-4{fill:#61b6f2;}.cls-5{fill:#29293f;}.cls-6{fill:#3c3c50;}.cls-7{fill:#31a33c;}.cls-8{fill:#fff;}</style></defs><polygon class="cls-1" points="30.37 18.54 0 18.54 9 7.3 39.37 7.3 30.37 18.54"/><polygon class="cls-2" points="48.36 96.32 30.37 96.13 30.37 18.54 48.36 18.54 48.36 96.32"/><polygon class="cls-3" points="39.37 7.3 35.88 11.66 48.36 18.54 39.37 7.3"/><polygon class="cls-4" points="48.36 18.54 35.88 11.66 30.37 18.54 48.36 18.54"/><path class="cls-2" d="M12.64,0H35.73a3.64,3.64,0,0,1,3.64,3.64V7.3a0,0,0,0,1,0,0H9a0,0,0,0,1,0,0V3.64A3.64,3.64,0,0,1,12.64,0Z"/><polygon class="cls-4" points="30.37 96.31 0 96.31 0 18.54 30.37 18.54 30.36 45.6 30.37 96.31"/><rect class="cls-4" y="18.54" width="30.37" height="24.29"/><path class="cls-5" d="M19.77,7.58A5.59,5.59,0,0,0,15,12.39l-1.08.44,1.78,1.77.05.06c1.29,1.29,3.75.91,5.5-.84s2.12-4.2.84-5.49L20.22,6.5Z"/><path class="cls-6" d="M20.22,6.5c1.28,1.29.9,3.74-.85,5.49s-4.2,2.12-5.49.84-.91-3.74.84-5.49S18.93,5.22,20.22,6.5Z"/><path class="cls-3" d="M9.81,93.3H4.49a1,1,0,1,1,0-2H9.81a1,1,0,1,1,0,2Z"/><path class="cls-3" d="M25.88,93.3h-11a1,1,0,0,1,0-2h11a1,1,0,0,1,0,2Z"/><rect class="cls-3" x="33.93" y="26.73" width="11.02" height="14.51" rx="2.09"/><rect class="cls-3" x="33.93" y="86.18" width="11.02" height="6.13" rx="2.09"/><rect class="cls-3" x="33.93" y="45.42" width="11.02" height="31.98" rx="2.09"/><path class="cls-7" d="M10.21,18.54v.06A10.2,10.2,0,0,1,0,28.8V18.54Z"/><path class="cls-8" d="M27.34,42.48a3,3,0,0,0-3,3,3,3,0,0,0-6.07,0,3,3,0,0,0-6.08,0,3,3,0,0,0-6.07,0,3,3,0,0,0-6.07,0V68.13a3,3,0,1,0,6.07,0V56.9a3,3,0,0,1,6.07,0v19a3,3,0,1,0,6.08,0V61.6a3,3,0,0,1,6.07,0v2.77a3,3,0,0,0,6.08,0V45.51A3,3,0,0,0,27.34,42.48Z"/><path class="cls-8" d="M30.38,39.05v2.38h-6a9.07,9.07,0,0,0-17.93,0H0V39.05H4.47a11.55,11.55,0,0,1,21.83,0Z"/><path class="cls-8" d="M30.38,44.23v2.39H26.3a11.55,11.55,0,0,1-21.83,0H0V44.23h6.4a9.07,9.07,0,0,0,17.93,0Z"/><path class="cls-5" d="M30.36,40.69V45.6H24.7a9.69,9.69,0,0,1-9.3,6.95A9.92,9.92,0,0,1,6,45.6H0V40.69H5.78a9.91,9.91,0,0,1,9.62-7.58,9.72,9.72,0,0,1,9.47,7.58Z"/><path class="cls-8" d="M7.44,41a.9.9,0,0,1,1.74-.3l.72,2a2.31,2.31,0,0,1,.1.4l0,.17h0l0-.17a2.05,2.05,0,0,1,.12-.4l.71-2a.87.87,0,0,1,.82-.57.86.86,0,0,1,.85.86v3.22a.57.57,0,0,1-1.13,0V41.63h0l0,.25a3.65,3.65,0,0,1-.15.53l-.68,1.93a.59.59,0,0,1-.56.4.6.6,0,0,1-.57-.4l-.68-1.93a4,4,0,0,1-.15-.53c0-.09,0-.17,0-.25h0v2.58a.54.54,0,0,1-1.07,0Z"/><path class="cls-8" d="M13.5,40.69a.58.58,0,0,1,.58-.58.57.57,0,0,1,.57.58v3.48a.56.56,0,0,1-.57.57.57.57,0,0,1-.58-.57Z"/><path class="cls-8" d="M15.56,40.69a.57.57,0,0,1,.57-.58.58.58,0,0,1,.58.58v3.06H18.3a.48.48,0,0,1,0,1H16.07a.46.46,0,0,1-.51-.51Z"/><path class="cls-8" d="M19.34,40.68a.57.57,0,1,1,1.14,0v1.47l1.45-1.85a.48.48,0,0,1,.86.29.42.42,0,0,1-.11.3L21.76,42l1.17,1.84a.53.53,0,0,1,.09.3.56.56,0,0,1-.56.57.57.57,0,0,1-.49-.26l-1-1.57-.5.61v.66a.57.57,0,0,1-1.14,0Z"/><path class="cls-8" d="M0,85.53a3,3,0,0,0,3.36,3,3.16,3.16,0,0,0,2.71-3.2V82.49a3,3,0,0,0-6.07,0Z"/><path class="cls-8" d="M24.3,81a3,3,0,0,0,3.37,3,3.17,3.17,0,0,0,2.71-3.2V75.88a3,3,0,0,0-6.08,0Z"/></svg>