<svg id="Layer_1" data-name="Layer 1" xmlns="http://www.w3.org/2000/svg" viewBox="0 0 53.86 78.39"><defs><style>.cls-1{fill:#aadbf9;}.cls-2{fill:#ceecfc;}.cls-3{fill:#79ce4d;}.cls-4{fill:#007136;}.cls-5{fill:#368916;}.cls-6{fill:#459b1e;}.cls-7{fill:#68bb35;}.cls-8{fill:#60a827;}.cls-9{fill:#ff3d3d;}.cls-10{fill:#f3efed;}.cls-11{fill:#74b8e2;}.cls-12{fill:#fff;}.cls-13{fill:#e7dfda;}.cls-14{fill:#8fd853;}.cls-15{fill:#c2e9ae;}</style></defs><path class="cls-1" d="M53.86,29.52V68.85a9.55,9.55,0,0,1-9.55,9.54H9.56A9.55,9.55,0,0,1,0,68.85V29.46A15.37,15.37,0,0,1,5.44,17.73l5.93-5V6.9H42.5v5.81l6,5.13A15.36,15.36,0,0,1,53.86,29.52Z"/><path class="cls-2" d="M40.56,15l-1-.88V8.17H14.33v5.91L10,17.73H43.79Z"/><path class="cls-3" d="M50.9,29.52a12.38,12.38,0,0,0-4.36-9.43l-2.75-2.36H10L7.36,20A12.39,12.39,0,0,0,3,29.46V50.09H50.9Z"/><path class="cls-4" d="M3,50.09V68.85a6.6,6.6,0,0,0,6.6,6.58H44.31a6.59,6.59,0,0,0,6.59-6.58V50.09Z"/><path class="cls-5" d="M48.21,38.38a4,4,0,0,0-2.57,0c-.16,0-.31.12-.46.18a6.17,6.17,0,0,0-12.33.12v4.74A4.1,4.1,0,0,0,29,40.78a3.93,3.93,0,0,0-1.24.2,4.11,4.11,0,0,0-2.86,3.89v7.61s0,.08,0,.12v-.24A5.21,5.21,0,0,0,21,47.25a5.09,5.09,0,0,0-6.28,4.93v2.21A1.8,1.8,0,0,0,13,52.6a1.91,1.91,0,0,0-.54.08,1.79,1.79,0,0,0-1.25,1.71V45.85a4.11,4.11,0,0,0-4.1-4.09,3.94,3.94,0,0,0-1.25.2A4.11,4.11,0,0,0,3,45.85v16.6a4.12,4.12,0,0,0,2.86,3.9,4.25,4.25,0,0,0,1.25.19,4.11,4.11,0,0,0,4.1-4.09v3.93a1.79,1.79,0,0,0,1.25,1.71,1.91,1.91,0,0,0,.54.08,1.8,1.8,0,0,0,1.8-1.79V69a5.09,5.09,0,1,0,10.17-.09V56c0-.06,0-.11,0-.16v5.6a4.12,4.12,0,0,0,2.86,3.9,4.23,4.23,0,0,0,1.24.19,4.1,4.1,0,0,0,4.09-4V64a5.93,5.93,0,0,0,5.94,5.92h.18A5.93,5.93,0,0,0,45.19,64V62.17a3,3,0,0,0,.45.19,4,4,0,0,0,2.57,0,4.12,4.12,0,0,0,2.69-3.94V42.33A4.13,4.13,0,0,0,48.21,38.38Z"/><path class="cls-6" d="M16.28,20.56a4.91,4.91,0,0,0-1.54.24,5.09,5.09,0,0,1,3.53,4.82V46.19A5.1,5.1,0,0,1,14.74,51a4.91,4.91,0,0,0,1.54.24,5.08,5.08,0,0,0,5.07-5.07V25.62A5.08,5.08,0,0,0,16.28,20.56Z"/><path class="cls-7" d="M18.27,46.19V25.62a5.09,5.09,0,0,0-3.53-4.82,5.09,5.09,0,0,0-3.53,4.82V46.19A5.1,5.1,0,0,0,14.74,51,5.1,5.1,0,0,0,18.27,46.19Z"/><path class="cls-4" d="M17.17,60.75a1.12,1.12,0,1,1-1.11-1.12A1.12,1.12,0,0,1,17.17,60.75Z"/><path class="cls-4" d="M31,61.25a1.12,1.12,0,1,1-1.11-1.12A1.12,1.12,0,0,1,31,61.25Z"/><circle class="cls-4" cx="20.56" cy="69.24" r="1.35"/><circle class="cls-4" cx="41.46" cy="63.92" r="1.35"/><path class="cls-4" d="M38.71,66.62a.9.9,0,1,1-.9-.9A.9.9,0,0,1,38.71,66.62Z"/><circle class="cls-4" cx="6.66" cy="63.02" r="0.9"/><circle class="cls-8" cx="13.71" cy="36.42" r="0.78"/><circle class="cls-6" cx="13.61" cy="49.45" r="0.62"/><path class="cls-6" d="M16.8,48.29a.81.81,0,1,1-.81-.81A.81.81,0,0,1,16.8,48.29Z"/><path class="cls-6" d="M38.13,19.12a4.35,4.35,0,0,0-1.36.22,4.46,4.46,0,0,1,3.1,4.23V49.92a4.46,4.46,0,0,1-3.1,4.23,4.35,4.35,0,0,0,1.36.22,4.47,4.47,0,0,0,4.45-4.45V23.57A4.47,4.47,0,0,0,38.13,19.12Z"/><path class="cls-7" d="M39.87,49.92V23.57a4.46,4.46,0,0,0-3.1-4.23,4.46,4.46,0,0,0-3.1,4.23V49.92a4.46,4.46,0,0,0,3.1,4.23A4.46,4.46,0,0,0,39.87,49.92Z"/><path class="cls-8" d="M36.84,32.93a1,1,0,1,1-1-1A1,1,0,0,1,36.84,32.93Z"/><path class="cls-8" d="M38.55,25.64a1.12,1.12,0,1,1-1.12-1.11A1.11,1.11,0,0,1,38.55,25.64Z"/><path class="cls-8" d="M38.76,41.56a1.1,1.1,0,1,1-1.09-1.1A1.09,1.09,0,0,1,38.76,41.56Z"/><path class="cls-6" d="M46.77,25.64a4,4,0,0,0-1.25.2,4.13,4.13,0,0,1,2.87,3.92V46.5a4.13,4.13,0,0,1-2.87,3.92,4,4,0,0,0,1.25.2A4.14,4.14,0,0,0,50.9,46.5V29.76A4.14,4.14,0,0,0,46.77,25.64Z"/><path class="cls-7" d="M48.39,46.5V29.76a4.13,4.13,0,0,0-2.87-3.92,4.13,4.13,0,0,0-2.87,3.92V46.5a4.13,4.13,0,0,0,2.87,3.92A4.13,4.13,0,0,0,48.39,46.5Z"/><path class="cls-8" d="M46.42,32.5a.91.91,0,1,1-.91-.91A.9.9,0,0,1,46.42,32.5Z"/><path class="cls-8" d="M45.51,28.21a.64.64,0,0,1-.64.64.64.64,0,0,1,0-1.28A.64.64,0,0,1,45.51,28.21Z"/><path class="cls-6" d="M46.47,48.15a.51.51,0,0,1-.5.5.51.51,0,0,1,0-1A.51.51,0,0,1,46.47,48.15Z"/><path class="cls-8" d="M47.3,40.46a.83.83,0,1,1-.83-.82A.83.83,0,0,1,47.3,40.46Z"/><path class="cls-6" d="M7.09,31a4.05,4.05,0,0,0-1.26.2A4.13,4.13,0,0,1,8.7,35.16V51.87a4.13,4.13,0,0,1-2.87,3.92,4.05,4.05,0,0,0,1.26.2,4.14,4.14,0,0,0,4.12-4.12V35.16A4.13,4.13,0,0,0,7.09,31Z"/><path class="cls-7" d="M8.7,51.87V35.16a4.13,4.13,0,0,0-2.87-3.92A4.13,4.13,0,0,0,3,35.16V51.87a4.13,4.13,0,0,0,2.87,3.92A4.13,4.13,0,0,0,8.7,51.87Z"/><circle class="cls-8" cx="4.83" cy="44.19" r="0.83"/><circle class="cls-6" cx="7.32" cy="46.93" r="0.66"/><path class="cls-6" d="M27.51,23.24a6.1,6.1,0,0,0-1.87.3,6.16,6.16,0,0,1,4.29,5.85V48a6.19,6.19,0,0,1-4.29,5.86,6.1,6.1,0,0,0,1.87.29A6.17,6.17,0,0,0,33.67,48V29.39A6.17,6.17,0,0,0,27.51,23.24Z"/><path class="cls-7" d="M29.93,48V29.39a6.16,6.16,0,0,0-4.29-5.85,6.16,6.16,0,0,0-4.29,5.85V48a6.19,6.19,0,0,0,4.29,5.86A6.19,6.19,0,0,0,29.93,48Z"/><path class="cls-8" d="M25.46,34.28a1.36,1.36,0,1,1-1.36-1.36A1.35,1.35,0,0,1,25.46,34.28Z"/><path class="cls-8" d="M28.86,39.15a1,1,0,0,1-1.9,0,1,1,0,0,1,1.9,0Z"/><path class="cls-9" d="M42.15,0h-12L26.91,1.74,23.77,0h-12A2.91,2.91,0,0,0,8.87,2.91V5.14a1.69,1.69,0,0,0,1.69,1.69H43.37a1.69,1.69,0,0,0,1.69-1.69V2.91A2.91,2.91,0,0,0,42.15,0Z"/><path class="cls-9" d="M47.58,38.9V54.33A3.6,3.6,0,0,1,44,57.92H9.88a3.59,3.59,0,0,1-3.59-3.59V38.92a3.58,3.58,0,0,1,3.55-3.58l2.27,0a18.22,18.22,0,0,1,29.55,0H44A3.6,3.6,0,0,1,47.58,38.9Z"/><path class="cls-10" d="M9,53.19V40a2,2,0,0,1,2-2H13.5l.81-1.11a15.51,15.51,0,0,1,25.18,0L40.3,38h2.52a2.05,2.05,0,0,1,2,2V53.19a2.05,2.05,0,0,1-2.05,2H11A2,2,0,0,1,9,53.19Z"/><rect class="cls-11" x="11.39" y="6.83" width="12.38" height="2.68"/><rect class="cls-11" x="30.1" y="6.83" width="12.44" height="2.68"/><rect class="cls-10" x="23.77" width="6.33" height="6.83"/><polygon class="cls-12" points="23.8 20.45 30.13 20.45 30.1 9.51 23.77 9.51 23.8 20.45"/><rect class="cls-13" x="23.77" y="6.83" width="6.33" height="2.68"/><circle class="cls-8" cx="5.65" cy="33.91" r="0.9"/><path class="cls-8" d="M25.92,26.15a.9.9,0,1,1-.9-.89A.9.9,0,0,1,25.92,26.15Z"/><path class="cls-7" d="M22.9,43.14A10.41,10.41,0,0,1,23,34.55a10.41,10.41,0,0,1,6.38,14.28A10.41,10.41,0,0,1,22.9,43.14Z"/><path class="cls-6" d="M24.49,41.36a7.44,7.44,0,0,1,3.42,5.1,7.44,7.44,0,0,1-9.51-5.89A7.45,7.45,0,0,1,24.49,41.36Z"/><path class="cls-7" d="M35.92,35.91A3.4,3.4,0,0,1,36.1,38,17.31,17.31,0,0,1,15.33,51a3.28,3.28,0,0,1-.81-.3A3.47,3.47,0,0,0,17,52.76a17.31,17.31,0,0,0,20.77-13A3.48,3.48,0,0,0,35.92,35.91Z"/><path class="cls-14" d="M28.41,48.81A17.2,17.2,0,0,0,36.1,38a3.4,3.4,0,0,0-.18-2.1,3.58,3.58,0,0,0-.81-.31,3.48,3.48,0,0,0-4.17,2.61A10.38,10.38,0,0,1,18.51,46a3.48,3.48,0,0,0-4.17,2.61,3.56,3.56,0,0,0,.18,2.1,3.28,3.28,0,0,0,.81.3A17.22,17.22,0,0,0,28.41,48.81Z"/><path class="cls-7" d="M31.87,44a1.08,1.08,0,1,1-1.08-1.08A1.08,1.08,0,0,1,31.87,44Z"/><path class="cls-7" d="M20.56,49.14a1.08,1.08,0,1,1-1.08-1.08A1.08,1.08,0,0,1,20.56,49.14Z"/><path class="cls-7" d="M34.1,39.83a.65.65,0,1,1-.65-.65A.65.65,0,0,1,34.1,39.83Z"/><path class="cls-7" d="M24.82,48.35a.66.66,0,0,1-.66.65.65.65,0,1,1,0-1.3A.66.66,0,0,1,24.82,48.35Z"/><path class="cls-7" d="M17.36,47.82a.65.65,0,1,1-.65-.65A.65.65,0,0,1,17.36,47.82Z"/><path class="cls-15" d="M16,19.15a1.75,1.75,0,0,0-2.25,0l-3.29,2.52a11,11,0,0,0-2.78,3.11,1.7,1.7,0,0,0,.78,2.41,1.67,1.67,0,0,0,2.13-.68,7.6,7.6,0,0,1,1.92-2.16l3.37-2.57A1.69,1.69,0,0,0,16,19.15Z"/><path class="cls-15" d="M8.44,34.49A1.65,1.65,0,0,1,6.8,32.85V30.27a1.64,1.64,0,0,1,3.28,0v2.58A1.65,1.65,0,0,1,8.44,34.49Z"/></svg>