<svg id="Layer_1" data-name="Layer 1" xmlns="http://www.w3.org/2000/svg" viewBox="0 0 131.06 63.72"><defs><style>.cls-1{fill:#ae104b;}.cls-2{fill:#d32144;}.cls-3{fill:#ff3d3d;}.cls-4{fill:#ffe21f;}.cls-5{fill:#fff;}</style></defs><ellipse class="cls-1" cx="65.53" cy="25.64" rx="25.66" ry="25.64"/><path class="cls-2" d="M125.58,43.62H4.58A4.57,4.57,0,0,0,0,48.19v5.48H131.06V49.09A5.48,5.48,0,0,0,125.58,43.62Z"/><path class="cls-1" d="M0,53.67v5.48a4.57,4.57,0,0,0,4.58,4.57h121a5.48,5.48,0,0,0,5.48-5.47V53.67Z"/><path class="cls-2" d="M119.39,23.51H10.76a4.57,4.57,0,0,0-4.57,4.57v5.48H124.87V29A5.47,5.47,0,0,0,119.39,23.51Z"/><path class="cls-1" d="M6.19,33.56V39a4.58,4.58,0,0,0,4.57,4.58H119.39a5.48,5.48,0,0,0,5.48-5.48V33.56Z"/><ellipse class="cls-3" cx="37.49" cy="38.09" rx="25.66" ry="25.64"/><ellipse class="cls-2" cx="37.49" cy="38.09" rx="20.21" ry="20.19"/><path class="cls-4" d="M48,29.69H27a10.8,10.8,0,0,1,20.92,0Z"/><path class="cls-5" d="M47.55,42.72H27.43a6.75,6.75,0,0,1,0-13.5H47.55a6.75,6.75,0,1,1,0,13.5ZM27.43,30.27a5.7,5.7,0,1,0,0,11.4H47.55a5.7,5.7,0,1,0,0-11.4Z"/><path class="cls-4" d="M26.68,33.59c.79,0,1.86.33,1.86,1.08a.57.57,0,0,1-.58.58c-.58,0-.47-.71-1.28-.71-.59,0-1.05.45-1.05,1.51s.48,1.55,1.05,1.55c.85,0,.73-.78,1.34-.78a.59.59,0,0,1,.59.59c0,.78-1.08,1.14-1.93,1.14a2.16,2.16,0,0,1-2.32-2.44A2.29,2.29,0,0,1,26.68,33.59Z"/><path class="cls-4" d="M29.28,34.25a.61.61,0,1,1,1.21,0v1.28h1.74V34.25a.6.6,0,0,1,.6-.61.61.61,0,0,1,.61.61v3.64a.61.61,0,0,1-.61.61.6.6,0,0,1-.6-.61V36.51H30.49v1.38a.61.61,0,1,1-1.21,0Z"/><path class="cls-4" d="M34.39,34.23a.48.48,0,0,1,.53-.54h2.32a.49.49,0,0,1,0,1H35.58v.92H37a.48.48,0,0,1,.47.48.47.47,0,0,1-.47.47H35.58v.93h1.79a.49.49,0,0,1,0,1H34.92a.48.48,0,0,1-.53-.54Z"/><path class="cls-4" d="M38.53,34.23a.49.49,0,0,1,.54-.54h2.31a.49.49,0,0,1,0,1H39.73v.92h1.36a.49.49,0,0,1,.48.48.48.48,0,0,1-.48.47H39.73v.93h1.78a.49.49,0,0,1,0,1H39.07a.49.49,0,0,1-.54-.54Z"/><path class="cls-4" d="M44.46,33.58c.71,0,1.78.29,1.78,1a.52.52,0,0,1-.54.52c-.53,0-.54-.57-1.27-.57-.41,0-.65.19-.65.41s.12.4.6.5l.77.17c1,.21,1.35.7,1.35,1.41s-.51,1.55-2,1.55c-.95,0-2-.27-2-1a.54.54,0,0,1,.57-.52c.54,0,.62.5,1.38.5.5,0,.77-.15.77-.45s-.12-.37-.57-.47l-.78-.16c-.88-.19-1.31-.63-1.31-1.41S43.25,33.58,44.46,33.58Z"/><path class="cls-4" d="M47.22,34.23a.49.49,0,0,1,.54-.54h2.31a.49.49,0,0,1,0,1H48.42v.92h1.36a.49.49,0,0,1,.48.48.48.48,0,0,1-.48.47H48.42v.93H50.2a.49.49,0,0,1,0,1H47.76a.49.49,0,0,1-.54-.54Z"/><path class="cls-4" d="M39.92,52H29.17a1,1,0,1,1,0-2H39.92a1,1,0,1,1,0,2Z"/><path class="cls-4" d="M45.81,47.64H29.17a1,1,0,0,1,0-2H45.81a1,1,0,1,1,0,2Z"/><path class="cls-4" d="M45.81,52H43.47a1,1,0,1,1,0-2h2.34a1,1,0,1,1,0,2Z"/><ellipse class="cls-3" cx="93.57" cy="38.09" rx="25.66" ry="25.64"/><ellipse class="cls-2" cx="93.57" cy="38.09" rx="20.21" ry="20.19"/><path class="cls-4" d="M104,29.69H83.11a10.8,10.8,0,0,1,20.92,0Z"/><path class="cls-5" d="M103.63,42.72H83.51a6.75,6.75,0,1,1,0-13.5h20.12a6.75,6.75,0,0,1,0,13.5ZM83.51,30.27a5.7,5.7,0,1,0,0,11.4h20.12a5.7,5.7,0,1,0,0-11.4Z"/><path class="cls-4" d="M82.76,33.59c.79,0,1.85.33,1.85,1.08a.57.57,0,0,1-.57.58c-.58,0-.48-.71-1.28-.71-.59,0-1.05.45-1.05,1.51s.48,1.55,1.05,1.55c.84,0,.72-.78,1.34-.78a.58.58,0,0,1,.58.59c0,.78-1.07,1.14-1.92,1.14a2.17,2.17,0,0,1-2.33-2.44A2.29,2.29,0,0,1,82.76,33.59Z"/><path class="cls-4" d="M85.36,34.25a.61.61,0,1,1,1.21,0v1.28h1.74V34.25a.6.6,0,1,1,1.2,0v3.64a.6.6,0,1,1-1.2,0V36.51H86.57v1.38a.61.61,0,1,1-1.21,0Z"/><path class="cls-4" d="M90.47,34.23a.48.48,0,0,1,.53-.54h2.32a.49.49,0,0,1,0,1H91.66v.92H93a.48.48,0,0,1,.47.48.47.47,0,0,1-.47.47H91.66v.93h1.78a.49.49,0,0,1,0,1H91a.48.48,0,0,1-.53-.54Z"/><path class="cls-4" d="M94.61,34.23a.48.48,0,0,1,.53-.54h2.32a.49.49,0,0,1,0,1H95.81v.92h1.36a.48.48,0,0,1,.47.48.47.47,0,0,1-.47.47H95.81v.93h1.78a.49.49,0,0,1,0,1H95.14a.48.48,0,0,1-.53-.54Z"/><path class="cls-4" d="M100.54,33.58c.71,0,1.78.29,1.78,1a.52.52,0,0,1-.55.52c-.53,0-.53-.57-1.26-.57-.41,0-.65.19-.65.41s.12.4.6.5l.77.17c1,.21,1.34.7,1.34,1.41s-.51,1.55-2,1.55c-.94,0-2-.27-2-1a.54.54,0,0,1,.57-.52c.54,0,.62.5,1.37.5.51,0,.78-.15.78-.45s-.12-.37-.57-.47l-.78-.16c-.88-.19-1.32-.63-1.32-1.41S99.33,33.58,100.54,33.58Z"/><path class="cls-4" d="M103.3,34.23a.48.48,0,0,1,.53-.54h2.32a.49.49,0,1,1,0,1h-1.66v.92h1.37a.48.48,0,0,1,.47.48.47.47,0,0,1-.47.47h-1.37v.93h1.79a.49.49,0,0,1,0,1h-2.45a.48.48,0,0,1-.53-.54Z"/><path class="cls-4" d="M96,52H85.24a1,1,0,1,1,0-2H96a1,1,0,0,1,0,2Z"/><path class="cls-4" d="M101.89,47.64H85.24a1,1,0,0,1,0-2h16.65a1,1,0,0,1,0,2Z"/><path class="cls-4" d="M101.89,52H99.54a1,1,0,0,1,0-2h2.35a1,1,0,0,1,0,2Z"/></svg>