<svg id="Layer_1" data-name="Layer 1" xmlns="http://www.w3.org/2000/svg" viewBox="0 0 545.5 291"><defs><style>.cls-1{fill:#430e00;}.cls-2{fill:#319b32;}.cls-3{fill:#fff;}.cls-4{fill:#8f0863;}</style></defs><rect class="cls-1" x="35.33" width="4.85" height="212.03"/><rect class="cls-1" x="509.28" width="4.81" height="212.03"/><polygon class="cls-2" points="0 207.29 545.5 207.29 538.37 291 9.84 291 0 207.29"/><rect class="cls-3" x="86.41" y="231.39" width="375.1" height="38.61" rx="19.31"/><path class="cls-4" d="M406.34,231.39H442.2a19.36,19.36,0,0,1,19.3,19.31h0A19.36,19.36,0,0,1,442.2,270H406.34"/><path class="cls-3" d="M441.65,260.88a1.85,1.85,0,0,1-2.63,0l-3.28-3.28a8.76,8.76,0,1,1,2.63-2.64l3.28,3.29A1.85,1.85,0,0,1,441.65,260.88Zm-10.59-16.79a6.21,6.21,0,1,0,6.21,6.2A6.21,6.21,0,0,0,431.06,244.09Z"/></svg>