<svg id="Layer_1" data-name="Layer 1" xmlns="http://www.w3.org/2000/svg" viewBox="0 0 250 250"><defs><style>.cls-1{fill:#f6e6cc;}.cls-2{fill:#20546c;}.cls-3{fill:#1c4a5f;}.cls-4{fill:#fbac45;}.cls-5{fill:#ed9a2d;}.cls-6{fill:#f9f0df;}.cls-7{fill:#7595a4;}.cls-8{fill:#c98326;}.cls-9{fill:#fbac46;}.cls-10{fill:#deb279;}.cls-11{fill:#688b9b;}.cls-12{fill:#e06a38;}.cls-13{fill:#df6a38;}.cls-14{fill:#648392;}.cls-15{fill:#dd6a39;}.cls-16{fill:#586166;}.cls-17{fill:#658492;}.cls-18{fill:#1f3a48;}.cls-19{fill:#1f3a49;}.cls-20{fill:#61696e;}.cls-21{fill:#21546c;}.cls-22{fill:none;}</style></defs><title>products</title><path class="cls-1" d="M47.11,207.6a644.51,644.51,0,0,1-1.25-76.25,3.86,3.86,0,0,1,2.62-.46,2.12,2.12,0,0,1,1.26.44,3.83,3.83,0,0,1,.13,1.93,113.37,113.37,0,0,0,3.38,32.56,39.26,39.26,0,0,0,4.25,10.42A7.06,7.06,0,0,0,63,180.1c.57.4.6,1.07.8,1.64a15.61,15.61,0,0,0,5,10.06,9.44,9.44,0,0,0,12,1.25,5.24,5.24,0,0,1,1.36-.73c.93,0,1.26.81,1.79,1.35a4.58,4.58,0,0,0,3.92,1.76c1.26-.15,2.27-.77,2.31-2.19s-1.09-1.34-2.06-1.48c-4.35-.6-6.75-3.54-8.53-7.19-.28-.58-.48-1.26-.78-1.78a54.11,54.11,0,0,0-2.51-5.28,9.46,9.46,0,0,0-7.94-4.83.68.68,0,0,1-.31-.55,144.68,144.68,0,0,0,3-16.67c.79-7.35,1.45-14.7,1.57-22.1a5.11,5.11,0,0,1,.48-3c1.18-.82,2.65-.22,3.88-.78,3.88-.35,7.79-.32,11.67-.37,7.07-.1,14.15-.3,21.22-.46,22.73-.49,45.46,0,68.19.16,6.74.07,13.51.13,20.25.57.45.07.86.25,1.33.3,3,.33,3,.33,3.47,3.44,0,.52.12,1,.13,1.55q.63,23.25.08,46.49c-.16,7.05-.54,14.11-.84,21.17a17.58,17.58,0,0,1-.44,2.88,1.84,1.84,0,0,1-1.7,1.61,82.85,82.85,0,0,1-9.71-.33q-31.56-.93-63.12-.69c-11.79.07-23.62.19-35.42.6-5.37.19-10.76.13-16.13.54a2.76,2.76,0,0,1-1-.27.51.51,0,0,1-.26-.68.54.54,0,0,1,.07-.13c1.12-1.66.37-3.13-.55-4.48-3-4.5-12.33-7.3-17.93-2.68a9.89,9.89,0,0,0-2.76,3.49c-1.26,2.6-1,3.48.94,5.12-.54.76-1.37.63-2.14.68C50.54,207.94,48.73,208.45,47.11,207.6Z"/><path class="cls-2" d="M198.26,130c-2.73-.08-5.44-.23-8.17-.2-6,0-12.05-.34-18.08-.43-13.57-.2-27.14-.19-40.7-.3-4.74,0-9.48-.13-14.21.07-5.58.24-11.14.09-16.71.32-4.15.16-8.29.07-12.43.31-3.77.21-7.54.2-11.31.33s-3.88.24-3.77-3.45c.12-3.41-.3-6.87.33-10.27.44-.72.81-.43,1.13.1a20.24,20.24,0,0,1,.94,2.13,9,9,0,0,0,12.11,3.69c.27-.15.54-.31.8-.48.75-.53,1.62-1.26,1.1-2.21s-1.58-.55-2.42-.22c-.25.1,0,0-.18.09-4.92,2.26-8.16.85-9.8-4.37a39.42,39.42,0,0,1-1.25-15.43c.21-2.52.2-5,.27-7.54a12.36,12.36,0,0,1,.34-3.09A5.68,5.68,0,0,1,83,84.77a4.37,4.37,0,0,1,.62.17,5.77,5.77,0,0,0,2.09.42,1,1,0,0,0,1.08-.68,1.08,1.08,0,0,0-.44-1.26,2.93,2.93,0,0,0-1.75-.78,14.53,14.53,0,0,0-6.15.48c-3.59,1.26-4.84,3-5,6.75-.1,2.26-.36,4.51-.6,6.77a1.74,1.74,0,0,1-.77,1c-1-.25-.94-1.16-1.12-1.87a25.22,25.22,0,0,0-1.72-5.16c-1.51-3-4.16-3.52-6.66-1.26a22.13,22.13,0,0,0-5.15,8,91.54,91.54,0,0,0-6.79,27.32,35.21,35.21,0,0,0-.44,5c0,1.18-.72,1.52-1.68,1.67a7.43,7.43,0,0,1-2.66,0c.26-5,.51-9.94.83-14.89.26-4.39.49-8.8.91-13.14.67-6.93,1.26-13.83,2.27-20.76a54.11,54.11,0,0,1,1-6.07,2.82,2.82,0,0,1,2.87-.26c2.89,1.14,6,1,9,1.25C84.1,79.25,105.55,78.92,127,79c8.79,0,17.5-.41,26.26-.88,7.84-.41,15.67-.88,23.49-1.52,3.56-.29,7.12-.54,10.63-1,1.84-.23,3.66-.57,5.5-.77,1.74.06,3.5-.13,5.25.09.73.53.71,1.36.81,2.11.93,7.2,1.58,14.42,2.17,21.65.52,6.28.93,12.66,1.25,19,.18,3.29.44,6.59.45,9.9,0,2.51-.16,2.67-2.77,2.65A8,8,0,0,1,198.26,130Z"/><path class="cls-2" d="M47.11,207.6a49.89,49.89,0,0,1,5.33-.07c1,1.19,1,2.8,1.92,4a9.74,9.74,0,0,0,10.32,3.89,13.81,13.81,0,0,0,9.8-7.32,4.69,4.69,0,0,1,1-1.62c3.77-.25,7.63-.34,11.45-.45,5.24-.14,10.49-.16,15.73-.36,4.34-.16,8.67-.13,13-.24,17.19-.37,34.37-.07,51.51,0,8.23,0,16.48.22,24.69.57,2.78.11,5.57,0,8.33.35,1.65.1,1.8,1.26,1.69,2.51-.43,4.33-.53,8.69-1.07,13-.24,1.89.16,3.93-1.07,5.65a6.06,6.06,0,0,1-3.39.44,26,26,0,0,0-5.58.18c-3.87-.12-7.7-.76-11.56-1.06-9.8-1.09-19.65-1.37-29.48-2-4.91-.31-9.86-.39-14.79-.51-9.28-.23-18.57-.31-27.85-.16s-18.3.34-27.43.87c-4.74.26-9.46.61-14.19.81a73.27,73.27,0,0,0-9.46,1,8.29,8.29,0,0,0-3.32.78c-1.37-.56-2.87-.07-4.26-.52a5.31,5.31,0,0,0,.28-3.05c-.73-4.58-1.16-9.21-1.47-13.82A10,10,0,0,1,47.11,207.6Z"/><path class="cls-3" d="M48.47,227.39c1.47-.37,3-.89,4.29.38a6.65,6.65,0,0,1,3.21-.5c8,0,16,.26,24,0,19.22-.59,38.43-.13,57.64,0q18.3.16,36.58,1c6.73.3,13.47.09,20.48.5-1.55-.19-2.92,0-3.9-1.12.53-.54,1.26-.32,1.82-.32h7.13c1,1.42.38,3.14.87,4.69a85.34,85.34,0,0,1,2.36,11.06c.51,3.06.31,3.39-2.77,3.77-5,.54-10,.69-15,.88-6.43.23-12.82,1-19.24,1.36-2.45.12-4.92.33-7.37.38-4.23.1-8.45.36-12.66.49-8,.26-16.11.22-24.16.2-11.62,0-23.25-.39-34.82-1.36s-22.84-.92-34.28-1a4.35,4.35,0,0,1-3.16-.62,13.34,13.34,0,0,0-4.22-.35H43.9c-1.08-.11-1.2-.26-.91-1.36,1-3.62,1.94-7.24,3-10.84A43.8,43.8,0,0,1,48.47,227.39Z"/><path class="cls-3" d="M197.89,74.87c-.35.5-.88.44-1.38.44h-3.83c-.83-.66-1.76-.14-2.64-.19-2.51-.15-5,.27-7.54-.34-.85-1,0-1.81.39-2.62A24,24,0,0,0,185.25,60c-1,4.57-2,8.79-3.09,12.92-.16.66-.17,1.43-.86,1.87-3.71.22-7.39,1-11.12.39-1-.78-.07-1.4.23-2a27,27,0,0,0,3.08-12.71c-1.15,4-2.08,8-3.23,12a5.54,5.54,0,0,1-1.08,2.64,11.39,11.39,0,0,1-5.74-.06c-.74-.67-.2-1.35.06-1.94a24.9,24.9,0,0,0,1.73-12.71c-.77,4.51-1.4,9.05-2.29,13.53-.1.45.3.87,0,1.26a2.24,2.24,0,0,1-1.66.42c-6.62-.25-13.23.47-19.85.29a4.29,4.29,0,0,1-1.91-.26c-.71-.45-.57-1.13-.37-1.73a31.34,31.34,0,0,0,1.59-14,1.63,1.63,0,0,1,0-.54c-.72,4.25-1,8.79-1.74,13.25-.17,1.06-.14,2.23-1.17,3a41,41,0,0,1-5.19.6h-1.55c-20.36.3-40.72.07-61.07.15-5,0-10,0-15.08.32a1.84,1.84,0,0,1-1.44-.28H50.88a8.36,8.36,0,0,0-.49-3.77,46.53,46.53,0,0,1-1.87-10.87c-.15-2.07-.25-4.13-.23-6.2,0-.73.26-1,1-1.08a46.69,46.69,0,0,1,6.79-.28c3.49-.1,7-.08,10.5.14,2,.12,3.91.81,6,.71,11.41-.56,22.83-.11,34.24,0q17.71.07,35.41.61c6.14.18,12.3.22,18.46.49,4.72.2,9.45.21,14.17.46,3.88.23,7.76.15,11.64.47,4.49.36,9,.07,13.52.78a55.13,55.13,0,0,1-.43,6.55,1.86,1.86,0,0,1,.39,1.26,60,60,0,0,1-1.2,7.77A2.34,2.34,0,0,1,197.89,74.87Z"/><path class="cls-4" d="M147.09,162.42a53.8,53.8,0,0,1,5-12.57c2.26-3.77,5.16-7,9.52-8.44a12.16,12.16,0,0,1,15.36,6,26.41,26.41,0,0,1,2.94,16.15,35.92,35.92,0,0,1-3,11c-3.43,7.34-8.48,13.1-16.51,15.43-6.52,1.9-12.69,1-18.08-3.45a1.25,1.25,0,0,0-.88-.34c-.57-.79,0-1.5.21-2.19,2.52-6.69,3.7-13.74,5.44-20.63A1.22,1.22,0,0,0,147.09,162.42Z"/><path class="cls-5" d="M89.83,176.42a6.37,6.37,0,0,1-.35-4.15,26.83,26.83,0,0,1,5.15-11.82,42.26,42.26,0,0,1,9-9.13,19.33,19.33,0,0,1,16.77-3.44c6,1.61,10.15,5.38,11.59,11.66a14.82,14.82,0,0,1-3,12.83A17.43,17.43,0,0,1,116.22,179a24.84,24.84,0,0,1-12.56-2.6,34.29,34.29,0,0,0-4.73-1.73,9.2,9.2,0,0,0-8.33,1.26Z"/><path class="cls-6" d="M73.11,130.44a55.37,55.37,0,0,1-.1,7.4c-.41,3.08-.09,6.2-.7,9.26-.32,1.64-.24,3.34-.42,5A123.49,123.49,0,0,1,69,170.06a10.42,10.42,0,0,1-.83,2.37c-.08.52-.49.72-.87,1a7,7,0,0,0-3.29,5c-.14.72,0,1.6-1,1.89-1.57.78-2.76-.13-3.77-1a14.92,14.92,0,0,1-3.77-5.59,56.33,56.33,0,0,1-4.14-13.49c-.58-3.23-1-6.49-1.34-9.75a140.45,140.45,0,0,1-.64-16.66,3.65,3.65,0,0,1,.41-2.25,6.1,6.1,0,0,1,4.05-1c5.09-.16,10.18-.34,15.25-.67C70.4,129.72,71.89,129.39,73.11,130.44Z"/><path class="cls-7" d="M73.11,130.44c-3.17-.29-6.28.32-9.47.29-3.5,0-7,.44-10.46.4a30.54,30.54,0,0,0-3.45.35l-1.18-.08a1.81,1.81,0,0,0,1.25-1.9,102.94,102.94,0,0,1,4.45-24.91,47,47,0,0,1,6.21-13.5,15.24,15.24,0,0,1,2.82-2.91,4.11,4.11,0,0,1,5.56.72A17,17,0,0,1,71,93.81a22.71,22.71,0,0,0,1.1,3.89c.81.8.4,1.94.82,2.85.15,4.43.62,8.79.83,13.25a11.11,11.11,0,0,1-.1,1.84.54.54,0,0,1-.06.3c0,3.88-.12,7.78,0,11.66,0,.78-.8,1.77.1,2.31.57.34,1.5.13,2.28.15h.77C75.55,130.81,74.3,130.25,73.11,130.44Z"/><path class="cls-8" d="M68.6,172.48a7.56,7.56,0,0,1,6.89,3.15,22,22,0,0,1,3.56,7c.91,2.59,2,5,3.12,7.54.3.71,1,1.49,0,2.21a9.47,9.47,0,0,1-12.41.81,14.45,14.45,0,0,1-6.31-11.37,2.52,2.52,0,0,1,.81-2.78,11.61,11.61,0,0,0,3-4.87A3.08,3.08,0,0,1,68.6,172.48Z"/><path class="cls-5" d="M147.09,162.42a1.83,1.83,0,0,1,.26,1.83c-1.51,6.51-2.66,13.11-5,19.4a8.2,8.2,0,0,0-.91,2.52,16.66,16.66,0,0,1-5.68,7.69c-3.34,2.38-8.33,1.84-10.37-.52a5.75,5.75,0,0,1-1.51-4.82,2.84,2.84,0,0,1,2.84-2.84h.07c7.54-.53,12.29-4.87,15.77-11.09a52.51,52.51,0,0,0,3.66-9.39C146.53,164.28,146.8,163.31,147.09,162.42Z"/><path class="cls-6" d="M54.41,207.14c-2.64-.09-2.42,0-2.11-2.65.73-5.93,7.72-9.72,13.35-8.36a18.57,18.57,0,0,1,5.63,2,9,9,0,0,1,4.43,5.39c.37,1.56.18,2.1-1.07,2.84-1.71,1.26-3.77.84-5.61.9-4,.15-8,.56-12,.47A3.44,3.44,0,0,1,54.41,207.14Z"/><path class="cls-7" d="M54.41,207.14c6.75,0,13.49-.49,20.23-.78l.82.14a9,9,0,0,1-3.22,5.41,14.1,14.1,0,0,1-11.07,4.24c-4.44-.32-8.79-4.44-8.79-8.62C53,207.29,53.82,207.72,54.41,207.14Z"/><path class="cls-5" d="M178.39,183.58a5.57,5.57,0,0,1,4,1.26,13.31,13.31,0,0,1,5.55,7.71,4.26,4.26,0,0,1,.16,1.33c0,.61-.37.87-.89.53-1.79-1.13-3.4-.24-5,.44a9.52,9.52,0,0,1-4.53.79,6.44,6.44,0,0,1-6-5,5.9,5.9,0,0,1,5.48-7.12Z"/><path class="cls-9" d="M82.17,192.47c.39-.77-.1-1.38-.44-2-1.16-2.05-1.58-4.37-2.51-6.49a4.35,4.35,0,0,1-.15-1.34c.94,1.1,1.25,2.52,2,3.77,2,2.91,4.38,4.92,8.06,4.89a1.26,1.26,0,0,1,1.4.82,2.51,2.51,0,0,1-.24,2.51,3.78,3.78,0,0,1-4.39,1.07,7,7,0,0,1-2.85-2.26C82.79,193.1,82.65,192.65,82.17,192.47Z"/><path class="cls-10" d="M68.6,172.48a7.19,7.19,0,0,0-.89,1.69,10.87,10.87,0,0,1-3.55,5.61c-.75.56-.7,1.26-.75,2.08-.49-.47-.3-1.07-.36-1.62a3,3,0,0,0,.42-1.26,7.13,7.13,0,0,1,4.73-6.57Z"/><path class="cls-11" d="M53.52,76.46h1.13a3,3,0,0,1,1.52-.16c16-.18,31.94.1,47.9,0,9.86,0,19.73,0,29.58-.28,9.46-.22,18.92-.25,28.38-.5,7.72-.21,15.42-.59,23.14-.47.9,0,2-.31,2.51.93-5.52.7-11,1.26-16.59,1.57-3.68.23-7.35.52-11,.73-5,.27-9.95.46-14.93.73-3.5.19-7,.12-10.49.27-16.68.71-33.36.1-50,0-3.49,0-7-.15-10.48-.43-4.13-.33-8.26-.49-12.39-.82-2.38-.2-4.75-.54-7.12-.81A1.28,1.28,0,0,1,53.52,76.46Z"/><path class="cls-12" d="M94.33,93.4V84c0-1.38.34-1.65,1.59-1.5,1.43.18,1.89.72,1.78,1.91a34.27,34.27,0,0,0,0,7.16c.21,2.19.11,4.42.14,6.61v2.34c0,.78.26,1.26,1.12,1.16,1.4-.13,2.82-.27,4.24-.37.59,0,.78-.39.77-.9a86.24,86.24,0,0,0-.11-9,79.52,79.52,0,0,1,0-8.17c0-.57.34-.77.88-.77A2.32,2.32,0,0,1,107,84.15a6,6,0,0,1,.3,2.1v5.84c.1,3.89.09,7.78.36,11.65.22,3.12.13,6.28.36,9.32.18,2.65.13,5.31.18,8a5.72,5.72,0,0,1,0,1.17,2,2,0,0,1-2,1.69c-1,0-1.57-.63-1.73-1.76a7.62,7.62,0,0,1,0-1.17v-13a33.26,33.26,0,0,1-.29-3.87c0-.55-.28-.7-.81-.85a13,13,0,0,0-4.22,0c-.82,0-.84.68-.8,1.25.08,1.49.2,3,.3,4.45.26,3.77.68,7.54.74,11.24a5.3,5.3,0,0,1-.11,1.73,1.43,1.43,0,0,1-1.15.94c-.6.11-.94-.27-1.18-.79a18.55,18.55,0,0,1-1.43-6.4c-.43-4.12-.62-8.25-.86-12.4C94.4,99.73,94.45,96.16,94.33,93.4Z"/><path class="cls-12" d="M73.26,114.38c-.33-4.68-.8-9.37-.85-14.07a9.64,9.64,0,0,1,.1-3.47c.14-2.51.39-5,.36-7.54a6.14,6.14,0,0,1,3.22-5.61,12.87,12.87,0,0,1,8.63-1.54,4,4,0,0,1,2.51,1.32,1.51,1.51,0,0,1,.38,1.62A1.46,1.46,0,0,1,86.2,86a7.2,7.2,0,0,1-2.3-.29c-4.21-1.26-7.07.77-7.4,4.8A29,29,0,0,0,76.42,94a26.93,26.93,0,0,1-.33,5.81,34.72,34.72,0,0,0,0,8.15A28.24,28.24,0,0,0,77,114a11,11,0,0,0,2.1,4.34,4.57,4.57,0,0,0,6.22,1.26c.51-.28,1-.58,1.54-.82a4.34,4.34,0,0,1,1.26-.37c1.63-.08,2.34,1,1.62,2.52a3,3,0,0,1-1.25,1.42,11.13,11.13,0,0,1-9.49.71c-2.51-.91-3.77-3.08-4.7-5.43a4.65,4.65,0,0,0-.73-1.77h0C73.17,115.56,73.6,114.86,73.26,114.38Z"/><path class="cls-12" d="M133.21,116c-.08-4.47.54-8.92.48-13.41a96.32,96.32,0,0,0-1.37-17.78c-.34-1.74.25-2.38,2-2.51A9.55,9.55,0,0,1,144.63,91l0,.37A12.49,12.49,0,0,1,137.93,104a2.12,2.12,0,0,0-1.25,2.16c-.1,4.74.26,9.46.32,14.19a6.12,6.12,0,0,1-.07,1.54,1.69,1.69,0,0,1-1.55,1.5c-1.59.16-2.26-.42-2.26-2.09S133.21,117.79,133.21,116Z"/><path class="cls-12" d="M163.67,114.62c-.28,3.47-1.26,6.81-4.73,8.8a9,9,0,0,1-8.05.4c-.79-.3-1.41-.77-1.16-1.75s1-1.18,2.06-1c.63.13,1.26.33,1.88.49a3.17,3.17,0,0,0,4.1-1.62,11.45,11.45,0,0,0,1.4-9.41,38,38,0,0,0-4.4-9.07,31,31,0,0,1-3.58-7.54c-.78-2.84-1-5.64.59-8.28a6.81,6.81,0,0,1,6.28-3.53,4.82,4.82,0,0,1,3,1.14c.86.67.68,1.54-.32,1.93a2.68,2.68,0,0,1-1.93,0c-1.52-.51-2.51.24-3.3,1.32a6,6,0,0,0-1,4.82,22.2,22.2,0,0,0,3.18,7.9c1.08,1.85,2.16,3.69,3.28,5.53A19.73,19.73,0,0,1,163.67,114.62Z"/><path class="cls-12" d="M117.83,94.05V87.53c0-.92-.16-1.53-1.26-1.42a2.55,2.55,0,0,1-.78,0,1.24,1.24,0,0,1-1-1.07,1.13,1.13,0,0,1,.51-1.17,7.41,7.41,0,0,1,3.48-1.09c1.26-.26,2.52,0,3.69-.27a2.55,2.55,0,0,1,1.47.38,1.26,1.26,0,0,1,.78,1.42,1.46,1.46,0,0,1-1.17,1.17h-.78c-1.76.1-2,.29-1.92,2.11.15,5.83.57,11.64,1,17.44.32,4.2.34,8.42.47,12.63,0,1.85,0,1.85,1.79,2.06a3.34,3.34,0,0,1,.77.12,1.65,1.65,0,0,1,1.26,1.52,1.15,1.15,0,0,1-1.18,1.25,24.83,24.83,0,0,1-3.62.51,20.07,20.07,0,0,1-5.13-.36,2.93,2.93,0,0,1-.9-.36,1.25,1.25,0,0,1-.68-1.26,1.15,1.15,0,0,1,.92-.91,14.26,14.26,0,0,1,1.73-.16c1.32-.07,1.53-.2,1.54-1.43,0-2.08,0-4.16-.08-6.28-.17-3-.51-6.06-.66-9.1A76.46,76.46,0,0,1,117.83,94.05Z"/><path class="cls-13" d="M176.73,86.49c-.36,5.41-.7,10.44-1.19,15.47-.23,2.38-.17,4.8-.17,7.21A37.37,37.37,0,0,1,175,114c-.08.59-.14,1.25-.87,1.33s-1.16-.48-1.41-1.1a8.75,8.75,0,0,1-.54-3.44c.06-3.3.14-6.62.16-9.94v-16a2.34,2.34,0,0,1,2-2.61,2,2,0,0,1,.42,0,1.61,1.61,0,0,1,1.9,1.26,1.39,1.39,0,0,1,0,.41C176.8,84.92,176.75,85.89,176.73,86.49Z"/><path class="cls-14" d="M187.64,76c-.53-.57-1.26-.34-1.85-.36-3.24,0-6.5-.28-9.73,0-6,.52-11.94-.12-17.87.32-6.17.46-12.33-.13-18.47.25-9.66.59-19.34-.1-29,.23-18.7.64-37.38-.07-56.07,0a1.49,1.49,0,0,1,1.26-.34h3.49c17.6-.39,35.29,0,52.92-.18,6.93-.09,13.82,0,20.79-.2,1.67,0,3.34-.41,5-.34a.87.87,0,0,1,1.15,0c2.93,0,5.87.24,8.8,0,4.67-.38,9.33-.2,14-.26a1.25,1.25,0,0,0,1.06-.34h6.21a.24.24,0,0,1,.33-.09.26.26,0,0,1,.09.09c3.9.3,7.79-.4,11.68-.3a.54.54,0,0,1,.77,0h0l8.79.08c.64,0,1.34-.08,1.59.75Z"/><path class="cls-15" d="M173.28,124.66c-1.62,0-2.66-.89-2.66-2.2a2.62,2.62,0,0,1,2.72-2.51,2.51,2.51,0,0,1,2.71,2.3c0,.12,0,.23,0,.35C176,124,175,124.67,173.28,124.66Z"/><path class="cls-16" d="M72.51,96.84c0,1.16-.07,2.31-.1,3.47-.52-.83-.22-1.75-.29-2.61A.91.91,0,0,1,72.51,96.84Z"/><path class="cls-17" d="M190.73,227.72a44.41,44.41,0,0,1,5.71,1c.08,0,.12.2.24.39-.36.35-.82.22-1.26.22-6,0-12,.13-17.92-.22-4.94-.29-9.87-.06-14.78-.45-6.09-.49-12.2-.14-18.28-.46-13.94-.75-27.9-.38-41.86-.58-6.17-.09-12.36-.3-18.51,0-9,.42-17.91.07-26.87.17-1.49,0-3,0-4.47-.07,0-.34.08-.67.46-.71.76-.07,1.45-.51,2.23-.39,2.66.34,5.26-.35,7.9-.41l24.92-.52c22.41-.51,44.83.14,67.25,0,7.4,0,14.77.57,22.15,1a3.5,3.5,0,0,0,1.73-.14l6.35.62Z"/><path class="cls-11" d="M179.4,226.58c-.48.51-1.09.32-1.66.32h-8.18c-24.4-1-48.83-.55-73.24-.69-6.8,0-13.62-.11-20.41.28-4.61.26-9.21,0-13.82.24a39.52,39.52,0,0,1-5.21.34c-.52,0-1.06.11-1.46-.37,4-.58,8.08-1,12.15-1.17,3.35-.15,6.71-.49,10.05-.67s6.74-.22,10-.44c4-.28,7.92,0,11.85-.28,8.57-.58,17.13-.13,25.7-.21,4,0,7.94-.16,11.87.16,4.22.34,8.45.1,12.57.46,2.72.24,5.44.15,8.14.41,4.38.39,8.79.56,13.17.85C173.88,225.94,176.63,226.3,179.4,226.58Z"/><path class="cls-18" d="M124.69,228.27c2.59,3,4,14.49,2.36,19.15a.94.94,0,0,1-.7-1c0-1.1-.33-2.16-.42-3.25q-.48-6.45-1.45-12.83A3.34,3.34,0,0,1,124.69,228.27Z"/><path class="cls-18" d="M49.5,246a6.54,6.54,0,0,1-.79-2.44A23.18,23.18,0,0,1,51.22,231c.49-.93,1.26-1.65,1.8-2.51a.36.36,0,0,1,.5-.14h0a.61.61,0,0,1,.24.47,9.39,9.39,0,0,1-.37,1.25,54.15,54.15,0,0,0-3,11.19,12.5,12.5,0,0,0-.1,2.12A4.33,4.33,0,0,1,49.5,246Z"/><path class="cls-18" d="M55,246a4,4,0,0,1-.84-2.17A21.92,21.92,0,0,1,57,230.57a14.1,14.1,0,0,1,1.46-1.81.55.55,0,0,1,.53,0,.53.53,0,0,1,.2.47,23.21,23.21,0,0,1-.79,2.4,36,36,0,0,0-2.63,12A5.09,5.09,0,0,1,55,246Z"/><path class="cls-18" d="M118.92,229.14c.59.19.71.69.81,1.18a57.88,57.88,0,0,1,1.37,16.75C119.27,245.35,117.79,232.7,118.92,229.14Z"/><path class="cls-18" d="M153.07,229.33c3.1,2.08,6.06,12.65,4.84,16.33-.59-.17-.69-.7-.81-1.17C155.7,239.47,154.14,234.45,153.07,229.33Z"/><path class="cls-18" d="M93.6,228.16a22.27,22.27,0,0,1,0,4c-.37,1.83-.17,3.76-.66,5.55a7.87,7.87,0,0,0-.1,2.32c0,1.76-.54,3.45-.54,5.21,0,.13-.23.27-.35.42C89.83,242.66,90.9,231,93.6,228.16Z"/><path class="cls-18" d="M113.28,229.09a8.11,8.11,0,0,1,1.26,5c.15,3.77,0,7.53,0,11.3a5,5,0,0,1-.13,1.16.65.65,0,0,1-.4.38.49.49,0,0,1-.54-.43c-.16-.75-.35-1.51-.44-2.27a93.88,93.88,0,0,1-.33-12.77A11.67,11.67,0,0,1,113.28,229.09Z"/><path class="cls-18" d="M61.26,246.3C59.35,243,61.05,232,63.89,229c.17,3.16-.64,5.91-1.11,8.7A61.76,61.76,0,0,1,61.26,246.3Z"/><path class="cls-18" d="M135.72,246.32a11.94,11.94,0,0,1-1.56-5.27c-.6-3.49-1-7-1.48-10.53a1.77,1.77,0,0,1,.1-.94c.13-.33.44-.49.76-.15a2.45,2.45,0,0,1,.39.66A34,34,0,0,1,135.72,246.32Z"/><path class="cls-18" d="M77.27,228.22a121.81,121.81,0,0,1-1.36,17.59,1.66,1.66,0,0,1-1-1.39,35.09,35.09,0,0,1,.29-10.18,33.83,33.83,0,0,1,.86-4A4.42,4.42,0,0,1,77.27,228.22Z"/><path class="cls-18" d="M67.68,246.14a21.75,21.75,0,0,1-.59-6.28,46.77,46.77,0,0,1,1.26-7.42c.29-.91.59-1.84.92-2.75a.59.59,0,0,1,.57-.42c.31,0,.42.26.43.55a7.72,7.72,0,0,1,0,1.36c-.6,3-.56,6-1.12,9-.27,1.43-.11,3-.49,4.41A2.31,2.31,0,0,1,67.68,246.14Z"/><path class="cls-18" d="M83,245.27a25.51,25.51,0,0,1,1.66-16.62c.85,2.86.16,5.72-.18,8.51S84.39,242.74,83,245.27Z"/><path class="cls-18" d="M99.61,246.24c-1.34-3.62-.6-15.39,1-17.59C101.58,230.87,100.9,243.64,99.61,246.24Z"/><path class="cls-18" d="M143.19,245.65a2.9,2.9,0,0,1-.91-1.75c-.8-4-1.63-8.09-2.51-12.12v-.19c-.08-.54-.42-1.32.26-1.52s.86.65,1.07,1.14a26.83,26.83,0,0,1,2.4,9.13,8.82,8.82,0,0,0,.23,1.33A5.42,5.42,0,0,1,143.19,245.65Z"/><path class="cls-18" d="M164.87,244.52c-.66,0-.81-.21-.88-.44-1.25-5-2.58-10-3.61-15.15,1,0,1.25.7,1.62,1.25a26.71,26.71,0,0,1,2.87,14.29Z"/><path class="cls-18" d="M146.91,230.11a3.66,3.66,0,0,1,1.58,2.32,28.26,28.26,0,0,1,2.36,11.64c0,.56.18,1.39-.51,1.49s-.72-.83-.83-1.32Q148,238,146.69,231.68A1.59,1.59,0,0,1,146.91,230.11Z"/><path class="cls-19" d="M107.79,228.65c1.07,2.14.7,14.24-.4,16.33C105.86,242.82,106.07,231.94,107.79,228.65Z"/><path class="cls-18" d="M187.1,244.29c-2.61-4.44-2.7-9.73-5-14.46a2.07,2.07,0,0,1,2,.93,11.83,11.83,0,0,1,1.79,3.63,30.7,30.7,0,0,1,1.69,9.1A.73.73,0,0,1,187.1,244.29Z"/><path class="cls-18" d="M170.74,244.26a17.21,17.21,0,0,1-1.38-5.17c-.4-2.1-1-4.13-1.42-6.22a6.21,6.21,0,0,1-.2-.74c0-.54-.34-1.32.36-1.53s.74.58,1,1a20.68,20.68,0,0,1,2.52,10.81A2,2,0,0,1,170.74,244.26Z"/><path class="cls-18" d="M179.05,242.37a1.68,1.68,0,0,1-.88-1.33,73.22,73.22,0,0,0-3.38-9.91,5.47,5.47,0,0,1-.34-1.11.63.63,0,0,1,.12-.53c.23-.2.49-.1.69.1a6.54,6.54,0,0,1,1.26,1.26c2,3.42,3.41,7,2.85,11.08A2.18,2.18,0,0,0,179.05,242.37Z"/><path class="cls-18" d="M194,243.12a5,5,0,0,1-.94-2.34,27.7,27.7,0,0,0-3.29-8,5.57,5.57,0,0,1-.37-.68c-.14-.3-.3-.63,0-.9s.73,0,1,.13a3.71,3.71,0,0,1,1,.87,13.59,13.59,0,0,1,3.14,10.27A.77.77,0,0,1,194,243.12Z"/><path class="cls-18" d="M199.29,243.51a1.92,1.92,0,0,1-.74-1.67,41.22,41.22,0,0,0-2.08-8.25c-.21-.68-.67-1.67-.07-2,.88-.43,1.17.7,1.58,1.25,2.06,2.93,2.23,6.29,2,9.67A.94.94,0,0,1,199.29,243.51Z"/><path class="cls-18" d="M53.48,56.94c1.11,1.13,1,2.38,1.18,3.45a103,103,0,0,0,2.86,11c.24.74.42,1.49.61,2.23a.56.56,0,0,1-.21.66c-.21.12-.52-.07-.65-.27a16.35,16.35,0,0,1-2.38-4.43,21.38,21.38,0,0,1-1.66-7.72c0-.79-.53-1.48-.36-2.27S53.25,58,53.48,56.94Z"/><path class="cls-18" d="M62.69,74.41a6.28,6.28,0,0,1-2-3.26,31.64,31.64,0,0,1-2-11.79,6.4,6.4,0,0,1,.07-1.16.59.59,0,0,1,.48-.55.55.55,0,0,1,.54.47c.22,1,.39,2,.6,3,.81,3.77,1.64,7.54,2.43,11.31A2.76,2.76,0,0,1,62.69,74.41Z"/><path class="cls-18" d="M75.44,74.3C73,68.86,72,63.27,73.69,57.39c.9,1.72.82,3.58,1,5.43s.29,3.84.67,5.74A12.24,12.24,0,0,1,75.44,74.3Z"/><path class="cls-18" d="M117.88,75.23c-2.3-3.61-2.8-14.11-.92-17.34,1.26,1.8.24,3.77.74,5.62s0,3.87.23,5.79S118.66,73.06,117.88,75.23Z"/><path class="cls-18" d="M139.32,75.36h-1.16c.23-2.37.69-4.7.94-7.08.2-2,.49-4,.69-5.93a10.55,10.55,0,0,1,.82-3.58c.24.25.44.38.47.51a21.9,21.9,0,0,1,.6,5.35A43.91,43.91,0,0,1,139.32,75.36Z"/><path class="cls-18" d="M66.44,58.1a.73.73,0,0,1,.7.71c.64,5.11,1.64,10.18,1.65,15.41a1,1,0,0,1-1.15-.83v0A26.21,26.21,0,0,1,66.07,66a9.86,9.86,0,0,0-.21-1.72A11.87,11.87,0,0,1,66.44,58.1Z"/><path class="cls-19" d="M146.87,74.87c-.4-1.93.31-3.6.41-5.32.13-2.17.69-4.32.68-6.52,0-1.37.59-2.65.45-4a.47.47,0,0,1,.37-.53h.07a.59.59,0,0,1,.57.45,18.46,18.46,0,0,1,.49,2.85,28.09,28.09,0,0,1-1.58,11.06A3.24,3.24,0,0,1,146.87,74.87Z"/><path class="cls-19" d="M94.22,74.6c-1.67-2.72-2.17-12.56-.93-16C94.86,60.57,95.55,71.39,94.22,74.6Z"/><path class="cls-18" d="M169.76,74.71h-.41a11.86,11.86,0,0,1,.9-4.51c.94-3,1.51-6.14,2.33-9.19a4.33,4.33,0,0,1,.88-2,3.8,3.8,0,0,1,.6,3.52A29.55,29.55,0,0,1,171,73,5.12,5.12,0,0,1,169.76,74.71Z"/><path class="cls-18" d="M110.29,74.75c-2.61-3.77-3.24-13-1.08-16.23.94,2.75.6,5.48.85,8.08S110.88,71.82,110.29,74.75Z"/><path class="cls-18" d="M163.14,74.75a.8.8,0,0,1-.81-.8.72.72,0,0,1,.06-.29c.51-2.45,1-4.91,1.33-7.4.3-2.16.69-4.31,1-6.46.06-.33.13-.64.52-.74,1.53,2.9.52,11.75-2.15,15.71Z"/><path class="cls-18" d="M182.21,74.43h-.76a14.76,14.76,0,0,1,.91-4.74c.68-2.77,1.36-5.52,1.94-8.31a4.25,4.25,0,0,1,1-2.36C186.59,61.53,185.57,68.87,182.21,74.43Z"/><path class="cls-18" d="M125,58.12c1.25,4,.81,13.89-.73,16.43-1.1-4.14-.54-8.14-.43-12.07C124,61.17,123.76,59.5,125,58.12Z"/><path class="cls-18" d="M87.4,58.62A56.49,56.49,0,0,1,88.65,74.5C86.49,72.59,85.65,62.79,87.4,58.62Z"/><path class="cls-18" d="M132.38,58.39a4.78,4.78,0,0,1,.74,2.52c0,3.77.28,7.62-.82,11.3-.2.71-.16,2-.93,1.91-1.1-.12-.64-1.38-.57-2.11.34-3.39.19-6.81.75-10.19a10.11,10.11,0,0,0,0-1.74A1.82,1.82,0,0,1,132.38,58.39Z"/><path class="cls-18" d="M82,74.31C79.52,71,78.68,61.38,80.49,57.92c1.06,2.8.84,5.57,1.15,8.24A31.78,31.78,0,0,1,82,74.31Z"/><path class="cls-18" d="M101.07,59a.94.94,0,0,1,.79.92,104.85,104.85,0,0,1,.77,14.71c-1.17-.81-1.39-1.69-1.93-4.82a32.61,32.61,0,0,1-.3-5.41A11.84,11.84,0,0,1,101.07,59Z"/><path class="cls-18" d="M179.31,59.32a6.7,6.7,0,0,1,1,4.3,19.66,19.66,0,0,1-2.63,9c-.34.53-.66,1.42-1.25,1.12s-.18-1.12,0-1.69a70.5,70.5,0,0,0,2.51-11.93A.94.94,0,0,1,179.31,59.32Z"/><path class="cls-18" d="M191.85,59.17a1.56,1.56,0,0,1,.55,1.08,19.2,19.2,0,0,1-2.74,12.08l-.44.64c-.21.33-.45.73-.89.5s-.19-.56-.09-.88c.22-.74.38-1.51.62-2.24,1.07-3.39,1.63-6.89,2.41-10.35C191.34,59.69,191.36,59.36,191.85,59.17Z"/><path class="cls-18" d="M156.43,59.28a2.69,2.69,0,0,1,.88,2c-.08,3.15.26,6.28-.78,9.41a25,25,0,0,1-1.36,3c-.11.23-.31.44-.61.29a.55.55,0,0,1-.3-.64c.25-1.79.46-3.57.76-5.33a64.78,64.78,0,0,0,.72-6.51C155.83,60.76,155.71,60,156.43,59.28Z"/><path class="cls-18" d="M197.48,62.48a16.1,16.1,0,0,1-1.62,7.66,11.74,11.74,0,0,1-.91,1.48.57.57,0,0,1-.62.36.69.69,0,0,1-.37-.78c.23-1.13.53-2.27.77-3.4q.81-3.85,1.61-7.75c.07-.39.15-.87.61-.84s.54.5.54.9C197.5,60.89,197.49,61.67,197.48,62.48Z"/><path class="cls-20" d="M73.26,114.38a1.81,1.81,0,0,1,.35,1.59C73,115.56,73.24,114.94,73.26,114.38Z"/><path class="cls-21" d="M135.77,85.41c.63.31.87.41,1.08.54,1.8,1.07,3.7,2.1,4.15,4.37A10.42,10.42,0,0,1,139.89,98a9.08,9.08,0,0,1-3.33,3.49C136.33,96.13,136.05,90.94,135.77,85.41Z"/><rect class="cls-22" width="250" height="250"/></svg>