<svg id="Layer_1" data-name="Layer 1" xmlns="http://www.w3.org/2000/svg" viewBox="0 0 250 250"><defs><style>.cls-1{fill:#f0f0f0;}.cls-2{fill:#d1d1d1;}.cls-3{fill:#938381;}.cls-4{fill:#591359;}.cls-5{fill:#952993;}.cls-6{fill:#9e9e9e;}.cls-7{fill:#481048;}.cls-8{fill:#a32da1;}.cls-9{fill:#611561;}.cls-10{fill:#4f114f;}.cls-11{fill:#fbaf41;}.cls-12{fill:#fffffe;}.cls-13{fill:#fefefe;}.cls-14{fill:#611661;}.cls-15{fill:#501150;}.cls-16{fill:#e99221;}.cls-17{fill:#ffc16e;}.cls-18{fill:#ffa024;}.cls-19{fill:#fffefe;}.cls-20{fill:#521350;}.cls-21{fill:#521352;}.cls-22{fill:#fff;}.cls-23{fill:#fbaf42;}.cls-24{fill:#5a1459;}.cls-25{fill:#631761;}.cls-26{fill:#fbb043;}.cls-27{fill:#591459;}.cls-28{fill:#faaf43;}.cls-29{fill:#621662;}.cls-30{fill:#a430a2;}.cls-31{fill:#571b57;}.cls-32{fill:#fbb044;}.cls-33{fill:#fdd08d;}.cls-34{fill:#521252;}.cls-35{fill:none;}</style></defs><title>products</title><path class="cls-1" d="M83.3,67.78c-.18-2.7,1.38-4.38,3.58-5.63a42.38,42.38,0,0,1,12.65-4.31c2.67-.54,5.36-1,8.07-1.34,2.37-.27,4.78-.48,7.17-.67s4.74,0,7.07-.28a31.35,31.35,0,0,1,6-.18c2.51.2,5,.11,7.51.26,3,.18,5.91.43,8.84.83a81.18,81.18,0,0,1,15.45,3.25,25.1,25.1,0,0,1,6.58,3.1,5.16,5.16,0,0,1,2.56,4.1,3,3,0,0,1-1,2.76,15.55,15.55,0,0,1-6.1,3.69A66.13,66.13,0,0,1,146.55,77a138.33,138.33,0,0,1-25.07,1.36c-9.37-.31-18.74-1.2-27.78-3.87a27.61,27.61,0,0,1-7.37-3.19A6.19,6.19,0,0,1,83.3,67.78Z"/><path class="cls-2" d="M169,67.19c-.48.33-.31.83-.31,1.27v4a4.54,4.54,0,0,1-1.41,3.31c-.94,1-2.17,1.6-3.13,2.54A8.09,8.09,0,0,1,161,80.09a81.24,81.24,0,0,1-19.19,4.45,124.66,124.66,0,0,1-22,.76c-9.93-.42-19.77-1.66-29.08-5.39a11.29,11.29,0,0,1-2.77-1.35c-.2-.15-.37-.43-.69-.18A3.85,3.85,0,0,0,86.14,77a6,6,0,0,1-2.86-5.75,32.89,32.89,0,0,0,0-3.44c.14.12.36.19.42.34.85,1.92,2.63,2.86,4.38,3.78a42.27,42.27,0,0,0,11.27,3.61c2.51.49,5,1,7.56,1.32,2.14.26,4.32.41,6.45.7,2.31.31,4.64-.06,6.92.47a4.1,4.1,0,0,0,1,0c1.75,0,3.51-.07,5.26,0,3.4.15,6.72-.18,10.06-.35,3-.16,6.09-.53,9.12-1a106.1,106.1,0,0,0,11.61-2.36,34.44,34.44,0,0,0,7.85-3.14,10.8,10.8,0,0,0,2.56-2.15,2.17,2.17,0,0,0,.66-1.34.93.93,0,0,1,.32-.88H169l.07.11Z"/><path class="cls-2" d="M165.87,232.45c.39.32.29.76.29,1.16v5a4.09,4.09,0,0,1-1.32,3.1,15.84,15.84,0,0,1-5.11,3.15,63.19,63.19,0,0,1-14.2,3.71c-3.41.51-6.82.89-10.27,1.14a142.31,142.31,0,0,1-17,.12,91,91,0,0,1-19.7-3,43.08,43.08,0,0,1-8.47-3.14c-.2.17-.13.43-.19.65a3.2,3.2,0,0,0-1.5-1.74A5.07,5.07,0,0,1,85.82,238c.05-1.11,0-2.22,0-3.32a.8.8,0,0,1,.85.31c2.55,2.94,6.17,4,9.78,5a93.11,93.11,0,0,0,18.63,2.89c3.88.24,7.76.57,11.63.47,9.47-.24,18.94-.72,28.15-3.2a27.59,27.59,0,0,0,8-3.15c1.43-.92,2.69-1.93,2.56-3.83A.91.91,0,0,1,165.87,232.45Z"/><path class="cls-1" d="M165.87,232.45c.43,2.3-.73,3.73-2.62,4.88a33.67,33.67,0,0,1-8.94,3.42,73.82,73.82,0,0,1-10.22,1.89c-2.34.29-4.69.47-7,.67s-4.73,0-7.07.28a28.6,28.6,0,0,1-5.23.18c-2.56-.23-5.11-.09-7.67-.27-3.71-.27-7.42-.58-11.07-1.14a66.5,66.5,0,0,1-12.38-2.83,24.48,24.48,0,0,1-4.84-2.25,5.5,5.5,0,0,1-2.15-2,1.28,1.28,0,0,0-.73-.64,4.24,4.24,0,0,1,1.4-3.75,1.49,1.49,0,0,0,.58-1.34V80a.34.34,0,0,1,.46.12v0a3,3,0,0,1,.27,1.65v44.56a2.8,2.8,0,0,1,0,.41c0,1.17,0,2.33,0,3.51a14.44,14.44,0,0,1,0,2.08v54.15a13.51,13.51,0,0,1,0,1.8c.05,2,0,4.07,0,6.1,0,12.05.08,24.09,0,36.14a5.63,5.63,0,0,0,3.61,5.65c4.59,2.22,9.52,3.11,14.48,3.85s9.79.93,14.72,1.24c4.76.29,9.47-.2,14.19-.19a106.93,106.93,0,0,0,13.24-1.54c4.11-.76,8.19-1.66,11.87-3.66,1.79-1,3.15-2.24,2.89-4.5a1,1,0,0,1,.44-1.09A3.74,3.74,0,0,1,165.87,232.45Z"/><path class="cls-3" d="M88.05,80h-.21l-.6-1.66c.12-.11-.1-.54.34-.33.38.36.85.64.85,1.25A.8.8,0,0,1,88.05,80Z"/><path class="cls-1" d="M169,67.19a.89.89,0,0,0,0-.23l.26.31A.35.35,0,0,1,169,67.19Z"/><path class="cls-4" d="M164,230.28a15.32,15.32,0,0,0,0,1.66,3.64,3.64,0,0,1-1.65,3.31,20,20,0,0,1-6.48,3,74.11,74.11,0,0,1-13.29,2.56,56.66,56.66,0,0,1-6.76.53c-.68,0-.74-.53-.74-.95-.06-4.63-.2-9.25.06-13.88a.77.77,0,0,1,.1-.25.56.56,0,0,1,.6-.34c.62.25.53.83.56,1.28a17.91,17.91,0,0,0,.08,2.07c.14.67,0,1.74,1.06,1.6.86-.1.64-1.07.62-1.74s-.27-1.08,0-1.66c.68-.57,1.28-.06,1.8.24,1.65.92,3.36,1.72,5,2.57a3.16,3.16,0,0,0,4.31-.82,5.05,5.05,0,0,0,.25-.45,9.09,9.09,0,0,0,.12-8.54,42.75,42.75,0,0,0-2.15-4.07,7,7,0,0,1-.85-5.85c.31-.94.74-1.7,1.88-1.82.3,0,.74,0,.71-.5s-.37-.51-.69-.61a2.19,2.19,0,0,0-2.62,1.4,7.72,7.72,0,0,0-.27,6.07,18,18,0,0,0,1.71,3.5c1.7,2.74,2.71,5.59,1.66,8.84-.71,2.17-1.88,2.76-4.1,2a2.5,2.5,0,0,1-.59-1.52c-.85-4.4-1.49-8.85-2.38-13.25a15.85,15.85,0,0,1-.06-3.51,3.5,3.5,0,0,1,1.33-1.9c3.7-3.54,7.57-6.93,11.15-10.59a3.14,3.14,0,0,0,1-1.26,20.42,20.42,0,0,0-2.34-.4c-.66-.07-1.33-.14-1.7-.83a48.05,48.05,0,0,1-.14-6.35,13.68,13.68,0,0,0-.81-4.47,4,4,0,0,0-2.81-2.7c-1.36-.4-2.08-.11-2.56,1.23a19.7,19.7,0,0,0-.74,5.46,55.54,55.54,0,0,1-.13,6.05,5.62,5.62,0,0,1-4.34-.55,34.15,34.15,0,0,1-.85-10.12c0-.76.13-.76,1.89-1.47-1.82-.58-3.54-.44-5.2-.72-.92-.44-.67-1.31-.78-2a1.22,1.22,0,0,1,.55-.93c4-3.69,8-7.38,12.92-10a46.2,46.2,0,0,1,13.52-5.21c.62-.12,1.27-.45,1.91-.06v64.23A10.56,10.56,0,0,1,164,230.28Z"/><path class="cls-5" d="M163.88,108.84v50.93c-.36.47-.92.44-1.42.55a42.63,42.63,0,0,0-20.34,11.09c-1.81,1.7-3.65,3.36-5.51,5-.38.34-.85,1.25-1.52.17a100.79,100.79,0,0,1,0-12.29c.56-.83,1.09-.18,1.55.08a9,9,0,0,0,4.94,1.44,6.82,6.82,0,0,0,5-2.44,3.54,3.54,0,0,0,.85-2.42c0-2.11-1-2.92-3-2.32a13.69,13.69,0,0,1-7.4.36,2.67,2.67,0,0,1-1.92-1,16.19,16.19,0,0,1,0-5.38c.6-.83,1.29-.26,1.9-.05a12.22,12.22,0,0,0,8.51.16,10.45,10.45,0,0,0,6.88-9.19c.52-8.41-3.22-14.56-10.5-18.83a17.42,17.42,0,0,0-5.2-1.83c-.64-.15-1.33-.24-1.59-1-.31-2.83-.08-5.66-.14-8.49a15.75,15.75,0,0,0-.22-3.14c0-.44.39-.55.75-.64,5.48-.2,11-.09,16.44-.08a69.57,69.57,0,0,0,9.88-.74C162.5,108.67,163.21,108.39,163.88,108.84Z"/><path class="cls-4" d="M163.6,79.44c.36.21.3.56.3.83v24.08a2.37,2.37,0,0,1-1.48,1A58.89,58.89,0,0,1,146,108.94c-2.89.28-5.78,0-8.65.46a2.2,2.2,0,0,1-2-.41,3.25,3.25,0,0,1-.31-1.86c0-2.42-.08-4.83.05-7.25a1.85,1.85,0,0,1,.73-1.26c.42-.35.42-.67-.1-.93a1.26,1.26,0,0,1-.6-1,63.69,63.69,0,0,1,.12-9.57c.52-.77,1.35-.77,2.14-.83a87.56,87.56,0,0,0,17.19-2.71,22.66,22.66,0,0,0,8.32-3.76A1.38,1.38,0,0,1,163.6,79.44Z"/><path class="cls-6" d="M163.6,79.44c-1.62,1.88-3.86,2.76-6.13,3.57a60,60,0,0,1-11.92,2.78,68.4,68.4,0,0,1-8.57.9,13.32,13.32,0,0,0-1.54.24,1.81,1.81,0,0,1-1.19.38c-4.64.17-9.26.38-13.92.1a142.23,142.23,0,0,1-15.56-1.5A47.37,47.37,0,0,1,92,82.32c-1.5-.74-3.17-1.34-3.78-3.13,0-.49-.44-.75-.56-1.17a57.28,57.28,0,0,0,17.5,5.34c2.85.47,5.7.83,8.56,1.12a141.78,141.78,0,0,0,19.44.43c2.69-.1,5.36-.34,8-.7a99.9,99.9,0,0,0,13.63-2.49,42.9,42.9,0,0,0,8.25-3,3.14,3.14,0,0,1,1.18-.45C164.24,78.81,163.75,79.05,163.6,79.44Z"/><path class="cls-7" d="M135.43,177.05c2.23-2.05,4.48-4.09,6.7-6.16A43.29,43.29,0,0,1,162.48,160c.46-.08.93-.14,1.4-.18v4.49l-3.56.83a44,44,0,0,0-11.81,4.84,50.85,50.85,0,0,0-9.55,7,38.21,38.21,0,0,1-3.26,2.83c-1.18-.55-.55-1.52-.57-2.34A.78.78,0,0,1,135.43,177.05Z"/><path class="cls-7" d="M135.4,109.1c2.56,0,5.19-.19,7.77-.33a62.41,62.41,0,0,0,16.88-2.93c1.28-.44,2.55-1,3.82-1.45v4.45c-2,.35-3.9.65-5.88.83-5.68.56-11.37.12-17,.23h-5.55a.57.57,0,0,1-.14-.69Z"/><path class="cls-8" d="M135.43,177.05v.24a14.72,14.72,0,0,1-5.45,4.57c-.85-.38-1-1.29-1.42-2s-.85-1.74-1.44-2.71a6,6,0,0,0-1.28,2.18,11.7,11.7,0,0,1-1.88,3.38,4.27,4.27,0,0,1-2.07,0,2.7,2.7,0,0,0-1.79.23c2.21,1.32,2.25,1.39,1.75,3.08a6.48,6.48,0,0,1-4,1c-.77-.26-.78-1-1-1.58a4.39,4.39,0,0,0-3.34-2.91,1.52,1.52,0,0,0-2,.86l-.06.17a9.47,9.47,0,0,0-.53,2.16,1.77,1.77,0,0,1-.8,1.54,3.81,3.81,0,0,1-2.6-.08c-.5-.46-.25-1-.21-1.55a6.65,6.65,0,0,0-.71-3.61,3.73,3.73,0,0,0-1.87-1.8,2,2,0,0,0-1.9,0c-.54.38-.26,1-.22,1.54a32.92,32.92,0,0,1,.38,4,1.81,1.81,0,0,1-.47,1.52,3.83,3.83,0,0,1-1.95.25,44.41,44.41,0,0,0-10.41,1c-.67.13-1.38.44-2.06,0,0-.41-.05-.83-.05-1.24v-57a1.76,1.76,0,0,1,1-.4c9.14-1.27,17-5.27,24.21-10.61a84.8,84.8,0,0,1,9.18-6,28.64,28.64,0,0,1,10.5-3.22,2,2,0,0,1,1.76.31c.76.11.58.71.58,1.18v10.73a1.33,1.33,0,0,1-1,.38A17.49,17.49,0,0,0,118.68,130a1.76,1.76,0,0,1-.63.55c-.78,0-1.14-.6-1.64-1-2.47-1.9-5.11-3-8.3-1.82-2.37.83-3.75,2.59-3.67,4.71.07,1.9,1.13,2.66,3,2.11a14.08,14.08,0,0,1,6.57-.63c4.58.82,7.86,3.44,10.75,6.75,1,1.19,1.93,2.48,3,3.69a25.65,25.65,0,0,0,7.31,7.22.72.72,0,0,1,.33.69c0,1.94,0,3.87,0,5.8l-.16.13a9.57,9.57,0,0,1-4.75-2.58,40.26,40.26,0,0,1-5.82-6.42,11.84,11.84,0,0,0-1.24-1.51,25.08,25.08,0,0,0-6.64-6.18c-3.62-2.07-7.36-2.54-11.26-.72a9.93,9.93,0,0,0-5.86,8.59c-.79,8.72,3.22,15.09,10.9,19.24a17.85,17.85,0,0,0,22.31-4.83c.28-.38.47-.83.92-1s1,.22,1.39.5c.2.21.41.42.21.74Q135.43,170.53,135.43,177.05Z"/><path class="cls-9" d="M88.17,79.19a14.13,14.13,0,0,0,5.68,3.53,48.5,48.5,0,0,0,9.41,2.48,106.23,106.23,0,0,0,11.8,1.47c4.52.31,9,.5,13.62.47,2.28,0,4.52-.4,6.82-.24v9.27a1.41,1.41,0,0,0,.85,1.51c-.64.6-1.37.19-2,.1-5.11-.72-4,0-6.22-4.23-.27-.52-.37-1.4-1-1.43-.75,0-.79.9-1.07,1.44-2.3,4.31-1.25,3.43-6,4.23a10.14,10.14,0,0,0-2,.41c1,1,2,2,3,2.94a2.83,2.83,0,0,1,1,3.1,22.5,22.5,0,0,0-.7,4.15,12.62,12.62,0,0,0,3.52-1.66,3.4,3.4,0,0,1,4.09,0,20.8,20.8,0,0,0,3.4,1.71,27.74,27.74,0,0,0-.59-4.35c-.27-1.87,1.52-4.28,3.51-4.7v9.67h0c-1.24.73-2.66.59-4,.73a33.5,33.5,0,0,0-14.68,5.62,103.54,103.54,0,0,1-8.93,5.67,58,58,0,0,1-18.4,6,1.36,1.36,0,0,1-1.19-.21c0-.51,0-1,0-1.52V80.07Z"/><path class="cls-9" d="M135.43,226v14.23c0,.41-.09.83.35,1.13a7.38,7.38,0,0,1-2.92.25c-2.83,0-5.67.33-8.51.22-8.36-.32-16.7-.75-24.87-2.71a34,34,0,0,1-7.36-2.49,13.26,13.26,0,0,1-2.51-1.55,3.69,3.69,0,0,1-1.5-3V196a12.88,12.88,0,0,1,.06-1.52,2.56,2.56,0,0,1,1.32-1.19,43.38,43.38,0,0,1,11.87-4.14c.53-.1,1.13-.37,1.54.27A28.28,28.28,0,0,1,103,196c-.29.83-1,.83-1.74,1-.85.1-1.7.25-2.56.39,0,.61.47.82.79,1.14,1.7,1.66,3.35,3.26,5,4.9.41.42,1,.79.74,1.53-2.27,1.77-2,4.38-2.12,6.74a63.13,63.13,0,0,0,.53,13.53,11.85,11.85,0,0,0,.85,2.91c1.16,2.56,3,3.39,5.75,2.75a4,4,0,0,0,2.43-2.17c.9-.5,1.62-1.5,2.88-1,.42.53.35,1.21.59,1.8.15.34.28.74.73.7s.48-.5.52-.83a11.42,11.42,0,0,1,.22-3c.92-.72,1.7-1.79,3.13-1.37.55,1.08.08,2.28.42,3.38.21.69,0,1.9,1,1.82s.56-1.19.6-1.87c.1-1.55-.08-3.11,0-4.66a12.49,12.49,0,0,1,3.63-2.12,1.45,1.45,0,0,1,1.8.41c.7,1.9.44,3.91.7,5.86.1.83-.5,1.23-1.27,1.41-.36.09-.85.15-.79.63s.53.49.91.52a32.13,32.13,0,0,0,3.4,0c.38,0,.85-.06.92-.5s-.25-.7-.61-.83c-1.1-.31-1.29-1.11-1.24-2.05.06-1.18-.57-2.35-.09-3.54,0,0,.05-.1.09-.11C131.33,223.16,134.83,224.92,135.43,226Z"/><path class="cls-10" d="M88.17,126.84a53.79,53.79,0,0,0,12.45-3c1.84-.7,3.69-1.42,5.47-2.26a91.31,91.31,0,0,0,9.6-5.8,40.15,40.15,0,0,1,9.21-4.8,29.91,29.91,0,0,1,8-1.55,16.7,16.7,0,0,1,2.55-.26V110a.74.74,0,0,0-.6.27,26.82,26.82,0,0,0-13.15,3.85c-3.57,2.1-6.88,4.56-10.27,6.92a52.89,52.89,0,0,1-13.71,7.17,66.51,66.51,0,0,1-8.25,2,7.71,7.71,0,0,1-1.27.05A22.45,22.45,0,0,1,88.17,126.84Z"/><path class="cls-10" d="M102.65,189.21a62.26,62.26,0,0,0-7.49,2,37.2,37.2,0,0,0-7,3.22q-.15-3,0-6.06a61.76,61.76,0,0,1,8.09-1.34c2.12-.18,4.26-.07,6.4-.08A1.67,1.67,0,0,1,102.65,189.21Z"/><path class="cls-11" d="M135.43,226a42.9,42.9,0,0,0-5.11-2.69,2.29,2.29,0,0,1-.67-1.76c-.14-3.54-.48-7.08-.34-10.63,0-.88.14-1.65,1.2-1.93.28-.06.57-.2.51-.55s-.43-.45-.74-.49a5.71,5.71,0,0,0-2,.12c-1.45.33-1.51.53-.53,1.66a2.59,2.59,0,0,1,.59,2.08,33.71,33.71,0,0,0,0,7.58A3.18,3.18,0,0,1,128,222a1.86,1.86,0,0,0-2,.07c-1,.56-2,1-3,1.53-.67-.44-.53-1.15-.53-1.76,0-4.1-.48-8.2-.29-12.3a2.81,2.81,0,0,0,0-.41c-.08-.48,0-1.18-.66-1.19s-.7.69-.7,1.17c0,2.54.26,5.06.39,7.59.08,1.82-.49,2.42-2.39,2.29a1.6,1.6,0,0,1-1.7-1.51v-.15a18.28,18.28,0,0,1,.18-3.31,27.18,27.18,0,0,0,0-4.42c0-.53-.07-1.3-.79-1.26s-.54.78-.55,1.25c0,2.17,0,4.34,0,6.51v9.54c0,.67.15,1.4-.49,1.93-.92.2-1.6.91-2.55,1.17a2.62,2.62,0,0,0-2.77.2c-.3.22-.74.47-1.11,0-.22-2.15.47-4.19.85-6.26.58-3.41,1.12-6.82,1.79-10.21a2.18,2.18,0,0,0-.7-2.12,30.27,30.27,0,0,1-3.79-3.89c.31-1.1,1.14-.63,1.82-.55s1.42.67,1.65-.26-.66-1.1-1.34-1.3a5.45,5.45,0,0,0-2.41.12c-.55.08-1.07.42-1.65.17-2-2.21-4.25-4.15-6.42-6.25a3.22,3.22,0,0,1-1-1.27c1.62-.34,3.23-.51,4.83-.7.6.56.37,1.29.43,2s-.16,1.39.38,2.06c.65-.32.47-.92.52-1.42.11-1-.22-2,.34-3a16,16,0,0,1,5.9-1c.68.27.75.89.85,1.48a8,8,0,0,0,.94,3,2.5,2.5,0,0,0,4.53.06c.92-1.43.86-3.08,1.15-4.65q0-.62.15-1.23c1-2.15,2.14-4.22,3.19-6.35.27-.34.41-.83,1-.72a1.45,1.45,0,0,1,.43,1.26c0,3.64.51,7.26.58,10.89a2.69,2.69,0,0,0,.06.69c0,.22.08.49.41.44s.28-.23.32-.41a3.19,3.19,0,0,0,.09-1.23c-.3-2.84-.37-5.7-.71-8.53-.21-1.65-.07-3.31-.21-5-.1-1.27,1.15-1.1,1.86-1.43-.08-.59-.74-.52-.85-1l3-6.18,3,5.49a1.14,1.14,0,0,1,.58.69,54.93,54.93,0,0,1-1.19,9.29c-.45,2.41-1,4.78-1.62,7.15-.13.5-.52,1.33.13,1.46s.7-.83.86-1.32.13-.73.2-1.09c.17-1,.43-1.79,1.76-1.66,1.51.14,2.1.57,2.27,1.94a5,5,0,0,0,.09,1c.14.48,0,1.35.72,1.25s.35-.83.28-1.33c-.16-1.09-.45-2.17-.53-3.27-.19-2.33-.57-4.65-.55-7,.74-.5.86.22,1.07.57.59,1,1.07,2,1.62,3.06.27,1.52,1.79,1.5,2.79,2.11.85,1.75.23,3.71.76,5.74,1-1.11.59-2.17.53-3.17,0-.83-.45-1.66.32-2.34,1.36.19,2.72.48,4.1.54.53.26.41.78.5,1.21a9,9,0,0,0,1,3.15,2.51,2.51,0,0,0,4.54-.06,8.18,8.18,0,0,0,.76-2.07c.11-.44.13-.94.69-1.12l2.24.31,2.19.34c.22.36-.07.53-.26.71-3.05,2.88-6,5.8-9.13,8.65-1.56,1.41-3,2.92-4.51,4.38-.62-.11-.71-.69-1-1.1a2.85,2.85,0,0,0-1.81-1.43c-2.23-.54-2.89,0-2.8,2.27a40.32,40.32,0,0,1-.17,7.45c-.29,2.09,0,4.23,0,6.33,0,.62.17,1.32-.51,1.76Z"/><path class="cls-12" d="M135.86,226.09c0-2.33.37-4.68,0-7a1.94,1.94,0,0,1,.09-.67,32.19,32.19,0,0,0,.1-8.77c-.15-1.33.32-1.88,1.7-1.9a8.55,8.55,0,0,1,1.13,0,3,3,0,0,1,2.9,2l.42,1,.18,3.9A4.57,4.57,0,0,1,139.6,220a1.52,1.52,0,0,0-.91,1.56v4.25a2.7,2.7,0,0,1-.3,1.6c-.21.74.25,1.44.14,2.17v.83a1.13,1.13,0,0,1-1.07,1.1,1,1,0,0,1-1.17-.89v-.07a18.6,18.6,0,0,1-.32-3A12.78,12.78,0,0,1,135.86,226.09Z"/><path class="cls-13" d="M151.63,196.44a26.39,26.39,0,0,1-.85,2.88,3,3,0,0,1-2.81,2.14,2.66,2.66,0,0,1-2.61-1.51,10,10,0,0,1-1.08-3.39c-.06-.41-.09-.83-.14-1.23a52.15,52.15,0,0,1,0-8.29,15.67,15.67,0,0,1,.46-3.12c.54-1.87,1.45-2.35,3.34-1.66a4.3,4.3,0,0,1,2.65,2.35,10.61,10.61,0,0,1,1,4.39Q151.61,192.72,151.63,196.44Z"/><path class="cls-11" d="M138.36,227.45a64,64,0,0,1-.15-6.5c0-.42,0-.83.53-1,2.55-.83,3.5-2.77,3.6-5.23.63,3.48,1.24,7,1.9,10.44a28.28,28.28,0,0,0,.85,4.19,1,1,0,0,1-.24,1.25c-1.48-.55-2.82-1.39-4.25-2.07Z"/><path class="cls-13" d="M144.85,230.61a1.37,1.37,0,0,1,.23-1.25,3.3,3.3,0,0,1,.7,0c1.62.23,2.2-.11,2.73-1.66a8.77,8.77,0,0,0-.54-7.22c-.71-1.3-1.46-2.58-2.13-3.9a8.82,8.82,0,0,1-.46-7.46,2.82,2.82,0,0,1,3-2,1.73,1.73,0,0,1,1.22.62,1,1,0,0,1,.18,1c-.15.37-.49.38-.85.39-1.52.1-1.59.19-2,1.55a6.91,6.91,0,0,0,.92,5.66c.72,1.3,1.51,2.57,2.11,3.91A9.75,9.75,0,0,1,150,229a4.06,4.06,0,0,1-2.47,2.15A2.33,2.33,0,0,1,144.85,230.61Z"/><path class="cls-13" d="M140,194.79c-.17,1.56.33,3.09.18,4.65a1.48,1.48,0,0,1-.34,1.14.72.72,0,0,1-1.28-.34,4.34,4.34,0,0,1-.08-1.08,27.79,27.79,0,0,0-.27-4.65,14.4,14.4,0,0,1-.67-4.83c-.07-1.37-.12-2.74-.26-4.09a1.59,1.59,0,0,0-1.38-1.66c-.74-.47-1.49-1-.21-1.66,1.71-.16,3.41.29,5.11.24a.71.71,0,0,1,.79.63v0c0,.49-.34.68-.79.82s-.86-.14-1.42.07A70,70,0,0,0,140,194.79Z"/><path class="cls-14" d="M135.72,182.3c-.6.44-.52.89,0,1.34a74.74,74.74,0,0,1,.09,7.92,1.24,1.24,0,0,1-.42,1c-.85-1.21-1.31-2.67-2.17-3.91a1.12,1.12,0,0,1-.61-1,21.59,21.59,0,0,1-.36-5,4.57,4.57,0,0,1,2.87-2.26c.36.27.26.65.28,1S135.35,182.06,135.72,182.3Z"/><path class="cls-15" d="M135.12,180.33a18.28,18.28,0,0,1-2.65,2,8,8,0,0,1-2.19.09.84.84,0,0,1-.34-.64,37.21,37.21,0,0,0,4.18-3.41,10,10,0,0,1,1.28-1.06c.11.83-.26,1.71.29,2.49Z"/><path class="cls-16" d="M134.29,122.19l1.11-.08a6.34,6.34,0,0,0,2,.49,20.37,20.37,0,0,1,15.25,16.33,15,15,0,0,1-1,8.55,11.18,11.18,0,0,1-13.62,5.8c-.85-.27-1.76-.66-2.65-1l-.37-.42a9.65,9.65,0,0,1-.11-2.34V125.39A5.59,5.59,0,0,0,134.29,122.19Z"/><path class="cls-16" d="M135.39,164l-.35-.52c0-1.77-.49-3.57.37-5.27a.33.33,0,0,1,0-.14,12.22,12.22,0,0,0,8.57.3c.35-.11.72-.2,1.1-.28a2.19,2.19,0,0,1,2.75,1.32,2.24,2.24,0,0,1,.11.5,4.39,4.39,0,0,1-1,3.87,7.68,7.68,0,0,1-8.94,1.66A28.28,28.28,0,0,1,135.39,164Z"/><path class="cls-11" d="M135.41,99.43a38.64,38.64,0,0,0-2.95,2.77,1.11,1.11,0,0,0-.29,1.25c.34,1.65.61,3.31.9,5a4.21,4.21,0,0,1,0,.71,38.26,38.26,0,0,1-3.83-2,3.37,3.37,0,0,0-4.25,0,31.21,31.21,0,0,1-3.86,2,5.78,5.78,0,0,1,.19-2.23,30,30,0,0,1,.64-3.4,1.37,1.37,0,0,0-.46-1.47c-1.3-1.21-2.56-2.49-3.86-3.69-.13-.13-.33-.19-.22-.52,1.52-.23,3.09-.53,4.66-.66a2.7,2.7,0,0,0,2.68-1.76A49.18,49.18,0,0,1,127,91a4.26,4.26,0,0,1,1.06,1.65c.57,1.16,1.14,2.33,1.7,3.49a1.24,1.24,0,0,0,1.05.77c1.82.27,3.64.56,5.47.73.2.11.71.07.41.47A11.05,11.05,0,0,1,135.41,99.43Z"/><path class="cls-11" d="M148.14,89.2c.8,1.6,1.7,3.18,2.39,4.8a1.91,1.91,0,0,0,1.71,1.21c1.76.21,3.52.47,5.27.71.08.56-.32.73-.56,1C155.89,98,154.84,99,153.73,100a1.69,1.69,0,0,0-.58,1.84c.35,1.7.61,3.43.91,5.13-.38.31-.66,0-.92-.1-1.35-.68-2.73-1.29-4-2.07a2.08,2.08,0,0,0-2.36,0c-1.51.83-3.07,1.6-4.67,2.43a2.25,2.25,0,0,1,0-1.45c.27-1.41.45-2.82.78-4.22a1.35,1.35,0,0,0-.5-1.44c-1.27-1.18-2.52-2.38-3.77-3.57a.58.58,0,0,1-.25-.51,9.58,9.58,0,0,1,2.56-.48,14.94,14.94,0,0,1,2.66-.37A2,2,0,0,0,145.42,94c.58-1.31,1.28-2.57,2-3.85C147.56,89.83,147.63,89.43,148.14,89.2Z"/><path class="cls-17" d="M134,162.78A18.27,18.27,0,0,1,110.31,169c-5.8-3.08-9.61-7.73-10.89-14.08a14.33,14.33,0,0,1,1.29-10,10.51,10.51,0,0,1,9-5.44,12.82,12.82,0,0,1,8.82,2.85,23.67,23.67,0,0,1,5.21,5.41c3.24,4.63,6,9.6,9.77,13.85C133.79,161.83,134.31,162.17,134,162.78Z"/><path class="cls-18" d="M134.29,122.19c1.1.43,1.11.43,1.11,1.52v26.85c0,.45.14.95-.34,1.28a16.35,16.35,0,0,1-4.84-4,15.59,15.59,0,0,1-2.5-3.17c-2.89-4.26-5.41-8.77-8.87-12.66-.4-.45-1-.88-.85-1.66a17.76,17.76,0,0,1,12.77-8.15A10.4,10.4,0,0,1,134.29,122.19Z"/><path class="cls-17" d="M118,130.38a86.67,86.67,0,0,1,5.33,7c1.29,2.08,2.66,4.15,4,6.2a1.88,1.88,0,0,1,.41,1.15,38.26,38.26,0,0,1-3.13-3.72,19.5,19.5,0,0,0-7.44-5.8,12.62,12.62,0,0,0-8.85-.49,13,13,0,0,1-1.35.4,2.32,2.32,0,0,1-2.82-1.62A2.42,2.42,0,0,1,104,133a4.62,4.62,0,0,1,1.92-4.48,7.6,7.6,0,0,1,7.87-1A15.18,15.18,0,0,1,118,130.38Z"/><path class="cls-19" d="M118,193.73a18.7,18.7,0,0,1-.61,4.64,6.55,6.55,0,0,1-.62,1.53,2.89,2.89,0,0,1-2.92,1.55,2.75,2.75,0,0,1-2.35-1.75,8.75,8.75,0,0,1-.94-3.16,2.21,2.21,0,0,0-.29-1.15,2.48,2.48,0,0,1-.43-1.71c0-1.8,0-3.6,0-5.39a1.67,1.67,0,0,1,.38-1.25c.34-1.14.33-2.35.75-3.48.52-1.38.91-1.66,2.56-1.41A4.42,4.42,0,0,1,117,185.1a8.22,8.22,0,0,0,.62,1.65,1.51,1.51,0,0,1,.37.68A12.23,12.23,0,0,1,118,193.73Z"/><path class="cls-13" d="M104.35,196.16a27.59,27.59,0,0,0,0,3.15,8,8,0,0,1-.06,1.1.85.85,0,0,1-.91.69.74.74,0,0,1-.79-.68.61.61,0,0,1,0-.14v-3.86c.13-2.41.1-4.83,0-7.25a9.24,9.24,0,0,0,0-2.23,27.45,27.45,0,0,0-.47-5.72c-.25-1.48.19-2,1.7-1.77A4.16,4.16,0,0,1,107.1,182a8.06,8.06,0,0,1,.41,5c.26.45,0,.83-.16,1.26a7.28,7.28,0,0,1-2.29,2.87c-.85.61-.66,1.53-.57,2.38S105,195.31,104.35,196.16Z"/><path class="cls-19" d="M123.94,182.44a10.4,10.4,0,0,1,1.12.15.69.69,0,0,1,.5.84.71.71,0,0,1-.5.48,2,2,0,0,1-1.1.1c-.59-.11-.85.13-.76.78.23,2.25.24,4.5.46,6.74.25,2.49.36,5,.52,7.57a4.41,4.41,0,0,1,0,1,.91.91,0,0,1-.86.77c-.55,0-.69-.38-.75-.83a2.81,2.81,0,0,1,0-.41,52.9,52.9,0,0,0-.33-6.89,43.42,43.42,0,0,0-.43-6c-.32-.22-.25-.5-.08-.77,0-.13,0-.28.06-.41,0-1.49,0-1.5-1.46-1.8-.5-.11-1-.28-1-.83s.63-.65,1.12-.63a13.5,13.5,0,0,1,2.1.16A4,4,0,0,0,123.94,182.44Z"/><path class="cls-18" d="M134,162.78c-.16-.83-.9-1.29-1.39-1.85a76.86,76.86,0,0,1-7.14-10.2,12,12,0,0,1-1.75-3.11,42,42,0,0,1,3,3.65c2.41,2.9,5.05,5.51,8.69,6.95v4c0,.45.12.94-.36,1.27C134.58,163.41,134.37,163,134,162.78Z"/><path class="cls-20" d="M121.71,185.91l.07.77-.61.83a3.7,3.7,0,0,1-2.08.59,1.05,1.05,0,0,1-1.28-.74s0-.06,0-.08l-.06-.56A19.26,19.26,0,0,0,121.71,185.91Z"/><path class="cls-21" d="M107.2,188.07a3.15,3.15,0,0,1,.36-1.07h2.75a1.73,1.73,0,0,1,0,1.1,2.19,2.19,0,0,1-2.45.83C107.38,188.9,106.91,188.76,107.2,188.07Z"/><path class="cls-11" d="M116.16,96.11c-.19.53-.65.77-1,1.11-1.09,1-2.15,2.08-3.26,3.09a1.32,1.32,0,0,0-.3,1.4c.29,1.65.58,3.25.86,4.89a.62.62,0,0,1-.15.63,41.65,41.65,0,0,1-3.82-2,3.27,3.27,0,0,0-4,0,32,32,0,0,1-3.65,1.85,1.21,1.21,0,0,1-.38,0,7.86,7.86,0,0,1,.29-2.49,17.76,17.76,0,0,1,.55-3,1.27,1.27,0,0,0-.49-1.43c-1.13-1.07-2.23-2.15-3.33-3.24-.25-.25-.62-.43-.66-.92a11.75,11.75,0,0,1,2.45-.43,8.08,8.08,0,0,1,2.24-.31,2.63,2.63,0,0,0,2.72-1.93,34,34,0,0,1,1.63-3.18c.16-.32.23-.72.71-.9.78,1.51,1.63,3,2.33,4.55A2.28,2.28,0,0,0,111,95.29c1.6.13,3.19.4,4.77.63C115.91,95.9,116,96,116.16,96.11Z"/><path class="cls-22" d="M115.42,227.6q.21-9,0-18.11a6.73,6.73,0,0,1,0-1.1,1,1,0,0,1,.86-.83,1,1,0,0,1,1.06.52,3.32,3.32,0,0,1,.34,1.61c.09,2.39-.14,4.78-.21,7.17v1a.65.65,0,0,0,.61.69h1.81c.57,0,1-.3.85-.91-.39-2-.08-4-.42-5.91a18.33,18.33,0,0,1-.12-3.31,1.13,1.13,0,0,1,1-1.2,1.38,1.38,0,0,1,.35,0c.67.12.85.5.85,1.17,0,2.26,0,4.51.07,6.78.08,2.8.22,5.6.34,8.4.07,1.89.15,3.77.22,5.65v.55a1.09,1.09,0,0,1-1.07,1.09c-.6.08-.85-.3-1-.74a8.63,8.63,0,0,1-.46-2.57c0-.83-.1-1.75-.15-2.62-.56-1-.22-2.15-.31-3.23,0-.54,0-1.14-.74-1.3s-1.32-.1-1.28.88,0,2.1,0,3.15a3.63,3.63,0,0,1-.36,1.86v2.76a5.75,5.75,0,0,1,0,.83,1,1,0,0,1-1.86.25A11.41,11.41,0,0,1,115.42,227.6Z"/><path class="cls-19" d="M105.26,204.68a8.21,8.21,0,0,1,3.56-.74,2.94,2.94,0,0,1,1.82.63c.54.43.79,1.17.49,1.57a1.28,1.28,0,0,1-1.52.41,5.06,5.06,0,0,0-1.48-.44,1.33,1.33,0,0,0-.93.21c-1.71,1.27-1.93,3.05-1.88,5a43.38,43.38,0,0,1-.19,5,31.47,31.47,0,0,0,.68,8.92,4.46,4.46,0,0,0,3.41,3.88,4.4,4.4,0,0,0,1.46-.75c1-.53,1.39-.47,2.25.47a3.33,3.33,0,0,1-3.08,2.59c-2,.31-3.77.08-5-1.66a11.59,11.59,0,0,1-1.58-4.24,21.52,21.52,0,0,1-.49-4.23,81.83,81.83,0,0,1,.12-10.62,5.06,5.06,0,0,0,0-1.1A4.58,4.58,0,0,1,105.26,204.68Z"/><path class="cls-19" d="M128,222c.14-2.48-.34-5-.23-7.46a10.86,10.86,0,0,1,.17-2.48,3.88,3.88,0,0,0-.13-1.66c-.09-.5-.27-.74-.8-.7a.75.75,0,0,1-.9-.55.41.41,0,0,1,0-.11c-.08-.49.25-.75.63-1a5,5,0,0,1,1.61-.49,8.77,8.77,0,0,1,2.4-.15.92.92,0,0,1,1,.83.2.2,0,0,1,0,.11.94.94,0,0,1-.82,1.05h0c-1.14.21-1.11.22-1.16,1.33-.11,3.59.26,7.17.39,10.77a17.7,17.7,0,0,0,.24,1.78c0,1.74.35,3.45.23,5.21a8.9,8.9,0,0,1,1.35.17,1.27,1.27,0,0,1,.85,1.16c0,.49-.48.65-.85.82a1.91,1.91,0,0,1-.85.14h-3.12a3,3,0,0,1-1.49-.38.78.78,0,0,1-.41-.83.84.84,0,0,1,.75-.72h.57c1-.08,1.21-.34,1.13-1.29Z"/><path class="cls-23" d="M117.81,226.32c-.23-2.15,0-4.29-.11-6.45.85.06,1.56.12,2.25.14a.6.6,0,0,1,.68.51.54.54,0,0,1,0,.18,26.35,26.35,0,0,1-.14,4.26Z"/><path class="cls-9" d="M109.18,229.05a2.09,2.09,0,0,1-2.37-.83,6.07,6.07,0,0,1-1.28-2.48,23.32,23.32,0,0,1-.67-4.22,30.21,30.21,0,0,1-.12-5.38,27,27,0,0,0,.21-4.4,11.51,11.51,0,0,1,.06-2.49c.19-1.32.44-2.7,2.19-3l4.66,4.41a.89.89,0,0,1,.31,1Q111,218,109.93,224.38A40.9,40.9,0,0,0,109.18,229.05Z"/><path class="cls-12" d="M130.28,182.4c.7-.7,1.45-.27,2.19-.09a63.55,63.55,0,0,0,.75,6.33c.4,3.42.47,6.88,1.19,10.26a9,9,0,0,1,.17,1.38c0,.53-.15.88-.79.88s-.93-.11-1-.72c-.07-.83-.17-1.66-.28-2.48-.12-1-.24-1.14-1.3-1.26-1.61-.2-1.61-.2-1.92,1.34-.14.72-.24,1.46-.45,2.16s-.64,1.05-1.19.83a1,1,0,0,1-.58-1.32c.75-2.75,1.38-5.54,1.9-8.35a60.86,60.86,0,0,0,1.06-7.23A17.12,17.12,0,0,1,130.28,182.4Z"/><path class="cls-14" d="M107.2,188.07a.61.61,0,0,0,.64.58h0a5,5,0,0,0,2.45-.55v7.25l-6,.82c-.08-1.31-.17-2.63-.25-3.95a1.19,1.19,0,0,1,.67-1.35C106,190.27,106.53,189.11,107.2,188.07Z"/><path class="cls-24" d="M135.39,192.55V185c0-.48-.18-1,.32-1.4H136c1.7.14,1.64.14,1.7,1.85.15,2.77.36,5.54.53,8.28,0,.23,0,.45,0,.68h-.28a2.16,2.16,0,0,1-2.52-1.71Z"/><path class="cls-25" d="M117.79,187.28a1.4,1.4,0,0,0,1.7.46,5.17,5.17,0,0,1,1.66-.19,46.58,46.58,0,0,1-3.14,6.18C117.89,191.58,118.12,189.41,117.79,187.28Z"/><path class="cls-26" d="M138.31,209.9c1.4.26,1.77.58,1.87,1.86a13.74,13.74,0,0,1-.5,5.06c-.25.83-.41,1-1.37,1.6Z"/><path class="cls-27" d="M146,195.63a30.54,30.54,0,0,1-.11-7.15,20,20,0,0,1,0-3c.18-.78.32-1.59,1.26-1.83a2.35,2.35,0,0,1,2.14,1.35,2.92,2.92,0,0,1,.31,1.33c0,1.85.23,3.67.33,5.51a13.1,13.1,0,0,1-.25,4.37A4.31,4.31,0,0,1,146,195.63Z"/><path class="cls-28" d="M146,195.63l3.72.58a5.72,5.72,0,0,1-.59,2.66,3,3,0,0,1-.49.83c-.66.73-1.33.66-1.77-.21a6.17,6.17,0,0,1-.48-1.43A10.1,10.1,0,0,1,146,195.63Z"/><path class="cls-29" d="M112.18,195.07a25.26,25.26,0,0,1-.08-5.07c.28-.56-.12-1.22.28-1.76a5.29,5.29,0,0,1,3.24-.32c.49.31.11.83.39,1.24a26.5,26.5,0,0,1,.21,5.34A4.88,4.88,0,0,1,112.18,195.07Z"/><path class="cls-23" d="M112.18,195.07l4-.57a14.76,14.76,0,0,1-.61,3.9,1,1,0,0,1-.14.38c-.27.67-.7,1.36-1.42,1.37s-1-.78-1.23-1.45A22.25,22.25,0,0,1,112.18,195.07Z"/><path class="cls-30" d="M116,189.16c-.37-.29-.19-.7-.25-1.06-1.32-1.16-2.43-1.07-3.41.28-.12.53.17,1.12-.24,1.65a19.4,19.4,0,0,1,.2-4.93c.12-.6.3-1.19,1-1.36a1.84,1.84,0,0,1,1.87.7,3.38,3.38,0,0,1,.85,2.15C116.05,187.42,116,188.29,116,189.16Z"/><path class="cls-30" d="M104.08,187c-.22-1.84-.28-3.7-.32-5.64,2.37,1.28,3,3.08,2,5.68A1.27,1.27,0,0,1,104.08,187Z"/><path class="cls-31" d="M104.08,187h1.7a4.28,4.28,0,0,1-1.5,2.4A4.78,4.78,0,0,1,104.08,187Z"/><path class="cls-32" d="M131.41,187c.22,2,.51,4.09.58,6.15v1.24c0,1.24-.28,1.45-1.49,1.15-.6-.15-.86-.4-.68-1.08.48-2.48.85-5,1.3-7.46C131.24,186.86,131.32,186.86,131.41,187Z"/><path class="cls-33" d="M131.41,187h-.26c0-.14-.09-.34.17-.34A1,1,0,0,1,131.41,187Z"/><path class="cls-34" d="M112.34,188.38c0-1.36,0-1.36,1.3-1.38h1.12c.94,0,.94,0,1,1.1C114.57,187.93,113.5,188.51,112.34,188.38Z"/><rect class="cls-35" width="250" height="250"/></svg>