<svg id="Layer_1" data-name="Layer 1" xmlns="http://www.w3.org/2000/svg" viewBox="0 0 250 250"><defs><style>.cls-1{fill:#d99c36;}.cls-2{fill:#c3861d;}.cls-3{fill:#eabc6f;}.cls-4{fill:#ce9023;}.cls-5{fill:#ce8f23;}.cls-6{fill:#d7bc8c;}.cls-7{fill:#dcd8cf;}.cls-8{fill:#d59221;}.cls-9{fill:#c6c2b9;}.cls-10{fill:#c38417;}.cls-11{fill:#c49442;}.cls-12{fill:#cd8711;}.cls-13{fill:#c3800c;}.cls-14{fill:#fefefd;}.cls-15{fill:#dcd8ce;}.cls-16{fill:#c6c6c3;}.cls-17{fill:#dddddc;}.cls-18{fill:#d7992f;}.cls-19{fill:#dedfdf;}.cls-20{fill:#c7c8c9;}.cls-21{fill:#c4a369;}.cls-22{fill:#d4b477;}.cls-23{fill:#803a0e;}.cls-24{fill:#ce8814;}.cls-25{fill:#c3800f;}.cls-26{fill:#d79223;}.cls-27{fill:#955302;}.cls-28{fill:#af5607;}.cls-29{fill:#fefefe;}.cls-30{fill:#dea138;}.cls-31{fill:#dfa339;}.cls-32{fill:#f5e4c8;}.cls-33{fill:#f4e4c8;}.cls-34{fill:#ebcb95;}.cls-35{fill:#ebcb97;}.cls-36{fill:#9a550e;}.cls-37{fill:#c87818;}.cls-38{fill:#490b0e;}.cls-39{fill:#64220e;}.cls-40{fill:#5c1c0e;}.cls-41{fill:#b7740d;}.cls-42{fill:#521900;}.cls-43{fill:#7b3d04;}.cls-44{fill:#7a3b02;}.cls-45{fill:#612602;}.cls-46{fill:#722f00;}.cls-47{fill:#7e3803;}.cls-48{fill:#974907;}.cls-49{fill:#db9f37;}.cls-50{fill:none;}</style></defs><title>products</title><path class="cls-1" d="M201.56,50.73h2.63c.5,0,.78.11.71.57a2.44,2.44,0,0,0,0,.54V249c0,.32.16.67-.16.94-.42-.4-.3-.88-.3-1.34V194.08a17.81,17.81,0,0,0,0-1.79c-.05-.59,0-1.14,0-1.71V112.21a21.74,21.74,0,0,1,.13-3.7,34.6,34.6,0,0,1-1.19,4.87c-1.22,4.3-2.57,8.55-4.11,12.78-.11.32-.17.67-.54.87-.4-.09-.38-.37-.41-.63s0-.72,0-1.08V57.7c0-.43.16-.89-.2-1.28a2.42,2.42,0,0,0-1.27-.17H45.41c-.51,0-1.07-.14-1.5.24s-.16.87-.16,1.3V205.14a10,10,0,0,1,0,1.55c-.13.4-.42.37-.77.2-1.88-.89-3.73-1.84-5.51-2.82-.24-.14-.42-.3-.4-.58V176.2c0-3.84.1-7.68.12-11.52,0-4.14.17-8.29.28-12.43.1-3.93.23-7.88.37-11.81s.25-8.14.37-12.24.24-8,.38-12L39,105.05c.14-4,.25-8,.4-12,.09-2,0-4.1.15-6.14.2-4,.26-8,.4-12,.12-3.7.22-7.41.38-11.11.12-2.9.06-5.81.35-8.7.07-.8.27-.94,1.29-1C44.1,54,46.28,54,48.46,54c4.07,0,8.16-.16,12.24-.22,4.73-.08,9.47-.2,14.19-.33,2.06-.06,4.11-.07,6.16-.12,5.13-.11,10.26-.24,15.33-.33,4.27-.09,8.46-.21,12.7-.31l15.07-.32,13.07-.3L151,51.71l13.67-.31c4.86-.1,9.72-.18,14.53-.32,3.7-.1,7.41-.13,11.11-.17s7.11-.14,10.66-.09A1,1,0,0,0,201.56,50.73Z"/><path class="cls-2" d="M204.72,192.23v57.71c-.34,0-.68.06-1,.06H37.11a1.64,1.64,0,0,1-.08-.85V224.6c.1-.64.57-.29.85-.16,1.06.46,2.1.94,3.15,1.45.62.3,1.24.58,1.87.84.33.14.69.27.8.6a4.52,4.52,0,0,1,.08,1.32v15.64a.56.56,0,0,0,.16.24,4.17,4.17,0,0,0,1.57.1H196a6.37,6.37,0,0,0,2-.09l.11-.11.09-.12a3.54,3.54,0,0,0,.08-1.17v-43a1.13,1.13,0,0,1,0-.26,15.2,15.2,0,0,1,2-2.34c1.25-1.56,2.47-3.13,3.63-4.75C204.13,192.58,204.23,192.19,204.72,192.23Z"/><path class="cls-3" d="M37.12,224.28V250c-.39-.3-.18-.69-.18-1V51.85c0-1.26-.19-1.13,1.32-1.13h163.3c-.18.18-.45.14-.69.15-4.07.05-8.16.05-12.23.18-2.67.09-5.36,0-8,.17-2.16.13-4.28.05-6.44.13-5,.19-10,.22-15,.35-2.21,0-4.42,0-6.62.12-4.44.18-8.89.22-13.33.33s-9,.19-13.43.33c-2.43.06-4.86,0-7.27.14s-4.94,0-7.38.16c-2.24.16-4.48,0-6.72.13-4.43.19-8.89.22-13.33.34-2.21.06-4.42,0-6.62.14-2.7.2-5.41,0-8.11.14-4.48.18-9,.23-13.43.33l-14.84.33c-2.14.05-4.27.07-6.43.1-.6,0-.79.15-.82.67-.13,2.33-.09,4.71-.19,7-.17,3.91-.25,7.82-.4,11.72-.06,1.89,0,3.77-.17,5.59s0,3.84-.19,5.74c-.23,2.23,0,4.46-.18,6.67-.2,2,0,4.09-.19,6.14-.19,1.88,0,3.76-.19,5.58s0,3.84-.18,5.74,0,3.84-.19,5.74,0,3.89-.19,5.82,0,3.89-.17,5.82c-.24,2.26-.06,4.51-.18,6.75-.22,3.88-.26,7.77-.4,11.65-.14,4.26-.25,8.54-.39,12.8-.07,1.88,0,3.83-.15,5.74-.68,13.42-.23,26.86-.35,40.28a1.27,1.27,0,0,1,.29,1v18.49C37.41,223.64,37.47,224,37.12,224.28Z"/><path class="cls-4" d="M204.72,192.23a14.13,14.13,0,0,0-1.63,2.13,38.69,38.69,0,0,1-4.52,5.33c-.4-.38-.25-.84-.25-1.26V129q0-.66,0-1.32a.83.83,0,0,1,.42-.65l2.07-6.26c1.27-3.77,2.37-7.65,3.42-11.51.11-.45.27-.94.41-1.35.25.17.13.37.13.54v83.19A4.44,4.44,0,0,0,204.72,192.23Z"/><path class="cls-5" d="M37.12,224.28V203.74l4.56,2.32a8.92,8.92,0,0,1,1.78.94l.13.12a1.66,1.66,0,0,1,.15,1V226c0,.37.12.79-.29,1.1a52.36,52.36,0,0,1-5.27-2.32Z"/><path class="cls-6" d="M43.55,56.19c.33-.31.76-.15,1.14-.15H197.26c.38,0,.81-.12,1.15.17a2.14,2.14,0,0,1,.06.94v68.94a8.18,8.18,0,0,1,0,1.4V243.63a1.61,1.61,0,0,1-.09.94h0a.23.23,0,0,1-.3-.11,2.77,2.77,0,0,1-.12-1.31V200.47a.81.81,0,0,1,0-.31V128.79a9.69,9.69,0,0,1,0-1.32V58c0-1.48,0-1.48-1.81-1.48H45.78a9.19,9.19,0,0,1-2-.07A1,1,0,0,1,43.55,56.19Z"/><path class="cls-7" d="M43.55,56.19h.16A1,1,0,0,1,44,57V205.15a3.59,3.59,0,0,1-.16,1.69.37.37,0,0,1-.3.16h0V57.13A3.69,3.69,0,0,1,43.55,56.19Z"/><path class="cls-8" d="M198.43,127.48V56.2c.31.29.15.64.15.94V126c0,.33-.15.68.18.94l-.19.47a.08.08,0,0,1-.09.08Z"/><path class="cls-9" d="M43.55,207h.15l.12.11a2.39,2.39,0,0,1,.18,1.3V225.8a1.68,1.68,0,0,0,1,1.82.78.78,0,0,1,.17.26,5,5,0,0,1,.07,1.16v12.72c0,.33-.1.68.15,1a.81.81,0,0,0,.31.1H194.1c2.33,0,2.11.14,2.11-1.78V203.61a14.77,14.77,0,0,0,0-1.63,13.53,13.53,0,0,1,0-1.56V137.05c0-1.32,0-2.64.06-4a.65.65,0,0,1,.26-.56c.44.09.41.41.45.69a8.34,8.34,0,0,1,0,1v65.72a1.71,1.71,0,0,0,.07.84c.39,0,.53-.48,1-.36a2.71,2.71,0,0,1,.05.85v42.17c0,1.07,0,1.07-1.29,1.09H43.8a.67.67,0,0,1-.34-.09v-30.9Z"/><path class="cls-10" d="M198.38,244.66a.63.63,0,0,1-.55.24c-51.07-.16-102.13,0-153.2-.08-.39,0-.81.13-1.16-.15a2.7,2.7,0,0,1,1.19-.15H197.2A2.78,2.78,0,0,1,198.38,244.66Z"/><path class="cls-11" d="M198.38,244.66H43.47v-.18h.18a4.67,4.67,0,0,1,1.12,0h152.4a3.18,3.18,0,0,1,1,.05h.17Z"/><path class="cls-12" d="M198.43,127.48h.14v72.37a.08.08,0,0,1-.13,0l0,0v-71A13.08,13.08,0,0,1,198.43,127.48Z"/><path class="cls-13" d="M198.42,199.85h.15v43.79c0,.3.16.63-.19.88v-44C198.38,200.32,198.4,200.11,198.42,199.85Z"/><path class="cls-14" d="M43.65,207V56.2H196.81c1.55,0,1.37-.15,1.37,1.1v69.87c0,.52,0,1,0,1.56a2.48,2.48,0,0,0-.21.94,11.49,11.49,0,0,1-.78,2.15c-.09.15-.19.36-.45.31s-.24-.22-.26-.38a6.4,6.4,0,0,1-.05-1.16V59.19c0-.43.19-.9-.24-1.26a2.83,2.83,0,0,0-1.12-.1H46.76a2.74,2.74,0,0,0-1.1.11c-.26.2-.23.47-.23.73V205.81a10,10,0,0,1,0,1.55.57.57,0,0,1-.17.28,1.54,1.54,0,0,1-1.58-.59Z"/><path class="cls-15" d="M196.54,57.6c.37.27.19.64.19.94v73.39h.14l1-2.63c.21,0,.26.1.26.24v69.63a2,2,0,0,0,.07.94v.17a.37.37,0,0,1-.17.16l-1.18,1.16c-.22-.29-.12-.6-.12-.88V133.57c0-.33.12-.68-.14-.95a.9.9,0,0,1-.31-.69c0-.27,0-.52,0-.77V59.05C196.26,58.55,196.09,58,196.54,57.6Z"/><path class="cls-16" d="M198,200.47l.17-.16V244.5H43.68a2,2,0,0,1,1.17-.12H197.21c.67.07.85-.2.85-.71v-7.24Z"/><path class="cls-17" d="M198.17,200.11c-.3-.29-.15-.65-.15-.94V130.31c0-.32.15-.68-.17-.94a.82.82,0,0,1,.34-.64v70.59C198.2,199.58,198.18,199.86,198.17,200.11Z"/><path class="cls-5" d="M196.54,133.08V202a11.06,11.06,0,0,1-2.57,2.83,77.84,77.84,0,0,1-9.48,7.59,105.31,105.31,0,0,1-11.91,7.13c-3.24,1.65-6.54,3.2-10,4.59a154.79,154.79,0,0,1-19.29,6.34q-9.26,2.37-18.8,3.86c-4.68.73-9.4,1.24-14.15,1.67a209.86,209.86,0,0,1-22,.76,104.15,104.15,0,0,1-17.79-1.61,163.49,163.49,0,0,1-17.74-4.37q-3.37-1-6.62-2.33c-.37-.15-.75-.28-.86-.65a3.75,3.75,0,0,1-.07-1V209a2.45,2.45,0,0,1,.12-1.08c.33-.36.69-.14,1,0a105.18,105.18,0,0,0,14.25,4.71,73.48,73.48,0,0,0,15.48,2.48c4.27.17,8.55.17,12.82.07a120.28,120.28,0,0,0,14.3-1.22,1.08,1.08,0,0,1,.85.43,7.83,7.83,0,0,0,5.25,1.89,25.78,25.78,0,0,0,7.45-.94,125.08,125.08,0,0,0,13.36-4.42c6.8-2.58,13.59-5.18,20.52-7.53,4.35-1.5,8.7-3,12.89-4.77a32.44,32.44,0,0,0,7-3.77c2.15-1.65,3.73-3.6,3.55-6.17a9.76,9.76,0,0,0-2.67-5.95c-.21-.23-.49-.42-.46-.75a68.34,68.34,0,0,0,9.11-13c3.88-7.28,7.17-14.76,10.44-22.25,1.89-4.31,3.76-8.63,5.36-13a1.4,1.4,0,0,1,.31-.56A.23.23,0,0,1,196.54,133.08Z"/><path class="cls-2" d="M45.53,228c3.1,1.15,6.19,2.3,9.41,3.2,4,1.13,8.06,2.24,12.2,3.06a93.2,93.2,0,0,0,9.73,1.65c2.46.21,4.93.38,7.41.53,3.92.22,7.84.11,11.76.1s8-.27,12-.57c3.42-.25,6.89-.6,10.33-1s7.07-.95,10.59-1.59c6.31-1.14,12.53-2.56,18.64-4.3,4.2-1.2,8.3-2.62,12.36-4.14A116.62,116.62,0,0,0,171,220.13,99.36,99.36,0,0,0,184.59,212c2.09-1.51,4.17-3,6.12-4.65s3.95-3.51,5.83-5.39v40.22c0,.65-.16.88-1,.88H45.35a.36.36,0,0,1-.12-.28V229.28a2.15,2.15,0,0,1,.14-1.15Z"/><path class="cls-18" d="M196.54,133.08h-.17a.92.92,0,0,1-.3-.79V59.66c0-1.54,0-1.54-1.82-1.54H47.82a14.11,14.11,0,0,1-2,0,1.05,1.05,0,0,1-.47-.21.2.2,0,0,1,0-.27H196.5v74.07a6.11,6.11,0,0,0,.05,1C196.54,132.77,196.54,132.93,196.54,133.08Z"/><path class="cls-7" d="M43.66,207a5.82,5.82,0,0,1,1.31.62,1.08,1.08,0,0,1,.26.94v18.17c0,.33.07.69-.26.94-1-.14-1.34-.56-1.33-1.44C43.68,219.88,43.66,213.43,43.66,207Z"/><path class="cls-19" d="M45,227.71V207.64h.19c.27.24.19.54.19.81V227.5a.94.94,0,0,1-.07.3.23.23,0,0,1-.29.07A1.32,1.32,0,0,1,45,227.71Z"/><path class="cls-20" d="M45,227.86h.16c.29.24.21.54.21.81v13.55a1.55,1.55,0,0,1-.18.94c-.3-.2-.19-.48-.19-.73C45,237.55,45,232.71,45,227.86Z"/><path class="cls-21" d="M45.17,243.12V227.85h0c.14,0,.22,0,.26.1s0,.19,0,.3v13.83a1.87,1.87,0,0,1-.06.85v.15Z"/><path class="cls-22" d="M45.33,227.86h-.16V58.56c0-.32-.17-.67.18-1v.15a2.73,2.73,0,0,1,.22,1.52v147.1a3.26,3.26,0,0,1-.13,1.39,3,3,0,0,0,0,.85V227C45.43,227.31,45.54,227.6,45.33,227.86Z"/><path class="cls-1" d="M45.53,57.9H195.15c.94,0,1.2.18,1.2.94v74.22a65.87,65.87,0,0,1-2.67,7c-1.12,2.77-2.34,5.51-3.54,8.25-2.8,6.36-5.69,12.69-8.84,18.93A67.78,67.78,0,0,1,173.74,179c-.65.82-1.32,1.63-2,2.45-.17.2-.28.47-.67.46a.88.88,0,0,1-.81-.3c-3.05-2.58-6.95-3.64-11.11-4.3a42.85,42.85,0,0,0-7-.33,2.33,2.33,0,0,1-1.35-.18c.19-.62.85-.26,1.28-.47,1.87-.16,3.74,0,5.61-.08a28.8,28.8,0,0,0,6.26-.75c3.42-.85,5.36-2.83,5.87-5.73.63-3.59-.71-6.75-3.14-9.64-2.8-3.34-6.62-5.65-10.86-7.58a59.14,59.14,0,0,0-18.56-4.76,64.26,64.26,0,0,0-25,2,31.42,31.42,0,0,0-12.22,6.39,11.91,11.91,0,0,0-4.33,8.55,5.86,5.86,0,0,0,2.27,5,2.53,2.53,0,0,1,.7.72c0,.57-.52.5-.91.56a80.75,80.75,0,0,0-8.49,1.88A55.34,55.34,0,0,0,71,181.59c-3.59,2.72-6.53,5.85-8,9.81a9.81,9.81,0,0,0,.09,7.7A6.24,6.24,0,0,0,67,202.34a19.77,19.77,0,0,0,8,.63c6.83-.51,13.32-2.14,19.93-3.47,3.2-.64,6.39-1.37,9.62-1.94.43-.07,1-.45,1.29.27a3.9,3.9,0,0,1-.68,1.17,17.78,17.78,0,0,0-3.15,7.09,10.1,10.1,0,0,0,1.17,7.25c.13.2.31.4.13.65a14.17,14.17,0,0,1-3.87.63c-3.37.4-6.76.64-10.15.76-3.55.12-7.1.08-10.66,0a63.94,63.94,0,0,1-12.41-1.25A123,123,0,0,1,48.51,209c-1-.39-2-.84-3-1.26l-.08-.15V58.88A1.92,1.92,0,0,1,45.53,57.9Z"/><path class="cls-23" d="M150.88,176.79a54.2,54.2,0,0,1,8.73.4c4.35.7,8.33,2,11.46,4.71a10.35,10.35,0,0,1,3.32,6.38c.29,2.77-1.28,4.91-3.66,6.67-3.55,2.6-7.82,4.2-12.1,5.78-7.51,2.78-15.15,5.3-22.6,8.17a171.47,171.47,0,0,1-18.87,6.59,28.47,28.47,0,0,1-7,1c-2.76,0-5.07-.65-6.76-2.54-2.56-3.91-2.08-7.86-.27-11.83a20.12,20.12,0,0,1,2.7-4.34,2,2,0,0,1,.61-1.17c4.85-5.65,11.23-9.9,18.42-13.35a78.63,78.63,0,0,1,7.47-3c.25-.09.52-.16.75-.25l1.45-.5a69.49,69.49,0,0,1,13.1-2.72c.8-.09,1.61-.1,2.41-.21A1.11,1.11,0,0,1,150.88,176.79Z"/><path class="cls-24" d="M45.33,227.86V207.79c.05-.07.1-.08.16,0h0V228h0c-.05.08-.11.07-.17,0Z"/><path class="cls-25" d="M45.36,228h.17v14.12c0,.27.13.57-.15.82Q45.36,235.49,45.36,228Z"/><path class="cls-26" d="M45.53,207.78h-.16v-150l.15.14Z"/><path class="cls-27" d="M98.66,170.43a6.35,6.35,0,0,1-3-6.4c.47-4.82,3.76-8.17,8.24-10.84,4.89-2.93,10.49-4.45,16.37-5.32a65.76,65.76,0,0,1,12.46-.6,63.31,63.31,0,0,1,23.5,5.22,29.81,29.81,0,0,1,10.86,7.68,12.18,12.18,0,0,1,3.23,8.34,6.84,6.84,0,0,1-2.72,5.65,12.33,12.33,0,0,1-5.69,2,65.35,65.35,0,0,1-9.69.3,80.24,80.24,0,0,1-9.55-.45c-2.75-.18-5.49-.42-8.24-.54a14.93,14.93,0,0,1-2.12-.22,9.32,9.32,0,0,0-2.11-.13h-.31a19,19,0,0,1-3.21-1.56A40.17,40.17,0,0,0,115,170.49a62.93,62.93,0,0,0-9.21-.3,56,56,0,0,0-5.93.5C99.39,170.75,98.94,170.83,98.66,170.43Z"/><path class="cls-28" d="M98.66,170.43a2.65,2.65,0,0,0,1.8,0,65.85,65.85,0,0,1,10.41-.43,46.52,46.52,0,0,1,9.6,1.25A31.06,31.06,0,0,1,128,174a8.84,8.84,0,0,0,1.9.94,13.81,13.81,0,0,1,4,3.63c.27.35.64.7.51,1.18l-1.32.46a17.33,17.33,0,0,1-2.39-1.82,27.31,27.31,0,0,0-8.79-3.85A49.7,49.7,0,0,0,112,173.1a68.76,68.76,0,0,0-21.52,2.47,61.26,61.26,0,0,0-12.73,5,34.83,34.83,0,0,0-11.86,9.55,15.34,15.34,0,0,0-2.41,4.54c.35-.18.45-.53.7-.79.41-.4.75-.84,1.2-1.22,4.7-4.22,10.56-7,16.8-9.24a103.77,103.77,0,0,1,18.72-4.81,89.27,89.27,0,0,1,18-1.18A39.39,39.39,0,0,1,130,179.28a7.73,7.73,0,0,0,1.31.51l.22.1c.26.16.55.27.8.44l.06.08a9.21,9.21,0,0,1-2.41.94,69,69,0,0,0-8.41,3.83,56.18,56.18,0,0,0-11,7.53,32.71,32.71,0,0,0-4.77,5.12c-.33-.43-.77-.14-1.12-.06-4.27.85-8.55,1.7-12.76,2.6s-8.36,1.8-12.62,2.37c-3.74.51-7.51.94-11.28.11s-5.37-3-5.82-5.79c-.73-4.63,1.35-8.53,4.68-12.05,4.94-5.25,11.48-8.64,18.8-11.2a70.6,70.6,0,0,1,12.58-3.07C98.45,170.71,98.64,170.68,98.66,170.43Z"/><path class="cls-23" d="M73.46,86c.11.24.32.26.48.31a6.8,6.8,0,0,1,5.22,5.64,10.16,10.16,0,0,1-.5,5.65c-1.27,3.21-4.67,5.34-8.75,5.48-2.86.1-5.72-.25-8.55-.14-1.83.07-3.66.08-5.5.19a1.27,1.27,0,0,1-1.35-.62,2.66,2.66,0,0,1,0-2.7c.22-.42.65-.49,1.16-.48,1.35,0,1.62-.18,1.86-1.27a5.88,5.88,0,0,0,.11-.94V76.39c0-1.61-.5-1.88-2.06-1.88a1.24,1.24,0,0,1-.62-.13,2.29,2.29,0,0,1-.14-3.49,1.29,1.29,0,0,1,.78-.2c3.77.21,7.54.12,11.31.06a12.53,12.53,0,0,1,6.67,1.37,7.54,7.54,0,0,1,3.88,6.18,11.15,11.15,0,0,1-.2,3.26A5.72,5.72,0,0,1,73.46,86Z"/><path class="cls-23" d="M83.72,75c-.13-.54-.65-.5-1.1-.47A1.38,1.38,0,0,1,81,73.46a3.18,3.18,0,0,1,0-1.62c.22-.85.65-1.12,1.71-1,3.49.27,7,.07,10.45,0a15.74,15.74,0,0,1,6.11.84,7.82,7.82,0,0,1,5.2,6.32,12.08,12.08,0,0,1-.43,6.45,8.32,8.32,0,0,1-5,4.83c-.94.39-.94.4-.17.94a9.32,9.32,0,0,1,4.19,7c0,.44.12.88.16,1.31.1.94.36,1.1,1.48.94,1.45-.22,2.08.19,2.12,1.44a2.47,2.47,0,0,1-.2,1.45,1.52,1.52,0,0,1-1.71.8,19.32,19.32,0,0,0-4.56,0c-1.51.19-2-.07-2-1.34a22.26,22.26,0,0,0-.75-6.4,7.75,7.75,0,0,0-2.42-3.56c-1.66-1.48-3.77-1.53-6-1.41-.37,0-.48.17-.47.44v7.86c0,.42.25.61.75.6s1.3,0,2,0a1.32,1.32,0,0,1,1.12.46,2.27,2.27,0,0,1-.1,2.92,1.36,1.36,0,0,1-1.12.47,49.41,49.41,0,0,0-9,0,1.12,1.12,0,0,1-1.23-.76,3.18,3.18,0,0,1-.16-1.88c.13-1,.5-1.2,1.71-1.18.35,0,.76.16,1-.17a1.44,1.44,0,0,1,0-.62V75.72A1.13,1.13,0,0,1,83.72,75Z"/><path class="cls-23" d="M111.36,86.76V76.09c0-1.35-.17-1.51-1.79-1.53a1.3,1.3,0,0,1-1.23-.7,2.36,2.36,0,0,1,.11-2.54c.31-.52.85-.54,1.43-.51,4.21.18,8.41.15,12.62.13,2.61,0,5.23-.09,7.84-.14h1.31c.86.06,1.3.38,1.27,1.15,0,1.09-.4,2.15-.49,3.23a17.59,17.59,0,0,0,0,4.35c.16,1.07-.22,1.64-1.51,1.81a6.48,6.48,0,0,1-1.76,0c-1.27-.16-1.63-.56-1.53-1.61a18.16,18.16,0,0,0,0-4.42c-.08-.56-.29-.81-1-.8h-9.54c-.64,0-.85.13-.85.69v8.47c0,.56.17.81.85.78h3.37c.74,0,1-.27,1-.85a13.5,13.5,0,0,0-.25-2c-.13-.54.13-.82.63-.94a5.48,5.48,0,0,1,3-.08,1,1,0,0,1,.85,1.19,32,32,0,0,0,0,9.06,1.21,1.21,0,0,1-.77,1.47l-.14,0a4.5,4.5,0,0,1-2.57,0c-.72-.22-1.15-.65-1-1.39s.19-1.26.25-1.89-.17-.78-.86-.77h-3.74c-.48,0-.66.13-.66.54v10c0,.46.22.55.72.55H127.3c.68,0,.8-.29.86-.7a14.39,14.39,0,0,0-.07-3.41c-.22-1.19-.05-1.6.81-1.93a4,4,0,0,1,3.59.46,1.09,1.09,0,0,1,.3.87,16.69,16.69,0,0,0,.4,6.41c.44,1.37-.3,2-2,2-4.51,0-9-.13-13.54-.14-2.65,0-5.29.1-7.94.16h-.18c-.86,0-1.52-.82-1.52-2s.52-1.88,1.47-1.79c1.71.16,1.71-.21,1.85-1.48a24.36,24.36,0,0,0,0-3Z"/><path class="cls-23" d="M165.28,75a1.07,1.07,0,0,0-1.22-.49,1.26,1.26,0,0,1-1.6-.93h0a3.15,3.15,0,0,1-.15-1.22c.1-1.28.55-1.62,2.06-1.53a74.89,74.89,0,0,0,10.16,0c6.22-.45,9.68,2.49,11.51,6.59a21.25,21.25,0,0,1,1.57,7.07,26.75,26.75,0,0,1-1,10.46,11.56,11.56,0,0,1-4.39,6.27,10.07,10.07,0,0,1-6,1.83c-3,0-6.1-.27-9.15-.14l-2.88.14a5.23,5.23,0,0,1-.56,0c-.86,0-1.34-.83-1.28-2s.49-1.73,1.43-1.75c.52,0,1.14.27,1.51-.29.06-7,0-14,0-20.93C165.27,77,165.27,76,165.28,75Z"/><path class="cls-23" d="M147.86,92.32h-3.17c-.38,0-.65.07-.74.43-.43,1.81-.91,3.6-1.32,5.41-.22,1-.06,1.1,1.17,1.12a1.59,1.59,0,0,1,1.6,1.59.61.61,0,0,1,0,.19c0,1.48-.61,2.08-2.37,2a49.65,49.65,0,0,0-6.9,0c-.8.06-1.27-.2-1.44-.81a3.51,3.51,0,0,1,0-2.22,1,1,0,0,1,1.23-.72,1.33,1.33,0,0,0,1.64-1v0c.66-2.5,1.33-5,2-7.53q1.95-7.58,3.9-15.17c.24-.94.11-1.1-1.07-1.1-.65,0-1.3.07-2,.1a1.42,1.42,0,0,1-1.46-.77,2.3,2.3,0,0,1,.14-2.54,1.21,1.21,0,0,1,1.25-.54,39.64,39.64,0,0,0,6.89,0c2.56-.07,4,1.12,4.5,3,2.12,8,4.18,16,6.24,24,.35,1.34.41,1.4,2.09,1.67a1.25,1.25,0,0,1,1,1,3.14,3.14,0,0,1,0,1.61c-.19.83-.66,1.19-1.66,1.12a52.43,52.43,0,0,0-5.32-.15c-1,0-2,.09-3,.17a1.46,1.46,0,0,1-1.59-.85,2.14,2.14,0,0,1,0-2.11,1.52,1.52,0,0,1,1.53-.82c1.71,0,2.2-.47,1.83-1.88s-.72-2.73-1-4.1c-.16-.7-.47-1-1.4-.94S148.77,92.32,147.86,92.32Z"/><path class="cls-29" d="M179.68,115l-16.06.38-27.93.7c-.85,0-1.71.08-2.61,0-2.39-.17-4.57.66-6.89.88a43.26,43.26,0,0,1-14.35-.69,23.93,23.93,0,0,0-4.93-.21q-10.44-.26-20.92-.48l-18.58-.45c-1.71,0-3.48-.1-5.23-.15a9,9,0,0,0-1.47,0c-.16,0-.39,0-.37-.21l16.24-.38,27.54-.69,6.63-.15a4.08,4.08,0,0,0,.92-.13,39.1,39.1,0,0,1,12.75-.94,41.79,41.79,0,0,1,6,.94,28,28,0,0,0,4.93.23c7.47.18,14.94.33,22.41.51l18.59.44,5.22.15c-.11.42-.5.16-.75.2A9.26,9.26,0,0,0,179.68,115Z"/><path class="cls-1" d="M134.4,179.76a13.17,13.17,0,0,0-4.16-4.36c-.17-.13-.33-.23-.31-.45h.16c.67.19,1.39,0,2.06.14,4.27.3,8.61.53,12.9.95,2.08.17,4.16.23,6.23.34a1.6,1.6,0,0,1,.86.14c-.34.36-.94,0-1.3.3a66.91,66.91,0,0,0-15.15,2.63C135.3,179.56,134.85,179.65,134.4,179.76Z"/><path class="cls-30" d="M165.28,75c.26.24.17.55.17.83V98.08a1.26,1.26,0,0,1-.2.94c-.28-.24-.16-.54-.16-.82V75.87C165.09,75.55,165,75.24,165.28,75Z"/><path class="cls-31" d="M83.72,75c0,.29,0,.57,0,.86V98.2c0,.31,0,.61-.06.94-.26-.24-.15-.54-.15-.82V75.87C83.52,75.56,83.4,75.26,83.72,75Z"/><path class="cls-32" d="M60.34,114.73c.56.33,1.28-.07,1.84.25a15.21,15.21,0,0,1-3.37-.11.06.06,0,0,1-.05-.1h.06Z"/><path class="cls-33" d="M179.68,115c.56-.32,1.28.08,1.84-.25H183a.06.06,0,0,1,.06.09s0,0-.05,0A15.12,15.12,0,0,1,179.68,115Z"/><path class="cls-34" d="M183,114.87a.33.33,0,0,0,0-.14h1.84A5.42,5.42,0,0,1,183,114.87Z"/><path class="cls-35" d="M58.82,114.72v.15a5,5,0,0,1-1.77-.15Z"/><path class="cls-36" d="M103.32,208.88l-.57.75a12.85,12.85,0,0,1,1.34-4.61,31.11,31.11,0,0,1,7-9.09,52.19,52.19,0,0,1,9.4-6.81,70.18,70.18,0,0,1,17.88-7.4,64.08,64.08,0,0,1,10.78-2,50,50,0,0,1,6.7-.27c5,.24,9.85,1,14,3.54.62.38,1.19.82,1.79,1.23.05,0,.07.13.14.25a9.89,9.89,0,0,0-1.47-.52,17,17,0,0,1-2-.48,47,47,0,0,0-13.31-1.08,73,73,0,0,0-16.66,3,77.41,77.41,0,0,0-22.71,10.76,44.94,44.94,0,0,0-11,10.76,4,4,0,0,0-.2.35C104.09,207.83,103.72,208.36,103.32,208.88Z"/><path class="cls-37" d="M63.49,194.71l-.43.49a12.06,12.06,0,0,1,1.1-2.82,27,27,0,0,1,8.54-9,56.38,56.38,0,0,1,16.35-7.62,70.76,70.76,0,0,1,13.25-2.61,59.12,59.12,0,0,1,8.09-.34c5.71.23,11.29,1,16.42,3.25a16.77,16.77,0,0,1,6.23,4.2,1.22,1.22,0,0,1-.74.16h0c-.29-.19-.66-.27-.94-.47h0c-.43-.2-.9-.35-1.32-.56a48.35,48.35,0,0,0-14.13-3.09,74.14,74.14,0,0,0-18.8,1.23A76.81,76.81,0,0,0,82,181.86a55.48,55.48,0,0,0-11.83,6.49,43.74,43.74,0,0,0-4.85,4.3,9.58,9.58,0,0,0-1.07,1.13C64,194,63.91,194.47,63.49,194.71Z"/><path class="cls-38" d="M104.23,207.29a24.36,24.36,0,0,1,4.4-5.55c6.18-6.18,13.94-10.65,22.58-14.12a80.82,80.82,0,0,1,19.18-5,55.81,55.81,0,0,1,9.84-.48,37,37,0,0,1,8.22,1.24c0,.27-.15.23-.35.14a37.78,37.78,0,0,0-5-.46,64.3,64.3,0,0,0-15.43,1.79,107.25,107.25,0,0,0-14.86,4.52,100.28,100.28,0,0,0-14.75,7,56.78,56.78,0,0,0-9.4,6.65,26.44,26.44,0,0,0-4.19,4.45C104.28,207.5,104.23,207.46,104.23,207.29Z"/><path class="cls-39" d="M168.08,183.51l.35-.14,1.9.6A5.31,5.31,0,0,1,168.08,183.51Z"/><path class="cls-40" d="M104.23,207.29l.21.17a4.29,4.29,0,0,1-1.14,1.42A5.73,5.73,0,0,1,104.23,207.29Z"/><path class="cls-41" d="M167.16,165a.5.5,0,0,0-.42-.43,36.75,36.75,0,0,1-3.2-2.1,50.67,50.67,0,0,0-15.2-6.34,72.59,72.59,0,0,0-14.11-2.21,81,81,0,0,0-8.95-.1,74.54,74.54,0,0,0-11.43,1.42,44.14,44.14,0,0,0-14.39,5.57c-.39.2-.68.49-1,.7a7.36,7.36,0,0,1-1.07.71c-.28-.44.17-.72.39-1a22.13,22.13,0,0,1,9-6.68,49.93,49.93,0,0,1,14.53-3.86,71.82,71.82,0,0,1,12.09-.39A64,64,0,0,1,152.45,154a37.49,37.49,0,0,1,12.38,7,15.63,15.63,0,0,1,4.32,5.82c-.54-.33-.63-.83-1.1-1.07A2.22,2.22,0,0,1,167.16,165Z"/><path class="cls-42" d="M99.23,160.79a33.31,33.31,0,0,1,9.73-4.54,64.5,64.5,0,0,1,16.5-2.68,78.17,78.17,0,0,1,25.33,3c6,1.74,11.45,4.19,16,8-.17.21-.32.05-.45,0-4.27-3-9.31-4.7-14.58-6.06A87.16,87.16,0,0,0,140,156.36c-2.3-.25-4.63-.41-6.95-.55-2.81-.17-5.61-.18-8.4-.1-7,.23-14,1-20.57,3.28a40.23,40.23,0,0,0-4.64,2C99.22,161,99.19,160.93,99.23,160.79Z"/><path class="cls-43" d="M97.4,162.18a2.78,2.78,0,0,1,.94-.77.27.27,0,0,1,.18.15C98.06,161.72,97.92,162.21,97.4,162.18Z"/><path class="cls-44" d="M167.16,165a3.36,3.36,0,0,1,.93.8C167.54,165.68,167.2,165.44,167.16,165Z"/><path class="cls-28" d="M132.15,175.09a6.2,6.2,0,0,1-2.06-.14A5.73,5.73,0,0,1,132.15,175.09Z"/><path class="cls-45" d="M98.48,161.52l-.18-.15.93-.62.19.15Z"/><path class="cls-46" d="M65.17,192.68a27.41,27.41,0,0,1,5.58-5,54.5,54.5,0,0,1,11-5.93,80,80,0,0,1,20.68-5.29,70,70,0,0,1,10-.57c6.2.16,12.25.94,17.82,3.41,0,.13,0,.21-.19.15a41.19,41.19,0,0,0-8.55-1.67,69.71,69.71,0,0,0-10.32-.1c-2.73.17-5.43.43-8.12.79a96.72,96.72,0,0,0-9.8,1.83,92.86,92.86,0,0,0-15.56,5,44.65,44.65,0,0,0-11.82,7.09c-.18.15-.37.28-.56.41S65.11,192.83,65.17,192.68Z"/><path class="cls-47" d="M65.17,192.68l.2.17c-.39.35-.61.82-1.13,1.1-.06,0-.07-.08-.07-.12s0-.07.06-.07A3.61,3.61,0,0,1,65.17,192.68Z"/><path class="cls-23" d="M130.09,179.47l.19-.16a2.32,2.32,0,0,1,1.13.61A2.21,2.21,0,0,1,130.09,179.47Z"/><path class="cls-48" d="M64.23,193.76V194c-.19.3-.18.73-.76.76C63.73,194.39,63.82,194,64.23,193.76Z"/><path class="cls-23" d="M131.41,179.92a1.34,1.34,0,0,1,.94.47A1.2,1.2,0,0,1,131.41,179.92Z"/><path class="cls-1" d="M67.05,88.39a10.6,10.6,0,0,1,4.08.73A4.3,4.3,0,0,1,74,92.25c.75,3.42-.78,6-4.66,6.94a5.73,5.73,0,0,1-1.49.1H62.76c-.15-.18-.09-.4-.09-.6V89.28c0-.66.27-.81,1-.84A20,20,0,0,0,67.05,88.39Z"/><path class="cls-1" d="M65.65,74.55a22.63,22.63,0,0,1,2.73.08c2.06.32,3.42,1.3,3.78,3a5.62,5.62,0,0,1-.93,5.07,5,5,0,0,1-3.86,1.77c-1.37.05-2.73,0-4.1,0-.6,0-.74-.18-.73-.64v-8.7c0-.53.23-.67.81-.64S64.78,74.55,65.65,74.55Z"/><path class="cls-49" d="M67.05,88.39a9.55,9.55,0,0,1-3.11.15c-1.19,0-1.19,0-1.19,1v9.71c-.33-.16-.19-.42-.19-.64V89c0-.59.18-.79.85-.75C64.63,88.34,65.84,88.35,67.05,88.39Z"/><path class="cls-1" d="M88.73,80.63V75.26c0-.6.22-.75.91-.72h3.73c3.42,0,5.35,1.33,6,4.12A7.69,7.69,0,0,1,99,83.47c-.79,1.88-2.56,2.91-4.88,3.09-1.4.1-2.8,0-4.19.11-.85,0-1.19-.15-1.16-.94C88.77,84.05,88.73,82.33,88.73,80.63Z"/><path class="cls-1" d="M170.34,86.93V75.41c0-.65.15-.94,1-.88a23.38,23.38,0,0,0,2.9,0,6.35,6.35,0,0,1,6.16,3.07,13.15,13.15,0,0,1,2.05,6,23.36,23.36,0,0,1-.55,9.27A9.49,9.49,0,0,1,178.79,98,5.82,5.82,0,0,1,175,99.28h-3.83c-.67,0-.85-.18-.85-.71C170.35,94.69,170.34,90.81,170.34,86.93Z"/><path class="cls-1" d="M148,78.22c.71,2.75,1.43,5.5,2.14,8.24a.43.43,0,0,1,0,.16c.14.62.75,1.4.31,1.81s-1.48.11-2.25.12-1.62,0-2.43,0c-.55,0-.69-.11-.56-.57l2.56-9.77Z"/><rect class="cls-50" width="250" height="250"/></svg>