<svg id="Layer_1" data-name="Layer 1" xmlns="http://www.w3.org/2000/svg" viewBox="0 0 250 250"><defs><style>.cls-1{fill:#a1b534;}.cls-2{fill:#889c21;}.cls-3{fill:#6b7912;}.cls-4{fill:#9fcfc9;}.cls-5{fill:#89b9b3;}.cls-6{fill:#c1e4e0;}.cls-7{fill:#60700e;}.cls-8{fill:#b0d6d3;}.cls-9{fill:#c1ce79;}.cls-10{fill:#fefffd;}.cls-11{fill:#8d961d;}.cls-12{fill:#f5c20a;}.cls-13{fill:#f6d042;}.cls-14{isolation:isolate;}.cls-15{fill:#fff;}.cls-16{fill:none;}</style></defs><title>products</title><path class="cls-1" d="M98.45,249.87a49.23,49.23,0,0,0,6,.07h53.95a24.4,24.4,0,0,0,5.12-.33c6.42-1.35,10.59-5.58,10.59-10.92V136.37a9.23,9.23,0,0,0-1.8-5.66,72.82,72.82,0,0,0-6-7.24,7,7,0,0,0-3.38-.49h-64a10,10,0,0,0-2.94.25c-4.38,4.23-8.44,8.5-8.23,14.43.27,7.31.06,14.63.08,21.94,0,1-.19,2.11.51,3.1a1.67,1.67,0,0,0,1.46.36c4.06-.53,8.12-.63,12.1-1.79a64.5,64.5,0,0,1,38,.46,17.71,17.71,0,0,0,5,.89,22.17,22.17,0,0,1,7.85,1.35c.78.32,1.63.68,2.46,0a5,5,0,0,0,.53-3.09c0-7.32-.06-14.63,0-21.94a14.28,14.28,0,0,0-2.1-8.18c-.55-.87-1.23-1.83,0-2.71a4.63,4.63,0,0,1,4.3-.44,7.16,7.16,0,0,1,3.57,2.8,11.75,11.75,0,0,1,2.25,7.08q.06,45.78,0,91.54a6.3,6.3,0,0,1-.82,3.5,3.9,3.9,0,0,1-4,1.72,3.16,3.16,0,0,1-3.16-2.49,13.13,13.13,0,0,1-.14-2.73V191.69a5.75,5.75,0,0,0-.48-3.31c-.9-.82-1.84-.33-2.68,0a13.74,13.74,0,0,1-5.17,1.14c-3.73-.05-7,1.1-10.41,1.93a67.3,67.3,0,0,1-37.09-1,26.46,26.46,0,0,0-11.5-.83,4.73,4.73,0,0,0-.5,2.89v44.64a17.11,17.11,0,0,0,.44,3.77C89.25,245.58,91.74,249.19,98.45,249.87Z"/><path class="cls-2" d="M98.45,249.87c-.92-.75-2.29-.72-3.38-1.18a9.6,9.6,0,0,1-5.75-6.57,19,19,0,0,1-.72-5.41c.06-15.73,0-31.45,0-47.18-.15-.79-1-1.13-1.72-1.52a7.87,7.87,0,0,1-4.53-6.82c-.16-3.38-.16-6.73,0-10.09a7.85,7.85,0,0,1,4.54-6.81c.72-.4,1.57-.74,1.73-1.53,0-8.28.16-16.55-.07-24.83a14.17,14.17,0,0,1,3.94-10c1.19-1.35,2.78-2.6,3.21-4.32a4.61,4.61,0,0,0-3-.68H76.76a6.28,6.28,0,0,0-2.83.55c-1.81,2.18-3.65,4.35-5.41,6.55a10.32,10.32,0,0,0-2.29,6.82q.08,46.74,0,93.49c0,2.81.06,5.63.12,8.43a12.91,12.91,0,0,0,1.13,4.74c1.64,3.89,5.15,6.09,10.36,6.33,3.78.19,7.59.11,11.39.12C92.29,250,95.38,249.9,98.45,249.87Z"/><path class="cls-3" d="M163.56,107.14c.63,0,1.26,0,1.89-.12,3.72-.4,5.53-2,5.58-5V98.46c-.07-2.76-2.09-4.47-5.6-4.74-.71,0-1.44,0-2.16,0H77a6.51,6.51,0,0,0-3.16.28,3.82,3.82,0,0,0,2.74.68c4.14,0,8.28.14,12.54-.13.21-.06.14.46.07.18,0-.06-.07-.06-.19,0a2.82,2.82,0,0,0-2.63,2.53,18.07,18.07,0,0,0,0,6.31c.24,1.41.87,1.88,3.07,2.63-4.29-.13-8.17-.1-12-.07-1.23,0-2.56-.18-3.54.67.83.52,1.86.2,2.78.38a4.71,4.71,0,0,0,.91.42c7.32.48,14.66.15,22,.19,20.4.11,40.8,0,61.2,0a7.27,7.27,0,0,0,1.86-.21A4.37,4.37,0,0,0,163.56,107.14Z"/><path class="cls-4" d="M166.14,123.17a25.32,25.32,0,0,1-2.86-7,8.24,8.24,0,0,1-.19-2.71c-.68-1.45-2.32-1.11-3.65-1.12-7.76-.06-15.55,0-23.3,0H103.35a9.73,9.73,0,0,0-4.23.48c-1,2-.61,4.12-1.5,6.13-2,4.37-1.84,4.41,4,4.41h61.55A9.26,9.26,0,0,0,166.14,123.17Z"/><path class="cls-5" d="M166.14,123.17H96.67c.06-1.35,1.14-2.29,1.51-3.38a22.46,22.46,0,0,0,1.28-4.06,3.05,3.05,0,0,0-.53-2.65,2.09,2.09,0,0,0-.87-.46c-6.31-.46-12.62-.2-18.94-.14-.84,0-1.89.08-2,1,.34,2.86-.87,5.47-2.15,8.06a20.59,20.59,0,0,1-1,1.91l18.58,0c1.07,0,2.15,0,3.22.06l67.06,0c1.17,0,2.34-.06,3.51-.09A.39.39,0,0,0,166.14,123.17Z"/><path class="cls-6" d="M98.41,113a2.28,2.28,0,0,1,.52,0h61.63c.88,0,1.83-.18,2.53.46a13.63,13.63,0,0,0,1.57-.8c1.35-.91,1.56-2.18.08-3a2.18,2.18,0,0,1-1.19-2.54H163c-1.24,1.45-3.15,1.43-5.08,1.43H104.74c-1.54,0-3.07,0-4.61,0a11.87,11.87,0,0,0-1.44.2C95.58,110.28,95.5,111.52,98.41,113Z"/><path class="cls-7" d="M73.87,106.75H89.68A5.21,5.21,0,0,1,87,101.2a7.86,7.86,0,0,0,0-1.68A5.11,5.11,0,0,1,89.68,94H73.86c-3.12.6-4.49,1.82-4.57,4.19q-.09,2.2,0,4.41C69.37,104.94,70.71,106.13,73.87,106.75Z"/><path class="cls-8" d="M98.41,113a3.17,3.17,0,0,0-.29-.35c-1.77-1.68-1.76-1.76.3-3.39-1-.81-2.31-.67-3.54-.67q-6.73-.06-13.46,0a5.22,5.22,0,0,1-4.19-1.47h-.58c0,.81.34,1.56-.74,2.27-2.09,1.39-1.92,2.38.32,3.63l.9.46c.76-.67,1.81-.45,2.76-.46Z"/><path class="cls-9" d="M154.84,188.1v42.82c0,2.51,1.29,3.87,3.83,4.12,2.94.3,4.73-.76,5.63-3.27a5.4,5.4,0,0,0,.27-1.87q0-46.52,0-93a10.82,10.82,0,0,0-4.8-9.3,6.28,6.28,0,0,0-7.13,0c-.89.68-1.25,1.35-.56,2.23a13.31,13.31,0,0,1,1,1.5,11.39,11.39,0,0,1,1.84,6.09c-.08,8.93,0,17.86,0,26.79a.79.79,0,0,0,.13.81c3,3,3.11,6.45,2.94,10-.09,1.82-.05,3.64,0,5.46a8.5,8.5,0,0,1-2.1,5.76C155.32,186.78,154.65,187.31,154.84,188.1Z"/><path class="cls-10" d="M154.84,188.1a9.6,9.6,0,0,0,3.83-8.48,44.79,44.79,0,0,1,0-7,9.62,9.62,0,0,0-3.83-8.47,20.12,20.12,0,0,0-10.54-2.08,6,6,0,0,1-2.61-.41,48.61,48.61,0,0,0-16.34-3.38A72.51,72.51,0,0,0,106,159.49a34.51,34.51,0,0,0-6.82,2,8.13,8.13,0,0,1-3.61.68,27.52,27.52,0,0,0-7,.62c-3.38,1.36-5.84,3.28-6.68,6.25a7.08,7.08,0,0,0-.34,1.87c0,3.51-.1,7,0,10.53.11,3.82,2.75,6.41,7,8.12a25.13,25.13,0,0,0,6.41.61,9.94,9.94,0,0,1,4.41.77A48.08,48.08,0,0,0,114.51,194,70.88,70.88,0,0,0,136,192.5l.52-.11A32.12,32.12,0,0,1,148.88,190C151.13,190,152.91,188.84,154.84,188.1Z"/><path class="cls-11" d="M147.34,103.32h13.79a4.79,4.79,0,0,0,2.59-.39c1.27-.75,2.2-2.13,1.84-3.07a4,4,0,0,0-3.41-2.42,6.5,6.5,0,0,0-1.08,0H133.48a6,6,0,0,0-2.82.57c-1.28.67-2,1.92-1.77,2.86a4,4,0,0,0,3.57,2.47c1.6,0,3.25,0,4.87,0Z"/><path class="cls-4" d="M99.46,109.19l61.1,0c1.92,0,2.56.2,2.43-2.1-.63,0-1.26-.06-1.89-.06H101.38c-.63,0-1.25,0-1.88.06a1.26,1.26,0,0,0-.33,1.76A1,1,0,0,0,99.46,109.19Z"/><path class="cls-5" d="M99.46,109.19l0-2H77.23c0,1.87-.32,2.11,2.66,2.1H98.42Z"/><path class="cls-12" d="M83.67,176.08c0,1.76,0,3.52,0,5.28.09,3.93,3.74,7.1,8.79,7.14a30.69,30.69,0,0,1,10.09,1.76c6,2,12.4,2.38,18.86,2.3,6-.08,11.94-.62,17.4-2.67a19.79,19.79,0,0,1,8-1.35c5.48.2,10-3.34,9.8-7.52-.13-3.3,0-6.61,0-9.92-.1-4.4-3.92-7.4-9.62-7.38a23.59,23.59,0,0,1-8.28-1.4c-6.61-2.4-13.75-2.77-21-2.59-6.66.16-13.1,1-19,3.63a5.15,5.15,0,0,1-2.09.32c-1.45,0-2.9-.05-4.34,0-4.88.27-8.54,3.27-8.65,7.07C83.63,172.56,83.67,174.32,83.67,176.08Z"/><path class="cls-13" d="M107.54,173a1.27,1.27,0,0,0,.37,1.31,1.48,1.48,0,0,0,.22-1.35Z"/><g class="cls-14"><path class="cls-15" d="M101.62,171.8c0,.49,0,1.23,0,2.23s0,1.74,0,2.24c0,.13-.19.89-.57,2.27-.3,1.12-.52,1.92-.66,2.38-.25.86-.55,1.8-.89,2.81-.11.31-.26.77-.46,1.39,0,.2-.12.3-.19.3l-.85,0-.85,0c-.12,0-.31,0-.57,0l-.56,0c-.08,0-.15-.1-.21-.29-.32-1-.77-2.41-1.37-4.36a35.41,35.41,0,0,1-1.08-4.15c0-.52,0-1.3,0-2.34s0-1.83,0-2.35q0-.36.15-.36c.18,0,.45,0,.81,0l.81,0c.19,0,.46,0,.83,0s.64,0,.82,0,.1.07.1.21c0,.56,0,1.4-.07,2.52s-.07,2-.07,2.52a5.19,5.19,0,0,0,.23,1.27c.14.41.27.82.39,1.24a11.06,11.06,0,0,0,.4-1.37,11.53,11.53,0,0,0,.27-1.45c0-.34,0-.85,0-1.53,0-2,0-3,0-3.1,0-.21,0-.31.1-.31s.45,0,.82,0,.64,0,.83,0l.8,0c.36,0,.63,0,.81,0S101.62,171.64,101.62,171.8Z"/><path class="cls-15" d="M106.11,185.12q0,.3-.18.3c-.19,0-.46,0-.83,0s-.65,0-.84,0-.44,0-.79,0l-.8,0c-.14,0-.21-.1-.21-.29,0-.8,0-2,.07-3.63s.06-2.83.06-3.64,0-1.7-.06-3-.06-2.36-.06-3c0-.15,0-.22.15-.22s.48,0,.85,0l.86,0,.81,0c.36,0,.63,0,.8,0s.17.08.17.24c0,.67,0,1.67-.06,3s-.06,2.36-.06,3,0,2,.06,3.64S106.11,184.32,106.11,185.12Z"/><path class="cls-15" d="M116.25,171.82c0,.76,0,1.89-.08,3.4s-.07,2.64-.07,3.4v6.56c0,.15-.07.23-.22.23l-.64,0a6.13,6.13,0,0,0-.63,0c-.14,0-.36,0-.66,0l-.67,0c-.07,0-.16-.11-.26-.33a34.06,34.06,0,0,0-2.52-5c-.06,0-.09.09-.09.28,0,.52,0,1.29,0,2.32s0,1.8,0,2.31c0,.25-.07.37-.2.37l-.7,0c-.31,0-.54,0-.69,0s-.42,0-.76,0l-.75,0c-.14,0-.21-.1-.21-.29,0-.72,0-1.79.06-3.23s.06-2.52.06-3.23,0-1.88-.06-3.38-.06-2.61-.06-3.36q0-.21.27-.21a10.16,10.16,0,0,0,1.25-.17c.08,0,.31-.07.68-.17a2.7,2.7,0,0,1,.68-.12c.06,0,.15.14.27.43s.41.93,1,2.26q.5,1.11,1.56,3.24a1.76,1.76,0,0,0,.06-.65c0-.5,0-1.27-.08-2.29s-.08-1.79-.08-2.3c0-.25,0-.38.12-.38l.77,0,.77,0,.83,0,.83,0C116.21,171.56,116.25,171.65,116.25,171.82Z"/><path class="cls-15" d="M124.39,181.45a6.55,6.55,0,0,1-.08,1c-.08.56-.12.88-.13,1q0,.69-.21,2a.23.23,0,0,1-.24.23l-.18,0a14.92,14.92,0,0,0-3-.24c-.35,0-.86,0-1.54,0l-1.52,0c-.14,0-.22-.1-.22-.29,0-.74,0-1.84.08-3.32s.08-2.58.08-3.32,0-2.15-.07-4.2c0-.52,0-1.31-.07-2.36v-.13c0-.16,0-.23.16-.23.34,0,.84,0,1.51,0l1.51,0,1.53,0c.69,0,1.2,0,1.54,0s.38.17.43.5c0,.13.06.71.13,1.73s.1,1.61.1,1.76,0,.19-.14.19a6.61,6.61,0,0,1-1-.11,7.41,7.41,0,0,0-1.05-.1h-.65c-.34,0-.5.18-.5.41s.2.51.59.59a6.69,6.69,0,0,0,.83,0,5.81,5.81,0,0,0,1-.08c.43-.06.61-.1.53-.1.11,0,.17.1.17.29s0,.47-.06.85-.08.76-.08.88c-.06.88-.09,1.51-.09,1.88,0,.15-.06.22-.2.22l-.55-.12a9.29,9.29,0,0,0-1.59-.13c-.39,0-.58.17-.58.5a.59.59,0,0,0,.07.34c.13.16.77.24,1.94.24a6.1,6.1,0,0,0,.7-.06,5,5,0,0,1,.71-.07C124.34,181.21,124.39,181.29,124.39,181.45Z"/><path class="cls-15" d="M134.07,184.86c0,.2-.08.3-.23.3a4.17,4.17,0,0,1-.94-.17,4,4,0,0,0-.94-.18,3.94,3.94,0,0,1-2.35,1,4,4,0,0,1-3.36-2.13,9.21,9.21,0,0,1-1.4-5.14,9.35,9.35,0,0,1,1.38-5.2,4,4,0,0,1,3.38-2.13,3.65,3.65,0,0,1,2,.65,4.14,4.14,0,0,1,1.61,1.82,1.21,1.21,0,0,1,.13.45,4.88,4.88,0,0,1-.72,1.52,8.85,8.85,0,0,1-.91,1.37.38.38,0,0,1-.25.13c-.08,0-.27-.16-.6-.47a1.48,1.48,0,0,0-1.07-.47,1.24,1.24,0,0,0-1,.68,3.12,3.12,0,0,0-.43,1.65,3.17,3.17,0,0,0,.46,1.69,1.2,1.2,0,0,0,1.82.49c0-.17,0-.63-.11-1.39q-.06-.87-.06-1.38a1.12,1.12,0,0,1,0-.2.17.17,0,0,1,.14-.06l.35.06a8,8,0,0,0,1.26.08l.85,0c.37,0,.66,0,.84,0s.19.08.19.23c0,.36,0,.89-.06,1.6s-.06,1.25-.06,1.6,0,1,.07,1.88S134.07,184.49,134.07,184.86Z"/><path class="cls-15" d="M144,185.27c0,.09-.08.14-.25.14l-.84,0c-.37,0-.65,0-.83,0s-.46,0-.82,0l-.82,0c-.11,0-.18-.1-.2-.3v-.48c0-.27-.08-.4-.24-.4a6,6,0,0,0-1.75.13c-.17.08-.28.28-.31.61s-.11.44-.21.44l-.79,0c-.35,0-.61,0-.79,0s-.43,0-.78,0l-.78,0c-.12,0-.18-.08-.18-.25s1-4.68,3-13.46a.87.87,0,0,1,.1-.3.25.25,0,0,1,.2-.06,3.75,3.75,0,0,1,.67.09,3.56,3.56,0,0,0,.66.09,4,4,0,0,0,1.26-.14l.11,0c.08,0,.16.11.26.34s.22.68.53,1.76c.24.83.59,2.09,1,3.76.21.88.5,2.21.86,4s.65,3.1.86,4A.72.72,0,0,1,144,185.27Zm-4.27-6.37a1.69,1.69,0,0,0-.57-1.3,1.93,1.93,0,0,0-.56,1.3,1.06,1.06,0,0,0,.17.61.47.47,0,0,0,.39.26.49.49,0,0,0,.4-.26A1.14,1.14,0,0,0,139.74,178.9Z"/><path class="cls-15" d="M152.87,185.3c0,.07-.06.11-.17.11l-.84,0c-.37,0-.65,0-.83,0s-.45,0-.8,0l-.79,0a.28.28,0,0,1-.29-.25c-.08-.3-.19-.74-.34-1.34s-.34-1.36-.6-2.46c-.06-.28-.11-.42-.17-.42s0,.1,0,.32c0,.45,0,1.12.08,2s.09,1.55.09,2c0,.15,0,.23-.13.23l-.16,0a8.51,8.51,0,0,0-1.67-.12c-.16,0-.4,0-.73,0l-.74,0c-.14,0-.21-.1-.21-.29,0-.74,0-1.84.08-3.32s.08-2.58.08-3.32q0-2.82-.18-6.56v-.13c0-.14,0-.21.12-.23h.25l2.11,0,2.11,0a3.33,3.33,0,0,1,2.48,1,4.55,4.55,0,0,1,1.14,3.34,7.88,7.88,0,0,1-.28,2.29,4.44,4.44,0,0,1-1,1.66.49.49,0,0,0-.15.33c0,.08.26.94.79,2.6S152.87,185.23,152.87,185.3Zm-3.63-8.77a1,1,0,0,0-1.07-1.11c-.17,0-.26.41-.26,1.23,0,.1,0,.25,0,.45s0,.34,0,.44.08.15.26.15C148.89,177.69,149.24,177.3,149.24,176.53Z"/></g><rect class="cls-16" width="250" height="250"/></svg>