<svg id="Layer_1" data-name="Layer 1" xmlns="http://www.w3.org/2000/svg" viewBox="0 0 250 250"><defs><style>.cls-1{fill:#e29d4b;}.cls-2{fill:#cfcbb4;}.cls-3{fill:#dad6be;}.cls-4{fill:#f4f3f1;}.cls-5{fill:#f4f3f3;}.cls-6{fill:#f4f3f2;}.cls-7{fill:#eae7d7;}.cls-8{fill:#bcb499;}.cls-9{fill:#c9c3a1;}.cls-10{fill:#fefefe;}.cls-11{fill:#e3a151;}.cls-12{fill:#e4a860;}.cls-13{fill:#e5ad69;}.cls-14{fill:#eca945;}.cls-15{fill:#e09422;}.cls-16{fill:#e09423;}.cls-17{fill:#e09424;}.cls-18{fill:#eca944;}.cls-19{fill:#e1972a;}.cls-20{fill:#c88b43;}.cls-21{fill:#c88a43;}.cls-22{fill:#c88b44;}.cls-23{fill:#c98b44;}.cls-24{fill:#c98c45;}.cls-25{fill:#e19525;}.cls-26{fill:#e19524;}.cls-27{fill:#e09524;}.cls-28{fill:#e19728;}.cls-29{fill:#e19625;}.cls-30{fill:#e9e3d2;}.cls-31{fill:none;}</style></defs><title>products</title><path class="cls-1" d="M51.07,51.39c.81,0,1.63-.08,2.44-.08q66.29,0,132.57-.06c2.26,0,2.86.58,2.8,3-.17,6.42-.07,12.83-.08,19.24-.86,1.72-2.58.86-3.81,1.48-12.05,1.4-24,2.53-36.15,3.09-13.94.66-27.87,1.2-41.8.74-11.86-.39-23.7-.86-35.52-2-5.83-.55-11.65-1.21-17.48-1.85a13.33,13.33,0,0,0-2-.39A1.4,1.4,0,0,1,50.84,73s0-.06,0-.08C51,65.71,50.71,58.55,51.07,51.39Z"/><path class="cls-2" d="M185.23,74.36c1.05-.86,2.52,0,3.57-.92V191.27q0,28,0,56.1c0,2-.47,2.63-2.46,2.63q-66.52-.1-133,0c-2.28,0-2.67-.86-2.67-3q0-75.46.05-150.93v-42c0-.86-.36-1.89.4-2.67,0,6.59.06,13.19,0,19.8,0,2,.34,3.13,2.48,2.84a2.42,2.42,0,0,1,.79.34,11.15,11.15,0,0,0-.7,4.36V234.05a19.55,19.55,0,0,0,.5,4.88,10.06,10.06,0,0,0,8.92,7.91c1,.08,2.08,0,3.12,0H175.53c6.34-.17,10.24-4.23,10.33-10.93.09-5.32,0-10.64,0-16V79.69A13,13,0,0,0,185.23,74.36Z"/><path class="cls-3" d="M185.23,74.36c.86,0,1.46.26,1.39,1.35v159.8c0,7.66-4.2,12.11-11.42,12.11-36.91,0-73.82-.08-110.74.09-6.39,0-11.58-5.16-11.57-12.21q0-31.32,0-62.65V77.1c0-1.08-.66-2.72,1.37-2.74,7.39.5,14.72,1.53,22.11,2,7.6.53,15.21.95,22.83,1.31,9.25.43,18.52.6,27.77.36q17.22-.42,34.37-1.44C169.33,76.15,177.24,75.14,185.23,74.36Z"/><path class="cls-4" d="M85.38,63.55v-3c0-1,.45-1.17,1.24-1.17s1.46.11,1.45,1.23V66c0,.91.16,1.83,1.26,1.79s1.11-.91,1.12-1.73c0-1.72,0-3.44,0-5.16,0-1.07.32-1.57,1.39-1.55s1.53.29,1.49,1.46a44.49,44.49,0,0,1-.27,6.32c-.41,2.34-1.44,3.21-3.88,3.18-2.27,0-3.51-1.11-3.72-3.44a32.42,32.42,0,0,1,0-3.27Z"/><path class="cls-5" d="M118,69.89c-3.91,1.32-3.23-2.58-5-4.31v3.09c.06,1.11-.37,1.55-1.43,1.53s-1.27-.49-1.26-1.44V60.57c0-.36.12-1,.3-1a6.33,6.33,0,0,1,4.76.16c1.37.66,2.34,2.13,1.61,3.39C115.52,65.7,117.07,67.6,118,69.89Z"/><path class="cls-6" d="M132.29,59.34a1.41,1.41,0,0,1,1.77,1,1.86,1.86,0,0,1,.05.27c.67,2.64,1.51,5.23,2.26,7.84.17.57.67,1.31-.11,1.62a1.66,1.66,0,0,1-2.19-.45c-1.36-1.84-2.33-1.9-3.52-.09a1.61,1.61,0,0,1-2.16.55c-.9-.3-.23-1.08-.09-1.57.7-2.58,1.49-5.07,2.22-7.61C130.8,59.89,131.16,59.08,132.29,59.34Z"/><path class="cls-6" d="M102.87,64.71V64c0-5,.32-5.33,5.09-4.66.7.1,1.08.27,1.1,1.09s-.28,1.33-1.15,1.28a1.89,1.89,0,0,0-.67,0c-.57.14-1.52-.43-1.65.6s.86.86,1.43.86c.86,0,1.23.34,1.25,1.23s-.35,1.44-1.31,1.42c-.63,0-1.43-.17-1.44.94,0,1.29.93.86,1.59,1s2-.49,2,1.09-1.22,1.22-2.07,1.24c-4.15.09-4.15.07-4.15-4.21Z"/><path class="cls-5" d="M79.58,70.22a5,5,0,0,1-1.16-.13c-.68-.18-1.48-.24-1.2-1.48s.67-1.36,1.72-1c.72.27,1.72.54,2.14-.51s-.67-1.18-1.23-1.49c-2.23-1.22-3-2.76-2.25-4.57.7-1.65,3.32-2.45,5.29-1.72a1,1,0,0,1,.74,1.2c-.12.64-.28,1.09-.94,1.11-.37,0-.74-.11-1.11-.11s-1.14-.19-1.33.49c-.23.86.57.94,1,1.25l.2.11c1.93.69,3.1,2,2.52,4.23S81.82,70.29,79.58,70.22Z"/><path class="cls-5" d="M139.81,70.22a4.94,4.94,0,0,1-1.08-.1c-.74-.21-1.67-.2-1.33-1.57.28-1.19.79-1.22,1.72-.87.73.27,1.72.53,2.1-.55.4-1.28-.86-1.22-1.49-1.55-2.08-1.08-2.81-2.89-1.86-4.7a4.37,4.37,0,0,1,5.36-1.36,1,1,0,0,1,.48,1.37c-.22.72-.67.86-1.37.8s-1.68-.5-1.92.47.86,1.1,1.48,1.39c1.67.79,2.77,2,2.29,4C143.67,69.71,142,70.29,139.81,70.22Z"/><path class="cls-5" d="M96.89,59.08c3.64-.07,5.35,1.86,4.7,5a2.43,2.43,0,0,1-1,1.73c-1.67.86-3.84,1.12-3.61,4,0,.51-.86.39-1.35.37-.67,0-.86-.51-.86-1.11V60.42C94.79,58.55,96.47,59.77,96.89,59.08Z"/><path class="cls-6" d="M152.75,59.43c2.87-.91,2.83,1.89,3.84,3.44.86-.77.86-2,1.47-2.85.77-1.18,1.8-.57,3-.55-.45,1-.79,1.89-1.18,2.71-1,2.1-2.19,4.1-1.82,6.62.12.79-.15,1.4-1.06,1.38-.64,0-1.65.15-1.53-.82.42-3.44-1.81-6-2.69-9a.63.63,0,0,1,0-.9Z"/><path class="cls-6" d="M152.75,59.43v.91c-.75.47-1,1.68-2.25,1.44-1.06-.2-.86.82-.86,1.46,0,1.8,0,3.61,0,5.41,0,1.06-.28,1.58-1.39,1.54S147,69.67,147,68.73V64.27c0-1.29.37-2.77-1.73-2.59-.7.06-.58-.74-.6-1.27,0-.86.53-1,1.18-1Z"/><path class="cls-6" d="M125.29,59.38h2.44c.81,0,1.29.25,1.28,1.16,0,.7-.21,1.27-1,1.18-1.64-.19-1.52,1-1.5,2.08v4.9c0,1.11-.39,1.53-1.44,1.5s-1.28-.51-1.25-1.46V64.3c0-1.23.47-2.8-1.67-2.63-.72,0-.62-.72-.64-1.24s.23-1,.9-1h2.89Z"/><path class="cls-7" d="M170.55,186.11a38.52,38.52,0,0,1-7.32,20.66,50.74,50.74,0,0,1-15,13.63c-1.29,1.93-3.44,2.44-5.29,3.19-15.77,6.32-31.54,6.34-47.22-.38-1.61-.7-3.38-1.22-4.51-2.82-6.55-4.2-12.35-9.23-16.54-16.15A41.09,41.09,0,0,1,69,185.66a.87.87,0,0,1,.86.57c2.92,6.33,8.42,9.33,14.19,11.69,9.36,3.85,19.16,5.3,29.16,5.92a115.2,115.2,0,0,0,31.16-2.41,53.39,53.39,0,0,0,17.7-6.81,18.44,18.44,0,0,0,7-7.06C169.33,186.92,169.59,186.09,170.55,186.11Z"/><path class="cls-8" d="M119.27,154.22H78.5c-6.88,0-12.17-5.37-12.2-12.64-.07-14.54-.11-29.09,0-43.64,0-7.19,5.37-12.83,12.31-12.81,27.17.13,54.35.05,81.53.06,7,0,12.18,5.49,12.19,12.91v43.17c0,7.6-5.11,13-12.31,13Z"/><path class="cls-9" d="M91.25,220.36c3.21,1.4,6.31,3.08,9.64,4.17A61.52,61.52,0,0,0,130,226.66c6.46-1,12.39-3.45,18.24-6.29a8.22,8.22,0,0,1,4.3,3.53c2.28,3.38.86,7.59-3.12,10.24-5.33,3.54-11.33,4.88-17.38,5.92a64.47,64.47,0,0,1-14.81,1c-8.42-.52-16.76-1.62-24.55-5.36A18,18,0,0,1,88.79,233c-4.11-3.51-3.84-8.28.58-11.43C90,221.16,90.62,220.78,91.25,220.36Z"/><path class="cls-10" d="M170.55,186.11c-3.89,8.39-11.4,11.45-19.06,14-8.56,2.89-17.42,3.93-26.4,4.36-13.88.68-27.45-.72-40.57-5.68-5.26-2-10.16-4.67-13.69-9.47-.86-1.14-1.1-2.53-1.86-3.69-.69-6,2.3-10,6.76-13.18,5.88-4.17,12.5-6.36,19.33-7.91a115.52,115.52,0,0,1,19.35-2.49,105,105,0,0,1,37.65,4.53A39.72,39.72,0,0,1,164.59,173C168.89,176.24,171.31,180.34,170.55,186.11Z"/><path class="cls-11" d="M113.08,65c.07-1.26-.52-2.35.37-3.2.26-.24.73.06.86.46C114.64,63.34,114.35,64.19,113.08,65Z"/><path class="cls-12" d="M132.34,63.44c.1.86,1.13,1.62.32,2.47a.81.81,0,0,1-.8,0C131.28,65,132,64.27,132.34,63.44Z"/><path class="cls-13" d="M97.87,61.52A1.39,1.39,0,0,1,99.12,63a1.26,1.26,0,0,1-1.2,1.32h-.11c-.86,0-.66-.86-.69-1.43S97,61.57,97.87,61.52Z"/><path class="cls-7" d="M119.39,88.48c13.37,0,26.74.13,40.1-.06A9.7,9.7,0,0,1,169,98.24q-.41,21.47,0,43a9.75,9.75,0,0,1-9.47,9.8c-26.8-.14-53.61-.07-80.43-.08-5.55,0-9.23-3.83-9.23-9.62,0-14.39.12-28.78-.08-43.18-.11-5.07,4.2-9.75,9.3-9.68C92.5,88.6,105.94,88.48,119.39,88.48Z"/><path class="cls-14" d="M143,200.26A42.28,42.28,0,0,1,132.24,202c-3.2-3.07-3.16-4.83.23-7.93-.19-.55-.7-.79-1-1.2-1.34-1.64-1.31-2.88,0-4.57.36-.46,1.47-.71.86-1.58a1.59,1.59,0,0,0-2.17-.59l-.19.13a7.48,7.48,0,0,1-1.6.86,6.49,6.49,0,0,1-6-.47c-2.15-1.23-2.64-3-1.53-5.29.21-.45.79-.86.29-1.43-.37-.39-.86-.11-1.22.14s-1.23.68-.82,1.42c.94,1.72.71,3.19-.79,4.31a4.79,4.79,0,0,1-5.47.34,1.73,1.73,0,0,0-2.51.24c-.88.86-.34,1.55.11,2.38a3.71,3.71,0,0,1-1.24,5.08,7.84,7.84,0,0,1-8.83-.07c-.48-.35-.77-1-1.66-1.16,1.09,1.58,2.2,3,1.25,4.91a4.61,4.61,0,0,1-4.15,2.65c-6.32-1.27-12.46-3.1-17.9-6.94a4.42,4.42,0,0,0,2-4.12c-.08-1.83,1.61-2.58,3.34-2.58.43,0,.85,0,1.28,0,2.35.56,3.06,1.42,3.08,3.72,0,1.72,0,1.72,2.24,2.35-1.21-1.73-1.61-3.3-.63-5.07.29-.56-.2-1-.58-1.39a3.17,3.17,0,0,1-1-2.26,5.46,5.46,0,0,1,0-1A3.79,3.79,0,0,1,89.33,180c.7-.44.47-.78.08-1.23-1.27-2.41.23-4.79,2.58-5.6,3.19-1.11,6.26.16,7.29,3a4.72,4.72,0,0,1-.35,2.26c-.17.33-.32.76.1,1a.94.94,0,0,0,1.34-1.11c-.19-.66-.74-1.16-.78-1.89,2.27-3.92,6.23-4.53,9.19-1.44a2.66,2.66,0,0,1,.46,2c-1.14,2.73,1.2,3,2.58,4-2.48-1.27-2.95-3.39-2.4-5.95a7.68,7.68,0,0,1,9.29-2.13,4.21,4.21,0,0,0,4,0,7.25,7.25,0,0,1,6.27,0,3.55,3.55,0,0,0,3.36-.17,8.45,8.45,0,0,1,9.47.91,1.51,1.51,0,0,0,2.09.11,5.4,5.4,0,0,1,5.33-.33c2.49,1.18,3,2.76,1.73,5.38a2.07,2.07,0,0,1-1.09.77c1.19,1.46,2.2.47,3.22-.25a9.32,9.32,0,0,1,8.61,0c2.5,1.25,3.15,3,2.34,5.67a3.2,3.2,0,0,1-1.05,1.17c-1.19.7-1.83,1.47-1.33,3.09.37,1.19-.41,2.2-1.42,2.9.59.4,1.25.38,1.56,1a27.9,27.9,0,0,1-9.47,4.57c-.93-2.54-.58-3.5,2.1-5.44a3.81,3.81,0,0,1-1.13-4.1c.27-.86-1.23-2.21-2.11-2s-.54.64-.25,1.19c1.57,2.95.86,4.67-2.47,5.76-1.94.11-3.32-1.65-5.22-1.72-1.81-1-1.25-2.4-.62-3.76.36-.77.69-1.46-.18-2s-1.26.5-1.82.86c-.38.26-.21.59,0,1,2,3.44,2,4-.61,6.67a4.23,4.23,0,0,1,2.41,5.17C142.29,199.88,142.85,199.94,143,200.26Z"/><path class="cls-7" d="M150.56,179.09c.64-1.64,1.25-3.23-.57-4.56-2.15-1.56-4.91-1.23-7.29.93-3.06-3.36-7.44-4-11.09-1.5a1.45,1.45,0,0,1-1.92.12,7.1,7.1,0,0,0-8,.17,1.38,1.38,0,0,1-1.72.15c-4.07-2.4-6.81-2.1-10.38.95a.61.61,0,0,1-.86,0h0c-3-2.52-5.56-2.31-8.15.64a4.47,4.47,0,0,1-.86.64c-.28.25-.55.45-.76-.08-.8-2.58-3.34-3.77-6.26-3-2.58.66-3.37,2.09-2.8,5.44-1,1.27-2.58,1.25-3.84,1.84-2.36-.07-4.8-.34-6.08,2.51A63.49,63.49,0,0,0,73,188.92c-3.76-5.36-2.1-9.93,2.27-13.58,6.7-5.6,14.75-7.75,22.92-9.47a112,112,0,0,1,29.86-1.73c9.81.6,19.54,2.23,28.68,6.41a27.18,27.18,0,0,1,8.83,5.71c4,4.21,4.3,7.67,1.2,12.68a10.88,10.88,0,0,1-3.29-3.76c.91-2.69.3-4.3-2.2-5.42-2.83-1.33-5.64-.86-8.43.21A2.16,2.16,0,0,1,150.56,179.09Z"/><path class="cls-15" d="M95.72,200.13c.86-.65,1.9-.77,2.68-1.56,1.73-1.72,1.85-3.24.12-4.95-.52-.53-1.38-.86-.44-1.77s1.08,0,1.53.48a7.12,7.12,0,0,0,8.61,1.45c2.83-1.55,2.92-3.93.24-6.43a15,15,0,0,0,1.46-1.41c1-1.21,1.72-1.79,3.12-.28,1.06,1.18,4.22.56,5.34-.65,1.57-1.67.42-2.93-.62-4.18l2.39-1.84c.91-.69,1.36.29,1.88.67.67.49,0,.92-.27,1.33-1.84,2.52-1.31,4.36,1.52,5.54a5.47,5.47,0,0,0,5.74-.44c1.47-1.13,2.46-1.19,3.65.17a4.13,4.13,0,0,0,1.12.63c-3.92,3.36-3.92,3.88,0,7.43-.86.54-2,.72-2.58,1.73-1,1.61-1.18,3.17.35,4.61.36.34,1.27.46.72,1.36l-2.58.15a7.38,7.38,0,0,1-3.24.06c0-1,.81-1.22,1.24-1.73.86-.95,1-1.89,0-2.79a3.2,3.2,0,0,0-4.08.26c-.8,1.05-.36,2,.56,2.77.63.54,1.77.52,1.82,1.72l-6.21.09c-.29-.72.26-1.15.54-1.67,1.13-2.1.72-3.53-1.29-4.58-.47-.24-1-.38-1.45-.6-1-.45-1.27-1-.23-1.79s2.11-1.49,1.5-3c-.74-1.85-2.36-1.91-4-1.85-1.42,0-2.7.46-3.24,2-.45,1.24.25,2,1.2,2.7,1.59,1.15,1.58,1.26-.27,2-1.13.47-2,1.33-3.08,1.85a1.56,1.56,0,0,1-1.54-.7,4.11,4.11,0,0,0-4.08-1.2c-2.42.38-3.07,1.79-1.91,4.07.22.44.75.86.3,1.43,0,0-.11.05-.17.05a.83.83,0,0,1-.22-.08A31.49,31.49,0,0,1,95.72,200.13Z"/><path class="cls-14" d="M109.5,197.4c.86-1.66,2.53-2,4.3-2.59-2-.62-3.55-1.54-2.88-3.81.58-1.94,2.19-2.49,4.07-2.53,2.1,0,4,.3,4.61,2.71.5,2-1.26,2.71-2.64,3.74,1.64.65,3.55.93,4.36,2.74.94,2.07-.42,3.51-1.59,4.94a43.4,43.4,0,0,1-9.86-.43c-.53-.86-1.46-1.54-1.21-2.78A12.9,12.9,0,0,1,109.5,197.4Z"/><path class="cls-16" d="M72.92,189c1.5-2.85,4.12-4.3,6.68-5.77.86,1,1.66,2.12,3,2.51.55.16,1.08.59.56,1.38-2.65.22-3.19,1.13-2.71,3.75.41,2.18-1.66,1.72-2.67,2.38A17.47,17.47,0,0,1,72.92,189Z"/><path class="cls-14" d="M143.38,191.31c.68-.55,1.21-1.59,1.85.27.23.67,2,.76,3.06,1.13a3.38,3.38,0,0,1,3.1,2.79,2.59,2.59,0,0,1-1.31,2.91c-1.24.86-2.68.92-4.06,1.23a3,3,0,0,0-.86-.32,3.46,3.46,0,0,1-2.9-2.82c-.36-1.72.76-2.69,2-3.58C144.09,192.38,143.06,192.25,143.38,191.31Z"/><path class="cls-14" d="M109.5,197.4c.58.86-.21,1.28-.44,1.88-.86,1.78-2.11,2.64-4,2.12a1.75,1.75,0,0,0-1.27.15,2.24,2.24,0,0,1-1.88-.34c.3-.25.3-.54,0-.75a2.65,2.65,0,0,1-1-3.44c.53-1.38,1.79-1.72,3-2C106.26,194.48,107.87,196,109.5,197.4Z"/><path class="cls-16" d="M143.38,191.31c.32.86,1.26,1,1.94,1.59-1.42.68-2.74,1.72-2.69,3.26s1.41,2.36,2.8,2.84c.24.08.39.42.59.64l-3,.62c-.47-.16-1.29.18-1-1,.62-2.81-.91-4.17-3.44-5,1.36-1.07,3-1.6,3.07-3.59s-1.18-2.71-2.71-3.54a22.18,22.18,0,0,0,2.46-2.08c1.25-1.39,1.33.49,2,.74s.95.68.19,1.49C142.42,188.5,141.72,189.93,143.38,191.31Z"/><path class="cls-16" d="M150.08,198.41c1.49-2.68,1.25-3.44-1.79-5.7,3.37-1.21,3.9-2.87,1.68-5.41-.35-.4-.72-.62-.19-1.07s1.31-1.31,1.89-.75c.94.91,3.24,1,2,3.57-.78,1.59.76,2.58,2.06,3.51-2.84.67-3.78,2.51-3.45,5.22Z"/><path class="cls-17" d="M163.38,185.22c1.14,1.21,2.75,2,3.3,3.75a16.52,16.52,0,0,1-4.94,4.25l-2.69-.63c1.83-1.28,2.84-2.66,1.67-4.72-.35-.61.15-.79.51-1.05C162,186.3,162.66,185.75,163.38,185.22Z"/><path class="cls-18" d="M126,202.48c-.56-.72-1.49-.67-2.15-1.14a2.71,2.71,0,0,1-1.39-2.47,2.57,2.57,0,0,1,1.78-2.15,3.76,3.76,0,0,1,2.58-.18c1.09.29,2.13.81,2.28,2.22.18,1.72-1.07,2.36-2.38,3.23l2.93.15A7,7,0,0,1,126,202.48Z"/><path class="cls-19" d="M103.74,201.55c1.85-.55,3.93-.51,5.32-2.27-.53,1.22,1.28,1.68.86,2.87A29.17,29.17,0,0,1,103.74,201.55Z"/><path class="cls-20" d="M147.34,107c0,4.3-.11,8,0,11.59.11,2.39-1.32,2.24-2.73,2.23s-3,.25-3-2.29c.12-7,0-13.91.06-20.88,0-1.13-.56-2.68,1.31-2.89,1.72-.19,3.4-.51,4.5,1.48,1.93,3.51,3.92,7,5.9,10.48.22.38.48.74,1.08,1.64,0-4.23.12-7.86-.05-11.47-.11-2.59,1.58-2.21,3-2.25s2.84-.18,2.8,2.19c-.1,7,0,14.08,0,21.12,0,1,.49,2.45-1,2.68s-3.44.87-4.62-1.14c-1.88-3.28-3.72-6.58-5.6-9.86C148.54,109,148.11,108.29,147.34,107Z"/><path class="cls-20" d="M117.5,108c.13,4.2-.56,8.18-3.9,10.93-6,4.93-14.77,1.72-16.68-6a21.61,21.61,0,0,1-.14-9.7C98.1,97,102,94.15,108.36,94.63c4.93.34,8.61,4.55,9.14,10.33C117.58,105.94,117.5,107,117.5,108Z"/><path class="cls-21" d="M121,107.77c0-3.59.07-7.19,0-10.78,0-1.5.46-2.08,1.83-2.22a23,23,0,0,1,9,.39,8.13,8.13,0,0,1,5.21,10.25,8.26,8.26,0,0,1-1.47,2.66c-1,1.23-1.18,2-.4,3.45,1.35,2.41,2.42,5,3.67,7.48.59,1.18.37,1.73-.86,1.81s-2.52,0-3.79,0a2,2,0,0,1-2-1.53c-1.22-3.1-2.5-6.17-3.81-9.24a1.38,1.38,0,0,1,.38-1.91l.06,0a5.92,5.92,0,0,0,2.12-5.17,2.81,2.81,0,0,0-1.49-2.44c-1.6-.86-2.52-.33-2.53,1.57v15.5c0,3.29-.06,3.36-3,3.34-2.76,0-2.91-.2-2.91-3.44Z"/><path class="cls-20" d="M89.44,120.92c-10.13.39-13.66-9.28-11.42-17.77,2.37-8.94,10.33-9.73,16.29-7.83.77.24,1,.75,1,1.58-.06,2.94-1.2,4-3.91,3.44-4.3-.86-7.12,1.41-7.36,6v2.11c.12,5.36,3.08,7.74,8.1,6.58.77-.18,1.77-1.13,2.36,0a8.1,8.1,0,0,1,1.13,4.45c0,.58-.79.66-1.27.8A13.07,13.07,0,0,1,89.44,120.92Z"/><path class="cls-20" d="M116,145.16c-1.32,0-2.58-.21-2.71-2-.11-1.59-1-1.72-2.28-1.67-1.84.08-3.44-.29-4,2.58-.36,1.72-2.58,1.12-3.89.76s-.26-1.46-.08-2.09c1.45-5.07,3.09-10.09,4.43-15.2.54-2,1.73-2,3.17-2s2.44.18,2.91,2c1.33,5,2.9,10,4.3,15C118.54,144.81,118.28,145.15,116,145.16Z"/><path class="cls-22" d="M135.93,135v-7.48c0-1.32.38-2,1.79-1.94,2.53.09,5.05.11,7.56,0,1.72-.08,1.66,1,1.72,2.24s-.07,2.17-1.62,2c-1.1-.1-2.22,0-3.33,0-.87,0-1.36.27-1.37,1.32s.34,1.6,1.4,1.51h1.33c1.49-.18,2.31.15,2.35,2.06s-.86,2.29-2.43,2.2c-1.35-.09-2.91-.47-2.69,2.06.11,1.34.51,1.79,1.72,1.72.87-.07,1.8.1,2.66,0,1.78-.3,2.16.76,2.24,2.25.1,1.73-.75,2.09-2.18,2-2.53-.09-5.05-.05-7.56,0-1,0-1.47-.24-1.44-1.45.09-2.81,0-5.61,0-8.42Z"/><path class="cls-20" d="M153,145.26c-.33-.06-1.21-.17-2.07-.37-2.33-.55-2.9-2-1.72-4.17.5-.91,1.09-.51,1.72-.32,1.28.4,2.53.87,3.9.37.67-.25,1.28-.5,1.38-1.32a1.63,1.63,0,0,0-1.13-1.8c-1.07-.51-2.21-.86-3.25-1.48-2.34-1.28-3.15-3.29-2.67-6.32a5.37,5.37,0,0,1,4.41-4.3,11.79,11.79,0,0,1,4.84.16c2,.42,2.58,2.24,1.33,4a.86.86,0,0,1-1.14.3,5.9,5.9,0,0,0-1.49-.48c-1.23-.16-2.78-.55-3.27,1.08s1.19,1.9,2.17,2.33c2.58,1.1,5,2.21,5.12,5.69C161.34,142.83,158.49,145.34,153,145.26Z"/><path class="cls-22" d="M78.42,135.21c0-2.51.08-5,0-7.5-.06-1.72.55-2.19,2.08-2.11a66,66,0,0,0,6.89,0c1.72-.1,2.08.71,2.12,2.35,0,1.87-.86,2-2.22,1.92a4.24,4.24,0,0,0-1.33,0c-1.09.23-2.84-.86-2.82,1.67s1.72,1.53,2.7,1.48c1.88-.11,2.45.58,2.35,2.52-.06,1.48-.6,1.8-1.88,1.8-3.13,0-3.13.06-3.13,3.37a9,9,0,0,0,0,1.64c.38,2.08-.59,2.78-2.41,2.82-2,0-2.47-1-2.37-2.94C78.53,139.9,78.42,137.55,78.42,135.21Z"/><path class="cls-23" d="M91.28,135.19c0-2.5.15-5,0-7.48-.16-2.16,1-2.16,2.42-2.21s2.48.31,2.4,2.31c-.14,3.5.06,7-.08,10.52-.08,1.92.58,2.52,2.27,2.27.44-.07.86.06,1.33,0,2.34-.45,2.53,1,2.4,2.86-.09,1.13-.52,1.46-1.52,1.45-2.51,0-5-.06-7.55,0-1.27,0-1.72-.45-1.64-1.76C91.34,140.49,91.28,137.84,91.28,135.19Z"/><path class="cls-20" d="M125.11,135c1.18-2.77,2.33-5.56,3.56-8.3.46-1,4.39-1.67,5.06-.92.4.46,0,.87-.14,1.29-1,2.12-1.84,4.3-2.94,6.3a3.05,3.05,0,0,0,0,3.24c1.15,2.18,2.11,4.48,3.25,6.67.71,1.35.24,1.82-1,1.89-2,.11-3.71,0-4.59-2.53s-2.42-4.65-3.24-7.17c-.13-.1-.18-.21-.13-.31S125.06,135,125.11,135Z"/><path class="cls-24" d="M125.11,135v.47c-1.07,2.2-.34,4.55-.47,6.82-.14,2.59-1,3.35-3.44,2.8a1.48,1.48,0,0,1-1.38-1.57.77.77,0,0,1,0-.15c0-5.31.07-10.63,0-15.94,0-2.18,1.34-1.82,2.58-1.87s2.25,0,2.26,1.9C124.74,129.92,124.05,132.5,125.11,135Z"/><path class="cls-14" d="M83.19,187.07c0-1-.86-.82-1.45-1-1.24-.49-2.24-1.23-2.14-2.85a4,4,0,0,1,4.46-3.06c.58.06,1.16.17,1.72.26,1.41.15,2,1.17,2.32,2.45v1c-.33,2.13-2.11,2.49-3.55,3.27Z"/><path class="cls-15" d="M84.55,187.07c.86-1.5,2.88-1.57,3.56-3.27.86,2,2.37,3.83,1,6.31-.34.6.7,1.25,1.18,1.82s.58.9-.1,1.3c-1.32.8-1.91-.77-2.92-1-.75-.19-.66-.76-.47-1.48C87.39,188.56,86.75,187.59,84.55,187.07Z"/><path class="cls-25" d="M108.63,175.39h.86c-.24,2.31.32,4.13,2.66,4.91.62.2.86.61.25,1.14-.4.35-.86,1.24-1.36.33a5,5,0,0,0-2.39-1.92c-.54-.29-.86-.57-.33-1.19A3.11,3.11,0,0,0,108.63,175.39Z"/><path class="cls-26" d="M98.84,176.58l.76.08c1.24.3,1.4,1.52,1.64,2.48.12.52-.87.69-1.35,1-.7.49-1.31.07-1.82-.33-.81-.65,0-1.07.33-1.48A2.91,2.91,0,0,0,98.84,176.58Z"/><path class="cls-27" d="M144.7,180.28c-1.59-.41-1.65,2.59-3.45,1.08-.52-.46-1-.79-.12-1.72C142.52,178.17,143.4,178.43,144.7,180.28Z"/><path class="cls-26" d="M88.11,182.83l-2.32-2.45a14.58,14.58,0,0,1,4-1.4c1,.21.86.74.17,1.14A3.47,3.47,0,0,0,88.11,182.83Z"/><path class="cls-28" d="M150.56,179.09l2.25.91c-1.3,2.51-2.46.7-3.7-.1C149.38,179.23,150,179.18,150.56,179.09Z"/><path class="cls-29" d="M130.52,179.19c.55.41,1.48.57,1.42,1.45,0,.44-.62,1.27-1.23,1s-1.57-.75-1.62-1.58C129,179.54,129.9,179.36,130.52,179.19Z"/><path class="cls-17" d="M101.18,187.37c-.86,0-1,2.09-2.18.86-.29-.29-1.33-.94-.49-1.64C99.56,185.72,100.31,186.78,101.18,187.37Z"/><path class="cls-18" d="M125.72,194.12c-1.78.13-3.2-.54-3.23-2.58s1.59-2.59,3.23-2.59,3.16.41,3.37,2.5C129.26,193.12,127.89,194.13,125.72,194.12Z"/><path class="cls-7" d="M111.28,107.69a13.23,13.23,0,0,1-.91,5.42,3.39,3.39,0,0,1-3.29,2.34,3.43,3.43,0,0,1-3.51-2.38,15.45,15.45,0,0,1,0-10.33,3.45,3.45,0,0,1,3.61-2.58c1.72,0,2.73,1.1,3.36,2.58A11.31,11.31,0,0,1,111.28,107.69Z"/><path class="cls-30" d="M110.21,131.64c1,1.72,1,3.44,1.45,4.93.32,1.17-.56,1.19-1.34,1.21s-1.51-.24-1.27-1.33C109.38,135,109.76,133.48,110.21,131.64Z"/><rect class="cls-31" width="250" height="250"/></svg>