<svg id="Layer_1" data-name="Layer 1" xmlns="http://www.w3.org/2000/svg" viewBox="0 0 250 250"><defs><style>.cls-1{fill:#333;}.cls-2{fill:#ece5c3;}.cls-3{fill:#424242;}.cls-4{fill:#f1ebce;}.cls-5{fill:#e0daa8;}.cls-6{fill:#e7e0b8;}.cls-7{fill:#3f3f38;}.cls-8{fill:#dcd59e;}.cls-9{fill:#696a65;}.cls-10{fill:#696a66;}.cls-11{fill:#6a6a66;}.cls-12{fill:#e0dba4;}.cls-13{fill:#eceed7;}.cls-14{fill:#ecedd7;}.cls-15{fill:#e8e4c0;}.cls-16{fill:#e4e0b9;}.cls-17{fill:#e0d9ad;}.cls-18{fill:#272727;}.cls-19{fill:#262626;}.cls-20{fill:#ece6c7;}.cls-21{fill:#e9e6cb;}.cls-22{fill:#35332a;}.cls-23{fill:#383628;}.cls-24{fill:#363326;}.cls-25{fill:#fbfbfb;}.cls-26{fill:#fafafa;}.cls-27{fill:#f9f9f9;}.cls-28{fill:#f7f7f7;}.cls-29{fill:#fcfcfc;}.cls-30{fill:#f8f8f8;}.cls-31{fill:#f5f5f5;}.cls-32{fill:#4a4a4a;}.cls-33{fill:#525252;}.cls-34{fill:#555;}.cls-35{fill:#d2d2d2;}.cls-36{fill:#9f9f9f;}.cls-37{fill:#b8b8b8;}.cls-38{fill:#d8d8d8;}.cls-39{fill:#e6e0c2;}.cls-40{fill:#e3dfc4;}.cls-41{fill:#e1dca4;}.cls-42{fill:#ddd5ac;}.cls-43{fill:#474747;}.cls-44{fill:#535353;}.cls-45{fill:#545454;}.cls-46{fill:#e0d7ac;}.cls-47{fill:none;}</style></defs><title>products</title><path class="cls-1" d="M69.4,117.12c-1.27-.87-1.62-2.11-1.6-3.75.1-8.09.08-16.17.1-24.26,1.12.06,1.81,1.07,2.79,1.5a43.22,43.22,0,0,0,9.57,2.86,194.35,194.35,0,0,0,25.6,2.78c8.58.5,17.38.39,26.05.19a177.87,177.87,0,0,0,28.93-2.66,66.76,66.76,0,0,0,9.25-2.27c1.74-.59,3.08-2.05,4.88-2.41q0,12.68.08,25.36a3.47,3.47,0,0,1-.73,1.93,1.76,1.76,0,0,1-.91,1.07c-2.55,1.56-5.39,2.12-8.16,3a2.9,2.9,0,0,1-.48.14,145,145,0,0,1-20,2.7c-2.75.2-5.49.39-8.24.49a4.67,4.67,0,0,0-2.91,0,48.38,48.38,0,0,1-5,.47,28.68,28.68,0,0,1-3.47-.12,27.85,27.85,0,0,0-7.52,0,26.53,26.53,0,0,1-3.45.13,24.34,24.34,0,0,1-4.74-.47,6.21,6.21,0,0,0-3.47,0c-3.63-.07-7.19-.3-10.77-.65-2.43-.29-4.87-.46-7.28-.89l-.78-.1c-2.66-.49-5.35-.77-8-1.39a50.17,50.17,0,0,1-7.93-2.37C70.55,118.11,69.76,118,69.4,117.12Z"/><path class="cls-2" d="M160.24,245.4a7,7,0,0,1-2.46.61,9.21,9.21,0,0,0-3.83.43c-1.1.41-2.33-.11-3.39.57-2.21.73-4.51.69-6.77,1-4.12.5-8.24,1.07-12.34,1.24-4.75.19-9.49.89-14.26.16a59.91,59.91,0,0,0-6-.3c-4.6-.23-9.16-.82-13.72-1.45-1.7-.33-3.42-.54-5.12-.86a5.79,5.79,0,0,1-3.18-2.3,12.49,12.49,0,0,1-2.7-8.14c0-4.93,0-9.85,0-14.78a.48.48,0,0,1,.37-.39c2.3.68,4.67.65,7,1a132.79,132.79,0,0,0,13.79,1.4c5,.27,10,.56,15.05.5,6.39-.08,12.75-.2,19.11-.91,2.23-.25,4.51-.23,6.75-.49,3.08-.35,6.15-.78,9.2-1.37,1.88-.37,3.77-.73,5.66-1,2.09-.27,2.43,0,2.44,2.28v12.67Q165.9,242.27,160.24,245.4Z"/><path class="cls-3" d="M175,89.1c-3.28,3-7.34,3.75-11.36,4.61q-5.73,1.23-11.53,1.9c-2.37.27-4.77.58-7.15.67-2.8.1-5.61.31-8.4.47-6.77.37-13.54.19-20.33.26a218.84,218.84,0,0,1-23-1.25,99.65,99.65,0,0,1-19.32-3.41c-2.18-.64-4.36-1.3-5.94-3.24-.39-1.79.65-2.63,1.86-3.32a29.27,29.27,0,0,1,8.72-2.9c10.78-2.31,21.7-3,32.64-3.42a287.18,287.18,0,0,1,29.34.42c9.66.63,19.32,1.45,28.71,4.25a16.21,16.21,0,0,1,4.56,2.07A2.58,2.58,0,0,1,175,89.1Z"/><path class="cls-3" d="M87.54,173.46c4.94.53,9.89,1,14.82,1.59a1.84,1.84,0,0,0,2.06-1.05c4.45-7.1,10.85-10.05,18.53-9.55a18.93,18.93,0,0,1,16.16,10.37c.32.58.73.59,1.25.55a237.8,237.8,0,0,0,24.69-2.91.4.4,0,0,1,.46.19,4,4,0,0,1,.27,1.91c.05,4.36-.09,8.64.12,12.95a1,1,0,0,1-.26.5c-3.38.46-6.76.9-10.16,1.37-5,.73-10,1.12-15,1.49a2,2,0,0,0-1.78,1.13,20,20,0,0,1-34.5-.28,1.86,1.86,0,0,0-1.61-1.15c-4.75-.49-9.53-1.08-14.24-1.59-.4,0-.78-.17-1.17-.25a4,4,0,0,1-.45-2.38c-.06-3.79.1-7.58-.1-11.37C86.59,174.24,86.57,173.52,87.54,173.46Z"/><path class="cls-3" d="M165,171.17c-4.59.61-9.16,1.27-13.75,1.8-3.34.39-6.7.59-10,.93a1.6,1.6,0,0,1-1.69-1,21.37,21.37,0,0,0-35.79-.29c-.34.53-.61,1-1.4,1-5.16-.47-10.31-.91-15.42-1.82a3.58,3.58,0,0,1-.37-2.18,124.3,124.3,0,0,0,.11-13c0-1.72,0-1.85,1.74-2.09,4.25.31,8.46,1,12.71,1.38,4.44.4,8.9.63,13.35.93,5.24.05,10.48,0,15.72,0a229.64,229.64,0,0,0,32.25-3.51,7.45,7.45,0,0,1,2.53-.26c.53.18,1.06.35,1,1.18-.38,5.42-.09,10.89-.15,16.29C165.74,171.09,165.26,171,165,171.17Z"/><path class="cls-3" d="M87.2,190.31q7.55.81,15.11,1.6c.55.06.73.46,1,.86a21.37,21.37,0,0,0,36.21.35c.3-.44.52-.84,1.15-.88,8.26-.56,16.48-1.59,24.68-2.87.73.38.53,1.08.5,1.72-.18,3,0,6-.09,9,0,.66.07,1.2.84,1.25a.55.55,0,0,1,.63.54.68.68,0,0,1-.55.68,4.46,4.46,0,0,0-1.41.9,2.46,2.46,0,0,1-.69.39c-5.16,1.09-10.37,1.82-15.59,2.48-4.42.56-8.87.83-13.31,1.22-1,.12-2,0-3,.11a118,118,0,0,1-12.19.33c-10.73-.34-21.46-.86-32.09-2.6-.63-.1-1.35,0-1.68-.86V192A2.22,2.22,0,0,1,87.2,190.31Z"/><path class="cls-2" d="M83,245.4a36.27,36.27,0,0,1-8.38-1.65c-3-1.05-4.4-3.74-5.17-6.89a20.14,20.14,0,0,1-.31-4.9v-12a2.2,2.2,0,0,0-.59-1.91.65.65,0,0,1,.68-.21c2.53,1,5.23,1.2,7.83,1.87a2.13,2.13,0,0,1,1.68,1.18c-.2,4.27-.14,8.55-.14,12.82a13.66,13.66,0,0,0,.61,4.35c.82,1.06.64,2.55,1.48,3.7a7.43,7.43,0,0,0,3.48,3c.27.1.6.17.64.68A2.2,2.2,0,0,1,83,245.4Z"/><path class="cls-4" d="M83,245.4h1.45A5.61,5.61,0,0,1,81,242.94c-.69-1.19-2.07-2.14-1.67-3.93,0-.15-.18-.36-.27-.54a7.14,7.14,0,0,1-.53-3.33c-.1-4.47-.23-8.95.06-13.43.08-1.07.6-1.59,1.45-1.36a24.37,24.37,0,0,0,5.63.81,1.47,1.47,0,0,1,.93.49c.12.4.42.65.41,1.18-.08,4.65-.16,9.32-.08,14A11,11,0,0,0,91,245.69c1.8,1.46,3.79.92,5.59,1.66.27.11.6,0,.8.34-2.73-.12-5.4-.77-8.1-1.14A46,46,0,0,1,83,245.4Z"/><path class="cls-5" d="M160.24,245.4c-.89-.55.11-.6.2-.64,2.43-1,3.44-3.31,4.51-5.57a7.51,7.51,0,0,0,.39-3.39,22.13,22.13,0,0,0,.14-4.53c0-3.37,0-6.75,0-10.12,0-.46-.2-1,.33-1.3a32.25,32.25,0,0,0,6.32-1.15c.69-.2,1.33-.24,1.32.87-.34,3-.09,5.92-.17,8.88a27.92,27.92,0,0,1-.25,5.41,2.16,2.16,0,0,0,.3,1.73c.08.13.09.34.18.43s.05-.09.05-.12c.16-1.9.09-3.81.08-5.71,0-3.33.1-6.65-.07-10a2.68,2.68,0,0,1,.09-1.32,3.29,3.29,0,0,1,.43-1.18c.52-.73.77-.36.91.3a2.89,2.89,0,0,0-.64,2.1v14.15c0,5.76-2.86,9.32-8.08,10.12C164.28,244.71,162.32,245.48,160.24,245.4Z"/><path class="cls-3" d="M78.74,170.5c-3-.31-5.92-1.08-8.88-1.59-1-.17-.73-.91-.73-1.5v-16a1.24,1.24,0,0,1,1.42-.28c2.33.52,4.69.9,7,1.45a1.87,1.87,0,0,1,1.45,1,6.87,6.87,0,0,1,.23,2.43v12.13A3.25,3.25,0,0,1,78.74,170.5Z"/><path class="cls-6" d="M78.74,153.41c-3.18-.73-6.37-1.46-9.61-1.95-1.79-1.6-2.18-3.77-2.18-6.14V138.6a3.61,3.61,0,0,1,1.5-3.35c1.06-1.33,2.34-1.29,3.8-.95a34.89,34.89,0,0,0,4.51,1,2,2,0,0,1,1.45.66,1.11,1.11,0,0,1,0,1.09c-1,1.45-.91,3.19-.87,4.87,0,2-.21,3.92-.25,5.88,0,1.64.19,3.29,1.5,4.45a1.44,1.44,0,0,1,.52.95C79.06,153.44,78.93,153.5,78.74,153.41Z"/><path class="cls-6" d="M78.45,220.65a38.71,38.71,0,0,0-6.62-1.6c-1.15-.23-2.18-.72-3.32-1A5.6,5.6,0,0,1,67,213.78c0-2.29.11-4.59,0-6.86a5.45,5.45,0,0,1,2.17-5.14,1.55,1.55,0,0,1,1.63-.56c2.64.56,5.3.94,7.91,1.64a.76.76,0,0,1,.46.59v.15c-2.18,1.28-1.81,3.52-1.75,5.59,0,1.87-.35,3.69-.34,5.56a6,6,0,0,0,1.12,4C78.53,219.18,79.26,219.84,78.45,220.65Z"/><path class="cls-7" d="M165.66,170.86a21.24,21.24,0,0,1-.28-6.16c.11-3.56-.43-7.14.29-10.68.09-.41-.49-.26-.61-.56.36-.61,1-.68,1.53-.84,2.14-.42,4.27-.9,6.4-1.37.47-.1,1-.28,1.4.18v17.78c-.11.18-.19.43-.37.49a33,33,0,0,1-7.87,1.45C166,171.18,165.78,171,165.66,170.86Z"/><path class="cls-8" d="M173.18,219.33c-.86-.73-1.73,0-2.41.25-1.41.58-2.9.07-4.27.76,0,0-.17-.22-.26-.36a.81.81,0,0,1-.05-.63c1.57-4.06.59-8.33.76-12.49.07-1.69-1.17-2.54-2.28-3.4l.37-.3a28.83,28.83,0,0,1,7.67-1.78,1.63,1.63,0,0,1,1.66.45,5.36,5.36,0,0,1,2.18,5c-.14,2.6,0,5.22,0,7.84a3.73,3.73,0,0,1-1.5,3.35c-1.32-.84-.52.77-.94,1S173.58,219.54,173.18,219.33Z"/><path class="cls-8" d="M174.37,151.43,166.54,153a1,1,0,0,1-.17-.92c1.25-4.49.46-9.07.49-13.62a3.74,3.74,0,0,0-.68-1.91c-.52-.73-.33-1.29.49-1.33a30.35,30.35,0,0,0,3.17-.72c1.5,0,3,0,4.12-1.28.56.51,0,1.26.48,1.7a3.38,3.38,0,0,1,2,3.32c.1,3.23,0,6.45.05,9.68C176.55,149.63,175.46,150.54,174.37,151.43Z"/><path class="cls-2" d="M78.14,135.92a25.66,25.66,0,0,1-5.56-1.07,4.57,4.57,0,0,0-4.1.4A3.28,3.28,0,0,0,69.1,133V119.19a3.77,3.77,0,0,1,.29-2.07c3.08,1.63,6.43,2.31,9.69,3.28a3.67,3.67,0,0,1-.42,2.73c-.23,3.54,0,7.09-.1,10.62C78.53,134.49,78.72,135.3,78.14,135.92Z"/><path class="cls-3" d="M78.74,187.35a86.43,86.43,0,0,1-8.88-1.58c-.59-.11-.73-.4-.73-1V171.13c0-.94.36-.92,1-.78,2.66.55,5.33,1.05,8,1.57.81.15,1,.8,1.06,1.56.06,4.23.07,8.45,0,12.68A1.6,1.6,0,0,1,78.74,187.35Z"/><path class="cls-9" d="M78.74,153.41l.3-.09c.55-.47,1.14-.24,1.72-.15,1.72.29,3.43.65,5.16.87.8.43,2-.23,2.52,1-1,0-1.45,0-1.37,1.59a79.23,79.23,0,0,1-.14,13c-.1.76.45,1.49,0,2.23a61.08,61.08,0,0,1-8.18-1.3Q78.73,162,78.74,153.41Z"/><path class="cls-7" d="M165.66,187.75c-.73-5.08-.14-10.17-.32-15.21a1.32,1.32,0,0,1,1.19-.81c2.11-.35,4.21-.72,6.3-1.17a1.54,1.54,0,0,1,1.55.32v15.37a1.19,1.19,0,0,1-.86.61c-2.21.49-4.45.87-6.68,1.22A1.35,1.35,0,0,1,165.66,187.75Z"/><path class="cls-3" d="M78.74,203.15a59.5,59.5,0,0,1-7.26-1.36,5.91,5.91,0,0,0-2.37,0V188.47c0-1,0-1.46,1.22-1.19,2.77.69,5.59,1.17,8.39,1.73a2.7,2.7,0,0,1,.48,1.85v10.48A2.39,2.39,0,0,1,78.74,203.15Z"/><path class="cls-10" d="M78.74,187.35V173.78c0-.73.1-1.45-.61-1.86l9.44,1.54a1,1,0,0,0-.59,1c.5,4.73.11,9.49.22,14.24A57.6,57.6,0,0,1,78.74,187.35Z"/><path class="cls-7" d="M174.37,201.83c-2.66-.39-5.12.79-7.7,1.13l-1.62.2a2,2,0,0,1,2.1-1c-.44-.82-.77-.34-1.06-.31-.61,0-.85-.06-.79-.88.23-3.63-.27-7.26.29-10.84a3,3,0,0,0-.23-.77l0-.1a2.89,2.89,0,0,1,1.63-.72c1.92-.34,3.83-.67,5.74-1.08.58-.12,1.17-.3,1.69.23Z"/><path class="cls-11" d="M78.74,203.15V189l8.45,1.31V202.6a3.81,3.81,0,0,1-.29,1.91,1.35,1.35,0,0,1-1,.42c-1.94-.19-3.84-.61-5.76-.93a1.33,1.33,0,0,1-1-.55Z"/><path class="cls-12" d="M174.44,134.91c-.55-.24-.21-.88-.4-1.16-1.16,1.38-2.72,1.11-4.18,1.18,0-.8.63-.73,1-.81a1.64,1.64,0,0,0,1.45-1.56c.28-3.5,0-7,.12-10.5a4.35,4.35,0,0,1,.3-2.23.54.54,0,0,1,.73-.1c.25,4.09,0,8.19.1,11.29-.15-3.54.33-8.08-.23-12.6a2,2,0,0,1,0-.6c.18-.44.28-1,1-.73Q174.38,126,174.44,134.91Z"/><path class="cls-13" d="M174.37,170.88a86.55,86.55,0,0,0-9,1.66l-.3-.1c0-.42,1-.88,0-1.27l.63-.31a64.3,64.3,0,0,0,8.71-1.65Z"/><path class="cls-14" d="M174.37,187.7l-9.06,1.57c.11-.43.22-.85.32-1.28v-.24l8.74-1.5Z"/><path class="cls-15" d="M150.56,247a1.34,1.34,0,0,1-.44,0c-.4-.2-.09-.25.07-.32,1.19-.55,2.45-.21,3.68-.3a.21.21,0,0,1,.08.21.1.1,0,0,1-.08.1A10.82,10.82,0,0,1,150.56,247Z"/><path class="cls-16" d="M153.87,246.68v-.31c1.28-.49,2.55-1.08,3.92-.35Z"/><path class="cls-17" d="M174.37,117.13c-.39,0-.57.24-.58.66-.52,0-.49-.32-.32-.73l.87-.69A6.7,6.7,0,0,1,174.37,117.13Z"/><path class="cls-6" d="M88.44,155c-.77-.59-1.75,0-2.52-.56A10.3,10.3,0,0,1,84.63,149c.1-3.12-.16-6.25.29-9.36a2.52,2.52,0,0,1,1.72-2.4c2.44-.59,4.79.36,7.14.73,3.23.48,6.49.72,9.72,1,7.21.57,14.44.88,21.67.77A221.84,221.84,0,0,0,161,136.34c.45-.08.89-.22,1.33-.33,2.54-.64,2.54-.64,2.54-3.59V121.53a3,3,0,0,1,.18-1.45.17.17,0,0,1,.23,0c.89.07.79.88.8,1.45,0,4.58.19,9.16-.1,13.73a1.4,1.4,0,0,0,.39,1.29,3.3,3.3,0,0,1,.79,1.7c.46.42.29,1,.29,1.53v7.18c0,2.07.26,4.21-.91,6.08l-1.5.45c-6.19,1-12.38,2.09-18.64,2.73-5.34.54-10.7,1-16.07,1.09-5.32-.19-10.64-.14-16,0-6.27-.12-12.51-.68-18.75-1.39Z"/><path class="cls-2" d="M165,120.1a3.39,3.39,0,0,1,.31,1.75c0,4.28,0,8.56,0,12.84,0,1.23-.35,1.51-1.45,1.61-2,.19-4,.73-6,1-3.63.56-7.31,1-11,1.54-5.71.86-11.46.77-17.2,1.08a133,133,0,0,1-14.12.15c-5.42-.28-10.89-.38-16.28-1.08-2.65-.34-5.35-.73-8-.91a34.28,34.28,0,0,0-4.66-.56l-.07-.27a1.3,1.3,0,0,1,.23-.49,1.68,1.68,0,0,0,.3-1.05c-.57-4-.15-8.08-.25-12.13a1.71,1.71,0,0,1,1-1.84c5.53.61,11.07,1.18,16.63,1.46.6,0,1.2,0,1.8,0a10.68,10.68,0,0,1,3.29.07l4.54.37a12.51,12.51,0,0,0,4.8-.11.92.92,0,0,1,.52,0c3.15-.13,6.31.48,9.44.07l4.84-.36a6.46,6.46,0,0,1,2.7,0,176.29,176.29,0,0,0,27.48-3.06C164.21,120.18,164.63,120.15,165,120.1Z"/><path class="cls-4" d="M78.74,122.4c-.34-.73.13-1.35.35-2l8.1,1.37c-.3,4.58-.15,9.16-.08,13.73,0,.73,0,1.29-.52,1.74h0c-.72.56-1.55.29-2.33.19a29.1,29.1,0,0,1-4.15-.64,1.88,1.88,0,0,1-1.64-1.85q-.07-5.9,0-11.79A1.32,1.32,0,0,1,78.74,122.4Z"/><path class="cls-5" d="M167.15,138.22c-1.69-1.71-1.56-3.93-1.53-6.17,0-3.45,0-6.89,0-10.34,0-.57.19-1.22-.36-1.67a44.16,44.16,0,0,0,8.2-3,.78.78,0,0,0,.32.73v.33c-.33.5-.08,1.12-.31,1.64h-.6c-.36,2-.06,4.11-.15,6.17-.11,2.34.18,4.69-.15,7,.07.78-.11,1.22-.94,1.45-.58.14-1.3,0-1.78.54a6.63,6.63,0,0,1-3.75.58C166.44,136.56,167.44,137.12,167.15,138.22Z"/><path class="cls-18" d="M116.76,111.29v8.56c0,.44.2,1.12-.51,1.13s-.68-.54-.68-1.07v-17.6c0-.45,0-.94.57-1s.62.56.62,1Z"/><path class="cls-18" d="M106.81,111v8.07c0,.65.32,1.73-.56,1.77s-.62-1.05-.62-1.68q0-8.14,0-16.29c0-.56-.36-1.56.62-1.51s.54,1,.55,1.59C106.85,105.66,106.81,108.35,106.81,111Z"/><path class="cls-19" d="M89.61,108.52v8.4c0,.53.11,1.3-.54,1.35-.82,0-.66-.8-.66-1.36V100.1c0-.53-.1-1.28.6-1.26s.59.72.59,1.28Q89.62,104.32,89.61,108.52Z"/><path class="cls-19" d="M124.91,111v-8.4c0-.45-.21-1.19.43-1.2s.45.73.46,1.17v15.15a9.8,9.8,0,0,0,.14,2c.11.53.21,1.12-.35,1.22-.73.11-.73-.62-.73-1.17Q124.91,115.39,124.91,111Z"/><path class="cls-19" d="M144.52,110.08v8.39c0,.44.2,1.18-.46,1.16s-.43-.72-.43-1.2V103a11.24,11.24,0,0,0-.06-1.64c-.07-.49-.34-1.11.31-1.18s.65.67.66,1.21v7.91Z"/><path class="cls-19" d="M134.87,111.08v-8.56c0-.4-.17-1,.38-1.08.73,0,.5.68.5,1.11V114.4a30.46,30.46,0,0,0,.16,5.73c.07.38,0,.73-.34.8s-.64-.24-.72-.63a7.49,7.49,0,0,1,0-1.16Q134.85,115.11,134.87,111.08Z"/><path class="cls-19" d="M161.72,107.39v8.07c0,.53.32,1.45-.41,1.51s-.46-.93-.47-1.46V101.2a15.42,15.42,0,0,0-.13-2.45c-.08-.53,0-.92.48-1s.56.47.56.9Q161.72,103,161.72,107.39Z"/><path class="cls-19" d="M97.15,109.82v-8.54c0-.4-.22-1.06.33-1.08s.56.64.56,1.11v17.43c0,.36.08.88-.4.91s-.49-.56-.5-1C97.14,115.73,97.15,112.77,97.15,109.82Z"/><path class="cls-19" d="M152.06,108.66v-8.54c0-.46-.12-1.2.46-1.19s.43.73.43,1.22v17.09c0,.39.16,1-.38,1.07-.73,0-.5-.68-.5-1.1C152.05,114.35,152.06,111.51,152.06,108.66Z"/><path class="cls-19" d="M80.86,107.49v8.39c0,.43.21,1.16-.5,1.11s-.39-.68-.39-1.08V99.12c0-.53-.09-1.31.59-1.28s.36.73.36,1.25v8.4Z"/><path class="cls-20" d="M86.59,137.22a3.7,3.7,0,0,0,.31-1.91V123.65a3.5,3.5,0,0,1,.3-1.91h.6a2.84,2.84,0,0,0-.61,2v10.37c0,.38-.07.89.11,1.12C88.28,136.49,87.33,136.79,86.59,137.22Z"/><path class="cls-21" d="M128.83,123.73c-.62.59-1.36.33-2,.29-2.54-.11-5.08.38-7.62-.24a23.32,23.32,0,0,1,6-.12Z"/><path class="cls-22" d="M125.2,123.66l-6,.12h-.31c-.42.09-.83.26-1.2-.12A21.64,21.64,0,0,1,125.2,123.66Z"/><path class="cls-21" d="M117.67,123.66l1.2.12a8.59,8.59,0,0,1-4.82,0Z"/><path class="cls-23" d="M109.51,123.37l-3.29-.07A4.27,4.27,0,0,1,109.51,123.37Z"/><path class="cls-24" d="M136.36,123.32l-2.7.05A2.9,2.9,0,0,1,136.36,123.32Z"/><path class="cls-6" d="M86,204.56l.89-.05a51.26,51.26,0,0,0,8,1.24,235.39,235.39,0,0,0,31,1.65c2.31,0,4.61-.14,6.91-.21a6,6,0,0,0,3-.09q6.12-.58,12.25-1.2c5.3-.54,10.55-1.39,15.79-2.38.3,0,.6-.06.9-.06a3.13,3.13,0,0,1,2.77,3.39c0,3.34,0,6.69,0,10,0,1.25-.92,2-1.22,3.1-.93.22-.59,1-.59,1.62v12.51c0,.58.19,1.22-.29,1.71V222.48c0-1.94,0-1.89-1.75-1.59-2.41.42-5,.32-7.21,1.2s-4.28.13-6.38,1c-1.54.68-3.45.27-5.2.42a211.58,211.58,0,0,1-27.45,1c-6-.26-12.07-.37-18.09-1.16a87.94,87.94,0,0,0-10.49-1.08c-.9,0-1.45-.72-2.18-1-1.07-.09-1.36-1-1.57-1.89a23.05,23.05,0,0,1-.37-5.37c0-1.21.08-2.42,0-3.63A9.1,9.1,0,0,1,86,204.56Z"/><path class="cls-20" d="M86,204.56c.72.49.2.93-.08,1.3a2.65,2.65,0,0,0-.85,1.85c.15,3.71-.26,7.42.26,11.14a3.56,3.56,0,0,0,1.25,2.46v.33a34,34,0,0,1-5-.33,4.07,4.07,0,0,1-.6-.06c-2.17-.76-2.17-.77-2.17,1.83v10.66c0,1.59.52,3.12.32,4.71-1.09-1.19-.86-2.79-.87-4.19,0-4.54-.3-9.08.26-13.61a1.39,1.39,0,0,0-.48-1.54c-2-1.82-1.4-4.25-1.24-6.43.12-1.63.2-3.25.2-4.88,0-1.93-.07-3.83,2.18-4.35Z"/><path class="cls-25" d="M96.34,182.57a24.91,24.91,0,0,0,1-2.45c.26-.91.88-.73,1.45-.73.73.05.46.73.48,1.14v3.78c0,.5.19,1.11-.66,1.12s-.89-.46-.85-1.14a3.09,3.09,0,0,0-.21-1.41c-.38.82-.73,1.63-1.17,2.51-.73-.6-.73-1.66-1.26-2.33-.45.33-.24.81-.26,1.2,0,.59.16,1.2-.76,1.19s-.89-.42-.87-1.12v-3.78c0-.44-.23-1.09.48-1.15s1.22-.23,1.52.62S96,181.61,96.34,182.57Z"/><path class="cls-26" d="M121.67,182.53a4.35,4.35,0,0,0-.21,2c0,.51,0,1-.73,1s-.72-.4-.72-.95v-3.95c0-.38-.25-1,.3-1.12a1.17,1.17,0,0,1,1.38.33c.64.85,1.29,1.68,2,2.63a4.62,4.62,0,0,0,.18-2.09c0-.52,0-1,.69-.94s.73.45.73,1v3.94c0,.41.17,1-.38,1.1s-1,.2-1.39-.33C123,184.24,122.39,183.46,121.67,182.53Z"/><path class="cls-26" d="M128.18,182.27v2.39c0,.65-.22.76-.73.77s-.72-.23-.72-.78v-4.1c0-.39-.22-1,.33-1.12a1.16,1.16,0,0,1,1.38.35c.63.82,1.27,1.63,2.18,2.76v-2.42c0-.68.2-.76.73-.73s.77.14.76.73v4.59c0,.34-.05.72-.44.72s-1,.13-1.38-.39C129.7,184.21,129.07,183.43,128.18,182.27Z"/><path class="cls-25" d="M115.82,179.15a2.9,2.9,0,0,1,3.05,3.23,3,3,0,1,1-3.05-3.23Z"/><path class="cls-27" d="M150.08,182.43c0-3.05,0-3.1,2.84-3,.72,0,2-.72,2,.69,0,1.24-1.3.34-2,.61-.41.16-1.15-.36-1.2.5s.73.5,1.14.57a6,6,0,0,0,1.2,0c.49,0,.73.17.73.73s-.34.58-.73.58h-1.65c-.37,0-.73,0-.73.57s.39.4.68.41h1.8c.45,0,.8.08.8.72s-.45.61-.85.62h-1.35C150.06,185.43,150.06,185.43,150.08,182.43Z"/><path class="cls-26" d="M147.54,181.71c.83.48,1.61,1,1.27,2.25a2.35,2.35,0,0,1-2.45,1.68,2.52,2.52,0,0,1-2.61-1.51c-.35-.81.45-.59.77-.8.57-.3,1,.27,1.71.24-.51-.21-.94-.3-1.13-.73a1.78,1.78,0,0,1-1.22-2.13c.22-1.13,1.09-1.37,1.94-1.49a3,3,0,0,1,2.54.72c.54.5.66,1-.22,1.23-.65.38-1.22-.1-1.82-.22A2.64,2.64,0,0,1,147.54,181.71Z"/><path class="cls-28" d="M133,191.25c-2.7,4.89-6.72,7-11.62,6.94a12.19,12.19,0,0,1-11.36-7c.73-.51.95.11,1.23.52,5,7.59,15.3,7.72,20.41.26C131.92,191.55,132.1,190.94,133,191.25Z"/><path class="cls-29" d="M100.31,185.22c.77-1.76,1.51-3.54,2.33-5.28a1.28,1.28,0,0,1,1.77-.4,1.42,1.42,0,0,1,.41.4,51,51,0,0,1,2.25,5.59,5.47,5.47,0,0,0-6.69.19Z"/><path class="cls-29" d="M133,185.13c.73-1.66,1.45-3.34,2.18-5a1.26,1.26,0,0,1,2.34-.11,51.33,51.33,0,0,1,2.23,5.44c-2.26-1.15-4.47-1.65-6.65.32Z"/><path class="cls-27" d="M128.86,172.5a4.59,4.59,0,0,0-3.81-1.54c-1.6,0-2.85-.46-3.24-2.46-.45.4-.82.69-1.13,1-1.34,1.45-1.28,2.91.19,4.15.52.4,1.06.78,1.63,1.14.17.19.48.3.29.67-1.8-.38-3.36-1.12-4-3.23a2.74,2.74,0,0,1,0-1.45,4.94,4.94,0,0,1,2.08-3.07c.73-.63,1.46-1.29,2.18-1.94.27.3.07.54,0,.73-.38,2.82-.26,3,2.32,3.49,1.45.27,2.9.51,3.69,2.1C129.3,172.51,129.12,172.54,128.86,172.5Z"/><path class="cls-27" d="M112.53,179.43c-.68,1-1.14,1.77-1.71,2.45-.73.84-.52,1.84-.52,2.8,0,.59-.23.8-.73.73s-1,.12-.88-.54c.39-2.27-1-3.63-2.09-5.22,1.49-.45,1.52-.48,2.42.59.38.45.61.53.88,0C110.48,179.12,111.39,179.38,112.53,179.43Z"/><path class="cls-30" d="M140.84,182.23V180.1c0-.54.19-.77.73-.76s.84.14.83.81v4.41c0,.66-.26.83-.81.85s-.73-.33-.73-.9v-2.28Z"/><path class="cls-31" d="M117.65,171.52c-.14.41-.25.82-.4,1.21a1.79,1.79,0,0,0,.75,2.42l.07,0a8.3,8.3,0,0,0,4.61,1c-1.46,1.16-2.8.66-4.11.62-2.26-.29-3.1-1.51-2.49-3.63.43-.65.56-1.66,1.58-1.62Z"/><path class="cls-31" d="M117.3,177.1a8.82,8.82,0,0,1-1.78,0c-.92-.18-2-.34-2.18-1.63s.73-1.63,1.59-2c.83-.21.73.32.46.8-.57.91-.16,1.25.59,1.49a4.79,4.79,0,0,1,1.33.73.36.36,0,0,1,.13.51A.35.35,0,0,1,117.3,177.1Z"/><path class="cls-32" d="M117.3,177.1c-.18-1.2-1.24-.72-1.85-1.08-1-.54-1.46-1-.35-1.86.36-.29.85-.72-.14-.72.26-.67.73-.31,1.12-.26-.24,2.09,1,3,2.49,3.63A1.69,1.69,0,0,1,117.3,177.1Z"/><path class="cls-33" d="M145.1,182.81l1,.23c.44.09,1.06.21.89.8s-.78.29-1.2.21-.73-.82-1.3-.73Z"/><path class="cls-34" d="M147.54,181.71a3.44,3.44,0,0,1-2.07-.8c1-1.38,1.76.57,2.67.22Z"/><path class="cls-30" d="M122.82,175.49l-.3-.67,1.51.4c.22.33.91-.29.88.53A3,3,0,0,1,122.82,175.49Z"/><path class="cls-35" d="M124.88,175.75l-.88-.53h2.45A1.74,1.74,0,0,1,124.88,175.75Z"/><path class="cls-36" d="M129.49,172.79a2.1,2.1,0,0,1-.13,2.18c-.44-.5-.16-1-.19-1.5C129.36,173.29,129.18,172.91,129.49,172.79Z"/><path class="cls-37" d="M118.82,170.8v1.45c-.14-.72-.48-1-1.15-.72h0C117.78,170.8,118.37,170.93,118.82,170.8Z"/><path class="cls-38" d="M129.49,172.79c-.05.26-.05.55-.32.68l-.31-1,.29-.35Z"/><path class="cls-39" d="M114.36,157.26a2.7,2.7,0,0,1,.73-.23h14.58a2.31,2.31,0,0,1,.68.25C125,157.45,119.69,157.48,114.36,157.26Z"/><path class="cls-40" d="M135.73,207.1a3.16,3.16,0,0,1-3,.09Z"/><path class="cls-41" d="M173.18,219.33l.9-.33-.3,1V233.1c-.28.81-.05,1.73-.4,2.53l-.16.18c-.93-.2-.66-1-.58-1.6.56-4.08.16-8.2.26-12.29A10.28,10.28,0,0,1,173.18,219.33Z"/><path class="cls-41" d="M173.78,220c.5.48.29,1.13.29,1.7v10.81a15.74,15.74,0,0,1-.44,4.69l-.46-1.38c.41-.83-.11-1.79.29-2.63a52.9,52.9,0,0,0,.16-6.54A64.59,64.59,0,0,1,173.78,220Z"/><path class="cls-20" d="M78.74,122.4c0,3.77.1,7.54,0,11.3-.07,1.82.59,2.62,2.12,2.81l5.76.73v.32c-1.61.53-1.22,2.12-1.32,3.3a54.61,54.61,0,0,0,.07,11.07c.11.88,1.15,1.45.58,2.51A57,57,0,0,1,79,153.32c-2.28-1.95-2.67-4.5-2.18-7.48a31.93,31.93,0,0,0,.1-5.08c0-1.45-.08-2.85,1-3.94.17-.16.13-.61.18-.93V124C78.16,123.42,77.81,122.61,78.74,122.4Z"/><path class="cls-42" d="M175.14,138.62a3.9,3.9,0,0,1,0,2.09A3.72,3.72,0,0,1,175.14,138.62Z"/><path class="cls-17" d="M173.48,119.79a1.52,1.52,0,0,1,.3-1.65v14.39h-.3Z"/><path class="cls-17" d="M172.58,133V119.73a.92.92,0,0,1,.08-.27l.22.3v11.49C172.87,131.82,173.06,132.47,172.58,133Z"/><path class="cls-43" d="M117.33,182.34c-.08,1-.48,1.71-1.45,1.75s-1.45-.6-1.52-1.6a1.47,1.47,0,0,1,1.48-1.78C116.9,180.71,117.21,181.42,117.33,182.34Z"/><path class="cls-44" d="M103.63,181.5a2.11,2.11,0,0,1,.73,1.46,2,2,0,0,1-1.3.06C103.07,182.39,103.45,182,103.63,181.5Z"/><path class="cls-45" d="M136.48,181.4l.65,1.45c-.43.4-.85.22-1.3.18C135.75,182.41,136.07,182,136.48,181.4Z"/><path class="cls-46" d="M173.78,220v11.49c0,.57.2,1.21-.29,1.7V221.68C173.49,221.12,173.29,220.47,173.78,220Z"/><path class="cls-5" d="M173.48,233.18c-.13.87.3,1.83-.3,2.63C173.31,234.94,172.88,234,173.48,233.18Z"/><rect class="cls-47" width="250" height="250"/></svg>