<svg id="Layer_1" data-name="Layer 1" xmlns="http://www.w3.org/2000/svg" viewBox="0 0 250 250"><defs><style>.cls-1{fill:#ea5e5f;}.cls-2{fill:#b54c50;}.cls-3{fill:#c2b59b;}.cls-4{fill:#f19292;}.cls-5{fill:#f29d9d;}.cls-6{fill:#cd8688;}.cls-7{fill:#934145;}.cls-8{fill:#924145;}.cls-9{fill:#c25458;}.cls-10{fill:#934146;}.cls-11{fill:#e8ba5f;}.cls-12{fill:#f1d59d;}.cls-13{fill:#de9e26;}.cls-14{fill:#de9e27;}.cls-15{fill:#f29d9c;}.cls-16{fill:#de9d27;}.cls-17{fill:#e8b161;}.cls-18{fill:#e9b064;}.cls-19{fill:#ebc37a;}.cls-20{fill:#e8b85e;}.cls-21{fill:#eac175;}.cls-22{fill:#df9d2b;}.cls-23{fill:#df982d;}.cls-24{fill:#df9b2b;}.cls-25{fill:#dad2c2;}.cls-26{fill:#de9e28;}.cls-27{fill:#de9c29;}.cls-28{fill:#de9d28;}.cls-29{fill:#df9c29;}.cls-30{fill:#de9d29;}.cls-31{fill:#df992c;}.cls-32{fill:#df9b2a;}.cls-33{fill:#de9c28;}.cls-34{fill:#e0972e;}.cls-35{fill:#df9b2c;}.cls-36{fill:#e0982e;}.cls-37{fill:#df992e;}.cls-38{fill:#df982e;}.cls-39{fill:#e09730;}.cls-40{fill:#e0992f;}.cls-41{fill:#e09732;}.cls-42{fill:#e09731;}.cls-43{fill:#e19333;}.cls-44{fill:#e09c2f;}.cls-45{fill:#f2f2f2;}.cls-46{fill:#f1d49d;}.cls-47{fill:#e8b95f;}.cls-48{fill:#e8b95e;}.cls-49{fill:#de9c2a;}.cls-50{fill:#e7b75d;}.cls-51{fill:#e09430;}.cls-52{fill:#ec8485;}.cls-53{fill:#eeaeae;}.cls-54{fill:#edaaaa;}.cls-55{fill:#e0992e;}.cls-56{fill:#ebc37b;}.cls-57{fill:#ebc27d;}.cls-58{fill:#ea5f5e;}.cls-59{fill:#ea605e;}.cls-60{fill:#ea615e;}.cls-61{fill:#e9615d;}.cls-62{fill:#e9625d;}.cls-63{fill:#ea625e;}.cls-64{fill:#ea625d;}.cls-65{fill:#e9625e;}.cls-66{fill:#e9655c;}.cls-67{fill:#ebc47a;}.cls-68{fill:#f29e9b;}.cls-69{fill:#f1d49b;}.cls-70{fill:#ea6661;}.cls-71{fill:#f1d39c;}.cls-72{fill:#ebc279;}.cls-73{fill:#f1d19d;}.cls-74{fill:#f29e9c;}.cls-75{fill:#ea615f;}.cls-76{fill:#ebc47c;}.cls-77{fill:#ecc57f;}.cls-78{fill:#ebc37c;}.cls-79{fill:#edbb86;}.cls-80{fill:#ecc081;}.cls-81{fill:#ecc180;}.cls-82{fill:#ecbd81;}.cls-83{fill:#edbc83;}.cls-84{fill:#ebc37d;}.cls-85{fill:#f1a29b;}.cls-86{fill:#ecc47e;}.cls-87{fill:#f1a49d;}.cls-88{fill:#f1a49b;}.cls-89{fill:#f1a49a;}.cls-90{fill:#f1a89a;}.cls-91{fill:#ea6f62;}.cls-92{fill:#ea605d;}.cls-93{fill:#ea635e;}.cls-94{fill:#de9e29;}.cls-95{fill:#df9e2a;}.cls-96{fill:#e9635d;}.cls-97{fill:#e9655d;}.cls-98{fill:#df9d2a;}.cls-99{fill:#df9e2b;}.cls-100{fill:#e9675c;}.cls-101{fill:#e9645d;}.cls-102{fill:#e9665c;}.cls-103{fill:#df9e29;}.cls-104{fill:#e9635c;}.cls-105{fill:#e9665b;}.cls-106{fill:#e9675a;}.cls-107{fill:#df9e2d;}.cls-108{fill:#e9675d;}.cls-109{fill:#ea685e;}.cls-110{fill:#e9695b;}.cls-111{fill:#e9665d;}.cls-112{fill:#df9f2b;}.cls-113{fill:#dfa02b;}.cls-114{fill:#e9675b;}.cls-115{fill:#e96859;}.cls-116{fill:#e86c59;}.cls-117{fill:#e96b5a;}.cls-118{fill:#e86b59;}.cls-119{fill:#df9e2c;}.cls-120{fill:#e96a5b;}.cls-121{fill:#ea5f60;}.cls-122{fill:#ecc27e;}.cls-123{fill:#f2a59a;}.cls-124{fill:#ecc580;}.cls-125{fill:#ecc482;}.cls-126{fill:#f2a39c;}.cls-127{fill:#f1a99a;}.cls-128{fill:#df9d2c;}.cls-129{fill:#e96a5c;}.cls-130{fill:#dfa02f;}.cls-131{fill:#df9c2b;}.cls-132{fill:#e96c5a;}.cls-133{fill:#ebc47d;}.cls-134{fill:#ecc57e;}.cls-135{fill:#ecc67f;}.cls-136{fill:#ebc57f;}.cls-137{fill:#f1a598;}.cls-138{fill:#f1a79a;}.cls-139{fill:#f1a499;}.cls-140{fill:#f1a69b;}.cls-141{fill:#f1a399;}.cls-142{fill:#f1a999;}.cls-143{fill:#f1a597;}.cls-144{fill:#f1a19c;}.cls-145{fill:#f1ac9a;}.cls-146{fill:#f1a898;}.cls-147{fill:#ebc57d;}.cls-148{fill:#f1a29a;}.cls-149{fill:#f2a39b;}.cls-150{fill:#f1a599;}.cls-151{fill:#f1a69a;}.cls-152{fill:#f1a397;}.cls-153{fill:#f1a996;}.cls-154{fill:#ebc47e;}.cls-155{fill:#ebc57c;}.cls-156{fill:#f1a39a;}.cls-157{fill:#f2a19b;}.cls-158{fill:none;}</style></defs><title>products</title><path class="cls-1" d="M53.8,228.62a39.7,39.7,0,0,1-.91-6.6c-.51-4.82-1.12-9.64-1.33-14.49a.92.92,0,0,1,.57-.92c3-1.28,6-2.66,9.33-2.93,1,.65,1.08,1.83,1.33,2.79A54,54,0,0,0,67,218.32a12.5,12.5,0,0,0,2.1,3.09c1.78,1.83,3.28,1.71,4.77-.4a14.65,14.65,0,0,0,2-4.64,80.83,80.83,0,0,0,2.35-12.9c.1-1,.11-2,1.16-2.62a16.87,16.87,0,0,1,5.4-.13c18,1.16,35.65,4.75,53.38,7.88,10.06,1.76,20.11,3.41,30.25,4.26a160.57,160.57,0,0,0,24.52.2,12.85,12.85,0,0,1,4.46,0,2.2,2.2,0,0,1,.31,1.78c-.33,4.49-.91,8.95-1.32,13.43a4.07,4.07,0,0,1-.69,2.11c-1,.8-2.13.13-3.19.19l-2.2.12a13.84,13.84,0,0,1-2.31-.34c-6.57-1.29-13.25-1.67-19.89-2.35-6.4-.64-12.8-.91-19.26-1.4-2.74-.22-5.49-.32-8.23-.37-4.81-.08-9.61-.59-14.43-.49s-9.74-.18-14.62-.31c-8.23-.24-16.46.23-24.76.42-9.23.2-18.48.7-27.68,1.75a5.84,5.84,0,0,0-2.3.72A5.13,5.13,0,0,1,53.8,228.62Z"/><path class="cls-2" d="M52.41,66a76.57,76.57,0,0,1-5.48-18.63c2.19-.8,4.57-.4,6.81-.54q7.11-.44,14.23-.29a47.84,47.84,0,0,1,5.61.22c2.55.3,5.1-.28,7.65-.4,2.93-.14,5.83-.5,8.75-.67,4.48-.28,9-.49,13.45-.69,3-.14,6-.28,9-.33q8.43-.1,16.88-.12c3.66,0,7.26,0,10.88.13,5.8.19,11.59.42,17.37.76,4.85.27,9.69.69,14.53,1.11,2.85.25,5.68.65,8.54.92,1.17.12,2.36.14,3.54.16,5.49.13,11,.65,16.53,1.1.18,2.14-.57,4.16-.69,6.23.56,1.26.09,2.46-.3,3.61-.82,2.41-1.73,4.78-1.49,7.39a.67.67,0,0,1-.34.62c-1.91.65-3.88.23-5.83.33-.68-.21-1.75.24-1.83-1a3.43,3.43,0,0,1,2.56-.81c-1.92-.52-3.9.08-5.87,0-7.38-.27-14.76.15-22.13.45-27.64,1.11-55.29.65-82.93.54-7.49,0-15-.13-22.5-.3a5.18,5.18,0,0,0-3.1.5C54.94,66.56,53.63,66.86,52.41,66Z"/><path class="cls-2" d="M171,247.71c-.44.51-1,.34-1.58.35h-4.31c-7.32.14-14.63.19-21.89.49-7.86.31-15.72-.06-23.58.31-14.36.67-28.71.1-43.08.31a7.92,7.92,0,0,1-2.74-.26,3.33,3.33,0,0,0-2,.12,13,13,0,0,1-4.43.55,14.9,14.9,0,0,0-3.53.27,6.33,6.33,0,0,1-2.74,0,16.19,16.19,0,0,0-4.66-.17l-3.54-.15c-1.57-.07-1.6-.14-1.66-1.78a47.72,47.72,0,0,1,2.32-16.56,6.42,6.42,0,0,0,.29-2.57c.78-.83,1.82-.29,2.74-.46a2.41,2.41,0,0,1,1.74-.31,22.79,22.79,0,0,0,4.29.17c16.53.52,33.08.16,49.61.49,6.17.12,12.34.05,18.51.31a40.34,40.34,0,0,1,5.92.55c1.08.76.92,2,1.07,3.06.52,4,1,8,1.28,12.1a5,5,0,0,0,.3,1.52c.33-5.19.15-10.06-1.43-14.72-.21-.6-.68-1.27,0-1.89a20.67,20.67,0,0,1,7.06-.19c2.92.3,5.83.18,8.75.24a22.51,22.51,0,0,1,6.28.64c.91.69.8,1.78,1,2.75.75,4.28,1.3,8.61,1.9,12.92a28.13,28.13,0,0,0-1.57-13.14c-.29-.77-1-1.54-.2-2.42a11.66,11.66,0,0,1,5.66-.07c.71.4.62,1.14.78,1.83,1.23,5.15,2.17,10.36,3.57,15.47C171,247.51,171,247.58,171,247.71Z"/><path class="cls-1" d="M52.41,66h3.78c.5-.36,1-.15,1.57-.13,5.85.92,11.76,1.31,17.64,1.9,3,.3,6-.11,8.9.92.92.52.43,1.17.11,1.72A29.52,29.52,0,0,1,82.17,74c-.91.66-2.15.18-3.28.56.21,1,1.38,1.08,1.55,2a8.7,8.7,0,0,1-2.06,4.94.55.55,0,0,1-.54-.08c-.73-1.31-1-2.81-1.77-4.12-1.3-2.3-3.07-4.09-5.82-4.17A6.73,6.73,0,0,0,64,76.86a14.33,14.33,0,0,0,0,14.51,6.62,6.62,0,0,0,7,3.77,2.6,2.6,0,0,1,1.3,0c.49.61.16,1.2-.06,1.83-.38.49-.87.92-.68,1.7a33.75,33.75,0,0,1-2,6.29c-.46.74-2,.25-1.89,1.66a34.29,34.29,0,0,0-3.93,6.92,1.67,1.67,0,0,1-.36.34c-.46.28-.36.66-.21,1.06a2.26,2.26,0,0,1,0,.52c-.61,1.82-.92,3.77-1.69,5.57a2.16,2.16,0,0,1-.37.37c-1,.49-.16,1.11-.1,1.68a2.45,2.45,0,0,1,.06.6,198.69,198.69,0,0,0-2.75,21.19c-.2,2.79-.09,5.62-.75,8.38a17.91,17.91,0,0,1-8.5,2.83c0-.68-.08-1.37-.08-2.05,0-8.74-.07-17.49,0-26.23,0-6.4.25-12.8.48-19.26.17-4.67.39-9.33.75-14,.7-8.86,1.07-17.76,2.48-26.51A7.21,7.21,0,0,0,52.41,66Z"/><path class="cls-1" d="M51,200.33c-.16-2.1-.36-4.2-.49-6.32-.26-4.27-.51-8.56-.71-12.85s-.54-8.46-.41-12.69c0-1.38-.48-2.74-.23-4.09,2-2.22,4.67-3.3,7.32-4.51a.81.81,0,0,1,1.11.27,1,1,0,0,1,.09.21c.43,2.22.14,4.45.21,6.67a25.19,25.19,0,0,0,.24,4.25,8.5,8.5,0,0,1-.05,2.89,1.91,1.91,0,0,1-.92,1.13c-.65.11-1.83-.15-.81,1.16a2.19,2.19,0,0,1-1.14,2c-.63.13-1.15-.3-1.83-.46.24.76.87,1.12,1.13,1.68s.08,1.27,1,1.1a4.8,4.8,0,0,1,1.67,1.53c.53.75,1.73,1,1.77,2.12.67,4,1.08,8.1,1.83,12.11a3.75,3.75,0,0,1-.08,2c-.08.16-.16.4-.33.44C57.2,199.63,54.16,200.55,51,200.33Z"/><path class="cls-3" d="M51,200.33a60,60,0,0,1,8-1.44c.49-.06,1,.05,1.39-.35a.34.34,0,0,1,.48.06l0,0a14.31,14.31,0,0,1,.91,4.76.92.92,0,0,1-.33.47c-2.51.83-5,1.66-7.55,2.52a5.76,5.76,0,0,0-2.3,1.16c-.07-.11-.18-.21-.19-.32Z"/><path class="cls-3" d="M57.21,159.93a47.57,47.57,0,0,0-7.13,3.93,2.2,2.2,0,0,1-1,.52L49,156.06c2.74-.92,5.4-1.93,8.17-2.69l.25.22a14.54,14.54,0,0,1,.17,5.84A1.08,1.08,0,0,1,57.21,159.93Z"/><path class="cls-3" d="M197.67,207.51c.14,1.92-.5,3.78-.42,5.69a69.17,69.17,0,0,1-9.86.73c-4.32,0-8.65.15-12.95-.1-3.65-.2-7.31-.45-11-.91-3.21-.41-6.4-.74-9.62-1.23-3.66-.57-7.38-1.11-11.07-1.74-6.07-1-12.13-2.12-18.2-3.18-4.72-.83-9.43-1.71-14.16-2.46-3.93-.63-7.88-1.15-11.83-1.67q-6.41-.81-12.8-1.22c-2.24-.13-4.47-.21-6.72-.26l-.23-.24a3.68,3.68,0,0,1,.17-3.25,1.9,1.9,0,0,1,.6-.31,71.94,71.94,0,0,1,13.84.43c19.2,1.71,37.9,6,56.85,9.05a105.79,105.79,0,0,0,15.29,1.24c4.69.08,9.38,0,14.07,0a135.15,135.15,0,0,0,15.71-.91C196.15,207.13,197,206.91,197.67,207.51Z"/><path class="cls-2" d="M195.42,230.42a57.56,57.56,0,0,0,.91,6.26,24.65,24.65,0,0,1,.6,5c-.05,1.39.5,2.7.4,4.09-.05.91-.37,1.22-1.23,1.2-3.93-.16-7.84.34-11.77.46-4.43.15-8.84.3-13.28.3h0c-.57-1.54-.15-3.17-.37-4.76a38.36,38.36,0,0,0-3-10.91c-.25-.54-.87-1.16-.17-1.83,4.34.12,8.69-.18,13,.15a67.56,67.56,0,0,0,9.65.08c1.29-.69,2.64-.35,4-.21A9.19,9.19,0,0,0,195.42,230.42Z"/><path class="cls-4" d="M58,228.19h-1.5c.32-1.15,1.43-.92,2.17-1,3.21-.36,6.4-.66,9.65-.91,5.1-.33,10.2-.49,15.3-.8,3.65-.21,7.23-.26,10.84-.25,6,0,12-.78,18-.35,6.4.45,12.74.06,19.09.41,3.12.18,6.24.11,9.34.33,4.57.31,9.2.53,13.8.78,3.41.19,6.83.44,10.23.74q6,.53,12.07,1.12c3.57.36,7.13,1,10.69,1.48a1,1,0,0,1,.65.33c-1.83,1.1-3.76.52-5.65.42-.91,0-1.83-.22-2.8-.22-11,.06-21.94-.67-32.91-.78-8.23-.08-16.45-.39-24.68-.58-15.62-.38-31.22-.2-46.83-.38-5.37-.06-10.74,0-16.11-.14A2.29,2.29,0,0,1,58,228.19Z"/><path class="cls-5" d="M79.05,201.15c-.61,1.67-.42,3.44-.7,5.16-.75,4.41-1.34,8.84-3,13a9.75,9.75,0,0,1-1.63,2.74c-1.35,1.57-2.85,1.66-4.41.32a11.83,11.83,0,0,1-2.65-3.59,55,55,0,0,1-4.49-12.68,7.76,7.76,0,0,0-.78-2.29l.07-.13c.14-.11.26-.29.44-.34,5.28-1.68,10.64-3,16.25-2.68A1.38,1.38,0,0,1,79,201Z"/><path class="cls-6" d="M58,228.19c18.28,0,36.51-.23,54.76.1,7.61.14,15.24-.15,22.86.35,6,.38,12-.11,18,.37,4.81.37,9.62-.06,14.39.36,4.5.41,9,0,13.46.37,2.3.18,4.57.32,6.9.3a3.33,3.33,0,0,1,1.83.38,6,6,0,0,1-3.17.73,39.38,39.38,0,0,1-6.14-.25,31.28,31.28,0,0,0-5-.08,69.76,69.76,0,0,1-8.55-.32.22.22,0,0,1-.31.05l-.05-.05-6-.05a.53.53,0,0,1-.74,0c-4.33-.55-8.71-.17-13-.49-3.17-.24-6.34-.19-9.5-.29a.5.5,0,0,1-.71,0l0,0c-7.1-.49-14.23-.15-21.32-.46-13.24-.57-26.51,0-39.7-.4-5.54-.17-11.09-.15-16.63-.29C58.78,228.53,58.33,228.57,58,228.19Z"/><path class="cls-1" d="M198,66.38c.12,4.67.7,9.31.92,14s.47,9.44.76,14.15c.21,3.43,0,6.87.33,10.27.55,6.48,0,13,.41,19.44.35,5.75.16,11.47.23,17.2-1,1.4-2.57,1.72-4,2.18a101.63,101.63,0,0,1-15,3.25c-8.1,1.23-16.22,2.38-24.4,2.94a75.86,75.86,0,0,1-13.31-.12c-3.42-.36-6.86-.21-10.3-.38-4.24-.21-8.48-.43-12.73-.56-4.88-.13-9.75-.3-14.63-.32a245.38,245.38,0,0,0-24.69.82,2.91,2.91,0,0,1-2-.18c-1.13-1.93-.57-4.13-.83-6.18-.35-2.88-.5-5.8-.82-8.7A4.4,4.4,0,0,1,78,132c.36-.62.83-.54,1.34-.23a1.7,1.7,0,0,1,.56,1.63c.58-.12.92-.68,1.56-.79a126.88,126.88,0,0,1,13.87,5.16c.34,1.43,1.23.8,2,.53a34.69,34.69,0,0,1,6.82,2.24c.54.92-.32,2.09.41,3.05,1.16-.42,1.21-1.92,2.36-2.28,1.68.3,3.39.45,4.83,1.48.66,1.08-.36,2.3.27,3.51,1.29-.72,1.57-2.23,2.6-3.07.82-.4,1.73.3,2.64-.23-.06-.91-1.08-1.17-1.28-1.93a12.08,12.08,0,0,1,2.74-5.74c.74-.45,1.66-.15,2.51-.54-.21-.91-1.41-1.07-1.49-2a18.3,18.3,0,0,1,2.31-5.64c.52-.52,1.36-.17,1.83-.7,0-.69-.83-.92-.91-1.6a11.21,11.21,0,0,1,2-5.24c.79-.56,1.83-.17,2.74-.61-.33-.92-1.41-1.17-1.69-2,0-1.83.91-3.44,1.56-5.09,1-.79,2.32.36,3.41-.44-.31-1.3-2.08-1.37-2.32-2.75a28.78,28.78,0,0,1,1.57-5.14c1.15-1.08,2.63.33,3.89-.45-.47-1.51-2.56-1.42-2.84-3a21,21,0,0,1,1.18-4.39c.73-.68,1.52-.24,2.29-.1a5.47,5.47,0,0,0,3,.12c-1-1.83-3.33-2-4.26-3.66-.35-.78.11-1.74-.49-2.51-.92.12-1.06,1.24-1.9,1.41a13.37,13.37,0,0,1-5.84-3c-.32-.67,0-1.45-.4-2.23-.92.07-1.14,1.24-2,1.28a13,13,0,0,1-5.66-2.36c-.6-1.73-.6-1.73-2.3-.78-1.83-.59-3.87-.76-5.35-2.23-.37-.71,0-1.59-.45-2.31-1.06.17-1.21,1.34-2.07,1.59A10.16,10.16,0,0,1,101.82,79c-.31-1.07.36-2.17-.18-3.33-1.23.48-1.41,2-2.47,2.56a13.49,13.49,0,0,1-5.49-1.51c-.8-1-.05-2-.13-3.07,0-.37.07-.84-.35-1s-.65.26-.92.55c-.72.91-1,2.2-2.21,2.74-1.6-.18-3.24-.28-4.57-1.42a10.32,10.32,0,0,1,1.09-5.75,2.83,2.83,0,0,1,1.83-.29c2.85.47,5.76.07,8.6.37,4.74.51,9.49.21,14.23.32,2.81,0,5.62,0,8.42.3,3.12.36,6.22-.42,9.36-.32,9.69.29,19.36-.32,29-.8q11.76-.59,23.49-1.78a5.46,5.46,0,0,0,.91-.2,18.42,18.42,0,0,1,3.48-.18c2-.21,4,.56,6.06.2Z"/><path class="cls-6" d="M186,66.72h-3.37c-5.89.63-11.79.78-17.7,1-19.2.69-38.5.39-57.75.27-11.74-.07-23.48-.3-35.21-.78-4.58-.19-9.15-.12-13.62-1a1.58,1.58,0,0,0-1.09.13L56.19,66c.38-.91,1.22-.72,1.94-.72H71.27c21,.62,42.12.3,63.19.37,3.75,0,7.52.21,11.25-.08,5.31-.39,10.62,0,15.91-.39,3.87-.29,7.75,0,11.59-.35,5.12-.47,10.25,0,15.34-.41,2.24-.16,4.36.29,6.56.28-1.51,1-3.29.92-4.92,1.35C188.92,67,187.39,66.22,186,66.72Z"/><path class="cls-7" d="M124.83,65.2c-.53-1.91,1.18-17.72,2-19.51C128.6,48.42,127.32,61.29,124.83,65.2Z"/><path class="cls-8" d="M132.58,64.43c-.46-2.92,1.65-16.94,2.74-18.52C136.74,48.78,134.92,61.73,132.58,64.43Z"/><path class="cls-7" d="M100.8,46a76.74,76.74,0,0,1,1,18.72C99.75,62.6,99,49.3,100.8,46Z"/><path class="cls-8" d="M94.61,64.91C92.31,62.29,91.26,50.36,93,46.3a1.81,1.81,0,0,1,.66,1.61c0,1.13.29,2.25.29,3.33,0,4.18.92,8.29.84,12.47C94.8,64.11,95,64.56,94.61,64.91Z"/><path class="cls-8" d="M156.66,46.74c1.48,2.88-1.55,14.81-4.46,17.54-.44-.24-.3-.64-.24-1C152.92,58.28,155.87,47.91,156.66,46.74Z"/><path class="cls-7" d="M108.27,64.64c-1.45-5.81-1.88-11.63-.27-17.49a31.73,31.73,0,0,1,1,8.66C109.13,58.7,109.48,61.76,108.27,64.64Z"/><path class="cls-8" d="M118.82,64.31c.21-3.28-.16-6.4.31-9.48a60.28,60.28,0,0,1,1.17-7.32c.08-.24.07-.49.15-.72a.63.63,0,0,1,.69-.49c.38.07.33.35.32.59a39.49,39.49,0,0,1-.21,6.15c-.3,1.64-.32,3.33-.53,5s-.5,3.3-.81,4.95A1.63,1.63,0,0,1,118.82,64.31Z"/><path class="cls-8" d="M86.48,64.87C84,61.46,83,50.67,84.65,46.59a2.14,2.14,0,0,1,.71,1.66c-.1,1.89.41,3.66.47,5.57s.4,4.06.62,6.09A31.59,31.59,0,0,1,86.48,64.87Z"/><path class="cls-8" d="M113.77,64.22a5.07,5.07,0,0,1-.57-2.57c0-3.11,0-6.23,0-9.35a26.67,26.67,0,0,1,.7-5.33c.08-.28,0-.68.46-.68s.6.38.65.76a6.91,6.91,0,0,1,0,.91c0,3.37.13,6.75-.05,10.06a22.36,22.36,0,0,1-.66,5.33C114.25,63.7,114.25,64,113.77,64.22Z"/><path class="cls-7" d="M163.51,51a31.6,31.6,0,0,1-3,12.38c-.11.22-.22.45-.34.66s-.35.75-.8.62-.38-.62-.27-.91c.21-.61.2-1.24.36-1.83,1-4,1.83-8,2.74-12,.08-.42.19-.85.31-1.26s.29-.57.68-.49.33.34.34.58C163.52,49.5,163.51,50.25,163.51,51Z"/><path class="cls-8" d="M51.63,47.59a1.81,1.81,0,0,1,1.13,1.6,87.05,87.05,0,0,0,3.45,14.25,3.38,3.38,0,0,1,.23.7.66.66,0,0,1-.16.5.46.46,0,0,1-.63-.16v0a9.23,9.23,0,0,1-.63-.91,21.55,21.55,0,0,1-3.37-11.07C51.63,50.93,51.63,49.4,51.63,47.59Z"/><path class="cls-7" d="M149.27,46.74c1.61,2.88-.54,13.71-3.13,16.45a1.86,1.86,0,0,1-.24-1.6C147,56.65,147.65,51.61,149.27,46.74Z"/><path class="cls-8" d="M139.17,63.37a151.89,151.89,0,0,1,3.06-16.92C144.07,49.25,142,61.08,139.17,63.37Z"/><path class="cls-8" d="M57.43,47.66a3.72,3.72,0,0,1,.27.48,6.4,6.4,0,0,1,.33,1A106,106,0,0,0,61.39,63.7a.42.42,0,0,1-.19.47C58.22,62.11,56,53.77,57.43,47.66Z"/><path class="cls-8" d="M185.28,47.91a22,22,0,0,1,0,3.44c-.63,3.16-1.05,6.4-2.27,9.39a7.78,7.78,0,0,1-2.1,3c-.2.17-.45.28-.65.05a.62.62,0,0,1-.1-.51c.2-.6.44-1.16.67-1.74.92-2.32,1.17-4.83,1.83-7.2.39-1.32.73-2.64,1.14-3.94A5.21,5.21,0,0,1,185.28,47.91Z"/><path class="cls-7" d="M65.9,64.11c-1.37-1.76-1.71-3.74-2.16-5.65a30.59,30.59,0,0,1-.85-9.05V48.5a.57.57,0,0,1,.56-.62c.39,0,.43.26.48.5a26.12,26.12,0,0,1,.76,3.26c.43,3.5.92,7,1.5,10.46A2.46,2.46,0,0,1,65.9,64.11Z"/><path class="cls-7" d="M78.9,64.8c-1.31-1.4-1.35-3-1.62-4.37a48.81,48.81,0,0,1-.91-8.69,15.12,15.12,0,0,1,.5-2.75.57.57,0,0,1,.37-.37c.28-.09.47.12.54.36a8,8,0,0,1,.49,2c0,1.11.16,2.23.22,3.33C78.7,57.7,79.41,61.08,78.9,64.8Z"/><path class="cls-7" d="M69.3,51.94a6.3,6.3,0,0,1,.48-3.32.62.62,0,0,1,.39-.35.47.47,0,0,1,.52.41h0a8.55,8.55,0,0,1,.39,2c0,1.69.37,3.33.51,5a51.09,51.09,0,0,0,.61,6.42,3.77,3.77,0,0,1,0,1.11.58.58,0,0,1-.54.65c-.37,0-.4-.26-.49-.5a21.94,21.94,0,0,1-1.48-6.5C69.62,55.19,69.05,53.56,69.3,51.94Z"/><path class="cls-7" d="M169,48.21c1.71,3.34,0,12.19-2.74,15-.51-2.74.68-5.09,1.08-7.51A38.81,38.81,0,0,1,169,48.21Z"/><path class="cls-8" d="M177.07,49.89a9.29,9.29,0,0,1,.28,4.68,18.6,18.6,0,0,1-3.73,9.25c-.24.29-.46.7-.91.43-.28-.17-.23-.57-.15-.91s.25-.84.39-1.26A80.21,80.21,0,0,0,176.33,51,2.05,2.05,0,0,1,177.07,49.89Z"/><path class="cls-7" d="M192,52.38c.06,3.52-1.42,6.5-3.39,9.29a4.19,4.19,0,0,1-.68.65.7.7,0,0,1-.86.16c-.4-.25-.27-.63-.11-1,.53-1.26,1.2-2.46,1.74-3.72a44.56,44.56,0,0,0,2.2-7.31c.09-.37.16-.8.65-.72.34.07.43.43.44.75C192.05,51.12,192,51.75,192,52.38Z"/><path class="cls-7" d="M196.45,49.24a1.15,1.15,0,0,1,.81,1.1c.32,3.94-.2,7.7-2.53,11a3.31,3.31,0,0,1-.6.69.7.7,0,0,1-.53.06c-.3-.07-.31-.32-.25-.58.15-.54.25-1.1.43-1.62a40.89,40.89,0,0,0,2.06-9.06A3.68,3.68,0,0,1,196.45,49.24Z"/><path class="cls-9" d="M186,66.72c1.31-.62,2.74-.36,4.15-.7.54.59,1.25.24,1.88.35-.44.51-1,.36-1.56.36C189,66.75,187.53,66.73,186,66.72Z"/><path class="cls-1" d="M197.67,207.51c-3.71.36-7.42.79-11.13,1.08-2.06.16-4.13.09-6.2.09-6,0-12,.11-18-.09A95,95,0,0,1,147.86,207c-5.49-1-11-1.93-16.55-2.9-3.66-.64-7.22-1.33-10.83-2-4.47-.8-9-1.53-13.46-2.14-3.51-.47-7-1.06-10.54-1.38l-5.39-.51c-3.87-.37-7.74-.34-11.61-.41-1-1.26-.68-2.74-.54-4.13.22-2.06.26-4.12.36-6.17a3.11,3.11,0,0,1,.1-.61,51.23,51.23,0,0,1,5.72-7.56c.91,0,.72-.52.53-1.06a2.35,2.35,0,0,1,1.51-2c1.59.23.21-.65.36-1,0-.66-.38-.92-1-1a4.38,4.38,0,0,1-1.67-1.64,1.14,1.14,0,0,1-.14-.7c.1-.47.26-.92-.42-.29a.82.82,0,0,1-.7,0,5,5,0,0,1-1.76-1.47,1.5,1.5,0,0,0-1.13-.86,1.47,1.47,0,0,1-.85-.77,2.3,2.3,0,0,1-.15-.64c.07-4.32-.51-8.62-.47-12.93a4.13,4.13,0,0,1,.52-2.75,8.72,8.72,0,0,1,4.18-.85c4.18-.29,8.35-.55,12.56-.46s8.5,0,12.8,0c8.88.05,17.72.66,26.59,1,9.94.41,19.89.8,29.82.4A155.62,155.62,0,0,0,198,148a2.6,2.6,0,0,1,2.35.06c0,4.44.21,8.89-.08,13.3-.23,3.56,0,7.12-.36,10.65-.25,2.93-.15,5.86-.35,8.77-.3,4.42-.54,8.82-.77,13.24-.19,3.53-.53,7.07-.71,10.6A21,21,0,0,0,197.67,207.51Z"/><path class="cls-3" d="M200.31,148.18c-3.1.68-6.18,1.42-9.29,2q-5.86,1.16-11.8,1.78c-3.66.39-7.32.53-11,.8-7.48.55-15,.3-22.46.18a94.34,94.34,0,0,1-9.51-.34c-3.54-.43-7.11,0-10.63-.61a29,29,0,0,0-3.36-.07c-10.8-.58-21.6-.46-32.4-.31-3.35,0-6.69.5-10.06.77l-.21-.18a7.9,7.9,0,0,1-.46-3,.76.76,0,0,1,.36-.43c4-.33,7.92-.69,11.89-.91,1.93-.13,3.87-.08,5.81-.08,6.13,0,12.27-.21,18.39.13,4,.22,8-.09,11.88.59a19.09,19.09,0,0,0,2.62,0c4.37.06,8.73.33,13.1.5,2.92.12,5.85.2,8.78.28a103.33,103.33,0,0,0,14-1q5.3-.59,10.56-1.3c4.5-.62,9-1.24,13.43-2.28,1.94-.46,3.87-1,5.8-1.45a44.69,44.69,0,0,0,4.88-1.82C200.7,143.68,200.11,145.91,200.31,148.18Z"/><path class="cls-8" d="M59.71,230.66c-1.64,6-2.9,12.15-4.16,18.53C53.51,245.17,56.3,232.84,59.71,230.66Z"/><path class="cls-8" d="M60.8,248.57c-.29-.12-.48-.31-.48-.57a47.15,47.15,0,0,1,.17-6.51c.28-2.1.83-4.12,1.28-6.18a31.07,31.07,0,0,1,1.4-3.85c.13-.38.32-1,.84-.82s.39.84.32,1.28c-.47,2.62-1,5.23-1.48,7.84-.47,2.37-1,4.73-1.43,7.1A4.41,4.41,0,0,1,60.8,248.57Z"/><path class="cls-7" d="M116.43,248.66c-2.06-3.17-1.61-14.53.66-18.38a2.46,2.46,0,0,1,.55,2.4,8.84,8.84,0,0,0-.28,1.45c.23,3.81-.5,7.59-.38,11.39A12,12,0,0,1,116.43,248.66Z"/><path class="cls-7" d="M69.89,230.69a117.23,117.23,0,0,1-1.83,17.53C66.12,244.89,67.35,233.32,69.89,230.69Z"/><path class="cls-8" d="M136.87,229.7h.75a25.26,25.26,0,0,1,2.23,9.52c.11,1.93,0,3.87,0,5.8a5.36,5.36,0,0,1-.71,2.74,9,9,0,0,1-.81-3.26c-.24-3.33-.63-6.65-1-10A24.47,24.47,0,0,1,136.87,229.7Z"/><path class="cls-7" d="M76.6,230.31a9.43,9.43,0,0,1,.17,3.55c-.52,3.43-.92,6.88-1.1,10.34a25.34,25.34,0,0,1-.42,2.75.66.66,0,0,1-.62.59c-.32,0-.37-.26-.42-.51a20,20,0,0,1-.17-7,48.25,48.25,0,0,1,.92-5.86A8,8,0,0,1,76.6,230.31Z"/><path class="cls-8" d="M166.92,230.51a.73.73,0,0,1,.36,0c1.61,2.13,2.24,4.66,3,7.16.64,2.2.69,4.5,1.14,6.74.23,1.12-.26,2.19-.36,3.3-1.23-.78-1.15-2.2-1.38-3.33-.71-3.54-1.48-7-2.37-10.54A9.61,9.61,0,0,1,166.92,230.51Z"/><path class="cls-7" d="M82.66,230.77a34.75,34.75,0,0,1-.12,6.12,49.19,49.19,0,0,0-.43,5.56c-.08,1.55-.5,3.06-.47,4.62,0,.32-.11.69-.46.73s-.57-.38-.62-.75a27.83,27.83,0,0,1-.12-8.15c.32-1.88.45-3.81.92-5.68A3.44,3.44,0,0,1,82.66,230.77Z"/><path class="cls-7" d="M94.45,230.56c1.26,3.54.77,13.71-.83,16.95a2,2,0,0,1-.69-1.82,79.13,79.13,0,0,1,.76-13.76A1.83,1.83,0,0,1,94.45,230.56Z"/><path class="cls-7" d="M109.88,230.46c.47,1.88-.27,13.72-1,17C106.75,245.49,107.34,234.23,109.88,230.46Z"/><path class="cls-7" d="M131.94,241.22a25,25,0,0,1-.36,5.93c0,.33-.2.67-.53.67s-.52-.34-.53-.67c-.06-1.05-.35-2.13-.33-3.14.05-4-.68-8-.46-12v-.56c0-.19.15-.51.43-.51a.62.62,0,0,1,.45.29,7.3,7.3,0,0,1,.55,1.59A31.68,31.68,0,0,1,131.94,241.22Z"/><path class="cls-8" d="M160.15,230.45h.74a47,47,0,0,1,2,6,38.67,38.67,0,0,1,.62,9.3,3.29,3.29,0,0,1-.66,1.83,2.19,2.19,0,0,1-.73-1.83c-.21-2.23-.51-4.44-.83-6.66s-.53-4.18-.92-6.26A16,16,0,0,1,160.15,230.45Z"/><path class="cls-7" d="M147,247.17a7.63,7.63,0,0,1-.76-3.25c0-1.18-.17-2.35-.28-3.52-.22-2.6-.53-5.19-.82-7.78a3.16,3.16,0,0,1,.18-2C147.92,233.08,149.06,244.1,147,247.17Z"/><path class="cls-7" d="M87.74,247.81c-1.55-4.17-.74-15.18,1.11-17.14a40.27,40.27,0,0,1,.16,8.64C88.51,242,89.1,244.93,87.74,247.81Z"/><path class="cls-10" d="M124.08,231a53.54,53.54,0,0,1,.21,17.32,1.49,1.49,0,0,1-.91-1.45,16,16,0,0,0-.19-1.83,112.44,112.44,0,0,1-.12-12.72,4.4,4.4,0,0,1,.5-1.35Z"/><path class="cls-10" d="M101.26,247.29a3.43,3.43,0,0,1-.81-2.51c0-2.43-.08-4.86,0-7.31a30.89,30.89,0,0,1,1.2-6.4.57.57,0,0,1,.64-.49h0c.32.07.35.36.34.59-.07,1.83.25,3.61-.22,5.39a4,4,0,0,0-.12,1.29c.22,2.5-.42,4.94-.41,7.42A3.93,3.93,0,0,1,101.26,247.29Z"/><path class="cls-8" d="M155.28,241.07a16.61,16.61,0,0,1-.4,5.26c-.12.35-.16.79-.65.72-.34-.06-.46-.42-.45-.74,0-1.44-.29-2.85-.35-4.26q-.33-4.74-1.12-9.42a4.57,4.57,0,0,1,0-.74c0-.27.1-.52.39-.53a.61.61,0,0,1,.47.24,7.82,7.82,0,0,1,.91,1.83C154.8,236.13,155.54,238.84,155.28,241.07Z"/><path class="cls-5" d="M78.3,131.68a66,66,0,0,0,.7,8.1c.26,3,.34,6.05.49,9.07l-.08.13a7.49,7.49,0,0,1-3.41.86,137,137,0,0,0-16.88,3.49,2.61,2.61,0,0,1-1.82.16l-.09-.12c.09-2.74.31-5.49.52-8.23A150.66,150.66,0,0,1,59.78,128c.32-1.63.62-3.29.92-4.93a4.55,4.55,0,0,1,3.65,2.19c.31.8-.1,1.73.4,2.52.91-.2,1.09-1.27,1.93-1.48a11.92,11.92,0,0,1,5.42,2.49c.19,1,.77.91,1.43.5A23.67,23.67,0,0,1,78,131C78.21,131.17,78.41,131.36,78.3,131.68Z"/><path class="cls-11" d="M85.78,74.6l4.57,1.1a3.06,3.06,0,0,1,3.36.77c1.9.37,3.66,1.26,5.59,1.5a2.74,2.74,0,0,1,2.68.79,27.13,27.13,0,0,0,5.24,1.83,2.76,2.76,0,0,1,2.6.79,7.32,7.32,0,0,0,2.74,1.17l2.6,1c1-.48,1.62.2,2.27.77A43.77,43.77,0,0,0,123,86.68a3.39,3.39,0,0,1,2.56,1.08,54.88,54.88,0,0,0,5.64,2.94,2.88,2.88,0,0,1,2.59,1.19c.63.91,1.77,1.07,2.57,1.77.44.4,1,.66,1.52,1s.85.84.61,1.41-.77.25-1.19.28c-1.57.14-3-.64-4.57-.74-1.41.42-2.59-.47-3.89-.67-1.55-.41-3-1-4.57-1.45-1.29-.28-2.51-.76-3.77-1.15-1.49-.54-3-1-4.48-1.56s-2.75-1-4.16-1.46c-1.22-.43-2.45-.78-3.66-1.28s-2.74-.92-4.12-1.5-2.6-.85-3.86-1.4-2.75-1-4.08-1.55-2.74-1-4.07-1.56-2.83-1.13-4.25-1.72c-1-.37-2-1-3.16-1.32-1.46-.86-3.21-1.23-4.42-2.53l-1.83-1.29a.8.8,0,0,1-.38-1c.13-.34.47-.38.78-.38H82A3.7,3.7,0,0,1,85.78,74.6Z"/><path class="cls-11" d="M126.33,117c.55.38,1.11.75,1.63,1.17a1,1,0,0,1,.39,1c-.12.39-.53.47-.92.47h-2.21c-2.11.3-4-.72-6-1-.64-.19-1.29-.33-1.93-.5-1.94-.73-4-1.15-5.94-1.83-1-.4-2.1-.73-3.17-1.07-1.83-.59-3.66-1.38-5.49-1.95-.91-.33-1.82-.75-2.8-1.07-1.83-.72-3.78-1.37-5.62-2.13-.69-.24-1.32-.58-2-.8-1.82-.7-3.65-1.55-5.48-2.27a12.75,12.75,0,0,0-2.2-.91c-1.83-1-3.73-1.71-5.58-2.57-.76-.44-1.56-.81-2.34-1.18-1.25-.82-2.6-1.48-3.87-2.25a3.94,3.94,0,0,1-1.63-1.75c-.44-.76-.11-1.1.67-1.2,2-1.06,3.94,0,5.89.3,1,.28,1.91.54,2.88.77,2,.64,4,1.17,6,1.82.8.27,1.59.56,2.39.8,1.93.66,3.87,1.28,5.79,1.94.68.25,1.33.6,2,.79,1.82.58,3.59,1.37,5.42,2,.91.44,1.83.74,2.74,1.12,1.83.8,3.71,1.46,5.54,2.24a27.85,27.85,0,0,0,2.74,1.17c1.88.82,3.73,1.67,5.56,2.57.64.31,1.33.51,2,.82C122.68,114.56,124.93,115.14,126.33,117Z"/><path class="cls-11" d="M123.3,124.9c.45.63,1.7.86,1.4,1.76-.35,1-1.51.36-2.29.53a.61.61,0,0,1-.19,0c-2.07.69-4-.33-5.91-.67-.65-.18-1.32-.35-2-.5-1.92-.52-3.86-1-5.75-1.67-1.11-.24-2.18-.64-3.26-1-1.83-.68-3.72-1.24-5.59-1.83-1-.39-2.09-.71-3.13-1.07-1.68-.72-3.41-1.28-5.12-1.94-.85-.3-1.67-.66-2.52-1-1.69-.62-3.31-1.42-5-2a19.83,19.83,0,0,0-2.68-1.15c-1.71-.92-3.59-1.53-5.3-2.44-.76-.42-1.54-.79-2.3-1.2a1.9,1.9,0,0,1-.41-.34,2.51,2.51,0,0,1-.26-.45,7.29,7.29,0,0,0-1-1.83c-1.23-1.77-2-2-4.13-1.41a.5.5,0,0,1-.47-.17c-.42-.69-.45-1.27.54-1.42a10.53,10.53,0,0,1,1.26-.07c2-.54,3.75.34,5.59.69.92.27,1.83.61,2.74.81,1.89.61,3.83,1,5.7,1.75.91.3,1.76.61,2.64.91,1.83.65,3.66,1.24,5.49,1.83.69.26,1.38.5,2.08.72,1.77.76,3.66,1.27,5.41,2,1,.42,2,.86,3,1.18,1.86.72,3.73,1.45,5.58,2.2,1.09.42,2.13.92,3.22,1.37,1.83.8,3.66,1.51,5.42,2.39.64.3,1.33.5,2,.82C119.91,122.71,122,123.25,123.3,124.9Z"/><path class="cls-5" d="M72.3,95.33c-4.57,1.19-6.87-.53-8.58-3.5-3-5.29-3.13-10.83.42-16,3.17-4.57,8.56-4.5,11.76.12a9.75,9.75,0,0,1,2,5.35c0,.07-.08.15-.13.22-.91.49-.69,1.21-.39,1.95a29.06,29.06,0,0,1-2.3,5.77c-.83.42-1.59.92-1,2A10.81,10.81,0,0,1,73,94.92.7.7,0,0,1,72.3,95.33Z"/><path class="cls-4" d="M57.3,66.32a1.3,1.3,0,0,1,1.4-.3c2.78.64,5.61.12,8.4.36,5.17.44,10.37.05,15.54.43,6.24.47,12.49,0,18.72.32,18.38.8,36.76.32,55.14.26q10.38,0,20.79-.33c1.78-.07,3.58-.34,5.39-.31-.22.11-.43.32-.65.32-3.43,0-6.8.66-10.22.86-3.73.21-7.45.52-11.17.78-2.18.15-4.37.06-6.53.33-3.11.39-6.24.07-9.33.39-5.94.58-11.89.22-17.78.29-1.83,0-3.59.54-5.41.38-7.23-.58-14.49-.12-21.71-.45-3-.13-6.11-.15-9.14-.33A40.51,40.51,0,0,0,86.65,69c-.65-.26-1.28.18-1.92,0-4.38-.57-8.79-.62-13.18-1-3-.3-6-.69-9.08-.92A47.19,47.19,0,0,1,57.3,66.32Z"/><path class="cls-12" d="M71.91,129.05c-1.55-1.28-3.57-1.61-5.26-2.61-1.13.22-1.83-.43-2.6-1.14-.91-1-2.25-1.48-3.33-2.25a1.93,1.93,0,0,1-.11-.34,1.3,1.3,0,0,1,.43-1.49h.05c1.17-.91,2.38-.09,3.57-.09,1.34.32,2.67.66,4,1a43,43,0,0,1,4.18,1.14,18.53,18.53,0,0,1,4.45,1.56,1.89,1.89,0,0,1,.38.5c.36,2,1.35,3.94.26,6a26.21,26.21,0,0,1-4.5-1.83C72.77,129.88,72.34,129.48,71.91,129.05Z"/><path class="cls-12" d="M62.9,115.17a.7.7,0,0,0-.06-.34c-.2-.51.11-.85.41-1.18h0a4,4,0,0,1,3.37-.2,45.17,45.17,0,0,1,4.86,1.16,6.67,6.67,0,0,0,3.84.52,2.43,2.43,0,0,1,.71,1.19c.34,1.27.57,2.56.81,3.85.06.37.13.74.18,1.12a1,1,0,0,1-.28.78c-1.33.5-2.36-.36-3.47-.79a24.69,24.69,0,0,0-3.66-1.68c-1.46-.63-2.74-1.53-4.18-2.25C64.55,116.71,63.39,116.34,62.9,115.17Z"/><path class="cls-13" d="M74.94,106.16,69.22,105a35.05,35.05,0,0,1,1.4-4.58c.2-.7.38-1.41.57-2.13,1.68,1.52,3.82,2.29,5.59,3.66C76.49,103.49,76.37,105.11,74.94,106.16Z"/><path class="cls-14" d="M72.3,95.33l.38-.39a15.15,15.15,0,0,1,3.09-2.55,4.8,4.8,0,0,1,3.8,2c-.25,1.29-.34,2.65-1.61,3.47-2-.26-4-.92-6.09-.79C72,96.5,72.2,95.91,72.3,95.33Z"/><path class="cls-14" d="M80.25,76.5a22.19,22.19,0,0,1,4.43,2.17,7.45,7.45,0,0,1-1.14,4,12.9,12.9,0,0,1-5.11-.74.48.48,0,0,1-.16-.55C78.75,79.66,79.86,78.23,80.25,76.5Z"/><path class="cls-15" d="M62.9,115.17,65.55,117c.72,1.67,0,3.1-.78,4.5-1.27.19-2.43-.56-3.66-.34A43,43,0,0,1,62.9,115.17Z"/><path class="cls-15" d="M66.64,114c-1.07-.58-2.24-.26-3.36-.38,1.07-2.56,2-5.18,4.15-7.13h.35a1.14,1.14,0,0,1,.74.91A17.33,17.33,0,0,1,66.64,114Z"/><path class="cls-16" d="M84.71,69c.25-.19.49-.37.74-.54.65-.43,1-.19,1.18.51.15,1.94-.74,3.72-.85,5.62L82,73.88C82.58,72.05,83.87,70.66,84.71,69Z"/><path class="cls-17" d="M61,121.22a2.62,2.62,0,0,1-.43,1.49c-.42-.25-.82-.56-.63-1.12S60.65,121.22,61,121.22Z"/><path class="cls-18" d="M63.25,113.65a2,2,0,0,1-.41,1.18c-.29-.21-.66-.43-.52-.85S62.91,113.68,63.25,113.65Z"/><path class="cls-19" d="M78.27,81.35l.08.39-.24.08a.37.37,0,0,1-.21-.4v-.1A1.16,1.16,0,0,0,78.27,81.35Z"/><path class="cls-5" d="M79.83,152.42c.06,2.74-.07,5.48.25,8.23a70.71,70.71,0,0,1,0,7.84.39.39,0,0,1-.43.13,1.63,1.63,0,0,1-.81-.92c-.07-.72-.65-.49-1.06-.57a2.91,2.91,0,0,1-1.68-1.51c0-1-.63-.8-1.23-.71a4.09,4.09,0,0,1-2-1.2c.27-1.43-.55-1.3-1.48-1a1.87,1.87,0,0,1-1.35-1.19c-.16-.48.2-.92.07-1.43-.64.07-.91.76-1.58.81-.78-.11-1,.36-1,1a2.73,2.73,0,0,1-1.58,1.61c-.56.13-1.09.28-1.06,1a2.81,2.81,0,0,1-1.51,2c-.37.15-.71.33-.72.8A2.74,2.74,0,0,1,61.46,169c-.64.17-1.28.36-.92,1.27-.8,2-1.45,2.31-2.83,1.17a3.33,3.33,0,0,1-.4-2.14c0-3.14,0-6.28-.07-9.42l.07-.15a3.31,3.31,0,0,1,1.53-1.31,81.15,81.15,0,0,1,14.51-5.55,14.48,14.48,0,0,1,6.4-.64Z"/><path class="cls-5" d="M79.78,186.87c.23,2.88-.3,5.73-.36,8.59,0,.75,0,1.5.06,2.25l-.41,0a23.36,23.36,0,0,1-5.34.58A78.91,78.91,0,0,0,63,199a2.8,2.8,0,0,1-2.3-.37h-.36c-.1-2.42-.73-4.75-1-7.13s-.61-5-.92-7.52c.92-.18,1.21.48,1.59,1-.41,1.06.56.25.72.53a6,6,0,0,1,1.83,1.18,3.06,3.06,0,0,0,.92.72A13.36,13.36,0,0,1,65.59,189a1.54,1.54,0,0,0,1.13.75,5.67,5.67,0,0,1,2.26,1.6c-.06,1.15.7,1,1.42.92a2.28,2.28,0,0,1,1.54,1c.18.39-.11.78,0,1.2.59-.09,1-.58,1.64-.56,1.23.22.48-.73.66-1.12C76.22,190.83,77.31,188.21,79.78,186.87Z"/><path class="cls-12" d="M63.28,166.21a3.63,3.63,0,0,0,1.51-1.83c.14-.59.65-.83,1.1-1.11a4.26,4.26,0,0,0,1.54-1.53,2.07,2.07,0,0,1,1.11-1.14l1.73-1.38a.5.5,0,0,1,.67.08.47.47,0,0,1,0,.51c-.21.52-.41,1-.61,1.55a6.81,6.81,0,0,1-1.08,2.11c-.31.46-.62.91-.91,1.39a18.54,18.54,0,0,1-1.09,1.55,12.68,12.68,0,0,0-1.1,1.51A15.26,15.26,0,0,1,65,169.44c-.37.5-.72,1-1.12,1.51s-.73,1-1.14,1.51a15,15,0,0,1-1.16,1.5c-.42.49-.81,1-1.18,1.54s-.78,1.17-1.29,1.67-1.12.91-1.78.12a3.47,3.47,0,0,1,.21-2.85c0-1,.06-2,.1-3,1.66.55,1.74.51,2.58-1.49.07-.69.72-.8,1.13-1.14.28-.69,1.15-1,1.14-1.83C62.58,166.55,63.06,166.49,63.28,166.21Z"/><path class="cls-20" d="M57.57,174.44l.09,3c.21.24.54.4.47.8a5.09,5.09,0,0,1-1.07,1.33c-.55.47-.92,1.14-1.71,1.32-.45.13-.68.72-1.25.55-.48-.59.23-1.11.12-1.68a1.88,1.88,0,0,1,.79-1.54,5.22,5.22,0,0,0,1.08-1.83,1.23,1.23,0,0,1,.79-1.16C57.11,175,57.34,174.72,57.57,174.44Z"/><path class="cls-21" d="M59.87,185l-1.45-1.11c-.19-.3-.33-.67-.81-.57-.92.18-.65-.47-.69-.92,0-.74.18-1.4,1-1.61a1.41,1.41,0,0,0,1.71.53,1.66,1.66,0,0,1,1.49,1A3.36,3.36,0,0,1,59.87,185Z"/><path class="cls-22" d="M58,180.84l-1.1,1.54a5.25,5.25,0,0,1-1.56-1.48,4.34,4.34,0,0,1,1.51-1.56,1.54,1.54,0,0,1,1.24.62,1.14,1.14,0,0,1,.13.47A.78.78,0,0,1,58,180.84Z"/><path class="cls-23" d="M55,178.24a2.17,2.17,0,0,1-.8,1.55,4,4,0,0,1-1.77-2.48C53.51,177.23,54.21,177.93,55,178.24Z"/><path class="cls-24" d="M56.88,175.24a2.36,2.36,0,0,1-.78,1.16c-.55-.4-1.14-.76-1-1.61A3,3,0,0,1,56.88,175.24Z"/><path class="cls-25" d="M60.68,198.58a106.76,106.76,0,0,1,14.63-.82,15.1,15.1,0,0,0,1.63-.31c.72,0,1.5-.29,2.13.3,0,1.1,0,2.2-.09,3.29a10,10,0,0,1-1.1.09c-4.77-.18-9.34,1-13.91,2.08a7.08,7.08,0,0,1-2.53.5C61.37,202,60.52,200.35,60.68,198.58Z"/><path class="cls-25" d="M79.76,152.29c-1.45.72-3.06.36-4.57.71a69.3,69.3,0,0,0-11,3.59c-2.35,1-4.57,2.12-6.93,3.2v-6.3a40.46,40.46,0,0,1,7.49-2.11c4.33-1.07,8.74-1.65,13.13-2.38a9.27,9.27,0,0,1,1.49,0C79.51,150.09,80,151.16,79.76,152.29Z"/><path class="cls-8" d="M176.18,247.41c-.85-2.84-.8-5.48-1.29-8.11s-1.58-5.08-1.66-7.83C176.42,232.6,178.25,244.2,176.18,247.41Z"/><path class="cls-8" d="M178.85,231.26a3.94,3.94,0,0,1,1.3,1.69,31.61,31.61,0,0,1,2.51,11.74c0,.58.25,1.51-.52,1.58s-.72-.91-.85-1.46c-.91-3.91-1.83-7.84-2.68-11.76A2.1,2.1,0,0,1,178.85,231.26Z"/><path class="cls-7" d="M185.16,232.17c3.25,3.54,4.94,11.64,3.05,14.39-1.05-2.39-1.21-4.87-1.69-7.24S185.14,234.64,185.16,232.17Z"/><path class="cls-7" d="M190.71,233.45a9,9,0,0,1,2.2,4,20.71,20.71,0,0,1,1,7.69v.56c0,.18-.16.63-.52.67s-.43-.2-.54-.43a4.48,4.48,0,0,1-.42-1.23c-.55-2.91-1.14-5.81-1.73-8.72A5.66,5.66,0,0,1,190.71,233.45Z"/><path class="cls-11" d="M78.35,81.74a19.15,19.15,0,0,1,5.16.74c1.2-.55,2.28.22,3.42.35,1.53.53,3.11.91,4.66,1.39,1.29.29,2.52.76,3.77,1.16,1.59.55,3.19,1.07,4.78,1.58,1,.38,2.08.73,3.13,1.06,1.49.46,2.89,1.16,4.4,1.58,1.3.45,2.55,1,3.84,1.48s2.74,1,4.06,1.54,2.67,1.11,4,1.61c1.34.73,2.82,1.16,4.19,1.83s2.64,1.07,3.89,1.77,2.86,1.13,3.92,2.31c.27.55.83.71,1.29,1s1.15.71,1.69,1.12a.9.9,0,0,1,.32,1.15c-.14.44-.54.43-.91.44a4,4,0,0,1-1.64-.16,4.52,4.52,0,0,0-1.83-.17c-1.82.43-3.46-.52-5.19-.79-.91-.26-1.83-.47-2.74-.77-1.83-.5-3.59-1.11-5.39-1.68-1.1-.25-2.16-.63-3.24-.91-1.75-.66-3.54-1.17-5.29-1.83a22.47,22.47,0,0,0-3.09-1.15l-5.14-1.93c-.74-.34-1.53-.54-2.29-.83-1.73-.76-3.51-1.42-5.27-2.12-1-.44-2-.83-3-1.18-1.77-.91-3.66-1.5-5.37-2.46-.85-.46-1.73-.92-2.61-1.31-1.29-.83-3-1.11-3.87-2.51a2.72,2.72,0,0,1-.18-.55,2.09,2.09,0,0,1,.35-1.71Z"/><path class="cls-11" d="M79.42,94.44c-1.24-.63-2.29-1.67-3.76-1.83a.59.59,0,0,1-.09-.48,12.14,12.14,0,0,0,1.24-2.75c.14-.34.32-.64.76-.59a7,7,0,0,0,3.17,1.13c1,.27,2,.49,3,.79,1.83.47,3.58,1.15,5.41,1.58,1,.32,1.94.66,2.92,1,1.83.63,3.65,1.22,5.48,1.83.79.25,1.51.66,2.31.91,1.74.55,3.42,1.29,5.16,1.83,1,.44,2,.81,3,1.22,1.76.7,3.59,1.28,5.3,2.11,1,.44,2,.84,3,1.2,1.69.83,3.45,1.53,5.16,2.32a14,14,0,0,0,2.65,1.18c1.66.91,3.48,1.5,4.81,2.91.75.55,1.5,1.08,2.23,1.66.38.3.86.65.71,1.2s-.8.43-1.26.48a7.9,7.9,0,0,1-2.74-.32c-2,.66-3.66-.57-5.54-.79-.82-.27-1.68-.42-2.51-.7-2-.56-4-1.2-5.93-1.83l-2.65-.91c-2-.73-4-1.34-6.07-2a25.08,25.08,0,0,0-2.56-.91c-1.82-.77-3.76-1.39-5.62-2.14-.66-.27-1.31-.59-2-.81q-2.74-1.14-5.49-2.2c-.83-.32-1.59-.81-2.45-1.08-1.82-.74-3.55-1.75-5.43-2.4C80.88,95.46,79.9,95.32,79.42,94.44Z"/><path class="cls-11" d="M76.43,120.42l-.77-4.12c1.52-.56,2.75.49,4.16.67,1.05.39,2.12.75,3.19,1.09,1.67.56,3.33,1.12,5,1.66.78.29,1.57.53,2.35.77,1.74.62,3.49,1.2,5.21,1.83,1.11.44,2.26.76,3.39,1.15,1.58.73,3.25,1.22,4.86,1.83,1.23.62,2.57.92,3.82,1.47,1.75.73,3.5,1.44,5.24,2.18.84.33,1.62.79,2.44,1.13,1.57.84,3.5,1,4.64,2.66l1.75,1.29a.68.68,0,0,1,.34.77.76.76,0,0,1-.69.53H118.8c-1.73.6-3.37-.31-5.06-.37-1-.29-2.08-.54-3.13-.78-1.56-.45-3.16-.78-4.71-1.31s-3.11-.91-4.67-1.31A39.36,39.36,0,0,0,97,130.18a44.12,44.12,0,0,1-4.48-1.45c-1.21-.45-2.44-.83-3.66-1.22s-2.36-1-3.58-1.34c-1.43-.54-2.83-1.16-4.27-1.67s-2.59-1.35-4.14-1a1.07,1.07,0,0,1-.11-1.5l0,0v-.72C76.57,121,76.65,120.63,76.43,120.42Z"/><path class="cls-11" d="M77.93,131.31a27.92,27.92,0,0,0-.69-6c1.21-.74,2.24.14,3.34.35,1.41.5,2.81,1,4.2,1.54,1.2.45,2.44.81,3.65,1.23A38.12,38.12,0,0,0,92,129.75c1.43.58,2.9,1.08,4.33,1.64s2.85,1.17,4.29,1.74c1.59.65,3.14,1.38,4.74,2,1.22.74,2.62,1.12,3.88,1.76q1.64.87,3.3,1.65c1.22.84,2.91,1,3.66,2.51a18.07,18.07,0,0,1,1.61,1.28c.55.56.3,1.21-.47,1.34a7.82,7.82,0,0,1-2.59-.29,2.62,2.62,0,0,1-3-.42l-4.85-1.45a2.08,2.08,0,0,1-2.74-.77l-7-2.24a1.55,1.55,0,0,1-1.88-.44,49.94,49.94,0,0,0-7.1-2.52c-1.27-.32-2.41-1.12-3.66-1.55-1-.36-2.09-.76-3.13-1.15-.83.26-1.35-.25-1.83-.76a2.56,2.56,0,0,0-1.14-.4Z"/><path class="cls-11" d="M161.68,100.49A9.58,9.58,0,0,0,165,98.66a1.33,1.33,0,0,1,1.52-.45c1.12-.46,2.19-1.15,3.6-1-.19,1.44-1.62,1.83-2.09,2.87a8.54,8.54,0,0,1-1.77,1.73c-.61.4-1.24.77-1.83,1.22a25.46,25.46,0,0,1-2.18,1.56,19.72,19.72,0,0,0-2,1.41c-.72.52-1.49,1-2.22,1.52l-1.83,1.22c-.75.48-1.49,1-2.24,1.5s-1.36.91-2,1.37a19.36,19.36,0,0,0-2.1,1.25c-.69.44-1.35.91-2,1.37s-1.43.81-2.12,1.25-1.28.77-1.91,1.15a7.45,7.45,0,0,1-2.74,1.08c-.6-.1-1.31.66-1.71.14-.52-.71.44-1.11.75-1.65l.18-.31a2.4,2.4,0,0,1,1.54-1.55l2.21-1.83c.33-.63.6-1.32,1.52-1.16.84-.77,2-1.14,2.62-2.18a2.25,2.25,0,0,1,1.5-1.08,5.18,5.18,0,0,0,2.3-1.58c.41-.42.72-1,1.47-.8a17.25,17.25,0,0,0,2.64-1.83,1.29,1.29,0,0,1,1.13-.76,12.94,12.94,0,0,0,3.29-1.83A1.33,1.33,0,0,1,161.68,100.49Z"/><path class="cls-11" d="M154.88,138.44a8.33,8.33,0,0,1-2.52.45c-.27-1,.81-1.26,1-2a6.15,6.15,0,0,1,2.38-2.47c.45-.35.84-.78,1.3-1.11.92-.59,1.68-1.27,2.56-1.83a13.63,13.63,0,0,0,1.56-1.15c.82-.51,1.61-1.07,2.43-1.6a13.89,13.89,0,0,0,1.33-1c.83-.52,1.63-1.07,2.44-1.6L169,125c1-.61,2-1.16,2.94-1.83.54-.36,1.09-.73,1.63-1.11,1-.46,1.83-1.15,2.82-1.61a7.63,7.63,0,0,0,1.3-.74c1-.5,1.82-1.38,3.06-1.18.55.06,1-.48,1.69-.18.2.92-.6,1.35-.91,2-.26,1.11-1.34,1.41-2,2.1-.43.38-.83.8-1.25,1.19a26.85,26.85,0,0,0-2.28,1.83c-.75.48-1.43,1.07-2.16,1.57a24.38,24.38,0,0,1-2.2,1.57,17.11,17.11,0,0,0-2,1.4c-.73.53-1.49,1-2.22,1.52-.48.33-1,.6-1.48.92-.78.45-1.5,1-2.28,1.48l-2.34,1.39c-.66.35-1.26.79-1.92,1.14s-1.5.72-2.23,1.11A5.9,5.9,0,0,1,154.88,138.44Z"/><path class="cls-11" d="M143.22,121.56c-1.26-.2-1.26-.2-.74-1.46.28-1.1,1.25-1.54,2-2.17.59-.44,1.05-1,1.66-1.47s1.42-1.07,2.15-1.57,1.3-1,2-1.44,1.43-1.07,2.18-1.54c.54-.36,1.08-.72,1.61-1.1.75-.46,1.49-1,2.22-1.49s1.23-.78,1.83-1.2c.75-.49,1.58-.91,2.3-1.44a24.27,24.27,0,0,1,2.15-1.27c.84-.38,1.55-1,2.37-1.38a12.7,12.7,0,0,0,1.95-1.16c.92-.33,1.6-1.16,2.68-.86.91,0,1.69-1.06,2.8-.52,0,1-1.06,1.29-1.36,2.06a6.07,6.07,0,0,1-2.39,2.48c-.45.35-.83.78-1.3,1.12-.91.58-1.68,1.27-2.57,1.82a14.54,14.54,0,0,0-1.55,1.16c-1,.61-1.91,1.25-2.85,1.88-.41.27-.83.52-1.23.8-.91.63-1.88,1.29-2.84,1.91-.35.22-.67.47-1,.69-1.09.58-2.12,1.26-3.19,1.83-.42.27-.85.52-1.28.78a31.64,31.64,0,0,1-2.84,1.59c-.53.25-1.06.53-1.58.8C145.33,120.9,144.42,121.67,143.22,121.56Z"/><path class="cls-11" d="M145.83,125.71c-1.24-.07-1.24-.07-1-1.16a6.08,6.08,0,0,1,2.31-2.56,9.91,9.91,0,0,0,1.31-1.1c1-.7,1.9-1.47,2.89-2.12a7.93,7.93,0,0,0,1.2-.86c.92-.66,1.88-1.3,2.84-1.92.43-.26.82-.55,1.23-.83.91-.56,1.76-1.16,2.64-1.76.55-.36,1.09-.73,1.63-1.11,1-.46,1.83-1.12,2.8-1.62.57-.33,1.11-.71,1.7-1a30.15,30.15,0,0,1,2.83-1.59c.46-.21.92-.45,1.34-.68,1-.4,1.9-1.18,3.06-1.24.8,0,1.58-.76,2.46-.08,0,.75-.8,1-1,1.64-.45,1.36-1.82,1.83-2.74,2.75a9.53,9.53,0,0,1-.81.61c-1,.71-2,1.49-3,2.2-.54.36-1.09.72-1.62,1.09-.92.58-1.77,1.18-2.64,1.83-.48.29-.95.61-1.43.91-1,.67-2,1.37-3.06,2.07l-.86.47c-1,.6-2,1.15-2.93,1.83-.51.26-1,.55-1.5.86a25.92,25.92,0,0,1-2.89,1.56c-.46.22-.91.45-1.36.7C148.12,125,147.16,125.81,145.83,125.71Z"/><path class="cls-11" d="M183.07,123.05c.59.2,1.33-.65,1.71,0s-.58,1.1-.86,1.69l-.08.17a1.5,1.5,0,0,1-1.19,1.14,7.19,7.19,0,0,0-2.27,1.83,2.28,2.28,0,0,1-1.47,1.08,18,18,0,0,0-3.37,2.32c-.23.28-.39.61-.77.71-.67,0-1.09.54-1.61.91a24,24,0,0,1-4,2.56c-1,.38-1.29,1.7-2.36,1.83s-1.72.91-2.63,1.28c-.26.1-.44.4-.66.62-.33.53-.91.47-1.42.71a5.45,5.45,0,0,0-2.32,1.21,1.49,1.49,0,0,1-1.82.77l-2.24.91a.47.47,0,0,1-.65-.15.6.6,0,0,1,.07-.7c.42-.54.86-1.05,1.3-1.57.25-.92,1-1.33,1.64-1.83s1.28-1,1.95-1.44a15.67,15.67,0,0,0,1.91-1.47,14.5,14.5,0,0,1,1.83-1.25c.8-.57,1.55-1.18,2.37-1.72.48-.29.91-.61,1.42-.91.74-.53,1.54-.92,2.29-1.42s1.51-1,2.25-1.5,1.3-.71,1.9-1.15c.86-.52,1.74-1,2.58-1.56a30.5,30.5,0,0,1,2.74-1.38c.52-.25,1.05-.5,1.56-.78A6,6,0,0,1,183.07,123.05Z"/><path class="cls-11" d="M151.13,133.9c-1.51-.12-1.52-.13-.8-1.43.39-1.1,1.37-1.69,2.15-2.45a17.11,17.11,0,0,0,1.6-1.2c.84-.57,1.64-1.21,2.45-1.83.39-.31.83-.55,1.23-.85.91-.62,1.89-1.29,2.85-1.9.36-.22.69-.47,1-.71,1.09-.69,2.15-1.43,3.22-2.16.43-.25.84-.54,1.25-.81a23.93,23.93,0,0,0,2.93-1.83,15.68,15.68,0,0,0,1.5-.85c1-.71,2.23-1.14,3.28-1.83a8,8,0,0,1,.92-.56c1.12-.46,2.1-1.39,3.47-1.09.44-.11.91-.59,1.32-.09s-.13.92-.38,1.27a1.92,1.92,0,0,0-.18.31c-.39,1.21-1.46,1.82-2.37,2.5a10.1,10.1,0,0,0-.91.81c-.86.6-1.68,1.27-2.54,1.88-.62.52-1.31.91-1.93,1.49-.87.61-1.77,1.2-2.64,1.83-.48.29-.91.61-1.43.91-.92.58-1.78,1.17-2.65,1.77-.41.28-.84.52-1.27.76-1,.61-2,1.16-2.93,1.83a13.86,13.86,0,0,0-1.5.86c-.84.56-1.77.92-2.65,1.44-.54.25-1.07.51-1.58.79A9,9,0,0,1,151.13,133.9Z"/><path class="cls-11" d="M175.5,110.25c.56-.22,1.1-.52,1.71-.17.16.83-.74,1.06-.91,1.67-.43,1.2-1.48,1.79-2.41,2.51a12,12,0,0,0-.91.82c-1,.71-2,1.35-2.93,2.13-.42.28-.84.55-1.25.85-1.11.69-2.18,1.44-3.25,2.17-.42.25-.83.53-1.24.82-1,.59-1.89,1.28-2.89,1.83-.29.15-.57.31-.85.49-1.06.62-2.09,1.31-3.18,1.9-.44.25-.83.55-1.27.8-1.11.59-2.26,1.12-3.38,1.73l-1.15.57c-1.14.43-2.1,1.41-3.48,1.06a.65.65,0,0,1-.7-.58.75.75,0,0,1,0-.21c.15-1.45,1.34-2.06,2.32-2.83.47-.36.86-.8,1.34-1.15,1-.68,1.92-1.41,2.87-2.16.43-.27.85-.54,1.26-.84,1-.56,1.83-1.26,2.74-1.91a11.67,11.67,0,0,0,1-.7,24.84,24.84,0,0,0,2.9-1.83c.42-.25.82-.53,1.24-.8,1.1-.57,2.13-1.27,3.2-1.9.5-.33,1-.63,1.53-.91,1-.52,2-1.23,3.07-1.73l1.15-.58C173.24,111,174.13,109.77,175.5,110.25Z"/><path class="cls-13" d="M120,132.82l-4.91-2.26a5.26,5.26,0,0,1,1.21-4.44l6,1.12Z"/><path class="cls-13" d="M123.3,124.9a59.13,59.13,0,0,1-5.25-3,3.28,3.28,0,0,1,1.14-3.73,42.89,42.89,0,0,1,6,1.47C124.59,121.42,124,123.15,123.3,124.9Z"/><path class="cls-13" d="M129,108.81a27.22,27.22,0,0,1-4.92-2.67,3.53,3.53,0,0,1,1.25-3.74,29.05,29.05,0,0,1,5.23,1.15A22.42,22.42,0,0,1,129,108.81Z"/><path class="cls-14" d="M122.18,110.64c2,.07,3.78,1,5.72,1.19a16.65,16.65,0,0,1-1.15,3.65,4.07,4.07,0,0,0-.42,1.57l-5.61-3.29C120.82,112.52,120.86,111.28,122.18,110.64Z"/><path class="cls-14" d="M116.19,141.05l-3.72-2.2a5.49,5.49,0,0,1,1.2-4.18,25.53,25.53,0,0,1,5.14.77C118,137.35,116.85,139.09,116.19,141.05Z"/><path class="cls-14" d="M131.62,100.18a28.28,28.28,0,0,1-4.18-1.94c-.3-1.58.67-2.62,1.56-3.66l3.79,1.13A15.37,15.37,0,0,1,131.62,100.18Z"/><path class="cls-14" d="M148.12,129.43l3.4-1.46c.83.51,1.52,1.09,1.16,2.21a9.47,9.47,0,0,1-2.35,2.29A11.62,11.62,0,0,1,148.12,129.43Z"/><path class="cls-26" d="M151.13,133.9a11,11,0,0,1,3.34-1.46,3,3,0,0,1,1.52,2.29l-2.59,2.19Z"/><path class="cls-27" d="M93.67,76.47l-3.35-.76a21.87,21.87,0,0,1,2.18-3.43c.25-.27.51-.61.92-.5s.55.58.61,1C94.24,74.05,93.66,75.23,93.67,76.47Z"/><path class="cls-28" d="M147.43,122.26l-2.63,2.29-1.58-3,3-1.48C147.07,120.57,147.75,121.14,147.43,122.26Z"/><path class="cls-28" d="M150,126a14,14,0,0,0-2.58,2.64c-.51-1-1.38-1.83-1.61-2.93a15.65,15.65,0,0,1,3.36-1.53C149.85,124.62,150.45,125.07,150,126Z"/><path class="cls-26" d="M173.68,114.05l2.66-2.3a9.26,9.26,0,0,1,1.83,2.64l-3.35,1.54A1.69,1.69,0,0,1,173.68,114.05Z"/><path class="cls-16" d="M176.3,118.15l2.63-2.27c.92.66,1.12,1.83,1.83,2.66l-3,1.51A2.3,2.3,0,0,1,176.3,118.15Z"/><path class="cls-26" d="M172.58,106.13a7.74,7.74,0,0,1-3,1.57,1.86,1.86,0,0,1-1.14-1.88L171,103.6A11.38,11.38,0,0,1,172.58,106.13Z"/><path class="cls-26" d="M175.5,110.25a31.15,31.15,0,0,0-3.4,1.51,1.85,1.85,0,0,1-1.1-1.55,26.59,26.59,0,0,1,3-2.51Z"/><path class="cls-27" d="M111.7,143c1-.14,2,.48,3,.42a11.82,11.82,0,0,1-1.6,2.67,1.21,1.21,0,0,1-1.35.75c-.58-.18-.4-.82-.46-1.3C111.22,144.61,111.76,143.82,111.7,143Z"/><path class="cls-28" d="M183.07,123.05a4.59,4.59,0,0,1-2.25,1.13,2.28,2.28,0,0,1-1.52-1.89,11.8,11.8,0,0,1,2.26-1.91A6.09,6.09,0,0,1,183.07,123.05Z"/><path class="cls-28" d="M102,78.76A6.86,6.86,0,0,1,99.26,78a7,7,0,0,1,2-2.85c.51-.45,1-.3,1,.36A5.84,5.84,0,0,1,102,78.76Z"/><path class="cls-26" d="M144.75,118.15l-2.27,1.95c-.71-.65-.79-1.69-1.47-2.36a14.75,14.75,0,0,1,2.58-1.43A1.74,1.74,0,0,1,144.75,118.15Z"/><path class="cls-29" d="M104.14,140.74a14,14,0,0,0,2.74.77c-.54.81-1.07,1.65-1.63,2.44a.91.91,0,0,1-.92.41c-.45-.12-.45-.54-.45-.91A5.8,5.8,0,0,1,104.14,140.74Z"/><path class="cls-28" d="M169.58,102a12.61,12.61,0,0,1-2.62,1.12,1.62,1.62,0,0,1-.83-1.58,3.14,3.14,0,0,1,1.92-1.48A3.37,3.37,0,0,1,169.58,102Z"/><path class="cls-27" d="M141.78,114.37a3.88,3.88,0,0,1-1.55,1.56c-.55-1.21-1.31-2.38-1-3.92C140.62,112.27,141.18,113.35,141.78,114.37Z"/><path class="cls-30" d="M158.25,138.79l-1.89,1.51-1.48-1.89a4.64,4.64,0,0,1,2.3-1.14C158.13,137.36,158.41,138,158.25,138.79Z"/><path class="cls-31" d="M133.8,91.91a11.69,11.69,0,0,1-2.59-1.19,22,22,0,0,1,1.34-1.83c.51-.53,1.14-.35,1.22.36A19.66,19.66,0,0,1,133.8,91.91Z"/><path class="cls-32" d="M109.78,81.39a6.3,6.3,0,0,1-2.6-.79,4.88,4.88,0,0,1,1.47-1.92c.63-.46,1.09-.3,1.16.46A21.08,21.08,0,0,1,109.78,81.39Z"/><path class="cls-33" d="M125.57,87.78a5.84,5.84,0,0,1-2.57-1.1c.59-.32.73-1,1.18-1.43.27-.26.56-.55.91-.44s.47.53.47.92C125.61,86.42,125.58,87.1,125.57,87.78Z"/><path class="cls-31" d="M145.51,111.36,144,112.52c-.37-.91-1-1.67-.58-2.74C144.42,109.89,144.94,110.68,145.51,111.36Z"/><path class="cls-30" d="M117.36,84.37c-.84,0-1.46-.69-2.28-.77.52-.59.92-1.63,1.78-1.36S117.2,83.64,117.36,84.37Z"/><path class="cls-34" d="M149.62,108.12a2,2,0,0,1-1.5,1.07c-.39-.62-1.06-1.52-.5-2C148.34,106.67,149,107.7,149.62,108.12Z"/><path class="cls-35" d="M182.65,126.05a2.63,2.63,0,0,1,1.19-1.14,1.52,1.52,0,0,1,.25.26c.28.59.85,1.37.22,1.83C183.51,127.52,183.08,126.6,182.65,126.05Z"/><path class="cls-36" d="M178.91,129a2,2,0,0,1,1.47-1.08,2,2,0,0,1,.25,2C179.84,130,179.47,129.31,178.91,129Z"/><path class="cls-37" d="M157.88,141.87l1.83-.77c-.05.58.36,1.38-.25,1.65S158.27,142.44,157.88,141.87Z"/><path class="cls-38" d="M166.54,98.23a2.51,2.51,0,0,1-1.52.45,4.31,4.31,0,0,1-.22-.49c-.13-.35-.22-.73.19-.92a.69.69,0,0,1,.82.19A6,6,0,0,1,166.54,98.23Z"/><path class="cls-39" d="M79.44,132.08a5.16,5.16,0,0,1,1.83.76c-.11.14-.19.33-.33.42-1,.67-1.17.62-1.51-.46A2.48,2.48,0,0,1,79.44,132.08Z"/><path class="cls-37" d="M95.22,138.06c.67-.08,1.24.33,1.88.44a1.58,1.58,0,0,1-.22.29c-.33.33-.61.86-1.15.65S95.19,138.6,95.22,138.06Z"/><path class="cls-40" d="M153.4,105.74c-.5.24-.83.81-1.47.8a.54.54,0,0,1,0-.18c0-.51-.31-1.24.26-1.48S153.07,105.33,153.4,105.74Z"/><path class="cls-41" d="M161.68,100.49a2.28,2.28,0,0,1-1.21.78c-.18-.5-.52-.92-.17-1.62A1.59,1.59,0,0,1,161.68,100.49Z"/><path class="cls-42" d="M157.22,103.13a2.4,2.4,0,0,1-1.15.78v-.37c0-.34-.14-.8.32-.91S157,102.81,157.22,103.13Z"/><path class="cls-43" d="M162,139.89a2.42,2.42,0,0,1,1.42-.71C163.43,140.29,162.63,139.88,162,139.89Z"/><path class="cls-44" d="M174.77,132a1.33,1.33,0,0,1,.77-.7C175.5,131.81,175.72,132.55,174.77,132Z"/><path class="cls-45" d="M100.47,174.13c-.74,4.74-1.24,9.51-1.6,14.3-.19,2.3-.29,4.57-.36,6.91,0,1.22-.49,1.83-1.31,2A1.86,1.86,0,0,1,95,195.77a5.7,5.7,0,0,1-.22-1.48c-.2-4.93-1-9.79-1.61-14.67s-1.34-9.62-2.07-14.43c-.42-2.83-.92-5.65-1.41-8.48-.05-.24-.12-.49-.15-.74a1.52,1.52,0,0,1,1.17-1.64,1.38,1.38,0,0,1,1.81.71.14.14,0,0,0,0,.06,18.34,18.34,0,0,1,1.42,5c.73,4.31,1.32,8.63,1.64,13,.18,2.35.46,4.7.69,7.06.34.34.07.83.27,1.22a1.58,1.58,0,0,1,.07-1.26c.5-4.57,1.07-9.14,1.5-13.72a47.3,47.3,0,0,0,.38-5.95c0-1.48.59-2.12,1.83-2.12s2,.66,1.93,2.18c-.17,5.48,1.29,10.73,2.45,16,.32,1.46.7,2.9,1.05,4.36.67.74.38-.38.68-.36.61-4.63,1.29-9.25,1.82-13.9a47.74,47.74,0,0,0,.53-7.46c-.07-1.62.34-3.21.32-4.84,0-1.21.92-1.78,2.26-1.57,1.12.16,1.76.91,1.47,2a32.4,32.4,0,0,0-.71,6.28,129.65,129.65,0,0,1-1.67,13.16,141.4,141.4,0,0,0-2.18,16.66c-.08,1.49-.22,3-.23,4.48a2.62,2.62,0,0,1-.23,1.27,1.33,1.33,0,0,1-1.75.7,1.38,1.38,0,0,1-.65-.61,11.25,11.25,0,0,1-1.22-3.19c-1.17-4.79-2-9.66-2.75-14.53-.24-1.6-.49-3.2-.74-4.8a2.23,2.23,0,0,1-.12-1.35C100.54,173.2,100.79,173.71,100.47,174.13Z"/><path class="cls-45" d="M124.78,158.68a6.62,6.62,0,0,1,1.09.13,1.52,1.52,0,0,1,1.29,1.58c.31,6.54,1.37,13,2.1,19.48.25,2.23,0,4.49.48,6.71.52,2.56.91,5.15,1.37,7.73a4.59,4.59,0,0,1,.06.91c0,1.38-.36,1.83-1.53,1.83-1.35,0-2.08-.54-2.09-1.83,0-1.83-.36-3.59-.52-5.39-.12-1.34-.42-1.58-1.7-1.83-.44-.07-.91-.07-1.31-.13-2.74-.41-2.74-.41-3.23,2.34-.18,1.11-.32,2.22-.5,3.33a6.65,6.65,0,0,1-.78,2.49,1.42,1.42,0,0,1-1.86.73l-.21-.1c-1-.41-1.31-.92-1.08-1.83.52-2.25,1.12-4.48,1.65-6.72a228.52,228.52,0,0,0,4.1-22.79c.22-1.66.22-3.36.5-5C122.85,158.9,123.13,158.65,124.78,158.68Z"/><path class="cls-45" d="M182.24,185.65v7.11c0,1.52.28,1.83,1.77,1.53a6.92,6.92,0,0,1,3.5,0c.58.18,1,.42,1.09,1.1a1.43,1.43,0,0,1-.69,1.43,2.82,2.82,0,0,1-1.59.49h-4.87a1.9,1.9,0,0,1-2.1-1.66,2,2,0,0,1,0-.42c-.16-5.68-.66-11.35-.34-17,.19-3.24.26-6.48.32-9.72a18.54,18.54,0,0,0-.28-3.72,7.65,7.65,0,0,1,.35-4.05,1.83,1.83,0,0,1,1.83-1.4,12.63,12.63,0,0,1,6,1.22c.67.37,1.32.8,1,1.74a1.83,1.83,0,0,1-2.21,1.24c-.85-.2-1.69-.48-2.53-.68s-1.16.1-1.14.91V169c0,1.06-.09,2.12-.09,3.18,0,1.45.05,1.49,1.45,1.54h1.69c1.16.13,1.76.71,1.72,1.58s-.6,1.44-1.73,1.63a4.11,4.11,0,0,1-1.48-.15c-1.37-.25-1.54-.1-1.55,1.26v7.51Z"/><path class="cls-45" d="M153.91,159.05a14.48,14.48,0,0,1,3.71.43,5.25,5.25,0,0,1,1.56.62,1.41,1.41,0,0,1,.8,1.37,1.5,1.5,0,0,1-1.19,1.31,5.4,5.4,0,0,1-2.59,0c-.54-.13-1.09-.23-1.65-.32-.8-.12-1.15.22-1.12,1,.13,3.5-.43,7-.47,10.46,0,1.52,0,1.51,1.56,1.73a5.39,5.39,0,0,1,1.09.26,1.23,1.23,0,0,1,1.11,1.28,1.52,1.52,0,0,1-1.06,1.58,3.38,3.38,0,0,1-1.48.14c-1.65,0-1.6,0-1.6,1.69V194a7.77,7.77,0,0,1-.09,1.67,1.55,1.55,0,0,1-1.62,1.49,1.78,1.78,0,0,1-.39-.07c-1.15-.16-1.68-.66-1.52-1.83.42-3.15.19-6.34.57-9.51.23-1.82.09-3.74.15-5.61.12-4.57.27-9.1.37-13.65a45.24,45.24,0,0,1,.28-5.58c.18-1.27.46-1.65,1.72-1.75A11.49,11.49,0,0,1,153.91,159.05Z"/><path class="cls-45" d="M135.76,179.75c.13-5.11.3-10.23.38-15.34,0-1.31.22-2.6.3-3.9a1.4,1.4,0,0,1,1.38-1.42h.07a17.35,17.35,0,0,1,6.49.57,3.63,3.63,0,0,1,1,.51,1.48,1.48,0,0,1,.31,2.06,1.38,1.38,0,0,1-.66.5,4.68,4.68,0,0,1-2,.15,6.79,6.79,0,0,1-1.08-.26c-2.21-.46-2.4-.34-2.35,1.83,0,2.74-.39,5.48-.44,8.23a17.85,17.85,0,0,1-.06,1.82c-.05.8.26,1.18,1.07,1.1a4.86,4.86,0,0,1,1.47.23c.77.19,1.21.54,1.23,1.4a1.48,1.48,0,0,1-1.31,1.57,6.74,6.74,0,0,1-1.49.08c-1.3,0-1.33,0-1.33,1.38v13.51a5.71,5.71,0,0,1-.29,2.21,1.45,1.45,0,0,1-1.92,1c-1-.19-1.5-.61-1.45-1.58.17-3.24.44-6.47.59-9.69.08-2,0-4,0-6Z"/><path class="cls-45" d="M163.85,189.67c.24-6.54.6-13.08.47-19.64q-.06-3.54-.1-7.11a5.86,5.86,0,0,1,.38-2.38c.31-.82.77-1.46,1.75-1.36s1.43.8,1.29,1.94a97.07,97.07,0,0,0-.32,10.65c0,3.87.07,7.74-.14,11.61-.12,2.36-.22,4.72-.22,7.09a7.78,7.78,0,0,0,.12,1.67c.42,2,1,2.31,3,2a6.58,6.58,0,0,1,2.95.32,1.43,1.43,0,0,1,1,1.72v0a1.39,1.39,0,0,1-1.44,1.22,5.65,5.65,0,0,1-1.47-.19,10.16,10.16,0,0,0-4.78,0c-1.63.48-2.51-.25-2.53-1.94C163.82,193.42,163.85,191.55,163.85,189.67Z"/><path class="cls-46" d="M73.77,194c-.81.2-1.32,1.12-2.29,1.06a2.9,2.9,0,0,1,.43-1.82c-.24-.66.3-1.07.5-1.58a11.7,11.7,0,0,1,1-1.64l1.21-1.79c.27-.38.51-.8.81-1.17a12.68,12.68,0,0,0,1.1-1.51A12.69,12.69,0,0,1,77.72,184c.49-.48.79-1.12,1.28-1.62.46-.29.91-.91,1.45-.12.5,1.51-.23,2.84-.61,4.22a.82.82,0,0,1-.06.38c-.85,1.44-2.56,2.23-3,4-.09.35-.37.44-.66.56a3.32,3.32,0,0,0-1.56,1.49C74.3,193.28,74.42,193.91,73.77,194Z"/><path class="cls-47" d="M79.84,186.5c-.28-1.52.56-3,.29-4.5a.69.69,0,0,1-.13-.7c.27-.61.78-1.07,1.1-1.65A11.86,11.86,0,0,1,82.6,178c.5-.56.92-1.21,1.41-1.74l.86-.86c.56-.45.91-1.14,1.71-1.28.42-.14.83-.63,1.27-.2s0,.87-.15,1.29a.91.91,0,0,1-.44,1.18c-.73.42-.91,1.21-1.41,1.83a.92.92,0,0,1-.46,1.14A3.47,3.47,0,0,0,84,181,38,38,0,0,1,79.84,186.5Z"/><path class="cls-48" d="M83.58,171.5c.49,0,.84-.41,1.28-.52.37.56.1,1.1.15,1.61a7.34,7.34,0,0,1-.85,2c-.22.42-.43.85-.66,1.28-.39.63-.81,1.23-1.21,1.83a15.92,15.92,0,0,1-1.35,1.93c-.35.2-.69.39-1,0a7.09,7.09,0,0,1-.25-2.93,4,4,0,0,1,.15-.84A5,5,0,0,1,81,174.05l.92-.92C82.46,172.61,82.66,171.7,83.58,171.5Z"/><path class="cls-29" d="M83.58,171.5c-.54.6-.76,1.47-1.55,1.87a1.51,1.51,0,0,1-1.6-.76c.14-1.09.31-2.17,1.58-2.58C82.51,170.52,83.26,170.78,83.58,171.5Z"/><path class="cls-49" d="M83.91,174.51a2.62,2.62,0,0,1,1.09-1.9,4.45,4.45,0,0,1,1.57,1.54,4.9,4.9,0,0,1-1.45,1.49C84.53,175.47,83.86,175.36,83.91,174.51Z"/><path class="cls-50" d="M82,170a13.9,13.9,0,0,0-1.47,2.57.35.35,0,0,1-.49,0l0,0a2.87,2.87,0,0,1-.38-1.46c0-.91-.62-1.82.15-2.61h.33a1.53,1.53,0,0,1,.08.37c.12.34.46.28.73.37C82,168.82,82,168.84,82,170Z"/><path class="cls-51" d="M87.26,176.4l.44-1.18a2,2,0,0,1,1,1.71A1.47,1.47,0,0,1,87.26,176.4Z"/><path class="cls-38" d="M85.39,179.38a2.68,2.68,0,0,1,.46-1.15,3.62,3.62,0,0,1,.42.36c.24.3.43.68.08,1S85.66,179.68,85.39,179.38Z"/><path class="cls-52" d="M106.43,180.49a4.15,4.15,0,0,1-.11,1.68c-.65-.27-.64-.78-.57-1.32Z"/><path class="cls-53" d="M96.65,180.08a2.36,2.36,0,0,1-.09,1.29c-.38-.4-.24-.84-.25-1.24A1.86,1.86,0,0,0,96.65,180.08Z"/><path class="cls-54" d="M100.47,174.13a2.27,2.27,0,0,1,.13-1.26c.34.43.19.86.19,1.27h-.32Z"/><path class="cls-55" d="M80.94,169.19c-.44.26-.81.36-.73-.37A.91.91,0,0,1,80.94,169.19Z"/><path class="cls-56" d="M64.05,125.3a10.76,10.76,0,0,1,2.6,1.14,9.41,9.41,0,0,1-1.43,1.95c-.57.46-1.11.27-1.17-.46A25.63,25.63,0,0,1,64.05,125.3Z"/><path class="cls-57" d="M71.91,129.05l1.52.4a2.26,2.26,0,0,1-.31.45c-.25.25-.47.64-.91.48s-.29-.62-.32-.92A1.88,1.88,0,0,1,71.91,129.05Z"/><path class="cls-14" d="M91.49,84.71l-4.57-1.47c-.58-1.45.33-2.39,1.19-3.33,1.34.71,2.87,1,4.15,1.83A2.29,2.29,0,0,1,91.49,84.71Z"/><path class="cls-58" d="M129,94.55c-.27,1.33-1.25,2.37-1.55,3.66-1.17-.75-2.6-.92-3.66-1.83a4.41,4.41,0,0,1,.78-3.34Z"/><path class="cls-14" d="M124.53,93.08a7.42,7.42,0,0,1-.79,3.33,13.16,13.16,0,0,1-4.18-1.89c-.44-1.22.24-2,1.13-2.6A22.36,22.36,0,0,0,124.53,93.08Z"/><path class="cls-58" d="M88.06,79.91c-.16,1.2-1.17,2.09-1.19,3.33a22.68,22.68,0,0,1-3.36-.76,9,9,0,0,1,1.17-3.81C85.91,78.74,86.87,79.67,88.06,79.91Z"/><path class="cls-14" d="M100,87.37l-4.85-1.53a2.21,2.21,0,0,1,1.12-2.57l4.23,1.52A2,2,0,0,1,100,87.37Z"/><path class="cls-59" d="M120.65,91.92a13.88,13.88,0,0,0-1.12,2.6A12.35,12.35,0,0,1,115.46,93a2.2,2.2,0,0,1,.73-2.58Z"/><path class="cls-26" d="M116.23,90.43c-.25.85-.5,1.72-.74,2.58l-4.2-1.53c-.57-1.13,0-1.83.81-2.56Z"/><path class="cls-14" d="M107.6,90c-1.6-.26-3-1.21-4.57-1.53-.32-1.1-.06-1.9,1.13-2.23a18.7,18.7,0,0,1,4.15,1.49A1.78,1.78,0,0,1,107.6,90Z"/><path class="cls-59" d="M96.31,83.27l-1.12,2.58a26.38,26.38,0,0,0-3.7-1.14,14.19,14.19,0,0,0,.72-2.94A16.52,16.52,0,0,1,96.31,83.27Z"/><path class="cls-59" d="M107.6,90c.24-.76.48-1.51.73-2.27l3.77,1.18c-.09.91-.91,1.6-.81,2.56Z"/><path class="cls-60" d="M104.2,86.25A5.48,5.48,0,0,0,103,88.51l-3-1.11c.15-.86.31-1.72.45-2.58C101.69,85.36,103.06,85.48,104.2,86.25Z"/><path class="cls-14" d="M83.22,108.74l-5.66-1.83c-.06-1.48,0-2.91,1.47-3.79a25.53,25.53,0,0,1,5.65,2.58C84.52,106.87,84.36,108,83.22,108.74Z"/><path class="cls-14" d="M116.15,121.17l-5.62-2.3a2.48,2.48,0,0,1,.83-3,28.06,28.06,0,0,1,6,1.83A4.25,4.25,0,0,1,116.15,121.17Z"/><path class="cls-14" d="M91.46,111.41a49.69,49.69,0,0,1-5.68-1.88,2.42,2.42,0,0,1,1.11-3l5.68,2.27A2.29,2.29,0,0,1,91.46,111.41Z"/><path class="cls-14" d="M81.69,95.63c2,.37,3.65,1.72,5.62,2.3a2.74,2.74,0,0,1-.77,2.56l-6-1.83A2.61,2.61,0,0,1,81.69,95.63Z"/><path class="cls-14" d="M114,108.05l6,1.83a2.74,2.74,0,0,1-1.13,3,51.82,51.82,0,0,1-5.63-2.57A2.56,2.56,0,0,1,114,108.05Z"/><path class="cls-14" d="M107.51,117.42a27.74,27.74,0,0,1-5.6-2.27c-.44-1-.43-1.83.77-2.25,2,.28,3.76,1.28,5.66,1.9C108.81,115.93,108.21,116.68,107.51,117.42Z"/><path class="cls-14" d="M99,114.1c-1.93-.48-3.78-1.26-5.66-1.92a2.22,2.22,0,0,1,1.09-2.65l5.65,2.24C100.26,112.82,100.19,113.72,99,114.1Z"/><path class="cls-14" d="M89.57,99a55.38,55.38,0,0,1,5.67,2.27,1.44,1.44,0,0,1-.46,1.83l-6-1.91A2,2,0,0,1,89.57,99Z"/><path class="cls-14" d="M105.35,105.06c1.94.83,4.07,1.21,6,2.17a1.84,1.84,0,0,1-.8,2,28.89,28.89,0,0,1-5.61-2.3C104.4,106.12,104.77,105.56,105.35,105.06Z"/><path class="cls-59" d="M79,103.13c-.77,1.15-.92,2.56-1.47,3.79a6.39,6.39,0,0,1-2.62-.76c.81-1.32.82-3,1.83-4.22A5.6,5.6,0,0,1,79,103.13Z"/><path class="cls-26" d="M97.1,102a35.06,35.06,0,0,1,5.62,2.25c.41.66.31,1.18-.44,1.51-2-.29-3.75-1.3-5.64-1.92C96.16,103.13,96.48,102.54,97.1,102Z"/><path class="cls-60" d="M107.51,117.42c0-.91.72-1.7.83-2.62a9.68,9.68,0,0,1,3,1.13,23.66,23.66,0,0,0-.83,3Z"/><path class="cls-59" d="M81.69,95.63l-1.15,3A11.93,11.93,0,0,1,78,97.89c.64-1.08.75-2.4,1.46-3.45A5.64,5.64,0,0,1,81.69,95.63Z"/><path class="cls-60" d="M86.89,106.55a15.69,15.69,0,0,0-1.11,3l-2.56-.77c.61-.92.64-2.18,1.46-3A5.17,5.17,0,0,1,86.89,106.55Z"/><path class="cls-61" d="M116.15,121.17a12.11,12.11,0,0,1,1.18-3.41,3.45,3.45,0,0,1,1.83.44,18.69,18.69,0,0,0-1.14,3.73A3.76,3.76,0,0,1,116.15,121.17Z"/><path class="cls-62" d="M118.82,112.92c.38-1,.74-2,1.11-3a5.33,5.33,0,0,1,2.23.72l-1.46,3.1A5,5,0,0,1,118.82,112.92Z"/><path class="cls-60" d="M110.53,109.18a5.13,5.13,0,0,1,.8-2,9.71,9.71,0,0,1,2.67.82,4.22,4.22,0,0,1-.79,2.3A7.08,7.08,0,0,1,110.53,109.18Z"/><path class="cls-63" d="M99,114.1c.65-.61.66-1.53,1.08-2.25a8.35,8.35,0,0,1,2.62,1.08,4.56,4.56,0,0,0-.77,2.25A5.91,5.91,0,0,1,99,114.1Z"/><path class="cls-64" d="M89.57,99l-.79,2.21-2.26-.75a6.56,6.56,0,0,1,.77-2.56Z"/><path class="cls-62" d="M94.41,109.53l-1.09,2.58-1.83-.74c.36-.91.74-1.73,1.1-2.59Z"/><path class="cls-65" d="M102.28,105.8a2.51,2.51,0,0,0,.43-1.51c1-.13,1.71.66,2.64.77-.15.6-.3,1.22-.43,1.83A5.12,5.12,0,0,1,102.28,105.8Z"/><path class="cls-66" d="M97.1,102c-.15.62-.3,1.23-.46,1.83a5.75,5.75,0,0,1-1.82-.73,7.31,7.31,0,0,1,.45-1.83A5.71,5.71,0,0,1,97.1,102Z"/><path class="cls-67" d="M66.64,114a15.07,15.07,0,0,1,.91-4.08,7.83,7.83,0,0,0,.62-2.66c1.5-.44,2.28.92,3.41,1.38a5.09,5.09,0,0,1,1.82,1.26v.35a6,6,0,0,1-1.82,4.88A22.69,22.69,0,0,0,66.64,114Z"/><path class="cls-14" d="M79.8,117.42l-4.14-1.12-.49-1.07a1.44,1.44,0,0,1-.31-.84,3.86,3.86,0,0,1,1.2-3c1.68,1,3.65,1.38,5.24,2.56A4.19,4.19,0,0,1,79.8,117.42Z"/><path class="cls-14" d="M112.81,129.43a49.12,49.12,0,0,1-5.23-2.22,3.69,3.69,0,0,1,1.09-3.34l5.66,1.78A4.72,4.72,0,0,1,112.81,129.43Z"/><path class="cls-14" d="M88,120.05c-1.83-.21-3.46-1.12-5.24-1.55a3,3,0,0,1,1.15-3.35c1.5.11,2.66,1.15,4.07,1.5.4.13.8.27,1.19.43A3,3,0,0,1,88,120.05Z"/><path class="cls-14" d="M103.85,125.71a16.17,16.17,0,0,1-4.93-1.9,2.19,2.19,0,0,1,.78-2.65,25.75,25.75,0,0,1,5.61,1.83C105.11,124.07,105.05,125.2,103.85,125.71Z"/><path class="cls-14" d="M95.53,122.68a28.1,28.1,0,0,1-5.22-1.83,2.86,2.86,0,0,1,1.12-2.74,25.56,25.56,0,0,1,5.23,1.9A2.65,2.65,0,0,1,95.53,122.68Z"/><path class="cls-59" d="M103.85,125.71c.61-.84.67-2,1.46-2.74l3.36.86c-.37,1.12-.73,2.24-1.09,3.36C106.33,126.75,104.92,126.64,103.85,125.71Z"/><path class="cls-59" d="M83.93,115.15c-.39,1.11-.76,2.24-1.15,3.35l-3-1.08A24.58,24.58,0,0,1,81.34,114,4.74,4.74,0,0,1,83.93,115.15Z"/><path class="cls-68" d="M75.21,114.41v.81c-.34.46-.67.8-1.36.55a21.53,21.53,0,0,0-2.26-.62l1.83-4.88h.39A6.6,6.6,0,0,1,75.21,114.41Z"/><path class="cls-59" d="M95.53,122.68a16.54,16.54,0,0,1,1.13-2.63,9.19,9.19,0,0,1,3,1.11l-.78,2.65A8,8,0,0,1,95.53,122.68Z"/><path class="cls-69" d="M73.41,109.92c-1.62-.32-2.81-1.48-4.22-2.21a2.42,2.42,0,0,0-1-.43l-.41-.76c1.59-1,2.56-1,3.76.25A6.15,6.15,0,0,1,73.41,109.92Z"/><path class="cls-59" d="M112.81,129.43l1.52-3.78a3.79,3.79,0,0,1,1.93.42c-.4,1.48-.81,3-1.21,4.44Z"/><path class="cls-61" d="M91.4,118.14c-.49.86-.49,1.91-1.13,2.75A4.26,4.26,0,0,1,88,120.1c.39-1,.77-2,1.17-3A16.68,16.68,0,0,1,91.4,118.14Z"/><path class="cls-70" d="M75.21,114.41a22.83,22.83,0,0,1-1.41-4.1l2.26,1.11Z"/><path class="cls-19" d="M77.54,88.88a.87.87,0,0,0-.39.78,1.66,1.66,0,0,1-2.21-.41c.47-2.1,1.64-3.94,2.27-6,.49-.27.79.06,1.1.34v.44A4.1,4.1,0,0,1,77.54,88.88Z"/><path class="cls-71" d="M74.94,89.25l2.25.41a4,4,0,0,1-1.49,2.61c-.91.18-1.4-.47-1.83-1.11a4.57,4.57,0,0,1-.29-.47c-.52-.91-.46-1.15.47-1.39A5.32,5.32,0,0,1,74.94,89.25Z"/><path class="cls-72" d="M73.81,91.16l1.83,1.11v.37a5.79,5.79,0,0,1-3,2.26C72.74,93.59,73.78,92.52,73.81,91.16Z"/><path class="cls-73" d="M78.28,83.61a2.16,2.16,0,0,1-1.11-.34c-.52-.28-.91-.67-.65-1.29s.82-.62,1.38-.56l.33.34C78.24,82.38,78.26,83,78.28,83.61Z"/><path class="cls-67" d="M64.77,121.54c-.06-1.55.82-2.94.78-4.49a16.32,16.32,0,0,1,4.12,2.25c.66,1.48-.31,2.39-1.13,3.36Z"/><path class="cls-74" d="M68.54,122.66c.12-1.21,1.21-2.08,1.13-3.36,1.44,0,2.49,1,3.73,1.51a3,3,0,0,1-.75,3A17.26,17.26,0,0,0,68.54,122.66Z"/><path class="cls-56" d="M72.65,123.78a11.85,11.85,0,0,1,.75-3,8.24,8.24,0,0,0,3.37,1.11c.07.51-.14,1.08.29,1.53a.9.9,0,0,1,.26,1.26.87.87,0,0,1-.2.23C75.54,124.86,74.21,123.86,72.65,123.78Z"/><path class="cls-75" d="M77.12,124.93l-.06-1.49c.15-.44.38-.92.92-.66,1,.49,2.16.6,3,1.4a1.21,1.21,0,0,1-.13,1.7,1.75,1.75,0,0,1-.29.18c-1.14-.16-2.15-.83-3.33-.8A1.62,1.62,0,0,0,77.12,124.93Z"/><path class="cls-56" d="M76.43,120.42a.77.77,0,0,1,.34.77A.77.77,0,0,1,76.43,120.42Z"/><path class="cls-12" d="M59.87,185A11.91,11.91,0,0,1,61,182.39a1.68,1.68,0,0,1,.24-1c.47-.7.92-1.38,1.38-2.09.29-.4.57-.81.84-1.24.52-.78,1.08-1.52,1.64-2.27a6.86,6.86,0,0,1,.61-.81c.48-.58.91-1.23,1.37-1.83.32-.39.56-.82.91-1.21a15,15,0,0,0,1.42-1.76c.38-.43.82-.82,1.17-1.28A10.79,10.79,0,0,1,72,167.2l.92-.86c.67-.56,1.12-1.4,2-1.66l.16-.08c.47-.22.84-.91,1.42-.49s-.19.91-.1,1.34a6.69,6.69,0,0,1-1.2,2.66,9.09,9.09,0,0,1-.49.86,20.51,20.51,0,0,0-1.66,2.29,9.43,9.43,0,0,1-.56.84c-.56.85-1.21,1.63-1.83,2.46a8.31,8.31,0,0,0-.77,1c-.49.67-1,1.34-1.51,2a6.64,6.64,0,0,1-.51.55c-.68.62-1.09,1.46-1.74,2.1a11.94,11.94,0,0,0-.83.91,11.84,11.84,0,0,1-1.83,2.1c-.17.2-.36.37-.54.55-.77.67-1.33,1.59-2.38,1.93C60.16,185.73,59.5,185.91,59.87,185Z"/><path class="cls-12" d="M63.28,187.61a.66.66,0,0,1-.75-.56.43.43,0,0,1,0-.16,5.94,5.94,0,0,1,.85-2.29,14.25,14.25,0,0,1,.75-1.25l1.48-2.21a7.13,7.13,0,0,1,.54-.81c.69-.63,1-1.53,1.72-2.15a3.94,3.94,0,0,0,.61-.8c.56-.73,1.11-1.47,1.66-2.21a4.09,4.09,0,0,0,.8-.91c.36-.78,1.16-1.22,1.49-2,.26-.33.53-.66.82-1a13.07,13.07,0,0,0,1.76-2.1,5.38,5.38,0,0,1,.52-.55c.79-.54,1.16-1.73,2.39-1.62l.17-.08c.36-.16.65-.76,1.07-.46s0,.86-.11,1.3c.3,1.17-.79,1.83-1.08,2.74-.08.15-.16.3-.25.44-.57.84-1.21,1.62-1.77,2.45-.24.33-.5.65-.72,1-.51.71-1.07,1.38-1.56,2.11a7.72,7.72,0,0,0-.83,1.14c-.52.6-1,1.24-1.46,1.88-.26.31-.55.59-.82.92a21.43,21.43,0,0,1-1.73,2.08c-.16.18-.33.37-.48.56a11.79,11.79,0,0,1-1.78,2.08c-.31.3-.6.58-.92.92A4.23,4.23,0,0,1,63.28,187.61Z"/><path class="cls-12" d="M58,180.84a1.15,1.15,0,0,1,0-.37c0-1.37.91-2.31,1.54-3.38.29-.4.57-.79.83-1.21.47-.65.91-1.34,1.43-1.95.3-.38.54-.81.85-1.19.5-.57.92-1.22,1.37-1.78.32-.4.57-.82.92-1.21.5-.57.87-1.25,1.41-1.83a6.54,6.54,0,0,0,1.09-1.26A12.58,12.58,0,0,1,69,164.89a6.26,6.26,0,0,0,.84-1.13c.49-.54.91-1.18,1.67-1.35l2.07-1.13a5,5,0,0,1-.56,2.24,5.7,5.7,0,0,1-.92,2.27c-.22.34-.47.66-.68,1-.5.73-1,1.45-1.46,2.19a12.16,12.16,0,0,1-.91,1.13c-.43.56-.79,1.17-1.17,1.75a10.53,10.53,0,0,0-1,1.3c-.42.68-1.06,1.18-1.49,1.83a6.34,6.34,0,0,1-.57.79c-.66.63-1.09,1.44-1.71,2.09a5.48,5.48,0,0,0-.76.91,11,11,0,0,1-1.57,1.83,6.78,6.78,0,0,1-1.34.92C58.24,182.41,58.22,182.4,58,180.84Z"/><path class="cls-76" d="M71.91,165.82a4.28,4.28,0,0,1,1.15-2.24,3.93,3.93,0,0,1,1.83,1.13,6,6,0,0,1-1.83,1.9A1,1,0,0,1,71.91,165.82Z"/><path class="cls-76" d="M77.92,167l-2.22,1.89a.91.91,0,0,1-.8-.76,8.8,8.8,0,0,1,1.49-2.61C76.68,166.21,77.68,166.21,77.92,167Z"/><path class="cls-77" d="M77.55,170.35l1.5-2.62a1.36,1.36,0,0,1,.75.74c-.19.92.45,1.74.35,2.65-.55-.74-.91.25-1.43.13A2.49,2.49,0,0,1,77.55,170.35Z"/><path class="cls-78" d="M71.55,162.47a4.2,4.2,0,0,1-1.5,1.52,1.12,1.12,0,0,1-1.13-.77c.5-.61.72-1.44,1.45-1.82C70.58,161.93,71.28,162,71.55,162.47Z"/><path class="cls-79" d="M61.39,168.86A2.52,2.52,0,0,1,60.26,170c-.31-.19-.68-.4-.56-.83s.49-.3.78-.32S61.08,168.86,61.39,168.86Z"/><path class="cls-80" d="M68.54,160.6a2.37,2.37,0,0,1-1.11,1.12,3,3,0,0,0-.12-.54c-.36-.82-.06-1,.73-.82A4.59,4.59,0,0,1,68.54,160.6Z"/><path class="cls-81" d="M65.89,163.24a2.3,2.3,0,0,1-1.1,1.14C64.41,163.25,64.41,163.25,65.89,163.24Z"/><path class="cls-82" d="M63.28,166.21a1.37,1.37,0,0,1-.75.76C62.14,166.29,62.19,166.27,63.28,166.21Z"/><path class="cls-12" d="M78.7,171.11c.48-.32,1-.79,1.46,0v1.52a.52.52,0,0,1,.11.46A10.32,10.32,0,0,1,79,175.44c-.31.46-.62.91-.91,1.4-.48.65-.92,1.32-1.43,1.93-.3.38-.55.81-.85,1.19-.48.58-.91,1.23-1.38,1.83-.31.39-.56.82-.91,1.21a9.4,9.4,0,0,0-1.44,1.71,8.86,8.86,0,0,1-.82.91,9,9,0,0,0-1.44,1.69,12,12,0,0,1-1.17,1.3c-.61.55-1.12,1.25-2.06,1.28-1,.38-1,.36-1.12-.75a5.72,5.72,0,0,1,.87-2.28c.26-.41.56-.8.8-1.21.52-.72,1-1.46,1.48-2.2.23-.34.52-.63.75-.92.5-.67.92-1.39,1.42-2.05l.48-.58c.47-.69,1-1.34,1.46-2a9.34,9.34,0,0,1,.81-1c.61-.71,1.1-1.49,1.75-2.15.32-.38.57-.82.91-1.2a14.89,14.89,0,0,0,1.83-2A.93.93,0,0,1,78.7,171.11Z"/><path class="cls-12" d="M80.15,176.38v3.38a.46.46,0,0,1,.12.42,4.26,4.26,0,0,1-.36.85,5.36,5.36,0,0,1-1.08,1.5A12.61,12.61,0,0,1,77.71,184c-.37.5-.77,1-1.13,1.49A9.52,9.52,0,0,1,75.46,187a4,4,0,0,0-.8,1.14,19,19,0,0,1-1.45,1.55A5.82,5.82,0,0,0,72,191.13a3.53,3.53,0,0,1-1.67,1.36c-.65-.08-1,.73-1.64.62-.52-.62.21-1.14.14-1.72a3.8,3.8,0,0,1,.84-2c.28-.41.54-.83.81-1.24l1.39-2.09c.19-.27.37-.57.54-.85.53-.77,1.09-1.5,1.64-2.24l.57-.82c.45-.71,1-1.34,1.45-2,.24-.33.52-.62.78-.92a16.81,16.81,0,0,1,1.5-1.89c.36-.44.64-1,1.29-1.1A.6.6,0,0,1,80.15,176.38Z"/><path class="cls-56" d="M66.71,186.87a4.45,4.45,0,0,1-1.13,2.27,9.83,9.83,0,0,1-2.25-1.53l2.23-1.82C66.37,185.64,66.71,186,66.71,186.87Z"/><path class="cls-56" d="M70,189.49a6.42,6.42,0,0,1-1.13,1.9,8.56,8.56,0,0,1-2.26-1.5l1.89-1.53C69.6,188,70,188.49,70,189.49Z"/><path class="cls-76" d="M63.67,184.62a4.46,4.46,0,0,1-1.14,2.27l-1.89-1.16a9.09,9.09,0,0,1,2.24-2.22C63.45,183.67,63.81,184,63.67,184.62Z"/><path class="cls-78" d="M70.37,192.49A4,4,0,0,1,71.88,191c.6-.11.85.14.76.75s-.54,1-.77,1.51Z"/><path class="cls-83" d="M73.77,194c.23-.39.34-.87.77-1.12.16.43.53.79.48,1.32A.92.92,0,0,1,73.77,194Z"/><path class="cls-76" d="M59.9,177.13c-.35,1.27-1.38,2.17-1.83,3.37a1.2,1.2,0,0,1,0-.33,1.59,1.59,0,0,1,0-1.88l-.33-.82c.67.09,1-.53,1.48-.74S59.76,176.78,59.9,177.13Z"/><path class="cls-84" d="M69.27,165.13,67.77,167c-.59.1-.85-.14-.75-.74.31-.55.46-1.23,1.13-1.51a.82.82,0,0,1,1.1.37A.14.14,0,0,1,69.27,165.13Z"/><path class="cls-85" d="M69.27,165.13l-1.12-.41c0-.65.55-1,.77-1.5a2.6,2.6,0,0,1,1.13.77A1.24,1.24,0,0,1,69.27,165.13Z"/><path class="cls-86" d="M62.14,174.11c-.5.62-.74,1.45-1.47,1.89-.36-.12-.58-.33-.41-.75s.46-1.24,1.14-1.52C61.82,173.53,62.2,173.42,62.14,174.11Z"/><path class="cls-86" d="M64.4,171.12c-.51.61-.73,1.45-1.48,1.83-.36-.13-.59-.33-.4-.74l1.13-1.43C64.06,170.56,64.26,170.78,64.4,171.12Z"/><path class="cls-86" d="M66.66,168.12c-.52.61-.73,1.45-1.49,1.83-.35-.13-.58-.32-.4-.73l1.12-1.53C66.31,167.54,66.52,167.77,66.66,168.12Z"/><path class="cls-87" d="M66.66,168.12l-.77-.39c.32-.54.47-1.22,1.13-1.49a1.46,1.46,0,0,0,.75.74A2.5,2.5,0,0,1,66.66,168.12Z"/><path class="cls-88" d="M60.31,175.25l.41.75a1.25,1.25,0,0,1-.77,1.13l-.76-.4C59.44,176.19,59.6,175.52,60.31,175.25Z"/><path class="cls-89" d="M64.77,169.26c.13.24.27.48.4.73-.23.39-.35.91-.77,1.13l-.75-.38Z"/><path class="cls-90" d="M62.52,172.26l.4.74c-.23.38-.35.86-.77,1.11a.82.82,0,0,0-.74-.38A5.53,5.53,0,0,1,62.52,172.26Z"/><path class="cls-91" d="M58,178.29v1.88c-.38-.26-.86-.39-1.13-.8A2,2,0,0,1,58,178.29Z"/><path class="cls-89" d="M59.55,181.62a2.13,2.13,0,0,1,1.08-1.11c.57.16.92.45.8,1.11a.91.91,0,0,1-.41.77C60.51,182.17,60.19,181.59,59.55,181.62Z"/><path class="cls-14" d="M89.13,92.66c-2-.14-3.73-1.06-5.61-1.54-.42-1.49.37-2.6,1.18-3.66,1.67,1,3.65,1.4,5.24,2.56A2.12,2.12,0,0,1,89.13,92.66Z"/><path class="cls-14" d="M121.46,105a31.6,31.6,0,0,1-5.25-2.26,2.57,2.57,0,0,1,1.08-3l5.3,1.83A3.48,3.48,0,0,1,121.46,105Z"/><path class="cls-14" d="M77.54,88.88a13.9,13.9,0,0,0,.78-4.83c1.14.92,2.63,1.25,3.73,2.22a4.24,4.24,0,0,1-1.47,4.1c-.69-.13-1.39-.27-2.09-.38A1,1,0,0,1,77.54,88.88Z"/><path class="cls-14" d="M97.42,95.63,91.8,93.74c-.44-1.21.21-1.95,1.1-2.59a27.24,27.24,0,0,1,5.3,2.18A2.69,2.69,0,0,1,97.42,95.63Z"/><path class="cls-14" d="M113.19,101.62c-1.69-.92-3.66-1.26-5.27-2.25-.54-1-.12-1.7.76-2.22A29.71,29.71,0,0,1,114,99,2.58,2.58,0,0,1,113.19,101.62Z"/><path class="cls-14" d="M105,98.27c-1.83-.46-3.54-1.27-5.32-1.9a1.52,1.52,0,0,1,.48-2.08,1.24,1.24,0,0,1,.33-.15,36.82,36.82,0,0,1,5.27,1.9,1.61,1.61,0,0,1-.69,2.19Z"/><path class="cls-59" d="M80.58,90.33a37.79,37.79,0,0,0,1.47-4.1,10.39,10.39,0,0,1,2.65,1.15c-.08,1.34-1,2.41-1.18,3.71Z"/><path class="cls-92" d="M121.46,105l1.13-3.42a6.75,6.75,0,0,1,2.74.78c-.28,1.29-1.12,2.4-1.25,3.74A3.86,3.86,0,0,1,121.46,105Z"/><path class="cls-59" d="M113.19,101.62A7.92,7.92,0,0,1,114,99l3.33.86-1.08,3Z"/><path class="cls-59" d="M92.9,91.15a14.39,14.39,0,0,0-1.1,2.59c-.86-.44-1.88-.44-2.66-1.08.26-.92.53-1.83.8-2.68A7.69,7.69,0,0,1,92.9,91.15Z"/><path class="cls-93" d="M105,98.27c.26-.74.51-1.49.76-2.23a9.46,9.46,0,0,1,3,1.11,5.49,5.49,0,0,0-.76,2.22A9.29,9.29,0,0,1,105,98.27Z"/><path class="cls-64" d="M100.45,94.14a5.68,5.68,0,0,0-.83,2.23l-2.22-.74a4.05,4.05,0,0,1,.78-2.3A4.34,4.34,0,0,1,100.45,94.14Z"/><path class="cls-14" d="M109.1,137.31c-1.23-.7-2.74-.86-3.8-1.83a2.63,2.63,0,0,1,.74-3c1.47.65,3.14.68,4.57,1.46C110.94,135.43,110.2,136.45,109.1,137.31Z"/><path class="cls-59" d="M109.1,137.31a19.85,19.85,0,0,0,1.49-3.37,6,6,0,0,1,3.06.73,19.4,19.4,0,0,1-1.19,4.18A18.89,18.89,0,0,1,109.1,137.31Z"/><path class="cls-59" d="M106,132.49l-.74,2.95c-1.74-.33-3.21-1.34-4.87-1.9-.45-1,.08-1.65.8-2.23C102.91,131.41,104.41,132.23,106,132.49Z"/><path class="cls-26" d="M101.22,131.31l-.79,2.23a26.77,26.77,0,0,1-4.12-1.77c-.1-.78-.09-1.51.74-1.94A17.12,17.12,0,0,1,101.22,131.31Z"/><path class="cls-60" d="M97.05,129.83c-.43.57-.17,1.41-.74,1.94a36.07,36.07,0,0,1-4.47-1.6,1.52,1.52,0,0,1,.76-1.83Z"/><path class="cls-26" d="M80.57,126.06a4.37,4.37,0,0,0,.42-1.88c1.59.18,2.91,1.15,4.44,1.52a1.64,1.64,0,0,1-.78,1.83Z"/><path class="cls-94" d="M92.6,128.35c-.24.6-.5,1.21-.76,1.82-1.13-.55-2.5-.54-3.45-1.49-.32-.63-.56-1.23.39-1.51A14.23,14.23,0,0,1,92.6,128.35Z"/><path class="cls-60" d="M88.78,127.16c-.47.41-.32,1-.39,1.51a13.16,13.16,0,0,1-3.74-1.13,5.59,5.59,0,0,1,.78-1.83A20.3,20.3,0,0,1,88.78,127.16Z"/><path class="cls-94" d="M148.53,115.14c-.75.54-1.28,1.39-2.28,1.57-.92-.15-1.08-.71-.8-1.51a5.81,5.81,0,0,1,2.27-1.18C148.59,114,148.59,114.52,148.53,115.14Z"/><path class="cls-95" d="M165.05,104.26a7.05,7.05,0,0,1-2.29,1.5,1.15,1.15,0,0,1-.76-1.44h0l2.23-1.52a1.13,1.13,0,0,1,.85,1.36A.23.23,0,0,1,165.05,104.26Z"/><path class="cls-96" d="M165.05,104.26l-.82-1.47a4.53,4.53,0,0,1,1.9-1.2,3,3,0,0,1,.83,1.58A2.51,2.51,0,0,1,165.05,104.26Z"/><path class="cls-97" d="M145.45,115.2a2.6,2.6,0,0,0,.8,1.51,3.59,3.59,0,0,1-1.5,1.44c-.38-.61-.77-1.23-1.16-1.83Z"/><path class="cls-95" d="M152.65,112.17c-.74.53-1.27,1.37-2.26,1.52-.82,0-.86-.51-.76-1.12a5.49,5.49,0,0,1,2.27-1.21C152.48,111.36,152.77,111.56,152.65,112.17Z"/><path class="cls-97" d="M162,104.31l.76,1.45c-.78.3-1.32,1-2.19,1.14a.91.91,0,0,1-.48-1.1C160.54,105.05,161.35,104.8,162,104.31Z"/><path class="cls-98" d="M160.09,105.8c.16.37.31.73.48,1.1-.52.91-1.51,1-2.27,1.52a.91.91,0,0,1-.42-1.14A8.08,8.08,0,0,1,160.09,105.8Z"/><path class="cls-99" d="M156.42,109.53a4.26,4.26,0,0,1-2.24,1.53c-.56-.2-.75-.55-.46-1.11l2.27-1.51C156.47,108.62,156.75,109,156.42,109.53Z"/><path class="cls-100" d="M149.62,112.57a3.42,3.42,0,0,0,.76,1.12,5.28,5.28,0,0,1-1.83,1.45,3,3,0,0,0-.8-1.12C148.16,113.28,149,113.06,149.62,112.57Z"/><path class="cls-101" d="M156.42,109.53l-.43-1.09,1.89-1.15.42,1.14C157.72,108.86,157.22,109.47,156.42,109.53Z"/><path class="cls-102" d="M153.72,109.94c.15.38.3.74.46,1.11a3,3,0,0,1-1.53,1.12,1.6,1.6,0,0,0-.74-.8C152.31,110.65,153.11,110.45,153.72,109.94Z"/><path class="cls-26" d="M156,131.72a11.21,11.21,0,0,1,2.68-1.55c1,.08,1.06.83,1.13,1.56a7,7,0,0,1-2.62,1.83,1.32,1.32,0,0,1-1.31-1.31A1.24,1.24,0,0,1,156,131.72Z"/><path class="cls-26" d="M172.88,120.86a10,10,0,0,1,2.62-2,1.52,1.52,0,0,1,1.16,1.81v0c-1,.42-1.83,1.37-3,1.55C173,122.08,172.5,121.71,172.88,120.86Z"/><path class="cls-103" d="M160.14,129.39a8.37,8.37,0,0,1,3-1.83,1.29,1.29,0,0,1,.8,1.49c-.91.5-1.58,1.34-2.64,1.56C160.45,130.56,160,130.29,160.14,129.39Z"/><path class="cls-94" d="M168.39,124.16a7.83,7.83,0,0,1,2.67-1.89c.8,0,.91.6,1.08,1.2a12.45,12.45,0,0,1-3,1.83C168.61,125.13,168.19,124.87,168.39,124.16Z"/><path class="cls-94" d="M164.24,126.84a18.14,18.14,0,0,1,2.64-1.89,1.13,1.13,0,0,1,.8,1.37s0,.07,0,.11c-.91.5-1.58,1.32-2.63,1.55C164.2,128,163.94,127.6,164.24,126.84Z"/><path class="cls-95" d="M179.28,125a16,16,0,0,1-2.59,1.44,1.15,1.15,0,0,1-.8-1.17,5.16,5.16,0,0,1,2.25-1.83A1.83,1.83,0,0,1,179.28,125Z"/><path class="cls-96" d="M179.28,125c-.65-.34-.8-1-1.14-1.58a2.78,2.78,0,0,1,1.16-1.12c.75.43,1,1.27,1.52,1.89A2.76,2.76,0,0,1,179.28,125Z"/><path class="cls-104" d="M156,131.72a4.22,4.22,0,0,0,1.19,1.83,2.68,2.68,0,0,1-1.17,1.14c-.85-.53-1-1.53-1.52-2.28A2.15,2.15,0,0,1,156,131.72Z"/><path class="cls-97" d="M175.89,125.26a3,3,0,0,1,.79,1.17,14.19,14.19,0,0,1-2.6,1.48.81.81,0,0,1-.44-1s0,0,0,0C174.38,126.25,174.94,125.47,175.89,125.26Z"/><path class="cls-101" d="M172.14,123.47c-.57-.22-.65-.91-1.08-1.2a5,5,0,0,1,1.83-1.41c0,.62.57.91.82,1.46C173.37,123,172.69,123.14,172.14,123.47Z"/><path class="cls-97" d="M158.25,138.79c-.3-.54-.47-1.18-1.07-1.52a4.18,4.18,0,0,1,2.17-1.1,1.33,1.33,0,0,1,.77,1.14Z"/><path class="cls-99" d="M160.12,137.33a1.37,1.37,0,0,1-.77-1.13,3.85,3.85,0,0,1,2-1.15c.64-.09.65.37.71.8C161.57,136.58,160.76,136.85,160.12,137.33Z"/><path class="cls-105" d="M160.14,129.39a2.65,2.65,0,0,0,1.11,1.21,2,2,0,0,1-1.47,1.13l-1.13-1.56A2.39,2.39,0,0,1,160.14,129.39Z"/><path class="cls-106" d="M176.66,120.78,175.51,119a1.62,1.62,0,0,1,.79-.76c.75.43,1,1.28,1.51,1.89A2.58,2.58,0,0,1,176.66,120.78Z"/><path class="cls-98" d="M173.68,126.81l.42,1.1a6.74,6.74,0,0,1-1.94,1.17c-.6.1-.83-.16-.74-.75Z"/><path class="cls-101" d="M167.64,126.43c-.25-.5-.5-1-.76-1.48.51-.24.86-.79,1.51-.79l.78,1.15Z"/><path class="cls-107" d="M166.16,132.9a14.34,14.34,0,0,1-2.26,1.77c-.49-.22-.73-.54-.43-1.08l2.29-1.5A.85.85,0,0,1,166.16,132.9Z"/><path class="cls-108" d="M163.47,133.59c.15.37.3.73.43,1.08L162,135.85l-.71-.8A7,7,0,0,1,163.47,133.59Z"/><path class="cls-109" d="M171.4,128.33a1.73,1.73,0,0,0,.74.75,7.69,7.69,0,0,1-2.24,1.49c-.35-.14-.56-.36-.39-.76C170,129.06,170.76,128.8,171.4,128.33Z"/><path class="cls-107" d="M169.51,129.81l.39.76-2.22,1.48a.81.81,0,0,1-.4-.77A9.47,9.47,0,0,1,169.51,129.81Z"/><path class="cls-110" d="M164.24,126.84A1.36,1.36,0,0,0,165,128a2.27,2.27,0,0,1-1.12,1.06c-.26-.49-.76-.91-.8-1.49A2.51,2.51,0,0,1,164.24,126.84Z"/><path class="cls-102" d="M167.28,131.28a.93.93,0,0,1,.4.77c-.52.26-.92.78-1.52.85a.91.91,0,0,1-.4-.81Z"/><path class="cls-26" d="M151.51,119a12.68,12.68,0,0,1-2.93,2.21c-.69-.42-1.25-.92-.91-1.83l3.06-1.59A1.07,1.07,0,0,1,151.51,119Z"/><path class="cls-26" d="M168.41,108.38a30.87,30.87,0,0,1-3,1.55c-.55-.2-1-.46-.77-1.17a6.67,6.67,0,0,1,2.62-1.82C168.19,106.94,168.44,107.57,168.41,108.38Z"/><path class="cls-99" d="M155.65,116.27l-3,1.91a1.39,1.39,0,0,1-.77-1.17,11.69,11.69,0,0,1,3.27-1.83.84.84,0,0,1,.5,1.08Z"/><path class="cls-95" d="M163.89,111c-1,.42-1.83,1.4-3,1.56-.68.13-.69-.37-.76-.82a10.45,10.45,0,0,1,2.95-1.82C163.67,110,164.05,110.35,163.89,111Z"/><path class="cls-99" d="M159.42,113.64a15.73,15.73,0,0,1-2.68,1.88c-.45-.22-.91-.41-.72-1.1,1-.62,2-1.24,2.95-1.83C159.53,112.75,159.73,113.09,159.42,113.64Z"/><path class="cls-66" d="M147.71,119.34c.29.61.59,1.23.92,1.83a3.19,3.19,0,0,1-1.16,1.09c-.18-.85-.91-1.39-1.18-2.19Z"/><path class="cls-66" d="M168.41,108.38l-1.13-1.49a2.34,2.34,0,0,1,1.16-1.12,8.1,8.1,0,0,1,1.12,1.93A2.59,2.59,0,0,1,168.41,108.38Z"/><path class="cls-111" d="M163.89,111l-.79-1.12a2.12,2.12,0,0,1,1.53-1.13l.77,1.17Z"/><path class="cls-102" d="M151.9,117a1.39,1.39,0,0,1,.77,1.17,1.42,1.42,0,0,1-1.16.79,3.45,3.45,0,0,1-.78-1.21A3.56,3.56,0,0,1,151.9,117Z"/><path class="cls-111" d="M159.42,113.64c-.14-.36-.29-.73-.45-1.09a3.48,3.48,0,0,1,1.18-.8c.26.27.52.54.76.82C160.61,113.19,160,113.38,159.42,113.64Z"/><path class="cls-110" d="M156,114.42c.25.37.49.73.72,1.1l-1.09.75-.48-1.12A1.69,1.69,0,0,1,156,114.42Z"/><path class="cls-103" d="M171.05,112.17a16.81,16.81,0,0,1-3,1.83c-.46-.22-.92-.42-.73-1.09l3-2.24C170.93,111,171.29,111.41,171.05,112.17Z"/><path class="cls-94" d="M154.16,122.73a8.31,8.31,0,0,1-3,2.22c-.71-.24-1.17-.64-.82-1.48l3.06-1.56C154.08,121.78,154.09,122.33,154.16,122.73Z"/><path class="cls-112" d="M158.27,120c-1,.65-1.83,1.62-3,1.91-.61,0-.62-.33-.41-.78a8,8,0,0,1,3-1.88C158.22,119.41,158.42,119.59,158.27,120Z"/><path class="cls-112" d="M166.53,114.8a10.82,10.82,0,0,1-3.3,1.88.49.49,0,0,1-.18-.68l.06-.07a7.3,7.3,0,0,1,2.74-1.91C166.36,114,166.67,114.19,166.53,114.8Z"/><path class="cls-113" d="M162.05,117.44a6.19,6.19,0,0,1-3,1.89.48.48,0,0,1-.42-.47,16.51,16.51,0,0,1,3-2.17C162,116.85,162.25,117,162.05,117.44Z"/><path class="cls-114" d="M150.34,123.47c0,.63.57,1,.82,1.48A2.33,2.33,0,0,1,150,126c0-.73-.79-1.11-.83-1.83A2.88,2.88,0,0,1,150.34,123.47Z"/><path class="cls-115" d="M171.05,112.17l-.78-1.48.76-.48a3.15,3.15,0,0,1,1.11,1.55A2.17,2.17,0,0,1,171.05,112.17Z"/><path class="cls-108" d="M166.53,114.8a1.73,1.73,0,0,0-.71-.78,5.39,5.39,0,0,1,1.46-1.1L168,114Z"/><path class="cls-116" d="M154.85,121.17a1,1,0,0,0,.41.78,1.28,1.28,0,0,1-1.1.78l-.76-.81A2.05,2.05,0,0,1,154.85,121.17Z"/><path class="cls-117" d="M162.05,117.44c-.14-.25-.27-.5-.4-.75.49-.25.82-.8,1.46-.76a3.78,3.78,0,0,0,.12.75A1.39,1.39,0,0,1,162.05,117.44Z"/><path class="cls-118" d="M158.63,118.86l.42.47a1.39,1.39,0,0,1-.78.71l-.43-.75A1,1,0,0,1,158.63,118.86Z"/><path class="cls-94" d="M152.65,127.51a21.42,21.42,0,0,1,3.36-1.83c.63.3,1.23.62.78,1.48a6.76,6.76,0,0,1-2.68,1.92C153.07,129.09,152.83,128.32,152.65,127.51Z"/><path class="cls-94" d="M169.89,117a9.36,9.36,0,0,1,3-2.19,1.47,1.47,0,0,1,1.14,1.54,20.64,20.64,0,0,1-3.33,1.82C170.06,118,169.9,117.55,169.89,117Z"/><path class="cls-95" d="M157.14,125l3.32-1.89a1,1,0,0,1,.55,1.3.8.8,0,0,1-.08.16l-3,1.92A1.3,1.3,0,0,1,157.14,125Z"/><path class="cls-99" d="M165.39,120a10.45,10.45,0,0,1,3.3-2.19.82.82,0,0,1,.53,1,.76.76,0,0,1,0,.11,6.33,6.33,0,0,1-3,1.83C165.45,121,165.45,120.5,165.39,120Z"/><path class="cls-119" d="M161.25,122.66a10,10,0,0,1,3-1.88.91.91,0,0,1,.78.86,11.31,11.31,0,0,1-3.3,2.17.83.83,0,0,1-.52-1.06Z"/><path class="cls-105" d="M152.65,127.51c.7.32.75,1.27,1.46,1.59a1.72,1.72,0,0,1-1.43,1.08c-.15-.91-.92-1.4-1.16-2.22Z"/><path class="cls-101" d="M169.18,119c-.17-.4-.32-.78-.49-1.16a1.75,1.75,0,0,1,1.2-.83,3.88,3.88,0,0,1,.8,1.2A2.41,2.41,0,0,1,169.18,119Z"/><path class="cls-66" d="M157.14,125c.25.51.77.86.8,1.49a3,3,0,0,1-1.15.74c0-.63-.56-1-.78-1.48Z"/><path class="cls-106" d="M174,116.32l-1.14-1.54a1.45,1.45,0,0,1,.79-.73l1.15,1.83Z"/><path class="cls-114" d="M165,121.64a2.08,2.08,0,0,1-.78-.86,1.42,1.42,0,0,1,1.14-.79l.79.83A1.49,1.49,0,0,1,165,121.64Z"/><path class="cls-120" d="M161.25,122.66c.16.38.31.77.48,1.15a1.77,1.77,0,0,1-.8.71c-.15-.49-.31-1-.46-1.46A.94.94,0,0,1,161.25,122.66Z"/><path class="cls-121" d="M124.53,167.35a27.12,27.12,0,0,1,1,6.4c.26,2.59.5,5.19.53,7.81,0,1.16.23,2.34.24,3.52,0,.84-.37,1.14-1.14,1-.31-.06-.61-.18-.92-.21-3.41-.38-2.64-.54-2.29-3.05C122.68,177.62,123.66,172.49,124.53,167.35Z"/><path class="cls-88" d="M72.67,191.75a1.37,1.37,0,0,0-.76-.75A1.73,1.73,0,0,1,73,189.53c.45,0,.57.42.75.73Z"/><path class="cls-122" d="M73.78,190.26a1.41,1.41,0,0,1-.75-.73A4.15,4.15,0,0,1,74.5,188a.44.44,0,0,1,.41.41C74.54,189.07,74.16,189.64,73.78,190.26Z"/><path class="cls-123" d="M78.66,182.38l1.11-1.54a.59.59,0,0,1,.35.2l.06.19V182l-1.09.76C78.7,182.86,78.54,182.76,78.66,182.38Z"/><path class="cls-124" d="M78.66,182.38l.39.38c-.32.55-.46,1.23-1.13,1.5-.35.1-.5,0-.38-.38Z"/><path class="cls-125" d="M75.28,186.87l1.15-1.46c.34-.1.49,0,.38.37-.32.55-.47,1.21-1.11,1.51A.44.44,0,0,1,75.28,186.87Z"/><path class="cls-126" d="M75.28,186.87l.42.39c-.25.39-.38.87-.79,1.15L74.5,188A1.28,1.28,0,0,1,75.28,186.87Z"/><path class="cls-127" d="M76.77,185.74l-.38-.37,1.11-1.49.38.38Z"/><path class="cls-128" d="M82,177.51l1.13-1.9c.69-.15,1,.24,1.12.83-.56.54-.74,1.4-1.48,1.83C82.41,178.17,81.9,178.2,82,177.51Z"/><path class="cls-129" d="M82,177.51l.79.72a4.28,4.28,0,0,1-1.49,1.53.47.47,0,0,1-.43-.4A3.61,3.61,0,0,1,82,177.51Z"/><path class="cls-66" d="M84.31,176.44l-1.14-.83a2.33,2.33,0,0,1,.72-1.1c.34.45,1,.56,1.23,1.11A2.13,2.13,0,0,1,84.31,176.44Z"/><path class="cls-130" d="M80.9,179.36l.43.4a2,2,0,0,1-1.15,1.49h-.06a1.21,1.21,0,0,1,0-1.11.59.59,0,0,1,.08-.36Z"/><path class="cls-77" d="M80.15,176.38H79.8a1.72,1.72,0,0,1-1.12-1.12L80.12,173a1,1,0,0,1,.39.49,3.31,3.31,0,0,1-.33,2.14Z"/><path class="cls-131" d="M80.18,175.6v-2.27c.77-.31,1.13,0,1.11.78C80.94,174.61,80.55,175.1,80.18,175.6Z"/><path class="cls-132" d="M81.34,174.11a1.35,1.35,0,0,0-1.12-.78,1.53,1.53,0,0,0-.07-.36,1.94,1.94,0,0,0,.07-.33l.36-.08c.62,0,1,.55,1.48.81A1.25,1.25,0,0,1,81.34,174.11Z"/><path class="cls-76" d="M61.43,181.62l-.8-1.11,1.51-1.89c.61-.1.85.15.77.74A4.12,4.12,0,0,1,61.43,181.62Z"/><path class="cls-76" d="M69.67,168.84l1.49-2.23c.62-.1,1.17-.11,1.14.75l-1.53,1.88A.91.91,0,0,1,69.67,168.84Z"/><path class="cls-86" d="M75.3,169.26a4.66,4.66,0,0,1-1.83,2.23c-.42.22-.59-.08-.76-.39.6-.76.91-1.76,1.83-2.24C74.94,168.64,75.15,168.9,75.3,169.26Z"/><path class="cls-76" d="M65.91,181.26a8.19,8.19,0,0,1-1.52,2.25.86.86,0,0,1-1.11-.4l1.89-2.24C65.57,180.7,65.8,180.91,65.91,181.26Z"/><path class="cls-86" d="M62.9,177.85c.6-.75.91-1.75,1.83-2.24a1,1,0,0,1,.77.39,11.06,11.06,0,0,1-1.83,2.25C63.23,178.45,63.06,178.2,62.9,177.85Z"/><path class="cls-133" d="M67.76,171.86A3.66,3.66,0,0,1,68.93,170c.43-.24.75-.26.74.38a3.54,3.54,0,0,1-1.51,1.89C67.81,172.35,67.69,172.21,67.76,171.86Z"/><path class="cls-134" d="M65.16,174.87,66.71,173c.41-.19.79-.32.74.38-.5.63-.73,1.48-1.51,1.89C65.49,175.44,65.32,175.15,65.16,174.87Z"/><path class="cls-135" d="M68.16,178.25c-.6.77-.92,1.76-1.83,2.26a.47.47,0,0,1-.4-.4c.6-.76.91-1.76,1.82-2.24A.46.46,0,0,1,68.16,178.25Z"/><path class="cls-77" d="M72.66,172.27c0,1-1.17,1.38-1.51,2.23a.49.49,0,0,1-.7.05.1.1,0,0,1,0-.05,11.16,11.16,0,0,1,1.82-2.6A.43.43,0,0,1,72.66,172.27Z"/><path class="cls-136" d="M70.37,175.26c-.61.75-.91,1.77-1.83,2.24a.24.24,0,0,1-.33.07s0,0-.06-.07a12.1,12.1,0,0,1,1.52-2.24.49.49,0,0,1,.69,0Z"/><path class="cls-137" d="M72.3,167.36c-.28-.42-.74-.53-1.14-.75a1.42,1.42,0,0,1,.75-.79c.38.25.91.37,1.14.79A1.45,1.45,0,0,1,72.3,167.36Z"/><path class="cls-138" d="M69.67,170.36a.83.83,0,0,0-.74-.38l.74-1.14,1.1.4A2.35,2.35,0,0,1,69.67,170.36Z"/><path class="cls-139" d="M63.28,183.11l1.11.4c-.2.39-.31.85-.72,1.11l-.79-1.11Z"/><path class="cls-140" d="M62.9,177.85l.76.4a1.14,1.14,0,0,1-.74,1.11,1.43,1.43,0,0,0-.77-.74A1.38,1.38,0,0,1,62.9,177.85Z"/><path class="cls-138" d="M67.41,173.36a.82.82,0,0,0-.74-.38,2.28,2.28,0,0,1,1.09-1.12l.4.39C67.94,172.61,67.83,173.11,67.41,173.36Z"/><path class="cls-141" d="M75.3,169.26l-.78-.4a.83.83,0,0,1,.39-.76,1.54,1.54,0,0,1,.79.76Z"/><path class="cls-142" d="M65.9,180.11l.4.4a.86.86,0,0,1-.39.75l-.74-.39A1.27,1.27,0,0,1,65.9,180.11Z"/><path class="cls-143" d="M65.16,174.87l.74.38-.38.75a.84.84,0,0,1-.77-.39Z"/><path class="cls-144" d="M72.66,172.27l-.39-.41.39-.76.76.39A1.42,1.42,0,0,1,72.66,172.27Z"/><path class="cls-145" d="M70.37,175.26h-.74a1.39,1.39,0,0,1,.74-.82h.74A1.34,1.34,0,0,1,70.37,175.26Z"/><path class="cls-146" d="M68.15,177.47h.39a.79.79,0,0,1-.38.75l-.4-.39Z"/><path class="cls-76" d="M68.92,183.52a4,4,0,0,1-1.51,2.25c-.65.14-1.16.08-1.14-.78l1.83-2.23A.92.92,0,0,1,68.92,183.52Z"/><path class="cls-133" d="M78.3,171.51c-.21,1.09-1.08,1.62-1.82,2.24a.79.79,0,0,1-.78-.42,6.7,6.7,0,0,1,1.83-2.6A.9.9,0,0,1,78.3,171.51Z"/><path class="cls-147" d="M71.16,180.52a7.92,7.92,0,0,1-1.52,2.24.85.85,0,0,1-1.1-.4,11.77,11.77,0,0,1,1.83-2.24C70.83,179.93,71,180.16,71.16,180.52Z"/><path class="cls-86" d="M75.66,174.86a11.05,11.05,0,0,1-1.83,2.26c-.36-.13-.57-.34-.41-.75a11,11,0,0,1,1.52-2.26C75.52,174,75.79,174.23,75.66,174.86Z"/><path class="cls-147" d="M73.06,177.87c-.13,1-1,1.5-1.51,2.25-.36-.13-.57-.34-.4-.75a3.54,3.54,0,0,1,1.51-1.89C73,177.4,73.11,177.52,73.06,177.87Z"/><path class="cls-148" d="M66.27,185c.27.43.74.55,1.14.78a1.11,1.11,0,0,1-.7,1.1,2.59,2.59,0,0,0-1.15-1.12A1.33,1.33,0,0,1,66.27,185Z"/><path class="cls-149" d="M75.66,174.86a1.36,1.36,0,0,0-.74-.75,1.48,1.48,0,0,1,.74-.78.92.92,0,0,1,.77.42C76.2,174.13,76.09,174.61,75.66,174.86Z"/><path class="cls-150" d="M68.54,182.36l1.1.4a1.31,1.31,0,0,1-.72.76,1.42,1.42,0,0,1-.78-.76Z"/><path class="cls-151" d="M73.06,177.87l-.4-.39a1.14,1.14,0,0,1,.74-1.11l.42.75A1.43,1.43,0,0,1,73.06,177.87Z"/><path class="cls-152" d="M78.3,171.51a1.56,1.56,0,0,1-.8-.78v-.38a1.25,1.25,0,0,1,1.15.76Z"/><path class="cls-153" d="M71.15,179.37l.4.75-.39.4-.74-.4A1.26,1.26,0,0,1,71.15,179.37Z"/><path class="cls-133" d="M72.28,186.14a8,8,0,0,1-1.49,2.24c-.67-.08-1.25-.24-1.15-1.11a2.75,2.75,0,0,1,1.51-1.86C71.83,185.17,72.12,185.58,72.28,186.14Z"/><path class="cls-154" d="M74.53,183.14a12.28,12.28,0,0,1-1.83,2.24.91.91,0,0,1-.79-.77c.12-.92.82-1.4,1.52-1.88C74,182.38,74.29,182.67,74.53,183.14Z"/><path class="cls-86" d="M76.42,180.16c-.14,1-1,1.48-1.5,2.22-.61.12-.86-.12-.77-.74.51-.64.74-1.48,1.5-1.9C76.08,179.57,76.29,179.79,76.42,180.16Z"/><path class="cls-155" d="M78.67,177.48l-1.49,1.89c-.42-.08-.91,0-.77-.74.51-.63.73-1.48,1.51-1.9C78.52,176.63,78.77,176.87,78.67,177.48Z"/><path class="cls-156" d="M69.64,187.24c.19.58.86.65,1.15,1.12-.22.38-.33.85-.75,1.1a1.93,1.93,0,0,0-1.5-1.1A2.22,2.22,0,0,1,69.64,187.24Z"/><path class="cls-89" d="M78.67,177.48a1.38,1.38,0,0,0-.75-.75c0-.64.53-1,.76-1.48a2.37,2.37,0,0,1,1.12,1.11C79.22,176.53,79.15,177.18,78.67,177.48Z"/><path class="cls-157" d="M71.91,184.61a1.58,1.58,0,0,1,.78.77.9.9,0,0,1-.41.76l-1.13-.73A1.36,1.36,0,0,1,71.91,184.61Z"/><path class="cls-89" d="M76.41,178.63l.77.74a1.47,1.47,0,0,1-.76.79l-.77-.42A2.36,2.36,0,0,1,76.41,178.63Z"/><path class="cls-138" d="M74.15,181.64a1.47,1.47,0,0,0,.77.74l-.39.76-1.11-.41C73.63,182.35,73.73,181.88,74.15,181.64Z"/><path class="cls-77" d="M80.12,180.12v1.12l-.35-.38A.88.88,0,0,1,80.12,180.12Z"/><rect class="cls-158" width="250" height="250"/></svg>