<svg id="Layer_1" data-name="Layer 1" xmlns="http://www.w3.org/2000/svg" viewBox="0 0 250 250"><defs><style>.cls-1{fill:#007136;}.cls-2{fill:#35354a;}.cls-3{fill:#f6b501;}.cls-4{fill:#39394d;}.cls-5{fill:#ffe600;}.cls-6{fill:#ea8e2a;}.cls-7{fill:#313246;}.cls-8{fill:#368916;}.cls-9{fill:#333348;}.cls-10{fill:#459b1e;}.cls-11{fill:#fff385;}.cls-12{fill:#2f2f44;}.cls-13{fill:#459a1e;}.cls-14{fill:#323247;}.cls-15{fill:#ee1e1d;}.cls-16{fill:#68bb35;}.cls-17{fill:#d40000;}.cls-18{fill:#d8641a;}.cls-19{fill:#4a991e;}.cls-20{fill:#2d2d42;}.cls-21{fill:#f46a62;}.cls-22{fill:#8fd853;}.cls-23{fill:#f46a61;}.cls-24{fill:#2f2f45;}.cls-25{fill:none;}</style></defs><title>products</title><path class="cls-1" d="M139.61,150.17l1.84-.11a.82.82,0,0,1,.65,0l1.9.12c.2.21.54.13.75.33a1.47,1.47,0,0,0,.36,0l.38.32c2.3,1.23,2.23,1.22,2.73-1.45a11.92,11.92,0,0,0-.45-6.37,7.3,7.3,0,0,0-.54-2.15c-.53-1.81-.29-2.31,1.43-2.93.65-.23,1.29-.46,2-.64,1.43-.41,2-.11,2.46,1.37a24.88,24.88,0,0,1,.77,5.49c-.18,1.51.06,3.06-.35,4.55a1.22,1.22,0,0,1-.09,1l0,.7c-.19.23-.12.58-.33.8a2.16,2.16,0,0,0,0,.36c-.21.21-.13.54-.33.76v.37c-.42,1.17.43,1.43,1.25,1.77a7.6,7.6,0,0,1,4,4.13c.31.71.63,1.51-.11,2.22-1.35.69-2.4-.6-3.67-.51-1.58-.67-2.47-2.19-3.86-3.13A16.86,16.86,0,0,0,143,154.3a3.38,3.38,0,0,1-1.72-.61,6.14,6.14,0,0,0-1.55-1.32,1.47,1.47,0,0,1-1-1.72l.43-.09A3.22,3.22,0,0,1,139.61,150.17Z"/><path class="cls-2" d="M153.41,149.79c0-.35.06-.69.09-1a.71.71,0,0,1-.05,1Z"/><path class="cls-2" d="M153,151.27a1.14,1.14,0,0,1,.33-.8A1.14,1.14,0,0,1,153,151.27Z"/><path class="cls-2" d="M152.67,152.37a1.13,1.13,0,0,1,.33-.76A1.13,1.13,0,0,1,152.67,152.37Z"/><path class="cls-3" d="M113,170.06a54.92,54.92,0,0,0,1.1-5.83l1.11-5.84a29.94,29.94,0,0,1,2.58-4.5,20,20,0,0,1,5.63-4.51c.2-.21.54-.15.75-.34h0c.28-.38.8,0,1.1-.38h0c.34-.34.86-.09,1.21-.34l.66-.09c.61-.32,1.32.06,1.93-.29a3.84,3.84,0,0,0,1.72,0c.61.35,1.33,0,1.94.28l.66.1c.37.26.86,0,1.22.34a.16.16,0,0,0,.21.06h0c.3.11.65.08.86.33h0c.21.2.53.12.74.33a.18.18,0,0,0,.23.07,1,1,0,0,1,.52.3h.06c.16.25.51.15.69.37h0c.18.22.54.14.7.4h0c.77,1,2,1.43,2.65,2.57-.35.76-1.08.77-1.72.86-8,1.26-12.7,6-14.61,13.76-1.18,4.77-3,9.36-4.18,14.13a1.07,1.07,0,0,1-.56.72,2.45,2.45,0,0,1-2-.22,12.12,12.12,0,0,0-4.3-1.05c-1.82-.08-2.78-.86-3-2.63a20.16,20.16,0,0,1,.47-4c.08-.66.37-1.27.4-1.94a3.45,3.45,0,0,1,.07-.55,9,9,0,0,1,.65-1.8A.83.83,0,0,1,113,170.06Z"/><path class="cls-4" d="M132.79,148.23a3.54,3.54,0,0,1-1.93-.28A2.88,2.88,0,0,1,132.79,148.23Z"/><path class="cls-4" d="M129.15,148a3.69,3.69,0,0,1-1.94.29A2.79,2.79,0,0,1,129.15,148Z"/><path class="cls-4" d="M126.55,148.33a1.6,1.6,0,0,1-1.21.34A1.41,1.41,0,0,1,126.55,148.33Z"/><path class="cls-4" d="M125.31,148.67a1.35,1.35,0,0,1-1.09.39A1.28,1.28,0,0,1,125.31,148.67Z"/><path class="cls-4" d="M134.67,148.67a1.63,1.63,0,0,1-1.22-.34A1.43,1.43,0,0,1,134.67,148.67Z"/><path class="cls-4" d="M142.11,150.05h-.65a.44.44,0,0,1,.63,0Z"/><path class="cls-4" d="M135.78,149.05a1.07,1.07,0,0,1-.86-.33A1.07,1.07,0,0,1,135.78,149.05Z"/><path class="cls-4" d="M124.22,149.06a.83.83,0,0,1-.76.34A1.09,1.09,0,0,1,124.22,149.06Z"/><path class="cls-4" d="M136.54,149.39a.79.79,0,0,1-.74-.33A1,1,0,0,1,136.54,149.39Z"/><path class="cls-4" d="M138,150.15a.78.78,0,0,1-.69-.37A1,1,0,0,1,138,150.15Z"/><path class="cls-4" d="M138.75,150.57a.81.81,0,0,1-.72-.4A.92.92,0,0,1,138.75,150.57Z"/><path class="cls-4" d="M144.76,150.5a1.12,1.12,0,0,1-.75-.33A1.08,1.08,0,0,1,144.76,150.5Z"/><path class="cls-4" d="M145.5,150.86l-.39-.32Z"/><path class="cls-4" d="M139.61,150.17l-.43.32Z"/><path class="cls-4" d="M137.28,149.79a.57.57,0,0,1-.51-.3Z"/><path class="cls-5" d="M120.45,182.3a2.27,2.27,0,0,1-.13-2c1.53-4.93,3.11-9.85,4.54-14.81,2.35-8.1,9.11-12.21,16.53-12.39a6.78,6.78,0,0,0,1.07.29,16.32,16.32,0,0,1,11,5.83c.21.22.45.42.68.62,2.29,1.2,2.81,3.44,3.44,5.67a15.87,15.87,0,0,1-2,13.12c-.48.76-1,1.43-2,1.38-1.13-.34-1.34-1.39-1.72-2.3a23.17,23.17,0,0,0-3.53-6.11c-.76-.94-1.54-1.61-2.75-.42-1.57,1.54-1.77,2.13-.53,3.37a16.79,16.79,0,0,1,4.57,6.72c.91,2.82.39,3.63-2.58,3.7-2,0-3.55,1-5.16,2-.86.77-2,.57-3,.65a15.22,15.22,0,0,0-7.74,2.8c-1,.69-1.86,2-3.44,1.26-1-.86-1.36-2.19-2.06-3.28a15.86,15.86,0,0,0-4.13-4.43C121,183.6,120.2,183.31,120.45,182.3Z"/><path class="cls-3" d="M153.5,179.71c.23-.11.53-.16.66-.34a15.85,15.85,0,0,0,3.13-11,19.77,19.77,0,0,0-3.1-8.52c1.29-.12,2.42.57,3.65.72a29.44,29.44,0,0,1,4.9,3h.18a.91.91,0,0,1,.37.08l.17.09a1.66,1.66,0,0,1,.3.22l.13.12a2.16,2.16,0,0,1,.27.25l.13.13a1.54,1.54,0,0,1,.25.26,1.49,1.49,0,0,0,.12.14,1.23,1.23,0,0,1,.23.28,1.48,1.48,0,0,1,.22.29,2,2,0,0,1,.2.3,1.7,1.7,0,0,1,.23.3l.23.31.25.33c.08.11.18.23.26.35a2.21,2.21,0,0,1,.28.4,3.09,3.09,0,0,1,.36.7,15.45,15.45,0,0,1,1.34,8.93,5.07,5.07,0,0,1-.09.54,4.77,4.77,0,0,1-.21,1.3,2.52,2.52,0,0,1-.13.47c-.1.31-.23.6-.33.86a3.47,3.47,0,0,1-.13.46c-.06.22-.15.45-.23.67a2.54,2.54,0,0,1-.17.46c-.13.31-.27.61-.42.92-1,1.57-1.89,3.29-3.69,4.2a1.72,1.72,0,0,1-1.72-.15,10.58,10.58,0,0,0-5.67-1.93C153.36,184.8,152.34,182,153.5,179.71Z"/><path class="cls-6" d="M145.92,250.77c-2.73,0-5.46-.05-8.19-.05H108.86c-.75,0-1.49,0-2.23.06s-1.72-.05-2.58-.05H28.24c-.81,0-1.62,0-2.42-.06a2.34,2.34,0,0,1-.86-2.16c-.06-6.95-.08-13.9,0-20.85,0-2.17.62-2.7,2.82-2.78a44.21,44.21,0,0,1,5.4.07q12.74-.27,25.47,0c6.6-.2,13.2-.11,19.77-.06,3,0,6-.13,9.06,0,5.7-.06,11.41-.1,17.12,0,2.77-.15,5.55,0,8.33,0,7.73,0,15.39-.16,23.08.06a64.32,64.32,0,0,1,8.33,0c6.18-.24,12.36-.16,18.54-.06a24.26,24.26,0,0,0,3.19,0,75.13,75.13,0,0,1,8.22,0c4.73-.18,9.46-.17,14.19,0q12.74-.27,25.45,0a64.5,64.5,0,0,1,7.09-.06c2,.07,2.62.62,2.65,2.57.12,7.08.09,14.16,0,21.24a2.17,2.17,0,0,1-.86,2c-.8,0-1.61.06-2.43.06H148.2C147.42,250.73,146.67,250.76,145.92,250.77Z"/><path class="cls-1" d="M87.87,180.39a7.65,7.65,0,0,1,6.5-3c1.89,0,1.88,0,2.2-1.9.17-1,.4-1.94.6-2.91a29.14,29.14,0,0,1,5.35-10.15c1.55-1.84,2.32-1.88,4,0,.32.38.68.73,1,1.1,1.29,1.37,1.31,1.71.24,3.37-1.49,2.5-3.44,4.67-4.58,7.41-.75,1.91-.54,2.31,1.54,2.33a7.53,7.53,0,0,1,4.67,1.63c.74.57,1.45,1.22,1.1,2.35-.95,1.39-2.65.74-3.87,1.4-2-.18-3.9-1.12-6-1.24a18.3,18.3,0,0,0-7.66,1.1,2.87,2.87,0,0,1-.86.18,1.54,1.54,0,0,1-.6-.06C90.35,181.29,88.58,182,87.87,180.39Z"/><path class="cls-7" d="M110.43,180.38a7.57,7.57,0,0,0-6.49-3c-2.33.06-2.57-.36-1.83-2.58a19.46,19.46,0,0,1,4.3-6.87,2.91,2.91,0,0,1,1.36-.95c-.26.81.13,1.15.86,1.17s1.59,0,2.38,0c1.85,0,1.85,0,2,2a.24.24,0,0,1-.05.29c-.43.59.06,1.34-.35,1.94a.25.25,0,0,1,0,.31c-.41.59,0,1.34-.33,1.93a24,24,0,0,1-.64,4.3C111.69,180.68,111.69,180.68,110.43,180.38Z"/><path class="cls-8" d="M110.43,180.38c1.29.16,1-.92,1.19-1.57.28,1.57.28,1.6,1.72,1.62a19.07,19.07,0,0,1,7.07,1.87,17.9,17.9,0,0,1,6.63,6.75,6.43,6.43,0,0,1,.86,2.2,1.84,1.84,0,0,1,.13,2.08c-.75,1.18-1.09,2.57-2.17,3.59-1.11.31-1.37-.59-1.72-1.27a21.77,21.77,0,0,0-2.35-3.79c-.64-.76-1.29-1.43-2.31-.51s-1.29,1.67-.24,2.66a13.29,13.29,0,0,1,3.44,4.82c1,2.58.53,3.44-2.16,3.71-1.59.18-2.85,1.15-4.29,1.68a.9.9,0,0,1-.51-.24c-.74-.91-.34-1.91-.16-2.86a17.61,17.61,0,0,0-3.3-14.21,16,16,0,0,0-4.17-3.65c-.67-.44-1.43-.8-1.54-1.72C107.75,180.73,109.18,180.86,110.43,180.38Z"/><path class="cls-9" d="M112.26,174.53c0-.66-.16-1.36.33-1.94A3.33,3.33,0,0,1,112.26,174.53Z"/><path class="cls-9" d="M112.63,172.28c0-.67-.16-1.35.34-1.93A3.37,3.37,0,0,1,112.63,172.28Z"/><path class="cls-10" d="M125.68,196.9a7.66,7.66,0,0,1,1.47-3.44,4.24,4.24,0,0,0,.86-2.18c.32.27.6.37,1,0a19.69,19.69,0,0,1,1.72-1.45,14.82,14.82,0,0,1,9.2-3c.67,0,1.37.15,2-.36,1.38,0,2.77-.09,3.83,1,.12,1-.66,1.26-1.29,1.62a14.82,14.82,0,0,0-7.73,13,2.74,2.74,0,0,1-.86,2.35,3.82,3.82,0,0,1-2.91.16,9.5,9.5,0,0,0-4.5-2,3.84,3.84,0,0,1-3.16-4.41A3.93,3.93,0,0,1,125.68,196.9Z"/><path class="cls-1" d="M145.5,187.61c-1.32-.12-2.7-.08-3.73-1.15a7.15,7.15,0,0,1,5.67-2.34h1.12c.76,0,1-.25.79-1a15.48,15.48,0,0,0-3.86-7.13c-.55-.58-1.18-1.09-1.72-1.72a1.43,1.43,0,0,1-.23-2l.12-.14a21.41,21.41,0,0,1,1.78-1.91c1.18-1.16,1.86-1.15,2.94.07a24.61,24.61,0,0,1,4.6,7.84c.2.52.37,1,.55,1.58.18,1,.39,1.92.55,2.89.25,1.48.24,1.53,1.8,1.5a7.23,7.23,0,0,1,5.75,2.4c.05,1-.58,1.3-1.39,1.37s-1.56.36-2.36.42c-2-.25-3.9-1.14-6-1.07a24.19,24.19,0,0,0-4.4.56A2.4,2.4,0,0,1,145.5,187.61Z"/><path class="cls-11" d="M143.21,158.17a2,2,0,0,1-1.46,1.83,6.63,6.63,0,0,1-1.47.17,9.45,9.45,0,0,0-5.63,2.2,6.88,6.88,0,0,1-.73.58,1.92,1.92,0,0,1-2.52-.4,1.73,1.73,0,0,1,.12-2.38,8.89,8.89,0,0,1,2.13-1.78,15,15,0,0,1,6.7-2.09,3.7,3.7,0,0,1,1.65.22A2,2,0,0,1,143.21,158.17Z"/><path class="cls-12" d="M167.6,177.45h16.63c.75,0,1.72-.32,2.08.75l.05.2a1.27,1.27,0,0,1,0,.39,1.77,1.77,0,0,1-.08.4c-.06.19-.13.37-.2.56s-.06.26-.1.39l-.13.63a4.3,4.3,0,0,1-.11.69,3.78,3.78,0,0,1-.17.74c-.27,1-.53,2-.73,3.05-.39,2.08-.86,2.48-2.87,2.7s-3.72.78-4.87,2.58a10.3,10.3,0,0,1-4.62-.15,19.09,19.09,0,0,0-7.91-2.75c-.79-.06-1.63,0-2-1a27.77,27.77,0,0,0,3.44-4.35c.32-.18.24-.55.41-.86a.29.29,0,0,1,.09-.3c.17-.21.1-.53.32-.73h0c.35-.31,0-.86.36-1.16a.37.37,0,0,1,.06-.35c.26-.36,0-.86.3-1.2A.2.2,0,0,1,167.6,177.45Z"/><path class="cls-13" d="M162.61,186.64c1.58.24,3.22,0,4.77.55,1.87.63,3.8,1.11,5.16,2.69,0,.25-.08.55-.31.63-2.46.86-4.63,2.38-7.15,3.12a2.37,2.37,0,0,1-1.55-.91,17.7,17.7,0,0,0-4.61-3.75c-.51-.29-1.16-.56-1-1.37,1.26-.26,2.65-.11,3.7-1.1C162,186.65,162.24,186.84,162.61,186.64Z"/><path class="cls-14" d="M167.21,179.28a1.41,1.41,0,0,1-.36,1.16A1.68,1.68,0,0,1,167.21,179.28Z"/><path class="cls-14" d="M167.57,177.73a1.49,1.49,0,0,1-.3,1.2A1.75,1.75,0,0,1,167.57,177.73Z"/><path class="cls-2" d="M165.3,166.62a1,1,0,0,1,.43.73A1,1,0,0,1,165.3,166.62Z"/><path class="cls-14" d="M166.85,180.44a1,1,0,0,1-.32.73A.8.8,0,0,1,166.85,180.44Z"/><path class="cls-14" d="M166.45,181.47a1,1,0,0,1-.42.86A1,1,0,0,1,166.45,181.47Z"/><path class="cls-2" d="M164.53,165.51a.85.85,0,0,1,.46.67A.85.85,0,0,1,164.53,165.51Z"/><path class="cls-2" d="M165.73,167.36l.34.56A.64.64,0,0,1,165.73,167.36Z"/><path class="cls-2" d="M165,166.23l.32.43A.46.46,0,0,1,165,166.23Z"/><path class="cls-2" d="M164.2,165.13l.38.43A.51.51,0,0,1,164.2,165.13Z"/><path class="cls-2" d="M163.87,164.75l.35.39A.45.45,0,0,1,163.87,164.75Z"/><path class="cls-2" d="M163.53,164.4l.32.36A.4.4,0,0,1,163.53,164.4Z"/><path class="cls-2" d="M163.15,164l.33.34A.36.36,0,0,1,163.15,164Z"/><path class="cls-2" d="M162.81,163.62l.35.34A.39.39,0,0,1,162.81,163.62Z"/><path class="cls-10" d="M106.58,181.52c6.55,3.07,9.72,8.35,10.15,15.48.15,2.39-.47,4.67-.8,7-.41.82-1.19.76-1.93.86-7.63.74-12.19,7.17-10.41,14.61.32,1.34.86,2.58,1.19,3.91.21.78.5,1.55-.1,2.3-5.7.16-11.4.14-17.1,0-.68-.9-.22-1.8,0-2.67.92-3.17,2-6.28,3-9.46a13.76,13.76,0,0,0-6.37-16.48c-1-.5-2.12-.79-2.71-1.88-.79-3,.86-5.24,2.18-7.59a16.84,16.84,0,0,1,4.59-5,4.56,4.56,0,0,1,3.44-1.06H92a3.79,3.79,0,0,0,.4-.3A17.35,17.35,0,0,1,106.58,181.52Z"/><path class="cls-15" d="M188.49,225.63H174.34a3.36,3.36,0,0,1-1.19-2.23c-.86-5-2-10-2.76-15-1.09-6.81.68-12.64,6.45-16.91.76-.57,1.77-.63,2.42-1.34a16.33,16.33,0,0,1,21.54,7.21,17,17,0,0,1,1.5,10.31c-.32,2.45-.81,4.89-1.36,7.3a4.94,4.94,0,0,1-1.18,2.48c-2.1.81-4.3.36-6.45.4-3.91.09-3.86,0-3.94,3.92C189.34,223.12,189.83,224.57,188.49,225.63Z"/><path class="cls-16" d="M157.9,187.61a17.24,17.24,0,0,1,7.1,5.66c.3.85-.27,1.4-.73,2-3.25,4.25-4.25,8.84-2.48,14,.92,2.69,1.78,5.44,2.64,8.16a8,8,0,0,1,.6,2.72,23.23,23.23,0,0,0-.35,2.75,3.22,3.22,0,0,1-1.59,2.74c-6.24.08-12.48.11-18.73,0-.73-.77-.43-1.63-.18-2.45.38-1.25.86-2.47,1.19-3.72a11.43,11.43,0,0,0-7.33-14c-.86-.3-1.89-.37-2.2-1.48a16.3,16.3,0,0,1,1.17-8,15.62,15.62,0,0,1,8.49-8.39A16.15,16.15,0,0,1,157.9,187.61Z"/><path class="cls-5" d="M78.58,225.64H58.81c-.91-.6-.86-1.54-.9-2.46-.14-1.71.33-3.43-.4-5.05-1.21-1-2.66-.86-4.09-.86-2.15,0-2.48-.37-3-2.48-1.05-4.35-1.18-8.6,1-12.68,1.53-2.83,3.43-5.3,6.55-6.59a9.88,9.88,0,0,0,1.25-.86,17.19,17.19,0,0,1,13.55,0c.79,1,2.09,1,3,1.79,5,4.23,7.28,9.45,6.1,16-.62,3.54-1.25,7.09-2,10.63C79.77,224.13,79.72,225.23,78.58,225.64Z"/><path class="cls-15" d="M136.17,225.62c-7.74.08-15.47.11-23.26,0a1.88,1.88,0,0,1-1.14-1.38c-.75-3.26-1.54-6.57-1-9.93a12.55,12.55,0,0,1,6.75-9.45,14.31,14.31,0,0,0,1.26-.81,13.89,13.89,0,0,1,11.26,0c1.83,1.13,3.83,2,5.21,3.81a14.73,14.73,0,0,1,2.64,12.78C137.5,222.34,137.76,224.31,136.17,225.62Z"/><path class="cls-17" d="M164.29,220.16c-.86-3.51-2.1-6.88-3.23-10.31-2.07-6.23-.93-11.64,3.74-16.28a1.43,1.43,0,0,0,.2-.3,18.69,18.69,0,0,1,7.55-3.38,22.12,22.12,0,0,1,4.74.19c1.1-.67,2-.54,2.39.79a14.76,14.76,0,0,0-8.53,11.07,20.28,20.28,0,0,0,.33,7.95c1,5,1.89,10,2.82,15a4.57,4.57,0,0,1,0,.74h-8.05a2.79,2.79,0,0,1-1.62-2.89A8.68,8.68,0,0,0,164.29,220.16Z"/><path class="cls-3" d="M78.58,225.64c.71-2.45,1-5,1.48-7.47s1.08-5.1,1.36-7.68A14.72,14.72,0,0,0,79,201.28a16.06,16.06,0,0,0-6.37-5.81c.49-1.51,1.88-1.24,3-1.5a21,21,0,0,1,4.48-.06,2.42,2.42,0,0,1,1.35.72,5.76,5.76,0,0,1,.44.41,19.61,19.61,0,0,1,5.57,3.34,14.28,14.28,0,0,1,4,15c-1.18,4.13-2.58,8.17-4,12.25Z"/><path class="cls-18" d="M188.49,225.63c0-1.68,0-3.36,0-5,0-4-.47-3.49,3.62-3.53l7.65-.08a2.29,2.29,0,0,1,1.47-.68q3.24-.13,6.47,0a2,2,0,0,1,1.47.67c1.17,0,2.34.11,3.51.1.86,0,1.22.33,1.21,1.2v7.4Z"/><path class="cls-18" d="M58.72,217.11c0,2.84.06,5.7.08,8.59H33.33v-6.5c0-2.21,0-2.07,2.17-2.08h6a2.09,2.09,0,0,1,1.45-.73c2.94.07,5.88-.48,8.82.45,1.44.46,3.07.06,4.61.14A4.11,4.11,0,0,1,58.72,217.11Z"/><path class="cls-17" d="M119,204.8a13,13,0,0,0-7.27,14.61c.43,2.06.6,4.16,1.22,6.18h-8.25c-.63-2-1.32-3.88-1.87-5.85A12.24,12.24,0,0,1,111,204.48a12.38,12.38,0,0,1,1.6-.37,31,31,0,0,1,3.34-.2.31.31,0,0,0,.32,0C117.34,203.7,118.43,203.39,119,204.8Z"/><path class="cls-17" d="M136.17,225.62c.4-2.38.8-4.75,1.22-7.12a12.74,12.74,0,0,0-1.88-8.86,10.84,10.84,0,0,0-5.7-4.82c.66-1.52,1.8-1.34,3-.86h3a13.48,13.48,0,0,1,6.54,3,12.15,12.15,0,0,1,3.7,13.2c-.52,1.85-1.14,3.68-1.72,5.51Z"/><path class="cls-18" d="M201.94,234.3a5,5,0,0,1,4.9,4.88,5.14,5.14,0,0,1-4.73,4.71,5,5,0,0,1-4.89-4.93C197.09,236.6,199.5,234.35,201.94,234.3Z"/><path class="cls-18" d="M42.26,239c-.27-2.43,2.09-4.51,4.64-4.63a4.73,4.73,0,0,1,4.73,4.73v0c0,2.58-2.05,4.91-4.49,4.79C44.09,243.75,42.17,242,42.26,239Z"/><path class="cls-19" d="M164.29,220.16l1.93,5.47a11.64,11.64,0,0,1-3.12,0C163.62,223.85,164.43,222.11,164.29,220.16Z"/><path class="cls-3" d="M41.53,201.77a1.25,1.25,0,0,0,.27-.24,14.4,14.4,0,0,1,13.87-6.94H56c1.33-.46,2.63-.79,3.37.92a15.39,15.39,0,0,0-8.75,11.6,14.2,14.2,0,0,0,0,4.46c.17,1.23.43,2.45.66,3.67s.49,1.46,1.72,1.5,2.58,0,3.92,0a2.31,2.31,0,0,1,1.78.39l-17.24-.07c-.36-1.19-.72-2.38-1.09-3.55a14.58,14.58,0,0,1,.57-10.36C41.16,202.69,41.34,202.22,41.53,201.77Z"/><path class="cls-17" d="M196.42,189.82h3.26a.54.54,0,0,0,.35.08,27.27,27.27,0,0,1,4.22,1.35,14.6,14.6,0,0,1,7.51,8.51c.24.69.46,1.4.69,2.1a21.87,21.87,0,0,1-1.51,10c-.6,1.72-1.11,3.44-1.67,5.15-3.14.15-6.28.12-9.41,0,.5-2.93.95-5.87,1.54-8.77A15.44,15.44,0,0,0,193,190.88c.24-1.16,1.13-1.32,2.09-1.36A10.58,10.58,0,0,0,196.42,189.82Z"/><path class="cls-1" d="M194.61,176.7a4.71,4.71,0,0,1-1.3,1.54A15.3,15.3,0,0,0,188.9,185c-.6,1.8-.39,2.12,1.42,2.14a14.09,14.09,0,0,1,2.75.36,1.49,1.49,0,0,0,.36.05c.21.21.56.14.77.38h0c.11.11.24.22.36.32a1,1,0,0,0,.33.06,1.58,1.58,0,0,1,.44.37h0l.38.38h0c.14.12.25.26.38.38h0c.26.75-.45.44-.69.65a7.1,7.1,0,0,0-2.42.79,16,16,0,0,0-13.23,0,7.16,7.16,0,0,0-2.39-.79c-.5-.38-.56-.74,0-1.17a7.56,7.56,0,0,1,4.3-1.72H183a1.09,1.09,0,0,0,1.18-1,.48.48,0,0,0,0-.17c0-1.52.67-2.91.81-4.39a1.6,1.6,0,0,0,.28-.35l.11-.75c.2-.22.13-.58.37-.79h0c.21-.2.14-.56.37-.75h0c.22-.2.15-.55.39-.75h0c.85-1.22,1.66-2.46,2.57-3.65,1.59-2.14,2.39-2.16,4.22-.17A5.34,5.34,0,0,1,194.61,176.7Z"/><path class="cls-8" d="M81.91,195l-.36-.06c-.37-.27-.86,0-1.2-.3l-4.79-.06a27.45,27.45,0,0,0-3.86-1.77c-.64-.25-1.31-.4-1.47-1.2,1.84-5.73,5.84-9.15,11.52-10.82,2-.59,4.07-.35,6.1-.44a12.6,12.6,0,0,1,3.81,1.13A17.71,17.71,0,0,0,82.15,193,7.65,7.65,0,0,0,81.91,195Z"/><path class="cls-1" d="M70.24,191.65c1.32.45,2.75.55,4,1.37.61.42,1.28.74,1.36,1.6a14.09,14.09,0,0,0-2.93.86,18.94,18.94,0,0,0-8.19-1.29,20.9,20.9,0,0,0-5,1.29,26.23,26.23,0,0,0-3.37-.92c1.6-2.12,3.88-2.75,6.4-2.87,1.31-.07,1.43-.2,1.08-1.42a9.09,9.09,0,0,0-2.15-4.3,1.28,1.28,0,0,0-.07-.34,2.65,2.65,0,0,0-.33-.34,13.14,13.14,0,0,0-2.36-2.58c-1.12-1.08-1.13-1.72-.12-2.88a15.25,15.25,0,0,1,1.43-1.47c1.15-1,1.84-1,2.85.13A22.43,22.43,0,0,1,67,185.68a18.5,18.5,0,0,1,1.16,4.3C68.36,191.53,68.52,191.59,70.24,191.65Z"/><path class="cls-20" d="M61,185.31l.33.34Z"/><path class="cls-8" d="M92.38,181.23l-.4.3Z"/><path class="cls-1" d="M132.86,203.94l-3,.86a13.14,13.14,0,0,0-10.84,0l-2.73-.86a5.64,5.64,0,0,1,4.68-2.24c1.84-.07,1.91-.19,1.3-2a12.5,12.5,0,0,0-3.43-5.16c-.6-.56-1.57-1.08-1.08-2.13a4.67,4.67,0,0,1,2.58-2.58c.76-.27,1.27.35,1.72.86a18.5,18.5,0,0,1,3.28,5.37c.13.29.27.58.43.86.24,1.09.5,2.17.72,3.27.3,1.48.28,1.5,1.72,1.56A6.39,6.39,0,0,1,132.86,203.94Z"/><path class="cls-14" d="M186.32,178.2a1.15,1.15,0,0,1-.39.75A1.09,1.09,0,0,1,186.32,178.2Z"/><path class="cls-14" d="M185.93,179a1,1,0,0,1-.37.75A1.13,1.13,0,0,1,185.93,179Z"/><path class="cls-14" d="M185.57,179.69a1.18,1.18,0,0,1-.37.79A1.06,1.06,0,0,1,185.57,179.69Z"/><path class="cls-14" d="M185.09,181.23l-.28.35Z"/><path class="cls-16" d="M95.77,186.48a2,2,0,0,1-1.38,1.93,9.58,9.58,0,0,0-3.72,3.28,13.15,13.15,0,0,0-1.09,2.15c-.6,1.38-1.62,1.88-2.8,1.45-.92-.34-1.32-1.35-1.06-2.68a4.1,4.1,0,0,1,.23-.7,14.41,14.41,0,0,1,6.71-7.21C94.33,183.83,95.77,184.67,95.77,186.48Z"/><path class="cls-21" d="M183.33,195a1.59,1.59,0,0,1-.86,1.54,10.75,10.75,0,0,0-4.86,5.48,1.52,1.52,0,0,1-1.92.95l-.07,0a1.73,1.73,0,0,1-1.27-2v-.19A11.84,11.84,0,0,1,181,193.4a1.62,1.62,0,0,1,2.15.75A1.7,1.7,0,0,1,183.33,195Z"/><path class="cls-22" d="M146.81,190.52c.63,0,1.3,0,1.57.73a2,2,0,0,1-.17,2,2.68,2.68,0,0,1-.86.71,10.11,10.11,0,0,0-4.31,5,4,4,0,0,1-.36.64c-.71,1-1.35,1.22-2.2.81a1.7,1.7,0,0,1-1-2.21l0-.08a11.44,11.44,0,0,1,4.3-6.11C144.76,191.31,145.57,190.47,146.81,190.52Z"/><path class="cls-11" d="M61.22,198a1.77,1.77,0,0,1,1.72,1.13,1.59,1.59,0,0,1-.45,1.86,3.87,3.87,0,0,1-.92.61,9,9,0,0,0-4,4.5c-.08.17-.13.35-.22.51a1.81,1.81,0,0,1-2.31,1,1.72,1.72,0,0,1-1-2.21.36.36,0,0,1,0-.09A11.49,11.49,0,0,1,56.6,201a12.73,12.73,0,0,1,3.18-2.58A3.07,3.07,0,0,1,61.22,198Z"/><path class="cls-23" d="M120.49,207a1.28,1.28,0,0,1,1.33.69,1.44,1.44,0,0,1-.14,1.59,3.36,3.36,0,0,1-1,.8,7.64,7.64,0,0,0-3.17,3.57c-.13.29-.27.58-.42.86a1.34,1.34,0,0,1-1.72.6,1.37,1.37,0,0,1-.86-1.49,3.74,3.74,0,0,1,.41-1.42,10.22,10.22,0,0,1,4.18-4.64A2.7,2.7,0,0,1,120.49,207Z"/><path class="cls-10" d="M80.35,194.68a1.49,1.49,0,0,1,1.2.3A1.48,1.48,0,0,1,80.35,194.68Z"/><path class="cls-24" d="M195.33,190.07l.7-.66.39.41A1.27,1.27,0,0,1,195.33,190.07Z"/><path class="cls-24" d="M194.17,187.93a1.16,1.16,0,0,1-.78-.38A1.12,1.12,0,0,1,194.17,187.93Z"/><path class="cls-24" d="M194.52,188.25l-.36-.33Z"/><path class="cls-24" d="M195.28,188.68l-.43-.37Z"/><path class="cls-24" d="M195.66,189.05l-.39-.38Z"/><path class="cls-24" d="M196,189.41l-.38-.37Z"/><path class="cls-24" d="M200,189.9l-.35-.08A1.11,1.11,0,0,1,200,189.9Z"/><rect class="cls-25" width="250" height="250"/></svg>