<svg id="Layer_1" data-name="Layer 1" xmlns="http://www.w3.org/2000/svg" viewBox="0 0 250 250"><defs><style>.cls-1{fill:none;}.cls-2{fill:#d0dfec;}.cls-3{fill:#29b43e;}.cls-4{fill:#2bb13c;}.cls-5{fill:#2bb03c;}.cls-6{fill:#48c83f;}.cls-7{fill:#fff;}.cls-8{fill:#fdfefe;}.cls-9{fill:#3eaa34;}.cls-10{fill:#c7e1eb;}.cls-11{fill:#c5e0e8;}.cls-12{fill:#f5fcf7;}.cls-13{fill:#f8fdfa;}.cls-14{fill:#f6fdf7;}.cls-15{fill:#f7fdf8;}.cls-16{fill:#f6fdf8;}.cls-17{fill:#f2fbf4;}.cls-18{fill:#edfaef;}.cls-19{fill:#eefaf1;}.cls-20{fill:#74d56e;}.cls-21{fill:#5ccf57;}.cls-22{fill:#b1e8af;}.cls-23{fill:#7bd56d;}.cls-24{fill:#2ab03c;}.cls-25{fill:#f9fdfa;}.cls-26{fill:#f8fdf9;}.cls-27{fill:#f4fcf6;}.cls-28{fill:#c9e1eb;}.cls-29{fill:#c7e0e9;}.cls-30{fill:#f1fbf4;}.cls-31{fill:#f2fcf5;}.cls-32{fill:#f3fcf5;}.cls-33{fill:#ebf9ed;}.cls-34{fill:#50ca47;}.cls-35{fill:#7bd670;}.cls-36{fill:#78d56f;}.cls-37{fill:#a0e29c;}.cls-38{fill:#a1df91;}.cls-39{fill:#138730;}.cls-40{fill:#019602;}.cls-41{fill:#009500;}.cls-42{fill:#017d02;}.cls-43{fill:#0c8931;}.cls-44{fill:#2d9c31;}.cls-45{fill:#108b2f;}.cls-46{fill:#019400;}.cls-47{fill:#00ad01;}.cls-48{fill:#a5c5e0;}.cls-49{fill:#05900a;}.cls-50{fill:#a7c3db;}.cls-51{fill:#016a2b;}.cls-52{fill:#008d01;}.cls-53{fill:#14862f;}.cls-54{fill:#006a2b;}.cls-55{fill:#029a03;}.cls-56{fill:#04ae04;}.cls-57{fill:#02ae03;}.cls-58{fill:#01ad01;}.cls-59{fill:#01ae02;}.cls-60{fill:#08b10c;}.cls-61{fill:#10b315;}.cls-62{fill:#0fb314;}.cls-63{fill:#a9c7e3;}.cls-64{fill:#a7c2db;}.cls-65{fill:#03ae04;}.cls-66{fill:#87d671;}.cls-67{fill:#02ae02;}.cls-68{fill:#09b10c;}.cls-69{fill:#a0e095;}.cls-70{fill:#029903;}.cls-71{fill:#11b315;}.cls-72{fill:#078b30;}.cls-73{fill:#007a01;}.cls-74{fill:#0b7b2c;}.cls-75{fill:#029602;}.cls-76{fill:#007c00;}.cls-77{fill:#2d9b31;}.cls-78{fill:#0e8a2e;}.cls-79{fill:#019503;}.cls-80{fill:#088b31;}.cls-81{fill:#007900;}.cls-82{fill:#c8e1ec;}.cls-83{fill:#f0fbf3;}.cls-84{fill:#eefbf3;}.cls-85{fill:#effaf1;}.cls-86{fill:#eaf9ee;}.cls-87{fill:#edfaf0;}.cls-88{fill:#f0fbf1;}.cls-89{fill:#28b23e;}.cls-90{fill:#4dc943;}.cls-91{fill:#4ec944;}.cls-92{fill:#58cc4e;}.cls-93{fill:#55cb4b;}.cls-94{fill:#28b33e;}</style></defs><title>products</title><rect class="cls-1" width="250.06" height="250.06"/><path class="cls-2" d="M41.54,250.06a20.79,20.79,0,0,1-10.82-9.89c-2.34-1.35-2-3.43-2.33-5.29a6.06,6.06,0,0,1,.13-2.47,12.52,12.52,0,0,0,.73-5.29,3.83,3.83,0,0,1,.78-2.77l.14-5.34c.6-.88,1.85-1,2.89-1.35a14.1,14.1,0,0,0,7.54-5.33c1.36-2.05,1.09-3.9-.81-5.65A15.28,15.28,0,0,1,37.1,204c-1-1.51-1-3,.8-4.1a4,4,0,0,1,4.88.58c3.27,2.64,5.69,5.85,8.33,8.9s6.44,3.08,9.32.06a3.18,3.18,0,0,1,.82-.64c1.76-.14,2.1,1,2.74,1.88s.88,2.13,2,2.91a45,45,0,0,0,3.15,4.56A76.31,76.31,0,0,0,88,235.42a100.86,100.86,0,0,0,22,10.29,5.89,5.89,0,0,1,2.46,1.13c-.11,2.65-2.89,2.65-5.17,3.19Z"/><path class="cls-2" d="M204.14,250.06H137.86c-6.42-1.34-9.34-5.23-11.47-9.7a20.52,20.52,0,0,1-1.15-3,78,78,0,0,1,0-10.59,23.48,23.48,0,0,1,.88-7.5c.72-1,2.12-1.22,3.36-1.6A13.46,13.46,0,0,0,137,212.3c1.31-1.93,1.18-3.75-.78-5.42a11.13,11.13,0,0,1-2.88-3.08c-.75-1.44-.79-2.85,1-3.86s3.29-.43,4.75.49a12.89,12.89,0,0,1,2.47,2.2c2.15,2.31,4.26,4.64,6.17,7.05,1.37,1.71,3.31,2.16,5.69,1.93,1.56-.16,2.76-.64,3-2a2.33,2.33,0,0,1,.94-1.61c3,.44,2.93,2.64,3.44,4.18s1.09-.06,1.42.28c1.57,1.66,1.05,4.07,3.26,5.5,2.64,4.16,6.41,7.7,10.36,11.07a88,88,0,0,0,30.48,16.63,6,6,0,0,1,2.45,1.16c.49.74-.12,1.27-.57,1.82C207.18,249.7,205.56,249.72,204.14,250.06Z"/><path class="cls-3" d="M31.11,181.28c0-2.42,0-4.85.06-7.26-.41-.42-.93-.81-1-1.36-.19-4.29-.59-8.57.75-12.8a2.5,2.5,0,0,1,.61-.76,36.15,36.15,0,0,0,.08-7.28,3.47,3.47,0,0,1-.81-3.53,10.86,10.86,0,0,0,.72-4.89c-.34-3.31.41-6.57.63-9.85a6.08,6.08,0,0,1,2.65-4.14c2.43-1.87,4.41-4,6.76-6,1.77.13,2.11,1.08,2.11,2.23V130a3.6,3.6,0,0,0,2.81,3.78c1.89.69,2.16,2,2.16,3.42v10.39a150.14,150.14,0,0,0,1.65,21.39,3.43,3.43,0,0,1-.76,3.24,2.83,2.83,0,0,1-2.64.36c-6.86-1.94-10.87,1.53-12.35,6.43a19,19,0,0,1-1,3,2,2,0,0,1-2.4.24.68.68,0,0,1-.08-1Z"/><path class="cls-4" d="M31.25,182.16a2,2,0,0,1,1.72,0c1.33.68.78,1.76.88,2.64a4.61,4.61,0,0,0,.29,1.68,1.42,1.42,0,0,1-.13,1,1.76,1.76,0,0,1-.51.47,1.23,1.23,0,0,1,.76,0c1,.81,1.44,1.91,2.27,2.83,3.68,4.06,10.94,4,14.41-.21.52-.64.88-1.37,2.07-1.39a2.27,2.27,0,0,1,1.9,1.55c1,3.14,2.53,6.18,3.32,9.34a10.92,10.92,0,0,0,2.56,5.81c.72.88,1.72,1.91.65,3.1-.13,1.84-1.06,3.16-3.58,3.53-3.53.54-5.53.09-7.06-1.87-2.32-2.87-4.81-5.63-7.41-8.34a8.36,8.36,0,0,0-2.16-1.81,2.88,2.88,0,0,0-2.7-.19,1.89,1.89,0,0,0-1.17,1.94,3,3,0,0,0,1.06,2.06c.44.39.88.77,1.39,1.14,3.59,2.81,3.93,5.2,1,8.43A14.78,14.78,0,0,1,30.18,219l-.15-.53c-2-1.93-.93-4.18-1.07-6.28-.14-2.31.75-4.59.6-6.92a2.59,2.59,0,0,1,1-1.81,49.58,49.58,0,0,0,.07-7.21c-2.16-2.71-1.18-5.7-.82-8.52C30,185.91,29.12,183.75,31.25,182.16Z"/><path class="cls-5" d="M41.81,123.7a1.44,1.44,0,0,0-.68,1,4.84,4.84,0,0,1-3,3.4c-2.49,1.23-3.53,3.52-5.46,5.16-.53.45-.28,1.17-.28,1.77v10.83c0,.82.24,1.68-.53,2.39a2,2,0,0,1-1.2-1.94c0-2.91-.34-5.83.21-8.74a3.56,3.56,0,0,1,.93-1.11v-6.79c-.3-.29-.66-.6-.65-1,.11-4-.07-8.08.16-12.11,0-.56.51-1,.81-1.42a49.49,49.49,0,0,0,.15-7.7c-1.48-1.34-.71-2.82-.56-4.3A50.52,50.52,0,0,1,33.17,96a3,3,0,0,1,1.59-2c.41-1,.8-1.91,1.2-2.87a3.27,3.27,0,0,1,2.28-.78c4.32.4,8.72.59,12.45,2.65a2.26,2.26,0,0,1,.78,1c.32,2.45-.8,4.76-1.15,7.15a81.51,81.51,0,0,0-.43,11.46c0,1.44-.33,2.85-.39,4.28a2.09,2.09,0,0,1-.55,1.37c-2.14,2-2.73,2-4.73,0-1.29-1.28-2.51-2.64-3.81-3.92-.88-.88-2-1.85-3.6-1s-1.51,2.13-.37,3.35c.38.41.68.88,1.12,1.28.23.24.42.49.66.72.38.47.88.88,1.25,1.35.19.22.36.45.53.69s.32.65.49,1a5.66,5.66,0,0,0,1,.8C41.8,122.91,42,123.27,41.81,123.7Z"/><path class="cls-6" d="M48.68,117.39c0-4.28-.21-8.59.06-12.86a30.53,30.53,0,0,1,2.14-10.64l.26-.26c1.7-.52,3,.3,4.3.88a56.25,56.25,0,0,1,18.58,13c2.4,2.45,4.79,4.91,7.32,7.28A29.57,29.57,0,0,0,94,122c6.74,1.81,11.69,5,14.74,10.13a24.32,24.32,0,0,0,7.06,7.05,5.31,5.31,0,0,1,2.19,2.38,52,52,0,0,1,.07,10.21,23.66,23.66,0,0,1-.09,6.67,6.4,6.4,0,0,0,0,.88c0,4.91,1.24,9.77.63,14.69a24.5,24.5,0,0,1-.1,6.68,7.7,7.7,0,0,0,0,.83c0,4.88.88,9.7.62,14.62a24.11,24.11,0,0,1,0,6.12,7.22,7.22,0,0,0-.08.8,3.13,3.13,0,0,0,.07.81,93.06,93.06,0,0,1,.2,11.69c-5.83,4.15-16.57,2-19.86-4-1.14-2.09-1.51-4.36-2.51-6.48a7.48,7.48,0,0,0-1.68-2.64,2.35,2.35,0,0,0-2.65-.34,1.18,1.18,0,0,0-.77,1.48.9.9,0,0,0,.13.28,29.74,29.74,0,0,0,2.44,4.1,9.6,9.6,0,0,1,.88,9c-.71,2-2.4,3.19-5,3.66-8.23,1.49-14.66-3-13.59-9.48.05-.3,0,.08.06-.22.06-.88.39-1.84-.7-2.51a1.23,1.23,0,0,0-1.33,0c-1,.81-.33,1.72-.12,2.56.36,1.48,1.23,2.87,1.48,4.37s.23,3.21-1.94,4.13c-1.93.83-3.86.43-5.88-1.15a6.37,6.37,0,0,1-3-4.41c-1-1.17-.34-2.31.15-3.45.24-.56.53-1.12.81-1.68,2.28-4.68-.95-8.21-7.5-8.19a4.15,4.15,0,0,1-1.4-.18A78.21,78.21,0,0,1,53.92,191a2,2,0,0,0-1.1-1.5c-.8-.44-.56-1-.41-1.62,1.25-4.76,1.53-9.4-2.45-13.58-.57-.59-1.67-1-1.31-2,1-.93.65-2,.48-3-.58-3.53-.75-7.16-1.13-10.73-.79-7.35-.37-14.71-.45-22.05a2.28,2.28,0,0,0-1.77-2.26c.36-.71,1.36-.72,2-1.14A2,2,0,0,0,49,130.62l0-.09c-1.06-4.55,1.62-7.93,5.41-11a11.42,11.42,0,0,0,2.84-3.08c.5-.88,1-2.06-.41-2.65a3.54,3.54,0,0,0-3.86.64C51.67,115.53,51.16,117.37,48.68,117.39Z"/><path class="cls-7" d="M68.43,218.31a33.88,33.88,0,0,0,3.32.74c2.65.36,4.1-.72,3.66-2.8A24.72,24.72,0,0,0,74.28,213a30.9,30.9,0,0,1-1.14-3.53c-.35-1.7.38-2.45,2.19-2.53s2.75.51,2.81,2.16a16.27,16.27,0,0,1-.28,2.7c-.66,4.24,1.07,6.38,6.27,7.68a13.25,13.25,0,0,0,7.93-.19A3.4,3.4,0,0,0,94.48,217c.88-3.34,1.1-6.57-1.53-9.58a17.74,17.74,0,0,1-2.18-3.18c-.75-1.38-.17-2.64,1.38-3.27A3.74,3.74,0,0,1,96.62,202a28,28,0,0,1,3.41,7.94c1.09,3.52,4.17,5.52,8.35,6.55a16.64,16.64,0,0,0,7.43-.11,7.17,7.17,0,0,1,2.79-.49c1.46.62,1.22,1.71,1.21,2.73.64,4.62-.5,9.23-.16,13.86a38.79,38.79,0,0,0,.17,4.7,2.65,2.65,0,0,1-1.69,3c-1.47,2.53-2.95,5.05-5.76,6.89a10,10,0,0,1-3.33-.7,101.56,101.56,0,0,1-24.34-12A83.43,83.43,0,0,1,69.77,220.6C69.2,219.88,68.37,219.27,68.43,218.31Z"/><path class="cls-8" d="M57.46,200.42a4.58,4.58,0,0,1,4.53-.48,18.94,18.94,0,0,1,2.8,1.15c4.16,2.24,4.75,3.8,2.9,7.49a23.57,23.57,0,0,0-2.29,5.34A3.74,3.74,0,0,1,63.57,212a9.8,9.8,0,0,0-2.11-3.1A13.51,13.51,0,0,0,59,205.09C57.91,203.67,57,202.18,57.46,200.42Z"/><path class="cls-6" d="M165.19,218.44a5.14,5.14,0,0,1-3-5.84c-1.12-1.44.14-2.65.81-3.8,2.54-4.41-.22-6.43-5.29-8.08-1.58-.51-3,.67-4.49,0-2.14-3-2.93-6.39-4-9.7a13.15,13.15,0,0,0-.46-1.51,3.24,3.24,0,0,1,.31-2.14,14.23,14.23,0,0,0-.48-10.29,5.5,5.5,0,0,0-1.83-2.5c-.23-.17-.44-.35-.65-.54l-.3-.3a2.18,2.18,0,0,1-.68-1.45c-1.19-2.13-1.13-4.41-1.31-6.66-.29-3.53-.66-7-.88-10.58-.32-6.1-.6-12.21-.44-18.32,0-.81-.56-1.42-.76-2.15,0-1.05,1.27-1,2-1.37,1.71-.59,2.21-1.82,1.9-3-1.28-4.83,2-8.16,5.75-11.37a19.15,19.15,0,0,0,2.24-2.35c.58-.69,1.17-1.47.15-2.25a3.24,3.24,0,0,0-3.45-.28,11.56,11.56,0,0,0-2.94,2.45c-.8.74-1.71,1.9-3.23.58a7.82,7.82,0,0,1-.41-5.35c.57-3.22.31-6.44.48-9.7a16,16,0,0,1,2.11-7.86,2.62,2.62,0,0,1,.68-.52c1.76-.65,3.16.1,4.6.7,7.38,3.09,12.94,7.8,18.28,12.67,2.24,2.07,4.18,4.33,6.32,6.47a33.66,33.66,0,0,0,15,8.88c6.17,1.76,10.93,4.64,13.64,9.46,1.9,3.37,5.34,5.86,8.49,8.5a2.84,2.84,0,0,1,.73.95c.82,3.52.14,7.05.51,10.58-.28,2.15.88,4.28.2,6.45a4.82,4.82,0,0,0,0,1.2,102.72,102.72,0,0,1,.07,14.36c.32,2.31-.06,4.64.33,7l.13.83a88.24,88.24,0,0,1,.09,14.54c.41,2.39.09,4.79.13,7.19,1.2,3.52.5,7.14.55,10.72a1.83,1.83,0,0,1-1,1.56.32.32,0,0,0-.18.18c-1.93,2-4.76,1.77-7.42,1.72-5.5-.08-9.76-2.52-11.67-6.53-.88-1.83-1.37-3.77-2.23-5.61a10,10,0,0,0-1.21-2.29,2.56,2.56,0,0,0-3.12-1c-1.35.52-1,1.49-.64,2.37a8.63,8.63,0,0,0,1.43,2.21c2.47,2.8,2.64,5.93,2.15,9.13q-.67,4.27-6.17,4.93a15.4,15.4,0,0,1-10.39-2.36,5,5,0,0,1-2.32-4.41,40.13,40.13,0,0,0-.11-4.52,1.06,1.06,0,0,0-1.05-1.06.83.83,0,0,0-.22,0c-.89.08-1,.62-1,1.19a5.43,5.43,0,0,0,.52,2,30.62,30.62,0,0,1,1.4,3.93,3.13,3.13,0,0,1-1.92,4l-.2.06C168.61,220.34,166.61,220.08,165.19,218.44Z"/><path class="cls-7" d="M165.19,218.44c1,.22,2,.52,3.05.65,2.78.36,4.29-.88,3.68-3-.35-1.24-1-2.44-1.41-3.67a17.1,17.1,0,0,1-1-3.3c-.19-1.36.6-2,2.19-2.13,1.85-.12,2.71.41,2.76,1.9a30.65,30.65,0,0,1-.24,3.83c-.28,3.36,1,5.05,4.91,6.39a14.59,14.59,0,0,0,7.88.64c2.1-.44,3.52-1.33,3.93-3.17.64-3.18.93-6.27-1.59-9.12a16.2,16.2,0,0,1-2.13-3.2c-.78-1.49-.06-2.89,1.56-3.44a3.65,3.65,0,0,1,4.34,1.32,27.91,27.91,0,0,1,3.33,7.67,8.57,8.57,0,0,0,3.92,4.86c3.58,2.17,7.51,2.49,11.76,1.68a12,12,0,0,1,2.77-.57c.3,3.3-.23,6.63.66,9.91a4.11,4.11,0,0,1,1.2,3.18c-.22,3.29.55,6.63-.68,9.88a3.41,3.41,0,0,1-1.07,1.31,8.21,8.21,0,0,1-.6.58,30.05,30.05,0,0,1-4.68,5.86.87.87,0,0,1-1.08.56,54.81,54.81,0,0,1-12.6-4.41,80.19,80.19,0,0,1-30.66-23C165.12,219.3,164.73,218.9,165.19,218.44Z"/><path class="cls-4" d="M149.38,189.4c1.29,1.21,1.25,2.77,1.77,4.17.88,2.42,2.17,4.77,2.58,7.29,1.76,2.26,4,4.34,3.93,7.19,0,.68.06,1.35,0,2a2.27,2.27,0,0,1-1.23,1.76c-2.6,1.59-7.42,1-9.19-1.22-2.25-2.81-4.73-5.49-7.23-8.16a13.33,13.33,0,0,0-2.12-1.85,2.86,2.86,0,0,0-2.93-.27,1.86,1.86,0,0,0-1.12,2.15,3.22,3.22,0,0,0,1.22,2c.5.46,1.05.89,1.59,1.32,2.88,2.27,3.38,4.35,1.33,7.12a14,14,0,0,1-11.1,6c-.88-.48-.8-1.26-1-1.94a106.82,106.82,0,0,1-.14-11.87,8,8,0,0,0,.17-.82c-.63-3.36.15-6.66.42-10a92.85,92.85,0,0,1,.11-11.19c.22-2.18-.42-4.35-.17-6.54.1-1,.06-2,1.31-2.59,2.65,1,1.64,2.84,1.5,4.31a11.12,11.12,0,0,0,.59,5.71,1.89,1.89,0,0,0,0,.82,7.09,7.09,0,0,1,.88,1.16,18.47,18.47,0,0,1,1.19,3,7.94,7.94,0,0,0,6.74,4.7,9.75,9.75,0,0,0,8.7-2.76C147.8,190.35,148,189.34,149.38,189.4Z"/><path class="cls-8" d="M157.65,208.05l-2.52-3.44a6.06,6.06,0,0,1-1.41-3.75c1-1.3,2.43-1.52,4.22-1.06a14.11,14.11,0,0,1,6.47,3.64,2.86,2.86,0,0,1,.44,3.41c-.84,1.92-1.76,3.81-2.71,5.71-.48.3-.48.79-.7,1.41C159.47,212.14,159,209.91,157.65,208.05Z"/><path class="cls-7" d="M213,140.79a25.7,25.7,0,0,1-9.19-8.9c-2.43-4.13-6.33-7-11.82-8.44a36.57,36.57,0,0,1-17.8-10.73q-2.73-2.91-5.6-5.75a56.74,56.74,0,0,0-20.88-13.32c-1.54-1.25-.64-2.56-.05-3.79,3.53-7.33,9.55-13.23,17.77-17.63a77.27,77.27,0,0,1,27.74-8.45,4.81,4.81,0,0,1,3.53.43c.83,1,.48,2.28,1.19,3.32,2,3.3,4.12,6.53,6.27,9.7a45.62,45.62,0,0,1,2.5,4.68c.37.74.82,1.51.18,2.32l3,7.68a9.75,9.75,0,0,1,1.39,1.48c1.42,3.53,1.9,7.25,2.48,10.93-.28,1.05-.12,2.13-.46,3.17l-.12.34a37.94,37.94,0,0,0,.08,5.84,3,3,0,0,1,.8,1.14c.88,3.86.14,7.77.46,11.65-.68,1.86-.21,3.72-.06,5.58.18,2.33-.33,4.64-.39,7A1.63,1.63,0,0,1,213,140.79Z"/><path class="cls-9" d="M193.54,43.93a2.16,2.16,0,0,0,.51.06,2.88,2.88,0,0,1,.65.39l.57.14a8.57,8.57,0,0,1,3.53,4.89c1.45,1.82,1.77,3.64.09,5.49a2.31,2.31,0,0,1-1.51.22c-1.4-.21-3.07.32-4.12-.88-.59-1.94-.11-3.9-.32-5.85-.06-.58,0-1.35-1.07-1.36s-1.05.74-1.15,1.33c-.34,2,.51,4.06-.42,6a5,5,0,0,1-5.21,0c-1.35-1.8-.6-3.81-.88-5.72-.07-.54.2-1.41-.88-1.36-.82,0-.65.81-.71,1.31-.25,1.91.48,3.91-.82,5.75a5.31,5.31,0,0,1-5.34.07c-1.26-1.49-.75-3.19-.89-4.82-.08-.83.34-1.76-1-2.55-1.54,2.4.24,5.07-1.46,7.28a5.27,5.27,0,0,1-5.29.13c-1.22-1.33-.81-2.88-.93-4.36-.08-1,.37-2.1-.89-3.15-1.76,2,.07,4.46-1.5,6.33-2.93,1-3.69-1-5-2.19a1.83,1.83,0,0,1-.34-.63c-.48-1.42,1-3.32-1.68-4.21a2.42,2.42,0,0,1-.66-.43c-.8-1.26-2.24-1.2-3.72-1.2-1.28,0-2.75.47-3.65-.73a7.66,7.66,0,0,1,3.37-.33h38.95C192.27,43.9,193.07,43.58,193.54,43.93Z"/><path class="cls-2" d="M48,68.45a.3.3,0,0,0,.11-.32c.72-1.76-.4-3.68.67-5.43a6.05,6.05,0,0,1,3.58-.64H96.16c1.44,0,3-.1,4,1a17.15,17.15,0,0,0,.06,1.76c-1.35.69-3,.62-4.41.88-12.76,2-24.33,5.78-33.39,13.39a34,34,0,0,0-9.21,11.64c-.46,1-.71,2.05-2,2.7a1.09,1.09,0,0,1-.83.09A46,46,0,0,0,36,91.09C37.86,84.71,41.2,78.74,45,73a22.66,22.66,0,0,0,2.59-4h-.07A2.52,2.52,0,0,1,48,68.45Z"/><path class="cls-10" d="M48.65,172.3l1.69,1.3a.94.94,0,0,1-.79,1.08,5.7,5.7,0,0,1-2.42-.64c-3.83-1.45-7.68-.66-9.54,2.33a11.55,11.55,0,0,0,.12,13.23c2.55,3.85,8.24,4,11.55.44a10.19,10.19,0,0,0,1.65-2.64c.34-.73.39-1.72,1.88-1.68,1,.68-.12,1.59.42,2.32-.13.45-.26.88-.39,1.37-.38.52-.74,1.05-1.16,1.57-3.95,4.76-12.34,4.7-16.13-.15A25.79,25.79,0,0,1,33.76,188c-.24,0-.34-.12-.31-.23s.07-.18.14-.18l-.14-.9c-.23-.48-.06-1-.37-1.49l-.11-3,.61-3.11a9.93,9.93,0,0,1,2-4.18c2.45-3.09,6.77-4.3,11.2-3.15Z"/><path class="cls-11" d="M48.07,133.76c-.66.55-1.56.24-2.32.43a3.35,3.35,0,0,1-2.65-3.62v-4.5a2.32,2.32,0,0,0-1.27-2.37,1.72,1.72,0,0,0-.84-.88c-.37-.27-.82-.5-.92-.88a1.7,1.7,0,0,0-.84-.89,1,1,0,0,0-.4-.38,3.48,3.48,0,0,0-1.34-1.43.93.93,0,0,0-.39-.37c-.65-.74-1.34-1.47-1.93-2.24a2.3,2.3,0,0,1,.15-3.25,2.22,2.22,0,0,1,.57-.39,3.92,3.92,0,0,1,4.63.52c1.42,1.33,2.7,2.75,4,4.12.62.65,1.27,1.28,2,2l1.62-1.18a1.32,1.32,0,0,1,1,1,2,2,0,0,1-.61,1.55c-1.4,1.21-2.71.89-3.91-.19-1.48-1.3-2.65-2.76-4.08-4.11-.7-.68-1.18-1.57-2.45-1.76-.79.5-.29,1,0,1.39a23.59,23.59,0,0,0,2.74,2.91c3.47,3,5.71,6.39,4.9,10.65a2.37,2.37,0,0,0,1.85,2.79A1.28,1.28,0,0,1,48.07,133.76Z"/><path class="cls-3" d="M33.61,187.62a.4.4,0,0,1,.18.41,2.42,2.42,0,0,1-.31-.25Z"/><path class="cls-12" d="M48.72,119.26a1.27,1.27,0,0,1-.6-.92l.56-1a33.33,33.33,0,0,0,3.53-3.27,4.05,4.05,0,0,1,2-1.28,4.18,4.18,0,0,1,3.73.66,2.21,2.21,0,0,1,.3,3.12,2.09,2.09,0,0,1-.2.22c-1.83,1.94-3.67,3.89-5.73,5.68-1.86,1.61-2.73,3.34-2.42,5.51a27.39,27.39,0,0,1,0,3.39,2.23,2.23,0,0,1-1.77,2.34l-.53-.88-.06-.28a1.76,1.76,0,0,1-.08-.88,2.92,2.92,0,0,1,.14-.6,11.38,11.38,0,0,0,.23-4.5,6,6,0,0,1,2.21-5c1.55-1.43,3.07-2.9,4.45-4.41.51-.57,1.37-1.08,1-2.11-1.61.24-2.19,1.36-3.14,2.12S50.62,119.38,48.72,119.26Z"/><path class="cls-3" d="M40.05,121.9a1.61,1.61,0,0,1,.93.88,6.21,6.21,0,0,1-1.26-.35C38.93,122,39.63,122,40.05,121.9Z"/><path class="cls-6" d="M50.39,93.5l.51-.07c.17,0,.24.11.22.2s0,.15-.08.15l-.16.11Z"/><path class="cls-3" d="M38.82,120.6c.23.05.39.16.39.37Z"/><path class="cls-3" d="M37.08,118.79c.25,0,.4.16.4.37Z"/><path class="cls-7" d="M51,93.78a3.65,3.65,0,0,0-.14-.35c4.5-12.25,14.94-20.21,29.65-25.08a91.94,91.94,0,0,1,16.87-3.81,4.67,4.67,0,0,1,2.76.27c-.24,2.27.72,4.21,2.16,6.17A73.54,73.54,0,0,1,113.09,91.4a10.25,10.25,0,0,0,.5,1.06A7,7,0,0,0,115,94.37,42.25,42.25,0,0,1,117.5,107a6.88,6.88,0,0,0-.11.81c-.11,8.15,0,16.3-.06,24.45a19.42,19.42,0,0,0,.59,3.13v.88a4.45,4.45,0,0,0,.23,1.25c0,1.23.4,2.55-1.31,3.37-3.64-2-6.69-4.41-8.48-7.54-3.06-5.39-8.08-8.82-15.18-10.65a29.07,29.07,0,0,1-12.11-6.79c-2.86-2.56-5.37-5.29-8-8a56.33,56.33,0,0,0-19.4-13.22A10.18,10.18,0,0,0,51,93.78Z"/><path class="cls-13" d="M99.66,160.68c-1.22,0-1.4.68-1.94,1a4.41,4.41,0,0,1-4.06,0c-2.94-1.31-4.8-.51-5,2.1-.08,1.36,0,2.72,0,4.08a3,3,0,0,1-3,3h-.12a3.17,3.17,0,0,1-3.53-2.73,29,29,0,0,1-.1-3.84c0-1.89-.1-3.78,0-5.66.19-2.53,1.91-3.42,5-2.65a4,4,0,0,0,2,0,12.09,12.09,0,0,1,6.23.28c1.94.53,4.41-.89,4.41-2.52,0-.83-.06-1.66,0-2.48a3.2,3.2,0,0,1,3.46-2.5,3.1,3.1,0,0,1,3.19,2.49,13.62,13.62,0,0,1,0,2,2.31,2.31,0,0,0,1.57,2.6c2.24,1,2.24,3.23-.07,4.24-1.9.82-1.43,1.93-1.49,3.06s-.27,2.15,1.47,2.87a2,2,0,0,1,1.42,2.51,1.85,1.85,0,0,1-.18.44,3.58,3.58,0,0,1-3.64,1.76c-3.26-.1-5.64-2-5.79-4.73C99.59,164.26,99.66,162.52,99.66,160.68Z"/><path class="cls-14" d="M75.37,152.28a9.33,9.33,0,0,1-3.18,3.7c-3.81,2.59-10.33,2.37-13.61-.48-1-.88-1.57-1.91-.88-3.1a3.26,3.26,0,0,1,3.17-1.6,13.8,13.8,0,0,1,1.7.18c1.17,0,2,.89,3.24.63a5.05,5.05,0,0,1-3.25-1.12c-2.82-1.17-5.05-2.7-6-5.24-1.88-5.29,3.91-10.4,10.82-9.5a8.56,8.56,0,0,0,3.93-.08,3.68,3.68,0,0,1,4,1.2c1.34,1.66,1,3.52.76,5.29C75.7,145.54,75.78,148.92,75.37,152.28Z"/><path class="cls-15" d="M76.44,137.31a6.26,6.26,0,0,1,1.11-1c2.25-1.22,5.07-.18,5.29,2,.1,1.05,0,2.12,0,3.16a13.07,13.07,0,0,0,0,1.77,2.7,2.7,0,0,0,2.85,2.38,2.34,2.34,0,0,0,2.44-2.21v-.17c.07-1.2,0-2.41,0-3.62a6,6,0,0,1,.12-1.57,3.53,3.53,0,0,1,3.41-2c1.49,0,2.86.74,3,2,.38,2.84.77,5.74-.69,8.47s-4.15,4.33-8,4.48-6.82-1.29-8.67-4a17.41,17.41,0,0,1-1-1.88A11.9,11.9,0,0,1,76.44,137.31Z"/><path class="cls-16" d="M69,188.59c-.88,1.58-1.63,3.2-2.56,4.74a2.64,2.64,0,0,1-3.29,1.06c-1.09-.43-1.39-1.26-.7-2.52,1.77-3.24,3.53-6.45,5.37-9.7.35-.38-.07-.8.11-1.19A4.58,4.58,0,0,1,70,178.45l3.12-5.5a6.61,6.61,0,0,1,.77-1.2,2.36,2.36,0,0,1,2.74-.68,1.59,1.59,0,0,1,1.24,1.86l-.06.21a2.5,2.5,0,0,1-.27.63c-1.94,3.25-3.52,6.61-5.74,9.78-.38.26-.24.68-.54,1a.41.41,0,0,1-.18.42l-.39.53a.34.34,0,0,1-.14.37,1.28,1.28,0,0,0-.41.61c0,.12,0,.21-.13.29a1,1,0,0,0-.45.67c.07.1,0,.18-.08.23C69.15,187.89,69.28,188.33,69,188.59Z"/><path class="cls-12" d="M55.5,126.31c0-4.29,4.41-7.63,9.78-7.54s9.62,3.52,9.62,7.83-4.54,7.66-9.88,7.53C59.08,133.94,55,130,55.5,126.31Z"/><path class="cls-17" d="M67.07,181.65a21.25,21.25,0,0,1-2.21.48,5.34,5.34,0,0,1-5.39-2.35,5.88,5.88,0,0,1-.12-5.93,5.22,5.22,0,0,1,5-2.52A5,5,0,0,1,69,173.87c.88,1.51.55,3.11.58,4.68a16.68,16.68,0,0,1-1,2.24A2.35,2.35,0,0,1,67.07,181.65Z"/><path class="cls-18" d="M70.64,189a4.66,4.66,0,0,1,1.22-3.53c2.31-2.52,7-2.27,8.82.51a5.74,5.74,0,0,1,.48,5.5c-.81,2.06-2.47,3.06-5,3.08s-4.25-1-5.14-3A6.29,6.29,0,0,1,70.64,189Z"/><path class="cls-19" d="M53.21,188.07c-.79-.69-.29-1.57-.58-2.34a2.08,2.08,0,0,1-1-2,14.32,14.32,0,0,0-1.81-7.44,1.55,1.55,0,0,1,0-1.77,1.2,1.2,0,0,1,.58-.88,7.45,7.45,0,0,1,2.93,4.05A14.81,14.81,0,0,1,53.21,188.07Z"/><path class="cls-20" d="M76.44,137.31v7.75c-.88,1.42-.26,2.94-.44,4.41-.11.94.29,2-.61,2.8.18-5.13.22-10.27,0-15.41Z"/><path class="cls-21" d="M62.56,150.49c2,.12,3.88.73,6,0-1,1.94-2.65,2.51-4.41,1.71A9.6,9.6,0,0,1,62.56,151Z"/><path class="cls-22" d="M68.36,180.63c.32-.72.44-1.53,1.24-2.08a2,2,0,0,1,.42-.07,7.07,7.07,0,0,1-1.56,2.87C68.08,181.13,68.05,180.91,68.36,180.63Z"/><path class="cls-23" d="M68.36,180.63l.1.72-.61.81-.74-.55Z"/><path class="cls-18" d="M71.3,184.51a1,1,0,0,1,.54-1A1,1,0,0,1,71.3,184.51Z"/><path class="cls-18" d="M69,188.59a1,1,0,0,1,.54-1A1,1,0,0,1,69,188.59Z"/><path class="cls-18" d="M70.74,185.46l.39-.53C71.16,185.18,71,185.34,70.74,185.46Z"/><path class="cls-18" d="M70.18,186.44l.42-.61A.59.59,0,0,1,70.18,186.44Z"/><path class="cls-18" d="M69.61,187.45l.45-.68A.7.7,0,0,1,69.61,187.45Z"/><path class="cls-3" d="M128,174c-.08-.59-.15-1.17-.22-1.77a90.69,90.69,0,0,0,.14-10.81c.23-3.94.2-7.88.1-11.83.06-3.31,1-6.61.33-9.93-1.66-3.53-.79-7.2-.8-10.81,0-.51.17-1,.14-1.54a1.9,1.9,0,0,1,.33-1.55c2.34-1.22,4.74-2.36,6-4.45a2,2,0,0,1,1.77-.6c2.64,1.54,4.76,3.31,4.71,6.18-.05,2.48-.53,5.05,1.42,7.32,2.24.88,2,.88,1.91,2.77-.18,4.41-.55,8.89.24,13.32a17.57,17.57,0,0,1,.16,3.16,101.86,101.86,0,0,0,1.05,13.73c.23,1.87.58,3.73.69,5.61a3.41,3.41,0,0,1-2.47-.24c-5.53-1.38-10.17.53-12,4.86a14.21,14.21,0,0,0-.88,5.78c0,.88.45,2-.94,2.65l-1.05-.88c.09-.21.36-.46.28-.62C127.33,180.91,128.39,177.4,128,174Z"/><path class="cls-2" d="M137.91,78.41,145,68a8.09,8.09,0,0,0,.22-3.13c.06-2.27.45-2.69,3.26-2.75,3.85-.07,7.71-.15,11.56.08,7.3-.13,14.61-.15,21.91,0,3.83-.22,7.67-.1,11.47-.1a4.82,4.82,0,0,1,3,.68,1.08,1.08,0,0,1,.19,1.52l-.1.11A78.55,78.55,0,0,0,178.08,68a63.63,63.63,0,0,0-12.16,5.11c-8.17,4.5-14,10.39-17.51,17.74a5.91,5.91,0,0,0-.64,2.86,2.44,2.44,0,0,1-.54,0,4.43,4.43,0,0,1-2.55,0,65.78,65.78,0,0,0-10.14-1.76,3.65,3.65,0,0,1-2.25-.88c1.31-4,3.41-7.83,5.11-11.74h0C137.69,79.09,137.57,78.66,137.91,78.41Z"/><path class="cls-24" d="M132.27,91.07c5.16.24,10.27.67,14.93,2.65-.12,1.76-1,3.52-1.31,5.29a18.24,18.24,0,0,0-.44,4.66c.29,3.75-.65,7.45-.59,11.18,0,.89.08,1.77.12,2.65a.89.89,0,0,1,.19.93c-1.9,1.43-2.79,1.47-4.41,0-1.42-1.31-2.65-2.72-4-4.1a3.26,3.26,0,0,0-3.13-1.14,1.91,1.91,0,0,0-1.79,2l0,.21a2.33,2.33,0,0,0,.37.78,7.75,7.75,0,0,1,.36.7,1.46,1.46,0,0,0,.32.41,3,3,0,0,0,.42.35,9.58,9.58,0,0,1,1.76,1.54,6.33,6.33,0,0,1,.56.72c.18.36.33.72,0,1.08a2.86,2.86,0,0,0-1.66,1.71c-.88,1.94-2.53,3.06-5.29,2.83-1.2-.61-1.21-1.59-1.22-2.55,0-1.7-.08-3.39,0-5.07.66-1.42,0-2.85,0-4.26a36.83,36.83,0,0,1,.74-9.19c.06-2.18-.3-4.41,2-6.17Z"/><path class="cls-25" d="M196.12,160.79a1.22,1.22,0,0,0-1.32.37c-1.88,1.23-2.57,1.3-4.67.43-3.07-1.27-4.75-.54-4.9,2.18-.07,1.36,0,2.72,0,4.07a3,3,0,0,1-3.12,2.94H182a3.13,3.13,0,0,1-3.53-2.94c-.07-3.18-.1-6.34,0-9.51.08-2.21,2-3.22,4.72-2.52a4.82,4.82,0,0,0,2.5.06,11.7,11.7,0,0,1,5.67.24c2.46.6,4.67-.7,4.72-2.72a15.53,15.53,0,0,1,.08-2.26,3.46,3.46,0,0,1,6.63.12,11.58,11.58,0,0,1,0,2,2.19,2.19,0,0,0,1.63,2.52c1.88.8,2.09,3.28.29,4-2,.83-1.92,2-1.93,3.33s-.15,2.37,1.77,3a1.76,1.76,0,0,1,1.16,1.76c.13,1.65-1.31,2.86-3.53,2.9-2.64.06-5.13-1.35-5.78-3.39a9.85,9.85,0,0,1-.32-2.47C196.09,163.51,196.12,162.16,196.12,160.79Z"/><path class="cls-26" d="M172.2,146.88c0,1.13,0,2.26-.07,3.39-.13,3.16-2,5.51-5.66,6.82a11.88,11.88,0,0,1-10.37-.89c-2.93-1.72-3-3.39-.19-5.34,2.43-1,4.29.67,6.44.83a1.25,1.25,0,0,0-.29-.09,12,12,0,0,1-4.41-1.61c-3.23-1.84-5.18-4.16-4.79-7.45.53-4.48,5.67-7.57,11.36-6.76a7.49,7.49,0,0,0,2.83.15c3.13-.7,3.69-.45,5.14,1.83C173.61,140.79,173.25,143.82,172.2,146.88Z"/><path class="cls-14" d="M172.67,137.77a3.57,3.57,0,0,1,2-1.81c2.21-.64,4.36.35,4.65,2.25a29.29,29.29,0,0,1,.07,3.38,13.73,13.73,0,0,0,.09,2,2.37,2.37,0,0,0,2.36,2,2.45,2.45,0,0,0,2.72-1.92,11.32,11.32,0,0,0,.15-2.47,23.68,23.68,0,0,1,.05-2.92c.17-1.36,1.66-2.35,3.32-2.34s3,.88,3.09,2.22a33.94,33.94,0,0,1-.11,6.76c-.46,3-3.8,5.45-7.4,5.94a10.22,10.22,0,0,1-9.57-3.53,10.61,10.61,0,0,1-.88-1.41C171.82,143.29,172.41,140.53,172.67,137.77Z"/><path class="cls-16" d="M166.79,178c1-1.76,2-3.59,3-5.38a4,4,0,0,1,.88-1.16,2.37,2.37,0,0,1,2.65-.34c.94.43,1.38,1.12,1,1.92-.53,1.14-1.12,2.26-1.76,3.34q-2.25,4-4.54,8.07c0,1.12.05,2.26-1.62,2.78-1,1.71-2,3.41-3,5.11a12.79,12.79,0,0,1-.88,1.41,2.39,2.39,0,0,1-2.76.66c-1.15-.33-1.56-1.07-1.21-2a10.87,10.87,0,0,1,.84-1.67c1.7-3,3.42-6,5.13-9,.37-.34-.06-.68,0-1a1.49,1.49,0,0,1,.1-.55c.11-.26.26-.51.39-.77a3.43,3.43,0,0,1,.36-.49A3.2,3.2,0,0,1,166.79,178Z"/><path class="cls-27" d="M161.48,134.11c-5.29-.06-9.7-3.53-9.7-7.72s4.46-7.62,9.76-7.62,10,3.62,9.87,7.82S166.74,134.16,161.48,134.11Z"/><path class="cls-28" d="M129.71,185.82c.06-2.71-.31-5.44.74-8.09A9.49,9.49,0,0,1,138,171.5a12.94,12.94,0,0,1,8,1.26l.66.74a1.13,1.13,0,0,1-.72.81,5.31,5.31,0,0,1-3-.46c-3.92-1.13-7.45-.09-9.15,2.86A11.62,11.62,0,0,0,133.7,189a6.88,6.88,0,0,0,6.46,3.53,7,7,0,0,0,6.29-3.4,3.76,3.76,0,0,1,2-2.12,1.42,1.42,0,0,1,1.42.62l-.53,1.76c-.39.51-.76,1-1.17,1.54-3.93,4.83-12.3,4.78-16.23-.07C130.72,189.31,130.35,187.54,129.71,185.82Z"/><path class="cls-29" d="M134.44,119.71a3.79,3.79,0,0,0-1.35-1.46.7.7,0,0,0-.38-.34l-.07-.07a.84.84,0,0,1-.48-.46l-.8-.94A2.79,2.79,0,0,0,131,116a7,7,0,0,1,0-1.12,2.7,2.7,0,0,1,2.34-2.31,3.76,3.76,0,0,1,3.62.88c1,1,2,2,3,3,.7.72,1.44,1.41,2.08,2.14a1.29,1.29,0,0,0,2.17,0,3.59,3.59,0,0,1,.63-.45,1.33,1.33,0,0,1,1,1,2.14,2.14,0,0,1-1.09,1.76c-1.53,1.11-2.78.62-3.9-.45-1.39-1.34-2.64-2.77-4.09-4.08-.67-.6-1.13-1.42-2.32-1.59-.79.51-.21,1,.09,1.37a18.43,18.43,0,0,0,2.77,2.88c3.42,2.91,5.39,6.18,4.57,10.22-.37,1.84,1.24,2.64,2.73,3.59a.82.82,0,0,1-.27.88c-.71.46-1.58.17-2.36.33-1.83-.74-2.52-1.94-2.34-3.52a17.42,17.42,0,0,1,0-1.77c.71-3.27-1.07-5.74-4-7.86a1.73,1.73,0,0,0-.88-.94A.66.66,0,0,0,134.44,119.71Z"/><path class="cls-30" d="M144.32,133.83v-1.07a1.62,1.62,0,0,1-.4-.67c.23-2.43.05-4.87.17-7.31a1.79,1.79,0,0,1,.2-.67c2.47-3,5.92-5.53,8.22-9.23-2.31.41-2.88,1.62-3.88,2.43s-1.59,1.94-3.33,1.92l-.48-1.08c.07-.21.15-.41.22-.62,1.65-1.18,2.75-2.71,4.25-4a4.32,4.32,0,0,1,4.71-.35,2.25,2.25,0,0,1,.54,3.64,11.78,11.78,0,0,1-1.06,1.06c-1.9,1.89-3.76,3.81-5.76,5.65a3.53,3.53,0,0,0-1.3,2.86,47,47,0,0,1,0,4.75C146.33,132.31,146.1,133.46,144.32,133.83Z"/><path class="cls-31" d="M164,181.28c-4.71,1.91-8.48.26-8.82-3.87a6,6,0,0,1,.6-3.52,5,5,0,0,1,4.67-2.55c2.31-.05,4.09.83,5,2.53a6.42,6.42,0,0,1,.76,3.3c-.41.75.24,1.63-.49,2.32h0c-.35.25-.26.68-.61.94h0A2.59,2.59,0,0,1,164,181.28Z"/><path class="cls-32" d="M168.67,184.93a6.59,6.59,0,0,1,5.59-1,4.69,4.69,0,0,1,3.77,4.83c.11,2.83-1.1,4.77-3.43,5.49-2.83.88-5.74-.09-6.87-2.32a7.65,7.65,0,0,1-.76-3.32C167.41,187.34,166.75,185.77,168.67,184.93Z"/><path class="cls-33" d="M145.9,174.22l.78-.7h0c.07.24.35.36.59.49,2.5,2.1,3.06,4.75,3.32,7.43a13.53,13.53,0,0,1-.67,6.18,1.86,1.86,0,0,1-1.06-.62,2,2,0,0,1-.88-2.26,14.05,14.05,0,0,0-2-9,2.6,2.6,0,0,1-.3-1A1,1,0,0,1,145.9,174.22Z"/><path class="cls-34" d="M164.72,151.45c-2.07,1.34-2.9,1.5-4.63.33a6,6,0,0,0-4.18-.88l1.76-.89a19.2,19.2,0,0,0,5.68.89C164.1,150.61,164.69,150.61,164.72,151.45Z"/><path class="cls-35" d="M172.67,137.77c.18,2.74-.2,5.49.55,8.2l-1,.88a69.08,69.08,0,0,1,0-9.1Z"/><path class="cls-36" d="M168.67,184.93a16.16,16.16,0,0,0-1.7,3.66c-.2-.44-.06-1-.53-1.35a7.15,7.15,0,0,1,1.62-2.78Z"/><path class="cls-37" d="M165.73,179.51a2.94,2.94,0,0,1,.49-2.32l.57.88A1.93,1.93,0,0,1,165.73,179.51Z"/><path class="cls-38" d="M164,181.28a1.86,1.86,0,0,1,1.19-.89,1.19,1.19,0,0,1-.57,1.38Z"/><path class="cls-28" d="M147.26,174l-.58-.49A.69.69,0,0,1,147.26,174Z"/><path class="cls-39" d="M142.6,53.91c0-.44-.08-.88-.11-1.33,0-.88,0-1.77.08-2.65.11-3.45,2.4-5.47,6.86-6,1.62,0,3.25.15,4.86,0,1.87-.15,2.84.5,3.34,1.76a2.36,2.36,0,0,1-2.11.67c-1.65-.41-3.25,0-4.88.16-2.35,0-3,1.07-2.89,2.76a15.19,15.19,0,0,1-.19,4.85c-.7,1-1.87.88-3,.84A2.88,2.88,0,0,1,142.6,53.91Z"/><path class="cls-40" d="M190.1,53.94c-1.07-2.28-.45-4.63-.45-6.95,0-.88,1-1.23,2-1.22s2.28-.15,2.32.88c.1,2.45.73,4.94-.38,7.37A2.9,2.9,0,0,1,190.1,53.94Z"/><path class="cls-41" d="M164,53.41c0-2,0-4.06.07-6.09.05-1.31.49-1.59,2.07-1.58s2,.26,2,1.63c.06,2.17,0,4.35,0,6.53a2,2,0,0,1-.81.5C165.93,54.5,164.38,55.07,164,53.41Z"/><path class="cls-41" d="M172.79,53.91c0-2.18-.1-4.36-.06-6.54,0-1.34.46-1.61,2-1.61s2,.27,2,1.61c0,2.18,0,4.36-.05,6.54A3.2,3.2,0,0,1,172.79,53.91Z"/><path class="cls-41" d="M181.41,53.93c0-2.18-.08-4.36,0-6.54,0-1.36.44-1.62,2-1.62s2,.27,2.05,1.6c.05,2.17,0,4.35,0,6.54A3.26,3.26,0,0,1,181.41,53.93Z"/><path class="cls-42" d="M155.34,45.82l2.29-.09v.06c1.76,1.18,1.51,3,2.19,4.48l.13.49c.88,1.4,1.36,2.74-.88,3.68a8.4,8.4,0,0,1-2.18.14c-1.95-.11-2.59-1.14-2.65-2.44a27.06,27.06,0,0,1,0-4.93,2.48,2.48,0,0,1,.37-.81A1.88,1.88,0,0,1,155.34,45.82Z"/><path class="cls-43" d="M198.36,54.88l-.18,1.27a3.6,3.6,0,0,1-2.15.54c-8.59,0-17.18.07-25.77,0a4.24,4.24,0,0,1-1.13-.18,10.16,10.16,0,0,1-1.1-.21c-.62-.44-1.94-.69-.77-1.64,8.12-.29,16.26.11,24.39-.21,2-.08,4,.58,6,0Z"/><path class="cls-44" d="M197.61,54.39c-1,.7-2.19.45-3.31.45q-13.71,0-27.42,0a1.08,1.08,0,0,1-1.17,0c-.23-1.24,1.31-.46,1.77-.94l.59-.06a5.45,5.45,0,0,0,4.7,0h4a5.45,5.45,0,0,0,4.7,0h4a5.43,5.43,0,0,0,4.69,0l3.53.06C194.83,54.71,196.28,54.29,197.61,54.39Z"/><path class="cls-45" d="M167.5,54l-1.77.83a1.49,1.49,0,0,1-.88.33c-1.34-.11-2.65,0-4-.11-.88,0-2,.07-2.06-1.07,1.63-.8.94-2.1,1.12-3.21,1.31.88,2.32,2.09,4,2.65C164.94,54.29,166.27,53.83,167.5,54Z"/><path class="cls-46" d="M159.81,50.27c-1.13-1.38-2.31-2.74-2.19-4.48,1.52-.1,2.27.46,2.27,1.64C159.88,48.38,159.83,49.32,159.81,50.27Z"/><path class="cls-47" d="M168.64,55.77H195.1a8.28,8.28,0,0,1,3.08.4c1,2.46.77,3.47-1.13,4.64h-.22l-.21.06c-1.14.88-2.58.88-4,.88-5.66.17-11.3-.32-17-.32a18.48,18.48,0,0,1-5.21-1.26C168.16,59,167.61,57.66,168.64,55.77Z"/><path class="cls-9" d="M52.66,43.93A7.21,7.21,0,0,1,56,43.57q9.07,0,18.15,0l18.46,0a15.75,15.75,0,0,1,3.42.28c4.07.88,5.92,2.71,6,6,0,1.35,0,2.7-.06,4.06a2.24,2.24,0,0,1-1.42,1c-1.31.09-2.65.31-3.58-.76-.57-1.85,0-3.73-.24-5.59-.08-.65,0-1.55-1.11-1.58s-1.06.88-1.13,1.53c-.23,1.93.38,3.89-.42,5.81a5.73,5.73,0,0,1-5.56.06c-.72-1.13-.37-2.35-.44-3.53V48.67c0-.74.1-1.54-1.07-1.59s-1.1.89-1.15,1.5c-.11,1.12,0,2.24,0,3.36a4.29,4.29,0,0,1-.39,2.44,5.7,5.7,0,0,1-5.56,0c-.88-1.81-.23-3.7-.47-5.54-.09-.7.22-1.76-1.07-1.76s-1.12,1-1.21,1.68c-.23,1.85.37,3.74-.42,5.57a5.7,5.7,0,0,1-5.56,0c-.88-1.88-.22-3.84-.46-5.76-.08-.63.14-1.57-1-1.62-1.38,0-1.15,1-1.25,1.67-.2,1.54.38,3.15-.73,4.61-1.51.88-2.41-.08-3.29-.76a8.13,8.13,0,0,1-1.76-1.94,2,2,0,0,1-.28-.64c-.49-1.2,1.08-2.82-1.23-3.65a3.24,3.24,0,0,1-.69-.36A5.38,5.38,0,0,0,59.29,45a9.28,9.28,0,0,0-3.86-.36C54.39,44.67,53.29,44.82,52.66,43.93Z"/><path class="cls-47" d="M101.36,55.74c1.22,1.26.69,2.69.6,4-.06.69-.95.88-1.65,1a4.5,4.5,0,0,1-2.65.83c-6.9,0-13.8.21-20.7-.13a12.35,12.35,0,0,1-3.65-1.77c-2.07-1.25-2.38-2.83-1.12-4.4,4.21-.52,8.43-.16,12.65-.22,4.41-.08,8.82,0,13.23,0C99.26,55.09,100.48,54.92,101.36,55.74Z"/><path class="cls-48" d="M76.41,60.6l20.14.12c1.24,0,2.49.08,3.73.11L100.12,63H48.79a2.1,2.1,0,0,1-.1-2.52,5.53,5.53,0,0,1,3.53-.73H71A30.41,30.41,0,0,1,76.41,60.6Z"/><path class="cls-43" d="M101.36,55.74l-29.47,0a1.35,1.35,0,0,1-1,.09c-.76-.42-1.65-.83-.08-1.35,5.2-.28,10.44-.16,15.61-.11,3.74,0,7.55-.47,11.31.13a5.83,5.83,0,0,0,3.1-.15l1.12-.47A1.88,1.88,0,0,1,101.36,55.74Z"/><path class="cls-49" d="M168.64,55.77c.3,2.87,1.65,4,5.29,4.54a9.19,9.19,0,0,1,1.06.29c-.46.76-1.45.76-2.28,1-1.28.09-2.56.09-3.85.07-5.29-.76-10.58.19-15.8,0-1.76,0-3.46,0-5.19,0a4.71,4.71,0,0,1-2.91-.8c-2.35-.6-2.36-.6-2.47-2.37-.06-.94-.29-1.92.66-2.71a2.09,2.09,0,0,1,1.76-.67c7.17,0,14.35-.34,21.51.23a5.25,5.25,0,0,1,1.66.36Z"/><path class="cls-50" d="M145,60.88a61.07,61.07,0,0,1,7.77-.14c5.46,0,10.94,0,16.41.07-.59,1.64-2.38,1.12-3.79,1.27-1.82.21-3.91-.54-5.41.89h-11c-3.38,0-3.37,0-3.46,2.55,0,.82.2,1.68-.52,2.41C145,65.61,145,63.25,145,60.88Z"/><path class="cls-51" d="M168,55.72l-24.88.07a1.85,1.85,0,0,1-.55-1.88l1.69.49c1.64.65,3.19-.17,4.78-.21,5.39-.13,10.74.41,16.1.65h.59l1.12.07Z"/><path class="cls-52" d="M71.27,55.73l.61.06c.35,2.26,2.16,3.7,4.53,4.81l-24.13.12c-1.24,0-2.48.07-3.72.11a.28.28,0,0,1-.37.11.29.29,0,0,1-.11-.11C46,60.54,45.88,59.31,45.9,58a2.85,2.85,0,0,1,1-2.24c.79-.72,1.88-.63,2.93-.64H67.36A12.36,12.36,0,0,1,71.27,55.73Z"/><path class="cls-53" d="M52.66,43.93h5.65c.89,0,1.77,0,2,.88a3,3,0,0,0-.25.25,28.39,28.39,0,0,1-6.17,1.38c-1.72.18-2.36.94-2.35,2.29A21.77,21.77,0,0,1,51.36,54c-.69,1.07-2,.89-3.15.89a4.7,4.7,0,0,1-2-.59q-.1-2.91.08-5.82C46.61,46,48.74,44.59,52.66,43.93Z"/><path class="cls-54" d="M46.25,54.45c.39-.39.82-.19,1.25-.06,2,.75,3.94-.24,5.92-.22,5.09,0,10.18-.08,15.28.07a2,2,0,0,1,1.39.63l1.18.88H46.88A1.86,1.86,0,0,1,46.25,54.45Z"/><path class="cls-55" d="M49.76,174.53c3,3.41,3.14,7.27,2.87,11.2-.37,1-.66,2-1.12,3a8.54,8.54,0,0,1-7.7,4.71,8.38,8.38,0,0,1-7.94-4.69,13.77,13.77,0,0,1-.11-11.46C37.71,172.46,44.65,170.78,49.76,174.53Z"/><path class="cls-55" d="M47.56,132.9c-2.5,0-2.81-.25-2.94-1.88v-.23c-.2-2.23.77-4.62-.48-6.66s-3.23-3.53-4.91-5.29c-.75-.78-1.53-1.54-2.27-2.34-1.21-1.31-1.24-2.1-.14-2.71s1.93-.32,3.1.88c1.66,1.66,3.26,3.35,4.89,5,.18.18.34.37.52.54,1.15,1.14,1.15,1.14,2.65.12.83.39,1.34,1.06,1.08,1.71-1.28,3.23-.21,6.59-1,9.84h0c-.34.19-.32.56-.61.78Z"/><path class="cls-56" d="M48.11,131.89,48,120.34l.74-1.09,3.85-3.64c.36-.35.68-.73,1.07-1.06,1.11-.94,2.09-1.08,3-.44s.88,1.46.08,2.21l-1.25,1.24c-1.85,1.83-3.64,3.7-5.58,5.47a4.16,4.16,0,0,0-1.47,3.28C48.36,128.19,48.79,130.07,48.11,131.89Z"/><path class="cls-56" d="M47.51,132.69a.87.87,0,0,1,.61-.78C48.17,132.29,48.05,132.59,47.51,132.69Z"/><path class="cls-57" d="M105.63,169.53c-2.58,0-4.41-1.41-4.54-3.66a48.47,48.47,0,0,1,0-5c0-.88-.19-1.4-1.51-1.48-1,0-1.88-.61-1.86-1.45s.72-1.58,2-1.55,1.4-.51,1.37-1.28a32.13,32.13,0,0,1,0-3.4,1.94,1.94,0,0,1,3.87,0c.06.83,0,1.66,0,2.49,0,1.07-.45,2.31,1.91,2.32A1.28,1.28,0,0,1,108,158h0a1.4,1.4,0,0,1-1.32,1.32c-1.76.14-1.86,1-1.76,2a24.68,24.68,0,0,1,0,2.72c0,1.26-.35,2.56,2,2.86.8.11,1,.89.77,1.53C107.53,169.34,106.65,169.57,105.63,169.53Z"/><path class="cls-57" d="M83.42,163v-4.06c.08-2.09,1-2.64,3.32-1.67a2.29,2.29,0,0,0,1.85,0,9.31,9.31,0,0,1,3.67-.43c2.11.15,3.92.66,4.53,2.52.13.4.8.7.27,1.18a2,2,0,0,1-2.08.39c-.52-.17-.94-.51-1.46-.71-2.89-1.06-5.83.22-6.1,2.71a37.64,37.64,0,0,0,0,3.83,7.52,7.52,0,0,1-.08,1.57,1.78,1.78,0,0,1-2,1.33c-1.1-.05-1.76-.62-1.84-1.47-.07-1.76,0-3.45,0-5.18Z"/><path class="cls-58" d="M70.16,149a11.74,11.74,0,0,1-7.32.23c-4-1.35-6.07-4.79-4.71-8s5.73-5.08,9.95-4.22c1.29.26,2.32.6,3.65-.14a1.76,1.76,0,0,1,2.35.83,1.79,1.79,0,0,1,.13.39,2.58,2.58,0,0,1,0,.68c0,3.92.08,7.83,0,11.75-.09,2.65-2,4.52-5,5.65a9.91,9.91,0,0,1-8.71-.8,3.49,3.49,0,0,1-1.37-1.13,1.24,1.24,0,0,1,.2-1.75l.16-.1a2,2,0,0,1,2.35-.15,7.57,7.57,0,0,1,.67.42,5.37,5.37,0,0,0,5.34.6,3.34,3.34,0,0,0,2.37-4.09S70.18,149,70.16,149Z"/><path class="cls-59" d="M93.36,141.42c0,.82.06,1.65,0,2.48-.25,3.08-3.27,5.6-7.06,5.95-3.45.3-6.94-1.56-8.13-4.41-1-2.36-.45-4.78-.42-7.18,0-.72.63-1.29,1.63-1.37a1.93,1.93,0,0,1,2.1,1.25,4.4,4.4,0,0,1,.13,1.57,36.31,36.31,0,0,0,.09,4.3c.17,1.43,1.85,2.64,3.62,2.78a3.84,3.84,0,0,0,4.06-2.32,6.28,6.28,0,0,0,.38-2.46c0-1,0-2,0-2.94a1.77,1.77,0,0,1,1.76-2c1.15-.14,1.84.63,1.89,2.06v2.26Z"/><path class="cls-60" d="M76.44,173c-.14.26-.34.67-.57,1.09L65.54,192.15a2.32,2.32,0,0,1-.22.41c-.35.39-.46,1.18-1.37.82s-.32-.88-.06-1.38q5.34-9.36,10.71-18.72a3.81,3.81,0,0,1,.73-1,1.23,1.23,0,0,1,.8-.09C76.39,172.29,76.52,172.53,76.44,173Z"/><path class="cls-58" d="M73.47,126.51c0,3.53-3.82,6.42-8.35,6.43s-8.48-3.12-8.35-6.67,4-6.35,8.52-6.29S73.52,123,73.47,126.51Z"/><path class="cls-61" d="M60.08,176.67a4.83,4.83,0,0,1,.76-2.64,3.68,3.68,0,0,1,3.29-1.52A3.65,3.65,0,0,1,67.45,174a4.76,4.76,0,0,1,.39,4.83A3.71,3.71,0,0,1,63.92,181a3.51,3.51,0,0,1-3.52-2.31A10.3,10.3,0,0,1,60.08,176.67Z"/><path class="cls-62" d="M80.19,189.21a11.15,11.15,0,0,1-.53,2.12A4.14,4.14,0,0,1,74,192.88a4.28,4.28,0,0,1-1.51-1.48,4.83,4.83,0,0,1-.07-4.41,3.7,3.7,0,0,1,3.89-2.14,3.53,3.53,0,0,1,3.48,2.27A13.72,13.72,0,0,1,80.19,189.21Z"/><path class="cls-63" d="M159.94,63c-.11-1.18.39-1.88,2.1-1.76,1.43.05,2.88,0,4.33,0a4.84,4.84,0,0,0,2.77-.37,15.91,15.91,0,0,1,3.65,0,64.4,64.4,0,0,0,7.48.14c2,0,2.83.49,1.71,2Z"/><path class="cls-64" d="M182,63c-.38-1.76-.38-1.76-2.38-1.76h-4.33a4.33,4.33,0,0,1-2.48-.42L175,60.6l17.3.12c1.45,0,2.89.06,4.33.09-.07.74-.13,1.48-.2,2.21Z"/><path class="cls-3" d="M132.16,117.38c.31.07.46.23.48.46C132.34,117.78,131.81,117.85,132.16,117.38Z"/><path class="cls-3" d="M131,116l.36.47Z"/><path class="cls-3" d="M134.44,119.71a.34.34,0,0,1,.38.36Z"/><path class="cls-3" d="M132.71,117.91a.34.34,0,0,1,.38.34Z"/><path class="cls-57" d="M197.61,156.12c0-1.44-.05-2.94,0-4.41a1.67,1.67,0,0,1,1.54-1.79,2.2,2.2,0,0,1,.44,0,1.66,1.66,0,0,1,1.81,1.71c0,1.2,0,2.41,0,3.62,0,.67.12,1.15,1.21,1.19a1.76,1.76,0,0,1,1.89,1.44c.09.88-.76,1.43-1.77,1.54-1.41.14-1.35.88-1.34,1.61v3.62c0,1-.07,2,1.76,2.17a1.18,1.18,0,0,1,1.16,1.2,1.07,1.07,0,0,1-.07.39,1.93,1.93,0,0,1-1.91,1.14c-2.51.14-4.61-1.28-4.75-3.41-.1-1.76,0-3.62,0-5.42,0-.65,0-1.18-1.14-1.22s-2.36-.52-2.27-1.64,1.37-1.49,2.74-1.49A3,3,0,0,0,197.61,156.12Z"/><path class="cls-65" d="M179.89,163c0-1.43-.06-2.86,0-4.28.11-1.92,1.16-2.47,3.27-1.58a2.64,2.64,0,0,0,2.1,0,8.45,8.45,0,0,1,3.67-.36c2,.2,3.74.65,4.31,2.44.15.46,1,.83.2,1.36a2.19,2.19,0,0,1-2.13.22c-.43-.17-.78-.45-1.2-.62-3-1.11-6,.21-6.28,2.79a31.57,31.57,0,0,0,0,3.37v1.58c-.05.95-.59,1.62-1.89,1.63s-1.92-.68-2-1.6c-.08-1.65,0-3.31,0-5Z"/><path class="cls-58" d="M166.55,149.1c-1.05.19-1.88.39-2.72.5a9.16,9.16,0,0,1-8.57-3.18c-1.78-2.4-1.44-5,.74-7.19a9.77,9.77,0,0,1,8.82-2.2c1.1.28,1.94.68,3.1-.11a2,2,0,0,1,2.64.69,1.83,1.83,0,0,1,.31,1.32c0,3.61,0,7.23,0,10.85a6.34,6.34,0,0,1-3,5.23,10.22,10.22,0,0,1-11.11.16,3.59,3.59,0,0,1-1.28-1.2,1.17,1.17,0,0,1,.43-1.6l0,0a1.93,1.93,0,0,1,2.09-.28,10.77,10.77,0,0,1,1.13.71,5.71,5.71,0,0,0,5.41.33C166.28,152.38,166.81,151.29,166.55,149.1Z"/><path class="cls-66" d="M164.72,151.45a2.46,2.46,0,0,0-1.39-.57c.55-.25,1.15-.5,1.69-.12C165.27,150.94,165.05,151.29,164.72,151.45Z"/><path class="cls-67" d="M178,141.28a14.79,14.79,0,0,0,0,2.49,3.92,3.92,0,0,0,4.26,3,3.62,3.62,0,0,0,3.69-3.2c.08-1.28,0-2.56,0-3.85a3.93,3.93,0,0,1,.2-1.56,2,2,0,0,1,2-1.09,1.47,1.47,0,0,1,1.6,1.13c.2,2.91.92,5.9-1.16,8.59a7.93,7.93,0,0,1-7.25,3c-3.39-.26-5.68-1.84-6.74-4.34-1-2.34-.56-4.78-.45-7.18a1.6,1.6,0,0,1,1.73-1.43l.14,0a1.75,1.75,0,0,1,1.87,1.46,28.63,28.63,0,0,1,0,2.93Z"/><path class="cls-68" d="M160.64,193.44c-.54-.08-.69-.39-.62-.68a3.93,3.93,0,0,1,.51-1c3.46-6.06,6.9-12.12,10.4-18.17.31-.54.41-1.65,1.54-1.26s.16,1.17-.15,1.71q-5.13,9.1-10.33,18.19C161.7,192.69,161.59,193.39,160.64,193.44Z"/><path class="cls-69" d="M165.15,180.39a.89.89,0,0,1,.61-.93C165.73,179.85,165.73,180.23,165.15,180.39Z"/><path class="cls-58" d="M169.89,126.54c-.06,3.53-3.83,6.43-8.35,6.4s-8.26-3-8.29-6.49,3.87-6.55,8.55-6.47S169.94,122.94,169.89,126.54Z"/><path class="cls-55" d="M146.58,174.92a12.54,12.54,0,0,1,2.44,9.7c-.1.82-.11,1.64-.17,2.46-.35.69-.68,1.39-1.06,2.07a8.24,8.24,0,0,1-7.76,4.3,8.13,8.13,0,0,1-7.65-4.41,13.68,13.68,0,0,1-1.09-8.88,9.41,9.41,0,0,1,1.76-4.28c2.65-3.53,7.58-4.37,11.9-2.09.31.17.65.32,1,.47a.3.3,0,0,0,.25.3A2,2,0,0,0,146.58,174.92Z"/><path class="cls-70" d="M144.35,132.39a.66.66,0,0,1-.06.37c-2.46.3-3.07,0-3.25-1.7a2.58,2.58,0,0,1,0-.68c1-4.34-1-7.88-4.81-11a29.9,29.9,0,0,1-2.64-2.64c-1.46-1.53-1.54-2.19-.35-2.9s1.92-.37,3.44,1.16c1.81,1.84,3.66,3.67,5.36,5.58.88,1,1.5.41,2.21-.05,2.88.93,1.12,2.39.67,3.69h0c-.76,1.9-.18,3.85-.36,5.76C144.51,130.76,144.81,131.6,144.35,132.39Z"/><path class="cls-56" d="M144.94,124.23c-.32-1.23.47-2.57-.67-3.7l1-1.3,4.19-4a9.14,9.14,0,0,1,1.33-1.16,2,2,0,0,1,2.12,0,1.24,1.24,0,0,1,.73,1.37,1.6,1.6,0,0,1-.54,1C150.33,119,147.91,121.79,144.94,124.23Z"/><path class="cls-56" d="M144.35,132.39c0-2.1,0-4.2-.06-6.31,0-.67-.09-1.38.66-1.89,0,2.11,0,4.22-.08,6.32C144.85,131.15,145.2,131.89,144.35,132.39Z"/><path class="cls-61" d="M164.71,176.37a5.37,5.37,0,0,1-.63,2.94,3.79,3.79,0,0,1-3.42,1.69,3.63,3.63,0,0,1-3.41-1.69,4.83,4.83,0,0,1-.27-4.59c.69-1.58,1.85-2.23,3.81-2.19s3.11.81,3.65,2.38A8.15,8.15,0,0,1,164.71,176.37Z"/><path class="cls-71" d="M176.66,189.08a3.93,3.93,0,0,1-.54,2.39,3.64,3.64,0,0,1-3.53,2,3.71,3.71,0,0,1-3.52-1.94,5.16,5.16,0,0,1-.16-4.41,4.08,4.08,0,0,1,7.76,2Z"/><path class="cls-28" d="M146.58,174.92c-.27-.06-.44-.18-.42-.42Z"/><path class="cls-72" d="M155.34,45.82a1.5,1.5,0,0,1,0,.42c0,.14-.2.18-.16.29s.09.15.14.15v5.64c0,1,.28,1.64,1.7,1.66-.27,1.23-1.49.59-2.24.6a16.23,16.23,0,0,1-4.72-.19c-.12-2.89-1.33-5.82.63-8.61C152.23,45.59,153.8,44.79,155.34,45.82Z"/><path class="cls-73" d="M150.67,45.78a1.93,1.93,0,0,1,.35,1.7,6.8,6.8,0,0,0,0,4.41,1.52,1.52,0,0,1-.7,2l-.18.08a2.83,2.83,0,0,1-2.94,0c-1.11-2.33-.42-4.73-.43-7.06,0-.56.58-1,1.33-1S149.81,45.8,150.67,45.78Z"/><path class="cls-74" d="M147.21,54h2.95A12.38,12.38,0,0,0,157,54h1.81c1,.66,2.21.35,3.33.43s2.13-.2,3,.45H147.35c-1,0-2.13.19-3-.44C145.27,54.29,146.33,54.6,147.21,54Z"/><path class="cls-39" d="M155.28,46.68a1.2,1.2,0,0,1-.13-.33l.16-.12A3.4,3.4,0,0,1,155.28,46.68Z"/><path class="cls-75" d="M76.44,54c-1-2.34-.42-4.74-.37-7.12,0-.94,1.13-1.09,2.16-1.09s2.13.15,2.15,1.09c0,2.38.66,4.78-.39,7.12A3.84,3.84,0,0,1,76.44,54Z"/><path class="cls-75" d="M67.21,53.46c0-1.87,0-3.75.05-5.62s1.16-2.43,3.32-2c.63.11,1.16.36,1.14.88,0,2.44.62,4.92-.4,7.34a2.31,2.31,0,0,1-.88.34C69.28,54.29,67.85,54.82,67.21,53.46Z"/><path class="cls-75" d="M85.14,54c-1-2.34-.43-4.74-.39-7.12,0-.94,1.13-1.08,2.15-1.08s2.14.14,2.16,1.08c.06,2.38.65,4.78-.38,7.12A3.82,3.82,0,0,1,85.14,54Z"/><path class="cls-75" d="M93.82,54c-1-2.35-.4-4.77-.4-7.15,0-1.05,1.09-1.07,2.09-1.08,1.16,0,2.3.17,2.31,1.24,0,2.31.62,4.66-.45,6.94A3.7,3.7,0,0,1,93.82,54Z"/><path class="cls-76" d="M63.12,49.88a2.34,2.34,0,0,1,.07.45c.41,1.35,1.89,2.77-.39,4a11.26,11.26,0,0,1-3.38,0c-.65-.24-1.19-.65-1.22-1.17-.16-2.54-1.38-5.18,1-7.51a2.22,2.22,0,0,1,1.64.12v.06C62.77,46.73,62.27,48.52,63.12,49.88Z"/><path class="cls-77" d="M93.82,54l3.52-.05c1,.74,2.33.35,3.53.46-1,.68-2.2.44-3.33.44H70.11l-1.12,0c-.16-.09-.24-.19-.23-.31s0-.19.07-.19c.56-.3,1.28,0,1.83-.32h.66a7.09,7.09,0,0,0,5.13,0H80a7,7,0,0,0,5.15,0h3.53A7.07,7.07,0,0,0,93.82,54Z"/><path class="cls-78" d="M70.66,54a2.71,2.71,0,0,1-1.71.4c-2.14.09-4.41.89-6.36-.44,1.06-1.14.33-2.45.6-3.66a15.23,15.23,0,0,0,4,3.16A8,8,0,0,0,70.66,54Z"/><path class="cls-79" d="M63.12,49.88a8,8,0,0,1-2.27-4.09c1.5-.1,2.44.28,2.32,1.61C63.11,48.2,63.14,49,63.12,49.88Z"/><path class="cls-53" d="M60.87,45.71H59.69c-.33-.5.25-.63.55-.88h0A1.2,1.2,0,0,1,60.87,45.71Z"/><path class="cls-80" d="M60.24,44.88c-.18.29-.37.57-.55.88s-.43.37-.43.56c-.09,2.56-.71,5.14.39,7.67-2,1.17-4,.88-6.1.08C53,52,53.3,49.9,53.3,47.82a2.41,2.41,0,0,1,1.14-2C56.38,45.47,58.15,44.59,60.24,44.88Z"/><path class="cls-81" d="M54.44,45.81v6c0,.73.18,1.51-.55,2.12a2.84,2.84,0,0,1-3,0c-1.16-2.38-.39-4.84-.47-7.26,0-.62.66-.89,1.39-.89Z"/><path class="cls-74" d="M51,54H53.9a8.6,8.6,0,0,0,5.75,0h2.94c2,.88,4.25.25,6.36.45v.42h-19a3.94,3.94,0,0,1-2.45-.45C48.66,54.29,49.91,54.67,51,54Z"/><path class="cls-82" d="M49.91,183a10.82,10.82,0,0,1-1,5.29,5.58,5.58,0,0,1-5.29,3.32,5.3,5.3,0,0,1-5.29-3.24,14.22,14.22,0,0,1,0-10.89,5.29,5.29,0,0,1,5.28-3.3,5.53,5.53,0,0,1,5.29,3.24A11.27,11.27,0,0,1,49.91,183Z"/><path class="cls-83" d="M70.32,143.29c0,1.91-2.09,3.49-4.41,3.41s-4.25-1.68-4.16-3.6,1.77-3.2,4.24-3.21S70.35,141.33,70.32,143.29Z"/><path class="cls-84" d="M69.5,126.51c-.08,1.94-2,3.31-4.55,3.26s-4.23-1.47-4.11-3.53c.09-1.83,2-3.26,4.33-3.24S69.61,124.66,69.5,126.51Z"/><path class="cls-85" d="M66.73,176.81a4.22,4.22,0,0,1-.46,2.21A2.36,2.36,0,0,1,64,180.18,2.16,2.16,0,0,1,62.08,179a4.74,4.74,0,0,1,0-4.41,2.16,2.16,0,0,1,2.14-1.26,2.31,2.31,0,0,1,2.17,1.26A4.42,4.42,0,0,1,66.73,176.81Z"/><path class="cls-86" d="M78.76,189a4.31,4.31,0,0,1-.61,2.45,2.23,2.23,0,0,1-2,1.09,2.1,2.1,0,0,1-2-1.06,4.5,4.5,0,0,1,.06-4.81,2.43,2.43,0,0,1,3.39-.53,2.38,2.38,0,0,1,.52.53A3.73,3.73,0,0,1,78.76,189Z"/><path class="cls-87" d="M162.54,146.71c-2.35,0-4.34-1.56-4.33-3.47s1.61-3.28,4.07-3.35,4.47,1.31,4.55,3.26S164.85,146.68,162.54,146.71Z"/><path class="cls-30" d="M165.86,126.49c0,2.06-1.77,3.32-4.41,3.27-2.34-.06-4.25-1.53-4.26-3.28s2.05-3.45,4.41-3.46S165.88,124.52,165.86,126.49Z"/><path class="cls-10" d="M146.53,183.26a14.34,14.34,0,0,1-1.35,5.56,5.36,5.36,0,0,1-5.1,2.81,5.14,5.14,0,0,1-5-2.88,13.34,13.34,0,0,1-.08-11.46,5.88,5.88,0,0,1,10.22-.19A14.92,14.92,0,0,1,146.53,183.26Z"/><path class="cls-88" d="M158.11,176.7a4.2,4.2,0,0,1,.45-2.2,2.36,2.36,0,0,1,2.25-1.16,2.17,2.17,0,0,1,2,1.37,4.88,4.88,0,0,1,0,4.19,2.2,2.2,0,0,1-2.14,1.29,2.34,2.34,0,0,1-2.16-1.28A4.35,4.35,0,0,1,158.11,176.7Z"/><path class="cls-19" d="M175.11,189.21a3.4,3.4,0,0,1-.63,2.39,2.39,2.39,0,0,1-3.36.44,2.44,2.44,0,0,1-.54-.57,4.44,4.44,0,0,1,0-4.8,2.45,2.45,0,0,1,3.42-.56,2.49,2.49,0,0,1,.5.47A3.94,3.94,0,0,1,175.11,189.21Z"/><path class="cls-89" d="M38.67,182.81a12,12,0,0,1,1-4.9,4.11,4.11,0,0,1,4-2.53,3.89,3.89,0,0,1,3.91,2.54,12.11,12.11,0,0,1,0,10,3.83,3.83,0,0,1-3.93,2.52,4.08,4.08,0,0,1-4-2.52,7.53,7.53,0,0,1-.65-2C38.83,184.92,38.75,183.86,38.67,182.81Z"/><path class="cls-90" d="M68.9,143.25c0,1.25-1.4,2.28-3,2.24s-2.86-1.13-2.77-2.37A2.65,2.65,0,0,1,66,141C67.51,141,68.92,142.06,68.9,143.25Z"/><path class="cls-91" d="M62.17,126.46c0-1.19,1.43-2.3,3-2.28S68,125.27,68,126.53a2.61,2.61,0,0,1-2.76,2.19C63.76,128.75,62.19,127.63,62.17,126.46Z"/><path class="cls-92" d="M63.07,176.62c.09-.66-.24-1.61,1-2,.7-.24,1.38.88,1.38,2.17a1.7,1.7,0,0,1,0,.45c-.19.69-.05,1.76-1.34,1.68-1-.06-.88-1-1-1.68A2,2,0,0,1,63.07,176.62Z"/><path class="cls-93" d="M77.29,189.21c-.26.67.2,1.67-1.08,2-.7.19-1.37-.88-1.34-2.16a1.69,1.69,0,0,1,.08-.67c.2-.55.19-1.38,1.06-1.41,1.14-.05,1,.88,1.19,1.47A4.67,4.67,0,0,1,77.29,189.21Z"/><path class="cls-91" d="M165.3,143.23a2.6,2.6,0,0,1-2.88,2.25,2.87,2.87,0,0,1-2.87-2.12c-.09-1.08,1.32-2.34,2.83-2.39S165.28,142,165.3,143.23Z"/><path class="cls-90" d="M164.52,126.44c0,1.2-1.47,2.3-3,2.27s-2.88-1.15-2.79-2.4a2.63,2.63,0,0,1,2.82-2.13C163,124.16,164.54,125.25,164.52,126.44Z"/><path class="cls-94" d="M144.94,183a10,10,0,0,1-.88,4.93,4.05,4.05,0,0,1-4,2.51,3.89,3.89,0,0,1-3.94-2.51,12.12,12.12,0,0,1,0-10,4,4,0,0,1,3.91-2.57,4.17,4.17,0,0,1,4,2.53A10,10,0,0,1,144.94,183Z"/><path class="cls-92" d="M161.77,176.41a4.45,4.45,0,0,1,0,.73c-.11.71.1,1.76-1.18,1.76-1,0-1-1-1.15-1.61a3,3,0,0,1,.3-2c.18-.35.37-.73,1-.69a1,1,0,0,1,.89.77A7.27,7.27,0,0,1,161.77,176.41Z"/><path class="cls-93" d="M171.46,188.89c.19-.61-.33-1.94,1.26-1.9,1.09,0,1,1.28,1.11,2.08a1.14,1.14,0,0,1,0,.45c-.21.69-.06,1.76-1.35,1.67-1-.06-.88-1-1-1.66A3.39,3.39,0,0,1,171.46,188.89Z"/></svg>