<svg id="Layer_1" data-name="Layer 1" xmlns="http://www.w3.org/2000/svg" viewBox="0 0 250 250"><defs><style>.cls-1{fill:#8b7f73;}.cls-2{fill:#b74a50;}.cls-3{fill:#c84f55;}.cls-4{fill:#833539;}.cls-5{fill:#f5f5f5;}.cls-6{fill:#da888c;}.cls-7{fill:#da888d;}.cls-8{fill:#4e2b2e;}.cls-9{fill:#9c9b9c;}.cls-10{fill:#fece5e;}.cls-11{fill:#dbdbdc;}.cls-12{fill:#d6979a;}.cls-13{fill:#f6dfa7;}.cls-14{fill:#ebd193;}.cls-15{fill:#fee3a3;}.cls-16{fill:#545454;}.cls-17{fill:#ddae43;}.cls-18{fill:#f0c766;}.cls-19{fill:#f0f1f1;}.cls-20{fill:#df9a9d;}.cls-21{fill:#f6de72;}.cls-22{fill:#dfc241;}.cls-23{fill:#7d4417;}.cls-24{fill:#eaeaeb;}.cls-25{fill:#ebd194;}.cls-26{fill:#585656;}.cls-27{fill:#f8af2d;}.cls-28{fill:#dd8d00;}.cls-29{fill:#f6f7f7;}.cls-30{fill:#533c18;}.cls-31{fill:#dd8e00;}.cls-32{fill:#998587;}.cls-33{fill:#ef9616;}.cls-34{fill:#dd8200;}.cls-35{fill:#fece5f;}.cls-36{fill:#584b32;}.cls-37{fill:#534429;}.cls-38{fill:#5a4523;}.cls-39{fill:#9f9e9e;}.cls-40{fill:none;}</style></defs><title>products</title><path class="cls-1" d="M202,54.6a3.89,3.89,0,0,1,3.52,3.1,2.45,2.45,0,0,1,.05.66V246.25A3.83,3.83,0,0,1,201.8,250H51.43A4.1,4.1,0,0,1,47,245.59v-.4a.85.85,0,0,1,.74-.23h10.1q7.29-.06,14.58,0,7.09-.06,14.18,0,7.28-.06,14.53,0,7.1-.06,14.18,0,7.29-.06,14.53,0t14.32,0q7.16,0,14.44,0t14.3,0h24.63a4.21,4.21,0,0,0,3-1,3.51,3.51,0,0,0,1.18-2.73V108.26c.06-2.07,0-4.14,0-6.21v-9a4.71,4.71,0,0,1,0-.92c0-12.11,0-24.22,0-36.33C201.79,55.39,201.68,55,202,54.6Z"/><path class="cls-2" d="M43.41,240.91V107.83c.55-5,3.42-8.31,7.76-10.55.22-.11.57-.43.75.1-.09,2.74-.26,5.47-.4,8.2-.07,1.35-.11,2.71-.14,4.07-.13,5-.21,10.06-.16,15.08a3.76,3.76,0,0,1-.06,1.06c-.14.44-.4.23-.61.09a8.57,8.57,0,0,0-1.47-.91,3.25,3.25,0,0,0-1.44-.25c-.56,0-.7.31-.38.79a2.1,2.1,0,0,0,.52.51,27.5,27.5,0,0,0,2.95,2.08.83.83,0,0,1,.43.49c0,1.34.16,2.68.18,4a1.8,1.8,0,0,1-.05.46,4.63,4.63,0,0,0-.36,1.8,7.73,7.73,0,0,0,.48,3.3,2,2,0,0,1,.06.34c.13,2.65.25,5.3.39,7.94q.2,3.6.45,7.19c.21,3,.49,6,.85,9,.44,3.91,1,7.82,1.71,11.69a38.91,38.91,0,0,0,2,7.41,1,1,0,0,1,0,.48,21.28,21.28,0,0,0-.56,5.21,23.64,23.64,0,0,0,1.48,8.15,2.53,2.53,0,0,1,.22.9c.06,2.85,0,5.7,0,8.55a3.8,3.8,0,0,1-.08,1.06.63.63,0,0,1-.5.39,7.07,7.07,0,0,0-4.9,4.64,11.79,11.79,0,0,0,.93,11.19A6.07,6.07,0,0,0,57.23,225c.28.07.59.08.73.41a2.42,2.42,0,0,1,.09.85v11.12a3,3,0,0,1-.07.79.57.57,0,0,1-.13.21,1.63,1.63,0,0,1-1,.16H51.07a11.85,11.85,0,0,0-7,2.08C43.87,240.78,43.68,241,43.41,240.91Z"/><path class="cls-3" d="M202,54.6V92.19c-.33,0-.47-.31-.73-.43a4.56,4.56,0,0,0-3.25-.13,1.06,1.06,0,0,0-.7,1.32,1.07,1.07,0,0,0,.93.75,13.68,13.68,0,0,0,2.56,0,1.16,1.16,0,0,0,.69-.38c.16-.15.26-.38.54-.35v15.26c-.34,0-.28-.31-.3-.5a13.32,13.32,0,0,0-7.19-9.9,11.7,11.7,0,0,0-5.3-1.46c-.46,0-.92-.13-1.39-.14a.54.54,0,0,1-.53-.35,27,27,0,0,1-.07-3.92V77.9a1.85,1.85,0,0,1,0-.47,1.66,1.66,0,0,1,.51-.85c.5-.63.47-.76-.24-1.1a.51.51,0,0,1-.22-.24,37.58,37.58,0,0,1-.07-4.11,4.82,4.82,0,0,1,0-.76c0-5.46,0-10.93,0-16.39a1.82,1.82,0,0,1,.08-.52.51.51,0,0,1,.15-.21,2,2,0,0,1,1-.14h7.39a13.38,13.38,0,0,0,5.13-.86,1.17,1.17,0,0,1,.58-.12,2.63,2.63,0,0,1,.4,1.81A3.5,3.5,0,0,0,202,54.6Z"/><path class="cls-3" d="M51.8,97.13a15.47,15.47,0,0,0-5,3.61,13,13,0,0,0-3.28,6.84.87.87,0,0,1-.1.24V93.25a5.64,5.64,0,0,0,3.16.5c.86,0,1.46-.46,1.51-1a1.39,1.39,0,0,0-1.41-1.25c-1-.06-2.12-.22-3,.56a.28.28,0,0,1-.25,0V54.52a5.2,5.2,0,0,1,.14-1.71.87.87,0,0,1,.65-.05,19.87,19.87,0,0,0,3.85.23h8.66a2.65,2.65,0,0,1,1,.1.37.37,0,0,1,.19.18,1.87,1.87,0,0,1,.11.78V65.76a2.16,2.16,0,0,1-.09.72c-2.29,2-2.63,4.82-3.23,7.5a108.2,108.2,0,0,0-2,13.16,28.45,28.45,0,0,1-.47,4c-.14.23-.37.24-.58.28a2.14,2.14,0,0,0-.75.25,1.13,1.13,0,0,0-.64,1c0,.49.36.73.75.93s.73,0,.95.4a8.59,8.59,0,0,1-.16,3Z"/><path class="cls-4" d="M43.41,240.91a11,11,0,0,1,5.86-2.44c2.84-.28,5.69-.06,8.55-.12.27.2.24.51.25.79v5.21a1.07,1.07,0,0,1-.22.81H47a8.55,8.55,0,0,1-1.71-.63A4,4,0,0,1,43.41,240.91Z"/><path class="cls-5" d="M57.82,49.8H72.43a.78.78,0,0,1,.18.55,8.15,8.15,0,0,1-.19,2.95,1.55,1.55,0,0,1-1,.18H58.79a1.24,1.24,0,0,1-.95-.22h0a4.78,4.78,0,0,1-.21-2.19A1.66,1.66,0,0,1,57.82,49.8Z"/><path class="cls-5" d="M86.57,49.8h14.61a.74.74,0,0,1,.18.55,8.15,8.15,0,0,1-.19,2.95,1.5,1.5,0,0,1-1,.18H87.55a1.52,1.52,0,0,1-1-.17.89.89,0,0,1-.22-.62V50.36A.87.87,0,0,1,86.57,49.8Z"/><path class="cls-5" d="M115.32,49.8h14.62a.73.73,0,0,1,.17.55,8.14,8.14,0,0,1-.18,2.95,1.53,1.53,0,0,1-1,.18H116.31a1.52,1.52,0,0,1-1-.17.89.89,0,0,1-.22-.62V50.36A.92.92,0,0,1,115.32,49.8Z"/><path class="cls-5" d="M144.21,49.8h14.48a.74.74,0,0,1,.18.55,8.15,8.15,0,0,1-.19,2.95,1.53,1.53,0,0,1-1,.18H145.2a1.62,1.62,0,0,1-1-.17.85.85,0,0,1-.2-.62V50.36A.75.75,0,0,1,144.21,49.8Z"/><path class="cls-5" d="M173,49.8h14.47a.73.73,0,0,1,.15.57,8.56,8.56,0,0,1-.18,2.94h0a1.19,1.19,0,0,1-.86.22H173.82a1.41,1.41,0,0,1-.85-.18.87.87,0,0,1-.21-.62V50.4A.78.78,0,0,1,173,49.8Z"/><path class="cls-6" d="M144.21,49.8v3.47l-.09.09a1.53,1.53,0,0,1-.79.12H130.76a2,2,0,0,1-.65-.06.51.51,0,0,1-.23-.15l.06-3.47Z"/><path class="cls-6" d="M173,49.8v3.47l-.1.09a1.48,1.48,0,0,1-.78.12H159.52a2.09,2.09,0,0,1-.66-.06.48.48,0,0,1-.22-.15l.05-3.47Z"/><path class="cls-7" d="M86.57,49.8l.05,3.47-.1.09a1.49,1.49,0,0,1-.78.12H73.26a2.06,2.06,0,0,1-.66-.06.44.44,0,0,1-.22-.15l.05-3.47Z"/><path class="cls-6" d="M115.32,49.8l.05,3.47-.1.09a1.48,1.48,0,0,1-.78.12H102a2.11,2.11,0,0,1-.66-.06.54.54,0,0,1-.22-.15l.05-3.47Z"/><path class="cls-6" d="M57.82,49.8v3.48H46a8.68,8.68,0,0,1-2.48-.39,3.8,3.8,0,0,1,3.83-3.1Z"/><path class="cls-6" d="M187.44,53.28V49.8h11a3.6,3.6,0,0,1,3.2,2.28,7.18,7.18,0,0,1-3.37,1.06c-3.07.34-6.17.08-9.25.15C188.44,53.28,188,53.27,187.44,53.28Z"/><path class="cls-8" d="M43.41,92.05c1.14-1.17,2.56-.9,3.91-.61a1.28,1.28,0,0,1,1,1.26,1.36,1.36,0,0,1-1.24,1.2,22,22,0,0,1-2.57,0,2,2,0,0,1-1.13-.66Z"/><path class="cls-2" d="M187.44,96.07a14.17,14.17,0,0,1,11.17,4.75,12.56,12.56,0,0,1,3.27,7.15.94.94,0,0,0,.12.3v131.5a1.14,1.14,0,0,1-.86-.18,12.84,12.84,0,0,0-5.09-1h-7.61a2.38,2.38,0,0,1-1-.11.45.45,0,0,1-.16-.2,2.56,2.56,0,0,1-.1-1V199.86a4.64,4.64,0,0,1,.69-1.71,24,24,0,0,0,2.49-8.89,23.72,23.72,0,0,0-1.52-10.64,29.22,29.22,0,0,0-1.26-2.8,2.25,2.25,0,0,1-.34-1c-.08-3,0-6,0-9a1.94,1.94,0,0,1,.06-.59c.07-.15.15-.29.35-.14a1.45,1.45,0,0,1,.28.36c.1.14.19.34.4.29s.26-.29.26-.49a8,8,0,0,0-.11-2.18,10.63,10.63,0,0,0-.85-2.17,2.93,2.93,0,0,1-.39-1c-.07-3.07,0-6.14,0-9.22a1.76,1.76,0,0,1,.06-.46.82.82,0,0,1,.6-.48,5.05,5.05,0,0,0,2.69-2.21,8.22,8.22,0,0,0,1.06-6.9,4.66,4.66,0,0,0-.69-1.44c-.15-.22-.43-.47-.26-.76s.52-.17.8-.19h.67a5.42,5.42,0,0,0,4.67-2.42,11.53,11.53,0,0,0,2.06-6.05,4.52,4.52,0,0,0-.35-2,2.8,2.8,0,0,0-2.28-1.62c-1.45-.19-1.95-.72-2.2-2.15a2.69,2.69,0,0,0-2.78-2.36,8.42,8.42,0,0,0-3.16.33c-.28.1-.61.27-.82-.14a3,3,0,0,1-.08-.94V97.18a2.06,2.06,0,0,1,.13-1A.46.46,0,0,0,187.44,96.07Z"/><path class="cls-9" d="M101.17,245.19H86.58a1.2,1.2,0,0,1-.21-.82v-5.19a1.24,1.24,0,0,1,.2-.86,1.39,1.39,0,0,1,1-.2H100.2a1.53,1.53,0,0,1,1,.18,1.1,1.1,0,0,1,.22.76v5.34A1.12,1.12,0,0,1,101.17,245.19Z"/><path class="cls-9" d="M129.93,245.19h-14.6a1.14,1.14,0,0,1-.2-.82v-5.19a1.19,1.19,0,0,1,.19-.86,1.42,1.42,0,0,1,1-.2H129a1.55,1.55,0,0,1,1,.18,1.09,1.09,0,0,1,.21.76v5.34A1.07,1.07,0,0,1,129.93,245.19Z"/><path class="cls-9" d="M57.82,245.19v-6.84h.06a1.12,1.12,0,0,1,.86-.22H71.56a1.37,1.37,0,0,1,.86.19,1.13,1.13,0,0,1,.21.86v5.2a1.15,1.15,0,0,1-.21.86Z"/><path class="cls-9" d="M158.68,245.19H144.22a1.2,1.2,0,0,1-.21-.82v-5.19a1.19,1.19,0,0,1,.19-.86,1.38,1.38,0,0,1,1-.2H157.7a1.53,1.53,0,0,1,1,.18,1.16,1.16,0,0,1,.22.86v5.21A1.15,1.15,0,0,1,158.68,245.19Z"/><path class="cls-9" d="M187.43,245.19H173a1.1,1.1,0,0,1-.21-.82v-5.19a1.24,1.24,0,0,1,.19-.86,1.27,1.27,0,0,1,.85-.2h12.68a1.08,1.08,0,0,1,.85.21h.06a1.27,1.27,0,0,1,.18.85v5.13A1.23,1.23,0,0,1,187.43,245.19Z"/><path class="cls-4" d="M173,238.36v6.84H158.68v-6.84l.1-.08a1.94,1.94,0,0,1,1-.13h12.18a1.92,1.92,0,0,1,1,.13Z"/><path class="cls-4" d="M144.24,238.36v6.84H129.93v-6.84l.1-.08a1.9,1.9,0,0,1,1-.13h12.13a1.94,1.94,0,0,1,1,.13Z"/><path class="cls-4" d="M72.41,245.19v-6.84l.1-.09a2.05,2.05,0,0,1,1-.13h12a2.05,2.05,0,0,1,1,.13l.1.09v6.84Z"/><path class="cls-4" d="M115.36,238.36v6.84H101.17v-6.84l.11-.08a1.88,1.88,0,0,1,1-.13h12a1.94,1.94,0,0,1,1,.13Z"/><path class="cls-4" d="M187.43,245.19v-6.84h9.45a10.86,10.86,0,0,1,5.08,1.32,10.61,10.61,0,0,1-.06,2.39,3.94,3.94,0,0,1-4,3.08C194.43,245.21,190.91,245.19,187.43,245.19Z"/><path class="cls-8" d="M202,93a1.84,1.84,0,0,1-1.89,1,11.85,11.85,0,0,0-1.46,0c-.91,0-1.51-.41-1.6-1.07a1.32,1.32,0,0,1,1.07-1.52h.16a5.17,5.17,0,0,1,2.81.13,1.86,1.86,0,0,1,.91.73Z"/><path class="cls-10" d="M187.41,175a40.52,40.52,0,0,1,2.23,5.37,24.16,24.16,0,0,1,1,5.72,24.86,24.86,0,0,1-3,13.24,2.32,2.32,0,0,0-.16.44,19.51,19.51,0,0,1-2.71,4.19,44.4,44.4,0,0,1-9.71,8.9c-.66.46-1.33.86-2,1.34a69.62,69.62,0,0,1-13.34,6.54c-.36.14-.72.26-1.06.41a96.92,96.92,0,0,1-14.47,3.9,107.61,107.61,0,0,1-11.56,1.54,24.7,24.7,0,0,0-2.73.21c-3.15.13-6.3.29-9.46.15-1.66-.08-3.32-.08-5-.26a113.06,113.06,0,0,1-14.2-1.86A100.52,100.52,0,0,1,90.58,222c-1.35-.45-2.7-.9-4-1.44-2.56-1-5-2.09-7.48-3.33a67.59,67.59,0,0,1-6.73-3.94A50.61,50.61,0,0,1,64.79,207a33.63,33.63,0,0,1-6.69-9.67c-.14-.3-.14-.65-.28-1a39.3,39.3,0,0,1-1.13-3.84c-.26-1.25-.38-2.52-.53-3.78a22.6,22.6,0,0,1,.06-3.49,10.8,10.8,0,0,1,.51-3.08c.28,0,.37.2.5.37a5.91,5.91,0,0,0,.41.61c.7.78,1.36.76,2-.11a9.09,9.09,0,0,0,1.1-2.49,55.91,55.91,0,0,0,1.71-8.88c.06-.43.13-.85.16-1.31a1.16,1.16,0,0,1,.15-.38A30.32,30.32,0,0,1,66,166.47a50,50,0,0,1,6.28-5,68.78,68.78,0,0,1,14.2-7.29A91.81,91.81,0,0,1,101.23,150a102.88,102.88,0,0,1,12.83-1.81,8.4,8.4,0,0,1,1.32-.11,114.07,114.07,0,0,1,14.44-.13,126.49,126.49,0,0,1,13.45,1.59l.86.16A105.35,105.35,0,0,1,156.86,153c.59.19,1.16.44,1.75.64A78.6,78.6,0,0,1,168.69,158c1.48.77,2.92,1.62,4.34,2.5a56,56,0,0,1,7.55,5.82,37.41,37.41,0,0,1,6.33,7.64A7.3,7.3,0,0,1,187.41,175Z"/><path class="cls-11" d="M57.85,196.37c.5,1,1,2,1.5,3a33.83,33.83,0,0,0,4.48,6.28,50.29,50.29,0,0,0,8.6,7.42,1.77,1.77,0,0,1,.2,1v23.35a1.34,1.34,0,0,1-.2,1H57.89v-13.1l.07-.07a.76.76,0,0,1,.39-.1,5.85,5.85,0,0,0,4.95-2.9,10.76,10.76,0,0,0,1.82-5.65A12,12,0,0,0,63.78,210a6.89,6.89,0,0,0-3.33-3.15,7.44,7.44,0,0,0-2.47-.45.3.3,0,0,1-.17-.12v-9C57.83,197,57.84,196.69,57.85,196.37Z"/><path class="cls-12" d="M51,126c0-3.62-.05-7.26,0-10.89,0-2,0-4,.13-5.93.1-2.17.16-4.35.27-6.51.07-1.66.22-3.32.25-5a3,3,0,0,1,.11-.58h0a1.24,1.24,0,0,1,.61-.39,16.12,16.12,0,0,1,4.71-.86.8.8,0,0,1,.78.27,2.39,2.39,0,0,1,.12,1V127.2a3.52,3.52,0,0,1,0,.86c-.15.46-.58.44-.93.51a8.93,8.93,0,0,0-3.64,1.59,7.28,7.28,0,0,0-1.78,2.05c-.12.2-.18.48-.48.5a40.72,40.72,0,0,1-.15-4.28c.86-.17.92-.4.56-1.21C51.39,126.83,51,126.53,51,126Z"/><path class="cls-13" d="M51.16,132.72a8.05,8.05,0,0,1,6.67-4.43c.63-.36,1.31-.13,2-.19a3.57,3.57,0,0,1,.8,0c.51,0,.71-.41,1-.71a11.06,11.06,0,0,1,2.57-2c.26-.16.59-.43.8.09a4.77,4.77,0,0,1,.06,1.07c0,3.92.1,7.83,0,11.75-.1,2.75,0,5.51-.31,8.26a.79.79,0,0,1-.52.47,4.09,4.09,0,0,1-5.26-2.39l0-.09a3.87,3.87,0,0,1,0-1.79c.13-.85.13-.85-.68-1.11a1.12,1.12,0,0,1-.85-1.24c.1-.94-.13-1.29-1.07-1.5a8.3,8.3,0,0,1-2.71-1.09,6.94,6.94,0,0,1-2.48-2.73.59.59,0,0,1,0-.23,5.81,5.81,0,0,1,.15-1.76Z"/><path class="cls-12" d="M56.77,181.8a16.8,16.8,0,0,1-1.44-4.38,84.38,84.38,0,0,1-1.66-9.06c-.36-2.56-.69-5.19-.93-7.81-.2-2-.39-4-.54-6s-.3-3.83-.4-5.75c-.1-1.71-.2-3.42-.28-5.13s-.25-3.49-.22-5.23a.25.25,0,0,1,.27.13,9.25,9.25,0,0,0,1.83,2.2c.29.25.15.47,0,.69a2.57,2.57,0,0,0-.58,1.86A1.77,1.77,0,0,0,54.37,145a.76.76,0,0,1,.76.74,5,5,0,0,0,2.37,3.54A1,1,0,0,1,58,150c.06,2.06.07,4.11,0,6.16-.09.37-.4.5-.7.67a5.5,5.5,0,0,0-2,1.71c-.18.29-.52.63-.24.95s.68.09,1,0,.86-.42,1.33-.64c.23-.12.46-.22.57.16a4.17,4.17,0,0,1,.06,1v18.11a6.86,6.86,0,0,1-.53,1.83c-.12.42-.26.85-.37,1.26S57,181.71,56.77,181.8Z"/><path class="cls-12" d="M57.81,225.26a5.06,5.06,0,0,1-3.06-1.32,10,10,0,0,1-3.22-6.71,12.1,12.1,0,0,1,1.08-6.71,7.21,7.21,0,0,1,4.73-4.23,2.5,2.5,0,0,1,.47,0h.06a1.43,1.43,0,0,1,.18.86v17.2a1.41,1.41,0,0,1-.18.9Z"/><path class="cls-14" d="M57.84,149.84a6,6,0,0,1-2.5-2.57,3,3,0,0,1-.26-.68,1.47,1.47,0,0,0-1.22-1.47c-1.41-.38-1.71-2.4-.68-3.62.31-.38.21-.5-.08-.74a8.47,8.47,0,0,1-1.8-2.32v-.27a17.1,17.1,0,0,1-.3-2,1.14,1.14,0,0,1,.19-1.07,8.21,8.21,0,0,0,2.86,2.82,7.88,7.88,0,0,0,2.05.75,3.34,3.34,0,0,1,1,.39c.54.29.78.54.47,1.19s.17,1.16.86,1.27.85.16.68,1a3.72,3.72,0,0,0,3.77,4.66,7.11,7.11,0,0,0,1.71-.41l.09.08a3.5,3.5,0,0,1,.08,1.61.93.93,0,0,1-.2.41A6.21,6.21,0,0,1,59,150.41,1.94,1.94,0,0,1,57.84,149.84Z"/><path class="cls-15" d="M56.77,181.8l1.1-3.49a21.39,21.39,0,0,1,3.06-5.88,15.84,15.84,0,0,1,1.36-1.81c.13-.15.23-.4.52-.32a41.15,41.15,0,0,1-.7,5.17,31.67,31.67,0,0,1-1.55,6.15,7.26,7.26,0,0,1-.69,1.43c-.78,1.2-1.8,1.18-2.57,0a4.42,4.42,0,0,0-.55-.85Z"/><path class="cls-16" d="M51,126a6.51,6.51,0,0,1,.86,1.46,1,1,0,0,1,0,.93c-.22.3-.56.15-.86,0a24.64,24.64,0,0,1-3.59-2.48,1.53,1.53,0,0,1-.4-.44c-.37-.59-.15-.94.53-1A5.14,5.14,0,0,1,51,126Z"/><path class="cls-17" d="M51.15,135.11c-.12,1,.25,2,.12,3.09a6.21,6.21,0,0,1-.48-3.35c.19-.15.28,0,.36.14Z"/><path class="cls-18" d="M51.13,135l-.34-.17a3.06,3.06,0,0,1,.36-1.71Z"/><path class="cls-19" d="M173.05,53.27h14.37v17.1a12.83,12.83,0,0,0-6.76,3.37c-.29.24-.72.62-.51,1s.75.16,1.11,0a15.74,15.74,0,0,0,5.68-3.42c.14-.13.23-.34.48-.29v4.28c-.17.25-.44.28-.69.37-1.15.39-2.31.76-3.46,1.17-.36.12-.85.24-.79.75s.59.46,1,.49a5.33,5.33,0,0,0,3.37-.76.59.59,0,0,1,.56-.12V96.07h0a1.14,1.14,0,0,1-.86.23H175.17a1.57,1.57,0,0,1-.77-.13,3.6,3.6,0,0,1-.24-2.17c.21-.28.51-.24.79-.24h2.15a2,2,0,0,0,.72-.09,1.16,1.16,0,0,0,.86-1,1,1,0,0,0-.72-.94,3.2,3.2,0,0,0-1.3-.24,13.7,13.7,0,0,1-2.56-.08c-.33-.39.09-.51.28-.64a2.46,2.46,0,0,0,1.05-2.29,2.22,2.22,0,0,0-.5-1.21c-.86-.79-.86-.79-.36-1.94a5.18,5.18,0,0,0,.36-3.29,3.87,3.87,0,0,0-1.53-2.42c-.27-.2-.55-.39-.59-.76a6.7,6.7,0,0,1-.05-1V54.49a1.88,1.88,0,0,1,.2-1.23Z"/><path class="cls-8" d="M192.09,93.93h-1.6c-.92,0-1.52-.41-1.59-1.09A1.32,1.32,0,0,1,190,91.32l.19,0a13,13,0,0,1,3.78.07c.85.19,1.29.71,1.2,1.39a1.56,1.56,0,0,1-1.56,1.17Z"/><path class="cls-16" d="M187.41,71.06A14.4,14.4,0,0,1,181,75c-.39.14-.92.29-1.16-.08s.21-.79.46-1.06a10.65,10.65,0,0,1,2.77-2.08,12.45,12.45,0,0,1,3.42-1.45,1.1,1.1,0,0,1,.85.08Z"/><path class="cls-16" d="M187.41,77.21a5.8,5.8,0,0,1-4,1.07h-.33c-.31-.15-.77-.14-.86-.6s.28-.72.66-.85c1.5-.54,3-1.09,4.55-1.51h.46c.48,0,.55.27.42.66A4.72,4.72,0,0,1,187.41,77.21Z"/><path class="cls-19" d="M57.84,53.26h14.6a1.15,1.15,0,0,1,.18.76v18.6a1,1,0,0,1-.08.45,3.05,3.05,0,0,0,0,2.64,1.77,1.77,0,0,1,.08.4,3.53,3.53,0,0,1,0,.65c-.15.39-.52.55-.86.76A7,7,0,0,0,69.5,80.3a5.59,5.59,0,0,0-.36,3,1.82,1.82,0,0,0,1.48,1.53c.22.07.44.08.65.15a.33.33,0,0,1,.19.52A2.58,2.58,0,0,1,71,86a7.71,7.71,0,0,0-2.25,4.28c-.11.29,0,.6-.16.89a.28.28,0,0,1-.13.15,7.8,7.8,0,0,0-1.08.29,1.09,1.09,0,0,0-.7,1.15c0,.56.44.77.9.92s.79,0,1.18.1a.4.4,0,0,1,.18.1c.29.56.5,1.14.86,1.71.12.2.25.46-.09.62a45.17,45.17,0,0,1-5.7,0,.72.72,0,0,1-.21-.12,3.8,3.8,0,0,1-.22-2.16,1.23,1.23,0,0,1,.42-.51c.6-.57.57-1.07-.06-1.61-.21-.18-.51-.28-.62-.58-.29-1.91-.38-3.84-.59-5.77-.39-3.51-.86-7-1.48-10.5a1.76,1.76,0,0,1-.05-1c.27-.32.48,0,.68.09a4.7,4.7,0,0,0,2.87.7,2.57,2.57,0,0,0,1.26-.4c.44-.3.41-.62-.06-.86a2.91,2.91,0,0,0-.5-.16c-1-.23-2.11-.42-3.15-.64a4.63,4.63,0,0,0-1.39,0,11.28,11.28,0,0,1-.75-2.28,14.74,14.74,0,0,0-.77-2,3.18,3.18,0,0,0-1.57-1.66l0-.1V55.17C57.83,54.55,57.84,53.9,57.84,53.26Z"/><path class="cls-20" d="M57.81,96.06a17.48,17.48,0,0,0-6,1.08c-.14-1.08.21-2.14.1-3.21l.08-.08a11.63,11.63,0,0,1,2.57-.11,2.06,2.06,0,0,0,1.14-.28.91.91,0,0,0,.38-1.24,1,1,0,0,0-.29-.33,2.16,2.16,0,0,0-1.4-.48,8,8,0,0,1-2.13-.11l-.06-.08c.17-1.75.38-3.5.52-5.26.14-2,.42-3.91.7-5.84a56.14,56.14,0,0,1,2.42-10.94,10.46,10.46,0,0,1,1-1.81,1.42,1.42,0,0,1,1-.75h.06a1.41,1.41,0,0,1,.18.85V95.06a1.68,1.68,0,0,1-.14.86Z"/><path class="cls-8" d="M51.93,93.93a2.55,2.55,0,0,1-.78-.07c-.55-.24-1-.54-1-1.22a1.6,1.6,0,0,1,1.51-1.38q.3,0,.6,0h0A3.76,3.76,0,0,1,52,93.92Z"/><path class="cls-19" d="M86.62,53.27h14.61a1.3,1.3,0,0,1,.19.9V68.33a2,2,0,0,1-.08.72c-.23.37-.59.13-.86.19a15.8,15.8,0,0,0-4.12.28c-.35.09-.57,0-.54-.43.17-2.48-1.2-4.16-3-5.58a11.13,11.13,0,0,0-5.56-2.29c-.28,0-.6,0-.75-.32a3.82,3.82,0,0,1-.09-1.26v-5.4a1.49,1.49,0,0,1,.19-1Z"/><path class="cls-19" d="M115.37,53.27h14.54a1.36,1.36,0,0,1,.19.9V91.44a2.28,2.28,0,0,1-.08.73c-.14.29-.32.17-.45,0a2.31,2.31,0,0,0-2-.74h-2.14a1.87,1.87,0,0,0-1.19.35,1,1,0,0,0-.22,1.41.92.92,0,0,0,.35.3,1.87,1.87,0,0,0,.9.19H128a1.83,1.83,0,0,0,1.45-.54c.11-.13.25-.34.49-.15a7.7,7.7,0,0,1,0,3,.37.37,0,0,1-.19.18,2.56,2.56,0,0,1-1,.1H116.37a2.54,2.54,0,0,1-1-.1.41.41,0,0,1-.19-.18,2.09,2.09,0,0,1-.12-1V54.3a1.57,1.57,0,0,1,.19-1Z"/><path class="cls-19" d="M144.26,53.27H158.7a1.19,1.19,0,0,1,.19.76V73.12a1.4,1.4,0,0,1-.43.8,10.5,10.5,0,0,0-1.54,2.41c-.1.22-.18.51-.47.52s-.38-.26-.5-.47a6.94,6.94,0,0,0-3.49-3.16,5.16,5.16,0,0,0-2.36-.36,1.78,1.78,0,0,0-1.71,1.26,2,2,0,0,1-2.33,1.54,2.22,2.22,0,0,0-1.29.27c-.22.11-.5.28-.65-.13a3.72,3.72,0,0,1-.07-1V54.43a1.77,1.77,0,0,1,.2-1.17Z"/><path class="cls-3" d="M144.21,53.26V76c.06.24-.11.4-.2.59a6.8,6.8,0,0,0-.51,4.59,8.73,8.73,0,0,0,.67,2.29,1.94,1.94,0,0,1,.2.7c.07,2.11,0,4.22,0,6.34a1.62,1.62,0,0,1-.11.65c-.19.29-.49.27-.78.28h-1.71a2.57,2.57,0,0,0-.86.16,1.05,1.05,0,0,0,.22,2.08,16.83,16.83,0,0,0,2.13,0,1.28,1.28,0,0,1,1,.21,3.51,3.51,0,0,1,.06,2.08.54.54,0,0,1-.2.17,2.5,2.5,0,0,1-.86.09h-12.3a1.32,1.32,0,0,1-1-.21V93a.5.5,0,0,1,0-.68V53.26Z"/><path class="cls-3" d="M158.69,73.32V53.26H173V79.08a.36.36,0,0,1-.37.1,4.38,4.38,0,0,0-2.3.09c-.38.12-.53-.13-.54-.47V77.09a4.71,4.71,0,0,0-.76-2.52,3.74,3.74,0,0,0-2.76-1.71,1.63,1.63,0,0,1-1.32-.77,2,2,0,0,0-2.39-.86,7.54,7.54,0,0,0-2.75,1.43C159.42,72.94,159.17,73.32,158.69,73.32Z"/><path class="cls-3" d="M86.56,53.26V61c-.25.27-.57.19-.85.19a10,10,0,0,0-8.42,4.44,10.7,10.7,0,0,0-2.05,5.71c0,.37-.14.68-.57.66a2.46,2.46,0,0,0-1.94.71.32.32,0,0,1-.32.07V53.26Z"/><path class="cls-3" d="M115.31,53.26V96.07a.67.67,0,0,1-.54.19c-1.6,0-3.2.07-4.79,0-.46-.14-.3-.37,0-.53A13.36,13.36,0,0,0,112,94l.16-.1.25-.09c1-.37,1.16-.79.69-2v-.2a7.44,7.44,0,0,0,.08-2.86,1.88,1.88,0,0,1,.48-1.6,4.72,4.72,0,0,0,.65-4.79,5.69,5.69,0,0,0-3.55-3.18c-.69-.28-1.45-.36-2.14-.66a1.2,1.2,0,0,1-.12-.79,8.17,8.17,0,0,0-6.44-8.18c-.32-.07-.67,0-.93-.32V53.26Z"/><path class="cls-21" d="M187.44,122a9.42,9.42,0,0,1,3.83-.53,3.4,3.4,0,0,1,2.63,1.34,2,2,0,0,1,.32,1.19c.14,1.34.66,1.81,2.17,2a2.65,2.65,0,0,1,2.28,1.71,6.63,6.63,0,0,1-1.47,3,10.28,10.28,0,0,1-8.33,4.28,9.78,9.78,0,0,1-3.91-.81l-.42-.18a.49.49,0,0,0-.51,0c-.15.12-.09.33,0,.49l.36.86a12.21,12.21,0,0,1,.86,5.64,1.84,1.84,0,0,1-2.89,1.5,5.27,5.27,0,0,1-1.51-1.39c-.14-.19-.3-.45-.58-.35s-.21.41-.21.64c-.05,1.31-.29,1.63-1.41,1.88a1.35,1.35,0,0,1-1.51-.59A8.09,8.09,0,0,1,176,140a.6.6,0,0,0-.07-.34c-.07-.11,0-.56-.36-.56s-.29.34-.33.56a9.33,9.33,0,0,1-3.35,5.63,5.28,5.28,0,0,1-8.5-4.14,17.33,17.33,0,0,1,1.38-6.63,4.35,4.35,0,0,0,.29-.86c0-.14,0-.28-.11-.35a.3.3,0,0,0-.36.1c-.2.19-.32.43-.52.62a3,3,0,0,1-3.11.85,2.82,2.82,0,0,1-2.14-2.14.36.36,0,0,1,.24-.3c.71-.24.62-.7.46-1.27a7.25,7.25,0,0,1,.16-4.6,4.73,4.73,0,0,1,5.7-2.83,3.46,3.46,0,0,1,1.23.68,10.28,10.28,0,0,1,.91-3.78,5,5,0,0,1,5.37-3.1,1.31,1.31,0,0,0,1.36-.53,2.73,2.73,0,0,1,3.54-.49,10.78,10.78,0,0,1,4.41,4.44,12.7,12.7,0,0,1,1.39,3.82c.56-.46,1-1,1.45-1.41A5.29,5.29,0,0,1,187.44,122Z"/><path class="cls-11" d="M173,214a65.48,65.48,0,0,0,5.5-4,45.71,45.71,0,0,0,5.13-5,37,37,0,0,0,3.72-5.23.32.32,0,0,1,.11-.06v38.63H173a1.23,1.23,0,0,1-.22-.85V214.94A1.69,1.69,0,0,1,173,214Z"/><path class="cls-22" d="M158.79,132.83a3.42,3.42,0,0,0,2.28,2,3.16,3.16,0,0,0,3.06-1.17l.13-.22c.17-.31.42-.51.76-.31s.24.51.12.78a24.67,24.67,0,0,0-1.14,3.33,10.54,10.54,0,0,0-.39,4.86,4.88,4.88,0,0,0,4.17,4.08c2.32.41,4-.72,5.32-2.42a8.61,8.61,0,0,0,1.9-4.47.42.42,0,0,1,.47-.46c.33,0,.4.16.46.44a8.77,8.77,0,0,0,1.18,3.16,1.28,1.28,0,0,0,1.66.65c.92-.3,1-.46,1-1.43,0-.4-.29-1,.31-1.16s.68.45,1,.76c.56.57,1.06,1.25,2,1.34A1.56,1.56,0,0,0,185,141a12.3,12.3,0,0,0-1.18-6.4c-.12-.27-.25-.52,0-.8s.55-.08.78,0a9.8,9.8,0,0,0,4.58,1,10.27,10.27,0,0,0,6.21-2.4,12.37,12.37,0,0,0,3.27-4.68,5.11,5.11,0,0,1,.22,3.49,11.07,11.07,0,0,1-1.91,4.68,5.57,5.57,0,0,1-4.71,2.57h-1.64a6.53,6.53,0,0,1,1.39,3.17,8.32,8.32,0,0,1-1.77,6.65,5,5,0,0,1-2.83,1.83.54.54,0,0,1-.36.14c-.76-.12-1.12.27-1.5.9a4.52,4.52,0,0,1-4.4,2.1,7.32,7.32,0,0,1-4.41-2c-.86-.73-.86-.73-1.61.08A8.09,8.09,0,0,1,173,153a7.39,7.39,0,0,1-5.64.57,19.39,19.39,0,0,1-8.3-4.79,7,7,0,0,1-.56-.66,6.72,6.72,0,0,1,0-8.18c.34-.45.8-.79,1.2-1.29a5.66,5.66,0,0,1-1.2-.85,3.42,3.42,0,0,1-1-3.42,2.32,2.32,0,0,1,1.11-1.59A.19.19,0,0,1,158.79,132.83Z"/><path class="cls-11" d="M187.44,122a10.6,10.6,0,0,0-3.7,3,.28.28,0,0,1-.21.1c-.12,0-.1-.14-.11-.21a11.67,11.67,0,0,0-3.87-7,5.57,5.57,0,0,0-3.18-1.64,1.77,1.77,0,0,0-1.58.48,3.75,3.75,0,0,1-1,.86c-.26.14-.54.34-.85.11a1,1,0,0,1-.21-.75V99.1a1,1,0,0,1,.13-.5,6.75,6.75,0,0,0,1.18-2.33.31.31,0,0,1,.25-.2h13.06v5.81Q187.45,111.93,187.44,122Z"/><path class="cls-11" d="M173,152.91a8.25,8.25,0,0,0,2.64-2.45c.17-.26.27-.21.45,0a13.43,13.43,0,0,0,2.56,1.93c2.39,1.36,6,1,7.17-2a.36.36,0,0,1,.42-.28h1.21v10c-.35,0-.45-.32-.6-.54a5.75,5.75,0,0,0-2-1.83c-.21-.11-.44-.32-.67-.12s-.06.46,0,.68c.42.93,1,1.78,1.49,2.68.66,1.16,1.18,2.38,1.75,3.59a.45.45,0,0,1,0,.5V175c-.53-.81-1-1.62-1.6-2.41a36.68,36.68,0,0,0-3-3.72,49.57,49.57,0,0,0-9.83-8.15,1.55,1.55,0,0,1-.22-1V153.9A2,2,0,0,1,173,152.91Z"/><path class="cls-16" d="M187.45,165.08a43.65,43.65,0,0,0-3-5.82,6.4,6.4,0,0,1-.59-1.24c-.07-.22-.15-.44,0-.61s.4-.08.62,0a6.08,6.08,0,0,1,2.74,2.57c0,.05.08.09.12.13a8.49,8.49,0,0,1,1.36,5c0,.37.06.86-.4.95s-.56-.39-.74-.68Z"/><path class="cls-16" d="M188.84,156.39a3.33,3.33,0,0,1,3.22,2.72.85.85,0,0,1-.23.8.57.57,0,0,1-.74,0c-1.07-.75-2.13-1.51-3.17-2.29a.71.71,0,0,1-.19-.81.65.65,0,0,1,.64-.38A2.42,2.42,0,0,1,188.84,156.39Z"/><path class="cls-16" d="M197,145.68a1.72,1.72,0,0,1-1.71-.92.75.75,0,0,1,.31-1,.44.44,0,0,1,.16-.06,1.93,1.93,0,0,1,2,.31,1,1,0,0,1,.27,1.16C197.92,145.65,197.44,145.71,197,145.68Z"/><path class="cls-11" d="M86.59,220.33a99.44,99.44,0,0,0,11.48,3.52,27.6,27.6,0,0,1,3.11.75,1.22,1.22,0,0,1,.2.85v12a1.31,1.31,0,0,1-.21.86H86.58a1.31,1.31,0,0,1-.22-.86V221.18A1.13,1.13,0,0,1,86.59,220.33Z"/><path class="cls-11" d="M115.34,226.5c1.61.13,3.22.14,4.84.23a61.14,61.14,0,0,0,6.35,0c1.13-.06,2.26-.06,3.42-.08a1.13,1.13,0,0,1,.22.85v10a1.32,1.32,0,0,1-.21.86H115.33a1.26,1.26,0,0,1-.2-.86V227.37A1.17,1.17,0,0,1,115.34,226.5Z"/><path class="cls-11" d="M144.21,224.86l3.42-.75a96,96,0,0,0,10.66-3.05,2.7,2.7,0,0,1,.39-.08,1,1,0,0,1,.23.8v15.76a1.24,1.24,0,0,1-.2.86H144.22a1.25,1.25,0,0,1-.21-.86V225.75A1.22,1.22,0,0,1,144.21,224.86Z"/><path class="cls-2" d="M158.68,238.37V221c1-.55,2.2-.85,3.29-1.32a73,73,0,0,0,9.89-4.95L173,214v24.34Z"/><path class="cls-2" d="M144.21,224.86v13.51H129.93V226.62a1,1,0,0,1,.7-.16c2.32-.08,4.63-.36,7-.63S142,225.15,144.21,224.86Z"/><path class="cls-2" d="M86.59,220.33v18H72.42V213.1a69.14,69.14,0,0,0,8.94,5C83.08,218.89,84.84,219.59,86.59,220.33Z"/><path class="cls-2" d="M115.34,226.5v11.9H101.17V224.62c1.17.19,2.35.36,3.51.57,1.81.31,3.63.6,5.47.77S113.61,226.3,115.34,226.5Z"/><path class="cls-11" d="M158.69,139.93c-.27.67-.76,1.21-1,1.92a6.49,6.49,0,0,0,1,6.25,3.93,3.93,0,0,1,.2,1.56v3.19a1.1,1.1,0,0,1-.24.85l-3.89-1.22a82.57,82.57,0,0,0-10.16-2.57l-.37-.13a1.71,1.71,0,0,1-.21-1.23V111.42a5.48,5.48,0,0,1,0-1.07c.07-.39.41-.54.68-.76.46-.38.42-.62-.11-.85-.22-.11-.48-.14-.55-.42a3.29,3.29,0,0,1-.07-.94V97.12a1.76,1.76,0,0,1,.19-1.1h0a1,1,0,0,1,.85-.21h3.68a7.09,7.09,0,0,1,1.43.28.63.63,0,0,1,.53.52c.66,2.69,3.57,3.17,5.67,2.32a14.63,14.63,0,0,0,1.43-.71c.74-.4.86-.33,1,.51.09,5.75,0,11.49,0,17.24v15.57a2.26,2.26,0,0,1-.2,1.23c-1.21,1.42-1.43,2.7-.75,4,.18.37.55.57.75.92A2.85,2.85,0,0,1,158.69,139.93Z"/><path class="cls-11" d="M101.18,150.09l-4.14,1a86.64,86.64,0,0,0-10.45,3.27,1.25,1.25,0,0,1-.22-1v-5.62a13.57,13.57,0,0,0,.54-3.47c0-1-.4-1.91-.54-2.88-.07-4.28,0-8.46,0-12.68a3.75,3.75,0,0,1,0-.67,1.29,1.29,0,0,0,0-1.58,6.63,6.63,0,0,1-.05-1V106.8a3.8,3.8,0,0,1,.08-1.06c.23-.49.61-.23.91-.13a8.29,8.29,0,0,0,5.3-.12,9.09,9.09,0,0,0,5.52-5.26c.38-1,.38-1,1.33-.7a3.66,3.66,0,0,0,1.19.07c.25,0,.51-.06.62.24a3.83,3.83,0,0,1,.07,1.07v48A1.75,1.75,0,0,1,101.18,150.09Z"/><path class="cls-2" d="M101.18,150.09V99.71c0-.25.26-.36.44-.48a2.85,2.85,0,0,0,1.26-2.37c0-.77.2-.86.86-.64a7.28,7.28,0,0,0,5.08,0c.27-.1.54-.33.85-.13h5.61a.93.93,0,0,1,.19.62c0,4.54,0,9.06,0,13.58a.94.94,0,0,1-.56.69,5,5,0,0,0-2.18,2.61,1.2,1.2,0,0,1-.57.7,2.22,2.22,0,0,0-1.24,2.5,1.17,1.17,0,0,1-.56,1.22,6.85,6.85,0,0,0-2.42,3.18,5.12,5.12,0,0,0,4.81,6.84c.7,0,.85.15.85.86a2.57,2.57,0,0,0,1.44,2.56.87.87,0,0,1,.45.56c.08,2.84.05,5.68,0,8.55a2.2,2.2,0,0,1-.15.71,2.4,2.4,0,0,0,.12,2.12c.12,1.46,0,2.92,0,4.39a.73.73,0,0,1-.2.54c-2,.21-4,.4-6,.63-2.64.29-5.25.75-7.86,1.25A1.18,1.18,0,0,1,101.18,150.09Z"/><path class="cls-2" d="M144.21,96.06v12.45c-.23.26-.53.17-.81.19a5,5,0,0,0-3.62,2c-.24.33-.63.75-.3,1.12s.75,0,1.1-.12c.85-.4,1.67-.86,2.51-1.23.35-.17.69-.44,1.12-.3v39.69c-1.24-.19-2.47-.39-3.71-.56-1.58-.22-3.17-.44-4.76-.62-1.94-.21-3.89-.37-5.84-.56a1,1,0,0,1-.21-.85V132.61a3,3,0,0,1,.05-.6c.12-.39.31-.32.49,0s.39.65.6,1a5,5,0,0,0,1.18,1.24,2.31,2.31,0,0,0,2.47.23,2.42,2.42,0,0,0,1.25-2.2,3.83,3.83,0,0,0-1-2.19c-.16-.19-.39-.36-.36-.67s.35-.25.55-.33a6.93,6.93,0,0,0,4.53-6,9.76,9.76,0,0,0-4-9.3,4.75,4.75,0,0,0-4.37-.85c-.3,0-.59-.07-.58-.4a12.06,12.06,0,0,0-.86-3.6c-.08-4,0-8.07,0-12.1a1.08,1.08,0,0,1,.2-.76h0Z"/><path class="cls-23" d="M173.35,198c.14-1.5.23-2.87.32-4.28.11-1.76.16-3.53.28-5.29.1-1.32,0-2.62.11-3.92.27-3.36.05-6.72.12-10.08,0-.59.18-1.07.81-1.2a1.25,1.25,0,0,1,1.53.81,3.05,3.05,0,0,1,.21,1c0,1.36.09,2.72,0,4.08-.16,1.75,0,3.5-.12,5.25-.13,2.12-.2,4.28-.28,6.37-.06,1.5-.15,3-.26,4.5a60.14,60.14,0,0,1-.67,6.29c-.16.86-.55,1.14-1.71,1.22s-1.18-.05-1.52-1.05c-.48-1.41-.57-2.9-1-4.33-.81-2.51-1.65-5-2.57-7.47-.79-2.23-1.62-4.44-2.45-6.65-.62-1.64-1.25-3.26-2-4.87v21.08a2.13,2.13,0,0,0,.23,1.08,1.32,1.32,0,0,1-.17,1.65,1.41,1.41,0,0,1-1.47.38,1.58,1.58,0,0,1-1-1.31,14.18,14.18,0,0,1-.14-3v-9c0-1-.14-2-.15-3.06,0-1.89.11-3.78.18-5.66.05-1.37,0-2.75.1-4.12a4.85,4.85,0,0,1,.91-3c.61-.74,1.17-.85,1.91-.19a5,5,0,0,1,1.12,1.54,56.57,56.57,0,0,1,3.56,9.33c.94,3.08,1.79,6.18,2.67,9.27C172.36,194.94,172.75,196.44,173.35,198Z"/><path class="cls-11" d="M129.91,131.79V148c-2.74,0-5.46-.2-8.2-.11-2.13.07-4.28.16-6.38.25v-5a11.33,11.33,0,0,0,3.26-4.12,1.66,1.66,0,0,0,.12-.31c0-.23.14-.5-.08-.69a.61.61,0,0,0-.64,0,5,5,0,0,0-2.15,2c-.13.21-.16.52-.51.53v-8.81c.18-.19.41-.13.63-.1a4.46,4.46,0,0,0,2.42-.26.77.77,0,0,1,1,.26,6.08,6.08,0,0,0,5,2.57,6.46,6.46,0,0,0,4.86-2C129.45,132,129.57,131.72,129.91,131.79Z"/><path class="cls-23" d="M87.12,187.42c0-1.84-.08-3.12,0-4.38a33.87,33.87,0,0,1,.92-7.31,16.46,16.46,0,0,1,.6-1.71,2.34,2.34,0,0,1,2.86-1.66l.12,0a7.84,7.84,0,0,1,4.07,1.85,8.15,8.15,0,0,1,2,3.1,17.59,17.59,0,0,1,1.22,6.84c0,2.73.27,5.46.12,8.2a22.76,22.76,0,0,1-1.19,7.18A5.92,5.92,0,0,1,95.11,203a4.2,4.2,0,0,1-5.69-1.66l-.1-.19a16.87,16.87,0,0,1-1.71-5.49A49.3,49.3,0,0,1,87.12,187.42Z"/><path class="cls-23" d="M131.25,187.5c0-2.06-.08-3.47,0-4.87.21-2.62.21-5.28,1.17-7.79.12-.3.22-.62.34-.92a2.33,2.33,0,0,1,2.82-1.49,7.38,7.38,0,0,1,4.7,2.42,10.84,10.84,0,0,1,2,4.24A19.73,19.73,0,0,1,143,185c-.06,2.33.26,4.66.13,7a24.71,24.71,0,0,1-1.34,7.95c-.79,2-2.1,3.42-4.34,3.66a3.89,3.89,0,0,1-3.64-1.86,13,13,0,0,1-2-5.58A43.73,43.73,0,0,1,131.25,187.5Z"/><path class="cls-23" d="M148.51,198.2V195c-.07-2.33-.13-4.65-.28-7-.13-2.17-.16-4.34-.27-6.5s-.07-4.45-.12-6.67c0-2,.85-2.31,2.41-2.12a6.13,6.13,0,0,1,2.92,1.07,4.15,4.15,0,0,1,1.71,3.31,33.51,33.51,0,0,1,0,3.75,9.36,9.36,0,0,1-1.43,4.19c-.26.46-.49.94-.75,1.4a.49.49,0,0,0-.06.37c.74,3.09,1.14,6.25,2,9.32a24,24,0,0,0,1.81,4.78,3.37,3.37,0,0,1,.36,1.39,1,1,0,0,1-.66,1.12,1.15,1.15,0,0,1-1.37-.51,11.3,11.3,0,0,1-1.58-3.65,55.76,55.76,0,0,1-1.22-5.45c-.4-1.82-.85-3.76-1.24-5.64,0-.18,0-.54-.41-.48s-.21.34-.21.53c0,2.2-.1,4.41,0,6.61a30.74,30.74,0,0,0,.75,6.48,1.69,1.69,0,0,1-.38,1.61c-.33.35-1,.22-1.4.08a.92.92,0,0,1-.61-.93C148.53,200.78,148.51,199.49,148.51,198.2Z"/><path class="cls-23" d="M118.67,177.6a18,18,0,0,0,.13,2.64,4.69,4.69,0,0,1-.16,2,10.59,10.59,0,0,0-.23,2.17,67.9,67.9,0,0,0,.16,6.84,18.08,18.08,0,0,0,1.63,6.93,4.29,4.29,0,0,0,1.48,1.81,2.67,2.67,0,0,0,3.2,0,7.57,7.57,0,0,1,1.71-1,1.75,1.75,0,0,1,1.71.49.51.51,0,0,1,.11.49,3.1,3.1,0,0,1-1.71,2.57,6.79,6.79,0,0,1-6.14.29,6.21,6.21,0,0,1-3-3.64,25.15,25.15,0,0,1-1.36-6.29,72.93,72.93,0,0,1-.34-11.16,34.17,34.17,0,0,1,.32-6,8.71,8.71,0,0,0-.09-1.44,5.77,5.77,0,0,1,4.45-5.67,7.87,7.87,0,0,1,3.51-.29c.85.14,2.18.86,2.38,1.81.15.77-.19,1.36-.94,1.4a4.33,4.33,0,0,1-2.09-.44,3.19,3.19,0,0,0-2.39.17c-1.52.59-2,1.88-2.26,3.31A19.76,19.76,0,0,0,118.67,177.6Z"/><path class="cls-23" d="M75.21,197.15c0-1.33-.06-2.67,0-4,.25-4.13.13-8.27.09-12.4a59.51,59.51,0,0,0-.48-7.06c-.16-1.25-.29-2.49-.54-3.71a1.49,1.49,0,0,1,1.63-1.71A6.27,6.27,0,0,1,80,169.64a8.72,8.72,0,0,1,3,5.83,12.27,12.27,0,0,1-.68,6,9.67,9.67,0,0,1-4.47,5.35.63.63,0,0,0-.36.62c-.06,2.23.15,4.44.19,6.66,0,1.08.1,2.17.08,3.25s.18,2.3.15,3.42a3.24,3.24,0,0,1-.24,1.15,1.31,1.31,0,0,1-1.61.85,1.21,1.21,0,0,1-.86-1.34Z"/><path class="cls-23" d="M104.24,197.12c0-1.34-.07-2.68,0-4,.25-4.14.15-8.28.09-12.41a62.79,62.79,0,0,0-.47-7c-.16-1.27-.34-2.52-.56-3.78a1.49,1.49,0,0,1,1.61-1.64,6.24,6.24,0,0,1,4,1.34,8.55,8.55,0,0,1,3,5.86,12.47,12.47,0,0,1-.4,5.08,10,10,0,0,1-4.68,6.29.75.75,0,0,0-.42.77c-.07,2.19.1,4.39.18,6.59.06,1.6,0,3.2.1,4.79a7.48,7.48,0,0,1,0,2.75,1.34,1.34,0,0,1-.9,1.1,1.21,1.21,0,0,1-1.57-.68,1.32,1.32,0,0,1-.08-.52C104.28,200.14,104.24,198.63,104.24,197.12Z"/><path class="cls-11" d="M64.38,148.75l.14-.26L65,148c.67-.68.68-.68,1.29.08a14.54,14.54,0,0,0,5.53,4.16c.31.14.68.22.79.63.12,1.94,0,3.88.05,5.82v2a1.72,1.72,0,0,1-.19.9,51.91,51.91,0,0,0-7.84,6.57c-.58.61-1.11,1.26-1.71,1.88a.79.79,0,0,1-.17-.75c.3-2.43.49-4.87.73-7.3,0-.43,0-.85,0-1.27a5.22,5.22,0,0,1,.28-1.23,7,7,0,0,0,.14-3.05,35.36,35.36,0,0,1,.15-4.6c0-.7.07-1.41.07-2.12A1.85,1.85,0,0,1,64.38,148.75Z"/><path class="cls-24" d="M64.38,148.75c.09,2.56-.3,5.18-.26,7.78a1.52,1.52,0,0,0-.92.73,26.52,26.52,0,0,0-2.85,7.25c-.05.23-.14.53.13.66s.51-.12.68-.31a12.8,12.8,0,0,0,2.14-3.68c.09-.2.07-.5.41-.53a55,55,0,0,1-.5,6.15c-.12,1.08-.2,2.16-.29,3.24l-.14.26a28.44,28.44,0,0,0-3.42,4.87c-.59,1-1,2.12-1.55,3.14v-19.5c.07-.32.36-.42.6-.57A13.53,13.53,0,0,0,60,157.15c.23-.18.46-.41.35-.73s-.43-.25-.69-.27a4,4,0,0,0-1.18.24c-.19.05-.41.22-.61,0v-6.52a6.61,6.61,0,0,0,2.36.5,6.07,6.07,0,0,0,3.14-.85A11.74,11.74,0,0,1,64.38,148.75Z"/><path class="cls-2" d="M72.43,161.59v-8.94c.4-.16.73.08,1.08.19a11.46,11.46,0,0,0,8.55-.54,9.23,9.23,0,0,0,4-4c.12-.24.16-.57.52-.61v6.66c-1.71.64-3.35,1.36-5,2.11A71.28,71.28,0,0,0,72.43,161.59Z"/><path class="cls-2" d="M158.65,153.71V148.1a13.48,13.48,0,0,0,3.92,3.2,16.85,16.85,0,0,0,5.52,2.3,7.68,7.68,0,0,0,4.83-.69v7.7a74,74,0,0,0-7.48-4.06,68.37,68.37,0,0,0-6.7-2.76Z"/><path class="cls-3" d="M185.82,187.82c-.09.91-.16,2-.28,3a1.19,1.19,0,0,1-1.26,1.12h-.06a1.23,1.23,0,0,1-1-1.43.51.51,0,0,1,0-.13,11.74,11.74,0,0,0,.18-2.51,2.5,2.5,0,0,1,0-.67c.11-.71.64-1.27,1.16-1.25a1.34,1.34,0,0,1,1.23,1.45Z"/><path class="cls-3" d="M173.73,166a1.26,1.26,0,0,1-.55,1.05,1.09,1.09,0,0,1-1.2,0c-1-.69-1.93-1.39-2.86-2.12a1.17,1.17,0,0,1-.2-1.6,1.14,1.14,0,0,1,1.58-.36l.07,0c.85.59,1.71,1.21,2.5,1.83A1.35,1.35,0,0,1,173.73,166Z"/><path class="cls-3" d="M73,168.16a1,1,0,0,1-1-.61,1.09,1.09,0,0,1,.14-1.3,15.74,15.74,0,0,1,3-2.4,1.1,1.1,0,0,1,1.41.37,1.22,1.22,0,0,1-.14,1.63c-.92.75-1.87,1.46-2.81,2.2C73.44,168.21,73.21,168.12,73,168.16Z"/><path class="cls-3" d="M179.8,199.56a1.13,1.13,0,0,1,.12-.57,24.25,24.25,0,0,0,1.5-2.8,1.2,1.2,0,0,1,2.26.81,1,1,0,0,1-.1.21,26.89,26.89,0,0,1-1.63,3,1.14,1.14,0,0,1-1.39.49A1,1,0,0,1,179.8,199.56Z"/><path class="cls-3" d="M90.47,217a1.14,1.14,0,0,1-1,1.25,1.22,1.22,0,0,1-.57-.08c-1-.39-2-.82-3-1.26a1.21,1.21,0,0,1-.62-1.59v0a1.12,1.12,0,0,1,1.46-.64l.06,0c1,.4,2,.85,3.05,1.26A1.07,1.07,0,0,1,90.47,217Z"/><path class="cls-3" d="M80.71,214.3a1.18,1.18,0,0,1-.66-.28c-.86-.49-1.71-1-2.5-1.5a1.34,1.34,0,0,1-.47-1.84l0-.05c.35-.55,1-.64,1.71-.22l1.06.67c.57.35,1.16.67,1.71,1.06a1.08,1.08,0,0,1,.4,1.35A1.23,1.23,0,0,1,80.71,214.3Z"/><path class="cls-3" d="M156.1,158.26c-.34.08-.64-.16-1-.28a19.48,19.48,0,0,1-2.56-.91,1.08,1.08,0,0,1-.65-1.38l0-.09c.34-.76.76-1,1.53-.73,1,.33,2,.66,2.93,1a1.25,1.25,0,0,1,.86,1.39C157.21,158,156.86,158.26,156.1,158.26Z"/><path class="cls-3" d="M171.11,210.58a1.16,1.16,0,0,1-.61,1.14c-.86.56-1.71,1.1-2.57,1.62a1.39,1.39,0,0,1-1.71-.27,1.26,1.26,0,0,1,.38-1.74l.05,0c.92-.6,1.83-1.23,2.79-1.78S171.11,209.55,171.11,210.58Z"/><path class="cls-3" d="M66.67,175.09c-1,.19-1.52-1.15-1-1.78.73-1,1.45-1.95,2.22-2.89a1.34,1.34,0,0,1,1.63-.06,1.28,1.28,0,0,1,.11,1.71c-.71.8-1.33,1.65-2,2.5C67.37,174.91,67.11,175.26,66.67,175.09Z"/><path class="cls-3" d="M177.17,169c.76,0,1.06.67,1.49,1.1a17.39,17.39,0,0,1,1.42,1.67,1.47,1.47,0,0,1,0,1.82,1.36,1.36,0,0,1-1.52.11,8.48,8.48,0,0,1-.79-.9c-.49-.59-1-1.19-1.5-1.76a1.25,1.25,0,0,1-.25-1.41A1,1,0,0,1,177.17,169Z"/><path class="cls-3" d="M161.89,158.24a2.34,2.34,0,0,1,.38.09c1,.47,2,.94,2.92,1.46a1.24,1.24,0,0,1,.68,1.27,1.2,1.2,0,0,1-1,1.05,1.28,1.28,0,0,1-1-.23c-.86-.48-1.77-.9-2.66-1.34a1.2,1.2,0,0,1-.66-1.57,1.28,1.28,0,0,1,.5-.58A1.62,1.62,0,0,1,161.89,158.24Z"/><path class="cls-3" d="M102.37,154a1.08,1.08,0,0,1-.92,1.16c-1,.3-2.12.55-3.18.85a1.19,1.19,0,0,1-1.32-.79,1.11,1.11,0,0,1,.52-1.47,16.33,16.33,0,0,1,3.76-1C102,152.71,102.38,153.21,102.37,154Z"/><path class="cls-3" d="M74.28,207.75a1,1,0,0,1-.56,1.07,1.12,1.12,0,0,1-1.26-.07c-.85-.71-1.71-1.46-2.56-2.24a1.39,1.39,0,0,1-.09-1.86,1.29,1.29,0,0,1,1.82.14h0l2.23,2A1.1,1.1,0,0,1,74.28,207.75Z"/><path class="cls-3" d="M157.74,216.56a1.07,1.07,0,0,1,.71-1.15l2.89-1.3a1.21,1.21,0,0,1,1.58.54,1.32,1.32,0,0,1-.61,1.71c-1,.49-2.08.95-3.14,1.38a1.12,1.12,0,0,1-1.39-.76A1.2,1.2,0,0,1,157.74,216.56Z"/><path class="cls-3" d="M173.65,206.77a1.3,1.3,0,0,1,.54-1.06c.74-.63,1.41-1.34,2.11-2a1.27,1.27,0,0,1,1.66-.12,1.23,1.23,0,0,1,0,1.73l0,.05c-.75.78-1.53,1.54-2.3,2.31a1.21,1.21,0,0,1-1.4.26A1,1,0,0,1,173.65,206.77Z"/><path class="cls-3" d="M62.59,183.8a1.08,1.08,0,0,1-1.06-1.09,1.22,1.22,0,0,1,.07-.38,19.81,19.81,0,0,1,1-3.42,1.15,1.15,0,0,1,1.45-.69,1.21,1.21,0,0,1,.73,1.49l-1,3.22A1.09,1.09,0,0,1,62.59,183.8Z"/><path class="cls-3" d="M136.2,222.46c0,.86-.53,1.28-1.62,1.33A22.13,22.13,0,0,0,132,224a1.22,1.22,0,0,1-1.4-1c0-.05,0-.09,0-.13a1.2,1.2,0,0,1,1.09-1.25c1.06-.19,2.15-.15,3.21-.37a1.2,1.2,0,0,1,1.31,1.06Z"/><path class="cls-3" d="M148.37,154.35a1,1,0,0,1-.81,1.22,1.19,1.19,0,0,1-.46,0c-1.1-.19-2.19-.48-3.26-.77a1.16,1.16,0,0,1-.92-1.35.36.36,0,0,1,0-.1,1.15,1.15,0,0,1,1.33-.92l.23.07c1,.24,2,.43,3,.7a1,1,0,0,1,.86,1.15Z"/><path class="cls-3" d="M89,158.8c-.48.07-.8-.34-.92-.85a1.15,1.15,0,0,1,.65-1.39,29.74,29.74,0,0,1,3.1-1.16,1.14,1.14,0,0,1,1.51.58l0,.05a1.27,1.27,0,0,1-.69,1.66l-.17.05c-.91.34-1.83.66-2.73,1A2.57,2.57,0,0,1,89,158.8Z"/><path class="cls-3" d="M183.59,182.2c-.59.07-.86-.33-1.05-.86a26.38,26.38,0,0,0-1.09-2.84,1.19,1.19,0,0,1,.44-1.63l.15-.08a1.16,1.16,0,0,1,1.53.58l.06.19c.44,1.05.85,2.12,1.21,3.21C185.08,181.54,184.48,182.21,183.59,182.2Z"/><path class="cls-3" d="M63.85,198a1,1,0,0,1,.77-1.16,1.14,1.14,0,0,1,1.35.58c.56.92,1.14,1.83,1.71,2.75a1.28,1.28,0,0,1-.2,1.63,1.24,1.24,0,0,1-1.71-.22,17,17,0,0,1-1.82-3A1.42,1.42,0,0,1,63.85,198Z"/><path class="cls-3" d="M148.91,219.41a1.06,1.06,0,0,1,.8-1c1-.31,2.1-.64,3.17-.93a1.16,1.16,0,0,1,1.45.77l0,.13a1.27,1.27,0,0,1-.85,1.38,21.32,21.32,0,0,1-3.23.94C149.47,220.85,148.91,220.4,148.91,219.41Z"/><path class="cls-3" d="M80.71,162.82a.91.91,0,0,1-1-.74,1.14,1.14,0,0,1,.49-1.46c1-.59,2-1.13,3.1-1.64a1,1,0,0,1,1.37.48.08.08,0,0,1,0,0,1.13,1.13,0,0,1-.31,1.57l-.08,0c-1,.57-2,1.09-3,1.62A2,2,0,0,1,80.71,162.82Z"/><path class="cls-3" d="M124.1,224.32h-1.54c-.78,0-1.17-.36-1.2-1.09a1.13,1.13,0,0,1,.94-1.29h.15q1.71,0,3.42,0a1.21,1.21,0,0,1,1.11,1.21,1.23,1.23,0,0,1-1.13,1.18C125.27,224.34,124.69,224.32,124.1,224.32Z"/><path class="cls-3" d="M107.48,154c-1,0-1.41-.29-1.5-.9a1.17,1.17,0,0,1,.88-1.42l.08,0q1.64-.3,3.27-.45a1.22,1.22,0,0,1,1.37,1,.28.28,0,0,0,0,.09,1.34,1.34,0,0,1-1.35,1.28C109.26,153.68,108.29,153.83,107.48,154Z"/><path class="cls-3" d="M126.75,150.41a16.33,16.33,0,0,1,2.32.14,1,1,0,0,1,1,1v.06c0,.7-.38,1.34-1,1.32-1.24,0-2.48-.07-3.71-.15a1.2,1.2,0,0,1-.86-1.24,1.21,1.21,0,0,1,1.12-1.11A6.14,6.14,0,0,1,126.75,150.41Z"/><path class="cls-3" d="M117.39,152.91h-1.15a1,1,0,0,1-1-.93,1.13,1.13,0,0,1,.71-1.33,3.7,3.7,0,0,1,1-.16,9.4,9.4,0,0,0,2.12-.11,1.36,1.36,0,0,1,1.53.56,1.11,1.11,0,0,1-.05,1.37.93.93,0,0,1-.75.46A22,22,0,0,1,117.39,152.91Z"/><path class="cls-3" d="M64,192.42a1.51,1.51,0,0,1-1,1,1.18,1.18,0,0,1-1.22-.79,14.32,14.32,0,0,1-.52-2.91,4.52,4.52,0,0,1-.09-1,1.05,1.05,0,0,1,1.1-1c.72,0,1.18.25,1.22.94C63.48,189.83,63.74,191,64,192.42Z"/><path class="cls-3" d="M108.39,222a1.14,1.14,0,0,1-1.1,1.17h-.19c-1.11-.2-2.2-.42-3.3-.65a1.11,1.11,0,0,1-.87-1.32s0,0,0-.07a1.18,1.18,0,0,1,1.3-1c1.08.19,2.16.39,3.23.62C108.14,220.86,108.39,221.21,108.39,222Z"/><path class="cls-3" d="M145.3,221.07a1,1,0,0,1-.83,1.11h0c-1.07.23-2.15.46-3.23.65a1.21,1.21,0,0,1-.36-2.4c1-.18,2-.35,3-.54S145.3,220.07,145.3,221.07Z"/><path class="cls-3" d="M98.07,221.13a20.42,20.42,0,0,1-3.67-1,1,1,0,0,1-.54-1.24c.15-.56.43-1,1.08-1a15.07,15.07,0,0,1,3.8,1c.6.21.68.85.5,1.42a1,1,0,0,1-1.12.77Z"/><path class="cls-3" d="M133.79,152.16c0-.85.49-1.23,1.34-1.15a26.76,26.76,0,0,1,3.34.43,1.16,1.16,0,0,1,.8,1.44v0a1.11,1.11,0,0,1-1.29.85c-1.08-.15-2.18-.26-3.26-.42a1,1,0,0,1-.94-1A1,1,0,0,1,133.79,152.16Z"/><path class="cls-3" d="M115.86,224.06a14.91,14.91,0,0,1-2.83-.27c-.74-.16-1-.68-.85-1.49.1-.6.6-.86,1.35-.81a30.41,30.41,0,0,1,3.16.29c.8.14,1.06.58,1,1.43-.06.53-.52.86-1.23.86Z"/><path class="cls-24" d="M57.87,225.26v-19c3.18-.28,5.34,2,6.48,4.6a12,12,0,0,1,.94,4.79,11.13,11.13,0,0,1-2.17,7A5.81,5.81,0,0,1,57.87,225.26Z"/><path class="cls-24" d="M60.76,128.43a14.33,14.33,0,0,0-2.93-.14V96.06h0a1,1,0,0,1,.75-.23H63.1a1,1,0,0,1,.75.22h0a4.92,4.92,0,0,1,.33,2.08c.21,3.42.34,6.84.54,10.32.07,1.38.09,2.76.1,4.13,0,3.36.27,6.71.18,10.07V123a1.6,1.6,0,0,1,0,.21c-.61.64-1.39,1.09-2,1.71a8.3,8.3,0,0,0-1.71,2.72A2.62,2.62,0,0,1,60.76,128.43Z"/><path class="cls-18" d="M64.47,146.75c.07-2,.09-4,.18-6.05.19-4.89,0-9.79.1-14.67v-.9a1.4,1.4,0,0,1,2.45.53c.23.5.49.53.94.29a3.15,3.15,0,0,1,3.53,0A3.28,3.28,0,0,1,73,129.1c0,.4-.1.79-.14,1.19-.06.56.11.74.69.67a2.64,2.64,0,0,1,1.12,0,1.23,1.23,0,0,1,1.06,1.32c.06.63-.25,1.23-.06,1.85.12.19.3.32.51.23a2.59,2.59,0,0,1,1.51,0A12,12,0,0,1,85.93,140a1.12,1.12,0,0,1,.25.66,9.73,9.73,0,0,1-1.89,3.42,7,7,0,0,1-1.88,1.49,1.88,1.88,0,0,1-2.62-.5l0-.06a3.73,3.73,0,0,1-.29-.44c-.12-.2-.25-.38-.53-.32s-.33.28-.38.51a2,2,0,0,1,0,.26,3.19,3.19,0,0,1-4.89,2.2,7.12,7.12,0,0,1-2.9-3.65,6.35,6.35,0,0,1-.45-1.6c0-.32-.07-.73-.48-.79s-.5.34-.61.61a10.87,10.87,0,0,1-3.47,4.33c-.36.26-.71.63-1.23.56Z"/><path class="cls-25" d="M60.76,128.43a8.77,8.77,0,0,1,3.53-4.89,2.55,2.55,0,0,1,.48-.2,2,2,0,0,1,0,1.87h0a10.78,10.78,0,0,0-3.36,2.63A6.07,6.07,0,0,1,60.76,128.43Z"/><path class="cls-16" d="M57.84,156.39a5.74,5.74,0,0,1,2-.38c.32,0,.72-.06.85.34a.85.85,0,0,1-.46.9c-.77.52-1.56,1-2.34,1.53a10,10,0,0,1-2,1c-.34.11-.74.23-1-.07s0-.68.17-1A6.23,6.23,0,0,1,57.84,156.39Z"/><path class="cls-17" d="M64.54,146.75a10.29,10.29,0,0,0,4.56-5,1.42,1.42,0,0,1,.42-.68.59.59,0,0,1,.79.24.72.72,0,0,1,.07.25,8.54,8.54,0,0,0,1.31,3.52c.86,1.22,1.77,2.33,3.42,2.5A2.93,2.93,0,0,0,78.4,145a.28.28,0,0,0,0-.09c0-.42.13-.74.58-.86s.53.27.71.54c1,1.56,2,1.47,3.51.33a7.62,7.62,0,0,0,2.68-3.86.67.67,0,0,1,.27-.37c.41.13.27.53.4.81a8.71,8.71,0,0,1,0,6.16,14.37,14.37,0,0,1-1.71,2.64,9.17,9.17,0,0,1-4.53,2.83,12.48,12.48,0,0,1-7.91-.52,14.91,14.91,0,0,1-6.84-5.08c-.38.31-.56.86-1.09.92Z"/><path class="cls-18" d="M158.69,73.32a9.81,9.81,0,0,1,3.42-2.13c1.38-.41,2.21-.38,3.07,1a1,1,0,0,0,.85.52,4.16,4.16,0,0,1,3.89,4.12c.06.67,0,1.34,0,2,0,.22,0,.49.35.32a4.33,4.33,0,0,1,2.71,0,4.41,4.41,0,0,1,2.24,3.37,5.23,5.23,0,0,1-.73,3.21c-.37.64-.3,1,.36,1.24.06,0,.09.14.14.22a2.56,2.56,0,0,1-3.47,1,2.52,2.52,0,0,1-1-.94c-.13-.22-.21-.64-.48-.55s-.12.5-.09.77a19.58,19.58,0,0,1,.29,3.42,1,1,0,0,1-.2.74,27.86,27.86,0,0,0-3.42-.12,3.55,3.55,0,0,0-.92.09,1.17,1.17,0,0,0-1,1.21,1.12,1.12,0,0,0,1.18,1c.75,0,1.51,0,2.27,0a3,3,0,0,1,1.18.1c.3.36,0,.63-.17.86a4.28,4.28,0,0,1-6,.8,5.15,5.15,0,0,1-.71-.69,3.51,3.51,0,0,1-.61-1,.67.67,0,0,1,0-.2c.86-1.31.78-1.6-.7-2.25l-.11-.07a.64.64,0,0,1-.13-.15,3.77,3.77,0,0,1-.09-1.06c0-.26.14-.67-.24-.73s-.36.33-.47.57a3.8,3.8,0,0,1-.86,1.34.62.62,0,0,1-.19.07,12,12,0,0,0-2.16.23.48.48,0,0,1-.42-.54.07.07,0,0,0,0-.05c0-.22.06-.44.11-.66s.07-.33-.08-.43-.3,0-.42.1c-.31.23-.62.45-.93.65a1.77,1.77,0,0,1-2,.08,1.55,1.55,0,0,1-.66-1.76,10.7,10.7,0,0,1,1.75-4.36l.2-.27c.06-.1.21-.27.12-.42s-.31-.15-.49-.13l-.78.11A8.46,8.46,0,0,1,144,77.2c0-.26,0-.53,0-.79l.28-.41a3.14,3.14,0,0,1,2.13-.54c1,0,1.41-.22,1.65-1.1.5-1.71,1.78-1.88,3.23-1.64,2.43.4,4,1.93,5.13,4.17A13,13,0,0,1,158.69,73.32Z"/><path class="cls-17" d="M170,91.53a18.74,18.74,0,0,0-.41-4.48c0-.26-.12-.6.28-.72s.43.17.51.39a2.44,2.44,0,0,0,3.17,1.37,2.36,2.36,0,0,0,1.1-.87c.06-.06.16-.07.24-.11a2.57,2.57,0,0,1-.39,3.61l-.21.15c-.17.09-.39.14-.46.36s-.51.33-.72.54c-.86.93-.52,1.71.85,2a.33.33,0,0,1,.13.13,9.38,9.38,0,0,1,.15,2.11,8.06,8.06,0,0,1-1.38,2.82,4.08,4.08,0,0,1-1.57,1.31,17.05,17.05,0,0,1-6.53,2,6,6,0,0,1-5.56-2.29,3.26,3.26,0,0,1-.61-1.32c-.08-.49-.24-.51-.68-.25a6.69,6.69,0,0,1-4,1.2,3.61,3.61,0,0,1-3.37-2.48,1,1,0,0,0-.92-.85,5.49,5.49,0,0,1-.85-.16c-1.57-.7-2.08-2.12-2.43-3.61a6.62,6.62,0,0,1,1.57-6c-1.53-.44-3.08-.85-3.82-2.46a10.77,10.77,0,0,1-1-4,5.37,5.37,0,0,1,.78-3.62,19,19,0,0,0,.65,2.35,8.32,8.32,0,0,0,6.42,5,8.19,8.19,0,0,0,3-.12c.29,0,.66-.17.85.16s-.14.55-.31.76A10.27,10.27,0,0,0,152.59,89a1.36,1.36,0,0,0,.58,1.59,1.55,1.55,0,0,0,1.93-.07,6.11,6.11,0,0,0,1-.71.56.56,0,0,1,.61-.15c.27.12.17.39.15.59a4.25,4.25,0,0,1-.18.86c-.07.23.05.33.22.42a.28.28,0,0,1,0,.22c-.68,1.22-.26,2,1.14,2h3.46a.67.67,0,0,1,.44.07,4.54,4.54,0,0,0,2.6,2.21A4,4,0,0,0,169.38,94a.36.36,0,0,1,0-.09,1,1,0,0,1,.22-.13c1-.59,1.13-1.12.39-2A.15.15,0,0,1,170,91.53Z"/><path class="cls-26" d="M183.85,93.93h-1.54c-.85,0-1.47-.4-1.57-1a1.28,1.28,0,0,1,1-1.54l.23,0a10.6,10.6,0,0,1,3.93.07c.85.22,1.22.73,1.12,1.38a1.57,1.57,0,0,1-1.57,1.15Z"/><path class="cls-26" d="M173.1,91.64a2.26,2.26,0,0,1,.82-.41h2.93a2.66,2.66,0,0,1,1.14.25c.71.33,1,.76.85,1.35a1.58,1.58,0,0,1-1.4,1.09h-3.27v0A13.06,13.06,0,0,1,173.1,91.64Z"/><path class="cls-16" d="M179.13,70a4,4,0,0,1,2-2.74,3.85,3.85,0,0,1,3.28-.68c.26.07.59.12.59.5s-.27.54-.53.69c-.86.46-1.66.85-2.45,1.36s-1.26,1-1.93,1.47S179.13,70.8,179.13,70Z"/><path class="cls-27" d="M108.66,78.4c2.38.38,4.48,1.2,5.68,3.5a2.17,2.17,0,0,1,.07.24,3.3,3.3,0,0,1-2.81,1.65c-.66.09-.77.23-.37.78,1.94,2.76.53,5.28-1.32,6.75a1,1,0,0,1-.29.08,6.2,6.2,0,0,0-1.05.09,1.5,1.5,0,0,0-1.16,1.06.44.44,0,0,1-.14.16,2.77,2.77,0,0,1-1.87.28c-.56-1.36-.86-1.55-2.34-1.55h-2a2.27,2.27,0,0,0-1,.21,1.05,1.05,0,0,0-.6,1.36,1,1,0,0,0,.81.66,4.27,4.27,0,0,0,1.13.07,1.66,1.66,0,0,1,.85.13c.71,1,.42,3.42-.53,4.07a3,3,0,0,1-2.87.22,5.51,5.51,0,0,1-.85-.49c-.14-.07-.3-.16-.43,0s0,.26.06.36c.3.4.16.69-.21,1-3.63,2.61-9.4,3.15-13.27.4a6.26,6.26,0,0,1-3-4.56,2.42,2.42,0,0,0-.1-.45c-.1-.35-.31-.4-.6-.23a1.84,1.84,0,0,0-.22.17A6.23,6.23,0,0,1,76.07,96a6.65,6.65,0,0,1-4.63-1.6.56.56,0,0,1-.27-.5c.17-.21.44-.22.65-.32a1,1,0,0,0,0-2,2.7,2.7,0,0,0-1.16-.22,10.75,10.75,0,0,1-1.39,0,.62.62,0,0,1-.19-.07,1.45,1.45,0,0,1-.41-1,7.21,7.21,0,0,1,2-4.14c.28-.31.64-.55.91-.85a8.21,8.21,0,0,1-1.6-.56,2,2,0,0,1-1-1.66c-.21-2.87,1.25-4.78,3.51-6.25.21-.22.11-.44,0-.67a2.38,2.38,0,0,0-.29-.85,3.21,3.21,0,0,1,.29-2.48,2.45,2.45,0,0,1,2.23-.94c.31,0,.43-.1.43-.41A9.29,9.29,0,0,1,76,67.67a10.71,10.71,0,0,1,7.88-6.52A20.42,20.42,0,0,1,86.59,61a10.8,10.8,0,0,1,8.32,4.42,5.11,5.11,0,0,1,1,4,13.05,13.05,0,0,1,4.49-.37,8.62,8.62,0,0,1,4.56,4.39,8.88,8.88,0,0,1,1,4.63c0,.4.16.55.53.47l1.51-.24A.76.76,0,0,1,108.66,78.4Z"/><path class="cls-11" d="M64.79,123.23V123c.1-3.42-.13-6.9-.16-10.34,0-2.47-.17-4.93-.26-7.39-.07-1.71-.17-3.42-.26-5.18-.08-1.35-.17-2.7-.25-4.06h6a.31.31,0,0,1,.34.14,8.58,8.58,0,0,0,2,1.79.79.79,0,0,1,.36.61,8.34,8.34,0,0,1,0,1v22a3.52,3.52,0,0,1-.09,1.12c-.18.33-.46.21-.7.13a8.19,8.19,0,0,0-6.28.24A1,1,0,0,1,64.79,123.23Z"/><path class="cls-28" d="M72.43,98.34a10.17,10.17,0,0,1-2.57-2.28A5.83,5.83,0,0,1,68.93,94c.62-.42,1.3-.18,2-.19a.45.45,0,0,1,.31.19,6,6,0,0,0,3.74,1.84,6,6,0,0,0,5.33-1.77.68.68,0,0,1,.66-.21c.29.06.28.29.31.52a6.66,6.66,0,0,0,1.44,3.57,8.63,8.63,0,0,0,3.58,2.43,11.94,11.94,0,0,0,11-1.49c.39-.26.48-.43.1-.74-.21-.17-.32-.37-.1-.62s.44-.19.69,0a3.36,3.36,0,0,0,2.08.76c1.44-.06,2.08-.49,2.28-1.89a5.47,5.47,0,0,0-.1-2.38l.07-.08a2,2,0,0,1,1.11-.11,2,2,0,0,0,1.82-.76.15.15,0,0,1,.2,0l1.86-.41a2.06,2.06,0,0,0,2.36,1.16,16.26,16.26,0,0,1,1.71,0,.94.94,0,0,1,.74.21,10.15,10.15,0,0,1-2.41,2.12,9.46,9.46,0,0,1-3.52.8,6.62,6.62,0,0,1-2.56-.52c-.41-.17-.62-.19-.6.36a3,3,0,0,1-1.87,3A3,3,0,0,1,99,99.62c-.29-.14-.46,0-.56.27a9.16,9.16,0,0,1-7,6.22,8.57,8.57,0,0,1-4.83-.48,4.85,4.85,0,0,1-2.43-1.44A9.54,9.54,0,0,1,81,97.35a7.27,7.27,0,0,1-4.33,2,7.69,7.69,0,0,1-3.85-.58A.92.92,0,0,1,72.43,98.34Z"/><path class="cls-29" d="M63.85,96.06h-6V66.68A2,2,0,0,1,59.38,68a14.64,14.64,0,0,1,1.53,4.77,3.07,3.07,0,0,1,.4,1.17c.2,1.24.38,2.48.59,3.72.31,1.83.54,3.67.75,5.51S63.1,87,63.3,89c.08.81.1,1.63.14,2.45l-.09,0H60.29a2.2,2.2,0,0,0-1.27.35,1,1,0,0,0-.32,1.38,1,1,0,0,0,.48.4,2.19,2.19,0,0,0,1,.17h3.42l.1,0A12.93,12.93,0,0,0,63.85,96.06Z"/><path class="cls-16" d="M63.54,64.64a1.44,1.44,0,0,1,1.15.57,17.15,17.15,0,0,1,3.88,4.48c.15.27.43.57.09.85s-.65.14-1,0a7.4,7.4,0,0,1-2.33-1.71,11,11,0,0,1-2-2.74c-.13-.31-.19-.63-.3-.93S63.12,64.59,63.54,64.64Z"/><path class="cls-16" d="M61.31,73.85a1.32,1.32,0,0,1-.4-1.17c.62-.51,1.24-.14,1.86,0a28.61,28.61,0,0,1,3.19.65c.34.09.64.28.65.56s-.22.52-.53.69A4.46,4.46,0,0,1,61.31,73.85Z"/><path class="cls-16" d="M71.2,66.71a4.82,4.82,0,0,1,0,.76.6.6,0,0,1-.39.63.67.67,0,0,1-.71-.23,7.63,7.63,0,0,1-1.42-2.61,7.15,7.15,0,0,1-.39-1.37c-.07-.34-.11-.75.29-.94a.86.86,0,0,1,1,.22,4.84,4.84,0,0,1,1.51,2.4A2,2,0,0,1,71.2,66.71Z"/><path class="cls-26" d="M68.8,93.9a3.66,3.66,0,0,1-1.32,0,1.22,1.22,0,0,1-1-1.42s0,0,0-.08c0-.5.72-1,1.45-1.11a4.69,4.69,0,0,1,.53,0c.41.58.13,1.28.34,1.9A.72.72,0,0,1,68.8,93.9Z"/><path class="cls-30" d="M68.8,93.9a10.18,10.18,0,0,1-.29-2.64h0a.44.44,0,0,1,.53,0l.13,0c.57.74,1,1.55,1.65,2.26a.36.36,0,0,1,.09.37l-2,0Z"/><path class="cls-26" d="M63.44,91.41a1.39,1.39,0,0,1,1.18,1.16,1.21,1.21,0,0,1-.91,1.26h0a.45.45,0,0,1-.26-.36,4.55,4.55,0,0,1,0-2Z"/><path class="cls-31" d="M69.07,91.23h-.53c0-.3-.14-.65.11-.93A3.25,3.25,0,0,1,69.07,91.23Z"/><path class="cls-3" d="M72.43,76.14c.19.22.66.45,0,.67Z"/><path class="cls-32" d="M52,93.92c.09-.86.18-1.77.26-2.66h2.35a1.91,1.91,0,0,1,.78.13c.68.23,1.2.85,1.14,1.31A1.51,1.51,0,0,1,55,93.93C54,94,53,93.92,52,93.92Z"/><path class="cls-28" d="M108.66,78.4c-.72.12-1.44.22-2.15.35s-.76-.09-.71-.7a8.58,8.58,0,0,0-.67-3.75,9.24,9.24,0,0,0-4.41-4.94.63.63,0,0,1-.35-.29,1.15,1.15,0,0,1,.79.1,8.41,8.41,0,0,1,4.56,2,8.22,8.22,0,0,1,2.87,5C108.71,76.88,108.6,77.65,108.66,78.4Z"/><path class="cls-11" d="M129.9,96.06v13c-.34,0-.45-.31-.61-.53a5.57,5.57,0,0,0-2.84-2,5.86,5.86,0,0,0-6.84,2.92,1.35,1.35,0,0,1-1.56.85,5.41,5.41,0,0,0-2,.21c-.21.06-.43.17-.64,0V96.06Z"/><path class="cls-26" d="M118.51,93.93H117c-.85,0-1.46-.4-1.56-1a1.24,1.24,0,0,1,.87-1.52,1.13,1.13,0,0,1,.32-.05,10.93,10.93,0,0,1,4,0,1.34,1.34,0,0,1,1.13,1.44,1.58,1.58,0,0,1-1.56,1.14Z"/><path class="cls-26" d="M129.9,92.32V93a1.91,1.91,0,0,1-1.86,1c-1-.06-2,0-3,0a1.31,1.31,0,0,1-1.41-1.17,1.38,1.38,0,0,1,0-.35,1.26,1.26,0,0,1,1.29-1.1,21.52,21.52,0,0,1,3.59,0A1.61,1.61,0,0,1,129.9,92.32Z"/><path class="cls-16" d="M121.62,83.5a3.79,3.79,0,0,1,1.91.29c.32.12.66.25.64.72s-.35.51-.66.59a31.44,31.44,0,0,1-3.86.66c-.41.06-.86.1-1.24.14s-.78,0-.86-.38a1,1,0,0,1,.53-1A5.34,5.34,0,0,1,121.62,83.5Z"/><path class="cls-16" d="M120.9,78.82a2.81,2.81,0,0,1,.58,0,.87.87,0,0,1,.64.49.56.56,0,0,1-.25.68,14.83,14.83,0,0,1-3.42,2.1c-.51.21-.75,0-.79-.57a2.78,2.78,0,0,1,1.78-2.38A2.4,2.4,0,0,1,120.9,78.82Z"/><path class="cls-16" d="M144.44,65.51a7.17,7.17,0,0,1,.18-.9c.21-.74.61-.86,1.15-.37a3.43,3.43,0,0,1,.85,2.92,2.6,2.6,0,0,1-.4,1.48c-.3.43-.6.35-.93.09a1.44,1.44,0,0,1-.49-.86C144.68,67.06,144.57,66.29,144.44,65.51Z"/><path class="cls-19" d="M144.24,84a5.86,5.86,0,0,0,4.27,2.31,5.92,5.92,0,0,0-1.82,3.06,6.42,6.42,0,0,0,1.57,6.11c.19.21.52.26.64.55h-4.67V93.94l.05-.08c.27-.16.58-.09.86-.18a1.16,1.16,0,0,0,.9-1,1.08,1.08,0,0,0-.79-1,8,8,0,0,1-.95-.3l-.06-.08Z"/><path class="cls-8" d="M134.84,93.93h-1.46c-.91,0-1.5-.41-1.59-1.08a1.24,1.24,0,0,1,1-1.48,1.09,1.09,0,0,1,.26,0,11.2,11.2,0,0,1,3.83,0,1.37,1.37,0,0,1,1.24,1.38,1.57,1.57,0,0,1-1.63,1.17Z"/><path class="cls-8" d="M144.23,94h-2.66c-1,0-1.55-.45-1.64-1.24s.86-1.4,1.57-1.43h2.73A3.83,3.83,0,0,1,144.23,94Z"/><path class="cls-16" d="M143.56,70.34c0,.81-.51,1-1.12.68a4.52,4.52,0,0,1-2.08-3.08,1.93,1.93,0,0,1,0-1.3c.24-.55.61-.77,1-.35A10,10,0,0,1,143.56,70.34Z"/><path class="cls-28" d="M109.85,91.22a12.17,12.17,0,0,0,1.51-1.77,4.11,4.11,0,0,0-.34-4.84.87.87,0,0,1-.19-.8c.11-.31.41-.17.64-.18a4.18,4.18,0,0,0,2.94-1.49,4.62,4.62,0,0,1-.52,4.87,2.24,2.24,0,0,0-.48,2,4.93,4.93,0,0,1-.22,2.61c-1.08-.17-2.18-.16-3.24-.33C109.91,91.32,109.88,91.26,109.85,91.22Z"/><path class="cls-30" d="M109.85,91.22a15,15,0,0,0,1.64,0,4.62,4.62,0,0,1,1.71.42v.11a2.47,2.47,0,0,1-1.07,2.13v.05h-3.37a1.32,1.32,0,0,1-1.45-1.18.91.91,0,0,1,0-.17h0a9.45,9.45,0,0,1,2.26-1.31Z"/><path class="cls-8" d="M112.14,93.9a6.55,6.55,0,0,0,1.06-2.13C113.92,92.89,113.49,93.76,112.14,93.9Z"/><path class="cls-2" d="M158.69,98.61a6.05,6.05,0,0,0,3.82,3.26,8.17,8.17,0,0,0,3.87-.06,17,17,0,0,0,5.53-2.13c.37-.24.6-.66,1.05-.8v18.84a4.94,4.94,0,0,0-4.28,1.52,7.09,7.09,0,0,0-1.61,3.27,8.79,8.79,0,0,0-.28,2.28,4.17,4.17,0,0,0-4.8-.56,4.86,4.86,0,0,0-2.67,4,6.88,6.88,0,0,0,.39,3.42c.2.51.09.77-.44.9a2.58,2.58,0,0,0-.51.29h-.11V99.11A3.62,3.62,0,0,0,158.69,98.61Z"/><path class="cls-2" d="M158.69,139.93V137.8a7.07,7.07,0,0,0,1.32.85Z"/><path class="cls-16" d="M180.47,114.09a3.89,3.89,0,0,1-.15,1.31.52.52,0,0,1-.5.59.64.64,0,0,1-.69-.4,15.17,15.17,0,0,1-1.2-3.84,6.17,6.17,0,0,1-.13-1.71c0-.55.4-.74.85-.44a2.55,2.55,0,0,1,.66.73A7.36,7.36,0,0,1,180.47,114.09Z"/><path class="cls-16" d="M184.48,114.16a3.62,3.62,0,0,1-.74,2.5.85.85,0,0,1-.91.4c-.44-.06-.44-.46-.46-.7a8.85,8.85,0,0,1,.52-3.88.81.81,0,0,1,.7-.62c.36,0,.53.35.69.65A3.43,3.43,0,0,1,184.48,114.16Z"/><path class="cls-16" d="M144.23,110.13c-1.22.46-2.36,1.13-3.55,1.71-.43.2-1,.61-1.38.13s0-.93.32-1.31a5,5,0,0,1,3.94-2.15h.67a1.24,1.24,0,0,1,.63.14c.17.13.42.1.44.41a.68.68,0,0,1-.34.66Z"/><path class="cls-16" d="M148.47,144.75c-.79,0-1.11-.43-.85-1.07a2.91,2.91,0,0,1,3.13-1.49c.76.28.92.79.32,1.35A5,5,0,0,1,148.47,144.75Z"/><path class="cls-2" d="M72.43,98.34a8.39,8.39,0,0,0,3.42.79,7,7,0,0,0,5.13-2,2,2,0,0,1,.27-.22,9.69,9.69,0,0,0,.17,2.22,9.21,9.21,0,0,0,4.86,6.24,3.62,3.62,0,0,1,.32.22v21.12c-.18.21-.45.15-.68.18a7.26,7.26,0,0,0-4.85,2.57c-.31.35-.85.8-.51,1.23s.92.06,1.33-.17c1.37-.74,2.73-1.49,4-2.3.21-.13.39-.32.66-.26v13.68l-.4-.8a11.58,11.58,0,0,0-4.63-4.8,13.43,13.43,0,0,0-4.51-1.55.78.78,0,0,0-.65.05c-.37.29-.6.12-.8-.2a3.16,3.16,0,0,1,.25-1,8.69,8.69,0,0,0-1.54-8.82,7.29,7.29,0,0,0-1.49-1.22c-.19-.13-.47-.19-.45-.51v-17.1C72.41,103.24,72.43,100.82,72.43,98.34Z"/><path class="cls-16" d="M86.56,127.9a53.59,53.59,0,0,1-4.86,2.84c-.45.24-1,.52-1.42.08s.12-.85.39-1.21a7.12,7.12,0,0,1,5.89-2.9C87.15,127,87.15,127.37,86.56,127.9Z"/><path class="cls-33" d="M115.36,110.51a7.32,7.32,0,0,1,3.25-.38.48.48,0,0,0,.58-.33,6,6,0,0,1,3.28-3.25,5.35,5.35,0,0,1,4.1-.17,7.75,7.75,0,0,1,1.63,6.56c-.14.57.09.76.65.6.81-.23,1.58-.55,2.39-.76a4.66,4.66,0,0,1,4.58.92,10,10,0,0,1,3.88,6.84,6.94,6.94,0,0,1,0,2.57,7.28,7.28,0,0,1-2.91,3,9.79,9.79,0,0,1-3,1.42c-.57.14-.63.47-.23.92s.86.49,1,1a4.81,4.81,0,0,1,1.44,2.8,2.58,2.58,0,0,1-2.89,0,4.88,4.88,0,0,1-2-2.76c-.07-.23-.13-.47-.18-.71s0-.65-.38-.7-.49.26-.68.48a11.81,11.81,0,0,1-2.19,2.22c-1.56,1.09-3.18,1.51-4.93.48a4.35,4.35,0,0,1-2-2.57c-.08-.27-.12-.56-.21-.85a.43.43,0,0,0-.66-.28,3.87,3.87,0,0,0-.34.21,2.5,2.5,0,0,1-3.51-.46,2.36,2.36,0,0,1-.48-1.07c-.56-1.76-.66-1.82-2.46-1.48a4.56,4.56,0,0,1-5.18-3.7,6.58,6.58,0,0,1,2.42-3.22c.34-.27.63-.46.53-1a2.34,2.34,0,0,1,1.42-2.77.44.44,0,0,0,.31-.31A5.41,5.41,0,0,1,115.36,110.51Z"/><path class="cls-34" d="M107.87,121.08a9.7,9.7,0,0,0,1.23,2.11,4.19,4.19,0,0,0,4.38,1.35c1.34-.33,1.88.07,2.13,1.45a2.62,2.62,0,0,0,2.49,2.17,3.53,3.53,0,0,0,1.57-.69c.62-.4.85-.28,1,.45.45,2.3,2.17,3.86,4.28,3.7a5.7,5.7,0,0,0,3.88-2.22c.38-.43.73-.85,1.11-1.32.18-.2.39-.41.68-.28s.35.35.38.64a5.34,5.34,0,0,0,1.48,3.14,2.69,2.69,0,0,0,2.93.72,4.39,4.39,0,0,1,.52-.13,2.5,2.5,0,0,1-1.47,2.46,2.6,2.6,0,0,1-3-.65,16,16,0,0,1-1.58-2.19,7,7,0,0,1-3.9,2.47,6.51,6.51,0,0,1-6.6-2.35c-.26-.36-.48-.58-1-.3a4.84,4.84,0,0,1-3,.17,6,6,0,0,1-.85-.56,2.43,2.43,0,0,1-1-2.39c.06-.52-.12-.69-.66-.68a5.21,5.21,0,0,1-5.25-4.7A5.77,5.77,0,0,1,107.87,121.08Z"/><path class="cls-16" d="M115.35,140.59a7.11,7.11,0,0,1,2.1-2.46c.46-.31,1-.56,1.39-.25s.11.86-.14,1.35a19,19,0,0,1-2.44,3.47,1.3,1.3,0,0,1-.91.46c-.67-.56-.32-1.23-.21-1.87A4.33,4.33,0,0,1,115.35,140.59Z"/><path class="cls-34" d="M131.24,112.79a9.29,9.29,0,0,1-2.74,1c-.38.11-.66-.22-.56-.62a7.59,7.59,0,0,0-1.26-6.5,1.21,1.21,0,0,1-.11-.32A6.16,6.16,0,0,1,129.9,109a7.32,7.32,0,0,1,.86,3.42C130.7,112.87,131,112.79,131.24,112.79Z"/><path class="cls-34" d="M134.48,129.38a12.66,12.66,0,0,1-1.12-.94c-.53-.53-.42-1,.3-1.14a11.11,11.11,0,0,0,4.85-2.87,15.6,15.6,0,0,0,1.2-1.38,7.62,7.62,0,0,1-1.62,4A6.73,6.73,0,0,1,134.48,129.38Z"/><path class="cls-16" d="M143.83,113.41a1.32,1.32,0,0,1-1.41,1.11c-.62,0-1.28-.54-1.27-1a1.29,1.29,0,0,1,1.41-1.1C143.37,112.39,143.84,112.79,143.83,113.41Z"/><path class="cls-16" d="M119.72,141.11a2.82,2.82,0,0,1,.65-2c.37-.35.65-.29.95.06a3.16,3.16,0,0,1,.51,2.05,2.29,2.29,0,0,1-.09.9c-.12.35-.12.85-.63.85a1,1,0,0,1-1.07-.69A2.53,2.53,0,0,1,119.72,141.11Z"/><path class="cls-35" d="M95.94,181c.07,2.51.32,5,.51,7.52a14.94,14.94,0,0,1-.07,3.66,16.47,16.47,0,0,0-.14,2A16.79,16.79,0,0,1,95,199.74a2.72,2.72,0,0,1-1.5,1.6,1.33,1.33,0,0,1-1.81-.54l0-.1a11.52,11.52,0,0,1-1.15-3.81,61.33,61.33,0,0,1-.73-7.77c-.09-1.71.05-3.42.09-5.13,0-1.13.06-2.24,0-3.37a11.44,11.44,0,0,1,.48-4,2.1,2.1,0,0,1,2.44-1.67,2.34,2.34,0,0,1,.72.28,4.22,4.22,0,0,1,2.34,3.3A11.25,11.25,0,0,1,95.94,181Z"/><path class="cls-35" d="M133.92,191.15c.06-1.33-.17-2.46-.14-3.63.05-1.6.14-3.21.28-4.83.07-1-.22-1.93-.13-2.91a15.33,15.33,0,0,1,.52-3.23c.62-2,2.56-1.91,3.72-1a4.71,4.71,0,0,1,1.8,3.86c0,2.37.21,4.73.4,7.08a30.29,30.29,0,0,1,.23,4.57c-.19,2.75-.25,5.54-1.31,8.15a3.33,3.33,0,0,1-1.65,2.12,1.29,1.29,0,0,1-1.78-.42l0-.06a7.73,7.73,0,0,1-1.05-2.95A39.33,39.33,0,0,1,133.92,191.15Z"/><path class="cls-35" d="M150.44,185.21c-.18-3-.23-6-.18-8.9,0-.46-.22-.86-.06-1.36s.34-.42.61-.34a2,2,0,0,1,1.43,1.5,10.42,10.42,0,0,1,.09,4.84,9.73,9.73,0,0,1-1.41,3.79A1.35,1.35,0,0,1,150.44,185.21Z"/><path class="cls-35" d="M76.84,171.05a7.83,7.83,0,0,1,3.42,3.2,3.81,3.81,0,0,1,.24,1.16c.44,3.25-.16,6.21-2.57,8.63-.19.19-.22.54-.62.62,0-1.19-.07-2.34-.12-3.51-.08-1.71,0-3.42-.17-5.13S77.05,172.72,76.84,171.05Z"/><path class="cls-35" d="M105.87,171.06c2,1.19,3.67,2.48,3.77,5.13a11.5,11.5,0,0,1-1,5.61,17.67,17.67,0,0,1-2.27,3c0-1.32-.1-2.46-.11-3.6,0-1.71-.1-3.46-.2-5.18S106.06,172.73,105.87,171.06Z"/><path class="cls-16" d="M63.71,160.67a16.56,16.56,0,0,1-2.26,4.15c-.28.35-.64.76-1,.63s-.29-.66-.18-1.08a24,24,0,0,1,3.07-7.51c.2-.32.4-.59.85-.31a6.2,6.2,0,0,1-.21,3.36C63.83,160.15,63.65,160.37,63.71,160.67Z"/><path class="cls-16" d="M68.54,161c-.25.37-.05.86-.34,1.29a.73.73,0,0,1-1,.31.68.68,0,0,1-.21-.17,1.86,1.86,0,0,1-.43-.85A4.59,4.59,0,0,1,66.4,159c.06-.23.12-.52.38-.57a.85.85,0,0,1,.86.2A4.17,4.17,0,0,1,68.54,161Z"/><path class="cls-17" d="M72.39,122.81a8.07,8.07,0,0,1,3.08,3,8.46,8.46,0,0,1,1.1,3.57,9.46,9.46,0,0,1-.69,4.49.94.94,0,0,1-.26.45,1,1,0,0,1-.1-.95,8.08,8.08,0,0,0,.1-.86c.12-1-.47-1.38-1.54-1.4a4.36,4.36,0,0,0-.52.11c-.67.11-.94-.21-.85-.85a7.17,7.17,0,0,0,.12-2.17,2.94,2.94,0,0,0-4.64-2c-.59.37-.85.31-1.07-.27-.48-1.18-.86-1.33-2-.86l-.3.15v-1.88a.2.2,0,0,0,0-.11A8.42,8.42,0,0,1,72.39,122.81Z"/><path class="cls-36" d="M170,91.53v.11a2.49,2.49,0,0,1-.68,2.26V94H166c-.95,0-1.55-.4-1.62-1.1a1.33,1.33,0,0,1,1.11-1.52l.23,0A10.34,10.34,0,0,1,170,91.53Z"/><path class="cls-37" d="M161.87,93.77a10.07,10.07,0,0,1-2.9.15,5.08,5.08,0,0,1-1.78-.08,1.21,1.21,0,0,1-.94-1.42,1.22,1.22,0,0,1,.53-.78h.06a1.7,1.7,0,0,0,2.23-.34l.13,0a2,2,0,0,1,1.71,0l.13,0a22.69,22.69,0,0,1,.86,2.39Z"/><path class="cls-17" d="M161,91.22h-1.71c.29-.56.59-1.13.85-1.71.11-.23.24-.44.55-.39s.32.32.32.57Z"/><path class="cls-36" d="M161.94,93.66a4.68,4.68,0,0,1-.86-2.38,2.32,2.32,0,0,1,1.16.55C162.79,92.46,162.64,93,161.94,93.66Z"/><path class="cls-36" d="M159.07,91.28c-.92,1.07-.95,1.08-2.29.36v-.12A4.47,4.47,0,0,1,159.07,91.28Z"/><path class="cls-37" d="M151.18,93.93h-1.53c-.85,0-1.46-.42-1.55-1.06a1.24,1.24,0,0,1,1.14-1.46,10.08,10.08,0,0,1,4,0,1.35,1.35,0,0,1,1.13,1.41,1.61,1.61,0,0,1-1.54,1.12C152.29,94,151.74,93.93,151.18,93.93Z"/><path class="cls-37" d="M173.1,91.64a5.49,5.49,0,0,1,1.07,2.26,1.31,1.31,0,0,1-1.5-.77A1.14,1.14,0,0,1,173.1,91.64Z"/><path class="cls-37" d="M169.37,93.9a8.17,8.17,0,0,0,.67-2.26,1,1,0,0,1,.64,1.2A1.45,1.45,0,0,1,169.37,93.9Z"/><path class="cls-38" d="M85.94,93.93H84.47c-.93,0-1.53-.39-1.63-1a1.27,1.27,0,0,1,.92-1.52,1.63,1.63,0,0,1,.31,0,10.65,10.65,0,0,1,3.9.06,1.33,1.33,0,0,1,1.15,1.31,1.52,1.52,0,0,1-1.57,1.22Z"/><path class="cls-38" d="M77.75,93.93H76.27c-.85,0-1.5-.41-1.59-.92a1.28,1.28,0,0,1,.83-1.6,2.25,2.25,0,0,1,.36-.06,10.18,10.18,0,0,1,3.89,0A1.33,1.33,0,0,1,81,92.71a1.5,1.5,0,0,1-1.6,1.18Z"/><path class="cls-38" d="M94,93.93H92.57c-.85,0-1.47-.4-1.56-1-.14-.86.18-1.35,1.15-1.54a10.05,10.05,0,0,1,3.94,0,1.33,1.33,0,0,1,1.17,1.3,1.51,1.51,0,0,1-1.56,1.23C95.16,94,94.6,93.93,94,93.93Z"/><path class="cls-38" d="M105.43,93h-.11c-.75.4-1.4,0-2.08-.26-.33-.14-.64-.58-1-.32s0,.69,0,1c0,.14.09.3,0,.43V94h-1.46c-.92,0-1.52-.4-1.62-1a1.28,1.28,0,0,1,.91-1.56,1.14,1.14,0,0,1,.37,0,10.66,10.66,0,0,1,3.9.07C105.19,91.62,105.44,92.05,105.43,93Z"/><path class="cls-38" d="M70.93,93.9a9.33,9.33,0,0,1-1.71-2.62c.64,0,1.28,0,1.92,0,.86,0,1.71.71,1.71,1.34S72.16,93.85,71.2,94Z"/><path class="cls-38" d="M109.59,91.28a8,8,0,0,1-2.26,1.31,1.47,1.47,0,0,1,1.54-1.34C109.11,91.24,109.35,91.27,109.59,91.28Z"/><path class="cls-30" d="M102.22,93.9c-.1-.34-.18-.68-.31-1a.61.61,0,0,1,.19-.71c.2-.22.42-.06.59.06a3.94,3.94,0,0,0,2.63.76,1.32,1.32,0,0,1-1.3.93A15.44,15.44,0,0,1,102.22,93.9Z"/><path class="cls-39" d="M63.46,91.41c.26.77,0,1.6.26,2.37-.31.24-.68.15-1,.15H59.76a1.29,1.29,0,0,1-1.41-1.13,1.35,1.35,0,0,1,0-.4,1.3,1.3,0,0,1,1.32-1.09c1.17-.09,2.36,0,3.54,0C63.3,91.28,63.38,91.36,63.46,91.41Z"/><path class="cls-26" d="M144.24,93.92V91.25a2.07,2.07,0,0,1,1.67.6,1,1,0,0,1,.25,1.14,1.54,1.54,0,0,1-1.25.93A3.75,3.75,0,0,1,144.24,93.92Z"/><path class="cls-16" d="M82.7,120.67c.24,0,.52-.06.62.21a.84.84,0,0,1-.09.85c-.66,1-1.46,1.82-2.21,2.73-.4.49-.85,1-1.29,1.43-.24.24-.6.44-.86.24a.84.84,0,0,1-.24-.9,5.81,5.81,0,0,1,3.63-4.4,1.12,1.12,0,0,1,.25-.11S82.64,120.68,82.7,120.67Z"/><rect class="cls-40" width="250" height="250"/></svg>