<svg id="Layer_1" data-name="Layer 1" xmlns="http://www.w3.org/2000/svg" viewBox="0 0 250 250"><defs><style>.cls-1{fill:#16c5ca;}.cls-2{fill:#03a4a9;}.cls-3{fill:#c2c2c2;}.cls-4{fill:#17c5ca;}.cls-5{fill:#18c5ca;}.cls-6{fill:#a8a8a8;}.cls-7{fill:#fff;}.cls-8{fill:#fdffff;}.cls-9{fill:#04a5aa;}.cls-10{fill:#05a4a9;}.cls-11{fill:#e6e6e6;}.cls-12{fill:#c5cbca;}.cls-13{fill:#51e3e8;}.cls-14{fill:#1dc7cb;}.cls-15{fill:none;}</style></defs><title>products</title><path class="cls-1" d="M31.29,206.75c-.05-4.72-.16-9.45-.16-14.17V119c0-1.92.14-3.84.22-5.76,1.62-2.07,3.81-1.8,5.87-1.8q61.94-.06,123.84-.06a10.09,10.09,0,0,1,4.85.83c1.8,1.28,1.13,3.37,1.17,5.2.16,7-.62,14,.59,20.86.12.68.37,1.52-.09,2-3.61,3.84-7.77,7-11.11,11.3-1.28,1.65-2.9.1-3.88-1.16a44.61,44.61,0,0,0-17-13.29c-2.19-1-2.88-2.81-2.14-5.46.43-1.47,1.2-2.82,1.23-4.87-3.53,0-6.31,2-9,3.81a25,25,0,0,1-10,4.18c-10.34,1.8-19.35,7-26.65,16-4.95,6.1-5.24,10.81-.12,16.87,7,8.25,15.43,14,25.4,15.47a23.72,23.72,0,0,1,10.89,4.14,25.86,25.86,0,0,0,8.79,4.36c.53-.39.7-.69.63-1.06-1.7-7.92-1.7-7.92,4.66-11.31a40.12,40.12,0,0,0,12.22-9.58c3.53-4.18,4.3-4.08,7.5.14a27.14,27.14,0,0,0,4.77,4.75,7.82,7.82,0,0,1,3.2,5.47c.41,5.61.14,11.23.21,16.83.08,6.78.39,7.2,6.06,7.2,13,.06,26,0,39,0,2.2,0,4.5-.34,6.41,1.61v1c-1.71,1.87-3.86,1.72-6,1.72q-87.73.06-175.48,0C35.13,208.48,33,208.77,31.29,206.75Z"/><path class="cls-2" d="M218.62,205.73H170.29c-4.51,0-4.51,0-4.55-5.1V178.06c3.26-1.5,5.76,2.35,9.27,1.75a61.92,61.92,0,0,1,.07-41c-2.87-1.2-5,2.59-7.52.66-.9-.22-1.76-.59-1.8-1.89,0-7.57-.33-15.15.17-22.72a4.76,4.76,0,0,1,.55-1.41c1.35-2.18,3.41-2,5.31-2q20.73-.08,41.35-.05c1.94,0,3.93,0,5.4,1.85.08,1.22.22,2.44.22,3.66v85.66C218.78,203.63,218.68,204.68,218.62,205.73Z"/><path class="cls-3" d="M31.23,96.28c-.66-.37-1.31-.78-2-1.12-8.64-4.41-10-17-2.7-24.17,3.77-2,7.74-2.17,11.8-2.16q62.82.09,125.62,0a47.08,47.08,0,0,1,5.82.13c1.16,1.72,1.16,1.72-1,2.7,7.91,7.48,6.42,20.23-2.88,24.59a15.79,15.79,0,0,1-3.4,1.26,28.24,28.24,0,0,1-5.81.36q-59.1,0-118.23,0C36,97.87,33.37,98.52,31.23,96.28Z"/><path class="cls-3" d="M30.15,248.92c0-1.06-.71-1.44-1.36-1.8C24,244.46,21.58,240,22.11,233.8s3.85-9.91,9-11.36c1.63-1.6,3.61-1.52,5.56-1.52q61.47-.06,122.94,0a19.37,19.37,0,0,1,4,.33,13.39,13.39,0,0,1,9.9,9.56,14.22,14.22,0,0,1-8.88,18c-42,.13-84,0-126,0C35.75,248.86,33,249.67,30.15,248.92Z"/><path class="cls-4" d="M31.23,96.28c11.51,0,23-.09,34.53-.1h92.86c1.81,0,3.61-.13,5.41-.19a1.66,1.66,0,0,1,2.25.72h0c.16.67.05-.22.19.46,1.89,9,1.89,9,10,9h35.76c2.21,0,4.51-.34,6.41,1.57a1.15,1.15,0,0,1,0,1c-1.68,1.89-3.82,1.8-5.9,1.8q-87.79.06-175.62,0c-2,0-4.23.23-5.87-1.8Z"/><path class="cls-5" d="M164.84,222.74c-2.08-.07-4.17-.18-6.25-.18h-123c-1.49,0-3-.06-4.5-.09.09-3.69.17-7.37.26-11.05,1.92-2.78,4.64-2,7.09-2.06,17.32-.08,34.66,0,52,0q60.08,0,120.14.05c2.7,0,5.76-1,7.94,2.11a.63.63,0,0,1,.05.71c-1.88,1.93-4.2,1.49-6.39,1.5-12,.05-24.09,0-36.14,0-7.74,0-7.74,0-9.75,8.39A1.11,1.11,0,0,1,164.84,222.74Z"/><path class="cls-6" d="M165.78,96.38,164,96c2.7-1.35,5.41-2.7,7.09-5.94,3-5.89,2.36-11.78-1.92-16.58-.53-.59-1.11-1.12-2-2,1.23-1.09,3.05.08,3.94-1.47,1.47-1.74,3.36-1.11,5.08-1.11q19.88-.06,39.74,0c3.94,0,7,2.55,10,5.1,4.44,8.19,2.17,17.48-5.21,21.21-.68.34-1.34.72-2,1.08a6,6,0,0,1-4.58,1.58q-21.85.15-43.72,0C168.77,97.87,167.11,97.78,165.78,96.38Z"/><path class="cls-6" d="M164.84,222.74l.9-.44c1.67-1.51,3.65-1.37,5.57-1.38q20.77-.06,41.53,0c2.09,0,4.2,0,6,1.5,6.36,2.32,9.24,6.61,9.07,13.38a12.8,12.8,0,0,1-5.41,10.67c-1,.7-2.3.79-2.78,2.32a1,1,0,0,1-1.37.36,10,10,0,0,0-2.39-.22H170.85c-1.72,0-3.6.59-5.12-1,.81-.76,1.59-1.55,2.43-2.25a13.54,13.54,0,0,0-.95-21.54C166.44,223.57,165.42,223.69,164.84,222.74Z"/><path class="cls-7" d="M31.28,108.76H218.64a10.35,10.35,0,0,1-.07,4.5l-52,.14c-1.19-.06-2.38-.18-3.6-.18H31.32A12.38,12.38,0,0,1,31.28,108.76Z"/><path class="cls-8" d="M218.5,211.46c-16.27-.05-32.53-.15-48.81-.15q-69.18,0-138.36.09a13.45,13.45,0,0,1,0-4.65H218.67A9.51,9.51,0,0,1,218.5,211.46Z"/><path class="cls-9" d="M165.78,96.38c11.67-.07,23.33-.16,35-.19,6,0,12,.06,17.95.09l-.08,11.5h-48.8c-4-.09-4-.09-4.1-4.58C165.71,100.94,165.77,98.66,165.78,96.38Z"/><path class="cls-10" d="M218.87,222.41c-17.7.16-35.4.38-53.13-.11.3-3.23-1.31-7.21.84-9.5,1.88-2,5.14-.66,7.79-.67H218.5Z"/><path class="cls-11" d="M217.76,70h-46.6c-4.19,0-8.36,0-12.54,0H36.39c-2.83,0-5.7-.35-8.25,1.64-.55.43-1.14,0-1.52-.59,2.45-2.77,5.48-3.24,8.7-3.23,16.61,0,33.21,0,49.82,0H213.49c2.36,0,4.81-.49,7,1.15C220.17,71.45,218.82,70.22,217.76,70Z"/><path class="cls-12" d="M217.76,70c.9-.2,2,.18,2.7-1.07,2.54.62,4.25,2.51,5.5,5.06-.23.18-.62.55-.66.51C223.14,72.12,220.38,71.21,217.76,70Z"/><path class="cls-7" d="M167.58,139.43c3.09-1,5.93-3.12,9.9-3.25-6.45,15.5-6.53,30.72.06,46.12-4.57-.26-8-2.92-11.78-4.24-3.8-3.32-7.86-6.31-10.28-11.91a40.39,40.39,0,0,1-19.6,16.06c-1.72.68-2,1.8-1.46,3.6.82,2.57,1.72,5.11,2.7,8.17a30.2,30.2,0,0,1-13.89-6.41,13.18,13.18,0,0,0-7-2.77c-11.35-1.29-20.71-7.33-28.6-16.81a13.49,13.49,0,0,1-.86-1.23c-4.08-6.06-4.13-9.4.23-15.31C93.6,142.39,102,136.51,112,134.34c5.3-1.18,10.32-2.45,14.94-6a17.06,17.06,0,0,1,10.1-3.72c-.94,2.7-1.72,4.89-2.48,7.09s-.86,3.74,1.64,4.71c7.54,2.9,13.92,7.93,19.18,16C158.26,146.12,162.88,142.72,167.58,139.43Z"/><path class="cls-13" d="M44.54,159.11c0-7-.19-14,.05-21,.25-7.52,2.87-13.86,9.15-16.58,8.77-3.81,18.12.47,20.42,11.71a26.86,26.86,0,0,1,.9,5.64c-.06,13.67.16,27.34-.1,41-.15,7.73-3.32,13.51-9.56,16.91-9.9,5.41-20.71-4.63-20.84-15.56C44.49,173.82,44.54,166.46,44.54,159.11Z"/><path class="cls-11" d="M72.36,88.86H43.64c-1.87,0-3.51-.24-4.9-2a6.16,6.16,0,0,1-1.16-5.8,4.55,4.55,0,0,1,3.49-3.6,14.3,14.3,0,0,1,3.13-.17H99.85a12.57,12.57,0,0,1,3.12.24,5.85,5.85,0,0,1-.11,11.09,15,15,0,0,1-3.6.21Z"/><path class="cls-11" d="M72.24,240.53c-10,0-20,.05-30,0-3.71,0-5.3-2.19-4.89-6.18.26-2.56,1.48-4,3.76-4.33a18.7,18.7,0,0,1,2.7-.05H102a5.49,5.49,0,0,1,5.08,5.4,5.4,5.4,0,0,1-5.28,5.15C91.94,240.57,82.09,240.53,72.24,240.53Z"/><path class="cls-14" d="M99.48,155.41c-.14,1.8-1,3-2.78,3.09s-3.08-1.59-2.87-3.61,1.28-3,3-3S99.53,153.35,99.48,155.41Z"/><rect class="cls-15" width="250" height="250"/></svg>