<svg id="Layer_1" data-name="Layer 1" xmlns="http://www.w3.org/2000/svg" viewBox="0 0 250 250"><defs><style>.cls-1{fill:#458f7e;}.cls-2{fill:#f0f0f0;}.cls-3{fill:#d1d1d1;}.cls-4{fill:#9e9e9e;}.cls-5{fill:#266f68;}.cls-6{fill:#3f8373;}.cls-7{fill:#ffc16e;}.cls-8{fill:#e99221;}.cls-9{fill:#ffa024;}.cls-10{fill:#1c534e;}.cls-11{fill:#1f5b55;}.cls-12{fill:#b54c50;}.cls-13{fill:#b44c50;}.cls-14{fill:#b44d50;}.cls-15{fill:#fea024;}.cls-16{fill:#99ae62;}.cls-17{fill:#84924b;}.cls-18{fill:#215c56;}.cls-19{fill:#215d56;}.cls-20{fill:#efa439;}.cls-21{fill:#23655f;}.cls-22{fill:#bc9e57;}.cls-23{fill:#889c56;}.cls-24{fill:#869751;}.cls-25{fill:#276f68;}.cls-26{fill:#889b56;}.cls-27{fill:#468e7d;}.cls-28{fill:#225d57;}.cls-29{fill:#478e7d;}.cls-30{fill:#285b56;}.cls-31{fill:#bb9b54;}.cls-32{fill:#899b56;}.cls-33{fill:#879651;}.cls-34{fill:#869651;}.cls-35{fill:none;}</style></defs><title>products</title><path class="cls-1" d="M85.52,231.73c0-.49.06-1,.06-1.47V100.05a7.65,7.65,0,0,0-.08-1.35h.3c.65.43.56,1,.56,1.59v39.49c-.1,3.31-.72,3.19,3.75,2.5,8.07-1.28,15-4.41,21.59-8.24A88.82,88.82,0,0,1,125,127.18a37.29,37.29,0,0,1,9.62-2,4.36,4.36,0,0,1,2,.17,1.12,1.12,0,0,1,.58,1.07c.06,3,.1,5.93,0,8.89a1.38,1.38,0,0,1-.2.59,1.48,1.48,0,0,1-1.18.46,23.06,23.06,0,0,0-12.43,2.83,16.2,16.2,0,0,0-4,3.19c-.37.38-.64.85-1.33,1a4.61,4.61,0,0,1-2.21-1,10.07,10.07,0,0,0-10-.65,3.7,3.7,0,0,0-2.44,4,2,2,0,0,0,2.22,1.55,2.8,2.8,0,0,0,.58-.09c.45-.08.89-.2,1.33-.31a17.64,17.64,0,0,1,14.62,3,44.57,44.57,0,0,1,7,6.54,25.56,25.56,0,0,0,7.44,5.76.94.94,0,0,1,.62.8c-.13,1.54.08,3.09-.14,4.63a.88.88,0,0,1-.21.34c-1.62.17-2.79-.65-4-1.31a29.23,29.23,0,0,1-7.4-6.27c-.25-.26-.52-.51-.8-.75a1.6,1.6,0,0,1-.25-.27,6.45,6.45,0,0,0-.78-.79,24.27,24.27,0,0,0-8.32-5.88c-8.23-3.19-17,1.14-17.42,8.42-.47,8.09,6.87,14.77,14,16.91,8,2.39,17,.31,22.08-5.1a4.77,4.77,0,0,1,1.07-1c1.07-.09,1.45.56,1.91,1.13a1.62,1.62,0,0,1,.12.43c.13,3.6.11,7.21,0,10.81a1.43,1.43,0,0,1-.09.41,17.2,17.2,0,0,1-6.14,4.32,1.23,1.23,0,0,1-.43-.1c-1.12-1.22-1.67-2.68-2.74-4-1.41,1.59-1.9,3.46-3.44,4.88a6.35,6.35,0,0,1-2.26-.05,2.49,2.49,0,0,0-1.83.31c1.64.43,2.59,1.18,2,2.62a8.84,8.84,0,0,1-4.54.79c-.73-.29-.85-.89-1.1-1.41a4.33,4.33,0,0,0-3.35-2.47,1.94,1.94,0,0,0-2.31.73.85.85,0,0,0-.11.26,6.18,6.18,0,0,0-.54,2,1,1,0,0,1-.86,1.18,5.81,5.81,0,0,1-2.81-.12c-.5-.42-.24-.92-.23-1.39a5.67,5.67,0,0,0-.6-3,3.87,3.87,0,0,0-2.48-1.87c-1.58-.44-2.19,0-2,1.27a16,16,0,0,1,.37,3.64,1.43,1.43,0,0,1-.51,1.35,6.35,6.35,0,0,1-2.57.21,55.7,55.7,0,0,0-10.09.8c-2.13.34-2.17.38-2.19,2.06V200c.11,6.74,0,13.47,0,20.21v12.26a2.62,2.62,0,0,1-.38,1.9c-.6.26-.67-.17-.76-.43A2.41,2.41,0,0,1,85.52,231.73Z"/><path class="cls-2" d="M80.63,93.3c-.09-.1-.25-.2-.25-.3a21.37,21.37,0,0,1,.16-5.24.92.92,0,0,0,.07-.36c-.36-2.11,1.44-3.19,3.23-4.22a19.74,19.74,0,0,1,4.35-1.81,87.3,87.3,0,0,1,13.45-2.84c2.51-.33,5-.66,7.55-.87,1.66-.15,3.35-.25,5-.36,2.61-.18,5.23,0,7.81-.26a43.13,43.13,0,0,1,6.43-.15c2.81.18,5.62.1,8.43.23,3.1.16,6.19.4,9.27.74A105.44,105.44,0,0,1,164,81a21.13,21.13,0,0,1,7.13,3.26,3.36,3.36,0,0,1,1.57,2.31c0,.39.42.53.63.8-.22.27-.32.58-.53.85a9.92,9.92,0,0,1-4.49,3.36,60,60,0,0,1-15.18,3.89,175,175,0,0,1-18.32,1.6c-4.2.17-8.4.28-12.59.16-11-.34-21.9-1.06-32.41-3.93a28.7,28.7,0,0,1-6.61-2.52,6.2,6.2,0,0,1-2.15-1.74C80.87,90.44,81.53,91.91,80.63,93.3Z"/><path class="cls-3" d="M172.72,87.89c0,1.47.06,2.94,0,4.41a4.29,4.29,0,0,1-2.24,3.3c-.73.5-1.56.91-2.35,1.36a8.59,8.59,0,0,1-3.64,1.83A98.75,98.75,0,0,1,146,102.51a173.59,173.59,0,0,1-26.4.94,129.69,129.69,0,0,1-25.93-3.18,58.06,58.06,0,0,1-6.88-2.2,4,4,0,0,1-2.14-1.33c-1.67-.92-3.3-1.86-4.06-3.44V88.15a12.82,12.82,0,0,0,2.72,2.39,29.17,29.17,0,0,0,5.78,2.26,87.86,87.86,0,0,0,13.79,2.73c3.47.43,7,.75,10.46,1,1.83.13,3.69,0,5.49.23a101.12,101.12,0,0,0,10.43.2c3.43,0,6.82-.26,10.23-.42,2.55-.12,5.09-.35,7.61-.59,2.83-.26,5.62-.75,8.42-1.19a55.21,55.21,0,0,0,9.38-2.21,19.79,19.79,0,0,0,6.38-3.08C171.85,89,172.18,88.38,172.72,87.89Z"/><path class="cls-3" d="M170,235.41c0,1.27,0,2.53.05,3.8a3.2,3.2,0,0,1-1.31,2.53,17.38,17.38,0,0,1-6.49,3.19,93.47,93.47,0,0,1-16.49,3.27c-9.06,1.14-18.17,1.09-27.28.89-3.47-.11-6.93-.39-10.36-.84s-6.66-.87-9.94-1.52a51.37,51.37,0,0,1-9.93-2.88,1.54,1.54,0,0,0-.74-.07,3.86,3.86,0,0,0-1.6-1.07,5.74,5.74,0,0,1-2.46-2.39,32.67,32.67,0,0,1-.16-4.53c.36-.2.56-.12.68,0,2.37,2.3,5.7,3.33,9.08,4.18a120.09,120.09,0,0,0,21.63,3c3.27.22,6.55.12,9.82.38,3.93.32,7.89-.14,11.83-.25a129.53,129.53,0,0,0,15.27-1.42,72.47,72.47,0,0,0,12-2.67,12.23,12.23,0,0,0,5.56-3.19A.94.94,0,0,1,170,235.41Z"/><path class="cls-2" d="M170,235.41c-1.7,2.48-4.72,3.52-7.82,4.4a86.34,86.34,0,0,1-12.77,2.51c-2.87.37-5.75.65-8.63.88a48.38,48.38,0,0,1-5.65.3c-3.23-.13-6.44.45-9.66.23-2.86-.2-5.73-.09-8.58-.25-4-.22-7.92-.52-11.85-1a76.51,76.51,0,0,1-15-3,23.67,23.67,0,0,1-5-2.19,19.26,19.26,0,0,1-1.68-1.41v4.42a.71.71,0,0,1-.3-.65,26.83,26.83,0,0,1,.33-5.8c.18-1,1.2-1.55,2.09-2.14.25.91-.25,1.86.31,2.75,3.83,3.36,9.09,4.24,14.29,5.14a124.7,124.7,0,0,0,20.73,1.82c2.2,0,4.38.41,6.59.24,3.16-.25,6.33-.16,9.49-.36,4.76-.21,9.51-.66,14.2-1.34a66.4,66.4,0,0,0,11-2.47,14,14,0,0,0,2.82-1.23c1.39-.8,2.38-1.79,2.2-3.29a1,1,0,0,1,.49-1.22A3.24,3.24,0,0,1,170,235.41Z"/><path class="cls-4" d="M84.69,96.74c5.33,2.5,11.2,3.72,17.2,4.66,3.75.59,7.55.93,11.36,1.27a191.06,191.06,0,0,0,21,.38c3.68-.12,7.36-.41,11-.86,4-.45,8.05-1.07,12-1.87A57.19,57.19,0,0,0,168.13,97c0,.54-.53.87-.89,1.25-.08.91-1,1.3-1.8,1.69a43.45,43.45,0,0,1-11,3.25A118.52,118.52,0,0,1,138.67,105c-.67,0-1.31.2-2,.22-4.2,0-8.39.41-12.59.26-9.78-.35-19.53-.8-29-3a31.81,31.81,0,0,1-9.4-3.67.25.25,0,0,1-.17,0A2,2,0,0,1,84.69,96.74Z"/><path class="cls-5" d="M85.66,98.72c0-.19-.16-.39.08-.6,3.25,2.61,7.52,3.54,11.77,4.43A103.87,103.87,0,0,0,111,104.36c3.26.27,6.53.35,9.79.54s6.46.16,9.68.12c2.09,0,4.18-.23,6.28-.18a2.25,2.25,0,0,1,.47,1.85c.11,2.46-.24,4.93.24,7.38a.4.4,0,0,1-.36.47,2.78,2.78,0,0,1-.91,0c-5.23-.33-5.23-.33-7.6-4.1a3,3,0,0,0-.87-1.12,7.1,7.1,0,0,0-1.68,2.52,4.4,4.4,0,0,1-4.14,2.45,18.69,18.69,0,0,0-3.89.53c1.24,1,2.43,2,3.63,2.92a2,2,0,0,1,.86,2.21c-.31,1.23-.55,2.49-.82,3.89a23.39,23.39,0,0,0,4.5-1.72A3.4,3.4,0,0,1,129,122a42.07,42.07,0,0,0,4.48,1.84,9,9,0,0,0-.47-3.28c-.48-1.89.83-3.77,3.1-4.45.43-.13.69-.05.84.28a33.65,33.65,0,0,1,0,7.77c-.34.59-1.07.58-1.71.66-2.18.23-4.37.41-6.53.79-5.68,1-10.51,3.4-15.15,6.06a70.17,70.17,0,0,1-25.3,8.49,3.5,3.5,0,0,1-2.39,0v-40C85.87,99.68,86.05,99.17,85.66,98.72Z"/><path class="cls-5" d="M137.13,241.58a8.18,8.18,0,0,1-3,.22c-3.12,0-6.23.3-9.35.2-8.56-.27-17.12-.62-25.52-2.15a46.92,46.92,0,0,1-9.71-2.59,10.45,10.45,0,0,1-2.84-1.64,2,2,0,0,1-.83-1.14V199.81c1-1,2.52-1.37,3.88-1.88a52.65,52.65,0,0,1,10.37-2.59c.56-.1,1.21-.32,1.68.21.39,2-.19,4-.21,5.95-.36.67-1.17.71-1.91.79a30.06,30.06,0,0,0-3,.42c2.23,1.77,4.2,3.48,6.42,5,.61.42,1.38.79,1,1.59-1.75,1.29-2.06,2.91-2.18,4.78a63.85,63.85,0,0,0-.2,7.57c.15,2.72.25,5.47,1.48,8.08.71,2,3.35,3.2,5.89,2.63l.2,0a4.21,4.21,0,0,0,2.77-1.79,5.44,5.44,0,0,1,3.12-1.27,3.41,3.41,0,0,1,.66,1.59c.13.38.2.9.85.85s.73-.6.77-1.05a15.52,15.52,0,0,1-.22-1.8,1.32,1.32,0,0,1,.19-.59c1-.67,1.92-1.41,3.4-1.12.49,1,.16,2.1.53,3.13.12.31.12.65.27.95s.24.57.7.55.56-.34.61-.62c.15-.94,0-1.88.08-2.81a6.9,6.9,0,0,1,.19-2.39c1-1,2.59-1.38,4-1.93a1.63,1.63,0,0,1,1.65.38c.91,1.74.61,3.59.76,5.4.05.65-.68.94-1.43,1.09-.33.07-.76.12-.74.5s.41.45.77.47a25.76,25.76,0,0,0,4.12,0c.35,0,.75-.12.81-.46s-.22-.58-.6-.62a1.62,1.62,0,0,1-1.5-2.07c.11-.94-.46-1.93-.11-2.91.52-.49,1-.13,1.5,0,1.38.53,2.76,1.05,4.11,1.63a.87.87,0,0,1,.61.89c0,4,.05,8,0,11.95A4.44,4.44,0,0,1,137.13,241.58Z"/><path class="cls-6" d="M167.5,124.23v45.14a15,15,0,0,1-3.79.93,48.93,48.93,0,0,0-17.81,8c-2.27,1.59-4.36,3.34-6.56,5a4.64,4.64,0,0,1-2.63,1.36V173.06c.87-.13,1.4.41,2,.69,3.6,1.6,7.5,1.18,10-1a4.19,4.19,0,0,0,1.22-1.82c.62-1.84-.89-3.1-3.17-2.6a21.78,21.78,0,0,1-5.59.68,16.69,16.69,0,0,1-3.16-.43c-.52-.12-1.12-.21-1.33-.72V163.9c0-.39-.17-.8.31-1.15s1.08,0,1.58.15c7.77,2.51,15.31-1.09,16.53-7.67,1.54-8.37-6.87-17.06-16.89-18.62-.57-.09-1.27,0-1.54-.63V126.5c0-.42.22-1-.62-1.06,0-.42.44-.46.82-.54,5.73-.16,11.47-.09,17.21-.07a89.11,89.11,0,0,0,11.32-.67A3.27,3.27,0,0,1,167.5,124.23Z"/><path class="cls-7" d="M135.22,171.93c-3.71,4.78-9.11,7.1-16.08,7.31-10.59.32-19.75-6.88-21.31-14.34a11.42,11.42,0,0,1,.88-8c1.42-2.88,4.61-4.95,8.43-5.49a16,16,0,0,1,11.12,2.18,25.85,25.85,0,0,1,5.87,4.89,2.54,2.54,0,0,0,.63.8h0a8.54,8.54,0,0,0,.84,1c2.91,3.55,5.53,7.26,9.06,10.48C134.94,171.08,135.46,171.4,135.22,171.93Z"/><path class="cls-8" d="M136.7,136c1,.21,2.08.4,3.11.63a22,22,0,0,1,12.6,7.75,14.22,14.22,0,0,1,3.3,8.06,9.87,9.87,0,0,1-3.21,8.44,14.57,14.57,0,0,1-14.21,2.31,4.52,4.52,0,0,0-1.27-.42l-.68-.44a4.34,4.34,0,0,1-.14-1.34V138.86a4.2,4.2,0,0,0-.73-2.8Z"/><path class="cls-9" d="M135.49,136.06c1.2.39,1.21.39,1.21,1.47v23.52c0,.43.2.92-.35,1.26a19.68,19.68,0,0,1-5.77-4.05,10,10,0,0,1-1.55-1.64c-3.51-4.13-6.51-8.55-10.65-12.34-.31-.28-.81-.56-.45-1.05a17.87,17.87,0,0,1,6-4.78A22.29,22.29,0,0,1,135.49,136.06Z"/><path class="cls-7" d="M117.92,143.23a6,6,0,0,0,1.72,1.84,66,66,0,0,1,7.16,8.36,12.58,12.58,0,0,1,2.22,3.18c-1.42-1.12-2.44-2.5-3.74-3.69a22.89,22.89,0,0,0-7.12-4.94,16.92,16.92,0,0,0-11.11-.8,6.11,6.11,0,0,1-.74.17c-2,.41-3.31-.27-3.52-1.94a4,4,0,0,1,2.69-4.1c3.45-1.77,7-1.38,10.41.6C116.59,142.34,117.25,142.8,117.92,143.23Z"/><path class="cls-10" d="M136.72,184.63a39.16,39.16,0,0,0,5.07-3.72A61.22,61.22,0,0,1,153,173.66a47.06,47.06,0,0,1,10.23-3.56,16.87,16.87,0,0,1,4.32-.76v3.94a2.92,2.92,0,0,1-1.63.61,56.07,56.07,0,0,0-22.65,9.2c-1.65,1.15-3.21,2.39-5,3.49-.47.28-.86.75-1.6.45a1.64,1.64,0,0,1,0-2.21C136.71,184.81,136.71,184.7,136.72,184.63Z"/><path class="cls-11" d="M136.7,125.19a.81.81,0,0,0-.63.25,34.47,34.47,0,0,0-14.35,3.47c-4.69,2.25-9,5-13.49,7.42a57.73,57.73,0,0,1-18.33,6.26c-1,.17-2,.35-3,.47-.79.11-1,0-1-.7v-2.21A78.36,78.36,0,0,0,100.77,137a52.4,52.4,0,0,0,8.6-3.47c3.1-1.64,6.16-3.34,9.35-4.87a36.68,36.68,0,0,1,12.69-3.72c1.76-.16,3.52-.37,5.3-.47l.14.12A.43.43,0,0,1,136.7,125.19Z"/><path class="cls-8" d="M136.68,167.82a15.52,15.52,0,0,0,8.83.39c.59-.14,1.18-.26,1.78-.37a2.33,2.33,0,0,1,2.75,1,3.12,3.12,0,0,1-.92,4.05,9.3,9.3,0,0,1-8.81,1.75,17.44,17.44,0,0,1-3.6-1.6.61.61,0,0,1,0-.19,5.59,5.59,0,0,1,0-4.92A.14.14,0,0,1,136.68,167.82Z"/><path class="cls-12" d="M109.6,193.46c.54-.73.28-1.59.54-2.39.56-1.75,1.14-2.7,4.34-1.59a4.27,4.27,0,0,1,2.45,2.23c.27.48.46,1,.68,1.49a1.6,1.6,0,0,1,.5,1c.5,1.66.16,3.34.24,5a10.93,10.93,0,0,1-.83,4.93,3.82,3.82,0,0,1-1.72,2,4.08,4.08,0,0,1-4.85-.79l-.08-.11a7.62,7.62,0,0,1-1.5-4.42c-.48-2-.18-4-.22-6A1.45,1.45,0,0,1,109.6,193.46Z"/><path class="cls-11" d="M101.47,195.4c-2.56.5-5.15.92-7.65,1.59a41.48,41.48,0,0,0-7.49,2.73,1.63,1.63,0,0,1-.44.08v-4c0-1.11.07-1.11,1.4-1.36a66.82,66.82,0,0,1,14-1A1.39,1.39,0,0,1,101.47,195.4Z"/><path class="cls-13" d="M101.47,195.4l-.21-2a17.07,17.07,0,0,0-.51-5.32c-.26-1,.07-1.33,1.43-1.32a4.41,4.41,0,0,1,3.73,1.82,5.48,5.48,0,0,1,.69,4.84c.32.64-.17,1.15-.44,1.7a2.5,2.5,0,0,1-.77.89c-2,1.06-2,2.67-1.85,4.3v1.46a18.76,18.76,0,0,1,0,3.18,1.22,1.22,0,0,1-1.39,1.2,1.2,1.2,0,0,1-1.29-1.06s0-.07,0-.1c0-1.07-.42-2.19.41-3.18C101.34,199.68,101.4,197.54,101.47,195.4Z"/><path class="cls-14" d="M122.13,192.47v-.24c0-1-.23-1.86-1.91-1.77a.6.6,0,0,1-.67-.5v-.05a.64.64,0,0,1,.68-.62h.09a10.69,10.69,0,0,1,2.59.11,4.56,4.56,0,0,0,1.52.05c.84-.33,1.67-.31,2,.45s-.42,1.1-1.22,1.2-1,.48-.94,1c.09,1.06-.19,2.14.23,3.19.18,2.89.7,5.76.72,8.65,0,.79.18,1.83-1.35,2-1,.1-1.43-.54-1.42-1.93,0-3.63-.82-7.23-.56-10.85A1.25,1.25,0,0,1,122.13,192.47Z"/><path class="cls-15" d="M136.71,168v4.92l-1.46-.94c-1.24-1.28-2.51-2.53-3.71-3.84a77.08,77.08,0,0,1-6.23-7.77c-.11-.26,0-.31.31-.26,1.3,1.24,2.56,2.51,3.89,3.73A20.51,20.51,0,0,0,136.71,168Z"/><path class="cls-16" d="M123.77,192v-.49c0-.51.18-.8.88-.71a2,2,0,0,0,.6.06c.46-.07.91-.23.94-.67s-.39-.62-.89-.65l-.92-.07c.91-1.8,2.15-3.47,3.34-5.49,1,1.77,2.13,3.19,2.86,4.78.28.31.08.54-.19.74a19.83,19.83,0,0,1-5.75,2.62A1,1,0,0,1,123.77,192Z"/><path class="cls-17" d="M123.77,192c2.56-.66,5-1.44,6.78-3.19h.3a1.11,1.11,0,0,1,.57.6A1.7,1.7,0,0,1,131,191a11.39,11.39,0,0,1-3.68,1.7c-1.59.42-3,.93-3.3,2.43C123.47,194.14,123.88,193,123.77,192Z"/><path class="cls-11" d="M131.18,189.36a.59.59,0,0,1-.33-.56,36.46,36.46,0,0,0,4.72-3.19,4.23,4.23,0,0,1,1.13-.79c.12.73-.28,1.51.31,2.19.14.38-.27.5-.49.71a7.63,7.63,0,0,1-3,1.71Z"/><path class="cls-18" d="M122.13,192.47l.06.51c-.21.48-.24,1.05-1,1.22-1.14.16-2.28.6-3.41,0a7.78,7.78,0,0,0-.11-1A31.71,31.71,0,0,0,122.13,192.47Z"/><path class="cls-19" d="M105.93,194.92c.23-.49.45-1,.67-1.47h3v1.21A3.7,3.7,0,0,1,105.93,194.92Z"/><path class="cls-20" d="M125.59,160.06l-.31.26a1.26,1.26,0,0,1-.58-1A1.33,1.33,0,0,1,125.59,160.06Z"/><path class="cls-20" d="M124.71,159.32a.73.73,0,0,1-.63-.8C124.39,158.72,124.74,158.92,124.71,159.32Z"/><path class="cls-21" d="M136.39,187.55l.62-.5c1.15-.79,2.35-1.55,3.45-2.38A57.26,57.26,0,0,1,159.71,175a74.88,74.88,0,0,1,7.79-1.68v56.74a16.29,16.29,0,0,0,.06,1.71c.06.57-.06,1.31,0,2a2.26,2.26,0,0,1-1,1.85,13.71,13.71,0,0,1-4.64,2.34,62.91,62.91,0,0,1-11.65,2.52,102.93,102.93,0,0,1-13.14,1.14c-.41-.2-.38-.55-.38-.87V228.83a.76.76,0,0,1,.29-.8.34.34,0,0,1,.41,0h0c.49.64.25,1.35.33,2a14.62,14.62,0,0,0,.28,1.44c.11.49.2.9.85.87s.73-.58.79-1c.1-.69-.13-1.38,0-2.08.68-.46,1.25,0,1.81.19,1.89.69,3.62,1.64,5.55,2.29,2.11.89,3.9.5,5-1.19,1.86-2.83,1.34-5.63-.42-8.34-.78-1.2-1.57-2.39-2.34-3.6a5,5,0,0,1-.59-3.83,2.3,2.3,0,0,1,2.34-2.1c.3,0,.67-.06.68-.37s-.35-.47-.7-.58a2.67,2.67,0,0,0-3,1.25,5.62,5.62,0,0,0-.54,4.43,16.58,16.58,0,0,0,2.79,4.9,6.89,6.89,0,0,1,1,7.17c-.76,1.76-2.06,2.2-4.32,1.44a2.48,2.48,0,0,1-.63-1.48c-.93-3.93-1.63-7.89-2.59-11.82a8.91,8.91,0,0,1,0-3.09,6.85,6.85,0,0,1,2.5-2.29c4.31-3,8.06-6.37,12.38-9.61a17.77,17.77,0,0,0-2.63-.41c-.75-.08-1.56-.09-2-.72a38.81,38.81,0,0,1-.16-6,8,8,0,0,0-1.11-4,4.05,4.05,0,0,0-1.17-1.28c-2.17-1.48-4-1.07-4.56,1.14a23.48,23.48,0,0,0-.51,8c0,.49.24,1-.19,1.42a7.3,7.3,0,0,1-4.73-.46,3.69,3.69,0,0,1-.48-2.14,38.64,38.64,0,0,1-.51-5.48c0-1.87,0-1.87,2.09-2.73a41.5,41.5,0,0,0-6-.49A2,2,0,0,1,136.39,187.55Z"/><path class="cls-21" d="M137.32,114.35c-.65-.29-.63-.8-.63-1.26v-8.24c2-.33,4-.29,5.93-.48,6.66-.64,13.28-1.42,19.53-3.48a12.17,12.17,0,0,0,5.08-2.65c.35.2.28.5.28.79v21.29a2.64,2.64,0,0,1-1.56.93,79.46,79.46,0,0,1-18,3.14c-3.07.22-6.15,0-9.2.4a2.86,2.86,0,0,1-2.06-.3h0V116.1C136.52,115.41,137.86,115.1,137.32,114.35Z"/><path class="cls-10" d="M136.7,124.47c2.9-.08,5.81-.18,8.71-.29a85,85,0,0,0,15.48-2,46.47,46.47,0,0,0,6.6-1.93v3.93c-2.2.36-4.42.63-6.65.79-8.05.51-16.1.08-24.15.21Z"/><path class="cls-22" d="M115.92,113.05a32.19,32.19,0,0,1-3.19,2.56l-.5.29a1.92,1.92,0,0,0-1.1,2.5,34,34,0,0,1,1,4.51c-1.37-.56-2.57-1-3.76-1.54-2.88-1.22-2.87-1.22-5.69,0l-2.86,1.2c-.22.1-.46.26-.7.13S99,122.28,99,122c.32-1.4.58-2.81,1-4.21a1.08,1.08,0,0,0-.5-1.3c-1.23-.86-2.43-1.73-3.58-2.61-.35-.28-.82-.5-1-1a11.94,11.94,0,0,1,2.8-.44,23.11,23.11,0,0,1,3-.31,1.89,1.89,0,0,0,1.75-1c.65-1.15,1.4-2.27,2.12-3.4a2.27,2.27,0,0,1,.78-1,8.17,8.17,0,0,1,1.28,1.81,28.2,28.2,0,0,1,1.57,2.53,1.94,1.94,0,0,0,1.75,1c1.77.15,3.54.36,5.32.54A.74.74,0,0,1,115.92,113.05Z"/><path class="cls-22" d="M137.32,114.35c.25.11.65,0,.79.25s-.17.35-.33.5c-.36.33-.73.64-1.1,1l-3,2.11a.94.94,0,0,0-.48,1.16c.38,1.39.61,2.81.91,4.21a1.12,1.12,0,0,1-.06.88,23,23,0,0,1-3.29-1.3,12.24,12.24,0,0,0-2.88-1.13c-1.1-.2-1.89.66-2.86,1s-2,.79-3,1.22c-.25.09-.5.3-.92.11.33-1.53.64-3.09,1-4.63a1.36,1.36,0,0,0-.65-1.59c-1.25-.9-2.43-1.87-3.63-2.82-.24-.19-.61-.33-.59-.74,1.64-.19,3.28-.42,4.93-.56,1.45-.13,2.56-.45,3.13-1.71a33.42,33.42,0,0,1,2.16-3.61c.55,0,.58.34.73.56.77,1.21,1.57,2.39,2.26,3.62a1.92,1.92,0,0,0,1.7,1Z"/><path class="cls-23" d="M121.35,194l.81-1c.13,2.31.15,4.64.42,6.93a43.62,43.62,0,0,1,.27,4.87c0,.5.15.91.9.91s.91-.4.92-.91a41.1,41.1,0,0,0-.5-6.55c-.13-1-.08-2-.12-3v-.37c0-1.66,0-1.43,1.69-1.86a41,41,0,0,0,5.09-2c.67.6.39,1.31.28,2A82.41,82.41,0,0,1,128.44,204c-.14.44-.63,1.15.12,1.28s.75-.68.92-1.15c.1-.32.13-.64.22-1,.24-.8.3-1.67,1.82-1.59,1.76.11,2.31.45,2.53,1.76a6.64,6.64,0,0,0,.42,1.69.39.39,0,0,0,.43.27c.25,0,.31-.2.35-.35a2.48,2.48,0,0,0-.07-1.21c-.67-2.74-.76-5.52-1.2-8.26a1.14,1.14,0,0,1,.07-.73c.78-.4.92.22,1.14.52a28.8,28.8,0,0,1,1.81,3.18,1.92,1.92,0,0,1,.11.67c.19,9,0,18,0,27.08,0,.5.3,1.21-.76,1.37-1.8-.51-3.39-1.36-5.14-2a3.09,3.09,0,0,1-.75-2.43,76.66,76.66,0,0,1-.38-8.29c0-.89,0-1.76,1.43-2a.44.44,0,0,0,.44-.44c0-.31-.35-.39-.65-.42a7.07,7.07,0,0,0-3.3.35c-.63.24-.7.6,0,.87a1.62,1.62,0,0,1,1.13,1.73c-.12,2.77.07,5.53,0,8.3a1.2,1.2,0,0,1-.45,1.13,2.41,2.41,0,0,0-2.26.17c-.93.48-2,.8-3,1.25a1.89,1.89,0,0,1-.76-1.91c.14-3.52-.48-7-.36-10.55,0-.49.32-1.37-.69-1.37s-.81.85-.78,1.37c.13,1.75.25,3.51.43,5.26,0,.36.12.73.14,1.09.07,1.84-1.29,2.6-3.47,1.95a1.19,1.19,0,0,1-.94-1.49,62.22,62.22,0,0,0,.08-6.26c0-.6.22-1.59-.79-1.59s-.73,1-.69,1.64c.28,4.49-.1,9,0,13.48,0,.63.19,1.32-.48,1.85l-2.75,1.17a3,3,0,0,0-2.71,0c-.41.22-.94.56-1.48.1a19.41,19.41,0,0,1,.9-5.43c.68-3.05,1.23-6.13,2-9.17a1.75,1.75,0,0,0-.81-1.86,31.39,31.39,0,0,1-4.11-3.45c-.07-.38.25-.5.61-.57a4.69,4.69,0,0,1,1.35.05c.64.06,1.58.6,1.8-.21s-.81-1-1.61-1.17a6.24,6.24,0,0,0-2.4.17,3.42,3.42,0,0,1-1.77.14c-.17-.56-.75-.85-1.25-1.19-2.42-1.64-4.5-3.56-7-5.42,2-.4,3.72-.49,5.44-.71V205c0,.48.09.91.83,1s1-.26,1-1V201.6a14.13,14.13,0,0,1,6.69-.8,7.6,7.6,0,0,0,1.28,4.12,2.78,2.78,0,0,0,2.53,1.34,3.2,3.2,0,0,0,3.36-1.88,10.06,10.06,0,0,0,.91-3.57,9.06,9.06,0,0,1,.08-1.47A15.82,15.82,0,0,1,121.35,194Z"/><path class="cls-24" d="M136.35,227.58c.57-.38.34-.91.34-1.38V198.79a21.21,21.21,0,0,0,3.27,1.3c.68.71.48,1.6.54,2.39s-.22,1.79.29,2.62c.69,0,.62-.43.64-.72a12.58,12.58,0,0,0-.07-2.81c-.06-.43-.25-.9.31-1.24a24.78,24.78,0,0,0,4.48.5c.61.35.54.94.68,1.44a10.73,10.73,0,0,0,.8,2.22,2.66,2.66,0,0,0,2.45,1.42,2.9,2.9,0,0,0,2.64-1.21,4.8,4.8,0,0,0,.78-1.71c.12-.44.17-.9.73-1.15l5.09.59c-.21.51-.7.69-1,.95-3,2.39-6,4.78-9,7.17-1.68,1.31-3.44,2.55-5.17,3.82-.65,0-.79-.47-1-.79a4.18,4.18,0,0,0-3.87-1.3,1.13,1.13,0,0,0-1.26.9.65.65,0,0,0,0,.24c.5,4.33-.37,8.64-.2,13,0,.58.19,1.24-.5,1.71H137Z"/><path class="cls-12" d="M115.13,229.31v-6.37a10.7,10.7,0,0,1,.24-3.19,2.59,2.59,0,0,0,0-1.46c-.46-1.66-.15-3.34-.28-5a2.48,2.48,0,0,1,0-.86,1.2,1.2,0,0,1,2.18-.18,1.72,1.72,0,0,1,.22,1v6.85c-.22,1.33-.22,1.34,1.51,1.34,2.06,0,2.08.1,1.85-1.52s-.08-3.42-.46-5.11a8.38,8.38,0,0,1,0-2.45,1.15,1.15,0,0,1,1.25-1l.21,0c.84.05,1,.48,1,1v.11c-.14,3.76.46,7.51.32,11.27a13,13,0,0,0,.32,2.05v5.74c-.06.51-.54.63-1.07.73a.84.84,0,0,1-1-.5v0a8.94,8.94,0,0,1-.63-3v-1.71c-.78-1-.33-2-.4-3.07,0-.55-.16-1-1-1s-1.28.12-1.26.85v2.79a2.71,2.71,0,0,1-.37,1.65,4.07,4.07,0,0,0,.11,1.59,2.24,2.24,0,0,1-.13,1.79,1,1,0,0,1-1,.59.93.93,0,0,1-.91-.56A7.77,7.77,0,0,1,115.13,229.31Z"/><path class="cls-12" d="M108.33,230.72a10.62,10.62,0,0,0,1.77-.73,1.63,1.63,0,0,1,2.26.48,2.87,2.87,0,0,1-2.49,2.1c-3.34.8-5.87-.16-7-2.6a15,15,0,0,1-1.21-4.4,52.54,52.54,0,0,1-.28-9.63c0-1.17.2-2.35.23-3.53a3.84,3.84,0,0,1,2.53-3.28,11.44,11.44,0,0,1,2.61-.63,4.26,4.26,0,0,1,3.27.59.9.9,0,0,1,.42,1.3c-.33.48-.94.5-1.6.32a3.33,3.33,0,0,0-2.61-.13,4.7,4.7,0,0,0-2,4.65c.19,2.76-.48,5.52,0,8.29.17,1,.18,2.11.43,3.18A4.48,4.48,0,0,0,108.33,230.72Z"/><path class="cls-12" d="M128.67,224.4c-.06-2,0-3.91-.14-5.87-.1-1.14.14-2.34.14-3.53s0-1.06-1.35-1.45c-.46-.07-.76-.43-.66-.8a.67.67,0,0,1,.36-.42,2.67,2.67,0,0,1,.8-.37,12.39,12.39,0,0,1,3.94-.36.85.85,0,0,1,.94.7.34.34,0,0,1,0,.1.83.83,0,0,1-.8.93h-.11c-1.26.17-1.26.19-1.26,1.18a33.17,33.17,0,0,0,.07,4.78c.3,2.1.15,4.23.61,6.32,0,1.34.34,2.67.23,4,0,.38.14.57.67.66,1.35.2,1.87.59,1.75,1.16s-.88.8-2,.8h-2.92a7.1,7.1,0,0,1-1.22-.11c-.56-.13-1.11-.38-1-.91s.61-.66,1.24-.7c1.37-.11,1.51-.15,1.34-1.28A33,33,0,0,0,128.67,224.4Z"/><path class="cls-23" d="M117.67,228.28v-5.61h2.42c.47,0,.71.16.69.61-.08,1.26-.08,2.52-.11,3.79Z"/><path class="cls-5" d="M109.81,200.78l-6.68.75v-3.65a1,1,0,0,1,.57-1,6.85,6.85,0,0,0,2.27-1.94,17.15,17.15,0,0,0,3.65-.24v4.77A2.89,2.89,0,0,0,109.81,200.78Z"/><path class="cls-25" d="M115.66,194.42a21.82,21.82,0,0,1,.34,5.64,5.54,5.54,0,0,1-4.25.5,1.54,1.54,0,0,1-.28-.79c0-1.7,0-3.4.07-5.09A5.85,5.85,0,0,1,115.66,194.42Z"/><path class="cls-26" d="M111.75,200.56l4.25-.5a10.18,10.18,0,0,1-.74,3.71,2.76,2.76,0,0,1-.25.44,1.52,1.52,0,0,1-1.48.9c-.74-.05-.88-.54-1-1A7.79,7.79,0,0,1,111.75,200.56Z"/><path class="cls-27" d="M111.55,193.44a3.35,3.35,0,0,1,.32-2,1.39,1.39,0,0,1,1.6-.93,1.6,1.6,0,0,1,.68.25,2.31,2.31,0,0,1,1.5,2.7,2,2,0,0,1-1.24.35C113.45,193.68,112.42,194,111.55,193.44Z"/><path class="cls-25" d="M121.35,194a42.6,42.6,0,0,1-3.38,5.36c-.23-1.7.1-3.43-.25-5.13C119,194.32,120.13,193.93,121.35,194Z"/><path class="cls-28" d="M114.52,193.45h1.13a1.85,1.85,0,0,1,0,1c-1.39-.07-2.72.39-4.12.25a1.67,1.67,0,0,1,0-1C112.51,193.36,113.56,193.77,114.52,193.45Z"/><path class="cls-25" d="M114.52,193.45c-.94.46-2,.13-3,.23v-.24Z"/><path class="cls-29" d="M102.82,193.43c.11-1.6-.54-3.19-.2-4.78a2.32,2.32,0,0,1,2.25,1.72,4,4,0,0,1-.18,3.1A1.64,1.64,0,0,1,102.82,193.43Z"/><path class="cls-30" d="M102.82,193.43h1.87a3.82,3.82,0,0,1-1.87,2.21Z"/><path class="cls-12" d="M134.29,194.69c.53,2.85.57,5.75,1.21,8.58a6.38,6.38,0,0,1,.29,1.94c0,.39-.07.74-.72.75s-1.08-.16-1.15-.73-.22-1.37-.3-2c-.1-.91-.22-1-1.37-1.14-1.73-.19-1.66-.17-2.1,1.21a10.8,10.8,0,0,1-.45,1.91c-.35.65-.69.88-1.31.76s-.81-.46-.62-1.16c.55-2,1.2-4,1.68-5.95a35.09,35.09,0,0,0,1.39-7.82,4.45,4.45,0,0,0,.34-1.59c.77-.58,1.58-.27,2.38-.07A7.07,7.07,0,0,1,134.29,194.69Z"/><path class="cls-5" d="M134.29,194.69c-.24-1.8-.49-3.6-.73-5.4a21.22,21.22,0,0,0,2.83-1.74c.62.6.18,1.3.31,1.95a1,1,0,0,1,.43.88c.14,2.25,0,4.5,0,6.74a1.4,1.4,0,0,1-.47,1.25c-.81-.69-.94-1.65-1.53-2.39A5.82,5.82,0,0,0,134.29,194.69Z"/><path class="cls-12" d="M137.25,228.06c0-.45.08-.89.06-1.34-.17-3.58.4-7.17.32-10.73a9.62,9.62,0,0,0-.22-2.67,1.11,1.11,0,0,1,.93-1.43,1.8,1.8,0,0,1,.52,0h1.53a3.62,3.62,0,0,1,3.24,1.74c.15.25.13.57.47.75l.06,3.4c.68,2.27-.38,3.9-2.93,5a1.39,1.39,0,0,0-1,1.39v3.68a2.17,2.17,0,0,1-.35,1.53,6.24,6.24,0,0,1,.17,2.54A1,1,0,0,1,139,232.9h-.06a1.2,1.2,0,0,1-1.27-1A19.37,19.37,0,0,1,137.25,228.06Z"/><path class="cls-12" d="M154.26,201.81a10.39,10.39,0,0,1-1.13,3,3.64,3.64,0,0,1-4.31,1.13,2.85,2.85,0,0,1-1.56-1.38,11.59,11.59,0,0,1-1.08-3.78,26,26,0,0,1-.19-5.36,18.89,18.89,0,0,1,.57-4.23,6,6,0,0,1,.26-.71c.63-1.48,1.34-1.75,3.27-1.29A5,5,0,0,1,153.9,193a9,9,0,0,1,.4,2.91C154.26,197.89,154.27,199.85,154.26,201.81Z"/><path class="cls-24" d="M139.87,229.3c0-2-.07-3.9-.1-5.85,0-.32,0-.65.49-.79,2.94-.8,4-2.56,3.9-4.92a33.1,33.1,0,0,1,1.15,4.87c.65,2.79,1.25,5.58,1.87,8.37a.76.76,0,0,1-.3,1c-2-.57-3.78-1.6-5.75-2.31A3.17,3.17,0,0,0,139.87,229.3Z"/><path class="cls-13" d="M146.88,232a1.34,1.34,0,0,1,.3-1,9.48,9.48,0,0,1,1.07,0,2.14,2.14,0,0,0,2.51-1l.06-.21a6.63,6.63,0,0,0-.82-7.17,16,16,0,0,1-2.93-5.21,6.2,6.2,0,0,1,.6-4.55,3.07,3.07,0,0,1,3.19-1.5,2.16,2.16,0,0,1,1.33.54.72.72,0,0,1,.14.93c-.14.26-.47.26-.78.29-.53.06-1.13-.2-1.59.22a3,3,0,0,0-.89,1.67,4.79,4.79,0,0,0,.62,3.58c.73,1.12,1.49,2.23,2.23,3.36,1.8,2.72,2.36,5.51.81,8.45a4.68,4.68,0,0,1-1.2,1.41,3.9,3.9,0,0,1-4.63.24Z"/><path class="cls-13" d="M136.7,190.26v-.8a5.21,5.21,0,0,1,2.85-.17c.91.1,1.83.15,2.75.16.54,0,1.06.06,1.12.61s-.42.71-1.17.75l-.45-.07c-.6-.06-.83.16-.82.63,0,1.1,0,2.21.09,3.31.16,1.86.41,3.72.63,5.57a27,27,0,0,1,.25,4.11c0,.94-.25,1.28-.92,1.29s-.89-.29-.93-1.26c-.06-1.45.2-2.93-.32-4.35-.81-1.51-.37-3.13-.74-4.69a3.15,3.15,0,0,1,0-1C139.13,192.77,139.13,191.05,136.7,190.26Z"/><path class="cls-31" d="M160.9,113.08c-1.19,1.15-2.73,2-4,3a1.78,1.78,0,0,0-.87,2.13,41.38,41.38,0,0,1,.91,4.4,1.78,1.78,0,0,1-1.38-.29c-1.4-.58-2.82-1.15-4.2-1.78a2.14,2.14,0,0,0-2,0c-1.39.61-2.82,1.17-4.24,1.74a2.55,2.55,0,0,1-1.23.31,27.14,27.14,0,0,1,.58-3.32c.09-.79.61-1.59.36-2.25s-1.23-1-1.87-1.59c-1-.8-2-1.6-2.91-2.39-.06,0,0-.15-.09-.28a18.35,18.35,0,0,1,2.8-.42,8.36,8.36,0,0,1,2.12-.24,3,3,0,0,0,3.09-1.73,33.92,33.92,0,0,1,1.89-3.08c.14-.22.2-.47.6-.58a8.09,8.09,0,0,1,1.28,1.91c.49.8,1,1.6,1.45,2.44a2,2,0,0,0,1.78,1c1.78.16,3.55.36,5.32.55A.73.73,0,0,1,160.9,113.08Z"/><path class="cls-5" d="M108.33,230.72a2.84,2.84,0,0,1-2.83-1.07,9.06,9.06,0,0,1-1.72-4.78c-.21-1.32,0-2.67-.29-4a5.23,5.23,0,0,1,.17-2.29,17.78,17.78,0,0,0,.09-4.25,6,6,0,0,1,.32-1.92,2.38,2.38,0,0,1,2.13-1.85c1.65,1.27,3.3,2.56,5,3.83a1,1,0,0,1,.43,1.19c-1,4.55-2,9.11-2.93,13.68A11.25,11.25,0,0,0,108.33,230.72Z"/><path class="cls-21" d="M136.7,190.26a3.35,3.35,0,0,0,.56.19c1.85.33,1.88.32,2.12,1.76a12.86,12.86,0,0,1,.08,2.06c0,1.94.49,3.86.32,5.82a3,3,0,0,1-3.06-1.29v-.44Z"/><path class="cls-32" d="M132.18,193.42a20.57,20.57,0,0,1,.84,7c0,.68-.58.65-1.16.62-.89,0-1.07-.21-1-.8a38.21,38.21,0,0,1,.77-4.2A19.68,19.68,0,0,1,132.18,193.42Z"/><path class="cls-33" d="M139.8,221.31v-7.46c1.31,0,2,.37,2.09,1.3a11.15,11.15,0,0,1-.4,4.48A3,3,0,0,1,139.8,221.31Z"/><path class="cls-21" d="M148.13,201c-.64-2.92,0-5.85,0-8.76a1.64,1.64,0,0,1,1.32-1.75,2.43,2.43,0,0,1,2.31,1.16,1.73,1.73,0,0,1,.36.92c0,3,.61,5.95.24,8.93A4.93,4.93,0,0,1,148.13,201Z"/><path class="cls-34" d="M148.13,201a25.49,25.49,0,0,0,4.19.49,10.18,10.18,0,0,1-.8,2.47,1.7,1.7,0,0,1-.65.79c-.79.51-1.42.42-1.82-.32A9,9,0,0,1,148.13,201Z"/><rect class="cls-35" width="250" height="250"/></svg>