<svg id="Layer_1" data-name="Layer 1" xmlns="http://www.w3.org/2000/svg" viewBox="0 0 250 250"><defs><style>.cls-1{fill:#f86e33;}.cls-2{fill:#c54722;}.cls-3{fill:#df551c;}.cls-4{fill:#beab79;}.cls-5{fill:#b18055;}.cls-6{fill:#9c8d63;}.cls-7{fill:#835126;}.cls-8{fill:#9b6a3f;}.cls-9{fill:#fa9e72;}.cls-10{fill:#e5dbbd;}.cls-11{fill:#f86f34;}.cls-12{fill:#ffc53f;}.cls-13{isolation:isolate;}.cls-14{fill:none;}</style></defs><title>products</title><rect class="cls-1" x="131.17" y="107.28" width="43.12" height="83.16"/><path class="cls-1" d="M156.12,222.28c-.58,0-1.16.05-1.75.05H56c-1.66,0-2.12-.35-2.12-2.08q.09-77.31,0-154.63c0-1.75.38-2.21,2.18-2.2q49.29.09,98.58,0c13.25,0,26.5-.12,39.75-.16.53,0,1.16-.31,1.61.28a2.44,2.44,0,0,1-1.95.58c-6.56,0-13.11.07-19.67,0-5.08.1-10.14,0-15.22,0-2.33,0-2.44.12-2.44,2.5v47.57a8.17,8.17,0,0,1-.29,3.11c-1.15,1.29-2.73,1.26-4.21,1.14-1.86-.14-3.73.27-5.58-.14-.72-.17-1.09.29-1.28.9a3.42,3.42,0,0,0-.29,2.6c.75-.28.69-.93.84-1.44.22-.79.56-1.49,1.53-1.31s1,.87,1,1.63c-.3,6.29,0,12.59-.14,18.89a8.24,8.24,0,0,1-.06,1.22c-.31,2.11-.31,2.13,1.78,2.11,1.16,0,2.52.42,3.42-.21,1.14-.78,0-2.12.09-3.22.13-3.08.08-6.18,0-9.27a85,85,0,0,0-.23-9.44c-.1-.75-.05-1.61,1-1.75s1.2.59,1.31,1.31a23.74,23.74,0,0,0,1,2.63,8.64,8.64,0,0,1,.17,2.09v27a6.12,6.12,0,0,1-.25,2.25c-.61.92-1,.19-1.27-.24-1.77-3.29-4.58-4.19-8.1-3.83a33.65,33.65,0,0,1-4.71,0c-.61,0-1.18,0-1,.91.52,3.83.22,7.68.21,11.52,0,3.66.36,7.33-.28,11-.11.61.14.87.74.86h4.54c.78,0,.88-.29.64-1a11.9,11.9,0,0,1-.27-4.33c0-2,.81-2.94,2.85-3a5.81,5.81,0,0,0,5.4-3.18c.22-.42.61-1.2,1.28-.32a5,5,0,0,1,.26,2.07v55A3.23,3.23,0,0,1,156.12,222.28Z"/><path class="cls-2" d="M174.32,63.7,196,63.62c0,.64.07,1.28.07,1.92V220.19c0,1.72-.34,2.23-2.14,2.19-6.54-.15-13.07-.09-19.61-.11a3,3,0,0,1-.55-2.28V140.9c0-1,.1-2,.07-3a44.42,44.42,0,0,0,0-14c-.16-19,0-38-.06-57.06C173.74,65.81,173.51,64.65,174.32,63.7Z"/><path class="cls-3" d="M174.32,63.7v60.62c-1.06-.35-1.12-1.42-1.52-2.2a6.47,6.47,0,0,0-5.63-3.84,5.88,5.88,0,0,0-5.46,2.5,11.34,11.34,0,0,0-2.15,5.67c-.31,3.66-.47,7.33.77,10.91a10.07,10.07,0,0,0,2.74,4.19,6.15,6.15,0,0,0,8.71-.33,5,5,0,0,0,.5-.62c.75-1,.86-2.4,2.08-3.06v84.73H156.12V164.43c0-.7,0-1.4-.05-2.09-.65-.92-.18-1.91-.09-2.83.15-1.59-.48-3.18.11-4.74v-32c1.36-1,.53-2.4.5-3.63,0-.57-.41-1-.5-1.62v-52c0-1.59.47-2,2-1.92C163.47,63.73,168.9,63.69,174.32,63.7Z"/><path class="cls-4" d="M54.17,60.18c-.56-.45-.3-1.08-.31-1.63,0-1.93-.09-3.86,0-5.78.08-1.43-.19-2-1.86-2.26a8.45,8.45,0,0,1-7.16-8.79,8.72,8.72,0,0,1,8.9-8.16H195.85a3.82,3.82,0,0,1,2.38.29c-.58.65-1.38.55-2.12.55H159.27a7.5,7.5,0,0,1-2.06-.31c.44.14.12.11.27.16,3.6,1.38,5.15,4.19,5.25,7.85.1,3.95-2.5,8.32-8.23,9a19.57,19.57,0,0,1-3.5.14H58.2c-3.43,0-3.37,0-3.46,3.46C54.74,56.54,55.26,58.46,54.17,60.18Z"/><path class="cls-4" d="M197.49,249.69c-.51.41-1.12.24-1.69.25-13.48,0-27,.13-40.44,0-33.49-.37-67-.07-100.46-.14-2.86,0-5.45-.34-7.53-2.5a8.25,8.25,0,0,1-1.92-8.9,7.83,7.83,0,0,1,7.16-5.54c1-.08,1.22-.43,1.27-1.36.1-2-.46-4,.32-6,.72.84.54,1.87.56,2.85,0,4.17-.44,3.92,4,3.92H152a18.48,18.48,0,0,1,3.49.15c4,1.12,6.61,3.57,7.21,7.82.55,4-2.14,8.29-5.63,9.13a17,17,0,0,1,2.66-.24h35.13C195.74,249.15,196.74,248.92,197.49,249.69Z"/><path class="cls-5" d="M54.17,60.18c0-2.56.1-5.13,0-7.69-.07-1.51.47-1.84,1.89-1.83q29.47.06,59,0h39.68a1.44,1.44,0,0,1,1.56.08c.61,1.09.31,2.28.4,3.43.13,1.67-.71,3.75.43,4.91s3.33.43,5,.47c4.08.09,8.16,0,12.24.05,6.55-.1,13.09,0,19.64,0a2.56,2.56,0,0,1,2,.54c-.45.73-1.17.34-1.73.34-12.18,0-24.37-.06-36.55-.08L56.09,60.26C55.45,60.26,54.81,60.21,54.17,60.18Z"/><path class="cls-5" d="M155.74,232.85H56.47c-2.29,0-2.29,0-2.29-2.25v-5.08c.52,0,1-.06,1.57-.06h99a10.93,10.93,0,0,1,1.4.06c.93,2.37.66,4.78.2,7.2a.4.4,0,0,1-.55.16Z"/><path class="cls-6" d="M156.12,50.69h-1.38c2.71-.68,5.07-1.8,6.47-4.47a8.45,8.45,0,0,0-3.36-11.48l-.41-.21a2.07,2.07,0,0,1-.89-.69h41.67a8.46,8.46,0,0,1,6.9,8.77c-.36,4.74-4,8-9,8.09a2.8,2.8,0,0,1-2,.55c-6.58,0-13.16.07-19.74,0-5.42.1-10.84,0-16.26,0A2.73,2.73,0,0,1,156.12,50.69Z"/><path class="cls-6" d="M155.74,232.85h.38a2.76,2.76,0,0,1,2-.53c5.41,0,10.82-.07,16.23,0,6.59-.11,13.19,0,19.78,0a2.9,2.9,0,0,1,2,.55,8.46,8.46,0,0,1,1.4,16.86l-39.48-.06a12,12,0,0,1-1.89-.1,8.72,8.72,0,0,0,5.48-5,8.31,8.31,0,0,0-4.31-10.93Z"/><path class="cls-7" d="M174.34,50.71h21.72L196,60.15H174.37a1.74,1.74,0,0,1-.55-1.23q-.13-3.45,0-6.9A1.91,1.91,0,0,1,174.34,50.71Z"/><path class="cls-7" d="M196.09,232.83H174.36a10.07,10.07,0,0,1,0-7.29c6.9,0,13.81,0,20.72-.09.92,0,1,.41,1,1.15C196,228.65,196.08,230.74,196.09,232.83Z"/><path class="cls-8" d="M174.33,225.5v7.29H156.1v-7.32Z"/><path class="cls-9" d="M92.08,140.31c-.44,1.41-.08,2.83-.08,4.25v59.87c0,6.39-3.37,11-9,12.34a11.48,11.48,0,0,1-13.72-8.68,12.06,12.06,0,0,1-.28-2.32c-.06-6.07,0-12.14,0-18.21V79.89c0-4.88,2-8.76,6.61-10.82a11.35,11.35,0,0,1,16.16,9c.56,5.53.2,11.06.26,16.6.09,7.35,0,14.7.06,22,0,1.31-.69,2.61-.06,3.92.3.46.08.9-.09,1.32A21.75,21.75,0,0,0,92,138.69C92.13,139.3,92.39,139.78,92.08,140.31Z"/><path class="cls-10" d="M83.79,45.8H60.5a3.51,3.51,0,0,1-3.71-2.58,3.61,3.61,0,0,1,1.5-4.14,3.52,3.52,0,0,1,2.3-.65H107a3.69,3.69,0,0,1,3.94,3.43c0,.11,0,.22,0,.32,0,2.25-1.51,3.61-4,3.61C99.2,45.81,91.5,45.8,83.79,45.8Z"/><path class="cls-10" d="M83.81,245.08H60.9c-3.26,0-5-2.5-3.93-5.34a3,3,0,0,1,2.45-2,21.42,21.42,0,0,1,3.29-.31h42.84a9.94,9.94,0,0,1,2.25.23c2.29.57,3.33,1.87,3.13,4.09a3.81,3.81,0,0,1-4,3.32H83.81Z"/><path class="cls-8" d="M174.34,50.71v9.38H157.61c-1.25,0-1.58-.43-1.55-1.61.08-2.61,0-5.23,0-7.84Z"/><path class="cls-11" d="M131.22,133.85a24.34,24.34,0,0,1,1.29-6.31c.21-.54.43-1.24,1.14-1.11s.7.85.69,1.43c0,2.12.66,4.14.88,6.22.25,2.28-.1,2.88-1.81,2.95S131.11,136.49,131.22,133.85Z"/><rect class="cls-12" x="53.91" y="112.67" width="143.22" height="61.34"/><g class="cls-13"><path class="cls-2" d="M61.67,128.3h2.88l1.59,8,2-8h3l1.89,8,1.6-8h2.9l-2.88,11H71.31l-1.76-7.26-1.83,7.26H64.47Z"/><path class="cls-2" d="M82.78,139.46A4.51,4.51,0,1,1,87.36,135,4.35,4.35,0,0,1,82.78,139.46Zm0-2.33A1.92,1.92,0,0,0,84.63,135c0-1.5-.88-2.19-1.82-2.19S81,133.45,81,135,81.8,137.13,82.78,137.13Z"/><path class="cls-2" d="M91.48,139.33H88.79v-8.77h2.69V132a3.27,3.27,0,0,1,2.75-1.55v2.84h-.74c-1.27,0-2,.44-2,1.95Z"/><path class="cls-2" d="M99.38,130.44a4,4,0,0,1,4.22,3.3h-2.86a1.38,1.38,0,0,0-1.4-1c-1,0-1.62.75-1.62,2.22s.66,2.21,1.62,2.21a1.37,1.37,0,0,0,1.4-1h2.86a4.09,4.09,0,0,1-4.22,3.3,4.51,4.51,0,0,1,0-9Z"/><path class="cls-2" d="M108.92,139.46a4.51,4.51,0,0,1,0-9,4.13,4.13,0,0,1,4.37,4.37,7.11,7.11,0,0,1-.05.78h-6.08a1.63,1.63,0,0,0,1.67,1.68,1.42,1.42,0,0,0,1.4-.85h2.86A4.1,4.1,0,0,1,108.92,139.46Zm-1.74-5.36h3.36a1.51,1.51,0,0,0-1.65-1.51A1.65,1.65,0,0,0,107.18,134.1Z"/><path class="cls-2" d="M118.27,139.46c-2.34,0-3.91-1.31-4-3h2.66a1.23,1.23,0,0,0,1.35,1c.69,0,1.05-.32,1.05-.71,0-1.41-4.78-.39-4.78-3.62,0-1.49,1.28-2.71,3.57-2.71s3.52,1.25,3.7,3h-2.49a1.15,1.15,0,0,0-1.29-1c-.62,0-1,.25-1,.68,0,1.4,4.75.41,4.79,3.68C121.82,138.31,120.47,139.46,118.27,139.46Z"/><path class="cls-2" d="M123.89,132.79h-1.06v-2.23h1.06v-2.14h2.69v2.14h1.76v2.23h-1.76v3.52c0,.52.22.74.82.74h1v2.28H127c-1.82,0-3.1-.77-3.1-3.05Z"/><path class="cls-2" d="M133.75,139.46a4.51,4.51,0,0,1,0-9,4.13,4.13,0,0,1,4.37,4.37,7.11,7.11,0,0,1-.05.78H132a1.62,1.62,0,0,0,1.66,1.68,1.41,1.41,0,0,0,1.4-.85h2.86A4.09,4.09,0,0,1,133.75,139.46ZM132,134.1h3.37a1.52,1.52,0,0,0-1.65-1.51A1.67,1.67,0,0,0,132,134.1Z"/><path class="cls-2" d="M142.22,139.33h-2.69v-8.77h2.69V132a3.27,3.27,0,0,1,2.75-1.55v2.84h-.74c-1.27,0-2,.44-2,1.95Z"/><path class="cls-2" d="M153.15,139.46c-2.34,0-3.91-1.31-4-3h2.66a1.23,1.23,0,0,0,1.35,1c.69,0,1-.32,1-.71,0-1.41-4.77-.39-4.77-3.62,0-1.49,1.27-2.71,3.56-2.71s3.52,1.25,3.7,3h-2.49a1.14,1.14,0,0,0-1.28-1c-.63,0-1,.25-1,.68,0,1.4,4.75.41,4.79,3.68C156.7,138.31,155.35,139.46,153.15,139.46Z"/><path class="cls-2" d="M158.35,127.7H161v4a3.23,3.23,0,0,1,2.7-1.27c2,0,3.34,1.38,3.34,3.74v5.12H164.4v-4.76a1.69,1.69,0,1,0-3.36,0v4.76h-2.69Z"/><path class="cls-2" d="M168.69,128.2a1.5,1.5,0,0,1,1.61-1.46,1.46,1.46,0,1,1-1.61,1.46Zm.25,2.36h2.69v8.77h-2.69Z"/><path class="cls-2" d="M176.27,139.33h-2.69v-8.77h2.69V132a3.27,3.27,0,0,1,2.75-1.55v2.84h-.74c-1.28,0-2,.44-2,1.95Z"/><path class="cls-2" d="M184.2,139.46a4.51,4.51,0,0,1,0-9,4.13,4.13,0,0,1,4.37,4.37,7.11,7.11,0,0,1,0,.78h-6.08a1.63,1.63,0,0,0,1.67,1.68,1.42,1.42,0,0,0,1.4-.85h2.86A4.1,4.1,0,0,1,184.2,139.46Zm-1.74-5.36h3.36a1.51,1.51,0,0,0-1.65-1.51A1.65,1.65,0,0,0,182.46,134.1Z"/><path class="cls-2" d="M105.08,158.31c-2.34,0-3.91-1.3-4-3h2.66a1.23,1.23,0,0,0,1.35,1c.69,0,1-.31,1-.71,0-1.41-4.78-.39-4.78-3.61,0-1.49,1.28-2.72,3.57-2.72s3.52,1.26,3.69,3H106.1a1.15,1.15,0,0,0-1.29-1c-.63,0-1,.25-1,.67,0,1.4,4.74.41,4.79,3.68C108.63,157.17,107.28,158.31,105.08,158.31Z"/><path class="cls-2" d="M113.61,149.29a3,3,0,0,1,2.7,1.37v-1.24H119v8.77h-2.69V157a3.08,3.08,0,0,1-2.71,1.36c-2.14,0-3.85-1.76-3.85-4.52S111.46,149.29,113.61,149.29Zm.79,2.34a2,2,0,0,0-1.92,2.16A2,2,0,0,0,114.4,156a2.19,2.19,0,0,0,0-4.34Z"/><path class="cls-2" d="M129.61,158.19h-2.69V157a3.18,3.18,0,0,1-2.66,1.29c-2,0-3.39-1.4-3.39-3.74v-5.12h2.67v4.76a1.7,1.7,0,1,0,3.38,0v-4.76h2.69Z"/><path class="cls-2" d="M135.41,149.29a4,4,0,0,1,4.21,3.3h-2.86a1.38,1.38,0,0,0-1.4-1c-1,0-1.62.75-1.62,2.21s.66,2.22,1.62,2.22a1.37,1.37,0,0,0,1.4-1h2.86a4.07,4.07,0,0,1-4.21,3.3,4.51,4.51,0,0,1,0-9Z"/><path class="cls-2" d="M144.94,158.31a4.51,4.51,0,0,1,0-9,4.14,4.14,0,0,1,4.37,4.37,5.41,5.41,0,0,1-.05.79h-6.08a1.63,1.63,0,0,0,1.67,1.68,1.44,1.44,0,0,0,1.4-.85h2.86A4.11,4.11,0,0,1,144.94,158.31ZM143.2,153h3.36a1.51,1.51,0,0,0-1.65-1.51A1.67,1.67,0,0,0,143.2,153Z"/></g><rect class="cls-14" width="250" height="250"/></svg>