<svg xmlns="http://www.w3.org/2000/svg" xmlns:xlink="http://www.w3.org/1999/xlink" viewBox="0 0 268.2 72.59"><defs><style>.cls-1{isolation:isolate;}.cls-109,.cls-141,.cls-142,.cls-143,.cls-159,.cls-160,.cls-2,.cls-3,.cls-4,.cls-42,.cls-6,.cls-76,.cls-77{mix-blend-mode:multiply;}.cls-2{fill:url(#radial-gradient);}.cls-3{fill:url(#radial-gradient-2);}.cls-4{fill:url(#radial-gradient-3);}.cls-5{fill:#f0b95c;}.cls-6{fill:url(#linear-gradient);}.cls-110,.cls-43,.cls-7,.cls-78{opacity:0.5;}.cls-110,.cls-43,.cls-7,.cls-78,.cls-8{mix-blend-mode:screen;}.cls-7{fill:url(#linear-gradient-2);}.cls-8{opacity:0.3;}.cls-9{fill:#fcda80;}.cls-10{fill:url(#radial-gradient-4);}.cls-11{fill:url(#radial-gradient-5);}.cls-12{fill:url(#radial-gradient-6);}.cls-13{fill:url(#radial-gradient-7);}.cls-14{fill:url(#radial-gradient-8);}.cls-15{fill:url(#radial-gradient-9);}.cls-16{fill:url(#radial-gradient-10);}.cls-17{fill:url(#radial-gradient-11);}.cls-18{fill:url(#radial-gradient-12);}.cls-19{fill:url(#radial-gradient-13);}.cls-20{fill:url(#radial-gradient-14);}.cls-21{fill:url(#radial-gradient-15);}.cls-22{fill:url(#radial-gradient-16);}.cls-23{fill:url(#radial-gradient-17);}.cls-24{fill:url(#radial-gradient-18);}.cls-25{fill:url(#radial-gradient-19);}.cls-26{fill:url(#radial-gradient-20);}.cls-27{fill:url(#radial-gradient-21);}.cls-28{fill:url(#radial-gradient-22);}.cls-29{fill:url(#radial-gradient-23);}.cls-30{fill:url(#radial-gradient-24);}.cls-31{fill:url(#radial-gradient-25);}.cls-32{fill:url(#radial-gradient-26);}.cls-33{fill:url(#radial-gradient-27);}.cls-34{fill:url(#radial-gradient-28);}.cls-35{fill:url(#radial-gradient-29);}.cls-36{fill:url(#radial-gradient-30);}.cls-37{fill:url(#radial-gradient-31);}.cls-38{fill:url(#radial-gradient-32);}.cls-39{fill:url(#radial-gradient-33);}.cls-40{fill:url(#radial-gradient-34);}.cls-41{fill:url(#radial-gradient-35);}.cls-42{fill:url(#linear-gradient-3);}.cls-43{fill:url(#linear-gradient-4);}.cls-44{fill:url(#radial-gradient-36);}.cls-45{fill:url(#radial-gradient-37);}.cls-46{fill:url(#radial-gradient-38);}.cls-47{fill:url(#radial-gradient-39);}.cls-48{fill:url(#radial-gradient-40);}.cls-49{fill:url(#radial-gradient-41);}.cls-50{fill:url(#radial-gradient-42);}.cls-51{fill:url(#radial-gradient-43);}.cls-52{fill:url(#radial-gradient-44);}.cls-53{fill:url(#radial-gradient-45);}.cls-54{fill:url(#radial-gradient-46);}.cls-55{fill:url(#radial-gradient-47);}.cls-56{fill:url(#radial-gradient-48);}.cls-57{fill:url(#radial-gradient-49);}.cls-58{fill:url(#radial-gradient-50);}.cls-59{fill:url(#radial-gradient-51);}.cls-60{fill:url(#radial-gradient-52);}.cls-61{fill:url(#radial-gradient-53);}.cls-62{fill:url(#radial-gradient-54);}.cls-63{fill:url(#radial-gradient-55);}.cls-64{fill:url(#radial-gradient-56);}.cls-65{fill:url(#radial-gradient-57);}.cls-66{fill:url(#radial-gradient-58);}.cls-67{fill:url(#radial-gradient-59);}.cls-68{fill:url(#radial-gradient-60);}.cls-69{fill:url(#radial-gradient-61);}.cls-70{fill:url(#radial-gradient-62);}.cls-71{fill:url(#radial-gradient-63);}.cls-72{fill:url(#radial-gradient-64);}.cls-73{fill:url(#radial-gradient-65);}.cls-74{fill:url(#radial-gradient-66);}.cls-75{fill:url(#radial-gradient-67);}.cls-76{fill:url(#radial-gradient-68);}.cls-77{fill:url(#linear-gradient-5);}.cls-78{fill:url(#linear-gradient-6);}.cls-79{fill:url(#radial-gradient-69);}.cls-80{fill:url(#radial-gradient-70);}.cls-81{fill:url(#radial-gradient-71);}.cls-82{fill:url(#radial-gradient-72);}.cls-83{fill:url(#radial-gradient-73);}.cls-84{fill:url(#radial-gradient-74);}.cls-85{fill:url(#radial-gradient-75);}.cls-86{fill:url(#radial-gradient-76);}.cls-87{fill:url(#radial-gradient-77);}.cls-88{fill:url(#radial-gradient-78);}.cls-89{fill:url(#radial-gradient-79);}.cls-90{fill:url(#radial-gradient-80);}.cls-91{fill:url(#radial-gradient-81);}.cls-92{fill:url(#radial-gradient-82);}.cls-93{fill:url(#radial-gradient-83);}.cls-94{fill:url(#radial-gradient-84);}.cls-95{fill:url(#radial-gradient-85);}.cls-96{fill:url(#radial-gradient-86);}.cls-97{fill:url(#radial-gradient-87);}.cls-98{fill:url(#radial-gradient-88);}.cls-99{fill:url(#radial-gradient-89);}.cls-100{fill:url(#radial-gradient-90);}.cls-101{fill:url(#radial-gradient-91);}.cls-102{fill:url(#radial-gradient-92);}.cls-103{fill:url(#radial-gradient-93);}.cls-104{fill:url(#radial-gradient-94);}.cls-105{fill:url(#radial-gradient-95);}.cls-106{fill:url(#radial-gradient-96);}.cls-107{fill:url(#radial-gradient-97);}.cls-108{fill:url(#radial-gradient-98);}.cls-109{fill:url(#linear-gradient-7);}.cls-110{fill:url(#linear-gradient-8);}.cls-111{fill:url(#radial-gradient-99);}.cls-112{fill:url(#radial-gradient-100);}.cls-113{fill:url(#radial-gradient-101);}.cls-114{fill:url(#radial-gradient-102);}.cls-115{fill:url(#radial-gradient-103);}.cls-116{fill:url(#radial-gradient-104);}.cls-117{fill:url(#radial-gradient-105);}.cls-118{fill:url(#radial-gradient-106);}.cls-119{fill:url(#radial-gradient-107);}.cls-120{fill:url(#radial-gradient-108);}.cls-121{fill:url(#radial-gradient-109);}.cls-122{fill:url(#radial-gradient-110);}.cls-123{fill:url(#radial-gradient-111);}.cls-124{fill:url(#radial-gradient-112);}.cls-125{fill:url(#radial-gradient-113);}.cls-126{fill:url(#radial-gradient-114);}.cls-127{fill:url(#radial-gradient-115);}.cls-128{fill:url(#radial-gradient-116);}.cls-129{fill:url(#radial-gradient-117);}.cls-130{fill:url(#radial-gradient-118);}.cls-131{fill:url(#radial-gradient-119);}.cls-132{fill:url(#radial-gradient-120);}.cls-133{fill:url(#radial-gradient-121);}.cls-134{fill:url(#radial-gradient-122);}.cls-135{fill:url(#radial-gradient-123);}.cls-136{fill:url(#radial-gradient-124);}.cls-137{fill:url(#radial-gradient-125);}.cls-138{fill:url(#radial-gradient-126);}.cls-139{fill:url(#radial-gradient-127);}.cls-140{fill:url(#radial-gradient-128);}.cls-141{fill:url(#radial-gradient-129);}.cls-142{fill:url(#linear-gradient-9);}.cls-144{fill:url(#radial-gradient-130);}.cls-145{fill:url(#radial-gradient-131);}.cls-146{fill:url(#radial-gradient-132);}.cls-147{fill:url(#radial-gradient-133);}.cls-148{fill:url(#radial-gradient-134);}.cls-149{fill:url(#radial-gradient-135);}.cls-150{fill:url(#radial-gradient-136);}.cls-151{fill:url(#radial-gradient-137);}.cls-152{fill:url(#radial-gradient-138);}.cls-153{fill:url(#radial-gradient-139);}.cls-154{fill:url(#radial-gradient-140);}.cls-155{fill:url(#radial-gradient-141);}.cls-156{fill:url(#radial-gradient-142);}.cls-157{fill:url(#radial-gradient-143);}.cls-158{fill:url(#radial-gradient-144);}.cls-159{fill:url(#linear-gradient-10);}.cls-160{opacity:0.2;fill:url(#linear-gradient-11);}.cls-161{fill:#cfd3d4;}.cls-162{fill:#f1f1f1;}.cls-163{fill:#bdbdbb;}.cls-164{fill:#888;}</style><radialGradient id="radial-gradient" cx="1246.47" cy="-3185.09" r="9.67" gradientTransform="translate(-3651.95 1547.02) scale(3.06 0.47)" gradientUnits="userSpaceOnUse"><stop offset="0" stop-color="#7d8897"/><stop offset="0.17" stop-color="#808b9a" stop-opacity="0.97"/><stop offset="0.33" stop-color="#8b94a2" stop-opacity="0.9"/><stop offset="0.49" stop-color="#9ca4af" stop-opacity="0.76"/><stop offset="0.65" stop-color="#b4bac3" stop-opacity="0.58"/><stop offset="0.81" stop-color="#d2d6db" stop-opacity="0.34"/><stop offset="0.97" stop-color="#f7f8f9" stop-opacity="0.06"/><stop offset="1" stop-color="#fff" stop-opacity="0"/></radialGradient><radialGradient id="radial-gradient-2" cx="1230.11" cy="-3192.39" r="9.67" xlink:href="#radial-gradient"/><radialGradient id="radial-gradient-3" cx="1237.37" cy="-3170.47" r="9.67" gradientTransform="translate(-3650.79 1552.08) scale(3.06 0.47)" xlink:href="#radial-gradient"/><linearGradient id="linear-gradient" x1="150.25" y1="19.03" x2="166.89" y2="67.34" gradientUnits="userSpaceOnUse"><stop offset="0" stop-color="#f0b95c" stop-opacity="0"/><stop offset="0.15" stop-color="#efb75a" stop-opacity="0.02"/><stop offset="0.3" stop-color="#ebb154" stop-opacity="0.09"/><stop offset="0.45" stop-color="#e4a84b" stop-opacity="0.19"/><stop offset="0.6" stop-color="#db9b3d" stop-opacity="0.35"/><stop offset="0.74" stop-color="#d0892c" stop-opacity="0.54"/><stop offset="0.88" stop-color="#c17517" stop-opacity="0.78"/><stop offset="1" stop-color="#b46103"/></linearGradient><linearGradient id="linear-gradient-2" x1="156.87" y1="21.42" x2="155.58" y2="35.96" gradientUnits="userSpaceOnUse"><stop offset="0" stop-color="#ffecb9"/><stop offset="0.1" stop-color="#fce3a8" stop-opacity="0.82"/><stop offset="0.24" stop-color="#f9d691" stop-opacity="0.57"/><stop offset="0.38" stop-color="#f6cc7e" stop-opacity="0.37"/><stop offset="0.5" stop-color="#f3c46f" stop-opacity="0.21"/><stop offset="0.62" stop-color="#f1be65" stop-opacity="0.09"/><stop offset="0.72" stop-color="#f0ba5e" stop-opacity="0.02"/><stop offset="0.79" stop-color="#f0b95c" stop-opacity="0"/></linearGradient><radialGradient id="radial-gradient-4" cx="153.19" cy="24.88" r="3.26" gradientUnits="userSpaceOnUse"><stop offset="0" stop-color="#b46103"/><stop offset="0.15" stop-color="#b56305" stop-opacity="0.98"/><stop offset="0.3" stop-color="#b9690b" stop-opacity="0.91"/><stop offset="0.45" stop-color="#c07215" stop-opacity="0.8"/><stop offset="0.6" stop-color="#c98022" stop-opacity="0.65"/><stop offset="0.75" stop-color="#d59134" stop-opacity="0.45"/><stop offset="0.89" stop-color="#e3a749" stop-opacity="0.21"/><stop offset="1" stop-color="#f0b95c" stop-opacity="0"/></radialGradient><radialGradient id="radial-gradient-5" cx="178.71" cy="31.03" r="2.97" xlink:href="#radial-gradient-4"/><radialGradient id="radial-gradient-6" cx="168.17" cy="38.96" r="2.36" xlink:href="#radial-gradient-4"/><radialGradient id="radial-gradient-7" cx="151.61" cy="47.68" r="1.86" xlink:href="#radial-gradient-4"/><radialGradient id="radial-gradient-8" cx="172.92" cy="47.97" r="1.05" xlink:href="#radial-gradient-4"/><radialGradient id="radial-gradient-9" cx="175.11" cy="50.06" r="0.8" xlink:href="#radial-gradient-4"/><radialGradient id="radial-gradient-10" cx="177.92" cy="46.11" r="1.65" xlink:href="#radial-gradient-4"/><radialGradient id="radial-gradient-11" cx="170.69" cy="54.37" r="0.61" xlink:href="#radial-gradient-4"/><radialGradient id="radial-gradient-12" cx="158.97" cy="51.28" r="0.51" xlink:href="#radial-gradient-4"/><radialGradient id="radial-gradient-13" cx="161.26" cy="46.12" r="0.5" xlink:href="#radial-gradient-4"/><radialGradient id="radial-gradient-14" cx="167.4" cy="36.36" r="0.45" xlink:href="#radial-gradient-4"/><radialGradient id="radial-gradient-15" cx="141.9" cy="31.84" r="1.92" xlink:href="#radial-gradient-4"/><radialGradient id="radial-gradient-16" cx="140.74" cy="48.93" r="0.53" xlink:href="#radial-gradient-4"/><radialGradient id="radial-gradient-17" cx="147.74" cy="53.62" r="0.53" xlink:href="#radial-gradient-4"/><radialGradient id="radial-gradient-18" cx="147.35" cy="40.91" r="0.42" xlink:href="#radial-gradient-4"/><radialGradient id="radial-gradient-19" cx="133.04" cy="41.76" r="0.42" xlink:href="#radial-gradient-4"/><radialGradient id="radial-gradient-20" cx="148.52" cy="45.61" r="2.86" xlink:href="#radial-gradient-4"/><radialGradient id="radial-gradient-21" cx="159.97" cy="30.66" r="0.38" xlink:href="#radial-gradient-4"/><radialGradient id="radial-gradient-22" cx="139.72" cy="42.48" r="0.38" xlink:href="#radial-gradient-4"/><radialGradient id="radial-gradient-23" cx="157.41" cy="35.5" r="0.38" xlink:href="#radial-gradient-4"/><radialGradient id="radial-gradient-24" cx="145.72" cy="35.5" r="0.38" xlink:href="#radial-gradient-4"/><radialGradient id="radial-gradient-25" cx="166.08" cy="26.09" r="0.38" xlink:href="#radial-gradient-4"/><radialGradient id="radial-gradient-26" cx="178.71" cy="39.35" r="0.38" xlink:href="#radial-gradient-4"/><radialGradient id="radial-gradient-27" cx="174.04" cy="29.59" r="0.38" xlink:href="#radial-gradient-4"/><radialGradient id="radial-gradient-28" cx="144.44" cy="24.47" r="0.38" xlink:href="#radial-gradient-4"/><radialGradient id="radial-gradient-29" cx="168.17" cy="47.38" r="0.38" xlink:href="#radial-gradient-4"/><radialGradient id="radial-gradient-30" cx="152.27" cy="60.84" r="0.38" xlink:href="#radial-gradient-4"/><radialGradient id="radial-gradient-31" cx="178.33" cy="52.69" r="0.38" xlink:href="#radial-gradient-4"/><radialGradient id="radial-gradient-32" cx="163.92" cy="60.05" r="0.38" xlink:href="#radial-gradient-4"/><radialGradient id="radial-gradient-33" cx="173.66" cy="60.44" r="0.38" xlink:href="#radial-gradient-4"/><radialGradient id="radial-gradient-34" cx="163.17" cy="53.62" r="0.38" xlink:href="#radial-gradient-4"/><radialGradient id="radial-gradient-35" cx="155.96" cy="56.81" r="0.65" xlink:href="#radial-gradient-4"/><linearGradient id="linear-gradient-3" x1="289.94" y1="163.13" x2="303.92" y2="203.74" gradientTransform="translate(539.6 13.38) rotate(142.6)" xlink:href="#linear-gradient"/><linearGradient id="linear-gradient-4" x1="295.5" y1="165.14" x2="294.42" y2="177.36" gradientTransform="translate(539.6 13.38) rotate(142.6)" xlink:href="#linear-gradient-2"/><radialGradient id="radial-gradient-36" cx="292.41" cy="168.05" r="2.74" gradientTransform="translate(539.6 13.38) rotate(142.6)" xlink:href="#radial-gradient-4"/><radialGradient id="radial-gradient-37" cx="313.86" cy="173.22" r="2.5" gradientTransform="translate(539.6 13.38) rotate(142.6)" xlink:href="#radial-gradient-4"/><radialGradient id="radial-gradient-38" cx="305" cy="179.88" r="1.98" gradientTransform="translate(539.6 13.38) rotate(142.6)" xlink:href="#radial-gradient-4"/><radialGradient id="radial-gradient-39" cx="291.08" cy="187.22" r="1.57" gradientTransform="translate(539.6 13.38) rotate(142.6)" xlink:href="#radial-gradient-4"/><radialGradient id="radial-gradient-40" cx="308.99" cy="187.46" r="0.88" gradientTransform="translate(539.6 13.38) rotate(142.6)" xlink:href="#radial-gradient-4"/><radialGradient id="radial-gradient-41" cx="310.83" cy="189.21" r="0.67" gradientTransform="translate(539.6 13.38) rotate(142.6)" xlink:href="#radial-gradient-4"/><radialGradient id="radial-gradient-42" cx="313.2" cy="185.89" r="1.39" gradientTransform="translate(539.6 13.38) rotate(142.6)" xlink:href="#radial-gradient-4"/><radialGradient id="radial-gradient-43" cx="307.12" cy="192.83" r="0.51" gradientTransform="translate(539.6 13.38) rotate(142.6)" xlink:href="#radial-gradient-4"/><radialGradient id="radial-gradient-44" cx="297.27" cy="190.24" r="0.43" gradientTransform="translate(539.6 13.38) rotate(142.6)" xlink:href="#radial-gradient-4"/><radialGradient id="radial-gradient-45" cx="299.19" cy="185.9" r="0.42" gradientTransform="translate(539.6 13.38) rotate(142.6)" xlink:href="#radial-gradient-4"/><radialGradient id="radial-gradient-46" cx="304.35" cy="177.7" r="0.38" gradientTransform="translate(539.6 13.38) rotate(142.6)" xlink:href="#radial-gradient-4"/><radialGradient id="radial-gradient-47" cx="282.92" cy="173.9" r="1.61" gradientTransform="translate(539.6 13.38) rotate(142.6)" xlink:href="#radial-gradient-4"/><radialGradient id="radial-gradient-48" cx="281.95" cy="188.26" r="0.44" gradientTransform="translate(539.6 13.38) rotate(142.6)" xlink:href="#radial-gradient-4"/><radialGradient id="radial-gradient-49" cx="287.83" cy="192.2" r="0.45" gradientTransform="translate(539.6 13.38) rotate(142.6)" xlink:href="#radial-gradient-4"/><radialGradient id="radial-gradient-50" cx="287.51" cy="181.52" r="0.35" gradientTransform="translate(539.6 13.38) rotate(142.6)" xlink:href="#radial-gradient-4"/><radialGradient id="radial-gradient-51" cx="275.48" cy="182.24" r="0.35" gradientTransform="translate(539.6 13.38) rotate(142.6)" xlink:href="#radial-gradient-4"/><radialGradient id="radial-gradient-52" cx="288.48" cy="185.47" r="2.4" gradientTransform="translate(539.6 13.38) rotate(142.6)" xlink:href="#radial-gradient-4"/><radialGradient id="radial-gradient-53" cx="298.11" cy="172.9" r="0.32" gradientTransform="translate(539.6 13.38) rotate(142.6)" xlink:href="#radial-gradient-4"/><radialGradient id="radial-gradient-54" cx="281.09" cy="182.84" r="0.32" gradientTransform="translate(539.6 13.38) rotate(142.6)" xlink:href="#radial-gradient-4"/><radialGradient id="radial-gradient-55" cx="295.96" cy="176.97" r="0.32" gradientTransform="translate(539.6 13.38) rotate(142.6)" xlink:href="#radial-gradient-4"/><radialGradient id="radial-gradient-56" cx="286.13" cy="176.97" r="0.32" gradientTransform="translate(539.6 13.38) rotate(142.6)" xlink:href="#radial-gradient-4"/><radialGradient id="radial-gradient-57" cx="303.24" cy="169.07" r="0.32" gradientTransform="translate(539.6 13.38) rotate(142.6)" xlink:href="#radial-gradient-4"/><radialGradient id="radial-gradient-58" cx="313.86" cy="180.22" r="0.32" gradientTransform="translate(539.6 13.38) rotate(142.6)" xlink:href="#radial-gradient-4"/><radialGradient id="radial-gradient-59" cx="309.93" cy="172.01" r="0.32" gradientTransform="translate(539.6 13.38) rotate(142.6)" xlink:href="#radial-gradient-4"/><radialGradient id="radial-gradient-60" cx="285.06" cy="167.71" r="0.32" gradientTransform="translate(539.6 13.38) rotate(142.6)" xlink:href="#radial-gradient-4"/><radialGradient id="radial-gradient-61" cx="305" cy="186.96" r="0.32" gradientTransform="translate(539.6 13.38) rotate(142.6)" xlink:href="#radial-gradient-4"/><radialGradient id="radial-gradient-62" cx="291.64" cy="198.27" r="0.32" gradientTransform="translate(539.6 13.38) rotate(142.6)" xlink:href="#radial-gradient-4"/><radialGradient id="radial-gradient-63" cx="313.54" cy="191.42" r="0.32" gradientTransform="translate(539.6 13.38) rotate(142.6)" xlink:href="#radial-gradient-4"/><radialGradient id="radial-gradient-64" cx="301.43" cy="197.61" r="0.32" gradientTransform="translate(539.6 13.38) rotate(142.6)" xlink:href="#radial-gradient-4"/><radialGradient id="radial-gradient-65" cx="309.62" cy="197.94" r="0.32" gradientTransform="translate(539.6 13.38) rotate(142.6)" xlink:href="#radial-gradient-4"/><radialGradient id="radial-gradient-66" cx="300.8" cy="192.2" r="0.32" gradientTransform="translate(539.6 13.38) rotate(142.6)" xlink:href="#radial-gradient-4"/><radialGradient id="radial-gradient-67" cx="294.74" cy="194.89" r="0.54" gradientTransform="translate(539.6 13.38) rotate(142.6)" xlink:href="#radial-gradient-4"/><radialGradient id="radial-gradient-68" cx="-1194.53" cy="3302.78" r="19.53" gradientTransform="matrix(0, 1.18, -0.8, 0, 2776.13, 1454.92)" gradientUnits="userSpaceOnUse"><stop offset="0" stop-color="#b46103"/><stop offset="0.11" stop-color="#b9680a" stop-opacity="0.92"/><stop offset="0.32" stop-color="#c57a1d" stop-opacity="0.71"/><stop offset="0.61" stop-color="#d9983a" stop-opacity="0.38"/><stop offset="0.89" stop-color="#f0b95c" stop-opacity="0"/></radialGradient><linearGradient id="linear-gradient-5" x1="-412.97" y1="353.63" x2="-381.29" y2="382.65" gradientTransform="matrix(0.99, 0.17, -0.17, 0.99, 567.06, -262.92)" gradientUnits="userSpaceOnUse"><stop offset="0" stop-color="#f0b95c" stop-opacity="0"/><stop offset="0.12" stop-color="#eeb659" stop-opacity="0.03"/><stop offset="0.27" stop-color="#e9ae51" stop-opacity="0.12"/><stop offset="0.45" stop-color="#e0a144" stop-opacity="0.27"/><stop offset="0.63" stop-color="#d38f31" stop-opacity="0.48"/><stop offset="0.83" stop-color="#c4781a" stop-opacity="0.74"/><stop offset="1" stop-color="#b46103"/></linearGradient><linearGradient id="linear-gradient-6" x1="101.95" y1="19.23" x2="109.44" y2="31.75" xlink:href="#linear-gradient-2"/><radialGradient id="radial-gradient-69" cx="-409.94" cy="370.77" r="4.21" gradientTransform="matrix(0.99, 0.17, -0.17, 0.99, 567.06, -262.92)" xlink:href="#radial-gradient-4"/><radialGradient id="radial-gradient-70" cx="-405.93" cy="373.49" r="1.75" gradientTransform="matrix(0.99, 0.17, -0.17, 0.99, 567.06, -262.92)" xlink:href="#radial-gradient-4"/><radialGradient id="radial-gradient-71" cx="-412.39" cy="371.93" r="1.83" gradientTransform="matrix(0.99, 0.17, -0.17, 0.99, 567.06, -262.92)" xlink:href="#radial-gradient-4"/><radialGradient id="radial-gradient-72" cx="-397.44" cy="365.42" r="0.61" gradientTransform="matrix(0.99, 0.17, -0.17, 0.99, 567.06, -262.92)" xlink:href="#radial-gradient-4"/><radialGradient id="radial-gradient-73" cx="-376.94" cy="358.5" r="1.23" gradientTransform="matrix(0.99, 0.17, -0.17, 0.99, 567.06, -262.92)" xlink:href="#radial-gradient-4"/><radialGradient id="radial-gradient-74" cx="-372.53" cy="354.2" r="0.88" gradientTransform="matrix(0.99, 0.17, -0.17, 0.99, 567.06, -262.92)" xlink:href="#radial-gradient-4"/><radialGradient id="radial-gradient-75" cx="-385.05" cy="340.12" r="1.06" gradientTransform="matrix(0.99, 0.17, -0.17, 0.99, 567.06, -262.92)" xlink:href="#radial-gradient-4"/><radialGradient id="radial-gradient-76" cx="-416.94" cy="385.64" r="0.66" gradientTransform="matrix(0.99, 0.17, -0.17, 0.99, 567.06, -262.92)" xlink:href="#radial-gradient-4"/><radialGradient id="radial-gradient-77" cx="-389.98" cy="386.8" r="0.66" gradientTransform="matrix(0.99, 0.17, -0.17, 0.99, 567.06, -262.92)" xlink:href="#radial-gradient-4"/><radialGradient id="radial-gradient-78" cx="-411.11" cy="385.59" r="0.71" gradientTransform="matrix(0.99, 0.17, -0.17, 0.99, 567.06, -262.92)" xlink:href="#radial-gradient-4"/><radialGradient id="radial-gradient-79" cx="-401.44" cy="358.78" r="0.64" gradientTransform="matrix(0.99, 0.17, -0.17, 0.99, 567.06, -262.92)" xlink:href="#radial-gradient-4"/><radialGradient id="radial-gradient-80" cx="-390.25" cy="368.91" r="0.71" gradientTransform="matrix(0.99, 0.17, -0.17, 0.99, 567.06, -262.92)" xlink:href="#radial-gradient-4"/><radialGradient id="radial-gradient-81" cx="-391.91" cy="364.16" r="0.95" gradientTransform="matrix(0.99, 0.17, -0.17, 0.99, 567.06, -262.92)" xlink:href="#radial-gradient-4"/><radialGradient id="radial-gradient-82" cx="-411.59" cy="359.99" r="0.64" gradientTransform="matrix(0.99, 0.17, -0.17, 0.99, 567.06, -262.92)" xlink:href="#radial-gradient-4"/><radialGradient id="radial-gradient-83" cx="-421.46" cy="373.23" r="0.54" gradientTransform="matrix(0.99, 0.17, -0.17, 0.99, 567.06, -262.92)" xlink:href="#radial-gradient-4"/><radialGradient id="radial-gradient-84" cx="-417.08" cy="374.72" r="0.74" gradientTransform="matrix(0.99, 0.17, -0.17, 0.99, 567.06, -262.92)" xlink:href="#radial-gradient-4"/><radialGradient id="radial-gradient-85" cx="-400.38" cy="348.58" r="0.93" gradientTransform="matrix(0.99, 0.17, -0.17, 0.99, 567.06, -262.92)" xlink:href="#radial-gradient-4"/><radialGradient id="radial-gradient-86" cx="-392.94" cy="341.99" r="0.58" gradientTransform="matrix(0.99, 0.17, -0.17, 0.99, 567.06, -262.92)" xlink:href="#radial-gradient-4"/><radialGradient id="radial-gradient-87" cx="-385.41" cy="348.68" r="0.52" gradientTransform="matrix(0.99, 0.17, -0.17, 0.99, 567.06, -262.92)" xlink:href="#radial-gradient-4"/><radialGradient id="radial-gradient-88" cx="-392.58" cy="352.76" r="0.66" gradientTransform="matrix(0.99, 0.17, -0.17, 0.99, 567.06, -262.92)" xlink:href="#radial-gradient-4"/><radialGradient id="radial-gradient-89" cx="-377.74" cy="368.29" r="0.69" gradientTransform="matrix(0.99, 0.17, -0.17, 0.99, 567.06, -262.92)" xlink:href="#radial-gradient-4"/><radialGradient id="radial-gradient-90" cx="-389.98" cy="379.19" r="0.41" gradientTransform="matrix(0.99, 0.17, -0.17, 0.99, 567.06, -262.92)" xlink:href="#radial-gradient-4"/><radialGradient id="radial-gradient-91" cx="-397.1" cy="383.26" r="0.41" gradientTransform="matrix(0.99, 0.17, -0.17, 0.99, 567.06, -262.92)" xlink:href="#radial-gradient-4"/><radialGradient id="radial-gradient-92" cx="-402.24" cy="389.73" r="0.41" gradientTransform="matrix(0.99, 0.17, -0.17, 0.99, 567.06, -262.92)" xlink:href="#radial-gradient-4"/><radialGradient id="radial-gradient-93" cx="-399.59" cy="371.93" r="0.41" gradientTransform="matrix(0.99, 0.17, -0.17, 0.99, 567.06, -262.92)" xlink:href="#radial-gradient-4"/><radialGradient id="radial-gradient-94" cx="-397.44" cy="391.42" r="0.41" gradientTransform="matrix(0.99, 0.17, -0.17, 0.99, 567.06, -262.92)" xlink:href="#radial-gradient-4"/><radialGradient id="radial-gradient-95" cx="-384.07" cy="357.52" r="0.41" gradientTransform="matrix(0.99, 0.17, -0.17, 0.99, 567.06, -262.92)" xlink:href="#radial-gradient-4"/><radialGradient id="radial-gradient-96" cx="-383.38" cy="366.86" r="0.41" gradientTransform="matrix(0.99, 0.17, -0.17, 0.99, 567.06, -262.92)" xlink:href="#radial-gradient-4"/><radialGradient id="radial-gradient-97" cx="-374.65" cy="348.58" r="0.41" gradientTransform="matrix(0.99, 0.17, -0.17, 0.99, 567.06, -262.92)" xlink:href="#radial-gradient-4"/><radialGradient id="radial-gradient-98" cx="-378.53" cy="350.59" r="0.41" gradientTransform="matrix(0.99, 0.17, -0.17, 0.99, 567.06, -262.92)" xlink:href="#radial-gradient-4"/><linearGradient id="linear-gradient-7" x1="-439.45" y1="441.33" x2="-416.52" y2="462.33" gradientTransform="translate(707.78 83.08) rotate(49.61)" xlink:href="#linear-gradient-5"/><linearGradient id="linear-gradient-8" x1="60.67" y1="100.35" x2="66.09" y2="109.41" gradientTransform="translate(104.16 -79.16) rotate(39.92)" xlink:href="#linear-gradient-2"/><radialGradient id="radial-gradient-99" cx="-437.25" cy="453.73" r="3.05" gradientTransform="translate(707.78 83.08) rotate(49.61)" xlink:href="#radial-gradient-4"/><radialGradient id="radial-gradient-100" cx="-434.35" cy="455.7" r="1.27" gradientTransform="translate(707.78 83.08) rotate(49.61)" xlink:href="#radial-gradient-4"/><radialGradient id="radial-gradient-101" cx="-439.02" cy="454.57" r="1.33" gradientTransform="translate(707.78 83.08) rotate(49.61)" xlink:href="#radial-gradient-4"/><radialGradient id="radial-gradient-102" cx="-428.21" cy="449.86" r="0.44" gradientTransform="translate(707.78 83.08) rotate(49.61)" xlink:href="#radial-gradient-4"/><radialGradient id="radial-gradient-103" cx="-413.37" cy="444.85" r="0.89" gradientTransform="translate(707.78 83.08) rotate(49.61)" xlink:href="#radial-gradient-4"/><radialGradient id="radial-gradient-104" cx="-410.17" cy="441.74" r="0.64" gradientTransform="translate(707.78 83.08) rotate(49.61)" xlink:href="#radial-gradient-4"/><radialGradient id="radial-gradient-105" cx="-419.24" cy="431.56" r="0.77" gradientTransform="translate(707.78 83.08) rotate(49.61)" xlink:href="#radial-gradient-4"/><radialGradient id="radial-gradient-106" cx="-442.32" cy="464.49" r="0.48" gradientTransform="translate(707.78 83.08) rotate(49.61)" xlink:href="#radial-gradient-4"/><radialGradient id="radial-gradient-107" cx="-422.8" cy="465.33" r="0.48" gradientTransform="translate(707.78 83.08) rotate(49.61)" xlink:href="#radial-gradient-4"/><radialGradient id="radial-gradient-108" cx="-438.09" cy="464.46" r="0.51" gradientTransform="translate(707.78 83.08) rotate(49.61)" xlink:href="#radial-gradient-4"/><radialGradient id="radial-gradient-109" cx="-431.1" cy="445.06" r="0.47" gradientTransform="translate(707.78 83.08) rotate(49.61)" xlink:href="#radial-gradient-4"/><radialGradient id="radial-gradient-110" cx="-423" cy="452.39" r="0.51" gradientTransform="translate(707.78 83.08) rotate(49.61)" xlink:href="#radial-gradient-4"/><radialGradient id="radial-gradient-111" cx="-424.2" cy="448.95" r="0.69" gradientTransform="translate(707.78 83.08) rotate(49.61)" xlink:href="#radial-gradient-4"/><radialGradient id="radial-gradient-112" cx="-438.45" cy="445.93" r="0.46" gradientTransform="translate(707.78 83.08) rotate(49.61)" xlink:href="#radial-gradient-4"/><radialGradient id="radial-gradient-113" cx="-445.59" cy="455.51" r="0.39" gradientTransform="translate(707.78 83.08) rotate(49.61)" xlink:href="#radial-gradient-4"/><radialGradient id="radial-gradient-114" cx="-442.42" cy="456.59" r="0.53" gradientTransform="translate(707.78 83.08) rotate(49.61)" xlink:href="#radial-gradient-4"/><radialGradient id="radial-gradient-115" cx="-430.33" cy="437.67" r="0.67" gradientTransform="translate(707.78 83.08) rotate(49.61)" xlink:href="#radial-gradient-4"/><radialGradient id="radial-gradient-116" cx="-424.95" cy="432.9" r="0.42" gradientTransform="translate(707.78 83.08) rotate(49.61)" xlink:href="#radial-gradient-4"/><radialGradient id="radial-gradient-117" cx="-419.49" cy="437.75" r="0.38" gradientTransform="translate(707.78 83.08) rotate(49.61)" xlink:href="#radial-gradient-4"/><radialGradient id="radial-gradient-118" cx="-424.69" cy="440.7" r="0.48" gradientTransform="translate(707.78 83.08) rotate(49.61)" xlink:href="#radial-gradient-4"/><radialGradient id="radial-gradient-119" cx="-413.95" cy="451.94" r="0.5" gradientTransform="translate(707.78 83.08) rotate(49.61)" xlink:href="#radial-gradient-4"/><radialGradient id="radial-gradient-120" cx="-422.8" cy="459.83" r="0.3" gradientTransform="translate(707.78 83.08) rotate(49.61)" xlink:href="#radial-gradient-4"/><radialGradient id="radial-gradient-121" cx="-427.96" cy="462.77" r="0.3" gradientTransform="translate(707.78 83.08) rotate(49.61)" xlink:href="#radial-gradient-4"/><radialGradient id="radial-gradient-122" cx="-431.68" cy="467.45" r="0.3" gradientTransform="translate(707.78 83.08) rotate(49.61)" xlink:href="#radial-gradient-4"/><radialGradient id="radial-gradient-123" cx="-429.76" cy="454.57" r="0.3" gradientTransform="translate(707.78 83.08) rotate(49.61)" xlink:href="#radial-gradient-4"/><radialGradient id="radial-gradient-124" cx="-428.21" cy="468.68" r="0.3" gradientTransform="translate(707.78 83.08) rotate(49.61)" xlink:href="#radial-gradient-4"/><radialGradient id="radial-gradient-125" cx="-418.53" cy="444.14" r="0.3" gradientTransform="translate(707.78 83.08) rotate(49.61)" xlink:href="#radial-gradient-4"/><radialGradient id="radial-gradient-126" cx="-418.03" cy="450.9" r="0.3" gradientTransform="translate(707.78 83.08) rotate(49.61)" xlink:href="#radial-gradient-4"/><radialGradient id="radial-gradient-127" cx="-411.71" cy="437.67" r="0.3" gradientTransform="translate(707.78 83.08) rotate(49.61)" xlink:href="#radial-gradient-4"/><radialGradient id="radial-gradient-128" cx="-414.52" cy="439.13" r="0.3" gradientTransform="translate(707.78 83.08) rotate(49.61)" xlink:href="#radial-gradient-4"/><radialGradient id="radial-gradient-129" cx="210.65" cy="-727.12" r="19.53" gradientTransform="translate(-100.91 612.04) scale(1.05 0.8)" xlink:href="#radial-gradient-68"/><linearGradient id="linear-gradient-9" x1="463.53" y1="-129.38" x2="487.61" y2="-91.57" gradientTransform="translate(-333.09 212.44) rotate(-5.95)" gradientUnits="userSpaceOnUse"><stop offset="0" stop-color="#f0b95c" stop-opacity="0"/><stop offset="0.2" stop-color="#efb85b" stop-opacity="0.02"/><stop offset="0.35" stop-color="#ecb356" stop-opacity="0.07"/><stop offset="0.49" stop-color="#e6ab4e" stop-opacity="0.16"/><stop offset="0.61" stop-color="#dfa042" stop-opacity="0.29"/><stop offset="0.73" stop-color="#d59134" stop-opacity="0.45"/><stop offset="0.85" stop-color="#c97f22" stop-opacity="0.66"/><stop offset="0.96" stop-color="#bb6b0d" stop-opacity="0.89"/><stop offset="1" stop-color="#b46103"/></linearGradient><radialGradient id="radial-gradient-130" cx="476.85" cy="-97.16" r="2.38" gradientTransform="translate(-333.09 212.44) rotate(-5.95)" xlink:href="#radial-gradient-4"/><radialGradient id="radial-gradient-131" cx="489.79" cy="-104.95" r="0.46" gradientTransform="translate(-333.09 212.44) rotate(-5.95)" xlink:href="#radial-gradient-4"/><radialGradient id="radial-gradient-132" cx="495.55" cy="-110.99" r="0.51" gradientTransform="translate(-333.09 212.44) rotate(-5.95)" xlink:href="#radial-gradient-4"/><radialGradient id="radial-gradient-133" cx="487.14" cy="-125.69" r="1.77" gradientTransform="translate(-333.09 212.44) rotate(-5.95)" xlink:href="#radial-gradient-4"/><radialGradient id="radial-gradient-134" cx="488.48" cy="-115.4" r="0.45" gradientTransform="translate(-333.09 212.44) rotate(-5.95)" xlink:href="#radial-gradient-4"/><radialGradient id="radial-gradient-135" cx="484.01" cy="-106.93" r="0.72" gradientTransform="translate(-333.09 212.44) rotate(-5.95)" xlink:href="#radial-gradient-4"/><radialGradient id="radial-gradient-136" cx="484.81" cy="-98.38" r="0.44" gradientTransform="translate(-333.09 212.44) rotate(-5.95)" xlink:href="#radial-gradient-4"/><radialGradient id="radial-gradient-137" cx="476.56" cy="-92.07" r="0.41" gradientTransform="translate(-333.09 212.44) rotate(-5.95)" xlink:href="#radial-gradient-4"/><radialGradient id="radial-gradient-138" cx="490.66" cy="-100.12" r="0.24" gradientTransform="translate(-333.09 212.44) rotate(-5.95)" xlink:href="#radial-gradient-4"/><radialGradient id="radial-gradient-139" cx="492.73" cy="-110.35" r="0.24" gradientTransform="translate(-333.09 212.44) rotate(-5.95)" xlink:href="#radial-gradient-4"/><radialGradient id="radial-gradient-140" cx="495.55" cy="-105.46" r="0.24" gradientTransform="translate(-333.09 212.44) rotate(-5.95)" xlink:href="#radial-gradient-4"/><radialGradient id="radial-gradient-141" cx="492.49" cy="-119.12" r="0.24" gradientTransform="translate(-333.09 212.44) rotate(-5.95)" xlink:href="#radial-gradient-4"/><radialGradient id="radial-gradient-142" cx="486.56" cy="-120.31" r="0.37" gradientTransform="translate(-333.09 212.44) rotate(-5.95)" xlink:href="#radial-gradient-4"/><radialGradient id="radial-gradient-143" cx="483.43" cy="-92.85" r="0.37" gradientTransform="translate(-333.09 212.44) rotate(-5.95)" xlink:href="#radial-gradient-4"/><radialGradient id="radial-gradient-144" cx="469.72" cy="-92.58" r="0.52" gradientTransform="translate(-333.09 212.44) rotate(-5.95)" xlink:href="#radial-gradient-4"/><linearGradient id="linear-gradient-10" x1="458.65" y1="-126.58" x2="479.5" y2="-99.11" gradientTransform="translate(-333.09 212.44) rotate(-5.95)" gradientUnits="userSpaceOnUse"><stop offset="0" stop-color="#f0b95c" stop-opacity="0"/><stop offset="0.17" stop-color="#f0b95c" stop-opacity="0.01"/><stop offset="0.31" stop-color="#f1bb5e" stop-opacity="0.05"/><stop offset="0.43" stop-color="#f1bd60" stop-opacity="0.11"/><stop offset="0.54" stop-color="#f2c063" stop-opacity="0.21"/><stop offset="0.64" stop-color="#f4c468" stop-opacity="0.32"/><stop offset="0.74" stop-color="#f6c86d" stop-opacity="0.47"/><stop offset="0.84" stop-color="#f8ce73" stop-opacity="0.64"/><stop offset="0.93" stop-color="#fad57a" stop-opacity="0.83"/><stop offset="1" stop-color="#fcda80"/></linearGradient><linearGradient id="linear-gradient-11" x1="454.98" y1="-109.21" x2="472.71" y2="-109.21" xlink:href="#linear-gradient-10"/></defs><title>potato</title><g class="cls-1"><g id="Layer_1" data-name="Layer 1"><ellipse class="cls-2" cx="159.26" cy="59.27" rx="37.54" ry="5.74"/><ellipse class="cls-3" cx="109.24" cy="55.86" rx="37.54" ry="5.74"/><path class="cls-4" d="M170.15,71.15c0,3.17-16.81,5.73-37.54,5.73s-37.54-2.56-37.54-5.73,16.81-5.74,37.54-5.74S170.15,68,170.15,71.15Z" transform="translate(-1.16 -5.05)"/><path class="cls-5" d="M133.37,48.28c-3-3.16-3.87-6.59-3.62-10.75.29-4.9,3.47-8.34,7-11.47a28.63,28.63,0,0,1,22.5-6.47c4.35.76,8.09,3.1,12.22,4.64A34.45,34.45,0,0,1,176,26.08a20,20,0,0,1,8.17,9.47c3.58,8.42,3.21,19.13-4.77,25a29.43,29.43,0,0,1-16.47,5.18c-6.32.19-13-1.34-17.62-5.61-2.33-2.13-4.06-4.83-6.35-7C137.13,51.4,135,50.07,133.37,48.28Z" transform="translate(-1.16 -5.05)"/><path class="cls-6" d="M133.37,48.28c-3-3.16-3.87-6.59-3.62-10.75.29-4.9,3.47-8.34,7-11.47a28.63,28.63,0,0,1,22.5-6.47c4.35.76,8.09,3.1,12.22,4.64A34.45,34.45,0,0,1,176,26.08a20,20,0,0,1,8.17,9.47c3.58,8.42,3.21,19.13-4.77,25a29.43,29.43,0,0,1-16.47,5.18c-6.32.19-13-1.34-17.62-5.61-2.33-2.13-4.06-4.83-6.35-7C137.13,51.4,135,50.07,133.37,48.28Z" transform="translate(-1.16 -5.05)"/><path class="cls-7" d="M145.43,24.62c4.67-1.92,9.89-3.21,14.78-1.9a28.82,28.82,0,0,1,6.62,3,8.47,8.47,0,0,1,2.53,1.85,2.93,2.93,0,0,1,.63,2.93c-.46,1.09-1.68,1.6-2.79,2l-4.14,1.53a27.54,27.54,0,0,1-5.07,1.5,20.79,20.79,0,0,1-9.58-1.15,10.53,10.53,0,0,1-5-2.9c-1.26-1.51-1.63-3.92-.35-5.4A6.18,6.18,0,0,1,145.43,24.62Z" transform="translate(-1.16 -5.05)"/><g class="cls-8"><path class="cls-9" d="M155.24,25.53a12.28,12.28,0,0,0,1.94-1.24,1.09,1.09,0,0,0,.29-.35.34.34,0,0,0-.12-.41.52.52,0,0,0-.35,0,25.52,25.52,0,0,0-7.7,3.15c-.14.09-.31.25-.23.41s.24.12.38.1l1.93-.23a8.5,8.5,0,0,0,1.87-.38,7.59,7.59,0,0,0,1-.51Z" transform="translate(-1.16 -5.05)"/><path class="cls-9" d="M177.49,30.83A14,14,0,0,0,175.43,29a3.07,3.07,0,0,1,1.74.51c.76.41,1.51.85,2.25,1.31a6.17,6.17,0,0,1,2.67,2.63c.09.23.07.61-.18.6a.85.85,0,0,1-.17-.06L179.8,32.9a6.39,6.39,0,0,1-1.19-.77A11.61,11.61,0,0,1,177.49,30.83Z" transform="translate(-1.16 -5.05)"/><path class="cls-9" d="M165.53,40.12a.75.75,0,0,0-.16.29.57.57,0,0,0,.41.6,2.33,2.33,0,0,0,.79.06,13.74,13.74,0,0,0,2,0A1.66,1.66,0,0,0,170,39.8a3.16,3.16,0,0,0-2.63.62.29.29,0,0,1-.09-.36.86.86,0,0,1,.28-.29,7.55,7.55,0,0,1,3.06-1.32.69.69,0,0,0,.36-.13.26.26,0,0,0,.09-.34.37.37,0,0,0-.22-.12,4.53,4.53,0,0,0-3,.41A6.4,6.4,0,0,0,165.53,40.12Z" transform="translate(-1.16 -5.05)"/><path class="cls-9" d="M151,46.15c0-.23.07-.55.3-.55a1.57,1.57,0,0,1,.9,1,4.51,4.51,0,0,1,.12,1.42,3.42,3.42,0,0,1-.83,2.64,2,2,0,0,1-.2-1.1c0-.32.14-.62.18-.94a1.16,1.16,0,0,0-.18-.91,1.49,1.49,0,0,1-.23-.27.76.76,0,0,1-.05-.34C151,46.81,151,46.48,151,46.15Z" transform="translate(-1.16 -5.05)"/><path class="cls-9" d="M172,49.17a.72.72,0,0,0,.43.2.62.62,0,0,0,.38,0c.21-.09.28-.36.49-.45s.39,0,.57,0a.42.42,0,0,0,.26-.43.92.92,0,0,0-.2-.49,1.19,1.19,0,0,0-.82-.51c-.54,0-1,.49-1.14,1A.7.7,0,0,0,172,49.17Z" transform="translate(-1.16 -5.05)"/><path class="cls-9" d="M175.32,49.9a1.26,1.26,0,0,0-1,.56.46.46,0,0,0-.07.16.42.42,0,0,0,.26.45,1.15,1.15,0,0,0,.55.07c.44,0,1-.11,1.07-.53S175.73,49.89,175.32,49.9Z" transform="translate(-1.16 -5.05)"/><path class="cls-9" d="M179.87,45.45a6.51,6.51,0,0,0-1.53-.14,2.27,2.27,0,0,0-1.41.54,3.3,3.3,0,0,0-.68,1.14l-.21.47a1.23,1.23,0,0,0,1.4.27,1.21,1.21,0,0,0,.63-1.28l1.11-.2a1.22,1.22,0,0,0,.61-.22A.43.43,0,0,0,179.87,45.45Z" transform="translate(-1.16 -5.05)"/><path class="cls-9" d="M171.13,55.21a.82.82,0,0,0,.15-.69.47.47,0,0,0-.55-.34.6.6,0,0,0-.32.27.94.94,0,0,0-.18.62.48.48,0,0,0,.42.43A.61.61,0,0,0,171.13,55.21Z" transform="translate(-1.16 -5.05)"/><path class="cls-9" d="M159.07,52.25a.54.54,0,0,0,.43-.77.5.5,0,0,0-.15-.17.55.55,0,0,0-.82.43A.54.54,0,0,0,159.07,52.25Z" transform="translate(-1.16 -5.05)"/><path class="cls-9" d="M161.08,46a1.6,1.6,0,0,0-.18.56.53.53,0,0,0,.24.5c.29.16.67-.16.63-.49A.7.7,0,0,0,161.08,46Z" transform="translate(-1.16 -5.05)"/><path class="cls-9" d="M167.75,37.19a.46.46,0,1,0-.7-.52.48.48,0,0,0,.51.6A.46.46,0,0,0,167.75,37.19Z" transform="translate(-1.16 -5.05)"/><path class="cls-9" d="M144.14,30.94a.43.43,0,0,0-.49-.26c-.58.07-.9.68-1.23,1.16a4.08,4.08,0,0,1-1.95,1.53c-.28.1-.6.22-.67.5A1.78,1.78,0,0,0,141,33.7a12.8,12.8,0,0,0,1.85-.93,1,1,0,0,0,.37-.32c.13-.22.1-.51.24-.72a1.69,1.69,0,0,1,.41-.34A.46.46,0,0,0,144.14,30.94Z" transform="translate(-1.16 -5.05)"/><path class="cls-9" d="M141.17,48.93a.5.5,0,0,0-.74.15,1,1,0,0,0,0,.85c.32.17.73-.15.81-.51A.53.53,0,0,0,141.17,48.93Z" transform="translate(-1.16 -5.05)"/><path class="cls-9" d="M147.36,54.18c0,.22.13.48.35.51s.44-.28.51-.54a.69.69,0,0,0,0-.51.43.43,0,0,0-.61-.07A.73.73,0,0,0,147.36,54.18Z" transform="translate(-1.16 -5.05)"/><path class="cls-9" d="M147.5,41.75a.47.47,0,0,0,.35-.29c.11-.38-.46-.64-.71-.38S147.05,41.87,147.5,41.75Z" transform="translate(-1.16 -5.05)"/><path class="cls-9" d="M133.19,42.61a.52.52,0,0,0,.36-.3c.1-.37-.47-.63-.72-.38S132.74,42.73,133.19,42.61Z" transform="translate(-1.16 -5.05)"/><path class="cls-9" d="M148,49.4a1.51,1.51,0,0,1-.44-.39,1.71,1.71,0,0,1-.22-.95,9.35,9.35,0,0,1,.43-3.53,2.11,2.11,0,0,1,.85-1.11,2.3,2.3,0,0,0,.43-.25,1.77,1.77,0,0,0,.3-.56.57.57,0,0,1,.46-.38c-.14.88-1.18,1.36-1.47,2.21a2.75,2.75,0,0,0-.08,1.07,36.47,36.47,0,0,0,.51,4.42Z" transform="translate(-1.16 -5.05)"/><path class="cls-9" d="M160.4,30.91a.31.31,0,0,0-.11-.14.31.31,0,0,0-.28,0,.52.52,0,0,0-.29.68.47.47,0,0,0,.54,0A.47.47,0,0,0,160.4,30.91Z" transform="translate(-1.16 -5.05)"/><path class="cls-9" d="M140.14,42.73a.33.33,0,0,0-.1-.14.34.34,0,0,0-.28,0,.51.51,0,0,0-.29.68.44.44,0,0,0,.67-.52Z" transform="translate(-1.16 -5.05)"/><path class="cls-9" d="M157.83,35.75a.33.33,0,0,0-.1-.14.34.34,0,0,0-.28,0,.52.52,0,0,0-.29.68.44.44,0,0,0,.67-.52Z" transform="translate(-1.16 -5.05)"/><path class="cls-9" d="M146.14,35.75a.71.71,0,0,0-.1-.14.37.37,0,0,0-.29,0,.52.52,0,0,0-.29.68.45.45,0,0,0,.54,0A.47.47,0,0,0,146.14,35.75Z" transform="translate(-1.16 -5.05)"/><path class="cls-9" d="M166.5,26.34a.45.45,0,0,0-.1-.13.33.33,0,0,0-.29,0,.52.52,0,0,0-.29.68.45.45,0,0,0,.54,0A.47.47,0,0,0,166.5,26.34Z" transform="translate(-1.16 -5.05)"/><path class="cls-9" d="M179.13,39.61a.39.39,0,0,0-.1-.14.3.3,0,0,0-.29,0,.52.52,0,0,0-.29.68.48.48,0,0,0,.54,0A.47.47,0,0,0,179.13,39.61Z" transform="translate(-1.16 -5.05)"/><path class="cls-9" d="M174.46,29.84a.45.45,0,0,0-.1-.13.33.33,0,0,0-.29,0,.52.52,0,0,0-.29.68.45.45,0,0,0,.54,0A.47.47,0,0,0,174.46,29.84Z" transform="translate(-1.16 -5.05)"/><path class="cls-9" d="M144.86,24.72a.26.26,0,0,0-.1-.13.31.31,0,0,0-.28,0,.52.52,0,0,0-.29.68.44.44,0,0,0,.67-.52Z" transform="translate(-1.16 -5.05)"/><path class="cls-9" d="M168.59,47.63a.45.45,0,0,0-.1-.14.36.36,0,0,0-.29,0,.53.53,0,0,0-.29.68.45.45,0,0,0,.54,0A.47.47,0,0,0,168.59,47.63Z" transform="translate(-1.16 -5.05)"/><path class="cls-9" d="M152.69,61.09a.26.26,0,0,0-.1-.13.31.31,0,0,0-.28,0,.51.51,0,0,0-.29.68.44.44,0,0,0,.67-.52Z" transform="translate(-1.16 -5.05)"/><path class="cls-9" d="M178.75,52.94a.33.33,0,0,0-.1-.14.34.34,0,0,0-.28,0,.51.51,0,0,0-.29.68.44.44,0,0,0,.67-.52Z" transform="translate(-1.16 -5.05)"/><path class="cls-9" d="M164.34,60.3a.32.32,0,0,0-.1-.13.33.33,0,0,0-.29,0,.52.52,0,0,0-.29.68.45.45,0,0,0,.54,0A.47.47,0,0,0,164.34,60.3Z" transform="translate(-1.16 -5.05)"/><path class="cls-9" d="M174.08,60.7a.24.24,0,0,0-.1-.14.28.28,0,0,0-.28,0,.51.51,0,0,0-.29.68.47.47,0,0,0,.53,0A.44.44,0,0,0,174.08,60.7Z" transform="translate(-1.16 -5.05)"/><path class="cls-9" d="M163.59,53.87a.3.3,0,0,0-.1-.14.36.36,0,0,0-.29,0,.52.52,0,0,0-.29.68.47.47,0,0,0,.54,0A.47.47,0,0,0,163.59,53.87Z" transform="translate(-1.16 -5.05)"/><path class="cls-9" d="M156.61,56.92a.5.5,0,0,0-.17-.23.54.54,0,0,0-.48,0,.88.88,0,0,0-.49,1.15.75.75,0,0,0,1.14-.88Z" transform="translate(-1.16 -5.05)"/></g><path class="cls-10" d="M155.16,25.07a13,13,0,0,0,1.94-1.24.88.88,0,0,0,.29-.35.34.34,0,0,0-.12-.41.47.47,0,0,0-.35,0,24.87,24.87,0,0,0-7.69,3.15c-.15.09-.32.25-.24.4s.24.13.38.11l1.93-.24a7.85,7.85,0,0,0,1.87-.37,8.41,8.41,0,0,0,1-.52Z" transform="translate(-1.16 -5.05)"/><path class="cls-11" d="M177.41,30.37a13.41,13.41,0,0,0-2.06-1.85,3,3,0,0,1,1.74.5c.76.42,1.52.86,2.25,1.31A6.22,6.22,0,0,1,182,33c.1.23.07.61-.18.6a.39.39,0,0,1-.17-.06l-1.94-1.07a6.73,6.73,0,0,1-1.19-.77A12.47,12.47,0,0,1,177.41,30.37Z" transform="translate(-1.16 -5.05)"/><path class="cls-12" d="M165.45,39.65a1,1,0,0,0-.16.29.59.59,0,0,0,.41.61,2.14,2.14,0,0,0,.8.05,13.61,13.61,0,0,0,2,0A1.67,1.67,0,0,0,170,39.33a3.19,3.19,0,0,0-2.63.62.27.27,0,0,1-.08-.35.69.69,0,0,1,.27-.29A7.47,7.47,0,0,1,170.57,38a1,1,0,0,0,.37-.13.28.28,0,0,0,.08-.35.42.42,0,0,0-.22-.11,4.53,4.53,0,0,0-3,.41A6.46,6.46,0,0,0,165.45,39.65Z" transform="translate(-1.16 -5.05)"/><path class="cls-13" d="M150.94,45.69c0-.24.07-.55.31-.56a1.57,1.57,0,0,1,.89,1,4.48,4.48,0,0,1,.13,1.42,3.44,3.44,0,0,1-.84,2.64,2,2,0,0,1-.2-1.11c0-.32.14-.62.18-.94a1.13,1.13,0,0,0-.18-.9A1.86,1.86,0,0,1,151,47a.82.82,0,0,1-.06-.34C151,46.35,151,46,150.94,45.69Z" transform="translate(-1.16 -5.05)"/><path class="cls-14" d="M171.9,48.71a.82.82,0,0,0,.43.2.62.62,0,0,0,.38,0c.21-.09.28-.37.49-.45s.39,0,.58,0A.44.44,0,0,0,174,48a.9.9,0,0,0-.21-.49A1.15,1.15,0,0,0,173,47c-.54,0-1,.49-1.14,1A.72.72,0,0,0,171.9,48.71Z" transform="translate(-1.16 -5.05)"/><path class="cls-15" d="M175.24,49.44a1.27,1.27,0,0,0-1,.55.56.56,0,0,0-.07.16.42.42,0,0,0,.26.45,1.32,1.32,0,0,0,.56.08c.43,0,1-.11,1.06-.54S175.65,49.42,175.24,49.44Z" transform="translate(-1.16 -5.05)"/><path class="cls-16" d="M179.8,45a6.62,6.62,0,0,0-1.53-.15,2.18,2.18,0,0,0-1.41.55,3.19,3.19,0,0,0-.69,1.13L176,47a1.21,1.21,0,0,0,1.4.27A1.23,1.23,0,0,0,178,46l1.1-.19a1.28,1.28,0,0,0,.61-.22A.44.44,0,0,0,179.8,45Z" transform="translate(-1.16 -5.05)"/><path class="cls-17" d="M171.05,54.75a.83.83,0,0,0,.15-.69.48.48,0,0,0-.55-.35.67.67,0,0,0-.32.28.91.91,0,0,0-.18.61.49.49,0,0,0,.42.44A.64.64,0,0,0,171.05,54.75Z" transform="translate(-1.16 -5.05)"/><path class="cls-18" d="M159,51.79a.56.56,0,0,0,.43-.78.85.85,0,0,0-.16-.17.52.52,0,1,0-.27.95Z" transform="translate(-1.16 -5.05)"/><path class="cls-19" d="M161,45.56a1.67,1.67,0,0,0-.18.56.54.54,0,0,0,.24.51c.29.15.67-.17.64-.49A.73.73,0,0,0,161,45.56Z" transform="translate(-1.16 -5.05)"/><path class="cls-20" d="M167.67,36.72a.47.47,0,0,0,.08-.66.46.46,0,1,0-.27.74A.36.36,0,0,0,167.67,36.72Z" transform="translate(-1.16 -5.05)"/><path class="cls-21" d="M144.06,30.48a.44.44,0,0,0-.49-.27c-.58.07-.9.69-1.23,1.17a4.15,4.15,0,0,1-2,1.53c-.27.1-.6.21-.67.5a1.83,1.83,0,0,0,1.23-.17,13.51,13.51,0,0,0,1.86-.94,1,1,0,0,0,.37-.32c.12-.22.09-.5.23-.71a1.69,1.69,0,0,1,.41-.34A.48.48,0,0,0,144.06,30.48Z" transform="translate(-1.16 -5.05)"/><path class="cls-22" d="M141.09,48.46a.5.5,0,0,0-.74.16,1,1,0,0,0,0,.84c.33.17.73-.14.81-.51A.54.54,0,0,0,141.09,48.46Z" transform="translate(-1.16 -5.05)"/><path class="cls-23" d="M147.29,53.72c0,.22.12.47.34.5s.44-.28.51-.54a.64.64,0,0,0,0-.51.44.44,0,0,0-.61-.07A.75.75,0,0,0,147.29,53.72Z" transform="translate(-1.16 -5.05)"/><path class="cls-24" d="M147.42,41.29a.5.5,0,0,0,.36-.3c.1-.37-.47-.63-.72-.38S147,41.41,147.42,41.29Z" transform="translate(-1.16 -5.05)"/><path class="cls-25" d="M133.11,42.14a.47.47,0,0,0,.36-.29c.1-.38-.47-.64-.72-.38S132.66,42.26,133.11,42.14Z" transform="translate(-1.16 -5.05)"/><path class="cls-26" d="M147.94,48.93a1.24,1.24,0,0,1-.65-1.33,9.1,9.1,0,0,1,.43-3.53,2,2,0,0,1,.84-1.11,2.05,2.05,0,0,0,.43-.26,1.55,1.55,0,0,0,.3-.55.6.6,0,0,1,.46-.39c-.14.89-1.17,1.37-1.47,2.22a2.75,2.75,0,0,0-.08,1.07,36.31,36.31,0,0,0,.51,4.41Z" transform="translate(-1.16 -5.05)"/><path class="cls-27" d="M160.32,30.44a.29.29,0,0,0-.39-.16.52.52,0,0,0-.29.68.45.45,0,0,0,.54,0A.47.47,0,0,0,160.32,30.44Z" transform="translate(-1.16 -5.05)"/><path class="cls-28" d="M140.06,42.26a.26.26,0,0,0-.1-.13.28.28,0,0,0-.28,0,.52.52,0,0,0-.29.68.47.47,0,0,0,.54,0A.44.44,0,0,0,140.06,42.26Z" transform="translate(-1.16 -5.05)"/><path class="cls-29" d="M157.76,35.28a.35.35,0,0,0-.11-.13.28.28,0,0,0-.28,0,.52.52,0,0,0-.29.68.45.45,0,0,0,.68-.53Z" transform="translate(-1.16 -5.05)"/><path class="cls-30" d="M146.06,35.28a.32.32,0,0,0-.1-.13.3.3,0,0,0-.29,0,.52.52,0,0,0-.29.68.45.45,0,0,0,.68-.53Z" transform="translate(-1.16 -5.05)"/><path class="cls-31" d="M166.42,25.88a.27.27,0,0,0-.39-.16.53.53,0,0,0-.29.68.48.48,0,0,0,.54,0A.47.47,0,0,0,166.42,25.88Z" transform="translate(-1.16 -5.05)"/><path class="cls-32" d="M179.05,39.14a.29.29,0,0,0-.39-.16.53.53,0,0,0-.29.68.45.45,0,0,0,.54,0A.47.47,0,0,0,179.05,39.14Z" transform="translate(-1.16 -5.05)"/><path class="cls-33" d="M174.38,29.37a.32.32,0,0,0-.1-.13.3.3,0,0,0-.29,0,.53.53,0,0,0-.29.68.45.45,0,0,0,.68-.53Z" transform="translate(-1.16 -5.05)"/><path class="cls-34" d="M144.79,24.26a.31.31,0,0,0-.11-.14.31.31,0,0,0-.28,0,.52.52,0,0,0-.29.68.47.47,0,0,0,.54,0A.47.47,0,0,0,144.79,24.26Z" transform="translate(-1.16 -5.05)"/><path class="cls-35" d="M168.51,47.16a.26.26,0,0,0-.1-.13.28.28,0,0,0-.28,0,.51.51,0,0,0-.29.68.45.45,0,0,0,.53,0A.43.43,0,0,0,168.51,47.16Z" transform="translate(-1.16 -5.05)"/><path class="cls-36" d="M152.61,60.63a.24.24,0,0,0-.1-.14.28.28,0,0,0-.28,0,.52.52,0,0,0-.29.68.48.48,0,0,0,.54,0A.45.45,0,0,0,152.61,60.63Z" transform="translate(-1.16 -5.05)"/><path class="cls-37" d="M178.67,52.47a.26.26,0,0,0-.1-.13.28.28,0,0,0-.28,0A.52.52,0,0,0,178,53a.47.47,0,0,0,.54,0A.44.44,0,0,0,178.67,52.47Z" transform="translate(-1.16 -5.05)"/><path class="cls-38" d="M164.26,59.84a.3.3,0,0,0-.1-.14.33.33,0,0,0-.29,0,.53.53,0,0,0-.29.68.48.48,0,0,0,.54,0A.47.47,0,0,0,164.26,59.84Z" transform="translate(-1.16 -5.05)"/><path class="cls-39" d="M174,60.23a.26.26,0,0,0-.1-.13.31.31,0,0,0-.28,0,.52.52,0,0,0-.29.68.44.44,0,0,0,.67-.52Z" transform="translate(-1.16 -5.05)"/><path class="cls-40" d="M163.51,53.4a.26.26,0,0,0-.1-.13.31.31,0,0,0-.28,0,.52.52,0,0,0-.3.68.45.45,0,0,0,.54,0A.47.47,0,0,0,163.51,53.4Z" transform="translate(-1.16 -5.05)"/><path class="cls-41" d="M156.53,56.45a.48.48,0,0,0-.17-.23.55.55,0,0,0-.47,0,.88.88,0,0,0-.49,1.15.75.75,0,0,0,.9,0A.74.74,0,0,0,156.53,56.45Z" transform="translate(-1.16 -5.05)"/><path class="cls-5" d="M206.51,31.72a11.24,11.24,0,0,1,7.91,5.33c2.31,3.42,1.94,7.34,1.19,11.22a24.1,24.1,0,0,1-11.72,15.81c-3.3,1.71-7,2.06-10.53,3.14a30.16,30.16,0,0,1-3.94,1.06,16.78,16.78,0,0,1-10.29-2.16C172.44,62.33,167.22,55,169.58,47a24.61,24.61,0,0,1,8.35-11.86c4.12-3.35,9.33-5.72,14.62-5.25,2.64.23,5.18,1.15,7.81,1.43C202.41,31.56,204.49,31.38,206.51,31.72Z" transform="translate(-1.16 -5.05)"/><path class="cls-42" d="M206.51,31.72a11.24,11.24,0,0,1,7.91,5.33c2.31,3.42,1.94,7.34,1.19,11.22a24.1,24.1,0,0,1-11.72,15.81c-3.3,1.71-7,2.06-10.53,3.14a30.16,30.16,0,0,1-3.94,1.06,16.78,16.78,0,0,1-10.29-2.16C172.44,62.33,167.22,55,169.58,47a24.61,24.61,0,0,1,8.35-11.86c4.12-3.35,9.33-5.72,14.62-5.25,2.64.23,5.18,1.15,7.81,1.43C202.41,31.56,204.49,31.38,206.51,31.72Z" transform="translate(-1.16 -5.05)"/><path class="cls-43" d="M210.54,53.67c-2.14,3.67-5,7.2-8.89,8.82a24.68,24.68,0,0,1-6,1.36,7.12,7.12,0,0,1-2.64.06,2.49,2.49,0,0,1-1.92-1.64,3.74,3.74,0,0,1,.84-2.76c.66-1,1.32-2.09,2-3.13a22,22,0,0,1,2.62-3.59,17.44,17.44,0,0,1,7-4.13A9,9,0,0,1,208.4,48a3.64,3.64,0,0,1,3,3.43A5,5,0,0,1,210.54,53.67Z" transform="translate(-1.16 -5.05)"/><g class="cls-8"><path class="cls-9" d="M203.53,58.07a10.73,10.73,0,0,0-.67,1.82.81.81,0,0,0,0,.38.31.31,0,0,0,.28.22.45.45,0,0,0,.25-.18,21.37,21.37,0,0,0,3.53-6c.05-.13.08-.33,0-.39s-.23,0-.31.12l-1.17,1.15a6.7,6.7,0,0,0-1.06,1.2,7,7,0,0,0-.43.87Z" transform="translate(-1.16 -5.05)"/><path class="cls-9" d="M186,65.89a12,12,0,0,0,2.32.18,2.51,2.51,0,0,1-1.42.55c-.72.12-1.44.21-2.17.28a5.18,5.18,0,0,1-3.12-.4c-.18-.1-.36-.37-.19-.49a.26.26,0,0,1,.15,0l1.84-.28a5.22,5.22,0,0,1,1.18-.09A9.8,9.8,0,0,1,186,65.89Z" transform="translate(-1.16 -5.05)"/><path class="cls-9" d="M189.21,53.59a.66.66,0,0,0,0-.28.49.49,0,0,0-.59-.19,1.64,1.64,0,0,0-.55.36,10.58,10.58,0,0,0-1.34,1.06,1.38,1.38,0,0,0-.32,1.56,2.7,2.7,0,0,0,1.44-1.76.24.24,0,0,1,.24.19.8.8,0,0,1,0,.34,6.16,6.16,0,0,1-1.37,2.44.71.71,0,0,0-.18.27.23.23,0,0,0,.13.27.29.29,0,0,0,.2,0A3.79,3.79,0,0,0,188.61,56,5.5,5.5,0,0,0,189.21,53.59Z" transform="translate(-1.16 -5.05)"/><path class="cls-9" d="M195.82,42.15c.12.16.23.4.08.52a1.31,1.31,0,0,1-1.14-.23,3.78,3.78,0,0,1-.8-.89,2.89,2.89,0,0,1-.79-2.19,1.66,1.66,0,0,1,.7.64c.14.22.22.48.35.72a1,1,0,0,0,.59.51,1,1,0,0,1,.29.07.72.72,0,0,1,.2.19Z" transform="translate(-1.16 -5.05)"/><path class="cls-9" d="M180.28,50.83a.62.62,0,0,0-.39.09.49.49,0,0,0-.26.19c-.09.16,0,.38-.09.54s-.28.18-.37.32a.36.36,0,0,0,0,.42.84.84,0,0,0,.39.22,1,1,0,0,0,.81-.07,1.11,1.11,0,0,0,.25-1.25C180.6,51.09,180.49,50.87,180.28,50.83Z" transform="translate(-1.16 -5.05)"/><path class="cls-9" d="M177.68,52.05a1.06,1.06,0,0,0,.38-.88.4.4,0,0,0,0-.15.36.36,0,0,0-.41-.16,1,1,0,0,0-.4.23c-.29.23-.6.58-.44.9S177.41,52.27,177.68,52.05Z" transform="translate(-1.16 -5.05)"/><path class="cls-9" d="M176.91,57.34a5.44,5.44,0,0,0,1.1-.68,1.92,1.92,0,0,0,.66-1.08,2.79,2.79,0,0,0-.12-1.11l-.11-.42a1,1,0,0,0-.84,1.71l-.64.7a1,1,0,0,0-.29.45A.35.35,0,0,0,176.91,57.34Z" transform="translate(-1.16 -5.05)"/><path class="cls-9" d="M177.77,46.36a.68.68,0,0,0,.25.54.39.39,0,0,0,.54,0,.51.51,0,0,0,.07-.34.76.76,0,0,0-.19-.51.41.41,0,0,0-.5-.08A.52.52,0,0,0,177.77,46.36Z" transform="translate(-1.16 -5.05)"/><path class="cls-9" d="M187.33,42.19a.45.45,0,0,0,.1.73.45.45,0,0,0,.2,0,.47.47,0,0,0,.32-.71A.45.45,0,0,0,187.33,42.19Z" transform="translate(-1.16 -5.05)"/><path class="cls-9" d="M189.16,47.37a1.25,1.25,0,0,0-.16-.47.44.44,0,0,0-.42-.21.4.4,0,0,0-.17.65A.59.59,0,0,0,189.16,47.37Z" transform="translate(-1.16 -5.05)"/><path class="cls-9" d="M189.22,56.67a.4.4,0,0,0,.29.49.39.39,0,1,0-.2-.64A.46.46,0,0,0,189.22,56.67Z" transform="translate(-1.16 -5.05)"/><path class="cls-9" d="M208.17,48.79a.37.37,0,0,0,.47-.07c.35-.34.25-.92.22-1.41a3.4,3.4,0,0,1,.53-2c.13-.21.29-.45.19-.68a1.52,1.52,0,0,0-.74.74,11.36,11.36,0,0,0-.76,1.57.84.84,0,0,0-.08.41c0,.21.19.38.21.59a1.36,1.36,0,0,1-.11.44A.41.41,0,0,0,208.17,48.79Z" transform="translate(-1.16 -5.05)"/><path class="cls-9" d="M201,35.27c.24,0,.44-.24.41-.48a.82.82,0,0,0-.45-.55c-.3,0-.41.47-.28.75A.45.45,0,0,0,201,35.27Z" transform="translate(-1.16 -5.05)"/><path class="cls-9" d="M194.16,34.92a.43.43,0,0,0-.49-.16c-.19.12-.15.41-.06.62a.52.52,0,0,0,.27.34.35.35,0,0,0,.43-.27A.62.62,0,0,0,194.16,34.92Z" transform="translate(-1.16 -5.05)"/><path class="cls-9" d="M200.41,43.29a.38.38,0,0,0-.08.38c.12.3.63.18.67-.11S200.65,43,200.41,43.29Z" transform="translate(-1.16 -5.05)"/><path class="cls-9" d="M209.53,35.42a.41.41,0,0,0-.09.38c.13.3.64.18.68-.12A.33.33,0,0,0,209.53,35.42Z" transform="translate(-1.16 -5.05)"/><path class="cls-9" d="M196.17,38.45a1.62,1.62,0,0,1,.49,0,1.44,1.44,0,0,1,.62.53,7.64,7.64,0,0,1,1.52,2.57,1.77,1.77,0,0,1,0,1.18,1.88,1.88,0,0,0-.16.39,1.53,1.53,0,0,0,.08.52.5.5,0,0,1-.1.49c-.36-.66.08-1.51-.15-2.22a2.54,2.54,0,0,0-.49-.76,30,30,0,0,0-2.6-2.69Z" transform="translate(-1.16 -5.05)"/><path class="cls-9" d="M197.34,57.11a.18.18,0,0,0,.14,0,.27.27,0,0,0,.2-.13.43.43,0,0,0-.16-.6.37.37,0,0,0-.35.28A.36.36,0,0,0,197.34,57.11Z" transform="translate(-1.16 -5.05)"/><path class="cls-9" d="M204.83,38.88a.22.22,0,0,0,.13,0,.27.27,0,0,0,.21-.13.43.43,0,0,0-.16-.6.39.39,0,0,0-.36.28A.38.38,0,0,0,204.83,38.88Z" transform="translate(-1.16 -5.05)"/><path class="cls-9" d="M196.58,52.57a.22.22,0,0,0,.13,0,.27.27,0,0,0,.21-.13.43.43,0,0,0-.16-.6.39.39,0,0,0-.36.28A.38.38,0,0,0,196.58,52.57Z" transform="translate(-1.16 -5.05)"/><path class="cls-9" d="M204.39,46.6a.22.22,0,0,0,.13,0,.27.27,0,0,0,.21-.13.43.43,0,0,0-.16-.6.39.39,0,0,0-.36.28A.38.38,0,0,0,204.39,46.6Z" transform="translate(-1.16 -5.05)"/><path class="cls-9" d="M195.6,63.28a.28.28,0,0,0,.13,0,.26.26,0,0,0,.2-.13.44.44,0,0,0-.15-.61.38.38,0,0,0-.36.28A.39.39,0,0,0,195.6,63.28Z" transform="translate(-1.16 -5.05)"/><path class="cls-9" d="M180.39,60.87a.33.33,0,0,0,.14,0,.3.3,0,0,0,.2-.13.45.45,0,0,0-.15-.61.38.38,0,0,0-.19.7Z" transform="translate(-1.16 -5.05)"/><path class="cls-9" d="M188.49,65a.23.23,0,0,0,.34-.09.43.43,0,0,0-.15-.6.38.38,0,0,0-.36.28A.38.38,0,0,0,188.49,65Z" transform="translate(-1.16 -5.05)"/><path class="cls-9" d="M210.87,53.32a.28.28,0,0,0,.13,0,.28.28,0,0,0,.2-.13.44.44,0,0,0-.15-.61.38.38,0,0,0-.36.28A.39.39,0,0,0,210.87,53.32Z" transform="translate(-1.16 -5.05)"/><path class="cls-9" d="M183.33,50.13a.23.23,0,0,0,.14,0,.27.27,0,0,0,.2-.13.44.44,0,0,0-.15-.6.37.37,0,0,0-.19.69Z" transform="translate(-1.16 -5.05)"/><path class="cls-9" d="M187.08,33a.28.28,0,0,0,.13,0,.24.24,0,0,0,.2-.13.43.43,0,0,0-.15-.6.37.37,0,0,0-.18.69Z" transform="translate(-1.16 -5.05)"/><path class="cls-9" d="M173.84,51.77a.22.22,0,0,0,.13,0,.27.27,0,0,0,.21-.13.43.43,0,0,0-.16-.6.39.39,0,0,0-.36.28A.38.38,0,0,0,173.84,51.77Z" transform="translate(-1.16 -5.05)"/><path class="cls-9" d="M179.7,39.5a.23.23,0,0,0,.34-.09.43.43,0,0,0-.15-.6.37.37,0,0,0-.19.69Z" transform="translate(-1.16 -5.05)"/><path class="cls-9" d="M173,44.21a.22.22,0,0,0,.13,0,.24.24,0,0,0,.2-.13.43.43,0,0,0-.15-.6.37.37,0,0,0-.18.69Z" transform="translate(-1.16 -5.05)"/><path class="cls-9" d="M183.49,43.41a.22.22,0,0,0,.13,0,.27.27,0,0,0,.21-.13.43.43,0,0,0-.16-.6.37.37,0,0,0-.35.28A.36.36,0,0,0,183.49,43.41Z" transform="translate(-1.16 -5.05)"/><path class="cls-9" d="M186.59,37.82a.38.38,0,0,0,.23.06.43.43,0,0,0,.34-.22.73.73,0,0,0-.26-1,.63.63,0,0,0-.31,1.17Z" transform="translate(-1.16 -5.05)"/></g><path class="cls-44" d="M203.82,58.34a10.73,10.73,0,0,0-.67,1.82.7.7,0,0,0,0,.38.29.29,0,0,0,.28.22.45.45,0,0,0,.25-.18,21.23,21.23,0,0,0,3.53-6c.05-.13.08-.33-.06-.39s-.22,0-.3.12l-1.17,1.15a6.7,6.7,0,0,0-1.06,1.2,7.8,7.8,0,0,0-.43.87Z" transform="translate(-1.16 -5.05)"/><path class="cls-45" d="M186.25,66.16a12,12,0,0,0,2.32.18,2.51,2.51,0,0,1-1.42.55c-.72.12-1.44.21-2.17.28a5.18,5.18,0,0,1-3.12-.4c-.19-.1-.36-.37-.19-.49a.26.26,0,0,1,.15,0l1.84-.28a5.22,5.22,0,0,1,1.18-.09A9.8,9.8,0,0,1,186.25,66.16Z" transform="translate(-1.16 -5.05)"/><path class="cls-46" d="M189.5,53.86a.66.66,0,0,0,0-.28.49.49,0,0,0-.59-.19,1.64,1.64,0,0,0-.55.36A11.56,11.56,0,0,0,187,54.81a1.39,1.39,0,0,0-.32,1.56,2.7,2.7,0,0,0,1.44-1.76.26.26,0,0,1,.24.19.8.8,0,0,1,0,.34,6.16,6.16,0,0,1-1.37,2.44.8.8,0,0,0-.18.27.22.22,0,0,0,.12.27.31.31,0,0,0,.21,0,3.83,3.83,0,0,0,1.82-1.82A5.5,5.5,0,0,0,189.5,53.86Z" transform="translate(-1.16 -5.05)"/><path class="cls-47" d="M196.11,42.42c.12.16.23.4.08.53a1.35,1.35,0,0,1-1.14-.24,3.78,3.78,0,0,1-.8-.89,2.89,2.89,0,0,1-.79-2.19,1.66,1.66,0,0,1,.7.64c.14.23.22.48.35.72a1,1,0,0,0,.59.51.89.89,0,0,1,.28.07.64.64,0,0,1,.21.19Z" transform="translate(-1.16 -5.05)"/><path class="cls-48" d="M180.57,51.1a.62.62,0,0,0-.39.09.49.49,0,0,0-.26.19c-.09.16,0,.38-.09.54s-.28.18-.37.32a.36.36,0,0,0,0,.42.84.84,0,0,0,.39.22,1,1,0,0,0,.81-.07,1.12,1.12,0,0,0,.25-1.25C180.89,51.36,180.78,51.14,180.57,51.1Z" transform="translate(-1.16 -5.05)"/><path class="cls-49" d="M178,52.32a1.06,1.06,0,0,0,.38-.88.4.4,0,0,0,0-.15.36.36,0,0,0-.41-.16,1,1,0,0,0-.4.23c-.29.23-.6.58-.44.9S177.7,52.54,178,52.32Z" transform="translate(-1.16 -5.05)"/><path class="cls-50" d="M177.2,57.62a6,6,0,0,0,1.1-.69,1.92,1.92,0,0,0,.66-1.08,2.79,2.79,0,0,0-.12-1.11l-.11-.42a1,1,0,0,0-.84,1.71l-.64.7a1,1,0,0,0-.29.45A.37.37,0,0,0,177.2,57.62Z" transform="translate(-1.16 -5.05)"/><path class="cls-51" d="M178.06,46.64a.7.7,0,0,0,.24.53.4.4,0,0,0,.55-.05.5.5,0,0,0,.07-.34.76.76,0,0,0-.19-.51.4.4,0,0,0-.5-.07A.47.47,0,0,0,178.06,46.64Z" transform="translate(-1.16 -5.05)"/><path class="cls-52" d="M187.62,42.46a.45.45,0,0,0,.1.73.45.45,0,0,0,.2,0,.47.47,0,0,0,.32-.71A.45.45,0,0,0,187.62,42.46Z" transform="translate(-1.16 -5.05)"/><path class="cls-53" d="M189.45,47.64a1.31,1.31,0,0,0-.16-.47.44.44,0,0,0-.42-.21.4.4,0,0,0-.17.65A.59.59,0,0,0,189.45,47.64Z" transform="translate(-1.16 -5.05)"/><path class="cls-54" d="M189.51,56.94a.4.4,0,0,0,.29.49.39.39,0,1,0-.2-.64A.6.6,0,0,0,189.51,56.94Z" transform="translate(-1.16 -5.05)"/><path class="cls-55" d="M208.46,49.07a.39.39,0,0,0,.47-.08c.35-.34.25-.92.22-1.41a3.4,3.4,0,0,1,.53-2c.13-.21.29-.45.19-.68a1.56,1.56,0,0,0-.74.74,11.94,11.94,0,0,0-.76,1.57.84.84,0,0,0-.08.41c0,.21.19.38.21.59a1.36,1.36,0,0,1-.11.44A.43.43,0,0,0,208.46,49.07Z" transform="translate(-1.16 -5.05)"/><path class="cls-56" d="M201.27,35.54c.24,0,.44-.24.41-.48a.82.82,0,0,0-.45-.55c-.3.05-.41.47-.28.75A.43.43,0,0,0,201.27,35.54Z" transform="translate(-1.16 -5.05)"/><path class="cls-57" d="M194.45,35.19A.43.43,0,0,0,194,35c-.2.12-.15.41-.06.62a.52.52,0,0,0,.27.34.35.35,0,0,0,.43-.27A.62.62,0,0,0,194.45,35.19Z" transform="translate(-1.16 -5.05)"/><path class="cls-58" d="M200.7,43.56a.38.38,0,0,0-.08.38c.12.3.63.18.67-.11S200.94,43.25,200.7,43.56Z" transform="translate(-1.16 -5.05)"/><path class="cls-59" d="M209.82,35.69a.41.41,0,0,0-.09.38c.13.3.64.18.68-.12A.33.33,0,0,0,209.82,35.69Z" transform="translate(-1.16 -5.05)"/><path class="cls-60" d="M196.46,38.72a1.62,1.62,0,0,1,.49,0,1.44,1.44,0,0,1,.62.53,7.58,7.58,0,0,1,1.52,2.58,1.74,1.74,0,0,1,0,1.17,1.88,1.88,0,0,0-.16.39,1.32,1.32,0,0,0,.08.52.48.48,0,0,1-.11.49c-.35-.66.09-1.51-.14-2.22a2.54,2.54,0,0,0-.49-.76,31.43,31.43,0,0,0-2.6-2.69Z" transform="translate(-1.16 -5.05)"/><path class="cls-61" d="M197.63,57.39a.22.22,0,0,0,.14,0,.27.27,0,0,0,.2-.13.43.43,0,0,0-.16-.6.37.37,0,0,0-.35.28A.38.38,0,0,0,197.63,57.39Z" transform="translate(-1.16 -5.05)"/><path class="cls-62" d="M205.12,39.16a.21.21,0,0,0,.13,0,.24.24,0,0,0,.2-.13.43.43,0,0,0-.15-.6.38.38,0,0,0-.36.28A.4.4,0,0,0,205.12,39.16Z" transform="translate(-1.16 -5.05)"/><path class="cls-63" d="M196.87,52.85a.21.21,0,0,0,.13,0,.24.24,0,0,0,.2-.13.43.43,0,0,0-.15-.6.39.39,0,0,0-.36.28A.4.4,0,0,0,196.87,52.85Z" transform="translate(-1.16 -5.05)"/><path class="cls-64" d="M204.68,46.87a.22.22,0,0,0,.13,0,.24.24,0,0,0,.2-.13.43.43,0,0,0-.15-.6.39.39,0,0,0-.36.28A.38.38,0,0,0,204.68,46.87Z" transform="translate(-1.16 -5.05)"/><path class="cls-65" d="M195.89,63.55a.28.28,0,0,0,.13,0,.28.28,0,0,0,.2-.13.44.44,0,0,0-.15-.61.38.38,0,0,0-.36.28A.38.38,0,0,0,195.89,63.55Z" transform="translate(-1.16 -5.05)"/><path class="cls-66" d="M180.68,61.14a.33.33,0,0,0,.14,0,.3.3,0,0,0,.2-.13.45.45,0,0,0-.15-.61.38.38,0,0,0-.36.28A.38.38,0,0,0,180.68,61.14Z" transform="translate(-1.16 -5.05)"/><path class="cls-67" d="M188.78,65.27a.23.23,0,0,0,.34-.09.43.43,0,0,0-.15-.6.38.38,0,0,0-.36.28A.38.38,0,0,0,188.78,65.27Z" transform="translate(-1.16 -5.05)"/><path class="cls-68" d="M211.15,53.59a.37.37,0,0,0,.14,0,.28.28,0,0,0,.2-.13.44.44,0,0,0-.15-.61.38.38,0,0,0-.19.7Z" transform="translate(-1.16 -5.05)"/><path class="cls-69" d="M183.62,50.4a.23.23,0,0,0,.14,0,.27.27,0,0,0,.2-.13.44.44,0,0,0-.15-.6.37.37,0,0,0-.19.69Z" transform="translate(-1.16 -5.05)"/><path class="cls-70" d="M187.37,33.3a.2.2,0,0,0,.13,0,.25.25,0,0,0,.2-.13.43.43,0,0,0-.15-.6.37.37,0,0,0-.18.69Z" transform="translate(-1.16 -5.05)"/><path class="cls-71" d="M174.13,52a.22.22,0,0,0,.13,0,.24.24,0,0,0,.2-.13.43.43,0,0,0-.15-.6.37.37,0,0,0-.18.69Z" transform="translate(-1.16 -5.05)"/><path class="cls-72" d="M180,39.77a.23.23,0,0,0,.34-.09.43.43,0,0,0-.15-.6.37.37,0,0,0-.19.69Z" transform="translate(-1.16 -5.05)"/><path class="cls-73" d="M173.29,44.48a.2.2,0,0,0,.13,0,.24.24,0,0,0,.2-.13.43.43,0,0,0-.15-.6.37.37,0,0,0-.18.69Z" transform="translate(-1.16 -5.05)"/><path class="cls-74" d="M183.78,43.69a.21.21,0,0,0,.13,0,.27.27,0,0,0,.21-.13A.43.43,0,0,0,184,43a.39.39,0,0,0-.36.28A.4.4,0,0,0,183.78,43.69Z" transform="translate(-1.16 -5.05)"/><path class="cls-75" d="M186.88,38.09a.38.38,0,0,0,.23.06.45.45,0,0,0,.34-.21.74.74,0,0,0-.26-1,.63.63,0,0,0-.31,1.17Z" transform="translate(-1.16 -5.05)"/><ellipse class="cls-76" cx="146.17" cy="48.48" rx="15.55" ry="23" transform="translate(-5.83 74.46) rotate(-29.98)"/><path class="cls-5" d="M87.33,26.59a14.51,14.51,0,0,0-2.67,3.65c-2.84,5.5-2.72,12-.64,17.69A21.5,21.5,0,0,0,95,60a21.18,21.18,0,0,0,16.19.59,27.44,27.44,0,0,0,5-2.53,64.37,64.37,0,0,0,7.75-6q5.15-4.48,10-9.36a42.79,42.79,0,0,0,5.75-6.79,22.4,22.4,0,0,0,3-17.89A17.79,17.79,0,0,0,130.21,5.54a20.81,20.81,0,0,0-11.72.89A52.13,52.13,0,0,0,107.87,12c-5.17,3.29-10.18,6.84-15.19,10.38A38.68,38.68,0,0,0,87.33,26.59Z" transform="translate(-1.16 -5.05)"/><path class="cls-77" d="M87.33,26.59a14.51,14.51,0,0,0-2.67,3.65c-2.84,5.5-2.72,12-.64,17.69A21.5,21.5,0,0,0,95,60a21.18,21.18,0,0,0,16.19.59,27.44,27.44,0,0,0,5-2.53,64.37,64.37,0,0,0,7.75-6q5.15-4.48,10-9.36a42.79,42.79,0,0,0,5.75-6.79,22.4,22.4,0,0,0,3-17.89A17.79,17.79,0,0,0,130.21,5.54a20.81,20.81,0,0,0-11.72.89A52.13,52.13,0,0,0,107.87,12c-5.17,3.29-10.18,6.84-15.19,10.38A38.68,38.68,0,0,0,87.33,26.59Z" transform="translate(-1.16 -5.05)"/><path class="cls-78" d="M85.52,41.11a9,9,0,0,0,3,3.09,14,14,0,0,0,12.84,1,17.55,17.55,0,0,0,9.15-9.35A32,32,0,0,1,112.62,31c1.82-2.85,5-4.41,7.93-6.17s10.54-8.66,6.63-12.57a8.14,8.14,0,0,0-6.72-2.07,24.23,24.23,0,0,0-6.87,2.23,72.46,72.46,0,0,0-7.67,3.75c-3.49,2.07-6.22,5-9.84,6.93-3.09,1.61-6.65,3-8.73,5.94s-3.71,8.11-2,11.67C85.39,40.87,85.45,41,85.52,41.11Z" transform="translate(-1.16 -5.05)"/><g class="cls-8"><path class="cls-9" d="M99.94,29a4.83,4.83,0,0,0,0-.76c-.07-.24-.37-.45-.57-.3a1.74,1.74,0,0,0,0,1.7c.24.54.63,1,.92,1.52a7.77,7.77,0,0,1,.76,2.69,28.56,28.56,0,0,1,.25,2.91,4.76,4.76,0,0,0,.58,2.7c.57-2.74-.14-5.57-.85-8.28a3.86,3.86,0,0,0-.22-.68C100.49,30,100,29.55,99.94,29Z" transform="translate(-1.16 -5.05)"/><path class="cls-9" d="M105.29,39.12A10.92,10.92,0,0,0,104.18,36c-.3-.56-.77-1.17-1.42-1.15-.19.45.22.91.56,1.27a5.5,5.5,0,0,1,1.16,1.93C104.64,38.52,104.83,39.06,105.29,39.12Z" transform="translate(-1.16 -5.05)"/><path class="cls-9" d="M97.78,36.37c-.27-.43-.53-.87-.79-1.3a.45.45,0,0,1-.1-.41A.7.7,0,0,1,97,34.5a2.77,2.77,0,0,0,.84-2.58,3.37,3.37,0,0,1,.93,2.38,9.84,9.84,0,0,1-.4,2.58C98.12,36.88,97.92,36.61,97.78,36.37Z" transform="translate(-1.16 -5.05)"/><path class="cls-9" d="M114,31.1c.29-.16.29-.6.14-.89s-.43-.5-.71-.4a1.41,1.41,0,0,0-.32,1C113.39,31,113.74,31.25,114,31.1Z" transform="translate(-1.16 -5.05)"/><path class="cls-9" d="M136,27.25a1,1,0,0,0-.05-1.27,1,1,0,0,0-1.25-.21l-.51,1.44A1.53,1.53,0,0,0,134,28c.07.27.35.51.61.41C134.83,27.86,135.6,27.73,136,27.25Z" transform="translate(-1.16 -5.05)"/><path class="cls-9" d="M140.46,24.79a1.85,1.85,0,0,1,.18-.92,1.6,1.6,0,0,0,.13-.93.57.57,0,0,0-.72-.43A1.5,1.5,0,0,0,140.46,24.79Z" transform="translate(-1.16 -5.05)"/><path class="cls-9" d="M129.27,8l1.53.49a.67.67,0,0,0,.34,0,.44.44,0,0,0,.29-.29,1,1,0,0,0-.54-1.15A1.93,1.93,0,0,0,129.53,7a1.07,1.07,0,0,0-.51.28.43.43,0,0,0,0,.54A.73.73,0,0,0,129.27,8Z" transform="translate(-1.16 -5.05)"/><path class="cls-9" d="M91.11,46.3a1.85,1.85,0,0,0-.49.91c0,.35.23.74.57.72A1,1,0,0,0,91.11,46.3Z" transform="translate(-1.16 -5.05)"/><path class="cls-9" d="M117.49,52a1.85,1.85,0,0,0-.49.91c0,.35.23.75.58.72A1,1,0,0,0,117.49,52Z" transform="translate(-1.16 -5.05)"/><path class="cls-9" d="M97.4,47.33a1,1,0,0,0-1.13.67c-.11.47.41,1,.85.81A1.36,1.36,0,0,0,97.4,47.33Z" transform="translate(-1.16 -5.05)"/><path class="cls-9" d="M110.68,23c-.2.28-.4.67-.17.93s.42.17.66.16a5.72,5.72,0,0,0,.29-1.47C111.19,22.39,110.87,22.69,110.68,23Z" transform="translate(-1.16 -5.05)"/><path class="cls-9" d="M119.76,35.63c.15.27.46.44.72.19a1.07,1.07,0,0,0,.26-.45,1.29,1.29,0,0,0,.12-.67c-.1-.56-.65-.38-.94-.1A.88.88,0,0,0,119.76,35.63Z" transform="translate(-1.16 -5.05)"/><path class="cls-9" d="M119.43,29.09a.66.66,0,0,0-.22.22,5.16,5.16,0,0,0-.55,1,.75.75,0,0,0,0,.75.53.53,0,0,0,.51.16,1.25,1.25,0,0,0,.49-.27,1.58,1.58,0,0,0,.58-.9.84.84,0,0,0-.43-.91A.47.47,0,0,0,119.43,29.09Z" transform="translate(-1.16 -5.05)"/><path class="cls-9" d="M101.29,22.84a.63.63,0,0,0,.12-.23.46.46,0,0,0-.32-.43.82.82,0,0,0-.81.15.81.81,0,0,0-.24.79.65.65,0,0,0,.67.15A1.13,1.13,0,0,0,101.29,22.84Z" transform="translate(-1.16 -5.05)"/><path class="cls-9" d="M88.45,33.91c-.11.49,0,1.11.35.79a.5.5,0,0,0,.1-.14c.09-.2.31-.59.2-.82C88.81,33.16,88.56,33.48,88.45,33.91Z" transform="translate(-1.16 -5.05)"/><path class="cls-9" d="M92.92,35.48a.47.47,0,0,0-.28.22,2.7,2.7,0,0,0-.41.79.6.6,0,0,0,0,.51.42.42,0,0,0,.49.14.92.92,0,0,0,.43-.35,1,1,0,0,0,.13-1.14A.4.4,0,0,0,92.92,35.48Z" transform="translate(-1.16 -5.05)"/><path class="cls-9" d="M114.55,13.9a.48.48,0,0,0,.15-.31.82.82,0,0,0-.64-1,1,1,0,0,0-.42.08,3.1,3.1,0,0,0-.58.28,1.07,1.07,0,0,0-.4.39.49.49,0,0,0,0,.53.64.64,0,0,0,.45.19,4.58,4.58,0,0,0,1-.06A.72.72,0,0,0,114.55,13.9Z" transform="translate(-1.16 -5.05)"/><path class="cls-9" d="M122.75,8.12a.31.31,0,0,0,0-.23.37.37,0,0,0-.23-.21.82.82,0,0,0-1.07.66.73.73,0,0,0,1.29-.22Z" transform="translate(-1.16 -5.05)"/><path class="cls-9" d="M129,16a.55.55,0,0,0-.5-.51.52.52,0,0,0-.45.22.55.55,0,0,0,.27.81A.56.56,0,0,0,129,16Z" transform="translate(-1.16 -5.05)"/><path class="cls-9" d="M121.29,18.57a.72.72,0,0,0-1.29.07.54.54,0,0,0,.18.67.62.62,0,0,0,.23.07,1,1,0,0,0,.62-.06.57.57,0,0,0,.33-.51A.55.55,0,0,0,121.29,18.57Z" transform="translate(-1.16 -5.05)"/><path class="cls-9" d="M131.84,36.83s0,.08,0,.11a.22.22,0,0,0,.1.09,1.48,1.48,0,0,0,.93.07.93.93,0,0,0,.47-.22.45.45,0,0,0,.11-.48,1,1,0,0,0-1-.31A.94.94,0,0,0,131.84,36.83Z" transform="translate(-1.16 -5.05)"/><path class="cls-9" d="M119.16,45.11a.24.24,0,0,0,0-.19c-.07-.09-.22-.07-.33,0a.84.84,0,0,0-.41.78l.46.08A1.07,1.07,0,0,0,119.16,45.11Z" transform="translate(-1.16 -5.05)"/><path class="cls-9" d="M111.46,47.92a.26.26,0,0,0,0-.19c-.08-.09-.23-.06-.33,0a.87.87,0,0,0-.42.79l.47.07A1.19,1.19,0,0,0,111.46,47.92Z" transform="translate(-1.16 -5.05)"/><path class="cls-9" d="M105.3,53.43a.24.24,0,0,0,0-.19c-.07-.09-.23-.06-.33,0a.86.86,0,0,0-.42.78l.47.08A1.19,1.19,0,0,0,105.3,53.43Z" transform="translate(-1.16 -5.05)"/><path class="cls-9" d="M110.91,36.33a.23.23,0,0,0,0-.18.26.26,0,0,0-.33,0,.88.88,0,0,0-.42.79l.47.08A1.25,1.25,0,0,0,110.91,36.33Z" transform="translate(-1.16 -5.05)"/><path class="cls-9" d="M109.74,55.91a.24.24,0,0,0,0-.19c-.07-.09-.22-.06-.33,0a.86.86,0,0,0-.41.79l.46.07A1.07,1.07,0,0,0,109.74,55.91Z" transform="translate(-1.16 -5.05)"/><path class="cls-9" d="M128.64,24.74a.3.3,0,0,0,0-.19c-.07-.09-.22-.06-.32,0a.85.85,0,0,0-.42.78l.47.08A1.19,1.19,0,0,0,128.64,24.74Z" transform="translate(-1.16 -5.05)"/><path class="cls-9" d="M127.74,34.06a.26.26,0,0,0,0-.19c-.07-.09-.22-.06-.33,0a.86.86,0,0,0-.41.79l.46.07A1.07,1.07,0,0,0,127.74,34.06Z" transform="translate(-1.16 -5.05)"/><path class="cls-9" d="M139.42,17.51a.23.23,0,0,0,0-.18c-.07-.1-.22-.07-.33,0a.87.87,0,0,0-.41.79l.46.08A1.12,1.12,0,0,0,139.42,17.51Z" transform="translate(-1.16 -5.05)"/><path class="cls-9" d="M135.26,18.84a.23.23,0,0,0,0-.18c-.07-.1-.23-.07-.33,0a.85.85,0,0,0-.41.79l.46.08A1.1,1.1,0,0,0,135.26,18.84Z" transform="translate(-1.16 -5.05)"/></g><path class="cls-79" d="M100,28.87a4.76,4.76,0,0,0,0-.76c-.07-.25-.37-.46-.57-.31a1.74,1.74,0,0,0-.05,1.7c.24.54.63,1,.92,1.52a7.89,7.89,0,0,1,.76,2.7,28.12,28.12,0,0,1,.25,2.9,4.79,4.79,0,0,0,.58,2.71c.57-2.75-.14-5.58-.85-8.29a4.15,4.15,0,0,0-.22-.68C100.51,29.85,100,29.43,100,28.87Z" transform="translate(-1.16 -5.05)"/><path class="cls-80" d="M105.31,39a11,11,0,0,0-1.11-3.08c-.3-.56-.77-1.17-1.42-1.15-.19.45.22.91.56,1.27A5.5,5.5,0,0,1,104.5,38C104.66,38.4,104.85,38.94,105.31,39Z" transform="translate(-1.16 -5.05)"/><path class="cls-81" d="M97.8,36.25c-.27-.43-.53-.86-.79-1.3a.45.45,0,0,1-.1-.41.7.7,0,0,1,.14-.16,2.76,2.76,0,0,0,.84-2.58,3.39,3.39,0,0,1,.93,2.38,9.92,9.92,0,0,1-.4,2.59C98.14,36.76,97.94,36.49,97.8,36.25Z" transform="translate(-1.16 -5.05)"/><path class="cls-82" d="M114.06,31c.29-.15.29-.59.14-.89s-.43-.5-.71-.4a1.42,1.42,0,0,0-.32,1C113.41,30.89,113.76,31.14,114.06,31Z" transform="translate(-1.16 -5.05)"/><path class="cls-83" d="M136,27.13a1,1,0,0,0-.05-1.27,1,1,0,0,0-1.25-.21l-.51,1.44a1.53,1.53,0,0,0-.13.81c.07.27.35.51.61.41C134.85,27.74,135.62,27.61,136,27.13Z" transform="translate(-1.16 -5.05)"/><path class="cls-84" d="M140.48,24.67a1.87,1.87,0,0,1,.18-.92,1.59,1.59,0,0,0,.13-.93.56.56,0,0,0-.72-.42A1.49,1.49,0,0,0,140.48,24.67Z" transform="translate(-1.16 -5.05)"/><path class="cls-85" d="M129.29,7.84l1.53.49a.67.67,0,0,0,.34.05.46.46,0,0,0,.29-.3,1,1,0,0,0-.54-1.15,1.93,1.93,0,0,0-1.36,0,1,1,0,0,0-.51.27.43.43,0,0,0,0,.54A.62.62,0,0,0,129.29,7.84Z" transform="translate(-1.16 -5.05)"/><path class="cls-86" d="M91.13,46.18a1.85,1.85,0,0,0-.49.91c0,.35.23.75.57.72A1,1,0,0,0,91.13,46.18Z" transform="translate(-1.16 -5.05)"/><path class="cls-87" d="M117.51,51.86a1.89,1.89,0,0,0-.49.91c0,.35.23.75.58.73A1,1,0,0,0,117.51,51.86Z" transform="translate(-1.16 -5.05)"/><path class="cls-88" d="M97.42,47.21a1,1,0,0,0-1.13.68c-.11.47.41,1,.85.8A1.35,1.35,0,0,0,97.42,47.21Z" transform="translate(-1.16 -5.05)"/><path class="cls-89" d="M110.7,22.83c-.2.28-.4.68-.17.93a.75.75,0,0,0,.66.16,5.64,5.64,0,0,0,.29-1.47C111.21,22.28,110.89,22.57,110.7,22.83Z" transform="translate(-1.16 -5.05)"/><path class="cls-90" d="M119.78,35.51c.15.27.46.44.72.2a1.1,1.1,0,0,0,.26-.46,1.29,1.29,0,0,0,.12-.67c-.1-.56-.65-.37-.94-.09A.86.86,0,0,0,119.78,35.51Z" transform="translate(-1.16 -5.05)"/><path class="cls-91" d="M119.45,29a.63.63,0,0,0-.22.21,5.16,5.16,0,0,0-.55,1,.75.75,0,0,0,0,.75.51.51,0,0,0,.51.16,1.25,1.25,0,0,0,.49-.27,1.58,1.58,0,0,0,.58-.9.84.84,0,0,0-.43-.91A.43.43,0,0,0,119.45,29Z" transform="translate(-1.16 -5.05)"/><path class="cls-92" d="M101.31,22.72a.56.56,0,0,0,.12-.23.46.46,0,0,0-.32-.43.82.82,0,0,0-.81.15.81.81,0,0,0-.24.79.66.66,0,0,0,.67.16A1.15,1.15,0,0,0,101.31,22.72Z" transform="translate(-1.16 -5.05)"/><path class="cls-93" d="M88.47,33.8c-.11.48,0,1.11.35.78a.39.39,0,0,0,.1-.14c.09-.19.31-.59.2-.82C88.83,33,88.58,33.36,88.47,33.8Z" transform="translate(-1.16 -5.05)"/><path class="cls-94" d="M92.94,35.36a.51.51,0,0,0-.28.22,2.64,2.64,0,0,0-.41.8.58.58,0,0,0,0,.5.42.42,0,0,0,.49.14.92.92,0,0,0,.43-.35,1,1,0,0,0,.13-1.14A.4.4,0,0,0,92.94,35.36Z" transform="translate(-1.16 -5.05)"/><path class="cls-95" d="M114.57,13.79a.53.53,0,0,0,.15-.32.82.82,0,0,0-.64-1,1,1,0,0,0-.42.08,3.14,3.14,0,0,0-.58.29,1,1,0,0,0-.4.38.49.49,0,0,0,0,.53.64.64,0,0,0,.45.19,4.56,4.56,0,0,0,1-.05A.72.72,0,0,0,114.57,13.79Z" transform="translate(-1.16 -5.05)"/><path class="cls-96" d="M122.77,8a.31.31,0,0,0,0-.23.37.37,0,0,0-.23-.21.82.82,0,0,0-1.07.66A.73.73,0,0,0,122.77,8Z" transform="translate(-1.16 -5.05)"/><path class="cls-97" d="M129,15.87a.53.53,0,1,0-.68.51A.55.55,0,0,0,129,15.87Z" transform="translate(-1.16 -5.05)"/><path class="cls-98" d="M121.31,18.45a.74.74,0,0,0-.67-.37.71.71,0,0,0-.62.44.53.53,0,0,0,.18.67.9.9,0,0,0,.23.08,1,1,0,0,0,.62-.07.53.53,0,0,0,.26-.75Z" transform="translate(-1.16 -5.05)"/><path class="cls-99" d="M131.86,36.71a.25.25,0,0,0,0,.12.2.2,0,0,0,.1.08,1.48,1.48,0,0,0,.93.07.85.85,0,0,0,.47-.22.45.45,0,0,0,.11-.48,1,1,0,0,0-.95-.31A.94.94,0,0,0,131.86,36.71Z" transform="translate(-1.16 -5.05)"/><path class="cls-100" d="M119.18,45a.26.26,0,0,0,0-.19c-.07-.09-.22-.06-.33,0a.86.86,0,0,0-.41.79l.46.07A1.07,1.07,0,0,0,119.18,45Z" transform="translate(-1.16 -5.05)"/><path class="cls-101" d="M111.48,47.8a.23.23,0,0,0,0-.18.26.26,0,0,0-.33,0,.88.88,0,0,0-.42.79l.47.08A1.25,1.25,0,0,0,111.48,47.8Z" transform="translate(-1.16 -5.05)"/><path class="cls-102" d="M105.32,53.31a.23.23,0,0,0,0-.18c-.07-.1-.23-.07-.33,0a.88.88,0,0,0-.42.79L105,54A1.25,1.25,0,0,0,105.32,53.31Z" transform="translate(-1.16 -5.05)"/><path class="cls-103" d="M110.93,36.21a.23.23,0,0,0,0-.18.26.26,0,0,0-.33,0,.88.88,0,0,0-.42.79l.47.08A1.19,1.19,0,0,0,110.93,36.21Z" transform="translate(-1.16 -5.05)"/><path class="cls-104" d="M109.76,55.79a.23.23,0,0,0,0-.18c-.07-.1-.22-.07-.33,0a.87.87,0,0,0-.41.79l.46.08A1.12,1.12,0,0,0,109.76,55.79Z" transform="translate(-1.16 -5.05)"/><path class="cls-105" d="M128.66,24.62a.28.28,0,0,0,0-.18c-.07-.1-.22-.07-.32,0a.87.87,0,0,0-.42.79l.47.08A1.25,1.25,0,0,0,128.66,24.62Z" transform="translate(-1.16 -5.05)"/><path class="cls-106" d="M127.76,33.94a.23.23,0,0,0,0-.18c-.07-.1-.22-.07-.33,0a.87.87,0,0,0-.41.79l.46.08A1.12,1.12,0,0,0,127.76,33.94Z" transform="translate(-1.16 -5.05)"/><path class="cls-107" d="M139.44,17.39a.23.23,0,0,0,0-.18c-.07-.1-.22-.07-.33,0a.87.87,0,0,0-.41.79l.46.08A1.07,1.07,0,0,0,139.44,17.39Z" transform="translate(-1.16 -5.05)"/><path class="cls-108" d="M135.28,18.73a.24.24,0,0,0,0-.19c-.07-.09-.23-.06-.33,0a.83.83,0,0,0-.41.78l.46.08A1.07,1.07,0,0,0,135.28,18.73Z" transform="translate(-1.16 -5.05)"/><path class="cls-5" d="M74.76,34a10.65,10.65,0,0,0-3.18.78A16,16,0,0,0,63,44.35a15.55,15.55,0,0,0,.51,11.76A15.3,15.3,0,0,0,72.23,64a19.44,19.44,0,0,0,3.94.91,46.26,46.26,0,0,0,7.07.28c3.29-.06,6.59-.25,9.87-.56a31,31,0,0,0,6.35-1.1,16.22,16.22,0,0,0,10-8.54,12.89,12.89,0,0,0-1.08-12.68,15.1,15.1,0,0,0-6.92-5A37.46,37.46,0,0,0,93,35.46c-4.4-.57-8.83-.93-13.26-1.29A27.3,27.3,0,0,0,74.76,34Z" transform="translate(-1.16 -5.05)"/><path class="cls-109" d="M74.76,34a10.65,10.65,0,0,0-3.18.78A16,16,0,0,0,63,44.35a15.55,15.55,0,0,0,.51,11.76A15.3,15.3,0,0,0,72.23,64a19.44,19.44,0,0,0,3.94.91,46.26,46.26,0,0,0,7.07.28c3.29-.06,6.59-.25,9.87-.56a31,31,0,0,0,6.35-1.1,16.22,16.22,0,0,0,10-8.54,12.89,12.89,0,0,0-1.08-12.68,15.1,15.1,0,0,0-6.92-5A37.46,37.46,0,0,0,93,35.46c-4.4-.57-8.83-.93-13.26-1.29A27.3,27.3,0,0,0,74.76,34Z" transform="translate(-1.16 -5.05)"/><path class="cls-110" d="M67,41.26a6.61,6.61,0,0,0,.21,3.09,10.11,10.11,0,0,0,6.65,6.54A12.67,12.67,0,0,0,83.29,50a22.89,22.89,0,0,1,3.44-1.7c2.34-.74,4.85-.11,7.27.26s9.87.08,9.52-3.9a5.91,5.91,0,0,0-2.77-4.27,17.43,17.43,0,0,0-4.85-2,50.53,50.53,0,0,0-6-1.48c-2.9-.48-5.8-.1-8.67-.73-2.47-.54-5.08-1.44-7.61-.76S67.79,38.2,67.08,41A2.46,2.46,0,0,0,67,41.26Z" transform="translate(-1.16 -5.05)"/><g class="cls-8"><path class="cls-9" d="M80.65,41.22a3.57,3.57,0,0,0,.34-.43c.07-.17,0-.42-.18-.43a1.24,1.24,0,0,0-.81.92c-.12.41-.12.85-.2,1.27A5.6,5.6,0,0,1,79,44.4a20.62,20.62,0,0,1-1.21,1.73,3.44,3.44,0,0,0-.94,1.77,13.16,13.16,0,0,0,3.38-5,2.26,2.26,0,0,0,.19-.49C80.49,42,80.41,41.57,80.65,41.22Z" transform="translate(-1.16 -5.05)"/><path class="cls-9" d="M78.91,49.33a7.59,7.59,0,0,0,.81-2.22,1.28,1.28,0,0,0-.25-1.3c-.32.16-.3.61-.28,1a4.08,4.08,0,0,1-.25,1.62C78.82,48.7,78.68,49.09,78.91,49.33Z" transform="translate(-1.16 -5.05)"/><path class="cls-9" d="M76,44.32c.06-.36.12-.73.17-1.09,0-.1,0-.22.14-.27a.36.36,0,0,1,.15,0,2,2,0,0,0,1.66-1,2.37,2.37,0,0,1-.59,1.75,6.78,6.78,0,0,1-1.42,1.25A.63.63,0,0,1,76,44.32Z" transform="translate(-1.16 -5.05)"/><path class="cls-9" d="M87.49,48.94c.24.06.44-.19.49-.43s0-.47-.21-.54a1,1,0,0,0-.62.38C87.17,48.6,87.25,48.89,87.49,48.94Z" transform="translate(-1.16 -5.05)"/><path class="cls-9" d="M101.45,57a.72.72,0,0,0,0-1.42l-1,.56a1,1,0,0,0-.44.39c-.09.18,0,.45.14.51C100.53,56.8,101,57.09,101.45,57Z" transform="translate(-1.16 -5.05)"/><path class="cls-9" d="M105.08,57.71a1.4,1.4,0,0,1,.53-.43,1,1,0,0,0,.5-.45.4.4,0,0,0-.2-.57A1.09,1.09,0,0,0,105.08,57.71Z" transform="translate(-1.16 -5.05)"/><path class="cls-9" d="M106.69,43.17l.62,1a.49.49,0,0,0,.17.18.32.32,0,0,0,.3,0,.71.71,0,0,0,.23-.89,1.35,1.35,0,0,0-.73-.66.75.75,0,0,0-.41-.09.31.31,0,0,0-.27.29A.4.4,0,0,0,106.69,43.17Z" transform="translate(-1.16 -5.05)"/><path class="cls-9" d="M67.7,46.73A1.41,1.41,0,0,0,67,47a.47.47,0,0,0,0,.67A.72.72,0,0,0,67.7,46.73Z" transform="translate(-1.16 -5.05)"/><path class="cls-9" d="M79.71,62.14a1.35,1.35,0,0,0-.7.28.45.45,0,0,0,0,.66A.71.71,0,0,0,79.71,62.14Z" transform="translate(-1.16 -5.05)"/><path class="cls-9" d="M70.72,50.23a.73.73,0,0,0-.94-.15.5.5,0,0,0,.1.84A1,1,0,0,0,70.72,50.23Z" transform="translate(-1.16 -5.05)"/><path class="cls-9" d="M89.41,42.86c-.24.06-.54.19-.53.44s.16.29.29.39A3.49,3.49,0,0,0,90,43C90,42.79,89.63,42.8,89.41,42.86Z" transform="translate(-1.16 -5.05)"/><path class="cls-9" d="M88.56,54.12c0,.21.06.46.31.44a.87.87,0,0,0,.35-.13,1,1,0,0,0,.38-.32c.21-.36-.18-.51-.47-.49A.65.65,0,0,0,88.56,54.12Z" transform="translate(-1.16 -5.05)"/><path class="cls-9" d="M91.41,50.34a.41.41,0,0,0-.22,0,4.07,4.07,0,0,0-.76.28c-.17.09-.35.22-.36.41a.36.36,0,0,0,.21.32.78.78,0,0,0,.4.08,1.16,1.16,0,0,0,.74-.23.61.61,0,0,0,.18-.71A.31.31,0,0,0,91.41,50.34Z" transform="translate(-1.16 -5.05)"/><path class="cls-9" d="M84.25,38.44a.36.36,0,0,0,.17-.07.33.33,0,0,0,0-.39.58.58,0,0,0-.52-.29.56.56,0,0,0-.5.32.48.48,0,0,0,.31.4A.84.84,0,0,0,84.25,38.44Z" transform="translate(-1.16 -5.05)"/><path class="cls-9" d="M72,38.63c-.29.21-.54.59-.17.59a.2.2,0,0,0,.11,0c.15-.06.46-.18.5-.36C72.53,38.37,72.24,38.43,72,38.63Z" transform="translate(-1.16 -5.05)"/><path class="cls-9" d="M73.73,41.57a.38.38,0,0,0-.26,0,1.81,1.81,0,0,0-.59.25.44.44,0,0,0-.23.29.33.33,0,0,0,.22.31.65.65,0,0,0,.39,0c.29-.07.59-.28.6-.57A.26.26,0,0,0,73.73,41.57Z" transform="translate(-1.16 -5.05)"/><path class="cls-9" d="M95.76,39.64a.38.38,0,0,0,.23-.11.58.58,0,0,0,.09-.83.65.65,0,0,0-.27-.15,1.85,1.85,0,0,0-.45-.11.77.77,0,0,0-.4,0,.35.35,0,0,0-.24.3.49.49,0,0,0,.16.32,3,3,0,0,0,.61.45A.46.46,0,0,0,95.76,39.64Z" transform="translate(-1.16 -5.05)"/><path class="cls-9" d="M103,40.24a.24.24,0,0,0,.11-.13.29.29,0,0,0,0-.22.59.59,0,0,0-.9-.13.55.55,0,0,0,.26.49A.56.56,0,0,0,103,40.24Z" transform="translate(-1.16 -5.05)"/><path class="cls-9" d="M102.78,47.48a.4.4,0,0,0,0-.52.38.38,0,0,0-.57.49A.39.39,0,0,0,102.78,47.48Z" transform="translate(-1.16 -5.05)"/><path class="cls-9" d="M97.33,45.36a.51.51,0,0,0-.75-.56.39.39,0,0,0-.21.45.54.54,0,0,0,.09.15.77.77,0,0,0,.38.26.43.43,0,0,0,.42-.13A.36.36,0,0,0,97.33,45.36Z" transform="translate(-1.16 -5.05)"/><path class="cls-9" d="M94.71,60.39a.18.18,0,0,0,0,.07.1.1,0,0,0,0,.09,1,1,0,0,0,.48.47.65.65,0,0,0,.36.1.32.32,0,0,0,.29-.22.67.67,0,0,0-1.1-.51Z" transform="translate(-1.16 -5.05)"/><path class="cls-9" d="M83.83,59.1A.24.24,0,0,0,83.9,59c0-.08-.1-.14-.18-.15a.62.62,0,0,0-.6.24l.22.26A.83.83,0,0,0,83.83,59.1Z" transform="translate(-1.16 -5.05)"/><path class="cls-9" d="M78.25,57.08a.17.17,0,0,0,.06-.11c0-.09-.09-.15-.18-.16a.61.61,0,0,0-.59.24l.22.26A.86.86,0,0,0,78.25,57.08Z" transform="translate(-1.16 -5.05)"/><path class="cls-9" d="M72.27,57.28a.24.24,0,0,0,.07-.12c0-.08-.1-.14-.18-.15a.62.62,0,0,0-.6.24l.22.26A.83.83,0,0,0,72.27,57.28Z" transform="translate(-1.16 -5.05)"/><path class="cls-9" d="M83.32,50.4s.07-.07.07-.12-.09-.14-.18-.16a.65.65,0,0,0-.6.25l.23.26A.87.87,0,0,0,83.32,50.4Z" transform="translate(-1.16 -5.05)"/><path class="cls-9" d="M73.58,60.72a.15.15,0,0,0,.07-.12c0-.08-.09-.14-.18-.15a.61.61,0,0,0-.59.24l.22.26A.8.8,0,0,0,73.58,60.72Z" transform="translate(-1.16 -5.05)"/><path class="cls-9" d="M98.55,52.19a.17.17,0,0,0,.06-.11c0-.09-.09-.15-.18-.16a.61.61,0,0,0-.59.24l.22.26A.86.86,0,0,0,98.55,52.19Z" transform="translate(-1.16 -5.05)"/><path class="cls-9" d="M93.72,57s.07-.07.07-.11-.09-.15-.18-.16a.64.64,0,0,0-.6.24l.22.26A.8.8,0,0,0,93.72,57Z" transform="translate(-1.16 -5.05)"/><path class="cls-9" d="M107.89,53.19a.24.24,0,0,0,.07-.12c0-.08-.1-.14-.18-.15a.62.62,0,0,0-.6.24l.22.26A.83.83,0,0,0,107.89,53.19Z" transform="translate(-1.16 -5.05)"/><path class="cls-9" d="M105,52a.19.19,0,0,0,.07-.12c0-.09-.1-.14-.18-.15a.63.63,0,0,0-.6.24l.22.26A.8.8,0,0,0,105,52Z" transform="translate(-1.16 -5.05)"/></g><path class="cls-111" d="M80.71,41.17a4.58,4.58,0,0,0,.34-.43c.08-.17,0-.43-.17-.44a1.26,1.26,0,0,0-.82.92c-.11.42-.11.85-.2,1.27A5.49,5.49,0,0,1,79,44.34a19.2,19.2,0,0,1-1.22,1.73,3.43,3.43,0,0,0-.93,1.77,13.23,13.23,0,0,0,3.38-5,2.82,2.82,0,0,0,.19-.48C80.56,42,80.48,41.51,80.71,41.17Z" transform="translate(-1.16 -5.05)"/><path class="cls-112" d="M79,49.28a8.14,8.14,0,0,0,.82-2.22,1.32,1.32,0,0,0-.25-1.3c-.32.15-.3.6-.29,1A4,4,0,0,1,79,48.33C78.89,48.64,78.75,49,79,49.28Z" transform="translate(-1.16 -5.05)"/><path class="cls-113" d="M76.08,44.26c.06-.36.11-.72.17-1.08a.34.34,0,0,1,.13-.28.39.39,0,0,1,.15,0,2,2,0,0,0,1.67-1.05,2.45,2.45,0,0,1-.59,1.76,7.71,7.71,0,0,1-1.42,1.25A.62.62,0,0,1,76.08,44.26Z" transform="translate(-1.16 -5.05)"/><path class="cls-114" d="M87.55,48.89c.24,0,.44-.2.49-.43s0-.48-.2-.55a1,1,0,0,0-.63.39C87.24,48.54,87.32,48.84,87.55,48.89Z" transform="translate(-1.16 -5.05)"/><path class="cls-115" d="M101.51,56.93a.74.74,0,0,0,.57-.72.76.76,0,0,0-.6-.7l-1,.56a1.17,1.17,0,0,0-.45.4.37.37,0,0,0,.15.51C100.6,56.74,101.09,57,101.51,56.93Z" transform="translate(-1.16 -5.05)"/><path class="cls-116" d="M105.15,57.66a1.25,1.25,0,0,1,.53-.43,1.17,1.17,0,0,0,.5-.46.41.41,0,0,0-.2-.57A1.09,1.09,0,0,0,105.15,57.66Z" transform="translate(-1.16 -5.05)"/><path class="cls-117" d="M106.75,43.12l.63,1a.4.4,0,0,0,.16.18.32.32,0,0,0,.3,0,.72.72,0,0,0,.24-.89,1.39,1.39,0,0,0-.73-.66.75.75,0,0,0-.41-.09.31.31,0,0,0-.28.28A.6.6,0,0,0,106.75,43.12Z" transform="translate(-1.16 -5.05)"/><path class="cls-118" d="M67.77,46.68a1.21,1.21,0,0,0-.69.28.45.45,0,0,0,0,.66A.72.72,0,0,0,67.77,46.68Z" transform="translate(-1.16 -5.05)"/><path class="cls-119" d="M79.77,62.08a1.37,1.37,0,0,0-.69.28.47.47,0,0,0,0,.67A.72.72,0,0,0,79.77,62.08Z" transform="translate(-1.16 -5.05)"/><path class="cls-120" d="M70.78,50.17a.73.73,0,0,0-.94-.15.5.5,0,0,0,.1.84A1,1,0,0,0,70.78,50.17Z" transform="translate(-1.16 -5.05)"/><path class="cls-121" d="M89.47,42.81c-.24.06-.53.19-.52.43s.15.3.29.4a4.3,4.3,0,0,0,.85-.68C90,42.73,89.7,42.75,89.47,42.81Z" transform="translate(-1.16 -5.05)"/><path class="cls-122" d="M88.63,54.06c0,.22.05.46.31.45a1,1,0,0,0,.35-.14,1,1,0,0,0,.38-.31c.2-.36-.19-.51-.48-.49A.62.62,0,0,0,88.63,54.06Z" transform="translate(-1.16 -5.05)"/><path class="cls-123" d="M91.48,50.28a.42.42,0,0,0-.22,0,3.29,3.29,0,0,0-.76.28c-.17.08-.36.21-.36.4a.38.38,0,0,0,.2.33.92.92,0,0,0,.4.07,1.14,1.14,0,0,0,.74-.22.61.61,0,0,0,.18-.71A.28.28,0,0,0,91.48,50.28Z" transform="translate(-1.16 -5.05)"/><path class="cls-124" d="M84.31,38.39a.45.45,0,0,0,.17-.08.31.31,0,0,0,0-.39.58.58,0,0,0-1,0,.5.5,0,0,0,.3.4A.92.92,0,0,0,84.31,38.39Z" transform="translate(-1.16 -5.05)"/><path class="cls-125" d="M72.05,38.57c-.29.22-.55.59-.18.6l.12,0c.15-.07.45-.19.5-.37C72.59,38.31,72.31,38.38,72.05,38.57Z" transform="translate(-1.16 -5.05)"/><path class="cls-126" d="M73.8,41.51a.39.39,0,0,0-.26,0,2,2,0,0,0-.6.26c-.1.07-.21.16-.22.28a.31.31,0,0,0,.21.31.61.61,0,0,0,.4,0c.29-.07.59-.27.6-.57A.31.31,0,0,0,73.8,41.51Z" transform="translate(-1.16 -5.05)"/><path class="cls-127" d="M95.82,39.58a.37.37,0,0,0,.23-.1.6.6,0,0,0,.1-.84.89.89,0,0,0-.27-.15,2.37,2.37,0,0,0-.46-.11.78.78,0,0,0-.4,0,.35.35,0,0,0-.23.3A.43.43,0,0,0,95,39a3.41,3.41,0,0,0,.6.46A.56.56,0,0,0,95.82,39.58Z" transform="translate(-1.16 -5.05)"/><path class="cls-128" d="M103.06,40.18a.25.25,0,0,0,.11-.12.27.27,0,0,0,0-.23.59.59,0,0,0-.9-.13.53.53,0,0,0,.27.49A.52.52,0,0,0,103.06,40.18Z" transform="translate(-1.16 -5.05)"/><path class="cls-129" d="M102.85,47.42a.38.38,0,0,0,0-.51.38.38,0,0,0-.35-.09.38.38,0,1,0,.39.6Z" transform="translate(-1.16 -5.05)"/><path class="cls-130" d="M97.4,45.3a.5.5,0,0,0-.2-.51.52.52,0,0,0-.55,0,.39.39,0,0,0-.21.46.6.6,0,0,0,.09.15.82.82,0,0,0,.38.25.42.42,0,0,0,.42-.13A.44.44,0,0,0,97.4,45.3Z" transform="translate(-1.16 -5.05)"/><path class="cls-131" d="M94.78,60.34s0,0,0,.07a.14.14,0,0,0,0,.09,1.15,1.15,0,0,0,.48.47.6.6,0,0,0,.37.09.31.31,0,0,0,.28-.21.68.68,0,0,0-.38-.61A.66.66,0,0,0,94.78,60.34Z" transform="translate(-1.16 -5.05)"/><path class="cls-132" d="M83.89,59a.15.15,0,0,0,.07-.11c0-.09-.09-.14-.18-.16a.61.61,0,0,0-.59.24l.22.26A.8.8,0,0,0,83.89,59Z" transform="translate(-1.16 -5.05)"/><path class="cls-133" d="M78.31,57a.19.19,0,0,0,.07-.12c0-.09-.09-.14-.18-.16a.67.67,0,0,0-.6.25l.22.26A.8.8,0,0,0,78.31,57Z" transform="translate(-1.16 -5.05)"/><path class="cls-134" d="M72.33,57.22a.15.15,0,0,0,.07-.11c0-.09-.09-.14-.18-.16a.6.6,0,0,0-.59.25l.22.26A.82.82,0,0,0,72.33,57.22Z" transform="translate(-1.16 -5.05)"/><path class="cls-135" d="M83.39,50.34a.17.17,0,0,0,.06-.12c0-.08-.09-.14-.17-.15a.62.62,0,0,0-.6.24l.22.26A.83.83,0,0,0,83.39,50.34Z" transform="translate(-1.16 -5.05)"/><path class="cls-136" d="M73.65,60.67a.37.37,0,0,0,.07-.12c0-.09-.1-.14-.18-.16a.63.63,0,0,0-.6.25l.22.26A.89.89,0,0,0,73.65,60.67Z" transform="translate(-1.16 -5.05)"/><path class="cls-137" d="M98.61,52.14a.19.19,0,0,0,.07-.12c0-.09-.09-.14-.18-.16a.67.67,0,0,0-.6.25l.22.26A.8.8,0,0,0,98.61,52.14Z" transform="translate(-1.16 -5.05)"/><path class="cls-138" d="M93.79,56.9a.2.2,0,0,0,.06-.12c0-.09-.09-.14-.17-.16a.65.65,0,0,0-.6.25l.22.26A.89.89,0,0,0,93.79,56.9Z" transform="translate(-1.16 -5.05)"/><path class="cls-139" d="M108,53.14s.07-.07.07-.12-.09-.14-.18-.16a.62.62,0,0,0-.59.25l.22.26A.87.87,0,0,0,108,53.14Z" transform="translate(-1.16 -5.05)"/><path class="cls-140" d="M105,51.94a.17.17,0,0,0,.06-.11c0-.09-.09-.15-.18-.16a.61.61,0,0,0-.59.24l.22.26A.86.86,0,0,0,105,51.94Z" transform="translate(-1.16 -5.05)"/><ellipse class="cls-141" cx="120.61" cy="33.03" rx="20.54" ry="15.55"/><path class="cls-5" d="M115.17,36.06s4.18-5.47,8.48-6.26,16.7,5.83,21.31,11.57,7.74,13.45,4.19,20.27-16,16.63-31.52,10.71C117.63,72.35,109.35,53.85,115.17,36.06Z" transform="translate(-1.16 -5.05)"/><path class="cls-142" d="M115.17,36.06s4.18-5.47,8.48-6.26,16.7,5.83,21.31,11.57,7.74,13.45,4.19,20.27-16,16.63-31.52,10.71C117.63,72.35,109.35,53.85,115.17,36.06Z" transform="translate(-1.16 -5.05)"/><g class="cls-8"><path class="cls-9" d="M129.33,68.67l-.43,0a1,1,0,0,1,.37-1.24,8.51,8.51,0,0,1,1.29-.62,5.55,5.55,0,0,0,1.56-1.42l.34-.4.58-.69h.39a4.89,4.89,0,0,1-1.4,2.19,3.47,3.47,0,0,0-.61.6c-.4.6-.31,1.54-.93,1.91A.88.88,0,0,1,129.33,68.67Z" transform="translate(-1.16 -5.05)"/><path class="cls-9" d="M143.17,58.18c.29,0,.4-.38.42-.67a.48.48,0,0,0,0-.24c-.09-.13-.27-.12-.43-.1a1.17,1.17,0,0,0-.29.55A.39.39,0,0,0,143.17,58.18Z" transform="translate(-1.16 -5.05)"/><path class="cls-9" d="M148.63,51.68a1.66,1.66,0,0,0,0-.83.54.54,0,0,0-.65-.37,3,3,0,0,0,.12,1.16Z" transform="translate(-1.16 -5.05)"/><path class="cls-9" d="M139.22,37.68c-.07-.11-.11-.24-.18-.35a1.13,1.13,0,0,0-.24-.25l-1-.86a1.6,1.6,0,0,0-.31-.22c-.32-.15-.73,0-1-.21a2.3,2.3,0,0,0,.46,1.17A4.79,4.79,0,0,0,138.32,38l.63.35a2.74,2.74,0,0,0,1.29.47h.1a.2.2,0,0,0,.07-.2C140.33,38.12,139.51,38.12,139.22,37.68Z" transform="translate(-1.16 -5.05)"/><path class="cls-9" d="M141,46.92c-.18-.15-.46,0-.51.27a2.75,2.75,0,0,0,0,.7l.66,0A1.63,1.63,0,0,0,141,46.92Z" transform="translate(-1.16 -5.05)"/><path class="cls-9" d="M136.7,56.41a.81.81,0,0,0,.12.44.92.92,0,0,0,.63.25.27.27,0,0,0,.2,0,.27.27,0,0,0,.1-.15,1.79,1.79,0,0,0,.09-.79.69.69,0,0,0-.45-.66.53.53,0,0,0-.56.28A1.12,1.12,0,0,0,136.7,56.41Z" transform="translate(-1.16 -5.05)"/><path class="cls-9" d="M138.78,65.21a.33.33,0,0,0,.24-.09.87.87,0,0,0,.3-.88.69.69,0,0,0-.77.57C138.53,65,138.61,65.19,138.78,65.21Z" transform="translate(-1.16 -5.05)"/><path class="cls-9" d="M131.68,71.46a.52.52,0,0,0-.56.17.53.53,0,0,0,0,.59.49.49,0,0,0,.6-.76Z" transform="translate(-1.16 -5.05)"/><path class="cls-9" d="M144.76,62.15a.32.32,0,0,0-.33.11.32.32,0,0,0,0,.35.32.32,0,0,0,.37-.08A.32.32,0,0,0,144.76,62.15Z" transform="translate(-1.16 -5.05)"/><path class="cls-9" d="M145.75,51.76a.32.32,0,0,0-.33.1.3.3,0,0,0,0,.35.29.29,0,0,0,.36-.08A.3.3,0,0,0,145.75,51.76Z" transform="translate(-1.16 -5.05)"/><path class="cls-9" d="M149.06,56.33a.32.32,0,0,0-.33.1.3.3,0,0,0,0,.35.3.3,0,0,0,.36-.08A.3.3,0,0,0,149.06,56.33Z" transform="translate(-1.16 -5.05)"/><path class="cls-9" d="M144.61,43.07a.31.31,0,0,0-.34.1.34.34,0,0,0,0,.35.31.31,0,0,0,.37-.08A.3.3,0,0,0,144.61,43.07Z" transform="translate(-1.16 -5.05)"/><path class="cls-9" d="M138.67,42.37a.48.48,0,0,0-.51.16.49.49,0,0,0,0,.53.46.46,0,0,0,.57-.12A.47.47,0,0,0,138.67,42.37Z" transform="translate(-1.16 -5.05)"/><path class="cls-9" d="M138.41,70a.47.47,0,0,0-.55.69.45.45,0,0,0,.55-.69Z" transform="translate(-1.16 -5.05)"/><path class="cls-9" d="M124.9,71.54a.67.67,0,0,0-.77,1,.63.63,0,0,0,.77-1Z" transform="translate(-1.16 -5.05)"/></g><g class="cls-143"><path class="cls-144" d="M129.29,68.31l-.42,0a1,1,0,0,1,.36-1.25,9.65,9.65,0,0,1,1.3-.61,5.65,5.65,0,0,0,1.55-1.42c.11-.13.22-.27.34-.4L133,64h.39a4.89,4.89,0,0,1-1.4,2.19,3.78,3.78,0,0,0-.6.6c-.41.6-.31,1.54-.94,1.9A.87.87,0,0,1,129.29,68.31Z" transform="translate(-1.16 -5.05)"/><path class="cls-145" d="M143.13,57.82c.3,0,.41-.38.42-.68a.36.36,0,0,0,0-.23c-.08-.13-.27-.13-.42-.1a1.11,1.11,0,0,0-.3.55C142.78,57.57,142.92,57.82,143.13,57.82Z" transform="translate(-1.16 -5.05)"/><path class="cls-146" d="M148.59,51.32a1.67,1.67,0,0,0,0-.83.54.54,0,0,0-.66-.37,3.18,3.18,0,0,0,.12,1.15Z" transform="translate(-1.16 -5.05)"/><path class="cls-147" d="M139.18,37.32c-.07-.11-.11-.24-.18-.35a1,1,0,0,0-.24-.25l-1-.86a1.1,1.1,0,0,0-.31-.22c-.32-.15-.73,0-1-.21a2.33,2.33,0,0,0,.47,1.16,4.39,4.39,0,0,0,1.41,1.07l.63.36a2.66,2.66,0,0,0,1.28.47h.1a.2.2,0,0,0,.07-.2C140.29,37.76,139.48,37.75,139.18,37.32Z" transform="translate(-1.16 -5.05)"/><path class="cls-148" d="M141,46.56c-.18-.15-.47,0-.52.27a2.66,2.66,0,0,0,0,.69l.66,0A1.7,1.7,0,0,0,141,46.56Z" transform="translate(-1.16 -5.05)"/><path class="cls-149" d="M136.66,56.05a.8.8,0,0,0,.12.43.88.88,0,0,0,.63.26.27.27,0,0,0,.2,0,.31.31,0,0,0,.1-.15,1.79,1.79,0,0,0,.09-.79.73.73,0,0,0-.44-.67.55.55,0,0,0-.57.29A1.12,1.12,0,0,0,136.66,56.05Z" transform="translate(-1.16 -5.05)"/><path class="cls-150" d="M138.74,64.85a.36.36,0,0,0,.24-.09.87.87,0,0,0,.3-.88.69.69,0,0,0-.77.57C138.49,64.62,138.57,64.83,138.74,64.85Z" transform="translate(-1.16 -5.05)"/><path class="cls-151" d="M131.65,71.09a.54.54,0,0,0-.57.18.53.53,0,0,0,0,.59.51.51,0,0,0,.62-.13A.53.53,0,0,0,131.65,71.09Z" transform="translate(-1.16 -5.05)"/><path class="cls-152" d="M144.72,61.79a.32.32,0,0,0-.36.46.32.32,0,0,0,.37-.08A.32.32,0,0,0,144.72,61.79Z" transform="translate(-1.16 -5.05)"/><path class="cls-153" d="M145.72,51.4a.31.31,0,0,0-.34.1.34.34,0,0,0,0,.35.29.29,0,0,0,.36-.08A.3.3,0,0,0,145.72,51.4Z" transform="translate(-1.16 -5.05)"/><path class="cls-154" d="M149,56a.32.32,0,0,0-.33.1.3.3,0,0,0,0,.35.29.29,0,0,0,.36-.08A.29.29,0,0,0,149,56Z" transform="translate(-1.16 -5.05)"/><path class="cls-155" d="M144.57,42.71a.29.29,0,0,0-.33.1.32.32,0,0,0,0,.35.32.32,0,0,0,.37-.08A.3.3,0,0,0,144.57,42.71Z" transform="translate(-1.16 -5.05)"/><path class="cls-156" d="M138.64,42a.47.47,0,0,0-.55.69.45.45,0,0,0,.55-.69Z" transform="translate(-1.16 -5.05)"/><path class="cls-157" d="M138.37,69.64a.48.48,0,0,0-.55.7.45.45,0,0,0,.55-.7Z" transform="translate(-1.16 -5.05)"/><path class="cls-158" d="M124.86,71.18a.67.67,0,0,0-.77,1,.63.63,0,0,0,.77-1Z" transform="translate(-1.16 -5.05)"/></g><path class="cls-9" d="M109.65,67.16a13.62,13.62,0,0,0,8,5.19c9.59,1.81,16.16-9.15,17.91-16.93a29.58,29.58,0,0,0,.59-5.71c.12-4.57-.23-9.31-2.42-13.32s-6.61-7.08-11.14-6.47a14.11,14.11,0,0,0-3.46,1,24.05,24.05,0,0,0-9.73,6.46c-6.21,7.32-5.69,19.43-1.24,27.5A17.31,17.31,0,0,0,109.65,67.16Z" transform="translate(-1.16 -5.05)"/><path class="cls-159" d="M109.65,67.16a13.62,13.62,0,0,0,8,5.19c9.59,1.81,16.16-9.15,17.91-16.93a29.58,29.58,0,0,0,.59-5.71c.12-4.57-.23-9.31-2.42-13.32s-6.61-7.08-11.14-6.47a14.11,14.11,0,0,0-3.46,1,24.05,24.05,0,0,0-9.73,6.46c-6.21,7.32-5.69,19.43-1.24,27.5A17.31,17.31,0,0,0,109.65,67.16Z" transform="translate(-1.16 -5.05)"/><path class="cls-160" d="M125.79,58.65a9.5,9.5,0,0,0,.15-1.41,12.87,12.87,0,0,0-.53-3.48,4.93,4.93,0,0,0-1-2.19c-.78-.81-2-1-2.94-1.67-2.08-1.35-2.76-4.4-5.06-5.34a6,6,0,0,0-3.49-.07c-2.06.42-4.31,1.32-5.08,3.28a7.23,7.23,0,0,0-.21,3.37l.46,4.91a3.4,3.4,0,0,0,.74,2.2,5.49,5.49,0,0,0,1.27.78c3.1,1.79,1.72,6.18,4.93,7.7a7.93,7.93,0,0,0,3.61.59,5.15,5.15,0,0,0,3-.84,6,6,0,0,0,1.31-1.65A19.28,19.28,0,0,0,125.79,58.65Z" transform="translate(-1.16 -5.05)"/><path class="cls-161" d="M233.92,77.64H36.61a27.73,27.73,0,0,1-17.73-6.41L13.8,67H256.73l-5.09,4.24A27.73,27.73,0,0,1,233.92,77.64Z" transform="translate(-1.16 -5.05)"/><path class="cls-162" d="M21.45,69.75a25.37,25.37,0,0,0,2.47,1.66h210a1,1,0,0,1,.52,1.93,24.56,24.56,0,0,1-3.28,1.55h2.77a25,25,0,0,0,12.21-3.2,1,1,0,0,0-.52-1.94Z" transform="translate(-1.16 -5.05)"/><path class="cls-163" d="M253.74,67l-3.47,2.89a27.64,27.64,0,0,1-17.72,6.42H35.24a27.64,27.64,0,0,1-17.72-6.42L14.05,67H13.8l5.08,4.24a27.73,27.73,0,0,0,17.73,6.41H233.92a27.73,27.73,0,0,0,17.72-6.41L256.73,67Z" transform="translate(-1.16 -5.05)"/><path class="cls-164" d="M23.61,72.82l-5.09-4.24h236.3L256.73,67H13.8l5.08,4.24a27.69,27.69,0,0,0,11.31,5.65A27.49,27.49,0,0,1,23.61,72.82Z" transform="translate(-1.16 -5.05)"/><path class="cls-161" d="M267,67H3.52a2.36,2.36,0,0,1-2.36-2.36h0a2.36,2.36,0,0,1,2.36-2.36H267a2.36,2.36,0,0,1,2.36,2.36h0A2.36,2.36,0,0,1,267,67Z" transform="translate(-1.16 -5.05)"/><path class="cls-162" d="M264.81,65.2H5.71a.58.58,0,0,1-.57-.57h0a.57.57,0,0,1,.57-.56h259.1a.56.56,0,0,1,.57.56h0A.57.57,0,0,1,264.81,65.2Z" transform="translate(-1.16 -5.05)"/><path class="cls-163" d="M268.15,62.58a2.38,2.38,0,0,1,.31,1.15,2.35,2.35,0,0,1-2.36,2.36H2.63a2.42,2.42,0,0,1-1.16-.31A2.36,2.36,0,0,0,3.52,67H267a2.35,2.35,0,0,0,1.15-4.41Z" transform="translate(-1.16 -5.05)"/><path class="cls-164" d="M2.57,65.78a2.36,2.36,0,0,1,2.36-2.36H268.41a2.54,2.54,0,0,1,.67.11A2.38,2.38,0,0,0,267,62.27H3.52a2.35,2.35,0,0,0-.66,4.61A2.28,2.28,0,0,1,2.57,65.78Z" transform="translate(-1.16 -5.05)"/></g></g></svg>