<?xml version="1.0" encoding="utf-8"?>
<!-- Generator: Adobe Illustrator 25.0.0, SVG Export Plug-In . SVG Version: 6.00 Build 0)  -->
<svg version="1.1" id="Layer_1" xmlns="http://www.w3.org/2000/svg" xmlns:xlink="http://www.w3.org/1999/xlink" x="0px" y="0px"
	 viewBox="0 0 250 250" style="enable-background:new 0 0 250 250;" xml:space="preserve">
<style type="text/css">
	.st0{fill:#FEC43F;}
	.st1{fill:#A6BCB0;}
	.st2{fill:#D35155;}
	.st3{fill:#9FB7AA;}
	.st4{fill:#B13F4C;}
	.st5{fill:#E81D2D;}
	.st6{fill:#CF973B;}
	.st7{fill:#99BDB4;}
	.st8{fill:#FED841;}
	.st9{fill:#F78337;}
	.st10{fill:#FDC133;}
	.st11{fill:#454760;}
	.st12{fill:#6D7780;}
	.st13{fill:#CD8939;}
	.st14{fill:#FEE7A3;}
	.st15{fill:#F6A56F;}
	.st16{fill:#E9212B;}
	.st17{fill:#CB8432;}
	.st18{fill:#E8192B;}
	.st19{fill:#C78238;}
	.st20{fill:#E8192A;}
	.st21{fill:#EC402E;}
	.st22{fill:#FED141;}
	.st23{fill:#FED240;}
	.st24{fill:#F89639;}
	.st25{fill:#F47235;}
	.st26{fill:#FECE40;}
	.st27{fill:#FEDC42;}
	.st28{fill:#FEDC41;}
	.st29{fill:#F15D33;}
	.st30{fill:#FECE41;}
	.st31{fill:#C8FEFE;}
	.st32{fill:#B3CFBC;}
	.st33{fill:#9DD2C2;}
	.st34{fill:#A1B6A8;}
	.st35{fill:#EF101D;}
	.st36{fill:#E81520;}
	.st37{fill:#E60928;}
	.st38{fill:#BC0D24;}
	.st39{fill:#BC0529;}
	.st40{fill:#C30821;}
	.st41{fill:#BE162B;}
	.st42{fill:#C75B34;}
	.st43{fill:#E70F29;}
	.st44{fill:#F99E3A;}
	.st45{fill:#B70A2A;}
	.st46{fill:#F78237;}
	.st47{fill:#FEEFAA;}
	.st48{fill:#FED040;}
	.st49{fill:#FDCC3F;}
	.st50{fill:#E70A27;}
	.st51{fill:#F8B979;}
	.st52{fill:#EE462F;}
	.st53{fill:none;}
</style>
<path class="st0" d="M61.4,240.2v-67.9c0.3,0,0.2,0.2,0.2,0.4v0.7c-0.1-0.3-0.1-0.6,0-0.9c0.3-0.2,0.8-0.3,1.2-0.2h21.5
	c0.4,0,0.7,0,1.1,0.1c0.5,0.4,0.4,1,0.4,1.6V218c-0.2,3.3,1.8,6.3,4.8,7.5c3.9,1.7,8.5-0.1,10.3-4c0,0,0,0,0,0
	c0.4-0.9,0.6-1.9,0.7-2.9V207c0-0.5,0-1,0.1-1.5c0.1-0.2,0.1-0.3,0.3-0.4c2.1-1.2,2.7-3.1,2.7-5.3v-5.1c0-1.5-0.2-1.8-1.7-2.3
	c-0.3-0.1-0.6-0.2-0.9-0.4c-0.1-0.1-0.2-0.2-0.3-0.4c-0.2-0.9-0.2-1.8,0-2.8c0-0.1,0.1-0.2,0.2-0.2c0.5-0.2,1.1-0.2,1.6-0.2
	c0.9-0.1,1.1-0.2,1.1-1.1c0-1,0-1.9-0.2-2.9c-0.3-1.5-1.2-2.7-2.6-3.3c-0.1-0.1-0.1-0.2-0.2-0.3c-0.2-2.6-0.1-5.3-0.1-7.9
	c0-0.2,0.1-0.4,0.2-0.5c0.1-0.1,0.2-0.2,0.3-0.2c0.4-0.1,0.9-0.1,1.3-0.1h48.8c0.5-0.1,1.1,0,1.6,0.2c0.2,0.2,0.3,0.5,0.3,0.9v6.7
	c0,0.3,0,0.5-0.2,0.7c-0.4,0.3-0.9,0.4-1.4,0.3h-6.4c-0.5,0-1,0-1.5,0.1l-0.1,0.1c-0.1,0.1-0.2,0.2-0.2,0.2
	c-0.1,0.3-0.1,0.6-0.1,0.9V204c0,0.3,0,0.6,0.1,0.9c0.1,0.1,0.1,0.2,0.2,0.2c1.3,0.3,2.7,0.2,3.9-0.1c0.2-1.8,0-3.6,0.1-5.4
	c0-0.4,0-0.8,0.1-1.2c0.1-0.4,0.2-0.7,0.6-0.7c1.5-0.2,3.1-0.2,4.6,0.1c0.1,0.1,0.2,0.2,0.2,0.3c0.1,0.4,0.1,0.9,0.1,1.3v39.3
	c0.1,0.5,0,1.1-0.2,1.6c-0.6,0.3-1.2,0.4-1.8,0.3H63.2C62.6,240.5,61.9,240.7,61.4,240.2z"/>
<path class="st1" d="M61.4,240.2h92.4l0.3-0.2c0.5-0.1,1.1-0.1,1.6-0.1h29.7c0.5,0,1.1,0.1,1.5-0.3c0.2-0.4,0.3-0.9,0.2-1.4v-64.1
	c-0.1-0.5,0-1.1,0.1-1.6c0.1-0.1,0.2-0.2,0.3-0.2v66.5c0,0.8,0,1.3,1.1,1.4c1.6,0.2,2.7,1.5,2.6,3.1v1.5c0.1,1.8,0.1,3.6-1.5,4.9
	L189,250H60.2c-0.1,0-0.3,0-0.4-0.1h-0.3c-0.2,0-0.5,0.1-0.6-0.2c-1.2-1.1-1.8-2.7-1.5-4.3v-1.7c0-2.3,1.2-3.5,3.5-3.6L61.4,240.2z"
	/>
<path class="st1" d="M61.4,69.8c-0.6,0-1.2,0-1.8-0.1c-1.3-0.5-2.1-1.7-2.1-3v-3.3c-0.2-1.7,1.1-3.2,2.8-3.4c0,0,0,0,0,0h0.2
	c0.3,0.1,0.7,0.1,1,0.1h125.7c0.3,0,0.7,0,1-0.1c1.7,0,3,1.4,3,3.1v3.5c0,1.5-1.1,2.9-2.6,3.1c-0.9-0.3-1.8,0.1-2.7,0.1H61.6
	L61.4,69.8z"/>
<path class="st2" d="M61.4,155.7v-86l0,0c0.3-0.1,0.6-0.2,0.9-0.1h91.1c0.1,0,0.2,0,0.3,0.1c0,0.1-0.1,0.2-0.2,0.3
	c-0.5,0.1-1.1,0.2-1.7,0.1H63.5c-0.5,0-1.1-0.2-1.5,0.3c-0.2,0.5-0.2,1-0.2,1.5v83.3c0,0.1,0,0.2-0.1,0.4
	C61.7,155.7,61.6,155.8,61.4,155.7C61.4,155.7,61.4,155.7,61.4,155.7z"/>
<path class="st3" d="M188.2,60c-0.3,0.3-0.6,0.2-1,0.2H61.4c-0.3,0-0.7,0.1-1-0.2h126.7C187.4,60,187.8,60,188.2,60z"/>
<path class="st4" d="M153.7,69.9v-0.1c0.2-0.2,0.5-0.1,0.8-0.1h32.1c0.3,0,0.6-0.1,0.8,0.1v86c-0.1,0-0.2-0.1-0.3-0.2
	c0-0.1-0.1-0.2-0.1-0.4V71.9c0.1-0.5,0-1-0.2-1.5c-0.4-0.4-0.9-0.3-1.3-0.3h-30.3c-0.5,0.1-1,0-1.5-0.1L153.7,69.9z"/>
<path class="st5" d="M61.5,172.4l-0.2-0.1v-6.5c0.1-0.1,0.2-0.1,0.3-0.2c0.4,0,0.7,0,1.1,0h20.9c0.4,0,0.8,0,1.2,0.1
	c0.2,0,0.3,0.1,0.3,0.3c0,0,0,0,0,0c0,0.2-0.2,0.2-0.3,0.3c-0.5,0.1-0.9,0.1-1.4,0.1H63c-0.6,0-0.9,0.3-0.9,0.9v3.6
	c0,0.6,0.3,0.8,0.9,0.8h20.7c0.5,0,1.1,0,1.6,0.1c0.2,0.1,0.3,0.2,0.3,0.4l-0.1,0.2H62.3c-0.2,0-0.4,0-0.6,0
	C61.7,172.5,61.6,172.5,61.5,172.4z"/>
<path class="st6" d="M187.2,155.7h0.1v16.7h-0.1l-0.1-0.1c-0.2-0.3-0.2-0.7-0.2-1v-5.7c-0.1-2.6,0-5.2,0-7.9c0-1.3-0.1-1.4-1.4-1.4
	h-29.7c-0.4,0-0.8,0-1.2,0c-0.3,0-0.7,0-0.8-0.5c0.2-0.2,0.6-0.3,0.9-0.2h32.3L187.2,155.7z"/>
<path class="st7" d="M187.4,69.7h-33.7v-0.1c0,0-0.1,0-0.1-0.1c0,0,0,0,0,0c0,0,0,0,0.1,0h33.9c0.3,0,0.7-0.1,1,0.2L187.4,69.7z"/>
<path class="st8" d="M61.4,156.3v-0.4c0.4-0.2,0.8-0.3,1.3-0.2h21.7c0.4,0,0.7,0,1.1,0.2c0.1,0.1,0.1,0.2,0.1,0.3c0,0,0,0,0,0l0,0
	c-0.4,0.2-0.9,0.3-1.3,0.3H62.1C61.9,156.4,61.6,156.4,61.4,156.3z"/>
<path class="st9" d="M85.5,155.9H61.4c0-0.1,0-0.1,0-0.2h0.2c0.3-0.2,0.8-0.3,1.2-0.2h21.6c0.3,0,0.7,0,1,0.1
	C85.4,155.7,85.5,155.8,85.5,155.9z"/>
<path class="st10" d="M61.4,156.3l0.3-0.2c0.2,0.3,0.3,0.6,0.3,0.9v8c0,0.2,0,0.3-0.1,0.5c-0.1,0.2-0.2,0.3-0.4,0.4h-0.1
	C61.4,162.6,61.4,159.5,61.4,156.3z"/>
<path class="st11" d="M58.9,249.8l0.6,0.2l-0.1,0.1c-0.7,0.1-1.4,0.1-2.1,0.1h-9.5c-0.3,0.1-0.6,0-0.9-0.1c0,0,0-0.1,0-0.1l10.5-0.1
	L58.9,249.8z"/>
<path class="st12" d="M59.8,250h0.2c0.3-0.1,0.6-0.1,0.9-0.1h126.9c0.3,0,0.6,0,0.8,0v0.2c-0.3,0.1-0.7,0.2-1,0.1H60.9
	c-0.3,0.1-0.7,0-1-0.1C59.9,250.1,59.9,250.1,59.8,250z"/>
<path class="st13" d="M187.3,240.1c-0.2,0.3-0.4,0.2-0.7,0.2h-32.7c-0.1-0.4-0.2-0.7-0.1-1.1v-39.9c0.1-0.4,0-0.7-0.1-1.1v-0.2
	l0.1-0.1c0.3-0.2,0.6-0.3,0.9-0.3c1.9-0.4,3.2-2.1,3.2-4c0.1-2.8,0.1-5.6,0-8.4c0-2-1.4-3.7-3.3-4c-0.4-0.1-0.9-0.1-0.8-0.7v-7.1
	c0-0.7,0.2-1,0.9-1h30.8c1.6,0,1.6,0,1.6,1.6v65C187.1,239.3,187.2,239.7,187.3,240.1z"/>
<path class="st14" d="M101.8,172.4v8.6c-0.2,0.1-0.5,0.2-0.8,0.1c-1.8-0.2-3.7-0.3-5.5-0.1c-3,0-4.6,1.8-4.6,4.7v5.7
	c0,1.1,0.3,1.5,1.3,1.8c2.3,0.7,4.6,1.6,6.9,2.2c0.7,0.1,1.2,0.8,1.1,1.5v2.8c0.1,0.8-0.5,1.5-1.3,1.6c0,0,0,0,0,0h-0.1
	c-0.6,0.1-1.2,0.1-1.8,0c-0.9,0.1-1.8-0.5-1.9-1.4c0-0.1,0-0.3,0-0.4c0-1.9-0.4-1.7-1.9-1.7c-2.5,0-2.2,0-2.2,2.2
	c0,0.6,0,1.2,0.1,1.9c0.3,2,2,3.4,4,3.4c2,0.1,4.1,0.1,6.1-0.1c0.3-0.1,0.6,0,0.8,0.2v13.1c-0.1,4.3-3.6,7.7-7.9,7.9
	c-4.6,0.1-8.4-3.6-8.5-8.2c0,0,0,0,0,0v-0.3c0.1-14.7,0-29.5,0-44.2v-1.3l0,0c0.4-0.3,0.8-0.4,1.3-0.3h13.8
	C101.1,172,101.5,172.1,101.8,172.4z"/>
<path class="st15" d="M101.8,205.4c-2.1,0.2-4.3,0.3-6.4,0.2c-3,0-4.8-1.8-4.8-4.8v-2.3c-0.1-0.4,0.2-0.8,0.6-0.9c0.1,0,0.2,0,0.2,0
	h3.1c0.4,0,0.8,0.2,0.8,0.6c0,0.1,0,0.2,0,0.3c0,0.3,0,0.6,0,0.8c0,1.3,0.5,1.8,1.8,1.8c3.3,0.1,2.9-0.2,2.9-2.9c0-2.1,0-2.1-2-2.8
	s-4-1.3-6-2c-1.1-0.4-1.4-0.7-1.4-1.9v-6c0-2.8,1.5-4.6,4.3-4.8c2.3-0.3,4.7-0.2,7,0.2l0.2,0.1c0.2,2.4,0.1,4.7,0,7.1
	c0,0.2-0.1,0.4-0.2,0.5l-0.1,0.1c-1.3,0.5-2.1,0.1-2.1-1.3v-0.8c0-0.2,0-0.4-0.1-0.5c-0.7-1.1-1.8-0.7-2.7-0.7
	c-0.7,0-1.2,0.5-1.3,1.1c0,0,0,0.1,0,0.1v2.1c0,0.7,0.4,0.8,0.9,1c1.4,0.4,2.7,0.9,4.1,1.3c0.5,0.1,1,0.3,1.3,0.6l0.2,0.2
	c0.1,0.3,0.1,0.6,0.1,0.9v11.5c0,0.3,0,0.6-0.1,0.9L101.8,205.4z"/>
<path class="st15" d="M101.8,172.4H85.5V172c-0.1-0.1-0.2-0.3-0.2-0.5c-0.1-1.9-0.1-3.8,0.1-5.7c0-0.1,0.1-0.2,0.2-0.3
	c0.3-0.1,0.7-0.2,1-0.1h14.2c0.3,0,0.6,0,0.8,0.1c0.1,0,0.2,0.1,0.3,0.2c0.2,0.7,0.2,1.3,0.1,2v4.4c0,0.1,0,0.2-0.1,0.3L101.8,172.4
	z"/>
<path class="st16" d="M102.1,205.2c-0.2-0.2-0.1-0.5-0.1-0.7v-11.9c0-0.2,0-0.5,0.2-0.7c2.8,0.8,2.8,0.8,2.8,3.7
	c0.1,2,0.1,4.1-0.1,6.1C104.6,203.3,103.5,204.7,102.1,205.2z"/>
<path class="st14" d="M101.8,191.7c-2.1-0.4-4.1-1.3-6.1-1.9c-0.3-0.1-0.5-0.4-0.4-0.7v-2.5c0-0.7,0.4-1.2,1.1-1.3
	c0.8-0.2,1.7-0.2,2.5,0c0.7,0,1.2,0.6,1.1,1.3c0,0,0,0,0,0c0,0,0,0.1,0,0.1v0.2c0,2.1,0.1,1.9,1.9,2L101.8,191.7z"/>
<path class="st17" d="M187.3,240.1c-0.3-0.3-0.2-0.8-0.2-1.1V174c0-1.5,0.2-1.4-1.3-1.4H155c-0.9,0-1.1,0.3-1.1,1.1
	c0.1,2.3,0,4.6,0,6.9c0,0.1-0.1,0.1-0.2,0.1c0,0,0,0,0,0l0,0v-8.3l0.1-0.1c0.4-0.2,0.9-0.2,1.4-0.2h30.6c0.5-0.1,1,0,1.4,0.3h0.1
	v66.3C187.3,239.2,187.3,239.6,187.3,240.1z"/>
<path class="st18" d="M102.1,172.4v-0.2c-0.2-0.5,0-0.6,0.5-0.6c2.6,0.2,5.2,0.1,7.8,0.1h41.3c0.7,0.1,1.4,0,2-0.3
	c0.5,0.2,0.4,0.5,0.1,0.9v0.1c-0.3,0-0.7-0.1-1-0.1H102.1z"/>
<path class="st16" d="M101.9,188.7v-7c0-0.2,0.1-0.4,0.2-0.6c2.1,0.9,2.6,2.6,2.8,4.7c0,0.1,0,0.2,0,0.3
	C104.7,189.1,105.3,188.8,101.9,188.7z"/>
<path class="st10" d="M61.5,172.4c0.1,0,0.1,0,0.2,0v67.5c-0.3-0.2-0.2-0.4-0.2-0.5C61.5,217,61.5,194.7,61.5,172.4z"/>
<path class="st19" d="M153.7,198.1c0.3,0.3,0.2,0.8,0.2,1.2v41h-0.2v-21.1C153.7,212.1,153.7,205.1,153.7,198.1z"/>
<path class="st20" d="M144.1,181c0.4,0.3,0.2,0.8,0.2,1.1v22c0,0.8,0.2,1.1,1,1.1s1.9,0,2.8-0.1c0.2,0,0.3,0.1,0.3,0.2
	c-1.4,0.3-2.9,0.3-4.3,0c-0.2-0.3-0.3-0.7-0.2-1.1v-22.2C143.9,181.7,144,181.3,144.1,181L144.1,181z"/>
<path class="st21" d="M144.1,181v24.4h-0.1c-0.2-0.2-0.1-0.5-0.1-0.7v-23c0-0.2,0-0.5,0.1-0.7H144.1z"/>
<path class="st22" d="M144,181v24.4c-0.4-0.2-0.2-0.6-0.2-0.9v-22.5C143.8,181.6,143.7,181.3,144,181z"/>
<path class="st23" d="M126.1,201.3c-0.3-0.3-0.2-0.6-0.2-1V182c0-0.3-0.1-0.7,0.2-1c0.2,0.4,0.2,0.8,0.2,1.2v17.9
	C126.3,200.5,126.2,200.9,126.1,201.3z"/>
<path class="st24" d="M126.1,201.3V181h0.2v0.2c0.1,0.2,0.1,0.4,0.1,0.6v18.5c0,0.2,0,0.4-0.1,0.6v0.2L126.1,201.3z"/>
<path class="st25" d="M131.1,200h-0.2c-0.1-0.2-0.1-0.4-0.1-0.6v-17.6c0-0.2,0-0.4,0.1-0.6V181h0.2c0.2,0.2,0.1,0.4,0.1,0.6v17.6
	c0,0.2,0,0.4-0.1,0.6L131.1,200z"/>
<path class="st26" d="M135.6,200c0,0,0,0.1,0,0.1c-0.2-0.2-0.2-0.4-0.2-0.7v-17.7c0-0.1,0.1-0.3,0.2-0.4L135.6,200z"/>
<path class="st27" d="M131.1,199.8V181c0.3,0.2,0.2,0.6,0.2,0.9V199C131.2,199.2,131.3,199.5,131.1,199.8z"/>
<path class="st28" d="M122.6,185L122.6,185l0.1-0.2c0,0.1,0,0.2,0,0.4v16.5c-0.1,0-0.1,0-0.2-0.1v-0.3c-0.2-0.3-0.2-0.7-0.2-1v-14.4
	C122.4,185.6,122.4,185.3,122.6,185z"/>
<path class="st29" d="M122.6,185v16.3h-0.2c-0.1-3.1,0-6.3,0-9.4c0-2.3-0.1-4.6,0-6.8h0.1L122.6,185z"/>
<path class="st30" d="M108.2,185.4V201H108v-15.6H108.2z"/>
<path class="st31" d="M101.2,242.1c4,0,8,0.1,12.1,0c1.7,0,3.2,1.3,3.2,3c0.1,1.7-1.1,3.1-2.8,3.2c-0.1,0-0.3,0-0.4,0
	c-2.4,0.1-4.8,0-7.2,0h-17c-1.7,0.1-3.1-1.2-3.2-2.9c0-0.6,0.1-1.2,0.4-1.8c0.5-1,1.6-1.6,2.7-1.5
	C93.1,242.1,97.1,242.1,101.2,242.1z"/>
<path class="st32" d="M188.8,249.9c-0.3,0-0.7,0.1-1,0.1H60.1c0.3-0.3,0.7-0.2,1-0.2h126.7C188.1,249.7,188.4,249.8,188.8,249.9z"/>
<path class="st31" d="M88.3,68c-1.6-0.6-2.6-1.6-2.4-3.5c0.2-1.4,1.3-2.6,2.8-2.7h25.1c1.4,0,2.5,1,2.7,2.4c0.3,1.4-0.3,2.8-1.6,3.5
	l-0.7,0.3c-0.2,0.2-0.5,0.1-0.7,0.1H89.1C88.8,68.1,88.6,68.1,88.3,68z"/>
<path class="st33" d="M153.7,69.5c0,0,0,0.1,0,0.2H61.3c0.3-0.3,0.6-0.2,1-0.2L153.7,69.5z"/>
<path class="st34" d="M88.3,68h25.8c-0.2,0.3-0.5,0.2-0.8,0.2H88.8c-0.1,0-0.3,0-0.4,0v-0.1C88.3,68.1,88.3,68,88.3,68z"/>
<path class="st35" d="M61.5,70.1c0.3-0.4,0.8-0.2,1.2-0.2h91c0,0.1-0.1,0.3-0.2,0.3c-0.4,0.2-0.9,0.2-1.4,0.2H63
	c-0.4,0-0.8,0-1.2-0.1C61.7,70.2,61.6,70.2,61.5,70.1z"/>
<path class="st36" d="M61.5,70.1h0.2c0.2,0.3,0.3,0.6,0.3,1v82.5c0.1,0.6,0,1.3-0.2,1.9c-0.1,0.1-0.2,0.2-0.3,0.1L61.5,70.1z"/>
<path class="st37" d="M61.5,155.6h0.2c0.3-0.2,0.7-0.3,1.2-0.3h21.5c0.3,0,0.6,0,0.8,0.1c0.1,0,0.2,0.1,0.3,0.2v0.2h-24
	C61.5,155.7,61.5,155.6,61.5,155.6z"/>
<path class="st38" d="M187.2,70.1v85.4c-0.1,0-0.2-0.1-0.3-0.2c-0.1-0.4-0.2-0.9-0.1-1.4V71.7c0-0.5,0-0.9,0.1-1.4
	C187,70.2,187.1,70.1,187.2,70.1z"/>
<path class="st39" d="M187.1,155.5h0.1c0,0.1,0,0.1,0,0.2l0,0c-0.2,0.1-0.5,0.1-0.7,0.1h-32.2c-0.2,0-0.3,0-0.5,0
	c-0.1-0.1-0.1-0.2,0-0.3v-0.1c0.4-0.2,0.8-0.3,1.3-0.2h30.7C186.2,155.2,186.7,155.3,187.1,155.5z"/>
<path class="st40" d="M187.2,70.1h-0.2c-0.4,0.3-0.8,0.4-1.2,0.3H155c-0.4,0-0.8,0-1.1-0.2l-0.1-0.1c0-0.1,0-0.1,0-0.2h32.8
	C186.8,69.9,187.1,69.8,187.2,70.1z"/>
<path class="st16" d="M85.5,165.7v6.3H62.7c-0.8,0-1.1-0.2-1-1c0.1-1.3,0.1-2.6,0-3.9c0-0.8,0.2-1.1,1-1.1h22.4v-0.2H61.5l0.2-0.2
	c0.4-0.3,0.8-0.4,1.2-0.3h21.2C84.6,165.4,85.1,165.3,85.5,165.7z"/>
<path class="st13" d="M153.9,155.9c0.3,0.3,0.7,0.2,1.1,0.2h31.1c1,0,1.2,0.3,1.2,1.2c-0.1,2.8,0,5.6,0,8.4
	c-0.4,0.3-0.8,0.4-1.3,0.3h-31c-0.4,0-0.8,0-1.1-0.1c-0.1,0-0.2-0.1-0.3-0.2c-0.1-0.3-0.2-0.6-0.2-0.9V157c0-0.3,0-0.6,0.2-0.9
	C153.7,156,153.8,155.9,153.9,155.9z"/>
<path class="st41" d="M153.7,165.8l0.6-0.1h33c0.1,2.2,0.1,4.5,0,6.7h-32.7c-0.3,0-0.6,0-0.8-0.1v-0.8c-0.2-0.2-0.3-0.4-0.3-0.7
	v-4.4C153.4,166.2,153.5,165.9,153.7,165.8z"/>
<path class="st42" d="M153.9,155.9h-0.2v-0.2h33.5c-0.3,0.3-0.7,0.2-1.1,0.2C175.4,155.9,164.7,155.9,153.9,155.9z"/>
<path class="st0" d="M85.5,165.7H61.7v-9.6h23.8c0.3,0.3,0.4,0.7,0.3,1.1v7.4C85.9,165,85.8,165.4,85.5,165.7L85.5,165.7z"/>
<path class="st14" d="M85.5,165.6v-9.7c0-0.1,0-0.1,0-0.2l0,0c0.3-0.3,0.7-0.4,1.1-0.3h14c0.3,0,0.6,0,0.9,0.1
	c0.1,0,0.2,0.1,0.3,0.2c0,0.1-0.1,0.2-0.2,0.2l0,0H86.2c0,0.1,0.2,0,0.3,0h14.7c0.2,0,0.4,0,0.6,0.1c0.2,0.3,0.3,0.7,0.2,1.1v7.4
	c0.1,0.4,0,0.8-0.2,1.1L85.5,165.6z"/>
<path class="st0" d="M118,200.2c0,0.1-0.1,0.3-0.2,0.4c-0.6,0.6-3.7,0.7-4.4,0.1c-0.3-0.3-0.4-0.6-0.4-1v-13.2
	c0-0.6,0.4-1.2,1.1-1.2c1-0.2,2-0.2,3.1,0c0.4,0,0.8,0.4,0.8,0.8c0.1,0.1,0.1,0.2,0.1,0.3v13.4C118.1,199.9,118.1,200.1,118,200.2z"
	/>
<path class="st43" d="M118.1,186.1c0.2,0.1,0.2,0.3,0.2,0.5V200c0,0.1,0,0.1,0,0.2h-0.2c-0.2-0.4-0.2-0.8-0.2-1.2v-11.8
	C118,186.8,118,186.5,118.1,186.1z"/>
<path class="st44" d="M118.1,186.1v14h-0.2v-0.2c-0.1-0.2-0.1-0.4-0.1-0.6v-12.3c0-0.2,0-0.4,0.1-0.6v-0.2L118.1,186.1z"/>
<path class="st0" d="M148.7,189.2V186c0-0.5,0.1-0.8,0.7-0.8h2.7c1.1,0,1.5,0.4,1.5,1.5v5.1c0,1-0.4,1.4-1.4,1.4c-1,0-2,0-3,0.1
	c-0.5,0.1-0.5-0.2-0.5-0.6L148.7,189.2z"/>
<path class="st45" d="M153.7,186.1c0.3,0.2,0.2,0.5,0.2,0.8v4.6c0,0.3,0.1,0.6-0.2,0.8V186.1z"/>
<path class="st16" d="M153.7,165.8v5.7c-0.2,0.4-0.6,0.6-1,0.6h-49.7c-0.3,0-0.6,0-0.8-0.1c-0.3-0.2-0.1,0.2-0.2,0.3
	c-0.2-1.1-0.3-2.3-0.1-3.4c-0.1-1-0.1-2.1,0.2-3.1l0.1-0.1c0.4-0.2,0.9-0.3,1.4-0.2h48.7C152.8,165.3,153.3,165.4,153.7,165.8
	C153.7,165.7,153.7,165.7,153.7,165.8z"/>
<path class="st8" d="M101.8,165.6v-9.5c0,0-0.1,0-0.1-0.1c0,0,0,0,0,0c0,0,0-0.1,0-0.1h0.1c0.3-0.3,0.8-0.3,1.1-0.3h49.4
	c0.4-0.1,0.8,0,1.1,0.2c0.1,0.5-0.3,0.4-0.6,0.5c-0.5,0-0.9,0-1.4,0h-47.4c-1.7,0-1.7,0-1.7,1.8v6.2c0.1,0.5,0,0.9-0.3,1.3l0,0
	L101.8,165.6z"/>
<path class="st16" d="M85.5,155.6H61.7V70.1h92c0.3,0.4,0.4,0.8,0.3,1.3v43.8c0,0.4,0,0.7-0.1,1.1c0,0.2-0.1,0.5-0.2,0.7
	c-1.3,2.7-2.3,5.5-2.9,8.5c-0.3,1.3-0.5,1.4-1.8,1.3c-1.2-0.1-2.3,0-3.4,0.2c-0.5,0.1-1,0.2-1,0.8s0.4,0.9,0.9,1
	c0.4,0.1,0.9,0.2,1.3,0.2c0.7,0.1,1.4,0.2,2.1,0.4c0.9,0.2,1.1,0.4,1,1.4c-0.2,1.7-0.3,3.4-0.3,5.1c0,0.1,0,0.2,0,0.4
	c0.9,2.8-1.1,4.2-2.7,5.9c-0.5,0.5-1.1,0.9-1.7,1.3c-1.3,0.8-2,0.5-2.4-0.9c-0.1-0.5-0.1-1,0-1.6c0.4-2.7,1.2-5.4,1.6-8.1
	c0.1-0.4,0.1-0.7,0.1-1.1c-0.1-1-0.5-1.5-1.5-1.5c-1,0.1-2-0.3-2.6-1.1c-0.5-0.4-1.1-0.6-1.8-0.4c-2.1,0.4-4,1.5-5.3,3.1
	c-2.5,2.7-4.1,6.2-4.6,9.9c-0.1,1-2.1,2.2-3.1,1.9c-0.4-0.2-0.7-0.6-0.8-1.1c-0.3-1.8-0.2-3.7,0.1-5.6c0.4-1.9,0.6-3.9,0.8-5.9
	c0.2-1.1-0.5-2.1-1.5-2.4c-0.9-0.2-1.8,0.2-2.2,1c-1.5,2-2.9,4.1-4.2,6.4c-0.2,0.3-0.3,0.7-0.7,0.9c-0.3,0-0.3-0.2-0.4-0.4
	c0.1-1,0.3-2,0.6-2.9c0.2-0.8,0.4-1.7,0.5-2.6c0.2-0.9-0.2-1.8-1-2.1c-0.8-0.4-1.8-0.2-2.4,0.5c-0.9,0.9-1.6,1.8-2.2,2.9
	c-0.9,1.4-1.7,2.8-2.4,4.3c-0.2,0.3-0.3,0.8-0.7,0.6s-0.2-0.6-0.2-0.9c0.2-1.7,0.6-3.4,0.8-5.1c0.1-0.9,0.3-1.8-0.6-2.5
	c-0.7-0.4-1.4-0.1-2.1-0.3l0,0v0.1c-1.1,1-1.3,2.4-1.6,3.7c-0.1,0.5,0,1.1-0.6,1.3s-0.9-0.4-1.3-0.8c-0.7-0.6-1.4-1.3-2-2
	c0-0.1-0.1-0.2-0.1-0.3c-0.1-4.2-0.1-8.3,0-12.4c0.1-0.7,0.1-1.3,0-2c0.2-3.8-3.1-7.4-6.9-7.8c-3.5-0.4-6.8,1.5-8.3,4.7
	c-0.2,0.5-0.3,1.1-1,1.3c-1.7,0.2-3.4,0-5.1,0.1c-3,0-5.9,0.5-8.7,1.4c-1,0.3-1.9,0.8-2.7,1.3c-1.4,1-2.3,2.6-2.4,4.4
	c-0.2,1.3,0.8,2.6,2.1,2.8h0.1c2,0.3,3.1-0.5,3.4-2.5c0.2-1.2,1-2.1,2.1-2.6c2.1-0.9,4.4-1.4,6.8-1.4c0.7,0,0.9,0.4,0.7,1
	c-0.2,0.9-0.5,1.8-0.8,2.7c-1.5,4.6-3.1,9.2-4.6,13.8c-1.2,3.6-2.1,7.4-3,11.1c-0.3,1.4,0,2.3,0.9,2.8c1.1,0.6,2.4,0.3,3.1-0.7
	c0.6-0.7,1-1.5,1.2-2.4c1.8-7.1,3.7-14.2,5.5-21.3c0.4-1.6,0.8-3.2,1.2-4.8c0.1-0.3-0.1-0.8,0.6-0.7c0.2,0.4,0.3,0.9,0.2,1.4v11.1
	c0,7.5,0.1,14.9,0,22.4C85.9,154.5,85.8,155.1,85.5,155.6z"/>
<path class="st15" d="M85.5,155.6v-35.1c0-0.5,0.2-1-0.2-1.4c-0.2-0.3-0.1-0.8,0.2-1l0,0c0.4-0.2,0.9-0.1,1.1,0.3c0,0,0,0,0,0.1
	c0.2,0.4,0,0.7-0.3,1c-0.3,0.4-0.4,0.9-0.4,1.4v16.7c-0.1,2,0.1,4,0.5,5.9c0.7,2.3,2,4,4.4,4.6c2.3,0.6,4.7-0.2,6.2-2
	c2.3-2.4,3.3-5.7,2.9-9c-0.1-1.1-0.3-2.2-0.7-3.2c-0.1-0.3-0.2-0.6,0-0.8s0.5,0,0.8,0.1c0.7,0.4,1.3,0.9,1.9,1.5
	c0.1,0.2,0.2,0.4,0.2,0.6v19.4c0,0.3,0,0.7-0.1,1c0,0.1-0.1,0.2-0.2,0.3H85.6L85.5,155.6z"/>
<path class="st41" d="M153.7,116.6V70.1h33.3v85.4h-33.3l-0.1-0.1c-0.2-0.3-0.2-0.7-0.2-1.1c0.1-2.1-0.1-4.1,0.1-6.2
	c0.1-0.4,0.4-0.3,0.7-0.3c1.6,0.3,3.3,0,4.8-0.8c1.2-0.6,2.4-1.2,3.6-1.9c0.9-0.5,1.1-0.5,1.7,0.3c2.5,3.7,7.1,2.8,9.2,0.8
	c1.8-1.7,2.9-4,3.2-6.5c0.3-2,0.1-4-0.6-5.9c-0.1-0.3-0.3-0.7,0-0.9s0.6,0.1,0.9,0.3c1,0.6,1.9,1.4,2.8,2.2c1,1.1,2.2,1.9,3.2,3.1
	c0.5-1.3,0.2-2.7-0.8-3.7c-1.9-2.1-3.8-4.1-6.5-5.1c-4.8-2-10.2,0.3-12.2,5.1c-0.5,1.2-0.7,2.4-0.7,3.7v0.3c0.4,1.7-0.6,3.4-2.2,3.9
	c-0.9,0.5-1.9,0.9-2.8,1.2c-1.5,0.5-3.2-0.3-3.7-1.8c-0.1-0.1-0.1-0.3-0.1-0.4c-0.3-1.3-0.3-2.5-0.2-3.8c0.1-1.1,0.1-2.1,0.1-3.2
	c0-0.5,0.1-0.9,0.3-1.4c0.5-0.8,1.2-1.6,1.8-2.4c0.4-0.4,0.9-0.7,1.5-0.6h6c0.6,0.1,1.2-0.2,1.5-0.8c0.5-1.1,0-1.9-1.2-1.9
	c-1.4,0-2.7-0.2-4.1-0.2c-0.9,0-1-0.3-0.6-1.1c1-1.6,1.9-3.4,2.5-5.2c0.6-1.9,0.5-3.9-0.2-5.8c-1.1-2.5-3.4-3-5.4-1.1
	c-0.5,0.6-1,1.2-1.4,1.8C154.3,116.2,154.2,116.6,153.7,116.6z"/>
<path class="st37" d="M153.7,155.6v0.2c-0.3,0.1-0.6,0.1-0.9,0h-49.9c-0.3,0-0.6,0-0.9-0.1c0-0.5,0.4-0.4,0.7-0.5c0.4,0,0.8,0,1.2,0
	h48C152.5,155.1,153.1,155.2,153.7,155.6L153.7,155.6z"/>
<path class="st0" d="M102.1,165.7v-8.5c0-0.9,0.3-1.1,1.1-1.1h49.3c0.4,0,0.8,0.1,1.2-0.2c0.1-0.1,0.1-0.1,0.2,0l0,0v9.7h-51.3
	L102.1,165.7z"/>
<path class="st46" d="M153.7,155.9h-51.8l-0.1-0.2h0.1c0-0.1,0.1-0.1,0.2,0h51.7C153.7,155.8,153.7,155.9,153.7,155.9z"/>
<path class="st47" d="M101.8,155.9v0.2H86v-0.2H101.8z"/>
<path class="st48" d="M117.9,186.3V200c-0.3-0.2-0.2-0.5-0.2-0.8v-12.1C117.8,186.8,117.7,186.5,117.9,186.3z"/>
<path class="st0" d="M102.1,134.8l-0.2-0.3c-0.5-1.1-0.5-2.5,0-3.6c0.9,0.6,1.7,1.4,2.5,2.2c0.4,0.4,0.6,0.6,0.7-0.2
	c0.2-1.1,0.6-2.1,0.9-3.1c0.1-0.6,0.6-1.1,1.2-1.4c0.7-0.2,1.5-0.2,2.2,0c1.1,0.8,0.7,1.9,0.7,2.9c-0.1,1.8-0.4,3.5-0.8,5.2
	c-0.1,0.2,0,0.4,0.1,0.6c1.2-2.4,2.5-4.7,4-6.9c0.7-1,1.4-1.9,2.8-1.9c1-0.1,1.9,0.7,2,1.8c0,0,0,0,0,0c0,0.1,0,0.2,0,0.2
	c-0.1,1.9-0.5,3.7-1,5.5c0,0.2-0.1,0.4-0.1,0.6c-0.1,0.4-0.1,0.4,0.2,0.4c1.3-2.4,2.7-4.8,4.3-7c0.5-1,1.7-1.6,2.8-1.4
	c1,0.1,1.7,1,1.6,2c-0.1,2.3-0.3,4.5-0.8,6.8c-0.4,1.7-0.4,3.5-0.1,5.2c0.2,1,0.6,1.2,1.6,0.8c1-0.3,1.8-1.2,1.9-2.2
	c0.8-4.8,2.9-8.8,7.1-11.5c1.1-0.7,2.3-1.1,3.6-1.1c0.5-0.1,1.1,0.2,1.4,0.6c0.4,0.6,1.2,1,1.9,0.9c1.8,0,2.2,0.3,2.1,2.1
	c-0.2,2.2-0.6,4.4-1.1,6.6c-0.1,0.7-0.3,1.5-0.5,2.2c-0.1-0.1-0.1-0.2-0.1-0.3v1.9c0,0.1,0.1,0.1,0.1,0c0.5,1.3,0.9,1.4,2.1,0.7
	c1.7-1.2,3.1-2.6,4.2-4.3c0.3-0.4,0.1-0.9,0.1-1.3c-0.2-2.4-0.2-4.7,0.2-7.1c0.1-0.5,0-0.9-0.6-1c-1.1-0.1-2.2-0.4-3.3-0.6l-0.6-0.1
	c-0.6-0.2-1-0.8-0.9-1.5c0-0.7,0.6-0.8,1.1-0.8c1.3-0.2,2.7-0.3,4-0.1c0.8,0.1,1-0.1,1.1-0.8c0.6-3.1,1.6-6,3-8.8
	c0.1,0,0.3,0,0.3,0.2c0.1,0.3,0.1,0.5,0.1,0.8v15.2c0,0.2,0,0.3-0.1,0.5c-0.3,4.2,0.1,8.4,0.1,12.6c0,0.5,0.1,1.1-0.4,1.6
	c-0.5,0.2-0.8-0.1-1.1-0.4c-0.8-0.7-1.4-1.6-1.8-2.6c-0.4-0.8-0.4-0.8-1-0.1c-1,1.2-2.2,2.3-3.6,3.1c-2,1.2-4.8,1.4-6.2-1.3
	c-0.4-0.6-0.7-0.5-1.2-0.1c-1.3,1.2-3,2-4.8,2.2c-1.4,0.2-2.8-0.3-3.9-1.2c-0.9-0.8-0.9-0.8-2-0.2c-1.4,0.9-3,1.3-4.6,1.3
	c-0.9,0-1.7-0.5-2.1-1.3c-0.5-1.1-0.8-2.3-0.8-3.5v-3.1c0-1,0.1-2.1,0.3-3.1c-1.2,3.1-2.3,6-3.5,9c-0.3,0.8-0.8,1.4-1.5,1.7
	c-1.1,0.7-2.5,0.4-3.3-0.7c-0.2-0.3-0.3-0.6-0.4-0.9c-0.3-1.5-0.2-3,0.1-4.5c0.2-1.5,0.4-3,0.7-4.4c-1.1,2.1-2.1,4.3-3.2,6.5
	c-0.5,1-1.1,2-1.6,3.1c-0.5,0.9-1.4,1.4-2.4,1.2c-1,0-1.9-0.7-2.2-1.6c-0.3-0.9-0.5-1.9-0.4-2.9c0.1-2,0.3-4,0.7-6
	c0.1-0.5-0.1-1.1-0.5-1.5C102.8,136,102.2,135.6,102.1,134.8z"/>
<path class="st0" d="M85.5,118.1l-0.2,0.9c-0.4,2.6-1,5.1-1.8,7.6c-1.7,6.6-3.4,13.1-5.1,19.6c-0.2,1-0.8,1.9-1.5,2.5
	c-0.9,0.8-2.2,1-3.3,0.3c-0.9-0.6-1.3-1.7-0.9-2.7c1.4-6.1,3.1-12.1,5.3-17.9c1.2-3.2,2.1-6.5,3.2-9.8c0.2-0.7,0.2-0.9-0.7-0.8
	c-2,0.1-4.1,0.5-6,1.2c-1.4,0.4-2.3,1.6-2.4,3c-0.1,1.8-1.8,2.7-3.8,2.3c-1.5-0.2-2.5-1.7-2.2-3.1c0,0,0,0,0,0c0,0,0-0.1,0-0.1
	c0.4-3,2.4-4.6,5-5.6c3.3-1.1,6.8-1.6,10.3-1.5h4c0.1,0,0.2,0,0.3,0.1c0.1,1.2,0,2.4-0.1,3.6C85.6,117.9,85.6,118,85.5,118.1z"/>
<path class="st15" d="M94.9,80.4c3.9,0.5,6.9,3.9,7,7.8c0.1,4.5-3.5,8.3-8,8.4s-8.3-3.5-8.4-8c-0.1-1.9,0.6-3.7,1.7-5.2
	c1.3-1.7,3.3-2.9,5.4-3.1C93.4,80.5,94.1,80.6,94.9,80.4z"/>
<path class="st15" d="M85.5,118.1v-0.2c1-0.5,2-0.1,2.9,0c3.1,0.3,6.1,0.8,9.2,1.2c0.6,0.1,1.1,0.1,1.7,0.1c0.7,0.1,1.4-0.3,1.9-0.8
	c0.2-0.2,0.3-0.4,0.6-0.4v12.9c-0.5,0.3-0.8-0.1-1.2-0.3c-2.3-1.4-5-1.8-7.7-1.2c-3,0.6-5.4,2.8-6.3,5.8c-0.2,0.6-0.4,1.2-0.5,1.9
	c-0.1,0.3,0,0.7-0.4,0.7v-17.8c0-0.3-0.2-0.7,0.4-0.8c0.2,0,0.6-0.1,0.5-0.6s-0.4-0.4-0.7-0.4L85.5,118.1z"/>
<path class="st14" d="M85.7,137.6c0.2-0.6,0.3-1.3,0.5-1.9c1.6-6.2,8.1-8.5,13.6-5.9c0.7,0.3,1.4,0.7,2.1,1c0,0,0.1,0.1,0.1,0.2v3.6
	l-2.4-1.7c-0.2,0.2-0.1,0.3,0,0.4c1.7,3.8,1.2,8.2-1.2,11.6c-1.5,2.6-4.6,3.9-7.6,3.1c-2.1-0.6-3.7-2.2-4.3-4.3
	C85.9,141.7,85.6,139.6,85.7,137.6z"/>
<path class="st13" d="M153.7,117h-0.1l0.1-0.4c0.6-1,1.3-1.9,2.1-2.7c1.9-1.9,4.4-1.4,5.6,1c1.1,2.5,1.1,5.5-0.3,7.9
	c-0.7,1.5-1.4,2.9-2.3,4.2c1.7,0.1,3.2,0.2,4.8,0.2s2.1,1,1.5,2.4c-0.2,0.6-0.9,1-1.5,0.9h-6.4c-0.5,0-0.9,0.2-1.2,0.5
	c-0.6,0.8-1.2,1.5-1.7,2.2c-0.2,0.3-0.3,0.4-0.4,0V118C153.8,117.6,153.9,117.3,153.7,117z"/>
<path class="st15" d="M85.8,114.2l-0.2-0.1c0.5-0.3,0.5-0.8,0.7-1.3c1.9-4.1,6.7-6,10.9-4.1c2.5,1.1,4.3,3.5,4.7,6.2
	c0,0.4,0,0.7,0,1.1c-3-1.1-6.2-1.2-9.3-1.5c-1.8-0.2-3.6-0.1-5.4-0.1C86.6,114.4,86.1,114.5,85.8,114.2z"/>
<path class="st14" d="M85.8,114.2c3.6-0.1,7.1,0,10.7,0.5c1.1,0.2,2.2,0.3,3.2,0.4c0.8,0.1,1.6,0.4,2.2,0.9c0.2,0.6,0.2,1.3,0,1.9
	c-0.9,1.9-2.6,1.6-4.1,1.4c-2.9-0.3-5.7-0.7-8.6-1.1c-1.2-0.2-2.4-0.2-3.6-0.4C85.4,116.6,85.5,115.4,85.8,114.2z"/>
<path class="st49" d="M143.1,142.6l-0.1,0.4h-0.1v-2.6c0.2,0.2,0.1,0.4,0.1,0.6V142.6z"/>
<path class="st50" d="M109.3,128.6h-2.2C107.8,128.3,108.6,128.3,109.3,128.6z"/>
<path class="st51" d="M94.9,80.4c-0.7,0.3-1.5,0.3-2.2,0H94.9z"/>
<path class="st52" d="M117.2,137c0,0.1-0.2,0.4-0.3,0.2c-0.1-0.2-0.1-0.5,0.1-0.6C117.1,136.8,117.1,136.9,117.2,137z"/>
<path class="st16" d="M102.1,134.8c0.7,0.6,1.3,1.2,2,1.8c0.2,0.2,0.3,0.5,0.2,0.8c-0.4,2.2-0.7,4.4-0.8,6.6c0,0.8,0,1.6,0.2,2.3
	c0.3,1.3,0.9,1.8,2.1,1.9c1.1,0.2,2.1-0.4,2.4-1.5c1.4-2.6,2.6-5.4,3.9-8.1c0.3-0.7,0.7-1.3,1.2-1.8c-0.2,1.2-0.4,2.4-0.5,3.6
	c-0.4,1.9-0.5,3.8-0.3,5.8c0.2,0.9,0.5,1.8,1.6,2c1.1,0.2,2.3-0.3,2.8-1.3c0.7-1.4,1.2-2.9,1.8-4.4c0.7-1.9,1.5-3.7,2.3-5.5
	c0.1,1,0.1,2-0.1,3c-0.1,1.9,0,3.7,0.2,5.6c0.1,0.6,0.3,1.1,0.6,1.6c0.4,0.8,1.2,1.2,2,1.1c1.8-0.1,3.5-0.7,5-1.7
	c0.4-0.3,0.6-0.4,1,0.1c1.6,1.9,4.3,2.3,6.4,1.1c1.1-0.5,2-1.1,2.8-1.9c0.4-0.4,0.6-0.4,0.9,0.2c0.5,1.3,1.7,2.3,3.1,2.4
	c1.2,0,2.3-0.3,3.2-0.9c1.6-1,3-2.4,4.2-3.9c0.5,1.7,1.5,3.2,2.9,4.2c0.1,0.1,0.3,0,0.4,0.2v7.6h-50.6c-0.4,0-0.8-0.1-1.1,0.1h-0.2
	v-20.2C101.8,135.3,101.9,135.1,102.1,134.8z"/>
<path class="st13" d="M153.7,147.9l-0.4-0.2c0.6-0.1,0.3-0.6,0.3-0.9v-13.1c0.1,0,0.1-0.2,0.2-0.2l0.4-0.2c-0.2,2.7-0.6,5.4-0.2,8.2
	c0.2,1.4,1.5,2.5,2.9,2.3c0.2,0,0.4-0.1,0.6-0.1c1.5-0.5,3-1.2,4.3-2.2c0.5-0.3,0.7-0.8,0.6-1.4c-0.2-2.3,0.3-4.7,1.4-6.8
	c2-3.3,5.7-5,9.5-4.4c3.9,0.7,6.7,2.9,9,6c1.2,1.6,1.4,2.6,0.6,4.1c-2.3-2-4.2-4.4-6.9-6c-0.1,0.4,0.1,0.7,0.2,1.1
	c1.5,4.1,0.6,9.4-2.7,12.4c-2.5,2.3-7.3,3-9.7-1c-0.4-0.6-0.7-0.5-1.2-0.2c-1.7,1.1-3.5,2-5.3,2.7
	C156.2,148.3,154.9,148.4,153.7,147.9z"/>
<path class="st16" d="M133.5,141.7c0.5-3.2,1.6-6.2,4.2-8.5l0.1-0.1c0.6-0.3,1.2-1,1.8-0.6c0.4,0.2-0.1,1-0.2,1.5
	c-0.6,2.4-1,4.8-1.7,7.1c-0.3,1-0.8,1.9-1.5,2.7c-0.4,0.6-1.3,0.8-1.9,0.4c-0.4-0.2-0.6-0.7-0.6-1.1
	C133.6,142.7,133.6,142.3,133.5,141.7z"/>
<path class="st19" d="M153.9,133.4l-0.2,0.2V117c0.4,0.3,0.2,0.7,0.2,1C153.9,123.1,153.9,128.3,153.9,133.4z"/>
<path class="st15" d="M96.4,137.1c0,2.2-0.5,4.3-1.7,6.1c-0.5,0.7-1,1.4-1.9,1.2c-1.1-0.1-2-0.8-2.2-1.8c-0.9-3.1-0.2-6.4,1.8-8.9
	c0.5-0.8,1.5-1.2,2.4-0.9c0.9,0.3,1.2,1.1,1.4,1.9C96.4,135.4,96.5,136.2,96.4,137.1z"/>
<path class="st41" d="M159,118.7c-0.2,1.3-0.6,2.6-1.2,3.7c-0.6,1.3-1.4,2.6-2.1,4c-0.2,0.4-0.6,0.5-1,0.3c-0.6-0.2-0.2-0.6-0.2-0.8
	c0.4-2.3,1.1-4.6,2-6.9c0.1-0.3,0.3-0.6,0.4-0.8c0.3-0.5,0.6-1,1.3-0.8S158.8,118.2,159,118.7z"/>
<path class="st41" d="M173.2,137.2c0,2-0.6,4-1.6,5.8c-0.3,0.8-1.1,1.3-2,1.4c-1.1,0-2-0.7-2.3-1.8c-0.9-2.5-0.3-7.2,2.2-9.4
	c0.7-0.8,1.8-0.9,2.6-0.2c0.3,0.2,0.4,0.5,0.6,0.8C173.1,134.9,173.3,136.1,173.2,137.2z"/>
<rect class="st53" width="250" height="250"/>
<rect x="81" y="178.1" class="st0" width="80.5" height="30.2"/>
<rect x="85.5" y="177.3" class="st14" width="16.2" height="39.5"/>
<rect x="153.8" y="174.9" class="st13" width="13.2" height="46.7"/>
<g>
	<path class="st16" d="M82.4,201l-5.8-7.9l-2.2,2.2v5.7h-4.1v-18.6h4.1v8.2l7.6-8.2h5l-7.6,7.9l7.9,10.7H82.4z"/>
	<path class="st16" d="M101.8,195.2h-9.9c0.4,1.8,1.7,2.8,3.5,2.8c1.4,0,2.3-0.4,3.5-1.5l2.3,2.1c-1.3,1.7-3.2,2.7-5.8,2.7
		c-4.3,0-7.5-3-7.5-7.4v-0.1c0-4.1,2.9-7.4,7.1-7.4c4.8,0,7,3.7,7,7.8v0.1C101.9,194.6,101.8,194.9,101.8,195.2z M94.9,189.7
		c-1.7,0-2.8,1.2-3.1,3h6.1C97.7,190.9,96.6,189.7,94.9,189.7z"/>
	<path class="st16" d="M109.7,201.2c-2.5,0-4.2-1-4.2-4.3v-6.8h-1.7v-3.5h1.7V183h4v3.6h3.4v3.5h-3.4v6.1c0,0.9,0.4,1.4,1.3,1.4
		c0.7,0,1.4-0.2,2-0.5v3.2C112,200.9,111,201.2,109.7,201.2z"/>
	<path class="st16" d="M122.3,201.3c-4.3,0-7.4-3.3-7.4-7.4v-0.1c0-4.1,3.1-7.4,7.5-7.4c2.7,0,4.4,0.9,5.7,2.4l-2.5,2.7
		c-0.9-1-1.8-1.6-3.2-1.6c-2,0-3.5,1.8-3.5,3.9v0.1c0,2.2,1.4,3.9,3.6,3.9c1.4,0,2.3-0.6,3.3-1.5l2.4,2.4
		C126.7,200.2,125.1,201.3,122.3,201.3z"/>
	<path class="st16" d="M139.8,201v-8c0-1.9-0.9-2.9-2.5-2.9c-1.5,0-2.5,1-2.5,2.9v8h-4v-19.4h4v7.2c0.9-1.2,2.1-2.3,4.2-2.3
		c3.1,0,4.8,2,4.8,5.3v9.2H139.8z"/>
	<path class="st16" d="M156.3,201v-2c-0.9,1.2-2.1,2.3-4.2,2.3c-3.1,0-4.8-2-4.8-5.3v-9.2h4v8c0,1.9,0.9,2.9,2.5,2.9
		c1.5,0,2.5-1,2.5-2.9v-8h4V201H156.3z"/>
	<path class="st16" d="M172.4,201.2c-2.2,0-3.5-1-4.4-2.1v6.1h-4v-18.5h4v2.1c1-1.3,2.3-2.3,4.4-2.3c3.3,0,6.5,2.6,6.5,7.4v0.1
		C178.9,198.6,175.8,201.2,172.4,201.2z M174.9,193.8c0-2.4-1.6-3.9-3.5-3.9s-3.5,1.6-3.5,3.9v0.1c0,2.4,1.6,3.9,3.5,3.9
		S174.9,196.3,174.9,193.8L174.9,193.8z"/>
</g>
</svg>
