<svg id="Layer_1" data-name="Layer 1" xmlns="http://www.w3.org/2000/svg" viewBox="0 0 250 250"><defs><style>.cls-1{fill:#fdbc6f;}.cls-2{fill:#ed8a3a;}.cls-3{fill:#e06b2e;}.cls-4{fill:#fdad4e;}.cls-5{fill:#ed8a42;}.cls-6{fill:none;}</style></defs><title>products</title><path class="cls-1" d="M183.93,106.69c-1,.66-2,1.38-3,2.07-1.91,1.34-3.85,2.65-5.73,4-1,.72-1.16.72-2.19,0-2.9-2-5.8-4-8.71-6.08a1.31,1.31,0,0,0-1.58-.09c-.25.16-.5.32-.73.49-2.82,2-5.68,4-8.52,6a.93.93,0,0,1-1.26,0l-4.08-2.83c-1.73-1.2-3.44-2.42-5.19-3.61a1.22,1.22,0,0,0-1.65,0c-.46.4-1,.7-1.52,1.06-2.45,1.74-5,3.42-7.39,5.19a1.22,1.22,0,0,1-1.64.06c-2.88-2.08-5.81-4.11-8.71-6.15-.93-.65-1.24-.72-2.15-.07-2.54,1.84-5.17,3.59-7.71,5.42-1.86,1.35-1.82,1.36-3.71,0-2.63-1.84-5.25-3.69-7.91-5.51a1.46,1.46,0,0,0-1.92,0c-2.88,2-5.76,4.08-8.66,6.09-.9.63-1.09.63-2,0-2.91-2.1-5.91-4.11-8.82-6.21a1.14,1.14,0,0,0-1.32-.18,21.31,21.31,0,0,0-4,2.9c-2,1.41-4,2.8-5.91,4.22-.37.28-.54,0-.79-.13l-5.81-4-4.2-2.93a.81.81,0,0,0-.1.75c.26,1.76.56,3.51.79,5.27.58,3.73,1.14,7.46,1.74,11.19.57,3.56,1.2,7.11,1.77,10.67.79,4.81,1.5,9.61,2.26,14.42.71,4.52,1.44,9,2.15,13.57s1.44,9.21,2.15,13.82c.58,3.74,1.14,7.48,1.74,11.21.51,3.21,1,6.41,1.58,9.62.07.47.15.93.23,1.4.17,1.11.13,1.12-1.31,1.12l-.38.31v.1c1.58,0,1.58,0,1.8,1.38.49,3.11,1,6.21,1.46,9.33.05.37.14.73.2,1.09a14.42,14.42,0,0,1,.38,3.28.82.82,0,0,0,.06.79.57.57,0,0,1,.27.36c.64,4,1.25,8,1.85,12,.34,1.65.6,3.32.8,5,.3,2.2.79,4.38,1,6.58.41,2.78.91,5.56,1.37,8.34.2,1.3,0,1.47-1.52,1.47h-.64l.19.34H81c10-.09,20,0,30,0a10.43,10.43,0,0,0,2.09,0c-.07-.48-.59-.54-1-.68a11.41,11.41,0,0,1-3.16-1.62,7.75,7.75,0,0,1-3-6.53v-63.6c0-1.12-.23-1.31-1.58-1.31a17.1,17.1,0,0,1-3.64-.3c-8.8-2-11-10.43-6.13-15.31a13.23,13.23,0,0,1,8.43-3.58,7.8,7.8,0,0,1,1.87-.1h75.33c.68,0,1-.26,1.09-.81.11-1,.26-2,.32-3,.2-3,.47-6.05.7-9.08l.75-9.6c.27-3.48.49-7,.79-10.46.36-4.57.7-9.14,1.1-13.71a12.86,12.86,0,0,0,.14-3.34C184.74,106.12,184.3,106.45,183.93,106.69Z"/><path class="cls-2" d="M181.05,108.91l-4.79,3.42a15.78,15.78,0,0,0-1.32,1,1.2,1.2,0,0,1-1.59,0c-1.49-1.06-3-2.11-4.51-3.17s-3.17-2.22-4.75-3.37a.86.86,0,0,0-1.17,0l-5,3.49c-1.5,1-3,2.11-4.51,3.18a.73.73,0,0,1-1,0c-2.37-1.66-4.7-3.3-7.06-5-.87-.61-1.77-1.2-2.63-1.82a.75.75,0,0,0-1.06,0c-3,2.13-6,4.24-9,6.36-1,.72-1.1.69-2.16-.06-3-2.14-6-4.24-9-6.37a.75.75,0,0,0-1,0l-3.6,2.47c-2.06,1.45-4.13,2.89-6.16,4.37-.54.4-.72,0-1-.19q-4.75-3.28-9.5-6.59a.88.88,0,0,0-1.22,0c-3,2.14-6,4.23-9,6.37a1.42,1.42,0,0,1-2,0c-3-2.18-6-4.29-9.08-6.43a.76.76,0,0,0-1,0c-1.31.9-2.62,1.78-4,2.67a72.92,72.92,0,0,1,.79-7.68A148.43,148.43,0,0,1,80,78,112.34,112.34,0,0,1,91.81,51.61a67.94,67.94,0,0,1,15.82-18.12A39.81,39.81,0,0,1,126.52,25a34.55,34.55,0,0,1,17.62,2,41.74,41.74,0,0,1,10.5,5.85c1.32,1.54,2.67,3.07,3.88,4.68a89.78,89.78,0,0,1,7.69,12.19,113.34,113.34,0,0,1,7.31,17.1,150.34,150.34,0,0,1,4.55,16.85c.89,4.23,1.58,8.49,2.14,12.75.34,2.47.56,5,.72,7.45,0,1.38.17,2.74.34,4.1A1.07,1.07,0,0,1,181.05,108.91Z"/><path class="cls-3" d="M198.45,156.69h-3.17a14.4,14.4,0,0,1,6.37,3.27c2.74,2.56,3.67,5.52,2.7,8.83a10.05,10.05,0,0,1-6.08,6.43,12.86,12.86,0,0,1-6.32,1.09c-.88-.07-1.11.1-1.11.89q.06,31.92,0,63.85c0,4.1-2.29,7.31-7.46,8.71l-.26.14a2,2,0,0,1-1.12.1H115.49a3.65,3.65,0,0,1-1.14-.06h-1.19a15.58,15.58,0,0,0-2.25-.91c-3.55-1.64-5.29-4.17-5.3-7.46v-64c0-1.41.21-1.27-1.48-1.25A13.62,13.62,0,0,1,95.92,174a9,9,0,0,1-4.12-6.15,8.59,8.59,0,0,1,3.73-8.62,12.93,12.93,0,0,1,7.35-2.54,4.31,4.31,0,0,1,1.24-.06c25.13,0,50.25.07,75.38-.06,5.74,0,11.5,0,17.24-.31a2.6,2.6,0,0,1,1.7.28h0c.07,0,.1,0,.07.09A.09.09,0,0,1,198.45,156.69Z"/><path class="cls-4" d="M198.44,156.54c-31.85.35-63.71.08-95.56.15a2.12,2.12,0,0,1,1.31-.15h75.5c1,0,1.3-.27,1.35-1,.14-1.79.28-3.58.43-5.37.27-3.27.55-6.53.79-9.8.08-1,.08-2,.19-3,.25-2.33.29-4.67.46-7,.26-3.63.52-7.27.85-10.9.24-2.73.43-5.46.65-8.19.12-1.61.24-3.22.38-4.84a.68.68,0,0,1,.57.11,25.5,25.5,0,0,1,3.82,2.81c1.93,1.38,3.89,2.76,5.82,4.15.39.28.6.09.88-.1l8.89-6.22,1.3-.88C203.53,123.24,201,139.89,198.44,156.54Z"/><path class="cls-3" d="M189.21,109.41c-1.47-1-2.93-1.94-4.38-2.92a26.92,26.92,0,0,0-3.44,2.23l-.34.19c-.19-2-.5-4-.54-6s-.37-4.06-.54-6.1-.59-4.16-.91-6.24A147.73,147.73,0,0,0,174.6,71a117.65,117.65,0,0,0-8.42-20.78,84.67,84.67,0,0,0-10-15.22c-.47-.56-1-1.12-1.46-1.67-.14-.16-.37-.29-.07-.49A60.61,60.61,0,0,1,167.86,46.5a103.84,103.84,0,0,1,14,27.77A148.87,148.87,0,0,1,188.53,103C188.84,105.15,189,107.28,189.21,109.41Z"/><path class="cls-3" d="M152.55,66.08a10,10,0,0,1,3.6.37,2.88,2.88,0,0,1,2.3,2.82c.14,2.43-1.43,4.27-2.94,6.1a41.21,41.21,0,0,1-6.85,6.34c-2.79,2.1-5.68,4.11-8.7,6a124.43,124.43,0,0,1-19.26,9.61,66.18,66.18,0,0,1-15.51,4.39,15.67,15.67,0,0,1-6.78-.17c-2-.58-2.7-1.76-2.48-3.48.37-2.83,2.45-4.91,4.41-7a42.79,42.79,0,0,1,5.17-4.6,97.34,97.34,0,0,1,9.2-6.3,125.1,125.1,0,0,1,19.2-9.52,67.12,67.12,0,0,1,16-4.41c.17,0,.34-.07.51-.07Z"/><path class="cls-3" d="M152.78,42.48c0,1.66-1,3-2.06,4.33a51.82,51.82,0,0,1-12.09,9.86,99.83,99.83,0,0,1-12,6.49,71.56,71.56,0,0,1-16.11,5.41,16.81,16.81,0,0,1-6.28.23c-2.5-.45-3.16-1.79-2.46-4a12.13,12.13,0,0,1,3.34-4.8c1.08-1,2.28-2,3.43-3a69.07,69.07,0,0,1,10.68-7.25A102.69,102.69,0,0,1,132,43.55a63.48,63.48,0,0,1,12.55-3.71,15.08,15.08,0,0,1,5.68-.09C152.1,40.14,152.76,40.84,152.78,42.48Z"/><path class="cls-5" d="M148.28,162.22h43.8c2.29,0,4.28.61,5.27,2.49,1.7,3.22-1.3,6-4.58,5.93h-7.65c-1,0-1.16.23-1.16,1V241.2c0,2.19-1.3,3.27-4,3.27H116.19c-2.37,0-3.71-1.18-3.71-3.07q.06-34.77,0-69.56c0-1.17,0-1.17-1.39-1.17h-7.43a4.86,4.86,0,0,1-5.2-3.85c-.27-2.06,1.65-4,4.34-4.43a14.56,14.56,0,0,1,2.28-.15Z"/><path class="cls-3" d="M167.61,182.77c2.48-.1,4.65,1.63,4.75,3.79.1,1.76-2.17,3.77-4.47,3.78-2.55,0-4.51-1.38-4.67-3.25C163,184.48,164.7,182.89,167.61,182.77Z"/><path class="cls-3" d="M156.15,238.23c-2.78,0-4.88-1.57-4.79-4,.06-1.92,1.94-3.48,4.67-3.51,2.5,0,4.52,1.75,4.48,3.79S158.5,238.24,156.15,238.23Z"/><path class="cls-3" d="M134.59,209.34c-2.16.3-4.62-1.87-4.53-3.72.09-2.06,1.78-3.81,4.74-3.76,2.57,0,4.26,1.54,4.38,3.78C139.28,207.55,136.83,209.63,134.59,209.34Z"/><path class="cls-3" d="M133.27,230.12c.16,1.33-1.24,2.77-3.58,2.77a3.14,3.14,0,0,1-3.34-2.84,3.28,3.28,0,0,1,3.38-2.93C131.8,227.18,133.46,228.4,133.27,230.12Z"/><path class="cls-3" d="M127.92,184.4a3.23,3.23,0,0,1-3.42-2.89c0-1.56,1.75-2.78,3.7-2.78,1.5,0,3.45,1.5,3.33,2.63C131.34,183.34,130.29,184.36,127.92,184.4Z"/><path class="cls-3" d="M165.75,229.55c0-1.69,1.42-2.85,3.45-2.84,1.58,0,3.45,1.47,3.44,2.74,0,1.6-1.69,2.93-3.7,2.93S165.75,231.24,165.75,229.55Z"/><path class="cls-3" d="M146.17,172.71a2.24,2.24,0,0,1-2.42-1.81c-.05-1,1.22-2,2.37-1.92a2.3,2.3,0,0,1,2.46,1.91C148.6,171.9,147.5,172.7,146.17,172.71Z"/><path class="cls-3" d="M160.93,214c0-1.25,1.06-2,2.64-1.94a2.34,2.34,0,0,1,2,1.87,2.31,2.31,0,0,1-2.45,2A2,2,0,0,1,160.93,214Z"/><path class="cls-3" d="M124.47,213.39c0,1.11-.79,1.78-2.18,1.79s-2.38-.86-2.33-1.87a2.24,2.24,0,0,1,2.31-1.91C123.69,211.41,124.47,212.1,124.47,213.39Z"/><rect class="cls-6" width="250" height="250"/></svg>