<svg id="Layer_1" data-name="Layer 1" xmlns="http://www.w3.org/2000/svg" viewBox="0 0 250 250"><defs><style>.cls-1{fill:#56b0f6;}.cls-2{fill:#ddd3b3;}.cls-3{fill:#f6f0dd;}.cls-4{fill:#298fde;}.cls-5{fill:#1b54bc;}.cls-6{fill:#0a42a8;}.cls-7{fill:#a4d5f9;}.cls-8{fill:#fefefe;}.cls-9{fill:#ec2e03;}.cls-10{fill:#94a911;}.cls-11{fill:#94a810;}.cls-12{fill:#859219;}.cls-13{fill:#849219;}.cls-14{fill:#85931a;}.cls-15{fill:#f9f8f0;}.cls-16{fill:#f94818;}.cls-17{fill:#d92d0a;}.cls-18{fill:#849319;}.cls-19{fill:#84a2db;}.cls-20{fill:#57b1f6;}.cls-21{fill:#5db4f7;}.cls-22{fill:#fe410f;}.cls-23{fill:#fec5a0;}.cls-24{fill:#fd6f4f;}.cls-25{fill:#fec4a0;}.cls-26{fill:#fefdfd;}.cls-27{fill:#f2af36;}.cls-28{fill:#f2b137;}.cls-29{fill:#f2b136;}.cls-30{fill:#f2b036;}.cls-31{fill:#feb893;}.cls-32{fill:#feac86;}.cls-33{fill:#fdab84;}.cls-34{fill:#feb08a;}.cls-35{fill:#fe6f42;}.cls-36{fill:none;}</style></defs><title>products</title><path class="cls-1" d="M69.18,205.37q-.78-9.06-1.58-18.11-.76-8.7-1.55-17.39t-1.6-17.64c-.51-5.69-1-11.39-1.49-17.09-.17-1.91-.36-3.83-.55-5.75.17-.51.64-.49,1.07-.54a13.36,13.36,0,0,1,1.55,0h76.49a5.67,5.67,0,0,1,2.35.22c.64.48.51,1.16.46,1.78-.34,4.34-.71,8.69-1,13.05a1.55,1.55,0,0,1-.42,1.28c-1.91.15-3.79,0-5.69,0-1.63,0-1.7.07-1.7,1.58v14.57c0,1.38.08,1.46,1.55,1.46,3,0,2.67.16,2.7-2.55,0-1.46,0-2.93,0-4.4,0-.47,0-1.07.69-1.15a1.23,1.23,0,0,1,1.31.94,1.77,1.77,0,0,1,.12.64c0,2.18.13,4.37-.07,6.54-.23,2.71-.4,5.41-.64,8.1a58.35,58.35,0,0,1-.57,6.19,1,1,0,0,1-.2.33,24.6,24.6,0,0,1-5.57,1.07A175.68,175.68,0,0,0,115,183a152.6,152.6,0,0,0-18.67,6.7,2.7,2.7,0,0,1-1.81.42,1.9,1.9,0,0,1-.58-1.54c-.3-4-.68-8-1.06-12-.47-4.86-.83-9.73-1.32-14.6-.21-2.05-.37-4.1-.54-6.15.25-2.14,1.18-4.12,1.76-6.17.35-1.19.69-2.39,1.1-3.56.29-.81,0-1-.81-1s-1.91.25-2.77-.29A5.11,5.11,0,0,1,89.8,143a10.43,10.43,0,0,0-7.45-8.48c-5.53-1.8-10.75.58-12.37,5.7a14.64,14.64,0,0,0-.14,5.75q.42,4.89.87,9.78c.36,3.84.68,7.67,1,11.5.37,4,.77,8.09,1.11,12.14s.67,7.87,1.06,11.8c.3,2.89.47,5.75.81,8.66a4,4,0,0,1-.08,1.46c-1.06,1.53-2.81,2.32-4.16,3.56C70.15,205.17,69.77,205.6,69.18,205.37Z"/><path class="cls-2" d="M174.28,176.47c-.18,3.48-.53,6.95-.9,10.42-.23,2.13-.35,4.26-.53,6.39q-.4,4.71-.83,9.42c-.29,3.29-.55,6.58-.85,9.87-.37,4-.78,8.06-1.14,12.09-.27,3-.51,5.91-.77,8.86-.32,3.63-.56,7.26-1,10.86a6.62,6.62,0,0,1-5.67,5.35,2.53,2.53,0,0,1-1.16.09h-30c-.41,0-.86.16-1.23-.16.05-.37.36-.5.64-.64a6.7,6.7,0,0,0,4.12-6c.12-1.53.31-3.06.34-4.61a2.77,2.77,0,0,0-.41-1.61c.26-.69.92-.47,1.41-.47a21.37,21.37,0,0,0,5.52-.52A12.53,12.53,0,0,0,148,232.2a6.41,6.41,0,0,0,1.73-5.53,1.63,1.63,0,0,1,.07-1.09c1-.51,2.07.12,3.14-.21a5.19,5.19,0,0,0-1.18-1.46c-.38-.4-1-.68-.92-1.35.5-.42,1.13-.2,1.69-.32.41-.09.94-.08,1.05-.56s-.32-.64-.64-.87a9.54,9.54,0,0,0-3.19-1.38c-.48-.13-1-.11-1.35-.59.14-.9,1.09-1,1.63-1.48s1.69-.37,1.28-1.07-1.09.34-1.69.5-1.13.88-1.91.51c-.25-.5,0-1,.19-1.4a7.18,7.18,0,0,0,.27-3.19c0-.37,0-.85-.46-1s-.76.29-1.07.57-.55.92-1.12,1.13c-.79-.1-.55-.79-.76-1.22s-.21-1.47-.81-1.5-.8.87-1.09,1.41c-.15.3-.22.64-.57.82-1.54-.92-3.33-1.44-4.73-2.59,0-2.38.27-4.73.46-7.09.29-3.49.5-7,.83-10.46.36-3.93.56-7.87.91-11.81.06-.68,0-1.35.07-2a2,2,0,0,1,.58-1.55v-.08a6.81,6.81,0,0,1,3.2-.71,172.54,172.54,0,0,1,23.51-.94c1.92,0,3.81.22,5.71.33A2.26,2.26,0,0,1,174.28,176.47Z"/><path class="cls-3" d="M140.42,177.41q-.24,2.81-.47,5.6L139,194.44q-.26,3.24-.49,6.5l-.73,9.64a.63.63,0,0,1-.49.27,20.23,20.23,0,0,0-4.64.74c-.51-.37-.18-.82-.12-1.24a14.34,14.34,0,0,0,.27-3.92,9.37,9.37,0,0,0-3.08-5.36c-.25-.24-.57-.43-.64-.79,0-.51.48-.64.84-.85a15.59,15.59,0,0,0,2.05-1.28c.83-.63.8-.79-.16-1.14a6.33,6.33,0,0,0-2.19-.36c-.49,0-1,.13-1.42-.33-.06-.25.12-.39.28-.53a2.33,2.33,0,0,0,.78-.75,6.08,6.08,0,0,0,1.35-2c0-.5-.39-.37-.64-.4a8.52,8.52,0,0,0-3.5.44,2.43,2.43,0,0,1-1.72.24c-.38-.79.18-1.52.2-2.28a8.21,8.21,0,0,0-.14-1.92c-.15-.71-.57-.84-1.2-.44a7.74,7.74,0,0,0-1.95,1.92c-.24.3-.38.67-.75.86-.68.14-.76-.4-1-.78a9.12,9.12,0,0,0-2.21-3c-.83-.64-1.18-.54-1.44.46a6.86,6.86,0,0,0-.18,2c0,.37.09.76-.23,1.06-.64.07-.9-.39-1.28-.71a7.18,7.18,0,0,0-2.69-1.55,11.46,11.46,0,0,0,.4,3.49c.08.36.28.72,0,1.07a1.75,1.75,0,0,1-1.15.15,9.72,9.72,0,0,0-9.2,4.75,15.32,15.32,0,0,0-2.31,8.94c.17,5.82,2.11,11.23,4.19,16.61a6.18,6.18,0,0,0,1.67,2.31c1.92,1.74,4.13,1.55,6.35.83a55.23,55.23,0,0,0,6.24-2.79c1.39-.64,2.73-1.38,4.08-2.1.36-.19.72-.55,1.18-.19.23.47,0,.88-.2,1.28-.76,1.89-1.44,3.82-2,5.78a4.34,4.34,0,0,0,3.36,5.52,58,58,0,0,0,8.16,1.5,4,4,0,0,1,2.26.56c.75.15.79.57.75,1.25-.11,1.91-.25,3.83-.45,5.71-.31,2.95-2,4.9-4.8,6.14H162.6c-.33.32-.75.21-1.13.21-10.6,0-21.21.19-31.8,0-16.71-.35-33.42-.11-50.13-.12a6.7,6.7,0,0,1-6.77-5.43c-.36-2.48-.51-5-.74-7.48-.32-3.2-.69-6.39-.9-9.58-.14-2.1-.36-4.19-.53-6.28q-.43-4.91-.89-9.83c-.17-1.92-.35-3.87-.52-5.8l5.22-3.84.17.12a5.39,5.39,0,0,1,.59,3c.5,6.79,1.28,13.57,1.78,20.37.25,3.37.58,6.75,1,10.12a11.06,11.06,0,0,0,12.27,9.54,8.73,8.73,0,0,0,8-8.28,70.43,70.43,0,0,0-.56-7.55q-.51-6.18-1.11-12.37c-.3-3-.6-6.07-.83-9.11-.3-4-.8-8-1.06-11.93a43,43,0,0,1-.34-5,.63.63,0,0,1,.45-.39,164.6,164.6,0,0,1,39.19-11.71A57.55,57.55,0,0,1,140.42,177.41Z"/><path class="cls-4" d="M174.28,176.47a146.75,146.75,0,0,0-18.52-.42A132.59,132.59,0,0,0,141,177.33h-.59c.31-3.79.59-7.57.93-11.35.1-1-.25-2.09.25-3.08a2,2,0,0,1,1.5-.2,11.45,11.45,0,0,0,1.65.12c.89,0,1.33-.28,1.31-1.17,0-1.54,0-3.08,0-4.63a3.3,3.3,0,0,0-1.54-2.93c-.37-.23-1-.63-.17-1,1.76-.81,1.65-2.32,1.65-3.79a4.59,4.59,0,0,0-2.93-4.37,51.83,51.83,0,0,1,.3-6.59c.14-3.06.42-6.12.64-9.18l.17-.16a9.86,9.86,0,0,1,3.06-.21h29.28a2.86,2.86,0,0,1,2,.36q-.77,8.59-1.51,17.19-.9,10.23-1.82,20.44C174.93,170,174.6,173.25,174.28,176.47Z"/><path class="cls-5" d="M55.83,122.67c-1.62-.58-2.15-1.34-1.78-3,.76-3.22,1.55-6.45,2.45-9.64.64-2.3,1.15-2.56,3.59-2.56H181.38c.49,0,1-.17,1.49.2-.61.51-1.36.34-2.05.34H150.36c-1.47,0-1.51.07-1.28,1.41q1,5,2,10.09c.38,1.78-.21,2.68-2,3.33-2.45.15-4.9,0-7.36.07-5.14,0-10.29,0-15.43,0-2.1.05-4.2,0-6.31,0H62.91C60.55,123,58.2,122.71,55.83,122.67Z"/><path class="cls-3" d="M55.83,122.67h70.56a4.23,4.23,0,0,0,1.28.07h20c1.28,0,1.32.11,1.46,1.35.31,2.72-1.71,5.11-5.11,5v.09c-.44,0-.87,0-1.31,0H63.93c-.49,0-1-.19-1.47.22-1.05-.55-2.28-.78-3.06-1.8a4.35,4.35,0,0,1-.64-3.33c.13-1.14-.29-1.58-1.49-1.42A1.73,1.73,0,0,1,55.83,122.67Z"/><path class="cls-6" d="M149.24,122.6c1.59-.79,1.84-1.36,1.47-3.19-.74-3.63-1.44-7.27-2.21-10.86-.16-.71,0-.82.71-.82h33.66a2.57,2.57,0,0,1,1.47,1.91,97.43,97.43,0,0,1,2.56,10c.46,2.2-.4,3.07-2.77,3.19l-1.77.1a1.37,1.37,0,0,1-1.1.31,80.68,80.68,0,0,0-8.08-.12c-7.34-.1-14.69,0-22,0C150.51,123,149.81,123.12,149.24,122.6Z"/><path class="cls-2" d="M149.24,122.6c7.33,0,14.66,0,22,.06,3.72,0,7.44.1,11.16.16V125c0,2.28-1,3.49-3.4,4a2.56,2.56,0,0,0-.43.17l-30.61,0-3.93,0a6.47,6.47,0,0,0,4.06-2.09c.53-.64,1-3.25.64-3.89-.28-.48-.78-.28-1.18-.28H127.76c-.46,0-1,.15-1.38-.18h22.16A5.53,5.53,0,0,1,149.24,122.6Z"/><path class="cls-7" d="M94.68,190l-.24.22a3.11,3.11,0,0,1-1.09.69,115.94,115.94,0,0,0-18.3,10.48.83.83,0,0,1-.64.21.24.24,0,0,1,0-.12c-.11-3.56-.55-7.1-.91-10.65-.2-2-.34-4-.52-5.94q-.53-6.06-1.06-12.14c-.29-3.29-.55-6.58-.86-9.87-.28-3-.64-6-.87-8.94-.14-1.92-.37-3.83-.51-5.75-.13-1.65-.39-3.29-.44-4.93a9.22,9.22,0,0,1,8.94-9.67,11.49,11.49,0,0,1,12.19,10.75c0,.13,0,.26,0,.39-.76,2.14-.78,4.47-1.66,6.76A2.56,2.56,0,0,1,88,149.7c-.19-1.2-.4-2.39-.64-3.57a1.13,1.13,0,0,0-1.28-1c-2.85-.11-2.85-.15-2.08,2.41.71,2.31,1.28,4.66,2.13,6.94s.51,4.55.56,6.84c0,1.28,0,1.28,1.38,1.42,2.55.25,2.67.14,2.74-2.29,0-1.28-.37-2.48-.09-3.72.09-.41,0-.94.64-1.11.48,5,1,10,1.44,15s.75,9.86,1.28,14.79C94.16,187,93.89,188.58,94.68,190Z"/><path class="cls-8" d="M126.87,152.39v6.44a4.71,4.71,0,0,0,.13,1,.49.49,0,0,0,.54.36.5.5,0,0,0,.52-.38,4.41,4.41,0,0,0,.18-1.45V145.92c0-.83.16-1.23,1.15-1.14a26.54,26.54,0,0,0,3.09,0c.64,0,.82.19.82.77,0,4.48,0,8.95-.07,13.42,0,2.28-1.56,3.83-4,4.25a8.53,8.53,0,0,1-4.34-.33,4.06,4.06,0,0,1-3-3.92c-.06-4.47,0-8.94,0-13.42,0-.58.18-.8.81-.77,1.34.05,3-.41,3.93.22s.21,2.32.26,3.54,0,2.56,0,3.84Z"/><path class="cls-8" d="M143.06,145a3.48,3.48,0,0,1,3.1,3.19,12,12,0,0,1,.06,2.81,2.46,2.46,0,0,1-2.42,2.49c2.28.64,2.55,2.18,2.5,3.83s0,3.16,0,4.74c0,.64-.14,1-.91.95q-1.9,0-3.78-.15V156.6a7.15,7.15,0,0,0-.16-1.22.82.82,0,0,0-.9-.6c-.64,0-.36.49-.36.76,0,2.15-.05,4.3,0,6.44,0,.81-.25,1.06-1.08,1-1.07-.06-2.14,0-3.19,0-.56,0-.77-.19-.76-.73V145.43c0-.68.38-.71.9-.7A65.49,65.49,0,0,1,143.06,145Z"/><path class="cls-8" d="M95.21,154c0-1.66.05-3.31.09-5a4.73,4.73,0,0,1,4.59-4.47,7.67,7.67,0,0,1,4.47.71,4.6,4.6,0,0,1,2.36,4.29,82.43,82.43,0,0,1-.13,9.94,4,4,0,0,1-1,2.15c-1.33,1.61-4.22,2.25-6.81,1.53a4.41,4.41,0,0,1-3.51-4.3,10.36,10.36,0,0,1-.11-1.12C95.2,156.46,95.21,155.21,95.21,154Z"/><path class="cls-8" d="M116.35,161.92a4.07,4.07,0,0,1-5,1.06,4.29,4.29,0,0,1-2.85-4.31c0-3,.06-6,0-8.94-.13-4.25,3.08-5.59,6.51-5.29s4.9,2.05,5,5.22c0,1.88,0,1.92-1.91,1.87-1,0-2.21.41-2.87-.19s-.13-1.73-.22-2.62c0-.5,0-1.12-.68-1.13s-.76.64-.76,1.18v10.17c0,.51-.07,1.15.71,1.22s.82-.64.87-1.12a18.72,18.72,0,0,0,0-2.37c0-.17-.06-.47-.16-.5-1.6-.51-.5-1.73-.75-2.55-.1-.39.36-.41.68-.41h4.41c.5,0,.75.16.75.64v8.7a.46.46,0,0,1-.24.47C119,163.43,116.82,162.85,116.35,161.92Z"/><path class="cls-8" d="M91.28,155.63a6.5,6.5,0,0,0-.31,2.63c.14,1.34.07,2.7.09,4.06,0,.51-.24.77-.79.76h-.36c-1.17,0-2.64.29-3.41-.33-.54-.43-.26-1.92-.16-2.92.38-3.65-1.23-6.92-2.15-10.32-.35-1.27-.78-2.59-1.18-3.89-.18-.56-.13-.9.64-.85a29.42,29.42,0,0,0,3,0c.6,0,.81.18.9.75.3,1.85.68,3.69,1.07,5.75.38-1.86.68-3.56,1.08-5.22.11-.45-.08-1.13.7-1.28,1.06,0,2.13.06,3.19,0,.87-.05,1,.2.73.94-1,3-1.88,5.95-2.81,8.95C91.41,155,91.36,155.3,91.28,155.63Z"/><path class="cls-9" d="M134.92,236.65a64.3,64.3,0,0,1-9.94-1.59c-3.73-.9-5.11-3.23-4-6.74.57-1.79,1.28-3.54,1.91-5.32.13-.35.39-.67.3-1.07,1.54-4.19,3.88-7.81,8-10.19a1.45,1.45,0,0,1,1.45-.27,10.18,10.18,0,0,1,5.11-.89,12,12,0,0,1,4.47,2.25,7.7,7.7,0,0,1,3.24,3.53.3.3,0,0,1-.23.24c-.83-.1-1.11-.8-1.55-1.28a9.3,9.3,0,0,0-3.83-2.81c-3.2-1.12-5.92,0-8.36,1.88a17.31,17.31,0,0,0-4.84,6.63,44.61,44.61,0,0,0-2.39,6.26c-.9,3.07.18,4.89,3.43,5.64a41.17,41.17,0,0,0,11,1.37,12.83,12.83,0,0,0,7.79-2.66c2.62-2.15,3-4.73,2.09-7.67a16.93,16.93,0,0,1-.82-2.59A.62.62,0,0,1,148,221c.4-.12.57.15.75.4.5,1.35,1.36,2.62,1.2,4.15,0,.94.26,1.85.16,2.81-.39,3.48-2.79,5.44-5.78,6.9a15.32,15.32,0,0,1-7.15,1.39C136.45,236.64,135.7,236.65,134.92,236.65Z"/><path class="cls-10" d="M145.39,216.5l0-.23a3,3,0,0,1,0-2.93,12.23,12.23,0,0,1,1.52-1.7c.7-.54,1.17-.67,1.39.39a7.61,7.61,0,0,1-.17,4.1c-.14.43-.25.86-.38,1.28-.4.67-1,.43-1.53.22a2.16,2.16,0,0,1-.4-.27,2.61,2.61,0,0,1-.51-.59A.29.29,0,0,1,145.39,216.5Z"/><path class="cls-11" d="M148.55,221.46l-.44-.51c-.3-.11-.36-.39-.47-.64a2,2,0,0,1-.09-.49c.06-.54.17-1,.89-1.06a15,15,0,0,1,4.55,1.71c.5.34,1.31.68,1.19,1.27s-1.08.76-1.77.86a11.07,11.07,0,0,1-1.41,0A3.8,3.8,0,0,1,148.55,221.46Z"/><path class="cls-12" d="M145.43,213.31v2.92l-3.15-3.42a7.14,7.14,0,0,1,1.62-2.89C144.93,210.89,145,212.19,145.43,213.31Z"/><path class="cls-13" d="M148.55,221.46c.94.15,1.6.85,2.45,1.17.64.7,1.32,1.38,1.92,2.1.2.25.55.55.36.89s-.58.14-.88.16a8.23,8.23,0,0,1-2.47-.23C149.49,224.16,149,222.82,148.55,221.46Z"/><path class="cls-14" d="M148.44,218.77a1.15,1.15,0,0,0-.64,1.14,3.23,3.23,0,0,1-1.6-2.52c.53.15,1.06.39,1.59,0,.94-.48,1.92-.92,2.8-1.45.54-.32.85-.35,1.2.23s-.15.75-.53,1A17.32,17.32,0,0,0,148.44,218.77Z"/><path class="cls-15" d="M74.4,201.64a73.18,73.18,0,0,1,9.2-6c3.28-1.91,6.69-3.6,10.15-5.2.21-.08.42-.14.64-.2.31,3.19.64,6.39.93,9.61.19,2.16.31,4.33.51,6.5.28,3,.64,6,.91,9,.19,2.05.33,4.11.52,6.16.29,3.32.71,6.63.89,10,.11,2.16.56,4.31.09,6.51-.8,3.77-4.7,6.87-8.79,7-4.83.13-8.22-2-10.67-5.75a9,9,0,0,1-1.28-4c-.32-2.9-.48-5.82-.75-8.73-.29-3.1-.64-6.18-.92-9.27-.19-2.13-.27-4.27-.52-6.39C75,207.82,75,204.7,74.4,201.64Z"/><path class="cls-16" d="M105.35,226.45a6.4,6.4,0,0,1-2.11-3.19,59.47,59.47,0,0,1-3.7-13c-.63-4.8-.1-9.34,3.2-13.36a9.78,9.78,0,0,1,8.17-3.58c.47,0,.94,0,1.41,0,.56-.36,1.14-.13,1.72-.06a21.78,21.78,0,0,1,4,1,13.84,13.84,0,0,1,3.59,1.47,24.08,24.08,0,0,1,3.89,3.45c3.1,3.83,3.33,8,1.35,12.34a10.6,10.6,0,0,1-.7,1.28,3.34,3.34,0,0,0-1.45,2.43,33.87,33.87,0,0,1-10.58,9.24,19.44,19.44,0,0,1-6.16,2.3A3.81,3.81,0,0,1,105.35,226.45Z"/><path class="cls-17" d="M125.89,212.84a24.18,24.18,0,0,0,1.7-4.77c.68-3.73-.57-6.84-3.15-9.58-.92-1-2.13-1.64-3.09-2.59.4-.3.77-.11,1.15,0s1,.49,1.48.71l.44.22a41.2,41.2,0,0,1,3.67,2.18c.45.29.92.56,1.06,1.13,2.11,1.84,3.83,3.89,4,6.76a26.86,26.86,0,0,1-.51,4.56c-3,1-4.9,3.14-6.63,5.55-1.11,1.55-1.68,3.36-2.8,4.9A110.7,110.7,0,0,1,112.94,227a8.17,8.17,0,0,1-5.28.72,3.83,3.83,0,0,1-2.31-1.28c4.16.55,7.44-1.44,10.67-3.45a31.8,31.8,0,0,0,8-7.3c.17-.22.27-.56.67-.56.59.08,1.15.17,1.56-.45S126.28,213.41,125.89,212.84Z"/><path class="cls-11" d="M122.49,196.16l-1.14-.27a20.58,20.58,0,0,0-3.33-1.36,14.46,14.46,0,0,1-2.18-3.47,9.36,9.36,0,0,1,.3-3.53c.25-.8.57-1,1.37-.44a9.77,9.77,0,0,1,2.77,3.57c.13.28.09.72.59.73a6.33,6.33,0,0,1,.56,2.38c.07.72.27,1.08,1.07.5a3,3,0,0,1,1.92-.78,2.4,2.4,0,0,0,2.21-.28c.44-.33,1.24-.35,1.84-.68.33-.19.56.17.72.43a.54.54,0,0,1,0,.77l0,0c-.23.19-.59.22-.73.57a1.55,1.55,0,0,0,1.28-1c.28-.49.72-.87,1.27-.17a6.15,6.15,0,0,1-1.52,2c-.26.18-.58.29-.69.64l-.33.3a2.26,2.26,0,0,1-2,.44c-.4-.13-.84-.6-1.16.1-.27.33-.69.24-1.05.33l-.27-.15c-.36-.4,0-1-.36-1.38C123.15,195.6,123.23,196.52,122.49,196.16Z"/><path class="cls-18" d="M124.45,193.64a6.4,6.4,0,0,0-2.45,1.28c-.3.23-.56.34-.64-.17a15.57,15.57,0,0,1-.48-3.39,7,7,0,0,1,2.68-3.05c1-.64,1.35-.5,1.58.64a6.71,6.71,0,0,1-.41,4.17C124.84,193.42,124.7,193.55,124.45,193.64Z"/><path class="cls-18" d="M115.84,191.06a10.44,10.44,0,0,1,2.18,3.47,37.33,37.33,0,0,0-5.75-1.17,11.09,11.09,0,0,1-.63-4.81C113.41,188.91,114.57,190.06,115.84,191.06Z"/><path class="cls-18" d="M124.22,197l1-.44c.3-.14.57-.41,1-.22a9.18,9.18,0,0,0,2.28-.2,19.41,19.41,0,0,1,4.13.71c.68.26.75.49.22,1a15.55,15.55,0,0,1-3.6,2.28A36,36,0,0,0,124.22,197Z"/><path class="cls-11" d="M124.45,193.64l.27-.49c1.09,0,2-.58,3.08-.74a12.26,12.26,0,0,1,2.71-.09c.64,0,.82.36.43.89-.44-.24-.83-.27-1,.28a1.54,1.54,0,0,1-1.18,1.16c-.32.07-.52.46-.78,0s.09-.56.37-.79.94,0,.74-.63c-.07-.2-.32-.52-.42-.5a2.59,2.59,0,0,0-.79.41c-.25.16-.31,1.14-.81.15-.12-.25-.23,0-.3.07C126.11,194.32,125.3,194.11,124.45,193.64Z"/><path class="cls-11" d="M128.73,195.86c-.27-.71.29-.59.69-.64A1,1,0,0,1,128.73,195.86Z"/><path class="cls-8" d="M150.25,155.65c0-2.11,0-4.22,0-6.33,0-.7-.23-.89-.95-.89-2,0-2,0-2-2a5.34,5.34,0,0,0,0-.8c-.12-.72.24-.87.94-.86q4.53,0,9.06,0c.74,0,1,.23.92.9a2.72,2.72,0,0,0,0,.57c0,2.1,0,2.14-2.16,2.18-.87,0-.82.45-.81,1v12.43c0,.94-.27,1.28-1.28,1.17-1.22-.14-2.79.49-3.56-.27s-.18-2.15-.2-3.27C150.21,158.21,150.25,156.93,150.25,155.65Z"/><path class="cls-19" d="M87.87,111.53h21.8a3.61,3.61,0,0,1,3.93,3.76,3.82,3.82,0,0,1-4.07,3.47H66.28a3.83,3.83,0,0,1-4-3.08,3.73,3.73,0,0,1,2.34-3.94,4.75,4.75,0,0,1,1.87-.23Z"/><path class="cls-20" d="M141.61,149.78v.92c0,.64-.18,1.2-1,1.16s-.38-.75-.43-1.15a10.26,10.26,0,0,1,0-1.92c0-.28-.23-.75.34-.8a.93.93,0,0,1,.94.58A3.09,3.09,0,0,1,141.61,149.78Z"/><path class="cls-21" d="M101.75,153.83v4.63a7.59,7.59,0,0,1-.19,1.34c-.07.29-.34.39-.64.39a.51.51,0,0,1-.54-.47v0a12,12,0,0,1-.15-1.46v-8.81a4.15,4.15,0,0,1,.07-.79c.11-.45,0-1.11.77-1s.64.71.64,1.16c0,1.69,0,3.38,0,5.08Z"/><path class="cls-22" d="M145.39,216.5a.57.57,0,0,1,0,.18c-2,.69-4.47.09-5.14-1.27-.16,1.15-1.1,1.91-2.76,2.12-1.1.15-1.5-.63-1.87-1.4a3.16,3.16,0,0,1-.29-.74c0-.07,0-.17-.08-.23s.08.12.05.2a7.78,7.78,0,0,0,.46,1.16,2.63,2.63,0,0,1-1.36,3.46l-.13.05a1.73,1.73,0,0,1-1.37-.12,8.24,8.24,0,0,1-1.74-.91c-.07,0-.08-.15-.21-.11a.39.39,0,0,1,.17.11,21.78,21.78,0,0,0,1.95,1.28.92.92,0,0,1,.48,1.19,1,1,0,0,1-.1.17c-1.16,2.05-1.24,2.14-3.61,1.61-.15,0,0,.19,0,0a.09.09,0,0,1,.11,0c2.06.49,2.17.82.79,2.39a2.39,2.39,0,0,1-2,1c-.14,0-.06.16,0,0h.12a.63.63,0,0,1,.49.27c.05.44-.34.64-.53,1a1.7,1.7,0,0,1-.22.24c-.09.08-.2.13-.28.2s-.6.38-.44.71.56.19.86.13.67-.22,1-.28a2,2,0,0,0,1.86-.2,2.06,2.06,0,0,1,.9-.25c1.72-.32,2.16.11,1.8,1.72a2.12,2.12,0,0,0,0,.44c.34-2,1.18-2.63,3.19-2.48.83.07,1.21.44,1.22,1.21a17.68,17.68,0,0,0,.27,2.9c.11.19.1.43.35.68a2.52,2.52,0,0,1-.34-.7,6.45,6.45,0,0,1,0-2.9,1.33,1.33,0,0,1,1.28-1.15,2,2,0,0,0,.35-.06,2,2,0,0,1,3,1.07c-.28-.72-1-1.37-.22-2.14,1.64-1.65,2.1-1.78,3.64-1-.48-.52-1.07-.89-.9-1.61a5.69,5.69,0,0,1,1-1.79c.33-.49.22-1.27,1.06-1.47a16.68,16.68,0,0,1,1.44,5c.3,3.27-1.7,5.32-4.37,6.81-3,1.68-6.39,1.78-9.79,1.46a62.63,62.63,0,0,1-7.57-1.28c-3.44-.75-4.71-2.66-3.73-5.9a32.61,32.61,0,0,1,5.22-11.05,11.19,11.19,0,0,1,7.56-4.47c3.08-.39,5.25,1.23,7.15,3.28A4.21,4.21,0,0,0,145.39,216.5Z"/><path class="cls-23" d="M148,221.22c-.57,1-1.11,2.06-1.72,3.07a.76.76,0,0,0,.21,1.06l0,0a14.85,14.85,0,0,0,1.28.92,3.29,3.29,0,0,1-.49.26c-1.62-1.28-2.73-.25-3.92.69a.59.59,0,0,0-.21.81l0,.06c.26.57.55,1.13.9,1.84-.89-.23-1.17-.9-1.54-1.39s-.64-.64-1.15-.37l-.12,0c-.64.3-1.61,0-2,.52a4.34,4.34,0,0,0-.39,2.63v.9c.11.23,0,.27-.21.24a7,7,0,0,1-.52-3.19c.06-.68-.23-.82-.88-.83-2.06,0-2.26.07-2.95,1.92-.1.27-.2.55-.4,1.13a4.25,4.25,0,0,1,.11-2.21c.15-.47,0-.73-.57-.68-1,.1-2,0-2.72.83-.22.26-.64.84-.56-.17,0-.36-.53-.07-.8-.15-.27.1-.34,0-.36-.25a3.56,3.56,0,0,1,2.12-.9,48.47,48.47,0,0,1,7.39-1,8.53,8.53,0,0,0,6.33-3.13,22.67,22.67,0,0,0,1.92-2.55c.23-.38.39-.84.93-1,.24.14.22.39.27.6Z"/><path class="cls-24" d="M147.85,220.33a16.41,16.41,0,0,1-4.3,5.31,9.4,9.4,0,0,1-5,1.7,35.54,35.54,0,0,0-9.27,1.6c-.4.25-.86.37-1.16,0s.26-.64.42-.94a.41.41,0,0,1,0-.19,1.9,1.9,0,0,0,1-.74,36.45,36.45,0,0,0,4.71-5.52c2.64-3.9,6.57-4.94,11.15-4.56a1.38,1.38,0,0,1,.56.19l.28.24,1.6,2.52C147.81,220.06,147.83,220.2,147.85,220.33Z"/><path class="cls-25" d="M145.92,217.14a21.82,21.82,0,0,0-6.24.57,9.73,9.73,0,0,0-5.25,4,29.07,29.07,0,0,1-5,5.61c-.24.05-.34,0-.27-.26-.36-.46-1.13,0-1.5-.68,2.16.44,3-1,3.83-2.36a8.06,8.06,0,0,1-2.72-1.12c.46-.23.81.06,1.17.12,2.23.38,2.4.29,3.33-1.66.22-.45.15-.64-.29-.87a6.51,6.51,0,0,1-2.17-1.54c-.05-.23,0-.32.29-.26l.73.37c2.16,1.11,2.64,1,4-.92.27-.35.05-.56-.07-.81a6.29,6.29,0,0,1-.7-2.25.18.18,0,0,1,.25,0h0a.85.85,0,0,0,.09.22c1.18,2.34,1.85,2.52,4.16,1.17.33-.19.26-.42.27-.67a3.27,3.27,0,0,1,.13-1.28h.23c.82,2.17.39,1.88,2.88,1.92.76,0,1.5.11,2.25.16C145.66,216.76,145.87,216.88,145.92,217.14Z"/><path class="cls-26" d="M111,194.67a7.48,7.48,0,0,1,1.15.2c1.28.42,1.59,1.43.57,2.33a21.45,21.45,0,0,1-4.05,2.76A1.44,1.44,0,0,1,107,200a1.67,1.67,0,0,1-.56-1.65A4.46,4.46,0,0,1,111,194.67Z"/><path class="cls-27" d="M111.83,201.89a1.53,1.53,0,0,1-1.33,1.72h0c-.64,0-.8-.37-.81-.89,0-.86.76-1.85,1.45-1.81S111.82,201.43,111.83,201.89Z"/><path class="cls-27" d="M110.29,209c.06-.9.39-1.64,1.33-1.81.64-.11.85.45.88,1,0,.75-.86,1.82-1.48,1.78S110.39,209.33,110.29,209Z"/><path class="cls-28" d="M113,213.08a.85.85,0,0,1,.83.85.65.65,0,0,1,0,.2c-.15.72-.32,1.56-1.28,1.65-.73.06-.94-.56-.86-1.08A1.66,1.66,0,0,1,113,213.08Z"/><path class="cls-29" d="M114.74,199.25c.26-.76.49-1.57,1.49-1.53.64,0,.83.56.69,1.08-.18.72-.35,1.57-1.37,1.57C114.84,200.39,114.78,199.77,114.74,199.25Z"/><path class="cls-30" d="M115.41,220.86c0,.95-.56,1.73-1.28,1.74s-.8-.41-.83-.88c-.06-.84.74-1.85,1.42-1.82S115.42,220.38,115.41,220.86Z"/><path class="cls-30" d="M103.13,205.93c.21-.7.32-1.54,1.33-1.63.63-.05.89.4.89,1,0,.81-.76,1.73-1.41,1.72S103.24,206.41,103.13,205.93Z"/><path class="cls-30" d="M104.42,211.86c0-.94.6-1.73,1.32-1.71a.76.76,0,0,1,.81.68.9.9,0,0,1,0,.23c-.07.8-.33,1.61-1.31,1.77C104.5,213,104.41,212.39,104.42,211.86Z"/><path class="cls-29" d="M125.89,212.84a.94.94,0,0,1,.88,1s0,.09,0,.14a1.75,1.75,0,0,1-1,1.54.78.78,0,0,1-1-.33l0-.05A1.92,1.92,0,0,1,125.89,212.84Z"/><path class="cls-30" d="M107.55,217.72c0,.86-.71,1.73-1.38,1.69s-.81-.55-.76-1a1.61,1.61,0,0,1,1.35-1.62C107.46,216.64,107.55,217.2,107.55,217.72Z"/><path class="cls-30" d="M105.15,199.53c-.13.64-.43,1.38-1.37,1.42-.64,0-.81-.49-.76-1,.08-.87.84-1.75,1.46-1.67C104.9,198.29,105.19,198.77,105.15,199.53Z"/><path class="cls-30" d="M121.82,202a1.6,1.6,0,0,1,1.28-1.52c.69-.1.9.6.82,1.11-.12.73-.38,1.53-1.36,1.59C121.87,203.25,121.81,202.7,121.82,202Z"/><path class="cls-30" d="M118.51,204.52c-.05,1-.76,1.84-1.45,1.79s-.74-.5-.7-1c.08-.85.44-1.58,1.38-1.71C118.42,203.55,118.44,204.18,118.51,204.52Z"/><path class="cls-30" d="M118.85,210c.55,0,.72.48.78.93a1.91,1.91,0,0,1-1.44,1.84c-.66,0-.7-.42-.74-.85A2,2,0,0,1,118.85,210Z"/><path class="cls-30" d="M125.17,207.41c-.13.64-.32,1.46-1.33,1.58-.69.09-.79-.48-.8-1,0-.77.77-1.69,1.41-1.68S125.17,206.61,125.17,207.41Z"/><path class="cls-29" d="M119,217.78c.2-.84.49-1.58,1.41-1.7.72-.09.81.49.76,1a1.63,1.63,0,0,1-1.34,1.64C119.06,218.82,119.07,218.16,119,217.78Z"/><path class="cls-29" d="M109.69,223.33c0,.82-.8,1.81-1.39,1.72a.88.88,0,0,1-.75-1h0c0-.79.79-1.72,1.43-1.68S109.69,222.89,109.69,223.33Z"/><path class="cls-30" d="M130.89,204.31c0,.82-.75,1.81-1.36,1.74s-.77-.47-.78-1c0-.84.71-1.74,1.4-1.72S130.89,203.81,130.89,204.31Z"/><path class="cls-30" d="M129.71,210.85c0-.85.71-1.82,1.35-1.83s.77.38.79.89c0,.84-.73,1.85-1.4,1.81S129.76,211.22,129.71,210.85Z"/><path class="cls-11" d="M122.49,196.16a.53.53,0,0,0,.54-.48c0-.32.12-.81.49-.75s.56.59.6,1a2.91,2.91,0,0,1-.17,1A5,5,0,0,1,122.49,196.16Z"/><path class="cls-11" d="M126.12,196.36a1.59,1.59,0,0,1-1,.22c.22-.17-.06-.64.43-.64A.41.41,0,0,1,126.12,196.36Z"/><path class="cls-31" d="M128.54,228l-.3.93,1,0,.29.24a3.49,3.49,0,0,1-.53.22c-.58.12-1.39.6-1.65-.11S127.81,228.19,128.54,228Z"/><path class="cls-32" d="M129.21,227.1l.27.26c-.25.28-.4.74-.94.42A1.63,1.63,0,0,1,129.21,227.1Z"/><path class="cls-33" d="M131.16,218.73l-.29.27c-.26-.15-.52-.3-.55-.64C130.75,218.19,130.94,218.49,131.16,218.73Z"/><path class="cls-34" d="M138.81,232.52l.21-.24a1.14,1.14,0,0,1,.09,1.18Z"/><path class="cls-35" d="M135.42,215.13h-.27c-.18-.16-.35-.41,0-.5S135.42,214.9,135.42,215.13Z"/><rect class="cls-36" width="250" height="250"/></svg>