<?xml version="1.0" encoding="utf-8"?>
<!-- Generator: Adobe Illustrator 25.0.0, SVG Export Plug-In . SVG Version: 6.00 Build 0)  -->
<svg version="1.1" id="Layer_1" xmlns="http://www.w3.org/2000/svg" xmlns:xlink="http://www.w3.org/1999/xlink" x="0px" y="0px"
	 viewBox="0 0 250 250" style="enable-background:new 0 0 250 250;" xml:space="preserve">
<style type="text/css">
	.st0{fill:#EA5E5F;}
	.st1{fill:#B54C50;}
	.st2{fill:#C2B59B;}
	.st3{fill:#F19292;}
	.st4{fill:#F29D9D;}
	.st5{fill:#CD8688;}
	.st6{fill:#934145;}
	.st7{fill:#924145;}
	.st8{fill:#C25458;}
	.st9{fill:#934146;}
	.st10{fill:#E8BA5F;}
	.st11{fill:#F1D59D;}
	.st12{fill:#DE9E26;}
	.st13{fill:#DE9E27;}
	.st14{fill:#F29D9C;}
	.st15{fill:#DE9D27;}
	.st16{fill:#E8B161;}
	.st17{fill:#E9B064;}
	.st18{fill:#EBC37A;}
	.st19{fill:#E8B85E;}
	.st20{fill:#EAC175;}
	.st21{fill:#DF9D2B;}
	.st22{fill:#DF982D;}
	.st23{fill:#DF9B2B;}
	.st24{fill:#DAD2C2;}
	.st25{fill:#DE9E28;}
	.st26{fill:#DE9C29;}
	.st27{fill:#DE9D28;}
	.st28{fill:#DF9C29;}
	.st29{fill:#DE9D29;}
	.st30{fill:#DF992C;}
	.st31{fill:#DF9B2A;}
	.st32{fill:#DE9C28;}
	.st33{fill:#E0972E;}
	.st34{fill:#DF9B2C;}
	.st35{fill:#E0982E;}
	.st36{fill:#DF992E;}
	.st37{fill:#DF982E;}
	.st38{fill:#E09730;}
	.st39{fill:#E0992F;}
	.st40{fill:#E09732;}
	.st41{fill:#E09731;}
	.st42{fill:#E19333;}
	.st43{fill:#E09C2F;}
	.st44{fill:#F1D49D;}
	.st45{fill:#E8B95F;}
	.st46{fill:#E8B95E;}
	.st47{fill:#DE9C2A;}
	.st48{fill:#E7B75D;}
	.st49{fill:#E09430;}
	.st50{fill:#EC8485;}
	.st51{fill:#EEAEAE;}
	.st52{fill:#EDAAAA;}
	.st53{fill:#E0992E;}
	.st54{fill:#EBC37B;}
	.st55{fill:#EBC27D;}
	.st56{fill:#EA5F5E;}
	.st57{fill:#EA605E;}
	.st58{fill:#EA615E;}
	.st59{fill:#E9615D;}
	.st60{fill:#E9625D;}
	.st61{fill:#EA625E;}
	.st62{fill:#EA625D;}
	.st63{fill:#E9625E;}
	.st64{fill:#E9655C;}
	.st65{fill:#EBC47A;}
	.st66{fill:#F29E9B;}
	.st67{fill:#F1D49B;}
	.st68{fill:#EA6661;}
	.st69{fill:#F1D39C;}
	.st70{fill:#EBC279;}
	.st71{fill:#F1D19D;}
	.st72{fill:#F29E9C;}
	.st73{fill:#EA615F;}
	.st74{fill:#EBC47C;}
	.st75{fill:#ECC57F;}
	.st76{fill:#EBC37C;}
	.st77{fill:#EDBB86;}
	.st78{fill:#ECC081;}
	.st79{fill:#ECC180;}
	.st80{fill:#ECBD81;}
	.st81{fill:#EDBC83;}
	.st82{fill:#EBC37D;}
	.st83{fill:#F1A29B;}
	.st84{fill:#ECC47E;}
	.st85{fill:#F1A49D;}
	.st86{fill:#F1A49B;}
	.st87{fill:#F1A49A;}
	.st88{fill:#F1A89A;}
	.st89{fill:#EA6F62;}
	.st90{fill:#EA605D;}
	.st91{fill:#EA635E;}
	.st92{fill:#DE9E29;}
	.st93{fill:#DF9E2A;}
	.st94{fill:#E9635D;}
	.st95{fill:#E9655D;}
	.st96{fill:#DF9D2A;}
	.st97{fill:#DF9E2B;}
	.st98{fill:#E9675C;}
	.st99{fill:#E9645D;}
	.st100{fill:#E9665C;}
	.st101{fill:#DF9E29;}
	.st102{fill:#E9635C;}
	.st103{fill:#E9665B;}
	.st104{fill:#E9675A;}
	.st105{fill:#DF9E2D;}
	.st106{fill:#E9675D;}
	.st107{fill:#EA685E;}
	.st108{fill:#E9695B;}
	.st109{fill:#E9665D;}
	.st110{fill:#DF9F2B;}
	.st111{fill:#DFA02B;}
	.st112{fill:#E9675B;}
	.st113{fill:#E96859;}
	.st114{fill:#E86C59;}
	.st115{fill:#E96B5A;}
	.st116{fill:#E86B59;}
	.st117{fill:#DF9E2C;}
	.st118{fill:#E96A5B;}
	.st119{fill:#EA5F60;}
	.st120{fill:#ECC27E;}
	.st121{fill:#F2A59A;}
	.st122{fill:#ECC580;}
	.st123{fill:#ECC482;}
	.st124{fill:#F2A39C;}
	.st125{fill:#F1A99A;}
	.st126{fill:#DF9D2C;}
	.st127{fill:#E96A5C;}
	.st128{fill:#DFA02F;}
	.st129{fill:#DF9C2B;}
	.st130{fill:#E96C5A;}
	.st131{fill:#EBC47D;}
	.st132{fill:#ECC57E;}
	.st133{fill:#ECC67F;}
	.st134{fill:#EBC57F;}
	.st135{fill:#F1A598;}
	.st136{fill:#F1A79A;}
	.st137{fill:#F1A499;}
	.st138{fill:#F1A69B;}
	.st139{fill:#F1A399;}
	.st140{fill:#F1A999;}
	.st141{fill:#F1A597;}
	.st142{fill:#F1A19C;}
	.st143{fill:#F1AC9A;}
	.st144{fill:#F1A898;}
	.st145{fill:#EBC57D;}
	.st146{fill:#F1A29A;}
	.st147{fill:#F2A39B;}
	.st148{fill:#F1A599;}
	.st149{fill:#F1A69A;}
	.st150{fill:#F1A397;}
	.st151{fill:#F1A996;}
	.st152{fill:#EBC47E;}
	.st153{fill:#EBC57C;}
	.st154{fill:#F1A39A;}
	.st155{fill:#F2A19B;}
	.st156{fill:none;}
	.st157{fill:#FFFFFF;}
</style>
<path class="st0" d="M53.8,228.6c-0.5-2.2-0.8-4.4-0.9-6.6c-0.5-4.8-1.1-9.6-1.3-14.5c0-0.4,0.2-0.8,0.6-0.9c3-1.3,6-2.7,9.3-2.9
	c1,0.6,1.1,1.8,1.3,2.8c0.9,4.1,2.3,8.1,4.2,11.9c0.5,1.1,1.2,2.2,2.1,3.1c1.8,1.8,3.3,1.7,4.8-0.4c0.9-1.4,1.6-3,2-4.6
	c1.1-4.2,1.9-8.5,2.3-12.9c0.1-1,0.1-2,1.2-2.6c1.8-0.3,3.6-0.4,5.4-0.1c18,1.2,35.7,4.8,53.4,7.9c10.1,1.8,20.1,3.4,30.2,4.3
	c8.2,0.7,16.4,0.8,24.5,0.2c1.5-0.3,3-0.3,4.5,0c0.4,0.5,0.5,1.2,0.3,1.8c-0.3,4.5-0.9,8.9-1.3,13.4c0,0.8-0.3,1.5-0.7,2.1
	c-1,0.8-2.1,0.1-3.2,0.2l-2.2,0.1c-0.8,0-1.6-0.2-2.3-0.3c-6.6-1.3-13.2-1.7-19.9-2.4c-6.4-0.6-12.8-0.9-19.3-1.4
	c-2.7-0.2-5.5-0.3-8.2-0.4c-4.8-0.1-9.6-0.6-14.4-0.5s-9.7-0.2-14.6-0.3c-8.2-0.2-16.5,0.2-24.8,0.4c-9.2,0.2-18.5,0.7-27.7,1.8
	c-0.8,0.1-1.6,0.3-2.3,0.7C55.9,228.7,54.8,228.8,53.8,228.6z"/>
<path class="st1" d="M52.4,66c-2.6-6-4.5-12.2-5.5-18.6c2.2-0.8,4.6-0.4,6.8-0.5c4.7-0.3,9.5-0.4,14.2-0.3c1.9,0,3.7,0,5.6,0.2
	c2.6,0.3,5.1-0.3,7.7-0.4c2.9-0.1,5.8-0.5,8.8-0.7c4.5-0.3,9-0.5,13.4-0.7c3-0.1,6-0.3,9-0.3c5.6-0.1,11.2-0.1,16.9-0.1
	c3.7,0,7.3,0,10.9,0.1c5.8,0.2,11.6,0.4,17.4,0.8c4.9,0.3,9.7,0.7,14.5,1.1c2.9,0.2,5.7,0.7,8.5,0.9c1.2,0.1,2.4,0.1,3.5,0.2
	c5.5,0.1,11,0.7,16.5,1.1c0.2,2.1-0.6,4.2-0.7,6.2c0.6,1.3,0.1,2.5-0.3,3.6c-0.8,2.4-1.7,4.8-1.5,7.4c0,0.3-0.1,0.5-0.3,0.6
	c-1.9,0.7-3.9,0.2-5.8,0.3c-0.7-0.2-1.8,0.2-1.8-1c0.7-0.6,1.6-0.9,2.6-0.8c-1.9-0.5-3.9,0.1-5.9,0c-7.4-0.3-14.8,0.2-22.1,0.4
	c-27.6,1.1-55.3,0.7-82.9,0.5c-7.5,0-15-0.1-22.5-0.3c-1.1-0.2-2.1,0-3.1,0.5C54.9,66.6,53.6,66.9,52.4,66z"/>
<path class="st1" d="M171,247.7c-0.4,0.5-1,0.3-1.6,0.4h-4.3c-7.3,0.1-14.6,0.2-21.9,0.5c-7.9,0.3-15.7-0.1-23.6,0.3
	c-14.4,0.7-28.7,0.1-43.1,0.3c-0.9,0.1-1.8,0-2.7-0.3c-0.7-0.2-1.4-0.1-2,0.1c-1.4,0.4-2.9,0.6-4.4,0.6c-1.2-0.1-2.4,0-3.5,0.3
	c-0.9,0.2-1.8,0.2-2.7,0c-1.5-0.3-3.1-0.3-4.7-0.2l-3.5-0.1c-1.6-0.1-1.6-0.1-1.7-1.8c-0.2-5.6,0.6-11.2,2.3-16.6
	c0.3-0.8,0.4-1.7,0.3-2.6c0.8-0.8,1.8-0.3,2.7-0.5c0.5-0.3,1.1-0.4,1.7-0.3c1.4,0.2,2.9,0.2,4.3,0.2c16.5,0.5,33.1,0.2,49.6,0.5
	c6.2,0.1,12.3,0.1,18.5,0.3c2,0,4,0.2,5.9,0.6c1.1,0.8,0.9,2,1.1,3.1c0.5,4,1,8,1.3,12.1c0,0.5,0.1,1,0.3,1.5
	c0.3-5.2,0.1-10.1-1.4-14.7c-0.2-0.6-0.7-1.3,0-1.9c2.3-0.5,4.7-0.5,7.1-0.2c2.9,0.3,5.8,0.2,8.8,0.2c2.1-0.1,4.2,0.1,6.3,0.6
	c0.9,0.7,0.8,1.8,1,2.8c0.8,4.3,1.3,8.6,1.9,12.9c0.5-4.4,0-8.9-1.6-13.1c-0.3-0.8-1-1.5-0.2-2.4c1.9-0.5,3.8-0.5,5.7-0.1
	c0.7,0.4,0.6,1.1,0.8,1.8c1.2,5.1,2.2,10.4,3.6,15.5C171,247.5,171,247.6,171,247.7z"/>
<path class="st0" d="M52.4,66h3.8c0.5-0.4,1-0.2,1.6-0.1c5.8,0.9,11.8,1.3,17.6,1.9c3,0.3,6-0.1,8.9,0.9c0.9,0.5,0.4,1.2,0.1,1.7
	c-0.7,1.2-1.4,2.4-2.2,3.6c-0.9,0.7-2.2,0.2-3.3,0.6c0.2,1,1.4,1.1,1.6,2c-0.2,1.8-0.9,3.6-2.1,4.9c-0.2,0.1-0.4,0-0.5-0.1
	c-0.7-1.3-1-2.8-1.8-4.1c-1.3-2.3-3.1-4.1-5.8-4.2c-2.6-0.1-5.1,1.4-6.3,3.7c-2.6,4.5-2.6,10,0,14.5c1.2,2.7,4.1,4.2,7,3.8
	c0.4-0.1,0.9-0.1,1.3,0c0.5,0.6,0.2,1.2-0.1,1.8c-0.4,0.5-0.9,0.9-0.7,1.7c-0.5,2.2-1.1,4.3-2,6.3c-0.5,0.7-2,0.2-1.9,1.7
	c-1.6,2.1-2.9,4.5-3.9,6.9c-0.1,0.1-0.2,0.2-0.4,0.3c-0.5,0.3-0.4,0.7-0.2,1.1c0,0.2,0,0.3,0,0.5c-0.6,1.8-0.9,3.8-1.7,5.6
	c-0.1,0.1-0.2,0.3-0.4,0.4c-1,0.5-0.2,1.1-0.1,1.7c0,0.2,0.1,0.4,0.1,0.6c-1.3,7-2.2,14.1-2.8,21.2c-0.2,2.8-0.1,5.6-0.8,8.4
	c-2.5,1.6-5.5,2.6-8.5,2.8c0-0.7-0.1-1.4-0.1-2.1c0-8.7-0.1-17.5,0-26.2c0-6.4,0.2-12.8,0.5-19.3c0.2-4.7,0.4-9.3,0.8-14
	c0.7-8.9,1.1-17.8,2.5-26.5C52.7,67.3,52.6,66.7,52.4,66z"/>
<path class="st0" d="M51,200.3c-0.2-2.1-0.4-4.2-0.5-6.3c-0.3-4.3-0.5-8.6-0.7-12.9s-0.5-8.5-0.4-12.7c0-1.4-0.5-2.7-0.2-4.1
	c2-2.2,4.7-3.3,7.3-4.5c0.4-0.2,0.9-0.1,1.1,0.3c0,0.1,0.1,0.1,0.1,0.2c0.4,2.2,0.1,4.4,0.2,6.7c0,1.4,0,2.8,0.2,4.2
	c0.1,1,0.1,1.9,0,2.9c-0.1,0.5-0.5,0.9-0.9,1.1c-0.7,0.1-1.8-0.1-0.8,1.2c0,0.8-0.4,1.6-1.1,2c-0.6,0.1-1.2-0.3-1.8-0.5
	c0.2,0.8,0.9,1.1,1.1,1.7s0.1,1.3,1,1.1c0.7,0.4,1.2,0.9,1.7,1.5c0.5,0.8,1.7,1,1.8,2.1c0.7,4,1.1,8.1,1.8,12.1
	c0.2,0.7,0.1,1.4-0.1,2c-0.1,0.2-0.2,0.4-0.3,0.4C57.2,199.6,54.2,200.6,51,200.3z"/>
<path class="st2" d="M51,200.3c2.6-0.7,5.3-1.1,8-1.4c0.5-0.1,1,0.1,1.4-0.4c0.1-0.1,0.4-0.1,0.5,0.1c0,0,0,0,0,0l0,0
	c0.6,1.5,0.9,3.1,0.9,4.8c-0.1,0.2-0.2,0.4-0.3,0.5c-2.5,0.8-5,1.7-7.5,2.5c-0.8,0.2-1.6,0.6-2.3,1.2c-0.1-0.1-0.2-0.2-0.2-0.3
	L51,200.3z"/>
<path class="st2" d="M57.2,159.9c-2.5,1.1-4.9,2.4-7.1,3.9c-0.3,0.3-0.6,0.4-1,0.5l-0.1-8.3c2.7-0.9,5.4-1.9,8.2-2.7l0.2,0.2
	c0.5,1.9,0.5,3.9,0.2,5.8C57.5,159.6,57.4,159.8,57.2,159.9z"/>
<path class="st2" d="M197.7,207.5c0.1,1.9-0.5,3.8-0.4,5.7c-3.3,0.5-6.6,0.7-9.9,0.7c-4.3,0-8.6,0.1-12.9-0.1
	c-3.6-0.2-7.3-0.4-11-0.9c-3.2-0.4-6.4-0.7-9.6-1.2c-3.7-0.6-7.4-1.1-11.1-1.7c-6.1-1-12.1-2.1-18.2-3.2c-4.7-0.8-9.4-1.7-14.2-2.5
	c-3.9-0.6-7.9-1.1-11.8-1.7c-4.3-0.5-8.5-0.9-12.8-1.2c-2.2-0.1-4.5-0.2-6.7-0.3l-0.2-0.2c-0.5-1.1-0.4-2.3,0.2-3.2
	c0.2-0.1,0.4-0.2,0.6-0.3c4.6-0.3,9.3-0.2,13.8,0.4c19.2,1.7,37.9,6,56.9,9.1c5.1,0.8,10.2,1.2,15.3,1.2c4.7,0.1,9.4,0,14.1,0
	c5.2,0,10.5-0.3,15.7-0.9C196.1,207.1,197,206.9,197.7,207.5z"/>
<path class="st1" d="M195.4,230.4c0.2,2.1,0.5,4.2,0.9,6.3c0.4,1.6,0.6,3.3,0.6,5c-0.1,1.4,0.5,2.7,0.4,4.1
	c-0.1,0.9-0.4,1.2-1.2,1.2c-3.9-0.2-7.8,0.3-11.8,0.5c-4.4,0.1-8.8,0.3-13.3,0.3l0,0c-0.6-1.5-0.1-3.2-0.4-4.8
	c-0.5-3.8-1.5-7.4-3-10.9c-0.2-0.5-0.9-1.2-0.2-1.8c4.3,0.1,8.7-0.2,13,0.1c3.2,0.3,6.4,0.3,9.6,0.1c1.3-0.7,2.6-0.4,4-0.2
	C194.6,230.3,195,230.4,195.4,230.4z"/>
<path class="st3" d="M58,228.2h-1.5c0.3-1.1,1.4-0.9,2.2-1c3.2-0.4,6.4-0.7,9.7-0.9c5.1-0.3,10.2-0.5,15.3-0.8
	c3.7-0.2,7.2-0.3,10.8-0.2c6,0,12-0.8,18-0.4c6.4,0.4,12.7,0.1,19.1,0.4c3.1,0.2,6.2,0.1,9.3,0.3c4.6,0.3,9.2,0.5,13.8,0.8
	c3.4,0.2,6.8,0.4,10.2,0.7c4,0.4,8,0.7,12.1,1.1c3.6,0.4,7.1,1,10.7,1.5c0.3,0,0.5,0.1,0.6,0.3c-1.8,1.1-3.8,0.5-5.6,0.4
	c-0.9,0-1.8-0.2-2.8-0.2c-11,0.1-21.9-0.7-32.9-0.8c-8.2-0.1-16.4-0.4-24.7-0.6c-15.6-0.4-31.2-0.2-46.8-0.4
	c-5.4-0.1-10.7,0-16.1-0.1C58.9,228.5,58.4,228.4,58,228.2z"/>
<path class="st4" d="M79.1,201.1c-0.6,1.7-0.4,3.4-0.7,5.2c-0.8,4.4-1.3,8.8-3,13c-0.4,1-0.9,1.9-1.6,2.7c-1.3,1.6-2.8,1.7-4.4,0.3
	c-1.1-1-2-2.2-2.7-3.6c-2-4-3.5-8.3-4.5-12.7c-0.1-0.8-0.4-1.6-0.8-2.3l0.1-0.1c0.1-0.1,0.3-0.3,0.4-0.3c5.3-1.7,10.6-3,16.2-2.7
	c0.3,0,0.6,0.1,0.8,0.3L79.1,201.1z"/>
<path class="st5" d="M58,228.2c18.3,0,36.5-0.2,54.8,0.1c7.6,0.1,15.2-0.1,22.9,0.4c6,0.4,12-0.1,18,0.4c4.8,0.4,9.6-0.1,14.4,0.4
	c4.5,0.4,9,0,13.5,0.4c2.3,0.2,4.6,0.3,6.9,0.3c0.6-0.1,1.3,0.1,1.8,0.4c-1,0.5-2.1,0.8-3.2,0.7c-2.1,0.1-4.1,0-6.1-0.2
	c-1.7-0.2-3.3-0.2-5-0.1c-2.9,0.1-5.7,0-8.6-0.3c-0.1,0.1-0.2,0.1-0.3,0.1c0,0,0,0,0,0l-0.1-0.1l-6-0.1c-0.2,0.2-0.5,0.2-0.7,0
	c-4.3-0.6-8.7-0.2-13-0.5c-3.2-0.2-6.3-0.2-9.5-0.3c-0.2,0.2-0.5,0.2-0.7,0c0,0,0,0,0,0l0,0c-7.1-0.5-14.2-0.1-21.3-0.5
	c-13.2-0.6-26.5,0-39.7-0.4c-5.5-0.2-11.1-0.1-16.6-0.3C58.8,228.5,58.3,228.6,58,228.2z"/>
<path class="st0" d="M198,66.4c0.1,4.7,0.7,9.3,0.9,14s0.5,9.4,0.8,14.2c0.2,3.4,0,6.9,0.3,10.3c0.6,6.5,0,13,0.4,19.4
	c0.4,5.8,0.2,11.5,0.2,17.2c-1,1.4-2.6,1.7-4,2.2c-4.9,1.5-9.9,2.5-15,3.2c-8.1,1.2-16.2,2.4-24.4,2.9c-4.4,0.4-8.9,0.3-13.3-0.1
	c-3.4-0.4-6.9-0.2-10.3-0.4c-4.2-0.2-8.5-0.4-12.7-0.6c-4.9-0.1-9.8-0.3-14.6-0.3c-8.2-0.1-16.5,0.1-24.7,0.8
	c-0.7,0.2-1.4,0.1-2-0.2c-1.1-1.9-0.6-4.1-0.8-6.2c-0.3-2.9-0.5-5.8-0.8-8.7c-0.2-0.7-0.1-1.5,0.1-2.2c0.4-0.6,0.8-0.5,1.3-0.2
	c0.5,0.4,0.7,1,0.6,1.6c0.6-0.1,0.9-0.7,1.6-0.8c4.7,1.4,9.4,3.2,13.9,5.2c0.3,1.4,1.2,0.8,2,0.5c2.3,0.5,4.6,1.3,6.8,2.2
	c0.5,0.9-0.3,2.1,0.4,3.1c1.2-0.4,1.2-1.9,2.4-2.3c1.7,0.3,3.4,0.4,4.8,1.5c0.7,1.1-0.4,2.3,0.3,3.5c1.3-0.7,1.6-2.2,2.6-3.1
	c0.8-0.4,1.7,0.3,2.6-0.2c-0.1-0.9-1.1-1.2-1.3-1.9c0.4-2.1,1.3-4.1,2.7-5.7c0.7-0.4,1.7-0.1,2.5-0.5c-0.2-0.9-1.4-1.1-1.5-2
	c0.4-2,1.2-3.9,2.3-5.6c0.5-0.5,1.4-0.2,1.8-0.7c0-0.7-0.8-0.9-0.9-1.6c0.2-1.9,0.9-3.7,2-5.2c0.8-0.6,1.8-0.2,2.7-0.6
	c-0.3-0.9-1.4-1.2-1.7-2c0-1.8,0.9-3.4,1.6-5.1c1-0.8,2.3,0.4,3.4-0.4c-0.3-1.3-2.1-1.4-2.3-2.8c0.4-1.8,0.9-3.5,1.6-5.1
	c1.1-1.1,2.6,0.3,3.9-0.4c-0.5-1.5-2.6-1.4-2.8-3c0.2-1.5,0.6-3,1.2-4.4c0.7-0.7,1.5-0.2,2.3-0.1c1,0.3,2,0.4,3,0.1
	c-1-1.8-3.3-2-4.3-3.7c-0.4-0.8,0.1-1.7-0.5-2.5c-0.9,0.1-1.1,1.2-1.9,1.4c-2.2-0.5-4.2-1.5-5.8-3c-0.3-0.7,0-1.4-0.4-2.2
	c-0.9,0.1-1.1,1.2-2,1.3c-2-0.3-4-1.1-5.7-2.4c-0.6-1.7-0.6-1.7-2.3-0.8c-1.8-0.6-3.9-0.8-5.3-2.2c-0.4-0.7,0-1.6-0.4-2.3
	c-1.1,0.2-1.2,1.3-2.1,1.6c-1.9-0.2-3.7-0.8-5.2-2c-0.3-1.1,0.4-2.2-0.2-3.3c-1.2,0.5-1.4,2-2.5,2.6c-1.9-0.1-3.8-0.6-5.5-1.5
	c-0.8-1-0.1-2-0.1-3.1c0-0.4,0.1-0.8-0.3-1s-0.7,0.3-0.9,0.6c-0.7,0.9-1,2.2-2.2,2.7c-1.6-0.2-3.2-0.3-4.6-1.4c-0.2-2,0.2-4,1.1-5.8
	c0.6-0.3,1.2-0.4,1.8-0.3c2.8,0.5,5.8,0.1,8.6,0.4c4.7,0.5,9.5,0.2,14.2,0.3c2.8,0,5.6,0,8.4,0.3c3.1,0.4,6.2-0.4,9.4-0.3
	c9.7,0.3,19.4-0.3,29-0.8c7.8-0.4,15.7-1,23.5-1.8c0.3,0,0.6-0.1,0.9-0.2c1.2-0.2,2.3-0.2,3.5-0.2c2-0.2,4,0.6,6.1,0.2L198,66.4z"/>
<path class="st5" d="M186,66.7h-3.4c-5.9,0.6-11.8,0.8-17.7,1c-19.2,0.7-38.5,0.4-57.8,0.3c-11.7-0.1-23.5-0.3-35.2-0.8
	c-4.6-0.2-9.2-0.1-13.6-1c-0.4-0.1-0.8,0-1.1,0.1L56.2,66c0.4-0.9,1.2-0.7,1.9-0.7h13.1c21,0.6,42.1,0.3,63.2,0.4
	c3.8,0,7.5,0.2,11.2-0.1c5.3-0.4,10.6,0,15.9-0.4c3.9-0.3,7.8,0,11.6-0.3c5.1-0.5,10.2,0,15.3-0.4c2.2-0.2,4.4,0.3,6.6,0.3
	c-1.5,1-3.3,0.9-4.9,1.3C188.9,67,187.4,66.2,186,66.7z"/>
<path class="st6" d="M124.8,65.2c-0.5-1.9,1.2-17.7,2-19.5C128.6,48.4,127.3,61.3,124.8,65.2z"/>
<path class="st7" d="M132.6,64.4c-0.5-2.9,1.6-16.9,2.7-18.5C136.7,48.8,134.9,61.7,132.6,64.4z"/>
<path class="st6" d="M100.8,46c1.1,6.2,1.4,12.5,1,18.7C99.8,62.6,99,49.3,100.8,46z"/>
<path class="st7" d="M94.6,64.9c-2.3-2.6-3.3-14.6-1.6-18.6c0.5,0.4,0.7,1,0.7,1.6c0,1.1,0.3,2.2,0.3,3.3c0,4.2,0.9,8.3,0.8,12.5
	C94.8,64.1,95,64.6,94.6,64.9z"/>
<path class="st7" d="M156.7,46.7c1.5,2.9-1.6,14.8-4.5,17.5c-0.4-0.2-0.3-0.6-0.2-1C152.9,58.3,155.9,47.9,156.7,46.7z"/>
<path class="st6" d="M108.3,64.6c-1.4-5.8-1.9-11.6-0.3-17.5c0.7,2.8,1.1,5.7,1,8.7C109.1,58.7,109.5,61.8,108.3,64.6z"/>
<path class="st7" d="M118.8,64.3c0.2-3.3-0.2-6.4,0.3-9.5c0.2-2.5,0.6-4.9,1.2-7.3c0.1-0.2,0.1-0.5,0.2-0.7c0.1-0.3,0.4-0.5,0.7-0.5
	c0.4,0.1,0.3,0.3,0.3,0.6c0.1,2.1,0,4.1-0.2,6.2c-0.3,1.6-0.3,3.3-0.5,5s-0.5,3.3-0.8,5C119.8,63.6,119.4,64.1,118.8,64.3z"/>
<path class="st7" d="M86.5,64.9C84,61.5,83,50.7,84.7,46.6c0.5,0.4,0.7,1,0.7,1.7c-0.1,1.9,0.4,3.7,0.5,5.6s0.4,4.1,0.6,6.1
	C86.6,61.6,86.6,63.2,86.5,64.9z"/>
<path class="st7" d="M113.8,64.2c-0.4-0.8-0.6-1.7-0.6-2.6c0-3.1,0-6.2,0-9.3c0.1-1.8,0.3-3.6,0.7-5.3c0.1-0.3,0-0.7,0.5-0.7
	s0.6,0.4,0.7,0.8c0,0.3,0,0.6,0,0.9c0,3.4,0.1,6.8-0.1,10.1c0,1.8-0.2,3.6-0.7,5.3C114.2,63.7,114.2,64,113.8,64.2z"/>
<path class="st6" d="M163.5,51c-0.1,4.3-1.2,8.5-3,12.4c-0.1,0.2-0.2,0.5-0.3,0.7s-0.4,0.8-0.8,0.6s-0.4-0.6-0.3-0.9
	c0.2-0.6,0.2-1.2,0.4-1.8c1-4,1.8-8,2.7-12c0.1-0.4,0.2-0.8,0.3-1.3s0.3-0.6,0.7-0.5s0.3,0.3,0.3,0.6
	C163.5,49.5,163.5,50.2,163.5,51z"/>
<path class="st7" d="M51.6,47.6c0.7,0.3,1.1,0.9,1.1,1.6c0.7,4.8,1.9,9.6,3.5,14.2c0.1,0.2,0.2,0.5,0.2,0.7c0,0.2,0,0.4-0.2,0.5
	c-0.2,0.1-0.5,0.1-0.6-0.2l0,0c-0.2-0.3-0.4-0.6-0.6-0.9c-2.1-3.3-3.3-7.1-3.4-11.1C51.6,50.9,51.6,49.4,51.6,47.6z"/>
<path class="st6" d="M149.3,46.7c1.6,2.9-0.5,13.7-3.1,16.5c-0.3-0.5-0.4-1.1-0.2-1.6C147,56.7,147.6,51.6,149.3,46.7z"/>
<path class="st7" d="M139.2,63.4c0.7-5.7,1.7-11.3,3.1-16.9C144.1,49.2,142,61.1,139.2,63.4z"/>
<path class="st7" d="M57.4,47.7c0.1,0.2,0.2,0.3,0.3,0.5c0.1,0.3,0.2,0.7,0.3,1c0.8,4.9,1.9,9.8,3.4,14.6c0,0.2,0,0.4-0.2,0.5
	C58.2,62.1,56,53.8,57.4,47.7z"/>
<path class="st7" d="M185.3,47.9c0.1,1.1,0.1,2.3,0,3.4c-0.6,3.2-1.1,6.4-2.3,9.4c-0.5,1.2-1.2,2.2-2.1,3c-0.2,0.2-0.4,0.3-0.6,0
	c-0.1-0.1-0.1-0.3-0.1-0.5c0.2-0.6,0.4-1.2,0.7-1.7c0.9-2.3,1.2-4.8,1.8-7.2c0.4-1.3,0.7-2.6,1.1-3.9
	C184,49.4,184.6,48.6,185.3,47.9z"/>
<path class="st6" d="M65.9,64.1c-1.4-1.8-1.7-3.7-2.2-5.7c-0.7-3-1-6-0.8-9v-0.9c0-0.3,0.2-0.6,0.5-0.6c0,0,0,0,0,0
	c0.4,0,0.4,0.3,0.5,0.5c0.3,1.1,0.6,2.2,0.8,3.3c0.4,3.5,0.9,7,1.5,10.5C66.4,62.8,66.3,63.5,65.9,64.1z"/>
<path class="st6" d="M78.9,64.8c-1.3-1.4-1.3-3-1.6-4.4c-0.6-2.9-0.9-5.8-0.9-8.7c0.1-0.9,0.2-1.9,0.5-2.8c0.1-0.2,0.2-0.3,0.4-0.4
	c0.3-0.1,0.5,0.1,0.5,0.4c0.2,0.6,0.4,1.3,0.5,2c0,1.1,0.2,2.2,0.2,3.3C78.7,57.7,79.4,61.1,78.9,64.8z"/>
<path class="st6" d="M69.3,51.9c-0.1-1.1,0-2.3,0.5-3.3c0.1-0.2,0.2-0.3,0.4-0.3c0.3,0,0.5,0.2,0.5,0.4l0,0c0.2,0.6,0.3,1.3,0.4,2
	c0,1.7,0.4,3.3,0.5,5c0.1,2.2,0.3,4.3,0.6,6.4c0.1,0.4,0.1,0.7,0,1.1c0,0.3-0.2,0.6-0.5,0.6c0,0,0,0,0,0c-0.4,0-0.4-0.3-0.5-0.5
	c-0.8-2.1-1.3-4.3-1.5-6.5C69.6,55.2,69.1,53.6,69.3,51.9z"/>
<path class="st6" d="M169,48.2c1.7,3.3,0,12.2-2.7,15c-0.5-2.7,0.7-5.1,1.1-7.5C167.6,53.2,168.2,50.6,169,48.2z"/>
<path class="st7" d="M177.1,49.9c0.5,1.5,0.6,3.1,0.3,4.7c-0.4,3.4-1.7,6.6-3.7,9.2c-0.2,0.3-0.5,0.7-0.9,0.4
	c-0.3-0.2-0.2-0.6-0.1-0.9s0.2-0.8,0.4-1.3c1.4-3.6,2.5-7.3,3.4-11.1C176.4,50.6,176.7,50.2,177.1,49.9z"/>
<path class="st6" d="M192,52.4c0.1,3.5-1.4,6.5-3.4,9.3c-0.2,0.2-0.4,0.5-0.7,0.7c-0.2,0.2-0.6,0.3-0.9,0.2c-0.4-0.2-0.3-0.6-0.1-1
	c0.5-1.3,1.2-2.5,1.7-3.7c0.9-2.4,1.7-4.8,2.2-7.3c0.1-0.4,0.2-0.8,0.6-0.7c0.3,0.1,0.4,0.4,0.4,0.8C192.1,51.1,192,51.8,192,52.4z"
	/>
<path class="st6" d="M196.4,49.2c0.5,0.1,0.8,0.6,0.8,1.1c0.3,3.9-0.2,7.7-2.5,11c-0.2,0.3-0.4,0.5-0.6,0.7
	c-0.2,0.1-0.4,0.1-0.5,0.1c-0.3-0.1-0.3-0.3-0.2-0.6c0.1-0.5,0.2-1.1,0.4-1.6c1-2.9,1.7-6,2.1-9.1C195.9,50.3,196.1,49.7,196.4,49.2
	z"/>
<path class="st8" d="M186,66.7c1.3-0.6,2.7-0.4,4.1-0.7c0.5,0.6,1.2,0.2,1.9,0.3c-0.4,0.5-1,0.4-1.6,0.4
	C189,66.8,187.5,66.7,186,66.7z"/>
<path class="st0" d="M197.7,207.5c-3.7,0.4-7.4,0.8-11.1,1.1c-2.1,0.2-4.1,0.1-6.2,0.1c-6,0-12,0.1-18-0.1
	c-4.9-0.2-9.7-0.7-14.5-1.6c-5.5-1-11-1.9-16.6-2.9c-3.7-0.6-7.2-1.3-10.8-2c-4.5-0.8-9-1.5-13.5-2.1c-3.5-0.5-7-1.1-10.5-1.4
	l-5.4-0.5c-3.9-0.4-7.7-0.3-11.6-0.4c-1-1.3-0.7-2.7-0.5-4.1c0.2-2.1,0.3-4.1,0.4-6.2c0-0.2,0-0.4,0.1-0.6c1.7-2.7,3.6-5.2,5.7-7.6
	c0.9,0,0.7-0.5,0.5-1.1c0.1-0.9,0.7-1.7,1.5-2c1.6,0.2,0.2-0.6,0.4-1c0-0.7-0.4-0.9-1-1c-0.7-0.4-1.3-1-1.7-1.6
	c-0.1-0.2-0.2-0.5-0.1-0.7c0.1-0.5,0.3-0.9-0.4-0.3c-0.2,0.1-0.5,0.1-0.7,0c-0.7-0.3-1.3-0.9-1.8-1.5c-0.2-0.5-0.6-0.8-1.1-0.9
	c-0.4-0.1-0.7-0.4-0.8-0.8c-0.1-0.2-0.1-0.4-0.2-0.6c0.1-4.3-0.5-8.6-0.5-12.9c-0.2-0.9,0-1.9,0.5-2.8c1.3-0.6,2.7-0.9,4.2-0.9
	c4.2-0.3,8.3-0.6,12.6-0.5s8.5,0,12.8,0c8.9,0.1,17.7,0.7,26.6,1c9.9,0.4,19.9,0.8,29.8,0.4c10.9-0.3,21.7-1.7,32.3-4.2
	c0.7-0.4,1.6-0.3,2.4,0.1c0,4.4,0.2,8.9-0.1,13.3c-0.2,3.6,0,7.1-0.4,10.6c-0.2,2.9-0.1,5.9-0.4,8.8c-0.3,4.4-0.5,8.8-0.8,13.2
	c-0.2,3.5-0.5,7.1-0.7,10.6C197.9,205.6,197.7,206.5,197.7,207.5z"/>
<path class="st2" d="M200.3,148.2c-3.1,0.7-6.2,1.4-9.3,2c-3.9,0.8-7.8,1.4-11.8,1.8c-3.7,0.4-7.3,0.5-11,0.8
	c-7.5,0.6-15,0.3-22.5,0.2c-3.2,0-6.3-0.1-9.5-0.3c-3.5-0.4-7.1,0-10.6-0.6c-1.1-0.1-2.2-0.1-3.4-0.1c-10.8-0.6-21.6-0.5-32.4-0.3
	c-3.3,0-6.7,0.5-10.1,0.8l-0.2-0.2c-0.3-1-0.5-2-0.5-3c0.1-0.2,0.2-0.3,0.4-0.4c4-0.3,7.9-0.7,11.9-0.9c1.9-0.1,3.9-0.1,5.8-0.1
	c6.1,0,12.3-0.2,18.4,0.1c4,0.2,8-0.1,11.9,0.6c0.9,0.1,1.7,0.1,2.6,0c4.4,0.1,8.7,0.3,13.1,0.5c2.9,0.1,5.9,0.2,8.8,0.3
	c4.7,0,9.4-0.3,14-1c3.5-0.4,7.1-0.8,10.6-1.3c4.5-0.6,9-1.2,13.4-2.3c1.9-0.5,3.9-1,5.8-1.4c1.7-0.5,3.3-1.1,4.9-1.8
	C200.7,143.7,200.1,145.9,200.3,148.2z"/>
<path class="st7" d="M59.7,230.7c-1.6,6-2.9,12.1-4.2,18.5C53.5,245.2,56.3,232.8,59.7,230.7z"/>
<path class="st7" d="M60.8,248.6c-0.3-0.1-0.5-0.3-0.5-0.6c-0.1-2.2,0-4.3,0.2-6.5c0.3-2.1,0.8-4.1,1.3-6.2c0.4-1.3,0.8-2.6,1.4-3.9
	c0.1-0.4,0.3-1,0.8-0.8s0.4,0.8,0.3,1.3c-0.5,2.6-1,5.2-1.5,7.8c-0.5,2.4-1,4.7-1.4,7.1C61.3,247.5,61.1,248,60.8,248.6z"/>
<path class="st6" d="M116.4,248.7c-2.1-3.2-1.6-14.5,0.7-18.4c0.6,0.6,0.8,1.6,0.6,2.4c-0.1,0.5-0.2,1-0.3,1.4
	c0.2,3.8-0.5,7.6-0.4,11.4C116.9,246.6,116.8,247.6,116.4,248.7z"/>
<path class="st6" d="M69.9,230.7c-0.2,5.9-0.8,11.7-1.8,17.5C66.1,244.9,67.3,233.3,69.9,230.7z"/>
<path class="st7" d="M136.9,229.7h0.8c1.4,3,2.1,6.2,2.2,9.5c0.1,1.9,0,3.9,0,5.8c0,1-0.2,1.9-0.7,2.7c-0.5-1-0.7-2.1-0.8-3.3
	c-0.2-3.3-0.6-6.6-1-10C137,232.9,136.9,231.3,136.9,229.7z"/>
<path class="st6" d="M76.6,230.3c0.3,1.2,0.3,2.4,0.2,3.6c-0.5,3.4-0.9,6.9-1.1,10.3c-0.1,0.9-0.2,1.8-0.4,2.8
	c0,0.3-0.3,0.6-0.6,0.6c-0.3,0-0.4-0.3-0.4-0.5c-0.5-2.3-0.5-4.7-0.2-7c0.2-2,0.5-3.9,0.9-5.9C75.2,232.8,75.7,231.4,76.6,230.3z"/>
<path class="st7" d="M166.9,230.5c0.1,0,0.2,0,0.4,0c1.6,2.1,2.2,4.7,3,7.2c0.6,2.2,0.7,4.5,1.1,6.7c0.2,1.1-0.3,2.2-0.4,3.3
	c-1.2-0.8-1.1-2.2-1.4-3.3c-0.7-3.5-1.5-7-2.4-10.5C167,232.8,166.9,231.6,166.9,230.5z"/>
<path class="st6" d="M82.7,230.8c0.1,2,0.1,4.1-0.1,6.1c-0.2,1.8-0.4,3.7-0.4,5.6c-0.1,1.6-0.5,3.1-0.5,4.6c0,0.3-0.1,0.7-0.5,0.7
	s-0.6-0.4-0.6-0.8c-0.4-2.7-0.5-5.4-0.1-8.1c0.3-1.9,0.4-3.8,0.9-5.7C81.4,232.3,81.9,231.4,82.7,230.8z"/>
<path class="st6" d="M94.4,230.6c1.3,3.5,0.8,13.7-0.8,16.9c-0.5-0.4-0.8-1.1-0.7-1.8c-0.1-4.6,0.1-9.2,0.8-13.8
	C93.7,231.4,94,230.9,94.4,230.6z"/>
<path class="st6" d="M109.9,230.5c0.5,1.9-0.3,13.7-1,17C106.8,245.5,107.3,234.2,109.9,230.5z"/>
<path class="st6" d="M131.9,241.2c0.1,2,0,4-0.4,5.9c0,0.3-0.2,0.7-0.5,0.7s-0.5-0.3-0.5-0.7c-0.1-1.1-0.4-2.1-0.3-3.1
	c0.1-4-0.7-8-0.5-12v-0.6c0-0.2,0.1-0.5,0.4-0.5c0.2,0,0.4,0.1,0.4,0.3c0.2,0.5,0.4,1,0.6,1.6C131.8,235.6,132.1,238.4,131.9,241.2z
	"/>
<path class="st7" d="M160.1,230.4h0.7c0.8,2,1.5,4,2,6c0.6,3.1,0.8,6.2,0.6,9.3c0,0.7-0.3,1.3-0.7,1.8c-0.5-0.5-0.8-1.1-0.7-1.8
	c-0.2-2.2-0.5-4.4-0.8-6.7s-0.5-4.2-0.9-6.3C160.2,232,160.2,231.2,160.1,230.4z"/>
<path class="st6" d="M147,247.2c-0.5-1-0.7-2.1-0.8-3.2c0-1.2-0.2-2.4-0.3-3.5c-0.2-2.6-0.5-5.2-0.8-7.8c-0.2-0.7-0.1-1.4,0.2-2
	C147.9,233.1,149.1,244.1,147,247.2z"/>
<path class="st6" d="M87.7,247.8c-1.6-4.2-0.7-15.2,1.1-17.1c0.4,2.9,0.4,5.8,0.2,8.6C88.5,242,89.1,244.9,87.7,247.8z"/>
<path class="st9" d="M124.1,231c1,5.7,1.1,11.6,0.2,17.3c-0.6-0.2-0.9-0.8-0.9-1.4c0-0.6-0.1-1.2-0.2-1.8c-0.3-4.2-0.3-8.5-0.1-12.7
	c0.1-0.5,0.3-0.9,0.5-1.4L124.1,231z"/>
<path class="st9" d="M101.3,247.3c-0.6-0.7-0.9-1.6-0.8-2.5c0-2.4-0.1-4.9,0-7.3c0.2-2.2,0.6-4.3,1.2-6.4c0-0.3,0.3-0.5,0.6-0.5l0,0
	c0.3,0.1,0.3,0.4,0.3,0.6c-0.1,1.8,0.2,3.6-0.2,5.4c-0.1,0.4-0.2,0.9-0.1,1.3c0.2,2.5-0.4,4.9-0.4,7.4
	C101.9,246,101.6,246.7,101.3,247.3z"/>
<path class="st7" d="M155.3,241.1c0.1,1.8,0,3.5-0.4,5.3c-0.1,0.4-0.2,0.8-0.6,0.7c-0.3-0.1-0.5-0.4-0.4-0.7c0-1.4-0.3-2.9-0.4-4.3
	c-0.2-3.2-0.6-6.3-1.1-9.4c0-0.2,0-0.5,0-0.7c0-0.3,0.1-0.5,0.4-0.5c0.2,0,0.4,0.1,0.5,0.2c0.4,0.6,0.7,1.2,0.9,1.8
	C154.8,236.1,155.5,238.8,155.3,241.1z"/>
<path class="st4" d="M78.3,131.7c0.1,2.7,0.3,5.4,0.7,8.1c0.3,3,0.3,6.1,0.5,9.1l-0.1,0.1c-1.1,0.6-2.2,0.8-3.4,0.9
	c-5.7,0.8-11.3,2-16.9,3.5c-0.6,0.3-1.2,0.3-1.8,0.2l-0.1-0.1c0.1-2.7,0.3-5.5,0.5-8.2c0.4-5.7,1-11.5,2.1-17.1
	c0.3-1.6,0.6-3.3,0.9-4.9c1.5,0.1,2.9,0.9,3.7,2.2c0.3,0.8-0.1,1.7,0.4,2.5c0.9-0.2,1.1-1.3,1.9-1.5c2,0.4,3.9,1.2,5.4,2.5
	c0.2,1,0.8,0.9,1.4,0.5c1.5,0.4,3,1,4.5,1.7C78.2,131.2,78.4,131.4,78.3,131.7z"/>
<path class="st10" d="M85.8,74.6l4.6,1.1c1.2-0.5,2.5-0.2,3.4,0.8c1.9,0.4,3.7,1.3,5.6,1.5c1-0.2,2,0.1,2.7,0.8
	c1.7,0.8,3.4,1.4,5.2,1.8c0.9-0.2,1.9,0.1,2.6,0.8c0.8,0.6,1.8,1,2.7,1.2l2.6,1c1-0.5,1.6,0.2,2.3,0.8c1.8,0.9,3.7,1.7,5.6,2.4
	c1,0,1.9,0.4,2.6,1.1c1.8,1.1,3.7,2.1,5.6,2.9c1-0.1,2,0.4,2.6,1.2c0.6,0.9,1.8,1.1,2.6,1.8c0.4,0.4,1,0.7,1.5,1s0.9,0.8,0.6,1.4
	s-0.8,0.2-1.2,0.3c-1.6,0.1-3-0.6-4.6-0.7c-1.4,0.4-2.6-0.5-3.9-0.7c-1.6-0.4-3-1-4.6-1.4c-1.3-0.3-2.5-0.8-3.8-1.2
	c-1.5-0.5-3-1-4.5-1.6s-2.8-1-4.2-1.5c-1.2-0.4-2.4-0.8-3.7-1.3s-2.7-0.9-4.1-1.5s-2.6-0.8-3.9-1.4s-2.8-1-4.1-1.6s-2.7-1-4.1-1.6
	s-2.8-1.1-4.2-1.7c-1-0.4-2-1-3.2-1.3c-1.5-0.9-3.2-1.2-4.4-2.5l-1.8-1.3c-0.4-0.2-0.5-0.6-0.4-1c0.1-0.3,0.5-0.4,0.8-0.4H82
	C83.3,73.3,84.8,73.6,85.8,74.6z"/>
<path class="st10" d="M126.3,117c0.6,0.4,1.1,0.8,1.6,1.2c0.3,0.2,0.5,0.6,0.4,1c-0.1,0.4-0.5,0.5-0.9,0.5h-2.2c-2.1,0.3-4-0.7-6-1
	c-0.6-0.2-1.3-0.3-1.9-0.5c-1.9-0.7-4-1.2-5.9-1.8c-1-0.4-2.1-0.7-3.2-1.1c-1.8-0.6-3.7-1.4-5.5-1.9c-0.9-0.3-1.8-0.8-2.8-1.1
	c-1.8-0.7-3.8-1.4-5.6-2.1c-0.7-0.2-1.3-0.6-2-0.8c-1.8-0.7-3.7-1.6-5.5-2.3c-0.7-0.4-1.4-0.7-2.2-0.9c-1.8-1-3.7-1.7-5.6-2.6
	c-0.8-0.4-1.6-0.8-2.3-1.2c-1.2-0.8-2.6-1.5-3.9-2.2c-0.7-0.4-1.3-1-1.6-1.8c-0.4-0.8-0.1-1.1,0.7-1.2c2-1.1,3.9,0,5.9,0.3
	c1,0.3,1.9,0.5,2.9,0.8c2,0.6,4,1.2,6,1.8c0.8,0.3,1.6,0.6,2.4,0.8c1.9,0.7,3.9,1.3,5.8,1.9c0.7,0.2,1.3,0.6,2,0.8
	c1.8,0.6,3.6,1.4,5.4,2c0.9,0.4,1.8,0.7,2.7,1.1c1.8,0.8,3.7,1.5,5.5,2.2c0.9,0.4,1.8,0.8,2.7,1.2c1.9,0.8,3.7,1.7,5.6,2.6
	c0.6,0.3,1.3,0.5,2,0.8C122.7,114.6,124.9,115.1,126.3,117z"/>
<path class="st10" d="M123.3,124.9c0.4,0.6,1.7,0.9,1.4,1.8c-0.3,1-1.5,0.4-2.3,0.5c-0.1,0-0.1,0-0.2,0c-2.1,0.7-4-0.3-5.9-0.7
	c-0.7-0.2-1.3-0.3-2-0.5c-1.9-0.5-3.9-1-5.8-1.7c-1.1-0.2-2.2-0.6-3.3-1c-1.8-0.7-3.7-1.2-5.6-1.8c-1-0.4-2.1-0.7-3.1-1.1
	c-1.7-0.7-3.4-1.3-5.1-1.9c-0.8-0.3-1.7-0.7-2.5-1c-1.7-0.6-3.3-1.4-5-2c-0.9-0.4-1.8-0.8-2.7-1.2c-1.7-0.9-3.6-1.5-5.3-2.4
	c-0.8-0.4-1.5-0.8-2.3-1.2c-0.2-0.1-0.3-0.2-0.4-0.3c-0.1-0.1-0.2-0.3-0.3-0.4c-0.2-0.7-0.6-1.3-1-1.8c-1.2-1.8-2-2-4.1-1.4
	c-0.2,0-0.4,0-0.5-0.2c-0.4-0.7-0.4-1.3,0.5-1.4c0.4,0,0.8-0.1,1.3-0.1c2-0.5,3.8,0.3,5.6,0.7c0.9,0.3,1.8,0.6,2.7,0.8
	c1.9,0.6,3.8,1,5.7,1.8c0.9,0.3,1.8,0.6,2.6,0.9c1.8,0.7,3.7,1.2,5.5,1.8c0.7,0.3,1.4,0.5,2.1,0.7c1.8,0.8,3.7,1.3,5.4,2
	c1,0.4,2,0.9,3,1.2c1.9,0.7,3.7,1.4,5.6,2.2c1.1,0.4,2.1,0.9,3.2,1.4c1.8,0.8,3.7,1.5,5.4,2.4c0.6,0.3,1.3,0.5,2,0.8
	C119.9,122.7,122,123.2,123.3,124.9z"/>
<path class="st4" d="M72.3,95.3c-4.6,1.2-6.9-0.5-8.6-3.5c-3-5.3-3.1-10.8,0.4-16c3.2-4.6,8.6-4.5,11.8,0.1c1.2,1.5,1.9,3.4,2,5.3
	c0,0.1-0.1,0.2-0.1,0.2c-0.9,0.5-0.7,1.2-0.4,1.9c-0.6,2-1.3,3.9-2.3,5.8c-0.8,0.4-1.6,0.9-1,2c-0.1,1.3-0.5,2.5-1.1,3.7
	C72.9,95.2,72.6,95.4,72.3,95.3z"/>
<path class="st3" d="M57.3,66.3c0.4-0.4,0.9-0.5,1.4-0.3c2.8,0.6,5.6,0.1,8.4,0.4c5.2,0.4,10.4,0.1,15.5,0.4
	c6.2,0.5,12.5,0,18.7,0.3c18.4,0.8,36.8,0.3,55.1,0.3c6.9,0,13.9-0.1,20.8-0.3c1.8-0.1,3.6-0.3,5.4-0.3c-0.2,0.1-0.4,0.3-0.6,0.3
	c-3.4,0-6.8,0.7-10.2,0.9c-3.7,0.2-7.4,0.5-11.2,0.8c-2.2,0.2-4.4,0.1-6.5,0.3c-3.1,0.4-6.2,0.1-9.3,0.4c-5.9,0.6-11.9,0.2-17.8,0.3
	c-1.8,0-3.6,0.5-5.4,0.4c-7.2-0.6-14.5-0.1-21.7-0.4c-3-0.1-6.1-0.2-9.1-0.3C89.4,69.1,88,69,86.7,69c-0.7-0.3-1.3,0.2-1.9,0
	c-4.4-0.6-8.8-0.6-13.2-1c-3-0.3-6-0.7-9.1-0.9C60.7,66.9,59,66.7,57.3,66.3z"/>
<path class="st11" d="M71.9,129.1c-1.6-1.3-3.6-1.6-5.3-2.6c-1.1,0.2-1.8-0.4-2.6-1.1c-0.9-1-2.2-1.5-3.3-2.2c0-0.1-0.1-0.2-0.1-0.3
	c-0.2-0.5,0-1.1,0.4-1.5h0c1.2-0.9,2.4-0.1,3.6-0.1c1.3,0.3,2.7,0.7,4,1c1.4,0.3,2.8,0.7,4.2,1.1c1.5,0.3,3,0.9,4.4,1.6
	c0.2,0.1,0.3,0.3,0.4,0.5c0.4,2,1.3,3.9,0.3,6c-1.6-0.5-3.1-1.1-4.5-1.8C72.8,129.9,72.3,129.5,71.9,129.1z"/>
<path class="st11" d="M62.9,115.2c0-0.1,0-0.2-0.1-0.3c-0.2-0.5,0.1-0.8,0.4-1.2l0,0c1-0.6,2.3-0.6,3.4-0.2c1.6,0.3,3.3,0.7,4.9,1.2
	c1.2,0.5,2.5,0.7,3.8,0.5c0.3,0.3,0.6,0.7,0.7,1.2c0.3,1.3,0.6,2.6,0.8,3.8c0.1,0.4,0.1,0.7,0.2,1.1c0,0.3-0.1,0.6-0.3,0.8
	c-1.3,0.5-2.4-0.4-3.5-0.8c-1.2-0.7-2.4-1.2-3.7-1.7c-1.5-0.6-2.7-1.5-4.2-2.2C64.6,116.7,63.4,116.3,62.9,115.2z"/>
<path class="st12" d="M74.9,106.2l-5.7-1.2c0.4-1.6,0.8-3.1,1.4-4.6c0.2-0.7,0.4-1.4,0.6-2.1c1.7,1.5,3.8,2.3,5.6,3.7
	C76.5,103.5,76.4,105.1,74.9,106.2z"/>
<path class="st13" d="M72.3,95.3l0.4-0.4c0.9-1,2-1.8,3.1-2.6c1.5,0,2.9,0.8,3.8,2c-0.2,1.3-0.3,2.7-1.6,3.5c-2-0.3-4-0.9-6.1-0.8
	C72,96.5,72.2,95.9,72.3,95.3z"/>
<path class="st13" d="M80.2,76.5c1.6,0.6,3,1.3,4.4,2.2c0,1.4-0.4,2.8-1.1,4c-1.7,0.1-3.5-0.2-5.1-0.7c-0.2-0.1-0.2-0.4-0.2-0.6
	C78.8,79.7,79.9,78.2,80.2,76.5z"/>
<path class="st14" d="M62.9,115.2l2.7,1.8c0.7,1.7,0,3.1-0.8,4.5c-1.3,0.2-2.4-0.6-3.7-0.3C61.6,119.1,62.2,117.1,62.9,115.2z"/>
<path class="st14" d="M66.6,114c-1.1-0.6-2.2-0.3-3.4-0.4c1.1-2.6,2-5.2,4.2-7.1h0.3c0.4,0.1,0.7,0.5,0.7,0.9
	C68.3,109.7,67.7,111.9,66.6,114z"/>
<path class="st15" d="M84.7,69c0.2-0.2,0.5-0.4,0.7-0.5c0.7-0.4,1-0.2,1.2,0.5c0.2,1.9-0.7,3.7-0.8,5.6L82,73.9
	C82.6,72.1,83.9,70.7,84.7,69z"/>
<path class="st16" d="M61,121.2c0,0.5-0.1,1-0.4,1.5c-0.4-0.2-0.8-0.6-0.6-1.1S60.7,121.2,61,121.2z"/>
<path class="st17" d="M63.2,113.7c0,0.4-0.2,0.8-0.4,1.2c-0.3-0.2-0.7-0.4-0.5-0.8S62.9,113.7,63.2,113.7z"/>
<path class="st18" d="M78.3,81.3l0.1,0.4l-0.2,0.1c-0.2-0.1-0.2-0.2-0.2-0.4v-0.1C78,81.3,78.1,81.4,78.3,81.3z"/>
<path class="st4" d="M79.8,152.4c0.1,2.7-0.1,5.5,0.2,8.2c0.1,2.6,0.1,5.2,0,7.8c-0.1,0.1-0.3,0.2-0.4,0.1c-0.4-0.2-0.7-0.5-0.8-0.9
	c-0.1-0.7-0.7-0.5-1.1-0.6c-0.7-0.3-1.3-0.8-1.7-1.5c0-1-0.6-0.8-1.2-0.7c-0.8-0.2-1.5-0.6-2-1.2c0.3-1.4-0.6-1.3-1.5-1
	c-0.6-0.1-1.1-0.6-1.3-1.2c-0.2-0.5,0.2-0.9,0.1-1.4c-0.6,0.1-0.9,0.8-1.6,0.8c-0.8-0.1-1,0.4-1,1c-0.3,0.7-0.8,1.3-1.6,1.6
	c-0.6,0.1-1.1,0.3-1.1,1c-0.2,0.9-0.7,1.6-1.5,2c-0.4,0.1-0.7,0.3-0.7,0.8c-0.2,0.7-0.6,1.3-1.2,1.7c-0.6,0.2-1.3,0.4-0.9,1.3
	c-0.8,2-1.5,2.3-2.8,1.2c-0.4-0.6-0.5-1.4-0.4-2.1c0-3.1,0-6.3-0.1-9.4l0.1-0.1c0.4-0.6,0.9-1,1.5-1.3c4.6-2.3,9.5-4.2,14.5-5.6
	c2.1-0.7,4.2-0.9,6.4-0.6L79.8,152.4z"/>
<path class="st4" d="M79.8,186.9c0.2,2.9-0.3,5.7-0.4,8.6c0,0.8,0,1.5,0.1,2.2h-0.4c-1.8,0.4-3.5,0.6-5.3,0.6
	c-3.6,0-7.2,0.2-10.7,0.7c-0.8,0.2-1.6,0.1-2.3-0.4h-0.4c-0.1-2.4-0.7-4.8-1-7.1s-0.6-5-0.9-7.5c0.9-0.2,1.2,0.5,1.6,1
	c-0.4,1.1,0.6,0.2,0.7,0.5c0.7,0.3,1.3,0.7,1.8,1.2c0.3,0.3,0.6,0.5,0.9,0.7c0.8,0.5,1.5,1,2.1,1.6c0.2,0.4,0.7,0.7,1.1,0.8
	c0.9,0.3,1.7,0.9,2.3,1.6c-0.1,1.1,0.7,1,1.4,0.9c0.6,0.1,1.2,0.5,1.5,1c0.2,0.4-0.1,0.8,0,1.2c0.6-0.1,1-0.6,1.6-0.6
	c1.2,0.2,0.5-0.7,0.7-1.1C76.2,190.8,77.3,188.2,79.8,186.9z"/>
<path class="st11" d="M63.3,166.2c0.7-0.4,1.2-1.1,1.5-1.8c0.1-0.6,0.7-0.8,1.1-1.1c0.6-0.4,1.2-0.9,1.5-1.5
	c0.2-0.5,0.6-0.9,1.1-1.1l1.7-1.4c0.2-0.2,0.5-0.1,0.7,0.1c0.1,0.2,0.1,0.4,0,0.5c-0.2,0.5-0.4,1-0.6,1.6c-0.2,0.8-0.6,1.5-1.1,2.1
	c-0.3,0.5-0.6,0.9-0.9,1.4c-0.3,0.5-0.7,1.1-1.1,1.6c-0.4,0.5-0.8,1-1.1,1.5c-0.4,0.5-0.7,1-1.2,1.5c-0.4,0.5-0.7,1-1.1,1.5
	s-0.7,1-1.1,1.5c-0.4,0.5-0.7,1-1.2,1.5c-0.4,0.5-0.8,1-1.2,1.5s-0.8,1.2-1.3,1.7s-1.1,0.9-1.8,0.1c-0.3-0.9-0.3-2,0.2-2.9
	c0-1,0.1-2,0.1-3c1.7,0.6,1.7,0.5,2.6-1.5c0.1-0.7,0.7-0.8,1.1-1.1c0.3-0.7,1.2-1,1.1-1.8C62.6,166.6,63.1,166.5,63.3,166.2z"/>
<path class="st19" d="M57.6,174.4l0.1,3c0.2,0.2,0.5,0.4,0.5,0.8c-0.3,0.5-0.6,1-1.1,1.3c-0.5,0.5-0.9,1.1-1.7,1.3
	c-0.5,0.1-0.7,0.7-1.2,0.6c-0.5-0.6,0.2-1.1,0.1-1.7c0-0.6,0.3-1.2,0.8-1.5c0.5-0.5,0.8-1.2,1.1-1.8c0-0.5,0.3-1,0.8-1.2
	C57.1,175,57.3,174.7,57.6,174.4z"/>
<path class="st20" d="M59.9,185l-1.5-1.1c-0.2-0.3-0.3-0.7-0.8-0.6c-0.9,0.2-0.7-0.5-0.7-0.9c0-0.7,0.2-1.4,1-1.6
	c0.4,0.6,1.1,0.8,1.7,0.5c0.6,0,1.2,0.4,1.5,1C61.1,183.4,60.7,184.3,59.9,185z"/>
<path class="st21" d="M58,180.8l-1.1,1.5c-0.6-0.4-1.1-0.9-1.6-1.5c0.4-0.6,0.9-1.2,1.5-1.6c0.5,0,0.9,0.2,1.2,0.6
	c0.1,0.1,0.1,0.3,0.1,0.5C58.2,180.6,58.1,180.7,58,180.8z"/>
<path class="st22" d="M55,178.2c0,0.6-0.3,1.2-0.8,1.6c-0.9-0.6-1.5-1.5-1.8-2.5C53.5,177.2,54.2,177.9,55,178.2z"/>
<path class="st23" d="M56.9,175.2c-0.1,0.5-0.4,0.9-0.8,1.2c-0.5-0.4-1.1-0.8-1-1.6C55.7,174.8,56.3,174.9,56.9,175.2z"/>
<path class="st24" d="M60.7,198.6c4.9-0.6,9.7-0.9,14.6-0.8c0.5-0.1,1.1-0.2,1.6-0.3c0.7,0,1.5-0.3,2.1,0.3c0,1.1,0,2.2-0.1,3.3
	c-0.4,0.1-0.7,0.1-1.1,0.1c-4.8-0.2-9.3,1-13.9,2.1c-0.8,0.3-1.7,0.5-2.5,0.5C61.4,202,60.5,200.4,60.7,198.6z"/>
<path class="st24" d="M79.8,152.3c-1.4,0.7-3.1,0.4-4.6,0.7c-3.8,0.9-7.4,2.1-11,3.6c-2.3,1-4.6,2.1-6.9,3.2v-6.3
	c2.4-0.9,4.9-1.6,7.5-2.1c4.3-1.1,8.7-1.6,13.1-2.4c0.5,0,1,0,1.5,0C79.5,150.1,80,151.2,79.8,152.3z"/>
<path class="st7" d="M176.2,247.4c-0.9-2.8-0.8-5.5-1.3-8.1s-1.6-5.1-1.7-7.8C176.4,232.6,178.2,244.2,176.2,247.4z"/>
<path class="st7" d="M178.9,231.3c0.6,0.4,1,1,1.3,1.7c1.6,3.7,2.4,7.7,2.5,11.7c0,0.6,0.2,1.5-0.5,1.6s-0.7-0.9-0.9-1.5
	c-0.9-3.9-1.8-7.8-2.7-11.8C178.4,232.4,178.5,231.8,178.9,231.3z"/>
<path class="st6" d="M185.2,232.2c3.2,3.5,4.9,11.6,3.1,14.4c-1.1-2.4-1.2-4.9-1.7-7.2S185.1,234.6,185.2,232.2z"/>
<path class="st6" d="M190.7,233.4c1.1,1.1,1.8,2.5,2.2,4c0.8,2.5,1.2,5.1,1,7.7v0.6c0,0.2-0.2,0.6-0.5,0.7s-0.4-0.2-0.5-0.4
	c-0.2-0.4-0.3-0.8-0.4-1.2c-0.6-2.9-1.1-5.8-1.7-8.7C190.5,235.2,190.5,234.3,190.7,233.4z"/>
<path class="st10" d="M78.3,81.7c1.7,0,3.5,0.3,5.2,0.7c1.2-0.6,2.3,0.2,3.4,0.3c1.5,0.5,3.1,0.9,4.7,1.4c1.3,0.3,2.5,0.8,3.8,1.2
	c1.6,0.6,3.2,1.1,4.8,1.6c1,0.4,2.1,0.7,3.1,1.1c1.5,0.5,2.9,1.2,4.4,1.6c1.3,0.4,2.6,1,3.8,1.5s2.7,1,4.1,1.5s2.7,1.1,4,1.6
	c1.3,0.7,2.8,1.2,4.2,1.8s2.6,1.1,3.9,1.8c1.3,0.7,2.9,1.1,3.9,2.3c0.3,0.6,0.8,0.7,1.3,1s1.1,0.7,1.7,1.1c0.4,0.2,0.5,0.7,0.3,1.2
	c-0.1,0.4-0.5,0.4-0.9,0.4c-0.6,0.1-1.1,0-1.6-0.2c-0.6-0.2-1.2-0.2-1.8-0.2c-1.8,0.4-3.5-0.5-5.2-0.8c-0.9-0.3-1.8-0.5-2.7-0.8
	c-1.8-0.5-3.6-1.1-5.4-1.7c-1.1-0.2-2.2-0.6-3.2-0.9c-1.8-0.7-3.5-1.2-5.3-1.8c-1-0.5-2-0.8-3.1-1.2l-5.1-1.9
	c-0.7-0.3-1.5-0.5-2.3-0.8c-1.7-0.8-3.5-1.4-5.3-2.1c-1-0.4-2-0.8-3-1.2c-1.8-0.9-3.7-1.5-5.4-2.5c-0.8-0.5-1.7-0.9-2.6-1.3
	c-1.3-0.8-3-1.1-3.9-2.5c-0.1-0.2-0.1-0.4-0.2-0.6c-0.1-0.6,0-1.2,0.3-1.7L78.3,81.7z"/>
<path class="st10" d="M79.4,94.4c-1.2-0.6-2.3-1.7-3.8-1.8c-0.1-0.1-0.1-0.3-0.1-0.5c0.5-0.9,0.9-1.8,1.2-2.8
	c0.1-0.3,0.3-0.6,0.8-0.6c0.9,0.6,2,1,3.2,1.1c1,0.3,2,0.5,3,0.8c1.8,0.5,3.6,1.2,5.4,1.6c1,0.3,1.9,0.7,2.9,1
	c1.8,0.6,3.7,1.2,5.5,1.8c0.8,0.2,1.5,0.7,2.3,0.9c1.7,0.6,3.4,1.3,5.2,1.8c1,0.4,2,0.8,3,1.2c1.8,0.7,3.6,1.3,5.3,2.1
	c1,0.4,2,0.8,3,1.2c1.7,0.8,3.4,1.5,5.2,2.3c0.8,0.5,1.7,0.9,2.7,1.2c1.7,0.9,3.5,1.5,4.8,2.9c0.8,0.6,1.5,1.1,2.2,1.7
	c0.4,0.3,0.9,0.7,0.7,1.2s-0.8,0.4-1.3,0.5c-0.9,0.1-1.9-0.1-2.7-0.3c-2,0.7-3.7-0.6-5.5-0.8c-0.8-0.3-1.7-0.4-2.5-0.7
	c-2-0.6-4-1.2-5.9-1.8l-2.7-0.9c-2-0.7-4-1.3-6.1-2c-0.8-0.3-1.7-0.7-2.6-0.9c-1.8-0.8-3.8-1.4-5.6-2.1c-0.7-0.3-1.3-0.6-2-0.8
	c-1.8-0.8-3.7-1.5-5.5-2.2c-0.8-0.3-1.6-0.8-2.4-1.1c-1.8-0.7-3.6-1.8-5.4-2.4C80.9,95.5,79.9,95.3,79.4,94.4z"/>
<path class="st10" d="M76.4,120.4l-0.8-4.1c1.5-0.6,2.8,0.5,4.2,0.7c1.1,0.4,2.1,0.8,3.2,1.1c1.7,0.6,3.3,1.1,5,1.7
	c0.8,0.3,1.6,0.5,2.3,0.8c1.7,0.6,3.5,1.2,5.2,1.8c1.1,0.4,2.3,0.8,3.4,1.2c1.6,0.7,3.2,1.2,4.9,1.8c1.2,0.6,2.6,0.9,3.8,1.5
	c1.8,0.7,3.5,1.4,5.2,2.2c0.8,0.3,1.6,0.8,2.4,1.1c1.6,0.8,3.5,1,4.6,2.7l1.8,1.3c0.3,0.1,0.4,0.5,0.3,0.8c-0.1,0.3-0.4,0.5-0.7,0.5
	h-2.6c-1.7,0.6-3.4-0.3-5.1-0.4c-1-0.3-2.1-0.5-3.1-0.8c-1.6-0.4-3.2-0.8-4.7-1.3s-3.1-0.9-4.7-1.3c-1.4-0.5-2.8-1-4.2-1.4
	c-1.5-0.4-3-0.9-4.5-1.4c-1.2-0.4-2.4-0.8-3.7-1.2s-2.4-1-3.6-1.3c-1.4-0.5-2.8-1.2-4.3-1.7s-2.6-1.3-4.1-1
	c-0.4-0.4-0.5-1.1-0.1-1.5l0,0v-0.7C76.6,121,76.7,120.6,76.4,120.4z"/>
<path class="st10" d="M77.9,131.3c0-2-0.2-4-0.7-6c1.2-0.7,2.2,0.1,3.3,0.3c1.4,0.5,2.8,1,4.2,1.5c1.2,0.4,2.4,0.8,3.7,1.2
	c1.2,0.5,2.4,0.9,3.6,1.3c1.4,0.6,2.9,1.1,4.3,1.6s2.8,1.2,4.3,1.7c1.6,0.6,3.1,1.4,4.7,2c1.2,0.7,2.6,1.1,3.9,1.8
	c1.1,0.6,2.2,1.1,3.3,1.6c1.2,0.8,2.9,1,3.7,2.5c0.6,0.4,1.1,0.8,1.6,1.3c0.6,0.6,0.3,1.2-0.5,1.3c-0.9,0-1.7,0-2.6-0.3
	c-1,0.5-2.2,0.3-3-0.4l-4.8-1.4c-1,0.5-2.2,0.2-2.7-0.8l-7-2.2c-0.7,0.3-1.4,0.1-1.9-0.4c-2.3-1-4.7-1.9-7.1-2.5
	c-1.3-0.3-2.4-1.1-3.7-1.6c-1-0.4-2.1-0.8-3.1-1.1c-0.8,0.3-1.3-0.2-1.8-0.8c-0.3-0.2-0.7-0.4-1.1-0.4L77.9,131.3z"/>
<path class="st10" d="M161.7,100.5c1.2-0.4,2.3-1,3.3-1.8c0.4-0.5,1-0.7,1.5-0.4c1.1-0.5,2.2-1.2,3.6-1c-0.2,1.4-1.6,1.8-2.1,2.9
	c-0.5,0.7-1.1,1.2-1.8,1.7c-0.6,0.4-1.2,0.8-1.8,1.2c-0.7,0.6-1.4,1.1-2.2,1.6c-0.7,0.4-1.4,0.9-2,1.4c-0.7,0.5-1.5,1-2.2,1.5
	l-1.8,1.2c-0.8,0.5-1.5,1-2.2,1.5s-1.4,0.9-2,1.4c-0.7,0.4-1.4,0.8-2.1,1.2c-0.7,0.4-1.4,0.9-2,1.4s-1.4,0.8-2.1,1.2
	s-1.3,0.8-1.9,1.2c-0.8,0.5-1.8,0.9-2.7,1.1c-0.6-0.1-1.3,0.7-1.7,0.1c-0.5-0.7,0.4-1.1,0.8-1.7l0.2-0.3c0.2-0.7,0.8-1.3,1.5-1.6
	l2.2-1.8c0.3-0.6,0.6-1.3,1.5-1.2c0.8-0.8,2-1.1,2.6-2.2c0.3-0.6,0.9-1,1.5-1.1c0.9-0.3,1.7-0.9,2.3-1.6c0.4-0.4,0.7-1,1.5-0.8
	c0.9-0.5,1.8-1.1,2.6-1.8c0.2-0.4,0.6-0.7,1.1-0.8c1.2-0.4,2.3-1.1,3.3-1.8C160.7,100.8,161.2,100.5,161.7,100.5z"/>
<path class="st10" d="M154.9,138.4c-0.8,0.3-1.7,0.4-2.5,0.4c-0.3-1,0.8-1.3,1-2c0.5-1,1.4-1.9,2.4-2.5c0.4-0.4,0.8-0.8,1.3-1.1
	c0.9-0.6,1.7-1.3,2.6-1.8c0.5-0.3,1.1-0.7,1.6-1.1c0.8-0.5,1.6-1.1,2.4-1.6c0.5-0.3,0.9-0.6,1.3-1c0.8-0.5,1.6-1.1,2.4-1.6l1.6-1.1
	c1-0.6,2-1.2,2.9-1.8c0.5-0.4,1.1-0.7,1.6-1.1c1-0.5,1.8-1.2,2.8-1.6c0.5-0.2,0.9-0.5,1.3-0.7c1-0.5,1.8-1.4,3.1-1.2
	c0.6,0.1,1-0.5,1.7-0.2c0.2,0.9-0.6,1.3-0.9,2c-0.3,1.1-1.3,1.4-2,2.1c-0.4,0.4-0.8,0.8-1.2,1.2c-0.8,0.6-1.6,1.2-2.3,1.8
	c-0.8,0.5-1.4,1.1-2.2,1.6c-0.7,0.6-1.4,1.1-2.2,1.6c-0.7,0.4-1.4,0.9-2,1.4c-0.7,0.5-1.5,1-2.2,1.5c-0.5,0.3-1,0.6-1.5,0.9
	c-0.8,0.4-1.5,1-2.3,1.5l-2.3,1.4c-0.7,0.4-1.3,0.8-1.9,1.1s-1.5,0.7-2.2,1.1C156.5,138,155.7,138.3,154.9,138.4z"/>
<path class="st10" d="M143.2,121.6c-1.3-0.2-1.3-0.2-0.7-1.5c0.3-1.1,1.2-1.5,2-2.2c0.6-0.4,1.1-1,1.7-1.5s1.4-1.1,2.1-1.6
	s1.3-1,2-1.4s1.4-1.1,2.2-1.5c0.5-0.4,1.1-0.7,1.6-1.1c0.8-0.5,1.5-1,2.2-1.5s1.2-0.8,1.8-1.2c0.8-0.5,1.6-0.9,2.3-1.4
	c0.7-0.5,1.4-0.9,2.1-1.3c0.8-0.4,1.6-1,2.4-1.4c0.7-0.3,1.3-0.7,1.9-1.2c0.9-0.3,1.6-1.2,2.7-0.9c0.9,0,1.7-1.1,2.8-0.5
	c0,1-1.1,1.3-1.4,2.1c-0.5,1-1.4,1.9-2.4,2.5c-0.4,0.3-0.8,0.8-1.3,1.1c-0.9,0.6-1.7,1.3-2.6,1.8c-0.5,0.4-1.1,0.7-1.6,1.2
	c-1,0.6-1.9,1.2-2.9,1.9c-0.4,0.3-0.8,0.5-1.2,0.8c-0.9,0.6-1.9,1.3-2.8,1.9c-0.4,0.2-0.7,0.5-1,0.7c-1.1,0.6-2.1,1.3-3.2,1.8
	c-0.4,0.3-0.9,0.5-1.3,0.8c-0.9,0.6-1.9,1.1-2.8,1.6c-0.5,0.2-1.1,0.5-1.6,0.8C145.3,120.9,144.4,121.7,143.2,121.6z"/>
<path class="st10" d="M145.8,125.7c-1.2-0.1-1.2-0.1-1-1.2c0.5-1.1,1.3-1.9,2.3-2.6c0.5-0.3,0.9-0.7,1.3-1.1c1-0.7,1.9-1.5,2.9-2.1
	c0.4-0.2,0.8-0.5,1.2-0.9c0.9-0.7,1.9-1.3,2.8-1.9c0.4-0.3,0.8-0.6,1.2-0.8c0.9-0.6,1.8-1.2,2.6-1.8c0.6-0.4,1.1-0.7,1.6-1.1
	c1-0.5,1.8-1.1,2.8-1.6c0.6-0.3,1.1-0.7,1.7-1c0.9-0.6,1.9-1.1,2.8-1.6c0.5-0.2,0.9-0.4,1.3-0.7c1-0.4,1.9-1.2,3.1-1.2
	c0.8,0,1.6-0.8,2.5-0.1c0,0.8-0.8,1-1,1.6c-0.4,1.4-1.8,1.8-2.7,2.8c-0.3,0.2-0.5,0.4-0.8,0.6c-1,0.7-2,1.5-3,2.2
	c-0.5,0.4-1.1,0.7-1.6,1.1c-0.9,0.6-1.8,1.2-2.6,1.8c-0.5,0.3-0.9,0.6-1.4,0.9c-1,0.7-2,1.4-3.1,2.1l-0.9,0.5c-1,0.6-2,1.2-2.9,1.8
	c-0.5,0.3-1,0.6-1.5,0.9c-0.9,0.6-1.9,1.1-2.9,1.6c-0.5,0.2-0.9,0.4-1.4,0.7C148.1,125,147.2,125.8,145.8,125.7z"/>
<path class="st10" d="M183.1,123.1c0.6,0.2,1.3-0.7,1.7,0s-0.6,1.1-0.9,1.7l-0.1,0.2c-0.1,0.6-0.6,1-1.2,1.1
	c-0.9,0.4-1.6,1.1-2.3,1.8c-0.3,0.5-0.9,0.9-1.5,1.1c-1.2,0.6-2.3,1.4-3.4,2.3c-0.2,0.3-0.4,0.6-0.8,0.7c-0.7,0-1.1,0.5-1.6,0.9
	c-1.2,1-2.6,1.8-4,2.6c-1,0.4-1.3,1.7-2.4,1.8s-1.7,0.9-2.6,1.3c-0.3,0.1-0.4,0.4-0.7,0.6c-0.3,0.5-0.9,0.5-1.4,0.7
	c-0.9,0.2-1.7,0.6-2.3,1.2c-0.3,0.7-1.1,1-1.8,0.8l-2.2,0.9c-0.2,0.1-0.5,0.1-0.6-0.1c0,0,0,0,0,0c-0.1-0.2-0.1-0.5,0.1-0.7
	c0.4-0.5,0.9-1.1,1.3-1.6c0.2-0.9,1-1.3,1.6-1.8s1.3-1,1.9-1.4c0.7-0.4,1.3-0.9,1.9-1.5c0.6-0.5,1.2-0.9,1.8-1.2
	c0.8-0.6,1.6-1.2,2.4-1.7c0.5-0.3,0.9-0.6,1.4-0.9c0.7-0.5,1.5-0.9,2.3-1.4s1.5-1,2.2-1.5s1.3-0.7,1.9-1.2c0.9-0.5,1.7-1,2.6-1.6
	c0.9-0.5,1.8-1,2.7-1.4c0.5-0.2,1.1-0.5,1.6-0.8C181.5,123.5,182.3,123.2,183.1,123.1z"/>
<path class="st10" d="M151.1,133.9c-1.5-0.1-1.5-0.1-0.8-1.4c0.4-1.1,1.4-1.7,2.1-2.4c0.6-0.4,1.1-0.8,1.6-1.2
	c0.8-0.6,1.6-1.2,2.4-1.8c0.4-0.3,0.8-0.6,1.2-0.8c0.9-0.6,1.9-1.3,2.9-1.9c0.4-0.2,0.7-0.5,1-0.7c1.1-0.7,2.1-1.4,3.2-2.2
	c0.4-0.2,0.8-0.5,1.2-0.8c1-0.5,2-1.2,2.9-1.8c0.5-0.3,1-0.5,1.5-0.8c1-0.7,2.2-1.1,3.3-1.8c0.3-0.2,0.6-0.4,0.9-0.6
	c1.1-0.5,2.1-1.4,3.5-1.1c0.4-0.1,0.9-0.6,1.3-0.1s-0.1,0.9-0.4,1.3c-0.1,0.1-0.1,0.2-0.2,0.3c-0.4,1.2-1.5,1.8-2.4,2.5
	c-0.3,0.3-0.6,0.5-0.9,0.8c-0.9,0.6-1.7,1.3-2.5,1.9c-0.6,0.5-1.3,0.9-1.9,1.5c-0.9,0.6-1.8,1.2-2.6,1.8c-0.5,0.3-0.9,0.6-1.4,0.9
	c-0.9,0.6-1.8,1.2-2.6,1.8c-0.4,0.3-0.8,0.5-1.3,0.8c-1,0.6-2,1.2-2.9,1.8c-0.5,0.3-1,0.5-1.5,0.9c-0.8,0.6-1.8,0.9-2.6,1.4
	c-0.5,0.2-1.1,0.5-1.6,0.8C153.5,133.4,152.3,133.8,151.1,133.9z"/>
<path class="st10" d="M175.5,110.2c0.6-0.2,1.1-0.5,1.7-0.2c0.2,0.8-0.7,1.1-0.9,1.7c-0.4,1.2-1.5,1.8-2.4,2.5
	c-0.3,0.3-0.6,0.5-0.9,0.8c-1,0.7-2,1.3-2.9,2.1c-0.4,0.3-0.8,0.6-1.2,0.8c-1.1,0.7-2.2,1.4-3.2,2.2c-0.4,0.2-0.8,0.5-1.2,0.8
	c-1,0.6-1.9,1.3-2.9,1.8c-0.3,0.2-0.6,0.3-0.9,0.5c-1.1,0.6-2.1,1.3-3.2,1.9c-0.4,0.2-0.8,0.6-1.3,0.8c-1.1,0.6-2.3,1.1-3.4,1.7
	l-1.1,0.6c-1.1,0.4-2.1,1.4-3.5,1.1c-0.4,0-0.7-0.2-0.7-0.6c0-0.1,0-0.1,0-0.2c0.1-1.4,1.3-2.1,2.3-2.8c0.5-0.4,0.9-0.8,1.3-1.2
	c1-0.7,1.9-1.4,2.9-2.2c0.4-0.3,0.9-0.5,1.3-0.8c1-0.6,1.8-1.3,2.7-1.9c0.3-0.2,0.7-0.4,1-0.7c1-0.5,2-1.2,2.9-1.8
	c0.4-0.2,0.8-0.5,1.2-0.8c1.1-0.6,2.1-1.3,3.2-1.9c0.5-0.3,1-0.6,1.5-0.9c1-0.5,2-1.2,3.1-1.7l1.1-0.6
	C173.2,111,174.1,109.8,175.5,110.2z"/>
<path class="st12" d="M120,132.8l-4.9-2.3c-0.3-1.6,0.1-3.2,1.2-4.4l6,1.1L120,132.8z"/>
<path class="st12" d="M123.3,124.9c-1.8-0.9-3.6-1.9-5.2-3c-0.5-1.4,0-2.9,1.1-3.7c2,0.3,4,0.8,6,1.5
	C124.6,121.4,124,123.2,123.3,124.9z"/>
<path class="st12" d="M129,108.8c-1.7-0.7-3.4-1.6-4.9-2.7c-0.4-1.4,0.1-2.9,1.2-3.7c1.8,0.2,3.5,0.6,5.2,1.2
	C130.3,105.4,129.7,107.1,129,108.8z"/>
<path class="st13" d="M122.2,110.6c2,0.1,3.8,1,5.7,1.2c-0.2,1.3-0.6,2.5-1.2,3.7c-0.2,0.5-0.4,1-0.4,1.6l-5.6-3.3
	C120.8,112.5,120.9,111.3,122.2,110.6z"/>
<path class="st13" d="M116.2,141.1l-3.7-2.2c-0.2-1.5,0.2-3,1.2-4.2c1.7,0.1,3.5,0.3,5.1,0.8C118,137.4,116.8,139.1,116.2,141.1z"/>
<path class="st13" d="M131.6,100.2c-1.4-0.5-2.8-1.2-4.2-1.9c-0.3-1.6,0.7-2.6,1.6-3.7l3.8,1.1C132.6,97.3,132.2,98.8,131.6,100.2z"
	/>
<path class="st13" d="M148.1,129.4l3.4-1.5c0.8,0.5,1.5,1.1,1.2,2.2c-0.6,0.9-1.4,1.7-2.4,2.3C149.4,131.6,148.7,130.6,148.1,129.4z
	"/>
<path class="st25" d="M151.1,133.9c1-0.7,2.2-1.2,3.3-1.5c0.8,0.5,1.4,1.3,1.5,2.3l-2.6,2.2L151.1,133.9z"/>
<path class="st26" d="M93.7,76.5l-3.3-0.8c0.6-1.2,1.3-2.4,2.2-3.4c0.2-0.3,0.5-0.6,0.9-0.5s0.6,0.6,0.6,1
	C94.2,74.1,93.7,75.2,93.7,76.5z"/>
<path class="st27" d="M147.4,122.3l-2.6,2.3l-1.6-3l3-1.5C147.1,120.6,147.8,121.1,147.4,122.3z"/>
<path class="st27" d="M150,126c-1,0.8-1.8,1.6-2.6,2.6c-0.5-1-1.4-1.8-1.6-2.9c1.1-0.6,2.2-1.2,3.4-1.5
	C149.9,124.6,150.4,125.1,150,126z"/>
<path class="st25" d="M173.7,114.1l2.7-2.3c0.8,0.8,1.4,1.7,1.8,2.6l-3.4,1.5C174,115.7,173.5,114.9,173.7,114.1z"/>
<path class="st15" d="M176.3,118.2l2.6-2.3c0.9,0.7,1.1,1.8,1.8,2.7l-3,1.5C177,119.7,176.4,119,176.3,118.2z"/>
<path class="st25" d="M172.6,106.1c-0.9,0.7-1.9,1.3-3,1.6c-0.7-0.3-1.2-1.1-1.1-1.9l2.6-2.2C171.6,104.4,172.2,105.2,172.6,106.1z"
	/>
<path class="st25" d="M175.5,110.2c-1.2,0.4-2.3,0.9-3.4,1.5c-0.6-0.3-1-0.9-1.1-1.6c0.9-0.9,1.9-1.7,3-2.5L175.5,110.2z"/>
<path class="st26" d="M111.7,143c1-0.1,2,0.5,3,0.4c-0.4,1-1,1.9-1.6,2.7c-0.2,0.5-0.8,0.9-1.3,0.8c-0.6-0.2-0.4-0.8-0.5-1.3
	C111.2,144.6,111.8,143.8,111.7,143z"/>
<path class="st27" d="M183.1,123.1c-0.6,0.6-1.4,1-2.2,1.1c-0.8-0.3-1.4-1-1.5-1.9c0.7-0.7,1.4-1.4,2.3-1.9
	C182.3,121.1,182.8,122,183.1,123.1z"/>
<path class="st27" d="M102,78.8c-1-0.1-1.9-0.3-2.7-0.8c0.4-1.1,1.1-2.1,2-2.8c0.5-0.4,1-0.3,1,0.4C102.5,76.6,102.4,77.7,102,78.8z
	"/>
<path class="st25" d="M144.8,118.2l-2.3,1.9c-0.7-0.7-0.8-1.7-1.5-2.4c0.8-0.6,1.7-1,2.6-1.4C144.4,116.6,144.8,117.3,144.8,118.2z"
	/>
<path class="st28" d="M104.1,140.7c0.9,0.3,1.8,0.6,2.7,0.8c-0.5,0.8-1.1,1.6-1.6,2.4c-0.2,0.3-0.6,0.5-0.9,0.4
	c-0.4-0.1-0.4-0.5-0.4-0.9C103.8,142.5,103.8,141.6,104.1,140.7z"/>
<path class="st27" d="M169.6,102c-0.8,0.5-1.7,0.8-2.6,1.1c-0.6-0.3-0.9-0.9-0.8-1.6c0.4-0.7,1.1-1.3,1.9-1.5
	C168.8,100.5,169.3,101.2,169.6,102z"/>
<path class="st26" d="M141.8,114.4c-0.4,0.7-0.9,1.2-1.6,1.6c-0.6-1.2-1.3-2.4-1-3.9C140.6,112.3,141.2,113.3,141.8,114.4z"/>
<path class="st29" d="M158.2,138.8l-1.9,1.5l-1.5-1.9c0.6-0.6,1.4-1,2.3-1.1C158.1,137.4,158.4,138,158.2,138.8z"/>
<path class="st30" d="M133.8,91.9c-0.9-0.3-1.8-0.7-2.6-1.2c0.4-0.6,0.9-1.2,1.3-1.8c0.5-0.5,1.1-0.3,1.2,0.4
	C133.8,90.1,133.9,91,133.8,91.9z"/>
<path class="st31" d="M109.8,81.4c-0.9-0.1-1.8-0.3-2.6-0.8c0.3-0.8,0.8-1.4,1.5-1.9c0.6-0.5,1.1-0.3,1.2,0.5
	C109.8,79.9,109.8,80.6,109.8,81.4z"/>
<path class="st32" d="M125.6,87.8c-0.9-0.2-1.8-0.5-2.6-1.1c0.6-0.3,0.7-1,1.2-1.4c0.3-0.3,0.6-0.6,0.9-0.4s0.5,0.5,0.5,0.9
	C125.6,86.4,125.6,87.1,125.6,87.8z"/>
<path class="st30" d="M145.5,111.4l-1.5,1.2c-0.4-0.9-1-1.7-0.6-2.7C144.4,109.9,144.9,110.7,145.5,111.4z"/>
<path class="st29" d="M117.4,84.4c-0.8,0-1.5-0.7-2.3-0.8c0.5-0.6,0.9-1.6,1.8-1.4S117.2,83.6,117.4,84.4z"/>
<path class="st33" d="M149.6,108.1c-0.3,0.6-0.9,1-1.5,1.1c-0.4-0.6-1.1-1.5-0.5-2C148.3,106.7,149,107.7,149.6,108.1z"/>
<path class="st34" d="M182.6,126.1c0.3-0.5,0.7-0.9,1.2-1.1c0.1,0.1,0.2,0.2,0.2,0.3c0.3,0.6,0.9,1.4,0.2,1.8
	C183.5,127.5,183.1,126.6,182.6,126.1z"/>
<path class="st35" d="M178.9,129c0.3-0.6,0.8-1,1.5-1.1c0.4,0.6,0.5,1.3,0.2,2C179.8,130,179.5,129.3,178.9,129z"/>
<path class="st36" d="M157.9,141.9l1.8-0.8c-0.1,0.6,0.4,1.4-0.2,1.6S158.3,142.4,157.9,141.9z"/>
<path class="st37" d="M166.5,98.2c-0.4,0.3-1,0.5-1.5,0.4c-0.1-0.2-0.2-0.3-0.2-0.5c-0.1-0.3-0.2-0.7,0.2-0.9
	c0.3-0.1,0.6-0.1,0.8,0.2C166.1,97.7,166.3,98,166.5,98.2z"/>
<path class="st38" d="M79.4,132.1c0.7,0.1,1.3,0.4,1.8,0.8c-0.1,0.1-0.2,0.3-0.3,0.4c-1,0.7-1.2,0.6-1.5-0.5
	C79.4,132.6,79.4,132.3,79.4,132.1z"/>
<path class="st36" d="M95.2,138.1c0.7-0.1,1.2,0.3,1.9,0.4c-0.1,0.1-0.1,0.2-0.2,0.3c-0.3,0.3-0.6,0.9-1.2,0.6
	S95.2,138.6,95.2,138.1z"/>
<path class="st39" d="M153.4,105.7c-0.5,0.2-0.8,0.8-1.5,0.8c0-0.1,0-0.1,0-0.2c0-0.5-0.3-1.2,0.3-1.5S153.1,105.3,153.4,105.7z"/>
<path class="st40" d="M161.7,100.5c-0.3,0.4-0.7,0.7-1.2,0.8c-0.2-0.5-0.5-0.9-0.2-1.6C160.9,99.7,161.4,100,161.7,100.5z"/>
<path class="st41" d="M157.2,103.1c-0.3,0.4-0.7,0.6-1.1,0.8v-0.4c0-0.3-0.1-0.8,0.3-0.9S157,102.8,157.2,103.1z"/>
<path class="st42" d="M162,139.9c0.4-0.4,0.9-0.6,1.4-0.7C163.4,140.3,162.6,139.9,162,139.9z"/>
<path class="st43" d="M174.8,132c0.2-0.3,0.4-0.6,0.8-0.7C175.5,131.8,175.7,132.6,174.8,132z"/>
<path class="st44" d="M73.8,194c-0.8,0.2-1.3,1.1-2.3,1.1c-0.1-0.6,0.1-1.3,0.4-1.8c-0.2-0.7,0.3-1.1,0.5-1.6c0.3-0.6,0.6-1.1,1-1.6
	l1.2-1.8c0.3-0.4,0.5-0.8,0.8-1.2c0.4-0.5,0.8-1,1.1-1.5c0.4-0.5,0.8-1.1,1.2-1.6c0.5-0.5,0.8-1.1,1.3-1.6c0.5-0.3,0.9-0.9,1.4-0.1
	c0.5,1.5-0.2,2.8-0.6,4.2c0,0.1,0,0.3-0.1,0.4c-0.8,1.4-2.6,2.2-3,4c-0.1,0.4-0.4,0.4-0.7,0.6c-0.7,0.3-1.2,0.8-1.6,1.5
	C74.3,193.3,74.4,193.9,73.8,194z"/>
<path class="st45" d="M79.8,186.5c-0.3-1.5,0.6-3,0.3-4.5c-0.2-0.2-0.2-0.5-0.1-0.7c0.3-0.6,0.8-1.1,1.1-1.6
	c0.4-0.6,0.9-1.1,1.5-1.7c0.5-0.6,0.9-1.2,1.4-1.7l0.9-0.9c0.6-0.4,0.9-1.1,1.7-1.3c0.4-0.1,0.8-0.6,1.3-0.2s0,0.9-0.2,1.3
	c0.2,0.4,0,1-0.4,1.2c-0.7,0.4-0.9,1.2-1.4,1.8c0.2,0.4,0,0.9-0.5,1.1c-0.6,0.4-1.1,1-1.4,1.6C82.8,183,81.4,184.8,79.8,186.5z"/>
<path class="st46" d="M83.6,171.5c0.5,0,0.8-0.4,1.3-0.5c0.4,0.6,0.1,1.1,0.2,1.6c-0.2,0.7-0.5,1.4-0.8,2c-0.2,0.4-0.4,0.9-0.7,1.3
	c-0.4,0.6-0.8,1.2-1.2,1.8c-0.4,0.7-0.9,1.3-1.3,1.9c-0.3,0.2-0.7,0.4-1,0c-0.3-0.9-0.4-1.9-0.2-2.9c0-0.3,0.1-0.6,0.2-0.8
	c0.3-0.7,0.6-1.3,1.2-1.8l0.9-0.9C82.5,172.6,82.7,171.7,83.6,171.5z"/>
<path class="st28" d="M83.6,171.5c-0.5,0.6-0.8,1.5-1.6,1.9c-0.6,0.1-1.3-0.2-1.6-0.8c0.1-1.1,0.3-2.2,1.6-2.6
	C82.5,170.5,83.3,170.8,83.6,171.5z"/>
<path class="st47" d="M83.9,174.5c0.1-0.8,0.5-1.5,1.1-1.9c0.6,0.4,1.2,0.9,1.6,1.5c-0.4,0.6-0.9,1.1-1.4,1.5
	C84.5,175.5,83.9,175.4,83.9,174.5z"/>
<path class="st48" d="M82,170c-0.6,0.8-1.1,1.7-1.5,2.6c-0.1,0.1-0.4,0.1-0.5,0l0,0c-0.3-0.4-0.4-0.9-0.4-1.5c0-0.9-0.6-1.8,0.2-2.6
	h0.3c0,0.1,0.1,0.2,0.1,0.4c0.1,0.3,0.5,0.3,0.7,0.4C82,168.8,82,168.8,82,170z"/>
<path class="st49" d="M87.3,176.4l0.4-1.2c0.6,0.4,1,1,1,1.7C88.2,177,87.6,176.8,87.3,176.4z"/>
<path class="st37" d="M85.4,179.4c0.1-0.4,0.2-0.8,0.5-1.1c0.1,0.1,0.3,0.2,0.4,0.4c0.2,0.3,0.4,0.7,0.1,1S85.7,179.7,85.4,179.4z"
	/>
<path class="st50" d="M106.4,180.5c0.1,0.6,0,1.1-0.1,1.7c-0.7-0.3-0.6-0.8-0.6-1.3L106.4,180.5z"/>
<path class="st51" d="M96.7,180.1c0.1,0.4,0.1,0.9-0.1,1.3c-0.4-0.4-0.2-0.8-0.2-1.2C96.4,180.1,96.5,180.1,96.7,180.1z"/>
<path class="st52" d="M100.5,174.1c-0.1-0.4,0-0.9,0.1-1.3c0.3,0.4,0.2,0.9,0.2,1.3L100.5,174.1L100.5,174.1z"/>
<path class="st53" d="M80.9,169.2c-0.4,0.3-0.8,0.4-0.7-0.4C80.5,168.8,80.8,169,80.9,169.2z"/>
<path class="st54" d="M64.1,125.3c0.9,0.3,1.8,0.6,2.6,1.1c-0.4,0.7-0.9,1.4-1.4,1.9c-0.6,0.5-1.1,0.3-1.2-0.5
	C64,127.1,64,126.2,64.1,125.3z"/>
<path class="st55" d="M71.9,129.1l1.5,0.4c-0.1,0.2-0.2,0.3-0.3,0.4c-0.2,0.2-0.5,0.6-0.9,0.5s-0.3-0.6-0.3-0.9
	C71.9,129.3,71.9,129.2,71.9,129.1z"/>
<path class="st13" d="M91.5,84.7l-4.6-1.5c-0.6-1.4,0.3-2.4,1.2-3.3c1.3,0.7,2.9,1,4.2,1.8C92.8,82.8,92.5,84.1,91.5,84.7z"/>
<path class="st56" d="M129,94.6c-0.3,1.3-1.2,2.4-1.6,3.7c-1.2-0.8-2.6-0.9-3.7-1.8c-0.2-1.2,0.1-2.4,0.8-3.3L129,94.6z"/>
<path class="st13" d="M124.5,93.1c0,1.2-0.3,2.3-0.8,3.3c-1.5-0.4-2.9-1-4.2-1.9c-0.4-1.2,0.2-2,1.1-2.6
	C121.9,92.4,123.2,92.8,124.5,93.1z"/>
<path class="st56" d="M88.1,79.9c-0.2,1.2-1.2,2.1-1.2,3.3c-1.1-0.2-2.3-0.4-3.4-0.8c0.1-1.3,0.5-2.6,1.2-3.8
	C85.9,78.7,86.9,79.7,88.1,79.9z"/>
<path class="st13" d="M100,87.4l-4.8-1.5c-0.3-1,0.2-2.1,1.1-2.6l4.2,1.5C101,85.7,100.8,86.8,100,87.4z"/>
<path class="st57" d="M120.7,91.9c-0.5,0.8-0.8,1.7-1.1,2.6c-1.4-0.3-2.8-0.8-4.1-1.5c-0.4-0.9-0.1-2,0.7-2.6L120.7,91.9z"/>
<path class="st25" d="M116.2,90.4c-0.2,0.8-0.5,1.7-0.7,2.6l-4.2-1.5c-0.6-1.1,0-1.8,0.8-2.6L116.2,90.4z"/>
<path class="st13" d="M107.6,90c-1.6-0.3-3-1.2-4.6-1.5c-0.3-1.1-0.1-1.9,1.1-2.2c1.4,0.3,2.8,0.8,4.2,1.5
	C108.7,88.6,108.4,89.5,107.6,90z"/>
<path class="st57" d="M96.3,83.3l-1.1,2.6c-1.2-0.5-2.4-0.9-3.7-1.1c0.3-1,0.6-1.9,0.7-2.9C93.6,82.1,95,82.6,96.3,83.3z"/>
<path class="st57" d="M107.6,90c0.2-0.8,0.5-1.5,0.7-2.3l3.8,1.2c-0.1,0.9-0.9,1.6-0.8,2.6L107.6,90z"/>
<path class="st58" d="M104.2,86.2c-0.6,0.6-1,1.4-1.2,2.3l-3-1.1c0.2-0.9,0.3-1.7,0.4-2.6C101.7,85.4,103.1,85.5,104.2,86.2z"/>
<path class="st13" d="M83.2,108.7l-5.7-1.8c-0.1-1.5,0-2.9,1.5-3.8c2,0.6,3.9,1.5,5.7,2.6C84.5,106.9,84.4,108,83.2,108.7z"/>
<path class="st13" d="M116.2,121.2l-5.6-2.3c-0.5-1.1-0.1-2.3,0.8-3c2.1,0.4,4.1,1,6,1.8C117.5,119,117.1,120.3,116.2,121.2z"/>
<path class="st13" d="M91.5,111.4c-1.9-0.5-3.8-1.1-5.7-1.9c-0.4-1.1,0-2.4,1.1-3l5.7,2.3C92.8,109.8,92.4,110.9,91.5,111.4z"/>
<path class="st13" d="M81.7,95.6c2,0.4,3.7,1.7,5.6,2.3c0.2,0.9-0.1,1.9-0.8,2.6l-6-1.8C80.2,97.5,80.7,96.3,81.7,95.6z"/>
<path class="st13" d="M114,108.1l6,1.8c0.3,1.1-0.1,2.3-1.1,3c-1.9-0.7-3.8-1.6-5.6-2.6C113.1,109.5,113.4,108.6,114,108.1z"/>
<path class="st13" d="M107.5,117.4c-1.9-0.6-3.8-1.3-5.6-2.3c-0.4-1-0.4-1.8,0.8-2.2c2,0.3,3.8,1.3,5.7,1.9
	C108.8,115.9,108.2,116.7,107.5,117.4z"/>
<path class="st13" d="M99,114.1c-1.9-0.5-3.8-1.3-5.7-1.9c-0.3-1,0.1-2.2,1.1-2.7l5.7,2.2C100.3,112.8,100.2,113.7,99,114.1z"/>
<path class="st13" d="M89.6,99c1.9,0.7,3.8,1.4,5.7,2.3c0.3,0.6,0.1,1.4-0.5,1.8l-6-1.9C88.5,100.4,88.9,99.5,89.6,99z"/>
<path class="st13" d="M105.3,105.1c1.9,0.8,4.1,1.2,6,2.2c0.2,0.8-0.1,1.6-0.8,2c-1.9-0.6-3.8-1.3-5.6-2.3
	C104.4,106.1,104.8,105.6,105.3,105.1z"/>
<path class="st57" d="M79,103.1c-0.8,1.2-0.9,2.6-1.5,3.8c-0.9-0.1-1.8-0.3-2.6-0.8c0.8-1.3,0.8-3,1.8-4.2
	C77.6,102.2,78.3,102.6,79,103.1z"/>
<path class="st25" d="M97.1,102c1.9,0.6,3.8,1.3,5.6,2.2c0.4,0.7,0.3,1.2-0.4,1.5c-2-0.3-3.8-1.3-5.6-1.9
	C96.2,103.1,96.5,102.5,97.1,102z"/>
<path class="st58" d="M107.5,117.4c0-0.9,0.7-1.7,0.8-2.6c1.1,0.2,2.1,0.6,3,1.1c-0.3,1-0.6,2-0.8,3L107.5,117.4z"/>
<path class="st57" d="M81.7,95.6l-1.2,3c-0.9-0.2-1.7-0.4-2.5-0.7c0.6-1.1,0.8-2.4,1.5-3.4C80.3,94.7,81,95.1,81.7,95.6z"/>
<path class="st58" d="M86.9,106.6c-0.5,1-0.8,2-1.1,3l-2.6-0.8c0.6-0.9,0.6-2.2,1.5-3C85.5,105.9,86.2,106.1,86.9,106.6z"/>
<path class="st59" d="M116.2,121.2c0.2-1.2,0.6-2.3,1.2-3.4c0.6,0,1.3,0.1,1.8,0.4c-0.5,1.2-0.9,2.5-1.1,3.7
	C117.3,121.9,116.7,121.6,116.2,121.2z"/>
<path class="st60" d="M118.8,112.9c0.4-1,0.7-2,1.1-3c0.8,0.1,1.5,0.3,2.2,0.7l-1.5,3.1C120,113.6,119.4,113.3,118.8,112.9z"/>
<path class="st58" d="M110.5,109.2c0.1-0.7,0.4-1.4,0.8-2c0.9,0.1,1.8,0.4,2.7,0.8c0,0.8-0.3,1.6-0.8,2.3
	C112.2,110.1,111.3,109.7,110.5,109.2z"/>
<path class="st61" d="M99,114.1c0.7-0.6,0.7-1.5,1.1-2.2c0.9,0.2,1.8,0.6,2.6,1.1c-0.5,0.7-0.7,1.4-0.8,2.2
	C100.9,115.1,99.9,114.7,99,114.1z"/>
<path class="st62" d="M89.6,99l-0.8,2.2l-2.3-0.8c0.1-0.9,0.3-1.8,0.8-2.6L89.6,99z"/>
<path class="st60" d="M94.4,109.5l-1.1,2.6l-1.8-0.7c0.4-0.9,0.7-1.7,1.1-2.6L94.4,109.5z"/>
<path class="st63" d="M102.3,105.8c0.3-0.4,0.5-1,0.4-1.5c1-0.1,1.7,0.7,2.6,0.8c-0.2,0.6-0.3,1.2-0.4,1.8
	C104,106.8,103,106.4,102.3,105.8z"/>
<path class="st64" d="M97.1,102c-0.2,0.6-0.3,1.2-0.5,1.8c-0.6-0.1-1.3-0.4-1.8-0.7c0.1-0.6,0.2-1.2,0.4-1.8
	C95.9,101.4,96.5,101.7,97.1,102z"/>
<path class="st65" d="M66.6,114c0.1-1.4,0.4-2.8,0.9-4.1c0.4-0.8,0.6-1.7,0.6-2.7c1.5-0.4,2.3,0.9,3.4,1.4c0.7,0.3,1.3,0.7,1.8,1.3
	v0.3c0.2,1.8-0.5,3.6-1.8,4.9C70,114.6,68.3,114.2,66.6,114z"/>
<path class="st13" d="M79.8,117.4l-4.1-1.1l-0.5-1.1c-0.2-0.2-0.3-0.5-0.3-0.8c-0.1-1.1,0.4-2.2,1.2-3c1.7,1,3.7,1.4,5.2,2.6
	C81.4,115.3,80.8,116.6,79.8,117.4z"/>
<path class="st13" d="M112.8,129.4c-1.8-0.6-3.5-1.4-5.2-2.2c-0.2-1.2,0.2-2.5,1.1-3.3l5.7,1.8C114.4,127.1,113.9,128.5,112.8,129.4
	z"/>
<path class="st13" d="M88,120.1c-1.8-0.2-3.5-1.1-5.2-1.6c-0.4-1.2,0.1-2.6,1.2-3.3c1.5,0.1,2.7,1.2,4.1,1.5
	c0.4,0.1,0.8,0.3,1.2,0.4C89.4,118.2,88.9,119.4,88,120.1z"/>
<path class="st13" d="M103.8,125.7c-1.7-0.4-3.4-1-4.9-1.9c-0.4-1-0.1-2.1,0.8-2.7c1.9,0.4,3.8,1,5.6,1.8
	C105.1,124.1,105.1,125.2,103.8,125.7z"/>
<path class="st13" d="M95.5,122.7c-1.8-0.4-3.5-1-5.2-1.8c-0.2-1.1,0.3-2.1,1.1-2.7c1.8,0.4,3.6,1.1,5.2,1.9
	C96.8,121,96.4,122.1,95.5,122.7z"/>
<path class="st57" d="M103.8,125.7c0.6-0.8,0.7-2,1.5-2.7l3.4,0.9c-0.4,1.1-0.7,2.2-1.1,3.4C106.3,126.8,104.9,126.6,103.8,125.7z"
	/>
<path class="st57" d="M83.9,115.2c-0.4,1.1-0.8,2.2-1.2,3.3l-3-1.1c0.4-1.2,1-2.3,1.6-3.4C82.3,114.1,83.2,114.5,83.9,115.2z"/>
<path class="st66" d="M75.2,114.4v0.8c-0.3,0.5-0.7,0.8-1.4,0.6c-0.7-0.2-1.5-0.5-2.3-0.6l1.8-4.9h0.4
	C74.7,111.5,75.2,112.9,75.2,114.4z"/>
<path class="st57" d="M95.5,122.7c0.3-0.9,0.7-1.8,1.1-2.6c1.1,0.2,2.1,0.6,3,1.1l-0.8,2.7C97.7,123.7,96.5,123.3,95.5,122.7z"/>
<path class="st67" d="M73.4,109.9c-1.6-0.3-2.8-1.5-4.2-2.2c-0.3-0.2-0.6-0.4-1-0.4l-0.4-0.8c1.6-1,2.6-1,3.8,0.2
	C72.5,107.6,73.1,108.7,73.4,109.9z"/>
<path class="st57" d="M112.8,129.4l1.5-3.8c0.7,0,1.3,0.1,1.9,0.4c-0.4,1.5-0.8,3-1.2,4.4L112.8,129.4z"/>
<path class="st59" d="M91.4,118.1c-0.5,0.9-0.5,1.9-1.1,2.8c-0.8,0-1.6-0.3-2.3-0.8c0.4-1,0.8-2,1.2-3
	C89.9,117.4,90.7,117.7,91.4,118.1z"/>
<path class="st68" d="M75.2,114.4c-0.6-1.3-1.1-2.7-1.4-4.1l2.3,1.1L75.2,114.4z"/>
<path class="st18" d="M77.5,88.9c-0.3,0.2-0.4,0.5-0.4,0.8c-0.7,0.5-1.7,0.3-2.2-0.4c0.5-2.1,1.6-3.9,2.3-6c0.5-0.3,0.8,0.1,1.1,0.3
	V84C79.2,85.6,78.8,87.6,77.5,88.9z"/>
<path class="st69" d="M74.9,89.2l2.2,0.4c-0.1,1-0.7,2-1.5,2.6c-0.9,0.2-1.4-0.5-1.8-1.1c-0.1-0.2-0.2-0.3-0.3-0.5
	c-0.5-0.9-0.5-1.2,0.5-1.4C74.3,89.3,74.6,89.2,74.9,89.2z"/>
<path class="st70" d="M73.8,91.2l1.8,1.1v0.4c-0.7,1.1-1.8,1.9-3,2.3C72.7,93.6,73.8,92.5,73.8,91.2z"/>
<path class="st71" d="M78.3,83.6c-0.4,0-0.8-0.1-1.1-0.3c-0.5-0.3-0.9-0.7-0.7-1.3s0.8-0.6,1.4-0.6l0.3,0.3
	C78.2,82.4,78.3,83,78.3,83.6z"/>
<path class="st65" d="M64.8,121.5c-0.1-1.6,0.8-2.9,0.8-4.5c1.5,0.5,2.9,1.3,4.1,2.2c0.7,1.5-0.3,2.4-1.1,3.4L64.8,121.5z"/>
<path class="st72" d="M68.5,122.7c0.1-1.2,1.2-2.1,1.1-3.4c1.4,0,2.5,1,3.7,1.5c0.3,1.1,0,2.2-0.8,3C71.3,123.3,70,122.9,68.5,122.7
	z"/>
<path class="st54" d="M72.7,123.8c0.1-1,0.4-2,0.8-3c1,0.6,2.2,1,3.4,1.1c0.1,0.5-0.1,1.1,0.3,1.5c0.4,0.3,0.5,0.8,0.3,1.2
	c0,0,0,0,0,0c-0.1,0.1-0.1,0.2-0.2,0.2C75.5,124.9,74.2,123.9,72.7,123.8z"/>
<path class="st73" d="M77.1,124.9l-0.1-1.5c0.2-0.4,0.4-0.9,0.9-0.7c1,0.5,2.2,0.6,3,1.4c0.4,0.5,0.4,1.3-0.1,1.7
	c-0.1,0.1-0.2,0.1-0.3,0.2c-1.1-0.2-2.2-0.8-3.3-0.8C77.2,125.1,77.2,125,77.1,124.9z"/>
<path class="st54" d="M76.4,120.4c0.3,0.2,0.4,0.5,0.3,0.8C76.5,121,76.4,120.7,76.4,120.4z"/>
<path class="st11" d="M59.9,185c0.3-0.9,0.7-1.8,1.1-2.6c0-0.4,0.1-0.7,0.2-1c0.5-0.7,0.9-1.4,1.4-2.1c0.3-0.4,0.6-0.8,0.8-1.2
	c0.5-0.8,1.1-1.5,1.6-2.3c0.2-0.3,0.4-0.6,0.6-0.8c0.5-0.6,0.9-1.2,1.4-1.8c0.3-0.4,0.6-0.8,0.9-1.2c0.5-0.6,1-1.1,1.4-1.8
	c0.4-0.4,0.8-0.8,1.2-1.3c0.4-0.6,0.9-1.2,1.4-1.7l0.9-0.9c0.7-0.6,1.1-1.4,2-1.7l0.2-0.1c0.5-0.2,0.8-0.9,1.4-0.5s-0.2,0.9-0.1,1.3
	c-0.2,1-0.6,1.9-1.2,2.7c-0.1,0.3-0.3,0.6-0.5,0.9c-0.6,0.7-1.2,1.5-1.7,2.3c-0.2,0.3-0.4,0.6-0.6,0.8c-0.6,0.9-1.2,1.6-1.8,2.5
	c-0.3,0.3-0.5,0.6-0.8,1c-0.5,0.7-1,1.3-1.5,2c-0.2,0.2-0.3,0.4-0.5,0.6c-0.7,0.6-1.1,1.5-1.7,2.1c-0.3,0.3-0.6,0.6-0.8,0.9
	c-0.5,0.8-1.1,1.5-1.8,2.1c-0.2,0.2-0.4,0.4-0.5,0.6c-0.8,0.7-1.3,1.6-2.4,1.9C60.2,185.7,59.5,185.9,59.9,185z"/>
<path class="st11" d="M63.3,187.6c-0.4,0.1-0.7-0.2-0.7-0.6c0,0,0,0,0,0c0-0.1,0-0.1,0-0.2c0.1-0.8,0.4-1.6,0.8-2.3
	c0.2-0.4,0.5-0.8,0.8-1.2l1.5-2.2c0.2-0.3,0.3-0.6,0.5-0.8c0.7-0.6,1-1.5,1.7-2.1c0.2-0.2,0.4-0.5,0.6-0.8c0.6-0.7,1.1-1.5,1.7-2.2
	c0.3-0.3,0.6-0.6,0.8-0.9c0.4-0.8,1.2-1.2,1.5-2c0.3-0.3,0.5-0.7,0.8-1c0.7-0.6,1.2-1.3,1.8-2.1c0.2-0.2,0.3-0.4,0.5-0.6
	c0.8-0.5,1.2-1.7,2.4-1.6l0.2-0.1c0.4-0.2,0.7-0.8,1.1-0.5s0,0.9-0.1,1.3c0.3,1.2-0.8,1.8-1.1,2.7c-0.1,0.1-0.2,0.3-0.2,0.4
	c-0.6,0.8-1.2,1.6-1.8,2.4c-0.2,0.3-0.5,0.6-0.7,1c-0.5,0.7-1.1,1.4-1.6,2.1c-0.3,0.4-0.6,0.7-0.8,1.1c-0.5,0.6-1,1.2-1.5,1.9
	c-0.3,0.3-0.6,0.6-0.8,0.9c-0.5,0.7-1.1,1.4-1.7,2.1c-0.2,0.2-0.3,0.4-0.5,0.6c-0.5,0.8-1.1,1.5-1.8,2.1c-0.3,0.3-0.6,0.6-0.9,0.9
	C65.1,186.8,64.2,187.4,63.3,187.6z"/>
<path class="st11" d="M58,180.8c0-0.1,0-0.2,0-0.4c0-1.4,0.9-2.3,1.5-3.4c0.3-0.4,0.6-0.8,0.8-1.2c0.5-0.6,0.9-1.3,1.4-1.9
	c0.3-0.4,0.5-0.8,0.8-1.2c0.5-0.6,0.9-1.2,1.4-1.8c0.3-0.4,0.6-0.8,0.9-1.2c0.5-0.6,0.9-1.2,1.4-1.8c0.4-0.4,0.8-0.8,1.1-1.3
	c0.5-0.6,1-1.2,1.6-1.8c0.3-0.3,0.6-0.7,0.8-1.1c0.5-0.5,0.9-1.2,1.7-1.4l2.1-1.1c0,0.8-0.2,1.5-0.6,2.2c-0.1,0.8-0.5,1.6-0.9,2.3
	c-0.2,0.3-0.5,0.7-0.7,1c-0.5,0.7-1,1.4-1.5,2.2c-0.3,0.4-0.6,0.8-0.9,1.1c-0.4,0.6-0.8,1.2-1.2,1.8c-0.4,0.4-0.7,0.8-1,1.3
	c-0.4,0.7-1.1,1.2-1.5,1.8c-0.2,0.3-0.4,0.5-0.6,0.8c-0.7,0.6-1.1,1.4-1.7,2.1c-0.3,0.3-0.5,0.6-0.8,0.9c-0.5,0.7-1,1.3-1.6,1.8
	c-0.4,0.4-0.9,0.7-1.3,0.9C58.2,182.4,58.2,182.4,58,180.8z"/>
<path class="st74" d="M71.9,165.8c0.2-0.8,0.6-1.6,1.2-2.2c0.7,0.2,1.3,0.6,1.8,1.1c-0.5,0.8-1.1,1.4-1.8,1.9
	C72.5,166.7,72,166.4,71.9,165.8z"/>
<path class="st74" d="M77.9,167l-2.2,1.9c-0.4,0-0.7-0.4-0.8-0.8c0.3-0.9,0.8-1.8,1.5-2.6C76.7,166.2,77.7,166.2,77.9,167z"/>
<path class="st75" d="M77.6,170.4l1.5-2.6c0.3,0.1,0.6,0.4,0.8,0.7c-0.2,0.9,0.4,1.7,0.3,2.6c-0.6-0.7-0.9,0.2-1.4,0.1
	C78.2,171.1,77.8,170.8,77.6,170.4z"/>
<path class="st76" d="M71.6,162.5c-0.4,0.6-0.9,1.2-1.5,1.5c-0.5,0-1-0.3-1.1-0.8c0.5-0.6,0.7-1.4,1.4-1.8
	C70.6,161.9,71.3,162,71.6,162.5z"/>
<path class="st77" d="M61.4,168.9c-0.2,0.5-0.6,0.9-1.1,1.1c-0.3-0.2-0.7-0.4-0.6-0.8s0.5-0.3,0.8-0.3S61.1,168.9,61.4,168.9z"/>
<path class="st78" d="M68.5,160.6c-0.2,0.5-0.6,0.9-1.1,1.1c0-0.2-0.1-0.4-0.1-0.5c-0.4-0.8-0.1-1,0.7-0.8
	C68.2,160.4,68.4,160.5,68.5,160.6z"/>
<path class="st79" d="M65.9,163.2c-0.2,0.5-0.6,0.9-1.1,1.1C64.4,163.2,64.4,163.2,65.9,163.2z"/>
<path class="st80" d="M63.3,166.2c-0.1,0.3-0.4,0.6-0.8,0.8C62.1,166.3,62.2,166.3,63.3,166.2z"/>
<path class="st11" d="M78.7,171.1c0.5-0.3,1-0.8,1.5,0v1.5c0.1,0.1,0.1,0.3,0.1,0.5c-0.3,0.8-0.7,1.6-1.3,2.3
	c-0.3,0.5-0.6,0.9-0.9,1.4c-0.5,0.6-0.9,1.3-1.4,1.9c-0.3,0.4-0.6,0.8-0.8,1.2c-0.5,0.6-0.9,1.2-1.4,1.8c-0.3,0.4-0.6,0.8-0.9,1.2
	c-0.5,0.5-1,1.1-1.4,1.7c-0.3,0.3-0.5,0.6-0.8,0.9c-0.5,0.5-1,1.1-1.4,1.7c-0.4,0.5-0.7,0.9-1.2,1.3c-0.6,0.6-1.1,1.2-2.1,1.3
	c-1,0.4-1,0.4-1.1-0.8c0.1-0.8,0.4-1.6,0.9-2.3c0.3-0.4,0.6-0.8,0.8-1.2c0.5-0.7,1-1.5,1.5-2.2c0.2-0.3,0.5-0.6,0.8-0.9
	c0.5-0.7,0.9-1.4,1.4-2.1l0.5-0.6c0.5-0.7,1-1.3,1.5-2c0.2-0.4,0.5-0.7,0.8-1c0.6-0.7,1.1-1.5,1.8-2.1c0.3-0.4,0.6-0.8,0.9-1.2
	c0.7-0.6,1.3-1.3,1.8-2C78.2,171.3,78.4,171.1,78.7,171.1z"/>
<path class="st11" d="M80.2,176.4v3.4c0.1,0.1,0.2,0.3,0.1,0.4c-0.1,0.3-0.2,0.6-0.4,0.9c-0.3,0.6-0.6,1.1-1.1,1.5
	c-0.3,0.5-0.7,1-1.1,1.5c-0.4,0.5-0.8,1-1.1,1.5c-0.3,0.5-0.7,1-1.1,1.5c-0.3,0.3-0.6,0.7-0.8,1.1c-0.5,0.5-0.9,1.1-1.4,1.6
	c-0.5,0.4-0.9,0.9-1.2,1.4c-0.4,0.6-1,1.1-1.7,1.4c-0.7-0.1-1,0.7-1.6,0.6c-0.5-0.6,0.2-1.1,0.1-1.7c0.1-0.7,0.4-1.4,0.8-2
	c0.3-0.4,0.5-0.8,0.8-1.2l1.4-2.1c0.2-0.3,0.4-0.6,0.5-0.9c0.5-0.8,1.1-1.5,1.6-2.2l0.6-0.8c0.4-0.7,1-1.3,1.4-2
	c0.2-0.3,0.5-0.6,0.8-0.9c0.5-0.7,1-1.3,1.5-1.9c0.4-0.4,0.6-1,1.3-1.1C79.8,176.2,80,176.3,80.2,176.4z"/>
<path class="st54" d="M66.7,186.9c-0.1,0.9-0.5,1.6-1.1,2.3c-0.8-0.4-1.6-0.9-2.2-1.5l2.2-1.8C66.4,185.6,66.7,186,66.7,186.9z"/>
<path class="st54" d="M70,189.5c-0.3,0.7-0.6,1.3-1.1,1.9c-0.8-0.4-1.6-0.9-2.3-1.5l1.9-1.5C69.6,188,70,188.5,70,189.5z"/>
<path class="st74" d="M63.7,184.6c-0.2,0.9-0.5,1.6-1.1,2.3l-1.9-1.2c0.6-0.9,1.4-1.6,2.2-2.2C63.5,183.7,63.8,184,63.7,184.6z"/>
<path class="st76" d="M70.4,192.5c0.4-0.6,0.9-1.1,1.5-1.5c0.6-0.1,0.8,0.1,0.8,0.8s-0.5,1-0.8,1.5L70.4,192.5z"/>
<path class="st81" d="M73.8,194c0.2-0.4,0.3-0.9,0.8-1.1c0.2,0.4,0.5,0.8,0.5,1.3C74.6,194.5,74.1,194.4,73.8,194z"/>
<path class="st74" d="M59.9,177.1c-0.3,1.3-1.4,2.2-1.8,3.4c0-0.1,0-0.2,0-0.3c-0.4-0.6-0.4-1.3,0-1.9l-0.3-0.8
	c0.7,0.1,1-0.5,1.5-0.7S59.8,176.8,59.9,177.1z"/>
<path class="st82" d="M69.3,165.1l-1.5,1.9c-0.6,0.1-0.8-0.1-0.8-0.7c0.3-0.6,0.5-1.2,1.1-1.5C68.6,164.5,69,164.7,69.3,165.1
	C69.2,165.1,69.2,165.1,69.3,165.1C69.3,165.1,69.3,165.1,69.3,165.1z"/>
<path class="st83" d="M69.3,165.1l-1.1-0.4c0-0.6,0.6-1,0.8-1.5c0.4,0.2,0.8,0.4,1.1,0.8C70,164.5,69.7,164.9,69.3,165.1z"/>
<path class="st84" d="M62.1,174.1c-0.5,0.6-0.7,1.4-1.5,1.9c-0.4-0.1-0.6-0.3-0.4-0.8s0.5-1.2,1.1-1.5
	C61.8,173.5,62.2,173.4,62.1,174.1z"/>
<path class="st84" d="M64.4,171.1c-0.5,0.6-0.7,1.4-1.5,1.8c-0.4-0.1-0.6-0.3-0.4-0.7l1.1-1.4C64.1,170.6,64.3,170.8,64.4,171.1z"/>
<path class="st84" d="M66.7,168.1c-0.5,0.6-0.7,1.4-1.5,1.8c-0.3-0.1-0.6-0.3-0.4-0.7l1.1-1.5C66.3,167.5,66.5,167.8,66.7,168.1z"/>
<path class="st85" d="M66.7,168.1l-0.8-0.4c0.3-0.5,0.5-1.2,1.1-1.5c0.1,0.3,0.4,0.6,0.8,0.7C67.5,167.5,67.1,167.9,66.7,168.1z"/>
<path class="st86" d="M60.3,175.2l0.4,0.8c0,0.5-0.3,0.9-0.8,1.1l-0.8-0.4C59.4,176.2,59.6,175.5,60.3,175.2z"/>
<path class="st87" d="M64.8,169.3c0.1,0.2,0.3,0.5,0.4,0.7c-0.2,0.4-0.3,0.9-0.8,1.1l-0.8-0.4L64.8,169.3z"/>
<path class="st88" d="M62.5,172.3l0.4,0.7c-0.2,0.4-0.3,0.9-0.8,1.1c-0.2-0.3-0.4-0.4-0.7-0.4C61.7,173.2,62.1,172.7,62.5,172.3z"/>
<path class="st89" d="M58,178.3v1.9c-0.4-0.3-0.9-0.4-1.1-0.8C57.1,178.9,57.5,178.5,58,178.3z"/>
<path class="st87" d="M59.5,181.6c0.2-0.5,0.6-0.9,1.1-1.1c0.6,0.2,0.9,0.4,0.8,1.1c0,0.3-0.2,0.6-0.4,0.8
	C60.5,182.2,60.2,181.6,59.5,181.6z"/>
<path class="st13" d="M89.1,92.7c-2-0.1-3.7-1.1-5.6-1.5c-0.4-1.5,0.4-2.6,1.2-3.7c1.7,1,3.7,1.4,5.2,2.6C90.4,91,90,92.1,89.1,92.7
	z"/>
<path class="st13" d="M121.5,105c-1.8-0.6-3.6-1.3-5.2-2.3c-0.4-1.1,0.1-2.4,1.1-3l5.3,1.8C122.9,102.8,122.4,104.2,121.5,105z"/>
<path class="st13" d="M77.5,88.9c0.5-1.6,0.8-3.2,0.8-4.8c1.1,0.9,2.6,1.2,3.7,2.2c0.3,1.5-0.3,3.1-1.5,4.1
	c-0.7-0.1-1.4-0.3-2.1-0.4C77.9,90,77.5,89.5,77.5,88.9C77.5,88.9,77.5,88.9,77.5,88.9z"/>
<path class="st13" d="M97.4,95.6l-5.6-1.9c-0.4-1.2,0.2-1.9,1.1-2.6c1.8,0.5,3.6,1.3,5.3,2.2C98.3,94.2,98,95,97.4,95.6z"/>
<path class="st13" d="M113.2,101.6c-1.7-0.9-3.7-1.3-5.3-2.2c-0.5-1-0.1-1.7,0.8-2.2c1.8,0.4,3.6,1.1,5.3,1.8
	C114.3,100,113.9,101,113.2,101.6z"/>
<path class="st13" d="M105,98.3c-1.8-0.5-3.5-1.3-5.3-1.9c-0.4-0.7-0.2-1.6,0.5-2.1c0.1-0.1,0.2-0.1,0.3-0.2
	c1.8,0.5,3.6,1.1,5.3,1.9C106.2,96.8,105.9,97.8,105,98.3C105.1,98.2,105.1,98.2,105,98.3L105,98.3z"/>
<path class="st57" d="M80.6,90.3c0.6-1.3,1.1-2.7,1.5-4.1c0.9,0.3,1.8,0.6,2.7,1.2c-0.1,1.3-1,2.4-1.2,3.7L80.6,90.3z"/>
<path class="st90" d="M121.5,105l1.1-3.4c1,0.1,1.9,0.3,2.7,0.8c-0.3,1.3-1.1,2.4-1.2,3.7C123.1,106.1,122.2,105.7,121.5,105z"/>
<path class="st57" d="M113.2,101.6c0.1-0.9,0.4-1.8,0.8-2.6l3.3,0.9l-1.1,3L113.2,101.6z"/>
<path class="st57" d="M92.9,91.2c-0.5,0.8-0.8,1.7-1.1,2.6c-0.9-0.4-1.9-0.4-2.7-1.1c0.3-0.9,0.5-1.8,0.8-2.7
	C91,90.2,92,90.6,92.9,91.2z"/>
<path class="st91" d="M105,98.3c0.3-0.7,0.5-1.5,0.8-2.2c1.1,0.2,2.1,0.6,3,1.1c-0.4,0.7-0.7,1.4-0.8,2.2
	C106.9,99.2,105.9,98.8,105,98.3z"/>
<path class="st62" d="M100.4,94.1c-0.4,0.7-0.7,1.4-0.8,2.2l-2.2-0.7c0-0.8,0.3-1.6,0.8-2.3C99,93.4,99.8,93.7,100.4,94.1z"/>
<path class="st13" d="M109.1,137.3c-1.2-0.7-2.7-0.9-3.8-1.8c-0.4-1.1-0.1-2.3,0.7-3c1.5,0.6,3.1,0.7,4.6,1.5
	C110.9,135.4,110.2,136.4,109.1,137.3z"/>
<path class="st57" d="M109.1,137.3c0.6-1.1,1.1-2.2,1.5-3.4c1.1,0,2.1,0.2,3.1,0.7c-0.2,1.4-0.6,2.8-1.2,4.2
	C111.3,138.4,110.2,137.9,109.1,137.3z"/>
<path class="st57" d="M106,132.5l-0.7,2.9c-1.7-0.3-3.2-1.3-4.9-1.9c-0.4-1,0.1-1.6,0.8-2.2C102.9,131.4,104.4,132.2,106,132.5z"/>
<path class="st25" d="M101.2,131.3l-0.8,2.2c-1.4-0.5-2.8-1.1-4.1-1.8c-0.1-0.8-0.1-1.5,0.7-1.9C98.5,130.1,99.9,130.6,101.2,131.3z
	"/>
<path class="st58" d="M97.1,129.8c-0.4,0.6-0.2,1.4-0.7,1.9c-1.5-0.4-3-1-4.5-1.6c-0.2-0.7,0.1-1.5,0.8-1.8L97.1,129.8z"/>
<path class="st25" d="M80.6,126.1c0.3-0.6,0.4-1.2,0.4-1.9c1.6,0.2,2.9,1.2,4.4,1.5c0.2,0.7-0.1,1.5-0.8,1.8L80.6,126.1z"/>
<path class="st92" d="M92.6,128.4c-0.2,0.6-0.5,1.2-0.8,1.8c-1.1-0.6-2.5-0.5-3.4-1.5c-0.3-0.6-0.6-1.2,0.4-1.5
	C90.1,127.4,91.4,127.8,92.6,128.4z"/>
<path class="st58" d="M88.8,127.2c-0.5,0.4-0.3,1-0.4,1.5c-1.3-0.2-2.6-0.6-3.7-1.1c0.1-0.7,0.4-1.3,0.8-1.8
	C86.6,126.1,87.7,126.6,88.8,127.2z"/>
<path class="st92" d="M148.5,115.1c-0.8,0.5-1.3,1.4-2.3,1.6c-0.9-0.2-1.1-0.7-0.8-1.5c0.7-0.6,1.4-1,2.3-1.2
	C148.6,114,148.6,114.5,148.5,115.1z"/>
<path class="st93" d="M165.1,104.3c-0.7,0.6-1.4,1.2-2.3,1.5c-0.6-0.2-0.9-0.8-0.8-1.4c0,0,0,0,0,0l0,0l2.2-1.5
	c0.6,0.1,1,0.7,0.9,1.4C165.1,104.2,165.1,104.2,165.1,104.3C165.1,104.2,165.1,104.2,165.1,104.3z"/>
<path class="st94" d="M165.1,104.3l-0.8-1.5c0.5-0.6,1.2-1,1.9-1.2c0.4,0.4,0.7,1,0.8,1.6C166.5,103.8,165.8,104.2,165.1,104.3z"/>
<path class="st95" d="M145.4,115.2c0.1,0.6,0.4,1.1,0.8,1.5c-0.3,0.6-0.9,1.1-1.5,1.4c-0.4-0.6-0.8-1.2-1.2-1.8L145.4,115.2z"/>
<path class="st93" d="M152.6,112.2c-0.7,0.5-1.3,1.4-2.3,1.5c-0.8,0-0.9-0.5-0.8-1.1c0.7-0.6,1.4-1,2.3-1.2
	C152.5,111.4,152.8,111.6,152.6,112.2z"/>
<path class="st95" d="M162,104.3l0.8,1.4c-0.8,0.3-1.3,1-2.2,1.1c-0.4-0.2-0.6-0.7-0.5-1.1C160.5,105.1,161.4,104.8,162,104.3z"/>
<path class="st96" d="M160.1,105.8c0.2,0.4,0.3,0.7,0.5,1.1c-0.5,0.9-1.5,1-2.3,1.5c-0.4-0.2-0.6-0.7-0.4-1.1
	C158.5,106.7,159.3,106.2,160.1,105.8z"/>
<path class="st97" d="M156.4,109.5c-0.6,0.7-1.3,1.3-2.2,1.5c-0.6-0.2-0.8-0.6-0.5-1.1l2.3-1.5C156.5,108.6,156.8,109,156.4,109.5z"
	/>
<path class="st98" d="M149.6,112.6c0.2,0.4,0.4,0.8,0.8,1.1c-0.5,0.6-1.1,1.1-1.8,1.4c-0.2-0.4-0.5-0.8-0.8-1.1
	C148.2,113.3,149,113.1,149.6,112.6z"/>
<path class="st99" d="M156.4,109.5l-0.4-1.1l1.9-1.2l0.4,1.1C157.7,108.9,157.2,109.5,156.4,109.5z"/>
<path class="st100" d="M153.7,109.9c0.1,0.4,0.3,0.7,0.5,1.1c-0.4,0.5-0.9,0.9-1.5,1.1c-0.1-0.3-0.4-0.6-0.7-0.8
	C152.3,110.7,153.1,110.4,153.7,109.9z"/>
<path class="st25" d="M156,131.7c0.8-0.6,1.7-1.2,2.7-1.6c1,0.1,1.1,0.8,1.1,1.6c-0.7,0.8-1.6,1.4-2.6,1.8c-0.7,0-1.3-0.6-1.3-1.3
	C155.9,132.1,155.9,131.9,156,131.7z"/>
<path class="st25" d="M172.9,120.9c0.8-0.8,1.6-1.5,2.6-2c0.8,0.2,1.3,1,1.2,1.8c0,0,0,0,0,0l0,0c-1,0.4-1.8,1.4-3,1.6
	C173,122.1,172.5,121.7,172.9,120.9z"/>
<path class="st101" d="M160.1,129.4c0.9-0.8,1.9-1.4,3-1.8c0.6,0.2,0.9,0.9,0.8,1.5c-0.9,0.5-1.6,1.3-2.6,1.6
	C160.4,130.6,160,130.3,160.1,129.4z"/>
<path class="st92" d="M168.4,124.2c0.7-0.8,1.7-1.5,2.7-1.9c0.8,0,0.9,0.6,1.1,1.2c-0.9,0.7-1.9,1.4-3,1.8
	C168.6,125.1,168.2,124.9,168.4,124.2z"/>
<path class="st92" d="M164.2,126.8c0.8-0.7,1.7-1.3,2.6-1.9c0.6,0.2,1,0.8,0.8,1.4c0,0,0,0.1,0,0.1c-0.9,0.5-1.6,1.3-2.6,1.6
	C164.2,128,163.9,127.6,164.2,126.8z"/>
<path class="st93" d="M179.3,125c-0.8,0.6-1.7,1-2.6,1.4c-0.5-0.2-0.8-0.6-0.8-1.2c0.6-0.8,1.3-1.4,2.2-1.8
	C178.8,123.7,179.2,124.3,179.3,125z"/>
<path class="st94" d="M179.3,125c-0.6-0.3-0.8-1-1.1-1.6c0.3-0.5,0.7-0.9,1.2-1.1c0.8,0.4,1,1.3,1.5,1.9
	C180.4,124.6,179.9,124.9,179.3,125z"/>
<path class="st102" d="M156,131.7c0.2,0.7,0.6,1.3,1.2,1.8c-0.3,0.5-0.7,0.9-1.2,1.1c-0.9-0.5-1-1.5-1.5-2.3
	C154.9,132,155.4,131.7,156,131.7z"/>
<path class="st95" d="M175.9,125.3c0.4,0.3,0.6,0.7,0.8,1.2c-0.8,0.6-1.7,1.1-2.6,1.5c-0.4-0.2-0.6-0.6-0.4-1l0,0
	C174.4,126.2,174.9,125.5,175.9,125.3z"/>
<path class="st99" d="M172.1,123.5c-0.6-0.2-0.6-0.9-1.1-1.2c0.5-0.6,1.1-1.1,1.8-1.4c0,0.6,0.6,0.9,0.8,1.5
	C173.4,123,172.7,123.1,172.1,123.5z"/>
<path class="st95" d="M158.2,138.8c-0.3-0.5-0.5-1.2-1.1-1.5c0.6-0.6,1.4-1,2.2-1.1c0.4,0.2,0.7,0.6,0.8,1.1L158.2,138.8z"/>
<path class="st97" d="M160.1,137.3c-0.4-0.2-0.7-0.6-0.8-1.1c0.5-0.6,1.2-1,2-1.1c0.6-0.1,0.6,0.4,0.7,0.8
	C161.6,136.6,160.8,136.9,160.1,137.3z"/>
<path class="st103" d="M160.1,129.4c0.2,0.5,0.6,0.9,1.1,1.2c-0.3,0.6-0.8,1-1.5,1.1l-1.1-1.6C159,129.7,159.6,129.5,160.1,129.4z"
	/>
<path class="st104" d="M176.7,120.8l-1.2-1.8c0.2-0.3,0.4-0.6,0.8-0.8c0.8,0.4,1,1.3,1.5,1.9C177.5,120.4,177.1,120.7,176.7,120.8z"
	/>
<path class="st96" d="M173.7,126.8l0.4,1.1c-0.6,0.5-1.2,0.9-1.9,1.2c-0.6,0.1-0.8-0.2-0.7-0.8L173.7,126.8z"/>
<path class="st99" d="M167.6,126.4c-0.2-0.5-0.5-1-0.8-1.5c0.5-0.2,0.9-0.8,1.5-0.8l0.8,1.2L167.6,126.4z"/>
<path class="st105" d="M166.2,132.9c-0.7,0.7-1.4,1.3-2.3,1.8c-0.5-0.2-0.7-0.5-0.4-1.1l2.3-1.5C166,132.3,166.2,132.6,166.2,132.9z
	"/>
<path class="st106" d="M163.5,133.6c0.1,0.4,0.3,0.7,0.4,1.1l-1.9,1.2l-0.7-0.8C161.9,134.4,162.7,133.9,163.5,133.6z"/>
<path class="st107" d="M171.4,128.3c0.2,0.3,0.4,0.6,0.7,0.8c-0.7,0.6-1.4,1.1-2.2,1.5c-0.4-0.1-0.6-0.4-0.4-0.8
	C170,129.1,170.8,128.8,171.4,128.3z"/>
<path class="st105" d="M169.5,129.8l0.4,0.8l-2.2,1.5c-0.3-0.2-0.4-0.5-0.4-0.8C168,130.7,168.7,130.2,169.5,129.8z"/>
<path class="st108" d="M164.2,126.8c0,0.5,0.3,0.9,0.8,1.2c-0.2,0.5-0.6,0.8-1.1,1.1c-0.3-0.5-0.8-0.9-0.8-1.5
	C163.4,127.2,163.8,127,164.2,126.8z"/>
<path class="st100" d="M167.3,131.3c0.3,0.2,0.4,0.5,0.4,0.8c-0.5,0.3-0.9,0.8-1.5,0.9c-0.3-0.2-0.4-0.5-0.4-0.8L167.3,131.3z"/>
<path class="st25" d="M151.5,119c-0.9,0.9-1.9,1.6-2.9,2.2c-0.7-0.4-1.2-0.9-0.9-1.8l3.1-1.6C151.3,117.9,151.6,118.5,151.5,119z"/>
<path class="st25" d="M168.4,108.4c-1,0.6-2,1.1-3,1.6c-0.6-0.2-1-0.5-0.8-1.2c0.7-0.8,1.6-1.4,2.6-1.8
	C168.2,106.9,168.4,107.6,168.4,108.4z"/>
<path class="st97" d="M155.6,116.3l-3,1.9c-0.4-0.2-0.7-0.7-0.8-1.2c1-0.8,2.1-1.4,3.3-1.8C155.6,115.3,155.8,115.8,155.6,116.3
	C155.7,116.3,155.7,116.3,155.6,116.3L155.6,116.3z"/>
<path class="st93" d="M163.9,111c-1,0.4-1.8,1.4-3,1.6c-0.7,0.1-0.7-0.4-0.8-0.8c0.9-0.8,1.9-1.4,2.9-1.8
	C163.7,110,164.1,110.3,163.9,111z"/>
<path class="st97" d="M159.4,113.6c-0.8,0.7-1.7,1.3-2.7,1.9c-0.4-0.2-0.9-0.4-0.7-1.1c1-0.6,2-1.2,2.9-1.8
	C159.5,112.8,159.7,113.1,159.4,113.6z"/>
<path class="st64" d="M147.7,119.3c0.3,0.6,0.6,1.2,0.9,1.8c-0.3,0.5-0.7,0.8-1.2,1.1c-0.2-0.8-0.9-1.4-1.2-2.2L147.7,119.3z"/>
<path class="st64" d="M168.4,108.4l-1.1-1.5c0.2-0.5,0.7-0.9,1.2-1.1c0.5,0.6,0.8,1.2,1.1,1.9C169.2,108,168.8,108.3,168.4,108.4z"
	/>
<path class="st109" d="M163.9,111l-0.8-1.1c0.3-0.6,0.9-1,1.5-1.1l0.8,1.2L163.9,111z"/>
<path class="st100" d="M151.9,117c0.4,0.2,0.7,0.7,0.8,1.2c-0.2,0.4-0.7,0.7-1.2,0.8c-0.3-0.3-0.6-0.8-0.8-1.2
	C151.1,117.4,151.5,117.2,151.9,117z"/>
<path class="st109" d="M159.4,113.6c-0.1-0.4-0.3-0.7-0.4-1.1c0.3-0.3,0.7-0.6,1.2-0.8c0.3,0.3,0.5,0.5,0.8,0.8
	C160.6,113.2,160,113.4,159.4,113.6z"/>
<path class="st108" d="M156,114.4c0.2,0.4,0.5,0.7,0.7,1.1l-1.1,0.8l-0.5-1.1C155.3,114.8,155.6,114.6,156,114.4z"/>
<path class="st101" d="M171.1,112.2c-0.9,0.7-1.9,1.3-3,1.8c-0.5-0.2-0.9-0.4-0.7-1.1l3-2.2C170.9,111,171.3,111.4,171.1,112.2z"/>
<path class="st92" d="M154.2,122.7c-0.8,1-1.8,1.7-3,2.2c-0.7-0.2-1.2-0.6-0.8-1.5l3.1-1.6C154.1,121.8,154.1,122.3,154.2,122.7z"/>
<path class="st110" d="M158.3,120c-1,0.7-1.8,1.6-3,1.9c-0.6,0-0.6-0.3-0.4-0.8c0.8-0.8,1.9-1.5,3-1.9
	C158.2,119.4,158.4,119.6,158.3,120z"/>
<path class="st110" d="M166.5,114.8c-1,0.8-2.1,1.5-3.3,1.9c-0.2-0.1-0.3-0.4-0.2-0.7c0,0,0,0,0,0l0.1-0.1c0.8-0.8,1.7-1.5,2.7-1.9
	C166.4,114,166.7,114.2,166.5,114.8z"/>
<path class="st111" d="M162.1,117.4c-0.8,0.9-1.8,1.6-3,1.9c-0.2,0-0.4-0.2-0.4-0.5c0.9-0.8,1.9-1.6,3-2.2
	C162,116.8,162.2,117,162.1,117.4z"/>
<path class="st112" d="M150.3,123.5c0,0.6,0.6,1,0.8,1.5c-0.3,0.5-0.7,0.8-1.2,1c0-0.7-0.8-1.1-0.8-1.8
	C149.5,123.8,149.9,123.6,150.3,123.5z"/>
<path class="st113" d="M171.1,112.2l-0.8-1.5l0.8-0.5c0.5,0.4,0.9,0.9,1.1,1.6C171.8,112,171.4,112.1,171.1,112.2z"/>
<path class="st106" d="M166.5,114.8c-0.1-0.3-0.4-0.6-0.7-0.8c0.4-0.4,0.9-0.8,1.5-1.1l0.7,1.1L166.5,114.8z"/>
<path class="st114" d="M154.9,121.2c0,0.3,0.2,0.6,0.4,0.8c-0.2,0.4-0.6,0.7-1.1,0.8l-0.8-0.8C153.8,121.5,154.3,121.2,154.9,121.2z
	"/>
<path class="st115" d="M162.1,117.4c-0.1-0.2-0.3-0.5-0.4-0.8c0.5-0.2,0.8-0.8,1.5-0.8c0,0.3,0.1,0.5,0.1,0.8
	C163,117.1,162.6,117.4,162.1,117.4z"/>
<path class="st116" d="M158.6,118.9l0.4,0.5c-0.2,0.3-0.4,0.6-0.8,0.7l-0.4-0.8C158,119,158.3,118.9,158.6,118.9z"/>
<path class="st92" d="M152.6,127.5c1.1-0.7,2.2-1.3,3.4-1.8c0.6,0.3,1.2,0.6,0.8,1.5c-0.7,0.9-1.6,1.5-2.7,1.9
	C153.1,129.1,152.8,128.3,152.6,127.5z"/>
<path class="st92" d="M169.9,117c0.8-0.9,1.9-1.7,3-2.2c0.7,0.2,1.2,0.8,1.1,1.5c-1.1,0.7-2.2,1.3-3.3,1.8
	C170.1,118,169.9,117.6,169.9,117z"/>
<path class="st93" d="M157.1,125l3.3-1.9c0.5,0.2,0.8,0.8,0.6,1.3c0,0.1,0,0.1-0.1,0.2l-3,1.9C157.3,126.3,157,125.6,157.1,125z"/>
<path class="st97" d="M165.4,120c1-0.9,2.1-1.7,3.3-2.2c0.4,0.1,0.6,0.6,0.5,1c0,0,0,0.1,0,0.1c-0.8,0.9-1.8,1.5-3,1.8
	C165.4,121,165.4,120.5,165.4,120z"/>
<path class="st117" d="M161.2,122.7c0.9-0.8,1.9-1.4,3-1.9c0.4,0.1,0.8,0.4,0.8,0.9c-1,0.9-2.1,1.6-3.3,2.2
	C161.3,123.7,161.1,123.2,161.2,122.7C161.2,122.8,161.2,122.8,161.2,122.7L161.2,122.7z"/>
<path class="st103" d="M152.6,127.5c0.7,0.3,0.8,1.3,1.5,1.6c-0.2,0.6-0.8,1-1.4,1.1c-0.1-0.9-0.9-1.4-1.2-2.2L152.6,127.5z"/>
<path class="st99" d="M169.2,119c-0.2-0.4-0.3-0.8-0.5-1.2c0.3-0.4,0.7-0.7,1.2-0.8c0.3,0.3,0.6,0.8,0.8,1.2
	C170.3,118.6,169.8,118.9,169.2,119z"/>
<path class="st64" d="M157.1,125c0.2,0.5,0.8,0.9,0.8,1.5c-0.3,0.3-0.7,0.6-1.1,0.7c0-0.6-0.6-1-0.8-1.5L157.1,125z"/>
<path class="st104" d="M174,116.3l-1.1-1.5c0.2-0.3,0.4-0.6,0.8-0.7l1.1,1.8L174,116.3z"/>
<path class="st112" d="M165,121.6c-0.3-0.2-0.6-0.5-0.8-0.9c0.2-0.4,0.6-0.7,1.1-0.8l0.8,0.8C165.9,121.3,165.5,121.6,165,121.6z"/>
<path class="st118" d="M161.2,122.7c0.2,0.4,0.3,0.8,0.5,1.2c-0.2,0.3-0.5,0.6-0.8,0.7c-0.1-0.5-0.3-1-0.5-1.5
	C160.6,122.8,160.9,122.7,161.2,122.7z"/>
<path class="st119" d="M124.5,167.4c0.6,2.1,0.9,4.2,1,6.4c0.3,2.6,0.5,5.2,0.5,7.8c0,1.2,0.2,2.3,0.2,3.5c0,0.8-0.4,1.1-1.1,1
	c-0.3-0.1-0.6-0.2-0.9-0.2c-3.4-0.4-2.6-0.5-2.3-3.1C122.7,177.6,123.7,172.5,124.5,167.4z"/>
<path class="st86" d="M72.7,191.8c-0.1-0.3-0.4-0.6-0.8-0.8c0.1-0.7,0.5-1.2,1.1-1.5c0.4,0,0.6,0.4,0.8,0.7L72.7,191.8z"/>
<path class="st120" d="M73.8,190.3c-0.3-0.1-0.6-0.4-0.8-0.7c0.3-0.6,0.9-1.2,1.5-1.5c0.2,0,0.4,0.2,0.4,0.4
	C74.5,189.1,74.2,189.6,73.8,190.3z"/>
<path class="st121" d="M78.7,182.4l1.1-1.5c0.1,0,0.3,0.1,0.3,0.2l0.1,0.2v0.8l-1.1,0.8C78.7,182.9,78.5,182.8,78.7,182.4z"/>
<path class="st122" d="M78.7,182.4l0.4,0.4c-0.3,0.6-0.5,1.2-1.1,1.5c-0.3,0.1-0.5,0-0.4-0.4L78.7,182.4z"/>
<path class="st123" d="M75.3,186.9l1.2-1.5c0.3-0.1,0.5,0,0.4,0.4c-0.3,0.6-0.5,1.2-1.1,1.5C75.5,187.3,75.3,187.1,75.3,186.9z"/>
<path class="st124" d="M75.3,186.9l0.4,0.4c-0.2,0.4-0.4,0.9-0.8,1.1l-0.4-0.4C74.5,187.5,74.8,187.1,75.3,186.9z"/>
<path class="st125" d="M76.8,185.7l-0.4-0.4l1.1-1.5l0.4,0.4L76.8,185.7z"/>
<path class="st126" d="M82,177.5l1.1-1.9c0.7-0.1,1,0.2,1.1,0.8c-0.6,0.5-0.7,1.4-1.5,1.8C82.4,178.2,81.9,178.2,82,177.5z"/>
<path class="st127" d="M82,177.5l0.8,0.7c-0.4,0.6-0.9,1.2-1.5,1.5c-0.2,0-0.4-0.2-0.4-0.4C81,178.6,81.4,178,82,177.5z"/>
<path class="st64" d="M84.3,176.4l-1.1-0.8c0.1-0.4,0.4-0.8,0.7-1.1c0.3,0.4,1,0.6,1.2,1.1C84.9,176,84.7,176.2,84.3,176.4z"/>
<path class="st128" d="M80.9,179.4l0.4,0.4c-0.1,0.7-0.5,1.2-1.2,1.5h-0.1c-0.2-0.3-0.2-0.8,0-1.1c0-0.1,0-0.3,0.1-0.4L80.9,179.4z"
	/>
<path class="st75" d="M80.2,176.4h-0.3c-0.5-0.2-1-0.6-1.1-1.1l1.4-2.3c0.2,0.1,0.3,0.3,0.4,0.5c0.1,0.7,0,1.5-0.3,2.1L80.2,176.4z"
	/>
<path class="st129" d="M80.2,175.6v-2.3c0.8-0.3,1.1,0,1.1,0.8C80.9,174.6,80.6,175.1,80.2,175.6z"/>
<path class="st130" d="M81.3,174.1c-0.2-0.4-0.6-0.7-1.1-0.8c0-0.1,0-0.2-0.1-0.4c0-0.1,0.1-0.2,0.1-0.3l0.4-0.1
	c0.6,0,1,0.6,1.5,0.8C81.9,173.7,81.7,174,81.3,174.1z"/>
<path class="st74" d="M61.4,181.6l-0.8-1.1l1.5-1.9c0.6-0.1,0.8,0.1,0.8,0.7C62.7,180.3,62.2,181.1,61.4,181.6z"/>
<path class="st74" d="M69.7,168.8l1.5-2.2c0.6-0.1,1.2-0.1,1.1,0.8l-1.5,1.9C70.4,169.4,69.9,169.2,69.7,168.8z"/>
<path class="st84" d="M75.3,169.3c-0.4,0.9-1,1.7-1.8,2.2c-0.4,0.2-0.6-0.1-0.8-0.4c0.6-0.8,0.9-1.8,1.8-2.2
	C74.9,168.6,75.2,168.9,75.3,169.3z"/>
<path class="st74" d="M65.9,181.3c-0.4,0.8-0.9,1.6-1.5,2.2c-0.4,0.2-0.9,0-1.1-0.4l1.9-2.2C65.6,180.7,65.8,180.9,65.9,181.3z"/>
<path class="st84" d="M62.9,177.9c0.6-0.8,0.9-1.8,1.8-2.2c0.3,0,0.6,0.2,0.8,0.4c-0.5,0.8-1.1,1.6-1.8,2.2
	C63.2,178.4,63.1,178.2,62.9,177.9z"/>
<path class="st131" d="M67.8,171.9c0.2-0.7,0.6-1.4,1.2-1.9c0.4-0.2,0.8-0.3,0.7,0.4c-0.3,0.8-0.8,1.5-1.5,1.9
	C67.8,172.4,67.7,172.2,67.8,171.9z"/>
<path class="st132" d="M65.2,174.9l1.5-1.9c0.4-0.2,0.8-0.3,0.7,0.4c-0.5,0.6-0.7,1.5-1.5,1.9C65.5,175.4,65.3,175.1,65.2,174.9z"/>
<path class="st133" d="M68.2,178.2c-0.6,0.8-0.9,1.8-1.8,2.3c-0.2,0-0.4-0.2-0.4-0.4c0.6-0.8,0.9-1.8,1.8-2.2
	C68,177.9,68.1,178,68.2,178.2z"/>
<path class="st75" d="M72.7,172.3c0,1-1.2,1.4-1.5,2.2c-0.2,0.2-0.5,0.2-0.7,0.1c0,0,0,0,0,0c0,0,0,0,0-0.1c0.5-0.9,1.1-1.8,1.8-2.6
	C72.5,171.9,72.6,172.1,72.7,172.3z"/>
<path class="st134" d="M70.4,175.3c-0.6,0.8-0.9,1.8-1.8,2.2c-0.1,0.1-0.2,0.1-0.3,0.1c0,0,0,0-0.1-0.1c0.4-0.8,0.9-1.6,1.5-2.2
	C69.9,175.1,70.2,175.1,70.4,175.3L70.4,175.3z"/>
<path class="st135" d="M72.3,167.4c-0.3-0.4-0.7-0.5-1.1-0.8c0.1-0.4,0.4-0.6,0.8-0.8c0.4,0.2,0.9,0.4,1.1,0.8
	C72.9,166.9,72.6,167.2,72.3,167.4z"/>
<path class="st136" d="M69.7,170.4c-0.2-0.3-0.4-0.4-0.7-0.4l0.7-1.1l1.1,0.4C70.5,169.7,70.2,170.1,69.7,170.4z"/>
<path class="st137" d="M63.3,183.1l1.1,0.4c-0.2,0.4-0.3,0.9-0.7,1.1l-0.8-1.1L63.3,183.1z"/>
<path class="st138" d="M62.9,177.9l0.8,0.4c0,0.5-0.3,0.9-0.7,1.1c-0.2-0.3-0.4-0.6-0.8-0.7C62.3,178.3,62.6,178,62.9,177.9z"/>
<path class="st136" d="M67.4,173.4c-0.2-0.3-0.4-0.4-0.7-0.4c0.2-0.5,0.6-0.9,1.1-1.1l0.4,0.4C67.9,172.6,67.8,173.1,67.4,173.4z"/>
<path class="st139" d="M75.3,169.3l-0.8-0.4c0-0.3,0.1-0.6,0.4-0.8c0.3,0.1,0.6,0.4,0.8,0.8L75.3,169.3z"/>
<path class="st140" d="M65.9,180.1l0.4,0.4c0,0.3-0.1,0.6-0.4,0.8l-0.7-0.4C65.3,180.5,65.6,180.2,65.9,180.1z"/>
<path class="st141" d="M65.2,174.9l0.7,0.4l-0.4,0.8c-0.3,0-0.6-0.1-0.8-0.4L65.2,174.9z"/>
<path class="st142" d="M72.7,172.3l-0.4-0.4l0.4-0.8l0.8,0.4C73.3,171.8,73,172.1,72.7,172.3z"/>
<path class="st143" d="M70.4,175.3h-0.7c0.1-0.4,0.4-0.7,0.7-0.8h0.7C71,174.8,70.7,175.1,70.4,175.3z"/>
<path class="st144" d="M68.2,177.5h0.4c0,0.3-0.1,0.6-0.4,0.8l-0.4-0.4L68.2,177.5z"/>
<path class="st74" d="M68.9,183.5c-0.2,0.9-0.8,1.7-1.5,2.2c-0.7,0.1-1.2,0.1-1.1-0.8l1.8-2.2C68.5,182.8,68.8,183.1,68.9,183.5z"/>
<path class="st131" d="M78.3,171.5c-0.2,1.1-1.1,1.6-1.8,2.2c-0.3,0-0.6-0.1-0.8-0.4c0.4-1,1-1.9,1.8-2.6
	C77.9,170.8,78.2,171.1,78.3,171.5z"/>
<path class="st145" d="M71.2,180.5c-0.4,0.8-0.9,1.6-1.5,2.2c-0.4,0.2-0.9,0-1.1-0.4c0.5-0.8,1.1-1.6,1.8-2.2
	C70.8,179.9,71,180.2,71.2,180.5z"/>
<path class="st84" d="M75.7,174.9c-0.5,0.8-1.1,1.6-1.8,2.3c-0.4-0.1-0.6-0.3-0.4-0.8c0.4-0.8,0.9-1.6,1.5-2.3
	C75.5,174,75.8,174.2,75.7,174.9z"/>
<path class="st145" d="M73.1,177.9c-0.1,1-1,1.5-1.5,2.2c-0.4-0.1-0.6-0.3-0.4-0.8c0.3-0.8,0.8-1.5,1.5-1.9
	C73,177.4,73.1,177.5,73.1,177.9z"/>
<path class="st146" d="M66.3,185c0.3,0.4,0.7,0.6,1.1,0.8c0,0.5-0.3,0.9-0.7,1.1c-0.3-0.5-0.7-0.9-1.2-1.1
	C65.7,185.4,65.9,185.1,66.3,185z"/>
<path class="st147" d="M75.7,174.9c-0.1-0.3-0.4-0.6-0.7-0.8c0.1-0.3,0.4-0.6,0.7-0.8c0.3,0,0.6,0.2,0.8,0.4
	C76.2,174.1,76.1,174.6,75.7,174.9z"/>
<path class="st148" d="M68.5,182.4l1.1,0.4c-0.1,0.3-0.4,0.6-0.7,0.8c-0.4-0.1-0.6-0.4-0.8-0.8L68.5,182.4z"/>
<path class="st149" d="M73.1,177.9l-0.4-0.4c0-0.5,0.3-0.9,0.7-1.1l0.4,0.8C73.7,177.5,73.4,177.7,73.1,177.9z"/>
<path class="st150" d="M78.3,171.5c-0.4-0.2-0.6-0.4-0.8-0.8v-0.4c0.5,0,1,0.3,1.2,0.8L78.3,171.5z"/>
<path class="st151" d="M71.2,179.4l0.4,0.8l-0.4,0.4l-0.7-0.4C70.5,179.8,70.8,179.5,71.2,179.4z"/>
<path class="st131" d="M72.3,186.1c-0.4,0.8-0.9,1.6-1.5,2.2c-0.7-0.1-1.2-0.2-1.2-1.1c0.2-0.8,0.7-1.5,1.5-1.9
	C71.8,185.2,72.1,185.6,72.3,186.1z"/>
<path class="st152" d="M74.5,183.1c-0.5,0.8-1.1,1.6-1.8,2.2c-0.4,0-0.7-0.4-0.8-0.8c0.1-0.9,0.8-1.4,1.5-1.9
	C74,182.4,74.3,182.7,74.5,183.1z"/>
<path class="st84" d="M76.4,180.2c-0.1,1-1,1.5-1.5,2.2c-0.6,0.1-0.9-0.1-0.8-0.7c0.5-0.6,0.7-1.5,1.5-1.9
	C76.1,179.6,76.3,179.8,76.4,180.2z"/>
<path class="st153" d="M78.7,177.5l-1.5,1.9c-0.4-0.1-0.9,0-0.8-0.7c0.5-0.6,0.7-1.5,1.5-1.9C78.5,176.6,78.8,176.9,78.7,177.5z"/>
<path class="st154" d="M69.6,187.2c0.2,0.6,0.9,0.6,1.2,1.1c-0.2,0.4-0.3,0.9-0.8,1.1c-0.3-0.6-0.8-1-1.5-1.1
	C68.8,187.9,69.1,187.5,69.6,187.2z"/>
<path class="st87" d="M78.7,177.5c-0.1-0.3-0.4-0.6-0.8-0.8c0-0.6,0.5-1,0.8-1.5c0.5,0.2,0.9,0.6,1.1,1.1
	C79.2,176.5,79.2,177.2,78.7,177.5z"/>
<path class="st155" d="M71.9,184.6c0.3,0.2,0.6,0.4,0.8,0.8c0,0.3-0.2,0.6-0.4,0.8l-1.1-0.7C71.3,185,71.6,184.8,71.9,184.6z"/>
<path class="st87" d="M76.4,178.6l0.8,0.7c-0.1,0.4-0.4,0.6-0.8,0.8l-0.8-0.4C75.8,179.3,76.1,178.9,76.4,178.6z"/>
<path class="st136" d="M74.2,181.6c0.2,0.3,0.4,0.6,0.8,0.7l-0.4,0.8l-1.1-0.4C73.6,182.4,73.7,181.9,74.2,181.6z"/>
<path class="st75" d="M80.1,180.1v1.1l-0.3-0.4C79.8,180.6,79.9,180.3,80.1,180.1z"/>
<rect class="st156" width="250" height="250"/>
<g>
	<path class="st157" d="M112.3,168.7c0.1-0.5,0.3-0.8,0.5-1c0.2-0.2,0.5-0.3,0.8-0.3c0.3,0,0.6,0.1,0.8,0.4c0.2,0.3,0.4,0.6,0.4,1.1
		c-0.2,1.6-0.5,3.1-0.9,4.7c-0.4,1.6-0.8,3.1-1.3,4.6c-0.5,1.4-0.9,2.8-1.3,4.2c-0.4,1.4-0.8,2.8-1.4,4.1c-0.3,0.4-0.7,0.7-1.1,0.7
		c-0.6,0-0.9-0.3-1.1-0.8l-1.7-5.6c-0.2-0.5-0.3-1-0.4-1.5s-0.3-0.9-0.4-1.3c-0.1-0.4-0.3-0.9-0.4-1.3s-0.3-1-0.5-1.5
		c-0.2,0.6-0.4,1.3-0.6,2c-0.2,0.7-0.4,1.3-0.6,1.9c-0.5,1.6-0.9,3.1-1.3,4.3c-0.4,1.2-0.8,2.3-1.2,3.2c-0.3,0.4-0.7,0.7-1.1,0.7
		c-0.6,0-1-0.3-1.2-1c-0.5-2.3-1-4.4-1.6-6.5c-0.6-2.1-1.2-4.1-1.8-6.1c-0.2-0.7-0.4-1.3-0.6-2c-0.2-0.7-0.5-1.4-0.7-2.1
		c-0.1-0.3-0.2-0.6-0.2-0.8c0-0.4,0.1-0.7,0.3-1c0.2-0.3,0.5-0.4,0.8-0.4c0.2,0,0.4,0.1,0.6,0.2c0.2,0.1,0.4,0.4,0.6,0.7
		c0.2,0.6,0.5,1.4,0.8,2.2c0.3,0.8,0.5,1.7,0.8,2.6c0.3,1,0.6,1.9,0.8,2.6c0.2,0.7,0.4,1.4,0.6,2c0.2,0.6,0.4,1.2,0.5,1.8
		c0.2,0.6,0.3,1.2,0.5,1.9c0.6-2,1.2-3.9,1.7-5.8c0.5-1.9,1-3.9,1.4-5.9c0.3-0.6,0.7-0.9,1.2-0.9c0.5,0,0.9,0.3,1.1,0.8
		c0.3,1.1,0.7,2.1,0.9,3.1c0.3,1,0.6,2,0.9,2.9c0.2,0.6,0.3,1.2,0.5,1.7s0.3,1,0.4,1.5c0.1,0.5,0.3,1,0.5,1.5s0.3,1.1,0.5,1.7
		c0.3-1.1,0.7-2.2,1-3.3c0.3-1.1,0.7-2.2,1-3.3c0.3-1.1,0.6-2.2,0.8-3.3S112.1,169.9,112.3,168.7z"/>
	<path class="st157" d="M128.8,185.4c0,0.5-0.2,0.9-0.4,1.2s-0.5,0.4-0.8,0.4c-0.2,0-0.5-0.1-0.7-0.2c-0.2-0.2-0.4-0.4-0.5-0.8
		c-0.1-0.9-0.2-1.9-0.4-2.8c-0.2-0.9-0.4-1.8-0.7-2.8c-1.1,0-2.1,0-3.2,0c-1.1,0-2.1,0-3.2,0h-0.1c-0.2,0.9-0.4,1.7-0.6,2.5
		c-0.2,0.8-0.3,1.7-0.5,2.6c-0.1,0.5-0.3,0.8-0.5,1c-0.2,0.2-0.5,0.3-0.7,0.3c-0.4,0-0.7-0.2-0.9-0.5c-0.3-0.3-0.3-0.8-0.2-1.4
		c0.5-3,1.2-5.9,2-8.7c0.8-2.8,1.8-5.6,2.9-8.4l0,0c0.1-0.4,0.4-0.7,0.9-0.8h0c0.5-0.2,0.9-0.1,1.2,0.3c0.4,0.5,0.8,1.1,1.2,1.7
		c0.4,0.6,0.7,1.3,1,1.9c0.3,0.7,0.6,1.3,0.9,2c0.3,0.7,0.5,1.3,0.8,1.9c0.2,0.4,0.3,0.8,0.5,1.3c0.2,0.5,0.3,1,0.5,1.5
		c0.2,0,0.4,0,0.6,0s0.4,0,0.6,0c0.4,0.1,0.6,0.3,0.8,0.6c0.2,0.2,0.3,0.5,0.3,0.8c0,0.3-0.1,0.6-0.3,0.8c-0.2,0.3-0.5,0.4-0.9,0.5
		h-0.3C128.4,182,128.7,183.7,128.8,185.4z M123,173.7c-0.2-0.5-0.4-0.9-0.6-1.4c-0.2-0.5-0.4-0.9-0.6-1.2c-0.4,1.1-0.8,2.1-1.1,3.2
		c-0.3,1.1-0.7,2.2-1,3.4c0.9,0,1.7,0,2.5,0c0.8,0,1.6,0,2.5,0c-0.2-0.6-0.4-1.2-0.6-1.7c-0.2-0.5-0.4-1.1-0.7-1.7L123,173.7z"/>
	<path class="st157" d="M133.4,185.6c0,0.5-0.2,0.9-0.4,1.2c-0.3,0.3-0.5,0.4-0.8,0.4c-0.3,0-0.6-0.1-0.8-0.4
		c-0.2-0.2-0.4-0.6-0.4-1.1v-7.6c-0.2-0.1-0.3-0.3-0.5-0.5s-0.2-0.4-0.2-0.7c0-0.5,0.2-0.9,0.7-1.2v-1c0-0.2,0-0.4,0-0.6
		s0-0.4,0-0.6c0-0.6,0-1.2-0.1-1.8c-0.1-0.6-0.2-1-0.4-1.4c-0.1-0.3-0.1-0.5-0.1-0.7c0-0.6,0.3-1,0.9-1.3c0.7-0.1,1.4-0.2,2.1-0.3
		s1.3-0.1,2-0.1c0.6,0,1.2,0,1.7,0c0.6,0,1.2-0.1,1.8-0.2c0.5,0,0.9,0.1,1.1,0.4c0.2,0.3,0.4,0.6,0.4,0.9c0,0.3-0.1,0.6-0.3,0.9
		c-0.2,0.3-0.5,0.5-0.9,0.6c-0.6,0.1-1.2,0.2-1.9,0.2c-0.6,0-1.3,0-2,0.1c-0.4,0-0.7,0-1,0c-0.3,0-0.7,0-1,0.1
		c0.1,0.4,0.1,0.8,0.2,1.3c0,0.4,0,0.9,0,1.3c0,0.2,0,0.3,0,0.5s0,0.3,0,0.5v1.1c0.9,0,1.7,0,2.6-0.1c0.9-0.1,1.7-0.2,2.3-0.5
		c0.5,0,0.9,0.1,1.1,0.4c0.3,0.3,0.4,0.6,0.4,0.9c0,0.5-0.2,0.8-0.5,1.1s-0.7,0.5-1.2,0.6c-0.5,0.1-1.1,0.2-1.7,0.3
		c-0.6,0-1.2,0-1.8,0h-1.3V185.6z"/>
	<path class="st157" d="M144.9,185.6c0,0.5-0.2,0.9-0.4,1.2c-0.3,0.3-0.5,0.4-0.8,0.4c-0.3,0-0.6-0.1-0.8-0.4
		c-0.2-0.2-0.4-0.6-0.4-1.1v-7.6c-0.2-0.1-0.3-0.3-0.5-0.5s-0.2-0.4-0.2-0.7c0-0.5,0.2-0.9,0.7-1.2v-1c0-0.2,0-0.4,0-0.6
		s0-0.4,0-0.6c0-0.6,0-1.2-0.1-1.8c-0.1-0.6-0.2-1-0.4-1.4c-0.1-0.3-0.1-0.5-0.1-0.7c0-0.6,0.3-1,0.9-1.3c0.7-0.1,1.4-0.2,2.1-0.3
		s1.3-0.1,2-0.1c0.6,0,1.2,0,1.7,0c0.6,0,1.2-0.1,1.8-0.2c0.5,0,0.9,0.1,1.1,0.4c0.2,0.3,0.4,0.6,0.4,0.9c0,0.3-0.1,0.6-0.3,0.9
		c-0.2,0.3-0.5,0.5-0.9,0.6c-0.6,0.1-1.2,0.2-1.9,0.2c-0.6,0-1.3,0-2,0.1c-0.4,0-0.7,0-1,0c-0.3,0-0.7,0-1,0.1
		c0.1,0.4,0.1,0.8,0.2,1.3c0,0.4,0,0.9,0,1.3c0,0.2,0,0.3,0,0.5s0,0.3,0,0.5v1.1c0.9,0,1.7,0,2.6-0.1c0.9-0.1,1.7-0.2,2.3-0.5
		c0.5,0,0.9,0.1,1.1,0.4c0.3,0.3,0.4,0.6,0.4,0.9c0,0.5-0.2,0.8-0.5,1.1s-0.7,0.5-1.2,0.6c-0.5,0.1-1.1,0.2-1.7,0.3
		c-0.6,0-1.2,0-1.8,0h-1.3V185.6z"/>
	<path class="st157" d="M162.9,183.9c0.4,0.1,0.6,0.3,0.8,0.6s0.3,0.5,0.3,0.8c0,0.3-0.1,0.6-0.3,0.8s-0.5,0.4-0.9,0.5
		c-0.6,0-1.3,0-1.9,0s-1.3,0-1.9,0c-0.6,0-1.2,0-1.9,0s-1.3,0-1.9,0.1c-0.8-0.1-1.2-0.6-1.3-1.4c0-1.4,0-2.7,0-4.1
		c0-1.3,0-2.7,0-4.1c0-1.4,0-2.7,0-4.1s0-2.7,0-4.1c0.1-0.4,0.2-0.7,0.5-1s0.5-0.3,0.8-0.3s0.5,0.1,0.8,0.3c0.2,0.2,0.4,0.5,0.5,0.9
		c0,1.3,0,2.6,0,3.9c0,1.3,0,2.5,0,3.8c0,1.3,0,2.5,0,3.7c0,1.2,0,2.4,0,3.7c0.5,0,1-0.1,1.6,0c0.5,0,1,0,1.6,0c0.6,0,1.1,0,1.7,0
		C161.7,184,162.3,183.9,162.9,183.9z"/>
	<path class="st157" d="M174.5,183.1c0.5,0,0.8,0.1,1.1,0.3c0.3,0.3,0.4,0.6,0.4,1c0,0.2-0.1,0.5-0.2,0.7c-0.1,0.2-0.3,0.5-0.6,0.6
		c-0.7,0.2-1.5,0.4-2.3,0.6s-1.6,0.2-2.5,0.2c-1.2,0-2.4-0.2-3.5-0.5c-0.6-0.4-0.8-0.8-0.8-1.4v-13.5c-0.2-0.1-0.4-0.3-0.5-0.5
		c-0.1-0.2-0.2-0.5-0.2-0.7c0-0.3,0.1-0.5,0.2-0.8c0.2-0.2,0.4-0.4,0.7-0.6c0.9-0.4,1.9-0.6,2.9-0.6c1-0.1,2-0.1,3.1-0.1
		c0.4,0,0.7,0,1.1,0s0.7,0,1.1,0c0.4,0,0.8,0.2,1.1,0.4c0.3,0.3,0.4,0.6,0.4,0.9c0,0.3-0.1,0.6-0.3,0.9c-0.2,0.3-0.5,0.5-0.9,0.6
		c-0.3,0-0.7,0-1.1,0c-0.4,0-0.8,0-1.2,0c-0.7,0-1.4,0-2,0c-0.7,0-1.3,0.1-2,0.2v5.3c0.2,0,0.3,0,0.5,0c0.2,0,0.3,0,0.5,0
		c0.7,0,1.3,0,2-0.1c0.7,0,1.3-0.1,2-0.2c0.5,0,0.8,0.1,1.1,0.4c0.3,0.3,0.4,0.6,0.4,0.9c0,0.3-0.1,0.6-0.3,0.9
		c-0.2,0.3-0.5,0.4-0.9,0.5c-0.7,0.1-1.5,0.2-2.2,0.2c-0.7,0.1-1.5,0.1-2.3,0.1c-0.2,0-0.3,0-0.4,0c-0.1,0-0.3,0-0.4,0v4.8
		c0.3,0,0.6,0.1,0.9,0.1s0.6,0,0.9,0c0.7,0,1.4-0.1,2.1-0.2C173.2,183.5,173.8,183.3,174.5,183.1L174.5,183.1z"/>
	<path class="st157" d="M178.6,184.2c-0.1-0.3-0.2-0.6-0.2-0.9c0-0.4,0.1-0.7,0.3-0.9c0.2-0.2,0.5-0.4,0.8-0.4c0.2,0,0.4,0,0.5,0.1
		c0.2,0.1,0.3,0.2,0.5,0.3c0.6,0.7,1.2,1.2,1.8,1.5c0.6,0.3,1.3,0.5,2.1,0.5c0.9,0,1.6-0.2,2-0.7c0.4-0.5,0.6-1.1,0.6-1.8
		c0-0.7-0.1-1.3-0.4-1.7c-0.3-0.4-0.6-0.8-1-1c-0.4-0.2-0.8-0.4-1.3-0.6c-0.5-0.1-0.9-0.2-1.2-0.3c-0.6-0.1-1.1-0.3-1.7-0.5
		c-0.5-0.2-1-0.5-1.5-0.9s-0.8-0.8-1-1.4c-0.3-0.6-0.4-1.2-0.4-2c0-1,0.2-1.8,0.6-2.5c0.4-0.7,0.9-1.3,1.5-1.7c0.6-0.4,1.3-0.8,2-1
		s1.4-0.3,2.2-0.3c0.6,0,1.1,0.1,1.6,0.2s0.9,0.4,1.4,0.6c0.2,0.2,0.4,0.4,0.5,0.6c0.1,0.2,0.2,0.5,0.2,0.7c0,0.2,0,0.3-0.1,0.5
		c-0.1,0.2-0.2,0.4-0.3,0.5c-0.1,0.1-0.3,0.2-0.5,0.3c-0.2,0.1-0.4,0-0.6-0.1c-0.4-0.2-0.9-0.3-1.3-0.5c-0.4-0.1-0.9-0.2-1.4-0.2
		c-0.4,0-0.7,0-1.1,0.1c-0.4,0.1-0.7,0.2-1,0.4c-0.3,0.2-0.6,0.5-0.8,0.8s-0.3,0.7-0.4,1.2c0,0.4,0.1,0.8,0.4,1.1
		c0.3,0.3,0.6,0.5,0.9,0.7c0.3,0.2,0.6,0.3,0.9,0.4s0.4,0.1,0.4,0.1c0.7,0.2,1.3,0.4,1.9,0.6c0.6,0.2,1.3,0.5,2,1
		c0.6,0.4,1.1,1,1.5,1.8c0.3,0.8,0.5,1.6,0.5,2.5c0,0.9-0.1,1.8-0.4,2.5c-0.3,0.7-0.7,1.3-1.1,1.7c-0.5,0.5-1,0.8-1.6,1
		c-0.6,0.2-1.2,0.4-1.9,0.4c-0.6,0-1.2,0-1.7-0.2c-0.6-0.1-1.1-0.4-1.7-0.6c-0.5-0.3-1-0.6-1.4-1C179.3,185,178.9,184.6,178.6,184.2
		L178.6,184.2z"/>
</g>
</svg>
