<svg id="Layer_1" data-name="Layer 1" xmlns="http://www.w3.org/2000/svg" viewBox="0 0 250 250"><defs><style>.cls-1{fill:#b72020;}.cls-2{fill:#7e7f82;}.cls-3{fill:#939193;}.cls-4{fill:#939192;}.cls-5{fill:#7f7f81;}.cls-6{fill:#c9ccd0;}.cls-7{fill:#b4b7bd;}.cls-8{fill:#b2b4b8;}.cls-9{fill:#c6c9cb;}.cls-10{fill:#d6d9d9;}.cls-11{fill:#dc9191;}.cls-12{fill:#dc9190;}.cls-13{fill:#872128;}.cls-14{fill:#981916;}.cls-15{fill:#dc5353;}.cls-16{fill:#babcbe;}.cls-17{fill:#b3b6b7;}.cls-18{fill:#bec1c3;}.cls-19{fill:#9ea1a5;}.cls-20{fill:#d1d3d3;}.cls-21{fill:#c1c4c6;}.cls-22{fill:#e4e7e6;}.cls-23{fill:#da9397;}.cls-24{fill:#e59a99;}.cls-25{fill:#c08690;}.cls-26{fill:#c54f51;}.cls-27{fill:#f8b9b9;}.cls-28{fill:#710a16;}.cls-29{fill:#b4252d;}.cls-30{fill:#cb3431;}.cls-31{fill:#b4252e;}.cls-32{fill:#ca3431;}.cls-33{fill:#831023;}.cls-34{fill:#dc5253;}.cls-35{fill:#da5151;}.cls-36{fill:#f57777;}.cls-37{fill:#9e2632;}.cls-38{fill:#881f28;}.cls-39{fill:#861f29;}.cls-40{fill:#f6f2f3;}.cls-41{fill:#b5252d;}.cls-42{fill:#dd5252;}.cls-43{fill:#f67777;}.cls-44{fill:#f67776;}.cls-45{fill:#fc9695;}.cls-46{fill:#ccd0cf;}.cls-47{fill:#dbdedd;}.cls-48{fill:#c5c9c9;}.cls-49{fill:#dfe3e2;}.cls-50{fill:#c0c2c3;}.cls-51{fill:#c2c4c6;}.cls-52{fill:#adafb1;}.cls-53{fill:#afb0b1;}.cls-54{fill:#b9bcbc;}.cls-55{fill:#a2a3a4;}.cls-56{fill:#c0c3c2;}.cls-57{fill:#cb3331;}.cls-58{fill:#820f22;}.cls-59{fill:#fbdada;}.cls-60{fill:#fccaca;}.cls-61{fill:#efecec;}.cls-62{fill:#fc9494;}.cls-63{fill:#fc9493;}.cls-64{fill:#f7b7b7;}.cls-65{fill:#700915;}.cls-66{fill:#7f0a1e;}.cls-67{fill:#fe9393;}.cls-68{fill:#f9b5b5;}.cls-69{fill:#f8b5b5;}.cls-70{fill:#9fa2a4;}.cls-71{fill:#dce0df;}.cls-72{fill:#b8bbba;}.cls-73{fill:#babdbc;}.cls-74{fill:#a0a3a3;}.cls-75{fill:#d2d4d3;}.cls-76{fill:#aeafb0;}.cls-77{fill:#a9abab;}.cls-78{fill:#dde1e1;}.cls-79{fill:#e5e9e7;}.cls-80{fill:#a3a7a8;}.cls-81{fill:#b3b7b7;}.cls-82{fill:#a5a9a9;}.cls-83{fill:#dfe2e1;}.cls-84{fill:#efeae8;}.cls-85{fill:#dfd7d4;}.cls-86{fill:#e2d0ce;}.cls-87{fill:#e3d3d1;}.cls-88{fill:#e6c8c8;}.cls-89{fill:#e2dbda;}.cls-90{fill:#e4d3d2;}.cls-91{fill:#b4b8b8;}.cls-92{fill:#c9cbcb;}.cls-93{fill:#a3a4a7;}.cls-94{fill:#a1a2a5;}.cls-95{fill:#b3b4b5;}.cls-96{fill:#d3d5d4;}.cls-97{fill:#96989a;}.cls-100,.cls-98,.cls-99{isolation:isolate;}.cls-100,.cls-99{font-size:15.5px;font-family:BritannicBold, Britannic Bold;}.cls-99{fill:#fff;}.cls-100,.cls-101{fill:none;}.cls-100{stroke:#f7931e;stroke-miterlimit:10;stroke-width:0.25px;}</style></defs><title>products</title><path class="cls-1" d="M48.86,233.14c-.07-1.33-.2-2.66-.2-4V74.55c0-1,.09-2.07.13-3.1C54,72.65,58.26,76,63.42,77.13c2.26.5,4.67.91,6.18,3.06,1.2,2.19,1,4.58,1,6.89v86a19.91,19.91,0,0,1-.74,7c-.28.51.19-.06-.18.39-2.93,3.54-3.08,6.92.55,10.13.28,16.67,1.12,33.33-.47,50a2,2,0,0,1-1.63,1.31C63.2,242.87,51.55,237.57,48.86,233.14Z"/><path class="cls-2" d="M199.58,69.84c.06,1.92.17,3.84.17,5.76V227.24c0,1.92-.1,3.84-.1,5.77a5.65,5.65,0,0,1-3.44,5.67c-.91-.18-1.9.77-2.77-.19a1.48,1.48,0,0,1-.05-1.15,3.4,3.4,0,0,1,.74-.91,6.43,6.43,0,0,1,1-.54,4.48,4.48,0,0,0,1.85-1.16,5.85,5.85,0,0,0,.5-1,10.08,10.08,0,0,0,.11-2c-.2-50.11-.05-100.2-.1-150.3,0-6.36.06-6.2-5.76-4.07-12.19,4.44-25,6-37.78,7.06-7.75.64-15.59,1.32-23.43,1-2.05-.1-4.16.19-6-1-1.65-2.37-.39-3.49,1.85-4,1.85-.43,3.82,0,5.65-.69,9.35-.67,18.74-1,28.08-2.1,12.54-1.53,25.17-2.58,36.45-9.12C198.25,67.39,199.2,68,199.58,69.84Z"/><path class="cls-3" d="M132.29,80.51c-1.65,1.47-3.65.72-5.48.77s-2.66.86-2.58,2.67l-.59.58c-6.5,1.65-13.13,1-19.65.59a135.37,135.37,0,0,1-17.5-1.62c-6-1.15-12.44-.34-17.91-3.94-3.44-.94-6.88-1.79-10.19-2.85a30.25,30.25,0,0,1-9.57-5.26,11.9,11.9,0,0,1,.08-4.25,1.77,1.77,0,0,1,1.28.09C61.79,75,75.26,75.82,88.49,77.48a241.19,241.19,0,0,0,36.05,1.72C127.13,79.51,130,78.42,132.29,80.51Z"/><path class="cls-4" d="M48.86,233.14c5.75,5,12.7,7,20.08,8,3.59-1.14,7,.5,10.45.86,2.2.21,4.37.64,6.59.75a13.2,13.2,0,0,1,1.54.18,177.54,177.54,0,0,0,27,1.48c3-.07,5.93-.18,8.74,1a4,4,0,0,1,1.26.93,2.35,2.35,0,0,1-.24,2.9,268.31,268.31,0,0,1-35.74-1.52A162.76,162.76,0,0,1,61.58,243a37,37,0,0,1-9.41-3.76C49.92,237.85,48.1,236.16,48.86,233.14Z"/><path class="cls-5" d="M124.25,249.24c0-.94,0-1.88.06-2.82,1.63-2.73,4.37-2.09,6.76-2a231.34,231.34,0,0,0,44-3.51,112.41,112.41,0,0,0,12.91-3.14c1.8-.54,3.61-1.48,5.5-.2.44,1.61,2.25-.13,2.83,1.16C193.48,241,190,242,186.66,243c-9.38,2.77-19,4.06-28.74,5A241.13,241.13,0,0,1,124.25,249.24Z"/><path class="cls-6" d="M124.2,80.34a249,249,0,0,1-34.42-1.48,174.19,174.19,0,0,1-27.88-4.7c-4.83-1.3-9.64-2.9-13-7-.6-3.2,1.25-5,3.72-6.36a38.66,38.66,0,0,1,9.53-3.49,1.59,1.59,0,0,1,1.9-.13c-1,3.49-4.86,2.53-6.89,4.4-1.53.86-3.39,1.72-3.3,3.76.09,2.22,2,3.14,3.8,3.88,5.16,2.21,10.71,3.27,16.2,4.4A332.26,332.26,0,0,0,120,77.46a7,7,0,0,1,3.86.77,1.4,1.4,0,0,1,.46,1.93Z"/><path class="cls-7" d="M124.2,80.34V78.7l.52-.52a141.56,141.56,0,0,1,18.83-1.52c13.77-.52,27.29-1.94,40.63-5.32A31.29,31.29,0,0,0,192,68.27c3.51-2,3.57-3,.46-5.77a7,7,0,0,1-1.72-2,1.46,1.46,0,0,1,.15-1.41,24.25,24.25,0,0,1,2.49.75c5.51,2.22,6.53,3.89,6.22,10-.65-.35-.77-1.84-2-.93-7,5.16-15.36,6.49-23.61,7.94a246,246,0,0,1-26.27,3c-5.16.33-10.32.44-15.43.71Z"/><path class="cls-8" d="M190.87,59.09V60a3,3,0,0,1-2.65,1.39,154.79,154.79,0,0,0-33.69-6c-7.3-.5-14.62-1.49-22-1.23-2.47.09-5,.33-7.44-.52a2.64,2.64,0,0,1-1.12-1,1.51,1.51,0,0,1,.28-1.46,280.54,280.54,0,0,1,36.2,1.56c7.93.86,15.71,2.29,23.5,3.88a7,7,0,0,1,1.56.74c.7.86,1.93.17,2.69.9h0c.69.9,1.94.16,2.69.91Z"/><path class="cls-9" d="M124.26,51.13V52c-5.89,2.33-11.93,1.33-17.92.61-1-.13-.49.36-.7.55-.43.39.43,0,.07.48a3.38,3.38,0,0,1-3.13,1.3c-5.29-.29-10.49.8-15.73,1-5,.38-9.93,1.56-14.94,1.94a3.73,3.73,0,0,1-2.59-1,.92.92,0,0,1-.06-1.25,8.43,8.43,0,0,1,.86-.05c1-.91,2.59.1,3.58-.86,6-1.58,12.2-1.94,18.33-2.58A249.49,249.49,0,0,1,124.26,51.13Z"/><path class="cls-10" d="M69.24,55.62v.86c-1.56,1.52-3.25,2.29-5.3.92H62.15A13.35,13.35,0,0,1,69.24,55.62Z"/><path class="cls-10" d="M73.66,54.71c-1,1.25-2.33.78-3.57.86C71.06,54.34,72.41,54.76,73.66,54.71Z"/><path class="cls-7" d="M190.88,59.11c-1,0-2.07.2-2.69-.91C189.18,58.21,190.2,58.15,190.88,59.11Z"/><path class="cls-7" d="M188.22,58.21c-1,0-2.06.21-2.69-.9C186.5,57.33,187.54,57.27,188.22,58.21Z"/><path class="cls-11" d="M68.61,79.56,86.38,82.4a4.85,4.85,0,0,1,1,3.3c0,10,.49,20-.28,30a7.37,7.37,0,0,1-1.72,3c-8.05,9.87-8.71,23.39,0,32.7A6.48,6.48,0,0,1,87,154.08a107.25,107.25,0,0,1-.11,19.71,3.19,3.19,0,0,1-3.26,1.82c-5.22-.1-8.94,2.38-11.77,6.53-1.5.64-1.42,2.84-3.17,3.24-1.3-1.14-1.21-2.4-.33-3.73A19.15,19.15,0,0,0,69,176V84.37C69,82.78,68.74,81.17,68.61,79.56Z"/><path class="cls-12" d="M86,243.8a73.75,73.75,0,0,1-17.09-2.71q0-23.46.06-46.91c0-1.72.28-3.55-.39-5.26a2,2,0,0,1,1.08-.68c2.1-.08,2.81,1.84,4.14,2.88,3.69,2.87,8,3.76,12.54,3.89a5.32,5.32,0,0,1,.44,4.66,2.32,2.32,0,0,1-.81,1.05c-5.07.24-9.64,1.21-11.39,7-1.64,5.38,2.47,11.46,8.06,11.58,1.79,0,3.61-.46,4.37,1.84.6,6.34.19,12.69.25,19A4.83,4.83,0,0,1,86,243.8Z"/><path class="cls-13" d="M68.36,181.67c.29,1.24-.21,2.64.77,3.73s1,2.23,0,3.35a1,1,0,0,0-.54.17c-.57.52-1.19.86-1.92.29-1.17-.86.11-2.21-.52-3.21C67.75,185,65.39,182,68.36,181.67Z"/><path class="cls-14" d="M193.39,237.52c-6.64,1.84-13.17,4-20,5-6.39.86-12.77,1.79-19.19,2.38-8.81.86-17.6.86-26.41.93a8.85,8.85,0,0,0-3.45.61V246a2.2,2.2,0,0,1-1-1.42c-.5-7.86-1.36-15.74.48-23.55,1.06-1.24,2.59-1.2,4-1.43,5.66-.86,9.26-4.5,9.31-9.32,0-4.6-3.33-8.26-8.77-9.46-1-.23-2.05-.17-3-.49-2-.86-2.29-2.36-1.54-4.22,1.34-1.53,3.2-1.36,4.93-1.32,4.89.13,9-1.39,11.89-5.47a2.21,2.21,0,0,1,2.46-.33,8,8,0,0,1,1,.86c8.4,7.92,25.72,7,32.7-1.72,1.19-1.18,4.69.93,4.07-2.85.62-3.76-2.63-1.91-4-2.76-7.81-9.23-25.43-9.9-33.57-1.26a2.25,2.25,0,0,1-3.17-.19,2.6,2.6,0,0,1-.27-.38c-3-4.14-7.28-5.12-12.05-5-1.44,0-3,0-4-1.34a11.81,11.81,0,0,1-.17-8.1c1.42-2.4,3.88-2.35,6.2-2.71,11.67-1.83,22-6.35,30.56-14.74,14.55-14.32,10.81-33.63-8.43-42.88a47.89,47.89,0,0,0-23.15-4.83,10.65,10.65,0,0,1-4.82-.51,1.88,1.88,0,0,1-1-1.1c.43-5.08-1.29-10.33,1.34-15.21l-.08-.34a258.21,258.21,0,0,0,35.39-1.47,158,158,0,0,0,29.09-5.4,35.61,35.61,0,0,0,9.79-4.93c.91,1.63.52,3.12.52,4.54V227.52c0,2.07-.18,4.13-.29,6.2a1.79,1.79,0,0,1-.86,1.2l.05-.07a9.19,9.19,0,0,1-2.84,1.8,1,1,0,0,0-.7.19l-1,.74Z"/><path class="cls-5" d="M195.06,236.66a4.3,4.3,0,0,1,2.84-1.8A2.43,2.43,0,0,1,195.06,236.66Z"/><path class="cls-5" d="M193.39,237.59a1,1,0,0,1,.94-.74Z"/><path class="cls-5" d="M197.85,234.93l.86-1.18A1.28,1.28,0,0,1,197.85,234.93Z"/><path class="cls-1" d="M124.32,84.3c0,3.66-.07,7.33-.06,11a8.18,8.18,0,0,1-.92,4.66c-2.21,1.79-5,1.48-7.54,2-8.74,1.9-16.91,5-24,10.65-2,1.62-3.76,3.33-3.58,6.18a1.43,1.43,0,0,1-1.61,1c-1.44-.78-1.23-1.86-.57-3L86.27,89c0-2.2.08-4.4.13-6.6,3.22.25,6.46.38,9.67.76C105.44,84.29,114.9,83.82,124.32,84.3Z"/><path class="cls-1" d="M125.21,220.71c-1.14.86-1,2.06-.95,3.22q0,11,.1,22c-9.28-.31-18.59.19-27.84-1-3.21-.42-6.54.23-9.65-1.09-.74-7.47-.12-14.95-.32-22.43a4.08,4.08,0,0,1,1.78-3.38c5.82-4.72,5.66-12.05-.68-16.35a3,3,0,0,1-1-1.39,25.36,25.36,0,0,1,0-5.08c1-1.28,2.41-.74,3.69-.69,5.75.26,11.28,0,14.89-5.55.23-.36.76-.4,1.21-.45,4.15,4.59,9.25,6.88,15.48,6.33a2.69,2.69,0,0,1,2.33,1c.14,1.42-.58,3.28,1.8,3.58a1,1,0,0,1,0,1.14c-6.54,3.59-8.61,7.67-6.66,13,1,2.92,3.67,4.13,5.8,5.9A1.07,1.07,0,0,1,125.21,220.71Z"/><path class="cls-15" d="M87.05,200.34a11.5,11.5,0,0,1,5.27,4.5c2.86,5,1.72,10.08-2.49,13.39-2.43,1.91-3,4-2.93,6.75.11,6.31,0,12.63,0,18.93a3.11,3.11,0,0,1-.86-.09v-24a1.71,1.71,0,0,1-.31-1.77c5.78-8,5.78-8-.09-15.91a2,2,0,0,1,.34-1.8h.38C86.55,199.9,86.78,199.9,87.05,200.34Z"/><path class="cls-16" d="M124.21,78.7h-4.42c-9.25,0-18.44-1-27.64-1.6-5.87-.4-11.63-1.42-17.46-1.95a2.59,2.59,0,0,1-1.93-.86,1.85,1.85,0,0,1,1.72-1.37c9.08.62,18.07,2.26,27.13,2.78,7.18.1,14.36-.15,21.52.12a4.45,4.45,0,0,1,1.5.47c1.36,1,.62,1.72-.31,2.41Z"/><path class="cls-17" d="M73.64,73.42l-.86.86C67,73.89,61.66,72.09,56.37,70a7.76,7.76,0,0,1-2.16-1.46c-2.51-2.28-2.49-3.91-.06-6.26a3.93,3.93,0,0,1,2.67-1.36A2,2,0,0,1,57.3,62c-1.81,3.56-.08,5.39,3.12,6.69,2,.86,4.14,1.53,6.25,2.2,1.57.54,3.21.86,4.81,1.28A3.29,3.29,0,0,1,73.64,73.42Z"/><path class="cls-18" d="M56.8,61.79v-.94c1.85-2.21,5.08-1.62,7.1-3.5l5.3-.92a1.88,1.88,0,0,1,1.78.86c-4,2.39-8.66,3.11-12.91,4.85A1.48,1.48,0,0,1,56.8,61.79Z"/><path class="cls-19" d="M124.3,78.65l.86-1.72c1.79-1.77,4.07-1.19,6.17-1.23,4.2-.09,8.4,0,12.59,0h3.89a12.3,12.3,0,0,0,4.3-.56c4.38-.11,8.66-1.21,13-1.23a11.08,11.08,0,0,0,2.74-.47c6.88-1,13.77-2.23,20.21-4.92,4.65-2.73,4.65-2.73.94-7.62a1.73,1.73,0,0,1,1.72-.86,41.08,41.08,0,0,1,3.67,2.45c2.4,1.89,2.4,4.16-.1,5.84a23.91,23.91,0,0,1-6.74,3.27,135.42,135.42,0,0,1-22.38,4.48c-8.47,1-17,1.44-25.47,1.94C134.56,78.32,129.43,78.51,124.3,78.65Z"/><path class="cls-20" d="M189.09,60.87l.39.19c1.63,1,3.92,1.65,3.77,3.88s-2,3.45-4.16,4c-.79.36-1.13-.13-1.39-.75.64-4.67-3-5-6-6a133.47,133.47,0,0,0-30.06-4.45c-4.12-.16-8.15-1.42-12.32-.91-4.57-.08-9.14.09-13.72-.1a5,5,0,0,1-1.43-.36c-1.47-.86-1.13-1.91-.42-3l.56-.44c.86,0,1.72.05,2.65,0a284.3,284.3,0,0,1,30.31,1.65,157.88,157.88,0,0,1,23.86,3.73C183.83,59,186.43,60,189.09,60.87Z"/><path class="cls-21" d="M105.61,52.92c-.62-.21-1.72-.75-.12-.86,4.31-.2,8.7-.07,13.06-.07h5.65a6.19,6.19,0,0,0,0,.86l0,.14A29,29,0,0,1,105.61,52.92Z"/><path class="cls-22" d="M105.61,52.92l18.59.1a4.73,4.73,0,0,1-.86,2.51c-4.4,2.58-9.21.72-13.77,1.3-6.88.23-13.67.13-20.51,0-1.23-.32-2.82-.16-2.9-2.07,6-.24,12-1.34,18-1C104.62,53.71,105.14,53.19,105.61,52.92Z"/><path class="cls-10" d="M86.14,54.73c.63,1,1.72.79,2.63.86-.33,2.36-2.31,1.89-3.76,2A92.52,92.52,0,0,0,59.28,63a1.56,1.56,0,0,1-1.63-1.2A32.36,32.36,0,0,1,71,57.34c2.33-1.32,5-1.07,7.54-1.49A50,50,0,0,1,86.14,54.73Z"/><path class="cls-23" d="M69.14,188.75V185.4c.37-1.37-.59-3.4,1.87-3.71,2,2.08,4.48,2.3,7.19,2.3s5.86-.8,8.35,1.36c1,3.29,1.54,6.54-.56,9.64a7.88,7.88,0,0,1-7.87-.23c-2.71-1.55-5.84-2.35-7.37-5.49C70.58,188.93,69.7,188.92,69.14,188.75Z"/><path class="cls-24" d="M86,185.24c-3.85,0-7.69,0-11.54,0-3.06-.05-3.06-.09-3.44-3.54,1.72-2.68,3.53-5.16,6.77-6.4,2.76-1.09,5.48-.43,8.21-.69C87.83,177.73,87.35,181.85,86,185.24Z"/><path class="cls-25" d="M86.05,116.8c.28,1-.12,2.26,1.1,2.9a4.45,4.45,0,0,1-.86,3.31c-4.75,8.41-4.94,16.71.59,24.88a3.91,3.91,0,0,1,.57,1.66c-.12,1.42-.16,2.87-1.52,3.8-8.44-6.64-10.16-20.17-5.44-28.83C82,121.7,83,118.54,86.05,116.8Z"/><path class="cls-26" d="M85.92,153.35c.38-1.19-.37-2.7,1-3.57a3,3,0,0,1,.86,1.27,16.56,16.56,0,0,1,.38,4.71q.26,9.36,0,18.74c.11,3.58.12,7.15,0,10.73-.14,3.3.87,6.75-1.22,9.8v5.27a5.41,5.41,0,0,0-.68.07c-.13-1.79-.25-3.58-.38-5.37V153.35Z"/><path class="cls-27" d="M86.29,218.09c-.08.59-.16,1.16-.25,1.72-6.57,1.17-9.35-.24-12.16-5.57-2-3.86-.86-7.27,1.29-10.33s5.38-4.92,9.46-3.68a5.76,5.76,0,0,0,1.31.07c.07.57.14,1.12.22,1.72a.8.8,0,0,1,0,1.1c-1.21.52-2.48,0-3.69.24-3.58,1-6.1,3-5.91,7s2.44,6.09,6.3,6.6a11,11,0,0,1,2.42.37A2.24,2.24,0,0,1,86.29,218.09Z"/><path class="cls-1" d="M87,174.57V155c1.31-.45,2.32.27,3.28.92,6.88,4.69,14.63,7,22.75,8.12,3.49,1.12,7.25-.35,10.7,1.11l.51.52v8.88c-1.11,1.23-2.64,1.22-4.07,1.14-4.86-.26-8.9,1.14-11.75,5.32a2.65,2.65,0,0,1-1.85,1.07,3.52,3.52,0,0,1-2.53-1.54c-3.06-3.65-7.06-4.89-11.66-4.82C90.52,175.78,88.56,176,87,174.57Z"/><path class="cls-28" d="M124.27,100c7.67-.19,15.25,0,22.67,2.58s14,6.45,18.65,12.83c6.61,9,6.47,18.5.6,28.14-4.84,7.93-12.29,13-20.66,16.7-5.81,2.58-11.82,4.49-18.27,4.69a13.87,13.87,0,0,0-3,.76h0c-.41-.38-1-.56-1.14-1.24.24-1.1,1.14-1.53,2-2a19.06,19.06,0,0,1,2.72-.95,8.09,8.09,0,0,1,1.67-.33,12.41,12.41,0,0,0,3.26-.47,9,9,0,0,1,1.05-.26,14.33,14.33,0,0,0,2.58-.57,8.13,8.13,0,0,1,1-.31,15.32,15.32,0,0,0,1.95-.64,9.28,9.28,0,0,1,1-.35,15.78,15.78,0,0,0,1.52-.65c.34-.21.7-.39,1.05-.57a47.23,47.23,0,0,0,15.76-11.13c9.56-10.11,9.15-24.2-1.32-33.25a35.78,35.78,0,0,0-17.7-8.48,9,9,0,0,1-1.25-.27,11.78,11.78,0,0,0-3.78-.51,13.3,13.3,0,0,1-2.67-.36c-2.68-1-5.64.18-8.26-1.15C122.57,101.15,123.47,100.59,124.27,100Z"/><path class="cls-29" d="M177.55,187.91c-1.73,5.62-5.81,7.82-11.3,8-4,.1-8,0-11.94,0-4.79,0-9.13-.91-11.32-5.94-.43-1-1.18-.47-1.85-.24-1.13-1.84-.26-3.34.87-4.81a4.44,4.44,0,0,1,1.43-.66c11.13-.41,22.26-.86,33.38.23a2.47,2.47,0,0,1,1.19,1.11A2.25,2.25,0,0,1,177.55,187.91Z"/><path class="cls-30" d="M142,185.24c.27,1.59-.86,2.92-.86,4.46-1.72,4.52-5.52,5.81-9.83,6.14-2.34.18-4.7,0-7.05.06s-4.71.13-7,0c-4.84-.35-8.77-2.24-10.7-7.07a2.67,2.67,0,0,1,0-3.77l.2-.17a8.2,8.2,0,0,1,4.68-1q12.8-.09,25.62,0C138.81,183.88,140.64,183.81,142,185.24Z"/><path class="cls-31" d="M142,185.24H106.47c-.14-.17-.3-.32-.45-.48a2.53,2.53,0,0,1,.45-3.07c2-1.43,2.33-4.3,4.91-5.43s4.81-1.95,7.55-1.72c1.72.16,3.52,0,5.3,0,1.61,0,3.24.1,4.87,0,4.94-.28,9,1.22,11.64,5.62a1.36,1.36,0,0,0,1.75.81,1.34,1.34,0,0,0,.38-.22c1.19,1.79.19,3.13-.86,4.46Z"/><path class="cls-30" d="M142,185.25c-.25-1.6.81-2.93.86-4.46,1.6-4.42,5.32-5.84,9.47-6.09a134.71,134.71,0,0,1,14.63,0c5.26.19,8.77,3,10.62,7.9a1.89,1.89,0,0,1,0,2.67h0Z"/><path class="cls-32" d="M150,199.54c4.7,0,9.4-.14,14.1,0s10,2.75,10.83,7.89a2.24,2.24,0,0,1,.1,2.9c-2.25,1.55-4.82,1-7.27,1a39.3,39.3,0,0,0-7.42.82,1.94,1.94,0,0,1-1.49-2c-.52-4.76-2.77-8-7.63-9.08a1.41,1.41,0,0,1-1.22-1.58Z"/><path class="cls-29" d="M159.83,211.9a4.6,4.6,0,0,1,4.14-1.84c3.62.16,7.27,0,10.9,0a1.87,1.87,0,0,1,0,2.64l0,0c-2.5,6-5.16,8-11.19,8-4,0-8,0-11.93-.06C154.52,217.85,157.7,215.37,159.83,211.9Z"/><path class="cls-33" d="M124.27,100c-.28.64-.56,1.28-.86,1.93a.86.86,0,0,1-.35,1.17h0c-6.3,1.26-12.67,2.3-18.6,5a37.8,37.8,0,0,0-12.34,8.26c-1.14,1.2-2.19,2.89-4.3,2.39-1.84-2.24-.4-3.79,1.19-5.16a48.32,48.32,0,0,1,14.83-9.13c6.31-2.4,12.72-4.3,19.53-4.45Z"/><path class="cls-34" d="M159.83,211.9c-.86,4.65-3.88,7.26-8.1,8.79-1.81-.17-3.74.72-5.37-.72.86-1.27,2.37-1.61,3.54-2.43,3.44-1.11,6.24-2.82,6.46-6.88.25-4.6-3.11-6.29-6.51-7.92-1-.73-2.17-1.29-2.67-2.58.79-.86,1.81-.7,2.81-.63.1.1.2.26.32.29C158.24,202.06,159.67,203.87,159.83,211.9Z"/><path class="cls-35" d="M125.92,200.19c0-.23.09-.46.14-.7,3.5,0,6.81.78,9.21,3.44,2.58,2.82,4.12,6,2.72,10.06a10.94,10.94,0,0,1-8.83,7.64,22.67,22.67,0,0,1-4,.08c0-.25-.11-.49-.15-.73.86-1.29,2.39-1.65,3.56-2.48,3.25-1.39,6.08-3,6.1-7.25,0-4.74-3.45-6.11-6.83-7.74A4.81,4.81,0,0,1,125.92,200.19Z"/><path class="cls-36" d="M150.06,218.16c-.74,1.64-2.21,1.72-3.71,1.81-5.16-2.15-7.33-5.4-7.1-10.46.23-4.82,2.69-7.74,7.93-9.34A3.27,3.27,0,0,1,150,202.1a2.09,2.09,0,0,1-.87.68c-.51.19-1,.31-1.59.47a7.83,7.83,0,0,0-1.5.76c-5.43,5.3-4.19,10.7,3.05,13.33A2.33,2.33,0,0,1,150.06,218.16Z"/><path class="cls-37" d="M174.86,212.77v-2.66l0-2.7a14.43,14.43,0,0,1,1.42-.93c2.16-1.11,2.67-.86,2.95,1.49a15.28,15.28,0,0,1,0,2.14c-1.11,1-2.39,1.72-3.55,2.65Z"/><path class="cls-37" d="M177.51,185.24v-2.69c.46-.33.93-.64,1.42-.93,2.18-1.12,2.69-.86,3,1.48a19.1,19.1,0,0,1,0,2.14,4,4,0,0,1-4.41.91Z"/><path class="cls-38" d="M177.55,186.15a6.87,6.87,0,0,1,4.41-.91,3.08,3.08,0,0,1,0,.43c-.15,1.23.57,2.79-.69,3.6-1.62,1-2.46-1-3.72-1.36Z"/><path class="cls-39" d="M175.74,212.76c-.26-2.82,1.67-2.71,3.55-2.65v1.28C179.08,214.91,179.07,214.91,175.74,212.76Z"/><path class="cls-40" d="M87.79,118.72c9.07-9.77,20.4-14.85,33.54-16.21a12.34,12.34,0,0,1,1.72,0,27.82,27.82,0,0,1,9.46,0,3.57,3.57,0,0,1,2.39.17c1.23.76,2.7.1,4,.69l.26-.12.22.19c-.11,2.33-2,1.73-3.34,2.07a12.81,12.81,0,0,1-2.9-.3,19.5,19.5,0,0,0-9.54,0c-3.09,1.1-6.39,1.21-9.53,2.05-9.47,2.54-17.94,6.8-24.1,14.78a12.36,12.36,0,0,0-2.71,8.67,35.28,35.28,0,0,1,0,6.66c-.92,7,2.73,11.43,8,15.19,5.44,3.93,11.85,5.24,18.07,7,4.86.92,9.74.61,14.63.19a13.76,13.76,0,0,1,1.92-.33,14.72,14.72,0,0,0,3-.45,10.2,10.2,0,0,1,1.09-.27,13.28,13.28,0,0,0,2.64-.6,10.68,10.68,0,0,1,1.05-.34c.72-.21,1.43-.47,2.16-.66a4,4,0,0,1,1.19,0c.77.27,1.6.51,1.21,1.64h0c-.57.39-1.33.27-1.86.76l-.26.22-.35-.05c-.66.3-1.44.21-2,.69l-.32.22-.39,0c-.86.62-2,0-2.86.77l-.31.2-.35-.08c-1.16.74-2.63-.11-3.77.75l-1.42.17a55.25,55.25,0,0,1-14.4,1.12c-9,0-16.75-3.6-23.83-8.89a9.34,9.34,0,0,1-3-4.31.26.26,0,0,0,.08-.35.24.24,0,0,0-.08-.09c-6.73-7.83-7.81-19.4.19-30.07Z"/><path class="cls-41" d="M106.47,185.24v3.55c-1,.7-1.33,1.91-1.91,2.92a6.13,6.13,0,0,1-4.11,3.07c-4.44.91-8.91,1.95-13.42.25v-9.76a28.89,28.89,0,0,1,19.46,0Z"/><path class="cls-42" d="M102.88,200.26c3.23-2,6-.07,8.6,1.37,4.3,2.44,5.73,8.68,3.44,13.11-2.58,5-7.74,7.06-12.82,5.16.94-1.15,2.51-1.28,3.57-2.23.86-.52,1.87-.81,2.77-1.28,5.17-2.69,5.53-8.61.75-12-1.07-.76-2.35-1.13-3.44-1.83S103.54,201.36,102.88,200.26Z"/><path class="cls-43" d="M102.88,200.26c1.18.15,2.58-.1,2.77,1.72l-.32.54a14.69,14.69,0,0,1-2.3,1.26c-5.66,3.44-5.7,9.06-.09,12.56.62.38,1.33.62,2,1a2,2,0,0,1,.76,1c-.44,2.26-2.28,1.34-3.61,1.58-6.28-3.36-8.38-8.51-5.74-14.19A9.12,9.12,0,0,1,102.88,200.26Z"/><path class="cls-44" d="M128.74,218.14c-.73,1.62-2.16,1.79-3.68,1.84-5.16-1.95-7.93-5.78-7.51-10.48.45-5,3.15-8,8.37-9.31,1,.18,1.86.49,1.94,1.72-.07.18-.15.34-.23.51a4.19,4.19,0,0,1-1.51.67,4.9,4.9,0,0,0-1.92,1.06c-5.3,5.83-4,10.42,3.6,13.2A2.55,2.55,0,0,1,128.74,218.14Z"/><path class="cls-45" d="M86,203l.16-1c.12.08.25.15.36.24,6.82,6.15,6.75,9.77-.27,15.81h-.41A21.54,21.54,0,0,1,86,203Z"/><path class="cls-46" d="M73.64,73.42,71,73.33c.11-1.92,1.68-1.78,2.93-2.07,6.88-.36,13.65.59,20.43,1.4a1.5,1.5,0,0,1,.87,1.1c-.49,1.6-2.22.32-3.12,1.22,2.9-.54,5.7-1,8.46-1.64,2.1-.2,4.3-.86,6,1-.09,2.12-1.91,1.31-3,1.72-.76.34-1.72.13-2.36.71-4.61-.47-9.23-.94-13.85-1.44-3.31-.36-6.62-.86-9.94-1.12A12.21,12.21,0,0,1,73.64,73.42Z"/><path class="cls-47" d="M101.24,76.84A1.84,1.84,0,0,1,103,76a51.63,51.63,0,0,1,20.53-.56,1.37,1.37,0,0,1,.68,1.41Z"/><path class="cls-48" d="M124.2,76.84c0-.24,0-.47,0-.71l.53-.59c6-1.53,12-.53,18.08-.61a3.94,3.94,0,0,1,1.48.54,1,1,0,0,1,.39,1.33v0l-19.5.09Z"/><path class="cls-49" d="M57.65,61.79l.94.94c.92.77,0,2.08.86,2.89,1.92,3,6,2.58,8.15,5.16,0,.7-.21,1.24-1.1.86-3-.18-5.61-1.46-8.2-2.79-4.08-2.1-4.25-3-1.54-7Z"/><path class="cls-6" d="M66.55,71.6l.86-.81c2.5-1,4.81-1.14,6.4,1.58-1,.13-2.11-.1-2.79,1C69.71,72.25,67.75,73,66.55,71.6Z"/><path class="cls-50" d="M188.22,68l.87.93c-3.88,3-8.71,3.07-13.15,4.31a21.77,21.77,0,0,1-8.18,1.06,1.64,1.64,0,0,1-1.81.13,1.21,1.21,0,0,1,.08-1.18c1.72-1.45,4-.67,5.94-1.38a4.74,4.74,0,0,1,2.48,0s.71.91.48-.15c0-.12-.34-.28-.28-.63,1.2-1.8,3.16-1.43,4.89-1.73,1.72.19,3.38.39,4.94-.56q.5-.25,1-.48C186.38,68,187.23,67.34,188.22,68Z"/><path class="cls-51" d="M144.67,76.82V76c3.56-2.42,17.4-3.59,21.32-1.8h0c.29.2.39.39.28.59s-.2.28-.31.28c-4.76-.24-9.39,1.43-14.16,1-1.06.86-2.54-.11-3.59.81Z"/><path class="cls-52" d="M148.2,76.86c1-1.24,2.34-.76,3.59-.81C150.81,77.28,149.45,76.8,148.2,76.86Z"/><path class="cls-52" d="M166,75.09a6.17,6.17,0,0,0,0-.86l1.8,0A1.83,1.83,0,0,1,166,75.09Z"/><path class="cls-53" d="M139.29,55.65c6.58.22,13.12.9,19.68,1.45a175.81,175.81,0,0,1,19.5,3c1.55.3,3.18.55,4.39,1.72l-.59.53c-3.6,1-7-.53-10.4-1.08-9.85-1.54-19.71-2.84-29.71-2.69-1.87,0-3.86.36-5.43-1.16C136.45,55.13,138.71,56.63,139.29,55.65Z"/><path class="cls-54" d="M109.18,55.65l14.16-.12,1,.09c0,.25.1.49.16.74a2.58,2.58,0,0,1-1.21.93c-4.58.42-9.17,1-13.7-.32a.93.93,0,0,1-.4-1.26Z"/><path class="cls-55" d="M124.26,56.42v-.8h15c-.65,1-1.72.74-2.64.86A13.25,13.25,0,0,1,124.26,56.42Z"/><path class="cls-53" d="M188.22,68a5.77,5.77,0,0,1-2.69.86c1.72-3.35-1.91-4.67-2.65-7.08h0A6.38,6.38,0,0,1,187,63C189,64.25,189.75,65.85,188.22,68Z"/><path class="cls-56" d="M109.18,55.65v.86c.75,1.72-2.14,1.21-1.66,2.75a7.21,7.21,0,0,1,.68,1.5,9,9,0,0,1-.12,4.88,1.58,1.58,0,0,0-.2,2,2.15,2.15,0,0,1-1.59,2C101.48,73,96,72.89,90.58,72.47c-7.74-.59-15.53-.77-23.07-2.78-3.2-.86-6.67-1.42-8.94-4.3-1-.86.27-1.76,0-2.64,3.8-2.69,8.26-3.55,12.68-4.41,5.17-1,10.33-2,15.57-1.86a2.35,2.35,0,0,0,1.94-.86Z"/><path class="cls-57" d="M106.47,185.25H87V174.54h7.51c5.4,0,9,3,12,7.1C106.47,182.88,106.47,184.06,106.47,185.25Z"/><path class="cls-58" d="M87,150.21a41.06,41.06,0,0,0,20.55,11.45,15.19,15.19,0,0,0,4.79.6c4.22,1.08,8.6-.47,12.82.86l-1.72,1.72a28.21,28.21,0,0,1-10.68,0c-9.64-.46-18-4.22-25.69-9.82Z"/><path class="cls-59" d="M83.39,218.07c-4-.25-7.11-2.47-7.87-5.67a8,8,0,0,1,3.77-9.05,6,6,0,0,1,3.24-1.23c2.34,1.38,2.16,3.66,2.15,5.88-1.58,1.45-1.22,2.91,0,4.36C84.72,214.37,84.87,216.41,83.39,218.07Z"/><path class="cls-60" d="M83.39,218.07c.12-2.09-.32-4.25.93-6.17a8.94,8.94,0,0,1,0-3.57c-1.32-1.86-.45-4.35-1.78-6.21a5.62,5.62,0,0,1,3.51.86A135.1,135.1,0,0,1,85.89,218Z"/><path class="cls-14" d="M112.7,164.85h10.68l.86.86h-8.31C114.8,165.69,113.58,165.92,112.7,164.85Z"/><path class="cls-61" d="M135.55,104.55c1.27-.35,2.82.33,3.81-1,9,1.38,16.62,5.27,22.26,12.42,6.09,7.75,6.73,16.28,2.16,25-4.7,8.89-12.27,14.56-21.7,17.83a2.45,2.45,0,0,0-2.07-1.09c.29-2,2.13-2.21,3.52-2.91,7.5-3.82,14.22-8.45,17.72-16.58,3.29-7.69,2.26-14.63-3.26-21-4.55-5.16-10.33-8.2-16.89-10-1.72-.46-3.52-.52-5.1-1.4A1.16,1.16,0,0,1,135.55,104.55Z"/><path class="cls-61" d="M125.15,163.12c-4.31-.43-8.61.69-12.82-.86h15.85C127.3,163,126.13,162.72,125.15,163.12Z"/><path class="cls-61" d="M132.54,102.56h-9.47a1.32,1.32,0,0,0,.34-.61C126.45,102.39,129.57,101.38,132.54,102.56Z"/><path class="cls-61" d="M129.6,162.1c1.05-1.26,2.45-.78,3.77-.75A4.94,4.94,0,0,1,129.6,162.1Z"/><path class="cls-61" d="M138.89,103.42c-1.37,0-2.82.57-4-.69A5.33,5.33,0,0,1,138.89,103.42Z"/><path class="cls-61" d="M134,161.23c.74-1.06,1.82-.86,2.86-.78A3.22,3.22,0,0,1,134,161.23Z"/><path class="cls-61" d="M140.25,159.42a1.73,1.73,0,0,1,1.86-.76A1.79,1.79,0,0,1,140.25,159.42Z"/><path class="cls-61" d="M137.59,160.28a1.89,1.89,0,0,1,2-.69A2,2,0,0,1,137.59,160.28Z"/><path class="cls-62" d="M150.06,218.16l-1-.11a4.39,4.39,0,0,1-1.1-2.78,32.94,32.94,0,0,1-.1-3.85c.25-3.09-.8-6.35,1.16-9.22l1-.1c2.47.59,4.82,1.39,6.26,3.73C159.59,211.23,156.2,218.09,150.06,218.16Z"/><path class="cls-63" d="M128.74,218.14l-1-.11a5.51,5.51,0,0,1-1.15-3.54,14.85,14.85,0,0,1,0-2.31c.31-3.32-.92-6.83,1.22-9.93l.06-.36a16.09,16.09,0,0,1,2.16.5c4.45,1.64,6.12,4.15,5.81,8.69C135.56,215,133.54,217,128.74,218.14Z"/><path class="cls-64" d="M149.06,215.39v2.67c-4.66-.76-6.88-2.89-7.51-7.2-.45-3.06,1.47-6.2,4.85-7.91l1-.77H149v9.71C146.12,213.05,147.15,214.22,149.06,215.39Z"/><path class="cls-62" d="M147.39,202.18l-1,.77Z"/><path class="cls-65" d="M136,105.23A34.5,34.5,0,0,1,157.74,115c7.51,7.38,8.6,17.21,3.17,26.29-4,6.7-10.11,11-17,14.38-1.31.64-2.81.86-3.93,1.91h-.37l-.3.23c-.6.42-1.37.37-2,.71l-.36-.06-.3.22c-.79.67-2,0-2.75.79l-.42-.07-.39.2c-.93.55-2.07.21-3,.66l-1.41.19c-1.92.48-3.84.81-5.69-.23-1.16-1.72-1-3.66-1-5.55,0-13.38-.07-26.76,0-40.15.06-10.11,1.2-11,11.44-9.67A5.6,5.6,0,0,1,136,105.23Z"/><path class="cls-66" d="M136,105.23c-3.26,0-6.5,0-9.75.1-1.5,0-2.26.49-2.38,2.36-.15,2.17-.53,4.3-.52,6.56v46.12a30.24,30.24,0,0,1-10.65.1c-4-1-8-1.72-11.85-3.44a36.83,36.83,0,0,1-9-5.53c-4.17-3.5-6.77-7.67-6.15-13.42a33.57,33.57,0,0,0,0-6.18c-.43-4.91,1.45-8.87,4.69-12.39,7.27-7.93,16.5-12.11,26.85-14.15,2-.4,4.07-.69,6.1-1a28.44,28.44,0,0,1,9.74,0l2.42.21C135.73,104.82,135.85,105,136,105.23Z"/><path class="cls-61" d="M112.74,160.47c3.54-.29,7.1.86,10.64-.1l5.31.07a2.27,2.27,0,0,1-1.91.86C122.1,160.88,117.33,162.21,112.74,160.47Z"/><path class="cls-61" d="M133.15,104.34h-9.77A12.46,12.46,0,0,1,133.15,104.34Z"/><path class="cls-61" d="M130.1,160.25a3.71,3.71,0,0,1,3-.66C132.29,160.62,131.18,160.36,130.1,160.25Z"/><path class="cls-61" d="M133.93,159.46a3.48,3.48,0,0,1,2.75-.8C136,159.67,134.94,159.5,133.93,159.46Z"/><path class="cls-61" d="M137.34,158.51a2,2,0,0,1,2-.71A1.83,1.83,0,0,1,137.34,158.51Z"/><path class="cls-67" d="M105.61,202q7.22,1.68,8,7.12c.71,5.16-2.77,8.61-7.94,9.21l-.06-.34a20.32,20.32,0,0,1,0-15.65Z"/><path class="cls-68" d="M105.61,202.31V218c-4.93-.52-8.07-3.69-8-8.05C97.74,205.74,100.85,202.77,105.61,202.31Z"/><path class="cls-69" d="M127.79,202.25v10.53c-.76.56-1.79-.19-2.58.57.39,1.38,1.87.45,2.58,1.18V218c-4.13-.58-7-2.77-7.75-6.1-.86-4,.87-6.88,4.23-8.94.49-.52,1.32-.33,1.82-.86Z"/><path class="cls-63" d="M126.07,202.16a2,2,0,0,1-1.82.87A1.73,1.73,0,0,1,126.07,202.16Z"/><path class="cls-70" d="M58.55,65.35c6.2,3.32,13,4.52,19.79,5.16,5.52.55,11,1.34,16.65,1.09,3.45-.16,6.71-.44,9.56-2.59.51-.39,1.22-1,1.91-.12.49,1.39-.54,2-1.37,2.77-1.93,1.84-4.64,1.43-6.89,2.41A3.93,3.93,0,0,1,95,73.43c-7.1.21-14.1-1.39-21.2-1.07-2-1.26-4.3-.94-6.4-1.58a30.7,30.7,0,0,1-6.17-2.29C59.93,67.82,58.58,67.14,58.55,65.35Z"/><path class="cls-71" d="M95,73.44l3.51-.22a65.28,65.28,0,0,1,17.87-.9c2.51,1.34,5.9-.35,8,2.31a1,1,0,0,1-1,.87h0c-5.61-.23-11.24.55-16.82-.44-1.94-1.59-4.2-.59-6.31-.81a7.06,7.06,0,0,1-5.23-.1C95,73.91,95,73.67,95,73.44Z"/><path class="cls-72" d="M106.53,75.09l17.77.08c.2.18.26.35.19.52s-.14.26-.21.26l-.06.18L103,76C103.89,74.7,105.33,75.29,106.53,75.09Z"/><path class="cls-73" d="M95,74.19l5.23.09c-.35.24-.69.68-1,.69-2.58.06-5.17,0-8,0C92.47,73.75,93.83,74.46,95,74.19Z"/><path class="cls-52" d="M166,74.24c-7.13.38-14.25.75-21.32,1.8l-.92-.07c-.45-.7-2.34,0-1.68-1.8,2.28-1.87,5-1,7.53-1.14s4.93.26,7.34-.53c3.95-.32,7.89-.76,11.83-1.21a6.16,6.16,0,0,1,2.89.63l.53.52c-.79,1.13-2,.86-3.1.9S166.79,73.12,166,74.24Z"/><path class="cls-74" d="M142,75.1a1.86,1.86,0,0,1,1.72.86H124.24q0-.39,0-.78v-.06A27.76,27.76,0,0,1,142,75.1Z"/><path class="cls-75" d="M169.52,72.4c-4.15.13-8.2,1.38-12.4,1-1.13.44-2.3,1-2.87-.76,1.94-1.94,4.53-1.77,6.95-2.23,4.43-.87,9.09-.87,12.9-3.68.3-2.49-1.91-2.31-3.2-2.74-5.16-1.72-10.56-2.22-16-2.7-10.17-1.21-20.35-.86-30.54-.86-3.2-.28-6.48.61-9.58-.78-1-2.39,1-2,2.19-2.2,2.38-.33,4.88.55,7.16-.75v-.23l12.4.07c1,1.16,2.46.86,3.75.86a176.12,176.12,0,0,1,40.22,4.41,10.88,10.88,0,0,0,2.21.08,9.42,9.42,0,0,0,1.31,1c4.16,2.41,4.17,2.4,1.34,6h0c-1.72.55-3.26,2-5.26,1-1.62,1.2-3.9.21-5.43,1.67-.66.73-1.54.4-2.34.48S170.43,71.7,169.52,72.4Z"/><path class="cls-76" d="M180.26,69.84l5.25-1C183.92,70.25,182.4,71.64,180.26,69.84Z"/><path class="cls-77" d="M172.24,71.6l2.58-.09c.26.08.64.09.77.27.35.48,0,.64-.45.65h-3c-.3-.2-.39-.4-.29-.58A.42.42,0,0,1,172.24,71.6Z"/><path class="cls-78" d="M124.23,56.63c-.3,1.89-1.78,1.47-3,1.62-2.24.25-4.64-.77-6.72.81-2.58,2.06-5.26,1.38-7.92.12-.39-.36-1.06-.67-1.14-1.09-.18-.77.6-.74,1.12-.77,1-.06,2,.1,2.64-.86Z"/><path class="cls-79" d="M104.75,70.68a3.69,3.69,0,0,0,1.72-1.79,1.7,1.7,0,0,0,.86-1.84.47.47,0,0,1-.17-.5c0-.16.11-.24.17-.24l.15-6.23c5.3-1,10.64-.45,16-.27,2.2,2.58,3,8.27,1.53,10.94-1,1.89-2.76,2-4.5,2-2.77,0-5.51-.45-8.27-.29C109.76,71.66,106.53,74.19,104.75,70.68Z"/><path class="cls-79" d="M102.17,61.73c1.47,4.81,0,7.05-4.87,7.16a31.91,31.91,0,0,1-12.39-2.41c-1.35-.53-2.44-1.23-1.46-2.93C87.46,59.28,98.73,58.19,102.17,61.73Z"/><path class="cls-80" d="M102.17,61.73c-2.25-1.73-4.84-.81-7.26-.77-4,.06-7.92.52-11.46,2.58-1.64-1.85.25-2.31,1.26-2.74A27.47,27.47,0,0,1,97.1,58.21c1,.06,2.19-.18,3.06.21C101.4,59,103.51,59.4,102.17,61.73Z"/><path class="cls-81" d="M123.36,60.07H107.47l-.92-.86,7.92-.12h9.77a.73.73,0,0,1,.31.66c0,.25-.08.38-.15.38A.74.74,0,0,1,123.36,60.07Z"/><path class="cls-82" d="M63.09,63.64c-.54-.1-1.49-.34-1.13-.86,1.49-2,5.79-1.85,7.59.24a6.57,6.57,0,0,1-.45.66A8.63,8.63,0,0,1,63.09,63.64Z"/><path class="cls-83" d="M63.09,63.64a11.85,11.85,0,0,1,6,0C66.55,66,65.61,66,63.09,63.64Z"/><path class="cls-70" d="M107.33,66.31a3.05,3.05,0,0,1,0,.74,3.5,3.5,0,0,1-.29-.54Z"/><path class="cls-84" d="M84.31,208.33c1.28,1.18,1.27,2.37,0,3.57-1.36,0-2.74-.07-2.59-2C81.85,208.23,83.17,208.39,84.31,208.33Z"/><path class="cls-85" d="M149.06,215.39h-1.31c-1.57.08-2.68-.71-2.47-2.25s1.42-2,2.95-1.41a2.8,2.8,0,0,0,.86.13C149.07,213.07,149.07,214.23,149.06,215.39Z"/><path class="cls-86" d="M152.68,210.9c-.31,0-.79-.46-.81-1.27a1,1,0,0,1,.94-1.16h.06a1.17,1.17,0,0,1,1.39.86,1.84,1.84,0,0,1,0,.33C154.3,210.23,154,210.74,152.68,210.9Z"/><path class="cls-87" d="M127.77,214.53a8.73,8.73,0,0,1-1.55.72c-1,.25-2,.42-2.58-.75a1.88,1.88,0,0,1,.43-2.34,1.72,1.72,0,0,1,2.42-.3,1.58,1.58,0,0,1,.23.22,6.79,6.79,0,0,0,1.07.7C127.78,213.37,127.77,214,127.77,214.53Z"/><path class="cls-88" d="M131.43,210.92c-1.19-.06-1.72-.49-1.68-1.34s.45-1.72,1.57-1.54c.7.11,1.44.43,1.47,1.3C132.82,210.45,131.89,210.67,131.43,210.92Z"/><path class="cls-89" d="M147.87,206.9a1.83,1.83,0,0,1-2,1.29,1.2,1.2,0,0,1-1.1-1.3.92.92,0,0,1,.05-.28c.19-.93.74-1.59,1.83-1.2C147.31,205.65,148,206,147.87,206.9Z"/><path class="cls-90" d="M126,206c0,1.53-.44,2.2-1.54,2.25s-1.82-.27-1.72-1.44A1.82,1.82,0,0,1,124.5,205h.26A1.18,1.18,0,0,1,126,206Z"/><path class="cls-91" d="M104.75,70.68c2.15,1.81,4.71.51,7,.94,4.06,1,8.22,0,12.3.56a1,1,0,0,1,.07,1.39,18.22,18.22,0,0,1-7-.17l-18.63-.18C100.45,71.94,103.12,72.64,104.75,70.68Z"/><path class="cls-92" d="M117.14,73.4l7.11-.06c3.15-2.21,6.74-.91,10.12-1.21,1.58-.15,3.18,0,4.77,0,3.34-.07,6.68.21,10-.59,1.8-.43,3.8-.61,5.32,1,.67,1,1.72.76,2.66.86-1.6,1.49-3.58.6-5.39.86-3.23.45-6.62-.86-9.73.86H124.25c-.93-1.27-2.3-.82-3.53-.86S118.13,74.53,117.14,73.4Z"/><path class="cls-50" d="M172.24,71.6a6.17,6.17,0,0,0,0,.86l-2.7,0C170.21,71.43,171.25,71.58,172.24,71.6Z"/><path class="cls-93" d="M154.46,72.53c-5.09-.37-10.06,1.48-15.17.74-2.91-1.12-6.09.42-9-.9,1.12-2.8,3.66-2.07,5.67-2.05a201.64,201.64,0,0,0,26.79-1.72c4-.47,7.75-1.72,11.57-2.73.86,0,1.62.09,1.45,1.27-3.58,3.3-8.35,3.13-12.67,4.21C160.31,72.12,157.35,72.12,154.46,72.53Z"/><path class="cls-94" d="M124.29,60v-.86c7.16,0,14.32-.09,21.51.1,3.44.09,6.88,1,10.43.86,0,1.59-1.25,1.61-2.27,2-8.83.7-17.58-1.24-26.41-.8A4,4,0,0,1,124.29,60Z"/><path class="cls-95" d="M154.41,60.93a1.92,1.92,0,0,0,1.72-.86c5.73.86,11.54,1.23,17,3.35A6.1,6.1,0,0,1,176,65.28a1.19,1.19,0,0,1-.27,1.86l-.87-.91a93,93,0,0,0-17.58-3.36C156.08,62.81,154.54,62.83,154.41,60.93Z"/><path class="cls-96" d="M154.41,60.93c3.5,1.59,7.41.62,11,1.72,3.23,1,7,.56,9.47,3.55-1.43,1.72-3.59,2.06-5.54,2.5a127.11,127.11,0,0,1-14.41,2c-7.37.78-14.72.79-22.1.86a3.21,3.21,0,0,0-2.46.77,8.77,8.77,0,0,1-6.14,0h-9.18c-1.14,0-2.35.21-3.27-.8,3.22,0,6.44-.11,9.66,0,2.09,0,3-.86,2.8-2.89-.24-2.88.69-5.87-.87-8.61l.93-.1C134.35,59.58,144.34,60.93,154.41,60.93Z"/><path class="cls-97" d="M124.24,72.43h6.14c3,.52,6.08-.8,8.91.86l-15,.07C124.24,73,124.24,72.73,124.24,72.43Z"/><g class="cls-98"><text class="cls-99" transform="translate(101.06 129.41) scale(1.21 1)">M</text><text class="cls-100" transform="translate(101.06 129.41) scale(1.21 1)">M</text><text class="cls-99" transform="translate(116.13 129.41) scale(1.21 1)">E</text><text class="cls-100" transform="translate(116.13 129.41) scale(1.21 1)">E</text><text class="cls-99" transform="translate(128.04 129.41) scale(1.21 1)">A</text><text class="cls-100" transform="translate(128.04 129.41) scale(1.21 1)">A</text><text class="cls-99" transform="translate(138.65 129.41) scale(1.21 1)">T </text><text class="cls-100" transform="translate(138.65 129.41) scale(1.21 1)">T </text><text class="cls-99" transform="translate(101.06 148.02) scale(1.21 1)">P</text><text class="cls-100" transform="translate(101.06 148.02) scale(1.21 1)">P</text><text class="cls-99" transform="translate(113.51 148.02) scale(1.21 1)">I</text><text class="cls-100" transform="translate(113.51 148.02) scale(1.21 1)">I</text><text class="cls-99" transform="translate(120.61 148.02) scale(1.21 1)">E</text><text class="cls-100" transform="translate(120.61 148.02) scale(1.21 1)">E</text><text class="cls-99" transform="translate(131.98 148.02) scale(1.21 1)">S</text><text class="cls-100" transform="translate(131.98 148.02) scale(1.21 1)">S</text></g><rect class="cls-101" width="250" height="250"/></svg>