<svg id="Layer_1" data-name="Layer 1" xmlns="http://www.w3.org/2000/svg" viewBox="0 0 250 250"><defs><style>.cls-1{fill:#e8e5df;}.cls-2{fill:#e8c643;}.cls-3{fill:#deb336;}.cls-4{fill:#fff;}.cls-5{fill:#e8c644;}.cls-6{fill:#e9b901;}.cls-7{fill:#eed676;}.cls-8{fill:#e5e2db;}.cls-9{fill:#e8e4de;}.cls-10{fill:#fadc00;}.cls-11{fill:#dec000;}.cls-12{fill:#cd9d00;}.cls-13{fill:#b1b302;}.cls-14{fill:#774417;}.cls-15{fill:#764315;}.cls-16{fill:#a5a708;}.cls-17{fill:#faf096;}.cls-18{fill:#f8e66e;}.cls-19{fill:#f2d533;}.cls-20{fill:#746f15;}.cls-21{fill:#716b0f;}.cls-22{fill:#746e15;}.cls-23{fill:#726c11;}.cls-24{fill:#706a0e;}.cls-25{fill:#756f16;}.cls-26{fill:#6f690c;}.cls-27{fill:#6f690d;}.cls-28{fill:#726d12;}.cls-29{fill:#716c11;}.cls-30{fill:#746e14;}.cls-31{fill:#f9f9f5;}.cls-32{fill:#f1f0e7;}.cls-33{fill:#7b7621;}.cls-34{fill:#868133;}.cls-35{fill:#8e8a40;}.cls-36{fill:#8b863b;}.cls-37{fill:#908c44;}.cls-38{fill:#807b28;}.cls-39{fill:#7b7520;}.cls-40{fill:#8a863a;}.cls-41{fill:#96914e;}.cls-42{fill:#868134;}.cls-43{fill:#eae9da;}.cls-44{fill:#a6a369;}.cls-45{fill:#fbfbf8;}.cls-46{fill:#979350;}.cls-47{fill:#898438;}.cls-48{fill:#e6d13c;}.cls-49{fill:#fbfbf9;}.cls-50{fill:#ecece0;}.cls-51{fill:none;}</style></defs><title>products</title><path class="cls-1" d="M205.53,250H43.4a60,60,0,0,0,.22-9.57v-104c0-.59.07-1.2.12-1.8a1,1,0,0,1,.9.58,13.16,13.16,0,0,1,.48,5.33v94.07c0,3.3.34,3.64,3.66,3.66a188.21,188.21,0,0,0,60.58-9.23,3.74,3.74,0,0,0,1.6-.81c.87-1.3,2.28-1,3.56-1.24,16.14-2.78,29.76-9.86,39.83-22.73,3.75-4.76,5.09-10.6,6.21-16.43.2-1-.28-2.55,1.59-2.64.79.78,0,1.72.27,2.55a6.82,6.82,0,0,1,.92-3.13c8.72-15.07,13.68-31.45,16.84-48.46a4.83,4.83,0,0,1,1.56-3.46,3,3,0,0,1,1.07-.17,22.38,22.38,0,0,1,6.95,2.21,14.66,14.66,0,0,0,11.26.32c3.63-1.34,4.06-.93,4.06,2.74V249Z"/><path class="cls-2" d="M43.75,119.18c0-1-.12-2-.12-3V51.07c0-2.19,0-2.19,2.17-2.27h138c1.11,0,2.22.09,3.34.12a4.94,4.94,0,0,1,1,3.69c-.33,11.78-.49,23.55-1.07,35.32-.42,9-.93,17.93-1.88,26.87a8.42,8.42,0,0,1-.51,2.64,1.71,1.71,0,0,1-.71.79,5,5,0,0,1-2.7,0,19.78,19.78,0,0,0-12.47,1.87,18.11,18.11,0,0,1-16.7.21,22.37,22.37,0,0,0-20,.15,16.5,16.5,0,0,1-15.25,0,22.37,22.37,0,0,0-20.34,0,15.94,15.94,0,0,1-11.26,1.46,6.47,6.47,0,0,1-3.92-2.13c-1.45-4.17-.84-8.43-.48-12.66.57-1.39,1.89-1.68,3.14-2a50.53,50.53,0,0,0,6.78-2.48c3.08-1.39,6-2.83,6-6.79,1.64-1.37,3.75-1.56,5.71-1.95a93.34,93.34,0,0,1,47.94,1,5.3,5.3,0,0,1,1.75,1,1.58,1.58,0,0,1,.43.83,4.11,4.11,0,0,0,2.36,4.14c6.79,4.12,14.36,5.38,22.12,6,1.74.14,2.12-.55,1.35-2.18-3.15-6.56-3.12-6.58,2.23-11.85a5.32,5.32,0,0,0,1-1.14c-2.38,0-4.64.1-6.87,0a3.53,3.53,0,0,1-3.74-3.8c0-1.43.57-3.12-.84-4.23a118.75,118.75,0,0,0-35.69-9.84c-16.71-1.86-32.74,1.22-48.34,6.8a7.66,7.66,0,0,1-3.54.75c-1.46-.29-1.78-1.56-1.88-2.72-.13-1.56,0-3,0-4.48A11.59,11.59,0,0,0,70,62.68c-5.69-.6-11,3.22-12.64,9.12a24.65,24.65,0,0,0-.59,5.94V117c0,1.67.26,3.44-1.18,4.79C51,123.31,47.28,121.71,43.75,119.18Z"/><path class="cls-3" d="M184.06,117.94a98.22,98.22,0,0,1,1.13-12.7,2,2,0,0,0,0-.6c-.36-4.49.43-8.93.73-13.37.55-8.25,0-16.52.67-24.73.42-5.88.25-11.72.46-17.59a143.68,143.68,0,0,1,17.73.21,3.8,3.8,0,0,1,.27,2.33V116.4a5.41,5.41,0,0,1-.24,2.36c-2.54,3.28-6.28,3.84-10,3.56A16.34,16.34,0,0,1,184.06,117.94Z"/><path class="cls-4" d="M43.75,119.18a29,29,0,0,1,4.84,1.7,12.48,12.48,0,0,0,6.54.68c6.78-3.87,13.77-6.73,21.79-4.27a11.85,11.85,0,0,1,5,2.59,13.5,13.5,0,0,0,12.55.55,60.24,60.24,0,0,1,6.83-2.53,18.31,18.31,0,0,1,11.36.28c2.12.69,4.2,1.56,6.25,2.38a13.36,13.36,0,0,0,10.63,0,39.23,39.23,0,0,1,10.69-3.37,18,18,0,0,1,7.5.75q3.75,1.28,7.41,2.73a13.07,13.07,0,0,0,10.07-.1,40.45,40.45,0,0,1,10.68-3.41,16.49,16.49,0,0,1,7.46.85c1.22,2.14,1.63,4.19-.72,5.89a8.47,8.47,0,0,1-3.32.3,22.14,22.14,0,0,0-10.95,2.14,18.37,18.37,0,0,1-16.74,0,20.64,20.64,0,0,0-19.09,0,17.69,17.69,0,0,1-16.12,0,23,23,0,0,0-20,0c-4.52,2-9.14,2.77-13.85.53-7.67-3.55-15.34-4.06-23-.11A14.11,14.11,0,0,1,55.78,128c-4.49.48-8.72.11-12.1-3.32C43.72,123,43.74,121.07,43.75,119.18Z"/><path class="cls-3" d="M204.21,119.16a6.16,6.16,0,0,0,.61-3.78V49.19c.76,1,.37,2.13.37,3.13v193.4A8.49,8.49,0,0,1,205,249a8,8,0,0,1-.14-3V138.75a12.09,12.09,0,0,0-.22-3.7,5.14,5.14,0,0,0-3.33.87,13.21,13.21,0,0,1-10.92.1c-2.69-1.16-5.48-2.08-8.24-3.13-2-2.69-.71-7.82,2.22-9,2.4,0,4.36,1.3,6.63,2a14.9,14.9,0,0,0,9.22.17c2.52-.76,4.13-2,3.72-4.9A10.48,10.48,0,0,1,204.21,119.16Z"/><path class="cls-5" d="M43.72,125c3.81,1.76,7.66,3.37,12,2.68,1.7,2.8.87,5.78.65,8.72-.56,1.56-1.88,1.71-3.24,1.67a13.63,13.63,0,0,1-9-3.12l-.49-.25Q43.71,129.82,43.72,125Z"/><path class="cls-4" d="M44.2,134.91c2,.22,3.76,1.37,5.72,1.87a8.64,8.64,0,0,0,5.89,0c7.13-4.06,14.53-6.89,22.78-3.4a28.79,28.79,0,0,0,3.69,1.39,14.77,14.77,0,0,0,13.51-.22,23.52,23.52,0,0,1,22,.14,14.12,14.12,0,0,0,13.19,0,23.55,23.55,0,0,1,22.25-.14,14.85,14.85,0,0,0,13.78,0,31.93,31.93,0,0,1,9-2.71c2-.31,4.1-.68,5.59,1.28-3.22,19.27-8.71,37.74-19.33,55-.14-1.34-.22-2.19-.3-3-1.45-2.58-.71-5.46-1.16-8.19a27.52,27.52,0,0,0-8-15.48,19.44,19.44,0,0,1-5.51-13.82c.81-4.18.7-4.39-2.44-4.69h-2.14c-4.27,0-5,1.08-3.42,5.17.84,5.12,0,7.21-4.48,9.71a16.62,16.62,0,0,0-6.75,7c-3.32,6.15-6.37,12.5-11.63,17.5a30.9,30.9,0,0,1-15.12,8,118.91,118.91,0,0,1-17.8,2.47,30.77,30.77,0,0,0-10.33,2.49c-.36.14-.75.2-1.14.31-2.91.74-3.24,1.78-1.54,4a8.51,8.51,0,0,0,1,1.05c6.27,7.39,14.52,10.81,24.08,11.53a3.17,3.17,0,0,1,1.46.43c.83,1.34-.37,1.9-1.11,2.56a32.27,32.27,0,0,1-2.71,2.22c-3.39,2.08-3.33,3.13.29,5.39a32.39,32.39,0,0,0,14.29,4.47,5.24,5.24,0,0,1,3.39,1.08c.16.22,1.45.22.3.68a80.26,80.26,0,0,1-7.71,2.75,162.4,162.4,0,0,1-25.15,5.5c-5.29.7-10.63,1.19-16,1.56s-10.53.44-15.81.46c-2.64,0-2.68,0-2.68-2.71Q44.19,185.72,44.2,134.91Z"/><path class="cls-6" d="M111.25,228.36a32.91,32.91,0,0,1-18-5.11,2.45,2.45,0,0,1,.4-2.83c1.46-.76,3,.24,4.55,0,4.85,0,9.74.35,14.53-.87A51.45,51.45,0,0,0,139,205.37c11.72-12,14.11-25.74,8.41-41.12-1.2-3.27-3.25-6.25-3.63-9.8a11.7,11.7,0,0,1,.2-5.61,3.58,3.58,0,0,1,1.95-1.21,2.51,2.51,0,0,1,1.79,0l1,4.38a17.66,17.66,0,0,0,5.11,9.29A26.91,26.91,0,0,1,162,180.73v4.49c-.8,1.56-.6,3.31-.93,5a37.49,37.49,0,0,1-13.7,23A73.49,73.49,0,0,1,117,227.71C115.13,228,113.06,227.6,111.25,228.36Z"/><path class="cls-2" d="M181.59,133.11c-3.82-1.39-7.41-.24-11,.92-1.93.63-3.82,1.38-5.68,2.17a12.36,12.36,0,0,1-10-.1c-2.24-.91-4.53-1.72-6.81-2.55a16.85,16.85,0,0,0-11.63,0c-2.09.72-4.22,1.42-6.24,2.34a13.49,13.49,0,0,1-11.48,0c-2.14-.92-4.36-1.72-6.54-2.47a16.44,16.44,0,0,0-11,0c-2.2.77-4.43,1.57-6.55,2.43a13.61,13.61,0,0,1-12.56-.49c-1.62-1.81-2.18-6.85-1-8.61a1,1,0,0,1,1.47-.42l.09.06a15.55,15.55,0,0,0,13.52-.58,27.38,27.38,0,0,1,7.53-2.42A21.21,21.21,0,0,1,115,125c8.93,3.69,9.78,3.8,18.89,0a20.73,20.73,0,0,1,16.83,0c8.89,3.75,9.81,3.7,18.58,0a24.12,24.12,0,0,1,12.83-1.56c.71.71,2.37-.76,2.57,1.09-.59,0-1.45-.08-1.59.55-.44,2.59-1.65,5.09-.9,7.81Z"/><path class="cls-4" d="M151,95.89c-4.47-.89-8.89-2-13.41-2.66a90.47,90.47,0,0,0-29,.41,71.21,71.21,0,0,0-11.82,2.79,6.17,6.17,0,0,1-3.11,1.79c-4.09,1.25-8.09,2.7-12.07,4.25-4.49,1.72-5.23,1.23-5.27-3.36V88c0-5.68.8-6.52,6.46-7.15A174.84,174.84,0,0,1,104,74.61a101.72,101.72,0,0,1,49.91,2.22,152,152,0,0,1,16.31,5.78,6.56,6.56,0,0,1,1,.66c0,5.33,1.93,10.46,1.45,15.84-.32,4.06-1.32,4.87-5.11,3.4s-8-2.86-12-4.18a6.33,6.33,0,0,1-3.4-1.85h0C152,96.06,151.45,96.17,151,95.89Z"/><path class="cls-7" d="M82.7,80.86c-1.64,1.24-4.47.91-5.24,2.89-.69,1.72-.22,3.87-.27,5.82v.88c-3,2.5-6.59.92-10,1.29,1.46,1.57,3.06,3.13,4.64,4.57a3.62,3.62,0,0,1,.87,4.79c-.07.1-.13.2-.2.29a35.24,35.24,0,0,0-2,3.36c-1,2-.8,2.44,1.57,2.2s4.62-.53,6.93-.7c.89,0,1.83-.42,2.53.47v10a6.46,6.46,0,0,0,.58,3.13c-2.19-.72-4.36-1.49-6.58-2.14a16.65,16.65,0,0,0-10.07.28c-2.4.76-4.71,1.75-7.06,2.61a9.55,9.55,0,0,1-3.17.92,5.79,5.79,0,0,0,.64-3.77V76.14a14.76,14.76,0,0,1,2.91-9.53,12.9,12.9,0,0,1,18.3-1.94c3.2,2.79,4.84,6,4.46,10.27-.11,1.39,0,2.8,0,4.19a1.46,1.46,0,0,0,1,1.71Z"/><path class="cls-8" d="M152.19,96.48A131.89,131.89,0,0,1,168,101.73c.38.16.73.36,1.11.5,2,.71,2.7.36,2.69-1.7a51.24,51.24,0,0,0-.34-9.51,47.38,47.38,0,0,1-.2-7.81c1,1.45.42,3.12.49,4.69.13,2.58.34,2.92,2.91,3a31.2,31.2,0,0,0,9.14-.57,20.37,20.37,0,0,1-4.36,4.79c-3.58,3.56-3.62,3.51-1.19,7.81.55,1,1.19,1.86,1.68,2.85.79,1.56.57,2-1.26,1.91a69.43,69.43,0,0,1-7.89-.57,41.42,41.42,0,0,1-16.84-5.83C151.29,99.65,151.3,99.62,152.19,96.48Z"/><path class="cls-8" d="M81.46,106.72c-2.9.34-5.81.75-8.71,1a12.57,12.57,0,0,1-4.81-.25c1.45-2.42,2.61-4.69,4-6.82a2.36,2.36,0,0,0,0-3.18,2.22,2.22,0,0,0-.49-.38c-2.16-1.91-4.17-4-6.8-6.55,4.68.5,8.63.91,12.51-.09v12.61c6.81-2.31,13.08-5,19.57-6.63.83,3.33.83,3.33-2.16,5.16A47.87,47.87,0,0,1,81.46,106.72Z"/><path class="cls-9" d="M184.7,124.6c-.64-.86-1.89-.32-2.57-1.09a1.43,1.43,0,0,0,1.31-1.53v-3.82l.62-.11c2.44,1,4.87,2,7.27,3,4.6,1.78,8.71.34,12.82-1.77,1.34,1.68.57,3.6.6,5.41,0,.52-.54.81-1,1-4.24,1.92-8.52,3.12-13.15,1.15A28,28,0,0,0,184.7,124.6Z"/><path class="cls-8" d="M151,95.89c.55,0,1,0,1.24.61A1.82,1.82,0,0,1,151,95.89Z"/><path class="cls-7" d="M82.64,126.42c-.51.12-1.12.3-1.1.83,0,2.72-.67,5.48.49,8.14-1.81-.62-3.64-1.2-5.43-1.87a18.23,18.23,0,0,0-13.08.5,38.74,38.74,0,0,1-7.71,2.69v-9.09c2.44-1,4.87-2,7.26-2.87a20.08,20.08,0,0,1,14.82-.21A21.27,21.27,0,0,1,82.64,126.42Z"/><path class="cls-10" d="M93,217c1-1.75,3.18-2.39,4.36-4.08,1.45-1.84,3.69-2.31,5.65-3.23,6.55-3.13,13.28-5.88,19.09-10.32a20.37,20.37,0,0,0,3.91-3.69,14.73,14.73,0,0,0,3.4-4.47c3.32-6.08,4.65-12.73,5.55-19.47a23.7,23.7,0,0,1,3.73-10.94,11,11,0,0,0,1.64-8.3,5.41,5.41,0,0,1,.1-3.78,1.41,1.41,0,0,1,1.46-.43,2,2,0,0,1,1.13,1c.41,5.44,2.61,10.32,4.6,15.34,6,15.12,1.82,31.64-10.37,42.68A53.86,53.86,0,0,1,111.86,220a55.18,55.18,0,0,1-13.51.89c-1.57,0-3-.69-4.55-.73C92.72,219.28,92.24,218.26,93,217Z"/><path class="cls-11" d="M140.71,148.68a13.18,13.18,0,0,0,.19,2.66,11.76,11.76,0,0,1-1.83,10.47,19.73,19.73,0,0,0-3.27,9.76A67.14,67.14,0,0,1,131.89,188a10.09,10.09,0,0,1-2.24,3.86c-4.35,5.46-10.46,8.23-16.94,10-12.78,3.6-25.46,3.38-37.77-2.38a6.51,6.51,0,0,1-2.9-2c-.56-1.11,0-1.94.71-2.73,3.47-2.18,7.42-2.55,11.36-2.9a129,129,0,0,0,17.14-2.39,29.88,29.88,0,0,0,19.24-13.1,123.19,123.19,0,0,0,7.41-13.07,10.36,10.36,0,0,1,5.3-5.53c4.62-1.82,6.16-5.13,5.67-9.71A1.4,1.4,0,0,1,140.71,148.68Z"/><path class="cls-12" d="M126.65,196c-2.36,3.41-5.81,5.54-9.34,7.51a173.76,173.76,0,0,1-20,9.38,37.13,37.13,0,0,1-17.44-4.38,25.63,25.63,0,0,1-8.72-7.62,2.14,2.14,0,0,1,1.08-2.72,1.82,1.82,0,0,1,.3-.11c4.26,1.83,8.42,3.93,13.08,4.69,13.39,2.37,26.15,1.11,38.06-5.95C124.58,196.38,125.3,195.27,126.65,196Z"/><path class="cls-13" d="M140.71,148.68l-1.84-.63a3.34,3.34,0,0,1-1.21-4,2.25,2.25,0,0,1,2.46-2.07H145a2.72,2.72,0,0,1,1.6,3.38,2.29,2.29,0,0,1-.27.62c-.27.67-.61,1.26-.1,1.94-.49.65-1.26.54-2,.67a1.46,1.46,0,0,1-1.58.25,2.21,2.21,0,0,1-.77-.3Z"/><path class="cls-14" d="M72.31,198.36l-1.13,2.58a3.9,3.9,0,0,1-.74-.48c-1.79-1.69-2.17-2.85-1.45-4.33.79-1.75,2.33-1.57,3.82-1.39-.12.86-.24,1.7-.37,2.56A.91.91,0,0,1,72.31,198.36Z"/><path class="cls-15" d="M93,217c.23,1,.48,2,.71,3.05.15.11.2.24.16.35s0,.2-.12.2c-.24.86.3,1.89-.53,2.64a5.13,5.13,0,0,1-.87-.26c-2-1.07-2.69-2.11-2.43-3.66S91.59,217.26,93,217Z"/><path class="cls-16" d="M146.2,148.05l-1.54-.1c1.24-2,2-3.91.31-5.84,2.9-.39,4,.55,3.69,3.27a4.56,4.56,0,0,1-1,2.16A2.65,2.65,0,0,1,146.2,148.05Z"/><path class="cls-17" d="M142.61,148.71h1.57a28,28,0,0,0,3,13.27,37.14,37.14,0,0,1,3.75,20.7,35.71,35.71,0,0,1-7.83,19.22,50.07,50.07,0,0,1-30,18.16c-.6.25-1.24.58-1.2-.55a52.87,52.87,0,0,0,24.7-12.92c12.71-12,16.17-28.61,9-44.2a32.13,32.13,0,0,1-3.28-13.18C142.28,149,142.35,148.79,142.61,148.71Z"/><path class="cls-18" d="M112,219.56c.28.46.74.47,1.19.55a19.82,19.82,0,0,1-6.77,1.19c-2.82,0-5.65,0-8.48-.08-.25-.11-.32-.22-.25-.33s.13-.19.22-.19A60.6,60.6,0,0,0,112,219.56Z"/><path class="cls-19" d="M97.94,220.67a2.26,2.26,0,0,0,0,.52c-1.45.37-2.76-.58-4.18-.58a.59.59,0,0,1,0-.55A10.67,10.67,0,0,1,97.94,220.67Z"/><path class="cls-20" d="M119.25,83.21a4.73,4.73,0,0,0,1,3.92,15.84,15.84,0,0,1-4.07.16,16,16,0,0,0-.23-10c1.45-.13,3.21-.33,5-.44,1.26-.09,2.53,0,3.09,1.38a2.31,2.31,0,0,1-.9,2.92,1.27,1.27,0,0,0-.61,1.56c-1.07.39-1.25-.43-1.58-1.08s.29-1.81-.84-2.33C118.8,80.42,120.65,82.11,119.25,83.21Z"/><path class="cls-21" d="M140.06,77.8l1.14.4c3,.9,4,2.15,3.83,4.79a5.39,5.39,0,0,1-4.7,5.06,8.09,8.09,0,0,1-4.73-.53,1.4,1.4,0,0,1,.8-1,8.6,8.6,0,0,1,2.09-.16,3.38,3.38,0,0,0,3.12-2.83A2.92,2.92,0,0,0,140,79.89l-.11,0a3.24,3.24,0,0,1-1.86-1.44,1,1,0,0,1,.25-.81A2.06,2.06,0,0,1,140.06,77.8Z"/><path class="cls-22" d="M85.05,95.18c-1.2-2.83-1.65-6.05-4.36-8.25a23.57,23.57,0,0,1,4.36-1.8,1,1,0,0,1,.29.72c-.68,1.92.85,3.5.85,5.33A7,7,0,0,0,87.52,94a.76.76,0,0,1,.16,1,.85.85,0,0,1-.16.17l-1.77.66C85.08,96.06,84.86,95.81,85.05,95.18Z"/><path class="cls-23" d="M99.77,81.39a5,5,0,0,1,2.91,5.88c-.47,2.74-2.56,4-5.32,4.32-.44-.69-2.08.36-1.86-1.27a3,3,0,0,1,1.34-.61c2.78-.8,3.47-2.5,2.09-5-.55-1-1.75-1.69-1.69-3A2.14,2.14,0,0,1,99.77,81.39Z"/><path class="cls-24" d="M163.3,86.83c0,.83-1.25,1.57,0,2.49.09.53,0,.86-.67.58A5.58,5.58,0,0,0,161,93.37c.1.64,0,1-.82.77a5,5,0,0,1-2.15-.82c1.46-3.12,3.42-5.88,3.43-9.49A10.4,10.4,0,0,1,164.58,85C164.8,86.07,163.4,86.05,163.3,86.83Z"/><path class="cls-21" d="M138.24,77.86v.6c-.19,2.89-.29,5.78-1.84,8.37l-.8.69a3.7,3.7,0,0,1-2-.29c.56-3.26,2.12-6.4,1.09-10,.54-.37,1.36.24,2.13,0C137.25,77.52,137.86,77.39,138.24,77.86Z"/><path class="cls-25" d="M131,77.88c-.35,3.12-1.35,6.25.3,9.38a11.11,11.11,0,0,1-4.17-.41c1.75-2.85,1-5.92,1.27-8.88C129.28,76.53,129.94,76.52,131,77.88Z"/><path class="cls-24" d="M108.18,86.41c-.23,1,.7,1.3,1.19,2.07l-3.82.78a19.47,19.47,0,0,0-1.9-10c.49-.44,1.31-.28,2-.36,2.1,0,1.22,1.94,1.9,2.87C108.33,83.27,108,84.88,108.18,86.41Z"/><path class="cls-26" d="M148.41,89.93c-3.15-3-2.91-6,.81-8.52.51-.52,1.31,0,1.85-.52h1.19c.35.66-.23.82-.6,1.08-3.06,2-3.57,3.55-2.35,7.13C149.44,89.8,149.14,90.09,148.41,89.93Z"/><path class="cls-27" d="M95.5,90.31c.26.89,1.45.56,1.79,1.28a4.34,4.34,0,0,1-5.41-2.18c-1.15-2.09-1.45-4.28.38-6.25.86-.25,1,.39,1.31.94C93.78,86.29,95.34,88.1,95.5,90.31Z"/><path class="cls-28" d="M110.65,83.21l4.17,3.89c-2.31,1.06-2.31,1.05-4-.55-.59-.56-1.2-1.08-1.79-1.56a1.32,1.32,0,0,1-1.06-1.5.13.13,0,0,0,0-.06,1.75,1.75,0,0,1,1.34-1A1.22,1.22,0,0,1,110.65,83.21Z"/><path class="cls-29" d="M121.08,81.38l1.46,1.2,3.34,3.94a2.51,2.51,0,0,1-3.66-.73l-.08-.13a30.49,30.49,0,0,0-2-2.51c-.45-.15-.45-.52-.44-.88s.6-.75,1.09-.89Z"/><path class="cls-30" d="M85.13,85.76v-.63c2.42-.94,3.42-.8,4.11.61s.14,2.72-1.72,4.06c-.56.3-.72-.07-.87-.5A4.29,4.29,0,0,0,85.13,85.76Z"/><path class="cls-31" d="M119.94,82l.13,1.12h-.82c-.13-1.25-.27-2.51-.36-3.78,0-.81,0-1.66,1.19-1.56s1.64.56,1.73,1.56a2.87,2.87,0,0,1-.73,1.88h0C120.82,81.77,120.23,81.64,119.94,82Z"/><path class="cls-20" d="M110.65,83.21l-1.15-.6a5.42,5.42,0,0,0-1.88-3.4.62.62,0,0,1,.07-.75,3.14,3.14,0,0,0,.87-.24,2.43,2.43,0,0,1,2.72,4A6.38,6.38,0,0,0,110.65,83.21Z"/><path class="cls-32" d="M85.13,85.76c2.48.93,2.63,1.25,1.81,3.62-.36.27-.22.83-.64,1.05l-.08.75a20.35,20.35,0,0,1-1.82-3.72C84,86.58,84.62,86.22,85.13,85.76Z"/><path class="cls-33" d="M153.51,90.43c.17-.56.33-1.13.51-1.69-.1-.65.1-1,.85-.83a3,3,0,0,1,2,.64c-1.63,3.3-1.63,3.3-4.54,3C152,90.43,153.25,91,153.51,90.43Z"/><path class="cls-34" d="M93.09,84.52c-.13-.53-.16-1.11-.77-1.37a6.15,6.15,0,0,1,7.45-1.76c-.83.18-1.82-.31-2.47.58A14.46,14.46,0,0,1,93.09,84.52Z"/><path class="cls-35" d="M163.3,86.83c-.2-1,.84-1.17,1.21-1.81a6.26,6.26,0,0,1,2.55.78c1.46.63,1.46.69.29,2.57C166,86.19,165.35,85.94,163.3,86.83Z"/><path class="cls-36" d="M160.06,94.14l.82-.77c1.45.73,2.9,1.7,4.76,0-1,2.78-1,2.81-2.91,2.11A7.31,7.31,0,0,1,160.06,94.14Z"/><path class="cls-37" d="M162.56,89.9l.67-.58a4.94,4.94,0,0,0,3.11-.14,7.79,7.79,0,0,1-1.54,3.13A3.81,3.81,0,0,0,162.56,89.9Z"/><path class="cls-38" d="M153.51,90.43l-1.21,1.11A5.45,5.45,0,0,1,148.41,90l.9-.85A4.5,4.5,0,0,0,153.51,90.43Z"/><path class="cls-39" d="M156.08,82c2,1.08,2,1.08.83,3.22-.47-1-.57-2.1-1.56-2.6C155.3,82,155.37,81.63,156.08,82Z"/><path class="cls-40" d="M156.08,82l-.73.62a10.3,10.3,0,0,0-3.69-.62l.6-1.08A5.4,5.4,0,0,1,156.08,82Z"/><path class="cls-41" d="M131,77.88a1.58,1.58,0,0,0-2.33-.3,1.93,1.93,0,0,0-.27.3c-.37-.14-.83-.19-.93-.64s.26-.66.69-.63c1.11.08,2.21.16,3.3.3.26,0,.61.29.34.61S131.22,77.78,131,77.88Z"/><path class="cls-42" d="M107.69,78.46v.67a3.15,3.15,0,0,1-.38,2.64L107,82c-1-.78,0-2.39-1.31-3.13A2.45,2.45,0,0,1,107.69,78.46Z"/><path class="cls-43" d="M108.2,83.18c-.15.78.72,1.09.84,1.76-.64.3-.7.91-.86,1.47-.8-1.36-.7-3-1.17-4.42l.23.11C108,82,108.17,82.58,108.2,83.18Z"/><path class="cls-44" d="M87.52,95.2V94c.48,0,1.33-.46,1.35.42C88.89,95,88.15,95.25,87.52,95.2Z"/><path class="cls-45" d="M138.24,77.86l-1.45-.56c1.12,0,2.32-.49,3.28.5Z"/><path class="cls-46" d="M154.87,87.91l-.85.83c-.41-.36-1.34-.65-1-1.17S154.35,87.44,154.87,87.91Z"/><path class="cls-22" d="M86.3,90.43a.91.91,0,0,1,.64-1.05l.58.42A1.8,1.8,0,0,1,86.3,90.43Z"/><path class="cls-47" d="M85.05,95.18l.69.68c-.37.28-.77.81-1.2.25C84.34,95.84,84.75,95.42,85.05,95.18Z"/><path class="cls-40" d="M151.07,80.89a2,2,0,0,1-1.85.52A1.72,1.72,0,0,1,151.07,80.89Z"/><path class="cls-48" d="M72.31,198.36a3.81,3.81,0,0,1,.1-1.06c16.94,9.77,42.31,7.82,57.27-5.46-.2,1.94-2,2.79-3,4.13-2.31.81-4.13,2.49-6.34,3.52a52.89,52.89,0,0,1-21.41,5,54.21,54.21,0,0,1-16-1.76,42.57,42.57,0,0,1-8.4-3.39C73.81,199,73,198.69,72.31,198.36Z"/><path class="cls-11" d="M142.61,148.71a1.74,1.74,0,0,1-.2.49l-.52-.52Z"/><path class="cls-45" d="M136.4,86.83c.26-2.86.18-5.8,1.84-8.37.28.12.56.23.84.32,3.21.93,4.06,2.19,3.37,5.12C141.84,86.55,140,87.57,137,87Z"/><path class="cls-49" d="M93.09,84.52A4.29,4.29,0,0,1,97.3,82a5.59,5.59,0,0,1,3.14,4.69c.36,2.75-.92,4-3.76,3.88a6.69,6.69,0,0,1-1.18-.25A8.32,8.32,0,0,1,93.09,84.52Z"/><path class="cls-50" d="M108.2,83.18l-1-1.08c-.19-1-.73-2.14.46-3,2.52.83,2.62,1,1.8,3.48Z"/><path class="cls-20" d="M119.94,82c.15-.63.72-.55,1.17-.66A1.16,1.16,0,0,1,119.94,82Z"/><rect class="cls-51" width="250" height="250"/></svg>