<svg id="Layer_1" data-name="Layer 1" xmlns="http://www.w3.org/2000/svg" viewBox="0 0 250 250"><defs><style>.cls-1{fill:#4595de;}.cls-2{fill:#297dc7;}.cls-3{fill:#e2af40;}.cls-4{fill:#e27d17;}.cls-5{fill:#d43612;}.cls-6{fill:#a0c8ed;}.cls-7{fill:#f6e9c2;}.cls-8{fill:#f0522e;}.cls-9{fill:#fe9833;}.cls-10{fill:#fecb5c;}.cls-11{fill:#faf0d2;}.cls-12{fill:#63a4dc;}.cls-13{fill:#5ca1dd;}.cls-14{fill:#5ea2dc;}.cls-15{fill:#64a5dc;}.cls-16{fill:#5ea3dd;}.cls-17{fill:#5aa0dd;}.cls-18{fill:#5ba0dd;}.cls-19{fill:#dee2d4;}.cls-20{fill:#599fdd;}.cls-21{fill:#62a4dd;}.cls-22{fill:#dce1d4;}.cls-23{fill:#5da2dd;}.cls-24{fill:#eeead2;}.cls-25{fill:#dfe2d4;}.cls-26{fill:#f5edd4;}.cls-27{fill:#f3eed3;}.cls-28{fill:#e9e8d3;}.cls-29{fill:#f4edd3;}.cls-30{fill:#f6edd3;}.cls-31{fill:#f4edd2;}.cls-32{fill:#d0dbd5;}.cls-33{fill:#f4eed2;}.cls-34{fill:#efebd4;}.cls-35{fill:#e3e6d6;}.cls-36{fill:#6eaadc;}.cls-37{fill:#6ca9dc;}.cls-38{fill:#fbf0d5;}.cls-39{fill:#f9efd3;}.cls-40{fill:#f9f0d2;}.cls-41{fill:#79b0db;}.cls-42{fill:#cbd8d6;}.cls-43{fill:#f8f0d0;}.cls-44{fill:#c1d4d6;}.cls-45{fill:#f6f2d2;}.cls-46{fill:#f9f0d1;}.cls-47{fill:#e2e2e2;}.cls-48{fill:#e2e2e0;}.cls-49{fill:#3080c6;}.cls-50{fill:#3180c6;}.cls-51{fill:#3280c6;}.cls-52{fill:#fefefe;}.cls-53{fill:#4897de;}.cls-54{fill:#4797de;}.cls-55{fill:#4d99de;}.cls-56{fill:#4796de;}.cls-57{fill:#4d99dd;}.cls-58{fill:#4c99de;}.cls-59{fill:#63a5dc;}.cls-60{fill:#64a5dd;}.cls-61{fill:#60a3de;}.cls-62{fill:#61a4dc;}.cls-63{fill:#59a0dc;}.cls-64{fill:#66a6dc;}.cls-65{fill:#589fdd;}.cls-66{fill:#599fdc;}.cls-67{fill:#5ca2dd;}.cls-68{fill:#5ba1dc;}.cls-69{fill:#5da1de;}.cls-70{fill:#61a4db;}.cls-71{fill:#79afda;}.cls-72{fill:#7bb1db;}.cls-73{fill:#75aedb;}.cls-74{fill:#4b99de;}.cls-75{fill:#65a6dc;}.cls-76{fill:#6daadb;}.cls-77{fill:#5ba1dd;}.cls-78{fill:#f05330;}.cls-79{fill:#fe9933;}.cls-80{fill:#fe9934;}.cls-81{fill:none;}</style></defs><title>products</title><path class="cls-1" d="M41,239V42.64c0-2.31-.34-2,2-2H187.41c.57,0,1.14,0,1.71.05a1.46,1.46,0,0,1,.21,1.08c-.1,2.35-.09,4.7,0,7,.16,6.91-.19,13.81-.38,20.71-.23,8.74-.6,17.49-1.27,26.18q-.7,9.42-1.76,18.8a3.07,3.07,0,0,1-.4,1.48,1.45,1.45,0,0,1-.4.34,6.28,6.28,0,0,1-2.4.22H149.88a12.74,12.74,0,0,0-10.63,5.06c-5.71,7.36-1.15,18.49,8.13,19.82a25.88,25.88,0,0,0,3.83.28h26.93a5.41,5.41,0,0,1,2.26.22.76.76,0,0,1,.35.85c-.75,3.11-1.21,6.3-2.57,9.25a1.43,1.43,0,0,1-.43.25,8.21,8.21,0,0,1-2.27.13h-25a13.59,13.59,0,0,0-10.2,3.94,12.27,12.27,0,0,0-2.57,13.61,12.12,12.12,0,0,0,11.4,7.6c5.36.16,10.74,0,16.11,0a9.55,9.55,0,0,1,2,.09,1.2,1.2,0,0,1,.41.2c.26.44,0,.83-.15,1.19a71.16,71.16,0,0,1-4.41,7.55,1.52,1.52,0,0,1-.42.16c-4.41.17-8.83.05-13.25.08a12.41,12.41,0,0,0-11.75,7.65,12.61,12.61,0,0,0,2.83,13.81c.58.59,1.44.92,1.64,1.84-.06.68-.58,1-1.06,1.44a109,109,0,0,1-17.35,11.3c-14.73,7.66-30.43,12-46.8,14.2-6.2.86-12.43,1.5-18.7,1.76-5.12.2-10.24.43-15.37.51A2.63,2.63,0,0,1,41,239Z"/><path class="cls-2" d="M41,239c5.08-.09,10.12,0,15.23-.33s10.35-.67,15.53-1.29a183.92,183.92,0,0,0,25-4.6,133.79,133.79,0,0,0,22.3-8,108.77,108.77,0,0,0,20.53-12.51,7.41,7.41,0,0,0,2.41-2.15.81.81,0,0,1,.53-.1c3.44,1.84,7.18,2,10.94,2h52a3.75,3.75,0,0,1,2.09.28v36.59c0,.85-.21,1.25-1.12,1.11H42.75c-2.06,0-1.84.26-1.84-1.84C40.92,245.13,41,242.07,41,239Z"/><path class="cls-2" d="M185.1,116.1a39.66,39.66,0,0,0,.82-6.23c.47-3.8.8-7.62,1.13-11.43.14-1.54.13-3.07.24-4.6.31-4.2.44-8.41.65-12.62.36-7,.4-14,.66-21,.22-5.78.05-11.55.19-17.32a8.35,8.35,0,0,1,.29-2.22c5.9,0,11.79,0,17.69,0,.71,0,.92.26.87.92a2.94,2.94,0,0,0,0,.42v74.17a2.26,2.26,0,0,1-1.74.45h-19A2,2,0,0,1,185.1,116.1Z"/><path class="cls-3" d="M207.59,212.29c-1.24,0-2.47.05-3.68.05H151.25c-3.17,0-6.28-.22-9-2.19.65-1.45,2-2.22,3.11-3.23.52-.48,1-1.13,1.84-1.13a5.4,5.4,0,0,1,1.59.93c2.35,1.52,7.41,1.91,9.73-1.23a3.43,3.43,0,0,0,.57-.8c.26-.69,1.07-1.41,0-2.06a1.59,1.59,0,0,0-2.55.66,3.93,3.93,0,0,1-5.08,1.93c-.92-.32-1.84-.81-2-2,1-1.85,2.66-3.12,3.94-4.73.64-.81,1.29-1.6,2-2.36.31-.33.53-.8,1.1-.77.92.67,1.84.21,2.7-.07.56-.17.47-.61.31-1a8.93,8.93,0,0,1-.92-1.89,22.24,22.24,0,0,1,4.15-5.93l.3-.13A3.41,3.41,0,0,1,165,186h40.5a2.89,2.89,0,0,1,2.05.41Z"/><path class="cls-4" d="M207.59,152V178a2.22,2.22,0,0,1-1.74.45H169.29a2.16,2.16,0,0,1-1.62-.4v-.09c-.22-.62.16-1.1.41-1.59a140.62,140.62,0,0,0,9-22.84,2.1,2.1,0,0,1,.85-1.42V152a3.54,3.54,0,0,1,2-.45h25.58A2.5,2.5,0,0,1,207.59,152Z"/><path class="cls-5" d="M185.1,116.1h22.49v26a2.34,2.34,0,0,1-1.84.5H182.57a3.61,3.61,0,0,1-1.53-.23c-.84-.67-.56-1.53-.38-2.34,1.36-5.94,2.42-11.91,3.31-17.92.23-1.54.4-3.09.69-4.6a2,2,0,0,1,.48-1.3Z"/><path class="cls-2" d="M167.67,178l23.52-.05h16.4v8.43h-43.2a9.07,9.07,0,0,1-1.28-.06Z"/><path class="cls-2" d="M180.8,142l19.52.07h7.27V152H179.7a16.1,16.1,0,0,1-1.7-.06c1-3.25,1.84-6.53,2.55-9.85A.27.27,0,0,1,180.8,142Z"/><path class="cls-6" d="M84,97.47V214.84a13.31,13.31,0,0,1-26.47,1.63,10,10,0,0,1,0-1.55V67A13.24,13.24,0,0,1,83.9,65.29c.21,1.52-.26,3.1.5,4.55-.14.63-.74.67-1.2.85-2.06.84-4.12,1.69-6.21,2.47a2.15,2.15,0,0,0-1.69,2.45c.09,1.35,0,2.76,0,4.08a2.76,2.76,0,0,1-.52,2c-2,.92-4.09.83-6.14.84a28.78,28.78,0,0,1-6.14-.58c2.34,2.32,4.66,4.6,7,6.89,1.32,1.32,1.35,1.46.44,3-1.37,2.41-2.76,4.79-4.1,7.22a1.45,1.45,0,0,0,1.26.35,54.12,54.12,0,0,0,15.2-1.84C82.83,97.36,83.42,97,84,97.47Z"/><path class="cls-7" d="M74.64,81.61c.51-2.24.18-4.49.22-6.74a1.49,1.49,0,0,1,1.07-1.69c2.83-1.06,5.62-2.22,8.42-3.34a131.9,131.9,0,0,1,24.49-6.39A104.07,104.07,0,0,1,132,62.58c14.15,1.06,27.48,5.09,40.5,10.5a1.79,1.79,0,0,1,1.28,2c-.06,2.16,0,4.33,0,6.5a2.38,2.38,0,0,1,.37,1.47V93.36c0,1.84-.48,2.09-2.17,1.4a165.44,165.44,0,0,0-16.74-6.06,3.67,3.67,0,0,1-1.76-.85,85.68,85.68,0,0,0-13-3,89,89,0,0,0-17.85-1.39,98.82,98.82,0,0,0-27.41,4.45,2.55,2.55,0,0,1-1.23.66A171.6,171.6,0,0,0,76.7,94.76c-2,.83-2.44.51-2.45-1.63V84A4.81,4.81,0,0,1,74.64,81.61Z"/><path class="cls-8" d="M180.8,142l-.29.13c-7.45,0-14.91,0-22.37-.07a82.62,82.62,0,0,1-10.67-.19,13,13,0,0,1-11.17-13.37c.28-6.57,5.75-12.27,12.32-12.33,12.16-.14,24.32,0,36.49,0-.32,3.68-.92,7.36-1.55,11.1-.74,4.52-1.58,9-2.7,13.47A6.65,6.65,0,0,0,180.8,142Z"/><path class="cls-9" d="M178,152.09a171.3,171.3,0,0,1-6.31,17.59c-1.19,2.76-2.55,5.52-4,8.28-6.44,0-12.82.15-19.23,0s-12-5.86-12.17-12.35a13.07,13.07,0,0,1,11-13.35,25.92,25.92,0,0,1,3.41-.22h25.51A16.47,16.47,0,0,1,178,152.09Z"/><path class="cls-10" d="M147.21,205.9c-1.79,1.24-3.26,2.85-4.92,4.25H142c-3.69-2.85-5.82-6.51-5.72-11.23a12.89,12.89,0,0,1,12.88-12.5c4.56,0,9.11,0,13.66.06l-4,5.92a.47.47,0,0,1-.43,0,8.38,8.38,0,0,0-7.69-1.33c-3.05.92-5,3.82-5.21,7.23a10.88,10.88,0,0,0,1.78,7.12A.74.74,0,0,1,147.21,205.9Z"/><path class="cls-11" d="M113.26,127.15c2.24.16,2.24.16,1.31,3-.29.42.07.78.09,1.16a3,3,0,0,0,.61,1.53,8.17,8.17,0,0,1-.33,5.66,2.68,2.68,0,0,0-.25,1.24,2.8,2.8,0,0,0,.58,1.57,9.69,9.69,0,0,1,.21,4.08c-.2.84-.82,1.56-.71,2.49a1.34,1.34,0,0,1,0,.4c-.16.64.25,1.1.53,1.61a8.46,8.46,0,0,1-.37,5.57,2.92,2.92,0,0,0-.24,1.24,2.77,2.77,0,0,0,.58,1.56,9.54,9.54,0,0,1,.2,4.15c-.15.57-.47,1.06-.61,1.63a2.56,2.56,0,0,0-.17,1.19,2.83,2.83,0,0,0,.59,1.53,9.57,9.57,0,0,1,.18,4.16c-.15.57-.48,1.08-.6,1.66a3,3,0,0,0,.43,2.63,9.8,9.8,0,0,1,.17,4.21,9.5,9.5,0,0,0-.92,3.39,7,7,0,0,1,.59,3.4v15.51c0,2.34.1,1.84-1.84,1.91-.41-.39-.2-.92-.2-1.33V185.62a7.52,7.52,0,0,1,.37-3.05,2.53,2.53,0,0,0-.44-2.25,14.21,14.21,0,0,1-.12-4.6,4.22,4.22,0,0,0,0-4.45,9.73,9.73,0,0,1,0-3.23c.28-.64.84-1.21.51-2,.1-2-.92-3.85-.62-5.86.07-.51,0-1,.1-1.54.08-.32.21-.62.31-.93a3.29,3.29,0,0,0,0-2.19,13.2,13.2,0,0,1-.33-5.38c.08-.31.2-.61.31-.92a3.39,3.39,0,0,0,0-2.18,13.34,13.34,0,0,1-.34-5.37,7.71,7.71,0,0,1,.32-.92,2.53,2.53,0,0,0,.1-2.29,11.08,11.08,0,0,1-.4-5.36c.09-.29.2-.58.3-.92.56-1.5-.52-2.93-.17-4.41C113.09,127.64,112.93,127.32,113.26,127.15Z"/><path class="cls-11" d="M114.36,104.72v5.9a9.3,9.3,0,0,0,.74,3.56c1.15,3,2.49,5.92,2.41,9.2,0,2.31-1.06,3.43-3.21,3.43s-3.59-1.19-3.68-3.4a13.57,13.57,0,0,1,1.45-6.44,22.81,22.81,0,0,0,2-10.83v-1.4Z"/><path class="cls-11" d="M112.62,183.93c-2.89,1.92-4.6,1.39-5.87-1.84a24.34,24.34,0,0,1-1.29-6.31,13.28,13.28,0,0,0-1.13-4.6c-.15-.27,0-.29.22-.26.7,1,1.2,2.16,2.34,2.81,1.35.36,2,1.62,3.1,2.31a1.85,1.85,0,0,1,.28.28c1.17,1.35,2.52,2.58,3.09,4.36C113.84,181.93,113.87,183.07,112.62,183.93Z"/><path class="cls-11" d="M122,173.17c.74-.47,1-1.32,1.52-1.95.21,0,.39,0,.22.27-1.09,2.36-.92,4.95-1.41,7.37a18.37,18.37,0,0,1-1.12,3.75c-.58,1.28-1.32,2.49-3,2.38a3.53,3.53,0,0,1-3.39-2.51c-.55-.92,0-1.7.32-2.49a14.19,14.19,0,0,1,4.35-5C120.36,174.38,120.87,173.37,122,173.17Z"/><path class="cls-11" d="M114.6,148.32v-.21a4,4,0,0,1,.62-2.08,16.48,16.48,0,0,1,2.59-3.45c.54-.53,1.25-.92,1.77-1.46a6.21,6.21,0,0,1,2.43-1.84c.8-.4.92-1.41,1.84-2-1.31,3.42-.92,6.95-2.07,10.21a5.83,5.83,0,0,1-2.11,2.16,14.4,14.4,0,0,0-1.26,1.21c-1.31.76-2.13.46-3.35-1.25A2,2,0,0,1,114.6,148.32Z"/><path class="cls-11" d="M104.83,120.63a16.27,16.27,0,0,0,3.68,3.68,24.6,24.6,0,0,1,4.14,4.45,3.29,3.29,0,0,1,.86,3.25c-.13.3-.28.6-.43.92a2.33,2.33,0,0,1-.2.34,3.11,3.11,0,0,1-2.28,1,8.65,8.65,0,0,1-3.12-2.89c-1.45-.92-1.37-2.57-1.67-4-.45-2.13-.3-4.39-1.18-6.44C104.43,120.62,104.6,120.6,104.83,120.63Z"/><path class="cls-11" d="M123.74,154.54c-1.08,2.31-.81,4.88-1.4,7.28-.21.85-.41,1.72-.62,2.59a4.44,4.44,0,0,1-1.84,1.9,11.81,11.81,0,0,0-1.24,1.21c-1.38,1.12-2.29.87-3.68-1a2,2,0,0,1-.37-1.18v-.63a4.44,4.44,0,0,1,.61-1.72,16,16,0,0,1,3.16-4c.39-.33.85-.56,1.21-.92a6.59,6.59,0,0,1,2.41-1.8c.73-.47,1-1.31,1.53-1.95C123.74,154.25,123.92,154.25,123.74,154.54Z"/><path class="cls-11" d="M107.16,173.48c-1.22-1-1.12-2.49-1.4-3.83-.46-2.32-.3-4.76-1.43-6.94-.15-.27,0-.28.22-.25a9.9,9.9,0,0,0,1.72,2.28,3.19,3.19,0,0,1,1.11.65c1,.6,1.66,1.56,2.61,2.19a1.48,1.48,0,0,1,.28.28c1,1.28,2.38,2.31,2.9,3.95a2.93,2.93,0,0,1-.09,3.38c-1.28,1.45-1.9,1.67-3,1.1h0C109.13,175.3,107.91,174.61,107.16,173.48Z"/><path class="cls-11" d="M123.74,163c-1.09,2.3-.8,4.87-1.4,7.26-.22.87-.42,1.74-.62,2.59a9.86,9.86,0,0,1-2.23,2.19c-.14.12-.3.22-.44.34-1.84,1.71-2.59,1.62-4.12-.51a3.08,3.08,0,0,1-.32-1.66,4.27,4.27,0,0,1,.59-1.77,12.66,12.66,0,0,1,3.57-4.23,10.64,10.64,0,0,0,1.14-1c.72-.47,1.22-1.26,2.09-1.55.74-.47,1-1.33,1.52-2C123.74,162.73,123.92,162.73,123.74,163Z"/><path class="cls-11" d="M123.74,146.06c-1.09,2.31-.8,4.88-1.4,7.28-.21.87-.41,1.73-.61,2.6a10,10,0,0,1-2.15,2.11c-.4.43-.92.69-1.31,1.16-.87,1-1.66.38-2.44-.12A3.59,3.59,0,0,1,115,158a1.92,1.92,0,0,1-.37-1.18v-.63c.48-2.39,2.05-4.07,3.83-5.61.34-.41.81-.64,1.17-1,.85-.56,1.38-1.5,2.39-1.84.76-.45,1-1.33,1.53-1.95C123.75,145.78,123.9,145.8,123.74,146.06Z"/><path class="cls-11" d="M107.45,156.8c-1.42-1.05-1.42-2.67-1.7-4.17-.43-2.29-.26-4.7-1.45-6.84-.14-.3,0-.33.26-.28a7.63,7.63,0,0,0,2,2.55,3.52,3.52,0,0,1,1.12.66,20.45,20.45,0,0,1,2.55,2.28c.92,1,2.1,1.89,2.65,3.23.48,1.08,1,2.17.52,3.39-.72,1.17-1.44,2.32-3.13,1.93C109.29,158.67,108,158.07,107.45,156.8Z"/><path class="cls-11" d="M104.83,129.11a8.2,8.2,0,0,0,2.34,2.53c1.36.6,2.16,1.84,3.3,2.76a9.79,9.79,0,0,1,2.41,2.87c.48,1.08,1.14,2.14.52,3.39a3.53,3.53,0,0,1-2.68,2.12,10.37,10.37,0,0,1-3-2.41c-.24-.27-.57-.48-.68-.86-1.33-1.65-1.22-3.68-1.52-5.61a19,19,0,0,0-.92-4.52C104.43,129.1,104.6,129.08,104.83,129.11Z"/><path class="cls-11" d="M104.84,154.54a8,8,0,0,0,2.35,2.52,15.68,15.68,0,0,1,3,2.45,9.65,9.65,0,0,1,2.69,3.2c.63,1.32,1.1,2.64.24,4-.92.71-1.6,2-3.09,1.06h0c-.92-.74-1.67-1.58-2.57-2.32a2.34,2.34,0,0,1-.72-.84,15.73,15.73,0,0,1-1.25-5.58,16.48,16.48,0,0,0-.93-4.26C104.44,154.53,104.61,154.5,104.84,154.54Z"/><path class="cls-11" d="M114.85,130.77c.54-2.26,2.16-3.78,3.68-5.34s3.45-2.64,4.6-4.51c.26,0,.42,0,.28.32-.79,2.17-.58,4.51-1.15,6.72-.21.85-.39,1.7-.59,2.56a8.88,8.88,0,0,1-2.41,2.44c-.57.45-1,1.11-1.68,1.39a3.06,3.06,0,0,1-2.68-1.78,1.81,1.81,0,0,1-.35-1.21A.89.89,0,0,1,114.85,130.77Z"/><path class="cls-11" d="M123.48,129.72c-.8,2.16-.62,4.49-1.15,6.71-.2.84-.4,1.71-.6,2.56a9.58,9.58,0,0,1-2.17,2.14c-.62.6-1.28,1.13-1.94,1.67a3,3,0,0,1-2.66-1.74,2,2,0,0,1-.36-1.18v-.62a9.5,9.5,0,0,1,3.26-5c.45-.48,1-.8,1.45-1.29.92-.65,1.55-1.74,2.7-2.13.58-.3.75-.92,1.17-1.4C123.46,129.36,123.62,129.41,123.48,129.72Z"/><path class="cls-11" d="M107,148c-1.38-1.73-1.18-3.89-1.53-5.88a18.66,18.66,0,0,0-.92-4.24c-.17-.29,0-.32.24-.28a7.09,7.09,0,0,0,1.71,2,3.06,3.06,0,0,1,1.08.72c1,.78,1.85,1.71,2.85,2.54a10,10,0,0,1,2.4,2.91c.48,1.09,1,2.16.52,3.4-.7,1.15-1.42,2.29-3.1,1.93-.87-.74-1.69-1.53-2.57-2.27A2.17,2.17,0,0,1,107,148Z"/><path class="cls-12" d="M112.62,183.93a3.37,3.37,0,0,0,.52-3.32.29.29,0,0,1,0-.41.1.1,0,0,1,0,0,2.61,2.61,0,0,1,.35,3.22,3.43,3.43,0,0,0-.43,1.47V203a5.59,5.59,0,0,0,.09.7c-.64-.4-.35-1-.35-1.54V185.39C112.87,184.9,113.06,184.35,112.62,183.93Z"/><path class="cls-13" d="M110.3,134.51l-3.13-2.84.28-.25,3.18,2.76A.38.38,0,0,1,110.3,134.51Z"/><path class="cls-14" d="M110.12,159.58a17.18,17.18,0,0,1-2.93-2.52l.26-.26a11.8,11.8,0,0,1,2.83,2.63C110.29,159.55,110.23,159.59,110.12,159.58Z"/><path class="cls-15" d="M113.22,132.22c.48-1.25-.15-2.32-.6-3.42.6-.4-.14-1.31.64-1.65a4.23,4.23,0,0,0,.3,2.76,2.62,2.62,0,0,1-.09,2.65A.46.46,0,0,1,113.22,132.22Z"/><path class="cls-16" d="M107.16,173.48c1,.87,2.29,1.5,2.88,2.82a12.77,12.77,0,0,1-3.15-2.56Z"/><path class="cls-17" d="M122,130.83a15.6,15.6,0,0,1-2.59,2.21.32.32,0,0,1-.21-.21,11.83,11.83,0,0,1,2.51-2.28Z"/><path class="cls-18" d="M115.41,179.94a5.62,5.62,0,0,0-.57,2.58l-.29.33c-.54-1.21,0-2.22.59-3.22C115.28,179.66,115.34,179.82,115.41,179.94Z"/><path class="cls-19" d="M123.48,129.72l-.29-.33c.53-.92,1-1.84,1.56-2.82l.35.18Z"/><path class="cls-20" d="M119.45,141l2.28-2,.28.27-2.27,2C119.46,141.35,119.39,141.22,119.45,141Z"/><path class="cls-13" d="M122,147.74l-2.26,2c-.27.09-.36,0-.29-.29l2.28-2Z"/><path class="cls-21" d="M119.48,157.93a13.71,13.71,0,0,1,2.25-2l.27.27a11.53,11.53,0,0,1-2.28,2A.41.41,0,0,1,119.48,157.93Z"/><path class="cls-22" d="M123.48,121.24l-.29-.32,1.56-2.84.35.2Z"/><path class="cls-23" d="M119.44,174.87l2.28-2,.28.3-2.28,2A.53.53,0,0,1,119.44,174.87Z"/><path class="cls-14" d="M122,164.69l-2,1.72c-.3.09-.37,0-.32-.3l2-1.7Z"/><path class="cls-24" d="M104.55,170.93l-.22.26a5.07,5.07,0,0,1-1.07-2.27h.09A7.6,7.6,0,0,1,104.55,170.93Z"/><path class="cls-25" d="M125,135a8.66,8.66,0,0,1-1,2.2,2.47,2.47,0,0,1,.86-2.19Z"/><path class="cls-26" d="M123.74,171.49l-.22-.27a3.49,3.49,0,0,1,.92-1.44h0A2.72,2.72,0,0,1,123.74,171.49Z"/><path class="cls-27" d="M104.83,120.63l-.24.29a2.55,2.55,0,0,1-.66-1.46A1.83,1.83,0,0,1,104.83,120.63Z"/><path class="cls-28" d="M104.55,162.46l-.22.25a2.25,2.25,0,0,1-.66-1.42A1.89,1.89,0,0,1,104.55,162.46Z"/><path class="cls-29" d="M123.74,163l-.22-.28a2.09,2.09,0,0,1,.84-1.19A2.25,2.25,0,0,1,123.74,163Z"/><path class="cls-30" d="M104.84,137.59l-.24.28c-.25-.42-.5-.84-.92-1.57A2,2,0,0,1,104.84,137.59Z"/><path class="cls-31" d="M104.83,129.11l-.23.28a3.82,3.82,0,0,1-.77-1.43c.09-.13.18-.14.3,0Z"/><path class="cls-29" d="M123.74,154.54l-.22-.28.83-1.49A2.39,2.39,0,0,1,123.74,154.54Z"/><path class="cls-32" d="M104,153.7a2.39,2.39,0,0,1-.67-1.44,1.91,1.91,0,0,1,.92,1.16A.37.37,0,0,1,104,153.7Z"/><path class="cls-33" d="M123.74,146.06l-.22-.27.64-1.14A1.42,1.42,0,0,1,123.74,146.06Z"/><path class="cls-34" d="M104,153.7l.23-.28.59,1.12-.24.28A2.37,2.37,0,0,1,104,153.7Z"/><path class="cls-35" d="M125,135h-.12a2,2,0,0,1,.68-1.37C125.79,134.31,125.32,134.63,125,135Z"/><path class="cls-36" d="M106.74,164.66a1.24,1.24,0,0,1,.74.59.35.35,0,0,1-.31.3l-.92-.81Z"/><path class="cls-37" d="M107,148a1.15,1.15,0,0,1,.76.58.37.37,0,0,1-.31.3,2.19,2.19,0,0,1-.92-.81Z"/><path class="cls-24" d="M125,151.94a1.84,1.84,0,0,1,.61-1.35A1.53,1.53,0,0,1,125,151.94Z"/><path class="cls-37" d="M107.46,140.39l-.92-.81.47-.06a1.18,1.18,0,0,1,.75.58A.34.34,0,0,1,107.46,140.39Z"/><path class="cls-38" d="M103.79,144.89c-.14-.31-.43-.56-.37-1,.43.09.47.46.62.75S104,145,103.79,144.89Z"/><path class="cls-39" d="M103,134.78c.63.19.58.58.8.92C103.15,135.6,103.21,135.19,103,134.78Z"/><path class="cls-40" d="M104.13,127.93h-.3c-.17-.3-.32-.62-.66-1.25A1.9,1.9,0,0,1,104.13,127.93Z"/><path class="cls-41" d="M114.85,130.77v.6a.3.3,0,0,1-.43,0l0,0c-.06-.41-.15-.84.21-1.18Z"/><path class="cls-42" d="M103.79,144.89l.25-.25a1.51,1.51,0,0,1,.52.87l-.26.28Z"/><path class="cls-43" d="M103.83,119c-.55-.37-.75-.64-.76-1C103.57,117.94,103.55,118.37,103.83,119Z"/><path class="cls-44" d="M102.55,133.71a.43.43,0,0,1,.45.4.45.45,0,0,1,0,.11c-.27.48-.35,0-.46-.16S102.39,133.83,102.55,133.71Z"/><path class="cls-45" d="M124.48,169.77h-.08a.84.84,0,0,1,.44-.77C125,169.42,124.82,169.62,124.48,169.77Z"/><path class="cls-46" d="M103.31,168.93h-.1c-.38-.11-.35-.42-.53-.81A.93.93,0,0,1,103.31,168.93Z"/><path class="cls-47" d="M147.21,205.9a1,1,0,0,1,0-.25c.42-1.07,1.44-1.64,2.1-2.51a.3.3,0,0,1,.36,0,3.41,3.41,0,0,0,3.43,2,3.46,3.46,0,0,0,3.21-1.94c.3-.53.2-1.54,1-1.48a8.3,8.3,0,0,1,2.7.83c.55.24.13.74,0,1.11-1.55,4.35-7.12,6-11.25,3.41A16.83,16.83,0,0,1,147.21,205.9Z"/><path class="cls-10" d="M149.65,203.15h-.22c-1.76-2.12-1.26-7.42.87-9.08a4.31,4.31,0,0,1,6.06.72l.23.33a.35.35,0,0,1-.12.43c-1.95,2.27-3.9,4.56-5.87,6.82A6.46,6.46,0,0,1,149.65,203.15Z"/><path class="cls-48" d="M156.47,195.51a.49.49,0,0,0,0-.24,8.08,8.08,0,0,1,2.09-2.91,1,1,0,0,1,.25,0l.21.36c2,3.22,1.46,2.61-1.57,3.42C156.78,196.36,156.7,196,156.47,195.51Z"/><path class="cls-49" d="M133.36,78.06a2.88,2.88,0,0,0,1-2c.34-2.27.73-4.53,1.11-6.81.09-.54.15-1.05-.55-1.24-.32-.09-.5-.31-.35-.64s.4-.17.63-.13c2.34.38,4.7.7,7,1.19a4.25,4.25,0,0,1,3.68,4.35,6,6,0,0,1-4.35,6,7.42,7.42,0,0,1-3.38.11C136.61,78.55,135,78.37,133.36,78.06Z"/><path class="cls-49" d="M101.8,69.53c2.35-.44,4.7-.92,7-1.29a1.91,1.91,0,0,1,2.21,1.19,2.54,2.54,0,0,1-.6,3.11c-.92.74-.7,1.23,0,1.84,1.35,1.16,2.33,2.76,4.06,3.47-1.51,1.14-2.81,1.11-4-.08-.92-1-1.91-2-2.91-2.91-.69-.65-.92-1,.24-1.46a2,2,0,0,0-1.34-3.86.82.82,0,0,0-.81.82.86.86,0,0,0,0,.27c.44,2.45.8,4.91,1.46,7.31.11.42.24.85.82.8.33,0,.75-.12.71.38s-.44.29-.69.34c-1.16.25-2.33.47-3.49.69-.26.06-.58.16-.73-.19s.13-.44.36-.5c.71-.17.65-.62.53-1.19-.41-2.07-.77-4.15-1.2-6.23C103.2,70.43,103.17,70.43,101.8,69.53Z"/><path class="cls-50" d="M121.72,72.22c1.41,1.54,2.17,3.53,4,4.74.16.11.3.23.27.44s-.24.22-.43.27a2.92,2.92,0,0,1-3.68-1.38c-.75-1-1.48-2.08-2.26-3.09-.53-.68-.67-1,.43-1.24a2,2,0,0,0,1.62-2.34.5.5,0,0,0,0-.12,2,2,0,0,0-2.18-1.6c-.64,0-1.1.2-1,1,.19,2.43,0,4.88.38,7.31.09.56.15,1,.85,1,.26,0,.5.09.46.4s-.31.29-.55.31l-3.83.22c-.25,0-.5,0-.54-.31s.13-.43.39-.46c.74-.09.75-.61.73-1.15-.11-2.39-.21-4.79-.32-7.18,0-.54-.14-1-.83-1.11-.24,0-.5-.16-.45-.44s.42-.29.68-.31q3-.15,6-.27a2.16,2.16,0,0,1,2.47,1.46,2.6,2.6,0,0,1-.92,3A14,14,0,0,1,121.72,72.22Z"/><path class="cls-50" d="M94.66,82.9c-3.09.06-5.4-2.4-5.47-5.81-.06-3.22,3-5.8,6.91-5.87,3-.07,5.29,2.33,5.36,5.73S98.6,82.81,94.66,82.9Z"/><path class="cls-50" d="M158.54,79.42a2.91,2.91,0,0,0-1.33,2.38c-.16.85-.56,1-1.34,1A11.86,11.86,0,0,1,151,82c-3-1.26-4.3-3.68-3.6-6.66.65-2.76,2.89-4.32,6.09-4.1a11.69,11.69,0,0,1,5.45,1.9c.4.26.72.52.41,1s-.38,1.39-1,1.76c-.23.13-.45-.2-.38-.43.3-1.27-.42-2-1.41-2.47a4.77,4.77,0,0,0-4-.44c-2,.75-3.3,3.39-2.86,5.75a4.26,4.26,0,0,0,4,3.42c1,.06,1.22-.52,1.5-1.27a1,1,0,0,0-.71-1.49c-.24-.08-.63-.13-.52-.53.15-.57.55-.22.8-.15C156.06,78.62,157.31,79,158.54,79.42Z"/><path class="cls-50" d="M158.92,84.4a2.7,2.7,0,0,0,1.57-1.73c.84-2.09,1.72-4.17,2.56-6.26.2-.51.47-1.09-.29-1.44-.25-.12-.52-.3-.28-.64s.53-.08.77,0c2.16.83,4.32,1.68,6.44,2.56.31.12.87.23.58.76s-.41,1.32-1.05,1.61c-.32.15-.38-.25-.36-.56.15-1.9-1.64-1.55-2.6-2.06s-.92.64-1.23,1.12a2.69,2.69,0,0,0-.19.38C164,80,164.07,80,166,80.62c.58.2,1,.2,1.28-.4a.38.38,0,0,1,.47-.26.24.24,0,0,1,.11.06.37.37,0,0,1,.15.48L167,83a.4.4,0,0,1-.45.27c-.31-.08-.32-.33-.27-.56.36-1.7-1.24-1.38-2-1.73s-.8.68-1,1.15c-1.17,2.76-1.14,2.76,1.75,3.62a1.21,1.21,0,0,0,1.61-.69c.13-.21.34-.39.58-.26s.18.38.11.62c-.51,1.84-.92,2-2.66,1.33Z"/><path class="cls-50" d="M77.75,77.9c2.38-1,4.39-1.91,6.45-2.67A2.17,2.17,0,0,1,87,76a3.34,3.34,0,0,1,0,3.62,3.91,3.91,0,0,1-2.25,1.65c-.37.12-.73.07-.84-.28s.3-.37.52-.5a1.94,1.94,0,0,0,.82-2.61,1.32,1.32,0,0,0-.19-.29,1.83,1.83,0,0,0-2.46-.85l-.2.12c-.48.25-.6.52-.39,1C83,80.22,84,82.58,85.06,85a.73.73,0,0,0,.87.53.58.58,0,0,0,.25-.12c.25-.12.61-.18.75.15s-.2.46-.45.57L82.8,87.64c-.21.09-.44.25-.64,0s0-.51.23-.66c.63-.36.46-.86.25-1.35-.92-2.21-2-4.39-2.82-6.63C79.59,78.05,78.71,78.41,77.75,77.9Z"/><path class="cls-51" d="M131.66,77.84h-4.6a.52.52,0,0,1-.42-.27c-.08-.28.14-.44.4-.44,1,0,.92-.67,1-1.34.27-2.29.21-4.6.32-6.89,0-.62,0-1.13-.76-1.28-.21,0-.48-.12-.41-.44s.37-.25.58-.24c1.28,0,2.55.09,3.83.15.22,0,.52,0,.58.3s-.32.39-.58.41c-.7.07-.77.55-.8,1.11-.12,2.38-.23,4.77-.39,7.17C130.35,77,131.11,77.24,131.66,77.84Z"/><path class="cls-52" d="M159.18,137.74c-1.22.38-1.84-.34-2.15-1.65-.1-.45-.37-.86-.5-1.31a1.13,1.13,0,0,0-1.31-.92h0c-1.66,0-3.33.06-5,0a1.18,1.18,0,0,0-1.38.92.38.38,0,0,0,0,.1,2.26,2.26,0,0,1-.15.39c-1,2.65-1,2.6-3.77,2.52-.93,0-.87-.35-.6-1q3-7.72,6.07-15.49a1.25,1.25,0,0,1,1.36-.92c2.76,0,2.76-.06,3.74,2.41q2.63,6.43,5.26,12.94C161.56,137.73,161.57,137.73,159.18,137.74Z"/><path class="cls-52" d="M157.49,164.5c2.45,1.3,3.27,2.87,2.76,5.21a4.6,4.6,0,0,1-4.47,3.85c-3.08.32-6.17.07-9.26.14-.62,0-.83-.23-.82-.83V157.23c0-.72.35-.92.92-.87,2.76.08,5.6-.1,8.4.13a4.46,4.46,0,0,1,4.21,2.85,4,4,0,0,1-1.45,4.8A2.36,2.36,0,0,1,157.49,164.5Z"/><path class="cls-52" d="M158.58,192.36a7.93,7.93,0,0,1-2.09,2.91,4,4,0,0,0-4.88-1.55c-2.1.76-2.62,2.58-2.77,4.54a12.16,12.16,0,0,0,.58,4.86c-.38,1.17-1.42,1.75-2.25,2.53-4.26-4.75-2-13.5,3.86-15C153.76,190,156.43,190.2,158.58,192.36Z"/><path class="cls-53" d="M119.44,174.87l.28.27a24.89,24.89,0,0,0-4.31,4.8l-.27-.31c-.15-1.49.26-3-.26-4.47-.13-.3,0-.35.27-.28a6.22,6.22,0,0,0,.66.7c1,.81,2,1.25,2.89-.1A3.59,3.59,0,0,1,119.44,174.87Z"/><path class="cls-54" d="M118.73,150.59c-1.52,1.72-3.38,3.2-3.88,5.61-.55,0-.38-.3-.29-.58a10,10,0,0,0,.32-5.89c-.14-.3,0-.33.25-.27.92.8,1.59,2.14,3.14,1.09A.34.34,0,0,1,118.73,150.59Z"/><path class="cls-55" d="M113.22,180.16l-.08.45c-.73-1.65-2.22-2.76-3.11-4.32,1.27.4,2-.49,2.82-1.15.27-.09.4,0,.31.29Z"/><path class="cls-55" d="M110,167.81c1.28.44,2-.51,2.85-1.13.28-.08.4.08.49.29a1.07,1.07,0,0,1-.18.83v3.62c.14.29,0,.36-.28.32C112.23,170.24,110.78,169.28,110,167.81Z"/><path class="cls-53" d="M118.16,134.21c-1.3,1.55-2.87,2.92-3.31,5-.54,0-.38-.29-.29-.59a9.69,9.69,0,0,0,.31-5.88c-.14-.29,0-.32.25-.28a4.36,4.36,0,0,0,2.56,1.65A.37.37,0,0,1,118.16,134.21Z"/><path class="cls-56" d="M119,167.28a27,27,0,0,0-3.6,4.18c-.25,0-.42,0-.27-.3-.16-1.49.26-3-.26-4.49-.12-.29,0-.33.26-.27.3.3.59.61.92.88.85.71,1.7.92,2.51-.07A.34.34,0,0,1,119,167.28Z"/><path class="cls-54" d="M115.13,157.93c.92.72,1.55,2.23,3.12,1.09a.37.37,0,0,1,.48.06,25.75,25.75,0,0,0-3.31,3.91c-.25,0-.42,0-.27-.3-.18-1.49.26-3-.27-4.49C114.74,157.91,114.89,157.87,115.13,157.93Z"/><path class="cls-56" d="M115.13,141a4.22,4.22,0,0,0,2.55,1.65.37.37,0,0,1,.48.06L115.4,146c-.25,0-.42,0-.27-.3-.17-1.49.27-3-.28-4.48C114.73,141,114.88,141,115.13,141Z"/><path class="cls-57" d="M110.23,150.9c1.48.25,2.21-.77,3-1.73.26,0,.41,0,.27.33l-.31.51c-.36,1.07,0,2.17-.18,3.26,0,.33.29.85-.38.92l-2.55-3.11C110,150.93,110.1,150.88,110.23,150.9Z"/><path class="cls-58" d="M110.12,159.58a.18.18,0,0,0,.16-.15c1.42.12,2.18-.81,2.94-1.78.26,0,.4,0,.27.33l-.32.51c-.33,1.06,0,2.17-.17,3.26,0,.33.29.85-.38.92Z"/><path class="cls-58" d="M112.62,145.76,110.3,143c-.07-.29,0-.41.34-.33a4.57,4.57,0,0,0,2.58-1.94c.26,0,.4,0,.27.33l-.31.51c-.36,1.07,0,2.17-.18,3.26C113,145.12,113.29,145.66,112.62,145.76Z"/><path class="cls-59" d="M113.49,141l-.27-.33c.43-1.25-.11-2.33-.6-3.42-.11-1.43-.46-2.88.23-4.27h0a.27.27,0,0,1,.36,0c0,1.93-.31,3.88.57,5.73A2.11,2.11,0,0,1,113.49,141Z"/><path class="cls-60" d="M112.62,162.7c.52-.84.14-1.77.26-2.66.07-.52-.2-1.11.29-1.55,0,1.94-.23,3.9.55,5.8a5.2,5.2,0,0,1,0,2.08c-.18.2,0,.74-.55.58l-.29-.27C113.76,165.29,113.27,164,112.62,162.7Z"/><path class="cls-61" d="M112.62,145.76c.52-.86.14-1.79.26-2.68.07-.52-.21-1.11.3-1.55,0,1.91-.29,3.81.52,5.69a2.3,2.3,0,0,1-.21,2.28l-.27-.33A4.41,4.41,0,0,0,112.62,145.76Z"/><path class="cls-15" d="M113.49,158l-.27-.33c.43-1.24-.1-2.33-.6-3.42.52-.85.14-1.78.26-2.67.07-.52-.21-1.11.3-1.55,0,1.91-.26,3.81.51,5.69A2.23,2.23,0,0,1,113.49,158Z"/><path class="cls-62" d="M112.93,171.74l.28-.32a3,3,0,0,1,0,4l-.32-.29A3.32,3.32,0,0,0,112.93,171.74Z"/><path class="cls-63" d="M115.15,145.74l.27.29-.82,2C114,147.1,114.81,146.48,115.15,145.74Z"/><path class="cls-64" d="M115.15,174.88l-.27.28a2.38,2.38,0,0,1-.33-2.62c.27.13.12.44.29.62Z"/><path class="cls-65" d="M114.84,173.17l-.29-.62a2.38,2.38,0,0,1,.59-1.38l.27.3C115.21,172,115,172.6,114.84,173.17Z"/><path class="cls-66" d="M115.15,162.69l.27.3c-.2.57-.38,1.13-.57,1.69-.55,0-.37-.32-.3-.61A2.46,2.46,0,0,1,115.15,162.69Z"/><path class="cls-67" d="M115.13,157.93l-.25.27a1.33,1.33,0,0,1-.53-1.41.28.28,0,0,1,.39-.08.24.24,0,0,1,.09.08Z"/><path class="cls-68" d="M115.13,141l-.26.28a1.31,1.31,0,0,1-.51-1.41.28.28,0,0,1,.48,0Z"/><path class="cls-69" d="M115.13,149.46l-.25.27c-.32-.45-.92-.83-.28-1.46C115,148.57,115,149.06,115.13,149.46Z"/><path class="cls-70" d="M115.14,166.4l-.26.27a1.32,1.32,0,0,1-.53-1.4.3.3,0,0,1,.41-.08l.08.08Z"/><path class="cls-11" d="M113.17,167l.55-.58c.49.72,0,1.1-.53,1.43C113.18,167.53,113.17,167.24,113.17,167Z"/><path class="cls-17" d="M115.12,132.5l-.25.28a1.37,1.37,0,0,1-.51-1.41h.47C114.93,131.75,115,132.13,115.12,132.5Z"/><path class="cls-71" d="M114.84,165.27h-.48a1.32,1.32,0,0,1,.2-1.2c.06.23,0,.48.3.61Z"/><path class="cls-72" d="M114.84,139.85h-.48a1.25,1.25,0,0,1,.2-1.19c.06.22,0,.46.29.59Z"/><path class="cls-73" d="M114.83,156.79h-.47a1.26,1.26,0,0,1,.21-1.17l.28.58Z"/><path class="cls-74" d="M113.19,133.06h-.36l.39-.79.25.3Z"/><path class="cls-15" d="M118.16,142.68l-.48-.05a8,8,0,0,1,1.77-1.66l.29.29Z"/><path class="cls-75" d="M118.73,150.59h-.46a3.31,3.31,0,0,1,1.18-1.11l.29.28A2.54,2.54,0,0,1,118.73,150.59Z"/><path class="cls-74" d="M112.85,133c-.09,1.43.34,2.87-.23,4.27l-2.32-2.76.33-.32A9.89,9.89,0,0,0,112.85,133Z"/><path class="cls-64" d="M118.73,159.08l-.48-.06a3.28,3.28,0,0,1,1.22-1.09l.25.24C119.54,158.63,119.11,158.82,118.73,159.08Z"/><path class="cls-76" d="M119,167.28l-.46-.07a3.65,3.65,0,0,1,1.18-1.1l.32.3A2.21,2.21,0,0,1,119,167.28Z"/><path class="cls-77" d="M107.17,165.55l.31-.3c.87.84,2,1.38,2.55,2.57C108.84,167.39,108.14,166.27,107.17,165.55Z"/><path class="cls-13" d="M110.23,150.9a.28.28,0,0,0-.16.16,18.24,18.24,0,0,1-2.61-2.19l.32-.3C108.6,149.35,109.65,149.87,110.23,150.9Z"/><path class="cls-17" d="M110.68,142.64l-.34.32-2.84-2.57.3-.29Z"/><path class="cls-64" d="M118.16,134.21l-.48-.06a4.21,4.21,0,0,1,1.54-1.36l.21.21C119.2,133.59,118.64,133.86,118.16,134.21Z"/><path class="cls-7" d="M139,78h-.71c-1.09-.08-1.84-.24-1.51-1.75q.72-3.19,1.13-6.44c.11-.75.41-.92,1.11-.86,2.25.11,3.8,1.1,4.27,2.82a5.92,5.92,0,0,1-2,5.8A3.83,3.83,0,0,1,139,78Z"/><path class="cls-7" d="M99.25,78.23a3,3,0,0,1-1.94,3.16,3.2,3.2,0,0,1-3.89-.74,7,7,0,0,1-2-5.13,3,3,0,0,1,2-2.76,3.12,3.12,0,0,1,3.58.44A7.51,7.51,0,0,1,99.25,78.23Z"/><path class="cls-78" d="M154.93,130.73h-4.6c.72-2,1.41-3.88,2.24-6.13Z"/><path class="cls-79" d="M152.22,170.64c-2.85,0-2.76,0-2.88-2.87,0-1.23.23-1.84,1.61-1.64a35.08,35.08,0,0,1,4,.22,2,2,0,0,1,1.76,2.25s0,.06,0,.09a1.93,1.93,0,0,1-1.91,1.94h-.12C153.84,170.68,153,170.64,152.22,170.64Z"/><path class="cls-80" d="M152.09,159.36h2c1,.08,1.84.48,2,1.65a1.84,1.84,0,0,1-1.55,2.09h-.07a24.88,24.88,0,0,1-4.4.14.52.52,0,0,1-.61-.41.48.48,0,0,1,0-.17V160c0-.5.24-.67.7-.65h2Z"/><rect class="cls-81" width="250" height="250"/></svg>