<svg id="Layer_1" data-name="Layer 1" xmlns="http://www.w3.org/2000/svg" viewBox="0 0 250 250"><defs><style>.cls-1{fill:#4e9090;}.cls-2{fill:#cae6f6;}.cls-3{fill:#e2f4fd;}.cls-4{fill:#c8e5f4;}.cls-5{fill:#f3f4be;}.cls-6{fill:#a6d1e3;}.cls-7{fill:#245170;}.cls-8{fill:#f8faf7;}.cls-9{fill:#eff2f5;}.cls-10{fill:#c7deaf;}.cls-11{fill:#ebecae;}.cls-12{fill:#e1e2b0;}.cls-13{fill:#ebecd2;}.cls-14{fill:#ebecaf;}.cls-15{fill:#c1d6c1;}.cls-16{fill:#c1d6a1;}.cls-17{fill:#e2e2b1;}.cls-18{fill:#e4e5b3;}.cls-19{fill:#f3f4bf;}.cls-20{fill:#c9e5f5;}.cls-21{fill:#edf0bf;}.cls-22{fill:#c7e3f3;}.cls-23{fill:#c1d6a0;}.cls-24{fill:#b8cda2;}.cls-25{fill:#b8cea3;}.cls-26{fill:#c2d7a1;}.cls-27{fill:none;}</style></defs><title>products</title><path class="cls-1" d="M150.48,250.69c-12.75.29-25.5.34-38.24.49-6.58.07-13.18.15-19.76.09-9.36-.08-18.72-.26-28.07-.6a191,191,0,0,1-20.27-1.43c-3.79-.54-4.06-.65-4.7-3.81a115.16,115.16,0,0,1-1.69-14.81c-.51-7-.82-14-1.11-21-.27-6.77-.53-13.53-.67-20.3-.48-23.37-.25-46.74-.15-70.11,0-10-.2-20,.36-30,.3-5.21.17-10.38.08-15.57-.09-5.56-.39-11.07-.49-16.59,0-2.22.24-4.44.34-6.66s1.4-3.54,3.88-4.27a82.94,82.94,0,0,1,16-2.56c11.31-1,22.66-1.33,34-1.64,13.11-.35,26.22-.13,39.33-.3,11.11-.13,22.22.26,33.32.74,9.69.41,19.36.92,29,2a55.26,55.26,0,0,1,6.5,1,2.62,2.62,0,0,1,2.28,2.17,79.58,79.58,0,0,1,1.22,10.89c1.1,18.94.64,37.9.69,56.84,0,8.34-.27,16.67-.5,25.06-.14,5.19-.39,10.37-.7,15.56q-.81,13.31-1.07,26.65c-.12,5.39-.34,10.77-.52,16.15-.3,8.8-.54,17.59-.93,26.37-.26,6.31-.7,12.61-1,18.93-.15,3-.52,3.4-4.06,4a132.36,132.36,0,0,1-15.65,1.61c-7.67.47-15.35.8-23.05.93C153.32,250.57,151.9,250.73,150.48,250.69Z"/><path class="cls-2" d="M50,247.74c-1.16-.09-2.34-.11-3.5-.2-2.43-.18-3.39-1.18-3.7-3.07-.44-3-.81-6.08-1-9.13-.49-7.69-.92-15.39-1.13-23.09-.07-2.16-.16-4.34-.25-6.48-.22-5.55-.18-11.17-.4-16.75-.28-7-.38-13.94-.53-20.92q-.26-11.25-.93-22.51c-.28-5.14-.17-10.28-.34-15.42C37.61,111.57,38,93,38,74.44c0-6,.24-12,.45-17.95.08-2.05.37-4.11.6-6.16a5.34,5.34,0,0,1,.8-2.23c1-1.64,2.53-2,4.4-1a21.69,21.69,0,0,1,4.26,3.12,2.6,2.6,0,0,0,3.29.4c8.54-4.52,18.17-6.07,28-7a224.16,224.16,0,0,1,30.55-.76c6.62.25,13.23.92,19.44,3a10.18,10.18,0,0,0,6.34.18,74.34,74.34,0,0,1,23.47-2.53,308.41,308.41,0,0,1,33.78,3.27c2,.32,2.78,1.14,3.1,2.69a78.94,78.94,0,0,1,1.07,8.67c1.3,20.07,1.06,40.16,1.07,60.25,0,5.5,0,11-.15,16.48-.17,7.26-.45,14.52-.72,21.79q-.3,8.32-.68,16.59-.69,14.65-1.41,29.31c-.34,6.48-.7,13-1.13,19.54-.38,5.76-.93,11.52-1.28,17.29-.12,1.85-1.18,2.78-3.23,3.37-6.48,1.73-13.16,2.46-19.85,3.24-9.2,1.06-18.51,1.6-27.77,2.27-3.18.23-6.39.27-9.58.4-6.81.28-13.63.33-20.44.31-10,0-20.06.06-30.08-.14-6.16-.13-12.33-.1-18.51-.26a6,6,0,0,1-1-.18A3.11,3.11,0,0,1,65,248a81.38,81.38,0,0,0,8.69-.38,7.92,7.92,0,0,0,2.25-.52,5.73,5.73,0,0,0-2.56-.38,31.27,31.27,0,0,1-9-1.45,18.8,18.8,0,0,1-12.77-11.71c-1.56-4-1.56-8.16-1.62-12.3a.66.66,0,0,1,.3-.52c.59-.17.86.21,1.11.51a42.36,42.36,0,0,0,3.25,3.45c-.16.78-1.38,1.29-.8,2.29.5.85,1,1.43,2.31.93s1.75-.26,1.49.92c-.37,1.58-.86,3.13-3,3.76-.68.21-1.08.6-1,1.25A1.31,1.31,0,0,0,54.87,235a27.86,27.86,0,0,0,6.88.44,2.06,2.06,0,0,0,1.74-2.18c-.11-.93-1-.8-1.76-.84-2.24-.16-2.66-.57-1.95-2.34.37-.92.2-2.14,1.66-2.58A20.55,20.55,0,0,0,68,229.22a6.71,6.71,0,0,1,2.21.5c.92.93.42,2.09.49,3.15a12.94,12.94,0,0,0-.11,1.77c.05.42-.08,1,.67,1a1.26,1.26,0,0,0,1.35-.78c0-.1.06-.19.08-.29.2-.71.25-1.65,1.33-1.72s1.37.84,1.85,1.44c.67.93,1.25,1.85,2.7,1.94.46,0,1,.13,1.27-.29s-.16-.65-.38-.93a19,19,0,0,0-2.84-2.22c-1.31-1.08-1.14-1.73.56-2.39,1.75-.19,3.55.14,5.29-.27.65.76.24,1.63.3,2.46.24,3,2.19,3.93,5.38,2.49.63-.28,1.16-.69,1.85-.93.93-.36,1.43-.07,1.29.75a7.86,7.86,0,0,1-2.06,4.52c-1.12,1.11-2,1-2.9-.2-.31-.38-.4-1.1-1.13-.92s-.61.79-.72,1.26a2.53,2.53,0,0,0,1.33,3.12,4.59,4.59,0,0,0,4.38-.93,9.6,9.6,0,0,0,2.49-4.54,18.17,18.17,0,0,0,.75-4.85c0-.63-.13-1.32.64-1.77a61.1,61.1,0,0,1,7.77-.41c7.15-.37,14.26-1.19,21.4-1.5a136.51,136.51,0,0,1,18.09.2,3.42,3.42,0,0,1,1.69.37c.07.86-.86.84-1.43,1a120.67,120.67,0,0,1-17.22,3.85,56.39,56.39,0,0,1-9,.93,15.44,15.44,0,0,0-3.5.53A76.79,76.79,0,0,0,96.1,241a13.78,13.78,0,0,0-2.31,1.37c-1.59,1.2-1.35,2.18.68,2.83a9.07,9.07,0,0,0,1.55.32,60.6,60.6,0,0,0,14.18.11c7.26-.7,14.36-2.17,21.61-2.9a30.41,30.41,0,0,1,10.07.3,47.17,47.17,0,0,0,10.06.93,205.06,205.06,0,0,0,23.65-.41,77.55,77.55,0,0,0,11-1.63c2.13-.52,3.27-1.54,3.39-3.49.25-4.19.58-8.38.92-12.58.58-6.76.83-13.53,1.27-20.3.24-3.5.42-7,.59-10.52.27-5.13.45-10.28.85-15.41.23-2.86.29-5.74.39-8.6.13-3.7.37-7.31.51-11,.15-4.15.43-8.33.64-12.45.19-3.66.25-7.32.39-11,.26-6.87.46-13.74.76-20.61.15-3.42,0-6.84.28-10.24.67-10.54.14-21.08.38-31.62a90.88,90.88,0,0,0-.75-12.88c-.25-2.07-.79-2.53-3.31-2.78A55.08,55.08,0,0,0,186,58c-6.59.09-13.18-.22-19.76.2a76.59,76.59,0,0,0-10.56,1.23c-5.06,1-7.14,4.86-4.82,8.83a16.33,16.33,0,0,0,5.24,5c4.24,2.87,9.05,5.09,13.45,7.79,3.7,2.27,7.33,4.55,10.18,7.63s4.53,6.62,4.39,10.59c-.23,6.13-.37,12.27-.75,18.39-.25,4.1-.36,8.2-.74,12.29-.78,8.44-1.35,16.9-3.47,25.21a27.63,27.63,0,0,1-2.38,5.89,2.25,2.25,0,0,1-1,1.19,2.4,2.4,0,0,1-1.61-.52c-5.67-3.57-12.31-4.76-19.15-5.37-10.82-.93-21.68-.66-32.52-.43-7.88.17-15.73.67-23.62.74-7.19.05-14.32.52-21.48.92-1.91.09-3.7.69-5.61.76a2.72,2.72,0,0,1-.63-.08,8.15,8.15,0,0,0-4.69-.27,66.59,66.59,0,0,0-12.36,3.7c-2,.81-4,1.64-6,2.59a3.77,3.77,0,0,0-2.27,2.84,76.84,76.84,0,0,0-.93,10.49c-.22,4.63-.28,9.21-.52,13.79-.28,5.55,0,11.11-.29,16.61-.67,11.44-.13,22.86-.31,34.26,0,2.67.24,3,3.31,3.79a56.32,56.32,0,0,0,8.76,1.23c.65.07,1.49-.07,1.68.76a6.32,6.32,0,0,1-2.87,0L52.12,248C51.42,247.73,50.65,248.05,50,247.74Z"/><path class="cls-3" d="M57.53,248c-1.45-.18-2.89-.39-4.33-.53a37.5,37.5,0,0,1-7.74-1.38c-1.73-.54-2.25-1.34-2.25-2.78V221.17c0-3.12-.22-6.25,0-9.35.49-5.93,0-11.87.39-17.78.24-3.41,0-6.82.3-10.18.53-5.69.4-11.41,1.39-17.08a3,3,0,0,1,1.65-2.48,81.57,81.57,0,0,1,19.24-6.79c1.74-.35,3.6-.7,5.21.46a2,2,0,0,1-1.35.65,30.75,30.75,0,0,0-14.33,6.48,11.65,11.65,0,0,0-1.1,1c-4.25,4.31-6.17,9.41-7.25,14.82a47.64,47.64,0,0,0-1,10.18,87,87,0,0,0,1.06,13.29c.49,2.73.76,5.49,1.21,8.23a30.17,30.17,0,0,0,1.94,6.92,1.24,1.24,0,0,1,.13,1.18,29,29,0,0,0,.05,6.78,22.87,22.87,0,0,0,2.31,8c3.13,6.23,8.88,9.4,16.66,10.57,2.49.37,5.09-.16,7.65.82-1.2,1-2.73,1-4.16,1.22-3.47.44-7,.18-10.45.32h-.16l-.14-.05C60.84,247.9,59.13,248.49,57.53,248Z"/><path class="cls-4" d="M57.53,248c1.63.24,3.33-.25,4.93.33a46.81,46.81,0,0,1-7.85-.26Z"/><path class="cls-4" d="M50,247.74c.72.07,1.47-.2,2.13.22C51.39,247.89,50.64,248.12,50,247.74Z"/><path class="cls-5" d="M50.7,220.69l-.34-.88c-.65-2.33.09-4.63.23-6.91.21-3.26,1-6.48,1.54-9.67a2.57,2.57,0,0,1,.63-1.47.5.5,0,0,1,.68.15s0,0,0,.05c2,2.53,4.89,4.07,8.09,5.27.83.31,2,.75,2.6,0s-.58-1.35-1.27-1.86a35.46,35.46,0,0,0-8-4c-.58-.23-1.24-.37-1.53-.93a1.78,1.78,0,0,1,.52-1.77c1.74-.6,3.64-.19,5.43-.6a35.73,35.73,0,0,0,4-.79c.62-.2,1.27-.52,1.11-1.16s-.85-.63-1.43-.73a10.68,10.68,0,0,0-2.65.16,4.07,4.07,0,0,1-1.95-.28c-.47-.3-.24-.63,0-.92a24.57,24.57,0,0,0,4.35-6.42c.79-.3,1.33.2,1.94.47a12.23,12.23,0,0,0,3.7,1.28c.47,0,1,.13,1.26-.3a.92.92,0,0,0-.23-1.11,5.34,5.34,0,0,0-1.3-1,40,40,0,0,0-8.52-4,1,1,0,0,1,.1-1c2.78-5.93,6-11.72,9.4-17.44A18.51,18.51,0,0,0,71.73,158a68.29,68.29,0,0,1,12.6-1.24c3.64-.07,7.29-.6,11-.5,5.32.15,10.64-.15,15.95-.39,11.66-.53,23.33-.72,35-.48,7.4.15,14.75.64,21.74,2.94a31.8,31.8,0,0,1,7.75,3.83.44.44,0,0,1,.15.4,12.05,12.05,0,0,1-2.57,3.91,2.47,2.47,0,0,1-2-.37c-1.39-.62-2.82-1.21-4.27-1.78-.51-.19-1.17-.53-1.58,0s.17.83.5,1.16a22.08,22.08,0,0,0,4.56,3.24,2.92,2.92,0,0,1,.67.48.91.91,0,0,1,.14.42,23.14,23.14,0,0,1-4.13,5.69c-1-.14-1-.86-1.15-1.47a16.88,16.88,0,0,0-3.46-6.48,5.52,5.52,0,0,0-1.08-1c-.48-.36-1-.93-1.67-.62s-.48,1.07-.27,1.6a21.74,21.74,0,0,0,4.83,7.19c.58.61,1.26,1.18,1.85,1.85a1.59,1.59,0,0,1-.37,1.4,106.49,106.49,0,0,0-6.48,10.29,1.39,1.39,0,0,1-.37.31c-1.78.29-3.64.13-5.39.6-.75.2-1.85.23-1.75,1.13s1.23.73,2,.86a12.56,12.56,0,0,0,1.94,0c.66,0,1.29.07,1.6.69a17,17,0,0,1-1.77,5.45c-.87.43-1.28-.22-1.77-.57a2.29,2.29,0,0,0-2.52-.51c-.73.56-1.44.24-2.12-.05a23.63,23.63,0,0,0-2.89-1.12c-.44-.12-1-.42-1.32,0s.16.81.5,1.13a19.62,19.62,0,0,0,6,4.1c2.15.87,3.19,2.08,3,4,0,2,.13,3.94-.06,5.9a1.19,1.19,0,0,1-.22.47,8.15,8.15,0,0,1-2.87,1.2c-2.41-.18-4.73-.93-7.22-.73-1.48.12-2.95.25-4.4.47-.71.1-1.55.32-1.54,1s.93.86,1.6.93a34.22,34.22,0,0,0,12.29-1.11,4.11,4.11,0,0,1,2.27.3,1.26,1.26,0,0,1,.33.4c.36,2.4,1.08,4.72,1.66,7.08a3.4,3.4,0,0,1-1.33,3.77,2.64,2.64,0,0,1-2.31-.41,37.78,37.78,0,0,0-5.66-2.45c-.47-.15-1.13-.49-1.48-.11s.22.93.6,1.24a19.76,19.76,0,0,0,3.76,2.8c.54.28,1.13.56,1.31,1.15-.64,1.23-2.23,1.36-3.37,2a21.06,21.06,0,0,1-3.43,1.18c-.5.13-1,.41-1.52,0a112.64,112.64,0,0,0-12.73-.38,101.67,101.67,0,0,0-12.33.56c-2.77.33-5.61.47-8.42.64-5.16.33-10.31.73-15.5.66-.92-.32-.52-1.09-.79-1.64-.18-.34-.18-1-.77-.81-1.16.29-1.56-.34-2.17-.87a4.67,4.67,0,0,0-6.58.72,4.1,4.1,0,0,0-.35.5c-.35.54-.26,1.29-1.08,1.61-.32.62-1,.57-1.62.56L77,230.72c.08-.93,1.12-1.07,1.75-1.53a8.33,8.33,0,0,0,.87-.52c.59-.5,1.94-.78,1.06-1.85-.56-.65-2.23-.55-3.06.12a18,18,0,0,0-1.85,1.85,9.94,9.94,0,0,1-.79.8c-.45.39-.86,1-1.6.7s-.33-1-.14-1.45a8.42,8.42,0,0,0,.52-3.06,1.66,1.66,0,0,0-.6-1.35,1.37,1.37,0,0,0-1.22-.49c-.47.11-.52.49-.6.84a28.75,28.75,0,0,0-.45,3.7c-.07.54,0,1.11-.71,1.41a44.64,44.64,0,0,1-7.24-1.28c-.63-.17-1.46-.17-1.56-.93-.68-.81.09-1.5.29-2.24.37-1.39.2-1.65-1.48-1.85a5.37,5.37,0,0,0-4.17.72,1.52,1.52,0,0,1-1.44.38C52.58,223.77,51.83,222.13,50.7,220.69Z"/><path class="cls-6" d="M143,229.31l1.43-.28c5.74-.36,11.5.14,17.23-.44a34.79,34.79,0,0,0,13.53-3.8,17.76,17.76,0,0,0,7.4-8,31.9,31.9,0,0,0,3-14.09c.08-4.15.18-8.34,0-12.46-.28-6.2-1-12.37-3.22-18.31a19.07,19.07,0,0,0-5.77-8.43,1.92,1.92,0,0,1-.81-1.12v-.28c2.49-4.48,3.55-9.25,4.32-14.1.84-5.25,1.35-10.52,1.79-15.81.29-3.38.57-6.75.72-10.18.26-5.75.63-11.5.76-17.25.07-2.86.46-5.7,0-8.55-.6-3.7-3-6.73-6-9.36-3.71-3.22-8.16-5.68-12.57-8.17s-8.82-4.63-12.37-7.9c-3-2.78-3.71-6.37-1.68-9.53a4.07,4.07,0,0,1,2.35-1.71c4.48-1.35,9.18-1.55,13.89-1.85,6.81-.47,13.63-.16,20.45-.18a62,62,0,0,1,7.2.6,2.26,2.26,0,0,1,2.07,2.12,51.32,51.32,0,0,1,.84,8.92c.12,10.54.23,21.08,0,31.62-.1,4.35.06,8.71-.34,13-.31,3.31-.08,6.62-.3,9.91-.43,6.42-.54,12.83-.75,19.25-.16,4.92-.48,9.84-.71,14.76s-.47,9.66-.72,14.49c-.23,4.63-.4,9.37-.75,14-.21,2.64-.12,5.3-.5,8-.36,2.31-.17,4.69-.41,7-.33,3.3-.16,6.62-.45,9.92-.54,6.22-.68,12.46-1.31,18.69-.32,3.13-.52,6.28-.74,9.42-.1,1.52-1.11,2.26-2.56,2.69a60.35,60.35,0,0,1-12.47,2,91.21,91.21,0,0,1-11.21.58c-4.78-.22-9.57-.11-14.35-.24-5-.14-9.72-1.67-14.74-1.4a136.85,136.85,0,0,0-14,1.74c-4,.64-8,1.13-12,1.53A57.41,57.41,0,0,1,95.59,246a7.2,7.2,0,0,1-1.52-.38c-2.46-.93-2.6-2.32-.37-3.7,3.84-2.4,8.33-3.71,12.69-5.22,4.56-1.53,9.35-1.93,14.17-2.37a90.81,90.81,0,0,0,11.11-1.91A73.81,73.81,0,0,0,143,229.31Z"/><path class="cls-3" d="M100.35,153.82H83.82c-5,0-10.06-.23-15.09-.36a14.28,14.28,0,0,0-5.37,1.37c-4.71,1.7-9.26,3.7-14.07,5.28a21,21,0,0,1-3.58.77,2,2,0,0,1-2.47-1.41l0-.16c-.56-2.53.14-5,.51-7.45.75-4.77,1.72-9.51,2.09-14.33.31-4.15-.87-8.08-1.37-12.11-.47-3.87-1.44-7.67-1.93-11.53-.57-4.63-1.22-9.18-1.73-13.78a15.72,15.72,0,0,1,.42-6c.16-.62.37-1.54,1.3-1.62s1.3.67,1.68,1.21a33.47,33.47,0,0,1,3.1,6c4,9.12,7.21,18.51,11,27.66a63.12,63.12,0,0,0,4.63,9.76,4.9,4.9,0,0,0,3.58,2.17c7,1.22,14,2.33,21,3.52A127.16,127.16,0,0,1,105.79,147a10.94,10.94,0,0,1,4,2.14c1.66,1.47,1.44,2.44-.82,3.24a22.89,22.89,0,0,1-6,1.09C101.94,153.55,101,154,100.35,153.82Z"/><path class="cls-7" d="M81.28,106.05c.18,3.4.33,6.4.49,9.4a3.7,3.7,0,0,1,.09.88c-.26,1.26.85,3.17-.74,3.7-2,.66-4.4,0-6.55-.65-.61-.17-.47-.63-.49-1-.2-3.91-.42-7.81-.56-11.71q-.39-11.28-.71-22.55c-.07-2.82.72-3.55,4.15-3.88a50.82,50.82,0,0,1,14.31.13c5.13.93,8,3.51,8.33,7.88a14.93,14.93,0,0,1-3.28,11.16,9.6,9.6,0,0,1-5.1,3.3c-1.76.47-1.85.73-.75,2.07q6.15,7.55,12.24,15.11c1,1.22.7,1.86-1.06,1.81-3.07-.06-6.13-.33-9.2-.53-1.16-.07-1.43-.92-1.85-1.65a120.91,120.91,0,0,0-6.9-11A7.65,7.65,0,0,0,81.28,106.05Z"/><path class="cls-3" d="M83.84,57.52c-3.14-.25-6.25.57-9.38.29-4.52-.43-9.11,0-13.57-.93-1.23-.23-2.94-.29-3.23-1.45s1.22-1.66,2.23-2.23a49.43,49.43,0,0,1,9.26-3.7,208.36,208.36,0,0,1,21.38-5.26c2.17-.42,4.36.13,6.48.28,5,.35,10,1,15,1.75,4.16.63,8.4,1.21,12,3.25,2.26,1.26,2.17,2.62-.29,3.64a36.47,36.47,0,0,1-8.51,1.93c-4.57.68-9.2,1.08-13.82,1.49-3.34.31-6.7.5-10.06.62C88.91,57.3,86.4,57.8,83.84,57.52Z"/><path class="cls-8" d="M53.2,201.66a49.82,49.82,0,0,0-1.76,8.61c-.37,2.67-.54,5.35-.93,8-.08.51.48,1.05-.12,1.52a16,16,0,0,1-2.12-6.48c-.68-3.94-1.31-7.87-1.73-11.83-.26-2.39-.37-4.82-.49-7.23A50.71,50.71,0,0,1,47.9,176.9c1.24-4.12,3-8.1,6.74-11.18a29.84,29.84,0,0,0,5.11,8.39,4.54,4.54,0,0,0,2,1.65,2.78,2.78,0,0,0,0-2.26,21.73,21.73,0,0,0-3.49-6.14,5.46,5.46,0,0,0-2-1.62c-.43-.19-1.06-.31-.93-.92a31.39,31.39,0,0,1,12.81-6.19c1.06-.26,2.15-.44,3.24-.66h.34a2.88,2.88,0,0,1-.11,2.56c-1.39,3.64-3.71,6.95-5.56,10.38s-3.79,7.11-5.55,10.7c-.28.54-.53,1.08-.79,1.63.51.81-.18,1.45-.41,2.17-1,2.23-2,4.47-2.73,6.76-.28,1.09-.78,2.11-1.16,3.18s-.31,2.41-1.41,3.34l-.37,1.78C53.6,200.91,53.69,201.35,53.2,201.66Z"/><path class="cls-3" d="M184.55,52.47c-4,.26-8.53-.15-13.07,0-5.47.21-11,0-16.28,1.59-2.88.88-5.55,2.09-8.45,3-4,1.25-5.56.13-7.31-2.71-.79-1.3-1.15-2.77-1.85-4.16s.08-2,1.51-2.45a37.3,37.3,0,0,1,7.28-1.15,130.09,130.09,0,0,1,13.38-.87A156.53,156.53,0,0,1,175.94,47c4,.47,8.06.85,12,1.61a18.51,18.51,0,0,1,4.68,1.25c.46.23,1,.52,1,.93s-.71.75-1.25.92A24.67,24.67,0,0,1,184.55,52.47Z"/><path class="cls-7" d="M153.91,111.44c-.71.28-1.85-.51-2.23.1a3,3,0,0,0,.08,2.61c.63,1.76,2.29,2.36,4.32,1.6a8.26,8.26,0,0,0,3.14-2.11,7.47,7.47,0,0,1,5.55-2c2-.05,2.71.92,1.68,2.26a19.79,19.79,0,0,1-13.6,7.77c-3.2.44-5.49-.93-6.48-3.8-2-5.91-1.65-11.78,1.74-17.28s12.3-6,16.34-.92c2.77,3.43,1.16,8.1-3.51,10.42A13.75,13.75,0,0,1,153.91,111.44Z"/><path class="cls-3" d="M40.46,69c-.45-4.62.35-9.19.35-13.78a7.24,7.24,0,0,1,.76-3.9,2.15,2.15,0,0,1,2.78-1c4.12,1.3,7,3.76,8.25,7.2.54,1.49,0,3.28-.23,4.92a64.32,64.32,0,0,1-2,9.41c-1.64,5.69-3,11.46-6,16.79-.32.54-.51,1.34-1.54,1.18S42,89,41.88,88.44a28.22,28.22,0,0,1-1.15-7.3C40.73,77.1,40.05,73.09,40.46,69Z"/><path class="cls-7" d="M120,111.66a17.93,17.93,0,0,1,7.18-13.22,12.15,12.15,0,0,1,9.45-2.56c4.46.62,6.1,4.78,4.4,7.92a2.7,2.7,0,0,1-1.72,1.22c-.45.12-.92.16-1-.47-.38-2.08-2.54-2.12-4.33-2.38a4.93,4.93,0,0,0-4.94,1.72,9.92,9.92,0,0,0-1.69,7.15,8.49,8.49,0,0,0,.93,3.45c1,1.76,2.41,2.31,4.63,1.69,2.71-.77,4.72-2.4,6.87-3.87.77-.53,1.55-1.06,2.36-1.57.26-.17.62-.4.92-.2a.67.67,0,0,1,.19.83c-1.72,5.22-5.43,10.12-13.59,10.36C122.91,121.91,120,119.24,120,111.66Z"/><path class="cls-7" d="M114,109.28a51.06,51.06,0,0,1-.28,10.34c-.22,1.75-.92,2.2-3,2.1-2.86-.13-4.18-1-4.34-3.36a61.79,61.79,0,0,1,1.16-16.67c.31-1.5,1.28-1.77,4.2-1.72,1.71,0,2.28.75,2.27,2C114,104.45,114,106.87,114,109.28Z"/><path class="cls-7" d="M82.26,230.24c.88-2.94,2.39-4.23,5-4.19a4.5,4.5,0,0,1,4.24,2.17c1.59-1,1.86-.92,2.21.7.15.62.22,1.24.33,1.85-.17,3.11-.42,6.21-2,9.11a6,6,0,0,1-3.61,3.29c-2.53.79-4.54-.4-4.63-2.65a4.55,4.55,0,0,1,.12-1.47c.18-.58.13-1.42,1.09-1.54s1,.75,1.41,1.27.33,1.16,1.17,1.16a1.87,1.87,0,0,0,1.49-1,11.2,11.2,0,0,0,1.73-4.83c-1.1.57-2,1.09-3,1.53-2.92,1.34-4.9.51-5.48-2.21A18.25,18.25,0,0,1,82.26,230.24Z"/><path class="cls-7" d="M54.61,224.59a7.86,7.86,0,0,1,7-1.36c.82.19,1.09.46.87,1.11-.37,1.09-.73,2.18-1.09,3.27s-.93,2.13-1.35,3.19c-.33.79-.16,1.26,1,1.19a1.09,1.09,0,0,1,.36,0c.92.09,2.37-.4,2.77.5s-.39,2-.92,2.92c-.25.41-.72.43-1.22.44-2.25.08-4.48-.17-6.73-.31-1.62-.11-1.94-1-2.11-2.13s1-1.2,1.85-1.36a1.86,1.86,0,0,0,1.5-1.1,11.81,11.81,0,0,0,1.07-3.11h-.41c-2.22,1.24-2.87,1-3.83-1.1C52.69,225.49,54,225.26,54.61,224.59Z"/><path class="cls-7" d="M70.25,229.9c.26-1.85.5-3.71.79-5.56.21-1.25.81-1.42,2-.66a2.43,2.43,0,0,1,1.35,2.42,18.25,18.25,0,0,1-1.12,4c.49.24.74.06,1-.27.93-.92,1.85-1.9,2.78-2.89a2.34,2.34,0,0,1,1.56-.86c1.16-.05,2.44.07,3,.93s-.74,1.35-1.41,1.85c-1,.69-2.09,1.26-3.15,1.85-1.38.47-1.35,1-.22,1.75A13.62,13.62,0,0,1,80,235.09c.33.42.72.84.33,1.34s-1.06.39-1.63.33A3.94,3.94,0,0,1,76,235.24a9.27,9.27,0,0,0-1.94-2.33,1.83,1.83,0,0,0-.92,1.71c.14,1.3-1,1.44-2,1.5-1.42.08-.93-.93-.93-1.5C70.12,233,70.21,231.47,70.25,229.9Z"/><path class="cls-7" d="M108.07,90.79c0-2.43,2-3.7,5.35-2.94,1.23.28,2,.92,1.92,2a12.41,12.41,0,0,1-2.7,7.41,2.11,2.11,0,0,1-2.24.87,1.9,1.9,0,0,1-1.78-1.59A30,30,0,0,1,108.07,90.79Z"/><path class="cls-9" d="M55.34,164.82c4.75,2.43,6.48,6.27,7.11,10.63.1.74-.39,1.37-1.17.63-3.22-3-6-6.23-6.65-10.37Z"/><path class="cls-10" d="M175.76,162.42a17,17,0,0,1,6,7.2c2.23,4.31,2.94,8.89,3.61,13.49,1.07,7.47.83,15,.55,22.46A26.87,26.87,0,0,1,182,219c-2.78,4.53-7.34,7.3-13,8.81-7.82,2.07-15.91,1.51-23.93,1.52a1.62,1.62,0,0,1-.62-.25c2.29-.93,4.74-1.63,6.76-3a.8.8,0,0,1,.47-.11c1.16.26,2.11.93,3.28,1.14.63.1,1.41.31,1.85-.22s-.27-.92-.65-1.39-1.25-.77-1.52-1.41a.45.45,0,0,1,.16-.38c1.6-1.44,1.45-3.07.93-4.8a18.45,18.45,0,0,1-1.23-5.91,3.22,3.22,0,0,1,2.94-.59,16.72,16.72,0,0,0,6.77-.8c.66-.17,1.53-.45,1.4-1.15s-1.15-.82-1.85-.79a54.39,54.39,0,0,0-6,.53c-1.18.19-2.38.69-3.61.13v-6.54c.35-.25,0-.7.37-.92,1.42.39,1.78,1.62,2.73,2.4.31.26.54.76,1.09.54s.37-.69.28-1.06a16,16,0,0,0-1.85-4.29c-.15-.24-.28-.48-.42-.72a7.3,7.3,0,0,0-1.26-1.85c-.07-.32.12-.51.43-.64l1.85-5.64a1.19,1.19,0,0,1,.38-.36,3.12,3.12,0,0,1,1.67-.31,22.76,22.76,0,0,0,6.36-.93c.86,0,.93.65,1.24,1.09a14.64,14.64,0,0,0,1.85,2.44c.64-.52.49-1.08.49-1.58a14.16,14.16,0,0,0-2.51-7.76,3.55,3.55,0,0,0-.84-.93,1.25,1.25,0,0,0-1.13-.3.83.83,0,0,0-.59,1,13.65,13.65,0,0,0,1.07,3.7c.22.53.74,1.06.14,1.66-2.16-.25-4.38-.26-6.33-1.27,2-4.05,4.73-7.73,7.09-11.6,0-.63.44-.93,1.07-1.19l3.93-5.65c1.34-.18,2.3.68,3.5.86.63.08,1.36.42,1.85-.14s-.23-1.06-.65-1.52c-.75-.82-2.12-1.1-2.7-2.08a.49.49,0,0,1,.17-.39A34.77,34.77,0,0,1,175.76,162.42Z"/><path class="cls-11" d="M138.35,187.7a1.66,1.66,0,0,1-2,.63,21.47,21.47,0,0,1-10.18-5.85,3.18,3.18,0,0,1-.46-.63c-.22-.36-.42-.75,0-1.09s.77,0,1.14.05a35.58,35.58,0,0,1,8.82,4,2.51,2.51,0,0,0,1.58.53C138,186,139,186.6,138.35,187.7Z"/><path class="cls-12" d="M148.56,162.5c-1.36-.23-2.77-.38-4.12-.72-1.09-.28-1.31-.85-.36-1.62,1.37-1.09,3.17-1,4.81-1.22a26.1,26.1,0,0,1,8.53.83c.59.13,1.2.41,1.08,1s-.59.71-1.17.77Z"/><path class="cls-11" d="M125.52,165.11c-.15,1.5-1,2-2.87,1.41a22.34,22.34,0,0,1-7.05-3.61,24.85,24.85,0,0,1-2.44-2.15c-.37-.36-.72-.92-.28-1.36s1.08-.25,1.64-.05c3.77,1.32,7.41,2.85,10.31,5.32A6.2,6.2,0,0,0,125.52,165.11Z"/><path class="cls-12" d="M167.21,175.21l-1.07,1.2c-1.16-.07-1.42-1-2-1.56-2.33-2.41-4.41-5-5.18-8.09-.15-.58-.18-1.12.44-1.46a1.8,1.8,0,0,1,1.85.43,14.23,14.23,0,0,1,4.21,5.36C166.24,172.44,166.15,174,167.21,175.21Z"/><path class="cls-12" d="M114.84,218c-.37,2.48-2.19,4.63-4.25,6.71a20.47,20.47,0,0,1-2.55,2.08c-.36.26-.87.62-1.41.25a.8.8,0,0,1-.22-1.1c1.42-3.32,3.08-6.53,6.14-9.08.45-.37.93-.85,1.66-.61C114.65,216.33,114.86,216.86,114.84,218Z"/><path class="cls-12" d="M93.49,205.59A14.09,14.09,0,0,1,91.23,210a21.84,21.84,0,0,1-4.35,4.45c-.47.34-1,.8-1.72.45s-.46-.92-.23-1.46a28.16,28.16,0,0,1,5.55-8.33,2.27,2.27,0,0,1,2.08-.93C93.32,204.35,93.06,205.18,93.49,205.59Z"/><path class="cls-13" d="M88.86,164.82A59.05,59.05,0,0,1,83,167.5a41.16,41.16,0,0,1-4.19,1.13,1.49,1.49,0,0,1-1.57-.48c-.36-.48.19-.83.58-1.1a35.62,35.62,0,0,1,6-3.58c.93-.38,1.94-.54,2.51-1.33a3.9,3.9,0,0,1,3.64-.61C91.18,162.78,90.8,163.81,88.86,164.82Z"/><path class="cls-12" d="M115.53,189.82c2.13-.33,4.29.29,6.48.63.6.09,1.35.31,1.33,1s-.7.82-1.25.93a37.14,37.14,0,0,1-11.9.39c-.74-.13-1.67-.25-1.66-1.05s.74-1,1.48-1.32A13.42,13.42,0,0,1,115.53,189.82Z"/><path class="cls-12" d="M99.78,212.44c-1.62-.15-3.13-.23-4.63-.45-.6-.08-1.27-.34-1.33-1s.55-.93,1.14-1.17c2.85-1.18,5.87-.76,8.84-.62a12.27,12.27,0,0,1,3.8.64c.52.2,1.18.35,1.09,1s-.68.6-1.17.74C105,212.29,102.26,212,99.78,212.44Z"/><path class="cls-12" d="M113.44,172.51c3.76.69,7.51,1.35,10.72,3.24.45.28,1.07.6.93,1.17s-.93.33-1.37.42c-1.67.35-3.27-.18-4.85-.4a37.84,37.84,0,0,1-6.39-1.61c-.77-.25-2.06-.6-1.79-1.58S112.37,172.71,113.44,172.51Z"/><path class="cls-13" d="M134.79,224.56a34.31,34.31,0,0,1-3.71-7.81,6,6,0,0,1-.24-1.9c0-.55-.25-1.3.69-1.5a1.94,1.94,0,0,1,1.93.84,14.73,14.73,0,0,1,3,6.85c.14.92.64,1.92.35,2.91-.17.58,0,1.54-1.4,1.2C134.93,225.24,134.69,225,134.79,224.56Z"/><path class="cls-14" d="M100.57,206.53c-1.06,0-1.4-.66-.78-1.71a9.52,9.52,0,0,1,2.87-2.6,21.79,21.79,0,0,1,7.2-3.37c.68-.18,1.5-.39,1.91.25s-.27,1-.7,1.4a44.83,44.83,0,0,1-8.23,5.55A7.3,7.3,0,0,1,100.57,206.53Z"/><path class="cls-11" d="M70.66,213.85a10.37,10.37,0,0,1-2.42-.26c-.66-.1-1.33-.08-1.47-.79s.25-1.2,1-1.49a3.55,3.55,0,0,0,.7-.43,4.44,4.44,0,0,1,3.92-.29,23.76,23.76,0,0,1,7.18.59c.76.22,1.86.32,1.77,1.13s-1.15.92-2,.92c-1.17.1-2.35.16-3.5.34-.74.12-1.76.11-1.66,1.14A33.54,33.54,0,0,1,70.66,213.85Z"/><path class="cls-13" d="M89.19,185.32l-2.5-3.87a3.75,3.75,0,0,1-1.42-2.67c.2-1.4-1.08-2.6-.73-4,.11-.48,0-1,.69-1.23a1.66,1.66,0,0,1,1.57.45c2.34,1.79,2.67,4.31,3.42,6.66a15.19,15.19,0,0,1,.39,2.32C91.45,184.61,90.94,185.47,89.19,185.32Z"/><path class="cls-12" d="M99.27,192a10.68,10.68,0,0,1,.63-5.4c.23-.54.36-1.26,1.27-1.23a1.55,1.55,0,0,1,1.39,1.2,12.35,12.35,0,0,1,0,7.72,20.51,20.51,0,0,1-.78,2.41,1.35,1.35,0,0,1-1.52,1c-.8-.13-.87-.84-.92-1.32C99.2,195,99.27,193.48,99.27,192Z"/><path class="cls-12" d="M74.17,172.66c-1.4.06-2.68-.53-4.06-.44a1.47,1.47,0,0,1-1.69-1c-.09-.6.54-1,1.24-1.3,2.1-.82,4.38-.72,6.56-.75a35.5,35.5,0,0,1,5.89.8c.54.1,1.24.28,1.29.88s-.69.76-1.23.84Z"/><path class="cls-13" d="M81.68,201.55c-1.51-.36-3.15.24-4.63-.36-.48-.19-1.12-.37-1.13-.84s.62-.62,1.13-.8c3.44-1.16,7.11-1.38,10.74-1.69,1.06-.1,2.68-.08,3,1s-1.26,1.34-2.16,1.78C86.48,201.76,84,201.14,81.68,201.55Z"/><path class="cls-12" d="M132,202.69c-.11.56.13,1-.44,1.23a1.26,1.26,0,0,1-1.41-.39c-2.46-2.64-4.75-5.37-5.91-8.63-.22-.59-.42-1.33.39-1.74a2,2,0,0,1,2.1.43,14.05,14.05,0,0,1,4.1,5.45A33,33,0,0,1,132,202.69Z"/><path class="cls-11" d="M91,194.83c0,2.07-.67,2.52-3,1.78a23.42,23.42,0,0,1-8.72-5.19c-.52-.46-1.13-1.12-.55-1.7s1.41-.26,2.15,0a81,81,0,0,1,8.33,3.92A3.77,3.77,0,0,1,91,194.83Z"/><path class="cls-11" d="M134.79,224.56l.71.59c.05.51-.18.78-.8,1a15,15,0,0,1-4.31.78c-2.4,0-4.79.5-7.2,0a7.89,7.89,0,0,1-1.2-.18c-.56-.21-1.33-.29-1.42-1s.64-.93,1.15-1.19a6.48,6.48,0,0,1,3-.66c1.21,0,2.47.33,3.63-.27,1-.65,2.18.07,3.2-.31A4.9,4.9,0,0,0,134.79,224.56Z"/><path class="cls-11" d="M97.72,175.84a22.12,22.12,0,0,1,7,.7c.55.15,1.26.33,1.15.92s-.8.61-1.38.73a36.85,36.85,0,0,1-11.71.62c-.92-.12-1.76-.42-1.92-1.07s.73-1.08,1.5-1.38A14,14,0,0,1,97.72,175.84Z"/><path class="cls-11" d="M69.5,180.93l-4.26-.66c-.45-.07-.82-.2-.93-.6s.29-.69.71-.93a12.85,12.85,0,0,1,4-1A67.92,67.92,0,0,1,76.6,177c.88-.05,2.07.09,2.29,1s-.79,1.28-1.54,1.58a13.11,13.11,0,0,1-3.2.83C72.59,180.68,71,180.47,69.5,180.93Z"/><path class="cls-11" d="M142.63,177.89c-.34-.44-1.44-.26-1.35-1s1-.73,1.64-.93a34.48,34.48,0,0,1,10.93-1.38c.92.06,2,.07,2.18.92s-.84,1.36-1.71,1.63a29.26,29.26,0,0,1-7.62,1,2,2,0,0,0-1.93.93C144.17,178.55,143.25,178.41,142.63,177.89Z"/><path class="cls-12" d="M106.82,166.59c-1.21.06-2.43.06-3.65,0-.82-.09-2-.24-2-1.18,0-.74.93-1.2,1.79-1.42a20.37,20.37,0,0,1,6.27-.58c1.69.11,3.37.35,5,.61.8.12,1.85.39,1.76,1.19s-1.06.77-1.85.85C111.74,166.3,109.23,166.83,106.82,166.59Z"/><path class="cls-11" d="M136.93,207a17.07,17.07,0,0,1-5.08-.53c-.41-.1-.8-.22-.92-.62s.43-.66.83-.82a30.34,30.34,0,0,1,8.6-1.55c1-.09,2,0,3-.14.8-.13,1.73,0,2,.8s-.27,1.24-1.11,1.62C141.76,206.88,138.93,206.68,136.93,207Z"/><path class="cls-12" d="M63.27,219.44a33.42,33.42,0,0,1-6.08-.25c-.8-.16-2,0-2.12-1s.93-1.34,1.86-1.54a24.3,24.3,0,0,1,11.92.32c.5.13,1.05.34,1,.88s-.51.69-1.09.76C67,218.88,65.11,219.17,63.27,219.44Z"/><path class="cls-13" d="M144.21,173.4c-2-.2-3.9-.06-5.67-.57-.5-.15-1.13-.2-1.18-.74s.54-.76,1-.87a33.76,33.76,0,0,1,8.26-1.32c1.46,0,2.88-.48,4.36-.06.51.14,1,.17,1.18.71s-.21.92-.72,1.25a13.28,13.28,0,0,1-5,1.3C145.66,173.2,144.83,173.27,144.21,173.4Z"/><path class="cls-12" d="M152.25,212.37c-.34.67-1.14.71-1.79.83a45.29,45.29,0,0,1-10.4.63c-1.07-.06-2.6-.12-2.65-1.27s1.41-1.47,2.57-1.64a27.24,27.24,0,0,1,11.54.56A1.18,1.18,0,0,1,152.25,212.37Z"/><path class="cls-13" d="M128.37,170.76q-1.41-2.83-2.85-5.65h0a9.78,9.78,0,0,1-.35-3.19c.06-.45-.25-1,.58-1.22a1.84,1.84,0,0,1,1.72.54,11.66,11.66,0,0,1,2.65,4.58c.11.27,0,.59.39.78a4.6,4.6,0,0,1,.71,4.46c-.53.44,0,2.05-1.77,1.18A1.54,1.54,0,0,1,128.37,170.76Z"/><path class="cls-11" d="M116.26,204.64a49,49,0,0,1,8.68,4.22c1,.67,2.5,1.48,1.8,2.57s-2.19.48-3.36.08a22.31,22.31,0,0,1-8.22-5c-.46-.43-1-1-.81-1.56S115.61,204.75,116.26,204.64Z"/><path class="cls-13" d="M108.86,183.25c-1.52-.09-3.08.21-4.56-.3-.51-.17-1-.37-1.07-.86s.63-.7,1.1-.81c4-.93,8-1.78,12.19-1.42.61.06,1.35.12,1.49.83s-.32,1.05-.92,1.31A18.09,18.09,0,0,1,108.86,183.25Z"/><path class="cls-13" d="M98.45,218.91c0-.68-.39-1.33,0-2,.21-.41-.24-1.1.65-1.19a2,2,0,0,1,1.85.75,14.75,14.75,0,0,1,2.9,5.68,12.78,12.78,0,0,1,.37,4.27c0,.41.19.92-.57,1.09s-.93-.36-1.21-.71a27.8,27.8,0,0,1-3.55-6.92c-.11-.22-.23-.44-.35-.65-.1-.06-.12-.13-.1-.19S98.43,218.91,98.45,218.91Z"/><path class="cls-11" d="M98.45,218.91v.29c-.39,1.48-1.37,2-3.93,2.38a58.2,58.2,0,0,1-8.14.29,2.76,2.76,0,0,1-1-.14c-.59-.25-1.51-.29-1.47-1.08s.84-.75,1.44-.93a60,60,0,0,1,9.89-1.43A5.68,5.68,0,0,1,98.45,218.91Z"/><path class="cls-11" d="M53.2,201.66c0-.41-.14-.87.36-1.18a39.37,39.37,0,0,1,10.24,4.89c.77.52,1.46,1.2,1,2s-1.58.59-2.38.43a18,18,0,0,1-6-2.78c-.66-.42-1.29-.87-1.91-1.31C53.69,203.23,53,202.69,53.2,201.66Z"/><path class="cls-13" d="M116.26,204.64c-1.25-.68-2.77,0-4.1-.58-.53-.26-1.44-.25-1.42-.93s.85-.71,1.46-.86a40.93,40.93,0,0,1,11.51-1.22c.78,0,1.64,0,1.85.77s-.65,1.06-1.28,1.38c-2.49,1.22-5.33,1.08-8,1.43Z"/><path class="cls-11" d="M89.9,161.84c-1.28-.68-2.34.42-3.56.3h-6a7.25,7.25,0,0,1-2.07-.3,1,1,0,0,1-.88-1,.93.93,0,0,1,.68-.93,7.24,7.24,0,0,1,2-.55,27.73,27.73,0,0,1,10.47.25c.59.13,1.3.18,1.44.92s-.76.65-1.06,1S90.22,161.64,89.9,161.84Z"/><path class="cls-11" d="M58.88,185.32c.26-.69.51-1.39.76-2.07,1.48-.13,2.56.67,3.77,1.15a32.29,32.29,0,0,1,6,3.33,1.53,1.53,0,0,1,.77,2c-.43.93-1.38.46-2.15.38-2-.24-3.51-1.37-5.25-2.08-1,0-1.51-.69-2.24-1.07C60.05,186.37,59.12,186.1,58.88,185.32Z"/><path class="cls-12" d="M91,194.83a2.47,2.47,0,0,1-1.77-1.18,15.63,15.63,0,0,1-.17-6.28c.08-.68.11-1.36.17-2.05,2-.16,1.25-1.46,1.42-2.38a1.92,1.92,0,0,1,2.1,1.64,10.26,10.26,0,0,1-.07,5.81C92.25,191.9,92.08,193.5,91,194.83Z"/><path class="cls-12" d="M85.27,178.78a7.48,7.48,0,0,1,1.42,2.67c-2.66,1-5.17,2.32-8.09,2.83a17.39,17.39,0,0,0-2.1.2c-.82.2-1.63.21-2-.41s.49-1.09,1-1.36A35.37,35.37,0,0,1,85.27,178.78Z"/><path class="cls-11" d="M154.39,202.86c0,.32.05.67-.36.92.25-1.59-.59-2.43-2.35-3.15a23.09,23.09,0,0,1-6.8-4.63c-.48-.46-.93-1.09-.49-1.56s1.21-.22,1.85,0c1.28.47,2.6.93,3.81,1.49a.93.93,0,0,0,1.15-.17,22.19,22.19,0,0,0,2.42,1.5,2.52,2.52,0,0,1,1.6,2.16c0,.79-.32,1.55-.33,2.33A1.39,1.39,0,0,1,154.39,202.86Z"/><path class="cls-15" d="M154,210.29l9-1.16a5.9,5.9,0,0,1,2.56.42c1.06.33.93,1.61-.28,2-2.49.86-5.06,1.63-7.83,1.18a8.07,8.07,0,0,0-3.13.19v-.29c-.61-.64-1-1.31-.33-2.09A.49.49,0,0,1,154,210.29Z"/><path class="cls-12" d="M131.58,223.36c-.17.82-.92.65-1.49.52a6.17,6.17,0,0,0-1.71-.21,42.71,42.71,0,0,1-3.93-5.94,3,3,0,0,1-.35-1.58c0-.44-.07-.88.52-1.17a1.47,1.47,0,0,1,1.61.26A13.86,13.86,0,0,1,131.58,223.36Z"/><path class="cls-12" d="M142.63,177.89c.92.18,2.13-.08,2.14,1.19a8.4,8.4,0,0,1-2.12,4.42,15.77,15.77,0,0,1-4.3,4.2c.17-.92-1.08-1.47-1.07-2.38A21.32,21.32,0,0,1,142.63,177.89Z"/><path class="cls-12" d="M60.68,186.8c.93.1,1.44.79,2.14,1.2-.56,2.78-2.58,5-4.63,7.14-1.3,1-2.29,1.08-3.24.28l1.11-3.26a18.3,18.3,0,0,1,3-4.49C59.45,187.25,59.79,186.65,60.68,186.8Z"/><path class="cls-13" d="M55,195.42c1.15.45,2.18-.07,3.24-.28a13,13,0,0,0,3.35-.25,2.56,2.56,0,0,1,1.23,0c.92.18,2.3.15,2.37,1.18s-1,1.52-2.1,1.73a36.77,36.77,0,0,1-9.11.93Z"/><path class="cls-12" d="M131.22,171.06c-.24-1.48-.47-3-.71-4.46a13.89,13.89,0,0,1,3.49-4.21,1.86,1.86,0,0,1,1.92-.41,1.38,1.38,0,0,1,.51,1.85A18.48,18.48,0,0,1,131.22,171.06Z"/><path class="cls-12" d="M89.9,161.84c.26-.34.68-.28,1.06-.29a24.4,24.4,0,0,1,3.85,7.11,4.51,4.51,0,0,1,.07,1.32.77.77,0,0,1-.56.85.91.91,0,0,1-1-.38,23.16,23.16,0,0,1-4.42-5.63C89.35,163.87,91.2,163.25,89.9,161.84Z"/><path class="cls-11" d="M154.74,223.67V224a4.81,4.81,0,0,1-3.21,2.08h-.36a22.62,22.62,0,0,1-5.63-4c-.51-.47-1.1-1.08-.6-1.7s1.24,0,1.77.09a33.06,33.06,0,0,1,6.57,2.78A2.7,2.7,0,0,0,154.74,223.67Z"/><path class="cls-14" d="M173.26,166.3v.29c-.48,1-.65,2.21-2.12,2.67a16.39,16.39,0,0,1-5.77-3.8c-.47-.43-1-1.07-.47-1.59s1.33-.33,2-.07c1.65.67,3.3,1.34,4.91,2.07A2.79,2.79,0,0,0,173.26,166.3Z"/><path class="cls-12" d="M72.44,210.59l-3.92.29c-1-1.32-2.11-2.61-2.16-4.27,0-.46-.58-1,.28-1.27a2.26,2.26,0,0,1,2.15.28A10.65,10.65,0,0,1,72.44,210.59Z"/><path class="cls-11" d="M157.59,191.58h-.34c-1.38-.55-2.86.09-4.27-.29-.79-.21-1.71-.27-1.76-1.16s.75-1.13,1.59-1.32a16.72,16.72,0,0,1,6.18-.51C159.22,189.57,158.21,190.52,157.59,191.58Z"/><path class="cls-16" d="M157.59,191.58c0-1.21.85-2.2,1.4-3.28a1.31,1.31,0,0,1,.06-.27,34.84,34.84,0,0,1,6.38,1.17c.47.21.73.46.36.93a10.8,10.8,0,0,1-4.73,1.17C159.9,191.38,158.7,191.05,157.59,191.58Z"/><path class="cls-16" d="M171.14,169.27c.87-.79,1.12-1.94,2.12-2.67a33.4,33.4,0,0,1,3.14,2.14c.59.56,1.15,1.12.58,1.86s-1.27.54-2.08.31a22.62,22.62,0,0,1-3.76-1.31C171.14,169.47,171.13,169.36,171.14,169.27Z"/><path class="cls-12" d="M154.75,199.29c.06-1.38-1.4-1.69-2.39-2.3-.56-.35-1.33-.49-1.19-1.26a2.2,2.2,0,0,1,2.78.33c.48.41,1,.76,1.53,1.14l-.34.61a1.06,1.06,0,0,1,.36.93C155.36,199,155.28,199.35,154.75,199.29Z"/><path class="cls-17" d="M70.66,213.85c1.23.18,2.78-.55,3.56.93,0,.53.17,1.17-.63,1.4s-1.17-.36-1.57-.75S71.11,214.37,70.66,213.85Z"/><path class="cls-13" d="M154,210.58l.34,2.09a4.18,4.18,0,0,1-2.1-.3.92.92,0,0,1-.73-.92A4.05,4.05,0,0,1,154,210.58Z"/><path class="cls-18" d="M128.37,170.76c.58.39.72,1,1.08,1.48-.42.35-.93.81-1.46.33S128,171.33,128.37,170.76Z"/><path class="cls-2" d="M162.92,240.64a31.86,31.86,0,0,1-6.77-.33c-.92-.19-2.2-.2-2.32-1.07s1.12-1.31,2-1.6a45.39,45.39,0,0,1,6.55-1.17c.81-.14,1.63-.24,2.43-.4,1.1-.22,1.86-.61,2.08-1.73a4.19,4.19,0,0,1,1.58-2.1,86.15,86.15,0,0,1,14.81-10.57c.76-.43,1.59-1.2,2.51-.77s.6,1.43.58,2.21a53,53,0,0,1-2.34,12.79c-.58,2-2.77,2.45-4.74,2.89A77.44,77.44,0,0,1,162.92,240.64Z"/><path class="cls-2" d="M81.14,91.32c0-2.85.17-3,3.57-3.08a10.4,10.4,0,0,1,5,.84,3.78,3.78,0,0,1,2.27,4.17c-.37,1.53-1.73,2.44-4,2.61a10.42,10.42,0,0,1-1.58,0C81.15,95.4,81.27,95.22,81.14,91.32Z"/><path class="cls-19" d="M60.68,186.8c-2,1.17-2.77,3-4,4.63l-.61.72a39.39,39.39,0,0,1,2.78-6.84C59.53,185.78,60.42,186,60.68,186.8Z"/><path class="cls-20" d="M153.06,107.63c-.77.07-1.09-.22-.8-.93a8.42,8.42,0,0,1,5.49-5.06c1.21-.41,1.9.09,1.74,1.09C159.1,105.05,155.9,107.53,153.06,107.63Z"/><path class="cls-21" d="M85.65,231.07a2.17,2.17,0,0,1,.65-1.48c.54-.65.92-1.66,2.24-1.13s2.52,1.11,2.06,2.61A5.8,5.8,0,0,1,85.65,231.07Z"/><path class="cls-22" d="M85.65,231.07H90.6c-.28,1-1.25,1.53-2.22,2-.72.34-1.53.93-2.41.29a1.48,1.48,0,0,1-.49-2A1.84,1.84,0,0,1,85.65,231.07Z"/><path class="cls-16" d="M170.5,207.94a17,17,0,0,1-1.7-.44,24.7,24.7,0,0,1-8.33-5.11c-.48-.43-1-1-.59-1.6s1.19-.2,1.73,0a28.78,28.78,0,0,1,10.19,5.15c.51.43,1,.87.64,1.54S171.25,207.86,170.5,207.94Z"/><path class="cls-15" d="M165.79,190.08l-.36-.92a21.11,21.11,0,0,1-1.7-4.8c-.12-.68-.5-1.57.61-2a2,2,0,0,1,2.36.92,14.82,14.82,0,0,1,3,9.86c0,.36-.07.74-.5.88a1,1,0,0,1-1.12-.53C167.29,192.4,166.55,191.24,165.79,190.08Z"/><path class="cls-23" d="M166.85,217.42c-.63-.1-1.27-.19-1.89-.31s-1.44-.23-1.51-.84.53-1.19,1.33-1.39a26.07,26.07,0,0,1,9.06-.61,23.17,23.17,0,0,1,3.1.57c.54.12,1.2.29,1.25.92s-.63.7-1.18.93c-2,.66-4.16.53-6.23.79A4.15,4.15,0,0,1,166.85,217.42Z"/><path class="cls-24" d="M179.36,188.05c-.41,2.21-2,4.15-3.7,6.09a10.3,10.3,0,0,1-3.35,2.77c-.85.41-1.14.22-1.23-.55a4.89,4.89,0,0,1,1-2.78,27.76,27.76,0,0,1,4.11-6,3.44,3.44,0,0,1,.71-.66c.54-.37,1.11-.85,1.85-.54S179.28,187.29,179.36,188.05Z"/><path class="cls-24" d="M166.85,217.42h3.93a17.41,17.41,0,0,1-6.16,7.93c-.46.37-1.08.86-1.68.55-.76-.38-.27-1.05-.08-1.59A33.07,33.07,0,0,1,166.85,217.42Z"/><path class="cls-25" d="M154.39,202.86v-1.19c.92-.42,2-.6,2.48-1.49a9.58,9.58,0,0,1,2.12,5c0,.4.22.92-.48,1.13a1.44,1.44,0,0,1-1.48-.6C156.16,204.79,155.27,203.83,154.39,202.86Z"/><path class="cls-16" d="M151.53,226l3.21-2.09c.77.61,1.57,1.18,2.27,1.85.37.35.75.81.41,1.35s-.92.39-1.41.4A8.19,8.19,0,0,1,151.53,226Z"/><path class="cls-26" d="M156.88,200.18c.25,1.74-1.24,1.49-2.49,1.49l.36-2.38a.64.64,0,0,0,.36-.59c.92-.18,1,.56,1.42.93A.57.57,0,0,1,156.88,200.18Z"/><path class="cls-25" d="M156.53,199.59l-1.42-.93v-.92C156.2,198.06,156.25,198.89,156.53,199.59Z"/><rect class="cls-27" width="250" height="250"/></svg>