<svg id="Layer_1" data-name="Layer 1" xmlns="http://www.w3.org/2000/svg" viewBox="0 0 250 250"><defs><style>.cls-1{fill:#4f3c63;}.cls-2{fill:#a4a2a3;}.cls-3{fill:#65447d;}.cls-4{fill:#e1d8d8;}.cls-5{fill:#ede7e7;}.cls-6{fill:#f6f3f3;}.cls-7{fill:#f6f3f4;}.cls-8{fill:#7c51a0;}.cls-9{fill:#d0cfd2;}.cls-10{fill:#b69bc1;}.cls-11{fill:#a77fb8;}.cls-12{fill:#c1bdc1;}.cls-13{fill:#ede8e8;}.cls-14{fill:#a5a3a4;}.cls-15{fill:#fefefe;}.cls-16{fill:#c1bfc4;}.cls-17{fill:#9169ac;}.cls-18{fill:#eeb14d;}.cls-19{fill:#9269ac;}.cls-20{fill:#fdca09;}.cls-21{fill:#feca08;}.cls-22{fill:#fdca08;}.cls-23{fill:#ccd88c;}.cls-24{fill:#da9d34;}.cls-25{fill:#db9d34;}.cls-26{fill:#c0be8b;}.cls-27{fill:#c7d18e;}.cls-28{fill:#c6c284;}.cls-29{fill:#a780b8;}.cls-30{fill:#feca09;}.cls-31{fill:#f8f6f6;}.cls-32{fill:#da9d37;}.cls-33{fill:#da9d35;}.cls-34{fill:#dace68;}.cls-35{fill:#ccd288;}.cls-36{fill:#865b9a;}.cls-37{fill:#fdfbf3;}.cls-38{fill:#fdf7e4;}.cls-39{fill:#fdf2d1;}.cls-40{fill:#fdf7e5;}.cls-41{fill:#fdf7e2;}.cls-42{fill:#fdf6df;}.cls-43{isolation:isolate;}.cls-44,.cls-45{fill:none;}.cls-44{stroke:#fff;stroke-miterlimit:10;stroke-width:0.25px;}</style></defs><title>products</title><path class="cls-1" d="M172.46,196.38q-1.69,20.15-3.42,40.25c-.25,3-2.2,4.8-4.48,6.28-4.75,3.08-10.15,4.32-15.62,5.31a120.5,120.5,0,0,1-26.62,1.63c-10.16-.48-20.28-1.39-29.95-4.93a22.31,22.31,0,0,1-6-3.07c.5-1.11,1.34-.49,2-.27,10.84,3.72,22,4.77,33.43,4.82,9.73,0,19.43-.29,28.85-2.83a52,52,0,0,0,6.56-2.29c4.89-2,7.15-5.51,7.46-10.86.81-14.39,2.28-28.7,3.43-43q1.62-20.15,3.37-40.28c.58-6.65.9-13.32,1.77-19.94.91-2.49,2.4-3.45,5.12-3.32-.23,6.84-1.06,13.63-1.59,20.44-.3,4-.67,8.07-1,12.11-.45,6-1.13,12.08-1.57,18.12-.25,3.56-.61,7.1-.86,10.64C173.08,188.88,172.77,192.6,172.46,196.38Z"/><path class="cls-2" d="M185.43,100.16c0,4.52.06,9.06.08,13.58a5.18,5.18,0,0,1-2.63,4.27c-1.31.91-2.75,1.63-4.13,2.43a5.45,5.45,0,0,1-3.06,1.7c-8.42,2.54-17.1,3.56-25.83,4.42-2.93.3-5.86.3-8.78.72a6.58,6.58,0,0,1-3.92-.27c-.48-1.22.64-1.15,1.21-1.33,1.79-.59,3.66-.94,5.43-1.64,3.31-1.32,5-3.6,4.87-7.27-.06-1.86-.44-3.78.43-5.59,2.32-1.22,4.92-1,7.39-1.38a105.36,105.36,0,0,0,18.92-4.12c3.34-1.13,6.59-2.44,9.05-5.15A1,1,0,0,1,185.43,100.16Z"/><path class="cls-3" d="M137,126.68a157.66,157.66,0,0,0,16.25-1.14,127.49,127.49,0,0,0,18.71-3c2.28-.56,4.51-1.38,6.77-2.08,0,1.14.19,2.3-.4,3.37-1.61.88-3.87.72-4.63,3-2.54-.68-4.85.72-7.31.82a10.67,10.67,0,0,0-2,.51,235.42,235.42,0,0,1-26.75,2.77q-9.69.56-19.36.26c-11.73-.39-23.4-1.4-34.86-4.15a35.82,35.82,0,0,1-4.65-1.35A26.22,26.22,0,0,1,75,124.09c-1-.64-.62-2-1.31-2.74-.59-.58-1.72-.17-2.09-1.16.53-.87,1.44-.72,2.21-.76,3.28.72,6.37,2.09,9.66,2.81a133.73,133.73,0,0,0,20.5,3.13c4,.31,8,.72,12,.72,6,.07,12,.5,18.07,0A4.14,4.14,0,0,1,137,126.68Z"/><path class="cls-4" d="M185.43,100.16c-2.92,4-7.38,5.35-11.77,6.69-7.92,2.43-16.15,3.53-24.4,4.32H149a37.33,37.33,0,0,1-6.84-4.72c-.59-.45-1.13-1.13-.29-1.92,4.49-.75,9.06-.85,13.56-1.57,5.4-.87,10.79-1.69,15.91-3.82,1.63-.68,3.53-1.43,3.55-3.44s-1.89-2.4-3.3-3.15a27.86,27.86,0,0,0-6-2,7.75,7.75,0,0,1-3.15-1.09c-.59-1.24.5-1.19,1.14-1.48a56.6,56.6,0,0,1,17.17,5.1C183.52,94.54,186.2,96.26,185.43,100.16Z"/><path class="cls-5" d="M163.53,88l-1.26,1.15a1.43,1.43,0,0,1-1.06.48,198.61,198.61,0,0,0-22.7-2.46c-6.88-.41-13.74-.36-20.59-.22a121,121,0,0,0-14.61,1,3.92,3.92,0,0,1-2.87-.3c-.43-1.19.59-1,1.15-1.12,2.52-.43,5-.72,7.62-.91,3.08-.08,6.15-.39,9.23-.6h2.16a54.11,54.11,0,0,0,8.82,0A201.09,201.09,0,0,1,163.53,88Z"/><path class="cls-6" d="M110,85.41c2.59.19,5.13-.34,7.7-.49l.72.17c.07.28.43.62-.26.66-2.87.16-5.75.34-8.63.52-.2-.18-.53-.26-.52-.62C109.29,85.21,109.57,85.08,110,85.41Z"/><path class="cls-7" d="M129.4,85.06a22.2,22.2,0,0,1-8.82,0Z"/><path class="cls-8" d="M164.83,127.52c2.54-1,5.32-.87,7.91-1.77,1.1-.37.92.44,1,1-.55,6.54-1.12,13.08-1.65,19.63-.47,5.85-.85,11.72-1.34,17.57s-1.08,11.82-1.6,17.74c-.32,3.76-.59,7.53-.91,11.29-.53,6.4-1.1,12.81-1.64,19.22-.46,5.64-1.06,11.28-1.27,16.93-.28,7.71-2.36,10.89-9.78,13.56a78.54,78.54,0,0,1-19.47,3.92,157.4,157.4,0,0,1-20.14.29c-9.74-.34-19.38-1.52-28.55-5.15-.34-.14-.65-.24-.94.07-1.51-.72-2.16-2.31-3.36-3.39a2.2,2.2,0,0,1-.59-1.61c.24-1.36-.79-2.72,0-4.08.78-.61,1.44-.05,2.16.23,12.72,5.18,24.41,3,35.32-4.88a32.91,32.91,0,0,0,4.71-3.86,2.41,2.41,0,0,1,1.78-1,1.64,1.64,0,0,1,.62,1.48,5.21,5.21,0,0,0,2.24,4.11c2.38,1.28,4.43,1,6-.94a4.52,4.52,0,0,0-.16-6.3,14.3,14.3,0,0,1-1.72-1.67.88.88,0,0,1,.43-1.07,3.83,3.83,0,0,1,1.64-.27c2.68-.15,4.18-1.12,4.85-3.21s-.1-4-1.81-5.38a4.7,4.7,0,0,1-.76-.72,1.44,1.44,0,0,1,0-1.5,5.86,5.86,0,0,1,.3-.55,114.53,114.53,0,0,0,6.66-13.52c.28-.72.51-1.47,1.38-1.72.64.13.81.67,1,1.23-.26-1-1.07-1.69-1-2.73,1-3.93,2.53-7.7,3.68-11.6,1.62-5.51,2.79-11.13,3.94-16.75,2.24-2.67,2.31-5.66,1.25-8.8.94-7,1.1-14,1.51-21a7,7,0,0,1,.23-1.87c.43-1,1.43-1,2.25-1.33C161,128.57,163,128.41,164.83,127.52Z"/><path class="cls-9" d="M137,126.68a245,245,0,0,1-32.06-.52,10.41,10.41,0,0,1-1.24-.23,35.57,35.57,0,0,1-15.2-5.48c-4.1-2.76-5-9.1-3.82-12.34,3.13-.19,6.06.91,9.1,1.36.91.14,1.16,1,1.18,1.78.2,5.56,3.67,8.43,8.45,10a52.24,52.24,0,0,0,29.82,1.29c4-1,6.47-3.21,6.47-7.59a6.52,6.52,0,0,1,.48-3.31c.18-.21.39-.46.65-.47,2.79-.17,5.56-1,8.36-.11l.06.09c0,2.1-.06,4.19,0,6.28.09,3.36-1.57,5.44-4.52,6.81C142.23,125.43,139.51,125.7,137,126.68Z"/><path class="cls-10" d="M164.83,127.52c-1.17,1.44-3,1.27-4.51,1.89a21.18,21.18,0,0,1-3,.78c-.61.93-1.62,1-2.57,1.22A172.7,172.7,0,0,1,136,134.1a233.08,233.08,0,0,1-24.36,1c-2.24,0-4.47.4-6.71,0-1.59-.27-2.16.47-2.31,2.11-.36,4.21-.31,8.41-.49,12.62a3.28,3.28,0,0,1-1.6,2.08c-4.72,3.66-4.75,7.2-.12,10.87.65.51,1.44.9,1.33,2-.66,4.4-.4,8.84-.77,13.25-.64,7.84-1,15.71-2.94,23.38a20.4,20.4,0,0,1-2.65,6.63c-2.16,3.22-5.53,3.24-7.73,0a21.82,21.82,0,0,1-3.06-7.59,159.86,159.86,0,0,1-3-21.47c-.77-8.95-1.36-17.93-2-26.89-.61-8-1.11-16-1.74-24-.08-1-.24-2.16.59-3a140.58,140.58,0,0,0,20.75,4c3.12.37,6.25.72,9.35,1a233.93,233.93,0,0,0,26.48.4A255.51,255.51,0,0,0,164.83,127.52Z"/><path class="cls-11" d="M78.39,125c.33,7.73.93,15.45,1.63,23.16.42,4.66.52,9.35.91,14,.55,6.4.91,12.8,1.57,19.19A167.42,167.42,0,0,0,85.16,200a20.73,20.73,0,0,0,3.21,7.91c1.89,2.63,4.79,2.53,6.48-.24,2.32-3.79,3.1-8.07,3.73-12.35,1-6.47,1.49-13,1.83-19.59.15-3.07.25-6.14.32-9.22a2.67,2.67,0,0,1,.86-2.26c1.88-.55,3.07,1.08,4.64,1.44a55.47,55.47,0,0,0,16.39,3c2.56.15,5.15-.26,7.71.26,1.06.6.82,1.55.55,2.41-4.21,13.57-10,26.27-20.36,36.37a19.75,19.75,0,0,1-5.52,4.17,5.88,5.88,0,0,1-1.26.17,5,5,0,0,0-5,3.59c-.16.52-.34,1.1-1.11,1a5.77,5.77,0,0,0-3.07.38,25.6,25.6,0,0,1-11.38.58A2.8,2.8,0,0,1,81,216.51c-1-2.83-.5-5.87-1.1-8.75.13-2.16-.44-4.2-.49-6.32a34,34,0,0,0-.41-5.87c.23-1.62-.32-3.16-.42-4.74,0-1.11,0-2.22,0-3.33-.5-3.05-.48-6.15-.83-9.21a12.54,12.54,0,0,0-.06-1.5c-.59-6.29-.86-12.6-1.51-18.88-.13-2.94-.68-5.85-.59-8.8a106.29,106.29,0,0,1-.83-12.23c-.55-3.49-.58-7-.83-10.54-.06-1-.28-2.16,1-2.61Z"/><path class="cls-12" d="M73.86,119.94l-4.75-3c-1.77-.63-2.16-2.1-2.3-3.74,0-3.69-.11-7.37,0-11a2,2,0,0,1,.69-1.62,1,1,0,0,1,1,.24c4,3.55,8.89,4.92,13.81,6.33.86.25,1.83.29,2.43,1.12a31.35,31.35,0,0,0,.46,6.7c.33,2.32,2,3.79,3.75,5.08,4.08,3,8.83,4.38,13.67,5.49.4.09.84,0,1.11.45a106.72,106.72,0,0,1-28.24-5.48C74.93,120.25,74.39,120.12,73.86,119.94Z"/><path class="cls-13" d="M149.2,111.1c-2.94.42-5.94.19-8.84.9a3.45,3.45,0,0,1-1.79.52c-5,0-10,.31-14.95-.16-3.43-.32-6.87-.28-10.3-.57-10.79-.92-21.51-2.23-31.85-5.66a24,24,0,0,1-7.32-3.66c-3.2-2.49-3.29-5-.26-7.71a16.5,16.5,0,0,1,5.47-3.1,2.06,2.06,0,0,1,2,0c.06,1.21-1.05,1.36-1.72,1.87-2.08,1.57-2.16,3,0,4.48a22.44,22.44,0,0,0,7.82,3,146.37,146.37,0,0,0,23.12,3.23c6.48.52,12.92.29,19.37.36a85.4,85.4,0,0,0,10.73-.26,1.25,1.25,0,0,1,.95.53c.4,1.63,2,2,3.07,2.88C146.13,109,147.7,110,149.2,111.1Z"/><path class="cls-14" d="M141.63,104.88l-.82-.07a2,2,0,0,1-.19-2.42c1.74-1.09,3.73-1,5.66-1.1A108.84,108.84,0,0,0,167.81,98a12.88,12.88,0,0,0,2.74-1.07c.8-.43,1.72-.85,1.66-2s-1-1.49-1.8-1.85a28.52,28.52,0,0,0-5.18-1.69,16.23,16.23,0,0,1-4-1.13c-.51-.52-.17-.8.29-1l.81-.1c3.54,1,7.24,1.57,10.54,3.4,1.37.76,2.93,1.54,2.83,3.29s-1.52,2.62-2.93,3.3c-4.45,2.16-9.25,3.11-14.07,3.91A139.3,139.3,0,0,1,141.63,104.88Z"/><path class="cls-15" d="M72.44,93c2.29-1.29,4.87-1.85,7.26-2.88a3.88,3.88,0,0,1,1.82-1,114.22,114.22,0,0,1,26.27-3.81,1.79,1.79,0,0,1,1.36.54l.45.44a46.8,46.8,0,0,0-9.27,1.27c-1.06,1.21-2.57.9-3.91,1.13a111.75,111.75,0,0,0-13,2.95,2.63,2.63,0,0,1-2,.14,14.62,14.62,0,0,0-8.23,4.66c-1.44,1.64-1.23,3.41.72,5,3.51,3,7.81,4.32,12.13,5.44a141.53,141.53,0,0,0,23,3.87,233.31,233.31,0,0,0,30.94,1.1.92.92,0,0,1,.39.14,18.35,18.35,0,0,1-.5,6c-.61,2.88-3.05,4.15-5.6,4.85a51.82,51.82,0,0,1-31.75-1.28c-4.68-1.66-8.09-4.73-8.07-10.29,0-.94-.29-1.31-1.3-1.44-2.82-.44-5.61-1.06-8.41-1.6a51,51,0,0,1-12.84-4.37,10.53,10.53,0,0,1-4-3.3c-1.41-1.64-1.33-3,.3-5.17C69.38,94.29,70.51,92.91,72.44,93Z"/><path class="cls-16" d="M81.34,91.74A83.74,83.74,0,0,1,97.42,88l2.87-.43c5.43-.4,10.85-1,16.28-1.17,6.1-.21,12.23-.34,18.31,0,8.91.49,17.86.72,26.62,2.92-.14.26-.27.51-.42.77-.67.41-1.44.12-2.16.18-7.82-1.11-15.7-1.44-23.57-2-2.45-.18-4.89.21-7.33,0-4.8,0-9.6-.28-14.39.18a158.25,158.25,0,0,0-22.36,2.31,39.4,39.4,0,0,0-7.91,2.08c-1.14.48-2.69.9-2.7,2.35s1.62,2,2.88,2.41c5.67,2,11.61,2.67,17.54,3.36,4.81.56,9.64.77,14.48,1,1.58.47,3.19.19,4.8.23,4,0,8.1,0,12.14,0a19,19,0,0,0,4.32-.2,9.83,9.83,0,0,1,3.11-.11,1.89,1.89,0,0,1,.65.24l.23.27v2.49c-4.8.85-9.65.29-14.47.44a160,160,0,0,1-22.64-.92c-7.54-.83-15.1-1.71-22.26-4.61a10.4,10.4,0,0,1-2.56-1.44c-2.41-1.93-2.16-3.79.51-5.38C80.08,92.55,80.69,92.14,81.34,91.74Z"/><path class="cls-17" d="M104.87,211.62c7-4.63,11.9-11.1,16.11-18.19s7-14.74,9.54-22.54a6.91,6.91,0,0,0,.17-1.44c1.09-1,2.51-.81,3.79-1,6.6-.81,13-2.1,18.62-6a1.32,1.32,0,0,1,1.19-.26,140.14,140.14,0,0,1-7.19,27.16,15,15,0,0,0-.41,1.6c-1.08-.07-1.16-1.08-1.59-1.74-1.1-1.74-1.21-1.78-2.33-.11-2.74,4.13-5.24,8.45-8.38,12.31-1.44,1.8-2.54,4.08-5,4.94-1.08-.14-1.9-1.13-3.07-1-3.87.28-5.43,2.08-5.12,6a3,3,0,0,1,0,1.44,1.42,1.42,0,0,1-1.36.62c-1.44-1-2.27-3.1-4.51-3-3.38.15-4.79,1.44-5.15,4.72a3.91,3.91,0,0,1-.26,1.21,1.11,1.11,0,0,1-1.4.5A22.55,22.55,0,0,0,104.87,211.62Z"/><path class="cls-17" d="M82.6,232.66l-1.23-16c5.1,1.61,10.12.81,15.1-.65.93-.28,1.44-.44,1.39.76,1.3,1.22,1.19,3.5,3.13,4.25,3.38,1.43,5.22.48,7.19-3.6a2.19,2.19,0,0,1,1.71-.58c1.2.57,1.63,2,2.94,2.49,3,1.22,5.68-.06,6.58-3.13a10.82,10.82,0,0,1,.57-2.44,3.48,3.48,0,0,1,1.37-.72c.92,0,1.44.72,2.11,1.15,2.16,1.19,4.08.72,5.85-.89.41-.38.72-1.1,1.49-.79.72,1.49.64,3.2,1.36,4.68a2.3,2.3,0,0,1-1.44,1.84c-.8.42.38.45.1.72-1.55,1.1-2.79,2.55-4.32,3.68a74.53,74.53,0,0,1-8.68,6.86c-6.48,4.09-13.51,6.42-21.17,6.12A33,33,0,0,1,82.6,232.66Z"/><path class="cls-17" d="M136.19,133.51a198.05,198.05,0,0,0,19.71-3c.48-.1.95-.24,1.44-.36-.19,7.2-.58,14.39-1.32,21.59a17.27,17.27,0,0,1-.43,2c-.82.13-1.27-.46-1.77-.92a22.22,22.22,0,0,0-10.79-5c-1.95-.43-3.88-.9-5.85-1.21a2.68,2.68,0,0,1-2.11-1.14A40.34,40.34,0,0,1,136.19,133.51Z"/><path class="cls-18" d="M143.33,147.44a22.12,22.12,0,0,1,12.23,6.39c1.73,3.1,1.16,5.86-1.24,8.35-4.56,3.79-10.07,5.29-15.72,6.31-2.6.47-5.25.64-7.88.95-5.38-.07-10.79.18-16.13-.92-3-.62-6.07-.94-8.81-2.49a1.62,1.62,0,0,1,1.55-.43,73.6,73.6,0,0,0,24.7-2.78,25.62,25.62,0,0,0,10.07-5.09c3.23-2.79,3.6-5.16,1.61-8.91C143.44,148.39,143.14,148,143.33,147.44Z"/><path class="cls-19" d="M146.26,192.16a51.15,51.15,0,0,0-3,6.42,88.43,88.43,0,0,1-4.95,9.2c-.76-1.44-.17-2.88,0-4.28a17.18,17.18,0,0,0,0-5.45,4.63,4.63,0,0,1,.77-3.59c1.29-1.94,2.55-3.88,3.84-5.8.72-1.09,1.44-1.12,2,.05S146.46,190.77,146.26,192.16Z"/><path class="cls-20" d="M147.51,218.77c-2.42-1.43-3.31-3.16-2.92-5.66.35-2.22,1.92-3.66,4.56-4.18a1.3,1.3,0,0,1,1.39.06.78.78,0,0,1,.37.09q3.63,2.52,2.34,6.28C152.38,217.88,150.4,219,147.51,218.77Z"/><path class="cls-21" d="M147.16,207.33a4.94,4.94,0,0,1-3-5,5.14,5.14,0,0,1,3.79-4.72,4.4,4.4,0,0,1,2.49,0l0,.09c2.48,1.62,3.31,3.82,2.39,6.39A5.18,5.18,0,0,1,147.16,207.33Z"/><path class="cls-22" d="M126.49,223.41a6.22,6.22,0,0,1,4.32-3.78,1.21,1.21,0,0,1,1.31-.31c3,1.76,4,4.1,3,6.92s-3.15,3.83-6.13,3.07C126.7,228,126.23,225.84,126.49,223.41Z"/><path class="cls-23" d="M146.26,192.16l-2.21-4.48c-1.84,2.81-3.49,5.3-5.08,7.82a1.76,1.76,0,0,0-.18,1.21c.72,3.73,0,7.4-.46,11.07l-.11-.08c-.61.08-.65-.41-.79-.8.25-3.11.28-6.25.47-9-2.16,2.88-4.38,6.3-7.41,9.09-.67.13-1.05-.1-1-.83,4-3.68,6.86-8.24,9.85-12.7,1.51-2.25,3-4.53,4.49-6.87,1.44,1.32,1.87,3,2.87,4.32.25,1.2,1.11,2.22.82,3.65Z"/><path class="cls-24" d="M147.16,207.33c4.07-.65,5.81-2.67,5.47-6.2-.15-1.56-1.44-2.33-2.12-3.5a4.85,4.85,0,0,1,4.18,4.32,5.51,5.51,0,0,1-3.19,5.6c-.51.26-2.16,0-1,1.44l-1.4-.06C149.53,207.11,147.51,208.25,147.16,207.33Z"/><path class="cls-25" d="M129,229.29c2.43.22,4.39-.48,5.46-2.88a4.94,4.94,0,0,0-.72-5.46c-.51-.64-1.29-.79-1.82-1.34a.83.83,0,0,1,.77-.38c.48,0,.72.39,1,.68,3.18,1.69,4.21,4.62,2.63,7.48a5,5,0,0,1-6.77,2.2A5.24,5.24,0,0,1,129,229.29Z"/><path class="cls-24" d="M137.92,209a5.37,5.37,0,0,1,.44,9.71c-1.37.76-2.87.5-4.31.41a.45.45,0,0,1,0-.56,5.94,5.94,0,0,1,1.82-1,4.44,4.44,0,0,0,1.8-6.84c-.36-.55-1.07-1-.66-1.81A.77.77,0,0,1,137.92,209Z"/><path class="cls-24" d="M147.51,218.77c4.84-.28,7.79-5.17,3.4-9.69a5,5,0,0,1,4,5.88,5.54,5.54,0,0,1-.14.55C154.13,218.17,150.26,220.59,147.51,218.77Z"/><path class="cls-26" d="M150.46,197.54H148c.16-.72-.56-1.44-.12-2.46C148.64,196.12,149,197.52,150.46,197.54Z"/><path class="cls-27" d="M137.92,209h-1a1.52,1.52,0,0,1-1.93.22.47.47,0,0,1-.09-.65.56.56,0,0,1,.26-.17c1-.26,1.67-1.18,2.63-1.55l.37.85Z"/><path class="cls-28" d="M134,218.75a.87.87,0,0,0,.05.36l-.42.84-.84-.38c-.25-.47,0-.72.39-1A.72.72,0,0,1,134,218.75Z"/><path class="cls-21" d="M143.33,147.44c4,4.57,2.22,8.79-2,11.71-5.72,3.94-12.35,5.45-19.1,6.38a80.22,80.22,0,0,1-11.89.86c-1.53,0-3-.23-4.58-.36l-4.15-1.74c-.93-.72-1.92-1.36-2.79-2.15-3.22-2.88-3.22-6.68,0-9.58.87-.78,1.86-1.44,2.78-2.16a7.49,7.49,0,0,1,3.75-2.25,62.1,62.1,0,0,1,28.23-3,3.09,3.09,0,0,1,1.76.61C138,146.39,140.74,146.56,143.33,147.44Z"/><path class="cls-29" d="M135.33,145.73a109.35,109.35,0,0,0-14.71-.17,53.77,53.77,0,0,0-19,4.85c-.18-4.84.22-9.65.37-14.47.05-1.6.88-1.6,2-1.59,6.14,0,12.28.11,18.41,0,4.59-.1,9.18-.52,13.77-.8C136.25,137.61,135.52,141.65,135.33,145.73Z"/><path class="cls-30" d="M100.67,221.38c-2-.89-2.41-2.76-2.83-4.62,1.13-3.86,2.47-5,5.86-5a4.9,4.9,0,0,1,3.2,6.12C106,220.77,103.88,222,100.67,221.38Z"/><path class="cls-24" d="M100.67,221.38c1.76,0,3.47-.19,4.67-1.72,2.16-2.75,1.54-5.68-1.64-8l1.17-.05c1.9,1.12,3.55,2.42,3.54,4.92a1,1,0,0,1,0,1C107.6,221.55,104.12,223.28,100.67,221.38Z"/><path class="cls-4" d="M159.36,89.65a3.23,3.23,0,0,1,1.72.37,39.82,39.82,0,0,1,9.48,2.5c1.19.49,2.51,1.11,2.54,2.52s-1.44,2.08-2.66,2.62a44.84,44.84,0,0,1-11.33,2.84c-6.06,1-12.19,1.39-18.31,1.82v-.13c0-1.25,1.11-1.52,1.89-2,5-3.15,10.11-6.25,15.17-9.36A5.37,5.37,0,0,0,159.36,89.65Z"/><path class="cls-13" d="M159.36,89.65c.28,1.28-.88,1.36-1.54,1.78-5.34,3.34-10.71,6.63-16.06,10a8,8,0,0,0-.94.8l-.49,0a17.54,17.54,0,0,0-4.16,0c-6.73.16-13.46.11-20.14-.3a125.93,125.93,0,0,1-18.76-2.26,40.35,40.35,0,0,1-6.62-2.08c-1.26-.51-2.43-1.28-2.48-2.84s1.22-2.28,2.46-2.8c4.57-2,9.45-2.51,14.31-3.16,3.25-.44,6.55-.44,9.81-.85,4.46-.39,8.94,0,13.41-.4A226.19,226.19,0,0,1,159.36,89.65Z"/><path class="cls-15" d="M114.65,88.36c-7.78.61-15.54,1.32-23,3.83-1.27.43-3,.72-3,2.45s1.77,2.25,3.23,2.78c5.14,1.92,10.54,2.57,15.94,3.19a252.37,252.37,0,0,0,31,1.27c.54,0,1.14-.15,1.57.36l-3.29.08c-1.38.49-2.88-.15-4.25.36H120.14c-1.52-.5-3.14.13-4.67-.36A128.93,128.93,0,0,1,86,98.91a17.25,17.25,0,0,1-4.71-1.75c-2.16-1.29-2.16-2.81,0-4.12A25.14,25.14,0,0,1,90,90.23a124.15,124.15,0,0,1,23.32-2.3C113.89,87.81,114.52,87.31,114.65,88.36Z"/><path class="cls-31" d="M114.65,88.36c-.31-.5-.83-.39-1.29-.43,1-.72,2.16-.37,3.24-.38,3.84,0,7.68,0,11.51,0-.56.62-1.31.39-2,.37A107.36,107.36,0,0,0,114.65,88.36Z"/><path class="cls-13" d="M115.47,102.32c1.56.14,3.17-.46,4.67.36C118.59,102.55,117,103.12,115.47,102.32Z"/><path class="cls-13" d="M132.79,102.68c1.36-.79,2.83-.24,4.24-.36C135.67,103.11,134.21,102.55,132.79,102.68Z"/><path class="cls-21" d="M112.45,219.66a5,5,0,0,1-2.52-2.52c-.22-.27-.12-.64-.31-.91-.25-4.32,1.75-6.48,5.87-6.33a5.14,5.14,0,0,1-3,9.76Z"/><path class="cls-30" d="M123.09,214.53l-1.68-1.27c-.18-.14-.44-.21-.41-.51-1.43-4.95.72-8.05,5.45-7.87,2.75,1.56,3.73,4,2.72,6.69C128.4,213.61,125.94,215.75,123.09,214.53Z"/><path class="cls-32" d="M123.09,214.53c2.44.12,4.44-.55,5.49-3,1.22-2.87-.22-4.82-2.16-6.66,1.26-.18,2.07.72,3,1.29l.66.78c1.64,1.61,1.84,2.87.85,5.23l-.26.22C128,215.55,126.05,216.09,123.09,214.53Z"/><path class="cls-33" d="M112.45,219.66c2.61-.12,4.68-1.22,5.41-3.8s-.27-4.5-2.37-6c2.2.08,3.38,1.5,4.27,3.28.15.19.42.31.37.61-.09,3.72-1.18,5.43-3.93,6.31A3.9,3.9,0,0,1,112.45,219.66Z"/><path class="cls-34" d="M109.63,216.23a.88.88,0,0,1,.32.91,2.29,2.29,0,0,0-1.57.36v-1C108.85,216.62,109.32,216.7,109.63,216.23Z"/><path class="cls-35" d="M120.15,213.79l-.38-.61,1.23-.43c.14.17.28.33.41.51Z"/><path class="cls-22" d="M134,218.75l-.72-.11a1.47,1.47,0,0,1-1.39-1.15,7.12,7.12,0,0,1-1.2-5.09h0c.57-1.14.77-2.5,2-3.22.72-.4,1.44-.84,2.27-.29l2,.09c.82,1.18,2.1,2,2.19,3.71C139.33,216,138.05,217.59,134,218.75Z"/><path class="cls-36" d="M131.87,217.49l1.4,1.15-.47.93-.9.07h-1.11c-.31-.1-1,0-.52-.65A14.2,14.2,0,0,1,131.87,217.49Z"/><path class="cls-37" d="M148.17,213c-.1.59-.33,1.06-1,1.11a1,1,0,0,1-1.23-.81.71.71,0,0,1,0-.25,1,1,0,0,1,.87-1.11h.12C147.64,211.85,148,212.3,148.17,213Z"/><path class="cls-38" d="M147.85,201.56c-.18.78-.56,1.24-1.34,1.13a1.06,1.06,0,0,1-1-1.1.07.07,0,0,0,0-.05,1.06,1.06,0,0,1,1.06-1.06l.25,0A1.08,1.08,0,0,1,147.85,201.56Z"/><path class="cls-39" d="M128.9,225c-.72-.19-1.18-.59-1.09-1.32a1.1,1.1,0,0,1,1.16-1l.17,0a1.08,1.08,0,0,1,1,1.17h0A1.15,1.15,0,0,1,129,225Z"/><path class="cls-19" d="M135,208.92c-2.21.2-3.23,1.88-4.27,3.51a7,7,0,0,0-.57-5.48A105.2,105.2,0,0,0,138,196.67a43.16,43.16,0,0,1-.25,10.18C137.63,208.62,136.19,208.6,135,208.92Z"/><path class="cls-40" d="M100.47,214.65a1.06,1.06,0,0,1,1.13,1,.43.43,0,0,1,0,.16,1,1,0,0,1-.91,1.14h0a1.06,1.06,0,0,1-1.25-.81,1.49,1.49,0,0,1,0-.21,1.09,1.09,0,0,1,.9-1.26Z"/><path class="cls-40" d="M113.22,214.1A1.11,1.11,0,0,1,112,215l-.15,0a1,1,0,0,1-.9-1.06s0-.07,0-.11a1,1,0,0,1,1-1,.85.85,0,0,1,.23,0C113,212.93,113.17,213.46,113.22,214.1Z"/><path class="cls-41" d="M123,207.82c.72.14,1.15.53,1.06,1.28a1,1,0,0,1-1,1h0a1.08,1.08,0,0,1-1.17-1V209a1.13,1.13,0,0,1,1.11-1.14Z"/><path class="cls-42" d="M133.23,211.76c.72.14,1.21.57,1.14,1.29a1.07,1.07,0,0,1-1.1,1l-.22,0a1.06,1.06,0,0,1-1-1.08V213A1.19,1.19,0,0,1,133.23,211.76Z"/><g class="cls-43"><g class="cls-43"><path d="M105.83,157.61a2.37,2.37,0,0,1-.59,0,4.94,4.94,0,0,1-.75-.14,2.71,2.71,0,0,1-.63-.22c-.17-.09-.24-.19-.2-.29a1.47,1.47,0,0,1,.18-.2l.4-.44c.16-.16.33-.35.5-.55s.33-.38.47-.55a4.4,4.4,0,0,0,.3-.43c.07-.13.07-.2,0-.23a.69.69,0,0,0-.61.09,2.73,2.73,0,0,0-.68.62,5.82,5.82,0,0,0-.64,1,8,8,0,0,0-.53,1.19,7.88,7.88,0,0,0-.36,1.15,3.68,3.68,0,0,0-.13.91,1.28,1.28,0,0,0,.13.63.56.56,0,0,0,.43.28,2.06,2.06,0,0,0,.82-.09,4.87,4.87,0,0,0,1-.44,6.94,6.94,0,0,0,1-.74,5.85,5.85,0,0,0,.87-1,2.19,2.19,0,0,1,.34-.42c.06,0,.09,0,.09.14a.76.76,0,0,1,0,.21,1.76,1.76,0,0,1-.22.37,9.62,9.62,0,0,1-.9,1,8.15,8.15,0,0,1-1.08.88,5.83,5.83,0,0,1-1.23.6,4,4,0,0,1-1.31.23,2.12,2.12,0,0,1-1.13-.32,2.47,2.47,0,0,1-.84-.83,2.74,2.74,0,0,1-.38-1.19,2.78,2.78,0,0,1,.21-1.37,4.91,4.91,0,0,1,1.2-1.81,7,7,0,0,1,1.62-1.19,4.76,4.76,0,0,1,1.55-.53,1.43,1.43,0,0,1,1,.12,3.84,3.84,0,0,1,.47.44,1.45,1.45,0,0,1,.31.66,3,3,0,0,1,0,1,5.3,5.3,0,0,1-.56,1.47Z"/></g><g class="cls-43"><path class="cls-44" d="M105.83,157.61a2.37,2.37,0,0,1-.59,0,4.94,4.94,0,0,1-.75-.14,2.71,2.71,0,0,1-.63-.22c-.17-.09-.24-.19-.2-.29a1.47,1.47,0,0,1,.18-.2l.4-.44c.16-.16.33-.35.5-.55s.33-.38.47-.55a4.4,4.4,0,0,0,.3-.43c.07-.13.07-.2,0-.23a.69.69,0,0,0-.61.09,2.73,2.73,0,0,0-.68.62,5.82,5.82,0,0,0-.64,1,8,8,0,0,0-.53,1.19,7.88,7.88,0,0,0-.36,1.15,3.68,3.68,0,0,0-.13.91,1.28,1.28,0,0,0,.13.63.56.56,0,0,0,.43.28,2.06,2.06,0,0,0,.82-.09,4.87,4.87,0,0,0,1-.44,6.94,6.94,0,0,0,1-.74,5.85,5.85,0,0,0,.87-1,2.19,2.19,0,0,1,.34-.42c.06,0,.09,0,.09.14a.76.76,0,0,1,0,.21,1.76,1.76,0,0,1-.22.37,9.62,9.62,0,0,1-.9,1,8.15,8.15,0,0,1-1.08.88,5.83,5.83,0,0,1-1.23.6,4,4,0,0,1-1.31.23,2.12,2.12,0,0,1-1.13-.32,2.47,2.47,0,0,1-.84-.83,2.74,2.74,0,0,1-.38-1.19,2.78,2.78,0,0,1,.21-1.37,4.91,4.91,0,0,1,1.2-1.81,7,7,0,0,1,1.62-1.19,4.76,4.76,0,0,1,1.55-.53,1.43,1.43,0,0,1,1,.12,3.84,3.84,0,0,1,.47.44,1.45,1.45,0,0,1,.31.66,3,3,0,0,1,0,1,5.3,5.3,0,0,1-.56,1.47Z"/></g><g class="cls-43"><path d="M115.31,157.54a2.1,2.1,0,0,1-.67.48,5.92,5.92,0,0,1-1.13.44,5.09,5.09,0,0,1-1.07,1.19,7.37,7.37,0,0,1-1.3.84,6.22,6.22,0,0,1-1.32.48,4.65,4.65,0,0,1-1.15.16,2.17,2.17,0,0,1-1.13-.32,2.9,2.9,0,0,1-.88-.83,2.79,2.79,0,0,1-.43-1.19,2.75,2.75,0,0,1,.18-1.37,4.91,4.91,0,0,1,.75-1.3,6,6,0,0,1,1-1,6.17,6.17,0,0,1,1.11-.72,5.88,5.88,0,0,1,1.07-.42,2.85,2.85,0,0,1,.91-.13,1,1,0,0,1,.6.18,1.8,1.8,0,0,0,.19.2l.19.21a2.21,2.21,0,0,1,.94.3,2.1,2.1,0,0,1,.72.67,2.07,2.07,0,0,1,.32,1,2.37,2.37,0,0,1-.22,1.2c0,.09-.07.18-.11.27s-.09.18-.14.26a5.18,5.18,0,0,0,.86-.37,1.81,1.81,0,0,0,.56-.47,1.7,1.7,0,0,1,.35-.43c.06,0,.09,0,.09.14a.91.91,0,0,1,0,.22A1.36,1.36,0,0,1,115.31,157.54ZM109,160.73a.92.92,0,0,0,.54-.18,2.36,2.36,0,0,0,.5-.5,4.85,4.85,0,0,0,.44-.73c.14-.28.28-.58.41-.9a1.33,1.33,0,0,1-.49-.56,2.08,2.08,0,0,1-.2-.76,2.6,2.6,0,0,1,0-.83,3.12,3.12,0,0,1,.29-.79,2.3,2.3,0,0,1,.47-.64,1.42,1.42,0,0,1,.65-.37.74.74,0,0,0-.68.06,2.2,2.2,0,0,0-.63.6,6.46,6.46,0,0,0-.58,1c-.19.4-.37.82-.54,1.29s-.29.81-.41,1.21a6.28,6.28,0,0,0-.22,1.06,1.79,1.79,0,0,0,0,.75A.36.36,0,0,0,109,160.73Zm2.62-5.88c-.12,0-.25.11-.38.34a2.74,2.74,0,0,0-.32.81,3.17,3.17,0,0,0-.09,1,1.55,1.55,0,0,0,.28.86l.11-.28q.21-.62.39-1.11a6.75,6.75,0,0,0,.25-.86,1.21,1.21,0,0,0,0-.55C111.85,154.91,111.76,154.85,111.6,154.85Z"/></g><g class="cls-43"><path class="cls-44" d="M115.31,157.54a2.1,2.1,0,0,1-.67.48,5.92,5.92,0,0,1-1.13.44,5.09,5.09,0,0,1-1.07,1.19,7.37,7.37,0,0,1-1.3.84,6.22,6.22,0,0,1-1.32.48,4.65,4.65,0,0,1-1.15.16,2.17,2.17,0,0,1-1.13-.32,2.9,2.9,0,0,1-.88-.83,2.79,2.79,0,0,1-.43-1.19,2.75,2.75,0,0,1,.18-1.37,4.91,4.91,0,0,1,.75-1.3,6,6,0,0,1,1-1,6.17,6.17,0,0,1,1.11-.72,5.88,5.88,0,0,1,1.07-.42,2.85,2.85,0,0,1,.91-.13,1,1,0,0,1,.6.18,1.8,1.8,0,0,0,.19.2l.19.21a2.21,2.21,0,0,1,.94.3,2.1,2.1,0,0,1,.72.67,2.07,2.07,0,0,1,.32,1,2.37,2.37,0,0,1-.22,1.2c0,.09-.07.18-.11.27s-.09.18-.14.26a5.18,5.18,0,0,0,.86-.37,1.81,1.81,0,0,0,.56-.47,1.7,1.7,0,0,1,.35-.43c.06,0,.09,0,.09.14a.91.91,0,0,1,0,.22A1.36,1.36,0,0,1,115.31,157.54ZM109,160.73a.92.92,0,0,0,.54-.18,2.36,2.36,0,0,0,.5-.5,4.85,4.85,0,0,0,.44-.73c.14-.28.28-.58.41-.9a1.33,1.33,0,0,1-.49-.56,2.08,2.08,0,0,1-.2-.76,2.6,2.6,0,0,1,0-.83,3.12,3.12,0,0,1,.29-.79,2.3,2.3,0,0,1,.47-.64,1.42,1.42,0,0,1,.65-.37.74.74,0,0,0-.68.06,2.2,2.2,0,0,0-.63.6,6.46,6.46,0,0,0-.58,1c-.19.4-.37.82-.54,1.29s-.29.81-.41,1.21a6.28,6.28,0,0,0-.22,1.06,1.79,1.79,0,0,0,0,.75A.36.36,0,0,0,109,160.73Zm2.62-5.88c-.12,0-.25.11-.38.34a2.74,2.74,0,0,0-.32.81,3.17,3.17,0,0,0-.09,1,1.55,1.55,0,0,0,.28.86l.11-.28q.21-.62.39-1.11a6.75,6.75,0,0,0,.25-.86,1.21,1.21,0,0,0,0-.55C111.85,154.91,111.76,154.85,111.6,154.85Z"/></g><g class="cls-43"><path d="M116.18,153.75a3.06,3.06,0,0,1,1.27.05,1,1,0,0,1,.69.58,1.91,1.91,0,0,1,0,1.18,8.14,8.14,0,0,1-.71,1.8q-.39.75-.72,1.29c-.23.36-.4.66-.53.89a1.5,1.5,0,0,0-.21.51c0,.11.06.16.22.16.42,0,.92-.43,1.48-1.28a22.83,22.83,0,0,0,1.87-3.76c.1-.24.18-.46.25-.65l.19-.44a.76.76,0,0,0,0-.11l0-.07,0-.06a5.91,5.91,0,0,1,.63,0,6.86,6.86,0,0,1,.91.12,4.17,4.17,0,0,1,.79.23c.22.09.31.18.27.29l-.14.27c-.08.16-.18.36-.3.62s-.25.54-.39.87-.28.67-.42,1-.27.7-.39,1a8,8,0,0,0-.27,1,1.24,1.24,0,0,0-.05.6c.05.08.15.07.3,0a3,3,0,0,0,.71-.67,11.45,11.45,0,0,0,.86-1.15,1.78,1.78,0,0,1,.35-.42c.06,0,.09,0,.09.14a.57.57,0,0,1-.06.21,1.41,1.41,0,0,1-.22.37c-.28.38-.56.74-.84,1.09a5.84,5.84,0,0,1-.89.9,6.14,6.14,0,0,1-.72.52,3,3,0,0,1-.56.26,1.2,1.2,0,0,1-.43.07,1.61,1.61,0,0,1-.33-.06.84.84,0,0,1-.37-.25,1.43,1.43,0,0,1-.28-.49,2.79,2.79,0,0,1-.14-.71,3.51,3.51,0,0,1,.07-.94,7.93,7.93,0,0,1-1.27,1.66,2,2,0,0,1-1.37.63,1.67,1.67,0,0,1-.94-.25,1.38,1.38,0,0,1-.56-.73,2.31,2.31,0,0,1,0-1.16,4.76,4.76,0,0,1,.58-1.57c.34-.65.61-1.2.82-1.66a10,10,0,0,0,.45-1.12A4.09,4.09,0,0,0,116.18,153.75Z"/></g><g class="cls-43"><path class="cls-44" d="M116.18,153.75a3.06,3.06,0,0,1,1.27.05,1,1,0,0,1,.69.58,1.91,1.91,0,0,1,0,1.18,8.14,8.14,0,0,1-.71,1.8q-.39.75-.72,1.29c-.23.36-.4.66-.53.89a1.5,1.5,0,0,0-.21.51c0,.11.06.16.22.16.42,0,.92-.43,1.48-1.28a22.83,22.83,0,0,0,1.87-3.76c.1-.24.18-.46.25-.65l.19-.44a.76.76,0,0,0,0-.11l0-.07,0-.06a5.91,5.91,0,0,1,.63,0,6.86,6.86,0,0,1,.91.12,4.17,4.17,0,0,1,.79.23c.22.09.31.18.27.29l-.14.27c-.08.16-.18.36-.3.62s-.25.54-.39.87-.28.67-.42,1-.27.7-.39,1a8,8,0,0,0-.27,1,1.24,1.24,0,0,0-.05.6c.05.08.15.07.3,0a3,3,0,0,0,.71-.67,11.45,11.45,0,0,0,.86-1.15,1.78,1.78,0,0,1,.35-.42c.06,0,.09,0,.09.14a.57.57,0,0,1-.06.21,1.41,1.41,0,0,1-.22.37c-.28.38-.56.74-.84,1.09a5.84,5.84,0,0,1-.89.9,6.14,6.14,0,0,1-.72.52,3,3,0,0,1-.56.26,1.2,1.2,0,0,1-.43.07,1.61,1.61,0,0,1-.33-.06.84.84,0,0,1-.37-.25,1.43,1.43,0,0,1-.28-.49,2.79,2.79,0,0,1-.14-.71,3.51,3.51,0,0,1,.07-.94,7.93,7.93,0,0,1-1.27,1.66,2,2,0,0,1-1.37.63,1.67,1.67,0,0,1-.94-.25,1.38,1.38,0,0,1-.56-.73,2.31,2.31,0,0,1,0-1.16,4.76,4.76,0,0,1,.58-1.57c.34-.65.61-1.2.82-1.66a10,10,0,0,0,.45-1.12A4.09,4.09,0,0,0,116.18,153.75Z"/></g><g class="cls-43"><path d="M127.75,158.08a2.2,2.2,0,0,1-.09.61,4.24,4.24,0,0,0,.67-.27,1.18,1.18,0,0,0,.44-.33,3.82,3.82,0,0,1,.36-.42c.05,0,.07,0,.07.14a.68.68,0,0,1,0,.21,1.22,1.22,0,0,1-.23.36,1.3,1.3,0,0,1-.55.39,7.12,7.12,0,0,1-.85.27,3.15,3.15,0,0,1-1.08,1.23,6.39,6.39,0,0,1-1.55.81,5.77,5.77,0,0,1-1.51.34,1.47,1.47,0,0,1-1-.15.49.49,0,0,1-.19-.54,1.53,1.53,0,0,1,.41-.65,3.53,3.53,0,0,1,.86-.62,4.21,4.21,0,0,1,1.18-.41,3.11,3.11,0,0,0,0-1.32,6.49,6.49,0,0,0-.39-1.25c-.26.32-.52.63-.77.91a7.88,7.88,0,0,0-.63.82,2,2,0,0,1-.27.35l-.18.14c-.15.08-.22.08-.21,0a1.51,1.51,0,0,1,.26-.46,12.22,12.22,0,0,0,.82-1.32,11.3,11.3,0,0,0,.57-1.26c-.27-.45-.53-.84-.77-1.17a2.53,2.53,0,0,1-.42-.71c0-.12,0-.22.18-.31a2.54,2.54,0,0,1,.6-.22,7.59,7.59,0,0,1,.82-.15l.83-.08.66,0h.26a2.1,2.1,0,0,1-.13,1,5.06,5.06,0,0,1-.5,1l.81.73a10.62,10.62,0,0,1,.74.78,4.24,4.24,0,0,1,.55.8A1.54,1.54,0,0,1,127.75,158.08Zm-4.15,2.44a.61.61,0,0,0,.25.16c.07,0,.14,0,.21-.07a1.3,1.3,0,0,0,.22-.39c.08-.2.18-.47.3-.83,0,0,0,0,0,0s0,0,0,0a1.78,1.78,0,0,0-.64.25,1.25,1.25,0,0,0-.37.35.59.59,0,0,0-.12.34A.3.3,0,0,0,123.6,160.52Z"/><path d="M133.88,157.61a2.29,2.29,0,0,1-.58,0,4.72,4.72,0,0,1-.75-.14,2.71,2.71,0,0,1-.63-.22c-.17-.09-.24-.19-.2-.29a1.47,1.47,0,0,1,.18-.2l.4-.44c.16-.16.32-.35.5-.55a6.7,6.7,0,0,0,.46-.55,2.45,2.45,0,0,0,.3-.43c.07-.13.07-.2,0-.23a.7.7,0,0,0-.61.09,2.71,2.71,0,0,0-.67.62,6.53,6.53,0,0,0-.65,1,7.93,7.93,0,0,0-.52,1.19,9.47,9.47,0,0,0-.37,1.15,4.22,4.22,0,0,0-.13.91,1.28,1.28,0,0,0,.14.63.53.53,0,0,0,.43.28,2.08,2.08,0,0,0,.82-.09,4.8,4.8,0,0,0,1-.44,6.47,6.47,0,0,0,1-.74,5.41,5.41,0,0,0,.86-1,2.08,2.08,0,0,1,.35-.42c.06,0,.09,0,.09.14a.57.57,0,0,1-.06.21,1.32,1.32,0,0,1-.21.37,8.72,8.72,0,0,1-.91,1,7,7,0,0,1-1.08.88,5.83,5.83,0,0,1-1.23.6,3.92,3.92,0,0,1-1.3.23,2.18,2.18,0,0,1-1.14-.32,2.66,2.66,0,0,1-.84-.83,2.74,2.74,0,0,1-.38-1.19,3,3,0,0,1,.21-1.37,5,5,0,0,1,1.2-1.81,7.46,7.46,0,0,1,1.62-1.19,4.73,4.73,0,0,1,1.56-.53,1.44,1.44,0,0,1,1,.12,3.78,3.78,0,0,1,.46.44,1.27,1.27,0,0,1,.31.66,2.72,2.72,0,0,1,0,1,5.37,5.37,0,0,1-.57,1.47Z"/></g><g class="cls-43"><path class="cls-44" d="M127.75,158.08a2.2,2.2,0,0,1-.09.61,4.24,4.24,0,0,0,.67-.27,1.18,1.18,0,0,0,.44-.33,3.82,3.82,0,0,1,.36-.42c.05,0,.07,0,.07.14a.68.68,0,0,1,0,.21,1.22,1.22,0,0,1-.23.36,1.3,1.3,0,0,1-.55.39,7.12,7.12,0,0,1-.85.27,3.15,3.15,0,0,1-1.08,1.23,6.39,6.39,0,0,1-1.55.81,5.77,5.77,0,0,1-1.51.34,1.47,1.47,0,0,1-1-.15.49.49,0,0,1-.19-.54,1.53,1.53,0,0,1,.41-.65,3.53,3.53,0,0,1,.86-.62,4.21,4.21,0,0,1,1.18-.41,3.11,3.11,0,0,0,0-1.32,6.49,6.49,0,0,0-.39-1.25c-.26.32-.52.63-.77.91a7.88,7.88,0,0,0-.63.82,2,2,0,0,1-.27.35l-.18.14c-.15.08-.22.08-.21,0a1.51,1.51,0,0,1,.26-.46,12.22,12.22,0,0,0,.82-1.32,11.3,11.3,0,0,0,.57-1.26c-.27-.45-.53-.84-.77-1.17a2.53,2.53,0,0,1-.42-.71c0-.12,0-.22.18-.31a2.54,2.54,0,0,1,.6-.22,7.59,7.59,0,0,1,.82-.15l.83-.08.66,0h.26a2.1,2.1,0,0,1-.13,1,5.06,5.06,0,0,1-.5,1l.81.73a10.62,10.62,0,0,1,.74.78,4.24,4.24,0,0,1,.55.8A1.54,1.54,0,0,1,127.75,158.08Zm-4.15,2.44a.61.61,0,0,0,.25.16c.07,0,.14,0,.21-.07a1.3,1.3,0,0,0,.22-.39c.08-.2.18-.47.3-.83,0,0,0,0,0,0s0,0,0,0a1.78,1.78,0,0,0-.64.25,1.25,1.25,0,0,0-.37.35.59.59,0,0,0-.12.34A.3.3,0,0,0,123.6,160.52Z"/><path class="cls-44" d="M133.88,157.61a2.29,2.29,0,0,1-.58,0,4.72,4.72,0,0,1-.75-.14,2.71,2.71,0,0,1-.63-.22c-.17-.09-.24-.19-.2-.29a1.47,1.47,0,0,1,.18-.2l.4-.44c.16-.16.32-.35.5-.55a6.7,6.7,0,0,0,.46-.55,2.45,2.45,0,0,0,.3-.43c.07-.13.07-.2,0-.23a.7.7,0,0,0-.61.09,2.71,2.71,0,0,0-.67.62,6.53,6.53,0,0,0-.65,1,7.93,7.93,0,0,0-.52,1.19,9.47,9.47,0,0,0-.37,1.15,4.22,4.22,0,0,0-.13.91,1.28,1.28,0,0,0,.14.63.53.53,0,0,0,.43.28,2.08,2.08,0,0,0,.82-.09,4.8,4.8,0,0,0,1-.44,6.47,6.47,0,0,0,1-.74,5.41,5.41,0,0,0,.86-1,2.08,2.08,0,0,1,.35-.42c.06,0,.09,0,.09.14a.57.57,0,0,1-.06.21,1.32,1.32,0,0,1-.21.37,8.72,8.72,0,0,1-.91,1,7,7,0,0,1-1.08.88,5.83,5.83,0,0,1-1.23.6,3.92,3.92,0,0,1-1.3.23,2.18,2.18,0,0,1-1.14-.32,2.66,2.66,0,0,1-.84-.83,2.74,2.74,0,0,1-.38-1.19,3,3,0,0,1,.21-1.37,5,5,0,0,1,1.2-1.81,7.46,7.46,0,0,1,1.62-1.19,4.73,4.73,0,0,1,1.56-.53,1.44,1.44,0,0,1,1,.12,3.78,3.78,0,0,1,.46.44,1.27,1.27,0,0,1,.31.66,2.72,2.72,0,0,1,0,1,5.37,5.37,0,0,1-.57,1.47Z"/></g><g class="cls-43"><path d="M143.36,157.54a2.22,2.22,0,0,1-.67.48,6.19,6.19,0,0,1-1.13.44,5.36,5.36,0,0,1-1.08,1.19,7,7,0,0,1-1.29.84,6.22,6.22,0,0,1-1.32.48,4.73,4.73,0,0,1-1.16.16,2.2,2.2,0,0,1-1.13-.32,2.76,2.76,0,0,1-.87-.83,2.8,2.8,0,0,1-.44-1.19,2.65,2.65,0,0,1,.19-1.37,5.17,5.17,0,0,1,.74-1.3,6.4,6.4,0,0,1,1-1,6.17,6.17,0,0,1,1.11-.72,6,6,0,0,1,1.08-.42,2.76,2.76,0,0,1,.9-.13,1,1,0,0,1,.6.18l.19.2.19.21a2.25,2.25,0,0,1,1,.3,2.07,2.07,0,0,1,.71.67,2.19,2.19,0,0,1,.33,1,2.61,2.61,0,0,1-.22,1.2l-.12.27a2.15,2.15,0,0,1-.14.26,4.54,4.54,0,0,0,.86-.37,1.7,1.7,0,0,0,.56-.47,2,2,0,0,1,.35-.43c.06,0,.09,0,.09.14a.79.79,0,0,1,0,.22A1.36,1.36,0,0,1,143.36,157.54ZM137,160.73a.93.93,0,0,0,.55-.18,2.33,2.33,0,0,0,.49-.5,4.16,4.16,0,0,0,.45-.73c.14-.28.27-.58.41-.9a1.35,1.35,0,0,1-.5-.56,2.57,2.57,0,0,1-.2-.76,2.93,2.93,0,0,1,.06-.83,3.1,3.1,0,0,1,.28-.79,2.79,2.79,0,0,1,.47-.64,1.47,1.47,0,0,1,.65-.37.73.73,0,0,0-.67.06,2.2,2.2,0,0,0-.63.6,5.74,5.74,0,0,0-.58,1c-.19.4-.37.82-.54,1.29a12.33,12.33,0,0,0-.41,1.21,6.39,6.39,0,0,0-.23,1.06,2,2,0,0,0,0,.75A.35.35,0,0,0,137,160.73Zm2.62-5.88c-.12,0-.24.11-.38.34a3,3,0,0,0-.32.81,3.17,3.17,0,0,0-.09,1,1.55,1.55,0,0,0,.28.86l.11-.28.4-1.11a8.93,8.93,0,0,0,.25-.86,1.37,1.37,0,0,0,0-.55C139.9,154.91,139.8,154.85,139.64,154.85Z"/></g><g class="cls-43"><path class="cls-44" d="M143.36,157.54a2.22,2.22,0,0,1-.67.48,6.19,6.19,0,0,1-1.13.44,5.36,5.36,0,0,1-1.08,1.19,7,7,0,0,1-1.29.84,6.22,6.22,0,0,1-1.32.48,4.73,4.73,0,0,1-1.16.16,2.2,2.2,0,0,1-1.13-.32,2.76,2.76,0,0,1-.87-.83,2.8,2.8,0,0,1-.44-1.19,2.65,2.65,0,0,1,.19-1.37,5.17,5.17,0,0,1,.74-1.3,6.4,6.4,0,0,1,1-1,6.17,6.17,0,0,1,1.11-.72,6,6,0,0,1,1.08-.42,2.76,2.76,0,0,1,.9-.13,1,1,0,0,1,.6.18l.19.2.19.21a2.25,2.25,0,0,1,1,.3,2.07,2.07,0,0,1,.71.67,2.19,2.19,0,0,1,.33,1,2.61,2.61,0,0,1-.22,1.2l-.12.27a2.15,2.15,0,0,1-.14.26,4.54,4.54,0,0,0,.86-.37,1.7,1.7,0,0,0,.56-.47,2,2,0,0,1,.35-.43c.06,0,.09,0,.09.14a.79.79,0,0,1,0,.22A1.36,1.36,0,0,1,143.36,157.54ZM137,160.73a.93.93,0,0,0,.55-.18,2.33,2.33,0,0,0,.49-.5,4.16,4.16,0,0,0,.45-.73c.14-.28.27-.58.41-.9a1.35,1.35,0,0,1-.5-.56,2.57,2.57,0,0,1-.2-.76,2.93,2.93,0,0,1,.06-.83,3.1,3.1,0,0,1,.28-.79,2.79,2.79,0,0,1,.47-.64,1.47,1.47,0,0,1,.65-.37.73.73,0,0,0-.67.06,2.2,2.2,0,0,0-.63.6,5.74,5.74,0,0,0-.58,1c-.19.4-.37.82-.54,1.29a12.33,12.33,0,0,0-.41,1.21,6.39,6.39,0,0,0-.23,1.06,2,2,0,0,0,0,.75A.35.35,0,0,0,137,160.73Zm2.62-5.88c-.12,0-.24.11-.38.34a3,3,0,0,0-.32.81,3.17,3.17,0,0,0-.09,1,1.55,1.55,0,0,0,.28.86l.11-.28.4-1.11a8.93,8.93,0,0,0,.25-.86,1.37,1.37,0,0,0,0-.55C139.9,154.91,139.8,154.85,139.64,154.85Z"/></g><g class="cls-43"><path d="M144.24,153.75a3,3,0,0,1,1.26.05,1,1,0,0,1,.69.58,1.91,1.91,0,0,1,0,1.18,8.14,8.14,0,0,1-.71,1.8,14.28,14.28,0,0,1-.72,1.29c-.22.36-.4.66-.53.89a2.09,2.09,0,0,0-.21.51c0,.11.06.16.22.16.43,0,.92-.43,1.49-1.28a23.77,23.77,0,0,0,1.86-3.76c.1-.24.19-.46.26-.65s.13-.33.18-.44l.05-.11a.14.14,0,0,1,0-.07l0-.06a6.17,6.17,0,0,1,.64,0,7.09,7.09,0,0,1,.91.12,4.28,4.28,0,0,1,.78.23c.22.09.31.18.27.29l-.13.27c-.08.16-.18.36-.3.62s-.25.54-.39.87-.28.67-.42,1-.27.7-.39,1a6.66,6.66,0,0,0-.28,1c-.07.32-.09.52,0,.6s.14.07.3,0a3.47,3.47,0,0,0,.71-.67,13.29,13.29,0,0,0,.85-1.15,2.08,2.08,0,0,1,.35-.42c.06,0,.09,0,.09.14a.76.76,0,0,1,0,.21,1.76,1.76,0,0,1-.22.37c-.28.38-.56.74-.85,1.09a5.8,5.8,0,0,1-.88.9,5.42,5.42,0,0,1-.73.52,2.72,2.72,0,0,1-.56.26,1.15,1.15,0,0,1-.42.07,1.5,1.5,0,0,1-.33-.06.74.74,0,0,1-.37-.25,1.45,1.45,0,0,1-.29-.49,2.43,2.43,0,0,1-.13-.71,3.92,3.92,0,0,1,.06-.94,7.61,7.61,0,0,1-1.27,1.66,2,2,0,0,1-1.37.63,1.69,1.69,0,0,1-.94-.25,1.36,1.36,0,0,1-.55-.73,2.41,2.41,0,0,1-.06-1.16,5,5,0,0,1,.59-1.57c.33-.65.61-1.2.81-1.66s.36-.83.46-1.12A6,6,0,0,0,144.24,153.75Z"/></g><g class="cls-43"><path class="cls-44" d="M144.24,153.75a3,3,0,0,1,1.26.05,1,1,0,0,1,.69.58,1.91,1.91,0,0,1,0,1.18,8.14,8.14,0,0,1-.71,1.8,14.28,14.28,0,0,1-.72,1.29c-.22.36-.4.66-.53.89a2.09,2.09,0,0,0-.21.51c0,.11.06.16.22.16.43,0,.92-.43,1.49-1.28a23.77,23.77,0,0,0,1.86-3.76c.1-.24.19-.46.26-.65s.13-.33.18-.44l.05-.11a.14.14,0,0,1,0-.07l0-.06a6.17,6.17,0,0,1,.64,0,7.09,7.09,0,0,1,.91.12,4.28,4.28,0,0,1,.78.23c.22.09.31.18.27.29l-.13.27c-.08.16-.18.36-.3.62s-.25.54-.39.87-.28.67-.42,1-.27.7-.39,1a6.66,6.66,0,0,0-.28,1c-.07.32-.09.52,0,.6s.14.07.3,0a3.47,3.47,0,0,0,.71-.67,13.29,13.29,0,0,0,.85-1.15,2.08,2.08,0,0,1,.35-.42c.06,0,.09,0,.09.14a.76.76,0,0,1,0,.21,1.76,1.76,0,0,1-.22.37c-.28.38-.56.74-.85,1.09a5.8,5.8,0,0,1-.88.9,5.42,5.42,0,0,1-.73.52,2.72,2.72,0,0,1-.56.26,1.15,1.15,0,0,1-.42.07,1.5,1.5,0,0,1-.33-.06.74.74,0,0,1-.37-.25,1.45,1.45,0,0,1-.29-.49,2.43,2.43,0,0,1-.13-.71,3.92,3.92,0,0,1,.06-.94,7.61,7.61,0,0,1-1.27,1.66,2,2,0,0,1-1.37.63,1.69,1.69,0,0,1-.94-.25,1.36,1.36,0,0,1-.55-.73,2.41,2.41,0,0,1-.06-1.16,5,5,0,0,1,.59-1.57c.33-.65.61-1.2.81-1.66s.36-.83.46-1.12A6,6,0,0,0,144.24,153.75Z"/></g><g class="cls-43"><path d="M155.79,158.08a2.2,2.2,0,0,1-.09.61,4.38,4.38,0,0,0,.68-.27,1.14,1.14,0,0,0,.43-.33,4.73,4.73,0,0,1,.37-.42s.07,0,.07.14a.76.76,0,0,1-.05.21,1.15,1.15,0,0,1-.22.36,1.33,1.33,0,0,1-.56.39,6.58,6.58,0,0,1-.85.27,3.15,3.15,0,0,1-1.08,1.23,6.21,6.21,0,0,1-1.55.81,5.69,5.69,0,0,1-1.51.34,1.43,1.43,0,0,1-1-.15.48.48,0,0,1-.19-.54,1.44,1.44,0,0,1,.41-.65,3.46,3.46,0,0,1,.85-.62,4.28,4.28,0,0,1,1.19-.41,3.1,3.1,0,0,0,0-1.32,5.84,5.84,0,0,0-.38-1.25l-.77.91a7.88,7.88,0,0,0-.63.82,1.58,1.58,0,0,1-.28.35,1.12,1.12,0,0,1-.18.14c-.14.08-.21.08-.21,0a2,2,0,0,1,.27-.46,14,14,0,0,0,.82-1.32,9.6,9.6,0,0,0,.56-1.26c-.27-.45-.52-.84-.76-1.17a2.11,2.11,0,0,1-.42-.71c0-.12,0-.22.17-.31a2.54,2.54,0,0,1,.6-.22,8.07,8.07,0,0,1,.82-.15l.84-.08.65,0h.27a2.37,2.37,0,0,1-.13,1,4.63,4.63,0,0,1-.51,1c.27.23.54.47.81.73s.52.52.75.78a4.69,4.69,0,0,1,.54.8A1.54,1.54,0,0,1,155.79,158.08Zm-4.15,2.44a.63.63,0,0,0,.26.16c.07,0,.14,0,.21-.07a1.61,1.61,0,0,0,.21-.39c.08-.2.18-.47.3-.83,0,0,0,0,0,0s0,0,0,0a1.81,1.81,0,0,0-.63.25,1.31,1.31,0,0,0-.38.35.59.59,0,0,0-.12.34A.32.32,0,0,0,151.64,160.52Z"/></g><g class="cls-43"><path class="cls-44" d="M155.79,158.08a2.2,2.2,0,0,1-.09.61,4.38,4.38,0,0,0,.68-.27,1.14,1.14,0,0,0,.43-.33,4.73,4.73,0,0,1,.37-.42s.07,0,.07.14a.76.76,0,0,1-.05.21,1.15,1.15,0,0,1-.22.36,1.33,1.33,0,0,1-.56.39,6.58,6.58,0,0,1-.85.27,3.15,3.15,0,0,1-1.08,1.23,6.21,6.21,0,0,1-1.55.81,5.69,5.69,0,0,1-1.51.34,1.43,1.43,0,0,1-1-.15.48.48,0,0,1-.19-.54,1.44,1.44,0,0,1,.41-.65,3.46,3.46,0,0,1,.85-.62,4.28,4.28,0,0,1,1.19-.41,3.1,3.1,0,0,0,0-1.32,5.84,5.84,0,0,0-.38-1.25l-.77.91a7.88,7.88,0,0,0-.63.82,1.58,1.58,0,0,1-.28.35,1.12,1.12,0,0,1-.18.14c-.14.08-.21.08-.21,0a2,2,0,0,1,.27-.46,14,14,0,0,0,.82-1.32,9.6,9.6,0,0,0,.56-1.26c-.27-.45-.52-.84-.76-1.17a2.11,2.11,0,0,1-.42-.71c0-.12,0-.22.17-.31a2.54,2.54,0,0,1,.6-.22,8.07,8.07,0,0,1,.82-.15l.84-.08.65,0h.27a2.37,2.37,0,0,1-.13,1,4.63,4.63,0,0,1-.51,1c.27.23.54.47.81.73s.52.52.75.78a4.69,4.69,0,0,1,.54.8A1.54,1.54,0,0,1,155.79,158.08Zm-4.15,2.44a.63.63,0,0,0,.26.16c.07,0,.14,0,.21-.07a1.61,1.61,0,0,0,.21-.39c.08-.2.18-.47.3-.83,0,0,0,0,0,0s0,0,0,0a1.81,1.81,0,0,0-.63.25,1.31,1.31,0,0,0-.38.35.59.59,0,0,0-.12.34A.32.32,0,0,0,151.64,160.52Z"/></g></g><rect class="cls-45" width="250" height="250"/></svg>