<svg id="Layer_1" data-name="Layer 1" xmlns="http://www.w3.org/2000/svg" viewBox="0 0 250 250"><defs><style>.cls-1{fill:#a53424;}.cls-2{fill:#beab79;}.cls-3{fill:#8c7b51;}.cls-4{fill:#9c8d63;}.cls-5{fill:#f9eedb;}.cls-6{fill:#e5dbbd;}.cls-7{fill:#d2c39a;}.cls-8{fill:#d0bc82;}.cls-9{fill:#e0ce95;}.cls-10{fill:#ab4a34;}.cls-11{fill:#e2d298;}.cls-12{fill:#e6db9f;}.cls-13{fill:#b45a40;}.cls-14{fill:#d3ac7d;}.cls-15{fill:#e3d69b;}.cls-16{fill:#d0bd84;}.cls-17{fill:#9f281b;}.cls-18{fill:#a2291d;}.cls-19{fill:#d7b380;}.cls-20{fill:#e4d79c;}.cls-21{fill:#a32c1e;}.cls-22{fill:#e4d99e;}.cls-23{fill:#c58863;}.cls-24{fill:#e3d89d;}.cls-25{fill:#e4d89d;}.cls-26{fill:#e4d89c;}.cls-27{fill:#e3d59a;}.cls-28{fill:#cfa073;}.cls-29{fill:#a0281c;}.cls-30{fill:#a22b1e;}.cls-31{fill:#a1271b;}.cls-32{fill:#a0261a;}.cls-33{fill:#e5db9f;}.cls-34{fill:#8c2319;}.cls-35{fill:#992c1f;}.cls-36{fill:#8b2319;}.cls-37{fill:#821d16;}.cls-38{fill:#811d16;}.cls-39{fill:#c68d66;}.cls-40{fill:#882118;}.cls-41{fill:#8f2f25;}.cls-42{fill:#8b7c51;}.cls-43{fill:#fdf5e2;}.cls-44{fill:#e0ce96;}.cls-45{fill:#d8b986;}.cls-46{fill:#e2d398;}.cls-47{fill:#90261b;}.cls-48{fill:#8d1e16;}.cls-49{fill:#891912;}.cls-50{fill:#95281c;}.cls-51{fill:#892317;}.cls-52{fill:#a63424;}.cls-53{fill:#a0271a;}.cls-54{fill:#a22d1e;}.cls-55{fill:#e5d99e;}.cls-56{fill:#a32f20;}.cls-57{fill:#d6b382;}.cls-58{fill:#b1533b;}.cls-59{fill:#e0cd95;}.cls-60{fill:#a12a1c;}.cls-61{fill:#e3d59b;}.cls-62{fill:#a32e20;}.cls-63{fill:#b66045;}.cls-64{fill:#a32b1e;}.cls-65{fill:#a1261a;}.cls-66{fill:#9f2418;}.cls-67{fill:#8b2b1f;}.cls-68{fill:#e1d59a;}.cls-69{fill:#e6dea2;}.cls-70{isolation:isolate;}.cls-71{fill:none;}</style></defs><title>products</title><path class="cls-1" d="M67.56,239.06V182.91a1,1,0,0,1,.3-.2,32.71,32.71,0,0,1,4-.06.84.84,0,0,1,.68.26,2.44,2.44,0,0,1,.22,1.36v42.25c0,.6.23,1.37-.67,1.64a13.22,13.22,0,0,1-3.07-1.1c-.84-.33-.92-.27-1,.57v10.22a1.27,1.27,0,0,0,.17.71c.26.31.61.23.92.23h3.22c4.29-.06,8.57,0,12.84,0h5.12c4.5-.06,9,0,13.5,0h21.66a2.89,2.89,0,0,1,.72,0c1.55,0,3.1,0,4.65,0s3,0,4.5,0h13.31a44.89,44.89,0,0,1,4.64.06,1.06,1.06,0,0,1,.31.21.28.28,0,0,1-.13.31,1.71,1.71,0,0,1-.92.18h-9.34c-5.8.06-11.58,0-17.36,0H115.59c-5.58.08-11.14-.05-16.71,0H86.08c-5.71,0-11.42.06-17.13,0C68.5,239.53,67.81,239.79,67.56,239.06Z"/><path class="cls-2" d="M115.62,239.26h27.6a1.54,1.54,0,0,1,.31,1.23v8.24a1.7,1.7,0,0,1-.29,1.24H125.58c-.56-.35-.47-.91-.48-1.44v-7.68c0-1.06,0-1.11-1.1-1.11h-6.76a4.08,4.08,0,0,1-1.3-.09C115.77,239.57,115.61,239.47,115.62,239.26Z"/><path class="cls-3" d="M172.53,250H154.89c-.45-.25-.48-.7-.49-1.14v-8.63a1.63,1.63,0,0,1,.26-1,1.77,1.77,0,0,1,1.17-.22h15.78a1.88,1.88,0,0,1,1.09.19,1.41,1.41,0,0,1,.15.92v8.45A1.9,1.9,0,0,1,172.53,250Z"/><path class="cls-2" d="M67.53,63.81H64.78c-.68,0-.83-.23-.83-.86V53.13c.07-.05.12-.13.23-.13,4.11,0,8.25-.06,12.32,0,.4.41.3.91.31,1.43v7.49c0,1.29.06,1.34,1.31,1.34h6.75c.45,0,.92-.1,1.26.41a.71.71,0,0,1-.64.33H68.73a2.4,2.4,0,0,1-.92-.11A.9.9,0,0,1,67.53,63.81Z"/><path class="cls-2" d="M67.56,239.06c.31.31.7.18,1.07.18H86.14a.48.48,0,0,1,0,.17.63.63,0,0,1-.28.2c-2.27.21-4.58.06-6.83.09s-2.19,0-2.19,2.15v6.75a1.43,1.43,0,0,1-.48,1.34H64.73c-.58,0-.75-.21-.74-.77v-9.28c0-.59.2-.74.76-.75A9.14,9.14,0,0,0,67.56,239.06Z"/><path class="cls-4" d="M172.53,250v-9.51a2,2,0,0,1,.2-1.17.36.36,0,0,1,.28-.11,11,11,0,0,0,2.75-.1,2.1,2.1,0,0,1,.79,0,5.62,5.62,0,0,0,2.58-.06c.82,0,1-.5,1-1.25V189.68c0-.82.07-1.62,0-2.44-.05-1,0-2.09,0-3.13a1.2,1.2,0,0,1,.31-1c.29.33.14.72.14,1.08V238c0,1.22,0,1.22,1.17,1.22,2.36,0,2.36,0,2.36,2.33V249c0,.69-.09,1-.92,1C179.64,249.94,176.1,250,172.53,250Z"/><path class="cls-4" d="M184,63.8h-2.63c-.63,0-.84.21-.77.81q0,.33,0,.66V117.2c0,.36.14.76-.14,1.09l-.14-.13a3.72,3.72,0,0,1-.19-1.75V65.75a3.47,3.47,0,0,0-.15-1.57c-.28-.34-.67-.29-1-.29H173.6c-1.1,0-1.33-.22-1.35-1.32V54.05a1.33,1.33,0,0,1,.27-1c1.63-.16,3.25,0,4.87-.07h6c.43,0,.7,0,.7.59V63.69A.38.38,0,0,1,184,63.8Z"/><path class="cls-4" d="M154.69,239.27v9.51a2,2,0,0,0,.18,1.17H143.23V239.28l10.35-.06A.81.81,0,0,1,154.69,239.27Z"/><path class="cls-5" d="M76.56,53.12c-4.19,0-8.38-.11-12.56,0,.18-.38.54-.24.83-.24,10.16,0,20.33-.09,30.49,0,3.31,0,6.63.23,9.93.08,3.52-.16,7,0,10.57-.12a.31.31,0,0,1-.16.3,2.82,2.82,0,0,1-1.38.17h-6.64c-1.22,0-1.29.08-1.29,1.26V62.2a2.29,2.29,0,0,1-.27,1.45,1.63,1.63,0,0,1-1,.2H96.84a1.7,1.7,0,0,1-1-.19,2.07,2.07,0,0,1-.29-1.43V54.89c0-1.55,0-1.55-1.52-1.56H86.27c-2.9.05-5.8,0-8.71,0A1.52,1.52,0,0,1,76.56,53.12Z"/><path class="cls-6" d="M115.62,239.26l.19.17a1.74,1.74,0,0,1,.31,1.25v8a1.71,1.71,0,0,1-.31,1.24h-9.76a1.82,1.82,0,0,1-.3-1.34v-7.48a1.74,1.74,0,0,0-.24-1.26,1.56,1.56,0,0,0-1.08-.16h-8a1.37,1.37,0,0,1-.34-.07l-.14-.07a.23.23,0,0,1-.08-.3Z"/><path class="cls-1" d="M180.42,178.06V179a1.84,1.84,0,0,1-1.35.26H69.73a9.44,9.44,0,0,0-1.84.06.53.53,0,0,1-.35,0v-1.44a.56.56,0,0,1,.35-.11H178.72C179.28,177.75,179.89,177.6,180.42,178.06Z"/><path class="cls-5" d="M95.91,239.47h.19a30.23,30.23,0,0,0,4.36.08,51,51,0,0,0,5.39-.08c.32.26.19.64.19,1V250H95.91a1.71,1.71,0,0,1-.31-1.24v-8A1.54,1.54,0,0,1,95.91,239.47Z"/><path class="cls-7" d="M76.37,250a1.8,1.8,0,0,0,.19-.91v-9c0-.56.12-.67.64-.66h9c.49.24.47.71.48,1.13v8.32a1.49,1.49,0,0,1-.3,1.06Z"/><path class="cls-7" d="M115.81,250V239.43h8.9c.53,0,.75,0,.72.73-.09,3.07,0,6.13,0,9.17a3.32,3.32,0,0,0,.16.62Z"/><path class="cls-6" d="M86.32,249.94v-9.42a1.91,1.91,0,0,0-.18-1.05h0a5.19,5.19,0,0,1,1.84-.09c2.63,0,5.27-.1,7.9.07h0V250Z"/><path class="cls-1" d="M180.44,183.09l-.05,4.16a12.55,12.55,0,0,1-1.26,3.4c-.8,1.79-1.71,3.53-2.62,5.27-.16.3-.25.92-.92.57a2.3,2.3,0,0,1-.18-1.1V183.47a1.5,1.5,0,0,1,.08-.55,1.27,1.27,0,0,1,1-.24,21.22,21.22,0,0,1,3.82.12l.13.13Z"/><path class="cls-8" d="M180.55,123.55h-.13l-.11-.08a.66.66,0,0,1-.11-.24,3.27,3.27,0,0,0-.13-.76.54.54,0,0,0-.24-.16c-3.21-.06-6.42,0-9.61,0a8.18,8.18,0,0,1-1.4,0,1.11,1.11,0,0,1-.29-.14,1.19,1.19,0,0,1-.3-.37c-.36-1.06-1.12-2-1.2-3.13a.63.63,0,0,1,.3-.16c4.1-.13,8.2,0,12.29-.06a1.15,1.15,0,0,1,.79.27A40.89,40.89,0,0,1,180.55,123.55Z"/><path class="cls-9" d="M67.75,177.85h-.18v-.21a.39.39,0,0,1,.18-.18H179.3c.37,0,.91-.27,1.12.33-.27.23-.59.12-.91.12H68.6A2,2,0,0,1,67.75,177.85Z"/><path class="cls-10" d="M67.53,63.81h.21A1.35,1.35,0,0,1,68,64.87c0,5.95,0,11.91,0,17.87v12.2c.06,6.11,0,12.24,0,18.33v3.56c0,1,.12,1.07,1.08,1.1s2.06,0,3.09,0H179.54a1.13,1.13,0,0,1,.83.25h.07v.19a1,1,0,0,1-.63.09c-8.25-.13-16.45.2-24.67.19q-42.91,0-85.82,0c-.57,0-1.2.19-1.7-.28V65A7.34,7.34,0,0,1,67.53,63.81Z"/><path class="cls-11" d="M67.74,177.45l-.18.18V123.56a1,1,0,0,1,.37-.08h99.69c.58,0,1.2-.18,1.71.27-.35.32-.78.17-1.17.17H69c-1.3,0-1.3,0-1.3,1.33Q67.73,151.35,67.74,177.45Z"/><path class="cls-12" d="M67.58,179.29l.19-.1a.79.79,0,0,1,.17.31,2.41,2.41,0,0,1,.07.37c.13,2.48-.44,2.35,2.41,2.35H177.94c2.45,0,2.13.11,2.19-2.09v-.19a1,1,0,0,1,.07-.35.53.53,0,0,1,.17-.31h.19a13.78,13.78,0,0,1-.14,3.57h0a23.22,23.22,0,0,0-4.93,0c-.43,0-.86.1-1.3.1H73.78c-1.71,0-3.43-.14-5.14-.14a2.38,2.38,0,0,0-.92.06.25.25,0,0,1-.15.05C67.57,181.72,67.58,180.49,67.58,179.29Z"/><path class="cls-13" d="M67.75,123.58l-.18,0v-1.46a1,1,0,0,1,.32-.22,4.7,4.7,0,0,1,1.3-.07H167a2.62,2.62,0,0,1,1.56.22h10.88c.31,0,.7-.17.92.2a1.86,1.86,0,0,1-1.34.26H69.26a2.59,2.59,0,0,0-.92.07.72.72,0,0,0-.39.66,1.34,1.34,0,0,1-.09.26Z"/><path class="cls-14" d="M67.59,118.48H180.42v.19H167.08c-.47.39-1,.26-1.54.26H69.2c-.55,0-1.14.15-1.63-.28Z"/><path class="cls-15" d="M67.57,118.64h99.51v.19a1.27,1.27,0,0,1-.92.29H70.38c-2.27,0-2.27,0-2.37,2.2a1.63,1.63,0,0,1-.08.37,1.21,1.21,0,0,1-.2.3.38.38,0,0,1-.15,0C67.58,120.93,67.58,119.79,67.57,118.64Z"/><path class="cls-6" d="M115.81,53.09a.49.49,0,0,1,0-.17h67.42c.72,0,1,.19,1,.92v9.1c0,.29.15.64-.19.86V53.87c0-.63-.2-.8-.81-.79H172.51a1.44,1.44,0,0,1-1.06.29c-5.59,0-11.18.05-16.76,0-3.83,0-7.66.05-11.48,0q-8.91.06-17.81,0c-2.86.05-5.73,0-8.59,0a1.69,1.69,0,0,1-.91-.18Z"/><path class="cls-16" d="M180.42,123.73V159h-.11c-.58-2.37-1.16-4.74-1.76-7.1a221.46,221.46,0,0,0-8.35-26.27,6.73,6.73,0,0,1-.68-1.93c.32-.35.74-.27,1.13-.27h8.61A1.51,1.51,0,0,1,180.42,123.73Z"/><path class="cls-1" d="M110.2,162.47a12.33,12.33,0,0,1,1.21-6.41c1-1.84,2.35-3.1,4.53-3.15a5.47,5.47,0,0,1,5.14,3,10.25,10.25,0,0,1,1.25,4.1,23.88,23.88,0,0,1-.33,7.91c-.66,2.9-2.52,4.71-5.07,4.93a5.26,5.26,0,0,1-4.86-2.46,11.32,11.32,0,0,1-1.83-5.81A14.78,14.78,0,0,1,110.2,162.47Z"/><path class="cls-1" d="M150.2,138.07a12.33,12.33,0,0,1,1.53-6.94,5.25,5.25,0,0,1,7.15-2,5.12,5.12,0,0,1,1.78,1.65,9.64,9.64,0,0,1,1.62,4.35,23.82,23.82,0,0,1-.25,8.25,6.79,6.79,0,0,1-1.17,2.75c-2.31,3.15-6.48,3.05-8.79-.21a11.83,11.83,0,0,1-1.83-6A14.21,14.21,0,0,1,150.2,138.07Z"/><path class="cls-1" d="M109.22,140.48a10.34,10.34,0,0,1-.91,4.58,5.26,5.26,0,0,1-4.64,3.44,5.39,5.39,0,0,1-5-2.75c-1.5-2.33-1.72-5-1.73-7.67a13,13,0,0,1,1.24-6.27c1-1.9,2.42-3.21,4.67-3.23a5.43,5.43,0,0,1,5.13,3.16,10.72,10.72,0,0,1,1.2,4.87A18.54,18.54,0,0,0,109.22,140.48Z"/><path class="cls-1" d="M142.48,153a5.62,5.62,0,0,1,5.63,4.68,9.29,9.29,0,0,1-.4,5.61,4,4,0,0,1-3.66,2.82h-.92c-1.33.1-1.58.36-1.77,1.65a23.58,23.58,0,0,0-.09,2.91,1.12,1.12,0,0,0,.56,1,.55.55,0,0,1,.29.63c-.07.31-.34.35-.6.33a23.16,23.16,0,0,0-5.13,0c-.51.05-.79-.32-.37-.79a2.26,2.26,0,0,0,.47-1.66V155.32a2.75,2.75,0,0,0-.16-1.2c-.48-1-.49-1,.58-1.1C138.73,153,140.61,153,142.48,153Z"/><path class="cls-1" d="M119.14,138c.15-.54.29-1.09.43-1.63s.14-.8-.34-1a.73.73,0,0,0-1,.3l0,.06c-.48.73-.92,1.5-1.34,2.25-.66,1.12-.92,1.16-1.83.27-.27-.25-.53-.54-.77-.81s-.49-.62-.92-.51-.4.57-.41.92v.37a63.12,63.12,0,0,0,0,8,1.36,1.36,0,0,0,.81.92c.38.13.72.35.59.82s-.54.36-.87.34a10.09,10.09,0,0,0-2.33-.1c-.63.08-.66-.48-.35-.81a3,3,0,0,0,.64-2.38V130.55a1.19,1.19,0,0,0-.31-1,.53.53,0,0,1-.19-.74c.19-.3.44-.1.67-.14,2.43-.39,3,1.74,4.25,3,.31.34.51.8.82,1.14.91.91,1.7.91,2.44-.21s1.42-2.12,2.18-3.17a2.87,2.87,0,0,1,2.75-.81c.39.15.34.44.1.66a1.5,1.5,0,0,0-.36,1.3c.09,5.09,0,10.18,0,15.28,0,.56-.11,1.12.47,1.52a.54.54,0,0,1,.11.69.52.52,0,0,1-.58.23,14,14,0,0,0-4.75,0,.46.46,0,0,1-.55-.26c-.19-.49.29-.7.46-1.05a.64.64,0,0,0,.11-.3c-.06-2.75.06-5.5-.06-8.25A.57.57,0,0,1,119.14,138Z"/><path class="cls-1" d="M132.13,154.73a1.67,1.67,0,0,0-.62-.92c-.16-.15-.3-.34-.18-.57a.48.48,0,0,1,.58-.2,8.57,8.57,0,0,0,2.32.1c.59,0,.66.24.32.67s-.72.71-.69,1.28a8.47,8.47,0,0,1,.07,1.95v10.08c0,.3.11.62-.11.92a3.11,3.11,0,0,0-.18,1.28c-.24,2.24-1.17,3.26-3.36,3.6a7.08,7.08,0,0,1-2.25,0,3.83,3.83,0,0,1-3.56-4.08v0c-.07-4.47,0-8.93-.06-13.39,0-.37.12-.76-.14-1.1-.06,0-.09,0-.08-.06s0-.06,0-.06c-.1-.31-.57-.51-.3-.92s.62-.26.92-.19a14.88,14.88,0,0,0,4,0c.32,0,.74-.14.92.25s-.13.57-.35.78a1.09,1.09,0,0,0-.27.86c0,4.31.08,8.62-.09,12.93v.37c.06,1.41.54,2.14,1.44,2.16s1.5-.79,1.57-2.16a16.33,16.33,0,0,1-.07-2.52v-10A2.94,2.94,0,0,1,132.13,154.73Z"/><path class="cls-1" d="M125.8,148.31c-.48-.32-.73-.76-.07-1a1.73,1.73,0,0,0,.92-1.59c.31-2.58.66-5.15,1.22-7.69.44-2,1-4,1.5-6,.22-.86.25-1.62-.72-2.07a.63.63,0,0,1-.3-.83.66.66,0,0,1,.63-.35,18.65,18.65,0,0,0,4-.17c.92-.11,1.36.34,1.59,1.18a54.09,54.09,0,0,1,1.11,5.5c.55,3.46,1,6.93,1.36,10.41a1.87,1.87,0,0,0,.8,1.62c.25.14.51.29.38.65a.7.7,0,0,1-.86.37,12.21,12.21,0,0,0-3.08-.15c-.69,0-1.36.12-2.05.16-.3,0-.67.07-.79-.33s.15-.59.44-.72a1.15,1.15,0,0,0,.61-1.34,2.21,2.21,0,0,0-2.67-1.76,1.76,1.76,0,0,0-1.7,1.82,1.15,1.15,0,0,0,0,.26,1.17,1.17,0,0,0,.59,1c.31.18.64.37.51.79s-.57.24-.92.26H128A13.22,13.22,0,0,1,125.8,148.31Z"/><path class="cls-1" d="M103.39,172.8A3.54,3.54,0,0,1,100.1,171a1.62,1.62,0,0,1,.85-2.57,1.42,1.42,0,0,1,1.8.91l0,.1a8.56,8.56,0,0,1,.25,1.09,1.1,1.1,0,0,0,1.13,1.07h.07a1.26,1.26,0,0,0,1.26-1.18,2.94,2.94,0,0,0-.75-2.42c-.91-1.11-1.9-2.17-2.79-3.3a8.59,8.59,0,0,1-1.13-9.1,4.81,4.81,0,0,1,6.43-2.23,5.64,5.64,0,0,1,.67.4,2.13,2.13,0,0,1,1,1.91A1.33,1.33,0,0,1,107.6,157h-.06a1.24,1.24,0,0,1-1.51-.91.5.5,0,0,1,0-.12c-.06-.28-.09-.55-.14-.84a1.14,1.14,0,0,0-1.19-1.08h0a1.26,1.26,0,0,0-1.08,1.41,3,3,0,0,0,1,1.84,18.59,18.59,0,0,1,2.94,3.38,9,9,0,0,1-.11,10.08A4.64,4.64,0,0,1,103.39,172.8Z"/><path class="cls-1" d="M93.28,146.83c.1.44.87.64.54,1.18s-1,.28-1.47.23a17.32,17.32,0,0,0-3.67,0c-.36,0-.79.24-1-.18s.11-.64.38-.86a1.72,1.72,0,0,0,.32-1.22c0-4.5,0-9,0-13.5,0-.67.09-1.36.13-2,0-.41-.08-.78-.56-.81s-.65.32-.7.74a8.68,8.68,0,0,0,0,1c0,.7-.43.92-1,.92s-.66-.53-.55-1c.18-.78.33-1.58.54-2.36s.71-.7,1.83-.17c.24.31.58.16.86.15a31.82,31.82,0,0,0,4.58-.12,6.22,6.22,0,0,1,.92-.31c.92-.21,1.14,0,1.26.92.07.58.21,1.16.27,1.75,0,.44.36,1.09-.42,1.18a1,1,0,0,1-1.15-.8.65.65,0,0,1,0-.24v-1a.56.56,0,0,0-.36-.5c-.64,0-.92.31-.71.92a5.53,5.53,0,0,1,.14,1.67C93.28,137.13,93.26,142,93.28,146.83Z"/><path class="cls-1" d="M141.74,130.87v-.65a.56.56,0,0,0-.5-.59.63.63,0,0,0-.69.49,4.31,4.31,0,0,0-.11,1.29c0,.7-.46.92-1,.92s-.65-.55-.54-1.05c.16-.79.33-1.57.53-2.35s.71-.7,1.79-.18c.07.19.23.17.38.16a42.53,42.53,0,0,0,5.05-.12,7,7,0,0,1,.87-.32c.71-.17,1.22-.07,1.24.86,0,.68.23,1.35.3,2,0,.36.19.91-.42.91a1,1,0,0,1-1.12-.66,2.5,2.5,0,0,1-.09-1c0-.55-.12-1.1-.78-1s-.5.7-.43,1.17a4,4,0,0,0,.08.46,1.13,1.13,0,0,1,.13.84,24.27,24.27,0,0,0-.07,3.19v11.26a.57.57,0,0,0,.11.33,2,2,0,0,0,.22.29c.26.25.53.5.34.92s-.59.32-.92.28a16.73,16.73,0,0,0-4.58,0c-.25,0-.52,0-.65-.24a.5.5,0,0,1,.2-.66c.56-.38.53-.92.53-1.51V133.6a2,2,0,0,1,.14-1.1c.15.16.11.35.11.53V146a1,1,0,0,0,0,.24V131.89A2.21,2.21,0,0,0,141.74,130.87Z"/><path class="cls-17" d="M67.81,179.19c.29-.47.74-.23,1.11-.23h111.5v.32h0a.92.92,0,0,1-.85.32H69.36c-.55,0-1.14.14-1.62-.28Z"/><path class="cls-18" d="M67.75,177.85c.3,0,.61-.07.91-.07H180.42v.28H68.92C68.53,178,68.11,178.15,67.75,177.85Z"/><path class="cls-19" d="M180.42,123.73H68.93c-.39,0-.82.14-1.18-.14v-.09a2.75,2.75,0,0,1,1.65-.21H179.16a1.7,1.7,0,0,1,1.26.26h0A.53.53,0,0,0,180.42,123.73Z"/><path class="cls-20" d="M93.28,146.83a2.3,2.3,0,0,1-.13-1.19V133.87a18.11,18.11,0,0,0-.18-3.45c-.13-.64.09-1.09.92-.69-.47.24-.72.55-.5,1.11a2.14,2.14,0,0,1,.11.83V146C93.48,146.31,93.54,146.61,93.28,146.83Z"/><path class="cls-21" d="M141.74,130.87c.23.19.18.46.18.71V146.2a.52.52,0,0,1-.21.44V132.5A6.36,6.36,0,0,1,141.74,130.87Z"/><path class="cls-22" d="M146.42,131.26v-.1l.11-.09a3.27,3.27,0,0,1,.05.53v14.24c0,.27.08.57-.15.8-.3-.27-.21-.64-.21-.92V132.89A6.86,6.86,0,0,1,146.42,131.26Z"/><path class="cls-23" d="M146.42,131.26v15.59h-.17a.92.92,0,0,1-.1-.63V132.47a1.14,1.14,0,0,1,.06-.45l0-.79Z"/><path class="cls-15" d="M124.24,154.17a.11.11,0,0,1,0,.13v14.28a1.13,1.13,0,0,1-.2-.87V155.06C124.08,154.76,124,154.43,124.24,154.17Z"/><path class="cls-24" d="M133.81,168c0-4.29-.09-8.59,0-12.89.22.19.17.45.17.69V168.4C133.81,168.32,133.87,168.14,133.81,168Z"/><path class="cls-25" d="M132.13,154.73c0,2,.06,3.94.06,5.91,0,2.53,0,5.06-.06,7.6-.24-.23-.17-.53-.17-.8V155.53C132,155.25,131.89,155,132.13,154.73Z"/><path class="cls-26" d="M142.48,153a19.67,19.67,0,0,1-5.63,0,11.82,11.82,0,0,1,3.46-.15A4.21,4.21,0,0,1,142.48,153Z"/><path class="cls-27" d="M119,146.83c0-.08-.13-.16-.13-.24V138H119a3.2,3.2,0,0,1,.19,1.19v6.65C119.19,146.19,119.28,146.55,119,146.83Z"/><path class="cls-28" d="M119,146.83V138h.16l.06.39c0,2.88.16,5.75-.06,8.63H119Z"/><path class="cls-29" d="M113,146.22c0,.09-.18.26-.18.19a71,71,0,0,1,.14-8.25C113.12,140.87,113.06,143.55,113,146.22Z"/><path class="cls-30" d="M93.42,128.77c.11.16,0,.22-.13.22H88.48a.44.44,0,0,1-.46-.25Z"/><path class="cls-31" d="M146.64,128.77c-.14.23-.36.22-.58.22h-4.21c-.24,0-.52,0-.65-.25Z"/><path class="cls-32" d="M109.22,140.48a9.35,9.35,0,0,1,0-3.94A23.56,23.56,0,0,1,109.22,140.48Z"/><path class="cls-33" d="M125.8,148.31a5.19,5.19,0,0,1,2.22,0,4.26,4.26,0,0,1-2.24.14v-.07A.19.19,0,0,1,125.8,148.31Z"/><path class="cls-34" d="M175.92,196.61c1.56-3.08,3.1-6.19,4.47-9.36v50.38c0,1.55,0,1.55-1.5,1.6a7.62,7.62,0,0,1-2.43,0h-.76a10.24,10.24,0,0,1-2.82,0H154.69l-1.12-.06V239a1.55,1.55,0,0,1,1.23-.3h11.92c1.63,0,3.26,0,4.9,0,1-.06,1.93,0,2.9,0a.8.8,0,0,0,.92-.92V197.62A.91.91,0,0,1,175.92,196.61Z"/><path class="cls-35" d="M71.86,228c.32,0,.57-.05.56-.45s0-.55,0-.84V182.92a17.19,17.19,0,0,1,4.18,0,1.92,1.92,0,0,1,.26,1.26V228.4a3.2,3.2,0,0,1-.11,1c-.22.52-.63.41-1,.29a31.08,31.08,0,0,1-3-1.1C72.5,228.32,71.93,228.52,71.86,228Z"/><path class="cls-36" d="M153.38,239.06h-4.7a1.9,1.9,0,0,1-.3-1.33V220.49a.55.55,0,0,1,.15-.46c1.43-.71,2.95-1.23,4.39-1.93.31-.15.67-.24.84.22a3.82,3.82,0,0,1,.11,1.21v17.91C153.86,238,154,238.66,153.38,239.06Z"/><path class="cls-37" d="M153.38,239.06a2.34,2.34,0,0,0,.18-1.28V218c0-9.88,0-.09.05-.14a17,17,0,0,1,3.45-1.83.62.62,0,0,1,.63.06,1.82,1.82,0,0,1,.3,1.34v20.26a1.87,1.87,0,0,1-.31,1.34h-4.3Z"/><path class="cls-38" d="M148.47,220.27c.33.32.19.71.19,1.07v17.72h-4.32l-.08-.17a.48.48,0,0,1,0-.17v-16.5a1,1,0,0,1,0-.34.79.79,0,0,1,.12-.3,21.66,21.66,0,0,1,3.66-1.42A.33.33,0,0,1,148.47,220.27Z"/><path class="cls-38" d="M139.86,239.05h-4.51a.73.73,0,0,1-.09-.35c0-4.65,0-9.3,0-13.94a1.52,1.52,0,0,1,.12-.32,9.57,9.57,0,0,1,4.08-1.11c.54.31.46.85.46,1.34v14A.7.7,0,0,1,139.86,239.05Z"/><path class="cls-38" d="M72.81,228.35l3.75,1.32.12.12a2.66,2.66,0,0,1,.17,1.28v6.37c0,1.05.08,1.14,1.11,1.13a30.68,30.68,0,0,0,3.18,0c.41-.17.22-.53.23-.81a32.37,32.37,0,0,1,.19-5.57c.07-.36,0-.77.46-.92a1.19,1.19,0,0,1,.46,0,5.71,5.71,0,0,0,1,.16,4.33,4.33,0,0,0,.72.12c.49.1,1.08-.19,1.41.42-.07,2,.05,4,0,5.93,0,.26-.16.58.23.72,1,.12,2,0,3.07.05a2.54,2.54,0,0,1,1.19.17.29.29,0,0,1,.14.28h-18a.67.67,0,0,1-.1-.34v-9.25C72.16,229,71.91,228.31,72.81,228.35Z"/><path class="cls-38" d="M90.27,239v-.34c-.06-2.3-.07-4.58,0-6.9a1,1,0,0,1,.15-.33c.83-.68,1.83-.3,2.75-.39h.55c.92,0,1.15.23,1.19,1.17v5.42c0,.64.3.92.91.92h3.46c1.64,0,1.64,0,1.64-1.61v-2.51a3.25,3.25,0,0,0-.44-1.95c-.33-.5-.14-1.2-.46-1.75a1.12,1.12,0,0,1,.73-.23,3.56,3.56,0,0,0,1.21-.12,1.82,1.82,0,0,1,.46-.06,1.33,1.33,0,0,1,.56.07c.15.06.29.14.3.31a.37.37,0,0,1-.33.37c-.63,0-.74.48-.74,1v5.61c0,1.15.85.8,1.46.91h5.66c.5,0,.77-.21.76-.71a42.92,42.92,0,0,0-.17-6.71.92.92,0,0,1,.47-1.09,2,2,0,0,0,.68-.62,1.41,1.41,0,0,1,1.38-.21c-.21,2.82,0,5.64-.12,8.46a1,1,0,0,1-.1.55c-.54.55.14.39.3.54a.24.24,0,0,1,.11.26Z"/><path class="cls-36" d="M126.15,239.06h-.59a19.82,19.82,0,0,0-3.08-.09c-1,0-1.14-.08-1.15-1.12V229.7a8.17,8.17,0,0,0-.13-1.78c0-.29.12-.42.36-.51,1.35-.21,2.68-.51,4-.76a2.26,2.26,0,0,1,1-.08.33.33,0,0,1,.22.26v11C126.8,238.37,126.78,238.88,126.15,239.06Z"/><path class="cls-34" d="M72.81,228.35c-.58.12-.37.59-.37.92v8.63c0,.33.13.7-.18,1a22.36,22.36,0,0,1-4.48,0v-11.8c0-.68.12-.82.77-.52,1.1.53,2.24.92,3.36,1.42C72.08,228.33,72.59,228,72.81,228.35Z"/><path class="cls-38" d="M126.15,239.06c.4-.28.37-.68.37-1.1V227.88a2.18,2.18,0,0,1,.18-1.18,8.24,8.24,0,0,1,3.67-.92.68.68,0,0,1,.42.28,3,3,0,0,1,.13,1.3V238.8a.56.56,0,0,1-.1.33Z"/><path class="cls-37" d="M121.26,227.79c.58.12.37.58.37.92v9.16c0,.79.23,1,1,1a7.39,7.39,0,0,1,3,.15h-13v-.18l.13-.11a9.84,9.84,0,0,1,3.06-.17c1.36,0,1.4,0,1.4-1.45v-7.39a1.85,1.85,0,0,1,.34-1.42A6.16,6.16,0,0,1,121.26,227.79Z"/><path class="cls-39" d="M76.56,182.92H72.4l-4.72,0c.3-.28.65-.16,1-.16H179.44c.32,0,.7-.19.92.2h-4.84c-.61.44-1.31.24-2,.27a16,16,0,0,1-2,0c-1.62,0-3.24,0-4.87,0-1.38,0-2.76,0-4.15,0h-9c-1.63,0-3.25,0-4.87,0-1.38,0-2.76,0-4.15,0-1.62,0-3.25,0-4.87,0H126.5c-1.62,0-3.25,0-4.87,0H90.44q-2.43.06-4.86,0c-1.39,0-2.78,0-4.16,0s-2.54,0-3.82,0A1.52,1.52,0,0,1,76.56,182.92Z"/><path class="cls-7" d="M95.89,239.47H86.14a.54.54,0,0,1,0-.18h9.77C95.9,239.35,95.9,239.41,95.89,239.47Z"/><path class="cls-40" d="M67.76,238.87h4.48v.19H68.57C68.26,239.06,68,239.16,67.76,238.87Z"/><path class="cls-40" d="M130.84,239.06v-.19a1.37,1.37,0,0,1,1.13-.32,12.2,12.2,0,0,1,3.25.16l.13.13V239Z"/><path class="cls-40" d="M139.86,239.05v-.18a1.08,1.08,0,0,1,.91-.28c1.19.09,2.42-.31,3.57.28v.19Z"/><path class="cls-7" d="M95.91,63.62h10.14a1.44,1.44,0,0,1,1.06-.29h7.48a1.58,1.58,0,0,1,1,.22.22.22,0,0,1,0,.32h0a2,2,0,0,1-1.19.19h-27c-.42,0-.91.1-1.23-.29s-.66-.15-1-.15H77.56c-.86,0-1-.28-1-1.07V53.1h9.78a2,2,0,0,1,.3,1.43v7.6c0,1.1.08,1.16,1.18,1.17h6.76A1.85,1.85,0,0,1,95.91,63.62Z"/><path class="cls-34" d="M67.76,82.78V63.84H85.57a.3.3,0,0,1-.17.28,19.11,19.11,0,0,1-4,.15H76.57c-.92.06-1.84,0-2.75,0s-1.12.1-1.12,1.15V78.25a14.06,14.06,0,0,1,0,1.59,1.83,1.83,0,0,1-.07.32,1.24,1.24,0,0,1-.73.67c-1.06.53-2.08,1.15-3.11,1.74C68.47,82.73,68.16,83.05,67.76,82.78Z"/><path class="cls-41" d="M85.58,64v-.16l.57-.06h29.48a1.86,1.86,0,0,1,1.83,0,.25.25,0,0,1-.06.32,5.08,5.08,0,0,1-2.29.2h-6.64c-1.62,0-3.25,0-4.86,0h-9c-1.38,0-2.75,0-4.13,0a25.43,25.43,0,0,1-4.78-.15Z"/><path class="cls-3" d="M172.91,239.26h2.81A4.65,4.65,0,0,1,172.91,239.26Z"/><path class="cls-3" d="M176.48,239.26h2.43A3.62,3.62,0,0,1,176.48,239.26Z"/><path class="cls-36" d="M180.38,118.27h-.71a27.45,27.45,0,0,1-1.44-3.46c-.73-1.83-1.55-3.6-2.24-5.24v7.92c0,.24,0,.59-.41.58a1.08,1.08,0,0,1-.29-.87c0-2.75,0-5.5,0-8.25a2.8,2.8,0,0,1,.15-.91,19.64,19.64,0,0,0,0-2.17V65.34c0-.77-.3-1-1.06-1s-1.4.3-1.83-.47a34.1,34.1,0,0,1,4.74-.09,12.77,12.77,0,0,1,3.15.1v53.88C180.42,117.89,180.39,118.08,180.38,118.27Z"/><path class="cls-42" d="M180.41,63.83h-7.87a1.33,1.33,0,0,1-1,.25c-1.77.06-3.56,0-5.34,0h-2.5c-2.11,0-4.21,0-6.32,0h-2.68c-2.22,0-4.44,0-6.65,0a2.89,2.89,0,0,1-.72,0h-2.86a1.55,1.55,0,0,1-1-.25c.23-.64.81-.49,1.27-.49h8.62c1,0,1.09-.11,1.09-1.08v-7.7a1.92,1.92,0,0,1,.31-1.43h17.83v9.25c0,1.24,0,1.24,1.2,1.24h5.72C179.77,63.63,180.15,63.48,180.41,63.83Z"/><path class="cls-6" d="M115.64,63.64h-9.59V54.06c0-.73.19-1,.92-.92h8.83a1.41,1.41,0,0,1,.28,1v8.61a1.79,1.79,0,0,1-.16.82A.26.26,0,0,1,115.64,63.64Z"/><path class="cls-6" d="M95.91,63.62H87.26c-.73,0-.91-.19-.91-.92V53.12H95c.7,0,.92.2.92.92C95.89,57.19,95.91,60.41,95.91,63.62Z"/><path class="cls-43" d="M105.85,239.47c-.18.23-.44.18-.69.18H96.79c-.24,0-.51,0-.69-.18Z"/><path class="cls-35" d="M171.6,182.92h3.94a2,2,0,0,1,.18,1.19v11.53c0,.33-.13.69.19,1l-.38.75a.48.48,0,0,1,0,.37,40,40,0,0,1-3.41,5.59c-.24.33-.56.46-.74-.09a4.56,4.56,0,0,1-.08-1.22V184.45A2,2,0,0,1,171.6,182.92Z"/><path class="cls-44" d="M67.74,121.66V119.5c0-.48.16-.69.65-.66h98.7a10.53,10.53,0,0,1,1.32,2.82c-.46.33-1,.18-1.46.18H69A1.93,1.93,0,0,1,67.74,121.66Z"/><path class="cls-45" d="M67.73,122v-.18a1.93,1.93,0,0,1,1-.09h98.83a2.3,2.3,0,0,1,1,.08.43.43,0,0,1,0,.16H67.73Z"/><path class="cls-46" d="M168.58,121.84H67.76v-.19H168.41Z"/><path class="cls-47" d="M169.35,123.52h-.2a2.11,2.11,0,0,1-.19-.23c-.08-.35-.61-.78.17-.92H179.4a1.94,1.94,0,0,1,1,.09v.91a1.93,1.93,0,0,1-1,.08h-9.17A2,2,0,0,0,169.35,123.52Z"/><path class="cls-48" d="M180.41,122.41H168.78l-.07-.09.06-.09h11.65Z"/><path class="cls-49" d="M169.35,123.52c.29-.29.65-.16,1-.17h10.09a.31.31,0,0,1,0,.19Z"/><path class="cls-1" d="M90.28,118.28H85.76c-.52-.32-.48-.85-.49-1.34V88.32a4.29,4.29,0,0,1,.16-1.67,1.11,1.11,0,0,1,.64-.5,12.48,12.48,0,0,1,3.47-.67,1.16,1.16,0,0,1,1,.35,2.79,2.79,0,0,1,.19,1.37q0,14.77,0,29.44C90.73,117.23,90.89,117.88,90.28,118.28Z"/><path class="cls-1" d="M99.47,118.28H94.78c-.53-.32-.49-.85-.49-1.34V87.69A3.31,3.31,0,0,1,94.5,86c.08-.1.18-.22.29-.22a9.47,9.47,0,0,1,4.77.57,2.38,2.38,0,0,1,.23,1.36v29.1A2,2,0,0,1,99.47,118.28Z"/><path class="cls-1" d="M108.31,118.28h-4.52c-.52-.32-.48-.85-.49-1.34V88.29c0-.61-.2-1.37.69-1.64a18.26,18.26,0,0,1,3.83.41,1.13,1.13,0,0,1,.77.46,2.72,2.72,0,0,1,.19,1.38v27.73C108.78,117.24,108.92,117.88,108.31,118.28Z"/><path class="cls-1" d="M117.31,118.28H112.8c-.56-.34-.49-.92-.49-1.43V89a.92.92,0,0,1,1.06-1c1,.12,2,.34,3,.52a1.6,1.6,0,0,1,1.21.61,3,3,0,0,1,.17,1.29v26.27C117.8,117.23,117.94,117.87,117.31,118.28Z"/><path class="cls-1" d="M81.26,118.28H76.74c-.55-.34-.48-.92-.48-1.43V92.05a10.55,10.55,0,0,1,0-1.49,1.15,1.15,0,0,1,.09-.33,1.79,1.79,0,0,1,.92-.7c1.06-.53,2.15-1,3.25-1.45.36-.14.79-.36,1,.21a4.7,4.7,0,0,1,.1,1.3v27C81.74,117.17,81.91,117.85,81.26,118.28Z"/><path class="cls-1" d="M126.34,118.28h-4.71a1.77,1.77,0,0,1-.3-1.24V91.17a1.87,1.87,0,0,1,.27-1.26.85.85,0,0,1,.7-.17,28.82,28.82,0,0,1,3.8.92.91.91,0,0,1,.59.54,2.63,2.63,0,0,1,.13.92V117C126.81,117.43,126.86,118,126.34,118.28Z"/><path class="cls-35" d="M94.6,86v31.11a2,2,0,0,0,.18,1.19h-4.5a2.2,2.2,0,0,0,.18-1.19V85.79l.11-.12a7.74,7.74,0,0,1,3.91.19A.68.68,0,0,0,94.6,86Z"/><path class="cls-35" d="M104.17,86.91c-.47,0-.58.23-.56.64V117a2.2,2.2,0,0,0,.18,1.29H99.47V86.4l.12-.11a7.77,7.77,0,0,1,2.5.1c.5,0,1,.1,1.49.14C103.83,86.53,104.16,86.52,104.17,86.91Z"/><path class="cls-35" d="M81.26,118.28a2.11,2.11,0,0,0,.18-1.19V88a1.09,1.09,0,0,1,.38-.39,11,11,0,0,1,3.66-1.17l.12.06v30.55a2.12,2.12,0,0,0,.19,1.19Z"/><path class="cls-35" d="M113.56,88.23c-.72-.11-.92.17-.92.92v28.13a1.84,1.84,0,0,0,.2,1h-4.51a2.25,2.25,0,0,0,.19-1.28V87.48l.12-.11a7.35,7.35,0,0,1,2.47.21,11.82,11.82,0,0,0,1.57.2C113,87.84,113.45,87.68,113.56,88.23Z"/><path class="cls-1" d="M135.35,118.28h-4.51c-.6-.37-.49-1-.49-1.53V93.85a4.68,4.68,0,0,1,.12-1.49c.19-.41.56-.35.92-.27,1.26.32,2.49.73,3.72,1.15a1,1,0,0,1,.65.62,4.08,4.08,0,0,1,.12,1.21v21.59C135.83,117.23,136,117.87,135.35,118.28Z"/><path class="cls-35" d="M121.83,89.92c-.33.31-.19.7-.19,1.06v27.3h-4.33a2.11,2.11,0,0,0,.18-1.19V89l.11-.1a2.68,2.68,0,0,1,1.72.18c.76.21,1.53.31,2.27.51C121.74,89.64,121.89,89.72,121.83,89.92Z"/><path class="cls-1" d="M72.25,118.28H68.58c-.63,0-.87-.17-.86-.84V95a19.12,19.12,0,0,1,4.06-2.46.58.58,0,0,1,.62,0,2,2,0,0,1,.29,1.35v22.91C72.73,117.37,72.8,117.94,72.25,118.28Z"/><path class="cls-35" d="M72.25,118.28a1.83,1.83,0,0,0,.18-1V93.45c0-.33.2-.8-.36-.92-.07-.25.12-.32.28-.42,1.1-.5,2.11-1.16,3.2-1.67.31-.15.62-.44,1-.17V117a2.24,2.24,0,0,0,.17,1.28Z"/><path class="cls-35" d="M130.65,92.17v24.92a2.12,2.12,0,0,0,.19,1.19h-4.5a2.2,2.2,0,0,0,.18-1.19V91l.11-.09a12,12,0,0,1,3.44.85A1.38,1.38,0,0,1,130.65,92.17Z"/><path class="cls-1" d="M144.37,118.28h-4.52c-.62-.41-.48-1-.48-1.63V96.58a1.48,1.48,0,0,1,.38-1.3c1.06-.13,4.45,1.36,5,2.2a4.08,4.08,0,0,1,.1,1.21v18C144.81,117.24,145,117.88,144.37,118.28Z"/><path class="cls-50" d="M171.39,118.29H166.9c-.26-.22-.55-.41-.47-.82-.05-6.9,0-13.81,0-20.72a7.58,7.58,0,0,1,.07-1.58c.23-.69.6-.35.92-.09a15.81,15.81,0,0,1,2.56,3,17.17,17.17,0,0,1,1.83,2.91,1.68,1.68,0,0,1,.07.5c.09,5.19,0,10.4,0,15.58C171.89,117.56,171.9,118,171.39,118.29Z"/><path class="cls-35" d="M140,95.36c-.46.07-.37.43-.37.73v21.38a1.75,1.75,0,0,0,.19.81h-4.5a2.2,2.2,0,0,0,.18-1.19V93.67l.13,0A22.55,22.55,0,0,1,139.74,95C139.9,95.05,140.1,95.1,140,95.36Z"/><path class="cls-1" d="M153.38,118.28h-4.51c-.46-.26-.48-.71-.48-1.15V100.51a1.9,1.9,0,0,1,.17-.91.61.61,0,0,1,.84-.13,26.64,26.64,0,0,1,3.94,2.44,1.22,1.22,0,0,1,.44.69,7.89,7.89,0,0,1,.08,1.68v12.47C153.86,117.3,154,117.91,153.38,118.28Z"/><path class="cls-35" d="M148.87,99.5c-.31.27-.19.65-.19,1v16.72a2,2,0,0,0,.19,1.09h-4.5a2.2,2.2,0,0,0,.18-1.19V97.25l.12-.06A22.09,22.09,0,0,1,148.38,99C148.56,99.12,148.93,99.12,148.87,99.5Z"/><path class="cls-35" d="M153.38,118.28a2.21,2.21,0,0,0,.19-1.19V102.32l.13,0a21.36,21.36,0,0,1,3.66,2.75l.32.29a.72.72,0,0,1,.28.7v11.58a1.36,1.36,0,0,1-.13.72Z"/><path class="cls-50" d="M72.4,92.35a.41.41,0,0,0-.38.2c-1.44.81-2.81,1.74-4.3,2.43V82.78c1.65-.64,3-1.76,4.68-2.44a1.31,1.31,0,0,1,.29,1V91.2A2,2,0,0,1,72.4,92.35Z"/><path class="cls-51" d="M171.39,118.29a2.21,2.21,0,0,0,.19-1.19V101.19c.45-.09.6.28.76.55a42.16,42.16,0,0,1,3.36,6.42,5.59,5.59,0,0,0-.19,1.47v7.51c0,.33-.13.7.18,1,.05,0,.07.08.05.13s0,.06,0,.06Z"/><path class="cls-1" d="M157.88,118.28a1.84,1.84,0,0,1-.19-.92V106.47c0-.27-.08-.57.19-.79a.38.38,0,0,1,.43.08,21.25,21.25,0,0,1,4.43,5.25,1.08,1.08,0,0,1,.07.31c.1,1.93,0,3.87,0,5.8,0,.44,0,.92-.47,1.15Z"/><path class="cls-50" d="M175.73,118.29V108.7a15.45,15.45,0,0,1,1.52,3.11c.92,2,1.64,4,2.45,5.94a.64.64,0,0,1,0,.54Z"/><path class="cls-35" d="M162.4,118.28a2,2,0,0,0,.18-1.09V111c.28-.06.38.16.5.33a51.8,51.8,0,0,1,3.28,5.5,1,1,0,0,1,.17,1c.11.2.4.28.37.56Z"/><path class="cls-9" d="M180.42,179.51v2.35c0,.48-.17.71-.66.66H69c-1.31,0-1.31,0-1.31-1.32v-1.69a2,2,0,0,1,1-.08H179.4A2.08,2.08,0,0,1,180.42,179.51Z"/><path class="cls-9" d="M180.42,179.51H67.74v-.2c.28,0,.57,0,.84,0H180.41A1,1,0,0,0,180.42,179.51Z"/><path class="cls-52" d="M168.78,122.41l.37.92a2,2,0,0,1-1,.08H68.77a2.2,2.2,0,0,1-1-.08v-.92a2.07,2.07,0,0,1,1-.08h99a2,2,0,0,1,1,.08Z"/><path class="cls-53" d="M67.75,123.35h101.4v.16H67.73C67.74,123.45,67.74,123.4,67.75,123.35Z"/><path class="cls-54" d="M168.77,122.41h-101c.27-.32.64-.17,1-.17h100Z"/><path class="cls-2" d="M125.41,53.12h17.83a1.61,1.61,0,0,1,.3,1.16v8.15c0,1.28-.2,1.46-1.48,1.46H126.69a2.3,2.3,0,0,1-1.1-.15,1.34,1.34,0,0,1-.49-1.25V54.18A1.37,1.37,0,0,1,125.41,53.12Z"/><path class="cls-4" d="M125.56,63.62h16.71c.73,0,1-.19,1-.92,0-3.19,0-6.41,0-9.58h11.46v9.46c0,.81-.18,1.09-1,1.08-3.09-.06-6.18,0-9.27,0-.33,0-.69-.11-1,.14a1,1,0,0,1-.86.3H126.11a1.41,1.41,0,0,1-.29,0,.63.63,0,0,1-.3-.21Z"/><path class="cls-7" d="M125.41,53.12v9.6a1.72,1.72,0,0,0,.19.92h0a1.54,1.54,0,0,1-1.14.26c-2,0-3.93.05-5.88,0a21.13,21.13,0,0,1-2.75-.25V53.14Z"/><path class="cls-9" d="M115.41,156.28c-.09-.42-.15-.86-.27-1.27-.19-.56-.15-1,.46-1.21a1.1,1.1,0,0,1,1.42.6,4.41,4.41,0,0,1,.3,1.83v12.2a6.11,6.11,0,0,0,.25,2c.2.55.35,1.16-.35,1.44s-1.2-.1-1.53-.72a3.35,3.35,0,0,1-.22-.7,1,1,0,0,0,.07-.45V156.51C115.53,156.43,115.65,156.25,115.41,156.28Z"/><path class="cls-55" d="M115.41,156.28c.08-.19-.06-.44.21-.66v13.89c0,.33.12.69-.16,1a29.15,29.15,0,0,1-.08-3.74C115.37,163.26,115.4,159.77,115.41,156.28Z"/><path class="cls-44" d="M157.5,145.53c.06.26.11.54.18.81.11.46.11.92-.36,1.15a1.07,1.07,0,0,1-1.29-.25,2.58,2.58,0,0,1-.65-2V132.61a8.07,8.07,0,0,0-.19-1.83c-.14-.56-.3-1.08.38-1.33a1.13,1.13,0,0,1,1.49.57s0,.07,0,.11a2.29,2.29,0,0,1,.07.36v.18c.16,4.51,0,9,.09,13.54.05.14.1.27.16.41a1.92,1.92,0,0,1,.11.79Z"/><path class="cls-56" d="M157.51,131.25a.17.17,0,0,1,0-.1.36.36,0,0,1,.12-.08c0,.21.05.42.05.63v13c0,.3.1.63-.2.91h0a21.87,21.87,0,0,1-.24-4.92v-8.12A1.64,1.64,0,0,1,157.51,131.25Z"/><path class="cls-57" d="M157.31,144.77l-.18-.2A.83.83,0,0,1,157,144V131a1.24,1.24,0,0,1,.06-.47h.07c.19.22.11.51.18.76a30,30,0,0,1,.06,3.55v9.07A1.56,1.56,0,0,1,157.31,144.77Z"/><path class="cls-58" d="M157.31,144.77V131.24h.16v14.29C157.28,145.32,157.36,145.06,157.31,144.77Z"/><path class="cls-59" d="M102.07,131.06a.14.14,0,0,0,0-.09c-.16-.62-.53-1.3.45-1.59.75-.21,1.34.26,1.53,1.23a8.17,8.17,0,0,1,.1,1.31v11.53a8.78,8.78,0,0,0,.32,2.75c.16.5.21,1.05-.4,1.28a1.18,1.18,0,0,1-1.4-.47c-.33-.41-.33-.92-.56-1.37a.7.7,0,0,1-.11-.54V131.52A1.2,1.2,0,0,1,102.07,131.06Z"/><path class="cls-60" d="M102.07,131.06c0,2.18.07,4.37.08,6.56v8.14l-.1.11a1.84,1.84,0,0,1-.08-.42V131.7A.63.63,0,0,1,102.07,131.06Z"/><path class="cls-9" d="M143.06,163.74a9,9,0,0,1-.38,1.14.87.87,0,0,1-.92.5.65.65,0,0,1-.57-.72,80.18,80.18,0,0,0-.05-8.77c-.17-.69-.56-1.48.43-1.89.69-.27,1.2.27,1.49,1.46a.81.81,0,0,1,.12.66,64.27,64.27,0,0,0,0,6.8A1,1,0,0,1,143.06,163.74Z"/><path class="cls-61" d="M141.14,155.89l.05-.35c.12-.08.15,0,.15.1v8.41a.82.82,0,0,1-.16.61C141.05,161.74,141.14,158.81,141.14,155.89Z"/><path class="cls-62" d="M143.23,155.48v-.09l.12-.08a.58.58,0,0,1,.05.14v8.31a.58.58,0,0,1-.05.14l-.14-.17A38.56,38.56,0,0,1,143.23,155.48Z"/><path class="cls-63" d="M143.23,155.48v8.25h-.17V163c-.11-2.31-.11-4.58,0-6.92v-.59Z"/><path class="cls-64" d="M111.81,130.16v15.71h-.09v-15.7Z"/><path class="cls-65" d="M119.14,147l.06-8.62c.24.27.14.59.14.91v6.77C119.37,146.38,119.51,146.75,119.14,147Z"/><path class="cls-9" d="M132,141.62c0,1.42-.27,1.7-1.51,1.7s-1.78-.4-1.7-1.74a17.56,17.56,0,0,1,1-5.6c.15-.4.32-.92.84-.92s.52.68.53,1.14a33.25,33.25,0,0,0,.61,4C131.92,140.69,132,141.15,132,141.62Z"/><path class="cls-66" d="M146.21,132v14.81c-.28-.19-.2-.5-.2-.77V132.71C146.05,132.47,146,132.23,146.21,132Z"/><path class="cls-38" d="M171.6,203.57a35.84,35.84,0,0,0,3.15-4.84c.29-.44.53-.91.79-1.37.31.27.18.64.18,1V238c0,.84-.22,1.1-1,1-1-.07-2.07,0-3.1,0a1.64,1.64,0,0,1-.3-1.23V205.11a5.94,5.94,0,0,1,.06-1A.71.71,0,0,1,171.6,203.57Z"/><path class="cls-36" d="M171.59,203.92v35.14h-4.88a1.57,1.57,0,0,1-.3-1.15V210.05a.92.92,0,0,1,.22-.74,40.79,40.79,0,0,0,4.27-5C171.07,204.08,171.24,203.83,171.59,203.92Z"/><path class="cls-36" d="M157.69,239.06V217.15c0-.35.26-.85-.36-1,0-.39.34-.38.54-.55,1.3-.74,2.55-1.58,3.82-2.37.35-.21.81-.71,1.12.08a4.9,4.9,0,0,1,.08,1.21v22.84c0,.6.17,1.27-.49,1.71Z"/><path class="cls-38" d="M162.4,239.06a2.07,2.07,0,0,0,.18-1.1v-25a.28.28,0,0,1,0-.25c1.15-1,2.4-1.83,3.55-2.86a.4.4,0,0,1,.43-.08c.31.28.18.65.18,1v28.34Z"/><path class="cls-1" d="M76.56,182.92h4.89a1.64,1.64,0,0,1,.29,1.25v45.52c0,.49.07,1-.38,1.39a7.56,7.56,0,0,1-4.8-1.41h0Z"/><path class="cls-1" d="M148.67,182.93h4.9a1.66,1.66,0,0,1,.3,1.24v32.51a2.29,2.29,0,0,1-.31,1.35h0a30,30,0,0,1-4.89,2.06,1.54,1.54,0,0,1-.3-1.23V184.18A1.69,1.69,0,0,1,148.67,182.93Z"/><path class="cls-35" d="M148.67,182.93v37.15l-.19.19a30.37,30.37,0,0,1-3.94,1.32,1.56,1.56,0,0,1-.3-1.23v-36.2a1.62,1.62,0,0,1,.3-1.24Z"/><path class="cls-35" d="M153.56,218v-35.1h3.94c.55.31.48.85.49,1.33v30.31a3.51,3.51,0,0,1-.12,1.21l-.57.37Z"/><path class="cls-1" d="M144.55,182.92v38.86a10.26,10.26,0,0,1-4.58,1.5c-.4-.12-.5-.44-.55-.8a5.79,5.79,0,0,1,0-1V184.55a2.18,2.18,0,0,1,.3-1.63Z"/><path class="cls-36" d="M140.22,223.1c1.49-.28,2.85-.92,4.32-1.32V222a1.93,1.93,0,0,0-.09,1v14.88a2.15,2.15,0,0,1-.08,1h-4.51c-.33-.31-.19-.71-.19-1.07V224.38c0-.33.21-.79-.36-.92C139.41,222.84,140,223.4,140.22,223.1Z"/><path class="cls-40" d="M144.37,238.87V223c0-.35-.14-.76.18-1.06v15.84C144.54,238.17,144.69,238.55,144.37,238.87Z"/><path class="cls-1" d="M130.64,182.92h4.9a1.64,1.64,0,0,1,.3,1.25v39a1.71,1.71,0,0,1-.3,1.24v.18a1.5,1.5,0,0,1-.25.19c-1.24.39-2.49.72-3.75,1-.39.09-.8.18-1.06-.28a3.9,3.9,0,0,1-.13-1.4V184.55C130.35,184,130.22,183.4,130.64,182.92Z"/><path class="cls-35" d="M135.54,224.41V182.92h4.12v39.16c0,.4-.25,1,.56,1-.22.35-.72,0-.91.36A37.8,37.8,0,0,1,135.54,224.41Z"/><path class="cls-40" d="M135.35,224.6h.18v13.31c0,.33.12.7-.18,1h0a1.74,1.74,0,0,1-.31-1.25V225.85A1.65,1.65,0,0,1,135.35,224.6Z"/><path class="cls-35" d="M81.07,231c.61-.15.36-.66.36-1V183h4.13c.44.51.3,1.13.3,1.71v45.49a2.88,2.88,0,0,1-.16,1.3c-.46.5-1.13,0-1.65.32l-.55-.19c-.29-.22-.66,0-.92-.19H82.2c-.25-.23-.53.08-.79,0S81,231.22,81.07,231Z"/><path class="cls-36" d="M81.07,231a.37.37,0,0,0,.37.19,1.12,1.12,0,0,1,.19.92,60.53,60.53,0,0,0-.07,6.46.48.48,0,0,1-.14.34h-4c-.72,0-.92-.23-.92-.92v-8.3A23.49,23.49,0,0,0,81.07,231Z"/><path class="cls-36" d="M84.07,231.73c.46-.37,1-.1,1.51-.18.59-.46,1.29-.27,2-.29s1.16,0,1.74,0c.4.07.85-.06,1.19.29v.18a40.58,40.58,0,0,0-.1,4.27,17.18,17.18,0,0,1-.09,2.87H85.58c-.3-.37-.07-.79-.09-1.18-.06-1.68.08-3.36-.07-5.05a1.29,1.29,0,0,1,.16-.72C85.12,231.55,84.57,231.81,84.07,231.73Z"/><path class="cls-37" d="M82.57,235.62a18,18,0,0,0-.09-2.75c-.11-.5.25-.69.55-.86s.49,0,.43.33a48.62,48.62,0,0,0-.14,5.79c0,.28.11.71-.38.7s-.36-.43-.36-.72C82.56,237.33,82.57,236.55,82.57,235.62Z"/><path class="cls-37" d="M84.46,236v2.42c0,.21.14.45-.22.47s-.54-.09-.54-.46v-5.14c0-.25.07-.53.41-.5s.32.26.32.49V236Z"/><path class="cls-37" d="M81.44,238.87v-7.65c.27,0,.56-.08.75.18-.66.58-.49,1.43-.51,2.12a21.66,21.66,0,0,0,.09,5C81.83,238.72,81.71,238.84,81.44,238.87Z"/><path class="cls-37" d="M85.58,231.92v7c-.27,0-.37-.15-.33-.44a23.46,23.46,0,0,0,0-5.68A.92.92,0,0,1,85.58,231.92Z"/><path class="cls-37" d="M82.57,231.36c.32,0,.68-.12.92.19C83.19,231.5,82.84,231.67,82.57,231.36Z"/><path class="cls-35" d="M90.46,231.55H89.33c1-.73.82-1.83.82-2.85v-44a2.58,2.58,0,0,1,.3-1.83h4.13c.45.51.3,1.13.3,1.7v45.12a3,3,0,0,1-.16,1.29c-.47.5-1.14,0-1.66.32A12.06,12.06,0,0,0,90.46,231.55Z"/><path class="cls-35" d="M99.48,182.92h4.13c.45.54.3,1.2.3,1.84V229a1.2,1.2,0,0,0,.56,1.12c.13.71-.42.48-.76.57-.48-.07-.92-.32-1.43-.07h-.37c-.35.24-.79,0-1.14.19H100a.47.47,0,0,1-.64,0,.92.92,0,0,1-.16-.33,6.54,6.54,0,0,1-.07-1.4V184.64C99.17,184.06,99,183.44,99.48,182.92Z"/><path class="cls-35" d="M108.48,182.92h4.14c.44.52.3,1.13.3,1.71V227a8.71,8.71,0,0,0,.11,1.84c0,.26,0,.46-.3.53a.51.51,0,0,1-.31-.11l-1.31.18a4.51,4.51,0,0,1-2.75.46l-.14-.11,0-.18V183.9C108.14,183.56,108.08,183.17,108.48,182.92Z"/><path class="cls-36" d="M103.61,230.42c.32,0,.67.12.91-.19a6,6,0,0,1,3.75-.38h0a1.42,1.42,0,0,1,.27,1.06v6.79a2.14,2.14,0,0,1-.27,1.16h-4.69a1.56,1.56,0,0,1-.3-1.14v-6A2.38,2.38,0,0,1,103.61,230.42Z"/><path class="cls-36" d="M93.08,231.36c.47-.38,1-.1,1.52-.2a11.14,11.14,0,0,1,4.87-.37h0a1.37,1.37,0,0,1,.3,1.05v6a1.46,1.46,0,0,1-.3,1.05h-4c-.73,0-.92-.24-.92-.91v-5.14C94.54,231.1,94.79,231.38,93.08,231.36Z"/><path class="cls-38" d="M108.49,229.85a14.49,14.49,0,0,1,2.63-.37c0,.39,0,.72-.53.79s-.8.31-.39.83a1.42,1.42,0,0,1,.16,1v5.5c0,1.32-.15,1.45-1.45,1.25a2.3,2.3,0,0,1-.43-.18,18.71,18.71,0,0,1-.08-3.43A48.3,48.3,0,0,1,108.49,229.85Z"/><path class="cls-37" d="M103.61,230.42v8.45c-1.69,0-1.69,0-1.69-1.67v-5c0-1.37,0-1.38,1.24-1.43-.25-.33-.59-.13-.92-.2C102.69,230.3,103.17,230.49,103.61,230.42Z"/><path class="cls-37" d="M99.47,238.87V230.8H100c.42.26.92.49.48,1.13a.34.34,0,0,0,0,.34c1,.83.55,2,.61,3s0,1.84,0,2.75c0,.65-.07,1.06-.92.84A2.31,2.31,0,0,0,99.47,238.87Z"/><path class="cls-38" d="M112.43,229.29h.19a1.57,1.57,0,0,1,.3,1.15v7.29a1.56,1.56,0,0,1-.3,1.14h0a4.7,4.7,0,0,1-.75,0c-.28,0-.78.18-.81-.18,0-.52.43-.19.68-.23.48-.07.31-.48.31-.75V230.9A2.85,2.85,0,0,1,112.43,229.29Z"/><path class="cls-40" d="M108.49,229.85v8.83l-.19.19v-9Z"/><path class="cls-40" d="M90.27,238.87V232.7c0-.33-.13-.69.18-1v6.17C90.45,238.23,90.58,238.6,90.27,238.87Z"/><path class="cls-37" d="M100.81,230.8c.34-.34.75-.13,1.14-.2C101.59,230.94,101.17,230.73,100.81,230.8Z"/><path class="cls-1" d="M121.63,182.93h4.89a1.57,1.57,0,0,1,.3,1.24v41.25a1.64,1.64,0,0,1-.3,1.23,31.22,31.22,0,0,1-4.89.92,1.75,1.75,0,0,1-.3-1.24V184.17A1.57,1.57,0,0,1,121.63,182.93Z"/><path class="cls-35" d="M121.63,182.93V227.6a.38.38,0,0,0-.37.19l-3.57.57a.25.25,0,0,1-.31-.12,2.83,2.83,0,0,1-.18-1.38V184.47a2,2,0,0,1,.31-1.52Z"/><path class="cls-35" d="M126.52,226.64V182.92h4.12v42.8c-.09.14-.28.06-.37.19l-3.58.75Z"/><path class="cls-36" d="M130.28,225.91a.4.4,0,0,1,.37-.19l4.7-1.12v14.27h-4.51a1.93,1.93,0,0,1-.09-1V226.92a1.83,1.83,0,0,0-.09-1Z"/><path class="cls-40" d="M130.65,225.91c.32.31.18.71.18,1.06v11.92c-.32-.31-.18-.71-.19-1.06C130.64,233.84,130.65,229.87,130.65,225.91Z"/><path class="cls-36" d="M117.5,228.35h.19a2,2,0,0,0-.19,1.17v8.25c0,.92-.28,1.17-1.16,1.12-1.25-.07-2.5,0-3.74,0v-9.6a.37.37,0,0,0,.37-.18A10.64,10.64,0,0,1,117.5,228.35Z"/><path class="cls-1" d="M90.46,182.92v46.82c0,.92,0,1.71-1.14,1.84H85.56V182.92Z"/><path class="cls-1" d="M99.47,230.79a41.84,41.84,0,0,1-4.87.37V182.92h4.89Q99.48,206.86,99.47,230.79Z"/><path class="cls-1" d="M108.3,229.85l-3.75.38c-.83.15-.92-.29-.92-1V182.93h4.88v45.65A2.22,2.22,0,0,1,108.3,229.85Z"/><path class="cls-1" d="M117.5,228.35a35.82,35.82,0,0,1-4.5.76c-.61-.16-.37-.66-.37-1V182.92h4.9Z"/><path class="cls-1" d="M157.89,215.77c-.32-.31-.19-.71-.19-1.07V184.2a2.09,2.09,0,0,0-.18-1.28h5.07a2.45,2.45,0,0,1,.3,1.45V211.5a2.16,2.16,0,0,1-.3,1.27v.17C161,213.8,159.55,215,157.89,215.77Z"/><path class="cls-35" d="M162.58,212.77V182.92h4.12a1.61,1.61,0,0,1,.32,1.25v24c0,.41-.16.79-.13,1.2l-.38.37A28.69,28.69,0,0,1,162.58,212.77Z"/><path class="cls-1" d="M166.9,209.38c-.32-.32-.18-.71-.18-1.07V182.92h4.9v21a18.39,18.39,0,0,0-2,2.45C168.8,207.45,167.72,208.3,166.9,209.38Z"/><path class="cls-2" d="M115.81,63.61h9.75a.49.49,0,0,1,0,.17.94.94,0,0,1-.85.28h-6.42a1.05,1.05,0,0,1-.78-.23l-1.89,0v-.15Z"/><path class="cls-36" d="M76.56,64h4.88a1.25,1.25,0,0,1,.3.87c0,3.57.07,7.15,0,10.71a1.17,1.17,0,0,1-.11.33A24,24,0,0,1,77,78.15a.41.41,0,0,1-.54-.16.5.5,0,0,1,0-.13,3.44,3.44,0,0,1-.11-1V65.37A1.79,1.79,0,0,1,76.56,64Z"/><path class="cls-38" d="M76.56,64V78.08a.21.21,0,0,1,0,.26c-1.06.7-2.27,1.1-3.35,1.76-.23.15-.5.28-.77,0V65.19c0-1.19,0-1.19,1.23-1.19Z"/><path class="cls-51" d="M72.4,80.15c1.23-.36,2.23-1.21,3.42-1.67a1.61,1.61,0,0,1,.7-.2,1.52,1.52,0,0,1,.3,1.22v9.36a1.85,1.85,0,0,1-.3,1.25v.18c-1.41.62-2.79,1.31-4.12,2.06Z"/><path class="cls-37" d="M81.44,75.83V64h4.14a1.21,1.21,0,0,1,.28.86c0,3,.09,6.08,0,9.16a1.66,1.66,0,0,1-.12.31A23.94,23.94,0,0,1,81.83,76,.58.58,0,0,1,81.44,75.83Z"/><path class="cls-36" d="M112.62,64h4.88l.13.12a1.67,1.67,0,0,1,.16.82V74.3a1.75,1.75,0,0,1-.08.55.7.7,0,0,1-.19.29,2,2,0,0,1-1.53,0,14.24,14.24,0,0,1-3.42-.64.74.74,0,0,1-.16-.32c-.18-3.15-.06-6.3-.06-9.44A1.11,1.11,0,0,1,112.62,64Z"/><path class="cls-36" d="M103.61,64h4.88a1.29,1.29,0,0,1,.29.91V73a1.63,1.63,0,0,1-.18.81.07.07,0,0,1-.06.07,10.37,10.37,0,0,1-5-.57,2.2,2.2,0,0,1-.21-1.18V65.19A1.68,1.68,0,0,1,103.61,64Z"/><path class="cls-36" d="M85.58,74.33V64h4.88a1.29,1.29,0,0,1,.29.87v7.39a1.68,1.68,0,0,1-.11.55.89.89,0,0,1-.72.53q-1.92.42-3.78,1A.62.62,0,0,1,85.58,74.33Z"/><path class="cls-36" d="M94.6,64h4.87a1.44,1.44,0,0,1,.3,1.06V72a1.65,1.65,0,0,1-.23,1c-.07.06-.12.15-.22.16a12.63,12.63,0,0,1-4.78-.33,1.59,1.59,0,0,1-.25-1v-6.8A1.41,1.41,0,0,1,94.6,64Z"/><path class="cls-38" d="M108.49,74V64h4.13V74.33a1.33,1.33,0,0,1-1.16.21,18.42,18.42,0,0,1-2.85-.47Z"/><path class="cls-37" d="M99.47,73V64h4.14v9.39l-.12.11a10.13,10.13,0,0,1-3.91-.37Z"/><path class="cls-38" d="M94.6,64v8.82l-.12.12a21.08,21.08,0,0,1-3.89.17l-.13-.1V64Z"/><path class="cls-67" d="M117.51,63.84l8.07-.06h17.83l4,.06c-.12.5-.56.42-.91.44H121.63c-1,0-2.06,0-3.09,0a1.48,1.48,0,0,1-1.06-.29h0Z"/><path class="cls-38" d="M175.72,108.14A31.76,31.76,0,0,1,174,105a20.75,20.75,0,0,0-2.38-3.83v-.37a4.13,4.13,0,0,1-.31-1.74V65.32c0-.53-.1-1.09.31-1.53h.91a4.33,4.33,0,0,0,2.2.15c.79,0,1,.22,1,1v43.2Z"/><path class="cls-36" d="M171.6,63.83v37a36.85,36.85,0,0,0-4.19-5.41l-.7-.61a.72.72,0,0,1-.2-.31,6,6,0,0,1-.1-1.58V66.5a7.82,7.82,0,0,0-.26-2.68Z"/><path class="cls-36" d="M157.51,105.32l-.19-.19a4.4,4.4,0,0,1-.11-1.2V89.34a5.49,5.49,0,0,1,.17-1.76V65.41a9.41,9.41,0,0,1-.07-1.59h6.41c-1,.7-.81,1.76-.81,2.75V89.22a4.94,4.94,0,0,1-.11,1.58.69.69,0,0,1-.2.28,2.08,2.08,0,0,1-1.24-.58c-.82-.56-1.64-1.12-2.51-1.63-.71-.41-.82-.35-.84.5s0,1.83,0,2.75v12C158,104.51,158.18,105.1,157.51,105.32Z"/><path class="cls-38" d="M162.58,91V65.54c0-.92,0-1.65,1.14-1.72h2.45c.65.19.56.73.56,1.22V94.65c-.25.12-.43,0-.58-.2a34.55,34.55,0,0,0-3.21-2.83A.81.81,0,0,1,162.58,91Z"/><path class="cls-37" d="M157.33,63.82c.46.29.36.75.36,1.17V87.66s-.05.06-.07,0a7.79,7.79,0,0,1-4.28-2.4,4.66,4.66,0,0,1-.07-1.12V65.4a3.11,3.11,0,0,1,.13-1.29c.33-.49.92-.09,1.29-.33Z"/><path class="cls-38" d="M144.55,64a10.23,10.23,0,0,0,2.81-.17h.57c.29.18.73-.09.92.35a3.53,3.53,0,0,1,.14,1.29V81.81a4.14,4.14,0,0,1-.12,1.31.57.57,0,0,1-.74.31l0,0c-1.09-.4-2.2-.79-3.27-1.27a.82.82,0,0,1-.47-.54,4.35,4.35,0,0,1-.1-1.3V65.49A2.11,2.11,0,0,1,144.55,64Z"/><path class="cls-67" d="M148.68,64c-.25,0-.54.08-.75-.17h6.76c-.34.3-.75.11-1.12.17a1.2,1.2,0,0,1-.77.28h-3.35A1.22,1.22,0,0,1,148.68,64Z"/><path class="cls-50" d="M85.58,74.33A20.74,20.74,0,0,1,90.46,73h0a1.71,1.71,0,0,1,.27,1.24v10.3a1.69,1.69,0,0,1-.31,1.23h0a15.59,15.59,0,0,0-4.88.75h0a1.47,1.47,0,0,1-.3-1.23V75.57a1.66,1.66,0,0,1,.3-1.24Z"/><path class="cls-50" d="M94.6,72.82c1.63-.13,3.24.22,4.87.19h0a1.67,1.67,0,0,1,.3,1.24V85.1a1.69,1.69,0,0,1-.3,1.25h0c-1.63-.09-3.24-.4-4.87-.37h0a1.75,1.75,0,0,1-.31-1.25V74.07A1.74,1.74,0,0,1,94.6,72.82Z"/><path class="cls-50" d="M103.61,73.39a42.39,42.39,0,0,1,4.88.56h0a1.69,1.69,0,0,1,.3,1.25v11a1.65,1.65,0,0,1-.3,1.23h0l-4.32-.57c-.13-.22-.36-.18-.56-.18a1.74,1.74,0,0,1-.31-1.25V74.58a1.72,1.72,0,0,1,.31-1.24Z"/><path class="cls-50" d="M112.62,74.48c1.65,0,3.24.51,4.88.56a1.57,1.57,0,0,1,.3,1.24V87.7a1.67,1.67,0,0,1-.3,1.24h0l-3.94-.76c-.27-.31-.62-.14-.92-.19a1.75,1.75,0,0,1-.3-1.24v-11A1.62,1.62,0,0,1,112.62,74.48Z"/><path class="cls-50" d="M76.57,90.11v-12A43.32,43.32,0,0,1,81.44,76c.4.41.3.92.3,1.42.05,3.48-.09,6.94.08,10.41a.39.39,0,0,1-.38.19C79.73,88.57,78.22,89.5,76.57,90.11Z"/><path class="cls-50" d="M121.83,89.92l-.2-.19a1.36,1.36,0,0,1-.29-.91V76.64a1.77,1.77,0,0,1,.07-.46.83.83,0,0,1,.16-.31,12.18,12.18,0,0,1,4.7.83.72.72,0,0,1,.42.48,3.51,3.51,0,0,1,.12,1.21V89.61a2,2,0,0,1-.3,1.43h0A37.48,37.48,0,0,0,121.83,89.92Z"/><path class="cls-51" d="M94.59,72.82V86a33.5,33.5,0,0,0-4.13-.2V73A20.36,20.36,0,0,1,94.59,72.82Z"/><path class="cls-51" d="M103.61,73.39V86.73l-4.14-.33V73Z"/><path class="cls-51" d="M81.82,87.85c-.57-.11-.37-.58-.37-.91V75.82a34.59,34.59,0,0,1,4.13-1.5V86.53A35.64,35.64,0,0,0,81.82,87.85Z"/><path class="cls-51" d="M112.62,74.48V88l-4.12-.57V74l4.13.38Z"/><path class="cls-50" d="M130.65,92.17c-.21,0-.43,0-.56-.18a4.75,4.75,0,0,0,.27-1.75V79.48a3.54,3.54,0,0,1,.16-1.48.92.92,0,0,1,1.09-.3c1.17.27,2.33.59,3.49.92a.88.88,0,0,1,.61.53,2.63,2.63,0,0,1,.13,1V92.42a1.58,1.58,0,0,1-.29,1.24h0C133.93,93.12,132.3,92.58,130.65,92.17Z"/><path class="cls-51" d="M121.63,75.83v13.9a19.85,19.85,0,0,1-3.4-.67L117.5,89V75.08h0A8.73,8.73,0,0,1,121.63,75.83Z"/><path class="cls-51" d="M130.65,77.9V91.07c0,.4.19.92-.56.92l-3.56-.92V77l.11-.11a8.64,8.64,0,0,1,4,.77A.21.21,0,0,1,130.65,77.9Z"/><path class="cls-50" d="M140,95.36a.39.39,0,0,0-.38-.18,1.52,1.52,0,0,1-.29-1.07V81.36a2.35,2.35,0,0,1,.11-.83c.26-.49.67-.37,1.06-.26,1,.29,2,.64,3,.92a2,2,0,0,1,1.16,1,3.56,3.56,0,0,1,.12,1.3V95.7c0,.51.11,1.07-.3,1.51h0Z"/><path class="cls-51" d="M162.58,91a50.57,50.57,0,0,1,4.13,3.61v22c0,.36.15.75-.17,1.06a32.82,32.82,0,0,0-2.67-4.82c-.4-.66-.85-1.29-1.28-1.94h0a4.8,4.8,0,0,1-.31-1.83V92.58c0-.51-.11-1.07.3-1.51Z"/><path class="cls-51" d="M139.66,80.34V95.18l-4.12-1.51V79l.14-.06a14.12,14.12,0,0,1,4,1.11.18.18,0,0,1,0,.26Z"/><path class="cls-50" d="M148.87,99.5l-.56-.38c.16-4.58,0-9.17.07-13.75a5.59,5.59,0,0,1,.09-1.63c.27-.51.68-.33,1.05-.19,1.16.44,2.27,1,3.41,1.51.45.19.57.62.8,1a3.24,3.24,0,0,1,.11,1.12v13.75a1.8,1.8,0,0,1-.29,1.42h0A31,31,0,0,0,148.87,99.5Z"/><path class="cls-51" d="M148.68,83.53V98.12c0,.35.25.85-.36,1l-3.76-1.83V82c-.06,0-.07-.08-.06-.11s0-.07.06-.07l4.13,1.5a.11.11,0,0,1,.05.13S148.7,83.53,148.68,83.53Z"/><path class="cls-50" d="M162.58,91V111a29,29,0,0,0-4.69-5.26l-.38-.37c.32-.31.18-.71.18-1.07V89c0-.28-.16-.67.19-.85s.56.18.8.34C160,89.3,161.3,90.18,162.58,91Z"/><path class="cls-51" d="M153.57,102.32V85.82c-.06,0-.07-.08-.06-.12s0-.06.06-.06q2,1.13,4.12,2.06a2.18,2.18,0,0,0-.18,1.18v15.23c0,.35.15.75-.18,1.06Z"/><path class="cls-68" d="M157.1,130.51v14.06c-.24-.18-.19-.45-.19-.68V131.13C157,130.91,156.91,130.69,157.1,130.51Z"/><path class="cls-69" d="M143,156.06V163c-.31-.42-.15-.92-.15-1.36V157C142.86,156.64,142.76,156.31,143,156.06Z"/><path class="cls-38" d="M121.63,75.83a32.22,32.22,0,0,1-4.13-.75V64h4.13a1.71,1.71,0,0,1,.31,1.24V74.6A1.52,1.52,0,0,1,121.63,75.83Z"/><path class="cls-36" d="M144.55,81.81V82a18.77,18.77,0,0,0-4.89-1.69v-.19a1.75,1.75,0,0,1-.3-1.24V65.21a1.77,1.77,0,0,1,.3-1.24h4.89Z"/><path class="cls-36" d="M130.65,77.9v-.19a1.75,1.75,0,0,1-.3-1.24V65.24a1.75,1.75,0,0,1,.3-1.24h4.88a1.61,1.61,0,0,1,.31,1.24V77.79a1.61,1.61,0,0,1-.29,1.24h0C133.9,78.68,132.35,78,130.65,77.9Z"/><path class="cls-38" d="M135.54,79.06V64h4.13V80.15C138.25,79.92,136.91,79.39,135.54,79.06Z"/><path class="cls-36" d="M121.63,75.83V64h4.89a1.64,1.64,0,0,1,.3,1.23V75.72a1.67,1.67,0,0,1-.3,1.24h0a27,27,0,0,0-4.17-.92Q122,76,121.63,75.83Z"/><path class="cls-38" d="M126.52,77V64h4.13V77.74A36.2,36.2,0,0,0,126.52,77Z"/><path class="cls-36" d="M153.57,85.6v.18a21.46,21.46,0,0,0-4.89-2.25V64h4.89Z"/><path class="cls-9" d="M180.55,123.55v53a16.48,16.48,0,0,1,0,2.81.28.28,0,0,1-.24-.1.89.89,0,0,1-.12-.38,4.81,4.81,0,0,0-.1-.84.53.53,0,0,0-.21-.21,6,6,0,0,0-1.59-.07H69.45a2.79,2.79,0,0,1-1.73-.22,2.35,2.35,0,0,1-.07-1V124.93c0-1.21,0-1.26,1.26-1.26H169.18a.65.65,0,0,1,.34,0,22.55,22.55,0,0,1,1.73,3.93,247.23,247.23,0,0,1,8.8,29.17c.15.64.17,1.3.28,2a10.11,10.11,0,0,1-.18-1.9V124.54a5.23,5.23,0,0,1,0-.56.91.91,0,0,1,.12-.31A.28.28,0,0,1,180.55,123.55Z"/><g class="cls-70"><g class="cls-70"><path d="M86,142.89V128.27H93.9c4,0,6.08,1.19,6.08,3.59q0,2.55-3.67,3.26,4.43.74,4.42,3.88c0,2.6-2,3.89-6,3.89Zm5.14-8.26h1.58c1.46,0,2.19-.89,2.19-2.68s-.78-2.47-2.32-2.47H91.17Zm0,7.05h1.46c1.92,0,2.88-.91,2.88-2.72q0-3.12-3-3.12H91.17Z"/></g><g class="cls-70"><path class="cls-71" d="M86,142.89V128.27H93.9c4,0,6.08,1.19,6.08,3.59q0,2.55-3.67,3.26,4.43.74,4.42,3.88c0,2.6-2,3.89-6,3.89Zm5.14-8.26h1.58c1.46,0,2.19-.89,2.19-2.68s-.78-2.47-2.32-2.47H91.17Zm0,7.05h1.46c1.92,0,2.88-.91,2.88-2.72q0-3.12-3-3.12H91.17Z"/></g><g class="cls-70"><path d="M116.44,136H113.2a6.39,6.39,0,0,1,.3-.93,2.12,2.12,0,0,0,.18-.79q0-.69-.6-.69c-.3,0-.59.3-.87.91a4.62,4.62,0,0,0-.41,1.91v6.47h-4.73v-10.8H108a28.27,28.27,0,0,0,3.81-.29v1.78a3.35,3.35,0,0,1,2.82-1.78c1.52,0,2.29.7,2.29,2.08a4.58,4.58,0,0,1-.22,1.26C116.63,135.34,116.55,135.63,116.44,136Z"/></g><g class="cls-70"><path class="cls-71" d="M116.44,136H113.2a6.39,6.39,0,0,1,.3-.93,2.12,2.12,0,0,0,.18-.79q0-.69-.6-.69c-.3,0-.59.3-.87.91a4.62,4.62,0,0,0-.41,1.91v6.47h-4.73v-10.8H108a28.27,28.27,0,0,0,3.81-.29v1.78a3.35,3.35,0,0,1,2.82-1.78c1.52,0,2.29.7,2.29,2.08a4.58,4.58,0,0,1-.22,1.26C116.63,135.34,116.55,135.63,116.44,136Z"/></g><g class="cls-70"><path d="M124.55,131.81q6.48,0,6.49,5.66t-6.49,5.66q-6.49,0-6.49-5.66T124.55,131.81Zm0,1c-1.05,0-1.57,1.56-1.57,4.7s.52,4.7,1.57,4.7,1.58-1.56,1.58-4.7S125.6,132.77,124.54,132.77Z"/></g><g class="cls-70"><path class="cls-71" d="M124.55,131.81q6.48,0,6.49,5.66t-6.49,5.66q-6.49,0-6.49-5.66T124.55,131.81Zm0,1c-1.05,0-1.57,1.56-1.57,4.7s.52,4.7,1.57,4.7,1.58-1.56,1.58-4.7S125.6,132.77,124.54,132.77Z"/></g><g class="cls-70"><path d="M149.89,132.09l-4.29,10.8h-3l-1.77-5.47-1.77,5.47h-3l-4.29-10.8h4.94l2.3,6.34,1.87-6.34h3.06l2,6.34,2.41-6.34Z"/></g><g class="cls-70"><path class="cls-71" d="M149.89,132.09l-4.29,10.8h-3l-1.77-5.47-1.77,5.47h-3l-4.29-10.8h4.94l2.3,6.34,1.87-6.34h3.06l2,6.34,2.41-6.34Z"/></g><g class="cls-70"><path d="M162.59,142.89h-4.73V135c0-.8-.27-1.21-.81-1.21a1.71,1.71,0,0,0-1.44,1A4.12,4.12,0,0,0,155,137v5.91h-4.73V132.07a40.51,40.51,0,0,0,4.73-.27v2a5.48,5.48,0,0,1,4.3-2c2.2,0,3.29.92,3.29,2.77Z"/></g><g class="cls-70"><path class="cls-71" d="M162.59,142.89h-4.73V135c0-.8-.27-1.21-.81-1.21a1.71,1.71,0,0,0-1.44,1A4.12,4.12,0,0,0,155,137v5.91h-4.73V132.07a40.51,40.51,0,0,0,4.73-.27v2a5.48,5.48,0,0,1,4.3-2c2.2,0,3.29.92,3.29,2.77Z"/></g><g class="cls-70"><path d="M98.54,158.69l-2.39.37a3.79,3.79,0,0,0,.16-1q0-2.55-3.75-2.55c-2,0-3,.59-3,1.76,0,.88,1.1,1.63,3.3,2.26,4.26,1.21,6.38,3,6.38,5.36a3.87,3.87,0,0,1-1.79,3.33,8.09,8.09,0,0,1-4.75,1.26q-6.59,0-6.58-4.21a5.66,5.66,0,0,1,.07-.84l2.47-.45a5.61,5.61,0,0,0-.28,1.61c0,1.82,1.25,2.73,3.77,2.73,2,0,3-.66,3-2,0-1-1.2-1.82-3.62-2.56q-5.22-1.58-5.22-5.06a3.69,3.69,0,0,1,1.74-3.18,8,8,0,0,1,4.59-1.21Q98.54,154.35,98.54,158.69Z"/></g><g class="cls-70"><path class="cls-71" d="M98.54,158.69l-2.39.37a3.79,3.79,0,0,0,.16-1q0-2.55-3.75-2.55c-2,0-3,.59-3,1.76,0,.88,1.1,1.63,3.3,2.26,4.26,1.21,6.38,3,6.38,5.36a3.87,3.87,0,0,1-1.79,3.33,8.09,8.09,0,0,1-4.75,1.26q-6.59,0-6.58-4.21a5.66,5.66,0,0,1,.07-.84l2.47-.45a5.61,5.61,0,0,0-.28,1.61c0,1.82,1.25,2.73,3.77,2.73,2,0,3-.66,3-2,0-1-1.2-1.82-3.62-2.56q-5.22-1.58-5.22-5.06a3.69,3.69,0,0,1,1.74-3.18,8,8,0,0,1,4.59-1.21Q98.54,154.35,98.54,158.69Z"/></g><g class="cls-70"><path d="M116.68,168.84a11.12,11.12,0,0,1-3.38.56c-1.63,0-2.63-.42-3-1.26a4.36,4.36,0,0,1-3.4,1.31c-2.76,0-4.13-1.06-4.13-3.17q0-2.42,3.78-3.39,3.48-.9,3.48-2.16c0-1.11-.67-1.66-2-1.66-1.54,0-2.31.53-2.31,1.61a3.41,3.41,0,0,0,.37,1.32l-2.35-.37a5.41,5.41,0,0,1-.09-.94q0-2.58,5.68-2.58,5.39,0,5.39,2.4v6.56c0,.67.26,1,.79,1a2,2,0,0,0,.73-.23Zm-6.7-6.11a4.16,4.16,0,0,1-1,.7,2.45,2.45,0,0,0-1.46,2.38c0,1.43.34,2.14,1,2.14,1,0,1.48-.71,1.48-2.12Z"/></g><g class="cls-70"><path class="cls-71" d="M116.68,168.84a11.12,11.12,0,0,1-3.38.56c-1.63,0-2.63-.42-3-1.26a4.36,4.36,0,0,1-3.4,1.31c-2.76,0-4.13-1.06-4.13-3.17q0-2.42,3.78-3.39,3.48-.9,3.48-2.16c0-1.11-.67-1.66-2-1.66-1.54,0-2.31.53-2.31,1.61a3.41,3.41,0,0,0,.37,1.32l-2.35-.37a5.41,5.41,0,0,1-.09-.94q0-2.58,5.68-2.58,5.39,0,5.39,2.4v6.56c0,.67.26,1,.79,1a2,2,0,0,0,.73-.23Zm-6.7-6.11a4.16,4.16,0,0,1-1,.7,2.45,2.45,0,0,0-1.46,2.38c0,1.43.34,2.14,1,2.14,1,0,1.48-.71,1.48-2.12Z"/></g><g class="cls-70"><path d="M131.34,158.15v11.08h-4.73V167.5a5.24,5.24,0,0,1-4.2,1.93q-3.47,0-3.46-2.79v-8.22c1.59,0,3.16-.14,4.73-.27v8.4c0,.72.27,1.09.8,1.09,1.42,0,2.13-1.26,2.13-3.77v-5.45C128.19,158.37,129.77,158.28,131.34,158.15Z"/></g><g class="cls-70"><path class="cls-71" d="M131.34,158.15v11.08h-4.73V167.5a5.24,5.24,0,0,1-4.2,1.93q-3.47,0-3.46-2.79v-8.22c1.59,0,3.16-.14,4.73-.27v8.4c0,.72.27,1.09.8,1.09,1.42,0,2.13-1.26,2.13-3.77v-5.45C128.19,158.37,129.77,158.28,131.34,158.15Z"/></g><g class="cls-70"><path d="M146.3,164.4l2,.51v.44q0,4.11-5.45,4.11-6.45,0-6.45-5.41a5.37,5.37,0,0,1,1.88-4.32,7.44,7.44,0,0,1,5-1.62q4.54,0,4.55,3.41l-2.22.89,0-1c0-1.54-.63-2.31-1.88-2.31q-2.49,0-2.49,4.54a9.56,9.56,0,0,0,.53,3.85,2,2,0,0,0,2,1c1.76,0,2.63-.94,2.63-2.82A9,9,0,0,0,146.3,164.4Z"/></g><g class="cls-70"><path class="cls-71" d="M146.3,164.4l2,.51v.44q0,4.11-5.45,4.11-6.45,0-6.45-5.41a5.37,5.37,0,0,1,1.88-4.32,7.44,7.44,0,0,1,5-1.62q4.54,0,4.55,3.41l-2.22.89,0-1c0-1.54-.63-2.31-1.88-2.31q-2.49,0-2.49,4.54a9.56,9.56,0,0,0,.53,3.85,2,2,0,0,0,2,1c1.76,0,2.63-.94,2.63-2.82A9,9,0,0,0,146.3,164.4Z"/></g><g class="cls-70"><path d="M161.09,165.27l1.9.46c-.2,2.5-2,3.74-5.34,3.74-4.36,0-6.53-1.8-6.53-5.39a5.66,5.66,0,0,1,1.73-4.28,6.14,6.14,0,0,1,4.45-1.68c3.78,0,5.66,2,5.66,6h-6.89q0,4.25,2.6,4.24a2.14,2.14,0,0,0,2.44-2.4C161.11,165.8,161.1,165.55,161.09,165.27Zm-5-2.31h2.82c0-2.52-.46-3.77-1.37-3.77s-1.3.93-1.4,2.79Z"/></g><g class="cls-70"><path class="cls-71" d="M161.09,165.27l1.9.46c-.2,2.5-2,3.74-5.34,3.74-4.36,0-6.53-1.8-6.53-5.39a5.66,5.66,0,0,1,1.73-4.28,6.14,6.14,0,0,1,4.45-1.68c3.78,0,5.66,2,5.66,6h-6.89q0,4.25,2.6,4.24a2.14,2.14,0,0,0,2.44-2.4C161.11,165.8,161.1,165.55,161.09,165.27Zm-5-2.31h2.82c0-2.52-.46-3.77-1.37-3.77s-1.3.93-1.4,2.79Z"/></g></g><rect class="cls-71" width="250" height="250"/></svg>