<svg id="Layer_1" data-name="Layer 1" xmlns="http://www.w3.org/2000/svg" viewBox="0 0 250 250"><defs><style>.cls-1{fill:#e1e1e1;}.cls-2{fill:#d4d1c1;}.cls-3{fill:#c8c4b2;}.cls-4{fill:#5d1f05;}.cls-5{fill:#470900;}.cls-6{fill:#8f9eb1;}.cls-7{fill:#a8a399;}.cls-8{fill:#b0bfd2;}.cls-9{fill:#c7c2b8;}.cls-10{fill:#e6e5df;}.cls-11{fill:#905e48;}.cls-12{fill:#e1ded9;}.cls-13{fill:#d0d9e4;}.cls-14{isolation:isolate;}.cls-15{fill:#fefdfc;}.cls-16{fill:#e09c2f;}.cls-17{fill:#fdf9f2;}.cls-18{fill:#fdfaf4;}.cls-19{fill:#fdfaf5;}.cls-20{fill:#e3a542;}.cls-21{fill:#f9eedb;}.cls-22{fill:#e4a848;}.cls-23{fill:#f9edda;}.cls-24{fill:#f6e5c8;}.cls-25{fill:#faf0e0;}.cls-26{fill:#f8e9d0;}.cls-27{fill:#e19f34;}.cls-28{fill:#fefffe;}.cls-29{fill:#e1a038;}.cls-30{fill:#e3a33e;}.cls-31{fill:none;}</style></defs><title>products</title><path class="cls-1" d="M170.32,125.22v94.05c0,6.13-1.57,11.55-5.44,15.82a6.72,6.72,0,0,0-1.62,4.31,12.47,12.47,0,0,1-4.71,9.3,5.83,5.83,0,0,1-3.68,1.3H94.19c-2.79,0-6.31-2.29-7.64-6.39a15.2,15.2,0,0,1-1-4.73A5.53,5.53,0,0,0,84,235a19.92,19.92,0,0,1-5.21-11.63,22,22,0,0,1-.17-2.93V125.19c.77-.91,1.78-.79,2.73-.79,28.87,0,57.74-.07,86.62.1C168.8,124.57,169.66,124.43,170.32,125.22Z"/><path class="cls-2" d="M170.32,125.22H78.65a9.86,9.86,0,0,1-3.82-.85c-2.63-1.3-3.88-3.85-4-7.11s0-6.34,0-9.55c.1-4.55,2.75-7.55,6.61-7.55,19.86,0,39.72-.09,59.63,0,10.86.06,21.71-.76,32.57-.43.8,0,1.66-.32,2.38.41a1.86,1.86,0,0,1-1.69.72c-4.8.06-9.6.08-14.41,0a2.78,2.78,0,0,1-.94-.2c2.21,1.06,3.35,3.42,3.5,6.41a107.27,107.27,0,0,1,0,10.76,8,8,0,0,1-2.95,6.24c5.07-.11,10.35-.12,15.62,0a1.49,1.49,0,0,1,1.27.65C171.81,125.49,171,125.1,170.32,125.22Z"/><path class="cls-3" d="M172.39,124.78H154.06c.44-1.06,1.36-1.15,1.86-1.86a9.3,9.3,0,0,0,2-5.72c0-2.7-.09-5.39,0-8.08.16-3.77-.58-6.44-4.58-9H172c3.4.35,5.74,3.18,5.78,7.11.05,3.58.06,7.15,0,10.74S175.45,124.37,172.39,124.78Z"/><path class="cls-4" d="M139,235.2c-.9,0-1.79.08-2.69.09H92.77c-6,0-9.84-3.51-11.46-10.33a19.45,19.45,0,0,1-.58-4.35V198.05a1.43,1.43,0,0,1,1-.71c2.88-.12,5.77-.61,8.63.32.92.92.76,2.21.76,3.41V218a16.44,16.44,0,0,0,.61,4.82c1.38,4.63,4.52,7,8.4,6.27,3.4-.65,6.11-4.37,6.23-8.83.13-6.28,0-12.57.06-18.86,0-1.44-.12-3,1.25-3.86a4.18,4.18,0,0,1,1.83-.34c12.65,0,25.3-.09,37.95.05,6-.13,12,0,18-.05a3,3,0,0,1,2.34.76v.5c-.87.88-1.93.73-3,.73H150.59c-2.29,0-2.48.23-2.48,3v18.15a19.07,19.07,0,0,1-1.91,8.67C144.63,232.29,142.48,234.92,139,235.2Z"/><path class="cls-4" d="M80.76,148.74V135.5c0-1.95,0-1.95,1.72-1.95h63.3c.77,0,1.53.06,2.26.09a106.63,106.63,0,0,1,.06,14.3,1.89,1.89,0,0,1-.45,1.07,2.79,2.79,0,0,1-2,.49c-12.35,0-24.7,0-37,0a3.66,3.66,0,0,1-.81-.1c-1.29-.42-1.15-1.86-1.44-3-1.61-6.17-6.94-8.78-11.46-5.56-1.8,1.3-2.72,3.35-3.37,5.64-.3,1.05-.33,2.29-1.4,2.82a55.43,55.43,0,0,1-7.94.15A1.71,1.71,0,0,1,80.76,148.74Z"/><path class="cls-5" d="M139,235.2a12.49,12.49,0,0,0,6.65-6.15,17.48,17.48,0,0,0,2-8.11V201.3c0-2.85,0-2.86,2.33-2.86h18a9.57,9.57,0,0,1,.13,2.67V220a18.34,18.34,0,0,1-3.14,10.91c-1.39,2-3.06,3.53-5.29,3.91-.51.4-1.14,0-1.65.35C151.62,235.36,145.28,235.33,139,235.2Z"/><path class="cls-6" d="M167.87,197.92H147.6c-.76-.93-.65-2.11-.65-3.25V167.81a5.74,5.74,0,0,1,.58-3.26,3.42,3.42,0,0,1,2.75-.74h14.85a3.4,3.4,0,0,1,2.74.78Z"/><path class="cls-7" d="M167.87,164.54H147.65l-.29-.33c-.81-3.12-.32-6.32-.38-9.48-.1-4.63,0-4.63-4-4.64-11.94,0-23.88.07-35.82-.05-5.5.08-11,.09-16.48,0-2.54.11-5.08,0-7.64,0a2.8,2.8,0,0,1-2.3-.76v-.56a80.93,80.93,0,0,0,9.85.06,2.7,2.7,0,0,1,2.12-.75c4.1,0,8.2,0,12.31,0a2.91,2.91,0,0,1,2.13.71c.55,0,1.09.13,1.64.13h37.55c.41,0,.82-.05,1.24-.08.86-.88,1.91-.75,2.93-.76h14.16c2.29,0,2.46-.22,2.49-2.9s0-5.54,0-8.3a5.13,5.13,0,0,1,.66-3.25c.57.33.44,1,.44,1.5,0,4.14.29,8.32-.07,12.43C167.72,153.18,168.09,158.87,167.87,164.54Z"/><path class="cls-8" d="M90.65,198H80.82q0-10.89-.06-21.77V164.53c.84-.91,1.91-.77,2.91-.74,2.23.1,4.5-.36,6.71.35a1.43,1.43,0,0,1,.57.65,6.75,6.75,0,0,1,.31,2.4v28.14a7.51,7.51,0,0,1-.19,1.95A1.9,1.9,0,0,1,90.65,198Z"/><path class="cls-5" d="M167.86,133.59c0,4.56,0,9.14.06,13.7,0,1-.1,1.71-1.2,1.69-6.38-.12-12.75.17-19.1-.17V136.46a5.55,5.55,0,0,1,.41-2.81C154.64,133.44,161.25,133.5,167.86,133.59Z"/><path class="cls-9" d="M90.65,164.54H80.72V149.28l9.93.1a2.76,2.76,0,0,1,.55,1.77c.08,3.91.1,7.75,0,11.62A2.56,2.56,0,0,1,90.65,164.54Z"/><path class="cls-4" d="M158,235.19c.48-.61,1.08-.4,1.66-.36A1.7,1.7,0,0,1,158,235.19Z"/><path class="cls-10" d="M99.92,109h17.33c.41,0,.83,0,1.24,0a3.44,3.44,0,0,1,.09,6.84,8.85,8.85,0,0,1-1,0H81.86a9,9,0,0,1-1,0,3.45,3.45,0,0,1-3-3.36A3.49,3.49,0,0,1,80.73,109a11.53,11.53,0,0,1,1.44,0Z"/><path class="cls-8" d="M147.65,164.54l-.05,33.35c-.82,0-1.65.09-2.47.09l-37.54,0a.54.54,0,0,1-.7-.31,6.63,6.63,0,0,1-.4-2.85V167.51a7.86,7.86,0,0,1,.3-2.64,1.46,1.46,0,0,1,.56-.7,6.15,6.15,0,0,1,3.05-.41h33.85c1.15,0,2.36-.24,3.36.77Z"/><path class="cls-11" d="M107.13,197.86l.46.16a4.57,4.57,0,0,0-.43,2.83V220c0,4.13-1.62,7.22-4.76,9-4.27,2.45-8.86.27-10.8-4.86a15.16,15.16,0,0,1-.95-5.47c0-6.87,0-13.75,0-20.63v-.23a2.92,2.92,0,0,1,2.14-.65q6.1,0,12.26,0A2.77,2.77,0,0,1,107.13,197.86Z"/><path class="cls-11" d="M107.17,148.76l-16.52,0a15.75,15.75,0,0,1,1.79-5.91c2.72-4.93,9.16-5.91,12.82-.43A10.59,10.59,0,0,1,107.17,148.76Z"/><path class="cls-9" d="M147.6,164.54H107.17c-.13-.3-.09.13-.14-.18a39.88,39.88,0,0,1,.07-15h38.49c2,0,2,0,2,2.46C147.62,156.05,147.6,160.29,147.6,164.54Z"/><path class="cls-12" d="M107.1,149.36q0,7.6.07,15.18h0a2.85,2.85,0,0,1-2.3.77q-5.94,0-11.88,0a2.83,2.83,0,0,1-2.29-.77h0q0-7.57.06-15.14C96.15,149.2,101.63,149.28,107.1,149.36Z"/><path class="cls-13" d="M90.65,164.54h16.49v33.31c-5.51.18-11,.24-16.52,0Q90.65,181.19,90.65,164.54Z"/><g class="cls-14"><path d="M114.41,175.13V176a1.57,1.57,0,0,0-.72.41,1,1,0,0,0-.25.68,1.14,1.14,0,0,0,.21.68,2.16,2.16,0,0,0,.67.55c.22.12.7.35,1.45.68a7.87,7.87,0,0,1,1.07.55,3.65,3.65,0,0,1,.72.61,3.22,3.22,0,0,1,.9,2.28,3.52,3.52,0,0,1-1.84,3.13,4.44,4.44,0,0,1-1,.4,4.37,4.37,0,0,1-1,.14v-.89a2,2,0,0,0,1-.45,1.06,1.06,0,0,0,.29-.78,1.17,1.17,0,0,0-.46-.92,5.25,5.25,0,0,0-1.16-.63q-.95-.42-1.29-.6a5.32,5.32,0,0,1-.67-.42,3.24,3.24,0,0,1-1.44-2.77,3.71,3.71,0,0,1,.36-1.63,3,3,0,0,1,1-1.2A4.06,4.06,0,0,1,114.41,175.13ZM114,185.24v.89a3.18,3.18,0,0,1-1.39-.37l-.39-.17a.76.76,0,0,0-.21,0,.39.39,0,0,0-.23.05,1.14,1.14,0,0,0-.24.25.39.39,0,0,1-.3.17c-.28,0-.43-.22-.43-.67v-2.82a.54.54,0,0,1,.13-.37.41.41,0,0,1,.3-.16.36.36,0,0,1,.27.1,1,1,0,0,1,.16.37,5.47,5.47,0,0,0,.51,1.25,4,4,0,0,0,.78,1A2,2,0,0,0,114,185.24Zm1-9.22v-.85a4.12,4.12,0,0,1,.79.12,8.16,8.16,0,0,1,1,.35.73.73,0,0,0,.25.07.25.25,0,0,0,.22-.11l.16-.22a.38.38,0,0,1,.3-.17.32.32,0,0,1,.3.15.86.86,0,0,1,.1.48v2.55a.51.51,0,0,1-.13.37.39.39,0,0,1-.32.15.48.48,0,0,1-.28-.1.61.61,0,0,1-.12-.16,2,2,0,0,1-.08-.29,2.92,2.92,0,0,0-.29-.79,3,3,0,0,0-.48-.72A2.66,2.66,0,0,0,115,176Z"/><path d="M123.68,176a1.06,1.06,0,0,0-.55.38,1.32,1.32,0,0,0-.16.7V184a1.73,1.73,0,0,0,.19,1,.81.81,0,0,0,.52.34v.85a4.35,4.35,0,0,1-2.84-1.3,5.66,5.66,0,0,1-1.49-4.19,7.22,7.22,0,0,1,.39-2.44,4.76,4.76,0,0,1,1.17-1.84,4.13,4.13,0,0,1,1.27-.89,4.23,4.23,0,0,1,1.5-.34Zm.63,0v-.84a4.33,4.33,0,0,1,1.51.34,4.13,4.13,0,0,1,1.27.89,5.73,5.73,0,0,1,1.56,4.28,5.66,5.66,0,0,1-1.49,4.19,4.31,4.31,0,0,1-2.85,1.3v-.85a1.68,1.68,0,0,0,.31-.12.72.72,0,0,0,.2-.22,1.75,1.75,0,0,0,.21-1v-6.93a1.33,1.33,0,0,0-.14-.65.67.67,0,0,0-.22-.25A1.49,1.49,0,0,0,124.31,176Z"/><path d="M135.25,181.07v3.38a.69.69,0,0,0,.11.43.35.35,0,0,0,.12.1l.35.09a.42.42,0,0,1,.37.43.37.37,0,0,1-.21.34,1,1,0,0,1-.47.08h-3.93a.92.92,0,0,1-.48-.09.39.39,0,0,1-.2-.33.41.41,0,0,1,.37-.43l.35-.09a.33.33,0,0,0,.11-.1.69.69,0,0,0,.11-.43v-2.62l-2.16-5.23a.85.85,0,0,0-.35-.43,1.4,1.4,0,0,1-.26-.21.34.34,0,0,1-.06-.22c0-.26.2-.4.58-.4h3.75a.79.79,0,0,1,.41.07.38.38,0,0,1,.2.33.43.43,0,0,1-.23.38l-.22.14a.29.29,0,0,0-.13.26.85.85,0,0,0,.09.38Zm.3-.74-.43-1,.8-1.82a1.62,1.62,0,0,0,.1-.64.66.66,0,0,0-.49-.64,1.63,1.63,0,0,1-.35-.19.37.37,0,0,1-.08-.25.39.39,0,0,1,.14-.32.51.51,0,0,1,.21-.1l.39,0h1.89c.36,0,.54.15.54.44a.43.43,0,0,1-.07.24,1.06,1.06,0,0,1-.28.17,2,2,0,0,0-.54.34,2.46,2.46,0,0,0-.38.57l-.18.4Z"/></g><path class="cls-15" d="M147.07,151.14a3,3,0,0,1,1,3.25,66.53,66.53,0,0,0-1.53,8.37c-.86,2.16-.76,4.63-1.63,6.92-14.13-7.9-28.27-8-42.53-.05-.35-.15-.39-.69-.48-1.13-.93-4.71-1.77-9.45-2.78-14.14a2.77,2.77,0,0,1,1.23-3.32,34.11,34.11,0,0,1,12.23-5.65,44,44,0,0,1,28,2A56.35,56.35,0,0,1,147.07,151.14Z"/><path class="cls-16" d="M144,167.14c-13.64-6.82-27.1-6.86-40.66,0-1-3.31-1.41-6.75-2.12-10.08-.85-4.09-.81-4.13,2.39-6a37.75,37.75,0,0,1,15.55-4.89,42.28,42.28,0,0,1,19.86,2.6,30,30,0,0,1,6.56,3.56,1.87,1.87,0,0,1,.94,2.14C145.65,158.61,144.83,162.81,144,167.14Z"/><path class="cls-17" d="M114.68,151.13a8.43,8.43,0,0,1,1.23-.15c1.74.06,1.94.31,2.29,2.33.28,1.68,0,3.55,1.66,5.1-2.15.43-3.88.89-5.63,1.09-1.08.13-1.62-.78-1.7-2.06a3.88,3.88,0,0,1,.66-2.19c.23-1.12,1.47-1.46,1.53-2.74A2.17,2.17,0,0,1,114.68,151.13Z"/><path class="cls-18" d="M138,161.22c-1.52-.53-2.09-1.85-1.9-3.62s.92-3.43,2.47-4.09a2.58,2.58,0,0,1,3.21.88,4.16,4.16,0,0,1,.3,4.38c-1,.93-3.16-.91-3.2,2C138.71,161.2,138.46,161.47,138,161.22Z"/><path class="cls-18" d="M123.15,156.93c1.21.19,1.32-.87,1.4-1.85a27.26,27.26,0,0,0,0-3.26c0-1.21.55-1.45,1.4-1.46s1.13.53,1.12,1.46c0,1.56,0,3.13,0,4.7-.07,2-.54,2.48-2.1,1.85-.47-.19-.85-.47-1.35-.28a.8.8,0,0,1-.43-1.16Z"/><path class="cls-17" d="M106.36,154.7c0,.7.36,1.05.94,1.12a9.9,9.9,0,0,1,2,.32c2.17.7,2.5,2.26,1,4.51-.65.32-1.05-.36-1.58-.54-.82-.48-1.8-.52-2.54-1.24-1.88-2-1.92-2.16-.64-4.35A.57.57,0,0,1,106.36,154.7Z"/><path class="cls-19" d="M131.51,158.17l.32.52a1.09,1.09,0,0,1-1.36.2h0a4.62,4.62,0,0,1-.85-6.3c1.23-1.88,3.05-2,5-.33-.19.59.11,1.3-.42,1.8-.91-.16,0-2.34-1.41-1.86-.95.32-1,1.38-1.15,2.35s-.25,1.9-.38,2.86A2.47,2.47,0,0,0,131.51,158.17Z"/><path class="cls-19" d="M123.15,156.93l.47,1.18c-2.21.87-2.91.36-3-2.23,0-1.18,0-2.36,0-3.54s0-2,1.23-2,1.31.78,1.3,1.86C123.13,153.79,123.15,155.35,123.15,156.93Z"/><path class="cls-20" d="M138.65,160.5c0-.19-.07-.39-.07-.57,0-2.4,0-2.4,1.88-1.73.55.2,1.11.38,1.66.57a2.49,2.49,0,0,1-.38,1.81C140.71,160.23,139.64,162.7,138.65,160.5Z"/><path class="cls-21" d="M109.13,159.37l1.13,1.3a3.2,3.2,0,0,1-3.45,1.09c-1.14-.33-1.47-1.19-.67-2.39C107.14,158.85,108.12,160.69,109.13,159.37Z"/><path class="cls-22" d="M115.16,152a1.23,1.23,0,0,1-.1,1.93l0,0a17.63,17.63,0,0,1-1.86,1.3c-.3-.65-1.16-.9-1-1.91C113.25,153.14,113.74,151.12,115.16,152Z"/><path class="cls-23" d="M130.45,158.88l1.38-.19a1.51,1.51,0,0,0,1.81-1.44c.1-.52.36-1,.81-.72s.31.86.17,1.3a1.88,1.88,0,0,1-1.85,1.58C131.87,159.44,131.14,159.63,130.45,158.88Z"/><path class="cls-24" d="M115.16,152c-.61.12-1.34,0-1.53,1-.28,1.66-.88.89-1.46.28.38-1.46,1.18-2.25,2.49-2.22Z"/><path class="cls-25" d="M106.36,154.7l-.86-.18a2.55,2.55,0,0,1,3.54-.9.79.79,0,0,1,.36,1.17.46.46,0,0,1-.83.11C107.87,154,107.14,154.17,106.36,154.7Z"/><path class="cls-26" d="M138.65,160.5c.84.65,1.42.45,2.06-.52s.87-.08,1,.6c-1.07,1.54-2.29,1.66-3.7.65Z"/><path class="cls-27" d="M109.13,159.37c0,1.53-.84,1.43-1.64,1.08a6.35,6.35,0,0,1-1.35-1.11v-.47A6.45,6.45,0,0,1,109.13,159.37Z"/><path class="cls-28" d="M134.13,154.05c0-.65-.1-1.3.42-1.8C135.09,153.08,135.44,153.83,134.13,154.05Z"/><path class="cls-23" d="M131.51,158.17a.83.83,0,0,1-.32-.77Z"/><path class="cls-29" d="M116.09,156.7c0,.45.08,1.15-.41,1.2-.83.08-.77-.84-.81-1.45s.17-1.11.6-1.1C116.14,155.37,116,156.16,116.09,156.7Z"/><path class="cls-30" d="M140.66,155.7c-.09.53-.06,1.2-.77,1.16a.61.61,0,0,1-.58-.68.13.13,0,0,1,0-.06c.14-.61.26-1.43,1-1.37C140.71,154.78,140.65,155.3,140.66,155.7Z"/><rect class="cls-31" width="250" height="250"/></svg>