<svg id="Layer_1" data-name="Layer 1" xmlns="http://www.w3.org/2000/svg" viewBox="0 0 250 250"><defs><style>.cls-1{fill:#adb0d7;}.cls-2{fill:#8b93b4;}.cls-3{fill:#dbcfb5;}.cls-4{fill:#f1ede3;}.cls-5{fill:#fff;}.cls-6{fill:#c2c4e1;}.cls-7{fill:#c8cae4;}.cls-8{fill:none;}</style></defs><title>products</title><path class="cls-1" d="M33.29,124.76H220.47a11,11,0,0,1,11,11v56.58H22.29V135.75A11,11,0,0,1,33.29,124.76Z"/><path class="cls-2" d="M222.86,141.27v58.11h-192V141.27a7.92,7.92,0,0,1,7.92-7.91H215A7.91,7.91,0,0,1,222.86,141.27Z"/><path class="cls-3" d="M57.48,169.56a31.39,31.39,0,0,1,2.36,12.1c0,13-7.45,23.68-16.58,23.68a13.72,13.72,0,0,1-10-4.82c2.89,6.91,8.17,11.54,14.22,11.54,9.16,0,16.59-10.59,16.59-23.67C64.07,180.71,61.47,173.89,57.48,169.56Z"/><path class="cls-4" d="M43.26,205.37c9.16,0,16.58-10.61,16.58-23.68a31.39,31.39,0,0,0-2.36-12.1,13.69,13.69,0,0,0-10-4.82c-9.16,0-16.54,10.6-16.54,23.63a31.63,31.63,0,0,0,2.36,12.11A13.43,13.43,0,0,0,43.26,205.37Z"/><path class="cls-5" d="M40,177.61a2,2,0,0,1-1.71-3c2.63-4.09,6.19-6.41,10-6.52a2,2,0,1,1,.11,3.93h0c-2.48.07-4.9,1.75-6.81,4.72A2,2,0,0,1,40,177.61Z"/><path class="cls-3" d="M216.28,169.56a31.39,31.39,0,0,1,2.36,12.1c0,13-7.45,23.68-16.58,23.68a13.72,13.72,0,0,1-10-4.82c2.89,6.91,8.17,11.54,14.22,11.54,9.16,0,16.58-10.59,16.58-23.67C222.86,180.71,220.28,173.89,216.28,169.56Z"/><path class="cls-4" d="M202.06,205.37c9.16,0,16.58-10.61,16.58-23.68a31.39,31.39,0,0,0-2.36-12.1,13.69,13.69,0,0,0-10-4.82c-9.16,0-16.58,10.6-16.58,23.67a31.35,31.35,0,0,0,2.36,12.1A13.56,13.56,0,0,0,202.06,205.37Z"/><path class="cls-5" d="M198.77,177.61a2,2,0,0,1-1.7-3c2.62-4.09,6.18-6.41,10-6.52a2,2,0,1,1,.12,3.93c-2.48.07-4.9,1.75-6.81,4.72A1.93,1.93,0,0,1,198.77,177.61Z"/><path class="cls-3" d="M176.58,169.56a31.39,31.39,0,0,1,2.36,12.1c0,13-7.45,23.68-16.58,23.68a13.72,13.72,0,0,1-10-4.82c2.89,6.91,8.17,11.54,14.22,11.54,9.16,0,16.58-10.59,16.58-23.67C183.16,180.71,180.58,173.89,176.58,169.56Z"/><path class="cls-4" d="M162.36,205.37c9.16,0,16.58-10.61,16.58-23.68a31.39,31.39,0,0,0-2.36-12.1,13.69,13.69,0,0,0-10-4.82c-9.16,0-16.58,10.6-16.58,23.67a31.35,31.35,0,0,0,2.36,12.1A13.63,13.63,0,0,0,162.36,205.37Z"/><path class="cls-5" d="M159.07,177.61a2,2,0,0,1-2-1.92,2,2,0,0,1,.31-1.11c2.63-4.09,6.19-6.41,10-6.52a2,2,0,1,1,.11,3.93c-2.48.07-4.9,1.75-6.81,4.72A1.93,1.93,0,0,1,159.07,177.61Z"/><path class="cls-3" d="M136.88,169.56a31.39,31.39,0,0,1,2.36,12.1c0,13-7.45,23.68-16.58,23.68a13.72,13.72,0,0,1-10-4.82c2.89,6.91,8.17,11.54,14.22,11.54,9.16,0,16.59-10.59,16.59-23.67C143.47,180.71,140.88,173.89,136.88,169.56Z"/><path class="cls-4" d="M122.66,205.37c9.16,0,16.58-10.61,16.58-23.68a31.39,31.39,0,0,0-2.36-12.1,13.67,13.67,0,0,0-10-4.82c-9.16,0-16.58,10.6-16.58,23.67a31.35,31.35,0,0,0,2.36,12.1A13.65,13.65,0,0,0,122.66,205.37Z"/><path class="cls-5" d="M119.39,177.61a2,2,0,0,1-2-1.92,1.91,1.91,0,0,1,.31-1.11c2.63-4.09,6.19-6.41,10-6.52a2,2,0,0,1,.12,3.93c-2.48.07-4.9,1.75-6.81,4.72A1.93,1.93,0,0,1,119.39,177.61Z"/><path class="cls-3" d="M97.18,169.56a31.39,31.39,0,0,1,2.36,12.1c0,13-7.45,23.68-16.58,23.68a13.72,13.72,0,0,1-10-4.82c2.89,6.91,8.17,11.54,14.22,11.54,9.16,0,16.59-10.59,16.59-23.67C103.77,180.71,101.17,173.89,97.18,169.56Z"/><path class="cls-4" d="M83,205.37c9.16,0,16.58-10.61,16.58-23.68a31.39,31.39,0,0,0-2.36-12.1,13.67,13.67,0,0,0-10-4.82c-9.16,0-16.58,10.6-16.58,23.63A31.44,31.44,0,0,0,73,200.51,13.58,13.58,0,0,0,83,205.37Z"/><path class="cls-5" d="M79.67,177.61a2,2,0,0,1-1.71-3c2.63-4.09,6.19-6.41,10-6.52a2,2,0,0,1,.11,3.93h0c-2.48.07-4.9,1.75-6.81,4.72A1.93,1.93,0,0,1,79.67,177.61Z"/><path class="cls-6" d="M233.07,201.35l-.84,2.43-3,8.52-1.59,4.56-7.8,22.47a15.18,15.18,0,0,1-14.33,10.18H191.9a12.49,12.49,0,0,1-12.47-12.45,3.56,3.56,0,0,0-2.39-3.48,3.47,3.47,0,0,0-4.38,2.22,3.28,3.28,0,0,0-.17,1.07v.19A12.48,12.48,0,0,1,160,249.51h-17.1a12.44,12.44,0,0,1-12.45-12.43h0a3.59,3.59,0,0,0-2.89-3.61,3.45,3.45,0,0,0-4,2.8,4,4,0,0,0,0,.6v.19a12.47,12.47,0,0,1-12.46,12.45H94a12.45,12.45,0,0,1-12.45-12.43h0a3.58,3.58,0,0,0-2.88-3.61,3.47,3.47,0,0,0-4,2.81,3.92,3.92,0,0,0,0,.59v.19a12.48,12.48,0,0,1-12.47,12.45H48.35A15.2,15.2,0,0,1,34,239.27l-7.73-22.41-1.56-4.56-2.91-8.52L21,201.35Z"/><path class="cls-7" d="M234.34,203.78H19.66a6.55,6.55,0,0,1,0-13.1H234.34a6.55,6.55,0,1,1,0,13.1Z"/><polygon class="cls-1" points="232.23 203.78 229.27 212.3 24.69 212.3 21.78 203.78 232.23 203.78"/><rect class="cls-8" width="250" height="250"/></svg>