<svg id="Layer_1" data-name="Layer 1" xmlns="http://www.w3.org/2000/svg" viewBox="0 0 250 250"><defs><style>.cls-1{fill:#d32144;}.cls-2{fill:#ff3d3d;}.cls-3{fill:#1379da;}.cls-4{fill:#61b6f2;}.cls-5{fill:#ffe21f;}.cls-6{fill:#fff;}.cls-7{fill:#299aea;}.cls-8{fill:none;}</style></defs><title>products</title><path class="cls-1" d="M172.1,229.91H145.69V203.52A26.41,26.41,0,0,1,172.1,229.91Z"/><path class="cls-2" d="M84.09,198.12H75.17a3.77,3.77,0,1,1,0-7.54h8.92a3.77,3.77,0,1,1,0,7.54Z"/><polygon class="cls-3" points="185.43 64.29 66.1 64.29 57.02 42.12 194.51 42.12 185.43 64.29"/><polygon class="cls-3" points="66.11 227.58 185.43 227.58 194.51 249.73 57.02 249.73 66.11 227.58"/><rect class="cls-4" x="66.11" y="63.97" width="119.32" height="43.27"/><rect class="cls-5" x="66.11" y="107.24" width="119.32" height="120.34"/><path class="cls-5" d="M172.7,110.44H78.87a48.45,48.45,0,0,1,93.79,0Z"/><path class="cls-3" d="M157.83,107.24H93.71a34.63,34.63,0,0,1,64.12,0Z"/><path class="cls-6" d="M156,156.61H95.54a20.28,20.28,0,1,1,0-40.56H156a20.28,20.28,0,1,1,0,40.56Zm-60.45-37.4a17.13,17.13,0,1,0-.89,34.25H156a17.13,17.13,0,1,0,.89-34.25H95.54Z"/><path class="cls-3" d="M93.32,129.18c2.34,0,5.58,1,5.58,3.26a1.72,1.72,0,0,1-1.72,1.72h0c-1.75,0-1.43-2.12-3.85-2.12-1.81,0-3.19,1.35-3.19,4.55s1.46,4.69,3.19,4.69c2.53,0,2.17-2.35,4-2.35a1.78,1.78,0,0,1,1.76,1.78c0,2.35-3.25,3.45-5.85,3.45-4.63,0-7-2.8-7-7.35S89,129.18,93.32,129.18Z"/><path class="cls-3" d="M101.09,131.15a1.83,1.83,0,0,1,3.65,0V135H110v-3.85a1.83,1.83,0,0,1,3.64,0v11a1.83,1.83,0,0,1-3.64,0V138h-5.23v4.16a1.83,1.83,0,0,1-3.64,0Z"/><path class="cls-3" d="M116.47,131.11a1.45,1.45,0,0,1,1.26-1.62,1,1,0,0,1,.35,0h7a1.48,1.48,0,0,1,0,2.94h-5v2.78h4.13a1.43,1.43,0,1,1,0,2.86h-4.13v2.77h5.37a1.47,1.47,0,0,1,0,2.93h-7.36a1.45,1.45,0,0,1-1.62-1.27,1.82,1.82,0,0,1,0-.33Z"/><path class="cls-3" d="M128.9,131.11a1.45,1.45,0,0,1,1.27-1.62,1.82,1.82,0,0,1,.33,0h7a1.48,1.48,0,0,1,0,2.94h-5v2.78h4.12a1.43,1.43,0,0,1,0,2.86h-4.12v2.77h5.37a1.47,1.47,0,0,1,0,2.93h-7.39a1.44,1.44,0,0,1-1.61-1.25,2,2,0,0,1,0-.35Z"/><path class="cls-3" d="M146.73,129.15c2.13,0,5.38.89,5.38,2.95a1.59,1.59,0,0,1-1.66,1.52h0c-1.6,0-1.61-1.72-3.82-1.72-1.24,0-2,.58-2,1.23s.36,1.17,1.8,1.51l2.35.5c2.9.62,4.05,2.09,4.05,4.24,0,2.42-1.54,4.68-6,4.68-2.85,0-6-.8-6-3a1.61,1.61,0,0,1,1.64-1.57h.08c1.61,0,1.87,1.51,4.15,1.51,1.51,0,2.34-.45,2.34-1.35,0-.67-.36-1.18-1.73-1.41l-2.34-.49c-2.66-.57-4-1.89-4-4.23S143.09,129.15,146.73,129.15Z"/><path class="cls-3" d="M155,131.11a1.46,1.46,0,0,1,1.27-1.62,1,1,0,0,1,.35,0h7a1.48,1.48,0,0,1,0,2.94h-5v2.78h4.11a1.43,1.43,0,1,1,0,2.86h-4.11v2.77H164a1.47,1.47,0,1,1,0,2.93h-7.36A1.44,1.44,0,0,1,155,142.5a.91.91,0,0,1,0-.33Z"/><path class="cls-3" d="M136.07,192.05H90.37a4.22,4.22,0,0,1,0-8.43h45.7a4.22,4.22,0,0,1,0,8.43Z"/><path class="cls-3" d="M161.12,173.71H90.33a4.22,4.22,0,0,1,0-8.44h70.8a4.22,4.22,0,1,1,0,8.44Z"/><path class="cls-3" d="M161.12,192.05h-10a4.22,4.22,0,1,1,0-8.43h10a4.22,4.22,0,1,1,0,8.43Z"/><path class="cls-7" d="M95.62,227.58H66.09V198.06a29.5,29.5,0,0,1,29.53,29.47Z"/><rect class="cls-8" width="250" height="250"/></svg>