<svg id="Layer_1" data-name="Layer 1" xmlns="http://www.w3.org/2000/svg" viewBox="0 0 250 250"><defs><style>.cls-1{fill:#b6c454;}.cls-2{fill:#a2af3d;}.cls-3{fill:#c8d686;}.cls-4{fill:#df9848;}.cls-5{fill:#d38935;}.cls-6{fill:#a3651f;}.cls-13,.cls-7{fill:#a4651f;}.cls-8{fill:#b6c353;}.cls-9{fill:#a56620;}.cls-10{fill:#a46520;}.cls-11{fill:#fefefe;}.cls-12{fill:#fdfdfd;}.cls-13{isolation:isolate;font-size:18.01px;font-family:BernardMT-Condensed, Bernard MT Condensed;}.cls-14{fill:none;}</style></defs><title>products</title><path class="cls-1" d="M44.48,239V40.4c0-2-.23-1.78,1.72-1.79h140a2.34,2.34,0,0,1,.15,1.2c0,4.86.12,9.72,0,14.57-.23,6.78-.27,13.57-.53,20.37s-.55,13.47-1,20.19c-1.21,16.61-3.08,33.12-7,49.32A98.19,98.19,0,0,1,175,154.63c-.61.87-.93.12-1.27-.28-1.53-1.85-3-3.86-4.39-5.83-.37-.5-.71-1-1.09-1.5-2.14-2.72-5-3.13-7.63-1-6.23,5-12.44,10.09-18.66,15.12-2.3,1.86-4.63,3.75-6.9,5.65-2.62,2-2.49,6-.69,8.12a43.56,43.56,0,0,1,2.78,3.7c.28.44.79.93.16,1.51-.92.41-1.94,0-2.92.06-5.79.16-11.57.41-17.36.29a3.08,3.08,0,0,1-2.21-.47,3.25,3.25,0,0,1-.56-1.63c-1.16-6-2.26-12.09-3.42-18.13a5.86,5.86,0,0,0-2.1-3.71,5.5,5.5,0,0,0-4.71-.7c-5.55,1.14-11.11,2.34-16.66,3.42-.61.12-1.33.61-1.85-.24V110.08a16.6,16.6,0,0,1,.11-3.23c.47-1.11,1-.29,1.36.05a37.84,37.84,0,0,0,8.43,5.69c1.71.86,3.47,1.59,5.24,2.27a2.89,2.89,0,0,1,1.71,1.71,14.93,14.93,0,0,0,6.26,7,28.38,28.38,0,0,0,12,3.82,32.9,32.9,0,0,0,15.86-2c3.82-1.49,7.32-3.63,9.19-7.61a6.42,6.42,0,0,1,4-3.52,36.12,36.12,0,0,0,12-7.41c7.22-6.74,7.64-16.85,1.18-23.77a36.31,36.31,0,0,0-14-8.93,4.84,4.84,0,0,1-3-2.78,13.87,13.87,0,0,0-7.1-7,32.74,32.74,0,0,0-27.21-.85c-4.17,1.67-7.66,4.31-9.41,8.86a2,2,0,0,1-1.28,1.18,42.33,42.33,0,0,0-14.25,8.25c-.31.28-.68.65-1.12.18a2.4,2.4,0,0,1-.17-1.32V66.31a13.56,13.56,0,0,0-3.79-10c-3.61-3.62-7.92-4.74-12.62-3S61.44,58.68,60.83,64a41.6,41.6,0,0,0-.22,4.86V213.43c0,4.2,1.13,7.94,4.26,10.73,3.7,3.27,7.87,4.19,12.41,2.37s7.17-5.32,7.84-10.34a41.54,41.54,0,0,0,0-10.09c0-.6.52-.65.93-.74,6.35-1.43,12.74-2.65,19.11-4,1.34-.29,1.7,0,1.77,1.52.15,2.88.08,5.76,0,8.63s0,6,.08,9a5,5,0,0,0,3.06,4.34,6.93,6.93,0,0,0,1.73.53,11.78,11.78,0,0,0,3.08.19,1.87,1.87,0,0,1,1.57.42c-.34.78-1.07.93-1.68,1.2a124.73,124.73,0,0,1-15.58,5.62,150.48,150.48,0,0,1-25.13,5q-7.86.92-15.79,1.27c-4,.17-8,.12-12,.2A2.47,2.47,0,0,1,44.48,239Z"/><path class="cls-2" d="M44.48,239c2.84,0,5.67.06,8.51,0,5.42-.16,10.84-.51,16.26-1a171.57,171.57,0,0,0,21.37-3.3,128.52,128.52,0,0,0,23.06-7.31l1.42-.62c.49-.22.75-.38,1.22-.62-1.55-.35-3,.22-4.48-.34.59-.64,1.36-.44,2.08-.44h29a12.22,12.22,0,0,0,3-.3,5.2,5.2,0,0,0,4.07-5.55V202.82a9.07,9.07,0,0,1,.09-1.47,3.35,3.35,0,0,1,1.76-2.19c.93.08,1.2.92,1.65,1.56,1.31,1.75,2.83,3,5.11,2.85a5.35,5.35,0,0,0,3.06-1.29c5.45-4.38,10.87-8.82,16.3-13.23l8.76-7.11c2.64-2.15,3.18-5.14,1.47-7.84-3.58-5.2-7.5-10.11-11.18-15.22-.65-.92-1.28-1.79-2-2.65a1.18,1.18,0,0,1-.38-1.21c.86-3.23,1.75-6.48,2.54-9.7,1.24-5.06,2.26-10.18,3.18-15.31.77-4.35,1.39-8.72,1.95-13.09.48-3.71.83-7.41,1.18-11.18.31-3.42.54-6.85.92-10.26.17-1.55.23-3.12.26-4.63.09-4.53.48-9,.62-13.56.2-6.63.28-13.26.54-19.89.21-5.66,0-11.31.18-17a3.13,3.13,0,0,1,.25-1.71q8.46,0,16.91,0c.67,0,.92.21.92.92q0,.41,0,.81V248.27c0,2.21.25,1.94-1.85,1.94H46.1c-1.67,0-1.67,0-1.67-1.73C44.43,245.25,44.43,242.11,44.48,239Z"/><path class="cls-3" d="M85.77,106.39v50.75a5.84,5.84,0,0,1-.27,2.12c-.41.56-1,.57-1.62.69-3.7.8-7.47,1.56-11.2,2.33-3.26.93-4.74,3.36-4.1,6.8,1.94,10.55,4,21.09,5.94,31.63a8.27,8.27,0,0,0,1.12,3.42A5.17,5.17,0,0,0,81,206.38c.92-.16,1.85-.39,2.77-.57.5-.09,1-.25,1.47.16a.92.92,0,0,1,.53.86c-.07,3.71.32,7.41-.5,11a13,13,0,0,1-10.47,9.83c-6.71,1.13-13.52-4.11-14.35-11.21a19.17,19.17,0,0,1-.22-2.27V66.38c0-5.25,1.91-9.46,6.26-12.35,5.11-3.41,12.81-1.94,16.44,3.15a15.33,15.33,0,0,1,2.83,9.16c0,5.18,0,10.34-.06,15.51a.58.58,0,0,0,.09.25c0,1-.8,1.54-1.31,2.23a16.86,16.86,0,0,0-3.29,7.49,15.73,15.73,0,0,0,3.07,12C84.78,104.67,85.73,105.22,85.77,106.39Z"/><path class="cls-4" d="M150.32,200.88v18.65c-.58,3.35-2.91,5.13-6.2,4.82a43.94,43.94,0,0,0-6.69,0c-7.91.47-15.81.16-23.72.18-3.26,0-5.5-2.48-5.55-5.82-.28-10.78-.32-21.57-.26-32.35,0-3.22,1.24-5.1,4-6.27a5.82,5.82,0,0,1,2.87-.22,2.22,2.22,0,0,0,1.36.27c3.81,0,7.64.13,11.44,0,2.57-.12,5.12-.15,7.68-.23.75,0,1.5.53,2.25,0a.63.63,0,0,1,.4-.14c2.09.05,4.16-.33,6.27-.21a6.61,6.61,0,0,1,4.21,1.37,5.92,5.92,0,0,1,1.9,2.84c.81,3.24.5,6.48.31,9.77a10.06,10.06,0,0,0,.06,3.33,1.64,1.64,0,0,1,.14.69C150.59,198.61,150.9,199.81,150.32,200.88Z"/><path class="cls-5" d="M150.31,197.1a8.09,8.09,0,0,1-.15-3.53c.15-3.33.54-6.68-.35-10,.51-.59.93-1.22.42-2s-1.29-.5-2-.38c-1.75-1.56-3.88-1.25-5.94-1.36a22.69,22.69,0,0,0-3.29.27c-.46,0-.93.16-1.36-.23a1.36,1.36,0,0,1,1.67-.19c-1.49-2-3.14-4-4.63-6.17-1.55-2.33-1.49-4.41.09-6.94l10.48-8.62c4.94-4,9.88-8,14.82-12,3.08-2.5,6.21-2,8.58,1.28,1.9,2.64,3.76,5.32,5.88,7.77,1.72,2.38,3.45,4.76,5.16,7.15,2.78,3.92,5.91,7.64,8.53,11.71a5.64,5.64,0,0,1-1.56,6.75l-24.13,19.61c-2.95,2.41-6.64,2.14-8.91-1.17-1.06-1.56-2.28-3-3.23-4.43A2.76,2.76,0,0,1,150.31,197.1Z"/><path class="cls-5" d="M114.7,179.82c-.8.53-1.78.12-2.61.53a5.48,5.48,0,0,0-5.24,5.23c-.13,4.22-.15,8.45,0,12.67.07,1.57,0,1.85-1.42,2.17-7.76,1.57-15.5,3.28-23.28,4.76-3.07.58-5.61-1.2-6.48-4.4-.72-2.73-1.11-5.56-1.64-8.33Q71.81,180.74,69.6,169a7.66,7.66,0,0,1-.15-2.94A5.14,5.14,0,0,1,72.58,162l9.87-2.13c1-.21,2-.4,3-.59,4.69-.93,9.37-2,14.08-2.92a33,33,0,0,1,5.92-1.09c2.84-.06,4.74,1.27,5.34,4.18,1.39,6.72,2.58,13.49,3.85,20.25A.83.83,0,0,1,114.7,179.82Z"/><path class="cls-6" d="M85.77,106.39a20.53,20.53,0,0,1-4.63-8c-1.5-5.94.17-11,4-15.49.24-.27.44-.55.66-.83a41.91,41.91,0,0,1,14.9-8.86,1.45,1.45,0,0,0,1-.93c1.67-4.72,5.22-7.4,9.46-9.14a32.91,32.91,0,0,1,27.5.71,14.52,14.52,0,0,1,7.89,8.27c.31.84.93,1,1.56,1.24a39.58,39.58,0,0,1,12.23,6.78c3.44,2.91,6.23,6.33,7,11.11a16.18,16.18,0,0,1-3.49,13.42c-4.16,5.15-9.68,8.07-15.6,10.29a3.1,3.1,0,0,0-2,2,14.66,14.66,0,0,1-6.86,7.23A30.29,30.29,0,0,1,127,127.74a32.71,32.71,0,0,1-14.67-1.93c-4.16-1.58-8-3.87-10-8.23a5.62,5.62,0,0,0-3.56-3A39.23,39.23,0,0,1,85.77,106.39Z"/><path class="cls-6" d="M72.62,162c-3.31,2.27-3,5.48-2.31,9,1.85,9.44,3.63,18.91,5.41,28.38.51,2.71,1.61,4.81,4.4,5.47a8.82,8.82,0,0,0,4-.41c5.91-1.21,11.81-2.46,17.72-3.71,1.26-.25,2.53-.44,3.79-.7.69-.15,1-.4.92-1.38a47.1,47.1,0,0,1-.13-6.72v-6.06a5.79,5.79,0,0,1,4.71-5.73c.34,0,.7-.13.93.23a5.48,5.48,0,0,0-3.84,5.43c0,7.81-.11,15.65.06,23.46.08,3.19.1,6.37.17,9.56a5.21,5.21,0,0,0,5,5.28c7.3,0,14.61.1,21.91,0,3.17-.06,6.33-.25,9.5,0,2.4.17,4.27-1.53,5.42-4.5,0,3.81-2.4,6.18-6.42,6.18h-32c-2.84-.1-5.3-3-5.22-6.05.15-5.65-.06-11.29,0-16.94,0-1.22-.46-1.23-1.29-1.07-6.16,1.3-12.33,2.58-18.51,3.9-.54.11-1.14,0-1.62.36-1.22.23-2.45.41-3.7.67-3.7.8-6.42-.93-7.16-4.78-1.75-9.08-3.45-18.18-5.16-27.27l-1.07-5.9A5.56,5.56,0,0,1,72.36,162Z"/><path class="cls-7" d="M134.83,166.56c-.31,1.22-1,2.31-.93,3.7.15,2.36,1.69,3.85,2.88,5.56.93,1.28,1.85,2.52,3,4.05h-2.42c-1.15-1.6-2.22-3.27-3.48-4.77C131.91,172.61,132.21,168.27,134.83,166.56Z"/><path class="cls-6" d="M150.31,197.1V194c1.26,1.68,2.36,3.05,3.37,4.49,1.37,2,3,3.22,5.55,2.94a6.58,6.58,0,0,0,3.43-1.71c4.84-3.91,9.66-7.85,14.49-11.77,3.21-2.62,6.48-5.14,9.63-7.84a5.46,5.46,0,0,0,1.68-5.35c-.05-.31-.1-.62-.16-.92,1.93,2.25,1.38,6-1.24,8.17q-10,8.16-20.11,16.29c-1.62,1.31-3.33,2.54-4.85,4-2.57,2.4-6.48,2.21-8.84-1.27a6.85,6.85,0,0,0-1.37-1.75,2.43,2.43,0,0,1-1.31-1.9Z"/><path class="cls-8" d="M150.54,197.36l1.32,1.9c-.74.3-.93,1.2-1.54,1.61C150.43,199.71,150,198.51,150.54,197.36Z"/><path class="cls-9" d="M138.43,194.27a1.78,1.78,0,0,1-1.62,1.73,1.9,1.9,0,0,1-1.68-1.85,1.66,1.66,0,1,1,3.31-.08,1.48,1.48,0,0,1,0,.21Z"/><path class="cls-9" d="M144.14,187.65a1.63,1.63,0,0,1-1.55-1.69,1.91,1.91,0,0,1,1.57-1.79,2,2,0,0,1,1.75,1.79A1.79,1.79,0,0,1,144.14,187.65Z"/><path class="cls-10" d="M114.42,200.07a1.56,1.56,0,0,1,1.52,1.6h0a1.74,1.74,0,0,1-1.69,1.8h0a1.7,1.7,0,0,1,.19-3.4Z"/><path class="cls-9" d="M116,217.42a1.65,1.65,0,0,1-1.52,1.77h-.16a1.8,1.8,0,0,1-1.61-1.78c.2-.93.68-1.72,1.73-1.65a1.59,1.59,0,0,1,1.56,1.62Z"/><path class="cls-10" d="M129.44,203.32a1.52,1.52,0,0,1-1.77-1.24,1.76,1.76,0,0,1,0-.4,1.64,1.64,0,0,1,3.28-.12h0a1.56,1.56,0,0,1-1.34,1.75Z"/><path class="cls-7" d="M123.47,209.6a1.64,1.64,0,0,1-1.67,1.85,1.54,1.54,0,0,1-1.64-1.42v-.24a1.51,1.51,0,0,1,1.37-1.61,1.61,1.61,0,0,1,.31,0A1.54,1.54,0,0,1,123.47,209.6Z"/><path class="cls-7" d="M121.7,196a1.67,1.67,0,0,1,0-3.34h.2a1.47,1.47,0,0,1,1.54,1.41v.19A1.6,1.6,0,0,1,122,196Z"/><path class="cls-7" d="M114,184.4c1.24,0,1.85.64,1.85,1.66a1.62,1.62,0,0,1-3.24,0h0a1.46,1.46,0,0,1,1.25-1.65Z"/><path class="cls-7" d="M129.15,187.66a1.62,1.62,0,0,1-1.54-1.7,1.54,1.54,0,0,1,1.49-1.58h.2a1.48,1.48,0,0,1,1.59,1.36,1.34,1.34,0,0,1,0,.2,1.64,1.64,0,0,1-1.56,1.71Z"/><path class="cls-7" d="M138.46,209.88a1.52,1.52,0,0,1-1.49,1.53h0a1.86,1.86,0,0,1-1.76-1.62,1.55,1.55,0,0,1,1.45-1.64.67.67,0,0,1,.2,0C137.87,208.15,138.42,208.67,138.46,209.88Z"/><path class="cls-7" d="M145.93,217.63a1.45,1.45,0,0,1-1.52,1.35,1.55,1.55,0,0,1-1.6-1.47,1.62,1.62,0,0,1,0-.22,1.58,1.58,0,0,1,1.47-1.7h.14C145.35,215.49,146,216.32,145.93,217.63Z"/><path class="cls-7" d="M145.93,201.7a1.58,1.58,0,0,1-1.57,1.6h-.13c-1-.11-1.45-.79-1.43-1.86a1.38,1.38,0,0,1,1.25-1.51,1.22,1.22,0,0,1,.33,0,1.55,1.55,0,0,1,1.56,1.55A.74.74,0,0,1,145.93,201.7Z"/><path class="cls-7" d="M129.15,215.73a1.6,1.6,0,0,1,1.83,1.33,2.11,2.11,0,0,1,0,.35,1.65,1.65,0,0,1-1.67,1.67,1.5,1.5,0,0,1-1.47-1.66C127.9,216.29,128.33,215.77,129.15,215.73Z"/><path class="cls-9" d="M148.24,181.18c.41-.78,1.1-.66,1.69-.41a1.65,1.65,0,0,1,.93,1.54c0,.71-.27,1.21-1,1.28A5.23,5.23,0,0,0,148.24,181.18Z"/><path class="cls-7" d="M162.7,172.81a1.62,1.62,0,0,1-1.61,1.6,1.92,1.92,0,0,1-1.72-1.66,1.68,1.68,0,0,1,3.33-.37,1.55,1.55,0,0,1,0,.43Z"/><path class="cls-7" d="M181.9,177.13a1.45,1.45,0,0,1-1.38-1.54h0a1.57,1.57,0,0,1,1.27-1.83,1.43,1.43,0,0,1,.29,0,1.72,1.72,0,0,1,1.7,1.69C183.86,176.18,182.94,177.1,181.9,177.13Z"/><path class="cls-7" d="M173.3,173.73c0,1.42-.84,2.3-1.71,2.27a1.84,1.84,0,0,1-1.55-1.85c.15-.88.64-1.63,1.6-1.6S173.28,173.06,173.3,173.73Z"/><path class="cls-7" d="M138.4,170.44c0-1.49.48-2.18,1.53-2.21s1.54.57,1.62,1.63a1.43,1.43,0,0,1-1.08,1.71,1.53,1.53,0,0,1-.43,0C139.14,171.61,138.36,171.2,138.4,170.44Z"/><path class="cls-7" d="M168.65,184.94a1.6,1.6,0,0,1,1.6-1.59,1.68,1.68,0,0,1,1.59,1.76.38.38,0,0,1,0,.1,1.6,1.6,0,0,1-1.61,1.58C169.42,186.91,168.64,186,168.65,184.94Z"/><path class="cls-7" d="M158.42,196.32c-1,0-1.68-.51-1.62-1.61s.51-1.7,1.6-1.66a1.6,1.6,0,0,1,1.67,1.54.88.88,0,0,1,0,.23C160,195.74,159.45,196.44,158.42,196.32Z"/><path class="cls-7" d="M172.94,161.35a1.69,1.69,0,0,1,1.61,1.75,1.65,1.65,0,0,1-3.3.12,1.55,1.55,0,0,1,0-.22A1.68,1.68,0,0,1,172.94,161.35Z"/><path class="cls-7" d="M151.7,162a1.62,1.62,0,0,1-1.41-1.81v0a1.47,1.47,0,0,1,1.28-1.64,1.15,1.15,0,0,1,.32,0,1.51,1.51,0,0,1,1.53,1.49,1.73,1.73,0,0,1,0,.32,1.66,1.66,0,0,1-1.64,1.69Z"/><path class="cls-7" d="M161.15,162c-.12-1.22.54-1.65,1.55-1.65a1.44,1.44,0,0,1,1.55,1.33,1,1,0,0,1,0,.25,1.69,1.69,0,0,1-1.62,1.76h-.1a1.37,1.37,0,0,1-1.38-1.7Z"/><path class="cls-7" d="M165.29,150.46a1.64,1.64,0,0,1-1.67,1.85c-1.11,0-1.53-.82-1.53-1.78a1.36,1.36,0,0,1,1.19-1.5,1.79,1.79,0,0,1,.4,0,1.51,1.51,0,0,1,1.61,1.39Z"/><path class="cls-7" d="M152.39,171.57a1.65,1.65,0,0,1-1.53,1.76h0c-.93.1-1.52-.62-1.59-1.67a1.43,1.43,0,0,1,1.13-1.67,1.08,1.08,0,0,1,.4,0,1.55,1.55,0,0,1,1.6,1.5Z"/><path class="cls-7" d="M161.43,183.66a1.64,1.64,0,0,1-1.68,1.85c-1,0-1.44-.65-1.44-1.67a1.56,1.56,0,0,1,3.12-.18Z"/><path class="cls-7" d="M108.25,175a1.63,1.63,0,0,1,1.52,1.71c0,.78-.93,1.85-1.66,1.74a1.85,1.85,0,0,1-1.65-1.79,1.66,1.66,0,0,1,1.66-1.67Z"/><path class="cls-7" d="M88.87,164.39a1.71,1.71,0,0,1,1.65-1.85,1.74,1.74,0,0,1,1.61,1.65A1.77,1.77,0,0,1,90.45,166h0A1.62,1.62,0,0,1,88.87,164.39Z"/><path class="cls-7" d="M103.85,186.05a1.56,1.56,0,0,1-1.33,1.76l-.2,0a1.77,1.77,0,0,1-1.75-1.77h0a1.92,1.92,0,0,1,1.76-1.63,1.53,1.53,0,0,1,1.52,1.55Z"/><path class="cls-7" d="M89.12,188.9c.07,1.36-.59,1.85-1.46,2a1.82,1.82,0,0,1-1.8-1.74,1.84,1.84,0,0,1,1.7-1.7A1.55,1.55,0,0,1,89.12,188.9Z"/><path class="cls-7" d="M93.5,181.44a1.8,1.8,0,0,1-1.75-1.74A2,2,0,0,1,93.5,178a2,2,0,0,1,1.6,1.86A1.61,1.61,0,0,1,93.5,181.44Z"/><path class="cls-7" d="M97.92,195.15a1.51,1.51,0,0,1-1.37,1.65h-.27c-1,.06-1.47-.7-1.64-1.57a1.64,1.64,0,0,1,3.25-.43,1.93,1.93,0,0,1,0,.34Z"/><path class="cls-7" d="M78.75,184.4a1.52,1.52,0,0,1-1.7-1.31,1.61,1.61,0,0,1,0-.38,1.63,1.63,0,0,1,3.26-.12,1.77,1.77,0,0,1,0,.23C80.27,183.83,79.72,184.5,78.75,184.4Z"/><path class="cls-7" d="M77.36,167.35c-.08,1.14-.78,1.8-1.8,1.66a1.5,1.5,0,0,1-1.42-1.56s0-.11,0-.16c0-.83.93-1.79,1.68-1.67a1.61,1.61,0,0,1,1.53,1.67Z"/><path class="cls-7" d="M81.9,199.81c-1.42,0-1.85-.65-1.92-1.71a1.42,1.42,0,0,1,1.26-1.56,1.19,1.19,0,0,1,.42,0A1.47,1.47,0,0,1,83.2,198a1.22,1.22,0,0,1,0,.33C83.12,199.31,82.51,199.8,81.9,199.81Z"/><path class="cls-7" d="M84.8,172.27a1.6,1.6,0,0,1,1.48,1.7V174A1.41,1.41,0,0,1,85,175.61a.75.75,0,0,1-.26,0,1.55,1.55,0,0,1-1.7-1.38,1.61,1.61,0,0,1,0-.22A1.75,1.75,0,0,1,84.8,172.27Z"/><path class="cls-7" d="M105.32,162.83c-1.08,0-1.69-.44-1.72-1.49a1.66,1.66,0,0,1,1.55-1.76h.16a1.54,1.54,0,0,1,1.52,1.55.41.41,0,0,1,0,.11C106.82,162.18,106.34,163,105.32,162.83Z"/><path class="cls-7" d="M101,171a1.6,1.6,0,0,1-1.64,1.55l-.21,0c-1.1-.07-1.31-.81-1.25-1.75a1.42,1.42,0,0,1,1.29-1.52h.29a1.56,1.56,0,0,1,1.53,1.58A.76.76,0,0,1,101,171Z"/><path class="cls-11" d="M124.49,125.7c-5.5-.08-10.51-.92-15.06-3.7-2.87-1.74-5.19-4-6-7.55-.19-.79-.76-.78-1.24-.93a40.78,40.78,0,0,1-12.59-6.64c-3.27-2.66-5.88-5.83-6.63-10.25C82,91.31,84.08,87,87.67,83.47c4.11-4.09,9.13-6.48,14.43-8.33a2,2,0,0,0,1.49-1.53c1-3.59,3.56-5.76,6.56-7.41,5.63-3.09,11.69-3.7,17.91-3.08A23.84,23.84,0,0,1,140.86,68a10.4,10.4,0,0,1,4,6.06c.17.85.76.93,1.3,1.08,5.17,1.85,10.07,4.15,14.16,8,3.24,3.08,5.36,6.75,5.24,11.53a14.94,14.94,0,0,1-5,10.58c-4.07,4-9,6.38-14.22,8.19a2.12,2.12,0,0,0-1.65,1.72,10.3,10.3,0,0,1-3.91,5.55c-4,3.15-8.59,4.4-13.44,4.91C126.31,125.66,125.24,125.67,124.49,125.7Z"/><path class="cls-12" d="M116.24,94.11a14.39,14.39,0,0,1,.25-3.87c.16-.52.38-1.06,1-1s.79.51.93,1a17.59,17.59,0,0,1,0,8.1c-.13.52-.38,1.07-1,1s-.71-.61-.85-1.08A15.45,15.45,0,0,1,116.24,94.11Z"/><text class="cls-13" transform="translate(89.12 100.83) scale(1.16 1)">crackers</text><rect class="cls-14" width="250" height="250"/></svg>