<svg id="Layer_1" data-name="Layer 1" xmlns="http://www.w3.org/2000/svg" viewBox="0 0 250 250"><defs><style>.cls-1{fill:#986698;}.cls-2{fill:#cfb458;}.cls-3{fill:#835082;}.cls-4{fill:#b69b3f;}.cls-5{fill:#d9cf9c;}.cls-6{fill:#b38eb3;}.cls-7{fill:#fefecb;}.cls-8{fill:#e2d29b;}.cls-9{fill:#825082;}.cls-10{fill:#fefeec;}.cls-11{fill:#606;}.cls-12{fill:#fbf9c9;}.cls-13{fill:none;}</style></defs><title>products</title><path class="cls-1" d="M55.79,208c0-.37-.06-.75-.06-1.13v-97a7.07,7.07,0,0,1,.06-1.13,2.39,2.39,0,0,1,1.58-.41H68.63a2.68,2.68,0,0,1,1.42.33,2.58,2.58,0,0,1,.51,2.06V206a2.74,2.74,0,0,1-.48,2.06,2.94,2.94,0,0,1-1.79.39H57.55A2.74,2.74,0,0,1,55.79,208Z"/><path class="cls-2" d="M55.66,79.49c-4.85-.7-7.69-2.94-7.8-6.15s2.51-5.75,6.77-6.5a14.7,14.7,0,0,1,2.29-.16H158.6a3.89,3.89,0,0,1,.76,0c4.76.49,7.69,2.71,8,6.08.27,3-2.52,5.78-6.78,6.7-.37.09-.73.18-1.11.24s-.68.08-1,.11c-2,.08-4,0-6,0H59.77a16.5,16.5,0,0,1-3.44-.15A2.63,2.63,0,0,1,55.66,79.49Z"/><path class="cls-2" d="M202.55,249.77a3.84,3.84,0,0,1-1.87.19c-13.48,0-27,.09-40.45,0-33.9-.26-67.81,0-101.71-.12a18.68,18.68,0,0,1-5-.31c-3.77-1.06-6.13-3.7-5.74-6.51.46-3.24,3.21-5.32,7.78-5.87.23-.08.47-.15.71-.21a13.16,13.16,0,0,1,2.51-.12H156.7c.77,0,1.53,0,2.3.05a5.84,5.84,0,0,1,1.45.12,9,9,0,0,1,6.28,4.07c1.56,2.73.13,6.24-3.21,7.94a3.1,3.1,0,0,1-1.88.41q19.47-.09,39,0A2.9,2.9,0,0,1,202.55,249.77Z"/><path class="cls-3" d="M160.48,237.24l-1.21-.11a1.21,1.21,0,0,1-.89-1.31c-.06-6.61-.11-13.21,0-19.82a1.27,1.27,0,0,1,.62-1,6.71,6.71,0,0,1,2.81-.33h37.35a5.19,5.19,0,0,1,2.93.47,5.18,5.18,0,0,1,.21,1.11V237c-.73,1-2,.7-3.09.7H166.73A24.73,24.73,0,0,1,160.48,237.24Z"/><path class="cls-4" d="M159.71,79.43c3.58-.84,6.27-2.32,7-5.31.77-3.24-2.21-6.37-6.09-7.11-.41-.07-.91,0-1.24-.29,14.16,0,28.31-.07,42.46,0,4.43,0,8,2.61,8.38,5.7.41,3.63-2.41,6.23-7.68,7.08a3.61,3.61,0,0,1-.67.27,10,10,0,0,1-2.51.14H162.83C161.76,79.9,160.61,80.07,159.71,79.43Z"/><path class="cls-4" d="M160.48,237.24H200a5.37,5.37,0,0,0,2.25-.21c2.86.43,5.27,1.34,6.81,3.28,3.16,4-.32,9-6.55,9.49H160.38c3.42-1,5.31-2.52,6.22-4.74,1.22-3-1.61-6.15-4.44-7.12A16.14,16.14,0,0,0,160.48,237.24Z"/><path class="cls-5" d="M69.91,108.68H55.79a.42.42,0,0,1,0-.27,3.3,3.3,0,0,1,2.13-.43c4,0,8,0,12.06,0q12.12-.09,24.24,0c9.69-.09,19.39,0,29.08,0h32c3,0,3,0,3.09-2.32a9.88,9.88,0,0,1,.27-3.81,1.2,1.2,0,0,1,.5-.42,7.84,7.84,0,0,1,2.64-.26h37.57a9.69,9.69,0,0,1,2.28.16,1.38,1.38,0,0,1,.6.34c-.16,3,.26,6,.26,9q.09,45.78,0,91.57a30.5,30.5,0,0,1-.34,7.2,6.69,6.69,0,0,1-2.27.16H160.45c-1,0-1.44-.52-2.17-.73a16.41,16.41,0,0,0-2.89-.11H94.25q-12.14.08-24.3,0c-4,.07-8.06,0-12.09,0a3.38,3.38,0,0,1-2.13-.48.32.32,0,0,1,0-.27H69.89a3.87,3.87,0,0,1,2.17-.45c7.38,0,14.75-.06,22.13,0,6-.09,11.94,0,17.91,0h46.79c12.9-.08,25.8,0,38.71,0,4.08,0,3.85.2,3.85-2.87V111.91c0-2.77,0-2.76-3.81-2.77-12.9,0-25.81.06-38.71,0-6,.09-11.94,0-17.91,0H94.23c-7.4.08-14.79,0-22.18,0A4,4,0,0,1,69.91,108.68Z"/><path class="cls-6" d="M55.66,79.49H56c.77.63.57,1.42.58,2.17V98.81c0,2,.09,2,2.83,2.06h7.31c2.44,0,2.51-.15,2.51-1.85a9.48,9.48,0,0,1,2.32-6.77c3-3.35,8.9-5,14-3.8,5.42,1.22,9.08,4.75,9.13,8.83v.84c0,2.87-.28,2.74,3.81,2.74h56.78a11,11,0,0,1,3.24.21.42.42,0,0,1,.33.43l-.05.14a4.19,4.19,0,0,1-2.2.39H94.19q-12.14.07-24.3,0c-4,.07-8.07,0-12.11,0a3.36,3.36,0,0,1-2.14-.5Q55.7,90.52,55.66,79.49Z"/><path class="cls-6" d="M159,215.23a.6.6,0,0,1,0,.19c-1,.63-2.19.44-3.35.44H99.37c-5.17,0-4.52-.33-4.56,3.35,0,4.07-2.92,7.25-7.93,8.74-7.17,2.13-14.92-.76-17-6.31a10.31,10.31,0,0,1-.57-4.19c.06-1.08-.53-1.55-2-1.53H58.85c-2,0-2.18.17-2.19,1.68v17.45c0,.74.22,1.53-.56,2.16h-.47q0-9.71.07-19.41c0-.84,0-1.68,0-2.52a3.31,3.31,0,0,1,2.13-.49c4,0,8.06-.06,12.09,0q12.12-.1,24.3,0c6.47-.08,12.94,0,19.41,0h41.53a13.54,13.54,0,0,1,3.24.18A1.13,1.13,0,0,1,159,215.23Z"/><path class="cls-5" d="M158.85,208.35c.57,0,.88.09.66.57-.14.3,0,.43.46.39,4-.35,7.93-.13,11.9-.14,9.28,0,18.56,0,27.84,0a5.69,5.69,0,0,1,2.42.29v5.68H161.48c-.83,0-1.67,0-2.51,0l-.05-.14A9,9,0,0,1,158.85,208.35Z"/><path class="cls-7" d="M69.94,215.08l-14.24.09v-6.9l14.18.06a1.68,1.68,0,0,1,.59,1.68C70.33,211.72,71.13,213.46,69.94,215.08Z"/><path class="cls-7" d="M55.73,101.53l14.24.09c1.15,1.48.42,3.09.58,4.63a2.09,2.09,0,0,1-.6,2.12l-14.17.06Z"/><path class="cls-5" d="M202.16,79.49a1.09,1.09,0,0,1,.36,0q0,10.24-.05,20.51c0,.54.21,1.13-.28,1.67l-.15-.1c-.65-.54-.55-1.23-.55-1.87V81.48A2.08,2.08,0,0,1,202.16,79.49Z"/><path class="cls-6" d="M69.91,108.68H94.25a1.53,1.53,0,0,1,.56,1.32c0,8,.13,16-.06,24-.17,1-1.32,1.3-2.32,1.67-5.27,2.13-10,4.74-13.66,8.32-7.29,7.17-6,15.48,2,21.95a46.35,46.35,0,0,0,11.92,6.61c.91.36,1.86.68,2,1.57.22,2.36.09,4.71.1,7.07v24.46c0,.79.19,1.62-.58,2.31H70v-37Q69.94,139.82,69.91,108.68Z"/><path class="cls-1" d="M158.93,101.31H96.51c-1.87,0-2.43-.37-2.33-1.73.17-2.45.26-4.89-1.85-7.07a14.76,14.76,0,0,0-12.18-3.89c-5.51.92-8.84,3.44-9.86,7.32a16.93,16.93,0,0,0-.3,4.38c0,.73-.36,1-1.36,1-3.72,0-7.45,0-11.17,0-1.56,0-1.37-.68-1.37-1.39Q56,89.71,56,79.49H158.18a4.84,4.84,0,0,1,.76,0c.73.53.62,1.21.63,1.87V99.47C159.56,100.11,159.66,100.79,158.93,101.31Z"/><path class="cls-3" d="M158.93,101.31V79.53l.77-.08h42.45V99.84c0,.57-.06,1.13-.09,1.68H159A1.55,1.55,0,0,0,158.93,101.31Z"/><path class="cls-8" d="M87.26,70.35h23.5c3.24,0,5,2.18,3.53,4.19A3,3,0,0,1,112,75.73c-1.84.13-3.7.26-5.54.26H66.6A23.09,23.09,0,0,1,63,75.76c-2-.3-3.54-1.49-3.4-2.77.18-1.56,1.73-2.64,4-2.65H87.26Z"/><path class="cls-1" d="M56,237.12c0-6.8,0-13.61,0-20.41,0-1.09.5-1.36,1.89-1.33q5.1.09,10.2,0c1.43,0,2,.27,1.85,1.35a9.58,9.58,0,0,0,2.67,8.06C76.41,228.7,85.17,229.27,90,226a8.52,8.52,0,0,0,4.19-8.27c-.16-2.68-.52-2.36,3.08-2.36H158.9v20.11c0,.55-.16,1.14.32,1.68-.57,0-1.15.08-1.67.08H58C57.35,237.21,56.71,237.15,56,237.12Z"/><path class="cls-8" d="M87.26,246.33H64.16c-3.35,0-5.47-2-4.19-4,.84-1.29,2.4-1.72,4.29-1.67h46.19c2.82,0,4.29,1.09,4.19,3-.08,1.68-1.6,2.64-4.3,2.64Z"/><path class="cls-9" d="M158.94,108.66q20.9,0,41.8-.06c1.11,0,1.52.31,1.41,1.08a5.89,5.89,0,0,0,0,.84v95.65c0,1.92,0,1.92-2.57,1.92L158.94,208a1.9,1.9,0,0,1-.61-1.6v-30a3,3,0,0,1,.13-.84c.28-.84,1.32-1.11,2.25-1.39a53.37,53.37,0,0,0,13.85-6.31c5.15-3.35,8.8-7.36,9.41-12.57.52-4.44-1.54-8.26-5.14-11.73-4.51-4.31-10.58-7.09-17.17-9.33-1.18-.41-2.65-.55-3.17-1.68a9.9,9.9,0,0,1-.17-2.82V111C158.33,110.18,158.18,109.35,158.94,108.66Z"/><path class="cls-1" d="M159,175.17V208H94.25V173.73c.72-.41,1.36-.06,2,.13a107.51,107.51,0,0,0,35.49,4.82A107.79,107.79,0,0,0,157,175.33,2.57,2.57,0,0,1,159,175.17Z"/><path class="cls-1" d="M158.94,108.66V133a2.74,2.74,0,0,1-2-.11,113.53,113.53,0,0,0-60.4,1.32c-.74.21-1.45.68-2.34.28V108.7h32.72Z"/><path class="cls-7" d="M94.21,101.61h63.94c.25,0,.5,0,.76.06,0,1.75-.07,3.5.05,5.24.09,1.16-.38,1.53-2,1.53-7.18-.07-14.37,0-21.55,0H94.24a1.52,1.52,0,0,1-.62-1.43C93.82,105.17,93,103.33,94.21,101.61Z"/><path class="cls-7" d="M158.85,208.35c0,2.23.05,4.46.06,6.7-.26,0-.51.06-.77.06H94.21c-1.16-1.48-.43-3.1-.59-4.65a2.06,2.06,0,0,1,.62-2.12Z"/><path class="cls-10" d="M94.24,208.32v6.77H69.94v-6.7Z"/><path class="cls-10" d="M94.21,101.61v6.77H69.91v-6.76Z"/><path class="cls-7" d="M94.21,134.52a106.62,106.62,0,0,1,18.07-4.25A117.05,117.05,0,0,1,159,133c6.71,2,12.95,4.56,18,8.45,10.49,8.06,10.05,18.44-1.07,26A60.73,60.73,0,0,1,159,175.17,112.69,112.69,0,0,1,126.43,179a103.7,103.7,0,0,1-31.26-5.15,7.18,7.18,0,0,0-.92-.2,81.93,81.93,0,0,1-10-4.87c-5.81-3.63-10.06-8-10.63-13.74-.42-4.25,1.54-8.06,5-11.44a42.12,42.12,0,0,1,13.71-8.27C92.91,135.1,93.56,134.79,94.21,134.52Z"/><path class="cls-11" d="M145,152.92c0,3.35,0,6.7,0,10,0,1-.24,1.39-1.77,1.39s-1.77-.37-1.76-1.39c.06-5.86.08-11.73,0-17.59,0-1.22.5-1.53,2.06-1.44a55.53,55.53,0,0,0,5.77,0c1.62-.09,2.35.29,2.72,1.48.74,2.34,1.68,4.64,2.58,7a1.54,1.54,0,0,0,.72,1.08c1-2.8,2-5.56,2.94-8.32.28-.84.72-1.25,2-1.2,2.57.09,5.14.05,7.7,0,1,0,1.34.17,1.33.94,0,6.15,0,12.3,0,18.44,0,.84-.44,1-1.46,1-2.31,0-4.63-.06-6.93,0-1.28,0-1.68-.27-1.62-1.2a92.2,92.2,0,0,0-.28-10.38c-1.19,3.35-2.41,6.7-3.58,10-.31.84-.37,1.83-2.19,1.58-1.6-.23-3.63.68-4.26-1.5-1-3.35-2.43-6.6-3.69-9.89Z"/><path class="cls-11" d="M113.27,154.18V163c0,.94-.23,1.37-1.67,1.31-2.31-.08-4.62-.06-6.93,0-1.11,0-1.44-.26-1.43-1.05.05-2.56,0-5.11,0-7.66,0-1-.38-1.38-1.72-1.25a7.92,7.92,0,0,1-1.54,0c-1-.09-1.31.23-1.3,1,0,2.6,0,5.21,0,7.8,0,.93-.31,1.24-1.6,1.2-2.38-.06-4.75-.05-7.13,0-1,0-1.34-.2-1.33-.95q.06-9.22,0-18.44c0-.73.29-1,1.31-1q3.66.08,7.31,0c1.09,0,1.47.23,1.44,1-.07,1.94,0,3.88,0,5.82-.05.91.38,1.18,1.52,1.07a7.92,7.92,0,0,1,1.54,0c1.21.12,1.54-.25,1.5-1.11-.09-1.89,0-3.79-.06-5.67,0-.84.22-1.2,1.49-1.16q3.45.12,6.93,0c1.26,0,1.67.25,1.67,1.19C113.22,148.13,113.27,151.15,113.27,154.18Z"/><path class="cls-11" d="M115,164.11l4.28-10.71c1.15-2.85,2.32-5.7,3.43-8.56.27-.69.67-1,1.68-1,2.43.07,5.35-.54,7.17.24s1.57,3.13,2.21,4.8c1.82,4.66,3.48,9.36,5.29,14,.38,1,.25,1.35-1.27,1.3-2.3-.08-4.62-.05-6.93,0-1,0-1.43-.2-1.72-.95-1.25-3.15-1.3-3.05-5.94-3.18-2.07-.06-3.07.32-3.55,1.87C118.89,164.49,118.77,164.47,115,164.11Z"/><path class="cls-12" d="M124.53,150.26c.76,2.19,1.48,4.34,2.27,6.46.24.65.16.9-.84.95-4.53.24-4.53.26-3.3-3q.77-2,1.56-4.05C124.23,150.53,124.37,150.43,124.53,150.26Z"/><rect class="cls-13" width="250" height="250"/></svg>