<svg id="Layer_1" data-name="Layer 1" xmlns="http://www.w3.org/2000/svg" viewBox="0 0 250 250"><defs><style>.cls-1{fill:#877d5f;}.cls-2{fill:#6d6048;}.cls-3{fill:#bfac79;}.cls-4{fill:#685c46;}.cls-5{fill:#9d8e63;}.cls-6{fill:#fbfdfd;}.cls-7{fill:#483b22;}.cls-8{fill:#9c9476;}.cls-9{fill:#ee783d;}.cls-10{fill:#7b7054;}.cls-11{fill:#fcfbfb;}.cls-12{fill:#ed814a;}.cls-13{fill:#c4471e;}.cls-14{fill:#c4481e;}.cls-15{fill:#c44a20;}.cls-16{fill:#b35744;}.cls-17{fill:#b55731;}.cls-18{fill:#e47e4b;}.cls-19{fill:#eb814b;}.cls-20{fill:#ea814b;}.cls-21{fill:#ba4d2d;}.cls-22{fill:#a18b6d;}.cls-23{fill:#1a0f0a;}.cls-24{fill:#c77e51;}.cls-25{fill:#cd8052;}.cls-26{fill:#cb8052;}.cls-27{fill:#cf8051;}.cls-28{fill:#b2522a;}.cls-29{fill:#d28051;}.cls-30{fill:#bf481f;}.cls-31{fill:#a07c56;}.cls-32{fill:#b74b23;}.cls-33{fill:#b3582f;}.cls-34{fill:#a47d57;}.cls-35{fill:#a07e59;}.cls-36{fill:#ab7f59;}.cls-37{fill:#a65c38;}.cls-38{fill:#b07f57;}.cls-39{fill:#b35d33;}.cls-40{fill:#c35126;}.cls-41{fill:#bf562e;}.cls-42{fill:#bf5128;}.cls-43{fill:#c05027;}.cls-44{fill:#d77b4b;}.cls-45{fill:#afd4d4;}.cls-46{fill:#c54c23;}.cls-47{fill:#ab5c34;}.cls-48{fill:#e6dcbe;}.cls-49{fill:#574a31;}.cls-50{fill:#887d5f;}.cls-51{fill:#c78454;}.cls-52{fill:#907d5c;}.cls-53{fill:#fdf9f6;}.cls-54{fill:#fdf8f4;}.cls-55{fill:#cf5325;}.cls-56{fill:#d05135;}.cls-57{fill:#d05426;}.cls-58{fill:#b77b4e;}.cls-59{fill:#f9e4d8;}.cls-60{fill:#e97b45;}.cls-61{fill:#d35a2d;}.cls-62{fill:#d86132;}.cls-63{fill:#da6334;}.cls-64{fill:#d85c2b;}.cls-65{fill:#ee783e;}.cls-66{fill:#fcf4ef;}.cls-67{fill:#fdf3ed;}.cls-68{fill:#fbede5;}.cls-69{fill:none;}</style></defs><title>products</title><path class="cls-1" d="M172.26,225.66a3.25,3.25,0,0,1,.11.42,1.66,1.66,0,0,1-.66.68,6.78,6.78,0,0,1-3,.34H80.35a6.28,6.28,0,0,1-3.18-.41,1.25,1.25,0,0,1-.54-.8q-.09-67.37,0-134.72a4.67,4.67,0,0,1,.14-1.34c.84-1,1.87-.82,2.86-.82h63.13a4,4,0,0,1,2.91.69,6.49,6.49,0,0,1,.63,3.65v46.8a9.49,9.49,0,0,1-.3,3c-1.09,1.58-2.64,2.2-3.76.76-2.68-3.43-6.1-3.82-9.48-4.36-4.83-.78-9.7-.81-14.56-1.21a23,23,0,0,1-4.86-.94c-.86-.35-1.52-1.5-2.59-1a2.41,2.41,0,0,1-.65.12,2.51,2.51,0,0,1-.67,0c-1.83-.42-3.64-.89-5.45-1.38a2.6,2.6,0,0,1-2.12-1.6,15,15,0,0,1-.29-4.06c0-8.58.06-17.16,0-25.73,0-4-1.62-6.92-4.6-8.43-2.65-1.34-5.49-.5-7.49,2.16-1.65,2.2-2.08,4.93-2.08,7.84v21.62a12,12,0,0,1-.3,3.78c-1.94,1.58-3.32-.82-4.66-.75.61.59,1.79.76,2.89,1.18.74.27,1.57.32,1.87,1.48a20.53,20.53,0,0,1,.23,4.63V208.4a24.15,24.15,0,0,0,.51,6c1,4,4.1,6.81,7.17,6.41,3.45-.45,5.93-3.52,6.39-7.92a35,35,0,0,0,.09-3.55V174.59a15.88,15.88,0,0,1,.26-4.07c.83-1.48,1.16-.13,1.45.52a19.49,19.49,0,0,1,1.76,8.8,18.32,18.32,0,0,0-2.7-10.55,2.83,2.83,0,0,1-.4-1.24,2.07,2.07,0,0,1,.14-.81c.23-.26.51-.41.78-.21,4.46,3.32,7.3,8.09,8.18,14.6A21.12,21.12,0,0,0,104,167.84c-.9-.78-2.18-1.19-2.27-3a124.41,124.41,0,0,1,.12-14.19,3.7,3.7,0,0,1,1.92-2.38c2.43-1.25,4.91-2.28,7.6-1.8a13.92,13.92,0,0,1,3.5,4.35,1,1,0,0,1-.85,1c-3,.61-5.75,1.83-7.34,5.47,0,.49.55.24.27.2-.07,0-.09-.06-.08-.13.67-3,2.8-3.83,4.71-4.82a7.48,7.48,0,0,1,2.94-.72l.63-.1a3.67,3.67,0,0,1,1.28.17,1.63,1.63,0,0,1,1,1,1.27,1.27,0,0,1-.54,1.32,10,10,0,0,0-5.45,4.8c-.36.67-.88,1.18-.66,1.84,1-3.71,3.47-5.52,6.35-6.71a1.88,1.88,0,0,1,1.49-.54,1.85,1.85,0,0,1,1.47,1.38,1.88,1.88,0,0,1-.52,1.37,9.53,9.53,0,0,0-4.23,5.49c-.21.67-.58,1.31-.07,2,.12.39.27.76.42,1.13a15,15,0,0,0-.66-1.8,10.66,10.66,0,0,1,4.75-7,3.13,3.13,0,0,1,1.06-.81,2.1,2.1,0,0,1,2.1,1.22,2.15,2.15,0,0,1-.25,1.49c-1.64,2.19-3.6,4.17-3.14,7.74,0,.36.44-.06.16,0-.09,0-.14,0-.14-.14,0-2.31.29-4.44,1.91-5.94a8.28,8.28,0,0,0,1.56-2.15,1.85,1.85,0,0,1,.79-.65,2.61,2.61,0,0,1,2.62,1.35,1.86,1.86,0,0,1,0,1.19c-1.39,2.48-2.47,5.07-1.73,8.28a6.52,6.52,0,0,0,2.43,1.83c.18-.05.25.31.45.21-.09-.17-.29,0-.37-.21-1-.58-2-.94-2.56-2.3-.62-3.11.6-5.49,1.91-7.84a1.67,1.67,0,0,1,.73-.9,2,2,0,0,1,1.47,0c2.46.94,4.92.32,7.39,0a9.83,9.83,0,0,0,5.68,1.85c2.11,0,4,3.21,3.61,5.74-1.93-.34-3.79-1.51-5.81-.87-1.12-.43-2.28.14-3.38-.12s-2.11,1.11-2.88.58c1.61-.23,3.55-.95,5.5-.4a1.52,1.52,0,0,1,.43.66c0,.92-.55,1.21-1.08,1.53a1.72,1.72,0,0,1-1,.15,30,30,0,0,0-5,.37c-.71.23-1.43.35-2.15.53-.28.1.22.42,0,.14a16.78,16.78,0,0,1,2.59-.78c1.4.2,2.78-.61,4.18-.11a1,1,0,0,1,.44.68,1.82,1.82,0,0,1-1,1.73,2,2,0,0,1-.69.21,16.35,16.35,0,0,0-6.73.76,14.9,14.9,0,0,1,6-.73c1.18.89,2.85.26,3.74,2-.09,1.84-.94,2.94-2.31,2.92-2.79,0-5.28,1.2-7.79,2.47-2.65-2.09-5.28-4.25-8-6.23a9.65,9.65,0,0,0-1-.79c-.16-.1-.33-.21-.49-.33a8.13,8.13,0,0,0-1.57-.76,2.31,2.31,0,0,1-.54-.28,21.28,21.28,0,0,0-4.6-2.3c-2.15-.51-2.72.15-2.46,2.88.53,5.45,2.11,7.55,6.93,9.23,3.47,1.31,7.07,1.49,10.64,2a4,4,0,0,1,1.29.66c4.49,2.82,9,2.18,13.5,0a7.87,7.87,0,0,0,1.26-.55,3.58,3.58,0,0,1,1.34-.51,1.25,1.25,0,0,1,1.22,1,14.65,14.65,0,0,1,.31,4.33v34.74c0,3.71.13,3.85,3,3.88s5.58-.07,8.37.06c4.06-.14,8.13,0,12.19,0A2.93,2.93,0,0,1,172.26,225.66Z"/><path class="cls-2" d="M172.26,225.66H157.65a4,4,0,0,1-.68-2.52c0-16.38-.17-32.77.08-49.15a4.74,4.74,0,0,1,.72-2.22,15.18,15.18,0,0,0,2.54-7.88c1.74-4.18,1.39-7.62-1.14-11a10.4,10.4,0,0,1-1.89-3.23,16.57,16.57,0,0,1-.34-4.33V94.75c0-1.78-.28-3.71,1-5.1,1.34-.88,2.78-.57,4.18-.6h7.67a2.89,2.89,0,0,1,2.41.79v1.91Z"/><path class="cls-3" d="M173.93,249.69q-14.3,0-28.58.06H74.87a2.76,2.76,0,0,1-.63-.1,11.1,11.1,0,0,0-1-1.06c-2.32-2-3.06-4.81-2.44-8.11s2.39-4.86,4.87-5.43c.35-.08.7-.12,1.06-.18a3.38,3.38,0,0,1,2.66-.79H142a8.24,8.24,0,0,1,1.92.2c4.53,1.49,6.16,3.75,6.15,8.45a7.25,7.25,0,0,1-2.13,5.65h23C172,248.45,173.31,247.86,173.93,249.69Z"/><path class="cls-3" d="M76.77,79a15.27,15.27,0,0,1-1.89-.45c-2.8-1-4.36-3.86-4.2-7.57.16-3.51,2.19-6.27,5-6.77A6.86,6.86,0,0,1,77,64.18H143a4.06,4.06,0,0,1,.85.06c1.63.4,3.41-.06,4.71,1.93a9.91,9.91,0,0,1,1.14,8.21c-.71,2.75-2.3,4.56-4.74,4.76a10.31,10.31,0,0,0-1.68.48,15,15,0,0,1-3.21.2H80.5C79.24,79.81,77.91,80.08,76.77,79Z"/><path class="cls-4" d="M76.77,79c.93,0,1.85-.11,2.78-.12h64.31a1.66,1.66,0,0,1,1.88.1,7.6,7.6,0,0,1,.48,4c-.09,2.17.71,2.89,2.31,2.84,2.14-.07,4.29,0,6.43,0a3.26,3.26,0,0,1,2.67.73.78.78,0,0,1-.18.9c-1.19.86-2.51.59-3.78.59H81.11c-1.57,0-3.21-.26-4.26,1.77V222.6c0,1.19-.06,2.37-.09,3.55-.05.23-.14.29-.3.15V93.75C76.35,88.8,77.12,83.94,76.77,79Z"/><path class="cls-5" d="M145.6,79l-1.74-.1a1.26,1.26,0,0,1,1-.49c2.92-.41,4.62-2.77,4.65-6.42,0-4.64-1.36-6.65-5-7.34-.19,0-.37-.26-.55-.39l17.18-.07h11.39c3.48,0,6.81,3.66,5.85,9.12a6.51,6.51,0,0,1-3.34,5,12.05,12.05,0,0,1-2.28.71,4.09,4.09,0,0,1-2.65.83c-4,0-8,.06-11.94,0-3.21.07-6.42,0-9.63,0C147.46,79.79,146.44,79.9,145.6,79Z"/><path class="cls-4" d="M144.29,235.05H79.34c-.86,0-1.72-.07-2.57-.1v-5.84c.63-1,1.54-.85,2.38-.85h64.26a3.25,3.25,0,0,1,2.09.45c1.18,2,.89,4,.35,6.15C145.37,235.44,144.83,235.3,144.29,235.05Z"/><path class="cls-5" d="M144.29,235.05l1.32-.11a2.86,2.86,0,0,1,2.42-.8c3.2,0,6.4-.09,9.6,0,4.06-.14,8.12,0,12.19,0a3,3,0,0,1,2.43.78,15.89,15.89,0,0,1,2.28.59c4.22,1.78,5.33,8.37,2.12,12.28-.49.6-1.33.81-1.42,1.9a1.72,1.72,0,0,1-1.3,0c-.68-.79-1.5-.44-2.26-.45H146.82a2.84,2.84,0,0,1,1.07-1.54c2.42-2.18,2-8.53-.28-11C146.6,235.58,145.3,235.88,144.29,235.05Z"/><path class="cls-6" d="M76.85,89.8a7.14,7.14,0,0,1,0-2.44,5.18,5.18,0,0,1,2.56-.22h75.64c.85,0,1.71-.06,2.57-.1a1.7,1.7,0,0,1,1.15-.64,116.28,116.28,0,0,1,12.1,0,1.93,1.93,0,0,1,1.34.75,5.74,5.74,0,0,1,0,2.67c-4.72,0-9.44-.18-14.16.07a3.59,3.59,0,0,1-2.41.85h-7.85a2.74,2.74,0,0,1-2.2-.79c-.85,0-1.71-.11-2.57-.11Z"/><path class="cls-7" d="M172.23,87.15l-14.59-.1V86.6c-.85-2.64-1.31-5.24.42-7.64h14.62c-.71,1.49-.36,3.13-.42,4.71C172.21,84.83,172.23,86,172.23,87.15Z"/><path class="cls-7" d="M172.25,234.91c-4.87.16-9.74.15-14.61,0a7.1,7.1,0,0,1,0-6.17,3.81,3.81,0,0,1,2.69-.55h9.39c.89,0,1.88-.23,2.57.86Z"/><path class="cls-1" d="M172.26,229.07l-14.6.07c-2.55,1.37-5.23.49-7.84.65-1.4.08-2.88.43-4.18-.67-.36,0-.72-.08-1.07-.08H76.74a4.56,4.56,0,0,1-.31-2.8.64.64,0,0,0,.3-.14l.11.14c1,1.52,2.31,1.25,3.57,1.26H168c1.45,0,3,.47,4.22-1.24a1.63,1.63,0,0,1,.17-.2A3,3,0,0,1,172.26,229.07Z"/><path class="cls-8" d="M102.19,169.82v41.31c0,6.06-2.67,10-7.45,10.53-3.06.33-6.32-2.16-7.55-7.07a20.15,20.15,0,0,1-.5-4.84v-77.7c-.08-1,.45-.83.91-.8A54.43,54.43,0,0,0,94.84,133a16.22,16.22,0,0,1,7.53,3.44,2.62,2.62,0,0,1,0,2.16c-.81,1-1.73.55-2.61.28-2.21-.67-4.44-1.15-6.62-2,2.55,1,5.21,1.5,7.71,2.7.78.37,1.7.53,2,1.81-.06,2.21,0,4.43-.15,6.64-.23,1.6-1.3,2.17-2.22,2.92a11.09,11.09,0,0,0-2.61,3.57,9.86,9.86,0,0,0,1.61,10.11C100.63,166.09,102.2,167.31,102.19,169.82Z"/><path class="cls-9" d="M102.6,141.33c-2-1.49-4.25-1.89-6.41-2.71a13.82,13.82,0,0,1-3.76-1.69c.68-.73,1.27-.44,1.83-.31,2.64.62,5.22,1.6,7.9,2,1.32-.61,2.49.37,3.72.61,1,.73,2.21.64,3.21,1.4a8.9,8.9,0,0,0-2.4-1c-1.39-1.29-3.1-1.85-4.51-3.12-2.46-.83-4.72-2.52-7.3-2.86-.45-1.53.51-1.5,1.2-1.77,2.08.3,4.24.2,6.08,1.8,2.55,1.09,5.25,1.33,7.84,2.21.46.71-.12,2.16,1,2.37s1.26-1.17,1.87-1.81a12.32,12.32,0,0,0,4.39,1c3.49.09,7,.6,10.45.72a34.41,34.41,0,0,1,9.92,1.59c1.84.63,3.78,1.15,4.78,3.65.28.68.79.64,1.32.5s1.26-.26,1.89-.39c2.19-1.28,4.44-.41,6,1.13,2.07,2,4.45,3.39,6.44,5.52.69.92,1.38,1.83,2.06,2.76,1.75,2.39,2.13,5.28,1.8,8.38a3.74,3.74,0,0,1-1.14,2.53c-.57,1.12-1,2.47-2.34,2.32-3.19.26-6.37,1.21-9.56,0a9.46,9.46,0,0,1-1.83-.77,4.09,4.09,0,0,1-2.24-3.37c-.15-1.93,1.13-2.32,2.1-3a27.34,27.34,0,0,0,2.43-1.72,14.24,14.24,0,0,0,3.38-5.16c.06-.18.21-.3.27-.5l-.23.41a14.85,14.85,0,0,1-3.42,5.2c-3.24,2.78-6.67,4.27-10.6,2.7a2.19,2.19,0,0,1-1.37-1.14c-.15-1.1.54-1.63,1-2.21a18.23,18.23,0,0,0,3.55-7.56c.15-.91-.4-.55-.12-.61-.35,4-2.3,6.83-4.49,9.44-.35.48-.68,1-1.25,1-3,1.67-5.94.59-8.91,0a1.2,1.2,0,0,1-.9-.56,7.75,7.75,0,0,0-2.54-1,1.15,1.15,0,0,1-.9-.62c-.69-.37-1.3-1-2.1-1a1,1,0,0,1-.86-.63,3.71,3.71,0,0,0-1.39-1.09c-.39-.4-1.09-.2-1.26-1l-.84-.62c-.27-.32-.64-.2-.94-.36a2.87,2.87,0,0,1-.81-1.21c-1.1-1.17-2.45-2-3-3.84l.16-.32a11.06,11.06,0,0,0,2.89-3.13,9,9,0,0,1-2,2.27,3.58,3.58,0,0,1-2.66.57,2.55,2.55,0,0,1-.61-.13C107,144.79,104.44,143.89,102.6,141.33Z"/><path class="cls-10" d="M158,150.17c-1.37-.47-2.52-1.75-4-1.74-.41,0-.56-.45-.7-.89a4.7,4.7,0,0,0-3.12-3,15.77,15.77,0,0,0-4.61-1V89.94c4.16-.21,8.31-.13,12.46,0a6.73,6.73,0,0,0-.43,2.91V147.3A7.74,7.74,0,0,0,158,150.17Z"/><path class="cls-10" d="M157.6,173v52.6H147.51c-2,0-2,0-2-2.66V181.38l.18-.32c3.11-1.23,6.07-2.76,8.19-6.13C155.12,174.25,156.12,172.89,157.6,173Z"/><path class="cls-8" d="M102.12,133.69l-6-1.12c-2.66.33-5.26-.63-7.91-.65a6.69,6.69,0,0,0-1.56-1V104.16c0-5.09,2.16-8.76,5.87-10.12,2.81-1,6.58.61,8.13,3.75a13,13,0,0,1,1.49,6.13Q102.11,118.82,102.12,133.69Z"/><path class="cls-11" d="M172.2,226.28c0,2.25,0,2.27-1.9,2.27q-29.06,0-58.13.06H78.49c-1.61,0-1.61,0-1.65-2.35.57,0,1.14-.1,1.71-.1H170.7C171.2,226.21,171.7,226.26,172.2,226.28Z"/><path class="cls-12" d="M120.26,171l5.92,4.33a7.31,7.31,0,0,1,1.94,2.17,6.44,6.44,0,0,1-.5,4.36,29.85,29.85,0,0,1-11.21-2c-.11-.55-.91-.29-.81-1s.58-.76,1-.78c1.3,0,2.51.62,3.78.8,1.54.43,3.14.41,4.14,1-.61-.06-1.65-.74-2.79-.69-2.6-.63-5.19-1.21-7.75-2a5.14,5.14,0,0,1-1.61-.75,1.6,1.6,0,0,1-.82-1.71c.21-.94.89-.83,1.43-.69,2.53.63,5,1.72,7.44,2.59,1.49.8,3.15,1,4.63,1.89a23.58,23.58,0,0,0-3.8-1.53c-3-1.32-6.06-2.14-8.94-3.74a9,9,0,0,1-1.19-.63c-.57-.44-1.16-1-.81-1.93s1-.74,1.51-.54c2,.71,3.88,1.83,5.84,2.68a16.68,16.68,0,0,1,2,1.07c1.5.8,3.07,1.43,4.57,2.27-1.29-.66-2.55-1.36-3.86-1.93-2.87-1.59-5.82-2.92-8.6-4.77a1.8,1.8,0,0,1-1.15-1.84c.13-1,.77-.87,1.35-.69a28.8,28.8,0,0,1,5.26,2.42h0c.66.52,1.47.63,2.14,1.13h0C119.6,170.71,120,170.58,120.26,171Z"/><path class="cls-13" d="M120.65,179.17c-1.6.24-3.13-.82-4.73-.55-.09.62.43.75.44,1.21-4.09-1-6.49-3.94-7.1-9.34-.44-3.84.36-5,3.2-3.89.09.48,0,.76-.42.51-.4.06-.92-.16-1.09.51s.26.79.57,1l9.1,5.11c0,1-.35.87-.83.52l-6.67-2.89c-.61-.27-1.2-.57-1.8-.83-.28-.12-.64-.13-.76.22a.89.89,0,0,0,.43,1.08,3.61,3.61,0,0,0,.61.26l9.85,4.35c0,1-.35.86-.82.52l-8.8-2.61c-.14.91.2,1.28.7,1.45a80.38,80.38,0,0,0,9.34,2.84C121.79,180,121.12,179.26,120.65,179.17Z"/><path class="cls-14" d="M149.9,157.25a14,14,0,0,1-3.61,2.84c-1.36.89-1.54,2-.49,3.41a4.76,4.76,0,0,0,2,1.52,12.76,12.76,0,0,0,8.2.63,16.77,16.77,0,0,1,2.55-.22c-.76,2.11-2.39,1.61-3.68,1.77-2.33.29-4.69-.06-7,.16-1.53.15-3.07.57-2.93,3.27a1.24,1.24,0,0,1-.4,1.08,1,1,0,0,1-1.23-.23,3.58,3.58,0,0,1-1-1.53,2.71,2.71,0,0,1,.36-1.82,6.92,6.92,0,0,1,.59-.83c.58-.58,1-1.59,1.9-1.36.21-.13.4-.45.25-.61a7,7,0,0,1-1.7-3.36c-.19-.84-.86-.85-1.44-.84a10.46,10.46,0,0,1-4-.6,3.22,3.22,0,0,1-2.15-1.62,2,2,0,0,1,.91-1.14c.41-.13.57,0,.46.58,2.77,2.35,5.66,1.93,8.55.51a36.59,36.59,0,0,0,3.45-2.2C149.86,156.52,150,156.72,149.9,157.25Z"/><path class="cls-8" d="M102.17,150.18v15.25c-2-.64-3.67-3.2-3.94-6.23a10.43,10.43,0,0,1,2.22-8.1C101,150.64,101.37,149.79,102.17,150.18Z"/><path class="cls-15" d="M142.56,169.78l.88,1.14c-.8.92-1.93,1-2.76,1.93-1.45,1.59-1.53,2.21-.28,4a9.43,9.43,0,0,0,4.51,3.39c.36.23.81.38.65,1.11v.1l-1.31-.06c-.23.28-.52.24-.8.23a7.5,7.5,0,0,1-1.15-.21,3.45,3.45,0,0,1-.87-.3,13.93,13.93,0,0,1-3.75-3c-2.51-2.9-7.27-1.51-8.74,2.49a2.74,2.74,0,0,1-.62,1.82l-.79-.55a9.94,9.94,0,0,1,.49-4.36c2.6-1.78,5.31-2.93,8.31-2.7,1.16.08,1.36-1.38,2-2.2.34-1.09,1.17-1.47,1.85-2.08a5.54,5.54,0,0,1,1-.58C141.65,169.75,142.12,169.47,142.56,169.78Z"/><path class="cls-16" d="M100.91,151.23c-1,1.66-2.06,3.2-2.22,5.46a9.92,9.92,0,0,0,3.43,8.74c1.14,1.67,2.75,2.55,4,4,3,3.29,4.43,7.58,4.88,12.49-1.34-6.54-4.09-11.67-8.89-14.84-3.65-2.42-5.15-6.65-4.43-12.53a4.43,4.43,0,0,0-.26-.54,8.72,8.72,0,0,1,2.51-3.29A.92.92,0,0,1,100.91,151.23Z"/><path class="cls-17" d="M97.51,154h.42c-1.37,5.52.64,9.44,3.75,12.84a3.86,3.86,0,0,1,.47.9,33.92,33.92,0,0,1,2.53,6,23.1,23.1,0,0,1,.28,8.08,49.55,49.55,0,0,0-.65-6.08c-.53-2.06-.83-4.24-2.12-5.84-.55-1.76-1.73-2.86-2.72-4.16a12.75,12.75,0,0,1-2.27-3.6A10.59,10.59,0,0,1,97.51,154Z"/><path class="cls-18" d="M128.36,182.36v-2.13c.48-.48.81-.16,1.09.36.94,2.08,2.65,1.9,4.14,2.14a15.77,15.77,0,0,0,6.78-.8c.68-.2,1.35-.64,2.08-.24a.57.57,0,0,1,.09.74c-4,2.21-8.13,2.82-12.38,1.14A3.23,3.23,0,0,1,128.36,182.36Z"/><path class="cls-19" d="M142.56,169.78a1.93,1.93,0,0,1-1.28.56c-1.45-.44-3.19.35-4.28-1.62l-.06-.46c-.24-.69.18-.86.52-1.09l.82-.14c1.74-.8,3.36-.8,4.65,1.22Z"/><path class="cls-20" d="M145.12,165.94l-1.73,1.64a7.88,7.88,0,0,1-4.26-1.6v-.11a.78.78,0,0,1,.46-1C141.61,163.79,143.43,164.45,145.12,165.94Z"/><path class="cls-21" d="M100.91,151.23a.9.9,0,0,1-.89-.56c.57-1,1.67-1,2.19-2.1,2.14-2.06,4.44-3.5,7.23-2.87h.47c.4.82,1.63-.48,1.74,1.09h-.06c-3.36.1-6.64.59-9.42,3.32Z"/><path class="cls-22" d="M102.12,167.7a21.86,21.86,0,0,1-4-5.49A10.38,10.38,0,0,1,98,154c.23,0,.53-.48.67.07,0,.21-.11.51-.19.76-1.25,3.82-.14,6.89,1.89,9.67l1.9,2.57C102.18,167.26,102.17,167.48,102.12,167.7Z"/><path class="cls-20" d="M140.42,170.88l-2.09,1.7a1.48,1.48,0,0,0-1.38-.53,2.43,2.43,0,0,1-2.11-1c0-.67.54-.78.87-1.1l.42-.09C137.66,169.58,139.25,168.87,140.42,170.88Z"/><path class="cls-23" d="M112.84,136.46a3.53,3.53,0,0,1-.33,1.81c-.51.94-1.25,1.23-2,.81a1.81,1.81,0,0,1-.71-2.43c.09-.24.16-.5.24-.75a.29.29,0,0,0,.35,0c.22.27.38.25.47-.14C111.76,134.74,112.22,136,112.84,136.46Z"/><path class="cls-24" d="M114.62,152.24a8.6,8.6,0,0,0-5.6,2.25c-1.11,1-2.25,1.92-2.29,4a3.74,3.74,0,0,1,1.21-4.19,12.6,12.6,0,0,1,5.86-3C114,151.65,114.81,151.27,114.62,152.24Z"/><path class="cls-25" d="M123.25,157.87c-.63.85-1.26,1.71-1.89,2.55a5.89,5.89,0,0,0-.62,6.88c-1.82-1.11-1.8-1.2-1.47-3.46.28-1.93.72-3.62,2.16-4.68a5.82,5.82,0,0,0,1-1.41C122.71,157.49,123,157.45,123.25,157.87Z"/><path class="cls-26" d="M117.2,154.45a10.09,10.09,0,0,0-5,3.87c-.75,1.2-1.36,2.22-1,3.83-1-2.1-.83-2,.11-3.77a8.6,8.6,0,0,1,5.42-4.46C117.12,153.65,117.23,154,117.2,154.45Z"/><path class="cls-27" d="M126.71,159.52a2,2,0,0,1-.21.76c-1.64,2.07-1.73,4.65-1.5,7.33.08.52,0,.77-.48.6a7.86,7.86,0,0,1,.42-6.6c.42-.73.83-1.46,1.24-2.19C126.39,159.19,126.57,159.23,126.71,159.52Z"/><path class="cls-28" d="M135.71,169.88a2.2,2.2,0,0,1-.87,1.1h-3.42c-1.14,0-2.2.89-3.36.41C130,170.22,132.44,169.74,135.71,169.88Z"/><path class="cls-29" d="M115.06,163.87a1.84,1.84,0,0,1-.2-2.16c1-2.15,1.88-4.41,3.94-5.25a2.59,2.59,0,0,0,.56-.37c.19-.18.35-.16.48.1-.14.21-.24.53-.41.61-2.36,1.15-3.42,3.71-4.32,6.43A.5.5,0,0,1,115.06,163.87Z"/><path class="cls-30" d="M139.59,164.87l-.46,1a6.13,6.13,0,0,0-4.18-.19,4.88,4.88,0,0,1-2.43.14c2.19-1.27,4.44-.71,6.54-1.36C139.2,164.44,139.41,164.73,139.59,164.87Z"/><path class="cls-31" d="M86.7,130.93c.46,0,1-.08,1.27.55-.14.2-.28.21-.42,0a.87.87,0,0,0-.86.56c-1.58-.9-3.42-1-5.32-2.6C83.51,129.81,85,130.88,86.7,130.93Z"/><path class="cls-32" d="M137.46,167.17c-.17.36-.35.72-.52,1.09h-4.66c-.45.21-.52,0-.41-.53C133.75,167.77,135.56,166.74,137.46,167.17Z"/><path class="cls-33" d="M112,167.11l.42-.51a11.53,11.53,0,0,1,4.77,2.68C115.4,168.94,113.77,167.82,112,167.11Z"/><path class="cls-34" d="M139.12,166c1.37.74,2.95.59,4.26,1.6-.15.21-.31.42-.46.64a8.93,8.93,0,0,0-4.65-1.21Z"/><path class="cls-35" d="M140.42,170.88c-1.29-1.3-2.82-1-4.29-1.09l.87-1.07a4.37,4.37,0,0,0,2.2.59,3.21,3.21,0,0,1,2.08,1Z"/><path class="cls-36" d="M124.52,168.21l.48-.6a10.74,10.74,0,0,1,2.53,2.22h0A4.06,4.06,0,0,1,124.52,168.21Z"/><path class="cls-37" d="M131.87,167.69c.13.18.27.35.41.53-.78.93-1.7.31-2.61.14Z"/><path class="cls-38" d="M115.06,163.87a2.76,2.76,0,0,1,0-.64,11.35,11.35,0,0,1,1.36,3.35A3.68,3.68,0,0,1,115.06,163.87Z"/><path class="cls-39" d="M119.36,170.4a2.3,2.3,0,0,1-2.14-1.13A2.22,2.22,0,0,1,119.36,170.4Z"/><path class="cls-40" d="M114.62,152.24l-.82-1c.32-.1.65-.16.82-.58a1.84,1.84,0,0,1,.94,1c-.06.33-.32.32-.48.48Z"/><path class="cls-41" d="M117.2,154.45c-.17-.17-.33-.35-.5-.53l.51-1c.46.27,1,.43,1.26,1Z"/><path class="cls-42" d="M123.25,157.87l-.85-.12.42-1.06a.9.9,0,0,1,.9.62Z"/><path class="cls-43" d="M119.84,156.19l-.48-.09.5-1.08a.63.63,0,1,1,0,1.17Z"/><path class="cls-44" d="M142.58,182.43v-.55a.86.86,0,0,1-.12-1,.76.76,0,0,1,1,.42v.24l-.15.13h.18v.23A1,1,0,0,1,142.58,182.43Z"/><path class="cls-45" d="M110.82,135.78c.45.24.47.68.08.88s-.56-.26-.55-.74Z"/><path class="cls-46" d="M126.71,159.52l-.52-.1a5.45,5.45,0,0,1,.07-1.07.9.9,0,0,1,.9.56Z"/><path class="cls-24" d="M115.12,152.22l.48-.48a.84.84,0,0,1,.81.53Z"/><path class="cls-44" d="M143.45,181.32h.84a.91.91,0,0,1-.82.57l-.06-.08a.48.48,0,0,1,0-.49Z"/><path class="cls-47" d="M120.26,171a.86.86,0,0,1-.91-.57A.86.86,0,0,1,120.26,171Z"/><path class="cls-36" d="M127.53,169.83a.29.29,0,0,1,.17.12c0,.18-.1.13-.16-.13Z"/><path class="cls-9" d="M144.71,170.94c-1-1.43-1-1.85-.11-2.78a4.2,4.2,0,0,1,3.26-1.66c2.19.14,4.4.06,6.6,0a7.7,7.7,0,0,0,4.08-1.1c1.14.38,1.47-1.07,2.22-1.59.16,3.74-1.36,6.54-3.16,9.19a15.56,15.56,0,0,1-3.4,2.28.63.63,0,0,1-.62.2,44.24,44.24,0,0,1-6.31-2.34C146.29,172.67,145.22,172.32,144.71,170.94Z"/><path class="cls-48" d="M96.71,245.42H82.12a6.85,6.85,0,0,1-1.5,0,3,3,0,0,1-2.08-3c0-1.61.74-2.73,2-3a8.36,8.36,0,0,1,1.5-.05h29.4a8.36,8.36,0,0,1,1.5.05c1.32.23,2.06,1.32,2.08,2.94a3,3,0,0,1-2,3,6.83,6.83,0,0,1-1.5.05Z"/><path class="cls-48" d="M97,68.49h14.17q.75,0,1.5,0c1.51.16,2.31,1.15,2.37,2.87a2.9,2.9,0,0,1-2.39,3.22,9.55,9.55,0,0,1-1.07,0H82c-.92,0-1.85.15-2.62-.82a3.49,3.49,0,0,1-.72-3.18,2.34,2.34,0,0,1,1.85-2,9.9,9.9,0,0,1,1.72-.06Z"/><path class="cls-49" d="M158.05,79c-.7,1.48-.35,3.12-.41,4.7V86.6H147.33c-1.67,0-1.7-.06-1.73-2.14V79Z"/><path class="cls-49" d="M145.64,229.12h12v5.78h-12Z"/><path class="cls-50" d="M109.44,145.7a15.49,15.49,0,0,0-5.42,2.14,3.74,3.74,0,0,1-1.81.73v-5.29a2.55,2.55,0,0,1,.43-2Z"/><path class="cls-51" d="M87.55,131.49H88c2.51-.31,5,.65,7.46.62.24,0,.49.3.74.47-.59.07-1.27,0-1.29,1.09a4.16,4.16,0,0,1-3.23-.78c-.76-.65-1.79-.23-2.69-.28C88.31,132.58,87.65,132.63,87.55,131.49Z"/><path class="cls-52" d="M102.18,136.52a7.33,7.33,0,0,1,4.69,2.68c.06,1-.41.78-.86.56a9.42,9.42,0,0,1-3.89-1.18C102.17,137.92,102.17,137.22,102.18,136.52Z"/><path class="cls-13" d="M115,148.86a66.38,66.38,0,0,0,10.38,5.56,15.24,15.24,0,0,0,6.53,1.22,5.09,5.09,0,0,0,3.71-1.83,15.6,15.6,0,0,0,4.49-9.58.7.7,0,0,1,.59-.78c.6,1.42,0,2.78-.25,4.09-.72,4-2.3,7.19-5,9.45a4.89,4.89,0,0,1-4.06,1.3C125.12,157.21,119.82,153.64,115,148.86Z"/><path class="cls-53" d="M117.74,139.09c5.88.82,11.79,1.25,17.6,2.79a7.56,7.56,0,0,1,2.42,1,.92.92,0,0,1,.47,1.06.71.71,0,0,1-.82.6h0a7.25,7.25,0,0,1-2.09-.5c-4.19-2-8.64-2.27-13-3.22-1.83-.39-3.65-.83-5.47-1.25C116.84,138.58,117.34,139,117.74,139.09Z"/><path class="cls-53" d="M158.85,164c1-6.09-.71-10.47-4.86-13.43,2.71-.21,5,2.19,5.95,5.76C160.76,159.42,160.42,162.5,158.85,164Z"/><path class="cls-54" d="M151.84,149.12c-2.46-3.17-5.67-3.12-8.93-3.39C145.12,143.18,150.9,145.33,151.84,149.12Z"/><path class="cls-55" d="M137.44,158.35l-.46-.58c1.42-2.25,3.28-4.07,4-6.94.27-1,.74-1.91,1-2.92A14.62,14.62,0,0,1,137.44,158.35Z"/><path class="cls-56" d="M111.65,146.82c-.39-.86-1.37-.2-1.74-1.09,2.58,0,3.54-.78,4.89-3.81A4.27,4.27,0,0,1,111.65,146.82Z"/><path class="cls-57" d="M149.9,157.25l-.46-.59c1.15-1.63,2.3-3.27,3.46-4.9h0A8.42,8.42,0,0,1,149.9,157.25Z"/><path class="cls-58" d="M106,139.76c.34-.07.68-.11.86-.56l2.59,1.19A4.85,4.85,0,0,1,106,139.76Z"/><path class="cls-59" d="M117.74,139.09c-.32.11-.68.12-.91.5l-1.82-.51A2.41,2.41,0,0,1,117.74,139.09Z"/><path class="cls-57" d="M152.9,151.76l.16-.73C153.45,151.43,153.06,151.56,152.9,151.76Z"/><path class="cls-60" d="M153.76,175.3h.44c-2.14,3.72-5,5.68-8.64,6a.93.93,0,0,0-.83-.53.64.64,0,0,1,0-.7c1.86-.69,3.86-.89,5.46-2.53.51-.53,1.33-.83.89-2,.31-.74.85-.72,1.4-.68A1.73,1.73,0,0,1,153.76,175.3Z"/><path class="cls-61" d="M119.79,174.22a.82.82,0,0,0,.83-.52l4,2.27A8.8,8.8,0,0,1,119.79,174.22Z"/><path class="cls-62" d="M120.65,177a.78.78,0,0,0,.82-.52l4,1.76A8.06,8.06,0,0,1,120.65,177Z"/><path class="cls-63" d="M120.65,179.17c.44-.09,1,.1,1.24-.53a8.54,8.54,0,0,1,3.43,1.4C123.75,179.87,122.12,180,120.65,179.17Z"/><path class="cls-9" d="M144.73,180.29v.48a10.74,10.74,0,0,1-5.48-4.48,2.08,2.08,0,0,1,0-2.66c1.18-1.41,2.33-3,4.22-2.71a.92.92,0,0,0,.85.58c2.64,1.13,5.18,2.67,8,3.11.22,0,.24.39.22.66-.47,0-1-.07-1.32.49-1,2.7-3,3.27-4.93,4C145.74,179.9,145.12,179.44,144.73,180.29Z"/><path class="cls-64" d="M152.49,175.27l-4.37-1.61a8.18,8.18,0,0,1-3.8-2.16l.42-.56a23.37,23.37,0,0,0,7.6,3.33,2,2,0,0,1,1.45,1Z"/><path class="cls-65" d="M129.26,180.63a.91.91,0,0,0-.86-.4c.81-3.46,3.22-3.79,5.42-4.32a3.66,3.66,0,0,1,4.56,2c.8,1.49,2.37,1.63,3.34,2.86-.91,2-2.61,1.53-4,1.92a10.53,10.53,0,0,1-7.12-.55C130,181.88,129.37,181.63,129.26,180.63Z"/><path class="cls-66" d="M129.26,180.63c1.81,1.77,3.94,1.81,6.07,1.75a13,13,0,0,0,6.39-1.62l.75.12.12,1c-3.72,1.39-7.47,2.26-11.34,1.11a4.37,4.37,0,0,1-2.13-1.13C128.7,181.41,128.71,180.94,129.26,180.63Z"/><path class="cls-65" d="M143.43,181.34a2,2,0,0,1,0,.49.24.24,0,0,1-.17-.29l0-.07C143.3,181.41,143.38,181.38,143.43,181.34Z"/><path class="cls-67" d="M153.63,174.06a.4.4,0,0,1,.05-.56l.07-.05c2-1,3.12-3.08,4.06-5.37a8,8,0,0,1,.7-1.36.51.51,0,0,1,.61-.14,1,1,0,0,1,.23.67C159.12,170.05,156,173.77,153.63,174.06Z"/><path class="cls-68" d="M144.73,180.29c-.38-.51-.15-.91.25-.91,2.51,0,4.38-1.72,6.19-3.62.34,0,.75-.23,1,.24s-.1.66-.31.86C149.75,178.92,147.56,180.71,144.73,180.29Z"/><rect class="cls-69" width="250" height="250"/></svg>