<svg id="Layer_1" data-name="Layer 1" xmlns="http://www.w3.org/2000/svg" viewBox="0 0 250 250"><defs><style>.cls-1{fill:#afafaf;}.cls-2{fill:#f9fcfb;}.cls-3{fill:#bfc8c8;}.cls-4{fill:#c9cccf;}.cls-5{fill:#939393;}.cls-6{fill:#b4b7bd;}.cls-7{fill:#808183;}.cls-8{fill:#b3b5b9;}.cls-9{fill:#bbb;}.cls-10{fill:#bfc7c8;}.cls-11{fill:#264b53;}.cls-12{fill:#ddd;}.cls-13{fill:#35ace4;}.cls-14{fill:#929293;}.cls-15{fill:#99d7f1;}.cls-16{fill:#35ade4;}.cls-17{fill:#c0e2d2;}.cls-18{fill:#264c53;}.cls-19{fill:#34abe1;}.cls-20{fill:#36ade3;}.cls-21{fill:#99d6f0;}.cls-22{fill:#197d88;}.cls-23{fill:#38ade0;}.cls-24{fill:#2378a7;}.cls-25{fill:#7f8082;}.cls-26{fill:#c0c3c2;}.cls-27{fill:#e3e7e5;}.cls-28{fill:#b3b6b7;}.cls-29{fill:#dbdfde;}.cls-30{fill:#9fa1a5;}.cls-31{fill:#d1d3d3;}.cls-32{fill:#dcdfdf;}.cls-33{fill:#2478a7;}.cls-34{fill:#187c87;}.cls-35{fill:#256483;}.cls-36{fill:#fac32e;}.cls-37{fill:#f2c337;}.cls-38{fill:#e0f1ea;}.cls-39{fill:#f6de93;}.cls-40{fill:#8bbec4;}.cls-41{fill:#3f6266;}.cls-42{fill:#244f5c;}.cls-43{fill:#e5eae8;}.cls-44{fill:#e5e9e7;}.cls-45{fill:#9ea1a2;}.cls-46{fill:#acaeaf;}.cls-47{fill:#a2a5a7;}.cls-48{fill:#e3e7e6;}.cls-49{fill:#a8a9ab;}.cls-50{fill:#a1a5a5;}.cls-51{fill:#dbdede;}.cls-52{fill:#c4c6c8;}.cls-53{fill:#bec0c1;}.cls-54{fill:#c0c2c4;}.cls-55{fill:#c7c9ca;}.cls-56{fill:#aaacad;}.cls-57{fill:#c5c6c8;}.cls-58{fill:#adafb0;}.cls-59{fill:#babdbd;}.cls-60{fill:#b1b3b3;}.cls-61{fill:#a6a7a9;}.cls-62{fill:#fec42c;}.cls-63{fill:#fac533;}.cls-64{fill:#e6cd66;}.cls-65{fill:#f7e19c;}.cls-66{fill:#d3d5d4;}.cls-67{fill:#b6b9b9;}.cls-68{fill:#dde0e0;}.cls-69{fill:#afb1b1;}.cls-70{fill:#a3a5a6;}.cls-71{fill:#a1a2a5;}.cls-72{fill:none;}</style></defs><title>products</title><path class="cls-1" d="M185.35,235.44c0,1.27.6,2.62-.56,3.71-2.6.22-4.6,1.94-7,2.77-9.9,3.42-20.21,4.46-30.53,5.4a142.09,142.09,0,0,1-21.64.72,3.14,3.14,0,0,1-2.36-1.13,61.42,61.42,0,0,1,0-20.69c3.74-2.12,7.91-1.86,11.94-2a184,184,0,0,0,28.12-2.62,2.94,2.94,0,0,1,3.28.51c1.88,1.62,1.78-.72,2.63-1.17,4.34-1.76,9-2.59,13.2-4.86,2.09-1.13,2.64,0,2.66,2C185.18,223.91,184.75,229.68,185.35,235.44Z"/><path class="cls-2" d="M63.62,241.13l-1.51,1c-.49.32-1.26,0-1.13-.25.68-1.34-.53-2.44-.34-3.56,1.22-7.33-.07-14.74.6-22.06,1.41-15.33,1-30.71.49-46-.72-21.28-.2-42.54-.59-63.81,0-2.17,0-4.34,0-6.51A2,2,0,0,1,62,98a4,4,0,0,1,1,3c-.05,1.06.1,2.12,0,3.19.12,15.56,0,31.11,0,46.68,0,6.73.91,7.95,7.3,10.2,1.36.48,2.78.79,4.12,1.34a7.32,7.32,0,0,0,2.89.81,12.1,12.1,0,0,1,1.21.13c4.81.77,9.56,1.87,14.47,2.12a171.69,171.69,0,0,0,19,1.31c4,0,8.12.13,12,1.65a10.46,10.46,0,0,1,0,8.74c-3.42,2.17-7.17.94-10.79,1a3.93,3.93,0,0,1-3.11-2.12c-1.39-2.73-3-2.43-5.06-.76a8.08,8.08,0,0,1-3.71,2.06c-3,.48-5.86-.65-8.82-.64-4.51-.72-9-1.36-13.49-2.36-2.58-.86-5.25-1.5-7.47-3.32,0,2.72.39,5.36-.26,8-.86,1.51-3.09,2.53-1.71,4.84,1,3.27-1.08,3.58-3.8,3.53,5.19,3.26,5.35,8.12,5.19,13.25-.1,3.35-.52,6.75.37,10.07,1.33,2.29,3.62,3,5.94,3.84A145,145,0,0,0,93,217.16c8.58,1.13,17.22,1.22,25.82,1.86,1.77.13,3.62-.2,5.13,1.18,1.45,4.39.49,5.9-3.9,6-4.2.11-8.39,0-12.59.06-3.77.22-7.43-.73-11.15-1-5.79-.72-11.58-1-17.3-2.17-5.34-1.33-10.73-2.59-16.07-5.94v19.16C62.6,238,63.82,239.51,63.62,241.13Z"/><path class="cls-3" d="M123.63,177.12v-8.54c1.37-1.45,3.15-.93,4.8-1,2.52-.13,5.06.29,7.55-.49,8.44-.66,16.88-1.17,25.25-2.51,6-1,11.92-2,17.57-4.34,3.46-1.45,4.92-3.78,4.89-7.57-.12-13.93-.05-27.85,0-41.77a35.26,35.26,0,0,1,.18-5.44,3.43,3.43,0,0,1,.45-1.24.84.84,0,0,1,1.11-.36c0,12.69.06,25.39.06,38.08v89.2c0,1.44-.07,2.89-.11,4.34-1-1-.59-2.28-.59-3.45V216a47.26,47.26,0,0,1-16.06,5.7c-2.45-1.09-3.71-2.77-2.76-5.56,1.82-1.52,4.19-1.79,6.28-2.71s3.51-2.38,3.51-4.92c0-11.58.07-23.15,0-34.73,0-.72.34-1.82-1-1.89l-1,.38c-1.22.53-2.38,1.18-3.61,1.6a133.44,133.44,0,0,1-25.69,3.87c-6.6.45-13.19,1.18-19.81.28A2,2,0,0,1,123.63,177.12Z"/><path class="cls-4" d="M62,101V98c2.89-3,6.56-4.34,10.46-5.35a150.58,150.58,0,0,1,25.22-4.22,337.36,337.36,0,0,1,36.11-1.3c1.29,0,2.68-.37,3.82.62-1.6,1.6-3.61.89-5.51,1.06-2.85.25-5.79-.65-8.51,1-2.48.76-5.06.47-7.56.43-6.15-.09-12.3.42-18.4.77a145.65,145.65,0,0,0-19,2.8,2.31,2.31,0,0,1-1.58,1,9.33,9.33,0,0,0-2.24,0c-.28.1-.57.16-.86.24-.59.16-1.17.34-1.77.48l-.47.07a5.24,5.24,0,0,1-1,0,2.84,2.84,0,0,0-1.72.47c-1.24.84-3,1.24-3,3.21s1.71,2.49,3.1,3.12c5,2.2,10.38,2.9,15.69,3.93A195.41,195.41,0,0,0,119,108.66a11.71,11.71,0,0,1,1.45,0c1.34.13,3.09.25,3.12,1.81,0,1.81-1.85,1.53-3.07,1.57-3.87.13-7.74,0-11.58.07A142.36,142.36,0,0,1,71,107C67.44,105.92,63.64,105,62,101Z"/><path class="cls-5" d="M63.62,241.13c-1-1.25-2.08-2.45-1.72-4.24,1-.44,1.86.17,2.65.64,4.48,2.66,9.41,4,14.47,4.94,3,.55,6,1.2,8.93,1.75a11,11,0,0,0,4.07.41l1.27,0c8.63.73,17.25,1.59,25.93,1.41,1.55,0,3.15-.1,4.46,1l2.21.1c.81,1.9,2.5.94,3.8,1.14,3.38.51,7-1.06,10.19,1.11a6.36,6.36,0,0,1-3.54.53c-8.45,0-16.92.28-25.32-.1-11.57-.53-23.1-1.45-34.44-4.06A56.39,56.39,0,0,1,63.62,241.13Z"/><path class="cls-6" d="M108.38,111.16h14.93c-.73-1.73-1.79-1.44-2.69-1.48h-9.08a204.44,204.44,0,0,1-27-2.3c-.31,0-.57-.4-.86-.61a.6.6,0,0,1,0-.85l.16-.1a14.54,14.54,0,0,1,2.95,0c8,1,15.92,1.74,23.87,2.17,4.13.11,8.27-.2,12.39.2,6.21,1.18,12.52.82,18.72.4,9.09-.61,18.21-1.29,27.14-3.43a47.34,47.34,0,0,0,8.94-2.81c1.44-.67,3.05-1.38,3.16-3.11.09-1.45-1.45-2.09-2.55-2.77a4.85,4.85,0,0,1-1.88-1.66,1.11,1.11,0,0,1,.07-1.19c2.36.13,4.26,1.45,6.18,2.56a4.84,4.84,0,0,1,2.44,4.81c-.56.59-.76,1.45-1.32,2-2.9,2.59-6.51,3.61-10.13,4.64-9.69,2.79-19.67,3.84-29.67,4.45-7,.43-13.94,1.31-21,.83-3.7.16-7.41.13-11.11,0C110.78,112.86,109,113.25,108.38,111.16Z"/><path class="cls-7" d="M139.85,249.37c-5.27-.47-10.6.34-15.92-.39.29-1.39,1.55-1.07,1.92-1.86,3.62,0,7.28.13,10.9-.1,11.77-.72,23.56-1.52,35.06-4.38,4.41-1.1,8.88-2.25,12.45-5.32.63.6.37,1.26.51,1.83-1.07,1.93-2.93,2.79-4.82,3.62-5.79,2.47-12,3.65-18.18,4.59A143.26,143.26,0,0,1,139.85,249.37Z"/><path class="cls-8" d="M176.74,93.58v.79a1.24,1.24,0,0,1-1.1.48,5.69,5.69,0,0,1-.83-.08c-.42,0-.83,0-1.24.07a1.51,1.51,0,0,1-1.45-.72c-.88-.69-1.83.25-2.73-.11a210,210,0,0,0-42.45-3.76,5.11,5.11,0,0,1-2.82-.55l-.44-.45c.15-1.56,1.31-1.45,2.39-1.45l11.46,0a163.07,163.07,0,0,1,35.6,4.47A8.72,8.72,0,0,1,176.74,93.58Z"/><path class="cls-1" d="M184,101.72a1.3,1.3,0,0,1,1.35-.77v2.89a5.17,5.17,0,0,0-.55.07C183.9,103.42,184.44,102.39,184,101.72Z"/><path class="cls-9" d="M123.66,247c-5.3,0-10.65.46-15.92-.13s-10.33-.21-15.39-1.34c-1.32-1.53-1.07-3.4-1.09-5.18,0-4-.1-8,0-11.93s.68-4.47,4.77-3.95c3.67-.2,7.24.91,10.9.82,4.26.72,8.57.12,12.85.34,1.29.07,2.63-.35,3.86.36Q123.69,236.51,123.66,247Z"/><path class="cls-10" d="M123.7,226H110.38c-1.15,0-2.43.39-3.4-.67h13.07c3.57,0,3.57,0,3.62-3.62v-1.44l.42-.48c3.94-1.25,8.09-1,12.09-1.22,7.69-.36,15.32-1,22.95-1.91a4.26,4.26,0,0,1,1.18.07,3.29,3.29,0,0,1,1.44.79c1,1.35,2.29,2.5,2.66,4.24-2,2.26-4.9,1.64-7.36,1.95a208.64,208.64,0,0,1-24.73,1.69C129.46,225.43,126.58,226,123.7,226Z"/><path class="cls-11" d="M164.36,221.76a11.45,11.45,0,0,1-3-3.93l-.61-.54h0c-2.29-2.33-2.3-5.31-2.39-8.27a10.76,10.76,0,0,1,.17-1.7,16.89,16.89,0,0,1,.84-2.61c3.22-4.86,7.89-7.89,13-10.34a1.08,1.08,0,0,1,.94,1.1c-1.57,3-4.46,4.92-6.61,7.47-2.78,3.29-3.72,6.55-1.64,10.53a5.08,5.08,0,0,1,.72,3.09,15.25,15.25,0,0,0,2.9,5.13c0,.73.72,1.2.38,2C167.15,223.93,165.93,222.41,164.36,221.76Z"/><path class="cls-9" d="M136.05,167.84c-.83,1-2,.72-3,.72-3.12,0-6.26,0-9.4,0-6.23-.31-12.46-.64-18.7-.92-4.14-.18-8.39-.17-12.46-1.33-1.11-1.16-1.18-2.62-1.19-4.08q-.06-22.68,0-45.37a6.44,6.44,0,0,1,.82-3.51,3.54,3.54,0,0,1,3-1.1c9.13.68,18.28,1,27.4,1.78a2,2,0,0,1,.65.3c2,1.6,1.72,3.88,1.73,6,0,13.54,0,27.09,0,40.63,0,5.58,0,5.55,5.69,5.67C132.42,166.74,134.45,166.33,136.05,167.84Z"/><path class="cls-9" d="M75,163.5A36.18,36.18,0,0,1,65.15,160c-2-1.14-3.32-2.52-3.31-5.11.1-17,.08-34,.11-51,5.18,2.6,10.41,5.06,16.24,5.91a1.53,1.53,0,0,1,1.42,1.64,1.41,1.41,0,0,1-.12.49,24.64,24.64,0,0,0-.46,5.75c0,14.22,0,28.44,0,42.68,0,1.4.42,3-1.17,3.9h-.73C76.58,163.55,75.61,164.09,75,163.5Z"/><path class="cls-12" d="M77.88,164.17c.73-1.54,0-3.08,0-4.62.07-15,0-29.94.08-44.91,0-1.3-.73-3.06,1.44-3.56,4.61-.69,9-.39,13.11,2.17v53.08C87.51,166.31,82.69,165.06,77.88,164.17Z"/><path class="cls-9" d="M78.67,243.39c-6-1.16-11.75-2.85-16.77-6.51V215.17c4.76,3.77,9.94,5.14,15.2,6.39a2.48,2.48,0,0,1,1.56.77,4.1,4.1,0,0,1,1,2.62c.18,5.27.17,10.53,0,15.8A3.85,3.85,0,0,1,78.67,243.39Z"/><path class="cls-12" d="M78.67,243.39v-21c2.64-.4,5.26.35,7.72.91,3.24.72,6.64-.24,9.73,1.23-3.61.22-3.61.22-3.61,3.61q-.06,8.68-.09,17.44h-.69c-1.13-.72-2.54.12-3.69-.62C84.86,244.87,81.8,243.89,78.67,243.39Z"/><path class="cls-13" d="M123.62,220.27c-5.64-.26-11.27-.48-16.9-.79-4.07-.22-8.14-.56-12.2-.9a9.62,9.62,0,0,1-2-.62c-1.3-1.5-1-3.09-.27-4.7,1.29-1.68.06-4.13,1.73-5.7a1.93,1.93,0,0,1,1.39-.23c6.56,2.29,13.44,2,20.21,2.78,3.13.34,6.2-1.06,9.25.15a1.14,1.14,0,0,1,.62,1c-1.45,2.71.23,6-1.73,8.63A2.63,2.63,0,0,0,123.62,220.27Z"/><path class="cls-14" d="M92.49,113.25l-13.11-2.17c-3.34-1.19-6.92-1.45-10.25-2.74A18.33,18.33,0,0,1,62,103.83V101c3.82,3.91,8.93,5.19,13.94,6.29a156.44,156.44,0,0,0,32.48,3.87c1,1,2.27.63,3.43.65,4,.06,8,0,11.9.07.72.88,1.31,1.8.76,3a1.18,1.18,0,0,1-1.51-.12c-7.33.41-14.6-.63-21.91-.87C98.22,113.8,95.36,113.28,92.49,113.25Z"/><path class="cls-15" d="M93.05,213.59c-1,1.35-.33,2.89-.57,4.34a61.87,61.87,0,0,1-16.08-2.81c1.72-2.84,1.09-6,1.2-9.05a33.8,33.8,0,0,1,.28-6,2.76,2.76,0,0,1,.55-1c4.58.86,8.69,2.49,11.22,6.78.41,2.46,1.12,4.78,3.18,6.45C93.14,212.68,93.47,213.08,93.05,213.59Z"/><path class="cls-16" d="M78.57,199.23c0,4.48-.07,9,0,13.42,0,1.61-.37,2.6-2.17,2.5-2.25-.83-4.66-1.39-6-3.72-.33-5.44,0-10.89-.16-16.34,0-2.11,1-2.38,2.41-1.37C74.89,195.27,77.83,196.1,78.57,199.23Z"/><path class="cls-17" d="M78.57,199.23c-2.17-2.24-5-3.62-7.86-5.79-.1,6.37-.19,12.2-.28,18-.87-1.06-.49-2.31-.5-3.47-.05-3.84-.15-7.7,0-11.54a6.78,6.78,0,0,0-2.43-6,14.71,14.71,0,0,1-4-4.45c1.17-.91,2,.07,2.85.14s1.59.91,2.36.22c1-.87-.14-1.75-.18-2.63,3-1.53,6.4-.9,9.58-1.53a3.57,3.57,0,0,1,1.69.49c.94,1.91-.78,2-1.76,2.53a4.55,4.55,0,0,0-1,.94c.4-.09.5-.5.81-.72.53-.33.84,0,1.18.32.81,4.39,1.45,8.77-.38,13.08A1,1,0,0,0,78.57,199.23Z"/><path class="cls-18" d="M101.85,176.66c2.17-1.6,4-3.7,6.78-4.35,1.44,1.45,1.81,3.62,3.36,5,1.79,1.79,3.91,3.37,3.89,6.28-.15.19-.34.48-.53.45-5.28-.52-10.24-2.24-15.15-4.1-.18-.06-.21-.41-.27-.65C99.8,177.86,100.78,177.21,101.85,176.66Z"/><path class="cls-19" d="M115.78,183.08c-1.36-1.84-3-3.47-3.79-5.74,3.88-.28,7.77.34,11.64-.2a2.94,2.94,0,0,0,0,.42c1.7,2.26,1,4.75.73,7.23a3.15,3.15,0,0,1-1.57,1.74C119,187.38,117.78,186.76,115.78,183.08Z"/><path class="cls-20" d="M70.5,179.46v-9.9c2.67,2.08,5.66,2.53,8.16,4.06,1.19,1.48,1,3.22.94,4.95a3.75,3.75,0,0,1-.81,2.38C76,180.58,73.07,181,70.5,179.46Z"/><path class="cls-21" d="M78.59,178.74c0-1.71,0-3.42.07-5.12a135.52,135.52,0,0,1,13.87,2.31A2.18,2.18,0,0,1,92.4,179l-.13.11C87.67,180.19,83.1,180.63,78.59,178.74Z"/><path class="cls-22" d="M70.5,179.46c1.78,0,3.62,0,5.37-.08a2.35,2.35,0,0,1,2.52,1.52,1.16,1.16,0,0,1,0,2.06,31.51,31.51,0,0,1-9.92.77,7.74,7.74,0,0,0-.34-1.34c-.73-1.53-.39-2.36,1.4-2.47C69.89,179.9,70.19,179.62,70.5,179.46Z"/><path class="cls-23" d="M92.43,178.74c0-.93.07-1.85.1-2.78,3.15-.33,6.2.72,9.32.72l-1.44,2.07c-2.29,2.93-5.14,1.28-7.82,1a.63.63,0,0,1-.23-.87A.36.36,0,0,1,92.43,178.74Z"/><path class="cls-12" d="M75,163.5c.81-.05,1.65-.13,2.22.66C76.38,164.21,75.55,164.27,75,163.5Z"/><path class="cls-1" d="M123,114.76h1.45c1.39-1.33,3.15-.93,4.8-1,10.93-.6,21.87-1,32.72-2.77,7-1.13,14-2.41,20.34-6a3,3,0,0,1,2.42-.44c0,16.64,0,33.36.08,50,0,3-1.45,4.69-3.86,5.92-4.34,2.24-9,3.28-13.75,4.25A98.52,98.52,0,0,1,151.87,167c-5.28.25-10.53,1.31-15.84.87h-8.69c-3.61,0-3.66,0-3.66-3.54V119C123.69,117.52,123.78,116.06,123,114.76Z"/><path class="cls-24" d="M123.64,185.25v-7.68a32.3,32.3,0,0,1,6.14-.21c13.41-.31,26.77-1.15,39.79-4.42a5.71,5.71,0,0,1,1.09-.07c4.67-.27,5.92.61,5.58,5s1.45,8.74-1.08,12.81c1,.37,1.08,1,.67,1.9-.72,1.45-2.07,1.88-3.49,2.23-4.34,3.15-9.18,5.68-12.45,10.13-2.68,1.26-5.19.1-7.59-.78-8-3-15.34-7.41-22.8-11.58a4.66,4.66,0,0,1-2.6-2.84,4.69,4.69,0,0,1,4.5-4C129,184.48,126.15,187.18,123.64,185.25Z"/><path class="cls-24" d="M175.3,192.54c-.05-.42.93-1.2-.34-1.18-.41,0-.79.49-1.22.72a.72.72,0,0,1-.91-.34c-.31-.46-.25-1.14.22-1.19,4-.55,2.89-3.62,3-6s-.09-4.8.05-7.19c.1-1.84-.48-2.9-2.32-3.41-1-.27-1.92-1-3-1.07a6.39,6.39,0,0,1,3.14-1.36l.17.13-.17-.13,2.31-1.71c.9.91.5,1.92.5,2.81q0,17.93,0,35.86c0,3.82-.42,4.54-4,5.91-2.24.86-4.58,1.45-6.88,2.17-1.6-1.76-2.12-4-2.75-6.19a6.37,6.37,0,0,1,1.32-5.79,54.25,54.25,0,0,1,8.68-9.11C173.6,194.31,174.86,193.74,175.3,192.54Z"/><path class="cls-25" d="M184.7,104.54c-5.06,3.84-11,5.45-17.09,6.51-6.76,1.17-13.58,1.94-20.38,2.89a3.49,3.49,0,0,1-.72,0c-7.38-.26-14.7,1.21-22.09.73a4.35,4.35,0,0,1-.72-2.85c7,.27,14-.39,20.91-.89,11.12-.79,22.27-1.86,32.91-5.62,2.36-.83,4.82-1.56,6.51-3.65.93.48.66,1.4.81,2.17A2.87,2.87,0,0,0,184.7,104.54Z"/><path class="cls-26" d="M76.44,94.39a1.52,1.52,0,0,0,1.44-.73,92.82,92.82,0,0,1,24.77-3c3.55-.6,7.13-.24,10.71-.29,3.28.29,6.63-.48,9.87.55a.89.89,0,0,1,.53,1c-1.65,1.8-3.82.77-5.74.94s-3.69.09-5.53,0c3.34.49,7.35-.84,11.2.72a1.34,1.34,0,0,1-.08,1.62c-2.44,1.53-5.15.89-7.73.85-3,0-5.31.31-5.24,4.06a1.94,1.94,0,0,1-.88,1.51,15.55,15.55,0,0,1-12.4,3.83c-7.75-.74-15.63-1-23.16-3.41-1.75-.57-3.42-1.23-4.51-2.84-1.11-2.49.6-3.31,2.41-4.07h0c.6-.66,1.62-.06,2.17-.73h0A1.8,1.8,0,0,1,76.44,94.39Z"/><path class="cls-27" d="M113.5,91.45H102.64c-1.44-.72-3-.18-4.44-.35-.66-.08-1.45.07-1.32-1,8.93-1,17.9-.73,26.87-.8h0a1.27,1.27,0,0,1,.1,1.58,2.16,2.16,0,0,1-1.12.24C119.62,91.3,116.53,90.7,113.5,91.45Z"/><path class="cls-28" d="M83.71,106.1v.66a45,45,0,0,1-15.92-4,9.31,9.31,0,0,1-2.09-1.37,2.88,2.88,0,0,1-.82-3c.38-2.07,4.11-4,6.45-3.33a2.55,2.55,0,0,1-.64.67,10.3,10.3,0,0,0-1.2.72c-2.23,2.24-1.17,3.84,1,5.14a29.06,29.06,0,0,0,4.35,1.7C77.73,104.57,81.16,104,83.71,106.1Z"/><path class="cls-29" d="M70.64,95.14l.69,0h.77c-.5,1.36-2.77,1.68-2.17,3.69,1.07,2.73,4.57,2.26,6,4.56-.33.9-.91,1-1.65.49a14.41,14.41,0,0,1-5-1.88c-3.24-2.17-3-4.34.6-6.17A4.84,4.84,0,0,0,70.64,95.14Z"/><path class="cls-29" d="M96.84,90.07c.78,1,1.89.6,2.89.68s2.1-.27,2.9.73a96.59,96.59,0,0,0-23.25,2.17,8.8,8.8,0,0,1-1.45.06c1-1.16,2.45-1.15,3.78-1.44C86.68,91.09,91.8,90.81,96.84,90.07Z"/><path class="cls-29" d="M74.28,94.39c-.53.86-1.39.73-2.17.73C72.61,94.27,73.48,94.43,74.28,94.39Z"/><path class="cls-29" d="M76.44,94.39H74.27C75,93.5,75.71,93.44,76.44,94.39Z"/><path class="cls-9" d="M88,245c1.27,0,2.61-.44,3.69.61C90.47,245.55,89.14,246,88,245Z"/><path class="cls-30" d="M175.25,94.41l1.49,0c1.45.85,3.12,1.33,4.35,2.55,1.83,1.78,1.85,3.2-.21,4.79a20.36,20.36,0,0,1-8.26,3.51,178.51,178.51,0,0,1-18.09,3.12,212.9,212.9,0,0,1-27.43,1.32c-1.15,0-2.45.41-3.4-.72l.46-.47c3.35-1.11,6.81-.32,10.2-.57h4.34a11.42,11.42,0,0,0,4.15-.47c3.83-.14,7.62-.65,11.42-1H156a9.53,9.53,0,0,0,2.17-.4c2.32-.21,4.58-.85,6.9-1,.51-.08,1-.19,1.52-.32.66-.19,1.32-.32,2-.45a29.34,29.34,0,0,0,7.14-2.36c4.17-2.17,4.24-2.82.57-5.79C175.72,95.67,175,95.31,175.25,94.41Z"/><path class="cls-4" d="M74.25,103.86a1.55,1.55,0,0,0,1.45-.64c2.53-1,4.9.3,7.28.72,5.44.91,11,.35,16.39,1.64a1.33,1.33,0,0,1,.72,1,1.58,1.58,0,0,1-.41,1.13,71,71,0,0,1-9.19-1,8,8,0,0,0-4.56.08l-2.17-.63C80.52,105.67,77.23,105.33,74.25,103.86Z"/><path class="cls-31" d="M85.92,106.73c1.18-1.22,2.76-.91,4-.57,3.23.88,6.6.34,9.79,1.29,3.42-1.79,7-.83,10.57-.72a2.39,2.39,0,0,1,1,.72c.4.78-.14,1.12-.69,1.45-5.06-.26-10-.56-15-1.18C92.38,107.29,89.14,107.05,85.92,106.73Z"/><path class="cls-32" d="M110.64,108.88l.73-.68c3.88-1.81,7.81-1.09,11.78-.44a1.17,1.17,0,0,1,.53,1.16v0Z"/><path class="cls-31" d="M175.25,94.41a39.3,39.3,0,0,1,3.56,2.44c1.83,1.52,1.77,3-.13,4.45a5.32,5.32,0,0,1-2.62,1.16c-.68.28-.9-.13-1-.68,1.65-3.57-1.18-4-3.41-4.91-6.46-2.29-13.26-2.72-20-3.61a40.56,40.56,0,0,1-6.33-.31c-4.41-.89-8.85-.27-13.28-.42-2.89-.1-5.71-.3-8.32-1.71V89.31c4.47,0,9-.09,13.42,0a201.24,201.24,0,0,1,21.51,1.94q6.26.87,12.38,2.28a1,1,0,0,1,1.33.09l0,0a1.52,1.52,0,0,0,1.49.67,1,1,0,0,1,1.36,0,.76.76,0,0,1,.09.09Z"/><path class="cls-30" d="M172.36,93.7,171,93.59a1,1,0,0,1,1.37-.54l.13.07C172.72,93.23,172.61,93.55,172.36,93.7Z"/><path class="cls-30" d="M175.3,94.43l-1.45-.06C174.36,93.6,174.84,93.68,175.3,94.43Z"/><path class="cls-33" d="M123.68,219.88v-6.41c0-1,.14-1.91,1.39-2.08,1.45-.35,1.73,1,2.3,1.74a8.24,8.24,0,0,0,4.47,3.37c.72-2.26-2.51-4.76.72-6.51,7.84-1.24,15.8-1.25,23.65-2.34a3.61,3.61,0,0,1,3,.82c-.12,3,.76,5.9,1.49,8.8a82.72,82.72,0,0,1-14.69,1.8C138.61,219.52,131.16,220.38,123.68,219.88Z"/><path class="cls-33" d="M160.75,217.29a.65.65,0,0,1,.61.54Z"/><path class="cls-17" d="M159.25,208.48c-9.18.89-18.35,1.87-27.57,2.27-1.83-.5-.94-2.54-1.89-3.5-2.37.21-3.18,2.48-4.89,3.48-7.61.82-15.2.23-22.75-.66-2.81-.34-5.33-1.51-8-2.3a.82.82,0,0,1-.39-1.09c0-.05,0-.09.07-.13,1.57-2-.37-1.69-1.33-2a2.05,2.05,0,0,1-.72-.9c-.21-5.06-1.11-10.2.32-15.26,1.52-1,2.78,0,4,.62,10.13,4.94,21,6.76,32.11,7.63,2.29.18,4.5.88,6.8.83,6.12,1.76,11.69,4.94,17.72,7,2.17.73,4.86.58,6.51,2.68Z"/><path class="cls-34" d="M159.3,207.07c-7.33-1.51-14.09-4.61-20.89-7.57-1.1-.47-2.21-.92-3.31-1.37-3.09-.72-5.79-2.4-8.53-3.84-10-5.2-20.19-9.63-31.5-10.92a3.79,3.79,0,0,1-2.9-1.2c-.43-1-.55-2,.5-2.69.84-.72,1.71-.39,2.65-.23,1.72.28,3.5.56,5.11-.53.13.6.3,1.28,1,1.33,4.5.31,8.62,2,12.82,3.44a1.16,1.16,0,0,0,1.54-.43c.73.61,1.4,1.2,2.06,1.84a3.9,3.9,0,0,0,4.39,1.11c1.35,1.71,3.81,1.87,5.06,3.62a124.63,124.63,0,0,0,20.63,11.57c3.85,1.73,7.73,3.28,12,3.62A3.66,3.66,0,0,1,159.3,207.07Z"/><path class="cls-35" d="M175.3,192.54c.42,1.84-1.28,2.08-2.17,2.89l-.73-.72Z"/><path class="cls-36" d="M124.9,210.73c.42-3.67,3.62-3.93,6.33-5.41.42,2-.72,3.86.45,5.43-.05,2.51,1.45,4.54,2.17,7.12-4.52-.21-6.71-3.27-8.79-6.52A1,1,0,0,0,124.9,210.73Z"/><path class="cls-37" d="M93.14,204.14c.81,0,1.65-.32,2.51.17,0,1.37-1.52,2.09-1.45,3.46A14.69,14.69,0,0,0,94,212c0,.72.1,1.44-.91,1.58l-.55-.8C91,209.78,90.43,206.84,93.14,204.14Z"/><path class="cls-38" d="M92.54,188.08q-.06,8-.11,16a4.77,4.77,0,0,1-3.49,2.28c.09-1.62-1.06-2.17-2.25-2.85-2.7-1.49-5.35-3.08-8-4.63,0-3.55,0-7.1,0-10.64,0-1,.37-2.17-.78-2.89h0c.33-1.17,1.59-1.36,2.27-2.17,1.93-1.66,4.16-1,6.33-.85,2.54.88,3.92,3.2,5.93,4.74A1.11,1.11,0,0,1,92.54,188.08Z"/><path class="cls-39" d="M88.94,206.33a5.33,5.33,0,0,1,3.49-2.27l.73.09c-1.22,2.81-.42,5.79-.64,8.64C89.8,211.47,89.34,208.92,88.94,206.33Z"/><path class="cls-40" d="M87.42,183.17h-7.3L78.44,183l0-2.05c.06-.72.12-1.45.19-2.17H92.43l.21.77,0,2.82a2,2,0,0,1-.78.67C90.42,183.35,89,184.13,87.42,183.17Z"/><path class="cls-41" d="M77.84,185.32a7.76,7.76,0,0,1,.2,1.05c0,.88-.07,1.71-1.2,1.78A1.3,1.3,0,0,1,75.4,187v-.06a1.38,1.38,0,0,1,1.1-1.63,1.34,1.34,0,0,1,.34,0,7.69,7.69,0,0,1,1.07.07Z"/><path class="cls-42" d="M127.32,189.66c-1.84-.21-3.28-1.39-4.9-2.13-.79-.36-.37-1-.2-1.52.47-.27.94-.54,1.45-.8a13.82,13.82,0,0,0,3.51-.42c1.82-.31,3.73-.6,5.59.84C130.44,186.55,128.39,187.47,127.32,189.66Z"/><path class="cls-24" d="M173.85,171.5h.68c.41.05,1-.1,1,.6a.45.45,0,0,1-.2.28c-.48.35-.83.08-1.14-.28A4.3,4.3,0,0,1,173.85,171.5Z"/><path class="cls-43" d="M109.24,101.72c1-1,.62-2.26.65-3.43.09-3.09.07-3.12,3.3-3.15,3.5,0,7,0,10.51,0l.45.5c.79,3.1,1.24,6.19-.49,9.16a32,32,0,0,1-15.92,0C106.8,103,108.1,102.41,109.24,101.72Z"/><path class="cls-44" d="M105.46,95.92c1.35,4.34-.83,7.14-5.28,6.34-2.33-.42-4.76-.46-7-1.4-1.45-.61-2.9-1.24-3.62-2.76.72-1.41,2.17-1.83,3.47-2.35,3.18-1.24,6.59-.89,9.88-1.39A2.34,2.34,0,0,1,105.46,95.92Z"/><path class="cls-45" d="M109.24,101.72l-1.62,2.11a2.83,2.83,0,0,1-1.45,1.89,5,5,0,0,1-1.83.35,9.63,9.63,0,0,0-2.62.24,4.27,4.27,0,0,1-.86.19,1.35,1.35,0,0,1-1.18-.47C94,104.67,88,106,82.32,104.58c-2.17-.54-4.41-.91-6.62-1.36-1.3-.56-2.63-1-3.86-1.68A2.84,2.84,0,0,1,70,98.81c3.57,2.81,7.92,3.48,12.18,4.08a142,142,0,0,0,16.47,1.65c3.56.07,7-.37,9.73-3C108.63,101.23,109,101.4,109.24,101.72Z"/><path class="cls-46" d="M123.7,95.11V93.66l.48-.45c3.89-1.08,7.87-.72,11.76-.36,3,.26,5.95.41,8.92.73a11.89,11.89,0,0,0,3.07.52c1.45.09,3-.16,4.24,1.06,0,.82-.58,1.15-1.23,1.45-3.13.72-6.24.3-9.37-.08-4.34-.54-8.68-.15-13-.27-1.68,0-3.41.12-4.84-1.08Z"/><path class="cls-47" d="M105.46,95.92c-.43-.2-.89-.62-1.29-.57-5,.55-10.13-.2-14.64,2.75,0-1.28.77-1.87,1.78-2.44,3.34-1.9,7.12-2,10.73-2.61C103.74,92.75,105.12,94.16,105.46,95.92Z"/><path class="cls-48" d="M123.68,93.66c-4.66.2-9.33-.41-14,.42-.81.15-1.57-.09-1.62-.93-.06-1,.92-.88,1.59-.89,4.66,0,9.34,0,14-.05.09.11.19.21.29.31a.86.86,0,0,1-.33,1.09Z"/><path class="cls-49" d="M123.73,90.8c6.58.87,13.19.59,19.8.72a2.4,2.4,0,0,1,2,.67.81.81,0,0,1-.28,1.11l-.07,0c-7.18-.08-14.36,0-21.49-1.07v-.78c-.23-.18-.3-.33-.2-.47s.19-.19.27-.19Z"/><path class="cls-50" d="M73.51,98c0-1.58.83-2.22,2.77-2.17s2.42.59,2.33,2.17A15.06,15.06,0,0,1,73.51,98Z"/><path class="cls-51" d="M73.51,98a4.87,4.87,0,0,1,5.06,0C76.06,99.88,76.06,99.88,73.51,98Z"/><path class="cls-31" d="M123.73,90.8a3.72,3.72,0,0,1-.08.66H113.52c1.45-1.26,3.22-.55,4.84-.66S121.93,90.78,123.73,90.8Z"/><path class="cls-4" d="M70.64,95.14l-.76.66Z"/><path class="cls-52" d="M154.93,107.42c-4.12.18-8.2,1.13-12.35.84-1.13.72-2.55-.17-3.66.65l-4.34,0a.81.81,0,0,1,.32-1.09h0c6.47-1.7,13-1.83,19.68-1.44a.78.78,0,0,1,.37,1A.21.21,0,0,0,154.93,107.42Z"/><path class="cls-53" d="M175.33,101.71l.73.72c-2.08,1.89-4.92,1.75-7.33,2.76a8.61,8.61,0,0,0-.68-.55c-.52-.33-1.07-.65-.86-1.45,1.39-1.37,3.3-1.36,5-1.9a12.06,12.06,0,0,1,1.7,0,5.08,5.08,0,0,1,.78,0A1,1,0,0,1,175.33,101.71Z"/><path class="cls-54" d="M154.93,107.42v-.65c1.11-2.27,3.29-1.44,5.07-1.77,1.6-.22,3.19-.77,4.85-.41a2.5,2.5,0,0,1,1,.48.56.56,0,0,1,.09.8.55.55,0,0,1-.14.12c-2.7-.18-5.24,1.12-8,.81-.42.38-1.07.23-1.44.66Z"/><path class="cls-55" d="M134.59,108.23v.63l-10.91.06v-.64l.43-.47c2.66-1.08,5.45-.42,8.18-.55A3,3,0,0,1,134.59,108.23Z"/><path class="cls-56" d="M138.92,108.91c1.06-1.15,2.42-.57,3.66-.65C141.52,109.39,140.16,108.79,138.92,108.91Z"/><path class="cls-57" d="M168.79,104.57v.65l-2.17.11a.48.48,0,0,1-.67,0l-.06-.07h0C166.38,103.34,167.64,104.22,168.79,104.57Z"/><path class="cls-56" d="M156.37,107.46a1.45,1.45,0,0,1,1.45-.66A1.51,1.51,0,0,1,156.37,107.46Z"/><path class="cls-58" d="M165.83,105.29l.73,0-.78.66A4.12,4.12,0,0,0,165.83,105.29Z"/><path class="cls-59" d="M111.34,107.47H99.76v-.72c.5-.46,1.16-.29,1.73-.5,3-.14,6.07-.77,9.13-.16a2,2,0,0,1,.93.78Z"/><path class="cls-31" d="M101.17,106.72H99.73V106h1.44a.44.44,0,0,1,.19.47C101.28,106.64,101.23,106.72,101.17,106.72Z"/><path class="cls-59" d="M123.66,108.28l-12.3-.08v-.73h0c2.5-1.78,5.36-.72,8-1a20.55,20.55,0,0,1,3,.19,3.07,3.07,0,0,1,1.09.45.75.75,0,0,1,.21,1Z"/><path class="cls-60" d="M152,92.27a151.88,151.88,0,0,1,17.25,2.79c1.17.3,2.35.49,3.16,1.49L172,97c-4.85.59-9.32-1.59-14.06-2-2.17-.2-4.61.36-6.55-1.25C150.92,92.93,151.42,92.59,152,92.27Z"/><path class="cls-60" d="M175.33,101.71l-.79-.07c.11-2-1.91-3.17-2.17-5.07l0,0a4,4,0,0,1,2.64.79C177.21,98.87,177.28,99.46,175.33,101.71Z"/><path class="cls-61" d="M152,92.27l-.72.69a4.43,4.43,0,0,1-5.79-.09v-.68Z"/><path class="cls-62" d="M92.54,188.08a2,2,0,0,0-.15-.59c-1.07-1.63-1.32-3.25.12-4.83a.75.75,0,0,0,.17-.36A66.72,66.72,0,0,1,115,187.76a115.83,115.83,0,0,1,20.14,10.37C120.31,197.28,105.7,195.78,92.54,188.08Z"/><path class="cls-63" d="M100.31,197.75a10.15,10.15,0,0,1-4.54-.92,1.92,1.92,0,0,1-1.24-2A2.1,2.1,0,0,1,96,193a3.6,3.6,0,0,1,4.29.8,11.28,11.28,0,0,0,5.06,3.23C103.94,199.05,102,197.67,100.31,197.75Z"/><path class="cls-64" d="M100.31,197.75c1.66-.49,3.52.56,5.07-.72l3.7.88C106.11,198.27,103.17,198.92,100.31,197.75Z"/><path class="cls-65" d="M92.51,182.66q-.06,2.43-.12,4.83c-2.36-.63-3.62-2.54-5-4.34C89.12,183.08,90.73,182,92.51,182.66Z"/><path class="cls-66" d="M123.66,95.16c5.39,0,10.8-.27,16.16.1,3.81.28,7.6.64,11.43.63,3.93-.64,7.66.41,11.42,1.27a5.89,5.89,0,0,1,1.07.37,4.67,4.67,0,0,1,1.43.94,1.79,1.79,0,0,1,.37,1.09c-1,3.16-4,2.72-6.29,3.73a164.8,164.8,0,0,1-33,2.23,3.91,3.91,0,0,1-2.06-.56l-.44-.51Z"/><path class="cls-67" d="M106.22,105.27a2.65,2.65,0,0,1,1.4-1.45,2.29,2.29,0,0,0,2,.72l14.1-.08v.23a1.34,1.34,0,0,1,.21,1.24,1.89,1.89,0,0,1-1,.72,98.33,98.33,0,0,1-14-.26A3.35,3.35,0,0,1,106.22,105.27Z"/><path class="cls-68" d="M106.22,105.27c2.53.94,5.16.72,7.77.72l9.65.15c.38.72-.27,1-.72,1.27H120c-2.89-.93-5.89.22-8.77-.64l-10.13-.08V106h0c.86-.72,2,0,2.89-.62Z"/><path class="cls-31" d="M104.05,105.39c-.81.93-1.9.58-2.89.62C102,105.07,103,105.35,104.05,105.39Z"/><path class="cls-31" d="M122.94,107.43l.73-1.27,0-.16c1.5-1.12,3.25-.67,4.89-.67a160.22,160.22,0,0,0,30.76-2.53,17.84,17.84,0,0,0,4.74-1.35c1.12-.58,2.17-1.25,1-2.71h0c-.4-.45-1.08-.32-1.48-.72h0c-3.69-1.75-8-1-11.66-2.9l-4.27-.07c-.64-.59-1.6-.08-2.24-.64-7.29-.16-14.54-1.12-21.85-.83V92.23h14c2.62,0,5.16,1.09,7.83.61l5.78.1c2.24,1.52,4.89.72,7.33,1.16,4,.72,8,1.35,12,2.39a8.36,8.36,0,0,0,1.8.08l1.39,1.09c1.59,1.07,1.91,2.36.78,4h0a1,1,0,0,1-1.36.13.3.3,0,0,1-.08-.08c-1.85,1-4.07,1-5.87,2.13-1.9,1.35-4.2.91-6.29,1.38-.83.1-1.62.37-2.44.45-10.31,1.38-20.68,1.69-31.06,2-1.27.14-2.55.45-3.79-.19Z"/><path class="cls-69" d="M152,95.15c2.7.47,5.41.89,8.09,1.45a6.32,6.32,0,0,1,3.58,1.45c-4.17-.6-8.34-1.18-12.43-2.17Z"/><path class="cls-69" d="M145.5,94.44c.82,0,1.65-.11,2.24.64C146.93,95.1,146.07,95.27,145.5,94.44Z"/><path class="cls-56" d="M127.27,107.45c.72-.82,1.74-.66,2.69-.66h6.47a135,135,0,0,0,20-1.45,27.81,27.81,0,0,1,2.89-.09,1.45,1.45,0,0,1,1.45-.13.57.57,0,0,1,.19.59c-.08.19-.14.29-.21.29-1.95.15-4-.39-5.79.77-5.94.47-11.92.41-17.83,1.36a21.24,21.24,0,0,1-2.52.1l-2.17-.06C130.77,107.25,128.87,108.44,127.27,107.45Z"/><path class="cls-58" d="M160.75,106v-.69c-.26-.18-.34-.33-.25-.49s.19-.21.28-.21c2.22.24,4.34-.58,6.52-.81a1.64,1.64,0,0,1,1.44.76c-1,.12-2.17-.35-2.89.73C164.12,105.34,162.35,105,160.75,106Z"/><path class="cls-60" d="M173.13,101.69l1.44,0C174.1,102.4,173.63,102.45,173.13,101.69Z"/><path class="cls-70" d="M127.27,107.45c1.69.33,3.56-.61,5.12.73H123.7v-.68Z"/><path class="cls-31" d="M111.28,106.8c2.9.26,5.94-.78,8.78.65l-8.73,0A5.34,5.34,0,0,0,111.28,106.8Z"/><path class="cls-71" d="M160.73,103.08a166.16,166.16,0,0,1-37,2.9v-1.31c1.69,0,3.37-.1,5.06-.08A210.84,210.84,0,0,0,160,102.36C160.76,102.05,160.89,102.42,160.73,103.08Z"/><path class="cls-69" d="M160.73,103.08l-.73-.72c.67-.91,1.77-.57,2.63-.94,1.21-.54,2.49-1,2.48-2.68,1.61.82,1.82,1.81.2,2.78A11.82,11.82,0,0,1,160.73,103.08Z"/><path class="cls-69" d="M163.64,98a1.43,1.43,0,0,1,1.48.72A1.46,1.46,0,0,1,163.64,98Z"/><path class="cls-54" d="M160.83,104.62v.72l-1.45-.07A1.51,1.51,0,0,1,160.83,104.62Z"/><path class="cls-24" d="M75.22,146.18a2.44,2.44,0,0,1-1.44,2.38,5,5,0,0,1-3.26.22,5.73,5.73,0,0,1-.84-.21c-.14-.09-.2-.27-.21-.55a4.28,4.28,0,0,0-.06-.72,5.41,5.41,0,0,1-.07-.68c0-.1.07-.14.22-.14a2.33,2.33,0,0,1,.46.08l.37.11c1.55.29,2.34,0,2.34-.82,0-.4-.34-.82-1-1.25q-1.68-1-1.92-1.23a2.65,2.65,0,0,1-1-2,2.47,2.47,0,0,1,1.45-2.28,6,6,0,0,1,3.21-.56.35.35,0,0,1,.26.16,7.91,7.91,0,0,1,.3.9,4.28,4.28,0,0,1,.23.92c0,.08-.08.13-.24.13h-1.6a.88.88,0,0,0-1,.8c0,.32.34.67,1,1.08a12.53,12.53,0,0,1,1.88,1.29A3.14,3.14,0,0,1,75.22,146.18Z"/><path class="cls-24" d="M94.66,152.08c0,.34-.11.5-.29.48a5.4,5.4,0,0,1-.58-.11,5.67,5.67,0,0,0-.57-.1,2.83,2.83,0,0,1-.64-.06c-.28,0-.5,0-.64,0s-.26-.23-.26-.64,0-1,.06-1.77.05-1.38.05-1.77v-3.62a3.51,3.51,0,0,0-.51-1.87,2.36,2.36,0,0,0-1.73-.64,2.92,2.92,0,0,0-1.8.63A2.15,2.15,0,0,0,86.68,144c0,.64-.06,1.82-.07,3.55,0,.4,0,1,0,1.83s0,1.44,0,1.83c0,.23-.08.33-.22.31s-.37-.07-.66-.14a6.61,6.61,0,0,0-.65-.13l-.59-.06-.58-.08c-.17,0-.25-.15-.25-.39s0-1,0-1.74,0-1.37,0-1.75v-2.9a4.23,4.23,0,0,0-.33-2,2.05,2.05,0,0,0-1.8-1,3.76,3.76,0,0,0-1.88.48c-.79.38-1.19.79-1.2,1.24v6.81c0,.22-.1.32-.29.28l-2.3-.43c-.17,0-.25-.15-.25-.34V144a18.4,18.4,0,0,0-.47-4.12,2,2,0,0,1,0-.24c0-.1,0-.15.11-.16a9.62,9.62,0,0,0,1.35-.08c.27,0,.72-.1,1.24-.16H78c.1,0,.18.28.27.82s.16.83.23.84l.63-.47a7.13,7.13,0,0,1,1.44-.84,4.7,4.7,0,0,1,2.12-.41,3.54,3.54,0,0,1,3.62,2.52,6.08,6.08,0,0,1,2.13-1.59,4.65,4.65,0,0,1,2.42-.6A3.58,3.58,0,0,1,94.09,141a6.83,6.83,0,0,1,.62,3.36v5.18C94.71,150.7,94.66,151.53,94.66,152.08Z"/><path class="cls-24" d="M107.22,146.9a7.13,7.13,0,0,1-1.73,4.88,5,5,0,0,1-4.34,1.77,6.09,6.09,0,0,1-4.35-2.46,7.49,7.49,0,0,1-1.7-4.91,6.67,6.67,0,0,1,1.74-4.62,5.66,5.66,0,0,1,8-.42,5.28,5.28,0,0,1,.68.74A7.52,7.52,0,0,1,107.22,146.9Zm-2.64-.09a4.62,4.62,0,0,0-.92-2.89,3.14,3.14,0,0,0-2.47-1.36,3,3,0,0,0-2.5,1.11,4.12,4.12,0,0,0-1,2.75,4.57,4.57,0,0,0,.93,2.89,3.37,3.37,0,0,0,2.48,1.45,2.79,2.79,0,0,0,2.48-1.1,4.32,4.32,0,0,0,1-2.86Z"/><path class="cls-24" d="M120,144.37q0,3.72-3,4.94c0,.48.83,2,2.51,4.58,0,.14-.42.24-1.26.26H117c-.59,0-1-.17-1.11-.46-.4-.77-1-1.89-1.85-3.36-.1-.18-1-.27-2.72-.31h-.49v3.48c0,.29-.1.44-.29.42a11.3,11.3,0,0,1-1.18-.07l-1.18-.09c-.19,0-.28-.19-.28-.55v-8.69c0-1.13,0-2.82-.1-5.06s-.1-3.94-.09-5.1a.25.25,0,0,1,.2-.28h0l1.25-.06a2.76,2.76,0,0,0,.72-.09,4.53,4.53,0,0,1,.73-.08c.11,0,.17.12.17.34,0,.51,0,1.27-.07,2.27s-.07,1.76-.07,2.27v3.62c0,.19,0,.29.12.29l.9-.81a6.26,6.26,0,0,1,4-1.79,4.36,4.36,0,0,1,3.06,1.08A4.26,4.26,0,0,1,120,144.37Zm-3,.65c0-1.36-.76-2.05-2.3-2.07-1.15,0-2.46.83-3.9,2.52v2.09a11.8,11.8,0,0,0,2.45.29,4.57,4.57,0,0,0,2.48-.56A2.47,2.47,0,0,0,117,145Z"/><path class="cls-24" d="M131.08,146.44a1.46,1.46,0,0,1-.81,1.45,61,61,0,0,1-7.75.91,3.29,3.29,0,0,0,1.21,2.17,3.23,3.23,0,0,0,2.17.83,5.37,5.37,0,0,0,3.62-1.51l.4-.38h.14s.17.34.47,1c.16.33.31.67.44,1a.79.79,0,0,1-.2.33,5.92,5.92,0,0,1-4.74,2.33,5.78,5.78,0,0,1-4.64-2,7.77,7.77,0,0,1-1.73-5.3,8.31,8.31,0,0,1,1.66-5.13,5.24,5.24,0,0,1,4.27-2.28,4.81,4.81,0,0,1,3.92,2A7.14,7.14,0,0,1,131.08,146.44Zm-3-.82a3,3,0,0,0-.83-2.1,2.44,2.44,0,0,0-1.84-.91,2.69,2.69,0,0,0-2,1.07,3.65,3.65,0,0,0-.9,2.38c0,.2.16.3.46.3a26.52,26.52,0,0,0,4.44-.45C127.85,145.83,128.1,145.73,128.09,145.62Z"/><path class="cls-24" d="M143.52,134.16c0,1.19,0,3-.11,5.34s-.13,4.14-.12,5.32q0,5.46.25,8.24v.18c0,.1-.1.16-.34.21a3.71,3.71,0,0,1-.67.05H142l-.55.08a3.47,3.47,0,0,1-.55.08c-.12,0-.19-.3-.22-.95a3.14,3.14,0,0,0-.09-1,.58.58,0,0,0-.19.19,5.33,5.33,0,0,1-3.94,2.3,4.7,4.7,0,0,1-4.18-2,7.94,7.94,0,0,1-1.55-4.94,8.41,8.41,0,0,1,1.54-5.13,5.18,5.18,0,0,1,4.24-2.23,4,4,0,0,1,2.75,1l1.07,1a.2.2,0,0,0,.1-.2v-4.52c0-.3,0-.77-.05-1.4s0-1.09,0-1.4.07-.34.2-.34A8.72,8.72,0,0,0,142,134a7.82,7.82,0,0,1,1.36-.1C143.46,133.88,143.52,134,143.52,134.16Zm-3.07,12.74a4.63,4.63,0,0,0-.94-2.89,2.9,2.9,0,0,0-2.45-1.29,3.09,3.09,0,0,0-2.54,1.45,5.08,5.08,0,0,0-.94,3.09,4.53,4.53,0,0,0,1,2.93,2.89,2.89,0,0,0,2.51,1.22,3.11,3.11,0,0,0,2.47-1.44A5.09,5.09,0,0,0,140.45,146.9Z"/><path class="cls-24" d="M156,135.54c0,.11-.08.17-.22.19l-1.21.13a1.82,1.82,0,0,0-1.09.55c-.4.47-.6,1.66-.58,3.56h1.29a12.2,12.2,0,0,0,1.34,0c.3,0,.3.07.3.22s0,.6,0,1.08v1.06a.23.23,0,0,1-.2.26h0c-.29,0-.73,0-1.33,0H153v3.94c0,.61,0,1.54.08,2.78s.08,2.17.09,2.78c0,.24-.09.37-.25.39l-2.29.26c-.22,0-.32-.1-.32-.38q0-4.61-.06-9.2c0-.24-.26-.34-.77-.31a2.12,2.12,0,0,1-.87,0,1.67,1.67,0,0,1,0-.5v-1.76c0-.2.53-.33,1.58-.44,0-.57,0-1,0-1.38a6,6,0,0,1,.77-3.48,4.46,4.46,0,0,1,2-1.56,6.57,6.57,0,0,1,2.51-.5.16.16,0,0,1,.17.14s.09.38.23,1.09S156,135.52,156,135.54Z"/><path class="cls-24" d="M159.08,136.57c0,1-.56,1.57-1.7,1.62s-1.74-.47-1.75-1.53a1.52,1.52,0,0,1,.53-1.19,1.8,1.8,0,0,1,1.19-.45,1.71,1.71,0,0,1,1.21.42A1.49,1.49,0,0,1,159.08,136.57ZM159,140c0,.65,0,1.63-.09,2.95s-.11,2.3-.1,3,0,1.54.05,2.76,0,2.17,0,2.75a.24.24,0,0,1-.2.29h0l-2.44.32c-.17,0-.26-.14-.26-.49v-5.38c0-.6-.06-1.67-.17-3s-.16-2.35-.16-3c0-.14.08-.22.26-.23a4.45,4.45,0,0,1,.73,0h.72a5.67,5.67,0,0,0,.72-.1c.24,0,.48-.08.73-.1A.29.29,0,0,1,159,140Z"/><path class="cls-24" d="M166.08,146.9a4,4,0,0,1-1.45,3.08,6.14,6.14,0,0,1-3.26,1.51,4.81,4.81,0,0,1-.85.1c-.14-.05-.21-.24-.21-.59a7.58,7.58,0,0,0-.08-.82,7,7,0,0,1-.08-.8c0-.11.08-.19.23-.24a1.36,1.36,0,0,1,.45-.06h.37c1.57-.21,2.35-.8,2.35-1.74,0-.45-.36-.81-1-1.11a15,15,0,0,1-1.94-.92,2.66,2.66,0,0,1-1-2.24,3.59,3.59,0,0,1,1.39-3,5.39,5.39,0,0,1,3.21-1.1.23.23,0,0,1,.25.13,6.88,6.88,0,0,1,.32,1,5.29,5.29,0,0,1,.24,1c0,.08-.08.15-.24.18l-1.61.33c-.63.22-1,.59-1,1.11s.35.72,1,1a11.43,11.43,0,0,1,1.9,1A2.73,2.73,0,0,1,166.08,146.9Z"/><path class="cls-24" d="M177.42,148c0,.25-.08.4-.26.44l-1.15.24-1.16.23c-.21,0-.31-.06-.31-.29s0-.87,0-1.58.05-1.23.05-1.58,0-.83-.05-1.5,0-1.18,0-1.51c0-1.3-.72-1.87-2.12-1.75a4.15,4.15,0,0,0-1.78.79c-.79.52-1.18,1-1.18,1.34v6.83c0,.22-.08.34-.26.38l-1.15.19-1.15.2c-.26.05-.29-.06-.29-.27v-5.71c0-.94-.08-2.9-.2-5.94,0-.94-.1-2.32-.23-4.16a.6.6,0,0,1,0-.19.22.22,0,0,1,.15-.25,7.36,7.36,0,0,1,1.4-.08,6.82,6.82,0,0,0,.79-.1c.25,0,.51-.07.76-.09s.17.07.17.21c0,.73,0,1.81-.08,3.25s-.08,2.54-.08,3.26c0,.17,0,.27.1.27.43-.37,1-.81,1.64-1.31a5.35,5.35,0,0,1,2.57-.86c1.57-.11,2.64.22,3.23,1a4.39,4.39,0,0,1,.64,2.64v4C177.45,146.92,177.42,147.58,177.42,148Z"/><rect class="cls-72" width="250" height="250"/></svg>