<svg id="Layer_1" data-name="Layer 1" xmlns="http://www.w3.org/2000/svg" viewBox="0 0 250 250"><defs><style>.cls-1,.cls-19{fill:#0eac00;}.cls-2{fill:#ce8a39;}.cls-3{fill:#a7bdb1;}.cls-4{fill:#ffc53f;}.cls-5{fill:#8e1f95;}.cls-6{fill:#7f1675;}.cls-7{fill:#fec53f;}.cls-8{fill:#ffd138;}.cls-9{fill:#89129c;}.cls-10{fill:#49405b;}.cls-11{fill:#ffdd62;}.cls-12{fill:#bc79be;}.cls-13{fill:#c03645;}.cls-14{fill:#a2263e;}.cls-15{fill:#ab323e;}.cls-16{fill:#c9ffff;}.cls-17{fill:#bb7abf;}.cls-18{fill:#a4c5b4;}.cls-19{opacity:0.75;isolation:isolate;}.cls-20{fill:#da866d;}.cls-21{fill:#ffdc62;}.cls-22{fill:#fedb61;}.cls-23{fill:#c23a46;}.cls-24{fill:#bb79c0;}.cls-25{fill:#da866e;}.cls-26{fill:#c13845;}.cls-27{fill:#fad662;}.cls-28{fill:#fdc33f;}.cls-29{fill:#cc8639;}.cls-30{fill:#fdda62;}.cls-31{fill:#f8bb43;}.cls-32{fill:none;}</style></defs><title>products</title><path class="cls-1" d="M62.19,120.37c0-.6-.11-1.19-.11-1.76V74.37c0-.68.08-1.35.11-2a3.58,3.58,0,0,1,2.86-.79c7.81,0,15.62,0,23.42,0a3.68,3.68,0,0,1,.88.14,5.86,5.86,0,0,1,2.22,1.62c3.79,3.47,8.58,3.58,12.58.29a12.2,12.2,0,0,1,2.17-1.76,2.74,2.74,0,0,1,.88-.24c10.71-.06,21.41-.28,32.11.09a2.27,2.27,0,0,1,.88.5,72.56,72.56,0,0,1,.14,9.89c0,5.34.31,10.68-.2,16a2.08,2.08,0,0,1-.44.78c-1,.4-1.8-.21-2.64-.66-9.11-5-18.42-5.89-28.06-1.81a3.05,3.05,0,0,1-1.76.29c-1.1-.31-1.49-1.35-2.12-2.12a8.82,8.82,0,0,0-10.28-3c-3.93,1.43-6,4.57-5.9,8.89.1,5.19.08,10.39,0,15.6a4.79,4.79,0,0,1-.25,1.24c-.88,1.35-.6,3.67-3,3.79-6.69-.1-13.39,0-20.09,0C64.41,121.07,63.18,121.26,62.19,120.37Z"/><path class="cls-2" d="M180.26,120.93c0,.6.1,1.19.1,1.77v49c0,.59-.07,1.19-.1,1.76-.93,1.05-2.19.78-3.34.79-6.46,0-12.92.12-19.38,0a5.27,5.27,0,0,0-5.34,3,38.17,38.17,0,0,1-9.91,11.51c-.88.7-1.76,2-3.24.89a7,7,0,0,1-.4-3V158.92a4.79,4.79,0,0,1,.67-2.93c1.09-2.11,2.09-4.29,3.26-6.38.32-.58.69-1.33,1.49-1.17s.65,1.07.65,1.69c0,2-.13,3.93,0,5.89.23,2.69,1.71,3.58,4.22,2.64a20.33,20.33,0,0,0,2.3-1.12,3.1,3.1,0,0,1,3.77.32,7.67,7.67,0,0,0,6.5,1.48,26.41,26.41,0,0,0,8.45-2.82c1.76-1,1.81-1.26,1.87-3.75-1.56.3-2.76,1.28-4.13,1.77-2.08.79-2.71.4-2.64-1.77a10.44,10.44,0,0,0-.29-3.29,6.15,6.15,0,0,1,.82-5.83c.46-.63.88-1.43.16-2.09a1.94,1.94,0,0,0-2.39,0,7,7,0,0,0-2.27,2.39c-2.72,3.72-5.48,7.41-9.08,10.35-1.07.88-2.11,2-3.59,1.4-1.68-.65-1.51-2.31-1.49-3.75a53.89,53.89,0,0,1,.76-6.09,12.78,12.78,0,0,0,.2-2.55,2,2,0,0,0-1-1.91,2,2,0,0,0-2.29.71,15.16,15.16,0,0,0-2.41,3.91c-.53.95-.77,2.1-1.86,2.64-.88-.18-.88-.88-1-1.58-.06-2.15,1.19-4.4-.37-6.46a6.66,6.66,0,0,1-.22-.88c-.22-12.69-.07-25.38-.08-38.06a3.32,3.32,0,0,1,.79-2.65.32.32,0,0,1,0-.27c2,.19,3.24,1.76,4.58,3a47,47,0,0,1,11.12,15.49,4.35,4.35,0,0,0,4.69,3c5.7-.13,11.45-.06,17.12,0C178.05,120.2,179.3,119.93,180.26,120.93Z"/><path class="cls-1" d="M180.26,120.93c-7.32,0-14.65-.06-22,.06a2.93,2.93,0,0,1-3.21-2.12,48,48,0,0,0-11.18-16.3c-1.43-1.34-3-2.56-4.45-3.83V75.38c0-1-.23-2.06.5-2.93.74-1.12,1.92-1,3-1,11.4,0,22.8,0,34.2,0a3.88,3.88,0,0,1,3.07.88c0,.6.13,1.19.13,1.76v45.29C180.36,119.91,180.29,120.42,180.26,120.93Z"/><path class="cls-1" d="M139.5,190a41.22,41.22,0,0,0,13.07-14.7,3.17,3.17,0,0,1,3.2-1.82c8.17.07,16.33,0,24.49,0,0,.93.1,1.86.1,2.79v39c0,.94-.07,1.87-.1,2.8-.95,1-2.2.83-3.37.83h-34a5.55,5.55,0,0,1-3.45-.68,3.58,3.58,0,0,1-.8-2.65c0-7.86-.08-15.74,0-23.61a4.38,4.38,0,0,1,.23-1.24A1.78,1.78,0,0,1,139.5,190Z"/><path class="cls-3" d="M62.07,64.58a4.33,4.33,0,0,1-.31-2.49c0-2.3,0-4.61,0-6.91,0-1.6-.1-2.74-1.88-3.66-2.57-1.33-2.64-8.56-.34-10.37a3,3,0,0,1,1.88-.69H180.09c2.84.06,4.2,1.38,4.31,4.2v3.07c0,2.41-1,4.41-4,4.61a3.94,3.94,0,0,1-2.87.78c-12.65,0-25.3.11-38,0-23.1.12-46.2,0-69.29.05-1.45,0-2.91.06-4.35,0C63.86,53,63,53.87,63,56a54.07,54.07,0,0,1-.13,7.42,2.92,2.92,0,0,1-.4.88Z"/><path class="cls-3" d="M60.68,249.76c-.27-.37-.73-.28-1.08-.45-2.32-2.73-1.55-5.91-1.23-9a2.57,2.57,0,0,1,2-2.08c1.15-.31,1.38-1,1.36-2.06-.05-2.46,0-4.92,0-7.37,0-.83-.27-1.71.34-2.45,1.16,1.08.74,2.52.88,3.84.23,2.34-.5,4.76.56,7,1.08,1,2.43.63,3.67.63H177.09c.94,0,1.87,0,2.81,0l.5.07c2.77.34,3.95,1.54,4,4.24.05,2.46.33,5-1.42,7-.52.18-1.16,0-1.56.53a5.06,5.06,0,0,1-2.75.25H63.39C62.47,250.1,61.5,250.46,60.68,249.76Z"/><path class="cls-1" d="M62.18,218.13c0-.77-.1-1.53-.1-2.29V175.73c0-.76.07-1.52.1-2.29a3.56,3.56,0,0,1,2.17-.61c7.36,0,14.73-.09,22.1,0a4,4,0,0,1,1.48.32,1.73,1.73,0,0,1,.74.68,9,9,0,0,1,.44,3.53v36.53c0,1.59.25,3.3-1.24,4.5a6.77,6.77,0,0,1-3.47.55H65.82C64.55,219,63.24,219.06,62.18,218.13Z"/><path class="cls-4" d="M88.25,173.37H62.18c0-.88-.09-1.69-.09-2.54V123.49c0-.88.07-1.7.09-2.55.42-.41.94-.31,1.44-.3,7.52.08,15.05-.2,22.58.14,1.18-.88,1-2.55,2-3.53a10.21,10.21,0,0,1,.09,8.58c-1.08,1-2.36.66-3.63.53-4.31-.46-8.51-.09-12.38,2.06-3.41,1.9-4.79,5-3.82,8.21a1.56,1.56,0,0,0,1.33-1.06c2.31-4.79,6.75-5.6,11.33-6.09a14.43,14.43,0,0,1,4.59.17,6.75,6.75,0,0,1,2.39.88c1.69,3.09.76,6.38.73,9.6a2.08,2.08,0,0,1-.34.72c-1.08.89-2.39.52-3.61.66-.65.07-1.45,0-1.62.82s.47,1.19,1,1.6c1,.7,2.21.76,3.22,1.36a2.18,2.18,0,0,1,.73,1c.6,3.3.1,6.63.35,9.93a1.51,1.51,0,0,1-.38,1.19,2.83,2.83,0,0,1-.71.47,7.86,7.86,0,0,1-1.17.45,10.85,10.85,0,0,1-2.25.47c-5.72.37-7.69-1.4-7.16-7,.5-5.29.48-10.77,3-15.73.3-.59.63-1.3-.17-1.76a1.67,1.67,0,0,0-1.92.16,6.53,6.53,0,0,0-2.1,2.77,27.33,27.33,0,0,0-2.13,7.93,104.9,104.9,0,0,0-1,11.19,2.91,2.91,0,0,0,2.49,3.26h0A40.89,40.89,0,0,0,88,161a1.18,1.18,0,0,1,.67.59C89.11,165.57,89.78,169.53,88.25,173.37Z"/><path class="cls-5" d="M62.23,237.9l-.12-11.54.07-.14a3.63,3.63,0,0,1,2.41-.67c7.56,0,15.12-.18,22.67.1a2.94,2.94,0,0,1,.83.24A4.58,4.58,0,0,1,89.87,228c3.77,6.43,12.2,6.52,16.13.17.48-.77.65-1.76,1.56-2.28a2.74,2.74,0,0,1,.88-.24c9.53-.13,19,0,28.58-.05a4.1,4.1,0,0,1,2.45.48c.89.89.77,2,.8,3.14q.07,2.55,0,5.1c-.06,1.7.7,2.49,2.46,2.49h34c1.76,0,2.39-.78,2.45-2.48.09-2.54-.41-5.11.4-7.61a.77.77,0,0,1,.79-.42c0,3.92.07,7.83.1,11.73h0c-.77.57-1.65.29-2.48.29H64.63C63.8,238.32,62.88,238.76,62.23,237.9Z"/><path class="cls-6" d="M139.47,52.35c1.62,0,3.24-.11,4.85-.1l36.05,0-.1,11.92c-.79,1.17-2,1.14-3.2,1.15q-17.19,0-34.36,0c-1.27,0-2.58,0-3.53-1.16C138.46,60.24,138,56.27,139.47,52.35Z"/><path class="cls-2" d="M180.28,226.28a2.13,2.13,0,0,0-.42.1c-1,.88-2.22.76-3.39.76H142.88c-1.17,0-2.39.11-3.38-.76q-14.35,0-28.7-.08c-1,0-2-.07-3-.12a.67.67,0,0,1,.4-.76A9.31,9.31,0,0,1,112,225h23c3.61,0,3.65-.07,3.74-3.73a9.06,9.06,0,0,1,.24-2.54,1.65,1.65,0,0,1,.53-.77c.68,0,1.35.14,2,.14h38.77A71.31,71.31,0,0,1,180.28,226.28Z"/><path class="cls-2" d="M139.47,64.13a5,5,0,0,0,2.5.38h36a22,22,0,0,0,2.28-.24,60.82,60.82,0,0,1,0,8.1H141.75a16.93,16.93,0,0,0-1.76.14l-.51-.22a3.48,3.48,0,0,1-.52-.79A10.18,10.18,0,0,1,138.7,68c.09-2.1-1.09-2.57-2.88-2.56-6,0-12.06.06-18.1,0-3.13,0-6.28.34-9.4-.3a1.37,1.37,0,0,1-.69-.65.93.93,0,0,1,.56-.75,7.29,7.29,0,0,1,3-.39h24.67C137.11,63.25,138.42,63.15,139.47,64.13Z"/><path class="cls-7" d="M88.3,226.13l-26.12.09a72.78,72.78,0,0,1,0-8.09l25.66-.07a.66.66,0,0,1,.77.35C89.16,221,89.56,223.59,88.3,226.13Z"/><path class="cls-4" d="M62.18,71.74c0-2.38-.08-4.77-.11-7.16l.11-.14a3.55,3.55,0,0,1,2.19-.58h22a3.68,3.68,0,0,1,1.76.35c1.4,2.45,1.4,5.06,1,7.73-8.47.07-16.92,0-25.39,0A2.35,2.35,0,0,1,62.18,71.74Z"/><path class="cls-8" d="M62.18,71.74H89.3a.29.29,0,0,1,.14.32.15.15,0,0,1-.11.16l-27.14.1C62.19,72.13,62.19,71.93,62.18,71.74Z"/><path class="cls-9" d="M86.2,120.78a46.5,46.5,0,0,1-6.88.15H62.18v-.57H83.51C84.42,120.39,85.4,120.07,86.2,120.78Z"/><path class="cls-10" d="M60.68,249.76c1.19,0,2.38.07,3.57.07H181.43c-.83.88-1.92.51-2.89.51h-115C62.56,250.37,61.42,250.82,60.68,249.76Z"/><path class="cls-4" d="M139.45,99v41.31c-2.65,1.17-3.14,3.53-3.46,6.09-.34,2.78-.45,5.67-2.94,7.63a7.65,7.65,0,0,1-1.88,1.31c-1.87.75-3,.08-3.09-2-.11-2.24.69-4.36,1-6.54.18-1.31,1.12-3.15-.26-3.78-1.94-.88-3.87-2.64-6.42-1.4-3.84,1.85-5.73,5.18-7,9-1.21,3.44-3.27,5-7,5a1.94,1.94,0,0,1-.73-.37,2.76,2.76,0,0,1,.32-3.4c1.5-1.23,3.11-2.34,3.93-4.25,1.35-3.16.54-5.29-2.65-6.51a3.81,3.81,0,0,1-1.76-.88,3.58,3.58,0,0,1-.32-.82c-.38-4.41-.14-8.87-.17-13.29-.09-9.63.1-19.26-.12-28.89a1.7,1.7,0,0,1,.38-.88c1.82-.68,3.6-1.5,5.46-2A30.55,30.55,0,0,1,139.45,99Z"/><path class="cls-11" d="M107.14,96.72a5.13,5.13,0,0,1,.6,3v40.52c-.26.62-.88.78-1.37,1a11.74,11.74,0,0,0-5.65,12.48c.68,2.86,2.29,4.85,5.35,5.38a3.35,3.35,0,0,1,1.88.67,3.12,3.12,0,0,1,.39.8c.47,7.48.13,15,.19,22.46a55.78,55.78,0,0,1-.18,8.67c-.88,2.09-2.25,1-3.34.35a38.53,38.53,0,0,1-12.64-11.69c-1.51-2.16-2.8-4.45-4.09-6.74V161.37c.48-1,1.56-1.26,2.42-1.76q6.17-3.53,5-10.5a6.1,6.1,0,0,0-3.15-4.41c-.7-.4-1.84-.66-1.67-1.67.15-.81,1.24-.76,1.95-1a10.26,10.26,0,0,0,4.87-2.64c2.87-3,2.72-6.17-.5-8.81a18.73,18.73,0,0,0-8.12-3.53,2.57,2.57,0,0,1-.71-.23,1.75,1.75,0,0,1-.53-.52,2.74,2.74,0,0,0-.08-.37c.8-1.41.42-3,.46-4.4s0-2.85,0-4.27c0-.31,0-.63.07-.94,3.28-8.28,9.07-14.41,16.47-19.14A2.39,2.39,0,0,1,107.14,96.72Z"/><path class="cls-1" d="M107.14,96.72c-3,1.07-5.44,3.1-7.79,5.18a47.1,47.1,0,0,0-10.21,13.21,11.94,11.94,0,0,1-.88,1.23c-.23-5.7-.05-11.45-.13-17.1,0-3.73,2.62-7.21,7-8.51,4.61-1.34,8.81.4,11.36,4.55.21.36.47.7.71,1A2,2,0,0,0,107.14,96.72Z"/><path class="cls-11" d="M89.33,72.22v-.48c-1.5-2.24-1-4.75-1-7.18a3,3,0,0,1,2.36-.77c4.85-.07,9.69,0,14.57,0a3.36,3.36,0,0,1,2.4.71l.1.16c1.25,2.39.77,4.64-.52,6.83a6.19,6.19,0,0,1-1,.77l-.06.17c-1.93.88-4,.7-6,.62-3.44-.13-7,.58-10.34-.61Z"/><path class="cls-12" d="M89.81,72.43c5.45-.22,10.91-.19,16.36,0a10.53,10.53,0,0,1-6.22,4,9.28,9.28,0,0,1-8.81-2.49C90.69,73.46,90.27,72.94,89.81,72.43Z"/><path class="cls-8" d="M106.23,72.25l.48-.51c1-.88,2.19-.82,3.38-.82h26c1.18,0,2.4-.06,3.38.82a2.09,2.09,0,0,1,0,.5Z"/><path class="cls-4" d="M107.67,192.68l.07-32.86c1.85-1.22,4.06-1.62,6-2.64a2.08,2.08,0,0,1,2.32.59,4.8,4.8,0,0,0,6.33.24c1.69-1.14,3-1.41,4.67.25,1.49,1.53,3.35.82,4.9-.2,1.34-.88,2.49-1.41,3.72.14,1,1.28,2.18.19,3.28.05.83.75.47,1.76.47,2.64q0,14.52,0,29.07a.64.64,0,0,0-.1.33c-1.13,2-3.28,2.64-5.19,3.52-8.81,3.92-17.62,4.22-26.32-.39A.76.76,0,0,1,107.67,192.68Z"/><path class="cls-13" d="M139,158.28c-2,2.29-2.69,2.17-4.88-.88a21.24,21.24,0,0,1-2.94,2c-2.14,1-3.73.74-5.12-1.15-.78-1.06-1.33-1.05-2.21-.31a9,9,0,0,1-2.65,1.5c-2,.77-3.94.65-5.39-1-1-1.11-1.71-.88-2.78-.27a11.16,11.16,0,0,1-5.29,1.66v-.1c-.94-1-.66-2.19-.55-3.36a1.85,1.85,0,0,1,.33-.71,1.28,1.28,0,0,1,.71-.32,11.05,11.05,0,0,0,3.63-1.18,4.69,4.69,0,0,0,2.74-3.33c1.23-4.19,3.37-7.84,7.54-9.83,1.51-.72,3.05-1.24,4.4.36a2,2,0,0,0,1.41.48c2.2.31,2.49.57,2.22,2.72s-.76,4.35-1.22,6.51a10,10,0,0,0-.22,3c.08,1,.73,1.24,1.62,1,1.83-.52,4.23-3.47,4.51-5.44.3-2.19.6-4.41,1.05-6.54s1.09-2.64,3.52-2.78v.45c1.15,2-.17,4.14.42,6.17.08.56-.1,1.22.56,1.57-.2,2.55-.42,5.12-.52,7.68C139.63,156.9,139.31,157.59,139,158.28Z"/><path class="cls-14" d="M140,156.2c-.62-2.64-1.24-5.23.52-7.68a28.52,28.52,0,0,1,2.81-6,6.74,6.74,0,0,1,1.15-1.35,2.52,2.52,0,0,1,2.81-.71,2.37,2.37,0,0,1,1.48,2.46,38.12,38.12,0,0,1-.84,6.55,29.76,29.76,0,0,0-.24,3.53c0,.88.08,1.8,1,2.21a2.05,2.05,0,0,0,2.28-.76c1.94-2.14,4.41-3.71,6.1-6.17,1.44-2.1,3.06-4.08,4.56-6.17a4.11,4.11,0,0,1,3.67-1.91c1.68.09,2.43,1.27,1.71,2.8a7.45,7.45,0,0,1-1.07,1.42,3.6,3.6,0,0,0-.74,3.36c.5,1.88,1.14,3.72.55,5.73-.22.75.31,1.11,1.07.73l5.67-2.84a1.83,1.83,0,0,1,.28.44c.74,3.1-.94,4.69-3.52,5.8a28.5,28.5,0,0,1-9.09,2.52,6.22,6.22,0,0,1-5.57-2,1.58,1.58,0,0,0-2.18-.54.8.8,0,0,0-.21.15,25.81,25.81,0,0,1-3.22,1.56c-2.73,1.11-4.54,0-4.8-2.89a47.1,47.1,0,0,1,.13-8.14C142.28,151,141.39,153.77,140,156.2Z"/><path class="cls-15" d="M139.91,146.94c-.89-2-.26-4.1-.42-6.16,1.46.83,1,2.21.88,3.42A23,23,0,0,1,139.91,146.94Z"/><path class="cls-1" d="M107.8,193.11a53,53,0,0,0,8.53,2.56,31.15,31.15,0,0,0,21.53-4.46c.5-.31,1-.59,1.54-.89q0,13.85,0,27.67v.23a3.86,3.86,0,0,1-2.65.71q-13.34.06-26.67,0a5.17,5.17,0,0,1-2-.33,1.61,1.61,0,0,1-.75-.66,6.36,6.36,0,0,1-.46-3v-18.5C106.94,195.27,106.78,194,107.8,193.11Z"/><path class="cls-5" d="M139.47,64.13H107.76c-1.24,0-1.36-1.13-1.82-1.86-3.77-6.12-12-6.28-15.77-.21a4.2,4.2,0,0,1-4.09,2.3c-7.22-.1-14.44,0-21.66-.06-.72,0-1.52.29-2.18-.31,0-3.4,0-6.8-.06-10.21,0-1.06.35-1.61,1.47-1.5h74c.59,0,1.19,0,1.76.08Z"/><path class="cls-16" d="M106.28,42.54c4.85,0,9.69,0,14.56,0,2.74,0,4,1.57,3.82,4.26a3.2,3.2,0,0,1-2.2,2.85,7.8,7.8,0,0,1-3,.53h-26a9.72,9.72,0,0,1-2.51-.33c-2.27-.59-3.37-2-3.13-4.18s1.51-3.11,3.94-3.13C96.58,42.52,101.43,42.54,106.28,42.54Z"/><path class="cls-17" d="M62.24,64c4.85,0,9.69.09,14.57.12,3.06,0,6.16-.06,9.2,0,1.54,0,2.59-.32,3.17-1.89,1.55-4.29,7.5-6.6,12.33-4.79a9.54,9.54,0,0,1,5.34,4.93c.3.6.3,1.36.88,1.77,0,.12-.06.25-.1.37l-19.33.07-22.81-.09H62.18A3.86,3.86,0,0,1,62.24,64Z"/><path class="cls-16" d="M106,247.38H91.69c-2.65,0-3.93-1.23-3.92-3.6s1.29-3.59,3.72-3.6q14.72,0,29.42,0c2,0,3.07.8,3.58,2.31a3.94,3.94,0,0,1-1,4.21,3.52,3.52,0,0,1-2.64.7Z"/><path class="cls-18" d="M62.23,237.9c1,0,2,.09,3.06.09h70.07q22.51,0,45,0c-.79,1-1.9.55-2.86.56H65.24C64.23,238.57,63,239.18,62.23,237.9Z"/><path class="cls-19" d="M107.8,193.11V218a2.82,2.82,0,0,1-2.54.89c-4.83.07-9.69.06-14.52,0a3.71,3.71,0,0,1-2.41-.7,2.88,2.88,0,0,1-.45-.19,6.83,6.83,0,0,0,.38-3.26V173.58c1.15,0,1.22,1,1.61,1.76,3.66,6.25,8.17,11.72,14.4,15.6a12.8,12.8,0,0,0,3.4,1.72A3.81,3.81,0,0,0,107.8,193.11Z"/><path class="cls-20" d="M88.31,126.49a16.17,16.17,0,0,1,9.54,3.77c4.52,3.64,2.76,8.23-1.21,11A10.31,10.31,0,0,1,91.22,143c.46.81,1.24.93,1.84,1.27a6.47,6.47,0,0,1,3.44,5.59c.36,6.05-1.82,9.09-8.2,11.56l-.49-.07a8.41,8.41,0,0,1,0-4.05l.56-.52c.32-.83,1.09-1.27,1.66-1.88,2.74-2.94,2.31-6-1.17-8.06a6.78,6.78,0,0,1-1-.79l-.6-.44c.47-1.52,0-3.24,1-4.66l0-.23c1-1,2.33-1,3.46-1.55,1.58-.8,2.93-1.86,3-3.79s-1.57-2.64-3-3.33c-1.22-.6-2.64-.63-3.81-1.38-.71-.17-1.52.1-2.12-.48C87.41,129.52,87.46,127.72,88.31,126.49Z"/><path class="cls-13" d="M87.77,157.29a4.51,4.51,0,0,1,0,4.05,8.65,8.65,0,0,1-4.53.44A45.09,45.09,0,0,1,73.75,160c-1.23-.37-1.87-.88-1.85-2.3.11-6,.42-12.07,2-17.94a15.91,15.91,0,0,1,2.38-5.11,3.3,3.3,0,0,1,3.79-1.42c1.15.41,1.55,1.28.88,2.32-2.15,3.63-2.76,7.64-3,11.75a65,65,0,0,0-.47,7.38c.1,2.15.26,2.43,2.39,2.91a14.78,14.78,0,0,0,6.81,0,4.39,4.39,0,0,1,.47-.27Z"/><path class="cls-13" d="M88.31,126.49c0,.32-.06.66-.07,1-.07,2.52-.06,2.52-2.51,2.71a28.06,28.06,0,0,0-9.57.88,7.44,7.44,0,0,0-5,3.65,17.41,17.41,0,0,1-1.76,2.51,1.49,1.49,0,0,1-1.53.71c-.67-.19-.65-.88-.69-1.5a8.63,8.63,0,0,1,4.47-8.52c4.14-2.41,8.68-2.73,13.3-2.23a17.35,17.35,0,0,0,2.78.28v.09c.16.15.33.29.51.43Z"/><path class="cls-21" d="M87.86,130.66a8.87,8.87,0,0,1,5.54,1.47c2.44,1.38,2.79,3.75,1,5.93A7.32,7.32,0,0,1,91,140.19a17.76,17.76,0,0,1-2.71.52v-7.34A5.87,5.87,0,0,0,87.86,130.66Z"/><path class="cls-22" d="M87.84,146.06c2.14.21,3.79,1.21,4.35,3.32a5.79,5.79,0,0,1-1.59,5.86c-.67.65-1.23,1.45-2.27,1.55-.63-.49-.55-1.19-.54-1.86C87.8,152,87.82,149,87.84,146.06Z"/><path class="cls-23" d="M88.22,140.94v3.19a1.3,1.3,0,0,1-1,1.47,9.9,9.9,0,0,1-3.35-1,2.91,2.91,0,0,1-1.38-1.41c-.61-1.39-.12-2.3,1.43-2.37S86.8,140.88,88.22,140.94Z"/><path class="cls-20" d="M87.23,157.36l-.48.27Z"/><path class="cls-6" d="M139.5,226.38c.93,0,1.87-.12,2.8-.12h34.79c.94,0,1.87.07,2.81.12v9.2c0,1.95-.07,2-2.05,2h-36.3c-2,0-2-.06-2.05-2C139.45,232.52,139.48,229.44,139.5,226.38Z"/><path class="cls-11" d="M88.29,218.24l15.18-.11c1.42,0,2.86-.07,4.29-.12v.17a8.89,8.89,0,0,1,0,7.64.73.73,0,0,0,0,.36l-.48.18a45.45,45.45,0,0,1-18.94,0l0-.19C88.3,223.5,88.29,220.87,88.29,218.24Z"/><path class="cls-24" d="M88.35,226.31c6.31-.07,12.62-.15,18.94,0-1.16,5.83-8.52,9.24-14.38,5.84A10.46,10.46,0,0,1,88.35,226.31Z"/><path class="cls-7" d="M107.78,225.82v-7.64h31.71v5.88c0,1.35-.54,1.76-1.82,1.76-1.62-.06-3.24,0-4.86,0Z"/><path class="cls-4" d="M139.45,71.74H106.71a15,15,0,0,0,1.05-7c9.92,0,19.83,0,29.74,0,1.91,0,1.94,0,2,2C139.49,68.35,139.46,70.05,139.45,71.74Z"/><path class="cls-25" d="M107.71,155.66l.06,4.07c-5.13,1-8.81-4.46-7.85-9.45a20.1,20.1,0,0,1,1.52-5.08,8.19,8.19,0,0,1,6.28-5l0,.2c.81,1,.64,2.07.54,3.16a2.41,2.41,0,0,1-.24.73,7.35,7.35,0,0,0-2.73,5.09c.88.21,1.7-1,2.65-.16a4.51,4.51,0,0,1,.31,3l-.53.46C106.39,153.66,106.53,154.67,107.71,155.66Z"/><path class="cls-26" d="M108.26,152.23c-.88-.88-.36-2.08-.49-3.13v-.35c.73-1.61,2-3.23,0-4.83V140.4a4.83,4.83,0,0,1,4.76,7.29A10.3,10.3,0,0,1,108.26,152.23Z"/><path class="cls-27" d="M107.71,155.66c-.76-.55-2.31-.26-2.3-1.52s1.54-.94,2.31-1.47v2.54c.13.1.18.21.13.3s-.09.15-.15.15Z"/><path class="cls-25" d="M107.71,155.66a3.38,3.38,0,0,1,0-.45l.53.12Z"/><path class="cls-20" d="M88.31,126.49l-.51-.43A.48.48,0,0,1,88.31,126.49Z"/><path class="cls-28" d="M125.61,143.88c-.75,3.17-1.32,5.87-2,8.55a5.34,5.34,0,0,1-1.94,3.2c-1,.7-1.69.49-2.24-.59a2.93,2.93,0,0,1-.36-1.72c.43-3.59,1.77-6.69,4.88-8.81A10.09,10.09,0,0,1,125.61,143.88Z"/><path class="cls-29" d="M161.09,152.23a4,4,0,0,1-.09,3.2,2,2,0,0,1-2.18,1.35,2.28,2.28,0,0,1-2.29-1.31,1.93,1.93,0,0,1,.62-2.29c.88-.88,1.76-1.84,2.64-2.75.28-.28.56-.74,1-.54s.57.79.49,1.31A9.23,9.23,0,0,1,161.09,152.23Z"/><path class="cls-30" d="M107.77,149.08c-1,.44-1.71,1.4-3,1-.15-3,.73-4.71,2.9-5.71,1.24,1.53.7,3.06,0,4.6Z"/><path class="cls-31" d="M107.74,149v-5.1c2.11.95,2.39,1.59,1.41,3.38A3.51,3.51,0,0,1,107.74,149Z"/><rect class="cls-32" width="250" height="250"/></svg>