<svg id="Layer_1" data-name="Layer 1" xmlns="http://www.w3.org/2000/svg" viewBox="0 0 250 250"><defs><style>.cls-1{fill:#9bb8da;}.cls-2{fill:#c1d8f2;}.cls-3{fill:#e7f0fa;}.cls-4{fill:#d56341;}.cls-5{fill:#650a0a;}.cls-6{fill:#c65432;}.cls-7{fill:#ab2903;}.cls-8{fill:#c1481e;}.cls-9{fill:#c84f25;}.cls-10{fill:#ce512a;}.cls-11{fill:#b2300a;}.cls-12{fill:#dc6a48;}.cls-13{fill:#d55831;}.cls-14{fill:#9c1a01;}.cls-15{fill:#da6847;}.cls-16{fill:#bf421c;}.cls-17{fill:#8e0c01;}.cls-18{fill:#ce512b;}.cls-19{fill:#c1481f;}.cls-20{fill:#c74f26;}.cls-21{fill:#b23910;}.cls-22{fill:#a32901;}.cls-23{fill:#9d1d04;}.cls-24{fill:#bf4b24;}.cls-25{fill:#c0461d;}.cls-26{fill:#becee6;}.cls-27{fill:#e36f4c;}.cls-28{fill:#be4c29;}.cls-29{fill:#eb7957;}.cls-30{fill:#f0886b;}.cls-31{fill:#e46740;}.cls-32{fill:#fd9778;}.cls-33{fill:#e7eff9;}.cls-34{fill:#e46741;}.cls-35{fill:#d55832;}.cls-36{fill:#d65e35;}.cls-37{fill:#d75e34;}.cls-38{fill:#cd5c3a;}.cls-39{fill:#d76341;}.cls-40{fill:#c95027;}.cls-41{fill:#c64a24;}.cls-42{fill:#bb461f;}.cls-43{fill:#e8c8b8;}.cls-44{fill:#fedece;}.cls-45{fill:#981d01;}.cls-46{fill:#b2390f;}.cls-47{fill:#bf421b;}.cls-48{fill:#b3300b;}.cls-49{fill:#c1471e;}.cls-50{fill:#9a2004;}.cls-51{fill:#9eaeca;}.cls-52{fill:#c2491f;}.cls-53{fill:#a1280b;}.cls-54{fill:#c34a21;}.cls-55{fill:#d05733;}.cls-56{fill:#e4b39f;}.cls-57{fill:#ae3618;}.cls-58{fill:#a93112;}.cls-59{fill:#e2a892;}.cls-60{fill:#de9077;}.cls-61{fill:#ab3415;}.cls-62{fill:#b23c1c;}.cls-63{fill:#e2aa93;}.cls-64{fill:#fefefe;}.cls-65{fill:#cd5b39;}.cls-66{fill:#7a0101;}.cls-67{fill:#feddcd;}.cls-68{fill:#c13f19;}.cls-69{fill:#fdddcd;}.cls-70{fill:#d56241;}.cls-71{fill:#b74423;}.cls-72{fill:#fcdbcb;}.cls-73{fill:#cc5937;}.cls-74{fill:#d65c33;}.cls-75{fill:#fd9270;}.cls-76{fill:#9d2307;}.cls-77{fill:#991f03;}.cls-78{fill:#b0371a;}.cls-79{fill:#e26640;}.cls-80{fill:#a02609;}.cls-81{fill:#c0cfe7;}.cls-82{fill:#c44b26;}.cls-83{fill:#ddb5a3;}.cls-84{fill:#f2c6b5;}.cls-85{fill:#b23e19;}.cls-86{fill:#efc2b0;}.cls-87{fill:#c54a22;}.cls-88{fill:#e8ac99;}.cls-89{fill:#c64e2a;}.cls-90{fill:#d9b9a9;}.cls-91{fill:#890e00;}.cls-92{fill:#a1a9c0;}.cls-93{fill:#d49c89;}.cls-94{fill:#efcfbf;}.cls-95{fill:#d29d88;}.cls-96{fill:#cc4f28;}.cls-97{fill:#a82e0c;}.cls-98{fill:#b33815;}.cls-99{fill:#c64922;}.cls-100{fill:#ba4118;}.cls-101{fill:#c1471d;}.cls-102{fill:#c44621;}.cls-103{fill:#9f2408;}.cls-104{fill:#c84e25;}.cls-105{fill:#b2380e;}.cls-106{fill:#a32a00;}.cls-107{fill:#c94c26;}.cls-108{fill:#d1542e;}.cls-109{fill:#b93c18;}.cls-110{fill:#ca4d28;}.cls-111{fill:#ac2f0b;}.cls-112{fill:#ae3317;}.cls-113{fill:#e46640;}.cls-114{fill:#d65932;}.cls-115{fill:#a0260a;}.cls-116{fill:#a52b0f;}.cls-117{fill:#fac9b6;}.cls-118{fill:#fac9b5;}.cls-119{fill:#c24a2b;}.cls-120{fill:#c34b2d;}.cls-121{fill:#f5b29a;}.cls-122{fill:#c24b2c;}.cls-123{fill:#f9c6b2;}.cls-124{fill:#f3a78d;}.cls-125{fill:#fd9678;}.cls-126{fill:#fef1e3;}.cls-127{fill:#b43d1f;}.cls-128{fill:#e3896d;}.cls-129{fill:#d75d34;}.cls-130{fill:#b13a1b;}.cls-131{fill:#b33c1e;}.cls-132{fill:#fea386;}.cls-133{fill:#fda385;}.cls-134{fill:#fddccc;}.cls-135{fill:#f78663;}.cls-136{fill:#efcebe;}.cls-137{fill:#e0c0b0;}.cls-138{fill:#cd5b3a;}.cls-139{fill:#fde2d4;}.cls-140{fill:#e97956;}.cls-141{fill:#df623c;}.cls-142{fill:#eb7d59;}.cls-143{fill:#b2300b;}.cls-144{fill:#c2b5c0;}.cls-145{fill:#c64822;}.cls-146{fill:#911601;}.cls-147{fill:#ba4016;}.cls-148{fill:#a82e0e;}.cls-149{fill:#ce522d;}.cls-150{fill:#b73d1c;}.cls-151{fill:#ad3213;}.cls-152{fill:#cb4f28;}.cls-153{fill:#cc5029;}.cls-154{fill:#ca4d27;}.cls-155{fill:#c94d27;}.cls-156{fill:#b73a17;}.cls-157{fill:#b94017;}.cls-158{fill:#c2d5ee;}.cls-159{fill:#fcd7c6;}.cls-160{fill:#af3519;}.cls-161{fill:#b83f15;}.cls-162{fill:#e9b9a7;}.cls-163{fill:#facab6;}.cls-164{fill:#bf4629;}.cls-165{fill:#bc4626;}.cls-166{fill:#aa2907;}.cls-167{fill:#e8c7b7;}.cls-168{fill:#921803;}.cls-169{fill:#901801;}.cls-170{fill:#b94016;}.cls-171{fill:#a32100;}.cls-172{fill:#c1d6ef;}.cls-173{fill:#dc6a49;}.cls-174{fill:#c5451f;}.cls-175{fill:#fefdf0;}.cls-176{fill:#b0330c;}.cls-177{fill:#a52b02;}.cls-178{fill:#b0320c;}.cls-179{fill:#ad300b;}.cls-180{fill:#c24520;}.cls-181{fill:#d89078;}.cls-182{fill:#bb3f19;}.cls-183{fill:#b63c1d;}.cls-184{fill:#e9a892;}.cls-185{fill:#b23a1c;}.cls-186{fill:#c84b25;}.cls-187{fill:#a72d0c;}.cls-188{fill:#aa3114;}.cls-189{fill:#d45630;}.cls-190{fill:#a92f0e;}.cls-191{fill:#e1a38c;}.cls-192{fill:#e1643d;}.cls-193{fill:#c34926;}.cls-194{fill:#d75d33;}.cls-195{fill:#e0633d;}.cls-196{fill:#e1633d;}.cls-197{fill:#e36640;}.cls-198{fill:#c04622;}.cls-199{fill:#901501;}.cls-200{fill:#9f2810;}.cls-201{fill:#c1d7f1;}.cls-202{fill:#d3552f;}.cls-203{fill:#fefdfd;}.cls-204{fill:#fdfcfc;}.cls-205{fill:#fdfdfd;}.cls-206{fill:#c54821;}.cls-207{fill:#c1441f;}.cls-208{fill:#c24620;}.cls-209{fill:#c44721;}.cls-210{fill:#a02508;}.cls-211{fill:none;}</style></defs><title>products</title><path class="cls-1" d="M47.93,249.65V152c.77.15.71.86.86,1.36q1.8,6.1,3.76,12.15c.16,3.56.06,7.13.06,10.69a4.92,4.92,0,0,1-.7,2.17,17.52,17.52,0,0,0-1.35,9.26c.16.76.32,1.52.54,2.28A9.7,9.7,0,0,0,54.52,195c2.61,1.89,5.45,1.89,8.38.94a3,3,0,0,1,1.56-.35,21.16,21.16,0,0,1,3,4.78,1.21,1.21,0,0,1,0,.42c-.8,1.49-2.19,2.51-3.19,3.85-2.76,3.76-5.4,7.53-6.14,12.24a16,16,0,0,0,.49,7.9,5.84,5.84,0,0,1,.32,1.42,13.3,13.3,0,0,1-1.36,2.94,12.81,12.81,0,0,0-1,3,15.74,15.74,0,0,0-.37,3.93,9.92,9.92,0,0,0,1.39,4.87c1.57,2.7,4.08,3.72,7,4a25.17,25.17,0,0,0,5.55-.38,117.57,117.57,0,0,1,21.54-1.21,77.67,77.67,0,0,1,15.15,2.35,41.65,41.65,0,0,0,7.17,1.47,11,11,0,0,0,10.58-5.37c1.53-2.33,1.49-2.33,3.56-.59a8.2,8.2,0,0,0,4.6,1.87c3.11.32,6.15-.29,9.19-.69,12.69-1.63,25.22-1.17,37.54,2.47,8.11,2.4,14.75-2.51,16-10.36a15.46,15.46,0,0,0-.58-7.27c-.15-1.33-1.28-2.31-1.35-3.69a3.23,3.23,0,0,1,1.13-.73,12.26,12.26,0,0,0,6.53-13.29c-.07-.31-.09-.63-.13-.94a13.43,13.43,0,0,0-3.32-6.82,13.68,13.68,0,0,0-7.76-4.64,31.88,31.88,0,0,0-10.13.12,5.91,5.91,0,0,1-2.95.19c-.61-.56,0-.76.33-1a17.75,17.75,0,0,0,2.68-2.45,12.4,12.4,0,0,0,2.69-7.91,5,5,0,0,1,.17-2,1.29,1.29,0,0,1,1.16-.53c1,0,2.08.07,3.11.05a11.65,11.65,0,0,0,11-8.65,11.5,11.5,0,0,0,.56-4.4,14,14,0,0,0-1.23-6.19,11.5,11.5,0,0,0-2.13-3.45,1.38,1.38,0,0,1-.5-1.07,1.8,1.8,0,0,1,.57-.95c3.12-3,4.14-6.78,3.76-11a5.77,5.77,0,0,1-.11-2.11,10.31,10.31,0,0,0,.65-4v-27.2a10.66,10.66,0,0,0-.37-3.23,23.18,23.18,0,0,0-1.36-5,17.43,17.43,0,0,0-4.25-5.56,1.22,1.22,0,0,1-.06-.42c.32-3.1.64-6.19.94-9.29a6.11,6.11,0,0,0,0-1.48,5,5,0,0,1,.68-2,14.5,14.5,0,0,0,.46-8.4,6.36,6.36,0,0,1-.32-2,88.61,88.61,0,0,0,.24-12.62,124.79,124.79,0,0,0-1.08-13.38c-.1-.65-.34-1.35.25-1.88a4.25,4.25,0,0,1,2.14-.29h6.25c1,0,1.66.4,1.47,1.57a3.75,3.75,0,0,0,0,.67V248a7.37,7.37,0,0,0,0,.94c.07.69-.26.94-.88.84H49.47A2.63,2.63,0,0,1,47.93,249.65Z"/><path class="cls-2" d="M194.56,49.4a147.94,147.94,0,0,1,1.36,24.35,15.39,15.39,0,0,1-.48,3.7c-.53-.12-.6-.6-.78-1A15.94,15.94,0,0,0,192.47,73a14.52,14.52,0,0,0-7.15-4.62c-4.52-1.2-9-.37-13.42.47-2.24.41-4.39,1.08-6.6,1.69a3.75,3.75,0,0,1-1.59.29c-1-.69-1-2-1.55-2.92a14.21,14.21,0,0,0-6.34-6.7,29.41,29.41,0,0,0-10.74-2.69,79.15,79.15,0,0,0-27.31,2.66,44.79,44.79,0,0,0-5,1.59,3.92,3.92,0,0,1-2,.45c-1-.58-1.64-1.64-2.51-2.4a10.85,10.85,0,0,0-1.75-1.49A14.38,14.38,0,0,0,100.41,57c-3.12-.57-6,.22-8.9,1.27-8,3-14.83,7.71-21.25,13.19-.77.65-1.34,1.76-2.63,1.57-.71-4.71,1.3-9.78,6.28-11.66a17,17,0,0,1,3.21-.83A11.06,11.06,0,0,0,71,58.88a19.73,19.73,0,0,0-7.72,1.22c-4.71,1.88-6.52,5.24-6.1,10.25.38,4.6.82,9.18,1.11,13.79A2.8,2.8,0,0,1,58,85a45,45,0,0,0-4.19,8.35,17.48,17.48,0,0,0,.25,13.18A12.72,12.72,0,0,0,56,109.58a11.42,11.42,0,0,0,4.34,3.29,1.53,1.53,0,0,1,.62.56,18.31,18.31,0,0,1,.67,4.53,9.58,9.58,0,0,0,.31,2,3.53,3.53,0,0,1-.33,1.5,14.8,14.8,0,0,0-.94,7c.12.55.12,1.11.28,1.66a30.17,30.17,0,0,0,1.13,3.57c0,.72-.53.94-1,1.35a17.32,17.32,0,0,0-6.19,8.55,5.94,5.94,0,0,0-.3,1.45c0,.69-.29,1.36-.25,2.06A12.25,12.25,0,0,0,56,154c.09.68-.49.78-.94,1a3.75,3.75,0,0,0-2.39,3.19c-.06,1.83,0,3.67,0,5.5,0,.56.11,1.17-.38,1.65-1.26-2.59-1.81-5.43-2.71-8.14-.57-1.69-1.07-3.4-1.61-5.11V49.42a1.88,1.88,0,0,1,1.37-.48h142.5C192.74,48.94,193.72,48.72,194.56,49.4Z"/><path class="cls-3" d="M194.56,49.4H47.93V45.45c0-.69.22-1,.94-.94H202.42c2.17,0,1.88-.21,2,2,.64,67.13.1,134.28.27,201.41,0,2.28.25,2-2,2h-153c-.56,0-1.19.25-1.67-.28H202.46c1.89,0,1.93,0,1.93-1.88V51.23c0-1.88,0-1.88-1.8-1.88Z"/><path class="cls-4" d="M56.13,232c.31-2.13,1.52-3.89,2.5-5.75a2.57,2.57,0,0,1,.35-.75c3-3.94,7.23-5.88,11.64-7.54a44.55,44.55,0,0,1,9-2.33c1.42-.19,2.82-.55,4.24-.64,3.39-.43,6.8-.21,10.2-.3a1.4,1.4,0,0,1,.41-.06c1.6.52,2.39-.6,3.24-1.6.73-.8,1.82-1.14,2.59-1.88a1.2,1.2,0,0,1,.75-.26c.94.13,1.88-.51,2.83,0,.32.67-.25.94-.63,1.13a49.26,49.26,0,0,0-4.06,3c2.07.44,3.61-1.1,5.37-2,2.59-1.32,5.3-2.35,8-3.43a94,94,0,0,1,20-4.14,80.61,80.61,0,0,1,9.19-.28,41.9,41.9,0,0,1,10.57,1.39,11.16,11.16,0,0,1,4.15,1.88,1.49,1.49,0,0,0,.2.15c.07,0,.18.19.33.17a1.29,1.29,0,0,1-.32-.19c-3.56-3-7.84-3.92-12.24-4.55a11,11,0,0,1-3.17-.57c-.15-.68.44-.71.8-.82,1.16-.33,2.28-.76,3.45-1,.42,0,.83.05,1.25.05a26.49,26.49,0,0,1,4.24.74c1.52.62,3.2.94,4.45,2.1a32.38,32.38,0,0,1,3,3.41,3.66,3.66,0,0,1,.76,2.75,12.08,12.08,0,0,1,.09,1.47c0,.43.16.7.64.67s.94,0,1.45,0h.66a66.24,66.24,0,0,1,22.29,3.51,23.46,23.46,0,0,1,4.27,2.09,6.44,6.44,0,0,1,1.38,1.17,16.07,16.07,0,0,1,3.44,5.32,2.49,2.49,0,0,1,0,2.1c-.24.78-.29,1.59-.47,2.38a6.53,6.53,0,0,1-.59,1.88c-.33.57-.6,1.43-1.4,1.26s-.42-1-.43-1.62a11.73,11.73,0,0,0-2.32-6.52,1.81,1.81,0,0,1-.25-.59c0,.31.2.47.29.7a13,13,0,0,1,1.73,6.87c0,.39,0,.89-.42,1.06s-.75-.23-1-.54a14.05,14.05,0,0,0-2.63-2.3,10.07,10.07,0,0,1,2.34,2.53c.8,1.28.63,1.88-.76,2.55a15.25,15.25,0,0,1-6.16,1.42c-1.13.05-2.26,0-3.39,0a43.51,43.51,0,0,1-6.09-1.34,49.94,49.94,0,0,0-14-1.21c-5.83.28-11.63,1-17.42,1.72a57.19,57.19,0,0,1-9.6.67,5.31,5.31,0,0,1-3.87-1.34c-.58-1.24-.11-2.6-.5-3.87-.13-.37-.18-.79-.28-1.17a13.44,13.44,0,0,1-.49-2.35,5.73,5.73,0,0,1,.86-1.88,35,35,0,0,1,2.19-2.94c-1.65.23-3.14.5-4.63.77a1.85,1.85,0,0,1-1.68-.18,11.94,11.94,0,0,0-1.67-1.42,10.57,10.57,0,0,1,1.63,1.43c1.12,1.38,2.24,2.75,2.17,4.71a5.25,5.25,0,0,0-.14,1.63,8,8,0,0,1-.94,3.91c-.24.48-.59,1.05-1.2.94s-.49-.79-.51-1.25A13,13,0,0,0,119,225.7a.57.57,0,0,1-.2-.32c0,.26.25.33.31.53a11.8,11.8,0,0,1,2,7.45c0,.4,0,.94-.44,1s-.71-.33-.94-.63a12.16,12.16,0,0,0-2.57-2.34,8,8,0,0,1,2.48,2.82,1.31,1.31,0,0,1-.21,1.84,1.14,1.14,0,0,1-.23.15,5.34,5.34,0,0,1-1.46.71,16.67,16.67,0,0,1-7.47.94,25.29,25.29,0,0,1-6.79-1.2,55.9,55.9,0,0,0-17.82-1.16c-6.83.51-13.6,1.56-20.41,2.21a15.29,15.29,0,0,1-3.94-.11C57.62,237.06,56.29,235.62,56.13,232Z"/><path class="cls-5" d="M52.46,157.81a3.54,3.54,0,0,1,2.12-3.07c.38-.23.89-.17,1.19-.56a31.49,31.49,0,0,1,5.38-1.88c1.17-.44,2.41-.61,3.58-1.06.94-.27,1.88-.66,2.9-.94a4.1,4.1,0,0,0,.78-.22c1.69-.62,3.45-.94,5.13-1.63,13.34-4,26.65-8.22,40-12.33.57-.17,1.15-.26,1.71-.47s1.3-.42,2-.63c.87-.22,1.72-.48,2.56-.78,3-.89,5.89-1.82,8.85-2.72a10.11,10.11,0,0,0,1.2-.32c2-.73,4-1.29,6-1.88,9.51-3,19.09-5.85,28.61-8.87,1.16-.37,2.36-.62,3.49-1.08,3.28-1,6.53-2,9.8-3,4.54-1.34,9-2.82,13.58-4.14.52-.12.94-.4,1.49-.52a1.55,1.55,0,0,1,.36-.08c.47-.13,1-.21,1.42-.38a1.75,1.75,0,0,0,.35-.11c.55-.15,1.08-.35,1.61-.54a5.53,5.53,0,0,1,1.2-.29,1.7,1.7,0,0,1,1.74.65,3.84,3.84,0,0,1,.56,2.19v30.07a4.79,4.79,0,0,1-.81,2.82,2.88,2.88,0,0,1-1.17,1.34c-1.8.68-3.64,1.25-5.5,1.76-2.73.94-5.5,1.69-8.24,2.56s-5.25,1.59-7.86,2.44c-2.06.56-4.08,1.27-6.13,1.89l-.38.13c-.82.22-1.62.5-2.44.7-.31.09-.61.17-.94.29s-.62.2-.94.33c-2.62.83-5.26,1.59-7.87,2.45-1.33.34-2.66.75-4,1.21a2.26,2.26,0,0,1-.37.11,5.27,5.27,0,0,0-1.77.58,6.46,6.46,0,0,1-2.17.76,11.29,11.29,0,0,0-3.17.86c-3.21.94-6.42,1.88-9.58,3a32.57,32.57,0,0,0-3.77,1.1c-.57.18-1.16.3-1.73.48a13.85,13.85,0,0,1-1.48.41,6.78,6.78,0,0,0-1.06.4c-.59.25-1.22.35-1.83.56-.38.1-.75.23-1.11.36-.81.29-1.65.51-2.48.76-1.74.58-3.51,1-5.25,1.65-.56.18-1.14.28-1.69.48-.24.09-.47.2-.72.27a8.38,8.38,0,0,0-1.29.32c-.67.28-1.38.42-2.06.65-.53.14-1,.3-1.55.49-8.86,2.83-17.74,5.51-26.62,8.24-5.19,1.6-10.36,3.22-15.58,4.81-4,1.31-8.12,2.52-12.17,3.77a8.47,8.47,0,0,1-1.32.32c-1.93.23-2.82-.52-2.82-2.46,0-2.34.05-4.71-.06-7.05C52.64,173.94,52.31,165.87,52.46,157.81Z"/><path class="cls-6" d="M184.48,216.74a60.68,60.68,0,0,0-12.6-2.93,58.61,58.61,0,0,0-10-.61c-.55-.83-.77-1.83-1.31-2.66-.32-.81-1.26-1.37-.94-2.43a2.88,2.88,0,0,1,1.42-1c7.7-3.71,15.68-6.6,24.24-7.54a16,16,0,0,1,7.36.57,4.82,4.82,0,0,1,1.21.58c-.26-.28-.67-.32-1-.52a19.34,19.34,0,0,0-7.39-1.55,41.77,41.77,0,0,0-7.8.86,78.92,78.92,0,0,0-18.3,6.29,10,10,0,0,0-1.4.84,4,4,0,0,1-2.11-1.66,37.72,37.72,0,0,1,6.26-3.21,74.25,74.25,0,0,1,7.21-2.82,3.45,3.45,0,0,1,1.06-.16c.41.07.09-.26.21-.34a39.66,39.66,0,0,1,6-1.37c1.78,0,3.47-.58,5.23-.68,2.82-.17,5.65-.52,8.47.36a16,16,0,0,1,4,2.22c.76.69.74.67,1.07,2.1a4.14,4.14,0,0,0,.57.86,10,10,0,0,1,.85,4.71c-.05.5-.1,1.11-.67,1.22s-.71-.48-.88-.87a11,11,0,0,0-4.77-5.31,13,13,0,0,1,4.22,5.44c.15.42.51.86.16,1.27s-.84,0-1.22-.13a17.73,17.73,0,0,0-3.77-1.11,10.16,10.16,0,0,1,3.43,1.39c1.35.86,1.49,1.51.41,2.7a17.57,17.57,0,0,1-7.41,5A3.62,3.62,0,0,1,184.48,216.74Z"/><path class="cls-7" d="M195.68,234.45c-.65,6.24-6.34,13.26-15.6,10.94-6.51-1.62-13-3.14-19.78-3.47a92.26,92.26,0,0,0-14.77.56c-3.68.4-7.37.94-11.08,1.06a9.32,9.32,0,0,1-8.39-3.81,14.64,14.64,0,0,1-3.49,5c-3.5,3-7.53,3.58-11.86,2.38a86.14,86.14,0,0,0-28.47-3.32c-4.8.29-9.56.82-14.33,1.46a13.24,13.24,0,0,1-6.31-.42A7.73,7.73,0,0,1,57,241a1.17,1.17,0,0,1,1.26.22c2.66,1.77,5.65,1.89,8.63,1.45a134.71,134.71,0,0,1,24.49-1.49,84,84,0,0,1,16.74,2.63,27.34,27.34,0,0,0,6.52,1.19,16.94,16.94,0,0,0,5.91-1.37c1,.36.83-.87,1.42-1.09,1.22-.94,2.64-1.81,2.53-3.7a.63.63,0,0,1,.39-.36c1,.25.66-.72,1-1.06s.41-1.39,1.1-.3a1.55,1.55,0,0,1,0,.43c-.28,1.59-.2,1.88,1.27,2.53a10.14,10.14,0,0,0,5.42.95c7.15-.76,14.28-1.78,21.5-1.82a88.72,88.72,0,0,1,20.84,2.55c.88.2,1.78.4,2.63.66a13.4,13.4,0,0,0,10.92-.85c.57-.08.77-.64,1.18-.94,1.19-.94,2.52-1.74,2.71-3.45a.7.7,0,0,1,.19-.32c.16-.25.26.41.44,0s.55-1.1.77-1.68C195.08,234.85,195.1,234.34,195.68,234.45Z"/><path class="cls-6" d="M79.49,215.94a72.24,72.24,0,0,0-8.33,2.16,31.48,31.48,0,0,0-9.94,5.39,28.1,28.1,0,0,0-2.14,2.23c-.7.23-.37-.74-.87-.74a16.23,16.23,0,0,1,.39-11.64,36.2,36.2,0,0,1,8.67-12.63c.7,0,.9.63,1.18,1.12a.89.89,0,0,1-.06.39c-1.22,1.88-2.92,3.41-4.23,5.25a26.32,26.32,0,0,0-4.84,11.3,4.52,4.52,0,0,0-.3,1.58c0-.16.08-.36.07-.57,1.2-4.43,3.72-8.11,6.59-11.6a31.52,31.52,0,0,1,3-3.3c.39-.36.72-.84,1.36-.76a1.79,1.79,0,0,1,.66.46c3.64,4.06,8.47,5.42,13.63,6.07a3.22,3.22,0,0,1,.81.11.61.61,0,0,1,.4.4A46,46,0,0,0,79.49,215.94Z"/><path class="cls-8" d="M121.11,243.69c-4,2.21-8,1.88-12.24.72a79.41,79.41,0,0,0-15.14-2.68,103.15,103.15,0,0,0-16.11.09c-4.43.36-8.83,1.1-13.27,1.45a9.45,9.45,0,0,1-5.65-1.4,5.82,5.82,0,0,0-1.64-.94,8.5,8.5,0,0,1-1.26-4.86c-.1-.25-.21-.54.22-.53.24,0,.35.28.43.48,1.29,3.38,4.16,3.87,7.16,3.6,3.93-.35,7.83-.94,11.75-1.31,3.34-.32,6.68-.58,10-.83a72.79,72.79,0,0,1,14.9.63,56.69,56.69,0,0,1,8.26,1.65,23.72,23.72,0,0,0,9,1c.79.33.29.8.09,1.18a6.23,6.23,0,0,1-2.22,1.89c-.14.1-.33.14-.43.3a2.92,2.92,0,0,1,.48-.29,15,15,0,0,0,4.71-4.31c.65.07,1.12-.71,1.83-.39A4.9,4.9,0,0,1,121.11,243.69Z"/><path class="cls-9" d="M68.54,187c5-1.58,10.08-3.18,15.14-4.71l24.48-7.53c.87-.28,1.73-.51,2.6-.77.56,1.35-.53,2.05-1.14,2.93,0,.11-.2.17-.17.33a.72.72,0,0,1,.12-.21c1-1.05,1.62-2.44,2.59-3.54l2.14-.6c1.2.16,1.56,1.2.7,2.32a10.53,10.53,0,0,1-3.17,2.73,17.7,17.7,0,0,1-7.25,2.1,86.56,86.56,0,0,0-30.76,8.75c-3.65,1.81-7.27,3.68-10.89,5.56-2.82,1.45-5.65,2-8.75.8a9.15,9.15,0,0,1-3.31-5.1c.45-.18.68.15.86.45,1.59,2.4,3.85,2.4,6.13,1.66a39,39,0,0,0,6.4-3c1.38-.73,2.67-1.74,4.37-1.79C68.8,187.43,68.52,187.19,68.54,187Z"/><path class="cls-10" d="M117.85,241c-3.52.72-6.86-.16-10.25-.94a87.7,87.7,0,0,0-13.86-2.1,83.46,83.46,0,0,0-11.07.16c-4.79.25-9.56,1.07-14.34,1.49-2.49.2-4.93.94-7.54.41-2.44-.46-4-1.54-4.7-3.95a.78.78,0,0,0-.11-.2l-.18.31a11.11,11.11,0,0,1,.34-4.1c.24.21.2.49.23.75.26,2.71,1.78,3.77,4,4.36,2.75.71,5.55.22,8.33-.12l7.9-.94c3.21-.36,6.42-.8,9.65-1s6.41-.16,9.61,0c4.37.18,8.48,1.64,12.72,2.39.66.11,1.35-.41,2,.18a8.37,8.37,0,0,0,3.85.37,16.3,16.3,0,0,0,4.28-.64c1.16-.33,1.53.06,1.06,1.14C119.29,239.46,119.16,240.69,117.85,241Z"/><path class="cls-11" d="M54.19,195.18c.28-.29.57-.14.88-.05a10,10,0,0,0,7.46-.95c4-2,7.86-4.08,11.84-6a83.9,83.9,0,0,1,20.31-7c3.88-.77,7.81-1.22,11.73-1.73a12.68,12.68,0,0,0,8.33-4.37,1.27,1.27,0,0,0-.43-2.15c.38-.41.94-.19,1.34-.29.47.48.38-.12.54-.27l1.67-.49c.46.67.11,1.32-.13,1.88a12.44,12.44,0,0,1-6.82,7.12c-.46.16-.94.32-1.39.5-2.06.75-4.26.66-6.39,1a83.29,83.29,0,0,0-13.9,2.71,81,81,0,0,0-12.11,4.62c-3.47,1.52-6.77,3.41-10.17,5.09-.56.26-1.13.52-1.68.8a1.35,1.35,0,0,1-.71.16,13,13,0,0,1-6.16,1.13A7.61,7.61,0,0,1,54.19,195.18Z"/><path class="cls-7" d="M176.61,197.14a19.05,19.05,0,0,1-5.1,1.37,1.27,1.27,0,0,0-.89.22c-.56.46-1.34.17-1.94.54a108.73,108.73,0,0,0-14,2.66c-1.2.33-2.34,1-3.66.7l-4.35-.59c0-.94.77-.94,1.37-1.17,2.71-.71,5.35-1.68,8.08-2.34a104.29,104.29,0,0,1,13.93-2.3,15.44,15.44,0,0,0,4.85-1.26c2.11-.95,3.91-2.26,4.62-4.64.42.4.42.4.3,1.32.42-.82-.17-1.51.08-2.16,1.07-.26,1.61-1.28,1.66-3.15a.81.81,0,0,1,.09-.37c.31-.35.26-.8.36-1.22s.07-.94.77-.66C183.34,189.66,181.43,194.09,176.61,197.14Z"/><path class="cls-12" d="M89,184.92a63,63,0,0,1,14.08-2.76.72.72,0,0,1,.59,0c.14.68-.42.6-.76.66-7.9,1.45-15,5.07-21.72,9.31a85.29,85.29,0,0,0-11.55,9c-.37.33-.67.77-1.26.71s-.73-.73-1.12-1.08v-.24a.67.67,0,0,1,.14-.53,8.57,8.57,0,0,1,1.52-1.43c1.1-.81,1.88-2,3.06-2.72A72.36,72.36,0,0,1,89,184.92Z"/><path class="cls-7" d="M198.91,170.49c.41,8.48-6.08,14.21-15,13.27-1.17-.19-2.32.45-3.48,0a5.17,5.17,0,0,0-1.23-.15c-1.5,0-3,.07-4.47.07a6.55,6.55,0,0,1-2.25-.65,2.48,2.48,0,0,1,.94-2.14,23.35,23.35,0,0,1,6.08-.1c2.21.16,4.41.47,6.59.44A11.69,11.69,0,0,0,194,178.4a.82.82,0,0,0,.94-.72,9.44,9.44,0,0,0,2.35-3.65c.05-.12.11-.23.17-.35a9.48,9.48,0,0,0,.76-2.27C198.38,171.09,198.24,170.51,198.91,170.49Z"/><path class="cls-2" d="M194.68,89.43c.53,1.61,0,3.2-.15,4.78a35.77,35.77,0,0,1-.77,6.36c-.94.19-1.37-.7-2.13-.94A28.05,28.05,0,0,0,183,97.07c-.73-.14-1.69.16-2.07-.86,1.05-.77,2.32-.66,3.51-.89a15.16,15.16,0,0,0,7.2-2.92,11.14,11.14,0,0,0,2-2C193.89,90,194.09,89.43,194.68,89.43Z"/><path class="cls-11" d="M194.68,89.43a12.76,12.76,0,0,1-9.26,6l-4.4.76a1.37,1.37,0,0,1-1.31.58c-2.29-.33-4.61,0-6.9-.38-.4-.23-.35-.48,0-.71a4.34,4.34,0,0,1,1.38-.51,90.29,90.29,0,0,1,9.51-2,13.85,13.85,0,0,0,8.89-4.71,1.83,1.83,0,0,1,.61-.53c0-.2.52.44.38-.23a2.44,2.44,0,0,1,.21-2.24c.42.06.45.33.4.68a7,7,0,0,1,.58-1.78c.14-.26.26-.71.75-.38.34,1.26-.24,2.46-.17,3.71Z"/><path class="cls-13" d="M68.54,187c.44.27.31.69.27,1.18-.21-.66-.5-.76-1.09-.45-2.14,1.17-4.31,2.29-6.48,3.39a16.88,16.88,0,0,1-4.71,1.68c-2.3.38-4-.25-5.19-2.34-.1-.18-.33-.28-.5-.42A4.8,4.8,0,0,1,50.3,188c-.15-.45-.11-.77.46-.45.38.22.54.71,1,1.06.17-1.65,0-3.22.1-4.77,0-.55-.17-1.2.5-1.55,0,2.23,0,4.44.08,6.65s.94,2.74,3,2.14c2.68-.8,5.34-1.66,8-2.48Z"/><path class="cls-14" d="M201.31,208.33a14,14,0,0,1-.66,8.47,12,12,0,0,1-7.11,6.8,2.42,2.42,0,0,1-1.46-2,2.18,2.18,0,0,1,1-.64,9.9,9.9,0,0,0,5.65-5.09c.65.2.31.63.35.94a3.51,3.51,0,0,0,0-1.12c.7-1.39,1.48-2.76,1.32-4.42a1.4,1.4,0,0,1,.06-.41,5.88,5.88,0,0,0,.37-1.66C200.81,208.88,200.75,208.4,201.31,208.33Z"/><path class="cls-15" d="M52.42,182.24c-.37,2.34,0,4.71-.21,7.12a2.85,2.85,0,0,1-1.45-1.51c-.28-.51-.33-.18-.4.1a14.85,14.85,0,0,1,1.24-9.72,8,8,0,0,0,.76-3.63c-.06-3.11,0-6.23-.07-9.33.2-2.49-.17-5,.19-7.46V177.1A36.73,36.73,0,0,1,52.42,182.24Z"/><path class="cls-10" d="M194.84,159.83a13.43,13.43,0,0,1,2.71,4.14c.07,1.16.57,2.27.42,3.47a4,4,0,0,1-.5,1.94,1.59,1.59,0,0,1-.94.42c-1.06.21-1.42-.09-1.1-1.12a7.2,7.2,0,0,0-.4-5.16c-.2-2.39-1.72-4-3.43-5.39-.3-.26-.64-.5-.55-.94a.64.64,0,0,1,.53-.16,6.58,6.58,0,0,1,2,1.31C194,158.8,194.59,159.17,194.84,159.83Z"/><path class="cls-16" d="M195.65,202.05c-.53-3-3.06-3.86-5.38-4.93,0,0-.09-.05-.09-.07a2.4,2.4,0,0,1,.11-.23,13,13,0,0,1,7.6,4.71,10.55,10.55,0,0,1,1.54,5.44.81.81,0,0,1-.43.51c-.53.23-1.06.82-1.59.55s-.2-.94-.19-1.49A6.63,6.63,0,0,0,195.65,202.05Z"/><path class="cls-10" d="M192.14,221.64l1.4,2a11,11,0,0,1,1.53,3.21,12.93,12.93,0,0,1,.09,4.07c-.18.94-.3,1.89-1.38,2.25a5.19,5.19,0,0,1-.78.18c-.78,0-1.21-.29-.73-1,1.11-1.72.82-3.63.95-5.49.49-1.52-.45-2.7-1.1-3.86a25.24,25.24,0,0,0-2.44-3.22C191.07,219.59,191.51,220.76,192.14,221.64Z"/><path class="cls-17" d="M194.84,159.83l-1.36-1.3c.1-1.23,1.19-1.49,2-2,.75-.05.21-.85.63-1.11.45-.61.89-1.23,1.3-1.88a2.66,2.66,0,0,0,.35-2.29.59.59,0,0,1,.33-.41c.77-.36.56-1.14.77-1.73.15-.42-.13-1,.58-1.19A13.59,13.59,0,0,1,194.84,159.83Z"/><path class="cls-18" d="M197.57,110.6l-1.09.28a.85.85,0,0,1-.2-.86,8.57,8.57,0,0,0-.71-4.58c0-1.58-1.23-2.56-2-3.77a1,1,0,0,1-.07-.39.59.59,0,0,1,.26-.52,12.34,12.34,0,0,1,4.26,5.27c.08,1.1.58,2.15.44,3.3C198.41,109.94,198.28,110.46,197.57,110.6Z"/><path class="cls-19" d="M193.73,232.81c1-.2,1-1.09,1-1.7.08-1.13.52-2.26.14-3.42a.75.75,0,0,1,.17-.87,13.69,13.69,0,0,1,.61,7.6c-.61.75-.62,1.76-1.23,2.54-.41.51-.47,0-.68-.1a4.11,4.11,0,0,1-.94-1.83,7.71,7.71,0,0,1,.8-1.5C194,233.3,194,233.24,193.73,232.81Z"/><path class="cls-20" d="M192.68,72.8a14.16,14.16,0,0,1,2.76,4.65l.45,1.61c-.21.94.26,1.88-.06,2.83-.39.5-.81.27-1.14,0a10,10,0,0,1-1.54-1.29,4.42,4.42,0,0,0,.22-1.61c0-.1.08-.17.11-.25s1.05-.32.08-.65a18.06,18.06,0,0,0-1.15-4.28C192.25,73.49,191.91,72.94,192.68,72.8Z"/><path class="cls-21" d="M199.2,207a13.89,13.89,0,0,0-1.16-4.52c-.12-.29-.54-.56-.15-.94a13.92,13.92,0,0,1,3.42,6.85c-.53.82.2,2-.75,2.7a3.53,3.53,0,0,1-1.76-1.71,6.49,6.49,0,0,1,.16-1.52c.06-.17.13-.37.3-.42C200,207.14,199,207.14,199.2,207Z"/><path class="cls-19" d="M197.29,169.39a9.46,9.46,0,0,0,0-4.55.81.81,0,0,1,.21-.87,12.81,12.81,0,0,1,1.39,6.52,14.11,14.11,0,0,0-.64,2.31c-.16.44-.15,1-.72,1.22a9.07,9.07,0,0,1-1.26-2.33c0-.56.32-1,.35-1.59a.5.5,0,0,1,.5-.36C197.73,169.8,197.31,169.53,197.29,169.39Z"/><path class="cls-22" d="M199.42,147.91c-.37.94-.3,2-.69,3-.32.74-.42,0-.62,0a2.63,2.63,0,0,1-1.27-1.63,3.36,3.36,0,0,1,.54-1.6c.17-.3.59-.26.73-.58a2.88,2.88,0,0,1,1.06-1.05Z"/><path class="cls-23" d="M195.66,82c.11-1-.26-2,.23-3a13.94,13.94,0,0,1-.54,8.7c-.64-1.27,0-2.54,0-3.76a1,1,0,0,1-.21-1A2,2,0,0,1,195.66,82Z"/><path class="cls-24" d="M197.57,110.6c1-.94.45-2.2.45-3.32,0-.42-.35-.84,0-1.26a12.17,12.17,0,0,1,1.37,4.93A3.69,3.69,0,0,0,197.57,110.6Z"/><path class="cls-25" d="M180.43,183.53a18,18,0,0,1,3.52.23c-.37.14-.89-.23-1.13.33-.8.23-.4.88-.48,1.36s.07.8-.56.54a4.63,4.63,0,0,1-1.59-1.7A.8.8,0,0,1,180.43,183.53Z"/><path class="cls-26" d="M67.56,200.13l-.24.35a21.66,21.66,0,0,1-2.83-4.71l.57-.4a1,1,0,0,1,.68.4C66.11,197.34,67.23,198.57,67.56,200.13Z"/><path class="cls-27" d="M193.79,100.73v.62a2.8,2.8,0,0,1-2.18-1.88.48.48,0,0,1,.08-.1.21.21,0,0,1,.24,0l1.88,1.09A.82.82,0,0,1,193.79,100.73Z"/><path class="cls-28" d="M58.21,225c.64-.17.45.65.87.74l-.45.52Z"/><path class="cls-29" d="M110.55,63c1.65-.12,3.09-.94,4.64-1.43A82.57,82.57,0,0,1,136.92,58a51.86,51.86,0,0,1,15.45,1.49,11.46,11.46,0,0,1,3.86,1.64,18.47,18.47,0,0,1,3.54,3.47,3.54,3.54,0,0,1,.69,2.51,29.65,29.65,0,0,0-.06,3.77,3.38,3.38,0,0,1-.58,2c-.41.53-.86.7-1.18-.11a1.87,1.87,0,0,1-.13-.4c-.31-2.69-1.78-4.78-3.54-6.72-.14,0-.11-.29-.31-.26a.42.42,0,0,1,.2.17,15.31,15.31,0,0,1,2.9,5.66,3.71,3.71,0,0,1,.17,1.2c0,.4,0,.89-.37,1.09s-.75-.17-1.07-.4a14.2,14.2,0,0,0-2.88-1.77,9.08,9.08,0,0,1,3.08,2.7,1.14,1.14,0,0,1-.07,1.62,1.06,1.06,0,0,1-.21.16,9.94,9.94,0,0,1-3,1.65A23,23,0,0,1,147.07,79a9.43,9.43,0,0,1-3.63-.07,60.27,60.27,0,0,0-15.3.33,37.74,37.74,0,0,1,6.7,1.59,26.7,26.7,0,0,1,6.48,3,6.85,6.85,0,0,1,1.53,1.31A18,18,0,0,1,145.52,89a4.26,4.26,0,0,1,.46,2.76,14.86,14.86,0,0,1-.85,4.37,3.8,3.8,0,0,1-.55,1.08c-.26.33-.57.69-.94.62s-.53-.61-.5-1c.23-2.82-.95-5.1-2.35-7.34a.5.5,0,0,1-.1-.19c-.08.12.09.14.1.24a14,14,0,0,1,1.93,7.12c0,.44.08.94-.47,1.16s-.76-.25-1-.57a16.86,16.86,0,0,0-3-2.7,1,1,0,0,1-.31-.21c0,.17.17.11.23.2A10.08,10.08,0,0,1,141,97.6c.65,1.09.56,1.58-.59,2.18a12.76,12.76,0,0,1-5.9,1.41,29.41,29.41,0,0,1-9.91-1.15A48.25,48.25,0,0,0,109,98.69c-6.47.4-12.88,1.3-19.32,1.88a25,25,0,0,1-6.91.16c-4.17-.76-5.39-2.18-5.25-6.41a13.55,13.55,0,0,1,3.93-7,25.4,25.4,0,0,1,3.76-3.1A32.44,32.44,0,0,1,92,81.09a1.81,1.81,0,0,0,1.36-1.78c1.09-5.37,4.4-9.13,8.78-12.11a5.71,5.71,0,0,1,1.33-.72c.59-.27,1.08-.72,1.69-.94l.59-.35a5.3,5.3,0,0,0,.89-.52,3.23,3.23,0,0,1,.79-.39,19.47,19.47,0,0,0,1.88-1A2.74,2.74,0,0,1,110.55,63Z"/><path class="cls-12" d="M102.33,67.34c-.22.59-.83.82-1.29,1.14a18,18,0,0,0-7.41,10.85c-.94,1-2.19,1.26-3.27,1.89-1.72,1.09-3.46,2.14-5.17,3.27l-3.53,3.06a14.92,14.92,0,0,0-2.46,2.5c-3.26,3.33-6.79,6.48-9.83,10a4.62,4.62,0,0,1-.94.82c-.5.35-.83.21-1-.37a22.57,22.57,0,0,1-.11-3.94c0-5.53-.09-11.06.06-16.59a2.34,2.34,0,0,1,.07-.45,19.81,19.81,0,0,1,3.89-4.13A83.67,83.67,0,0,1,90.89,62a37.57,37.57,0,0,1,7-2.5,11.89,11.89,0,0,1,4.45-.12c.3,0,.57.23.94.14-.32.07-.59-.16-.94-.15-5.88-1.09-11.13.91-16.18,3.47a81,81,0,0,0-17.08,12c-.41.36-.74,1-1.46.64a2.69,2.69,0,0,1-.12-2,.65.65,0,0,1,.28-.35,81.55,81.55,0,0,1,19.3-13.38c3.77-1.81,7.61-3.36,11.9-3.25a2.59,2.59,0,0,1,1.45.23c-.58.45-1.22,0-1.68.14a9.81,9.81,0,0,1,3.62.75,3.78,3.78,0,0,1,2.33,2.24,12.68,12.68,0,0,1,1.89,3.39c.15.54.46,1.08.09,1.66l-.84.53c-1-.81-1.75-1.94-2.82-2.64a10.71,10.71,0,0,0-3.6-1.48,6.24,6.24,0,0,0-.94-.35c.15.14.33.11.49.18a15.73,15.73,0,0,1,6.36,4.6l-1.72,1.08c-1.37-.45-2.72.16-3.83.1a6.76,6.76,0,0,1,1.62-.1C101.81,66.77,102.29,66.74,102.33,67.34Z"/><path class="cls-12" d="M163.56,70.6a75.7,75.7,0,0,1,12.06-2.83c3.34-.4,6.71-.8,10,.41a18.79,18.79,0,0,1,3.65,2.32c.53.48,1.12.94,1.08,1.76a3.17,3.17,0,0,0,.4,1.24,16.28,16.28,0,0,1,.8,3,3.1,3.1,0,0,1-.17,1.88c-.13.35-.32.71-.73.72s-.53-.32-.64-.62c-.95-2.56-2.91-4.2-5-5.65l-.22-.14h-.09a.51.51,0,0,1,.24.1,14.37,14.37,0,0,1,4.36,5.3c.23.47.59,1.06.11,1.52s-.94,0-1.38-.18a15.37,15.37,0,0,0-3.39-.94,9.31,9.31,0,0,1,3.5,1.42c1.33.87,1.43,1.34.37,2.58a17.62,17.62,0,0,1-6.87,4.71l-1,.38a9.53,9.53,0,0,1-3.38.94c-8,1-15.18,4.26-22.07,8.25-2,1.18-4.08,2.33-6.08,3.56a.88.88,0,0,1-.42.08c-.65-.2-.62-.74-.55-1.22a16.25,16.25,0,0,0-.8-7.22,16,16,0,0,0-1.69-3.32c-.25-.4-.64-.79-.21-1.31a2.17,2.17,0,0,1,1.58-.19,41.82,41.82,0,0,0,4.47.23c5.79.49,10.85-4.18,11.8-9.54.07-.36.2-.7.29-1a2,2,0,0,0,.11-1.52,2,2,0,0,1-.1-.41c0-.65-.19-1.32.32-1.88,1.28,1.23,1.28,1.24,3.39.55a58.16,58.16,0,0,1,14.59-2.94,16.43,16.43,0,0,1,4.53.42c-3.6-1.47-7.6-1.34-11.63-.72a59.85,59.85,0,0,0-9,2.08,2.49,2.49,0,0,1-2,.17A1.67,1.67,0,0,1,163.56,70.6Z"/><path class="cls-3" d="M67.82,73.13a1.6,1.6,0,0,1,0,.21,5.19,5.19,0,0,1-.94,1.3,60.86,60.86,0,0,0-7.89,9c-.23.32-.43.71-.94.63-.45-2.83-.46-5.75-.87-8.6-.3-2-.23-4-.42-6.06-.41-4.24,1.08-7.37,5.28-9.35a17.82,17.82,0,0,1,14.56-.55,6.43,6.43,0,0,1,1.52.94,14.4,14.4,0,0,0-6.44,2.41,9,9,0,0,0-3.53,6A12.42,12.42,0,0,0,67.82,73.13Z"/><path class="cls-29" d="M54.22,144.92c.72-4.3,3.24-7.44,6.5-10.09.41-.33,1-.48,1.16-1.07.34-.34.69-.51,1.12-.16a2.45,2.45,0,0,1,.17,1.62c-.15.64-.73.88-1.18,1.26a21.6,21.6,0,0,0-3.3,3.11,33.14,33.14,0,0,1,3.37-2.08c.45-.2.94-.64,1.42,0a22.54,22.54,0,0,1,.74,5.6,45.91,45.91,0,0,1,.54,6.2.9.9,0,0,1-.25.39,9.77,9.77,0,0,1-7.88-.63,3.55,3.55,0,0,1-2.19-3.33A1.71,1.71,0,0,0,54.22,144.92Z"/><path class="cls-12" d="M53.89,106.83a14.44,14.44,0,0,1-1.48-9.17c.58-4.77,2.74-8.92,5.36-12.86.94.53.55,1.47.7,2.25a1.72,1.72,0,0,1-.1.39,57.84,57.84,0,0,0-2.82,6.15,23.62,23.62,0,0,0-1.36,7,28.1,28.1,0,0,1,3.36-8.47c.23-.39.45-1.11,1.2-.61a3,3,0,0,1,.42,1.42c.45,4.7.82,9.32,1.34,14a2.44,2.44,0,0,1,0,.54,1.39,1.39,0,0,1-.13.44C58.51,109.56,55.66,109.12,53.89,106.83Z"/><path class="cls-30" d="M61.3,121.24l.43-1.1a11.81,11.81,0,0,1,4-6c.59-.55,1-1.57,2.15-1.34a4.12,4.12,0,0,1,.31,1.77,1.16,1.16,0,0,1-.5.83,26.88,26.88,0,0,0-4.57,6.28A35.12,35.12,0,0,1,66.67,118c.32-.32.64-.82,1.25-.46a1.12,1.12,0,0,1,.18.42c0,3.76.41,7.47.36,11.22a2.12,2.12,0,0,1-.49,1.64c-1.88.58-3.77.88-5.53-.48a3.66,3.66,0,0,1-.5-1.8C61.69,126.09,61.42,123.67,61.3,121.24Z"/><path class="cls-31" d="M54.22,144.92a1,1,0,0,1,.51.89A3.86,3.86,0,0,0,57.45,149a12.89,12.89,0,0,0,7,.51,1.66,1.66,0,0,1,.31,1.88,17.61,17.61,0,0,1-3.53,1.1,8.89,8.89,0,0,1-2.82,0c-3-.55-4.13-1.94-4.54-5.42Z"/><path class="cls-32" d="M58.29,87c-.36-.68-.08-1.51-.51-2.17l.23-.53a75,75,0,0,1,8.85-10.15,10.52,10.52,0,0,1,.94-.78v2.17a.36.36,0,0,1,.08.36C66,78,63.92,80,62.23,82.23c-.94,1.27-1.93,2.52-2.82,3.77C59.06,86.43,58.9,87,58.29,87Z"/><path class="cls-33" d="M67.76,112.78a20.49,20.49,0,0,0-6,7.36c-.95-1.27-.24-2.83-.71-4.21a11.35,11.35,0,0,1-.29-2.53.66.66,0,0,1,.71-.27,8.89,8.89,0,0,0,5.27-.86,1.13,1.13,0,0,1,1-.09A.43.43,0,0,1,67.76,112.78Z"/><path class="cls-34" d="M160,70.93c0-1.48,0-3,.08-4.45s-1.09-2.17-1.83-3.15c-.61-.82-1.6-1.29-2.09-2.22a13.49,13.49,0,0,1,6.22,6.54,15.2,15.2,0,0,1,.45,4.14,2.45,2.45,0,0,1-.52,1.63,1.22,1.22,0,0,1-.46.25c-.51.16-1.08.55-1.54.16s-.06-1,.1-1.49a8.48,8.48,0,0,0-.12-4.58c-.13-.16-.14.17,0,0s.09,0,.12.07a8.47,8.47,0,0,1,.21,1.88C160.63,70.2,160.73,70.78,160,70.93Z"/><path class="cls-13" d="M190,72.28c.31-.55-.11-.84-.44-1.12a12.16,12.16,0,0,0-4.15-2.74l-.07-.08.32-.17a12.77,12.77,0,0,1,7.06,4.63c-.49.39,0,.73.11,1a8.89,8.89,0,0,1,.94,4.38,1.94,1.94,0,0,1-.81.69c-.66.37-1.17.17-1.06-.57.25-1.84-.58-3.36-1.21-5A6.41,6.41,0,0,0,190,72.28Z"/><path class="cls-35" d="M104.43,60c-1.17-2.52-3.7-2.51-5.89-3.3h1.88a11.69,11.69,0,0,1,6.28,2.43,16.62,16.62,0,0,1,2.69,4.41l-2,1.05A8.37,8.37,0,0,0,104.43,60Z"/><path class="cls-36" d="M54,147.1c.51,2.14,1.17,4.11,3.63,4.83,1.22.35,2.49.26,3.69.6a28.34,28.34,0,0,1-5.5,1.65A10.25,10.25,0,0,1,54,147.1Z"/><path class="cls-37" d="M162.2,73.35a10.72,10.72,0,0,0,.13-4.58c0-.4-.26-.77.09-1.12a13.35,13.35,0,0,1,1.14,2.95l.31,2a.3.3,0,0,1,0,.42h0v2.23a5,5,0,0,1-.51,2.21c-.17.45-.39.74-.88.37a9.6,9.6,0,0,1-1.18-2.27,11.19,11.19,0,0,1,.47-1.49c.07-.1.16-.26.28-.26C162.43,73.81,162.6,73.72,162.2,73.35Z"/><path class="cls-13" d="M53.89,106.83a5.2,5.2,0,0,0,6.28,1.09,4.16,4.16,0,0,1,.57,2.31,1.47,1.47,0,0,1-.13.42,3.25,3.25,0,0,1-3.71-.06,5.11,5.11,0,0,0-1.09-.74A8.5,8.5,0,0,1,53.89,106.83Z"/><path class="cls-38" d="M61.3,121.24c.89,1.42.44,3.06.75,4.58s.38,2.93.56,4.39a.19.19,0,0,1,.07.22.1.1,0,0,1-.09.1,3.19,3.19,0,0,1-2-2.64c-.06.22.15.58-.22.77A13.29,13.29,0,0,1,61.3,121.24Z"/><path class="cls-39" d="M67.86,112.25c-1.21.32-2.27,1-3.53,1.23a11.75,11.75,0,0,1-3.6-.08l-.57-.31a1,1,0,0,1,.63-.5,12.3,12.3,0,0,0,5.76-2.54c.36-.29.71-.73,1.31-.52.44.68.19,1.46.33,2.19a1.34,1.34,0,0,1,0,.4.23.23,0,0,1-.27.16Z"/><path class="cls-40" d="M60.72,112.78a.64.64,0,0,1-.56.31,8.54,8.54,0,0,1-4.37-3.24c1-.07,1.48.89,2.44.94a4,4,0,0,0,2.2-.16,1.5,1.5,0,0,1,.34,2.09Z"/><path class="cls-40" d="M109.43,63.57a18.91,18.91,0,0,1-2.68-4.41,11.71,11.71,0,0,1,3.77,3.77A1.62,1.62,0,0,1,109.43,63.57Z"/><path class="cls-41" d="M60.39,128.66l.1-1.17c.31,1.29,1.39,2,2.09,3a1.88,1.88,0,0,1,.24,2c-.63.62-.94,0-1.24-.38-.48-.53-.53-1.28-.94-1.88A3.29,3.29,0,0,1,60.39,128.66Z"/><path class="cls-42" d="M60.64,130.23c.85.65.94,1.94,2,2.42.51,0,.44.35.37.68l-.14.14a1.52,1.52,0,0,1-1,.29A9.26,9.26,0,0,1,60.64,130.23Z"/><path class="cls-29" d="M145.59,201.78c-1.32.86-3,.85-4.34,1.59a1,1,0,0,1-.81.39,76.62,76.62,0,0,0-23.77,2.67,50,50,0,0,0-11.36,4.48c-.41.17-.8.43-1.26.16-1-.29-2,.47-3,0,.25-.84,1-1.07,1.67-1.48a50.93,50.93,0,0,1,10.46-4.71c.5-.18,1.1-.19,1.31-.82a11,11,0,0,0-.2-2,4.14,4.14,0,0,1,.08-1c.25-.79.15-1.64.41-2.43.3-1.57,1.19-3,.81-4.71-.09-.38.2-.56.6-.47a.72.72,0,0,0,.82-.33c.26-.4.6-.75.86-1.16l.41-.58a14.4,14.4,0,0,1,1.61-1.88,16.47,16.47,0,0,1,2-2.2,46.16,46.16,0,0,1,6.36-4.84,1,1,0,0,1,.41,0,1.67,1.67,0,0,1,.82,1.73c-1.56,1.52-3.45,2.64-5.08,4.08a25.22,25.22,0,0,0-7.12,9.89A41.69,41.69,0,0,1,130.51,186a.88.88,0,0,1,.39.15,9,9,0,0,0,8.39,2.71,57,57,0,0,0,5.91-1.55,123.08,123.08,0,0,1,20.57-4.22c1-.1,2.07,0,3.1-.07h2.3c1.29.07,1.55.49.94,1.61a52.62,52.62,0,0,1-3.31,5.08,1.83,1.83,0,0,1-.5.42,8.23,8.23,0,0,1-1.21.42,17.82,17.82,0,0,1-5.32,1c-6.59.56-12.69,2.78-18.61,5.57-2.66,1.26-5.26,2.62-7.91,3.95a60.19,60.19,0,0,0,7,.14C143.37,201.17,144.59,200.93,145.59,201.78Z"/><path class="cls-10" d="M126.84,237.15v-.28c0-.82-.42-1.69.26-2.45,2.48,1.59,5.24,1.17,7.92,1,2.9-.18,5.79-.65,8.69-1s6-.87,9-1a92.85,92.85,0,0,1,11.19-.22,79,79,0,0,1,13.37,2.52,4.87,4.87,0,0,0,1.08.08,18.75,18.75,0,0,0,8.84-.26c.46-.14,1-.43,1.4,0s.08,1.05-.16,1.51a4.28,4.28,0,0,1-1.75,2.34,15.21,15.21,0,0,1-7.92-.27,78.21,78.21,0,0,0-25.84-2.6c-6.33.34-12.62,1.2-18.91,2a14.8,14.8,0,0,1-5.14-.11A2.63,2.63,0,0,1,126.84,237.15Z"/><path class="cls-43" d="M122.65,226.35c-4.53-3.56-9.9-4.8-15.35-5.79a81.09,81.09,0,0,0-18.54-1.06c-7.77.37-15.39,1.53-22.6,4.8a33.69,33.69,0,0,0-6.71,4.06,10.35,10.35,0,0,1,3-3.65,32.94,32.94,0,0,1,14.78-6.47,71.89,71.89,0,0,1,36.19,1.8,19.75,19.75,0,0,1,8,4.66A3.94,3.94,0,0,1,122.65,226.35Z"/><path class="cls-43" d="M190.45,223.85c-4.87-3.36-10.49-4.55-16.18-5.41a82.19,82.19,0,0,0-17.31-.76,68.3,68.3,0,0,0-18.63,3.42,32.64,32.64,0,0,0-9.63,5.18c-.25.06-.38,0-.28-.29,3.51-4.8,8.6-7.07,14.06-8.69a61.17,61.17,0,0,1,15.39-2.25A69.84,69.84,0,0,1,182,218.12c3.35,1.1,6.48,2.59,8.81,5.38C190.85,223.79,190.74,223.91,190.45,223.85Z"/><path class="cls-44" d="M105,210.74a43.86,43.86,0,0,1,12.14-4.84,75.62,75.62,0,0,1,17.63-2.52,48.39,48.39,0,0,1,5.65.07c0,.69-.67.63-1.09.78a37.7,37.7,0,0,1-6.79,1.62A111.43,111.43,0,0,0,112.47,210a37.29,37.29,0,0,1-5.43,1.09C106.32,211.11,105.59,211.32,105,210.74Z"/><path class="cls-37" d="M145.59,201.78a17.75,17.75,0,0,0-3.49-.29c-.68-.31-1.43,0-2.19-.23.09-.8.78-.94,1.29-1.2a76.83,76.83,0,0,1,16.85-6c1.69-.38,3.37-.71,5.08-.94a2.28,2.28,0,0,1,1.46.07c.42.87-.38,1.1-.83,1.43A35.83,35.83,0,0,1,157,198c-2.83,1.29-5.94,2.1-8.9,3.19a1.65,1.65,0,0,0-1.33.82A1.84,1.84,0,0,1,145.59,201.78Z"/><path class="cls-45" d="M117.85,241a11.81,11.81,0,0,0,2-3.63,18.53,18.53,0,0,1-5.4,1.09,16.67,16.67,0,0,1-4.28-.46c-.1,0-.48,0-.1-.23a1.09,1.09,0,0,1,.4-.07,17.81,17.81,0,0,0,8-1.42c1.39-.61,1.42-.94.57-2.22a16.5,16.5,0,0,0-3.24-3.33c2.07.51,3.45,1.95,4.82,3.69.57-3.25-.55-6-1.8-8.65a.21.21,0,0,1-.06-.22.12.12,0,0,1,.08-.12c2.46,2.32,3.34,5.25,3.25,8.9,1.66-1.52,1.78-3.28,1.89-5,.15-.24.3-.49.63-.22.84,1.88.31,3.65-.64,5.37a3.94,3.94,0,0,1,1.37.07c.32.14.85.25.77.61-.16.64-.89.43-1.36.61a2.77,2.77,0,0,1-1.21.15c.27.39.67.66,1,1.05s.79.94.32,1.6l-.28.27c-.58-.1-.86-.62-1.29-.94-.17-.08-.45-.48-.36.13,0,.22.07.43.09.65-.06,1.38.37,2.88-.94,4a8.76,8.76,0,0,1-.84,1.33c-.22.24-.19-.12-.25-.23.54-1.52,1.1-3,.56-4.65a1.21,1.21,0,0,1-.32-1.33c-.28.64-.39,1.42-1,1.88a9.61,9.61,0,0,1-4.89,4.37c-.28.1-.34,0-.28-.27A7.87,7.87,0,0,0,117.85,241Z"/><path class="cls-45" d="M186.69,239.06a8.09,8.09,0,0,0,1.88-3.52c-3.5,1.07-6.87,1.68-10.26.28,3,0,6,0,8.88-1.32,1.63-.74,1.68-.87.72-2.31a23.22,23.22,0,0,0-3.18-3.32c2.23.65,3.51,2.06,4.85,3.64.45-3-.56-5.57-1.57-8.12-.1-.29,0-.35.29-.29a10.61,10.61,0,0,1,2.52,8.53c1.77-1.38,1.74-3.2,2.1-4.85.08-.33-.09-.74.3-.95.54,2.18.54,4.26-.95,6.12.57.33,1-.13,1.48-.1.29.42.94.09,1.25.64-.44.07-.89-.15-1.23.16s-1.2.51-.81,1.36a3.17,3.17,0,0,1,.83,1.88v.3c-.85.08-.94-.87-1.52-1.15-.94,0-.17.62-.32.89,0,1.35.16,2.7-.89,3.77-.38.28-.24.94-.84,1.08-.46-.63-.11-1.28-.05-1.88a6.53,6.53,0,0,0,.1-2c-.1-.65-.11-1.32-.27-2.09a5.79,5.79,0,0,1-.9,2.52,9.5,9.5,0,0,1-4.77,4.2c-.35.15-.82.47-1.09,0s.23-.72.54-.94C184.83,240.87,185.69,239.89,186.69,239.06Z"/><path class="cls-1" d="M151.06,202.63a88.28,88.28,0,0,1,16-3.5c.52-.07,1.07-.07,1.61-.1.33,0,.74-.38.85.26A111.77,111.77,0,0,0,156,205.06c-.31.13-.43-.08-.54-.3C154.15,203.63,152.4,203.55,151.06,202.63Z"/><path class="cls-46" d="M192.14,221.64c-.94-.47-1.33-1.67-2.45-1.88l-1.13-1c-.09-.43.25-.57.52-.65a20.11,20.11,0,0,0,5.13-2.32.76.76,0,0,1,.64-.09c.41,1.25-.41,2.17-.8,3.07a9.22,9.22,0,0,0,1.82-6.08,2.43,2.43,0,0,1,.17-1.33c.16-.33.38-.34.6,0a4,4,0,0,1,.12,1.94c.33-.16.5-.62.94-.58a3,3,0,0,1,.94,3.34c.11,2.09-1.7,2.83-2.91,4A8.58,8.58,0,0,1,192.14,221.64Z"/><path class="cls-43" d="M132.54,205.82c2.58-.94,5.34-1.32,7.88-2.4l.83,0a36.81,36.81,0,0,1,11.21,2.28,13.63,13.63,0,0,1,4.51,2.94c.07.25,0,.38-.27.28a26.61,26.61,0,0,0-11-3.05A88.12,88.12,0,0,0,132.54,205.82Z"/><path class="cls-10" d="M125.46,234.71a5.24,5.24,0,0,0-2.25.32,6.8,6.8,0,0,0,1.41-6,1.18,1.18,0,0,1-.25-1.34c0-1.88-1.27-3.19-2.18-4.71-.06-.25,0-.35.29-.27,1.5.57,2.87-.36,4.32-.42a23.81,23.81,0,0,0,2.77-.44l-2.74,3.58c-1.4.36-1.4.36-.82,1.63l.53,2.19a16.31,16.31,0,0,1-.21,3.69C126.15,233.6,126.09,234.29,125.46,234.71Z"/><path class="cls-47" d="M194.84,215.62a16,16,0,0,1-5.32,2.57c-.32.07-.73.1-.94.45l-4.1-1.9,1.66-.79c1.89,0,3.49-1,5.11-1.83a11.88,11.88,0,0,0,2.82-2.11c.25-.24.56-.54,1-.42s.47.65.44,1C195.38,213.66,195.84,214.81,194.84,215.62Z"/><path class="cls-46" d="M94.44,214.85a.83.83,0,0,1-.73.25,90.23,90.23,0,0,0-9.87.27.49.49,0,0,1,.18-.6,18.58,18.58,0,0,1,5.09-3.51,30.81,30.81,0,0,1,6.44.08c.4.21.39.53.07.73a34.45,34.45,0,0,1-4.32,2.51C92.24,214.57,93.39,214.14,94.44,214.85Z"/><path class="cls-43" d="M105,210.74a25.61,25.61,0,0,0,5.65-.62,7,7,0,0,1,1.88-.14,69.43,69.43,0,0,0-11,5.2c-.8.49-1.73.16-2.72,0,1.55-1.77,3.53-2.83,5.25-4.13Z"/><path class="cls-48" d="M114.84,204.23c0,.62-.53.65-.94.78A46.37,46.37,0,0,0,101,211.08l-.52.23a9.68,9.68,0,0,1-4.17.48c-.61-.59,0-.74.36-.95,1.63-.79,3.2-1.7,4.88-2.37,3.28-1.3,6.53-2.67,9.89-3.77a12.6,12.6,0,0,0,2.2-1C114.27,203.38,114.66,203.55,114.84,204.23Z"/><path class="cls-47" d="M88.73,211.58a45.67,45.67,0,0,0-4.89,3.76c-1.46.09-2.83.61-4.35.57.12-1.27,1.34-1.55,2.1-2.17,1.18-.94,2.1-2.43,3.88-2.48a1.43,1.43,0,0,1,1.32-.26C87.42,211.31,88.19,211,88.73,211.58Z"/><path class="cls-14" d="M96.07,211.57a28.23,28.23,0,0,1,4.41-.26c-.62.88-1.65,1.17-2.49,1.75a5.75,5.75,0,0,1-3.29,1.79h-4a53.1,53.1,0,0,1,5.14-3.27.16.16,0,0,1,.23,0Z"/><path class="cls-49" d="M125.46,234.71c.71-1.75.58-3.66,1.08-5.45a15.25,15.25,0,0,1,.56,5.16c-.13.81.27,1.69-.26,2.45-1,.42-.63,1.66-1.41,2.25-.39,0-.18-.55-.5-.62.14-.65-.52-1-.56-1.61-.23-.52.17-.94.26-1.39.39-.44.94-.13,1.43-.33Z"/><path class="cls-10" d="M155.4,204.76l.54.3a8.88,8.88,0,0,1,2,1.58,2.64,2.64,0,0,1,1.82,1.62c.07.89,1,1.35,1.09,2.23.3.87.89,1.7.55,2.71h-1.65c-.61-.8-.33-1.89-.81-2.71.07-2.21-1.55-3.42-2.83-4.83C155.81,205.38,155.16,205.42,155.4,204.76Z"/><path class="cls-50" d="M153.76,208.85a9.93,9.93,0,0,1,2.77,3.43c.15.26.57.64.1.88a.76.76,0,0,1-1-.23.8.8,0,0,1-.08-.16,23.1,23.1,0,0,0-2-3.64C153.4,208.85,153.5,208.78,153.76,208.85Z"/><path class="cls-51" d="M94.7,214.85,98,213.06C96.9,215,96.27,215.34,94.7,214.85Z"/><path class="cls-52" d="M126,227.08c-.55-.3-1.16-.87-.9-1.33a1.18,1.18,0,0,1,1.63-.36l.09.06Z"/><path class="cls-53" d="M158.92,210.49a3.42,3.42,0,0,1,.81,2.71c-.55,0-.8-.19-.78-.76S158.93,211.14,158.92,210.49Z"/><path class="cls-54" d="M161.38,213.2a16.91,16.91,0,0,1-.55-2.71,4,4,0,0,1,1.08,2.71Z"/><path class="cls-55" d="M122.48,222.73l-.29.27-2.06-1.93A4.48,4.48,0,0,1,122.48,222.73Z"/><path class="cls-56" d="M190.45,223.85l.35-.35a1.76,1.76,0,0,1,.82,1.1c.07.07.08.12,0,.17s-.05.07-.08.07A2.88,2.88,0,0,1,190.45,223.85Z"/><path class="cls-57" d="M124.37,227.67l.25,1.34-.5.25C124.21,228.73,123.89,228.14,124.37,227.67Z"/><path class="cls-58" d="M188.3,224.09l-.29.3-.83-1.2A1.42,1.42,0,0,1,188.3,224.09Z"/><path class="cls-59" d="M156.73,208.87l.29-.28a1.44,1.44,0,0,1,.83,1.08Z"/><path class="cls-60" d="M191.58,224.84a.49.49,0,0,1,0-.24c.29.26.71.4.67.94C191.85,225.47,191.71,225.16,191.58,224.84Z"/><path class="cls-61" d="M153.76,208.85l-.28.28c-.21-.21-.59-.44-.28-.72S153.64,208.6,153.76,208.85Z"/><path class="cls-62" d="M118.93,225.39v.34a1.49,1.49,0,0,1-.49-.94C118.88,224.87,118.91,225.13,118.93,225.39Z"/><path class="cls-63" d="M128.46,226l.28.29c-.16.22-.35.64-.63.38S128.23,226.17,128.46,226Z"/><path class="cls-64" d="M197.34,129v14.29a1.6,1.6,0,0,1-1.27,1.87H196q-42.3,13-84.62,26.09L56.3,188.19c-1.08.34-1.34.21-1.34-.95Q55,173,55,158.68a1.77,1.77,0,0,1,1.45-2q46-14.13,91.9-28.3,23.77-7.32,47.53-14.69c1.15-.36,1.52-.32,1.49,1C197.28,119.47,197.34,124.27,197.34,129Z"/><path class="cls-29" d="M193.15,112H193c-1.48-.77-2.7-2-4.31-2.49a.3.3,0,0,1-.19-.14c0,.09,0,.14.13.16a6.08,6.08,0,0,1,2.62,1.88c.27.31.73.63.31,1.15l-13.81,4.14c-1.24.43-2.5.1-3.76.1a72.25,72.25,0,0,0-18.78,2.67c-5.39,1.42-10.72,3.06-16.15,4.35a18.92,18.92,0,0,1-4.43.61c-3.54-.06-5.21-1.45-5.85-4.92a2.76,2.76,0,0,1,0-1.34,13,13,0,0,1,.94-3.15c.06-.19.12-.38.2-.57a16.92,16.92,0,0,1,2.32-3.7,2,2,0,0,1,2.15.07c.41.67-.14,1.08-.46,1.5a14.27,14.27,0,0,0-1.65,2.41c-.05.11-.2.16-.19.31,0-.08.1-.13.15-.21a10.82,10.82,0,0,1,2.45-2.42,1.69,1.69,0,0,0,.72-1.6,2.52,2.52,0,0,1,1.18-.2,10.82,10.82,0,0,0,8-3.61,4.36,4.36,0,0,1,1.42-1.21,79.24,79.24,0,0,1,24.48-5.43c6.71-.43,13.51-.72,20,1.62a9.86,9.86,0,0,1,2.83,1.36,1.56,1.56,0,0,1,.4.55,4.41,4.41,0,0,1-.41,2.72c-.94.09-1.06-.83-1.57-1.24a11,11,0,0,1-1.31-1.5c0,.08.08.09.11.15a15,15,0,0,1,2.77,5.49C193.38,110.28,193.89,111.14,193.15,112Z"/><path class="cls-29" d="M149.46,162.3l2.09-.8a12.17,12.17,0,0,0,1.88-.52v-.09a18.61,18.61,0,0,1,3.32.58,11.63,11.63,0,0,0,10-2.65,2.15,2.15,0,0,1,1.26-.74c3.64-.24,7.29-.35,10.93-.24a11.35,11.35,0,0,1,2,.1,3.64,3.64,0,0,1,1.29.47,1.36,1.36,0,0,1,0,1.3c-1.49,4.45-2.83,8.95-4.71,13.28a2.56,2.56,0,0,1-1.07,1.5,3.08,3.08,0,0,1-1.47.18c-8.7-.67-17,1.46-25.22,3.77-3.84,1.06-7.67,2.19-11.55,3.07a18.4,18.4,0,0,1-4.43.54c-3.32-.05-4.79-1.17-5.65-4.35a3.5,3.5,0,0,1-.13-.9,6.31,6.31,0,0,1,.24-1.93,18,18,0,0,1,1.66-4.12,9.27,9.27,0,0,1,.68-1.14c.31-.45.59-.9.88-1.35a5.13,5.13,0,0,1,1.25-1,18.19,18.19,0,0,1,3.82-1.12c.17.53-.27.72-.56.94a24.54,24.54,0,0,0-4.33,5.1,38.8,38.8,0,0,1,14.91-9A21,21,0,0,1,149.46,162.3Z"/><path class="cls-29" d="M68.34,150.38a.57.57,0,0,1-.56.21,3.5,3.5,0,0,1,0-1.64c-.2-3.91-.1-7.84-.11-11.76a3.83,3.83,0,0,1,.26-2,2.87,2.87,0,0,1,1.65-.87,66.77,66.77,0,0,1,15.24-2.65c2.72-.17,5.43-.33,8.15-.23a74.47,74.47,0,0,1,19.78,3c.94.3,2.09.32,2.63,1.41l-18.76,5.84q-11.13,3.45-22.32,6.86a5.49,5.49,0,0,1-.79.15c-1.18.21-2.33.56-3.53.68A2.08,2.08,0,0,0,68.34,150.38Z"/><path class="cls-65" d="M128.44,176.72v.83c0,.39.08.81-.24,1.13-1.14-.08-1.76-1.16-2.82-1.45a11,11,0,0,1-1.5-.61,8.89,8.89,0,0,0-1.1-.37,8.49,8.49,0,0,1,1.15.44,8.92,8.92,0,0,1,3,1.88c1.23.94,1.28,1.77,0,2.72a17.57,17.57,0,0,1-8.12,3.48,3.67,3.67,0,0,0-.79.15c-1.5.4-2.13-.94-3.1-1.57a13,13,0,0,0-3.22-1.94c-.36-.17-.94-.15-.94-.79a11.55,11.55,0,0,0,7.07-8.71,36.93,36.93,0,0,1,5.43-1.65c.4.16.69.68,1.24.41,1.89,1.38,2.72,3.48,3.63,5.51A1.7,1.7,0,0,0,128.44,176.72Z"/><path class="cls-29" d="M135.81,129.64l-6,1.88a3.4,3.4,0,0,0-1.78.25,80,80,0,0,0-9.21,1.77.94.94,0,0,1,.94.94l-2.53.8a7.1,7.1,0,0,1-1.28-.42c-5.88-3-12.24-4.21-18.7-4.86a81.77,81.77,0,0,0-10.84-.27,58.37,58.37,0,0,0-16,2.64,3.94,3.94,0,0,1-2.1.43c-.71-.43-.6-1.06-.44-1.7.59-.94,1.67-.94,2.57-1.32.49-.2,1-.25,1.54-.46a52.35,52.35,0,0,1,12.68-2A70.23,70.23,0,0,1,95,127.19c.67,0,1.34.13,2,.16,2.89.28,5.77.72,8.66,1a15.06,15.06,0,0,0,3.48,1,39.7,39.7,0,0,1,5.74,1.88,2.82,2.82,0,0,0,2.69-.07,10.79,10.79,0,0,0,2.63-.6c1.23,0,2.32-.66,3.53-.81,2.72-.21,5.41-.73,8.15-.76h1.38c.74,0,1.49-.06,2.24,0C136,129,136.45,129.13,135.81,129.64Z"/><path class="cls-31" d="M129,119.32c.37,2.63,1.75,4.33,4.47,4.6a13.11,13.11,0,0,0,4.83-.39c6.35-1.72,12.71-3.46,19.08-5.07a68.85,68.85,0,0,1,11.84-1.88,58.55,58.55,0,0,1,8.48.1c-3.23,1.12-6.47,2.17-9.8,3a226.32,226.32,0,0,0-28.86,6.75,16.72,16.72,0,0,1-4.27.7c-2.82.07-4.82-1-5.86-3.65-.3-.37-.86.11-1.13-.35a5.3,5.3,0,0,1,.66-1.82C128.7,120.68,128.41,119.84,129,119.32Z"/><path class="cls-44" d="M68.34,132.69a59.93,59.93,0,0,1,19.55-3.34,68.92,68.92,0,0,1,23.89,3.32,18.58,18.58,0,0,1,5.46,2.66l-1.84.56A46.87,46.87,0,0,0,103,132.75a78.7,78.7,0,0,0-14.63-.82c-6.88.28-13.71,1-20.27,3.35a.73.73,0,0,1-.24-.33,3.34,3.34,0,0,1,0-1.88A.73.73,0,0,1,68.34,132.69Z"/><path class="cls-37" d="M128.92,122.64c.44.14.4.58.52.89a4.71,4.71,0,0,0,4.56,3.16c2.83.15,5.51-.83,8.18-1.58a198.83,198.83,0,0,1,20-4.88,26.34,26.34,0,0,1,5.74-.61c-3.21,1-6.42,2.1-9.64,3.11q-11,3.42-22,6.8a2.41,2.41,0,0,0-.52.11c0-.19.23-.54-.19-.4a8.36,8.36,0,0,1-2.29.14,17.93,17.93,0,0,1-2.61-1.17,7.88,7.88,0,0,1-1.57-2.83C128.92,124.47,128.46,123.59,128.92,122.64Z"/><path class="cls-66" d="M198.11,147.08c.09,0,.19,0,.24.06s0,.18-.1.21l-.68.29c-.37.49-1.48.72-.56,1.63a6.53,6.53,0,0,1,1.1,1.62l-.26.27c-.61-.07-1-.57-1.54-.77-.75.26,0,.66-.08.94a5.58,5.58,0,0,1,.35,2,7,7,0,0,1-.1,1.52,1.71,1.71,0,0,1-.27.6c-.06.43.1.94-.56,1.09-.63-.79-.24-1.76-.49-2.61a10.26,10.26,0,0,0-.45-1.71,8.82,8.82,0,0,0-.38-.81,13.73,13.73,0,0,0-.38,1.66c-.5,1.51-.94,3.07-2.37,4h-.53a.45.45,0,0,1-.4-.38,11.94,11.94,0,0,1,.95-2.31,11.28,11.28,0,0,0,.71-2.74,16,16,0,0,0-2.25,1.08,15.16,15.16,0,0,1-4.82,1.19,2,2,0,0,1-1.53-.33.35.35,0,0,1,0-.37c1.79-.81,3.76-1.18,5.49-2.21a15.92,15.92,0,0,0,3.13-2.29Z"/><path class="cls-67" d="M181.22,158.26a99.17,99.17,0,0,0-12.07.22c-.41,0-1,.25-1.26-.23a3.53,3.53,0,0,1,2-2.43h.2a34.2,34.2,0,0,1,12.59.55.8.8,0,0,1,.3.33C182.69,158.3,182.59,158.41,181.22,158.26Z"/><path class="cls-68" d="M169.87,155.82l-2,2.42c-3.68,4-9.22,4.84-14.41,2.65a23.48,23.48,0,0,1,4.1-1.28,18.09,18.09,0,0,0,5.07-.64,4.9,4.9,0,0,0,3-1.89c.24-.26.56-.21.85-.22a1,1,0,0,0,.81-.31Z"/><path class="cls-69" d="M146.67,163.38c-5.65,2.26-11,5-15.35,9.48,1-2.83,3.19-4.79,5.31-6.75,3.17-1.19,6.42-2.13,9.69-3C146.6,163,146.71,163.09,146.67,163.38Z"/><path class="cls-29" d="M182.89,156.58a61.86,61.86,0,0,0-12.31-.66,1.73,1.73,0,0,1-.51-.12,39.08,39.08,0,0,1,6.25-1.88,21.73,21.73,0,0,1,3-.11,13.8,13.8,0,0,1,3.5.48C183.72,155,183.54,155.79,182.89,156.58Z"/><path class="cls-70" d="M193,106.52l.53-2.65c.48-.37-.26-.39-.19-.64a1.12,1.12,0,0,1-.09-.36,1.29,1.29,0,0,1,.55-1.23c.84,1.08,2.22,1.89,1.89,3.56a11,11,0,0,1,.35,4.24,2.37,2.37,0,0,1-1.15,2h-.3c-.65-.06-.55-.6-.61-.94a11.69,11.69,0,0,0-.94-3.17C193,107.07,192.78,106.8,193,106.52Z"/><path class="cls-65" d="M124.4,170.76c-.46.66-.49.65-1.11-.55l2.44-.8a5.37,5.37,0,0,1,2.83,1.18.17.17,0,0,0,.21,0,.71.71,0,0,1-.25-.06c-.54-.51-1.46-.6-1.67-1.48a5.32,5.32,0,0,1,1.88-.52,4.25,4.25,0,0,1,1.63,2.19,18.47,18.47,0,0,0-1.64,4.11c-.7,0-.74-.69-1.07-1.08C126.68,172.65,125.9,171.3,124.4,170.76Z"/><path class="cls-71" d="M192.34,148.76c-.17,1.1-1.16,1.48-1.88,2a17.11,17.11,0,0,1-6.74,2.64,2.05,2.05,0,0,1,.54-1.94Z"/><path class="cls-72" d="M119.77,134.53l-1.36-1.19a44.83,44.83,0,0,1,9.75-1.81c.28-.07.58-.21.56.29Z"/><path class="cls-73" d="M184.23,151.41a5,5,0,0,1-.53,1.94h0a3,3,0,0,1-.95.57c-1.12.54-2.32-.25-3.44.21a7.57,7.57,0,0,1-3-.27A66.4,66.4,0,0,1,184.23,151.41Z"/><path class="cls-74" d="M165.7,157.11c.32.47,0,.82-.32,1a10.18,10.18,0,0,1-7.8,1.49C160.25,158.65,163,157.84,165.7,157.11Z"/><path class="cls-75" d="M68.05,149.27a2,2,0,0,1-.27,1.32l-3,.88-.31-1.88h.05C65.68,149.06,66.83,148.59,68.05,149.27Z"/><path class="cls-76" d="M194.84,111.44c1.06-1.35.8-3,.82-4.49V105.2a7,7,0,0,1,.81,5.65Z"/><path class="cls-77" d="M193.22,107.08c.94,1.32.88,2.94,1.34,4.4l-1.41.48c.23-.95-.25-1.77-.24-2.65C193.07,108.57,192.1,107.68,193.22,107.08Z"/><path class="cls-78" d="M191.55,112.49c-.54-1.56-2-2.15-3.22-3-.06-.25,0-.39.28-.28a8.13,8.13,0,0,1,4.34,2.69Z"/><path class="cls-79" d="M68.34,150.38c-.09-.66,0-1.1.85-1.19a35.4,35.4,0,0,1,4.35-.43A31.33,31.33,0,0,1,68.34,150.38Z"/><path class="cls-80" d="M112.17,173.52a9.57,9.57,0,0,1-2.49,3.77c-.25.07-.38,0-.27-.26a6.76,6.76,0,0,0,1.36-3C111.16,173.62,111.73,173.77,112.17,173.52Z"/><path class="cls-81" d="M131.74,168.36a2.06,2.06,0,0,1-.81,1.35c-.85-.17-1.47-.55-1.35-1.55l1.66-.44C131.68,167.69,131.69,168,131.74,168.36Z"/><path class="cls-82" d="M129.53,168.16c.21.73.87,1.06,1.35,1.55l-.53,1a7.16,7.16,0,0,1-1.63-2.19A1.1,1.1,0,0,1,129.53,168.16Z"/><path class="cls-83" d="M126.82,169.08l1.88,1.41c.08.08.11.14.08.22s0,.1-.07.1l-3-1.4Z"/><path class="cls-84" d="M146.67,163.38l-.35-.3a6.31,6.31,0,0,1,3.14-.78A12.79,12.79,0,0,1,146.67,163.38Z"/><path class="cls-85" d="M131.74,168.36l-.5-.64,1.62-.49A3,3,0,0,1,131.74,168.36Z"/><path class="cls-86" d="M153.47,161a2,2,0,0,1-1.89.52A2.73,2.73,0,0,1,153.47,161Z"/><path class="cls-87" d="M116.19,172.36c.3.54-.17.8-.45,1.49,0-.64-.07-.94-.09-1.22Z"/><path class="cls-88" d="M128.72,131.81l-.56-.29a1.44,1.44,0,0,1,1.66,0Z"/><path class="cls-89" d="M167.36,156.58a.93.93,0,0,1-.58.64c-.22.07-.2-.18-.23-.34A.89.89,0,0,1,167.36,156.58Z"/><path class="cls-90" d="M159.74,208.26l-1.82-1.62c-.19-.59.3-.67.64-.84a72.87,72.87,0,0,1,22.89-7.22c4-.51,8-.47,11.74,1.59.05.26,0,.39-.28.29-4.95-1.22-9.79-.41-14.6.75A77.55,77.55,0,0,0,159.74,208.26Z"/><path class="cls-91" d="M194.84,215.62a8.68,8.68,0,0,0,.12-4,15.06,15.06,0,0,1-7.27,4.34c-.51.13-1,.44-1.51-.05a17.45,17.45,0,0,0,7.49-4.94c.79-.84.68-1.39-.34-2a23,23,0,0,0-4.71-1.88,10,10,0,0,1,6,1.44c-.11-1.93-1.3-3.64-5.26-7.54,3.54,1.27,5.37,3.71,6.59,6.78.84-1.22.73-3-.29-5.79.08-.53.23-.3.42,0a6.63,6.63,0,0,1,1.28,5.88l1.88-.94c.22,0,.6.07.61.14,0,.38-.48.35-.61.65-.28.51-1.46.94-.27,1.64a5.82,5.82,0,0,1,1.64,1.64v.26c-.87.16-1.39-.71-2.19-.72-.76.35.17.58.07.88.6,1.33,1.57,2.6.76,4.19v1.49c-.44-.41-.1-1-.53-1.2a6.11,6.11,0,0,0-1.11-3.27c-.66-.22-.73-.94-1.09-1.36-.59.56-.25,1.28-.23,1.88a8.88,8.88,0,0,1-2.88,6.59A26.19,26.19,0,0,0,194.84,215.62Z"/><path class="cls-92" d="M169.52,199.29c-.21-.29-.56-.19-.84-.26.61-.36,1.3-.18,1.94-.3C170.46,199.32,169.92,199.17,169.52,199.29Z"/><path class="cls-93" d="M193,200.46l.29-.29a1.85,1.85,0,0,1,1,.7A2.24,2.24,0,0,1,193,200.46Z"/><path class="cls-8" d="M190.49,237.69c.59,1.41-.32,2.71-.31,4.08-1.69.58-3.23,1.5-5.1,1.7a14.74,14.74,0,0,1-5.45-.48,129,129,0,0,0-13.48-2.82,81.28,81.28,0,0,0-15.28-.55c-5.84.29-11.63,1.16-17.44,1.81a9.32,9.32,0,0,1-6.59-1.88c-1.13-.82.11-1.62,0-2.43,2.22,1.38,4.65,1.22,7.09.94,2.68-.3,5.35-.64,8-.94,3.39-.37,6.78-.81,10.19-1,2.82-.18,5.7-.08,8.55-.08a72.19,72.19,0,0,1,18.36,2.75,17,17,0,0,0,7.63.25c-.68,1.55-2.21,2.27-3.6,3.53a10.45,10.45,0,0,0,5.76-4.35C189.33,237.86,189.74,237.28,190.49,237.69Z"/><path class="cls-49" d="M123.6,237.68a3.34,3.34,0,0,1,1.06,1.09,1.19,1.19,0,0,1-.1,1.69l0,0c-.73.74-1.17,1.81-2.32,2.08a9.62,9.62,0,0,0,.55-4.35C123,238,123.05,237.47,123.6,237.68Z"/><path class="cls-49" d="M191.07,240.69a10.48,10.48,0,0,0,.55-4.08c.18-.38.36-.75.82-.83.68.24.76,1.07,1.36,1.38a1.41,1.41,0,0,1-.51,1.66C192.54,239.48,192.11,240.49,191.07,240.69Z"/><path class="cls-12" d="M103.76,182.22l-.67-.06c2.17-.48,4.43-.46,6.59-1.07a4,4,0,0,1,3.81,2.59c.15.35.36.68.54,1a12.63,12.63,0,0,1,1.3,3.13,4.42,4.42,0,0,1,.09,1.36.86.86,0,0,1-.53.87c-.39.13-.66-.23-.86-.51a11.08,11.08,0,0,0-2.19-2.59c-.48-.34-.94-.72-1.44-1a18.16,18.16,0,0,0-2.33-1.07,12.6,12.6,0,0,1,5.54,5.08c.21.35.47.76.15,1.13s-.68.09-1,0a14.7,14.7,0,0,0-4-.5,8.6,8.6,0,0,1,3.89.89c1.14.58,1.31,1.05.66,2.17a17.32,17.32,0,0,1-6.06,5.91,6.61,6.61,0,0,0-1.3.85,45.38,45.38,0,0,1-6,2.36,52,52,0,0,0-13.05,7.35,4.34,4.34,0,0,1-1.64.94c-5.91-.44-11.35-1.93-15.24-6.86a.49.49,0,0,1,0-.41,31.71,31.71,0,0,1,5.88-5.4c7.82-6.16,16.24-11.26,25.81-14.25a17.51,17.51,0,0,1,9-.94c.29.11.61.12,1,.27-.38-.18-.7-.15-.94-.28a23.58,23.58,0,0,0-5.36-.56A2,2,0,0,1,103.76,182.22Z"/><path class="cls-94" d="M110.75,183.31C105.1,182.8,100,184.74,95,187a86.46,86.46,0,0,0-24.3,16.39c-.23.21-.49.4-.72.61-1.1-.14-1.5-.88-1.6-1.89l0-.27a84,84,0,0,1,15.88-12,62.74,62.74,0,0,1,17.51-7.19,5.57,5.57,0,0,0,2-.38,17.67,17.67,0,0,1,7.26.8C111.1,183.27,111,183.39,110.75,183.31Z"/><path class="cls-13" d="M85.18,211a50.55,50.55,0,0,1,15-8.75c1.88-.68,3.76-1.42,5.7-2.12.5-.34,1.11-.44,1.59-.8,2.34-1.31,4.64-2.67,6.19-5,.17-.26.42-.54.75-.5s.46.51.55.85a5.49,5.49,0,0,1,0,3.21c-1.64,2.51-4.24,3.63-6.87,4.56a93.08,93.08,0,0,0-11.38,4.78,48.82,48.82,0,0,0-5.52,3.19,5.39,5.39,0,0,1-4.36.83H85.48Z"/><path class="cls-90" d="M68.34,202.07a5.18,5.18,0,0,0,1.6,1.88v.22c-4.71,4.47-8.59,9.53-10.64,15.8-.63-.24-.32-.68-.25-1.07a21.62,21.62,0,0,1,3.62-9.79A37.32,37.32,0,0,1,68.34,202.07Z"/><path class="cls-95" d="M59.05,218.9c.1.34-.09.76.25,1.06a.79.79,0,0,1-.48.7C58.87,220,58.66,219.43,59.05,218.9Z"/><path class="cls-96" d="M120.29,239.59l.85-2a1.63,1.63,0,0,1,.53,1.49C121.32,239.48,121,240.1,120.29,239.59Z"/><path class="cls-97" d="M115.13,243.69l.27.27a1.24,1.24,0,0,1-1.26.44Z"/><path class="cls-98" d="M109.41,177l.27.26c-.2.34-.37.71-.9.72A1.9,1.9,0,0,1,109.41,177Z"/><path class="cls-65" d="M89,184.92c-2.83,1.69-5.75,3.36-8.59,5.1a80.48,80.48,0,0,0-8.28,6,10.7,10.7,0,0,1-3.57,0c-.78-.2-1.69-.3-1.88-1.36a110.41,110.41,0,0,1,11.8-6,80.15,80.15,0,0,1,9-3.46A3.88,3.88,0,0,1,89,184.92Z"/><path class="cls-13" d="M113.2,183.83c-.54-1.74-2.08-2.17-3.52-2.74l1.11-.51a16.06,16.06,0,0,1,4.33,2.43,10.92,10.92,0,0,1,2.66,4.28,2.36,2.36,0,0,1,.19,1.43,1.72,1.72,0,0,1-.65.66c-1,.73-1.3.64-1.44-.57a9.4,9.4,0,0,0-1.88-4.12C113.78,184.37,113.65,184,113.2,183.83Z"/><path class="cls-99" d="M66.69,194.69a4.61,4.61,0,0,0,3.84,1.15c.56,0,1.16-.25,1.65.24l-3,2.71c-1.76-.27-2.74-1.5-3.58-2.9l-.47-.48A5,5,0,0,1,66.69,194.69Z"/><path class="cls-8" d="M148,201.22c1.93-1.09,4.12-1.53,6.14-2.42,3.21-1.42,6.55-2.57,9.5-4.55a2.65,2.65,0,0,0,.94-.94.75.75,0,0,1,.31-.3,9,9,0,0,1,3-.53,18.57,18.57,0,0,0,6.59-1.94,1.94,1.94,0,0,1,1.15-.31c.65.77-.13,1.37-.27,2-.11.48-.56.78-.76,1.23a2.55,2.55,0,0,1-.47.57,2.09,2.09,0,0,0,.42-.42,18.24,18.24,0,0,0,2.64-5.11c.51-.46.86-1.17,1.72-1a2.45,2.45,0,0,1,.64,2.82c.31,2-1.21,2.83-2.42,3.77a15.52,15.52,0,0,1-7.85,2.57,87.25,87.25,0,0,0-19.77,4.18A3.31,3.31,0,0,1,148,201.22Z"/><path class="cls-45" d="M174.42,193.6a16.55,16.55,0,0,0,1.36-3.25c-.33-1.08.42-2.1.16-3.24-2.24,1.54-4.43,3.1-7.26,3.24-.26-.08-.56-.14-.49-.53l.27-.27c1.43-.94,3-1.62,4.42-2.63a15.21,15.21,0,0,0,1.48-1.17,1.46,1.46,0,0,0,.35-2.22c1.53-.46,3.1-.16,4.64-.25.22.5.75.7,1.08,1.08a3.7,3.7,0,0,1,1.35,1.63v.27c-.88.22-1.34-.83-2.27-.73.08,1.26,1.5,2.33.65,3.72v2.58c-.47-.53-.06-1.17-.54-1.48a5.47,5.47,0,0,0-.82-2.72c-.34-.2-.55-.56-.94-.81-.23.68,0,1.37-.45,1.88a10.77,10.77,0,0,1-2.73,5.17C174.46,194,174.35,193.86,174.42,193.6Z"/><path class="cls-49" d="M180.16,189.25a6.12,6.12,0,0,0-.94-3.19c-.15-.31-.53-.66-.28-.94s.78,0,1.11.12a15.72,15.72,0,0,1,1.72,1c.54,1.57-.6,2.63-1.09,3.93C180.27,189.92,180.54,189.42,180.16,189.25Z"/><path class="cls-100" d="M65.55,195.84l.21-.15a7.85,7.85,0,0,0,3.38,3.05l-1.58,1.35A9.67,9.67,0,0,1,65.55,195.84Z"/><path class="cls-68" d="M169,183.25c-7,.09-13.65,1.72-20.34,3.39-3.14.79-6.19,1.94-9.41,2.5a9.31,9.31,0,0,1-8-2.14,2.63,2.63,0,0,1-.67-1c.57-.37,1,0,1.53.2a10.49,10.49,0,0,0,6.66.41c5-1.36,10-2.9,15.13-4a70.32,70.32,0,0,1,14.94-1.88H172a1.77,1.77,0,0,1,1.38.39c0,.78-.63,1.22-.83,1.89C171.38,183.38,170.15,182.9,169,183.25Z"/><path class="cls-8" d="M173.37,181.11h-4.65c.09-.73.73-.66,1.13-.6,2.67.48,4.35-.59,5.16-3.13a1,1,0,0,1,.35-.41,1.47,1.47,0,0,1,.41-.22,23,23,0,0,1,5.37.25,23.49,23.49,0,0,0,9.22-.61c1,.17.5.79.28,1.18a7.55,7.55,0,0,1-1.83,2.18c-.13.13.16.17,0,.07s0,0,.07-.11c1.62-1.09,2.55-2.78,3.66-4.32.62-.37,1.07-1.27,2-.64a4,4,0,0,1,0,3.63c-2,2.34-4.7,3.07-7.53,3.26-3.77.26-7.53-.68-11.3-.54Z"/><path class="cls-45" d="M192.66,175.65c-2.25,3.36-2.63,3.77-4.89,4.91,1.15-1.46,2.55-2.45,3-4.08-.1-1,.65-1.77.71-2.74-.35-.25-.58.07-.83.19a15.31,15.31,0,0,1-7.67,1.24c-.4,0-.85,0-1-.52.62-.67,1.51-.5,2.27-.66a17.59,17.59,0,0,0,5.95-2.16c1.17-.72,1.2-1.1.27-2.08a13.5,13.5,0,0,0-2.44-1.89c-.32-.2-1-.37-.77-.8s.86-.41,1.33-.23a9.86,9.86,0,0,1,3.66,2.26c.1.08.14.23.3.24s.12-.17,0,0-.09,0-.12-.07a19.2,19.2,0,0,0-2.5-6.4,1.07,1.07,0,0,1-.16-.78.49.49,0,0,1,.43-.37c1.89.85,2.56,2.68,3.34,4.39a11.54,11.54,0,0,1,.6,2.45,4.94,4.94,0,0,0,.59-2.82c.06-.83-.24-1.73.34-2.49a6.61,6.61,0,0,1,.31,6.38c.7.25,1.27-.25,1.88-.13l.74.42c-.49.23-1,0-1.29.4s-.94.78-.27,1.41c.35.81,1.17,1.4,1.09,2.41h0c-.82,0-1-.95-1.73-1.17-1.3-.16-.12.64-.34.94a4.87,4.87,0,0,1-.38,4.08,1,1,0,0,1-.41.86l-.15-.33a11.33,11.33,0,0,0-.27-3.76c-.48-.18-.53-.66-.71-1.16A6.43,6.43,0,0,1,192.66,175.65Z"/><path class="cls-70" d="M169,183.25c1.15-.54,2.38-.09,3.56-.26a3.81,3.81,0,0,1,2.16.54c1.21.65.94,1.4.14,2.17a16.13,16.13,0,0,1-6.39,3.85l3.29-5.08c.18-.3.5-.6.35-.95s-.63-.21-.94-.23C170.43,183.25,169.7,183.26,169,183.25Z"/><path class="cls-101" d="M195.12,177.83a10,10,0,0,0,0-4.36c.16-.39.12-.94.83-.82s1.07.94,1.61,1.36A5.87,5.87,0,0,1,195.12,177.83Z"/><path class="cls-102" d="M180.43,184.36c-.44-.28-1.57.13-1.08-1.08.37,0,.79-.11,1.08.25Z"/><path class="cls-29" d="M193.77,101.67l-.31,1.4a1.41,1.41,0,0,1-1.23-.41,21.61,21.61,0,0,0-10.3-3.57,73.29,73.29,0,0,0-32.52,3.49,3.49,3.49,0,0,1-1.72.33c-.71-.7,0-1.31.14-2,.18-.47.69-.41,1-.62h0a38.7,38.7,0,0,1,9.42-2.74,10.21,10.21,0,0,0,1.33-.3,86,86,0,0,1,11-1.39,2.25,2.25,0,0,1,1.88.34,45.8,45.8,0,0,1,6.73.23,6.75,6.75,0,0,0,1.73-.19c1.62.72,3.41.56,5.09,1,2,.57,4,.94,5.79,2.18.34.94,1.24,1.3,1.89,1.88Z"/><path class="cls-9" d="M172.54,96.2a79,79,0,0,0-12,1.31,7.83,7.83,0,0,1-1.08.07c-.51.19-.74,0-.45-.47s.74-.51,1.13-.72A73.58,73.58,0,0,1,182,89.51a17.55,17.55,0,0,0,6.1-2.21,1.87,1.87,0,0,1,1.26-.42c.67,1.29-.32,2.17-.8,3.18-.06.17-.24.29-.24.5a3.9,3.9,0,0,1,.19-.35,16.61,16.61,0,0,0,2.29-5.31c.56-.36.82-1.09,1.53-1.26,1.31,1.22,1.38,2.82,1.16,4.4-2.64,3.59-6.37,5.13-10.63,5.71a88.33,88.33,0,0,0-9.09,1.89A2.15,2.15,0,0,0,172.54,96.2Z"/><path class="cls-103" d="M191.07,85.05a11,11,0,0,1-2.44,5.43c-.24.07-.39,0-.28-.28.27-1.11,1.1-2,1.09-3.25-.38-1,.29-2.11,0-3.37a17,17,0,0,1-4.49,3,14.78,14.78,0,0,1-3.35,1.1c-.42.08-1,.33-1.13-.44a17.12,17.12,0,0,0,7.69-4.88c1.14-1.26,1.08-1.29-.28-2.19a22.6,22.6,0,0,0-4.61-1.83c2.23-.35,4.11.42,6.2,1.37a14.54,14.54,0,0,0-5-6.94c-.07-.25,0-.38.28-.27a10.76,10.76,0,0,1,5.85,6.59c1.28-2.08.12-3.88-.19-5.72-.09-.28,0-.34.27-.26,1,1.75,2.06,3.5,1.24,5.83l1.79-.72.73.08-1,.76c-.06.46-.66.81-.28,1.37,1,.25,1.4,1.41,2.45,1.61,0,.3,0,.61-.24.83-.94-.21-1.53-1.09-2.61-1.11.31,1.34,1.66,2.34.95,3.83-.16.88.23,1.78,0,2.66l-.08.1-.18-.32a7.57,7.57,0,0,0-1.35-4.36c-.29,0-.42-.31-.7-.41C191.27,83.85,191.48,84.53,191.07,85.05Z"/><path class="cls-104" d="M193.77,85.59a6.18,6.18,0,0,0-1.27-3.38c-.15-.23-.48-.53-.19-.83s.61-.14.94,0c.8.41,1.73.62,2.22,1.49a7.74,7.74,0,0,1-.05,1.07l-1.19,2.82C193.89,86.37,194.18,85.82,193.77,85.59Z"/><path class="cls-105" d="M198.39,210.22a5.88,5.88,0,0,1,2.17,1.07,4.87,4.87,0,0,1-1.35,4.35c.25-1.6-.62-2.92-1.11-4.33A2.2,2.2,0,0,1,198.39,210.22Z"/><path class="cls-4" d="M195.11,163.14v3.66a3.32,3.32,0,0,1-1.22,2.67,10.48,10.48,0,0,0-3.64-7.69c-.39-.18-.47-.05-.32.31,1.41,2.33,2.7,4.71,2.77,7.71-1.61-1.34-3.09-2.61-5.16-2.82a23.08,23.08,0,0,1,3.67,2.94c.69.7.64,1.17-.1,1.72a16.08,16.08,0,0,1-6.47,2.63,7.86,7.86,0,0,1-2.55.3.87.87,0,0,1-.7.54,10.21,10.21,0,0,1-4.71-.61c0-.07-.07-.15-.09-.21,2.09-4.62,3.53-9.47,5.16-14.25l.55-1.53a1.3,1.3,0,0,1,1.26-.3c3.22.5,6.44,1,9.2,2.91l.61.5c-.13-.18-.32-.24-.45-.39a19.94,19.94,0,0,0-8.89-4,2.09,2.09,0,0,1-1.22-.54l.05-.07c-.06-.7.59-1.42,0-2.13a.72.72,0,0,1,.58-.21,30.53,30.53,0,0,1,5.65,1.49c.62.29,1.31.47,1.69,1.13l.25.26c1.19,1.26,2.61,2.29,3.48,3.87A3,3,0,0,1,195.11,163.14Z"/><path class="cls-106" d="M191.58,157.14a16.32,16.32,0,0,0,2.15-4.09c.48-.26.63-.87,1.13-1.09.95,1.43.8,3,.79,4.64-.72.65-1.68,1-2.19,1.88Z"/><path class="cls-22" d="M196.47,150.1c.48.33,1.06.53,1.37,1.06A1.41,1.41,0,0,1,198,153a6.61,6.61,0,0,1-1.78,2.43v-.53a2.21,2.21,0,0,0,0-1.64,8.65,8.65,0,0,0-.3-2.15A1.33,1.33,0,0,1,196.47,150.1Z"/><path class="cls-107" d="M193,235c-.33-.22-.87-.48-.65-.86a1.83,1.83,0,0,1,1.46-.5A1.67,1.67,0,0,1,193,235Z"/><path class="cls-108" d="M193.21,80.43c-.26,0-.66,0-.67-.24,0-.59.53-.84.94-1.13C193.89,79.62,194.05,80.13,193.21,80.43Z"/><path class="cls-109" d="M198.92,209.39l-1.26-.36c.44-.61.8-1.15,1.54-1.29A2.78,2.78,0,0,1,198.92,209.39Z"/><path class="cls-110" d="M196.47,171.61c-.38-.11-.95-.19-.95-.59,0-.62.71-.68,1.21-.81C197.28,170.8,196.52,171.13,196.47,171.61Z"/><path class="cls-111" d="M197,149.27c-.39-.13-1.07-.14-.94-.68a1.57,1.57,0,0,1,1.49-.94Z"/><path class="cls-31" d="M77.85,94a9.24,9.24,0,0,1-.08,1.48,4.19,4.19,0,0,0,3,4.43,18.49,18.49,0,0,0,6.29.47c3-.29,6.07-.68,9.11-.94s6-.82,9-.94a102.77,102.77,0,0,1,10.53-.28c4.82.29,9.42,1.66,14,2.56a25.79,25.79,0,0,0,5,0c-.21.79-.87.44-1.35.52s-1.14-.17-1.72-.08c2.88,0,5.78.34,8.59-.65.32-.11.73-.3,1,.05s.09.72-.08,1c-.59,1.09-.82,2.45-2.21,2.95a16,16,0,0,1-8.47-.49,74.76,74.76,0,0,0-25.3-2.61c-6.59.39-13.24,1.21-19.85,2a11.7,11.7,0,0,1-5.08-.58c-2.14-.7-3.09-2.4-3.35-4.53a13.75,13.75,0,0,1,0-2,3.71,3.71,0,0,1,.1-.94C77.32,95,77,94.14,77.85,94Z"/><path class="cls-44" d="M157.55,65.2a28.33,28.33,0,0,0-12.42-3,82.15,82.15,0,0,0-36.72,6.52,33.36,33.36,0,0,0-12,8.37c-.24.08-.37,0-.25-.25,2.15-4.31,5.7-7.22,9.8-9.5,7-3.89,14.53-5.82,22.41-6.84a69.27,69.27,0,0,1,11-.71c4.87.15,9.76.48,14.37,2.37A12.79,12.79,0,0,1,157.86,65C157.92,65.16,157.85,65.29,157.55,65.2Z"/><path class="cls-44" d="M143.11,89.17c-4.64-3.31-10-4.54-15.48-5.45a78.75,78.75,0,0,0-15.41-1.07c-9,.31-17.89,1.39-26.08,5.45a38.89,38.89,0,0,0-4.71,3c-.26.06-.38,0-.3-.29,2.9-3.84,6.9-6,11.3-7.63,7.53-2.69,15.35-3.26,23.26-3a60.85,60.85,0,0,1,21.17,4,16.09,16.09,0,0,1,6.6,4.64C143.51,89.11,143.39,89.22,143.11,89.17Z"/><path class="cls-37" d="M142.61,85.31a16,16,0,0,0-6.23-3.56L135,81.24c.3-.89,1.07-.64,1.7-.67a87.77,87.77,0,0,1,11.79.59,15.93,15.93,0,0,0,5.5-.49,3.78,3.78,0,0,1,1.33-.21c.83.31.47.83.22,1.29a7.49,7.49,0,0,1-2,2.26l-.19.14a.47.47,0,0,0,.2-.12,13.44,13.44,0,0,0,3.64-4.26,1.54,1.54,0,0,1,.62-.69c.56-.2.94-.89,1.68-.6.94,1.43.35,2.93.18,4.4A10.86,10.86,0,0,1,152.88,86c-3.3.4-6.59-.28-9.84-.51A.75.75,0,0,1,142.61,85.31Z"/><path class="cls-31" d="M155.67,80.7c-1.59.26-3.12.81-4.71.94a17.31,17.31,0,0,1-2.39-.11A114.07,114.07,0,0,0,136.33,81c-.44,0-.94-.15-1.27.27-2.68-.81-5.39-1.42-8.14-2a28.58,28.58,0,0,1,6.38-.94c4.06,0,8.13-.22,12.17.53a6.07,6.07,0,0,0,1.89-.25c2.82.51,5.51-.36,8.14-1.31.34-.12.65-.33,1-.42a.6.6,0,0,1,.79.34.65.65,0,0,1,0,.13A4.56,4.56,0,0,1,155.67,80.7Z"/><path class="cls-112" d="M155.67,80.7a8,8,0,0,0,1.39-3.92,17.15,17.15,0,0,1-7,2.19,3.57,3.57,0,0,1-2.83-.44,17.79,17.79,0,0,0,8.67-2.74c.95-.58,1-1.11.19-1.88A18.58,18.58,0,0,0,152.58,71c2,.06,3.34,1.35,4.8,2.44.46-1.83-.09-3.36-2.83-8a.23.23,0,0,1,.32,0l0,0c2.53,2.21,3,3.17,4.14,7.8.94-.55.94-1.43,1-2.3.57-1,0-2.2.35-3.44a6.62,6.62,0,0,1-.13,6.26l1.94-.39.59.4c-.24.26-.71,0-.87.4s-1.29.56-.57,1.4c.42.69,1.16,1.22,1.12,2.15a.46.46,0,0,1-.36.06c-.62-.23-.94-.94-1.88-1.08a9.69,9.69,0,0,1,.24,4.9A3.17,3.17,0,0,1,160,83c-.16.18-.43.45-.5-.09-.13-1.44.5-2.93-.24-4.35a1.87,1.87,0,0,1-.61-1.44c-.17.89-.16,1.7-.8,2.26a11.55,11.55,0,0,1-4.32,4.91c-.29.1-.33,0-.27-.27A8.49,8.49,0,0,0,155.67,80.7Z"/><path class="cls-112" d="M139.09,104.38c1.16-.94,1.45-2.32,2.25-3.76-3.4,1.45-6.59,1.25-10.25.7,1.44-.45,2.61.11,3.65-.46a13,13,0,0,0,5.65-1.46c.7-.37.85-.71.36-1.45a14.56,14.56,0,0,0-3.08-3.38c-.06-.24,0-.38.28-.27A9.82,9.82,0,0,1,142.16,98c.39-3.34-.61-6-1.78-8.6-.1-.28,0-.34.27-.27A10.83,10.83,0,0,1,143.32,98c2-2,2-4.23,2.25-6.39.53,0,.51.41.6.72a6.16,6.16,0,0,1-.22,4.39c-.41.87-.24,1.19.69,1.18.33.14.84.21.78.62s-.71.43-1.1.59-1.15,0-.74.87,1.2,1.39.9,2.43c-1.09.36-1.11-1-1.83-1.17-.62,0-.29.48-.37.75a8.16,8.16,0,0,1-.62,4.28c-.41.3-.3,1.49-1.31.78-.17-1.18.49-2.26.38-3.43a7.13,7.13,0,0,0-.1-1.46c-.12-.32,0-.71-.3-1.06,0-.11-.17.16,0,.07.35.94-.46,1.46-.65,2.21a8.12,8.12,0,0,1-5.05,4.19.54.54,0,0,1-.41-.4A21.62,21.62,0,0,1,139.09,104.38Z"/><path class="cls-13" d="M77.85,94c-.51.32,0,1-.54,1.36-2.82,3-5.89,5.73-8.62,8.81-.3.33-.65.87-1.15.16a6.33,6.33,0,0,1,.08-3.09l.17-.16c1.8-1.32,3-3.21,4.62-4.77,2.71-2.61,5.33-5.3,8-8,.38-.37.67-.88,1.3-.94a19.38,19.38,0,0,0-3.45,5.26A2.46,2.46,0,0,0,77.85,94Z"/><path class="cls-113" d="M146.67,98.13a4.19,4.19,0,0,0-2,.34,6.66,6.66,0,0,0,1-6.87c.44-1.74-.69-3-1.45-4.28a16.88,16.88,0,0,0-1.56-2h.29a4,4,0,0,1,2.47,2.24c.71,1.46,1.82,2.71,2.18,4.35a9.6,9.6,0,0,1,.07,5.13C147.42,97.45,147.39,98.07,146.67,98.13Z"/><path class="cls-114" d="M85.19,84.52a28.55,28.55,0,0,1,8.48-5.19,1.83,1.83,0,0,1-1.47,2.13h-.09C89.6,82.09,87.48,83.53,85.19,84.52Z"/><path class="cls-115" d="M99.37,61.08a8.47,8.47,0,0,1,6.48,4.36l-.51.31a1,1,0,0,1-.82-.41,16.49,16.49,0,0,0-5.65-4C98.78,60.84,99.07,61,99.37,61.08Z"/><path class="cls-80" d="M104.43,60c1.62.44,3.06,2.62,3,4.59l-.8.29A11.63,11.63,0,0,0,104.43,60Z"/><path class="cls-116" d="M102.33,67.34c-1-.55-2.17,0-3.38-.38a11.87,11.87,0,0,1,3.92-.67c.35,0,.76,0,.78.5Z"/><path class="cls-117" d="M143.11,89.17l.34-.34a3.27,3.27,0,0,1,1.1,1.39.22.22,0,0,1-.31,0l0,0Z"/><path class="cls-118" d="M157.55,65.2l.31-.3,1,.85C158.25,65.89,157.92,65.49,157.55,65.2Z"/><path class="cls-119" d="M138,94.29l-.27.27a1.22,1.22,0,0,1-.71-.68A1,1,0,0,1,138,94.29Z"/><path class="cls-120" d="M154.88,65.43h-.35a1.16,1.16,0,0,1-.62-.73C154.44,64.74,154.64,65.11,154.88,65.43Z"/><path class="cls-121" d="M96.07,76.88l.25.25a1.06,1.06,0,0,1-.65.7A1,1,0,0,1,96.07,76.88Z"/><path class="cls-122" d="M140.7,89.13l-.28.27a1.14,1.14,0,0,1-.45-.94C140.41,88.49,140.54,88.85,140.7,89.13Z"/><path class="cls-123" d="M81.13,90.78l.3.29c-.18.21-.37.64-.65.37S80.89,91,81.13,90.78Z"/><path class="cls-124" d="M144.22,90.24h.33c.23.13.55.46.39.55C144.55,91,144.43,90.47,144.22,90.24Z"/><path class="cls-125" d="M60.17,107.62q-.81-8.18-1.65-16.31a.53.53,0,0,1-.12-.54,57.41,57.41,0,0,1,8-10.36c.36-.37.68-.86,1.31-.86q0,9.36.06,18.71v2.83h0c-.19.2-.1.49-.24.7a34.56,34.56,0,0,1-5.65,5.43C61.38,107.58,60.89,108.15,60.17,107.62Z"/><path class="cls-94" d="M67.78,75.78v-.27a107.39,107.39,0,0,1,10.94-8.68,59.54,59.54,0,0,1,13.35-6.91,17.7,17.7,0,0,1,10.48-.7c.07,0,.1.09.08.16s0,.08-.06.08c-6.14-.25-11.3,2.47-16.39,5.42A85.39,85.39,0,0,0,68.58,78.6c-.24.25-.54.47-.81.71A3.66,3.66,0,0,1,67.78,75.78Z"/><path class="cls-126" d="M67.78,75.78v3.53l-.06.23a58.39,58.39,0,0,0-8.13,9.89,3.84,3.84,0,0,1-1.06,1.37,3.92,3.92,0,0,1-.24-3.57,1.13,1.13,0,0,1,0-.26,66.4,66.4,0,0,1,8.47-10.3C67.08,76.36,67.44,76.08,67.78,75.78Z"/><path class="cls-127" d="M99.37,61.08a.55.55,0,0,0-.55.28L97.88,61A1.45,1.45,0,0,1,99.37,61.08Z"/><path class="cls-128" d="M102.61,59.46a1,1,0,0,0,0-.24c.25,0,.5,0,.63.28a.22.22,0,0,1-.09.19A.42.42,0,0,1,102.61,59.46Z"/><path class="cls-13" d="M180.47,87.24c.22.33.54.26.84.18a15.85,15.85,0,0,0,7.54-3.76c.24-.23.44-.72.83-.55s.36.75.25,1.1c-.26.94,0,1.89-.5,2.77C186,89.41,182,89.91,178,90.69a71.07,71.07,0,0,0-18.35,6.36c-.31.15-.31.14-.11.55l-10.62,2.72a28.49,28.49,0,0,1,4.76-3,78.17,78.17,0,0,1,15.23-7.25A85.88,85.88,0,0,1,179,87.85,6.85,6.85,0,0,0,180.47,87.24Z"/><path class="cls-68" d="M145.33,87.55l-2.43-2.2a10.67,10.67,0,0,1,4.06.09c4.52.74,8.73.29,12.5-2.54.49.16.4-.31.5-.51s0-.63.31-.84c.87-1.15,1.93-2.22,1.95-3.77h.25c.69.31.57-.35.7-.62.25-.59.44-1.22.66-1.83h0a1.69,1.69,0,0,1,0,1.36,12.57,12.57,0,0,1-7.19,10.25c-2.82,1.4-5.91,1-8.91.79A19.24,19.24,0,0,0,145.33,87.55Z"/><path class="cls-94" d="M163.85,73V72.6c5.56-1.81,11.2-3.19,17.11-3.06a13.45,13.45,0,0,1,7,2c-.5.25-.88-.07-1.26-.15-5.07-1-10,0-14.85,1.22-2.18.54-4.33,1.26-6.47,2-.94.33-1.43.32-1.34-.85A2.21,2.21,0,0,0,163.85,73Z"/><path class="cls-129" d="M146.67,98.13c1.2-2,.74-4.16.84-6.28a14.18,14.18,0,0,1,.94,7.17c-.07.46-.5,1.09.4,1.27l-.81.55c-.66.55-.44,1.83-1.62,1.94a.23.23,0,0,1-.08-.2c0-.08,0-.12,0-.12a4.31,4.31,0,0,0-1.1-2.44c.19-.43.63-.67.82-1.11s.76-.17,1.19-.33Z"/><path class="cls-130" d="M184.8,72.48l-.28.27a1.15,1.15,0,0,1-.71-.67A1.23,1.23,0,0,1,184.8,72.48Z"/><path class="cls-131" d="M190.73,73.11l-.27.26a1.73,1.73,0,0,1-.5-1.09A1.35,1.35,0,0,1,190.73,73.11Z"/><path class="cls-37" d="M163.84,76.61V75.3A1,1,0,0,1,163.84,76.61Z"/><path class="cls-132" d="M68.05,149.27l-3.51.26q-.69-6.1-1.4-12.24a.74.74,0,0,1,.31-.51,12.49,12.49,0,0,1,4.6-1.74v11.82C68,147.68,68.65,148.47,68.05,149.27Z"/><path class="cls-133" d="M68.34,132.69,68,133c-1.49,1-3.21,1.64-4.77,2.53a.48.48,0,0,1-.38-.1v-1.88h0c1.24-1.55,3-2,4.83-2.56a.33.33,0,0,1,.32.15C68.15,131.6,67.82,132.23,68.34,132.69Z"/><path class="cls-134" d="M62.89,135.39h.27a1.85,1.85,0,0,1,.29,1.67l-.31.27a39.39,39.39,0,0,0-5.27,3.14C59.05,138.27,61,136.85,62.89,135.39Z"/><path class="cls-135" d="M60.17,107.62c1.44-.2,2.35-1.26,3.34-2.13,1.37-1.24,2.67-2.57,4-3.82.32,1.09,0,2.22.17,3.33a1.09,1.09,0,0,1-.44.82,24.56,24.56,0,0,1-4.82,4.28c-.6.38-1.22.85-2,.27a10.12,10.12,0,0,1-.28-2.45Z"/><path class="cls-136" d="M58.29,87.23c.08,1.18.18,2.38.27,3.57v.47a31,31,0,0,0-4.37,10.58C53.23,98.49,55.23,91.81,58.29,87.23Z"/><path class="cls-65" d="M68,131.06h-.24c-.09-.05-.13-.1-.1-.17s0-.09.08-.09a12.52,12.52,0,0,0,.21-5.24c-.27-2.67-.09-5.33-.19-8,.09-.84.78-1.17,1.35-1.58a55.32,55.32,0,0,1,12.69-6.89A27.42,27.42,0,0,1,84.71,108c3.84.38,7.54-.45,11.3-.84a88.85,88.85,0,0,1,23.55.17,6.08,6.08,0,0,1,2,.53c1.57,1.4,2,3.28,2.44,5.16.07.31.15.7-.16.88s-.61,0-.85-.26a14,14,0,0,0-3.54-1.88l-.37-.16-.26-.07c.06.06.14,0,.21.08a9.25,9.25,0,0,1,3.48,2.3c.94.94.88,1.6-.25,2.46a17.82,17.82,0,0,1-8.28,3.44,14.93,14.93,0,0,1-5,.54c-8.68-.52-16.75,2-24.75,4.94-4,1.46-7.89,3.21-12,4.25a.43.43,0,0,0-.3.24Z"/><path class="cls-137" d="M84.34,108.21c-.45.75-1.3.76-2,1a58.11,58.11,0,0,0-13,7c-.53.4-1,.87-1.55,1.3v-.2c-.54-.63-.35-1.35-.26-2.07l.53-.53a1.76,1.76,0,0,1,.76-1.09,45.1,45.1,0,0,1,11.41-6.69,1.6,1.6,0,0,1,.94-.1A12.73,12.73,0,0,1,84.34,108.21Z"/><path class="cls-138" d="M81.12,107a40.9,40.9,0,0,0-13.07,7.7c-.53-.58-.15-1.3-.29-1.94a3.29,3.29,0,0,1,.1-.53H68a10.32,10.32,0,0,1,1.61-1.34,44.65,44.65,0,0,1,8.53-5,3.64,3.64,0,0,1,1.29-.39A2.35,2.35,0,0,1,81.12,107Z"/><path class="cls-139" d="M67.52,115.25c.52.64.15,1.39.26,2.07-1.77,1.7-3.56,3.37-5.18,5.23A18.85,18.85,0,0,1,67.52,115.25Z"/><path class="cls-140" d="M67.77,130.75V131a35.68,35.68,0,0,0-4.91,2.45,1,1,0,0,0-.24-.82l-.06-2.15v-.29C64.25,131.19,66,130.73,67.77,130.75Z"/><path class="cls-141" d="M161.35,75.55c-.4-.09-.94-.31-.83-.64.2-.52.85-.65,1.4-.75A1.55,1.55,0,0,1,161.35,75.55Z"/><path class="cls-142" d="M60.45,110.34c1.73.06,2.66-1.33,3.9-2.15.3-.19.48-.54.78-.75a5.43,5.43,0,0,0,2.38-5.77.59.59,0,0,1,.26-.54v3.54c.74,1.46.37,3,.27,4.48a.87.87,0,0,1-.31.4c-2.06,1.69-4.19,3.24-7,3.26a6.25,6.25,0,0,0-.29-2.15Z"/><path class="cls-143" d="M67.75,109.53a1.22,1.22,0,0,0,.06-.26c.7-1.41,2-2.34,3-3.5a72.23,72.23,0,0,1,5.14-5.21c.88-.86,1-.81,1.61.31a2.65,2.65,0,0,1,.08,1.94A13.85,13.85,0,0,1,75,105.58c-1.88,1.74-3.4,3.86-5.46,5.43-.55.28-.83.95-1.56.95C67.53,111.19,67.91,110.33,67.75,109.53Z"/><path class="cls-144" d="M68,112l1.42-1a.41.41,0,0,1,.25.25A3.31,3.31,0,0,1,68,112.28C68,112.17,68,112,68,112Z"/><path class="cls-37" d="M175.52,177c-.87,2.89-2.51,4.59-5.81,3.83a.92.92,0,0,0-.94.26,65.91,65.91,0,0,0-12.44,1.45c-5.85,1.11-11.53,2.83-17.26,4.42a10.49,10.49,0,0,1-7.62-.71,5.29,5.29,0,0,0-.76-.27h-.23a1.81,1.81,0,0,1-1.14-1.88,3.1,3.1,0,0,0-.82-1.63c-.24-.67-.69-1.37.17-1.95a1.45,1.45,0,0,1,.67.83,4.49,4.49,0,0,0,4.29,2.62,21,21,0,0,0,6.13-1c7.69-2.09,15.33-4.4,23.23-5.57a61.85,61.85,0,0,1,11.13-.73A1.86,1.86,0,0,1,175.52,177Z"/><path class="cls-9" d="M86.82,211.31c1.89.27,3.25-.58,4.71-1.51a70.74,70.74,0,0,1,15.53-7.28,18.66,18.66,0,0,0,7.72-4.56.51.51,0,0,1,.11.55,10.73,10.73,0,0,0-.34,1.88c-.07.44-.26.86-.32,1.31a1,1,0,0,1-.26.46c.19,0,.31-.27.55-.14a8.11,8.11,0,0,1,.27,2.19c-.27-.15-.34-.65-.87-.34-3.35,1.88-7.14,2.75-10.66,4.28-2.45,1.06-4.84,2.24-7.24,3.4H88.73C88.1,211.47,87.41,211.85,86.82,211.31Z"/><path class="cls-31" d="M164.91,193.34h-.21a51,51,0,0,0-10.17,2,76.59,76.59,0,0,0-13.24,5.07c-.39.2-.86.28-1.11.72.62.3,1.37-.19,1.93.36h-8c0-.18,0-.31.09-.34,6.88-3.59,13.76-7.24,21.37-9.11a94.66,94.66,0,0,1,9.61-1.4c.7-.09,1.24-.54,1.93-.57.15.21.51.06.61.35A5.3,5.3,0,0,1,164.91,193.34Z"/><path class="cls-103" d="M114.86,198.51V198a11.2,11.2,0,0,0-.42-4.07,15.07,15.07,0,0,1-6.9,5.72c-.3.17-.55.22-.53-.26a19.38,19.38,0,0,0,5.93-5.65c.81-1.29.71-1.44-.69-2.07a28.3,28.3,0,0,0-4.45-1.08,9.68,9.68,0,0,1,6,.58c-1.44-3.22-4-5-6.59-6.59a10.13,10.13,0,0,1,7.45,5.49c.75-.94.72-1.43-.94-5.34-.11-.28,0-.35.27-.27a6.86,6.86,0,0,1,2.18,5.29l1.63-.94c.74,0,.75.08.22.94-.09.43-1.52.77-.07,1.28.23.11.52.16.4.53l-.29.52c-.26.39-1.43.11-.82,1.13-.28.83-.66,1.31-1.57.34.84,1.94-.33,3.43-.63,5.07A.2.2,0,0,1,114.86,198.51Z"/><path class="cls-44" d="M129.27,184.08c.38.64.76,1.27,1.14,1.88-.82,1.13-2.13,1.63-3.21,2.43a38.2,38.2,0,0,0-9.9,10.14,2.57,2.57,0,0,1-.34.4h-.44C118.77,192.23,123.5,187.72,129.27,184.08Z"/><path class="cls-145" d="M118.11,184.63a.54.54,0,0,1,.58-.25c.52.49,1,.07,1.53,0a15.48,15.48,0,0,0,7.08-2.48c.24-.17.54-.44.84-.23s.25.55,0,.84l-6.21,4.89a8.13,8.13,0,0,1-2.77.36,5.35,5.35,0,0,1-1.88-2.28C116.87,184.64,117.84,184.91,118.11,184.63Z"/><path class="cls-146" d="M128.18,182.51c-.14-.19.28-1.06-.45-.5a15.57,15.57,0,0,1-8,2.78c-.43,0-1,.33-1-.41a17.28,17.28,0,0,0,8.13-3.44c1.11-.84,1.08-1.26,0-2.1s-2-1.38-3-2.07a.19.19,0,0,1-.06-.21.11.11,0,0,1,.07-.11,8.32,8.32,0,0,1,4.36,2.19,1.55,1.55,0,0,1,.27,1.88c-.16.63.29,1.26,0,1.88Z"/><path class="cls-9" d="M118.11,184.63c-.33.27-1,.41-.31,1a17.91,17.91,0,0,1,1.4,2c.8.41.59,1.25.83,1.88l-1.64,1.89-.55-.29a1.59,1.59,0,0,1,0-1.63c-.13-.28,1-.55,0-.82-.36-2.16-1.67-3.86-2.72-5.65C116.12,183.54,116.61,185,118.11,184.63Z"/><path class="cls-147" d="M120,189.53c-.88-.37-.33-1.36-.83-1.88a5.22,5.22,0,0,1,2.77-.24C121.32,188.11,120.68,188.83,120,189.53Z"/><path class="cls-148" d="M114.57,202l-1.06,1.11c.25-1.06.82-1.82.81-2.72.53,0,.39.29.29.57Z"/><path class="cls-149" d="M117.28,193.08a2,2,0,0,1-.61-1l1.42-.09Z"/><path class="cls-150" d="M114.61,201a.58.58,0,0,0-.29-.57c.47-.56,0-1.39.54-1.89h.22C114.79,199.31,115,200.22,114.61,201Z"/><path class="cls-151" d="M167.62,190.36c-.21,0-.42,0-.52-.28l1.09-.26a.64.64,0,0,0,.55.28C168.47,190.77,168.08,190.64,167.62,190.36Z"/><path class="cls-152" d="M124.63,235.5c.56.58-.21.94-.26,1.39-.37-.23-.94-.51-.86-.94S124.21,235.53,124.63,235.5Z"/><path class="cls-153" d="M123.6,237.68l-.86.56c0-.39-.35-.71-.17-1.14A1,1,0,0,1,123.6,237.68Z"/><path class="cls-154" d="M190.49,237.69l-1.64.55c.35-.83.7-1.65,1.1-2.55A2.49,2.49,0,0,1,190.49,237.69Z"/><path class="cls-155" d="M192.4,235.78a1.74,1.74,0,0,1-.82.83c-.17-.42-.51-.9-.08-1.23S192.16,235.5,192.4,235.78Z"/><path class="cls-156" d="M196.47,211.3a2.47,2.47,0,0,1,1.1,1.36l-.82,1.18h-.28Z"/><path class="cls-5" d="M185.19,121.45c-1.12,2.76-.54,5.38-.54,8,0,.48,0,1.2.84,1.12a1.25,1.25,0,0,0,1.28-1.18,19.1,19.1,0,0,0,0-2.83c-.13-1.68.4-3.42-.38-5.06-.2-.43.3-.6.66-.68a37.7,37.7,0,0,0,5-1.55,1.16,1.16,0,0,1,.64,0c.22.08.17.37.07.47-.94.94-.59,2.14-.56,3.23.13,5.38.2,10.77,0,16.16,0,.51-.18,1.1.26,1.55.82.83.26,1.19-.51,1.37a38.31,38.31,0,0,0-4.78,1.49c-.44.18-1.11.3-.77-.45.58-1.34.3-2.68.33-4,.07-2,.05-4,0-6,0-.58.09-1.44-.81-1.47a1.38,1.38,0,0,0-1.42,1.5c0,1.76-.11,3.54,0,5.3s-.56,3.5.53,5.13c.22.31-.1.73-.5.82a37.86,37.86,0,0,0-5.43,1.67c-.59.23-.86-.17-.56-.61.89-1.31.48-2.74.46-4.1-.08-5,0-10,0-14.95,0-.75.38-1.61-.44-2.27-.32-.25,0-.62.28-.72C181,122.65,183,122.07,185.19,121.45Z"/><path class="cls-5" d="M145.32,152c.26,1-.54,2.38.72,3.46.31.29-.24.81-.71,1a47.47,47.47,0,0,0-5.71,1.72c-.21.08-.41.17-.58-.09a.58.58,0,0,1,.06-.76c.94-.94.73-2.17.74-3.33v-16c0-.43.17-.94-.19-1.3-1-1-.31-1.23.59-1.4a27.67,27.67,0,0,0,5-1.57c2.17-.84,4.43-1.47,6.44.17s2.19,4,1.88,6.46a7.59,7.59,0,0,1-3.1,5.37c-.35.26-.94.49-.77,1s.76.32,1.18.34a2.07,2.07,0,0,1,2.13,2c.23,1.35-.3,2.83.68,4.06.38.49-.2,1-.82,1.09a10.55,10.55,0,0,0-3.6,1.11c-.75.37-1.24,0-1.46-.7a7.41,7.41,0,0,1-.31-2.69,15.72,15.72,0,0,0,0-2.17c-.07-.74-.35-1.49-1.29-1.44s-.94.8-.94,1.51S145.32,151.07,145.32,152Z"/><path class="cls-5" d="M93.13,168c.3,1-.57,2.38.69,3.46.36.32-.09.84-.59.94a51.84,51.84,0,0,0-5.88,1.8.57.57,0,0,1-.48,0,.53.53,0,0,1,0-.75c1.08-1.14.74-2.55.74-3.88V153.88c0-.48.15-1-.29-1.41-.88-.81-.23-1.05.48-1.19a33.74,33.74,0,0,0,5.56-1.72c6.49-2.47,8.47,2.06,8.07,6.39a7.72,7.72,0,0,1-3.19,5.76c-.35.24-.95.49-.74,1s.69.33,1.08.36c1.54.08,2.07.58,2.25,2.13.15,1.31-.25,2.67.66,3.92.37.49-.22.94-.85,1.05a10.41,10.41,0,0,0-3.48,1.06c-.86.43-1.35.06-1.61-.81a13.21,13.21,0,0,1-.22-3.38,9.52,9.52,0,0,0-.11-1.76c-.14-.58-.5-1.12-1.23-1s-.94.59-.94,1.29S93.13,167,93.13,168Z"/><path class="cls-5" d="M105.37,161.3v4.48c0,.72.11,1.26.95,1.37.33,0,.65.1.66.54a.84.84,0,0,1-.75.84,15.48,15.48,0,0,0-3,.78c-.68.29-.74-.33-.49-.65,1.22-1.62.77-3.49.79-5.26.06-4.58,0-9.15,0-13.73,0-.76.32-1.63-.52-2.25-.2-.14-.13-.51.08-.73a4.1,4.1,0,0,1,3.39-.28,15,15,0,0,1,2.48,2.3c1.34,1.66,2.46,1.52,3.52-.38.88-1.53,1.79-3,2.59-4.61.65-1.3,2-1.31,3.06-1.74.45-.17.53.32.29.58a2.82,2.82,0,0,0-.5,2.18v17.4c0,.5-.2,1.05.4,1.46.81.55.38,1.11-.27,1.24a23.83,23.83,0,0,0-5.65,1.79.5.5,0,0,1-.63-.1.46.46,0,0,1,0-.62c.87-.95.62-2,.63-3.09V156a12.88,12.88,0,0,1,.34-2.83c.13-.56.71-1.34-.07-1.66s-1.23.53-1.57,1.14c-.53,1-1,2-1.47,3.06s-1.15,1.16-2,.47c-.18-.14-.38-.27-.55-.42-.37-.33-.73-.73-1.3-.44s-.43.85-.43,1.34v4.62Z"/><path class="cls-5" d="M75.57,158c0-.57-.17-1-.77-1.11a.63.63,0,0,1-.62-.63s0-.07,0-.1a.84.84,0,0,1,.64-.8,40.46,40.46,0,0,0,5.23-1.82c1-.35,1.28.4,1.49,1.1a49.8,49.8,0,0,1,1.44,7c.51,3.49.94,7,1.39,10.49.08.59.16,1.21.79,1.47.36.15.69.24.58.71a1,1,0,0,1-.77.69A23.56,23.56,0,0,0,78.79,177c-.28.12-.69.24-.89-.06a.7.7,0,0,1,.26-.93l0,0a1.81,1.81,0,0,0,.69-2.46l-.17-.24c-.7-.94-1.79-.62-2.74-.25a2.83,2.83,0,0,0-2,2.82,1,1,0,0,0,.75,1.15c.34.11.57.25.56.63s-.29.54-.61.6a18.7,18.7,0,0,0-3.26.95.52.52,0,0,1-.63-.11.46.46,0,0,1,0-.62c1.89-1.24,1.47-3.29,1.72-5a106.46,106.46,0,0,1,2.73-13.68A15.18,15.18,0,0,0,75.57,158Z"/><path class="cls-5" d="M160.85,144.82v4.07c0,.46-.08.94.41,1.19a1.18,1.18,0,0,0,1.34-.38,4.56,4.56,0,0,0,1.24-2.52,2.53,2.53,0,0,1,1.09-1.8.77.77,0,0,1,.88-.08.7.7,0,0,1,.18.76,16.45,16.45,0,0,0-.56,3.88c0,.67-.55.85-1,.86-3,.07-5.57,1.44-8.35,2.17-.37.09-.77.55-1.1.18s0-.81.26-1.17a1.85,1.85,0,0,0,.18-1.18V132.71c0-.32.11-.75,0-.94-1.19-1.32.06-1.33.81-1.53a44.51,44.51,0,0,0,7.71-2.51c.76-.36,1.27-.4,1.32.7a18.26,18.26,0,0,0,.46,2.43,1.06,1.06,0,0,1-.85,1.43c-.76.19-.95-.31-1.12-.84a5.18,5.18,0,0,0-.4-1,1.32,1.32,0,0,0-1.6-.71,1.23,1.23,0,0,0-.84,1.39c0,1.76.09,3.53.13,5.3,0,.5,0,1.06.66,1.17a1.05,1.05,0,0,0,1.29-.75h0a1.23,1.23,0,0,1,1.3-.94c.67,0,.59.69.76,1.13a11.48,11.48,0,0,0,.58,1.23,1.17,1.17,0,0,1-.3,1.62l-.2.11c-.67.35-1.1,0-1.39-.62s-.63-.94-1.37-.8a1.55,1.55,0,0,0-1.28,1.55c0,1.59,0,3.18,0,4.77Z"/><path class="cls-5" d="M174.25,124.49c2.13,0,3.07.6,3.21,1.7a2.29,2.29,0,0,1-1.73,2.57c-.84.25-1.52.15-1.7-.94-.1-.63,0-1.49-.94-1.6a1.54,1.54,0,0,0-1.51.94,1.88,1.88,0,0,0,.18,2.27,5.49,5.49,0,0,0,1.29,1c4.7,2.75,5.65,8.18,3.37,13a8.77,8.77,0,0,1-5.2,5,3.79,3.79,0,0,1-3.16-.16,2.27,2.27,0,0,1-.14-3.93c1.26-.87,2.22-.5,2.61.94.14.57,0,1.37.94,1.42a1.89,1.89,0,0,0,1.81-1.2,2.53,2.53,0,0,0-.56-3.1c-.64-.65-1.35-1.21-2-1.79A9.32,9.32,0,0,1,168.26,129,7.6,7.6,0,0,1,174.25,124.49Z"/><path class="cls-5" d="M133.63,153.16v4.35a1.19,1.19,0,0,0,.46,1.19c.83.57.39,1.07-.26,1.22a32.25,32.25,0,0,0-5.65,1.79.56.56,0,0,1-.63,0,.54.54,0,0,1,0-.75c.74-.7.55-1.58.56-2.42V141.42a2.18,2.18,0,0,0-.44-1.74c-.52-.59.34-.87.8-.94a42.8,42.8,0,0,0,5-1.32,15.8,15.8,0,0,0,3-1.13c.62-.38,1.21-.48,1.18.6a8.07,8.07,0,0,0,.36,2.4c.19.69.06,1.29-.74,1.49s-1.1-.37-1.23-1.05a5.45,5.45,0,0,0-.18-.8,1,1,0,0,0-1.12-.77c-.6.1-1.07.36-1.08,1v6.11c0,.85.45.86,1.07.46s1.07-1.88,2.08-1.29c.59.33.72,1.48,1,2.26a1.34,1.34,0,0,1,.14.52,1.12,1.12,0,0,1-.81,1.13c-.55.2-.84-.12-1-.58s-.48-1.13-1.25-1a1.58,1.58,0,0,0-1.23,1.61v4.75Z"/><path class="cls-5" d="M65.65,174v3.94a1.89,1.89,0,0,0,.63,1.8c.62.48.18,1-.45,1.14a29.82,29.82,0,0,0-5.54,1.78c-.25.11-.55.2-.72-.11a.59.59,0,0,1,.1-.75,2.25,2.25,0,0,0,.49-1.88V162.25a2.08,2.08,0,0,0-.4-1.6c-.54-.62.27-.89.77-.94a56.63,56.63,0,0,0,5.88-1.58,16.69,16.69,0,0,0,2.37-.94c.6-.31.94-.18.94.56a8.32,8.32,0,0,0,.41,2.67,1,1,0,0,1-.55,1.32.6.6,0,0,1-.19.06c-.76.23-1.07-.25-1.24-.89-.09-.3-.1-.63-.2-.94a1,1,0,0,0-1.08-.84,1.09,1.09,0,0,0-1.13,1q-.1,3.12,0,6.24c0,.71.52.8,1,.41a5.69,5.69,0,0,0,.85-.85c.88-.94,1.31-.81,1.72.38.19.56.51,1.07.67,1.62a1.09,1.09,0,0,1-.61,1.42l-.06,0c-.65.26-.94-.16-1.13-.64s-.49-1.1-1.28-.85a1.65,1.65,0,0,0-1.2,1.63c-.06,1.54,0,3.08,0,4.62Z"/><path class="cls-68" d="M81.12,107l-1.71-1.31c-.71-.43-1.42-.87-.94-1.88a1.13,1.13,0,0,1,.88.28c2.73,2.07,5.84,2,9,1.65a154.47,154.47,0,0,1,21.38-1.5,88.75,88.75,0,0,1,19,2.7c2.45.6,4.84,1.5,7.44,1.41a12.25,12.25,0,0,0,4.87-1.05c.48-.22.94-.56,1.53-.22.58.05.41-.69.84-.8.84-1.31,2-2.3,3-3.54a3.83,3.83,0,0,0,1.27-2c.17-.4.31-.34.38.06-.18.64-.35,1.28-.53,1.88a4.11,4.11,0,0,1-1.66,3.23,12.9,12.9,0,0,1-7.3,4.77c-1.12.25-2.25,0-3.36.18a.58.58,0,0,1-.76,0c-.72.07-1.43-.59-2.18-.09-1-.14-2-.7-3-.66-.42-.08-.77-.35-1.19-.42a4.51,4.51,0,0,0-1.21-.2c-.71.08-.43.66-.54,1s0,.94-.72.74a1,1,0,0,1-.16-.36c-.33-1.89-.33-1.89-2.17-2.25a4.57,4.57,0,0,1-1.61-.58,48.24,48.24,0,0,0-8.53-1.18,96.92,96.92,0,0,0-17.12.56c-3,.3-6,.86-9,.94a10,10,0,0,1-2.67-.24A7.8,7.8,0,0,1,81.12,107Z"/><path class="cls-44" d="M145.87,106l1.64-3.22A78,78,0,0,1,170,98.28a57.37,57.37,0,0,1,16,1.17,19.38,19.38,0,0,1,7.38,3.59,1.6,1.6,0,0,0,.05.21c.07.27,0,.39-.3.31a25.63,25.63,0,0,0-11.3-3,85.68,85.68,0,0,0-32.68,4.31A11.64,11.64,0,0,1,145.87,106Z"/><path class="cls-157" d="M128.18,109.53c.5-.09.78.2,1,.55,1.17.84.84,2.17,1.07,3.32-.06.51-.51.94-.26,1.54l-1,3a3.33,3.33,0,0,0-.34,1.26c-.42.7-.52,1.71-1.64,1.76-.75-1.25-.48-2.7-.85-4a1.68,1.68,0,0,1,.88-.76c.46-.17.79.15,1.21.39-.35-.49-.76-.84-.81-1.41a3.55,3.55,0,0,1,.57-1.63c.24-.17.43-.44.54-.37-.16,0-.71.35-1-.19C128.22,111.93,127.8,110.66,128.18,109.53Z"/><path class="cls-158" d="M130,113.64a11.16,11.16,0,0,0-.8-3.56,3.16,3.16,0,0,1,3.07.79l-2.17,3.54C129.86,114.19,130,113.91,130,113.64Z"/><path class="cls-159" d="M134.48,111h.76l1,.36-4,3.69c-.26,0-.41,0-.31-.33C132.49,113.2,133.63,112.16,134.48,111Z"/><path class="cls-160" d="M193.22,107.08c-.57.68-.14,1.49-.31,2.23a24.78,24.78,0,0,0-2.72-5.45.23.23,0,0,1,0-.31l0,0a10.82,10.82,0,0,1,2.75,3Z"/><path class="cls-161" d="M128.46,119.07A1.48,1.48,0,0,1,129,118v1.35c-.19.71.25,1.52-.3,2.19C128,120.77,128.6,119.87,128.46,119.07Z"/><path class="cls-162" d="M193.21,103.56l.3-.32a1.43,1.43,0,0,1,.79,1l-.8-.41Z"/><path class="cls-163" d="M132,114.65l.31.33a1.34,1.34,0,0,1-1,.81Z"/><path class="cls-164" d="M190.22,103.56v.34c-.23-.21-.7-.36-.51-.73C189.78,103,190.13,103.29,190.22,103.56Z"/><path class="cls-165" d="M188.61,109.21l-.28.27-.72-.37A.72.72,0,0,1,188.61,109.21Z"/><path class="cls-166" d="M130,113.64l.1.77a3.46,3.46,0,0,1-.09.53A1,1,0,0,1,130,113.64Z"/><path class="cls-31" d="M128.46,180.56c-.09-.64-.18-1.28-.27-1.89,0-.37-.13-.8.27-1.08,1.48,3.61,2.23,4.08,6.26,4.1a16,16,0,0,0,4.11-.71c6.49-1.69,12.95-3.47,19.46-5.08a62.44,62.44,0,0,1,11.46-1.72c2.32-.14,4.58.3,6.86.09h0c.29,1.17-.49,1.88-1.1,2.7h0c-9.61-.36-18.83,1.7-28,4.22a114,114,0,0,1-11.49,3c-2.21.37-4.53.57-6.29-1.44A22.94,22.94,0,0,1,128.46,180.56Z"/><path class="cls-167" d="M193,161.51a23.42,23.42,0,0,0-10.61-3c-.37-.08-.79.06-1.11-.26,1.26.2,1.19-.94,1.62-1.61,3.88.59,7.53,1.77,10.36,4.58C193.28,161.48,193.23,161.6,193,161.51Z"/><path class="cls-168" d="M124.4,170.76c-.15-.35-.28-.7.31-.33a12.52,12.52,0,0,1,4,4.43,5.49,5.49,0,0,0-.27,1.88c-.6,0-.53-.51-.68-.84A15.57,15.57,0,0,0,124.4,170.76Z"/><path class="cls-169" d="M123.83,176.45v.32l-1.33-.43C123.13,176.18,123.5,176.11,123.83,176.45Z"/><path class="cls-170" d="M97.19,127.74c-3.62-.31-7.27-.27-10.9-.23-.54,0-1.08.12-1.61.16-.24-.94.58-.94,1-1.06A76.34,76.34,0,0,1,103,122.46a57.92,57.92,0,0,1,8.11-.51c3.77.1,7.53,0,11.08-1.43.64.17.4.62.25,1a5.41,5.41,0,0,1-1.66,2.42l-.08.08-.2.16c.07,0,.09-.06.15-.08a10.44,10.44,0,0,0,3-4.18,1.69,1.69,0,0,1,.54-1,1.83,1.83,0,0,0,.94-.94c.15-.23.28-.61.7-.35a6.9,6.9,0,0,1,.63,4.92,12.48,12.48,0,0,1-7.46,3.84,25.66,25.66,0,0,1-4.88.31,78.43,78.43,0,0,0-14.36.79A18.2,18.2,0,0,0,97.19,127.74Z"/><path class="cls-99" d="M122.45,120.68c-3.31,1.62-6.84,1.7-10.43,1.66a75.57,75.57,0,0,0-26.54,4.71c-.31.11-.77.08-.8.59a65.21,65.21,0,0,0-12.81,2h-.13c-.14,0-.28-.16-.08-.24L76,127.86c5.17-1.88,10.25-4,15.53-5.55s10.36-2.68,15.81-2.47a20.28,20.28,0,0,0,6.72-.51,14.67,14.67,0,0,0,7.68-2c.57-.3,1.19-1.11,1.76-.66s.11,1.35-.06,2S123.27,120.31,122.45,120.68Z"/><path class="cls-171" d="M97.19,127.74a36.79,36.79,0,0,1,6.59-1.06c4.23-.44,8.48-.19,12.73-.3a14.92,14.92,0,0,0,9.73-3.76c.45-.45,0-1.34.82-1.62a4.77,4.77,0,0,0,1.38-1.88c.55.76.13,1.64.27,2.45l-.79,1.66c-.36,1.42-1.62,2.09-2.56,3a8.09,8.09,0,0,1-2.09,1.34,17.58,17.58,0,0,1-3.83,1.07,64.11,64.11,0,0,1-6.65.08c-2,0-4,.55-6.08.14a2.36,2.36,0,0,1-.78-.2C103,128.66,100.1,127.93,97.19,127.74Z"/><path class="cls-172" d="M105.88,128.66c4.62-.4,9.26,0,13.88-.39.48,0,.34.38.2.53-.73.82-1.17,1.89-2.11,2.52a2.17,2.17,0,0,1-2.69.44,41.19,41.19,0,0,0-8.41-2.61C106.4,129.07,106,129.13,105.88,128.66Z"/><path class="cls-136" d="M123.27,127.2a15.86,15.86,0,0,0,4.71-4l.94-.53.59,2.61c-.81,1.31-2.25,1.89-3.36,2.83-.79.68-1.46,1.62-2.59,1.88a4.73,4.73,0,0,1-3.32.82C120.66,129.08,122,128.21,123.27,127.2Z"/><path class="cls-12" d="M123.56,129.92a42.91,42.91,0,0,1,5.95-4.71A8.59,8.59,0,0,0,130.9,128c.39.43,1.24.5,1.11,1.36a59.89,59.89,0,0,0-7.33.76C124.28,130.22,123.87,130.33,123.56,129.92Z"/><path class="cls-173" d="M123.27,127.2l-3,3.56a2.62,2.62,0,0,1-2.39.56c.35-1.2,1.58-1.89,1.89-3Z"/><path class="cls-174" d="M132,129.4,130.9,128a5.93,5.93,0,0,1,2.43,1.34Z"/><path class="cls-175" d="M63.45,137.05c-.52-.48-.22-1.1-.29-1.67A15.37,15.37,0,0,1,68,133v2.11Z"/><path class="cls-176" d="M189.13,156.06l-5.72-1.65c-.07-.35-.66-.36-.56-.83.22-.31.55-.26.86-.25,1.44.69,2.83.09,4.18-.21a14.49,14.49,0,0,0,4.7-2.22,7.21,7.21,0,0,1-.76,3.77A7.55,7.55,0,0,1,189.13,156.06Z"/><path class="cls-177" d="M189.13,156.06c.64-.95,1.82-.88,2.7-1.36-.35.71-.69,1.44-1,2.16Z"/><path class="cls-178" d="M194.84,152c-.17.57-.34,1.15-1.13,1.09a8.61,8.61,0,0,1,.37-2.25C194.69,151,194.73,151.51,194.84,152Z"/><path class="cls-179" d="M196.47,150.1a1.45,1.45,0,0,1-.56,1.09c-.25-.4-.62-.84-.28-1.28C195.78,149.7,196.2,150,196.47,150.1Z"/><path class="cls-17" d="M196.21,153.33a1.28,1.28,0,0,1,0,1.65Z"/><path class="cls-180" d="M182.85,153.61c.08.35.94.15.56.83h-.55l-3.51-.32C180.46,153.54,181.75,154.21,182.85,153.61Z"/><path class="cls-181" d="M128.73,170.81v-.32a1.29,1.29,0,0,1,.7.66C129.05,171.28,128.92,171.08,128.73,170.81Z"/><path class="cls-182" d="M198.39,210.22a.77.77,0,0,1-.24,1.06l-.05,0c-.27-.28-.65-.6-.55-.95S198.09,210.24,198.39,210.22Z"/><path class="cls-183" d="M107,199.35c.11.22.32.24.53.26a2.73,2.73,0,0,1-1.63.54C106.09,199.66,106.56,199.53,107,199.35Z"/><path class="cls-184" d="M110.75,183.31,111,183l1.07.35A1.16,1.16,0,0,1,110.75,183.31Z"/><path class="cls-185" d="M114,184.37l-.27.28-.56-.82C113.78,183.54,113.79,184.13,114,184.37Z"/><path class="cls-10" d="M167.62,190.36c.38-.05.81.11,1.12-.26a15.22,15.22,0,0,0,7.54-3.77,7.66,7.66,0,0,1-.48,4,20.68,20.68,0,0,1-9.55,2.73,9.49,9.49,0,0,0-1.31.26A16.32,16.32,0,0,0,167.62,190.36Z"/><path class="cls-186" d="M177.43,188.71v-1.88c0-.25-.09-.59.24-.7s.44.2.57.43.54.61.54,1.06Z"/><path class="cls-187" d="M174.42,193.6l.29.28a2.41,2.41,0,0,1-1.43,1.15C173.84,194.41,173.9,193.86,174.42,193.6Z"/><path class="cls-10" d="M175.53,177l1.1-2.7c1.82.16,3.6.87,5.46.26a13,13,0,0,0,8.24-.9,19,19,0,0,0,1.78-.94,9.19,9.19,0,0,1-1.32,3.7c-2.73,1.39-5.65,1.21-8.58,1C180,177.36,177.75,177.13,175.53,177Z"/><path class="cls-154" d="M192.66,175.65l.74-2.89c.79.48.54,1.29.89,1.81Z"/><path class="cls-154" d="M196,172.65c-.44.11-.49.6-.83.82-.18-.4-.52-.86-.12-1.21S195.72,172.3,196,172.65Z"/><path class="cls-188" d="M189.92,162.07a1.45,1.45,0,0,1-.67-1c.53,0,.76.37,1,.72Z"/><path class="cls-189" d="M191.07,85.05V82.43a2.17,2.17,0,0,1,1.11,1.25A1.87,1.87,0,0,1,191.07,85.05Z"/><path class="cls-190" d="M188.3,90.2l.28.28a2.42,2.42,0,0,1-1.28,1.12Z"/><path class="cls-191" d="M193,161.51l.28-.28a2.31,2.31,0,0,1,1,1.09A2.89,2.89,0,0,1,193,161.51Z"/><path class="cls-37" d="M142.59,107.07a14.23,14.23,0,0,1-7.7,1.66,37.5,37.5,0,0,1-5.65-1.26,99.92,99.92,0,0,0-15.56-2.62,77.53,77.53,0,0,0-10.56-.14c-4.25.25-8.47.58-12.76,1.21a22.53,22.53,0,0,1-7.94.09c-1.52-.31-2.63-1.39-4-1.94-.94,0-.7-.94-1.08-1.36.44-.63-.17-1.25,0-1.89a6.57,6.57,0,0,1-.65-3.49c.08-.45,0-1,.66-1.15v2.18a4.69,4.69,0,0,0,3.56,4.4,16.19,16.19,0,0,0,6.28.21c2.91-.31,5.8-.75,8.71-1a133.82,133.82,0,0,1,18.12-.83,70,70,0,0,1,16.38,2.62,20.18,20.18,0,0,0,8.67.65c-.51,1.3-1.68,2-2.72,2.73,0,.13-.29.23-.19.33s.31,0,.45-.06a9.48,9.48,0,0,0,4.87-4.13c.67-.23.94-.85,1.38-1.35a5.9,5.9,0,0,1,0,3.76C142.78,106.12,142.69,106.6,142.59,107.07Z"/><path class="cls-9" d="M77.3,96.2c-.53,1.12-.24,2.29-.17,3.44a9.87,9.87,0,0,0,.16,1.2c-.26-.61-.51-.76-1.07-.19-2.45,2.53-5,5-7.32,7.61a10.43,10.43,0,0,1-1.09,1v-4.63L76.28,96c.27-.25.39-.88,1-.61C77.31,95.66,77.3,95.93,77.3,96.2Z"/><path class="cls-192" d="M157.81,79.33l.64-2.63a2.81,2.81,0,0,1,.77,1.82C158.7,78.7,158.47,79.39,157.81,79.33Z"/><path class="cls-193" d="M153.22,84l.27.26a1,1,0,0,1-.88.45C152.61,84.25,153,84.13,153.22,84Z"/><path class="cls-129" d="M162.22,77.7a1,1,0,0,1,.08,1.42l0,0c-.67.78-.8,2-2,2.36a9.38,9.38,0,0,0-.39-4.64c-.08-.21-.18-.44,0-.63s.5-.1.74,0A4.26,4.26,0,0,1,162.22,77.7Z"/><path class="cls-194" d="M146.41,102.74c-.43,1.64-1.88,2.46-3,3.53a11.56,11.56,0,0,0,.55-4.6c.27-.26.45-.61.8-.79.8.28.84,1.32,1.63,1.61Z"/><path class="cls-195" d="M142.88,101.9c0,.94-.32,1.52-1.38,1.35.31-.75.63-1.5.94-2.26C143,101.18,142.85,101.57,142.88,101.9Z"/><path class="cls-196" d="M146.13,98.91c.22.74-.2,1-.82,1.11-.22-.14-.55-.3-.42-.57C145.11,99,145.64,98.94,146.13,98.91Z"/><path class="cls-197" d="M144.78,100.85a.74.74,0,0,1-.65.82.38.38,0,0,1-.15,0C144,101.16,143.65,100.26,144.78,100.85Z"/><path class="cls-198" d="M136.63,107.38a1.92,1.92,0,0,1-1.42.54c.54-.39.84-.61,1.16-.81Z"/><path class="cls-199" d="M127.08,121c-.19.55-.39,1.1-.58,1.64h-.13s-.07-.05-.11-.07a9.16,9.16,0,0,0-.8-4.89c-.23-.06-.52-.53-.65.11-.08.43,0,1-.46,1.23-.89,2-1.65,4.11-3.77,5.23-.08-.07-.11-.15-.08-.21s0-.11.07-.11a15.83,15.83,0,0,0,1.89-3.26,14.79,14.79,0,0,0,1-4,17.4,17.4,0,0,1-6.32,2.74c-1,.22-2.08,0-3.1.31-.17.06-.06-.26,0-.41a17.7,17.7,0,0,0,8.12-3.47c.73-.54.94-1.1.11-1.82a13.05,13.05,0,0,0-3.59-2.38c0-.5.25-.37.53-.25a8.93,8.93,0,0,1,4.48,2.4,12.26,12.26,0,0,0-2-5.65,2.45,2.45,0,0,1,1.57.27,7.06,7.06,0,0,1,1.82,4.07c.31-.28.28-.84.71-1,.43-.54.23-1.17.24-1.76s.3-.74.81-.44a3.35,3.35,0,0,1,.19,3c-.22.8.23.7.62.84H129c-.18.44-.61.35-.84.56-.36.49-1.5.72-.54,1.64a6.35,6.35,0,0,1,1.3,2.08c-.86,0-1.08-1-1.83-1-.51-.15-.62.26-.81.56C127,118.16,126.76,119.62,127.08,121Z"/><path class="cls-200" d="M119.22,111.43c-.21,0-.42,0-.53.25-.24-.08-.51-.11-.64-.42A1,1,0,0,1,119.22,111.43Z"/><path class="cls-201" d="M77.31,102.71c.81.1.54,1.06,1.08,1.36l1,1.64a54.05,54.05,0,0,0-9.74,5.45l-.25-.25Q73.35,106.82,77.31,102.71Z"/><path class="cls-202" d="M117.84,189.51a3.74,3.74,0,0,1,0,1.63c-.36,0-.94.23-1-.32S117.37,189.85,117.84,189.51Z"/><path class="cls-203" d="M147.54,140.28v4.39a2.55,2.55,0,0,1-1.22,2.41c-.26.14-.56.36-.89.19a.86.86,0,0,1-.31-.94c.45-2.55.12-5.13.21-7.7a8.36,8.36,0,0,0-.24-2.68,1.17,1.17,0,0,1,.63-1.53,1.37,1.37,0,0,1,.35-.08c1-.21,1.22.46,1.33,1.15A30.64,30.64,0,0,1,147.54,140.28Z"/><path class="cls-204" d="M95.3,156.72v4.2a2.81,2.81,0,0,1-.61,1.76c-.37.46-1,.94-1.5.64s-.25-.85-.22-1.34a54,54,0,0,0-.12-9.85c-.13-.94.1-1.56,1-1.73s1.25.62,1.31,1.32c.15,1.66.18,3.34.26,5Z"/><path class="cls-205" d="M74.86,169.39a25.24,25.24,0,0,1,1-5.65,7.39,7.39,0,0,1,.64-1.33.61.61,0,0,1,.7-.32.58.58,0,0,1,.35.66c0,2.15.75,4.17,1,6.28a2.16,2.16,0,0,1-1.18,2.48C75.4,172.4,74.74,172,74.86,169.39Z"/><path class="cls-73" d="M125.76,111.47a2.7,2.7,0,0,1-.85,1.88,16,16,0,0,0-1.64-4.9c.67-.12,1.29.26,2,.28.47,0,.54.37.55.75Z"/><path class="cls-206" d="M127.65,113.06l-1.32.43a8.91,8.91,0,0,0,.48-4.22,2.24,2.24,0,0,1,1.37.26C128.39,110.77,128.83,112,127.65,113.06Z"/><path class="cls-207" d="M127.64,115.26c-.41-.13-1.09-.15-1-.69s.85-.85,1.49-.94Z"/><path class="cls-208" d="M126.3,116.88c.08-.35-.55-.73,0-1,.37-.19.64.13.82.45A.82.82,0,0,1,126.3,116.88Z"/><path class="cls-209" d="M124.35,119a8.89,8.89,0,0,1,.37-2.24c.52.08.67.46.74.94C125.4,118.41,125.3,119.07,124.35,119Z"/><path class="cls-210" d="M120.55,123.94v.33a1.16,1.16,0,0,1-.94.71A2.55,2.55,0,0,1,120.55,123.94Z"/><rect class="cls-211" width="250" height="250"/></svg>