<svg id="Layer_1" data-name="Layer 1" xmlns="http://www.w3.org/2000/svg" viewBox="0 0 250 250"><defs><style>.cls-1{fill:#fef5cc;}.cls-2{fill:#dcc560;}.cls-3{fill:#c8ae5a;}.cls-4{fill:#e1c6a3;}.cls-5{fill:#df3019;}.cls-6{fill:#c62d1a;}.cls-7{fill:#e03823;}.cls-8{fill:#e2d8b4;}.cls-9{fill:#f0a79e;}.cls-10{fill:#fefae7;}.cls-11{fill:#8b6b58;}.cls-12{fill:#8c6b58;}.cls-13{fill:#e5d7b4;}.cls-14{fill:#fef5c9;}.cls-15{fill:#fefed4;}.cls-16{fill:#fefedb;}.cls-17{fill:#fefed7;}.cls-18{fill:#fcfedf;}.cls-19{fill:#fefcd7;}.cls-20{fill:#de2513;}.cls-21{fill:#e7664a;}.cls-22{fill:#de321b;}.cls-23{fill:#fbfada;}.cls-24{fill:#fdfedd;}.cls-25{fill:#df2d18;}.cls-26{fill:#fefedd;}.cls-27{fill:#fdfbd9;}.cls-28{fill:#db2410;}.cls-29{fill:#846150;}.cls-30{fill:#b29b80;}.cls-31{fill:#fefeda;}.cls-32{fill:#815e4e;}.cls-33{fill:#fdfee2;}.cls-34{fill:#b19a7e;}.cls-35{fill:#de341d;}.cls-36{fill:#b0977d;}.cls-37{fill:#ef9776;}.cls-38{fill:#fefee7;}.cls-39{fill:#fdfddb;}.cls-40{fill:#fefddb;}.cls-41{fill:#825f4e;}.cls-42{fill:#fefddf;}.cls-43{fill:#f4bd97;}.cls-44{fill:#dd1e0d;}.cls-45{fill:#fdfdde;}.cls-46{fill:#fefede;}.cls-47{fill:#7f5b4d;}.cls-48{fill:#fdfddd;}.cls-49{fill:#fdfee4;}.cls-50{fill:#dd1c0b;}.cls-51{fill:#fdfee3;}.cls-52{fill:#db200c;}.cls-53{fill:#dd2412;}.cls-54{fill:#dd2713;}.cls-55{fill:#7c594a;}.cls-56{fill:#795444;}.cls-57{fill:#c9bb96;}.cls-58{fill:#724d3c;}.cls-59{fill:#da1e0d;}.cls-60{fill:#886351;}.cls-61{fill:#ece1ab;}.cls-62{fill:#988247;}.cls-63{fill:#c93725;}.cls-64{fill:#efa096;}.cls-65{fill:#e03018;}.cls-66{fill:#de2b14;}.cls-67{fill:#de2b13;}.cls-68{fill:#dd2712;}.cls-69{fill:#e3f0ca;}.cls-70{fill:#e18568;}.cls-71{fill:#e0220d;}.cls-72{fill:#e3e9c4;}.cls-73{fill:#e3eac5;}.cls-74{fill:#e39e7f;}.cls-75{fill:#df210e;}.cls-76{fill:#e4eac4;}.cls-77{fill:#e4efcb;}.cls-78{fill:#e5e7c4;}.cls-79{fill:#fdf3ca;}.cls-80{fill:#fdf4cb;}.cls-81{fill:#dd2f1a;}.cls-82{fill:#de2915;}.cls-83{fill:#e02c19;}.cls-84{fill:#fdf4ca;}.cls-85{fill:#7c5a48;}.cls-86{fill:#7e5949;}.cls-87{fill:#bba289;}.cls-88{fill:#82614e;}.cls-89{fill:#93735f;}.cls-90{fill:#cfbd9d;}.cls-91{fill:#805e4c;}.cls-92{fill:#7d5947;}.cls-93{fill:#825e4d;}.cls-94{fill:#7e5e4a;}.cls-95{fill:#866250;}.cls-96{fill:#988347;}.cls-97{fill:#faf3ca;}.cls-98{fill:#7c5947;}.cls-99{fill:#f6eec7;}.cls-100{fill:#7f5c4a;}.cls-101{fill:#83604e;}.cls-102{fill:none;}</style></defs><title>products</title><path class="cls-1" d="M59.76,222.1V135.39a.24.24,0,0,1,.18,0c1.69.77,3.46,1.3,5.21,1.92.19.14.6,0,.57.44a12.21,12.21,0,0,0,0,3c.12,1.44.07,2.88.19,4.32.16,2,.24,4,.33,6,.1,2.16.34,4.32.44,6.47.07,1.62.24,3.21.38,4.81.24,2.91.5,5.8.88,8.69.15,1.21.2,2.42.38,3.63a5.86,5.86,0,0,0,.51,1.84,2.1,2.1,0,0,0,2.76,1.14,2.16,2.16,0,0,0,.65-.43,4.37,4.37,0,0,0,1.49-3.1c.17-1.84.18-3.7.28-5.56.12-2.55.15-5.11.34-7.66v-.74c0-3.21.21-6.43.35-9.64.06-1.28.06-2.56.11-3.84.07-1.83.23-3.66.16-5.5a1.28,1.28,0,0,1,.4-1.18,1.61,1.61,0,0,1,1,0c5.53,1.1,11.11,1.76,16.71,2.35,2.87.28,5.74.54,8.63.68,2.54.12,5.09.35,7.64.35a5.52,5.52,0,0,1,.81.06,31.4,31.4,0,0,0,3.36.06c.3,0,.67-.09.88.32-1.06.12-2.11,0-3.17.06h3.27c.88.05,1.7,0,2.54,0h13.7c1.25.05,2.5,0,3.58,0-1-.07-2.24.05-3.44-.05.09-.43.45-.33.73-.34h3.25a2.16,2.16,0,0,0,.8-.07c.31,0,.62-.06.93-.06,1.75.06,3.51-.16,5.26-.11a1.35,1.35,0,0,0,.49-.06.86.86,0,0,1,.23-.06c3.12-.06,6.24-.3,9.35-.53,2.46-.18,4.92-.4,7.37-.68a6.92,6.92,0,0,0,1.11-.09,1.54,1.54,0,0,1,.43,0,2.69,2.69,0,0,0,.8-.09,7.66,7.66,0,0,0,1.33-.16h.63a.88.88,0,0,1,.65.17.45.45,0,0,1,0,.23v30.29a1.83,1.83,0,0,1-.13,1.08,2.84,2.84,0,0,1-1.68.12c-.24,0-.33-.22-.37-.45a4.57,4.57,0,0,1,0-.74V159c0-.19.12-.42-.11-.56-1.32,0-2.63,0-4,0-.77,0-.82.08-.79.88v16.75a1.57,1.57,0,0,1-.14.88c-.22.08-.25-.09-.27-.22a3.86,3.86,0,0,1,0-.68v.72c0,.19.06.32.28.33h.22c2,.07,4,0,6,0a1.29,1.29,0,0,1,.88.16,1.32,1.32,0,0,1,.12.78v55a1.69,1.69,0,0,1-.07.67.79.79,0,0,1-.67.37c-2.42.3-4.84.55-7.27.78s-5.09.39-7.64.57c-1.83.12-3.66.21-5.5.28-4.05.13-8.09.18-12.13.29-3.71.09-7.43.1-11.14.05-2.1,0-4.21,0-6.31-.11-3.28-.14-6.56-.16-9.83-.37-6-.39-11.94-.77-17.87-1.62a90.87,90.87,0,0,1-15.13-3.19,26.74,26.74,0,0,1-8-3.82A6.37,6.37,0,0,1,59.76,222.1Z"/><path class="cls-2" d="M59.76,222.1c.13,0,.32-.15.3.13-.12,1.9,1,3.16,2.29,4.28a20.82,20.82,0,0,0,6.73,3.59,72.85,72.85,0,0,0,13,3.21c3.73.62,7.48,1.09,11.25,1.44,2.48.23,5,.37,7.45.54,3.89.28,7.78.42,11.67.53,1.59,0,3.17,0,4.76.09,3.78.14,7.58.14,11.39.08l7.89-.11c2.44,0,4.87-.12,7.29-.26,4-.22,8.09-.44,12.13-.8,2.55-.23,5.08-.52,7.62-.79a3.45,3.45,0,0,0,.54-.11.49.49,0,0,1,.14-.11c.18-.05.35-.07.52-.13a1.58,1.58,0,0,1,.38-.05,98.89,98.89,0,0,0,13-2.59,36.7,36.7,0,0,0,6.64-2.51,12.84,12.84,0,0,0,3.43-2.4,4.31,4.31,0,0,0,1.19-1.93c.16-.22-.05-.65.4-.73a5.61,5.61,0,0,1,1.85,2.5,12.94,12.94,0,0,1,1,6.23c-.2,2.49-1.76,4.26-3.57,5.8a33.37,33.37,0,0,1-11.18,5.82,90.6,90.6,0,0,1-15.14,3.6c-4.58.75-9.18,1.27-13.8,1.64-3.5.27-6.95.48-10.43.63-2.89.12-5.77.17-8.66.24-2.63.07-5.19.09-7.8,0-3.58,0-7.17-.1-10.76-.24-3.86-.15-7.74-.37-11.6-.72a139.84,139.84,0,0,1-24-4,49.62,49.62,0,0,1-13.8-5.65,19.32,19.32,0,0,1-4.72-4.07c-2.33-2.8-2.47-5.86-1.15-9.1A7.77,7.77,0,0,1,59.76,222.1Z"/><path class="cls-3" d="M57,51.88c1.75-1.68,4.09-2.16,6.35-2.7a103.91,103.91,0,0,1,13-2c5.65-.59,11.3-1,17-1.27,4.08-.2,8.16-.35,12.27-.48,8.4-.25,16.79-.25,25.19-.18,3.67,0,7.35.12,11,.25,4.94.19,9.89.4,14.83.73a223.55,223.55,0,0,1,22.79,2.47A50.14,50.14,0,0,1,189,51.12a10.88,10.88,0,0,1,3.5,2.11,3,3,0,0,1,.37,3.05,5.85,5.85,0,0,1-2.63,3A27.82,27.82,0,0,1,182,62.68a111.14,111.14,0,0,1-15.9,2.79c-3.4.4-6.81.7-10.23.93-1.75.13-3.5.21-5.31.31-2.36.14-4.73.15-7.1.33H143c-6.57.17-13.14.13-19.74.13h-4.52c-3.81-.14-7.63-.15-11.39-.34-2.17-.1-4.33-.17-6.5-.29q-4.09-.23-8.2-.57c-3.51-.3-7.1-.67-10.64-1.15a91.21,91.21,0,0,1-14.63-3,23.14,23.14,0,0,1-8.29-4.05,5.69,5.69,0,0,1-2.36-4.88A1.71,1.71,0,0,1,57,51.88Z"/><path class="cls-2" d="M57,51.88c-.62,2.85.73,4.79,2.91,6.35a26.32,26.32,0,0,0,8.3,3.68c2.33.67,4.69,1.22,7.07,1.67s4.52.76,6.8,1.07c1.84.25,3.69.51,5.54.71,1.55.18,3.11.27,4.66.4l5.76.48c.88.07,1.69,0,2.54.12,1.21.13,2.46.08,3.7.15,2.28.14,4.58.19,6.88.28l3.33.09c7.88.25,15.77.1,23.66.09,1.75,0,3.51,0,5.19-.11,1.93-.11,3.86-.14,5.79-.24,2.24-.1,4.48-.23,6.71-.37,2-.14,4-.28,5.94-.5,2.69-.29,5.38-.59,8.06-1a96.9,96.9,0,0,0,12.42-2.4,27.09,27.09,0,0,0,7.89-3.24,6.45,6.45,0,0,0,2.39-2.63,4.13,4.13,0,0,0-.08-3.34,5,5,0,0,1,2.83,3.94c.66,3.45-.63,6.14-3.3,8.32a21.52,21.52,0,0,1-2.39,1.64,1.48,1.48,0,0,1-.26.3,27.31,27.31,0,0,1-5.6,2.44,97,97,0,0,1-18.6,4,6.26,6.26,0,0,1-1.05.12c-2.34.36-4.71.52-7.07.74-2.71.26-5.42.39-8.14.61-.88.07-1.85.08-2.78.11-1.42,0-2.84.12-4.26.18-4.38.16-8.83.19-13.23.26-1.91,0-3.81.16-5.69.06-2.56-.13-5.12,0-7.68-.11-3.25-.13-6.5-.19-9.76-.37-4.16-.25-8.3-.55-12.45-1a138.55,138.55,0,0,1-20-3.27,56,56,0,0,1-11.39-4c-.47-.23-.88-.49-1.36-.76a1.44,1.44,0,0,1-.54-.47,21.77,21.77,0,0,1-3.51-2.76,7.36,7.36,0,0,1-2.17-3.8c-.42-2.55.22-5.63,2.35-7.14Z"/><path class="cls-4" d="M189.75,223.43c-.29.2,0,.58-.27.79a.89.89,0,0,1-.21-.63V135.85a.49.49,0,0,1,0-.24c.06-.14.17-.14.29-.1a1.41,1.41,0,0,1,.13.88v86.18C189.71,222.79,189.74,223.13,189.75,223.43Z"/><path class="cls-5" d="M59.79,65.9a.88.88,0,0,1,.46.26V134a5.46,5.46,0,0,1,0,1c0,.2,0,.49-.34.48h-.08v-69A2.07,2.07,0,0,1,59.79,65.9Z"/><path class="cls-6" d="M189.58,135.49h-.22c-.25,0-.19-.24-.2-.38a7.22,7.22,0,0,1,0-.93V68.05a1,1,0,0,1,.21-.8l.24-.15v67.74C189.6,135.08,189.59,135.29,189.58,135.49Z"/><path class="cls-7" d="M59.85,135.41c.28-.23.16-.54.16-.81V67.05c0-.31-.11-.66.24-.87a45.63,45.63,0,0,0,8.24,3.5,95.75,95.75,0,0,0,13.15,3.07c3.51.6,7.08,1.06,10.65,1.44,2.13.22,4.27.36,6.41.55,4,.36,8.1.52,12.15.69,2.78.12,5.57.13,8.36.18s5.32.12,8,.06c2.93-.07,5.86,0,8.77-.11,2.47-.06,4.95-.12,7.41-.24,5.26-.25,10.58-.51,15.85-1l5-.5a1.28,1.28,0,0,1,.09.72v64.86a5.41,5.41,0,0,1-.07,1.84.67.67,0,0,1-.66.35c-1.06,0-2.07.28-3.12.32a.11.11,0,0,1,.1.08c-1.36.24-2.74.32-4.12.45q-6.67.62-13.38.92h-.49a13.87,13.87,0,0,0-1.82-.09,10.33,10.33,0,0,1,1.76.09c-2,.16-3.9.25-5.86.24a20.43,20.43,0,0,0-2.35-.07c-.22,0-.11.16-.16.09s0,0,0,0a4.47,4.47,0,0,1,1.63,0c-1.39.17-2.78.09-4.17.15a1.78,1.78,0,0,0-.73.06.53.53,0,0,1-.21.11c-1.21.06-2.43,0-3.65,0H115.32a5.34,5.34,0,0,1-.8,0,.37.37,0,0,1-.2-.12l-3.62-.13a1.67,1.67,0,0,1-.67-.07,8.56,8.56,0,0,1,1.75-.09,20.59,20.59,0,0,0-2.48.06c-1.67.05-3.34-.09-5-.17-3.59-.2-7.17-.46-10.74-.8-5.85-.55-11.67-1.32-17.46-2.41-.24,0-.48-.08-.73-.11a.3.3,0,0,1-.25-.2,6,6,0,0,1-.05-1.75c.14-1.91.13-3.83.23-5.74.15-2.63.17-5.26.35-7.89.08-1.25.06-2.51.11-3.77,0-1.6.14-3.21.17-4.81,0-1.92.21-3.83.22-5.75a11.71,11.71,0,0,0-1.05-5,6.6,6.6,0,0,0-3.5-3.67,3.5,3.5,0,0,0-4.32,1.29A8.62,8.62,0,0,0,65.75,107a60,60,0,0,0-.26,7.22,1.58,1.58,0,0,1-.15,1,.14.14,0,0,1-.19,0c-.06-.72,0-1.43,0-2.15a29.82,29.82,0,0,0,.21,4.23c.06,3.38,0,6.77,0,10.15v2.72a24.8,24.8,0,0,0-.2,4.13c0,.08.13,0,0,0s0,0,0-.05v-2.14a.15.15,0,0,1,.19,0h0a1.29,1.29,0,0,1,.15.88V137c0,.28.09.69-.45.55a49.87,49.87,0,0,1-4.71-1.69A1.13,1.13,0,0,0,59.85,135.41Z"/><path class="cls-8" d="M189.32,135.62c.28.24.14.54.14.82v87.78a4.71,4.71,0,0,1-1.87,2.63,22.36,22.36,0,0,1-7.64,3.8,62.9,62.9,0,0,1-8.35,2.08c-2.17.4-4.38.83-6.55,1.05a.6.6,0,0,1-.58-.61v0c0-.32,0-.63,0-.93V178.73a1.47,1.47,0,0,1,.27-1.13,1,1,0,0,0-.27.88v53.74a2.78,2.78,0,0,0,.26,1.56c-.14.17-.33.11-.5.12a1.4,1.4,0,0,1-.06-.73V177.35c.07-.3.5-.16.57-.47.12-1,0-2,.08-2.94.07-.26.1-.47-.27-.49a.38.38,0,0,1-.38-.23V142.38a1.42,1.42,0,0,1,.05-.68v-.1a.12.12,0,0,1,0-.17.28.28,0,0,1,.25,0c.08.12,0,.22-.05.34.18-.18.29-.42.52-.54,3-.47,6-.88,8.93-1.43a85.38,85.38,0,0,0,12.88-3.3c.67-.22,1.3-.53,2-.78C188.89,135.63,189.09,135.5,189.32,135.62Z"/><path class="cls-9" d="M65.09,137.39c.45,0,.3-.27.29-.49l0-4.94a2.82,2.82,0,0,1-.11-1.35c.13-3.22,0-6.44.06-9.65,0-1.75,0-3.5-.06-5.18a1.15,1.15,0,0,1,.11-.73,61.44,61.44,0,0,1,.4-9,7.92,7.92,0,0,1,1.2-3.22,3.92,3.92,0,0,1,5.34-1.5,3.84,3.84,0,0,1,.88.68,9.67,9.67,0,0,1,3.09,6.48,47.8,47.8,0,0,1-.1,7.08q-.12,4.31-.28,8.59c-.12,3.22-.25,6.43-.37,9.64l-.24,6c-.24.2-.52.09-.77,0-2.8-.53-5.55-1.21-8.27-2a.72.72,0,0,1-.47-.28C65.57,137.4,65.25,137.61,65.09,137.39Z"/><path class="cls-10" d="M65.73,137.61c2.36.62,4.71,1.27,7.1,1.75.8.17,1.61.32,2.41.47l.15.09a1.78,1.78,0,0,0-.26,1.12c.09,2-.09,3.88-.15,5.82-.06,2.29-.15,4.6-.25,6.89s-.17,4.65-.24,7c-.06,2-.17,3.95-.25,5.92s-.15,4.06-.25,6.13a6.23,6.23,0,0,1-1,3.76,3.19,3.19,0,0,1-1.51,1.23,2.36,2.36,0,0,1-3.19-1.91,22.8,22.8,0,0,1-.52-3.77c-.11-1.31-.23-2.63-.41-3.91-.16-1.1-.21-2.21-.32-3.3-.18-1.82-.32-3.64-.48-5.45,0-.57-.11-1.15-.14-1.76-.09-2.4-.34-4.78-.49-7.18,0-.74-.09-1.49-.11-2.21,0-2.31-.27-4.61-.3-6.91,0-1.13,0-2.26-.11-3.39C65.44,137.77,65.42,137.58,65.73,137.61Z"/><path class="cls-7" d="M155.11,175.14a2.66,2.66,0,0,1-2.42,1.87c-2.78.29-5.57.11-8.35.16-.28,0-.37-.11-.35-.37V159.05c0-.53.1-.72.67-.7,2,.06,3.92.05,5.87.08a7.84,7.84,0,0,1,1.29.16,3.57,3.57,0,0,1,3,3.07c.3.24,0,.6.18.88h0a5.65,5.65,0,0,1,0,2.09h0c-.16.18.07.46-.16.62l-.35.84c-.24.62-.88.68-1.36.87-.1,0-.24,0-.36.11s.06.07,0,0a.67.67,0,0,1,.83.3,3.07,3.07,0,0,1,1.63,2.2c.14.25,0,.54.11.78v3.15c-.12.25,0,.53-.1.77v.26C155.34,174.77,155.37,175,155.11,175.14Z"/><path class="cls-7" d="M82.39,170.39l.66-7.58c.12-1.34.27-2.63.38-4,0-.36.17-.44.51-.43h4.2c.46,0,.51.14.46.54q-1,7.11-1.89,14.23c-.16,1.17-.32,2.33-.45,3.51,0,.41-.18.55-.61.55H79.33c-.48,0-.63-.14-.7-.6-.7-4.82-1.43-9.64-2.15-14.44-.17-1.11-.33-2.21-.5-3.31,0-.33,0-.47.38-.46h4.33c.48,0,.43.29.47.55q.34,3.12.66,6.22c.15,1.54.28,3.08.42,4.62a4.48,4.48,0,0,0,.09.64Z"/><path class="cls-7" d="M104.1,173.42a5.44,5.44,0,0,0,.15.54.64.64,0,0,0,.71.37.68.68,0,0,0,.66-.54,7.51,7.51,0,0,0,.15-1.89v-1c0-.95,0-.95-1-1-.23-.21-.12-.49-.11-.73a9.82,9.82,0,0,1,.08-2.1l.11-.07H110c.45,0,.6.1.6.58v9c0,.45-.11.62-.58.59a11.55,11.55,0,0,0-1.86,0,.71.71,0,0,1-.86-.54s0-.08,0-.12a2.86,2.86,0,0,0-.21-.58,3.34,3.34,0,0,1-2.63,1.57,1.3,1.3,0,0,0-.87,0,4.55,4.55,0,0,1-4.22-4.07,39.13,39.13,0,0,1-.11-4.33c0-2.2-.08-4.38.1-6.62a4.56,4.56,0,0,1,4-4.38,7.39,7.39,0,0,1,4.54.48,4.41,4.41,0,0,1,2.63,4.31,11.22,11.22,0,0,0,0,1.64c0,.67-.08.74-.77.75h-3.83a.29.29,0,0,1-.22-.07v-2.7a3.18,3.18,0,0,0,0-.61c0-.4-.21-.71-.67-.73s-.69.39-.78.83a.51.51,0,0,0-.1.21c.06,3.59,0,7.18,0,10.77A1.12,1.12,0,0,0,104.1,173.42Z"/><path class="cls-7" d="M137.92,173.83c-1.75-.16-1.75-.16-1.87,1.54a7.29,7.29,0,0,1-.08.79c-.08,1-.08,1-1.13,1H131.5c-.58,0-.68-.15-.61-.69.48-3.5.94-6.95,1.4-10.42.32-2.37.64-4.74.93-7.12.05-.44.2-.58.65-.58h6.07c.38,0,.48.15.53.5.33,2.32.69,4.64,1,7q.83,5.41,1.62,10.83a1,1,0,0,1,0,.25.43.43,0,0,1-.28.11h-4.19c-.28,0-.4-.13-.42-.41-.07-.71-.08-1.43-.16-2.14C138.05,174.25,138.14,174,137.92,173.83Z"/><path class="cls-7" d="M94.48,169.23c-.17.13-.13.33-.13.51v3.16c0,.38.11.5.49.49h2.63c.35,0,.52.08.51.48v2.85c0,.33-.07.47-.44.47h-7.6c-.39,0-.48-.13-.48-.5V158.92c0-.41.12-.53.52-.53h7.07c.45,0,.61.1.6.58-.05.87,0,1.82,0,2.72,0,.37-.09.51-.49.5H94.81c-.35,0-.47.09-.46.45v2.63c0,.38.1.52.48.5H97c.21,0,.42,0,.42.3v3.15l-.09.07A10.54,10.54,0,0,0,94.48,169.23Z"/><path class="cls-7" d="M117.37,173.3a12.76,12.76,0,0,0,2.31.09h1a.68.68,0,0,1,.18.51v2.7a.68.68,0,0,1-.18.51h-7.88c-.55,0-.4-.35-.4-.62V158.66c0-.21,0-.35.3-.35h7.73v3.18a.69.69,0,0,1-.12.52c-.88,0-1.69,0-2.54,0-.44,0-.55.14-.54.56,0,.82,0,1.65,0,2.47,0,.43.15.53.54.52h2.1c.24,0,.45,0,.45.34v3c0,.09-.11.17-.16.25a13.29,13.29,0,0,1-2.82,0,4.11,4.11,0,0,0-.07,1.6,9.71,9.71,0,0,0,.07,2.35Z"/><path class="cls-7" d="M124,162.32a3.82,3.82,0,0,0-1.81-.14c-1.12,0-1.12,0-1.12-1.13v-2.17c0-.37.09-.52.48-.51h9.84c.3,0,.41.08.41.39v3c0,.32-.14.38-.42.37h-2c-.65,0-.54.24-.54.63v13.62c0,.61-.11.82-.77.79-1.32-.06-2.63,0-4,0a1.4,1.4,0,0,1-.06-.67v-13.6C124.12,162.69,124.22,162.47,124,162.32Z"/><path class="cls-11" d="M109.8,196.5a7.16,7.16,0,0,1,7-7.35h.4c4.38,0,7.28,2.84,7.27,7a7.33,7.33,0,0,1-7.07,7.59,2.16,2.16,0,0,1-.36,0A6.89,6.89,0,0,1,109.8,196.5Z"/><path class="cls-11" d="M134.32,203l.22-.1a3.8,3.8,0,0,0,3-3.41,19.31,19.31,0,0,0,.13-3.4v-5.19a1.3,1.3,0,0,0-.62-1.26,3.39,3.39,0,0,1,2.39,0c-.55.42-.29,1.09-.52,1.61-.12.09-.07.23-.07.34v5.54a.76.76,0,0,0,.06.42c0,2-.36,3.95-2.2,5.26a6.13,6.13,0,0,1-6.95-.18,5.27,5.27,0,0,1-1.76-3.82c-.23-2.63,0-5.26-.11-7.89a1.3,1.3,0,0,0-.63-1.24,3.41,3.41,0,0,1,2.73.1,2.66,2.66,0,0,0-.36,1.54c0,2.28-.05,4.56,0,6.84a4.73,4.73,0,0,0,1.91,4.26A7,7,0,0,0,133,203c.4.19.87,0,1.26.08h0A.81.81,0,0,0,134.32,203Z"/><path class="cls-12" d="M146.12,202.16c.13,1,.27,1.09,1.33,1.15.09,0,.28-.1.28.1s-.15.12-.26.1a.88.88,0,0,0-.6,0c-1.25-.1-2.49,0-3.76,0,.06-.26.2-.21.3-.2a.76.76,0,0,0,.82-.74,15.69,15.69,0,0,0,.13-2.28l.07-.07.17-.1c-.22-.24-.14-.52-.14-.77V192a.42.42,0,0,0-.05-.24.91.91,0,0,1-.11-.16,6.31,6.31,0,0,1-.08-1.3l-.24-.47c.06-.44.42-.31.67-.32h3.07a3.75,3.75,0,0,0,.67,0,.45.45,0,0,1,.34.06,3.24,3.24,0,0,1,3.12,2.45,4.08,4.08,0,0,1-1.45,4.19,4.5,4.5,0,0,1-2.68.94c-.05,0-.13-.06-.15-.14a5.13,5.13,0,0,0,1.83-.82,3.65,3.65,0,0,0,.58-4.38,3.2,3.2,0,0,0-3.75-1.6,1.12,1.12,0,0,0-.12.72v9.26A11,11,0,0,1,146.12,202.16Z"/><path class="cls-11" d="M106.33,190.78a3.46,3.46,0,0,0-3.5-.71,2.25,2.25,0,0,0-1,3,1.59,1.59,0,0,0,.13.22,5.72,5.72,0,0,0,1.26,1.34,25,25,0,0,1,2.46,2.08,4.13,4.13,0,0,1,1,4.82,4,4,0,0,1-3.51,2.2,6.5,6.5,0,0,1-2.73-.35.77.77,0,0,1-.65-.78c0-.65.08-1.32.13-2,.12.08.17.1.17.12.18,1.5.5,1.87,1.94,2.22a2.81,2.81,0,0,0,3.12-.87,2.93,2.93,0,0,0-.12-3.26,15.44,15.44,0,0,0-2.63-2.48,5.3,5.3,0,0,1-2.07-3.2,3.23,3.23,0,0,1,2.26-3.66,7.85,7.85,0,0,1,4,0c.2,0,.21.18.19.33a2.18,2.18,0,0,1-.14.87c-.08,0-.06-.14-.12-.18a.14.14,0,0,1,0,.15A.2.2,0,0,1,106.33,190.78Z"/><path class="cls-13" d="M164.2,177.38v56.49h-.13V177.39S164.16,177.34,164.2,177.38Z"/><path class="cls-13" d="M165,177.15c-.23.22-.53.07-.78.14-2.34.05-4.68.08-7,0H157a.2.2,0,0,1,0-.27V159.49c0-.16-.07-.32-.08-.48,0-.41,0-.72.58-.71h4.58a.62.62,0,0,1,.06.42v14.17a.55.55,0,0,1,0,.36c-.33,0-.28-.24-.31-.41a3.57,3.57,0,0,1,0-.8v-12.8c0-.41-.17-.6-.59-.6H158c-.4,0-.56.19-.55.56v17c0,.64.07.7.72.71H164A1.33,1.33,0,0,1,165,177.15Z"/><path class="cls-14" d="M157,177v.26c0,.11-.05.29-.22.13a.75.75,0,0,1-.16-.58V159.42c0-.08,0-.2.12-.28.22.22.12.5.12.75v16.4C156.89,176.52,156.77,176.79,157,177Z"/><path class="cls-13" d="M164.2,141.7v31.48s-.08,0-.12,0V142.35C164.08,142.16,164,141.89,164.2,141.7Z"/><path class="cls-15" d="M146.12,202.16c-.08-1.23-.12-2.47-.11-3.71v-7.67c0-.21-.14-.51.21-.63v11.4C146.25,201.76,146.32,202,146.12,202.16Z"/><path class="cls-16" d="M112.19,177V158.48h.06V177Z"/><ellipse class="cls-17" cx="143.82" cy="167.73" rx="0.04" ry="13.1"/><path class="cls-15" d="M131.76,162.32a1.89,1.89,0,0,1-.88.12c-.55,0-1.26-.24-1.61.11s-.12,1.1-.13,1.67V177H129V163c0-.56.18-.71.7-.67S131,162.32,131.76,162.32Z"/><path class="cls-18" d="M164.08,173.17h.12v.1a3.19,3.19,0,0,1-2,.11l-.09-.08v-15c.26.13.12.38.12.55v13.59c0,.6.19.8.77.74C163.34,173.14,163.71,173.18,164.08,173.17Z"/><path class="cls-19" d="M130.75,143.81c-.18.21-.42.13-.64.13H115c-.22,0-.46.08-.64-.13l.11-.05h16.13Z"/><path class="cls-20" d="M124,162.32c.34.09.14.36.14.51v14.33c-.25-.06-.17-.26-.17-.4V162.42Z"/><path class="cls-21" d="M104.1,173.42l-.11-.24a.91.91,0,0,1,0-.49V162.5A1.22,1.22,0,0,1,104,162h.11v.51a4.61,4.61,0,0,1,0,1.05v8.76a1.94,1.94,0,0,1,0,.68Z"/><path class="cls-22" d="M137.92,173.83c.3-.13.25.12.26.27,0,.75.12,1.49.12,2.24,0,.44.15.56.57.56h4.26V177c-1.27.14-2.54,0-3.8.06a1.59,1.59,0,0,0-.78.07c-.36.1-.39-.11-.42-.39C138.08,175.78,138,174.81,137.92,173.83Z"/><path class="cls-23" d="M144.23,190.28a10,10,0,0,1,.18,1.34,1.12,1.12,0,0,1,.09.6v7.5a.82.82,0,0,1-.11.59h0c-.19-.19-.11-.43-.11-.65v-7c0-.58-.08-1.15-.11-1.76A.56.56,0,0,1,144.23,190.28Z"/><path class="cls-24" d="M104.18,173V162.53c.15.15.1.35.1.52v9.47C104.24,172.69,104.29,172.89,104.18,173Z"/><path class="cls-14" d="M153.66,167.38l-1-.37a4.66,4.66,0,0,0,1.87-.94c.4.58.37.63-.31.87A2.59,2.59,0,0,0,153.66,167.38Z"/><path class="cls-25" d="M105.74,165.22a6.25,6.25,0,0,1,1.93-.09h2.15c.38,0,.49-.12.5-.5a4.3,4.3,0,0,1,.11-1.75,11.24,11.24,0,0,1,.09,2.32.5.5,0,0,1-.45.15h-3.89A.41.41,0,0,1,105.74,165.22Z"/><path class="cls-26" d="M112.51,177.3h8.33v.07h-8.31Z"/><path class="cls-26" d="M97.76,177.37H89.67v-.06h8.11Z"/><path class="cls-27" d="M151.4,177.37h-7.35v-.06h7.38Z"/><path class="cls-26" d="M78.89,177.29H86v.05H78.86Z"/><path class="cls-28" d="M120.35,162.13V159c0-.19-.07-.41.11-.58a25.46,25.46,0,0,1,.08,3.6C120.54,162.13,120.43,162.13,120.35,162.13Z"/><path class="cls-26" d="M157.15,177.27h7a.17.17,0,0,1,0,.1h-6.4C157.58,177.38,157.34,177.46,157.15,177.27Z"/><path class="cls-29" d="M138.92,197.58a1,1,0,0,1-.11-.28v-5.91a.2.2,0,0,1,0-.11h.1Q138.94,194.42,138.92,197.58Z"/><path class="cls-30" d="M148.73,189.49h-.28a21.32,21.32,0,0,1-2.4,0h-3.13c-.13,0-.14-.11-.15-.2s.22-.08.35-.08h5.3a.49.49,0,0,1,.29.06Z"/><path class="cls-31" d="M148.71,189.41h-5.94a.33.33,0,0,1,.32-.15h5.61S148.71,189.37,148.71,189.41Z"/><path class="cls-32" d="M142.92,189.63c.13-.14.3-.1.47-.1h5.06c-.21.2-.46.11-.7.11h-3.13c-.22,0-.47-.08-.63.15A2.79,2.79,0,0,0,142.92,189.63Z"/><path class="cls-33" d="M105.06,167h-.15a.23.23,0,0,1,.22-.18h5.34V167Z"/><path class="cls-34" d="M126.8,189.64c-.16,0-.49.2-.38-.25a31.84,31.84,0,0,1,4.58,0,.39.39,0,0,1-.5.21A25.39,25.39,0,0,0,126.8,189.64Z"/><path class="cls-35" d="M160.52,141.85l-.53,0h0l4.08-.55c.06.15,0,.23-.14.29a1.09,1.09,0,0,1-.36,0,1,1,0,0,0-.61.07,5.26,5.26,0,0,1-1.31.14c-.25.11-.54,0-.79.1Z"/><path class="cls-26" d="M135.8,177.36h-4.92v-.06h4.92Z"/><path class="cls-26" d="M143.08,177.37h-4.71v-.07h4.79Z"/><path class="cls-36" d="M140.29,189.4c0,.26-.18.28-.38.24a23,23,0,0,0-3.32,0,.38.38,0,0,1-.5-.17v0s0-.09.08-.09C137.54,189.36,138.92,189.28,140.29,189.4Z"/><path class="cls-37" d="M105.74,165.22c1.59.05,3.19.05,4.78,0v.12c-.13.15-.31.09-.46.09h-4c-.16,0-.33,0-.47-.08v-.12Z"/><path class="cls-38" d="M105.6,165.35h5c-.1.18-.28.15-.44.15h-4.07C105.88,165.49,105.71,165.52,105.6,165.35Z"/><path class="cls-26" d="M128.73,177.36h-4.65v-.06h4.65Z"/><path class="cls-39" d="M131,189.43l-4.58,0c.21-.19.47-.1.71-.1h3.25C130.59,189.29,130.84,189.19,131,189.43Z"/><path class="cls-7" d="M138.56,177.14c.18-.2.42-.13.64-.13h3.93c0,.18-.17.15-.28.15Z"/><path class="cls-40" d="M140.29,189.4l-4.2,0c0-.14.16-.16.3-.16h3.73Z"/><path class="cls-41" d="M126.8,189.64a2.09,2.09,0,0,1,1.26-.1,9.08,9.08,0,0,1,2.44.1l-.5.13a12.58,12.58,0,0,0-2.74-.11Z"/><path class="cls-16" d="M121,173.42c.07,0,.12,0,.12.07v3.44c0,.07-.07.14-.1.21a.88.88,0,0,1-.13-.65v-2.42A1,1,0,0,1,121,173.42Z"/><path class="cls-42" d="M130.75,143.68a.09.09,0,0,1,.1,0h3.58v.14h-3.68s-.05-.06,0-.08S130.74,143.68,130.75,143.68Z"/><path class="cls-43" d="M121,173.42v3.72h-.13a21,21,0,0,1,0-3.72Z"/><path class="cls-44" d="M120.84,173.42v3.72h-.13v-3.73Z"/><path class="cls-45" d="M114.32,143.66a.06.06,0,0,1,.08,0s.06.07,0,.09h-3.33v-.15Z"/><path class="cls-46" d="M117.37,173.3c.38-.25.79-.11,1.2-.12a10.88,10.88,0,0,1,2.13.12Z"/><path class="cls-47" d="M136.61,189.64a10.33,10.33,0,0,1,3.33,0h-3.33Z"/><path class="cls-48" d="M110.4,177.39h-3v-.09h3Z"/><path class="cls-49" d="M117.37,169.33a19,19,0,0,1,2.82,0s.17.12.12.12A13.17,13.17,0,0,1,117.37,169.33Z"/><path class="cls-50" d="M94.48,169.23v0a7.64,7.64,0,0,1,2.86,0A24.82,24.82,0,0,1,94.48,169.23Z"/><path class="cls-51" d="M104.76,167.11v2.83s-.13-.08-.13-.11A8.28,8.28,0,0,1,104.76,167.11Z"/><path class="cls-52" d="M135.74,143.46H134v-.15a11,11,0,0,1,2.63.14A2.54,2.54,0,0,1,135.74,143.46Z"/><path class="cls-53" d="M109.32,143.44c.88-.3,1.75,0,2.63-.15v.17h-1.89A1.68,1.68,0,0,1,109.32,143.44Z"/><path class="cls-54" d="M142.43,143.21h-1.88V143a6.94,6.94,0,0,1,2,.14h0Z"/><path class="cls-14" d="M155,164.62v-2.09A3.39,3.39,0,0,1,155,164.62Z"/><path class="cls-14" d="M155.69,172.91v-1.68h.05v1.68Z"/><path class="cls-55" d="M134.32,203s.26.1.05.12a4.76,4.76,0,0,1-1.41,0c-.21,0,0-.08.06-.12Z"/><path class="cls-56" d="M106.33,190.78c.08-.08.06-.25.22-.26a.22.22,0,0,0,.06.15,2.11,2.11,0,0,1-.09,1Z"/><path class="cls-14" d="M155.11,175.14l.17-.61C155.68,174.86,155.62,175.06,155.11,175.14Z"/><path class="cls-57" d="M155.83,189.76a1.11,1.11,0,0,1,.81.51A1.78,1.78,0,0,1,155.83,189.76Z"/><path class="cls-14" d="M155.4,170.36a1.58,1.58,0,0,1-.11-.78c.11,0,.24-.11.19.12A4,4,0,0,0,155.4,170.36Z"/><path class="cls-58" d="M147.58,197l.15.14a2,2,0,0,1-.94-.07A1.42,1.42,0,0,1,147.58,197Z"/><path class="cls-59" d="M103.5,177.51a.72.72,0,0,1,.88,0Z"/><path class="cls-14" d="M155,162.54c-.17-.28-.05-.6-.18-.88C155.2,161.9,155,162.24,155,162.54Z"/><path class="cls-7" d="M160.86,141.82c.24-.21.52-.08.79-.1A1.63,1.63,0,0,1,160.86,141.82Z"/><path class="cls-14" d="M155.3,174.28a1.69,1.69,0,0,1,.1-.77C155.38,173.77,155.49,174,155.3,174.28Z"/><path class="cls-13" d="M163.64,141.47H164a.18.18,0,0,1,.24,0v.12h-.64a.1.1,0,0,1,.07-.12Z"/><path class="cls-14" d="M154.87,165.23l.16-.62C155,164.82,155.14,165.09,154.87,165.23Z"/><path class="cls-60" d="M146.87,203.51a.46.46,0,0,1,.6,0Z"/><path class="cls-7" d="M163.64,141.47a.38.38,0,0,0-.09.09H163C163.16,141.38,163.41,141.48,163.64,141.47Z"/><path class="cls-61" d="M108.7,245.14c-1.88,0-3.75.1-5.62,0a122.94,122.94,0,0,1-12.27-1.29A129,129,0,0,1,75,240.3a47.59,47.59,0,0,1-12.69-5.57A5,5,0,0,1,60,232.1a3.56,3.56,0,0,1-.12-2.07.87.87,0,0,1,1-.65h0a9.92,9.92,0,0,1,3,1.2,79.63,79.63,0,0,0,15.34,6.8,65.87,65.87,0,0,0,9.13,1.94c2.33.36,4.66.69,7,1,1.85.23,3.72.37,5.58.53,2.54.21,5.08.42,7.62.6a17.84,17.84,0,0,1,3.5.27,3.42,3.42,0,0,1,1.26.53,1.45,1.45,0,0,1,.82,1.41,1.62,1.62,0,0,1-1.1,1.29,8.09,8.09,0,0,1-2.49.34c-.62.06-1.24,0-1.86,0Z"/><path class="cls-13" d="M164.7,233.76c-.28,0-.34-.27-.36-.49a2.09,2.09,0,0,1,0-.5V178.34c0-.55.08-1,.87-1-.87.35-.67,1-.67,1.63v52.89c0,.48.11.94.12,1.41,0,.29.26.28.38.43Z"/><path class="cls-62" d="M129.15,61.52c-5.12,0-9,.06-12.89,0-2,0-4,0-5.92-.11-1.37-.1-2.72,0-4.08-.11-2.14-.12-4.28-.18-6.41-.25s-4.19-.21-6.28-.37c-2.41-.18-4.82-.42-7.24-.59-1.75-.11-3.51-.29-5.26-.53-4.8-.67-9.64-1.26-14.17-3.09a6.91,6.91,0,0,1-3.17-2.17,3.21,3.21,0,0,1-.37-.77A1.37,1.37,0,0,1,64,51.71l.21-.07A18.37,18.37,0,0,1,69,50.43q3.31-.51,6.65-.88c1.75-.19,3.5-.26,5.25-.4,2.87-.22,5.75-.42,8.62-.52,1.65-.05,3.29-.17,4.93-.24,3-.11,5.92-.16,8.88-.27,1.51,0,3,0,4.51-.09,9.1-.25,18.2-.1,27.3-.08,2.1,0,4.21,0,6.3.12,1.45.09,2.89,0,4.32.1,2.37.13,4.74.17,7.1.27,1.76.07,3.51.16,5.26.24,2.56.12,5.13.29,7.69.48,2.29.18,4.58.35,6.86.63a70.27,70.27,0,0,1,11.7,2,8.83,8.83,0,0,1,2,.87,1.67,1.67,0,0,1,.39,2.72,7.59,7.59,0,0,1-3,1.75,45.33,45.33,0,0,1-8.39,2c-2.38.41-4.79.67-7.19,1-1.61.19-3.24.28-4.85.4l-6.33.48c-.79.06-1.6,0-2.4.12-1.37.11-2.76.09-4.13.15-3.21.13-6.43.15-9.65.28C136.48,61.62,132.23,61.46,129.15,61.52Z"/><path class="cls-63" d="M164.2,141.48H164l.11-.23V74.56a1.45,1.45,0,0,1,.12-.87,119.42,119.42,0,0,0,15.7-2.88,43.11,43.11,0,0,0,9.45-3.56,3.56,3.56,0,0,0,0,1v67.34c-5.39,2.39-11.11,3.57-16.88,4.6-2.53.45-5.07.8-7.62,1.19-.12.06-.23.2-.37,0Z"/><path class="cls-61" d="M106.72,72.82c-1.63,0-3.26.06-4.89,0-2.63-.11-5.34-.24-8-.45-3.07-.24-6.13-.58-9.18-1.05s-5.82-1-8.7-1.75a86.22,86.22,0,0,1-15.77-5.44,13.22,13.22,0,0,1-1.55-.78,2.89,2.89,0,0,1-1.33-1.83c-.23-.87.1-1.3,1-1.34a4.83,4.83,0,0,1,2.08.47A67.45,67.45,0,0,0,70.55,64c4.3,1.05,8.59,2.08,13,2.78,2.16.35,4.38.57,6.54.78,2.78.26,5.57.5,8.36.64,2.24.12,4.48.27,6.72.36,3,.12,6,.27,8.94.37,1.87.07,3.73.24,5.6.35a3.61,3.61,0,0,1,1.89.7,1.21,1.21,0,0,1,.41,1.66,1.15,1.15,0,0,1-.62.51,4.14,4.14,0,0,1-1.5.34c-1.7.12-3.41.17-5.12.27C112.07,72.85,109.38,72.83,106.72,72.82Z"/><path class="cls-1" d="M125.22,92.6a20.23,20.23,0,0,1,15.38,7,15.77,15.77,0,0,1-.8,21.69c-4.61,4.64-10.29,6.48-16.73,6.07A20.37,20.37,0,0,1,111,122.54a16,16,0,0,1,0-25.06A21.66,21.66,0,0,1,125.22,92.6Z"/><path class="cls-9" d="M65.62,84.35a29.87,29.87,0,0,1,.51-6c.28-1.44.87-2.71,2.5-3.06A3.81,3.81,0,0,1,72,76.42a9.88,9.88,0,0,1,2.93,5.4,18.93,18.93,0,0,1-.28,10.26A3.41,3.41,0,0,1,71,94.71a4.63,4.63,0,0,1-3.59-2,8.8,8.8,0,0,1-1.59-4.3A24.47,24.47,0,0,1,65.62,84.35Z"/><path class="cls-64" d="M65.33,115V132h-.1a5.68,5.68,0,0,1,0-1.84V117.05a5.8,5.8,0,0,1,0-2A.33.33,0,0,0,65.33,115Z"/><path class="cls-1" d="M114.4,143.81v-.13h16.35v.13Z"/><path class="cls-65" d="M65,127.54v-7.85h.06v7.89Z"/><path class="cls-66" d="M65.23,115.1v2c-.15-.13-.12-.3-.12-.46a35.48,35.48,0,0,1,.14-3.86Z"/><path class="cls-67" d="M65.21,130.06v4.21A17.44,17.44,0,0,1,65.21,130.06Z"/><path class="cls-68" d="M144.72,108.78v2.57h-.06v-2.57Z"/><path class="cls-7" d="M171,169.45v3.73a.09.09,0,0,1,0,.07h0a13.33,13.33,0,0,0,2.75.1c.81,0,.81,0,.81.79v2.53c0,.28,0,.47-.39.47h-7.88a1,1,0,0,1-.18-.77V159.14a1.18,1.18,0,0,1,.14-.71.38.38,0,0,1,.11-.05c2.58,0,5.16,0,7.73,0a.57.57,0,0,1,.16.39v2.95a.63.63,0,0,1-.15.39h-2.63c-.35,0-.48.09-.47.44v2.9a20.85,20.85,0,0,0,2.37.07c.19,0,.4-.09.58.08a14.09,14.09,0,0,1,0,3.67,9.6,9.6,0,0,1-1.93.08A3.88,3.88,0,0,0,171,169.45Z"/><path class="cls-7" d="M165,177.15h-7.36c-.48,0-.48-.22-.48-.57V159c0-.46.09-.65.61-.63,1.24,0,2.47,0,3.71,0,.48,0,.57.14.57.6v13.67c0,.22-.09.46.09.65h0a21.2,21.2,0,0,0,2.52.05c.31,0,.47.08.37.43Z"/><ellipse class="cls-13" cx="164.46" cy="157.75" rx="0.09" ry="21.68"/><path class="cls-69" d="M166.05,177.14c-.21-.2-.11-.47-.11-.7V159.18c0-8.62-.05-.06,0-.09h0c0-.2-.08-.44.12-.61a1,1,0,0,1,.13.71v17.28A1,1,0,0,1,166.05,177.14Z"/><path class="cls-70" d="M166.05,177.14V158.43a.24.24,0,0,1,.12,0c.12.14.07.32.07.48v17.75a.91.91,0,0,1-.05.49Z"/><path class="cls-71" d="M166.19,177.14V158.42h.12v18.7Z"/><ellipse class="cls-72" cx="170.32" cy="177.32" rx="5.84" ry="0.04"/><path class="cls-70" d="M166.3,158.44h-.12c.12-.16.29-.1.45-.1h7.18a.77.77,0,0,1,.47.1v.05a.11.11,0,0,1-.13,0Z"/><path class="cls-73" d="M174.36,158.43c.07,0,.12,0,.12.06v3.45c0,.07-.07.14-.12.21a5.71,5.71,0,0,1-.1-2A3.76,3.76,0,0,1,174.36,158.43Z"/><path class="cls-74" d="M174.36,158.43v3.72h-.13a32.62,32.62,0,0,1,0-3.7h.06Z"/><path class="cls-75" d="M174.21,158.44v3.7h-.1v-3.68A.12.12,0,0,1,174.21,158.44Z"/><path class="cls-76" d="M171.05,173.29v-.11h3.44v.11Z"/><path class="cls-13" d="M165,173.79c0-.39-.22-.4-.52-.4a10.54,10.54,0,0,1-2.38-.08h2.62C165.08,173.3,165.15,173.47,165,173.79Z"/><path class="cls-77" d="M171,169.45c.05-.24.26-.15.4-.15H174c-.23.27-.54.13-.81.14C172.47,169.47,171.75,169.45,171,169.45Z"/><path class="cls-78" d="M174,165.65h-2.56c-.14,0-.34.08-.39-.16h2.39C173.62,165.5,173.85,165.42,174,165.65Z"/><path class="cls-13" d="M165.6,175.46a2.85,2.85,0,0,1,.13-1.53A1.94,1.94,0,0,1,165.6,175.46Z"/><path class="cls-13" d="M164.45,141.46h.38c0,.28-.55.37-.26.77C164.22,142,164.33,141.72,164.45,141.46Z"/><path class="cls-13" d="M165.26,173.19a1.33,1.33,0,0,1,0,.79A1.19,1.19,0,0,1,165.26,173.19Z"/><path class="cls-13" d="M165.93,159.05v.13c-.1,0-.24.06-.28-.12l.06-.14Z"/><path class="cls-79" d="M150.44,173c-.12.21-.12.49-.36.63a1.26,1.26,0,0,1-1.05.21c-.32-.12-.14-.51-.15-.77v-3.64c0-.25-.21-.66.2-.72a1.17,1.17,0,0,1,1.17.36,1.73,1.73,0,0,1,.18.39.35.35,0,0,1,.12.19v3.15A.49.49,0,0,1,150.44,173Z"/><path class="cls-80" d="M148.88,163.71V162c0-.26.08-.35.36-.35.74,0,1.08.24,1.18,1a8.11,8.11,0,0,1,0,2.46,1,1,0,0,1-1.32.67h0c-.21-.1-.15-.27-.15-.42C148.88,164.78,148.88,164.24,148.88,163.71Z"/><path class="cls-81" d="M150.45,169.58a.07.07,0,0,1,0-.09v-.25a9.09,9.09,0,0,1,0,4.15l0-.36a.11.11,0,0,1,0-.11A17.75,17.75,0,0,0,150.45,169.58Z"/><path class="cls-82" d="M104,162v11.15c-.18-.17-.11-.39-.11-.58v-10C103.88,162.4,103.81,162.18,104,162Z"/><path class="cls-83" d="M99.3,172.26v-8.71h.06v8.77Z"/><path class="cls-84" d="M137.1,163.57l.32,3.3c.1,1,.18,2.09.31,3.13,0,.32,0,.46-.35.45-1.49,0-1.28.25-1.13-1.22.15-1.75.4-3.43.61-5.14a3.45,3.45,0,0,1,.11-.54Z"/><path class="cls-1" d="M116.79,203a10.85,10.85,0,0,1-1.4-.44,6,6,0,0,1-3.51-4.38,8,8,0,0,1,.47-5.71,4.65,4.65,0,0,1,4-2.59c3.78-.34,5.9,2.58,6.21,5.63a8.94,8.94,0,0,1-.47,4.32,4.72,4.72,0,0,1-3.67,3.06l-.29.1A2.11,2.11,0,0,1,116.79,203Z"/><path class="cls-85" d="M116.79,203h1.29c.06,0,.18.12.13.12a5.86,5.86,0,0,1-1.45,0v-.05Z"/><path class="cls-86" d="M144.5,191.63c.14,0,.12.06.12.14v8.41a.11.11,0,0,1,0,.11h-.09a.54.54,0,0,1-.06-.3v-8.08A.45.45,0,0,1,144.5,191.63Z"/><path class="cls-87" d="M144.5,191.63v8.67h-.11v-8.69Z"/><path class="cls-3" d="M87.83,57.45c-1.54,0-3.06.08-4.59,0A24.33,24.33,0,0,1,78.35,57a4.41,4.41,0,0,1-1.25-.52,1.76,1.76,0,0,1-.88-1.57,1.66,1.66,0,0,1,1.18-1.49,8.9,8.9,0,0,1,2.84-.65c2.12-.17,4.25-.35,6.37-.62s4-.4,6.06-.65c2.29-.28,4.58-.66,6.88-.94,1.89-.23,3.77-.51,5.68-.68a48.51,48.51,0,0,1,5.9-.33A24.89,24.89,0,0,1,121,51.59a4,4,0,0,1,1.11.88,1.4,1.4,0,0,1,.06,2,1.43,1.43,0,0,1-.64.39,24.19,24.19,0,0,1-5.1,1.24,64.47,64.47,0,0,1-7.73.65c-1.56,0-3.12.17-4.68.24l-6.65.27c-1,0-2.1,0-3.15.1C92.11,57.51,90,57.45,87.83,57.45Z"/><path class="cls-11" d="M122.71,117.62c-1.46,1-2.83.39-3-1.3a9.65,9.65,0,0,1,.06-2.63c.15-1,1.22-1.68,2.58-1.61,1.86.09,2.55.77,2.63,2.63v4.2a2.16,2.16,0,0,1-2.07,2.26.33.33,0,0,1-.14,0A3.84,3.84,0,0,1,121,121a2.12,2.12,0,0,1-1.35-2c0-.23.13-.27.31-.27h1c.51,0,1-.07.88.68a.38.38,0,0,0,.32.43h.1a.45.45,0,0,0,.4-.48C122.72,118.74,122.71,118.2,122.71,117.62Z"/><path class="cls-12" d="M132.13,117.92c0,.45.06.88.09,1.35,0,.24.06.49.36.48s.4-.19.4-.45v-2.91c0-.24-.08-.48-.35-.5s-.41.17-.43.43-.2.34-.47.35c-1.75.09-1.75.09-1.75-1.63v-2.41c0-.31.09-.44.43-.43h3.89c.32,0,.42.11.44.43.07,1,.08,1-.88,1h-.68c-1.2,0-1.2,0-1.08,1.32a2.16,2.16,0,0,1,1.87-.37,1.4,1.4,0,0,1,1.09,1.14,12.56,12.56,0,0,1,0,3.87,1.66,1.66,0,0,1-1.19,1.39,4,4,0,0,1-2.63,0,2,2,0,0,1-1.31-2v-.05c.13-1.06.13-1.06,1.26-1A1.28,1.28,0,0,1,132.13,117.92Z"/><path class="cls-12" d="M123.58,101l.31-.25a1.6,1.6,0,0,1,1.75-.22,1.3,1.3,0,0,1,.75,1.32v4.77c0,1.13,0,1.13-1.14,1.13s-1.08,0-1.08-1.08v-4c0-.31.22-.88-.33-.88s-.29.56-.29.88v4.58c0,.44-.12.59-.55.56s-1.21.21-1.56-.11-.1-1-.11-1.54V101c0-.44.13-.57.56-.54a8.42,8.42,0,0,0,1.23,0C123.47,100.45,123.63,100.53,123.58,101Z"/><path class="cls-11" d="M134.74,106.12c.1.18.15.46.46.37s.25-.29.27-.5c.05-.43-.2-1,.12-1.23s.87,0,1.32-.1.68.15.68.69a2.11,2.11,0,0,1-1.16,2.2,3,3,0,0,1-3.11-.26,1.92,1.92,0,0,1-.72-1.87v-2.75a2,2,0,0,1,1.75-2.29,1.83,1.83,0,0,1,.33,0,2.32,2.32,0,0,1,2.8,1.75,3.69,3.69,0,0,1,0,2,8.92,8.92,0,0,0-2.73,0h0A4.27,4.27,0,0,0,134.74,106.12Z"/><path class="cls-11" d="M114,105.14a1.5,1.5,0,0,0,.3,0c.55-.08.81.1.7.69a1.22,1.22,0,0,0,.06.42.28.28,0,0,0,.29.26.31.31,0,0,0,.35-.27h0c.08-.46.09-.88-.42-1.17s-.94-.52-1.39-.81a2.22,2.22,0,0,1-.88-2.56c.2-.93.88-1.17,1.68-1.31a3.59,3.59,0,0,1,1.94.23,1.55,1.55,0,0,1,1,1.92c-.26.64-1,.15-1.48.26-.2.06-.47.07-.46-.29a2.09,2.09,0,0,0,0-.5.28.28,0,0,0-.3-.32.34.34,0,0,0-.34.3.88.88,0,0,0,.4,1c.48.27,1,.52,1.45.81a2.17,2.17,0,0,1,.88,2.63,1.7,1.7,0,0,1-1.81,1.38,6.86,6.86,0,0,1-1.11,0,1.92,1.92,0,0,1-1.79-2,1.54,1.54,0,0,1,0-.3c0-.22.1-.28.31-.27S113.73,105.14,114,105.14Z"/><path class="cls-12" d="M129.28,104.05v1.86c0,.26,0,.6.4.58s.3-.35.31-.59c.08-1.22.08-1.18,1.3-1.23.62,0,.71.21.7.74a2.23,2.23,0,0,1-1.19,2.15,3.05,3.05,0,0,1-2.86-.13,1.62,1.62,0,0,1-.78-1.27,18.55,18.55,0,0,1,0-4.08,1.65,1.65,0,0,1,1-1.42,3,3,0,0,1,2.8.06,2.23,2.23,0,0,1,1,2.22c0,.18-.1.26-.28.26h-.56a2.49,2.49,0,0,1-1.1-.06c-.28-.17-.08-.68-.15-1,0-.19-.06-.4-.29-.41s-.32.22-.32.43C129.28,102.77,129.28,103.41,129.28,104.05Z"/><path class="cls-12" d="M125.42,113.72a3.08,3.08,0,0,1-.09-1.28c0-.22.18-.23.35-.23h3.47c.37,0,.36.2.38.47a12.26,12.26,0,0,1-.4,3.51c-.3,1.43-.61,2.86-.88,4.31-.08.44-.26.59-.69.53s-1.25.23-1.52-.13.13-1,.23-1.46c.36-1.67.71-3.35,1.1-5,.1-.48,0-.61-.49-.6a3.48,3.48,0,0,1-1.47-.08,7.22,7.22,0,0,1,1.54,0A6,6,0,0,0,125.42,113.72Z"/><path class="cls-12" d="M118.85,116.62v3.9c0,.38-.12.52-.49.49-.56-.05-1.27.23-1.62-.11s-.11-1.05-.12-1.6v-3.72c0-.6-.21-.92-.88-.87-.23,0-.63.14-.63-.35s-.06-.76.5-.88a3.38,3.38,0,0,0,1.72-1,.72.72,0,0,1,.4-.26c1-.16,1.14,0,1.14,1Z"/><path class="cls-88" d="M118.39,100.47H120c.53,0,.6.15.59.61v6.55a.14.14,0,0,1-.19,0,.48.48,0,0,1-.19-.27c-.11-1.67,0-3.36,0-5,0-1.33,0-1.33-1.32-1.43h-.17a.5.5,0,0,1-.28-.16.16.16,0,0,1-.07-.22S118.38,100.48,118.39,100.47Z"/><path class="cls-89" d="M118.37,99a5,5,0,0,1,2.11,0,4,4,0,0,0,0,.49c0,.37-.17.53-.52.51h-.37C118.51,100,118.51,100,118.37,99Z"/><path class="cls-90" d="M118.39,100.47v.11a1.73,1.73,0,0,1,.16.87v5.2c0,.71.07.77.78.79a2.07,2.07,0,0,1,1.15.16h.11a4.27,4.27,0,0,1-2.35,0,9.31,9.31,0,0,1,0-1.75V101c0-.2-.06-.41.07-.59Z"/><path class="cls-39" d="M118.25,100.45v7.18c-.15-.12-.11-.29-.11-.45V101C118.12,100.78,118.07,100.59,118.25,100.45Z"/><path class="cls-91" d="M118.37,99c.29.88.3.77,1.3.88s.57-.58.81-.88c.22.28.08.6.09.88s-.19.23-.36.23H118.8c-.46,0-.52-.12-.47-.49A4,4,0,0,0,118.37,99Z"/><path class="cls-92" d="M132.6,102.72a5.53,5.53,0,0,1,0,2.74A12.55,12.55,0,0,1,132.6,102.72Z"/><path class="cls-93" d="M132.13,117.92h-1.36c-.48,0-.72.08-.64.6a.36.36,0,0,1-.12.39c-.1-1.22-.1-1.25,1.11-1.21C131.44,117.71,131.89,117.41,132.13,117.92Z"/><path class="cls-94" d="M134.72,104.2a5.27,5.27,0,0,1,2.73,0Z"/><path class="cls-95" d="M134.74,106.12l-.08.14a5.1,5.1,0,0,1,0-2.06h.05C134.75,104.83,134.74,105.47,134.74,106.12Z"/><path class="cls-7" d="M150.45,169.58a1.68,1.68,0,0,1,.12,1.12,6.9,6.9,0,0,1-.12,2.22Z"/><path class="cls-96" d="M110.23,51.14a14.44,14.44,0,0,1,2.63.12,4.29,4.29,0,0,1,1.81.87c.64.55.58,1-.15,1.42a10.83,10.83,0,0,1-3.45.88,57.5,57.5,0,0,1-7.06.5,11.24,11.24,0,0,1-2-.22,1.19,1.19,0,0,1-1-1.08c-.11-.55.31-.81.72-1a12,12,0,0,1,3.92-1.25A27.69,27.69,0,0,1,110.23,51.14Z"/><path class="cls-97" d="M122.69,115.07v1.17c0,.2-.08.43-.35.44a.42.42,0,0,1-.45-.37v0a13.86,13.86,0,0,1,0-2.41.42.42,0,0,1,.42-.42h0c.26,0,.33.24.34.45v1.18Z"/><path class="cls-98" d="M123.29,107.6h-1.7v-.06h1.7Z"/><path class="cls-99" d="M135.38,102.37c-.1.27.17.67-.34.68s-.3-.32-.29-.53-.16-.77.29-.81S135.25,102.16,135.38,102.37Z"/><path class="cls-100" d="M125.42,113.72a3.83,3.83,0,0,1,2,0Z"/><path class="cls-11" d="M118.49,100.7h1.3c.43,0,.57.13.56.56v6.26a8.43,8.43,0,0,1-1.59.06c-.36,0-.32-.23-.32-.46V101A.47.47,0,0,1,118.49,100.7Z"/><path class="cls-101" d="M118.49,100.7v6.2c0,.48.13.66.62.62s.88,0,1.24,0l.13.11h-1.76c-.3,0-.38-.11-.38-.39v-6.68Z"/><rect class="cls-102" width="250" height="250"/></svg>