<svg id="Layer_1" data-name="Layer 1" xmlns="http://www.w3.org/2000/svg" viewBox="0 0 250 250"><defs><style>.cls-1{fill:#ff952c;}.cls-2{fill:#ea4903;}.cls-3{fill:#ffc05a;}.cls-4{fill:#ff781d;}.cls-5{fill:#90b23f;}.cls-6{fill:#ef9d26;}.cls-7{fill:#fe781d;}.cls-8{fill:#fc751c;}.cls-9{fill:#f77a1e;}.cls-10{fill:#ef8022;}.cls-11{fill:#c1dd6b;}.cls-12{fill:#af674e;}.cls-13{fill:#fc771d;}.cls-14{fill:#fe771d;}.cls-15{fill:#fc761c;}.cls-16{fill:#f36f1e;}.cls-17{fill:#fca23f;}.cls-18{fill:#a34b3d;}.cls-19{fill:#ffd671;}.cls-20{fill:#993e1f;}.cls-21{fill:#ed3f32;}.cls-22{fill:#ef9e27;}.cls-23{fill:#ef4735;}.cls-24{fill:#f1a12b;}.cls-25{fill:#f09f2a;}.cls-26{fill:#f0a12b;}.cls-27{fill:#ef9f29;}.cls-28{fill:#ef9d27;}.cls-29{fill:#ef4835;}.cls-30{fill:#f09e28;}.cls-31{fill:#f0a12c;}.cls-32{fill:#a34624;}.cls-33{fill:#f1a12c;}.cls-34{fill:#ec4032;}.cls-35{fill:#f09f29;}.cls-36{fill:#f14e38;}.cls-37{fill:#f0a02a;}.cls-38{fill:#ef9f28;}.cls-39{fill:#f0a02b;}.cls-40{fill:#f04d38;}.cls-41{fill:#f14f39;}.cls-42{fill:#ef9e28;}.cls-43{fill:#f15139;}.cls-44{fill:#ea4132;}.cls-45{fill:#afd154;}.cls-46{fill:#aed053;}.cls-47{fill:#abcd51;}.cls-48{fill:#add053;}.cls-49{fill:#adcf53;}.cls-50{fill:#aacc50;}.cls-51{fill:#dbe987;}.cls-52{fill:#fffcaf;}.cls-53{fill:#fefa9c;}.cls-54{fill:#fefa9b;}.cls-55{fill:#f9f188;}.cls-56{fill:#fcf99b;}.cls-57{fill:#dbe886;}.cls-58{fill:#fbf89a;}.cls-59{fill:#f6f695;}.cls-60{fill:#f9f798;}.cls-61{fill:#b47754;}.cls-62{fill:#f8f697;}.cls-63{fill:#b27b53;}.cls-64{fill:#b17652;}.cls-65{fill:#af694e;}.cls-66{fill:#b48856;}.cls-67{fill:#b38455;}.cls-68{fill:#b48656;}.cls-69{fill:#b57c56;}.cls-70{fill:#b69359;}.cls-71{fill:#b37f54;}.cls-72{fill:#b58f58;}.cls-73{fill:#b8945b;}.cls-74{fill:#b27d53;}.cls-75{fill:#eb802d;}.cls-76{fill:#b48a56;}.cls-77{fill:#b17451;}.cls-78{fill:#b38655;}.cls-79{fill:#b6975a;}.cls-80{fill:#b48d57;}.cls-81{fill:#b38355;}.cls-82{fill:#b48956;}.cls-83{fill:#b68d59;}.cls-84{fill:#b38354;}.cls-85{fill:#b06f50;}.cls-86{fill:#b7975a;}.cls-87{fill:#b58c57;}.cls-88{fill:#c1a163;}.cls-89{fill:#b59058;}.cls-90{fill:#b17752;}.cls-91{fill:#b69459;}.cls-92{fill:#b38154;}.cls-93{fill:#b37d53;}.cls-94{fill:#b38555;}.cls-95{fill:#b27952;}.cls-96{fill:#f0882c;}.cls-97{fill:#b27c53;}.cls-98{fill:#b27a52;}.cls-99{fill:#b48756;}.cls-100{fill:#b59358;}.cls-101{fill:#b38053;}.cls-102{fill:#b17151;}.cls-103{fill:#b58e58;}.cls-104{fill:#b58e57;}.cls-105{fill:#b38254;}.cls-106{fill:#b38956;}.cls-107{fill:#dbe986;}.cls-108{fill:#f9f899;}.cls-109{fill:#b17552;}.cls-110{fill:#b48655;}.cls-111{fill:#b79d5b;}.cls-112{fill:#b69058;}.cls-113{fill:#b07350;}.cls-114{fill:#e3c781;}.cls-115{fill:#ffb769;}.cls-116{fill:#a44c3d;}.cls-117{fill:#c65a4f;}.cls-118{fill:#c5594e;}.cls-119{fill:#c55a4f;}.cls-120{fill:#f1a42f;}.cls-121{fill:#f1a531;}.cls-122{fill:#b25732;}.cls-123{fill:#b15631;}.cls-124{fill:#af5430;}.cls-125{fill:#ff6248;}.cls-126{fill:#f0a32d;}.cls-127{fill:#f1a32e;}.cls-128{fill:#ac512e;}.cls-129{fill:#f0a22d;}.cls-130{fill:#f1a631;}.cls-131{fill:#f1a632;}.cls-132{fill:#b25632;}.cls-133{fill:#b05530;}.cls-134{fill:#ad532f;}.cls-135{fill:#b25631;}.cls-136{fill:#f0a22c;}.cls-137{fill:#d1a773;}.cls-138{fill:#d2a874;}.cls-139{fill:#d1a572;}.cls-140{fill:#d2af75;}.cls-141{fill:#d3b176;}.cls-142{fill:#d4bc79;}.cls-143{fill:#d3b175;}.cls-144{fill:#d3b376;}.cls-145{fill:#d4bb79;}.cls-146{fill:#d3af75;}.cls-147{fill:#d1a271;}.cls-148{fill:#d3b276;}.cls-149{fill:#d3b577;}.cls-150{fill:#d5c07b;}.cls-151{fill:#d5be7a;}.cls-152{fill:#d5c47c;}.cls-153{fill:#d1a673;}.cls-154{fill:#d1a973;}.cls-155{fill:#d2ac75;}.cls-156{fill:#d4b978;}.cls-157{fill:#d4b778;}.cls-158{fill:#d4bd79;}.cls-159{fill:#d3b878;}.cls-160{fill:#d2ad75;}.cls-161{fill:#d3b377;}.cls-162{fill:#d4bf7a;}.cls-163{fill:#d5c57b;}.cls-164{fill:#d2ab74;}.cls-165{fill:#d6c87d;}.cls-166{fill:#d3b076;}.cls-167{fill:#d5c17b;}.cls-168{fill:#d0a071;}.cls-169{fill:#d2aa74;}.cls-170{fill:#d2a974;}.cls-171{fill:#d2aa75;}.cls-172{fill:#d5bd7a;}.cls-173{fill:#d2b075;}.cls-174{fill:#d6cc7e;}.cls-175{fill:none;}</style></defs><title>products</title><path class="cls-1" d="M128,49l63.38.46c9.35.07,18.69.42,28,.65,2,0,3.9.17,5.85.25A15.68,15.68,0,0,1,240.3,65.55c.27,6.92.15,13.86.26,20.78.4,27.13,0,54.25-.21,81.37q-.24,33.12-.59,66.24a18.29,18.29,0,0,1-.71,5,13,13,0,0,1-12.39,9.79c-7.73.29-15.46.47-23.2.67-12.57.31-25.15.45-37.72.67-9.35.15-18.7.05-28.05.19-15.55.23-31.09,0-46.62-.1q-15.24-.12-30.48-.36c-10-.17-20.05-.39-30.07-.57-4.45,0-8.51-1.19-11.82-4.35a15.59,15.59,0,0,1-5-11.1Q13,215,12.56,196.25c-.14-6.74-.1-13.47-.23-20.19-.34-16.42-.08-32.84.2-49.26.2-12.11.65-24.21,1-36.32.23-6.86.53-13.72.95-20.56a49.55,49.55,0,0,1,.73-8.43,15.78,15.78,0,0,1,15-12.08C49.18,49,68.08,49,87,48.87,100.64,48.74,114.3,48.87,128,49Z"/><path class="cls-2" d="M98.72,156.91l-76-.55c-2,0-2,0-2-2,.05-7.34-.14-14.69.24-22,.42-8,.12-16,.58-24,.3-4.84.07-9.69.51-14.5.29-3.36.05-6.73.45-10s.11-6.46.48-9.66c.33-2.83.13-5.74,1.41-8.47A14.61,14.61,0,0,1,35.3,57c2.74-.56,5.49-.23,8.24-.34,9.74-.39,19.49,0,29.23-.27,15.74-.46,31.47.3,47.2-.06,14-.33,28.12-.25,42.16.13,13.78.37,27.56.14,41.34.68,4.83.19,9.67.07,14.5.45a14.68,14.68,0,0,1,14.16,14.91c.05,8.94.1,17.89.34,26.82.21,8.21-.21,16.41.16,24.6.5,11,0,22.06.08,33.09,0,2.58.12,2.6-2.42,2.35-5.37-.54-10.76-.08-16.11-.56-5-.43-9.94-.18-14.89-.44-11.29-.6-22.59-.29-33.88-.7C141,156.83,116.53,157.34,98.72,156.91Z"/><path class="cls-2" d="M167.09,169.16c16.89.12,33.79.14,50.67.44,4.42,0,8.85.3,13.29.39,1.42,0,1.45.09,1.48,1.51.07,3.5-.26,7-.39,10.47-.18,5.11.05,10.24-.25,15.34-.28,4.91-.15,9.82-.53,14.71-.27,3.43-.15,6.85-.42,10.25-.4,5.33-1.34,10.54-4.47,15a9.55,9.55,0,0,1-8.5,4.5c-5.64-.11-11.29.21-16.92.39-4.44.14-8.88-.07-13.3.24-6.45.46-12.91-.09-19.34.29-7.87.44-15.74-.06-23.59.19-10,.32-19.9.18-29.85.12-2.69,0-2.54.13-2.43-2.57.88-22.37.53-44.76.9-67.14a14.28,14.28,0,0,1,.29-2.6c.42-2,.37-2,2.48-2l50.88.37Z"/><path class="cls-2" d="M86.6,242.83c-3,0-5.93.06-8.89-.07-12.36-.62-24.74-.33-37.11-.74-2.89-.09-5.86,0-8.74-1a15.32,15.32,0,0,1-9.81-13.7c-.19-4.29.16-8.6-.56-12.87a1.79,1.79,0,0,1,0-.4c.19-6.66-.28-13.3-.39-20Q20.92,182,21,169.87a.67.67,0,0,1,0-.2c.17-.7-.65-1.51.06-2.09a2.88,2.88,0,0,1,2.54-.24,20.94,20.94,0,0,0,4.81.32c11,.08,22-.06,32.91.38,13.31.53,26.63.29,39.94.57,1.74,0,2,.08,1.68,1.85-.59,3.53-.26,7.09-.71,10.64-.38,2.91-.05,5.92-.23,8.88-.9,16.94-.4,33.89-.7,50.85V242a.8.8,0,0,1-.75.87h-.13l-1.42,0-12.34-.08Z"/><path class="cls-3" d="M28.87,141.4c.12-16.33.29-32.66.17-49,0-6,0-12-.09-17.93a12.2,12.2,0,0,1,0-1.6c.06-.35.38-.29.64-.22,2.08.08,3.37,1.69,5,2.57,1.19.85,2.39,1.7,3.58,2.57a15.77,15.77,0,0,0,2.11,1.71,101.65,101.65,0,0,1,7.74,7.37c.93,1.39,2.14,2.55,3.12,3.89a2.84,2.84,0,0,1,.87,2.16,4,4,0,0,0,.33,2.4,197.27,197.27,0,0,1,8.46,40,37.88,37.88,0,0,1,.41,5c-.1,4.6-.38,9.18-6.22,11.09A5.43,5.43,0,0,0,60.58,149c2-2.72,2-2.75,4.24-.14.71.85,2.13,1.41,1.57,3a21.76,21.76,0,0,1-7.16,1.94,61.54,61.54,0,0,1-12.06.3,57,57,0,0,1-11.3-1.79,15.44,15.44,0,0,1-4.18-1.94c-2.1-.81-2.54-2.56-2.63-4.53A20.12,20.12,0,0,0,28.87,141.4Z"/><path class="cls-3" d="M81.5,63.05a14.37,14.37,0,0,1,7.35-3,64.52,64.52,0,0,1,14-1.15c4.2.21,8.45.34,12.47,1.92a5,5,0,0,1,1.79.88c-.46,2.23-2.37,3.32-3.83,4.69-.71.69-1.16-.3-1.42-.87a6.86,6.86,0,0,0-3.66-3.58,2.16,2.16,0,0,0-2.22-.11c5.49,2.11,5.69,6.6,5.46,11.27A148.54,148.54,0,0,1,107.67,98c-1.48,6.78-3.43,13.43-5.54,20a3.45,3.45,0,0,0-.28,2c.05,1.72-1.3,2.65-2.19,3.84-.54.73-1.3,1.3-1.78,2.09a82.26,82.26,0,0,1-8.23,7.72c-.84.54-1.62,1.18-2.43,1.76-1.11.87-2.32,1.59-3.46,2.42A26,26,0,0,1,80.22,140c-.64.31-1.31.78-1.94,0a7.6,7.6,0,0,1-.37-3.38c.07-10-.16-19.91.29-29.84.57-12.3.34-24.6.6-36.89a16.3,16.3,0,0,1,.58-4A4,4,0,0,1,81.5,63.05Z"/><path class="cls-3" d="M166.43,152.5a26.65,26.65,0,0,1-8.32,2.09,73.55,73.55,0,0,1-9.62.24,68.7,68.7,0,0,1-11.51-1.5,15.57,15.57,0,0,1-6-2.69,3.68,3.68,0,0,1-2-2.44,13.34,13.34,0,0,1-.7-4.56c.4-17.94-.4-35.89,0-53.83.09-4.51.07-9,.1-13.52a6.86,6.86,0,0,1,.33-2.77c.52-.88,1.12-.38,1.7-.09a27.22,27.22,0,0,1,3.93,2.41c.53.37,1.07.76,1.62,1.11.68.58,1.39,1.12,2.11,1.64a15.09,15.09,0,0,1,2.12,1.67,102.16,102.16,0,0,1,9.19,9.07c.81,1.5,2.71,2.36,2.61,4.4-.39,1,.19,1.83.46,2.7a209.66,209.66,0,0,1,8.48,41.63,34.36,34.36,0,0,1-.05,6.65,8.59,8.59,0,0,1-5.37,7.46c2.48.22,4-1.14,5.27-3,1.52-2.21,1.87-2.28,3.38-.13C165,150.17,166.49,150.86,166.43,152.5Z"/><path class="cls-3" d="M181.71,63.51c3-2.09,6.4-2.7,9.86-3.16A63.11,63.11,0,0,1,203,59.63a49.91,49.91,0,0,1,10.34,1.27,11.7,11.7,0,0,1,3.86,1.6c-.72,1.85-2.29,3-3.59,4.44-.92,1-1.42-.1-1.76-.75a7,7,0,0,0-4.27-3.75,2.53,2.53,0,0,0-2,.13,7.3,7.3,0,0,1,5.55,5.68,21.21,21.21,0,0,1,.4,7.41,202.5,202.5,0,0,1-9.5,43.23,4.49,4.49,0,0,0-.23,2.18c-.15,1.4-1.17,2.27-2,3.27A82.46,82.46,0,0,1,189.9,134a18.92,18.92,0,0,1-2.15,1.73c-1.18.93-2.46,1.71-3.7,2.56s-2.31,1.6-3.55,2.29c-.68.37-1.37.89-2.24.43-.78-.92-.59-2-.62-3.09-.12-6,.6-12.07.58-18.13-.05-11.5.16-23,.19-34.5,0-5.51.67-11,.61-16.52C179,66.62,179.54,64.56,181.71,63.51Z"/><path class="cls-3" d="M168.51,151.36l-.83.39c-3.21-1.88-5.22-4.72-5.28-8.41a130.85,130.85,0,0,0-7.2-39.92c-1-2.93-2.3-5.74-3.06-8.74.44-1.82,1.75-3.12,2.78-4.58,3.23-3.5,7.18-6.08,11-8.92A22.31,22.31,0,0,0,168,79.51a20.2,20.2,0,0,0,4.74-5.06c.53-.72.82-1.58,1.36-2.28.44-.45.92-.68,1.46-.14,1.24,1.91,1.24,4.11,1.28,6.23.15,10.41-.1,20.83-.66,31.21q-.78,14.79-1.82,29.55c-.23,3.27-.56,6.57-2.42,9.46A5.9,5.9,0,0,1,168.51,151.36Z"/><path class="cls-3" d="M118.64,62.49l.8.44c1.74.44,2.54,1.87,3.34,3.27a17.17,17.17,0,0,1,2,7.58c.37,5.37.49,10.74.82,16.11.48,7.72.62,15.45.9,23.17.29,8.2.1,16.42-.18,24.63a7,7,0,0,1-1.21,4.41c-.59.43-1.06.16-1.5-.27-.55-.7-.81-1.58-1.34-2.31-1.23-2-3.06-3.5-4.69-5.15-.73-.56-1.42-1.13-2.18-1.65-3.73-2.87-7.64-5.52-10.77-9.08a17.12,17.12,0,0,1-2.58-4,5.05,5.05,0,0,1,.74-3.08A139.9,139.9,0,0,0,112.65,77a49,49,0,0,0,.13-5.94c-.07-3.6,2.26-5.9,4.43-8.29A1.14,1.14,0,0,1,118.64,62.49Z"/><path class="cls-3" d="M218.46,63.15c3,1.75,4.41,4.56,5.14,7.83a42.86,42.86,0,0,1,.66,6.4c.3,3.75.28,7.52.48,11.28.32,5.91.55,11.81.75,17.72.1,2.48.17,5,.24,7.45.2,6.66.47,13.32.17,20a39.32,39.32,0,0,1-.79,7.8,10.38,10.38,0,0,1-.5,1.31c-.76.4-1-.24-1.35-.68s-.55-1.18-.88-1.74a18.44,18.44,0,0,0-5.07-5.45,11.71,11.71,0,0,0-2.12-1.73c-3-2.28-6.09-4.41-8.84-7a10.75,10.75,0,0,1-1.74-1.95,13.42,13.42,0,0,1-2.54-4c-.35-1.29.38-2.36.82-3.45a135.05,135.05,0,0,0,8.47-30.23A102.35,102.35,0,0,0,213,70.92C213,67.83,215.9,63.87,218.46,63.15Z"/><path class="cls-3" d="M69.17,150.24c-.57.2-1,.78-1.62.81-2.9-2.24-5.12-4.84-4.94-8.83.14-4.73-.63-9.39-1.25-14A133.69,133.69,0,0,0,53,96.65a6.09,6.09,0,0,1-.73-2.71,12,12,0,0,1,2.82-4.57c2.38-2.84,5.4-4.87,8.41-7,.7-.5,1.4-1,2.09-1.54a6.48,6.48,0,0,1,.84-.51L66.8,80l.33-.31.16-.16.35-.31a8.15,8.15,0,0,1,.76-.55l.39-.33c.06-.06.13-.11.19-.18a21.25,21.25,0,0,0,3.71-4.1c.58-.8.88-1.74,1.41-2.57.5-.59,1-.91,1.7-.22a6.75,6.75,0,0,1,1,3.47c.34,6.16.91,12.33,0,18.49a29.34,29.34,0,0,0-.1,3.63c-.15,8.92-.78,17.82-1.33,26.73-.31,5.36-.6,10.72-1,16.06A19.56,19.56,0,0,1,73,146,7.38,7.38,0,0,1,69.17,150.24Z"/><path class="cls-4" d="M168.51,151.36c3.16-2.38,4.55-5.65,4.93-9.5.48-4.6.67-9.22,1-13.84.32-5.22.6-10.44.94-15.65.23-3.49.12-7,.44-10.45.71-7.86.39-15.72.47-23.58a14,14,0,0,0-1.14-6.47c-.09-.1-.22-.21-.22-.32.08-3.52-2.45-5-5-6.44a2.94,2.94,0,0,0-3.38.22c-2.35,1.59-2.35,1.59-3.73-.83-.23-.39-.67-.69-.5-1.24l19.43.2c-1.74,2.07-2.1,4.49-2.19,7.14-.68,19.21-.46,38.43-.87,57.65-.07,3.69-.28,7.38-.34,11.07,0,.61-.3,1.42.71,1.6.52.3.61.86.83,1.33,1.17,2.44,2.53,3.16,5.15,2.48,1.28-.33,1.64,0,1.84,1.24.43,2.57,1.39,3.24,3.82,2.68,1-.23,1.58,0,1.75,1,.14.76.68,1.5.25,2.31C184.62,151.37,176.56,151.48,168.51,151.36Z"/><path class="cls-4" d="M124.55,142.17a9.59,9.59,0,0,0,1.19-5.4c.16-7.66.31-15.32.17-23-.1-3.48,0-7-.32-10.44-.27-2.9-.1-5.78-.3-8.65-.35-4.94-.46-9.9-.76-14.84-.2-3.38-.1-6.82-.92-10.17a12.93,12.93,0,0,0-4-6.77l23.45.17c.51,2.39,0,3-2.14,2.42-1.61-.4-2.77.32-3.28,2.36-.37,1.52-.95,1.89-2.5,1.5-2.13-.54-3.3.18-4.36,2.22-.29.58-.42,1.29-1.15,1.56-.78.62-.44,1.5-.44,2.25-.08,11.1-.32,22.21-.17,33.3.18,11.9.12,23.8.1,35.69a10.69,10.69,0,0,0,2,6.22L112,150.45c-.16-.44.1-.77.28-1.12,1.33-2.56,1.32-2.56,3.62-.79,1.55,1.18,2.64,1.14,4.09-.18.3-.27.54-.73.91-.76,2.77-.16,3-2.22,3.21-4.24A1.76,1.76,0,0,1,124.55,142.17Z"/><path class="cls-4" d="M69.17,150.24c1.66-1.85,3.29-3.72,3.81-6.27a32,32,0,0,0,.72-4.14c.33-5.48.7-11,1-16.44.14-2.4.2-4.81.38-7.22.57-7.62.74-15.26,1.08-22.88.15-3.89.38-7.78.26-11.65a55,55,0,0,0-.61-8.6c-.13-.67-.38-1.28-.53-1.93-.15-.22-.47-.39-.46-.64,0-3.15-2.22-4.46-4.47-5.89a3.52,3.52,0,0,0-4.1.18C63.9,66.22,63.44,66,63,63l18.54.13a10.82,10.82,0,0,0-2,6.8c-.08,10.55.09,21.11-.35,31.65-.52,12.15-.28,24.32-.56,36.46,0,.75-.37,1.63.44,2.25.72.31.77,1,1,1.64a3.68,3.68,0,0,0,4.36,2.37c1.57-.37,2.2.15,2.62,1.59.66,2.23,1.19,2.51,3.5,2.21,1.77-.23,2.18.34,1.71,2.37Z"/><path class="cls-5" d="M92.2,150.39c-.15-.71-.3-1.42-.48-2.29-1.39.61-2.71,1.07-4,.18s-1.07-2.52-1.67-3.8c-.94-.12-1.73.59-2.67.5a4.59,4.59,0,0,1-4-3.23c-.15-.51-.27-1-.41-1.54a39.11,39.11,0,0,1,4.79-2.83c1.83,2.51,4.06,4,7.32,3.06.53-.16,1,.27,1.43.63a3.6,3.6,0,0,0,4.79.14,2.12,2.12,0,0,1,2.06-.33c2.13.68,3.06.25,4-1.69,1.09-2.13,1.16-2.14,2.89-.47A11.72,11.72,0,0,0,121.65,142c.63-.36,1.22-.88,2-.63a1.47,1.47,0,0,0,.85.84,10.57,10.57,0,0,1-.5,4,2.05,2.05,0,0,1-2.25,1.84l-.19,0a1.08,1.08,0,0,0-1.11.61,3.21,3.21,0,0,1-4.42,1,3.13,3.13,0,0,1-.73-.63c-.48-.46-1-.91-1.55-1.46-.63,1.09-.92,2.27-1.86,3.06a3.92,3.92,0,0,1-3.15,0c-.58-.33-1.15-.76-1.75,0C104.12,155.69,95.7,156.16,92.2,150.39Z"/><path class="cls-5" d="M129.5,73.18c.18-.51.33-1,.52-1.52,1-2.66,3.09-3.57,5.81-2.64l.84.3c.28-1.46.35-3,1.69-4s2.64-.55,4,.39c.21-1,.41-1.8.6-2.64a8.92,8.92,0,0,1,11.89-2.71,7.39,7.39,0,0,1,3.28,4.31,3.88,3.88,0,0,1,4.18-1.46,4,4,0,0,1,1.79,3.18c1-.29,1.34-1,1.9-1.42a3.35,3.35,0,0,1,4.73,0,3.85,3.85,0,0,1,.27.3c.44.45.77.9,1.5.85,1.35-.09,1.89.89,2.2,1.95a9.47,9.47,0,0,1,.47,3.77,1.4,1.4,0,0,0-.87.86c-.74.31-1.31-.13-1.85-.5C167,68.55,161,70.64,157.58,74.43c-.36.39-.74.76-1.13,1.13-1.12,1-1.83.74-2.41-.64-1-2.39-1.7-2.68-4.18-1.79a1.86,1.86,0,0,1-2-.45,3.46,3.46,0,0,0-4.61-.16,2.42,2.42,0,0,1-2,.6c-2.86-.74-5,.09-6.37,2.78-.08.17-.29.27-.46.38C132.75,75.16,130.93,74.49,129.5,73.18Z"/><path class="cls-5" d="M192.66,151.92a5.55,5.55,0,0,1-.75-3.11c-4,1.69-5.71-.25-5.71-3.75-.11,0-.26-.13-.34-.08-3.46,1.91-6.62-.67-6.84-4l4.88-3.08c.6.38.76,1.1,1.16,1.63a4.27,4.27,0,0,0,4.56,1.88,3.58,3.58,0,0,1,3.19.64,3.16,3.16,0,0,0,4.26-.07,2,2,0,0,1,2.4-.38c2,.9,3,.4,3.91-1.68s.88-2,2.69-.56c2.55,2.89,5.54,4.89,9.54,5.07a11,11,0,0,0,5.95-1.6c.61-.35,1.14-1,2-.66.35.28.48.86,1.06.85v1.55c-.36.61,0,1.33-.26,2-.12.38,0,.84-.29,1.16-1.36,1.83-3.69,2.19-5.45,3.44-1.08.77-2.52,0-3.51-.85s-1.3-.81-2,.32a3.08,3.08,0,0,1-4.21,1.12,3.13,3.13,0,0,1-1.25-1.37,2.41,2.41,0,0,1-1.14,1.82h0a.62.62,0,0,0-.3.32C203.12,156.29,195.7,156.28,192.66,151.92Z"/><path class="cls-5" d="M63,63a5.91,5.91,0,0,1,1.29,2.76,25.86,25.86,0,0,1,2.52-1.89c1.75-.83,3.06-.66,4.31.75.41.46.71.88,1.44.86,1.18,0,1.76.71,2.11,1.75a26.13,26.13,0,0,1,.68,3.92c-.6,0-.73.6-1.12.85-.73.25-1.3-.17-1.88-.48-5.85-3.16-11.44-2-15.71,3.29-1.1,1-1.84,1-2.5-.57-.86-2.13-1.87-2.54-4.1-2a2.32,2.32,0,0,1-2.07-.37,3.92,3.92,0,0,0-4.85,0,2.47,2.47,0,0,1-2,.55c-2.8-.63-4.86.28-6.09,3a.87.87,0,0,1-.47.35l-4.83-2.94c.62-3.25,1.71-4.4,4.6-4.82a2.08,2.08,0,0,1,2.62.53,2.5,2.5,0,0,1,.72-3.18,3.67,3.67,0,0,1,4.75-.46c.92-4.32,3.9-6.16,7.85-6.24,3.71-.09,6.63,1.56,8,5.38A3.64,3.64,0,0,1,63,63Z"/><path class="cls-6" d="M218.46,63.15a17,17,0,0,0-4.67,5.74,3,3,0,0,0-.29,1.75c.13,4.51-.67,8.94-1.22,13.38a131.91,131.91,0,0,1-7.5,29.54c-.65,1.77-1.36,3.51-2.1,5.24a1.67,1.67,0,0,0-.07,1.7c-.22.48-.43,1-1.15.81a2.43,2.43,0,0,1-.07-2.47,182.78,182.78,0,0,0,5.13-17.76,145.94,145.94,0,0,0,3.32-17.7c.3-2.59.89-5.15,1.13-7.72a20.11,20.11,0,0,0-.62-8.13,5.94,5.94,0,0,0-4-4.16c-.66-.2-1.76-.27-1.51-1.25s1.39-.63,2.07-.49a6.79,6.79,0,0,1,5,3.42A7.89,7.89,0,0,0,213,67c1.49-1.46,2.51-3.33,4.26-4.52A1.48,1.48,0,0,1,218.46,63.15Z"/><path class="cls-6" d="M152.41,94.19c1.72,4.59,3.52,9.15,4.9,13.85a145.29,145.29,0,0,1,4.16,18.2c.62,3.76.88,7.56,1.43,11.33a18.48,18.48,0,0,1,0,4.64c-.33,3,1.13,5.29,2.95,7.44.6.71,1.24,1.41,1.86,2.1a2.12,2.12,0,0,1-1.24.75,53.8,53.8,0,0,1-3.74-4.64c-.81,0-.85.69-1.08,1.13a7.27,7.27,0,0,1-6,4.1c-.56.06-1,0-1.13-.52a.91.91,0,0,1,.52-1.18l.21,0c4-1.05,5.09-4.12,5.3-7.78.26-4.38-.56-8.65-1-13A181.58,181.58,0,0,0,154.64,106c-1-3.7-2.12-7.34-3.2-11-.19-.62-.69-1.31.46-1.53C152.61,93.38,152.6,93.71,152.41,94.19Z"/><path class="cls-6" d="M52.6,93.46c.23,2,1.31,3.79,2,5.68A148.36,148.36,0,0,1,60.51,120c.72,3.74,1.44,7.49,1.79,11.27.37,4,1.38,8.08.6,12.18a2.46,2.46,0,0,0,.44,1.51c1,2.3,2.72,4.12,4.2,6.1a2.57,2.57,0,0,1-1.21.78,1.14,1.14,0,0,0-.07-.41c-1.07-1.59-2.67-2.71-3.72-4.58-.75,1.19-1.29,2.11-1.9,3-1.3,1.88-3.38,2.25-5.42,2.66a.81.81,0,0,1-.91-.63.76.76,0,0,1,.42-1l.07,0c.36-.16.75-.27,1.13-.4a5.77,5.77,0,0,0,3.92-4,19.63,19.63,0,0,0,.67-7.85c-.29-2.59-.59-5.17-.88-7.75-.45-4-1-7.94-1.79-11.88a205.25,205.25,0,0,0-6.19-24c-.25-.75-.62-1.53.23-2.18C52.42,92.71,52.65,93,52.6,93.46Z"/><path class="cls-6" d="M118.64,62.49c-1.9.6-2.57,2.44-3.71,3.79a7.66,7.66,0,0,0-1.64,5.62c.24,4.45-.64,8.8-1.24,13.18a126.84,126.84,0,0,1-3.33,15.9,140.67,140.67,0,0,1-6.06,17.26c-.2.49-.52,1-.18,1.51-.1.4-.33.6-.76.45-.61,0-.81-.3-.59-.93.45-1.33.81-2.7,1.26-4a196.35,196.35,0,0,0,6.26-24.47c.82-4.18,1.33-8.44,1.9-12.68a75,75,0,0,0,.39-8.21,8.9,8.9,0,0,0-1.12-4.43,6,6,0,0,0-3.13-2.71c-.44-.16-.88-.34-1.3-.54a.78.78,0,0,1-.37-.87c.09-.38.41-.45.77-.5,1.91-.27,4.91,1.39,6,3.37.35.65.63,1.33,1,2.09,1-.44,1.3-1.62,2.1-2.29a10.86,10.86,0,0,0,2.22-2.32A2.69,2.69,0,0,1,118.64,62.49Z"/><path class="cls-7" d="M206.5,152.06c.29-.66.57-1.34.94-2.18,1,1.14,2.06,2,3.73,1.52s2.06-1.7,2.34-3.29c1.09.88,1.82,1.89,3,2.34a2.82,2.82,0,0,0,3.73-1,1.72,1.72,0,0,1,1.78-.84c.92.12,1.49-.67,1.89-1.54s.19-1.87.76-2.66c0,2.35,0,4.69-.05,7,0,1.41-.25,1.6-1.51,1.28a10.14,10.14,0,0,0-2.39-.22l-8.25-.06A25.24,25.24,0,0,1,206.5,152.06Z"/><path class="cls-8" d="M28.87,141.4a2.68,2.68,0,0,1,.31,2.1,8,8,0,0,0,2.46,6.81c-3.29.05-2.83.1-2.83-2.72C28.8,145.55,28.85,143.48,28.87,141.4Z"/><path class="cls-9" d="M37.62,65.21A8.39,8.39,0,0,0,37,68.6a13.59,13.59,0,0,0-2.73-.73A8.63,8.63,0,0,1,37.62,65.21Z"/><path class="cls-10" d="M107,150.47c.12-.42-.06-.92.36-1.3a3.62,3.62,0,0,1,1.38,1.31Z"/><path class="cls-7" d="M206.17,152.4l.3-.32Z"/><path class="cls-11" d="M197,175.42a56.12,56.12,0,0,1,6.68-1.25,33.32,33.32,0,0,1,11.87,1.38c3.14.75,5.91,2,7.24,5.24a14.19,14.19,0,0,1,2,4.47,10.64,10.64,0,0,1-1.27,8.11c-.46.86-.94,1.69,0,2.57,3.78,3.74,4.34,8.46,4.14,13.44-.46,10.79-8.33,21.63-18.43,25.41a16.67,16.67,0,0,1-7.14.94c-.82,0-1.65-.12-1.93-1.11.71-1.38,2-2.27,3-3.34a13.67,13.67,0,0,0,3.36-5.75c.15-.49.25-1.06.85-1.27.48.11.54.54.72.93.13-.86-.72-1.24-.87-1.94s.22-1.26.18-1.87c-.31,3.67-2.37,6.38-5.12,8.6a29.39,29.39,0,0,1-33.74,2.61,14.56,14.56,0,0,1-6.26-6.87,3.92,3.92,0,0,1-.21-1.52c.09-.79-.39.27-.44-.11-.66-.48-.58-1.17-.46-1.83a19,19,0,0,1,1.17-5,2.46,2.46,0,0,0-.75-3.18,26,26,0,0,0-8.58-5.41c-.74-.29-1.57-.43-2-1.19a2.07,2.07,0,0,1,1.25-2.31,2.65,2.65,0,0,1,1.79.28,44,44,0,0,0,10.42,7.82,1.52,1.52,0,0,1,.27.48,1.14,1.14,0,0,1,.14-.54A13.84,13.84,0,0,1,167,211c1-.88,1-1.4-.35-1.95A30,30,0,0,1,156,201.85c-1.12-1.21-1.66-2.33-1.09-4,.87-2.48.9-5.14,1.43-7.7.62-.57,1.06,0,1.57.21s.82.44,1.24.64c.89.56,2,.68,2.81,1.47a.93.93,0,0,0,.88.26,3.09,3.09,0,0,1,2.28,1.36c.13.88-.75,1.3-1.08,2.13,1.3-.37,2.21-1.22,3.38-1.45a1.9,1.9,0,0,1,1.08.35c1.54.86,1.35,1.95.34,3.26,1.1-1.12,2.15-1.65,3.63-.83,1.68.92,3.52,1.6,3,4.29,1.32-2.17,3-2.32,5.22-.72,1,.75,1.61,2,2.92,2.4.13-.15.72.13.44-.16a11.77,11.77,0,0,1-2.54-3.2,5.92,5.92,0,0,0-.89-1.38,3.32,3.32,0,0,1-.44-1.72v-.62c0-.93,0-1.86.08-2.78a2.44,2.44,0,0,1,.11-.61,16.12,16.12,0,0,1,1.72-5.32c.7-1.3.39-2.18-.7-3.14a29.87,29.87,0,0,0-10.65-6.26,2.6,2.6,0,0,1-1.79-1.19c-.11-1.5,1-1.59,2-1.75,4.73.12,8.07,3,11.38,5.83,2.42,2.08,2.31,2.16,4.57,0C189.8,178.47,193,176.22,197,175.42Z"/><path class="cls-11" d="M120.73,212c-4.8-3.73-5.81-8.8-4.89-14.44a27.91,27.91,0,0,1,6.82-14.13,4.76,4.76,0,0,0,.32-.51c2.15-3.29,5.41-5.1,8.86-6.61a17.43,17.43,0,0,1,4.41-1.34,59.59,59.59,0,0,1,9.06-.09,9.66,9.66,0,0,1,6.57,3.13c3.75,4.88,3.66,10.3,1.77,15.7-3.59,10.21-10.59,17-21.15,19.71C128.54,214.43,124.39,214.66,120.73,212Z"/><path class="cls-11" d="M121.5,219.29a19,19,0,0,1,1.41-5.24c1.19-.57,2,.43,3,.72a23.85,23.85,0,0,1,2.87,1,8.19,8.19,0,0,1,1.07.53,1.57,1.57,0,0,1,.89,1.14c0,2.25-2.1,2.3-3.61,3.18,1.87.09,3.59-.82,5.31,0,1.32.63,2.44,1.32,1.7,3.28,1.12-1.64,2.5-1.82,4.23-1.5s3.26.5,3.17,2.88c0-1.75.85-2.44,2.46-2.2a1.77,1.77,0,0,1,1,.52,4,4,0,0,1,.35.46,25.81,25.81,0,0,0,1.19,2.42c.46-.37.26-.8.37-1.17.51-1.89,1.71-1,2.78-.69.13.51.42.57.83.29a14.12,14.12,0,0,1,3.4.61,2.47,2.47,0,0,1,.57.17c2.51.67,4.9-.22,7.33-.57.44.21.51.68.72,1,1.41,3.46,1.14,3.95-2,6a26.81,26.81,0,0,1-14.9,4.32c-8.12-.06-15.47-2.51-21.12-8.74A10.29,10.29,0,0,1,121.5,219.29Z"/><path class="cls-12" d="M121.5,219.29c.16,4.62,2.65,8,6.08,10.66a27.9,27.9,0,0,0,14.8,5.74,30.29,30.29,0,0,0,14.15-2.07,21.79,21.79,0,0,0,5.39-3.11c1.55-1.19,1.33-1.28.79-2.69a4.3,4.3,0,0,1-.43-1.75c-.21-.43-.32-.8.38-.76a13.35,13.35,0,0,0,5.7,6.57A28,28,0,0,0,180,236a29.33,29.33,0,0,0,15.49-2.34,23.66,23.66,0,0,0,8.62-6.14,12.24,12.24,0,0,0,3.16-7.12c.52.55.25,1.13.3,1.64a14.44,14.44,0,0,1,0,1.61c.13.31.17.58-.15.79-.44,1.54-1.33,2.91-1.57,4.52a.94.94,0,0,1-.31.71c-1.87,1.06-2.72,3.14-4.4,4.38a9.09,9.09,0,0,1-.87.47c-.38.26-.34.76-.64,1.08-.31.61-1,.56-1.5.89-1.8,1-3.61,2.05-5.5,3a25.22,25.22,0,0,1-10.12,2.18,21.23,21.23,0,0,1-12-3.57c-.5-.33-1-.64-1.53-1a11.39,11.39,0,0,1-3.57-3.2c-1.48-1.69-1.43-1.7-3.15-.11a13.54,13.54,0,0,1-5,3.26,35,35,0,0,1-10.59,3.66c-5.69.82-11.09.14-16-3-.28-.18-.6-.32-.89-.47a15.43,15.43,0,0,1-7.52-9.38c-.36-1.76-.73-3.53-1-5.3A4.56,4.56,0,0,1,121.5,219.29Z"/><path class="cls-12" d="M128.85,216.13c-2.12-.28-4-1.39-6-2-.57-.86-1.74-1-2.18-2a37.56,37.56,0,0,0,5,1.36,20.58,20.58,0,0,0,9.64-1.33,28.9,28.9,0,0,0,17.91-18.87,18.58,18.58,0,0,0,.89-8.72,19.69,19.69,0,0,0-2.51-6.07.64.64,0,0,1,.55-.14c1,.46,1.41,1.42,2.07,2.17a16,16,0,0,1,2.7,7.83,2.11,2.11,0,0,1-.43,1.87,29.83,29.83,0,0,1-1.41,8.7,1.93,1.93,0,0,0,.53,2.14,29.46,29.46,0,0,0,11.74,7.93c.44.16.86.35,1.41.57-.34,1.06-1.3,1.52-1.94,2.22s-1.35,1.3-2,2a.44.44,0,0,1-.54,0,36.58,36.58,0,0,1-7.41-4.77c-1.07-.94-2-2-3-3-.51-.23-.86-1-1.6-.45a5.94,5.94,0,0,0-1.29,2c-.42,1.33-1.48,2.21-2.32,3.26l-.38.37c-.77.78-1.72,1.33-2.53,2.06a24.74,24.74,0,0,1-5.83,3.05,17.19,17.19,0,0,1-9.63.67A8.56,8.56,0,0,0,128.85,216.13Z"/><path class="cls-12" d="M199.39,235.23a1.12,1.12,0,0,1,.93-.8c.2.77.84.74,1.45.79a16.74,16.74,0,0,0,9.68-2,28.7,28.7,0,0,0,14.89-19.48,23.13,23.13,0,0,0-.13-12.3,11.49,11.49,0,0,0-3.42-5.36c-.65-.59-1-1-.33-2a14.49,14.49,0,0,0,2.3-8.8,6.28,6.28,0,0,1,.81,3.25,21.68,21.68,0,0,1-.67,7.17,1.58,1.58,0,0,0,.46,1.79c2.83,2.93,3.95,6.59,4.56,10.52a28.14,28.14,0,0,1-3.13,17.88,21.1,21.1,0,0,1-24.6,10.53C201.26,236,200.07,236.23,199.39,235.23Z"/><path class="cls-4" d="M197,175.42a36.73,36.73,0,0,0-7.82,4.41,50,50,0,0,0-4.44,4.41,62.84,62.84,0,0,0-4.75-4.38c-2.68-1.94-5.42-3.68-8.74-4.27-.16-.05-.23-.11-.21-.21s.06-.16.1-.16Z"/><path class="cls-7" d="M136,175.34c-1.38.49-2.79,1-4.13,1.49a23.94,23.94,0,0,0-7.5,4.95,4.61,4.61,0,0,1-1.36,1.16l0-6.18c0-.64-.21-1.35.41-1.87,4-.39,8.07,0,12.1-.07C135.9,174.78,136,175,136,175.34Z"/><path class="cls-13" d="M136,175.34c-.53-.6-1.25-.38-1.89-.39l-10.62-.08c.41-.49,1-.37,1.5-.37l34.46.25v.19c-2.47,1.09-4.9,2.27-7.35,3.39h-.42c-4.15-3.8-9.18-3.7-14.3-3.18C136.92,175.19,136.47,175.28,136,175.34Z"/><path class="cls-7" d="M157.37,236.91c2-1.58,4.27-3,6-5,.5-.58,1-.66,1.41,0,1.19,1.87,3,3.25,4.32,4.95Z"/><path class="cls-14" d="M122.36,227.72a27.15,27.15,0,0,0,5.6,7.66c.66.56,1.29,1.15,1.92,1.72l-5.8,0c-1.93,0-1.84,0-1.83-1.76C122.26,232.79,122.32,230.26,122.36,227.72Z"/><path class="cls-11" d="M152.1,178.3c2-2,4.68-2.85,7.36-3.58,3.92-.75,7.8-.25,11.66.47a2.59,2.59,0,0,0,.11.37c-.94.24-2,.35-2.11,1.62a.68.68,0,0,1-.48.17c-.43,0-.86-.13-1.3-.16a3.62,3.62,0,0,1-.81-.15c-.72-.24-1.48-.14-2.21-.32a1.29,1.29,0,0,1-.5-.27c-.61-1.81-1.24-.7-1.87,0a1.8,1.8,0,0,1-.5.25c-.71.16-1.46.06-2.16.26a6,6,0,0,1-.74.14,5.36,5.36,0,0,0-.89.16l-.39.15-.56.24a1.58,1.58,0,0,1-.35.16l-.51.26-.34.16-.31.18s-.15.11-.14.12l-.27.25-.14.13-.27.29-.12.19c0,.14-.11.26-.16.4a.8.8,0,0,1-.36.5Z"/><path class="cls-15" d="M222.78,180.81a16.85,16.85,0,0,0-7.24-5.24l5.17,0c1.93,0,2.06.17,2.08,2C222.8,178.67,222.79,179.73,222.78,180.81Z"/><path class="cls-16" d="M199.39,235.23a9.62,9.62,0,0,1,2.81,1.17l-4,0C198.48,235.9,199.18,235.81,199.39,235.23Z"/><path class="cls-17" d="M95.08,187.62a36.71,36.71,0,0,1,2.3,15.53,55.63,55.63,0,0,1-2.87,14.28,1.89,1.89,0,0,1-1.56,0c-2.7-.72-4.73.3-6.32,2.43a32,32,0,0,0-2.28,3.81c-1.86,3.36-1.21,5,2.38,6.15a1.28,1.28,0,0,1-.39,1.76h0c-2,1.71-3.78,3.68-6.44,4.36a39,39,0,0,1-7.52,2.4c-3.54.66-7.1.34-10.65.26.75-2.11.15-4.13-.39-6.17a4.11,4.11,0,0,1,1.52-.49c2.51-.67,3.81-2,4-4a5.42,5.42,0,0,0-3.14-5.31,10.19,10.19,0,0,0-5.89-.78,27.14,27.14,0,0,0-6,1.57,6.65,6.65,0,0,0-2.36,1.5,3.32,3.32,0,0,0-.43,4.67,3,3,0,0,0,.44.43c.47.47,1.08.82,1.22,1.54a12.3,12.3,0,0,1-2,4.07,2.91,2.91,0,0,0-1.5-.38,30.25,30.25,0,0,1-16.78-12.35,9.33,9.33,0,0,1-1.29-3.11,31.06,31.06,0,0,1-2.68-15.7.81.81,0,0,1,.69-.33c3.3-.18,4.61-1.2,5.64-4.37,1.13-3.48.42-5.11-3-6.89-.42-.63,0-1.16.26-1.66a38,38,0,0,1,17.32-15.54c.61-.28,1.31-.24,1.9-.58a3.65,3.65,0,0,0,1.35-.31,37.57,37.57,0,0,1,11-2.77c7.07-.7,14-.08,20.55,3,.3.13.63.23.94.34a19,19,0,0,1,11.66,11.75v.39A3.1,3.1,0,0,1,95.08,187.62Z"/><path class="cls-4" d="M49.21,174.75c-1.93,1.35-4.18,2.1-6.16,3.38a38.69,38.69,0,0,0-11.91,11.78c-.5.8-.95,1.62-1.43,2.43-.28.55-.63.85-1.24.41-.29-5.35-.41-10.71-.28-16.08v-1.21c-.06-1,.39-1.31,1.33-1.28l5,0C39.43,174.48,44.31,174.81,49.21,174.75Z"/><path class="cls-18" d="M86.74,230a6.16,6.16,0,0,1-2.37-.32,3.39,3.39,0,0,1-1.51-3.83,19.21,19.21,0,0,1,4.54-7.69,5.24,5.24,0,0,1,5.75-1.2c.45.15.87.32,1.31.47,1.41,1.62,1.33,3.38.5,5.22a7.63,7.63,0,0,0-.91,2,13.55,13.55,0,0,1-5,5A2.05,2.05,0,0,1,86.74,230Z"/><path class="cls-18" d="M61.28,232.64c2,2.46,2,3.34.47,6a10.25,10.25,0,0,1-3.09,1.78,5.45,5.45,0,0,1-2.75.17,32.48,32.48,0,0,1-5-1.79,3.59,3.59,0,0,1-2.21-3.1,6.6,6.6,0,0,1,1.69-3.95C53.22,229,59.07,229.5,61.28,232.64Z"/><path class="cls-4" d="M86.74,230a9.22,9.22,0,0,0,4.58-2.7c.9-.89,1.82-1.77,2.73-2.65,0,1.81.07,3.63,0,5.44-.09,1.44.46,2.77.39,4.2-.09,1.71,0,1.75-1.67,1.74l-12.9-.09c1.86-1.3,3.71-2.59,5.46-4A5.67,5.67,0,0,0,86.74,230Z"/><path class="cls-4" d="M29.09,219.82c3.6,7,9.39,11.57,16.5,14.62a3.8,3.8,0,0,1,1.57.84c-2.88-.08-5.75.16-8.63-.39-4.25-.83-8.67-5.44-9.12-9.87A37.72,37.72,0,0,1,29.09,219.82Z"/><path class="cls-18" d="M28.47,192.75a2.72,2.72,0,0,0,1.24-.41c3.63.28,4.32,2.88,3.9,5.92a8.43,8.43,0,0,1-1.36,3.52,5,5,0,0,1-5.84,2.34,7.63,7.63,0,0,1,1.28-10.72Z"/><path class="cls-4" d="M94.74,186.77a1.68,1.68,0,0,1-.4-.44,23.57,23.57,0,0,0-10.92-11.08,1.54,1.54,0,0,1-.29-.28l10.87.08c1.57,0,1.94.32,1.59,1.73a20.79,20.79,0,0,0-.36,5.4C95.22,183.75,94.58,185.22,94.74,186.77Z"/><path class="cls-4" d="M95.08,187.62l-.31-.46Z"/><path class="cls-19" d="M46.89,100.36a1.36,1.36,0,0,1,1.26,1.09,78.8,78.8,0,0,1,3.51,14.12,63.74,63.74,0,0,1,.76,7.92.93.93,0,0,1-.19.93,3.25,3.25,0,0,0-.27,3.9c.19,4.29-.66,8.19-3.93,11.33-2.55,2.46-6,2.61-9.06.1a10.3,10.3,0,0,1-3.11-5.1,51.1,51.1,0,0,1-1.62-10.06,1.74,1.74,0,0,1,.31-.5c2-2.08,2-2.45.16-4.59a2,2,0,0,1-.43-.64c-1.3-1.1-1.08-2.72-1.14-4.09-.21-4.34-.73-8.66-.91-13-.08-2.4-.12-4.82-.28-7.23a34.76,34.76,0,0,1-.33-5.2c.15-1.68.34-3.34,1.66-4.61a3.68,3.68,0,0,1,4.19-1,7.38,7.38,0,0,1,4,3.16,40.77,40.77,0,0,1,3.42,7c.17.6-.33,1-.49,1.47C43.78,97.43,44.55,99,46.89,100.36Z"/><path class="cls-20" d="M34.46,75.63c.82-3.11,3-4.6,6.18-3.85A2.34,2.34,0,0,0,43,71.29a4,4,0,0,1,5.17.1,1.37,1.37,0,0,0,1.88.24c1.59-.88,3.22-.2,4.22,1.51A3.25,3.25,0,0,1,54.79,75c.7.29,1-.27,1.5-.45,1.69-.9,2.84-.15,3.8,1.21a5.54,5.54,0,0,1,.44,1.32,2.14,2.14,0,0,1,.06.5.64.64,0,0,1-.08.36.4.4,0,0,0,.12-.33,1.46,1.46,0,0,1,.74-.89l.39-.28.2-.15.41-.26a3.8,3.8,0,0,1,.47-.18,9.74,9.74,0,0,1,1-.31,2.38,2.38,0,0,1,1.35,0,3.56,3.56,0,0,1,.76.37,2,2,0,0,1,.86,1.13,5.18,5.18,0,0,1,0,2,2.72,2.72,0,0,1-.15.54,8.72,8.72,0,0,1-.58,1.19c-1.68,1.72-3.82,2.85-5.7,4.38a60.73,60.73,0,0,0-4.93,4.42c-1-.24-.86-1.12-.84-1.78.19-6.16-5.51-12-14.13-10-.77.17-1.49.66-2.34.4A30,30,0,0,1,34.46,75.63Z"/><path class="cls-21" d="M38.1,78.17c6.56-3.26,14.48-.67,16.73,6.68a11,11,0,0,1,.29,2.56c.05.72-.25,1.49.29,2.13L52.6,93.46a1.46,1.46,0,0,0-.71-.72,16.14,16.14,0,0,0-2.57-3.52,14.42,14.42,0,0,1-1.56-2c-.16-.38.06-.53.37-.62,1.32.39,1.92,1.83,3.66,2.32a9.23,9.23,0,0,0-3.3-6.61A12.47,12.47,0,0,0,41,79.83a3.14,3.14,0,0,0-.81,0A4.88,4.88,0,0,1,38.1,78.17Z"/><path class="cls-6" d="M51.16,146.88c-2.16,0-3.17-1.73-2.28-3.76a4.43,4.43,0,0,1,5.44-2.21,2.24,2.24,0,0,1,1.24,2.93l-.09.21C54.44,145.59,53.26,147,51.16,146.88Z"/><path class="cls-22" d="M46.89,100.36a2.28,2.28,0,0,1-2.77-1.67v0c-.51-1.72-1-3.42.83-4.74,1.87.1,3,.84,3.43,2.62S49,98.9,46.89,100.36Z"/><path class="cls-22" d="M34.28,118.84a3.12,3.12,0,0,1,2.28,2.9,2.86,2.86,0,0,1-2.32,2.83,9.05,9.05,0,0,1-1.38-.08,1.62,1.62,0,0,1-1.39-1.25,3.67,3.67,0,0,1,2.78-4.39Z"/><path class="cls-22" d="M52,128.3c-1.33-1.19-1.49-1.91-.64-3.41a11.7,11.7,0,0,1,1.1-1.42c1.86-.5,2.73-.07,3.13,1.6a2.48,2.48,0,0,1-1.66,3.1,2.36,2.36,0,0,1-.53.1A8.19,8.19,0,0,1,52,128.3Z"/><path class="cls-23" d="M40.16,79.82l.47-.48c3.18,1.31,5.17,4,7.43,6.4a.77.77,0,0,1,.15.92l-.45.49Z"/><path class="cls-24" d="M40.19,145.06A1.12,1.12,0,0,1,39.05,144c0-.82.83-1,1.44-1.12a.87.87,0,0,1,1.1.55.85.85,0,0,1,0,.24C41.78,144.24,41,145,40.19,145.06Z"/><path class="cls-25" d="M46.47,147.6a1.5,1.5,0,0,1-1.38,1.21,1,1,0,0,1-1.25-.66.84.84,0,0,1,0-.27c-.09-.65.64-1.18,1.55-1.22C46,146.64,46.26,147.07,46.47,147.6Z"/><path class="cls-19" d="M84.54,88.16A36,36,0,0,1,86.69,77,8.59,8.59,0,0,1,91,72.11a7.13,7.13,0,0,1,8.59,2.26,16.69,16.69,0,0,1,2.83,10.28c-1,1.59-.47,3.18,0,4.78.16,7.94-2,15.41-4.65,22.79a3.2,3.2,0,0,1-.42.68c-3.62.28-3.89,3.3-2.48,6.08-1.27,3-2.55,6-4.81,8.55a5.71,5.71,0,0,1-3.33,1.75c-2.9.53-4.81-1-5.11-4.28a27.46,27.46,0,0,1,.25-8.44,4.44,4.44,0,0,0,.11-1.2c-.23-3.3.37-6.56.56-9.84.17-3.13.66-6.24.83-9.38a2.58,2.58,0,0,1,1.64-2.33C86.49,91.82,86,90,84.54,88.16Z"/><path class="cls-20" d="M105.86,138.78c-.46-.24-.7-.81-1.29-.93-.45.37-.44.93-.61,1.42-.73,2.23-2.69,3.14-4.69,2a1.14,1.14,0,0,0-1.52.13c-2.13,1.62-3.54,1.59-5.6,0a1.65,1.65,0,0,0-1.57-.49c-4.12.86-5.61-.47-6.81-3.52A22.6,22.6,0,0,1,87.11,135c1-.34,1.88-.47,2.42.69-.44.8-1.3.56-2,.81-1.22.46-1.44,1.38-.52,2.3a3.45,3.45,0,0,0,2,.93,1.44,1.44,0,0,0,1.58-.6,1.49,1.49,0,0,0-.19-1.68c-.32-.55-1.38-.79-.79-1.76a3,3,0,0,1,2.16-.09A10.75,10.75,0,0,0,104.3,125.5a2.5,2.5,0,0,1,.57-2.07c3.26,3.43,7.15,6.06,10.82,9.08a4.34,4.34,0,0,1,.55,1.07,2.87,2.87,0,0,1-.62,3.51,3.21,3.21,0,0,1-3.6.29,7.37,7.37,0,0,1-2.28-2c-.07-.22-.32.12-.1,0,.49-.32.42,1.37-.09,2.22A2.81,2.81,0,0,1,105.86,138.78Z"/><path class="cls-21" d="M104.91,123.44a12.2,12.2,0,0,1-2.06,8A11.3,11.3,0,0,1,91.24,136a13.72,13.72,0,0,0-1.8-.18h0a3,3,0,0,0-2.36-.87,8.33,8.33,0,0,1,2.24-1.62c.93-.24,1.9.13,2.83-.24,3.23-.78,6.3-1.84,8.1-4.94a8.83,8.83,0,0,0,1.19-3.91c-1.55.28-2.24,1.77-3.57,2.12-.31-.1-.53-.25-.37-.63.76-1.49,2.2-2.45,3.1-3.85a12,12,0,0,0,1.07-1.66l.76-.45Z"/><path class="cls-6" d="M106.1,70.08a2.37,2.37,0,0,1-2,2.38c-1.76.41-5.09-1-4.83-3.85a2.41,2.41,0,0,1,1.91-2.46C103.1,65.65,106.1,68,106.1,70.08Z"/><path class="cls-22" d="M94.81,119a2.38,2.38,0,0,1-1.39-2.24c.17-1.28.26-2.66,1.27-3.68.82-.83,1.72-.4,2.6-.16,1.53,2,1.44,3.65-.22,5.53C96.42,119.14,95.58,118.89,94.81,119Z"/><path class="cls-22" d="M84.54,88.16l.79.58a2.78,2.78,0,0,1,.86,3.84,3.32,3.32,0,0,1-.37.47,6.56,6.56,0,0,1-.89.77c-2.55-.1-3.85-1.81-3.17-4.28C82.15,88.13,83.37,88.14,84.54,88.16Z"/><path class="cls-22" d="M102.36,89.43a10.18,10.18,0,0,1-.71-1c-.93-1.61-.74-2.57.71-3.8a3.25,3.25,0,0,1,2.43.67,2.56,2.56,0,0,1,.67,3.56l-.1.14C104.64,90,104.23,90.06,102.36,89.43Z"/><path class="cls-23" d="M97.55,125.69l.46.52c.24.89-.48,1.31-1,1.8a33.34,33.34,0,0,1-5.68,5.06,1.12,1.12,0,0,1,1,.36c-1,.78-2,.39-2.93-.09Z"/><path class="cls-26" d="M95.27,64a1.46,1.46,0,0,1,1.57,1.33v0c0,.65-.28,1-1,1s-1.36-.2-1.44-1a1.08,1.08,0,0,1,.78-1.32Z"/><path class="cls-27" d="M92,69.16c0,.77-.54.87-1.12.83s-1.23-.28-1.22-1,.58-1,1.26-1A1.07,1.07,0,0,1,92,69,.66.66,0,0,1,92,69.16Z"/><path class="cls-19" d="M147,101.07c.56,0,.73.43.92.9a56.7,56.7,0,0,1,2.93,10.13,45.44,45.44,0,0,1,1.22,12.46c-.53,1.49-1,3,0,4.5a17.53,17.53,0,0,1-2.27,9.23,7.49,7.49,0,0,1-6,4,6.51,6.51,0,0,1-5.91-2.79c-2.1-2.69-2.75-5.93-3.16-9.2a17.87,17.87,0,0,1-.41-5c2.11-1.89,1.6-3.78,0-5.69a3.55,3.55,0,0,1-1.25-2.8,60.7,60.7,0,0,0-.65-7,1.34,1.34,0,0,1,0-.4c.25-2.89-.28-5.75-.43-8.61-.19-3.75-.29-7.49-.26-11.23a12.41,12.41,0,0,1,.29-2.18c.6-3.18,4.57-4.21,7.2-2.08a10.81,10.81,0,0,1,3.25,4c.76,1.78,1.69,3.5,2.55,5.25-.13.92-1,1.51-1,2.54A3.75,3.75,0,0,0,147,101.07Z"/><path class="cls-20" d="M134.31,76.31c1.27-3.5,3-4.49,6.65-3.65a2,2,0,0,0,1.82-.43c2.07-1.57,3.55-1.49,5.56.23.42.35.64.68,1.32.23a3,3,0,0,1,4.21.52,2.83,2.83,0,0,1,.55,1.16.64.64,0,0,0,.09.39c.38,1.24.38,1.24,1.66.55a2.37,2.37,0,0,1,3.13.33c.79.79,1.56,1.64,1,2.91a6.35,6.35,0,0,1,2.27-1.91,3,3,0,0,1,3.73.4c1.11,1,1,2.26.41,3.52a5.76,5.76,0,0,1-.46.89c-2.31,1.78-4.6,3.6-7,5.32-1.45,1.07-2.6,2.46-4,3.58-.57-.51-.48-1.21-.54-1.86-.48-6.33-4.64-10.23-10.92-10.29A11.84,11.84,0,0,1,141,78a1,1,0,0,1-.67-.58,2.24,2.24,0,0,1,.72-1.36,1.41,1.41,0,0,0,.13-1.83,1.59,1.59,0,0,0-1.83-.36,3.74,3.74,0,0,0-2.72,3.1c-.2.25-.42.42-.75.26A4.26,4.26,0,0,1,134.31,76.31Z"/><path class="cls-21" d="M140.79,77.65c1.27,0,2.55,0,3.82,0,4.65-.3,9,3.76,10.24,8.14a17.27,17.27,0,0,1,.37,4.59c-1,1.26-1.56,2.81-2.85,3.84a.73.73,0,0,0-.44-.72c-.67-1.52-2.14-2.47-2.83-4-.14-.37.06-.54.35-.67.84-.14,1.27.65,2,.86.39-2.71-1.25-5.7-4.05-7.34a13.72,13.72,0,0,0-6.31-1.76,2.21,2.21,0,0,1-1.11-.14,8.24,8.24,0,0,1-2-1.59C138.53,77.56,139.74,77.85,140.79,77.65Z"/><path class="cls-6" d="M148.74,145c-.19-1.55.89-2.41,2.07-3.07a4,4,0,0,1,3.86,0,2.14,2.14,0,0,1,.75,2.83,5,5,0,0,1-4.31,2.83C149.36,147.56,148.72,146.88,148.74,145Z"/><path class="cls-22" d="M147,101.07c-2.26,0-2.73-.46-3.21-2.65-.35-1.59-.3-2.91,1.27-3.8,2.15-.19,2.79,1.45,3.43,3C149.05,98.92,148.6,99.81,147,101.07Z"/><path class="cls-28" d="M134.42,119.58a12.82,12.82,0,0,1,1.2,1,2.67,2.67,0,0,1,.1,3.77,3,3,0,0,1-.47.4,6.9,6.9,0,0,1-.89.48c-2.34,0-2.7-.27-2.82-1.6C131.31,121.15,132.12,120,134.42,119.58Z"/><path class="cls-22" d="M152.09,129.06c-1.69-1.48-1.68-2.29,0-4.5.73-.39,1.48-1.26,2.32-.51a3,3,0,0,1,1.21,2.81,2.87,2.87,0,0,1-2.18,2.13A5.81,5.81,0,0,1,152.09,129.06Z"/><path class="cls-29" d="M149.58,89l-.48.49c-3-3-5.95-6.19-9.17-9.07l.83-.4A15.64,15.64,0,0,1,146,84.31c.82,1,1.76,1.87,2.6,2.82C149.07,87.69,149.81,88.1,149.58,89Z"/><path class="cls-30" d="M146.3,148.37a1.14,1.14,0,0,1-1.07,1.19H145a1.06,1.06,0,0,1-1.11-1,.24.24,0,0,1,0-.12,1.16,1.16,0,0,1,1.28-1.06h.1C145.84,147.43,146.31,147.68,146.3,148.37Z"/><path class="cls-31" d="M141.45,144.51c0,.66-.81,1.39-1.35,1.24s-1-.38-1-1.06c0-.87.73-1.08,1.39-1.14a.88.88,0,0,1,1,.79A.48.48,0,0,1,141.45,144.51Z"/><path class="cls-32" d="M140.79,77.65c-.84.68-2,.64-2.87,1.22a6.38,6.38,0,0,1-2.11-1.61l.53-.47c1.35.09,2.68.29,4,.45Z"/><path class="cls-19" d="M184.3,88.85c.59-3.14.81-6.35,1.7-9.44,1-3.66,3.05-6.36,7.05-7.15a6,6,0,0,1,5.14,1.59,10.24,10.24,0,0,1,3.22,5,34.44,34.44,0,0,1,1.07,6.46c-1.58,1.61-.43,3.24,0,4.85a64.35,64.35,0,0,1-2.62,16.19,70.55,70.55,0,0,1-2.37,7.25c-3.49.69-4.12,2-2.88,6a18.62,18.62,0,0,1-5.63,9.3,4.6,4.6,0,0,1-2.35,1.09,4,4,0,0,1-4.73-2.81c-.43-1.65-1-3.32-.38-5.11a6.78,6.78,0,0,0,.16-2.2c0-4.42.44-8.8.82-13.2a60.73,60.73,0,0,0,.53-6.6c0-1.49.6-2.88.48-4.38-.07-1.09,1.25-.57,1.59-1.23-.07-.13-.13-.29-.06-.38C186.75,92.11,185.93,90.42,184.3,88.85Z"/><path class="cls-20" d="M205.74,139.49l-1.39-1c-.19.62-.34,1.17-.53,1.69-.87,2.33-2.6,3-4.68,1.75-.58-.35-.92-.38-1.37.09a3.69,3.69,0,0,1-5.2.51,3.19,3.19,0,0,1-.46-.44c-.81-.76-1.45-.37-2.18-.23a4.81,4.81,0,0,1-5.9-3.39,5,5,0,0,1-.13-.65l3.68-2.46a1.9,1.9,0,0,1,1.74.82.61.61,0,0,1-.22.5,1.3,1.3,0,0,1-.53.25c-.77.18-1.69.13-1.94,1.12a1.72,1.72,0,0,0,.91,1.85,2.6,2.6,0,0,0,2.65.38c1-.46.81-1.22.3-2-.39-.6-1.25-.81-1.37-1.64a1.41,1.41,0,0,1,.45-.39,2.21,2.21,0,0,1,1.17,0,5.13,5.13,0,0,0,1.16.2,11.07,11.07,0,0,0,12.41-9.55,11.41,11.41,0,0,0,.09-1.85c0-.38,0-.83.55-.85,2.81,3.11,6.22,5.51,9.55,8,.36.28.7.61,1.05.92a5.77,5.77,0,0,0,.4.68,2.91,2.91,0,0,1-.12,3.72,2.73,2.73,0,0,1-3.68.47c-1.38-.85-2.15-.88-3.1.61a2.26,2.26,0,0,1-3,1.06A3.14,3.14,0,0,1,205.74,139.49Z"/><path class="cls-21" d="M189.21,136.2a2.89,2.89,0,0,1-1.63-.82,9.8,9.8,0,0,1,2.06-1.63c.84-.07,1.66.56,2.5,0,2.11-.6,4.26-1,6-2.56a8.22,8.22,0,0,0,3.17-6.48c-.6-.11-1,.55-1.64.35-.42-.22-.63-.5-.27-1l2-2.84,1.15-.81a22.54,22.54,0,0,0,2.34,3.69,24.2,24.2,0,0,1-.31,3.89A11.48,11.48,0,0,1,194,137h-2.42c-.23-.23-.57-.15-.8-.34l-1.21-.09A1.16,1.16,0,0,1,189.21,136.2Z"/><path class="cls-28" d="M203.27,73.25a4.67,4.67,0,0,1-4-2.73,2.62,2.62,0,0,1,.31-2.88,3.13,3.13,0,0,1,3-.71,6.24,6.24,0,0,1,2.64,1.8c.71.85,1.3,1.7.82,2.91S204.29,73,203.27,73.25Z"/><path class="cls-22" d="M194.57,119.61a4.25,4.25,0,0,1-.06-5.7c.9-.92,1.9-.7,2.94-.31,1.38,2,1.21,3.71-.51,5.46A2.14,2.14,0,0,1,194.57,119.61Z"/><path class="cls-22" d="M184.3,88.85a8.43,8.43,0,0,1,1.06.59,2.54,2.54,0,0,1,1,3.45,2.46,2.46,0,0,1-.41.55c-.28.37-.6.72-.9,1.08-2,0-2.67-.38-3.24-1.9C180.93,90.2,181.7,89,184.3,88.85Z"/><path class="cls-22" d="M202.44,90.19c-.21-.26-.41-.51-.6-.78-1.39-1.87-1.28-2.6.63-4.07a3.44,3.44,0,0,1,1.89.57,2.45,2.45,0,0,1,1.24,3.25c0,.1-.1.21-.16.31C204.84,90.76,204.36,90.88,202.44,90.19Z"/><path class="cls-29" d="M199.4,124.15a.77.77,0,0,0,.4.78c.22.64-.2,1-.58,1.38-2.33,2-3.95,4.72-6.5,6.5-.4.28-1.26.51-.67,1.36-1,.81-1.71.34-2.41-.42,2.3-2.19,4.61-4.38,6.88-6.59C197.52,126.2,198.45,125.16,199.4,124.15Z"/><path class="cls-33" d="M195.8,67.13c-.69-.14-1.4-.22-1.57-1-.13-.58.79-1.45,1.41-1.35a1.42,1.42,0,0,1,1.27,1.3C197,66.82,196.41,67.05,195.8,67.13Z"/><path class="cls-33" d="M192.06,69.84a1,1,0,0,1-1.09.9.74.74,0,0,1-.25,0c-.7-.12-1.35-.49-1.25-1.27s.84-.74,1.45-.7a1.07,1.07,0,0,1,1.14,1Z"/><path class="cls-19" d="M167.36,87.94c-.19,0-.54-.16-.47-.23.87-.8,1.68-1.71,3-1.78a2.28,2.28,0,0,1,2.64,1.85,1.71,1.71,0,0,1,0,.45c-.13,4.21.21,8.43-.39,12.64a78.19,78.19,0,0,1-1.75,9.23c-.36,1.36-.78,2.7-1.18,4a4.08,4.08,0,0,1-.25.77c-.44.92-.94,2-2,2s-1.43-1.09-1.81-1.94a68.75,68.75,0,0,1-4.66-14.28c-1-4.57,1-8.23,4.35-11.25.17-.16.36-.11.5.09.41,1,.6,2.34,2.24,1.68A2,2,0,0,0,169,89.61C169.16,88.47,167.85,88.57,167.36,87.94Z"/><path class="cls-34" d="M166.18,81.45a6.49,6.49,0,0,1,.32-2,2.29,2.29,0,0,0-3-2.71,7.37,7.37,0,0,0-2.94,2c-.17-.17-.3-.23-.33-.33-.63-2.65-1.22-3.1-4-3.13A12.86,12.86,0,0,1,166,69.75,9.35,9.35,0,0,1,171.33,71c1,.53,2,1.1,3,1.66a5.85,5.85,0,0,1-1.12,1.93c-.35.15-.53-.06-.7-.3-.81-1.53-2.42-1.47-3.72-1.52a11.51,11.51,0,0,0-7.53,2.34A.78.78,0,0,0,161,76c.74.41,1.31-.27,1.93-.46,3.1-1,5.37.42,5.24,3.3-.84.48.73.58.16,1A6.31,6.31,0,0,1,166.18,81.45Z"/><path class="cls-22" d="M170.3,125.43c0,2.29-1.19,3.45-3.09,3.29a1.67,1.67,0,0,1-1.73-1.59,4.13,4.13,0,0,1,1.33-3.61c1.36-1.18,2.83-.75,3.36,1A5.31,5.31,0,0,1,170.3,125.43Z"/><path class="cls-27" d="M167.36,87.94a4.19,4.19,0,0,1,1,0c1.32.36,1.66,1.2,1,2.39a3.05,3.05,0,0,1-1.45,1.3,2.21,2.21,0,0,1-2.26,0c-.93-.6-.47-1.39-.3-2.13Z"/><path class="cls-35" d="M168.45,144.08a1,1,0,0,1-1-1,.17.17,0,0,1,0-.07,1.8,1.8,0,0,1,1.79-1.74.88.88,0,0,1,1,.75.76.76,0,0,1,0,.26,1.75,1.75,0,0,1-1.69,1.81Z"/><path class="cls-36" d="M172.69,74.23l.44.43a15.18,15.18,0,0,1-4.9,5.21c.06-.38-.82-.27-.42-.83a38.81,38.81,0,0,0,3.9-4.31C171.92,74.44,172.2,74.06,172.69,74.23Z"/><path class="cls-37" d="M167.34,132.8c.58-.06,1.24.66,1.24,1.33a1.37,1.37,0,0,1-1.36,1.23.9.9,0,0,1-1-.83C166.16,133.93,166.88,132.84,167.34,132.8Z"/><path class="cls-19" d="M115,124.3a.31.31,0,0,1-.43.13.18.18,0,0,1-.07-.05c-3.55-3.21-5.19-7-3.91-11.86a115.42,115.42,0,0,1,4.8-14A1.61,1.61,0,0,1,117,97.24a1.71,1.71,0,0,1,1.54,1.07,28.6,28.6,0,0,1,2.2,6.86,55.64,55.64,0,0,1,1.55,16.31l0,4c-.12,2.5-1.82,3.52-3.94,2.2-.64-.39-1.94-.45-1.7-1.79l.15-.14c.6-.56,2.16,0,1.91-1.52-.15-1-1-1.37-1.87-1.61C115.35,122.25,115.54,123.68,115,124.3Z"/><path class="cls-34" d="M105.86,138.78c2.69-.15,3.32-.72,4-3.7.63.19.93.76,1.36,1.14a3.7,3.7,0,0,0,2.35,1c1.79,0,2.78-1.06,2.43-2.81a6.54,6.54,0,0,1-.31-2,8.53,8.53,0,0,1,2,1.6c.34.39-.8.68-.08,1.11.06,2.88-2.31,4.32-5.26,3.31-.65-.22-1.5-1.39-2-.41-.39.78.92,1.1,1.55,1.5a10.45,10.45,0,0,0,8.28,1.3c.74-.18,1.42-.39,1.66-1.24.16-.25.33-.47.68-.33a5.6,5.6,0,0,1,1.15,2l-1.55.93c-4.76,3.1-9.71,2.15-13.67-.77A6.57,6.57,0,0,1,105.86,138.78Z"/><path class="cls-22" d="M120.51,88.29V89a2.59,2.59,0,0,1-1.79,2.22,2.48,2.48,0,0,1-2.46-1.69,5.28,5.28,0,0,1-.54-2.34,2,2,0,0,1,2-2,2.15,2.15,0,0,1,.83.2A2.76,2.76,0,0,1,120.51,88.29Z"/><path class="cls-38" d="M115,124.3c-.19-.79-.35-1.58.47-2.15s1.39-.14,2,.19a3.27,3.27,0,0,1,1.3.88,2,2,0,0,1,.48,2c-.31.75-1,.73-1.69.72h-1Z"/><path class="cls-35" d="M120.8,71.57a1.22,1.22,0,0,1-1.1,1.23,1.89,1.89,0,0,1-1.76-1.65,1.12,1.12,0,0,1,.9-1.31h0A2,2,0,0,1,120.8,71.57Z"/><path class="cls-39" d="M117.6,81.36c-.8-.28-.78-1.14-.9-1.79s.48-.88,1.06-.86A1.13,1.13,0,0,1,119,79.78a1,1,0,0,1,0,.24C118.88,80.67,118.18,81.41,117.6,81.36Z"/><path class="cls-40" d="M122.55,139.3l-.41.41c-.88.11-1.12-.66-1.44-1.17-.91-1.44-2.42-2.32-3.37-3.71-.43-.54.45-.42.39-.77A17,17,0,0,1,122.55,139.3Z"/><path class="cls-19" d="M215.19,125.43c-.16.19-.37.25-.52.07-1.75-2.16-3.74-4.12-4.43-7a11.05,11.05,0,0,1,.39-5.53A74.26,74.26,0,0,1,215.3,99.5c.38-.79.72-1.49,1.67-1.48a2.15,2.15,0,0,1,1.93,1.55,22.33,22.33,0,0,1,1.19,3.63,92.45,92.45,0,0,1,2.11,12c.33,3.3.11,6.56.25,9.84a5.35,5.35,0,0,1-.4,2.16,2.28,2.28,0,0,1-2.73,1.71,2.15,2.15,0,0,1-.76-.33,7.74,7.74,0,0,1-1-.61,3.17,3.17,0,0,1-.53-.57c.36-.57,1.11-.15,1.41-.7a6.93,6.93,0,0,1,.1-.78,2.11,2.11,0,0,0-1.6-2.53l-.22,0C215,123.2,215.52,124.65,215.19,125.43Z"/><path class="cls-34" d="M205.74,139.49c2.34.15,3.51-1.23,4.22-3.41a14.82,14.82,0,0,0,2.62,1.65c1.33.49,2.4.31,3.06-.63a1.77,1.77,0,0,0,.4-1.66,22.76,22.76,0,0,1-.49-2.32,5.13,5.13,0,0,1,2,1.58,7.16,7.16,0,0,1,0,2.4c-1,2.41-2.73,3-5.4,2-.54-.23-1.23-1.15-1.7-.33-.39.66.54,1.11,1.07,1.47,2.53,1.75,8.52,2.65,10.44.45.23-.2.46-.37.79-.22a3,3,0,0,1,.81,1.65,27.54,27.54,0,0,1-3.29,1.9c-4.71,2-8.9.76-12.66-2.39A6.9,6.9,0,0,1,205.74,139.49Z"/><path class="cls-28" d="M217.83,85.89a2.8,2.8,0,0,1,2.52,2.18,3.57,3.57,0,0,1-.95,3.44,1.71,1.71,0,0,1-2.2,0A4.37,4.37,0,0,1,215.91,87,1.76,1.76,0,0,1,217.83,85.89Z"/><path class="cls-38" d="M215.19,125.43a2.68,2.68,0,0,1-.4-1.32,1.53,1.53,0,0,1,1-1.34c.77-.32,2.47.48,3.08,1.38s.47,1.5-.47,2.56A3.78,3.78,0,0,1,215.19,125.43Z"/><path class="cls-35" d="M218,71.57c0-.62.21-1,.91-1a2.09,2.09,0,0,1,1.88,2,1,1,0,0,1-1,1,1.78,1.78,0,0,1-1.8-1.76A2,2,0,0,1,218,71.57Z"/><path class="cls-41" d="M222.74,140.41l-.46.44c-1.47-.23-1.61-1.78-2.55-2.57a13.78,13.78,0,0,1-2.07-2.18c0-.22-.13,0-.1,0,.28.54.33,1-.49,1a3.94,3.94,0,0,1,.45-2.47A14.87,14.87,0,0,1,222.74,140.41Z"/><path class="cls-39" d="M217.79,82.08c-.74-.15-.86-.88-1-1.48s-.06-1.11.69-1.16a1.42,1.42,0,0,1,1.51,1.07C219.07,80.85,218.23,82,217.79,82.08Z"/><path class="cls-19" d="M67.23,87.23a3,3,0,0,1,2.43-2c1.77-.24,2.37.22,2.86,2a9,9,0,0,1,.32,2.37,65.59,65.59,0,0,1-.54,10.85A66,66,0,0,1,69,114.13a1.63,1.63,0,0,1-.13.37c-.49.72-.85,1.67-1.84,1.71s-1.4-1-1.8-1.75a65.7,65.7,0,0,1-4.89-15.29C59.58,95,61.57,91.63,64.86,89c0,0,.21.11.31.18.57.58.76,1.7,2,1.34A2.21,2.21,0,0,0,69,88.86C69.15,87.57,67.71,87.86,67.23,87.23Z"/><path class="cls-34" d="M60,76.24a3.61,3.61,0,0,0-3.72-1.64c1.66-2.85,4.41-4.17,7.38-5.09a10,10,0,0,1,8.44,1.21c.68.41,1.38.81,2.07,1.2a4.38,4.38,0,0,1-1.24,2.35c-.36.14-.51-.09-.63-.36-.71-2.15-2.7-1.82-4.19-1.87A11.9,11.9,0,0,0,61.54,74a1.52,1.52,0,0,0-.8,1.65,1.3,1.3,0,0,1-.22.53A.39.39,0,0,1,60,76.24Z"/><path class="cls-28" d="M65.69,125.67A3.4,3.4,0,0,1,67,122.59a1.72,1.72,0,0,1,2.38,0,3.11,3.11,0,0,1,.88,2.91,2.56,2.56,0,0,1-1.61,2.36C66.85,128.68,65.68,127.79,65.69,125.67Z"/><path class="cls-42" d="M67.23,87.23h.23c.84,0,1.82-.24,2.14.93a2.17,2.17,0,0,1-1.08,2.38,4.39,4.39,0,0,1-.51.32c-1.73.92-2.69.37-2.81-1.63A9,9,0,0,1,67.23,87.23Z"/><path class="cls-34" d="M66.53,77.1a2,2,0,0,0-.82-.84,2.6,2.6,0,0,0-.45-.37l-1.6,0c-.22.24-.59.14-.81.37a1.21,1.21,0,0,1-.38,0,2.67,2.67,0,0,0-.44.38h0c-.12.13-.26.26-.39.38l-.86.83a.21.21,0,0,1-.31,0l0,0a1.27,1.27,0,0,1,0-.39,1,1,0,0,1,0-1.22h0c.4-.24.76-.54,1.17-.77,3.31-1.88,5.63-1,7.08,2.55.16.2.35.39.18.68h0a.77.77,0,0,1-.31.31l-.78.51a2.26,2.26,0,0,0-.47.4h0l-.42.37h0c-.71,0-.64-.35-.37-.8h0A3.14,3.14,0,0,0,66.53,77.1Z"/><path class="cls-35" d="M69.2,140.56a1,1,0,0,1,1.17.8.66.66,0,0,1,0,.2,2.12,2.12,0,0,1-1.89,2c-.77.07-.86-.45-.88-1a1.73,1.73,0,0,1,1.44-2Z"/><path class="cls-35" d="M68.76,133.34c-.17.69-.54,1.27-1.3,1.28a.86.86,0,0,1-1-.72.88.88,0,0,1,0-.28,1.42,1.42,0,0,1,1-1.56C68,132,68.78,132.8,68.76,133.34Z"/><path class="cls-43" d="M68.85,78.69l-.33-.37a9.86,9.86,0,0,1,4-4.41l.4.4A13,13,0,0,1,68.85,78.69Z"/><path class="cls-44" d="M66.45,79.51a.8.8,0,0,0,.37.8.92.92,0,0,1-.7.49C66.05,80.33,66,79.85,66.45,79.51Z"/><path class="cls-44" d="M68.52,79l.31-.31Z"/><path class="cls-44" d="M66.84,80.3l.42-.37Z"/><path class="cls-44" d="M67.25,79.94l.46-.4Z"/><path class="cls-45" d="M102,144.58c1.38-2.35,2.26-2.7,4.82-1.77a34.81,34.81,0,0,1,3.88,1.66,2.46,2.46,0,0,1,1.68,2.29,1.45,1.45,0,0,1-2.16,1.45A9.67,9.67,0,0,1,106.9,146c-.9-1-1.38-.79-1.69.51-.24,1-.36,2-.63,2.93a4.8,4.8,0,0,1-5.69,3.71,5,5,0,0,1-.91-.28c-3.08-1.12-3.35-3.41-2.77-5.85.54-2.21,3.18-3.44,5.52-2.8Z"/><path class="cls-46" d="M92.6,145.53a2.26,2.26,0,0,1-2,1.9A3,3,0,0,1,87.82,145a1.86,1.86,0,0,1,1.83-1.89l.25,0A2.58,2.58,0,0,1,92.6,145.53Z"/><path class="cls-46" d="M83.64,143.07a2,2,0,0,1-1.53-.65c-.81-.81-1-1.69-.42-2.25a1.84,1.84,0,0,1,2.35.16,2.53,2.53,0,0,1,.86,1.08C85.26,142.44,84.79,143.08,83.64,143.07Z"/><path class="cls-46" d="M116.63,147.29a1.14,1.14,0,0,1-1.12-.86.72.72,0,0,1,.58-.85.64.64,0,0,1,.24,0,.89.89,0,0,1,.9.85C117.26,146.84,117.17,147.2,116.63,147.29Z"/><path class="cls-45" d="M156.3,68.88a11.23,11.23,0,0,1,4-2.85c1.24-.51,2.15-.47,2.56.19A2.08,2.08,0,0,1,162,69c-2,1.11-3.95,2.28-6.34,2.29A2.35,2.35,0,0,1,153.16,70a1,1,0,0,0-1.25-.66l-.21.09a4.38,4.38,0,0,1-2,.17,3.86,3.86,0,0,1-3.85-2.68,4.62,4.62,0,0,1,2.62-6,4.56,4.56,0,0,1,.78-.22c3.15-.63,5.08.55,6,3.69C155.62,65.78,155.89,67.15,156.3,68.88Z"/><path class="cls-46" d="M141.26,66.33a1.88,1.88,0,0,1,2,1.75v.07a3.14,3.14,0,0,1-2.87,2.59,2,2,0,0,1-1.9-1.95,2.59,2.59,0,0,1,2.7-2.47Z"/><path class="cls-46" d="M133,73.56c-.44,0-1.07-.07-1.06-1a2.49,2.49,0,0,1,2.43-2.18c.82,0,1.18.5,1.21,1.29C135.57,72.78,134.73,73.52,133,73.56Z"/><path class="cls-47" d="M167,68.48a.87.87,0,0,1-.92-.6c-.15-.49.61-1.29,1.21-1.29a.61.61,0,0,1,.64.58v0a1.11,1.11,0,0,1-.91,1.28Z"/><path class="cls-45" d="M205.8,146.14a4.12,4.12,0,0,0-.92,2.39,8.84,8.84,0,0,1-1.11,3.2,4.46,4.46,0,0,1-5.9,1.82c-2.7-1.28-3.64-3.45-2.64-6a4.35,4.35,0,0,1,5.59-2.52h0c1,.34,1.35.37,1.78-.7s2.25-1.55,3.74-1,3.17,1.44,4.76,2.17a2.44,2.44,0,0,1,1.12,1.1,1.82,1.82,0,0,1-.36,2.21c-.47.6-1.06.33-1.65.12C208.55,148.36,207.34,147.05,205.8,146.14Z"/><path class="cls-45" d="M190.05,143.83a2.34,2.34,0,0,1,2.36,2.32v.08a1.83,1.83,0,0,1-1.68,2h-.08a3.12,3.12,0,0,1-2.67-2.54C187.92,144.49,188.68,143.8,190.05,143.83Z"/><path class="cls-48" d="M183,140.57a5.6,5.6,0,0,1,.8.33c1.12.55,1.59,1.37,1.27,2.18-.26.66-1.11.9-2.08.6s-2-1.54-1.74-2.34S182.14,140.52,183,140.57Z"/><path class="cls-47" d="M217.33,147.48a.68.68,0,0,1-.8.58l-.11,0c-.69-.1-1.1-.49-1-1.21a.7.7,0,0,1,.76-.64l.09,0A1.35,1.35,0,0,1,217.33,147.48Z"/><path class="cls-45" d="M56.38,67.69a15.13,15.13,0,0,0,2.23-1.48A5.39,5.39,0,0,1,61.31,65a1.74,1.74,0,0,1,1.73.8c.42.62.09,1.17-.21,1.69a1.87,1.87,0,0,1-.63.76c-2.12,1.08-4.17,2.41-6.71,2.39a2.15,2.15,0,0,1-2.2-1.11c-.42-.86-1-.79-1.79-.66-1.52.22-3.07.3-4.36-.94A4.29,4.29,0,0,1,45.87,63a4.39,4.39,0,0,1,3.86-3,4.25,4.25,0,0,1,3.39.66A5.45,5.45,0,0,1,55.36,64,8.47,8.47,0,0,0,56.38,67.69Z"/><path class="cls-46" d="M43.1,67.5A2.72,2.72,0,0,1,40.49,70c-1.19,0-1.86-.77-1.83-2.09A2.33,2.33,0,0,1,41,65.6h.1C42.42,65.6,43.14,66.28,43.1,67.5Z"/><path class="cls-49" d="M33.39,72.82c-.62,0-1.17,0-1.45-.6s0-1,.43-1.41,1-1.25,2-1.22a1.2,1.2,0,0,1,1.16.6,1.23,1.23,0,0,1,0,1.49A2.27,2.27,0,0,1,33.39,72.82Z"/><path class="cls-50" d="M68.12,66.78a1.09,1.09,0,0,1-1.16,1l-.18,0c-.5,0-.66-.44-.61-.88a1.06,1.06,0,0,1,1.11-1C67.88,65.87,68,66.38,68.12,66.78Z"/><path class="cls-51" d="M194.41,199.23a10.74,10.74,0,0,1-4.93,1.49c-3.58.25-6.91-2.05-6.82-6.15a11.7,11.7,0,0,1,2.11-6.54c4.32-6.43,10.51-10,17.88-11.66a22.2,22.2,0,0,1,6.19-.51,10.12,10.12,0,0,1,3.65,1,3.36,3.36,0,0,1,1.89,3.12.51.51,0,0,1,0,.72c.12.69-.35,1.37,0,2.07.1.55-.33.68-.68.86l-.39.1c-2.74.62-3.15.36-3.69-2.73-.65,2.33-1.91,3.43-4,3.38-1.47,0-1.86-1.09-2.28-2.27,0,1.28.38,2.65-1.32,3a1.43,1.43,0,0,1-1.88-.75,1.53,1.53,0,0,1-.11-.63c0-.32.28-.53.42-.8-.22,0-.31.21-.45.34-.29,1.58-.62,3-2.45,3.7a3.26,3.26,0,0,1-4.12-.75c1.22,3.49-1.61,3.89-2.91,5.38.26,1.26,2.38,2.49.29,4,.2.22.44-.08.64,0s.1.34.34.19c-.14,0-.2-.12-.2-.28a3.25,3.25,0,0,1,3.75-.78c.77.46.45,1,.2,1.57C195,197.35,194.28,198.13,194.41,199.23Z"/><path class="cls-51" d="M169.24,215.2c-.45-2.87,1-4.54,3.43-5.72a32,32,0,0,1,9.38-2.75c4.75-.76,9.16.26,13.56,1.75a21.11,21.11,0,0,1,6.87,4.05c2.37,2,3.26,6,1.89,8.39a7.85,7.85,0,0,1-6.54,3.71h-1.61c-.72-.45-1.43-.94-2.11-1.46s-1.3-.89-1.1-1.73,1-1.23,1.73-1.5a2,2,0,0,1,2.39.35,1.16,1.16,0,0,1-.25.55c.18-.12.24-.35.42-.47l.19-.08c.22,0,.28-.13.11-.23-2.09-1.23-2.3-1.92-1.11-4.24-1.21.44-2.17-.15-3.2-.41-1.27-.32-2-1.09-1.83-2.83-1,1.2-1.49,2.3-2.93,2.45-2.2.22-3.6-.53-4.35-2.57-.22-.15-.6-.45-.66-.33-.27.48.46.47.52.84a1.32,1.32,0,0,1-.56,1.79,1.28,1.28,0,0,1-.55.14c-1.86.43-1.8-1.29-2.47-2.33,0,1.19.56,2.4-.88,3.08-1.89.89-3,.67-5.34-1.22.12.91.81,1.69.27,2.52a2.88,2.88,0,0,1-2.06,1.14c-.68,0-1.38.44-2-.12.56-.94-.21-1.23-.8-1.6C169.33,216.05,169,215.73,169.24,215.2Z"/><path class="cls-51" d="M155.39,177.92h.4c.13-.14.28-.25.41-.39h.4c.13-.14.29-.25.42-.39h.39c.22-.25.6-.15.82-.4h.8c.75-.48,1.68.14,2.42-.37h.4a1.45,1.45,0,0,1,2,0h.4c.75.51,1.68-.09,2.43.41h.8c.32.38.88,0,1.22.41h.4c2.17.88,4.4,1.58,6.49,2.67a41.62,41.62,0,0,1,6.79,4.94,1.53,1.53,0,0,1,.67,1.94,28.33,28.33,0,0,0-2.34,6.31,8.87,8.87,0,0,1-2.34-.43c-2.09-1.14-2.46-2.51-1.17-4.87-1,.4-1.57,1.62-2.77,1.19a2,2,0,0,1-1.27-2.43c-2.95.64-5-.71-5.56-3.61-1.65,1.41-3.18,1.42-5.81,0-.61,1.3-.38,3.42-2.85,2.93-.06,0-.23-.07-.19,0,.25.22.56.37.68.69,0,.06-.06.2,0,.18a1.84,1.84,0,0,1,.34-.16c1-.1,1.44.57,1.89,1.24,1,1.53.77,2.1-1,2.39a20.8,20.8,0,0,0-2.92.63l-1.19-.77a17.55,17.55,0,0,0-2.75-9.8v-.8a3.68,3.68,0,0,0,.4-.39h0l.41-.4h0l.41-.41h0C155.11,178.19,155.26,178.06,155.39,177.92Z"/><path class="cls-51" d="M202.78,210.2c-1.39-.93-2.77-1.88-4.19-2.77-.7-.45-.68-.91-.23-1.48a32.3,32.3,0,0,1,2.89-3.6,25.64,25.64,0,0,1,11.25-6.77,8.65,8.65,0,0,1,5.53.11c3.77,1.57,4.89,4.92,3.45,8.78a10.46,10.46,0,0,1-2.07,3.43,6,6,0,0,0-2.34.39c-2.17.58-2.69.05-2.15-2.15a1.92,1.92,0,0,1,1.28-1.61.38.38,0,0,1,.34.09.67.67,0,0,0-.08-.27,1.22,1.22,0,0,1,.25-.57c.12-.15.13-.24.1-.21-2,2.09-2.81-.21-4.18-1.09-.45.89-1.52,1.28-2.33,2a2,2,0,0,1-2.82.16l-.18-.18a4.42,4.42,0,0,1-.61,4.21C205.62,210.14,204.23,210.08,202.78,210.2Z"/><path class="cls-51" d="M148.24,210.57a22.29,22.29,0,0,1,2.82-3.24,33.38,33.38,0,0,1,7.58,3.67,24.64,24.64,0,0,1,3.84,3.22,2.06,2.06,0,0,1,.49,2.67c-.92,1.87-1,4-1.42,6a1.14,1.14,0,0,0,.3,1.12.8.8,0,0,1,.05,1.13l-.06.06a9.61,9.61,0,0,1-7.65.78c0-1.16-1.05-1.66-1.62-2.45a1.11,1.11,0,0,1,.47-1.89,5,5,0,0,1,4.39.09c-2-.95-2.24-1.81-1-4-1.62-1.14-4.51-.72-4.45-4.11-1.37,2.11-3.14,1.74-4.93,1.18a1.77,1.77,0,0,1-1.25-2.18v0a16.08,16.08,0,0,1,2.45-2l.11.12Z"/><path class="cls-52" d="M200.15,183.53c.21,1,.63,1.6,1.8,1.21.68-.22,1.06-.5.82-1.3-.16-.57-.18-1.19-.29-1.78-.07-.38,0-.68.38-.8a.62.62,0,0,1,.78.43h0a10.57,10.57,0,0,1,.42,1.56c.16.92.74,1.16,1.6,1.08,1.46-.15,2.77-.44,3-2.25a3.45,3.45,0,0,1,.47-1.1c.17-.28.38-.58.79-.44s.28.41.32.67a.67.67,0,0,1,0,.2c.22,2.91.22,2.91,3.22,2.18.48,1.37-.52,2.18-1.27,3s-1.1-.2-1.6-.48c-1.27-.69-2.51-.12-3.71.16a62.41,62.41,0,0,0-8.3,3,2.41,2.41,0,0,0-1.81,1.93,65.23,65.23,0,0,0,12.86-3.05c1.26.56.36,1.19,0,1.63a18.32,18.32,0,0,1-5.5,4.23h0c-.24.21-.61.13-.82.39h0c-.51.72-.89,1.64-2,1.45A3.45,3.45,0,0,0,197,197c-.46.73-1.33,1.08-1.84,1.79l-.76.45c-.57-.08-.8-.28-.57-.93.38-1,1.34-1.8,1.57-3.08-1.36.17-2.82-.93-3.83.73h0c-.81-.13-1.25,1.1-2.27.57.38-1,1.5-1.25,2.09-2.12-1-.74-.48-2.76-2.58-2.84,2.32-.23,3.18-2.17,4.69-3.11,0-.67-.47-.9-.71-1.28s-.45-.73-.09-1.08a.74.74,0,0,1,1,0l0,0c1.43,1.52,2.8.82,4.23,0,.84-.45,1.54-.79,1-2-.23-.48.21-.86.66-1.09a.42.42,0,0,1,.44.41Z"/><path class="cls-52" d="M197.07,220.63c-1.63-1.1-2.71,0-3.92.9.77,1.37,2.59,1.58,3.07,3.11h-1.58c-.7-.37-1.58-.3-2.23-.78a4.13,4.13,0,0,0-4.51-.19,1.77,1.77,0,0,1-2.22.16,1.37,1.37,0,0,1-.35-.08c-2.44-.31-4.92-.47-7.16-1.56-.53-.25-1.89-.28-1-1.55a4,4,0,0,1,1.59-.28,5.53,5.53,0,0,0,2.14-.21c2.88-.72,5.89-1,8.9-1.93a2,2,0,0,0-2.06-1.08,55,55,0,0,0-10.41.82,2.69,2.69,0,0,0-2.38,2.13c-1.42.61-2.26-.46-3.11-1.2s0-.95.56-1.19a11.17,11.17,0,0,1,1.14-.39c.78-.32,1-.82.54-1.58a11,11,0,0,1-.76-1.63.49.49,0,0,1,.21-.65h0a.65.65,0,0,1,.54.12c.55.49,1.06,1,1.59,1.53.38.35.63.9,1.31.74a8.81,8.81,0,0,0,2.84-.81c.49-.3.29-1,.14-1.5a2.33,2.33,0,0,1-.14-1.56.7.7,0,0,1,.56-.5c.32,0,.44.21.52.49a12.62,12.62,0,0,0,.36,1.34c.22.64.16,1.45,1.34,1.31s1.15-.86,1.14-1.68c-.22-.47,0-.67.44-.79.87.1,1,.79,1.12,1.45a1.05,1.05,0,0,0,1.25,1,8.3,8.3,0,0,1,1.41,0,1.87,1.87,0,0,0,2.3-1.29l0-.06a1.55,1.55,0,0,1,.19-.36c.25-.45.44-1.12,1.12-.9s.49.8.32,1.34c-.32.92.2,1.4,1,1.62,1.49.39,3,1.16,4.67.42-.92.87-1.6,1.69-1.38,3,.12.7.29,1.06,1,1.19a16.53,16.53,0,0,1,2.27.7c-.94.71-1.77.34-2.49.47Z"/><path class="cls-52" d="M157.76,190.83c0-.48.28-.67.74-.78a10.53,10.53,0,0,1,3.62-.35c-.84-1.34-1-2.88-2.75-2.87h0c-.5-.89-2-.47-2.32-1.64.62-.49,1.08,0,1.56.12s1.45.73,1.78-.05,1.46-1.6.57-2.72c-.17-.21-.33-.44-.09-.71a.39.39,0,0,1,.53,0h0c1,1.54,2.69,1.28,4.11,1.71,1,.29,1.26-.5,1.52-1.21.12-.32.24-.67.65-.64a.66.66,0,0,1,.62.69,1.29,1.29,0,0,1,0,.19c-.52,2.39,1.49,2.82,2.87,3.7.75.47,1.24-.08,1.74-.55.19-.17.41-.4.71-.24s.33.54.28.86-.22.64-.29,1c-.14.72.54.84.9,1.18s.69.08,1.06-.11c.62-.34.9-1,1.4-1.42.25-.23.54-.45.89-.23s.29.7.08,1c-.46.72-1,1.44-1.43,2.14a6.26,6.26,0,0,0,1.34,1.56c.59.66,1.14,1.3,2.22.8.47-.21.64.33.7.75l-.06.4a6.35,6.35,0,0,0,0,3.21v.41a1.42,1.42,0,0,1-2,0,3.61,3.61,0,0,0-1.62-3.58,60.34,60.34,0,0,0-8.6-5.55,2.38,2.38,0,0,0-2.28-.21A51,51,0,0,0,176,196a1.54,1.54,0,0,1,.35.52.61.61,0,0,1-.17.58c-2.87.38-5.44-.57-8-1.77l-.79-.39a1.47,1.47,0,0,1-2-.7,1.24,1.24,0,0,1-.1-.31,4.55,4.55,0,0,0-4.13-2.27,4.3,4.3,0,0,1-2.28-.49A2.52,2.52,0,0,1,157.76,190.83Z"/><path class="cls-52" d="M216.61,204.64c-1.63.68-1.14,2.17-1.38,3.52a11.48,11.48,0,0,0,3.26-.87c.63-.16.86,0,.94.61a1.89,1.89,0,0,1-.84.79,7.36,7.36,0,0,1-2.12,1.5,3.64,3.64,0,0,0-2.24,3.68c.11,1-.78,1.21-1.35,1.64a2,2,0,0,1-.35,0c-.31.17-.23.57-.47.78h0a3.79,3.79,0,0,0-.38.42h0a15.84,15.84,0,0,1-2.24,2.17c-.61.46-1.26.82-1.75-.18l-.12-.81c-.47-2.11,1-3.64,1.64-5.4.46-1.23,1.33-2.3,1.38-3.9-1.74.41-2.29,1.85-3.21,2.89-.59.67-.76,2-2.15,1.55l-2.43-2.85c.08-.7.49-1,1.11-.65,1,.48,1.51,0,2-.73a13.08,13.08,0,0,1,.84-1.12,1.61,1.61,0,0,0,.27-2c-.1-.18-.17-.37-.25-.55-.24-.49-.55-1.13-.05-1.48s1,.27,1.26.64c.65.7,1.18.74,1.83,0,1-1.09,2.8-1.37,2.85-3.24,1.09.37.27,1.09.66,1.46a7,7,0,0,0,1.85,1.5c.82.32,1.16-.71,1.73-1.13.31-.22.54-.59,1.17-.46,0,1.07-1.22,1.38-1.48,2.23Z"/><path class="cls-53" d="M177.28,220.89c-.17.73.52.66.83.77a36.13,36.13,0,0,0,6.53,1.73,1.09,1.09,0,0,1,.69.36h-.81c-1.66.09-1.66.09-1.36,1.75a8.27,8.27,0,0,1,.12,1c0,.26,0,.56-.31.66a.54.54,0,0,1-.7-.3.47.47,0,0,1,0-.17c-.11-2.46-1.61-2.66-3.66-2.68-1.48,0-2.45.11-2.78,1.7a2.21,2.21,0,0,1-.51.86.52.52,0,0,1-.71.15.54.54,0,0,1-.31-.66c.13-.52.21-1,.37-1.56a.77.77,0,0,0-.3-1.05.79.79,0,0,0-.4-.1c-1.23-.17-2.41-.67-3.71,0a23.45,23.45,0,0,1-3.06.93c-.36.11-.7.14-.89-.19s.12-.59.39-.76a16.84,16.84,0,0,1,2.56-1.56,1.6,1.6,0,0,0,1.19-1.62c0-.92-.65-.85-1.22-1a.53.53,0,0,1-.35-.65.51.51,0,0,1,.36-.35c.4-.07.8-.08,1.2-.11.7,0,1.31-.51,2-.34-.1.35-1,.61-.22,1s1.61,1.23,2.64,1.39C175.83,219.9,176.83,219.59,177.28,220.89Z"/><path class="cls-54" d="M211.06,185.2c.43.16.29.72.74,1a11.74,11.74,0,0,0,1.7-3,.88.88,0,0,0,.81-.4c.7,0,1.36-.74,2.05-.11.22.4-.09.5-.28.67s-1,.47-.67,1.05.56,1.21,1.42,1.27,2,.27,3,.4c.45.06,1.07,0,1.05.64,0,.45-.55.57-1,.52-1.24-.11-2.38.48-3.6.44a2.9,2.9,0,0,0-1.81.78c-1.53,1.22-1.55,1.32-.34,2.93.29.39.63.77.11,1.2s-.85,0-1.2-.3a10,10,0,0,1-.87-.84,1.18,1.18,0,0,0-1.66-.31l-.1.07a10.42,10.42,0,0,1-2.33,1.18,1.32,1.32,0,0,0-1.1,1.52,1.09,1.09,0,0,0,.08.31,2.32,2.32,0,0,1,.13.78.64.64,0,0,1-.55.51.4.4,0,0,1-.45-.32c-.19-.5-.35-1-.53-1.55-.5-.3-1,.13-1.53,0a30.51,30.51,0,0,1,3-2.54c1-.92,2.42-1.52,2.69-3.09A8.08,8.08,0,0,1,211.06,185.2Z"/><path class="cls-53" d="M178.67,196.68c.54.67,1.3.31,2,.41.12.54-.14,1.16.37,1.61.36.34.24.91.59,1.25.21,1.55,2,2.35,1.85,4-1.16.14-1.47-.95-2.07-1.55a7.25,7.25,0,0,0-3.39-1.95c-1.13-.29-1.47.14-1.72,1-.15.55,0,1.46-.82,1.37s-.51-1-.45-1.51a2.23,2.23,0,0,0-1.57-2.74l-.11,0a6.26,6.26,0,0,1-1.07-.53c-1.47-.74-1.47-.74-2.63.43a5,5,0,0,1-.58.55c-.31.27-.68.51-1.06.16s0-.61.11-.9a4.45,4.45,0,0,1,.33-.51c.95-1.34.95-1.34-.24-2.43,2.33.5,4.66,1,7,1.54.43.09.79.12,1.08-.27A2.86,2.86,0,0,1,178.67,196.68Z"/><path class="cls-55" d="M205.21,213c1-.12,1.18-1,1.61-1.63a15.55,15.55,0,0,1,2.53-3.07c.5-.43,1-.75,1.61-.35s.33,1,.1,1.47c-.93,2.12-1.87,4.26-2.83,6.38a4.88,4.88,0,0,0-.68,2.06A31.48,31.48,0,0,0,205.21,213Z"/><path class="cls-56" d="M207.67,218.7c.67.52,1.18.21,1.66-.32a5.4,5.4,0,0,1,2.33-1.67c-.35.85,0,1.31.8,1.66.56.23,1.63.46,1.35,1.16-.38,1-1.27.26-1.84,0a1.51,1.51,0,0,0-2.11.35,1.23,1.23,0,0,0-.19.38,5.55,5.55,0,0,1-1.51,1.62C208,220.71,207.83,219.71,207.67,218.7Z"/><path class="cls-51" d="M195.17,198.78a10.1,10.1,0,0,1,2.64-3.44,2.82,2.82,0,0,1,3.48-.11.54.54,0,0,1,.05.77l-.06.06a.84.84,0,0,0-1,0,16.94,16.94,0,0,1-1.78,1.09c0,.29-.2.35-.38.47C197,197.73,196.17,198.49,195.17,198.78Z"/><path class="cls-57" d="M214.08,213.9a2.72,2.72,0,0,1,.8-3.31c1.19-.68,2.24-1.7,3.69-1.9-.16,1.31-1.54,1.72-2,2.78h0l-2,2.38a.28.28,0,0,1-.4.09Z"/><path class="cls-51" d="M187.78,223c2.34-1,4.32-.08,6.25,1.16.21.14.4.31.61.47l-3.25,0h0a3.07,3.07,0,0,0-3.25,0C187.1,224.3,187.53,223.63,187.78,223Z"/><path class="cls-51" d="M158.93,191.27a13.22,13.22,0,0,0,2,0,4.46,4.46,0,0,1,4.83,2.48c-.21.23-.35.65-.8.4L162.49,193a.52.52,0,0,1-.72,0s0,0,0,0C161.05,192,159.61,192.25,158.93,191.27Z"/><path class="cls-58" d="M187.78,223c0,.56-.19,1.17.36,1.61a15.73,15.73,0,0,1,.38,1.54c.06.37.16.85-.26,1.06s-.76-.15-1-.47a9.15,9.15,0,0,1-1.62-2.93A2.18,2.18,0,0,0,187.78,223Z"/><path class="cls-59" d="M214.08,213.9h.43c.69.24,1.39.45,2.07.72.3.11.63.29.54.71a.78.78,0,0,1-.72.59,8.49,8.49,0,0,1-3.54-.38Z"/><path class="cls-58" d="M165,194.15l.8-.4c.11,1,.91,1.07,1.64,1.24-1,.61-2,1.24-3.07,1.82a.87.87,0,0,1-1.11,0c-.38-.41,0-.71.28-1A8.19,8.19,0,0,0,165,194.15Z"/><path class="cls-60" d="M201.25,196.06v-.83c1,0,1.28-.94,2-1.2a23.81,23.81,0,0,0-.48,3.14c0,.66-.27,1.28-1,1.19s-.51-.81-.56-1.3A8.35,8.35,0,0,0,201.25,196.06Z"/><path class="cls-61" d="M183.46,204c-.8-1.31-1.8-2.5-2.07-4.09a.28.28,0,0,1,.39-.06.23.23,0,0,1,.07.07,12.85,12.85,0,0,0,3.35,3.84A2.9,2.9,0,0,1,183.46,204Z"/><path class="cls-62" d="M207.47,224.35c.05-.26.1-.52.14-.79.67.3.8,1,1.21,1.52a.65.65,0,0,1,.07.91.59.59,0,0,1-.33.2c-.46.21-.78-.1-.9-.5A6.66,6.66,0,0,1,207.47,224.35Z"/><path class="cls-63" d="M210.77,222.5a.77.77,0,0,1,.76.77.8.8,0,0,1-.74.85h-.16c-.47,0-.68-.4-.65-.85A.79.79,0,0,1,210.77,222.5Z"/><path class="cls-64" d="M178,225.89a.82.82,0,0,1,.86.74c.08.46-.12.85-.58.89a.8.8,0,0,1-1-.56.63.63,0,0,1,0-.24A.84.84,0,0,1,178,225.89Z"/><path class="cls-65" d="M172.38,201.91c-.45-.06-.77-.25-.77-.62a.79.79,0,0,1,.77-.79.72.72,0,0,1,.76.71v0C173.13,201.76,172.73,201.9,172.38,201.91Z"/><path class="cls-66" d="M170.94,226a.68.68,0,0,1-.73.49.52.52,0,0,1-.58-.61.57.57,0,0,1,.62-.52h.08A.63.63,0,0,1,170.94,226Z"/><path class="cls-67" d="M218.52,189.91a.74.74,0,0,1-.72.56c-.27,0-.56-.07-.55-.4a.64.64,0,0,1,.59-.68H218A.58.58,0,0,1,218.52,189.91Z"/><path class="cls-68" d="M169.24,215.2a1.71,1.71,0,0,1,.38,1.2h-.38c-.41,0-.88-.07-.92-.51C168.23,215.27,168.79,215.25,169.24,215.2Z"/><path class="cls-69" d="M214.36,180.75V180a4.11,4.11,0,0,1,.51-.27.51.51,0,0,1,.71.19.35.35,0,0,1,.06.14c.11.4-.23.59-.53.67A2.76,2.76,0,0,1,214.36,180.75Z"/><path class="cls-70" d="M210.94,194.08c-.24,0-.59,0-.55-.39a.76.76,0,0,1,.84-.58.46.46,0,0,1,.45.47v0C211.63,194,211.27,194.07,210.94,194.08Z"/><path class="cls-71" d="M180.11,204.31c0,.35-.28.42-.54.41a.49.49,0,0,1-.51-.45v0c0-.26.09-.54.43-.52A.62.62,0,0,1,180.11,204.31Z"/><path class="cls-72" d="M185.53,225.54a.58.58,0,0,1-.48.53.54.54,0,0,1-.67-.38.52.52,0,0,1,0-.11.49.49,0,0,1,.45-.53A.64.64,0,0,1,185.53,225.54Z"/><path class="cls-53" d="M180.67,196.68a3.16,3.16,0,0,1,0-3.21Z"/><path class="cls-73" d="M161.87,225.22V224c0-.12,0-.28.13-.35a.22.22,0,0,1,.32.16l.35,1.47c-.31.16-.33.47-.38.76A1.14,1.14,0,0,1,161.87,225.22Z"/><path class="cls-74" d="M213.79,217.51a.42.42,0,0,1-.43-.38.59.59,0,0,1,0-.13.48.48,0,0,1,.54-.42h0a.47.47,0,0,1,.42.52v0C214.31,217.44,214.05,217.49,213.79,217.51Z"/><path class="cls-75" d="M152.35,205.3c.14-.77.5-.86,1-.33a8.54,8.54,0,0,1,.56.78Z"/><path class="cls-76" d="M166.33,198.33a.4.4,0,0,1-.31.43.47.47,0,0,1-.56-.36.06.06,0,0,0,0,0,.33.33,0,0,1,.21-.41h.07A.54.54,0,0,1,166.33,198.33Z"/><path class="cls-77" d="M204.85,195.68a.54.54,0,0,1-.48.51.39.39,0,0,1-.44-.31.47.47,0,0,1,0-.17.54.54,0,0,1,.58-.41.34.34,0,0,1,.34.34S204.86,195.67,204.85,195.68Z"/><path class="cls-78" d="M215.72,189.57a.38.38,0,0,1-.29.45.39.39,0,0,1-.52-.15h0c-.14-.3,0-.5.33-.54A.46.46,0,0,1,215.72,189.57Z"/><path class="cls-67" d="M173.06,224.59a.45.45,0,0,1-.46.29.37.37,0,0,1-.38-.53c.13-.32.33-.23.53-.18S173.11,224.33,173.06,224.59Z"/><path class="cls-79" d="M191.61,226.7a.37.37,0,0,1-.39.34c-.28,0-.55-.13-.44-.46,0-.12.29-.23.46-.24A.36.36,0,0,1,191.61,226.7Z"/><path class="cls-80" d="M185.53,227.54a.36.36,0,0,1-.4.26c-.29,0-.52-.17-.42-.49,0-.11.33-.2.5-.21S185.57,227.2,185.53,227.54Z"/><path class="cls-81" d="M215.43,217.56c.26.07.47.15.32.4a.64.64,0,0,1-.45.28.27.27,0,0,1-.3-.22.45.45,0,0,1,0-.16A2.09,2.09,0,0,1,215.43,217.56Z"/><path class="cls-82" d="M211.45,226.11c-.18,0-.24-.22-.2-.41a.34.34,0,0,1,.33-.35h0a.3.3,0,0,1,.28.32.28.28,0,0,1,0,.09A.43.43,0,0,1,211.45,226.11Z"/><path class="cls-81" d="M218.79,212.79c-.11.05-.23.18-.32.16s-.28-.24-.15-.42a.37.37,0,0,1,.33-.08C218.73,212.53,218.74,212.7,218.79,212.79Z"/><path class="cls-83" d="M161.74,192.91h.76c0,.26,0,.59-.28.61C161.78,193.62,161.78,193.23,161.74,192.91Z"/><path class="cls-84" d="M160.93,194.64c.08.08.24.16.25.25a.25.25,0,0,1-.18.3.21.21,0,0,1-.19,0,.34.34,0,0,1-.16-.32C160.68,194.76,160.83,194.7,160.93,194.64Z"/><path class="cls-85" d="M167.25,196.89c-.05.11-.06.28-.15.33a.3.3,0,0,1-.41-.12l0-.07a.24.24,0,0,1,.07-.31l.07,0a.34.34,0,0,1,.45.19Z"/><path class="cls-86" d="M198.05,197.63l.38-.47c.23.07.65,0,.56.35C198.82,198.09,198.39,197.72,198.05,197.63Z"/><path class="cls-87" d="M213.48,222.65c-.06-.1-.17-.22-.15-.3a.24.24,0,0,1,.24-.24.21.21,0,0,1,.17.07.31.31,0,0,1,.06.32C213.77,222.58,213.61,222.6,213.48,222.65Z"/><path class="cls-88" d="M181.85,200h-.46c-.43-.31-.31-.79-.37-1.22C181.54,199,181.65,199.52,181.85,200Z"/><path class="cls-67" d="M199.51,199.27c-.08.08-.16.22-.25.23s-.36-.14-.28-.36a.41.41,0,0,1,.32-.15C199.38,199,199.44,199.16,199.51,199.27Z"/><path class="cls-89" d="M169.08,201.42c.09-.08.17-.21.26-.2a.25.25,0,0,1,.28.24.35.35,0,0,1,0,.14.41.41,0,0,1-.32.11C169.18,201.71,169.14,201.55,169.08,201.42Z"/><path class="cls-90" d="M177.93,202c.06-.1.1-.27.18-.29a.29.29,0,0,1,.37.15.43.43,0,0,1,0,.11.42.42,0,0,1-.17.29.31.31,0,0,1-.39-.18A.25.25,0,0,1,177.93,202Z"/><path class="cls-91" d="M180.44,228.32c.08.07.23.14.23.22a.26.26,0,0,1-.21.3.3.3,0,0,1-.16,0c-.07,0-.15-.21-.13-.31S180.44,228.38,180.44,228.32Z"/><path class="cls-92" d="M176.62,229.16a.35.35,0,0,1-.38-.35c0-.21.24-.27.43-.24s.27.12.28.2A.49.49,0,0,1,176.62,229.16Z"/><path class="cls-93" d="M173.06,203.92a.31.31,0,0,1-.42.16h0c-.17-.09-.3-.25-.16-.44a.42.42,0,0,1,.34-.12C173,203.53,173.19,203.6,173.06,203.92Z"/><path class="cls-94" d="M218.62,184.54c-.1.06-.23.19-.32.17a.25.25,0,0,1-.22-.27.26.26,0,0,1,.07-.15.36.36,0,0,1,.33-.08C218.57,184.26,218.58,184.43,218.62,184.54Z"/><path class="cls-82" d="M191.39,224.64a.58.58,0,0,1-.6.39c-.1,0-.19-.14-.29-.21.1-.06.2-.17.31-.18a3.72,3.72,0,0,1,.58,0Z"/><path class="cls-54" d="M203.33,194a.78.78,0,0,1,.82-.39A.89.89,0,0,1,203.33,194Z"/><path class="cls-59" d="M212,216.31a.73.73,0,0,1,.47-.78A1,1,0,0,1,212,216.31Z"/><path class="cls-95" d="M216.56,211.47c.18.06.34.17.32.38,0,.06-.13.11-.21.16a2.33,2.33,0,0,0-.13-.52Z"/><path class="cls-85" d="M167.7,220.89l.12.15a1.66,1.66,0,0,1-.31.12l-.12-.13Z"/><path class="cls-56" d="M211.65,216.73l.38-.42Z"/><path class="cls-96" d="M164.32,213.54h.54C164.67,213.92,164.54,213.83,164.32,213.54Z"/><path class="cls-51" d="M122.54,201.14c-.49-.69-1.45-.3-2-.86h0c-2.38-1.22-3.07-2.85-2.14-5.65a25.14,25.14,0,0,1,5.2-8.74,26.78,26.78,0,0,1,8.22-6.34c3.61-1.78,7.4-3.11,11.54-2.91a7.61,7.61,0,0,1,5.84,2.65c2.47,3.11,1.25,6.48-.52,8.66a8.77,8.77,0,0,1-2.21,2,18.78,18.78,0,0,1-3,.12c-1.84,0-2.2-.63-1.35-2.31.4-.77.84-1.53,1.81-1.7.36,0,.47.3.68.5-.08-.16-.18-.32-.27-.49s.36-.63.22-.61c-2.33.29-2.39.27-3.44-2.38-2.89,2.28-4.23,2.51-6,.75.55,1.93-.26,3-1.47,4.11-1.38,1.3-2.67.77-4.08.53-.18.08-.53-.13-.55.19,0,.1.47.06.71.14a1.29,1.29,0,0,1,.85,1.61,1.36,1.36,0,0,1-.33.54c-1.06,1.39-2.15.39-3.63-.32,1.07,1.24,2,2.07,1.11,3.53-1.09,1.86-2.45,2.61-4.9,1.46.8,1.37,2.37,1.15,2.34,2.4a4.08,4.08,0,0,1-1.49,2.77A1.14,1.14,0,0,1,122.54,201.14Z"/><path class="cls-52" d="M144.42,186.32c-1.74.32-1.85,1.86-2.51,3.17,1.58.39,3.17-.45,4.52.5a1.48,1.48,0,0,1-1.22.81,7.33,7.33,0,0,1-2.41,1,3.44,3.44,0,0,0-3,3.19c-.39,1.36-1.79.93-2.63,1.48l-.38.37a19.63,19.63,0,0,1-5.8,2.91c-.56.21-1.15.33-1.61-.26-.05-1,.81-1.52,1.42-2.07a57,57,0,0,0,5.61-6.61c.43-.54,1-1.1.88-1.94a1.4,1.4,0,0,0-1.63.46c-2.41,2.13-5,4-7,6.57-1,1.35-2,2.69-1.56,4.53-1.15.85-2.34,1.23-3.63.32l.45-.66c1.41-2.11,1.41-2.11-.87-3.18-.18-.08-.37-.15-.57-.22s-.48-.26-.41-.57a.71.71,0,0,1,.56-.51,3.12,3.12,0,0,1,2,.09,1.5,1.5,0,0,0,2-.56,2.56,2.56,0,0,0,.11-.24,5.63,5.63,0,0,1,.67-1c.59-.69.71-1.28-.2-1.79a1.08,1.08,0,0,1-.3-.26c-.42-.49-1.31-1-.8-1.63s1.12.12,1.64.46,1,1,1.78.6.92-1.2,0-2.19a.55.55,0,0,1,0-.77l0,0c.56-.68,1.06-.31,1.55.1a1,1,0,0,0,1.41,0,.08.08,0,0,1,0,0,17.73,17.73,0,0,1,2.14-1.82c.69-.44.08-1.11.11-1.68s-.73-1.23,0-1.61,1.1.48,1.43,1l.51.81c1.48-1.26,3.85-.91,4.83-3.17-.13,1.63.78,2.66,1.5,3.77,1.09,0,1.64-1.19,2.8-1.17.29,1.18-1,1.2-1.37,1.86Z"/><path class="cls-53" d="M129.39,199.14c.35.49.78.38,1.25.17l4-1.78a4.69,4.69,0,0,1,2-.75c-.83,1.25,0,2,.87,2.63.31.25.75.47.42,1s-.72.14-1.07,0c-.17-.08-.33-.23-.5-.33-1.58-1-1.58-1-3.06.2a13.21,13.21,0,0,1-1.15.81,1.65,1.65,0,0,0-.87,2.16,1.28,1.28,0,0,0,.11.2,1.46,1.46,0,0,1,.07.19c.19.63.59,1.5-.13,1.78s-.87-.77-1.22-1.27a11.13,11.13,0,0,1-.57-1.08,6.58,6.58,0,0,0-4.14,3c-.57,1-1,2.15-2.18,2.72-.59-.64-.07-1.11,0-1.57a15.22,15.22,0,0,1,.82-2.47,1.93,1.93,0,0,0-.58-2c-.51-.62-.89.26-1.36.35a3.11,3.11,0,0,1-.61,0c-.15-.89.62-1.3.92-1.92l.78-.42c1.27,0,2.55.12,3.63-.77A3,3,0,0,1,129.39,199.14Z"/><path class="cls-51" d="M139.51,194.78c-.17-1.21.73-2.93,1.83-3.17a18.25,18.25,0,0,1,3.87-.81c-.65,1.17-2,1.46-2.87,2.34h0c-.62.69-1.9.76-2,2C139.89,195.38,139.68,195.11,139.51,194.78Z"/><path class="cls-58" d="M139.51,194.78l.82.38c.69.47,2.06.82,1.73,1.62-.45,1.08-1.62.21-2.43,0a5.44,5.44,0,0,0-2.53-.33C137.72,195.62,139.07,195.87,139.51,194.78Z"/><path class="cls-97" d="M134,204a.84.84,0,0,1-.73-.94.2.2,0,0,1,0-.07.69.69,0,0,1,.77-.6l.09,0c.51.07.88.39.77.93A.83.83,0,0,1,134,204Z"/><path class="cls-98" d="M127,207.55a.63.63,0,0,1,.65-.59c.35,0,.41.29.39.56a.53.53,0,0,1-.53.47.43.43,0,0,1-.51-.33A.4.4,0,0,1,127,207.55Z"/><path class="cls-99" d="M138,197.92a.61.61,0,0,1,.64-.56c.33,0,.4.28.38.54a.5.5,0,0,1-.52.45.44.44,0,0,1-.5-.37Z"/><path class="cls-100" d="M128.9,204.93c0,.27-.09.52-.41.54a.46.46,0,0,1-.52-.41v0a.48.48,0,0,1,.44-.51h0a.39.39,0,0,1,.48.26A.34.34,0,0,1,128.9,204.93Z"/><path class="cls-101" d="M140,198.66a.43.43,0,0,1,.2.54.38.38,0,0,1-.45.28h0a.32.32,0,0,1-.19-.41.25.25,0,0,1,0-.07A1.9,1.9,0,0,1,140,198.66Z"/><path class="cls-102" d="M120.55,200.28a1.88,1.88,0,0,1-.3.69.43.43,0,0,1-.59.08l-.08-.09c-.13-.26.09-.49.35-.57a2.75,2.75,0,0,1,.57-.12Z"/><path class="cls-103" d="M144.46,194.79c-.1.08-.23.25-.39.29a.28.28,0,0,1-.35-.18.3.3,0,0,1,0-.13.38.38,0,0,1,.38-.36C144.28,194.4,144.47,194.46,144.46,194.79Z"/><path class="cls-104" d="M137.3,202.9c-.09.07-.19.2-.28.19a.23.23,0,0,1-.25-.21.25.25,0,0,1,.06-.17.35.35,0,0,1,.32-.12C137.23,202.62,137.26,202.79,137.3,202.9Z"/><path class="cls-66" d="M122.48,205.28c.08.08.22.17.22.25a.27.27,0,0,1-.25.29.28.28,0,0,1-.15,0,.35.35,0,0,1-.11-.32C122.21,205.37,122.38,205.33,122.48,205.28Z"/><path class="cls-105" d="M134.47,205.72c-.1.07-.2.2-.3.19a.29.29,0,0,1-.2-.4.4.4,0,0,1,.34-.12C134.39,205.42,134.42,205.6,134.47,205.72Z"/><path class="cls-106" d="M142.34,193.14c.22.05.55,0,.54.35a.36.36,0,0,1-.24.24c-.37,0-.3-.33-.34-.57Z"/><path class="cls-52" d="M145.81,212.55c.66.35.18,1.31,1,1.66a16.74,16.74,0,0,0,3.14.6c.44.1.74-.3,1-.64a4.52,4.52,0,0,1,1-1.25.6.6,0,0,1,.74-.07.69.69,0,0,1,.25.7c0,.63-.82,1.27-.17,1.85a7.38,7.38,0,0,0,1.78.88c1,.46,1.91,1.38,3.05.47.4.65,0,.73-.27.91a3.93,3.93,0,0,0-1.11,2.77,1.11,1.11,0,0,0,.76.61,4.63,4.63,0,0,1,1.8.83,2.41,2.41,0,0,1,.15.33,2.57,2.57,0,0,1-2-.13c-2.14-.7-2.18-.68-4.43.54.79.85,1.6,1.64,2.33,2.5.49.59,0,.8-.5.89l-.37-.06c-2-.77-3.59-2.77-6.09-2.25-.95,0-1.81,1.14-2.82.22h0a3.11,3.11,0,0,0-.4-.41h0a17.64,17.64,0,0,1-6.9-2.56c-.61-.37-1.6-.65-1-1.76a3.94,3.94,0,0,1,2.18,0c3.63.36,7.19-.21,11.28-.54a5.05,5.05,0,0,0-3.24-1.35c-1.75-.12-3.47-.48-5.22-.55-.66,0-1.77.15-1.49-1.21A29.29,29.29,0,0,0,145.81,212.55Z"/><path class="cls-53" d="M136.5,219.4c.27.7,1,.86,1.53,1.19a59.18,59.18,0,0,0,6.51,2.9h-.6c-1.36-.09-2-.13-1.84,1.76a2.84,2.84,0,0,1-.1,1,.62.62,0,0,1-.42.35.47.47,0,0,1-.58-.33s0,0,0-.06c-.08-.6-.09-1.21-.11-1.81a1.17,1.17,0,0,0-1-1.29h-.18a4.84,4.84,0,0,1-1.6-.15c-1.51-.63-2.58-.32-3.3,1.19a1.76,1.76,0,0,1-.64.76c-.43.24-.78,0-.84-.48a1.9,1.9,0,0,1,.14-.57c.13-.63.91-1.41.34-1.84a4.27,4.27,0,0,0-3.26-1.26,31.13,31.13,0,0,1-4.72.42,3.36,3.36,0,0,1,2.38-1.62,2.92,2.92,0,0,0,2.3-2.21C133,215.82,135.21,216.58,136.5,219.4Z"/><path class="cls-55" d="M136.5,219.4c-.71-.54-1.73-.76-1.73-2,0-.38-.43-.48-.77-.47-1.19,0-2.41-.29-3.55.35l-.77-.78a.26.26,0,0,1,.33-.13.22.22,0,0,1,.09.07,25.83,25.83,0,0,0,10.08-1c.1.61.54.73,1,.68,2-.2,4,.48,6,.51a5.14,5.14,0,0,1,3.16,1.16c.6.48.54.9-.15,1.18a3.92,3.92,0,0,1-1.54.41c-3.08-.1-6.13.62-9.22.4C138.5,219.76,137.5,219.19,136.5,219.4Z"/><path class="cls-107" d="M147.79,223.12c2.68-.47,4.28,1.37,6.06,2.82l-3.62-.79a.25.25,0,0,1-.35,0,.2.2,0,0,1-.08-.12c-.48-.47-1.12-.21-1.67-.39-.92-.28-.71.43-.79.89C146.23,224.42,146.3,224.05,147.79,223.12Z"/><path class="cls-108" d="M147.79,223.12c-.81.68-1.23,1.44-.45,2.43a1.8,1.8,0,0,1,0,.4c-.07.55.31,1.39-.55,1.49s-.86-.72-1-1.27c-.22-.79-.8-1.42-.83-2.26C146.07,224.32,146.72,223,147.79,223.12Z"/><path class="cls-109" d="M136.9,226.19c-.43-.11-.78-.33-.72-.81a.73.73,0,0,1,.77-.71h0c.51,0,.68.37.67.82a.64.64,0,0,1-.56.71A.66.66,0,0,1,136.9,226.19Z"/><path class="cls-110" d="M143.81,224.83c.34.08.59.25.58.63s-.29.39-.55.38a.49.49,0,0,1-.47-.5.43.43,0,0,1,.36-.5Z"/><path class="cls-85" d="M129.27,223c.29,0,.56,0,.61.36a.51.51,0,0,1-.54.61c-.37,0-.57-.1-.63-.38S129,223,129.27,223Z"/><path class="cls-82" d="M131.75,222a.49.49,0,0,1,.56.41v0a.42.42,0,0,1-.29.46.47.47,0,0,1-.62-.23.14.14,0,0,1,0-.06C131.28,222.32,131.48,222.15,131.75,222Z"/><path class="cls-72" d="M144.33,227.24a.43.43,0,0,1-.45.28c-.31,0-.49-.21-.37-.51s.32-.23.52-.18S144.39,227,144.33,227.24Z"/><path class="cls-111" d="M139.44,227.66c-.13.05-.29.19-.45.18s-.46-.22-.33-.52.32-.2.51-.14a.36.36,0,0,1,.29.42S139.45,227.64,139.44,227.66Z"/><path class="cls-91" d="M149.92,227.8c-.1-.11-.33-.21-.36-.36-.07-.31.18-.47.47-.44a.38.38,0,0,1,.35.4h0C150.37,227.61,150.2,227.74,149.92,227.8Z"/><path class="cls-67" d="M127.34,217.94a.35.35,0,0,1,.43.24v0c.06.26-.16.32-.35.32a.45.45,0,0,1-.33-.15C127,218.12,127.15,218,127.34,217.94Z"/><path class="cls-112" d="M149.8,225.05l.43.1c0,.31-.11.76-.51.61S149.54,225.28,149.8,225.05Z"/><path class="cls-113" d="M135,226.89a.34.34,0,0,1,.38.31c0,.2-.2.28-.38.26s-.29-.1-.31-.18A.45.45,0,0,1,135,226.89Z"/><path class="cls-114" d="M130.11,216.48l-.42.06a1,1,0,0,1-.84-.4A1.36,1.36,0,0,1,130.11,216.48Z"/><path class="cls-108" d="M144.55,223.5l.4.41Z"/><path class="cls-11" d="M163.87,176.39l-2,0c0-.19.07-.39.12-.58a1.27,1.27,0,0,1,1.45-1,1.37,1.37,0,0,1,.36.11C164.66,175.2,163.71,175.86,163.87,176.39Z"/><path class="cls-11" d="M166.7,176.79c-.82-.12-1.72.3-2.43-.41C165.08,176.5,166,176.06,166.7,176.79Z"/><path class="cls-11" d="M161.45,176.37c-.71.7-1.61.27-2.42.37C159.75,176,160.64,176.47,161.45,176.37Z"/><path class="cls-11" d="M168.72,177.21c-.45,0-.92,0-1.22-.41C167.94,176.81,168.42,176.73,168.72,177.21Z"/><path class="cls-11" d="M158.23,176.73a.86.86,0,0,1-.82.4A.83.83,0,0,1,158.23,176.73Z"/><path class="cls-11" d="M154.57,178.73l-.41.39Z"/><path class="cls-11" d="M155,178.32l-.41.41Z"/><path class="cls-11" d="M157,177.13l-.42.39Z"/><path class="cls-11" d="M156.2,177.53l-.41.39Z"/><path class="cls-11" d="M155.39,177.92l-.41.41Z"/><path class="cls-11" d="M154.16,179.12l-.4.4Z"/><path class="cls-115" d="M57.73,179.22c.7-2.22.9-2.34,3.33-2.39,4.24-.1,8.42.06,12.43,1.67.67.27,1.44.39,1.59,1.31.41.44.29,1,.3,1.51.05,3.83,1.8,5.92,5.56,6.7.83.18,1.77,0,2.46.66a1.63,1.63,0,0,1,.39,1.68c-.68,4.95-2.61,9.23-6.54,12.47-1,0-1-.93-1.51-1.44-1.7-1.89-3.76-2-5.61-.27a9.15,9.15,0,0,0-3,7.36c0,.53.14,1.07-.31,1.51,0,.92-.77,1.2-1.45,1.49-5.78,2.45-11.57,4.72-17.81,5.58a11.55,11.55,0,0,1-9.57-2.79,11.15,11.15,0,0,1-3.49-7.49,24.37,24.37,0,0,1,3.2-15,29.46,29.46,0,0,1,9.07-9.87c4.55,2.38,6.84,1.89,10.27-2.15A1.53,1.53,0,0,1,57.73,179.22Z"/><path class="cls-115" d="M61.28,232.64a11,11,0,0,0-6.49-2.12,13.63,13.63,0,0,0-4.38,1.23c-.2-.55-.73-.73-1.14-1.07a3.92,3.92,0,0,1-1-5.46,4.15,4.15,0,0,1,1.05-1,4.61,4.61,0,0,1,.85-.52c4-1.9,8.09-3.14,12.55-1.91a6,6,0,0,1,4.73,5.77,4.57,4.57,0,0,1-3.18,4.6A6.93,6.93,0,0,1,61.28,232.64Z"/><path class="cls-18" d="M66.76,210c-.73-3.51.39-6.42,2.71-9.05a4.31,4.31,0,0,1,7.39,1.19c.11.24.26.47.39.7a30.89,30.89,0,0,1,0,3.6,7.17,7.17,0,0,1-4,5.79c-2.22,1.15-4.1.66-5.69-1.27A5.65,5.65,0,0,1,66.76,210Z"/><path class="cls-18" d="M83.4,188.68A9.07,9.07,0,0,1,78,187.47a6.19,6.19,0,0,1-3-6.86,5.31,5.31,0,0,1,.11-.8c.19-.28.37-.56.56-.83,2.9-4,7.48-3.17,9.74.07a7.75,7.75,0,0,1,1.51,5.09A5.19,5.19,0,0,1,83.4,188.68Z"/><path class="cls-115" d="M84.49,207.86a15.2,15.2,0,0,1,.76-5.27c.06-.2.18-.41.14-.58-.42-1.47.48-2,1.63-2.3a3.26,3.26,0,0,1,3.75,1.2,4.08,4.08,0,0,1,.59,1.27,12.31,12.31,0,0,1-2,10.66,2.45,2.45,0,0,1-4.45-.56,5.18,5.18,0,0,1-.44-1.94C84.5,209.6,84.49,208.87,84.49,207.86Z"/><path class="cls-116" d="M57.73,179.22c-1.14,2.85-3.43,4.19-6.26,4.73-2,.37-3.77.08-4.78-2a10.08,10.08,0,0,1,.29-3.33,6.68,6.68,0,0,1,3.83-3.53c.36.75.37.76,0,1.24a19,19,0,0,0-1.7,2c-.28.48-.51,1-.11,1.49a1.11,1.11,0,0,0,1.45.28,12,12,0,0,0,3.85-2.77c.94-1-.22-1.95-.26-2.94,2.43,0,3.57,1.12,3.65,3.45C57.71,178.29,57.71,178.75,57.73,179.22Z"/><path class="cls-117" d="M54.05,174.37c1.66,1.5,1.58,2.84-.23,4.14-.76.54-1.49,1.11-2.26,1.64a3.09,3.09,0,0,1-1.65.64c-1.42.06-2-.79-1.59-2.15.29-.9,1.08-1.34,1.57-2,.33-.47,1.32-.56.92-1.49A4.34,4.34,0,0,1,54.05,174.37Z"/><path class="cls-118" d="M88.19,224.3c-.75,0-1.32,0-1.38-.9a5.74,5.74,0,0,1,2.85-4.55c.81-.31,1.17-.12,1.19.73a7.52,7.52,0,0,1-1.49,4.26A1.26,1.26,0,0,1,88.19,224.3Z"/><path class="cls-119" d="M52.64,236.15h-.91c-.84-.11-1.14-.65-.81-1.39.6-1.38,4.34-3.06,5.74-2.55a1.11,1.11,0,0,1,.84,1.34.63.63,0,0,1-.08.23,2.75,2.75,0,0,1-1.61,1.69A6.23,6.23,0,0,1,52.64,236.15Z"/><path class="cls-119" d="M29.66,197a3.43,3.43,0,0,1-1.51,3.09,1.31,1.31,0,0,1-1.83-.18,1.33,1.33,0,0,1-.29-.68,4.8,4.8,0,0,1,1.43-4,1.31,1.31,0,0,1,1.48-.32,1.2,1.2,0,0,1,.73,1.29Z"/><path class="cls-37" d="M42.93,92.15a2.22,2.22,0,0,1-2,2c-.78-.08-.88-.69-.85-1.32a1.72,1.72,0,0,1,1.72-1.73h.05a1,1,0,0,1,1.09.9A.43.43,0,0,1,42.93,92.15Z"/><path class="cls-120" d="M50.73,131.22c-.09.63-.43,1.08-1.15,1s-.85-.55-.86-1.13.24-1.1.9-1S50.77,130.39,50.73,131.22Z"/><path class="cls-121" d="M34.53,115a1.23,1.23,0,0,1,1.2-.86.87.87,0,0,1,.94.79.81.81,0,0,1,0,.22.91.91,0,0,1-.94.88l-.17,0A1.14,1.14,0,0,1,34.53,115Z"/><path class="cls-122" d="M38.53,76.88a1.71,1.71,0,0,1-2.12-1.15s0,0,0-.06a2.17,2.17,0,0,1,1.23-2.3,6.72,6.72,0,0,1,2-.85,2,2,0,0,1,2.26.91c.61.93.14,1.68-.42,2.36A3.16,3.16,0,0,1,38.53,76.88Z"/><path class="cls-123" d="M51.53,77.4c-1.25,0-2.05-.72-2-1.75a2.47,2.47,0,0,1,2.15-2.29,2.08,2.08,0,0,1,2.24,1.9v.11A2.37,2.37,0,0,1,51.53,77.4Z"/><path class="cls-123" d="M57.5,81.07h.81c1.51.17,1.91,1.08,1,2.32a1.9,1.9,0,0,1-1.88.89,1.1,1.1,0,0,1-1.13-.93A1.55,1.55,0,0,1,57,81.48a2.4,2.4,0,0,0,.43-.41Z"/><path class="cls-123" d="M57.55,81.07c-.69-.1-1.49.28-2-.49a1.55,1.55,0,0,1,0-2.16c.52-.51,1.08-1.07,1.9-.75a1.81,1.81,0,0,1,.78,2.23,6.47,6.47,0,0,1-.75,1.17Z"/><path class="cls-124" d="M45.66,72.12c.7.16,1.08.5,1,1.13a1.27,1.27,0,0,1-1.48,1,.74.74,0,0,1-.79-.92A1.65,1.65,0,0,1,45.66,72.12Z"/><path class="cls-124" d="M63.91,79.14a.8.8,0,0,1-.79.69.52.52,0,0,1-.63-.38.38.38,0,0,1,0-.15c0-.52.27-.91.83-.87a.65.65,0,0,1,.6.7Z"/><path class="cls-44" d="M66.53,77.1a1.85,1.85,0,0,1,0,2.41A14.9,14.9,0,0,1,66.53,77.1Z"/><path class="cls-44" d="M60.41,76.25v1.22c-.43-.31-.38-.78-.39-1.23Z"/><path class="cls-44" d="M62.85,76.23a.84.84,0,0,1,.81-.37A.84.84,0,0,1,62.85,76.23Z"/><path class="cls-44" d="M61.63,77l.39-.38Z"/><path class="cls-44" d="M65.21,75.89l.45.37Z"/><path class="cls-44" d="M60.43,77.86h.34C60.66,78.09,60.53,78.1,60.43,77.86Z"/><path class="cls-44" d="M62,76.64l.44-.38Z"/><path class="cls-125" d="M48.21,86.66a33.55,33.55,0,0,0-6.76-6.49,1.78,1.78,0,0,1-.82-.83,12.27,12.27,0,0,1,8.06,2.53A9,9,0,0,1,52.18,90,11.24,11.24,0,0,1,48.21,86.66Z"/><path class="cls-37" d="M92.76,120.75a1.08,1.08,0,0,1-1.23,1,1.84,1.84,0,0,1-1.88-1.8v-.1a1,1,0,0,1,1-1A2.36,2.36,0,0,1,92.76,120.75Z"/><path class="cls-126" d="M100,81a1,1,0,0,1,1.08,1.09c0,.73-.53.87-1.11.9s-1.12-.16-1.08-.83a1.06,1.06,0,0,1,1-1.16Z"/><path class="cls-127" d="M85.74,96.76c.55.16,1,.47,1,1s-.53.84-1.1.81-1.12-.22-1-.89A1.19,1.19,0,0,1,85.74,96.76Z"/><path class="cls-122" d="M89.46,135.84c.49.45,1,.88,1.48,1.34a1.77,1.77,0,0,1,.39,2,1.7,1.7,0,0,1-1.75,1.09A4.31,4.31,0,0,1,86.5,139c-1.25-1.22-.74-2.78,1-3.13a13.33,13.33,0,0,1,2-.06Z"/><path class="cls-123" d="M106.72,131.68c-.32-.37-.54-.63-.74-.88a1,1,0,0,1,0-1.41l0,0a1.5,1.5,0,0,1,1.79-.53,1.83,1.83,0,0,1,1.35,2.23,1.79,1.79,0,0,1-.83,1.14,1,1,0,0,0-.5,1c.12,1.56-.2,2.19-1.09,2.36a1.55,1.55,0,0,1-1.78-1c-.49-1-.07-1.83,1.17-2.57C106.27,131.88,106.39,131.84,106.72,131.68Z"/><path class="cls-123" d="M103.18,137.53c0,1.13-.89,2.32-1.76,2.3a2.43,2.43,0,0,1-2.27-2.55,2,2,0,0,1,4,.25h0Z"/><path class="cls-124" d="M96.19,139.89a1,1,0,0,1-1.14.84l-.16,0a1.07,1.07,0,0,1-1-1.11s0-.09,0-.13c0-.61.45-.76,1-.7A1.6,1.6,0,0,1,96.19,139.89Z"/><path class="cls-128" d="M112.75,133.22a.93.93,0,0,1,.87.89c0,.52-.33.67-.77.65s-1.07-.23-1-.9C111.89,133.44,112.29,133.23,112.75,133.22Z"/><path class="cls-125" d="M92.3,133.43h-2A49.59,49.59,0,0,0,98,126.2c.85-1.44,2.49-2,3.63-3.38.84,1.88.1,3.29-.45,4.64-1.23,3-3.75,4.62-6.73,5.54A4.91,4.91,0,0,1,92.3,133.43Z"/><path class="cls-129" d="M141.07,94.88a1.36,1.36,0,0,1-1.16-1.39,2,2,0,0,1,1.94-1.69c.69,0,1.17.33,1.17,1.08A2.4,2.4,0,0,1,141.07,94.88Z"/><path class="cls-130" d="M136.8,115.78a1.05,1.05,0,0,1-1.08,1,1,1,0,0,1-1.14-.84.88.88,0,0,1,0-.28c0-.69.57-.84,1.15-.82a1,1,0,0,1,1.08.91Z"/><path class="cls-131" d="M149.4,130.74c.47.31,1.43.06,1.4,1a1.14,1.14,0,0,1-1.14,1.12h0c-.82,0-1-.81-1.05-1.44C148.54,131,148.91,130.77,149.4,130.74Z"/><path class="cls-122" d="M140.37,77.21a3.55,3.55,0,0,1-4-.45,3.75,3.75,0,0,1,3.84-3.55,1.71,1.71,0,0,1,1.61,1,1.77,1.77,0,0,1-.14,1.89A3.61,3.61,0,0,1,140.37,77.21Z"/><path class="cls-132" d="M153.7,76.19a2,2,0,0,1-2,1.94l-.25,0c-1.21,0-1.76-.57-1.74-1.7a2.13,2.13,0,0,1,1.9-2.32,1.5,1.5,0,0,1,.3,0C153.08,74.08,153.74,74.85,153.7,76.19Z"/><path class="cls-123" d="M157.29,82.19c-.33-.56-1-.26-1.44-.58a1.59,1.59,0,0,1-.67-1.73,2,2,0,0,1,1.61-1.61c.7-.22,1.13.24,1.49.74a1.62,1.62,0,0,1,.06,1.54c-.14.4-.69.75-.24,1.26C158.11,82.5,157.73,82.42,157.29,82.19Z"/><path class="cls-123" d="M157.29,82.19a.8.8,0,0,0,.81-.38c.71,0,1.41,0,1.55.91a1.81,1.81,0,0,1-1,2,2,2,0,0,1-2.1,0,1.13,1.13,0,0,1-.36-1.44A2.07,2.07,0,0,1,157.29,82.19Z"/><path class="cls-133" d="M145.57,72.9c.6.22,1.1.49,1,1.14s-.58.84-1.2.8-.91-.19-.91-.81C144.45,73.24,145.11,73.15,145.57,72.9Z"/><path class="cls-134" d="M163.36,79.14c.41.08.69.3.66.67-.06.69-.6.82-1.17.8-.28,0-.6-.15-.54-.46A1.23,1.23,0,0,1,163.36,79.14Z"/><path class="cls-125" d="M149.58,89c-2.7-3-5.16-6.14-8.48-8.45-.16-.11-.23-.33-.34-.5,3.42.22,6.58,1,9.06,3.67a10.54,10.54,0,0,1,2.49,5.79c.14.77-.44,1.11-1.14.69A18.39,18.39,0,0,1,149.58,89Z"/><path class="cls-35" d="M192.72,121.45a1.06,1.06,0,0,1-1.13,1h-.08a1.76,1.76,0,0,1-1.79-1.75v-.12a.89.89,0,0,1,.82-.94h.19A2.13,2.13,0,0,1,192.72,121.45Z"/><path class="cls-121" d="M200,81.71a1,1,0,0,1,1.12.87,1,1,0,0,1,0,.24c0,.71-.76.82-1.35.87a.72.72,0,0,1-.85-.56.82.82,0,0,1,0-.27,1.07,1.07,0,0,1,1-1.15Z"/><path class="cls-120" d="M186.65,98.46a.78.78,0,0,1-.88.9c-.56,0-1.1,0-1.12-.8,0-.52.21-1,.74-1a1.06,1.06,0,0,1,1.25.82S186.65,98.44,186.65,98.46Z"/><path class="cls-135" d="M189.2,136.57c.64.66,1.58,1,2.05,1.85.63,1.22.2,2.36-1.13,2.57a3.78,3.78,0,0,1-3.35-1,2,2,0,0,1-.7-2.33,1.74,1.74,0,0,1,1.93-1.13Z"/><path class="cls-123" d="M203.31,138.54a2.27,2.27,0,0,1-2.09,2,3.16,3.16,0,0,1-2.29-2.51,2,2,0,0,1,2-1.8A2.44,2.44,0,0,1,203.31,138.54Z"/><path class="cls-123" d="M206.6,132.69l-.43-.67a1.67,1.67,0,0,1,0-2.2c.54-.58,1.22-.35,1.85,0a2,2,0,0,1,1.31,2,1.17,1.17,0,0,1-1.19,1.15.62.62,0,0,1-.19,0c-.45-.06-.91-.17-1.36-.26Z"/><path class="cls-123" d="M206.59,132.69a8.9,8.9,0,0,1,1,.94,1.69,1.69,0,0,1-.14,2.34,1.73,1.73,0,0,1-2.34-.29,1.75,1.75,0,0,1-.09-2.46,1.78,1.78,0,0,1,1.56-.53Z"/><path class="cls-124" d="M196,140.67c0,.59-.38.81-.91.74a1.27,1.27,0,0,1-1.29-1.23c0-.55.49-.71,1-.72a1.09,1.09,0,0,1,1.2,1A.81.81,0,0,1,196,140.67Z"/><path class="cls-124" d="M213.37,134.68c0,.53-.18.78-.55.77a.86.86,0,0,1-.91-.8v0a.52.52,0,0,1,.4-.63.38.38,0,0,1,.15,0A.91.91,0,0,1,213.37,134.68Z"/><path class="cls-135" d="M190.83,136.58a.79.79,0,0,1,.8.34A.81.81,0,0,1,190.83,136.58Z"/><path class="cls-135" d="M189.21,136.2l.41.33h-.42Z"/><path class="cls-125" d="M192.05,134.17c-.44-.09-.93.15-1.43-.35,3.62-2.42,6.21-5.85,9.18-8.93.6-.25,1-1,1.9-.88a7.35,7.35,0,0,1-1.82,6.19A11.24,11.24,0,0,1,192.05,134.17Z"/><path class="cls-129" d="M167.61,99.91a1.64,1.64,0,0,1-1.74,1.32c-.52-.07-.9-.32-.9-.89,0-.78,1-1.89,1.62-1.79A1.6,1.6,0,0,1,167.61,99.91Z"/><path class="cls-125" d="M172.69,74.23a28.92,28.92,0,0,1-3.36,4c-.48.38-.84.9-1.52.88-.15-2.81-2.11-4-4.84-3a20.37,20.37,0,0,0-2.19,1.1c-.29-.57-.6-1.13-.93-1.78a18,18,0,0,1,7-3c2-.32,3.68.29,5.46.74C173,73.27,172.92,73.76,172.69,74.23Z"/><path class="cls-136" d="M117.45,114.37a1.09,1.09,0,0,1-1.11,1,1.85,1.85,0,0,1-1.43-1.83,1.1,1.1,0,0,1,1.14-.91A1.61,1.61,0,0,1,117.45,114.37Z"/><path class="cls-125" d="M117.33,134.83a9.45,9.45,0,0,1,3.63,3.3l1.18,1.58c.18.72.09,1.15-.77,1.42a11.64,11.64,0,0,1-10-1.25c-.62-.38-1.23-.8-1.93-1.27l.78-2c1.68,1.29,3.36,2.4,5.52,1.4A2.73,2.73,0,0,0,117.33,134.83Z"/><path class="cls-26" d="M217.39,114.87c0,.72-.72,1.39-1.32,1.22a1.55,1.55,0,0,1-1.23-1.63,1,1,0,0,1,.94-1.06H216A1.52,1.52,0,0,1,217.39,114.87Z"/><path class="cls-125" d="M217.1,137.17c.58-.25.18-1,.74-1.36a23.54,23.54,0,0,1,4.47,5c0,.68-.52.92-1,1.06a12.09,12.09,0,0,1-10.4-1.54c-1.63-1-1.57-1.17-.39-3.07a6.6,6.6,0,0,0,3.12,1.72A2.94,2.94,0,0,0,217.1,137.17Z"/><path class="cls-31" d="M66.54,97.77c.79.11,1,.69,1,1.41a1.22,1.22,0,0,1-1.1,1.34,1.13,1.13,0,0,1-.26,0c-.58,0-1-.13-1.06-.84S65.84,97.77,66.54,97.77Z"/><path class="cls-125" d="M72.56,73.91a35.16,35.16,0,0,1-4,4.41c-.25,0-.66.47-.67-.21-.07-2.17-.9-3-3-3a4.51,4.51,0,0,0-3.18,1,.92.92,0,0,1-1.24.2,2.46,2.46,0,0,0-.54-1.71,17.48,17.48,0,0,1,7.11-3,11.13,11.13,0,0,1,5.29.83C73.12,72.72,72.84,73.34,72.56,73.91Z"/><path class="cls-137" d="M207.31,181.7c0,.27-.09.46-.28.51-.78.21-1-.55-1.37-.91s-.19-.86.24-1.17a.57.57,0,0,1,.8.06.36.36,0,0,1,.07.1A12,12,0,0,1,207.31,181.7Z"/><path class="cls-138" d="M200.15,183.53l-.46-.4a2.65,2.65,0,0,1,.26-.73c.32-.46.74-.58,1.15-.11s.16.75-.21,1A2.69,2.69,0,0,1,200.15,183.53Z"/><path class="cls-139" d="M213.4,180.42a.83.83,0,0,1-.82.69.53.53,0,0,1-.63-.41,1.09,1.09,0,0,1,0-.18.77.77,0,0,1,.88-.84A.69.69,0,0,1,213.4,180.42Z"/><path class="cls-140" d="M191.58,196c.4.07,1-.19,1.08.48a.59.59,0,0,1-.56.63.5.5,0,0,1-.24,0c-.67-.18-.42-.66-.28-1.08Z"/><path class="cls-141" d="M187.93,194.56a.55.55,0,0,1-.53.51c-.3,0-.53-.17-.49-.49a.63.63,0,0,1,.55-.51C187.77,194,187.91,194.25,187.93,194.56Z"/><path class="cls-142" d="M197.84,184.29a.44.44,0,0,1-.58.23l0,0a.33.33,0,0,1-.09-.32.44.44,0,0,1,.58-.22l0,0C197.9,184,197.93,184.15,197.84,184.29Z"/><path class="cls-142" d="M189.33,194.29c.08-.07.17-.19.25-.19a.23.23,0,0,1,.26.17.23.23,0,0,1-.05.18.33.33,0,0,1-.3.12C189.42,194.57,189.38,194.39,189.33,194.29Z"/><path class="cls-143" d="M191.1,187.48c-.08.08-.14.22-.23.23s-.33-.14-.26-.35.21-.15.31-.13S191,187.39,191.1,187.48Z"/><path class="cls-144" d="M196,183.45c-.07.08-.14.22-.22.23a.24.24,0,0,1-.29-.18.2.2,0,0,1,0-.17c0-.07.2-.15.3-.13S195.91,183.36,196,183.45Z"/><path class="cls-145" d="M190.28,189.36s.07.1.05.14-.12.17-.2,0,0-.11,0-.15S190.24,189.37,190.28,189.36Z"/><path class="cls-137" d="M176.41,213c-.11-.62.23-.88.76-.92s1,.12.89.73-.09,1.52-.91,1.56S176.68,213.4,176.41,213Z"/><path class="cls-146" d="M184.25,212.09l-.44.79c-.5,0-1.12.1-1.34-.52-.15-.44.25-.72.58-.88C183.7,211.14,184,211.65,184.25,212.09Z"/><path class="cls-147" d="M172,215a.6.6,0,0,1-.58.63h0c-.42,0-.81,0-.86-.57s.26-.57.62-.6S171.92,214.44,172,215Z"/><path class="cls-148" d="M197.07,220.63c.13.37.36.78-.13,1s-1,.24-1.19-.31.32-.64.72-.71a4,4,0,0,1,.6,0Z"/><path class="cls-149" d="M200.51,217.7a.55.55,0,0,1-.59.43.53.53,0,0,1-.56-.48.56.56,0,0,1,.57-.53l.13,0A.53.53,0,0,1,200.51,217.7Z"/><path class="cls-150" d="M194.1,212.29c.07.08.26.19.29.34s-.17.3-.35.29a.38.38,0,0,1-.38-.35C193.66,212.35,193.8,212.25,194.1,212.29Z"/><path class="cls-149" d="M186.89,212.55c-.08.06-.18.19-.26.18a.23.23,0,0,1-.24-.23.24.24,0,0,1,0-.15.36.36,0,0,1,.31-.1C186.82,212.26,186.85,212.42,186.89,212.55Z"/><path class="cls-145" d="M197.93,218c.07.08.2.17.2.25a.24.24,0,0,1-.23.25.2.2,0,0,1-.13,0,.31.31,0,0,1-.11-.3C197.68,218.06,197.83,218,197.93,218Z"/><path class="cls-141" d="M188.12,211c-.1.06-.21.18-.29.16a.23.23,0,0,1-.16-.39.33.33,0,0,1,.31-.07C188.06,210.69,188.07,210.85,188.12,211Z"/><path class="cls-151" d="M195.66,214a1.11,1.11,0,0,1-.17.3.16.16,0,0,1-.21,0,.13.13,0,0,1-.06-.12.34.34,0,0,1,.14-.28C195.43,213.87,195.54,214,195.66,214Z"/><path class="cls-152" d="M198.7,223.39s-.12,0-.14-.06,0-.17.16-.15.07.08.11.11Z"/><path class="cls-153" d="M180.72,189.58c0,.51-1,1.4-1.36,1.28a.55.55,0,0,1-.38-.68.5.5,0,0,1,.05-.13c.22-.49-.13-1.36.82-1.36a.84.84,0,0,1,.87.82Z"/><path class="cls-154" d="M174.35,186a.54.54,0,0,1,.65-.58.76.76,0,0,1,.78.72.63.63,0,0,1-.55.7.74.74,0,0,1-.21,0A.8.8,0,0,1,174.35,186Z"/><path class="cls-155" d="M159.37,186.83c.06.38.65.83,0,1.14a.62.62,0,0,1-.85-.26.73.73,0,0,1-.07-.19c-.07-.63.51-.62.95-.69Z"/><path class="cls-156" d="M158.34,182.51a.5.5,0,0,1-.42.56h0a.55.55,0,0,1-.69-.38.36.36,0,0,1,0-.11.69.69,0,0,1,.34-.44C157.91,182,158.18,182.15,158.34,182.51Z"/><path class="cls-157" d="M172.12,182.53a.36.36,0,0,1-.4.3c-.28,0-.51-.16-.41-.47,0-.11.3-.19.47-.2A.34.34,0,0,1,172.12,182.53Z"/><path class="cls-158" d="M172.06,184.88a.4.4,0,0,1-.4-.32c0-.2.12-.38.33-.32a.64.64,0,0,1,.39.33C172.46,184.8,172.27,184.87,172.06,184.88Z"/><path class="cls-141" d="M165.46,181c.08.07.22.14.22.22a.24.24,0,0,1-.18.29.29.29,0,0,1-.16,0,.35.35,0,0,1-.14-.3C165.22,181.09,165.37,181,165.46,181Z"/><path class="cls-159" d="M159.4,184.35c-.1-.06-.25-.09-.29-.17s.06-.2.1-.31a1.81,1.81,0,0,1,.29.19C159.61,184.15,159.55,184.26,159.4,184.35Z"/><path class="cls-145" d="M163.56,181.87s-.1.06-.14,0-.17-.13,0-.21a.19.19,0,0,1,.15,0A1.16,1.16,0,0,0,163.56,181.87Z"/><path class="cls-153" d="M216.61,204.64c.46.06,1.18-.2,1,.73a.45.45,0,0,1-.55.34l-.08,0c-.47-.21-.28-.67-.31-1Z"/><path class="cls-156" d="M204.07,207.56a.36.36,0,0,1,.3.39c0,.29-.17.51-.47.42-.11,0-.19-.31-.19-.48a.31.31,0,0,1,.28-.34Z"/><path class="cls-160" d="M216.13,200.71c-.26,0-.32-.19-.3-.39a.53.53,0,0,1,.46-.51c.19,0,.42,0,.42.25A.71.71,0,0,1,216.13,200.71Z"/><path class="cls-161" d="M208.78,202.15c-.08.08-.14.22-.22.22a.24.24,0,0,1-.29-.18.23.23,0,0,1,0-.16.35.35,0,0,1,.3-.14A1.34,1.34,0,0,1,208.78,202.15Z"/><path class="cls-162" d="M215.34,202.46c-.07-.09-.19-.18-.18-.26a.24.24,0,0,1,.24-.24.28.28,0,0,1,.13,0,.36.36,0,0,1,.1.31C215.63,202.38,215.44,202.41,215.34,202.46Z"/><path class="cls-163" d="M210.82,201.92c-.11.05-.22.14-.31.13a.18.18,0,0,1-.08-.29,1.08,1.08,0,0,1,.3-.16Z"/><path class="cls-164" d="M203.77,206.16l-.32.16c0-.12-.12-.26-.08-.33a.33.33,0,0,1,.31-.13C203.84,205.88,203.86,206,203.77,206.16Z"/><path class="cls-156" d="M160.5,219.83a.53.53,0,0,1-.62.41.62.62,0,0,1-.58-.65v0c0-.34.31-.39.59-.35A.64.64,0,0,1,160.5,219.83Z"/><path class="cls-137" d="M156,222.38c.2,0,.49,0,.5.38s-.29.39-.54.4-.7,0-.63-.48C155.32,222.4,155.63,222.33,156,222.38Z"/><path class="cls-145" d="M148.24,210.57h.41c.26,0,.55,0,.63.35a.34.34,0,0,1-.13.32.53.53,0,0,1-.73-.16.77.77,0,0,1-.07-.16,2.59,2.59,0,0,1-.09-.4Z"/><path class="cls-165" d="M156.17,215.52c-.08.07-.16.2-.24.2a.23.23,0,0,1-.25-.21.17.17,0,0,1,0-.14.3.3,0,0,1,.29-.11A1.17,1.17,0,0,1,156.17,215.52Z"/><path class="cls-166" d="M155,213.92c-.09.06-.19.19-.27.18a.24.24,0,0,1-.24-.24.18.18,0,0,1,0-.14.39.39,0,0,1,.32-.1C154.91,213.66,154.94,213.82,155,213.92Z"/><path class="cls-142" d="M158.16,220c-.08.07-.18.19-.25.19a.23.23,0,0,1-.26-.19.29.29,0,0,1,0-.16.31.31,0,0,1,.3-.11C158.07,219.73,158.1,219.88,158.16,220Z"/><path class="cls-167" d="M158,225.05c-.05,0-.1.06-.14,0s-.17-.12,0-.2.11,0,.15,0S158,225,158,225.05Z"/><path class="cls-168" d="M147.45,212.27s.14,0,.15.07a.16.16,0,0,1-.21.17.17.17,0,0,1-.08-.14A.77.77,0,0,0,147.45,212.27Z"/><path class="cls-55" d="M211.06,185.2a2.57,2.57,0,0,1-1.23,2.82,38.91,38.91,0,0,1-9.21,2.74c-1.17.25-2.34.53-3.53.75a.94.94,0,0,1-1.07-.36c-.27-.41,0-.78.23-1.1a4.58,4.58,0,0,1,2.41-1.76c2.59-.88,5-2.16,7.73-2.83,1-.24,2-.45,2.93-.64A2.48,2.48,0,0,1,211.06,185.2Z"/><path class="cls-55" d="M177.28,220.89c-.65-.71-1.73-.19-2.41-.81-.34-1.69-.29-1.87,1.19-2.34a12.79,12.79,0,0,1,3.5-.79c2.88,0,5.71-.65,8.6-.43a3.25,3.25,0,0,1,2.84,1.67c-3.26,1.54-6.72,1.74-10.08,2.34-.61.46-1.42-.1-2,.38Z"/><path class="cls-53" d="M178.89,220.91c.58-.66,1.34-.3,2-.38C180.35,221.19,179.58,220.83,178.89,220.91Z"/><path class="cls-55" d="M178.67,196.68c-.82.67-1.62.08-2.43,0h0c-.13-.14-.27-.27-.41-.4-2.2-.78-3.76-2.49-5.55-3.86-1.22-.93-2.32-2-3.45-3a5.48,5.48,0,0,1-.92-1.06c-.55-.86-.23-1.36.83-1.38a2.62,2.62,0,0,1,1.34.34,58.47,58.47,0,0,1,9.29,5.92,10.44,10.44,0,0,1,1.52,1.6,1.22,1.22,0,0,1,0,1.72A1,1,0,0,1,178.67,196.68Z"/><path class="cls-53" d="M175.84,196.26l.41.4Z"/><path class="cls-169" d="M125.69,193.87c-.07.36-.32.73-.63.6a2.2,2.2,0,0,1-1.5-1.39c-.12-.53.39-.8.9-.8S125.69,193.22,125.69,193.87Z"/><path class="cls-170" d="M121.31,197.9c.41,0,.76.15.73.66a.87.87,0,0,1-.87.85h0a.59.59,0,0,1-.62-.56v0a.74.74,0,0,1,.55-.89A.65.65,0,0,1,121.31,197.9Z"/><path class="cls-171" d="M129.44,188.24v.8l-.18.07c-.41.19-.82.53-1.25.08a.65.65,0,0,1,0-.9C128.48,187.69,129,188,129.44,188.24Z"/><path class="cls-141" d="M144.42,186.32c.88.15,1,.61.48,1.26a.56.56,0,0,1-.77.18.39.39,0,0,1-.1-.08.45.45,0,0,1-.11-.64L144,187C144.13,186.77,144.27,186.54,144.42,186.32Z"/><path class="cls-144" d="M144.89,181.61a.49.49,0,0,1,.53.48.52.52,0,0,1-.54.48.38.38,0,0,1-.38-.39A.47.47,0,0,1,144.89,181.61Z"/><path class="cls-172" d="M131.59,186.64c-.15.23-.35.36-.61.21a.31.31,0,0,1-.1-.31.44.44,0,0,1,.58-.23l0,0C131.65,186.39,131.68,186.5,131.59,186.64Z"/><path class="cls-173" d="M131.37,184.65c-.08.07-.17.2-.25.2a.24.24,0,0,1-.26-.2.27.27,0,0,1,0-.16c0-.08.21-.14.3-.12S131.32,184.55,131.37,184.65Z"/><path class="cls-158" d="M143.9,184c-.1.06-.21.17-.29.16a.24.24,0,0,1-.21-.26.21.21,0,0,1,.07-.13.3.3,0,0,1,.3-.07C143.84,183.73,143.86,183.88,143.9,184Z"/><path class="cls-174" d="M139.36,182.43c-.1,0-.24.12-.31.07a.34.34,0,0,1-.14-.28c0-.16.16-.19.28-.09A1.11,1.11,0,0,1,139.36,182.43Z"/><path class="cls-164" d="M137.36,182a1.26,1.26,0,0,1-.18.32.16.16,0,0,1-.22,0,.16.16,0,0,1-.07-.14.37.37,0,0,1,.14-.3C137.11,181.92,137.25,182,137.36,182Z"/><path class="cls-55" d="M129.39,199.14a3.16,3.16,0,0,1-2.44.78c-.85-.44-.86-1-.5-1.85a14.87,14.87,0,0,1,2.29-3.28c1.86-2.21,4.26-3.86,6.35-5.82,1.19-1.11,2.61-1.35,2.85-.77.41,1-.44,1.73-1,2.45C134.69,193.72,132.45,196.8,129.39,199.14Z"/><path class="cls-18" d="M48.61,204.55a3.59,3.59,0,0,1,3.26,5.61,11.64,11.64,0,0,1-6,5.37,3.91,3.91,0,0,1-4.46-.84c-1.32-1.28-1.15-2.84-.71-4.34A8.93,8.93,0,0,1,48.61,204.55Z"/><path class="cls-119" d="M73.25,203.45a6.5,6.5,0,0,1-.66,2.52,1.94,1.94,0,0,1-1.92,1.22c-1,0-1.5-.41-1.5-1.43a5.61,5.61,0,0,1,3-4,.7.7,0,0,1,.89.42.2.2,0,0,1,0,.11A6.12,6.12,0,0,1,73.25,203.45Z"/><path class="cls-117" d="M80.58,177.37c2.48.08,4.16,1.62,4.12,3.55a2.29,2.29,0,0,1-1.77,2.38,2.11,2.11,0,0,1-2.49-.81,23.43,23.43,0,0,0-1.84-2.13c-1.22-1.34-.87-2.51.86-2.91A5.28,5.28,0,0,1,80.58,177.37Z"/><path class="cls-118" d="M43.08,211.36a3.89,3.89,0,0,1,1.56-4.58c.64-.47,1.38-.71,2,0a1.44,1.44,0,0,1-.09,2A8,8,0,0,1,43.08,211.36Z"/><rect class="cls-175" width="250" height="250"/></svg>