<svg id="Layer_1" data-name="Layer 1" xmlns="http://www.w3.org/2000/svg" viewBox="0 0 250 250"><defs><style>.cls-1{fill:#fec43f;}.cls-2{fill:#a6bcb0;}.cls-3{fill:#d35155;}.cls-4{fill:#9fb7aa;}.cls-5{fill:#b13f4c;}.cls-6{fill:#e81d2d;}.cls-7{fill:#cf973b;}.cls-8{fill:#99bdb4;}.cls-9{fill:#fed841;}.cls-10{fill:#f78337;}.cls-11{fill:#fdc133;}.cls-12{fill:#454760;}.cls-13{fill:#6d7780;}.cls-14{fill:#cd8939;}.cls-15{fill:#fee7a3;}.cls-16{fill:#e9212b;}.cls-17{fill:#f6a56f;}.cls-18{fill:#cb8432;}.cls-19{fill:#e8192b;}.cls-20{fill:#c78238;}.cls-21{fill:#e8192a;}.cls-22{fill:#ec402e;}.cls-23{fill:#fed141;}.cls-24{fill:#fed240;}.cls-25{fill:#f89639;}.cls-26{fill:#f47235;}.cls-27{fill:#fece40;}.cls-28{fill:#fedc42;}.cls-29{fill:#fedc41;}.cls-30{fill:#f15d33;}.cls-31{fill:#fece41;}.cls-32{fill:#c8fefe;}.cls-33{fill:#b3cfbc;}.cls-34{fill:#9dd2c2;}.cls-35{fill:#a1b6a8;}.cls-36{fill:#ef101d;}.cls-37{fill:#e81520;}.cls-38{fill:#e60928;}.cls-39{fill:#bc0d24;}.cls-40{fill:#bc0529;}.cls-41{fill:#c30821;}.cls-42{fill:#be162b;}.cls-43{fill:#c75b34;}.cls-44{fill:#e70e29;}.cls-45{fill:#e70f29;}.cls-46{fill:#f99e3a;}.cls-47{fill:#e60d29;}.cls-48{fill:#b70a2a;}.cls-49{fill:#f78237;}.cls-50{fill:#feefaa;}.cls-51{fill:#fed040;}.cls-52{fill:#fdcc3f;}.cls-53{fill:#e70a27;}.cls-54{fill:#f8b979;}.cls-55{fill:#ee462f;}.cls-56{fill:none;}</style></defs><title>products</title><path class="cls-1" d="M61.38,240.21V172.27c.3,0,.22.23.24.39v.66a2.9,2.9,0,0,1,0-.93,1.59,1.59,0,0,1,1.16-.24H84.27a2.25,2.25,0,0,1,1.09.15c.5.43.37,1,.37,1.58V218a7.57,7.57,0,0,0,4.81,7.48,7.79,7.79,0,0,0,10.27-4,7.59,7.59,0,0,0,.65-2.94V207a5.73,5.73,0,0,1,.1-1.49,1.36,1.36,0,0,1,.26-.41c2.1-1.16,2.67-3.08,2.66-5.29v-5.06c0-1.51-.23-1.82-1.65-2.32a3.73,3.73,0,0,1-.94-.41,1,1,0,0,1-.3-.38,8,8,0,0,1,0-2.76.72.72,0,0,1,.18-.25,3.81,3.81,0,0,1,1.64-.18c.89-.05,1.06-.21,1.09-1.12a14.53,14.53,0,0,0-.19-2.87,4.67,4.67,0,0,0-2.56-3.34.79.79,0,0,1-.18-.29c-.21-2.63-.09-5.26-.06-7.89a1.11,1.11,0,0,1,.17-.53.87.87,0,0,1,.31-.2,5.79,5.79,0,0,1,1.31-.07h48.81a2.66,2.66,0,0,1,1.55.21,1.09,1.09,0,0,1,.26.86v6.67a1.19,1.19,0,0,1-.17.72,1.7,1.7,0,0,1-1.4.33h-6.43a5,5,0,0,0-1.48.14l-.13.09a1.31,1.31,0,0,0-.22.25,2.6,2.6,0,0,0-.09.92V204a2.85,2.85,0,0,0,.08.92,1,1,0,0,0,.22.23,7.92,7.92,0,0,0,3.93-.14c.17-1.81,0-3.63.08-5.43a8.38,8.38,0,0,1,.06-1.22c.06-.37.24-.7.63-.72a14.73,14.73,0,0,1,4.64.14.86.86,0,0,1,.21.3,4.45,4.45,0,0,1,.08,1.31v39.3a2.51,2.51,0,0,1-.21,1.55,2.93,2.93,0,0,1-1.82.26H63.16C62.56,240.54,61.9,240.71,61.38,240.21Z"/><path class="cls-2" d="M61.38,240.21h92.37l.33-.17a6,6,0,0,1,1.58-.09h29.71c.51,0,1.07.14,1.51-.27a2.23,2.23,0,0,0,.17-1.37V174.2a4.68,4.68,0,0,1,.12-1.58.37.37,0,0,1,.29-.19v66.48c0,.81,0,1.34,1.1,1.41a3,3,0,0,1,2.64,3.12v1.5c.1,1.8.08,3.55-1.47,4.85L189,250H60.2a.66.66,0,0,1-.36-.08l-.33,0c-.23,0-.46.06-.61-.18a4.69,4.69,0,0,1-1.48-4.3v-1.68c0-2.29,1.22-3.54,3.48-3.56Z"/><path class="cls-2" d="M61.36,69.76a7.21,7.21,0,0,1-1.85-.12,3.15,3.15,0,0,1-2.08-3V63.37A3.08,3.08,0,0,1,60.22,60l.21,0a2.27,2.27,0,0,0,1,.08H187.17a2.58,2.58,0,0,0,1-.07,3.09,3.09,0,0,1,3,3.14v3.52a3,3,0,0,1-2.6,3.06c-.9-.32-1.78.1-2.67.09H61.58Z"/><path class="cls-3" d="M61.39,155.73v-86h0a1.61,1.61,0,0,1,.92-.1h91.15a.45.45,0,0,1,.34.11.38.38,0,0,1-.2.3,4.27,4.27,0,0,1-1.67.12H63.51c-.51,0-1.07-.18-1.5.28a2.74,2.74,0,0,0-.16,1.47v83.29a1.06,1.06,0,0,1-.09.36A.27.27,0,0,1,61.39,155.73Z"/><path class="cls-4" d="M188.19,60c-.29.27-.65.15-1,.15H61.4c-.33,0-.69.13-1-.16H187.05A10.79,10.79,0,0,1,188.19,60Z"/><path class="cls-5" d="M153.72,69.89v-.13c.24-.22.53-.12.8-.12h32.1c.27,0,.57-.09.82.1v86a.47.47,0,0,1-.27-.23,2,2,0,0,1-.09-.35V71.92a2.53,2.53,0,0,0-.17-1.46c-.38-.41-.87-.28-1.32-.28H155.32a3.2,3.2,0,0,1-1.47-.14Z"/><path class="cls-6" d="M61.55,172.38l-.16-.13v-6.47a1,1,0,0,1,.33-.17,7,7,0,0,1,1.12,0h20.9a4.87,4.87,0,0,1,1.21.07.3.3,0,0,1,.32.28c0,.2-.18.24-.32.29a4.38,4.38,0,0,1-1.4.11H63c-.62,0-.92.26-.92.9v3.65c0,.6.3.84.87.83H83.69a5.63,5.63,0,0,1,1.59.11c.17.07.33.16.31.39l-.09.16H62.29a5.23,5.23,0,0,0-.56,0C61.66,172.5,61.6,172.5,61.55,172.38Z"/><path class="cls-7" d="M187.25,155.72h.13V172.4h-.1l-.14-.12a1.89,1.89,0,0,1-.19-1v-5.69c-.06-2.62,0-5.24,0-7.86,0-1.3-.06-1.36-1.38-1.36H155.9a8.14,8.14,0,0,1-1.21,0c-.32,0-.72,0-.8-.47a1.17,1.17,0,0,1,.88-.25h32.3Z"/><path class="cls-8" d="M187.44,69.74H153.72v-.07a.07.07,0,0,1-.07-.1s0,0,.06,0H187.6c.33,0,.69-.12,1,.19Z"/><path class="cls-9" d="M61.41,156.28v-.37a2.14,2.14,0,0,1,1.26-.25H84.36a2.13,2.13,0,0,1,1.09.17.22.22,0,0,1,.06.32h0a2,2,0,0,1-1.35.26H62.1A1.66,1.66,0,0,1,61.41,156.28Z"/><path class="cls-10" d="M85.51,155.92H61.41a.28.28,0,0,1,0-.18h.15a1.59,1.59,0,0,1,1.16-.25H84.34a2,2,0,0,1,1,.14A.31.31,0,0,1,85.51,155.92Z"/><path class="cls-11" d="M61.41,156.28l.32-.17A1.26,1.26,0,0,1,62,157v8a1.18,1.18,0,0,1-.09.46.62.62,0,0,1-.39.37h-.12Q61.43,161.05,61.41,156.28Z"/><path class="cls-12" d="M58.9,249.77l.61.18-.06.05a8.93,8.93,0,0,1-2.13.07H47.8a1.43,1.43,0,0,1-.91-.1.28.28,0,0,0,0-.13l10.51-.05Z"/><path class="cls-13" d="M59.84,250h.22a2.39,2.39,0,0,1,.92-.06H187.91a5.89,5.89,0,0,1,.84,0v.24a1.79,1.79,0,0,1-1,.1H60.86a1.81,1.81,0,0,1-1-.1A.55.55,0,0,0,59.84,250Z"/><path class="cls-14" d="M187.27,240.05c-.17.28-.44.19-.68.19H153.92a2.28,2.28,0,0,1-.09-1.1V199.22a2.42,2.42,0,0,0-.08-1.1v-.19l.1-.13a2.54,2.54,0,0,1,.87-.32,4.13,4.13,0,0,0,3.25-4c.09-2.8.08-5.6,0-8.4a4,4,0,0,0-3.32-4c-.38-.1-.85-.1-.8-.7v-7.12c0-.68.23-1,.91-1h30.81c1.64,0,1.64,0,1.64,1.62v65A2.32,2.32,0,0,0,187.27,240.05Z"/><path class="cls-15" d="M101.83,172.38V181a1,1,0,0,1-.81.1,31.78,31.78,0,0,0-5.52-.15c-3,0-4.6,1.78-4.62,4.74v5.72c0,1.14.27,1.51,1.35,1.82,2.31.68,4.55,1.57,6.87,2.21a1.34,1.34,0,0,1,1.14,1.47v2.81a1.48,1.48,0,0,1-1.35,1.6h-.14a10.46,10.46,0,0,1-1.77,0,1.68,1.68,0,0,1-1.92-1.83c0-1.92-.4-1.71-1.94-1.72-2.53,0-2.22,0-2.24,2.23a8.24,8.24,0,0,0,.12,1.86,4,4,0,0,0,4,3.4,56.22,56.22,0,0,0,6.09-.06.86.86,0,0,1,.79.16v13.12A8.13,8.13,0,0,1,94,226.34a8.34,8.34,0,0,1-8.48-8.21v-.29c.08-14.74,0-29.48,0-44.21v-1.31h0A1.87,1.87,0,0,1,86.8,172h13.84A1.55,1.55,0,0,1,101.83,172.38Z"/><path class="cls-16" d="M122.47,201.28a4.2,4.2,0,0,1-4.15,4.26h-.16a52.64,52.64,0,0,1-5.33,0c-2.83-.15-4.37-1.78-4.46-4.62V185.84c0-3.46,1.71-5.18,5.18-5.17a34.76,34.76,0,0,1,5,.12c2.46.4,3.64,1.65,3.9,4.16v16.18A.77.77,0,0,1,122.47,201.28Z"/><path class="cls-16" d="M126.2,181a1.19,1.19,0,0,1,.81-.38h3a1,1,0,0,1,.8.38.51.51,0,0,1,.1.33v18.31a.5.5,0,0,0,.12.29,1.15,1.15,0,0,0,1.33.92l.1,0c1-.19,2.33.67,3.09-.72-.06,0-.07-.08-.05-.1h.08c.25-.33.14-.72.14-1.08V182.07c0-1.3.11-1.41,1.37-1.41h2.24c.9,0,1.12.44,1.11,1.22v18.51c0,3.47-1.73,5.19-5.17,5.19H131c-2.83,0-4.44-1.49-4.79-4.32a.65.65,0,0,1-.07-.34V181.37A.58.58,0,0,1,126.2,181Z"/><path class="cls-17" d="M101.85,205.38a38.46,38.46,0,0,1-6.44.19c-3,0-4.81-1.78-4.84-4.82v-2.34a.74.74,0,0,1,.58-.87.71.71,0,0,1,.25,0h3.08a.74.74,0,0,1,.82.64.57.57,0,0,1,0,.26q0,.42,0,.84c0,1.34.47,1.78,1.78,1.81,3.28.06,2.92-.2,2.92-2.91,0-2.11,0-2.12-2-2.76s-4-1.32-6-2c-1.13-.37-1.39-.71-1.39-1.89v-6c0-2.82,1.47-4.59,4.27-4.82a21.63,21.63,0,0,1,7,.25l.24.07c.16,2.36.06,4.73,0,7.09a.72.72,0,0,1-.19.52l-.07.07c-1.34.51-2.07.06-2.13-1.32v-.75a1,1,0,0,0-.12-.54c-.69-1.08-1.77-.68-2.72-.66a1.21,1.21,0,0,0-1.28,1.13s0,.06,0,.08v2.15c0,.72.4.8.87,1,1.36.45,2.71.94,4.09,1.33a3.12,3.12,0,0,1,1.35.6l.16.18a2.61,2.61,0,0,1,.11.92v11.46a2.16,2.16,0,0,1-.12.91Z"/><path class="cls-16" d="M153.71,197.9H149.6c-.71,0-1,.15-1,.92.06,1.87,0,3.74,0,5.61,0,.33.13.69-.18,1h-3.28c-.93,0-1.08-.14-1.1-1.08V182.12a7,7,0,0,1,.06-1.12c.24-.48.69-.33,1.07-.33h8.5l.09.15a4.55,4.55,0,0,1,.2,2.1v13.82a1.37,1.37,0,0,1-.3,1.12Z"/><path class="cls-17" d="M101.83,172.38H85.5V172a.94.94,0,0,1-.22-.51,29.66,29.66,0,0,1,.14-5.73.46.46,0,0,1,.21-.28,2.44,2.44,0,0,1,1-.15h14.2a3.29,3.29,0,0,1,.83.08,1,1,0,0,1,.31.17,5.2,5.2,0,0,1,.12,2V172a.48.48,0,0,1-.07.33Z"/><path class="cls-16" d="M102.05,205.19c-.21-.2-.14-.46-.14-.7V192.6a1.09,1.09,0,0,1,.16-.71c2.78.84,2.81.84,2.77,3.74a39.33,39.33,0,0,1-.14,6.14A4,4,0,0,1,102.05,205.19Z"/><path class="cls-15" d="M101.85,191.71c-2.11-.43-4.09-1.26-6.14-1.88a.62.62,0,0,1-.44-.72v-2.53a1.27,1.27,0,0,1,1.09-1.32,7,7,0,0,1,2.5,0,1.2,1.2,0,0,1,1.12,1.28.28.28,0,0,1,0,.09v.19c0,2.15.1,1.9,1.86,2Z"/><path class="cls-18" d="M187.27,240.05c-.34-.34-.18-.77-.18-1.15V174c0-1.52.16-1.38-1.33-1.38H155c-.92,0-1.15.26-1.13,1.15.06,2.31,0,4.62,0,6.93a.12.12,0,0,1-.17.06h0v-8.28l.14-.14a2.92,2.92,0,0,1,1.37-.18H185.8a2,2,0,0,1,1.43.28h.07v66.31C187.3,239.18,187.28,239.62,187.27,240.05Z"/><path class="cls-19" d="M102.05,172.38v-.16c-.22-.49,0-.6.46-.57,2.58.18,5.17.07,7.75.08H151.6a4.39,4.39,0,0,0,2-.29c.5.22.37.54.13.88v.11c-.34,0-.68-.05-1-.05Z"/><path class="cls-16" d="M101.89,188.67v-7a1,1,0,0,1,.19-.61c2.08.87,2.62,2.65,2.75,4.67a1.31,1.31,0,0,1,0,.28C104.73,189.05,105.35,188.77,101.89,188.67Z"/><path class="cls-11" d="M61.55,172.38a.28.28,0,0,1,.18,0v67.5c-.28-.16-.18-.36-.18-.52Q61.54,205.88,61.55,172.38Z"/><path class="cls-20" d="M153.74,198.09c.32.34.17.77.17,1.16v41h-.22V219.1Q153.69,208.53,153.74,198.09Z"/><path class="cls-21" d="M144.15,181c.35.33.2.76.2,1.15v22c0,.82.19,1.13,1,1.06s1.87,0,2.8-.07c.22,0,.27.07.3.24a9.19,9.19,0,0,1-4.3,0,1.56,1.56,0,0,1-.19-1.08V182.09a2,2,0,0,1,.15-1.09Z"/><path class="cls-22" d="M144.14,181v24.38h-.09c-.23-.2-.13-.46-.13-.7v-23A1.18,1.18,0,0,1,144,181Z"/><path class="cls-23" d="M144,181v24.35c-.37-.24-.23-.62-.23-.94V181.91C143.8,181.61,143.7,181.28,144,181Z"/><path class="cls-24" d="M126.05,201.27c-.31-.28-.19-.64-.19-1V182c0-.32-.13-.69.2-1a2.33,2.33,0,0,1,.17,1.19v17.9A2.11,2.11,0,0,1,126.05,201.27Z"/><path class="cls-25" d="M126.05,201.27V181h.19v.2a1.4,1.4,0,0,1,.06.64v18.51a1.16,1.16,0,0,1-.07.64v.21Z"/><path class="cls-26" d="M131.05,200h-.16a1,1,0,0,1-.09-.63V181.78a1.3,1.3,0,0,1,.06-.55V181h.19c.19.18.12.41.12.62v17.55a.94.94,0,0,1-.07.55Z"/><path class="cls-27" d="M135.58,200a.33.33,0,0,1,0,.14c-.24-.18-.18-.45-.19-.69V181.76a.4.4,0,0,1,.21-.35Z"/><path class="cls-28" d="M131.05,199.75V181c.33.22.22.56.22.85V199C131.24,199.23,131.32,199.53,131.05,199.75Z"/><path class="cls-29" d="M122.62,185v-.09l.12-.07a2,2,0,0,1,0,.35v16.48a.23.23,0,0,1-.16-.09v-.28a1.45,1.45,0,0,1-.18-1V185.94A1.53,1.53,0,0,1,122.62,185Z"/><path class="cls-30" d="M122.62,185v16.3h-.23c-.11-3.15,0-6.3,0-9.45,0-2.27-.08-4.55,0-6.82h.08Z"/><path class="cls-31" d="M108.17,185.38V201h-.12V185.38Z"/><path class="cls-32" d="M101.21,242.11c4,0,8,.08,12.07,0a3.18,3.18,0,0,1,3.25,3,3,3,0,0,1-2.8,3.18,2.54,2.54,0,0,1-.39,0c-2.4.07-4.81,0-7.21,0h-17a3.08,3.08,0,0,1-3.25-2.89,3.16,3.16,0,0,1,.42-1.75A2.9,2.9,0,0,1,89,242.1C93.05,242.14,97.12,242.11,101.21,242.11Z"/><path class="cls-33" d="M188.75,249.92c-.34,0-.69.06-1,.06H60.06c.29-.28.65-.16,1-.16H187.75A1.46,1.46,0,0,1,188.75,249.92Z"/><path class="cls-32" d="M88.34,68c-1.62-.6-2.61-1.63-2.45-3.49a3,3,0,0,1,2.75-2.68h25.07a2.84,2.84,0,0,1,2.73,2.37,3.14,3.14,0,0,1-1.59,3.46l-.66.32c-.21.2-.48.12-.72.12H89.05A1.09,1.09,0,0,1,88.34,68Z"/><path class="cls-34" d="M153.72,69.54a.38.38,0,0,1,0,.15H61.35c.27-.33.64-.2,1-.2Z"/><path class="cls-35" d="M88.34,68h25.85c-.19.3-.5.21-.77.21H88.8a3.38,3.38,0,0,1-.45,0v-.07A.61.61,0,0,1,88.34,68Z"/><path class="cls-36" d="M61.54,70.1c.33-.36.77-.18,1.15-.18h91a.32.32,0,0,1-.18.31,2.94,2.94,0,0,1-1.38.16H63.05a3.56,3.56,0,0,1-1.21-.11A1.19,1.19,0,0,1,61.54,70.1Z"/><path class="cls-37" d="M61.54,70.1h.19a1.36,1.36,0,0,1,.29,1v82.48a4.27,4.27,0,0,1-.17,1.85.25.25,0,0,1-.32.12Z"/><path class="cls-38" d="M61.54,155.55h.19a1.64,1.64,0,0,1,1.15-.29H84.42a2.9,2.9,0,0,1,.83.09.65.65,0,0,1,.3.21v.19h-24A.66.66,0,0,1,61.54,155.55Z"/><path class="cls-39" d="M187.23,70.1v85.45a.31.31,0,0,1-.3-.18,3.22,3.22,0,0,1-.15-1.38V71.65a3.25,3.25,0,0,1,.15-1.38A.32.32,0,0,1,187.23,70.1Z"/><path class="cls-40" d="M187.05,155.54h.15a.48.48,0,0,1,0,.17h0a1.22,1.22,0,0,1-.73.08H154.31a3.68,3.68,0,0,1-.47,0,.19.19,0,0,1,0-.26l0-.05a2.07,2.07,0,0,1,1.26-.25h30.67A1.92,1.92,0,0,1,187.05,155.54Z"/><path class="cls-41" d="M187.23,70.1h-.18a1.66,1.66,0,0,1-1.24.3H155a2.2,2.2,0,0,1-1.1-.17l-.14-.13a.48.48,0,0,0,0-.17h32.84C186.79,69.92,187.05,69.82,187.23,70.1Z"/><path class="cls-16" d="M85.48,165.73V172H62.73c-.83,0-1.09-.22-1-1,.06-1.3.06-2.62,0-3.93,0-.82.2-1.05,1-1.05H85.09v-.2H61.52l.21-.18a1.77,1.77,0,0,1,1.24-.3H84.18C84.64,165.38,85.14,165.28,85.48,165.73Z"/><path class="cls-14" d="M153.92,155.93c.31.31.71.17,1.06.17h31.14c1,0,1.19.29,1.16,1.21-.06,2.8,0,5.61,0,8.41A1.77,1.77,0,0,1,186,166h-31a2.8,2.8,0,0,1-1.11-.13.68.68,0,0,1-.29-.22,1.77,1.77,0,0,1-.18-.91V157a1.92,1.92,0,0,1,.17-.91A.3.3,0,0,1,153.92,155.93Z"/><path class="cls-42" d="M153.72,165.76l.56-.07h33c.07,2.23.09,4.46,0,6.69H154.55a3.41,3.41,0,0,1-.84-.07v-.84a.93.93,0,0,1-.26-.68v-4.36A.9.9,0,0,1,153.72,165.76Z"/><path class="cls-43" d="M153.92,155.93h-.2v-.23h33.53c-.3.33-.7.17-1.06.17Q170.05,155.95,153.92,155.93Z"/><path class="cls-1" d="M85.48,165.73H61.73v-9.55H85.5a1.29,1.29,0,0,1,.32,1.12v7.36a1.37,1.37,0,0,1-.28,1Z"/><path class="cls-15" d="M85.54,165.64v-9.72a.28.28,0,0,0,0-.18h0a1.45,1.45,0,0,1,1.13-.31h14a2.33,2.33,0,0,1,.91.12.49.49,0,0,1,.27.24.22.22,0,0,1-.22.22H86.2c0,.15.23,0,.34,0h14.68a1.52,1.52,0,0,1,.64.07,1.44,1.44,0,0,1,.22,1.06v7.44a1.33,1.33,0,0,1-.25,1.06Z"/><path class="cls-42" d="M153.72,180.71l.19-.05a16.33,16.33,0,0,1,1.6.43,4.19,4.19,0,0,1,2.7,4.11c0,2.71.06,5.42,0,8.13a4.37,4.37,0,0,1-4.27,4.48h-.22v-5.54a39.84,39.84,0,0,0,0-6.18Z"/><path class="cls-1" d="M118,200.18a1.44,1.44,0,0,1-.21.41c-.62.63-3.71.7-4.37.12a1.27,1.27,0,0,1-.36-1V186.52a1.19,1.19,0,0,1,1.06-1.24,9.24,9.24,0,0,1,3.06,0,.92.92,0,0,1,.83.77.69.69,0,0,1,.09.34v13.43A.56.56,0,0,1,118,200.18Z"/><path class="cls-44" d="M122.4,185v16.27c-.22-.24-.14-.53-.14-.81V185.78C122.25,185.51,122.17,185.21,122.4,185Z"/><path class="cls-45" d="M118.1,186.1a.47.47,0,0,1,.21.48V200a.17.17,0,0,1,0,.17h-.15A2,2,0,0,1,118,199V187.19A2.53,2.53,0,0,1,118.1,186.1Z"/><path class="cls-46" d="M118.1,186.1v14h-.16v-.23a1.26,1.26,0,0,1-.08-.64V186.92a1.24,1.24,0,0,1,.08-.63v-.22Z"/><path class="cls-47" d="M126.2,201.06V181.24c.26.26.15.59.16.89v18.05C126.36,200.48,126.47,200.81,126.2,201.06Z"/><path class="cls-38" d="M130.84,181.23V200c-.36,0-.18-.31-.18-.46V181.93C130.68,181.69,130.62,181.43,130.84,181.23Z"/><path class="cls-1" d="M148.67,189.22V186c0-.54.11-.8.72-.77h2.7c1.07,0,1.47.44,1.47,1.5v5.14c0,1-.4,1.37-1.43,1.4a21.48,21.48,0,0,0-3,.09c-.52.1-.47-.25-.47-.56Z"/><path class="cls-48" d="M153.73,186.09c.26.21.18.5.18.77v4.63c0,.27.08.56-.18.78Z"/><path class="cls-16" d="M153.72,165.76v5.72a1,1,0,0,1-1,.57H103.06a1.63,1.63,0,0,1-.81-.13c-.32-.16-.14.2-.21.32a11.4,11.4,0,0,1-.14-3.4,8.92,8.92,0,0,1,.16-3.13l.13-.13a2.59,2.59,0,0,1,1.37-.2h48.75a2,2,0,0,1,1.43.29S153.73,165.73,153.72,165.76Z"/><path class="cls-9" d="M101.83,165.65v-9.54a.09.09,0,0,1-.08-.11.19.19,0,0,0,0-.08h.08c.32-.34.75-.27,1.14-.27H152.4a1.53,1.53,0,0,1,1.07.22c.06.49-.34.44-.61.49a8.18,8.18,0,0,1-1.4,0H104.05c-1.74,0-1.74,0-1.74,1.75v6.18a1.91,1.91,0,0,1-.29,1.34h0Z"/><path class="cls-16" d="M85.5,155.55H61.73V70.1h92a1.68,1.68,0,0,1,.32,1.28v43.84a7,7,0,0,1-.06,1.12,1.85,1.85,0,0,1-.18.66,36.66,36.66,0,0,0-2.91,8.46c-.29,1.32-.46,1.42-1.76,1.33a12.48,12.48,0,0,0-3.45.17c-.46.1-1,.17-1,.79s.39.88.9,1a6.53,6.53,0,0,0,1.29.25,18.28,18.28,0,0,1,2.11.4c.93.22,1.07.44,1,1.36a40.11,40.11,0,0,0-.29,5.13,2.28,2.28,0,0,0,0,.37c.85,2.75-1.14,4.24-2.66,5.91a7.2,7.2,0,0,1-1.72,1.28c-1.26.77-2,.48-2.44-.92a5.1,5.1,0,0,1,0-1.56c.44-2.71,1.19-5.36,1.55-8.09a4.66,4.66,0,0,0,.07-1.12c-.09-1-.49-1.51-1.54-1.47a3.09,3.09,0,0,1-2.65-1.07,1.73,1.73,0,0,0-1.75-.38,9.25,9.25,0,0,0-5.32,3.1,17.39,17.39,0,0,0-4.55,9.87c-.11,1-2.09,2.2-3.07,1.85a1.35,1.35,0,0,1-.77-1.09A15,15,0,0,1,125,137a52,52,0,0,0,.78-5.85,2,2,0,0,0-3.72-1.36,52.06,52.06,0,0,0-4.15,6.35c-.19.31-.3.69-.68.86-.26,0-.33-.18-.39-.38a14.74,14.74,0,0,1,.57-2.93,21.93,21.93,0,0,0,.46-2.57,1.9,1.9,0,0,0-1-2.15,2.15,2.15,0,0,0-2.41.48,12.64,12.64,0,0,0-2.19,2.9c-.86,1.41-1.71,2.82-2.45,4.3-.15.28-.26.77-.66.63s-.22-.6-.17-.93c.24-1.7.64-3.37.76-5.08.06-.89.31-1.83-.58-2.5-.66-.39-1.41-.07-2.09-.26h0v.09c-1.11,1-1.28,2.37-1.64,3.68-.12.47,0,1.13-.58,1.3s-.93-.44-1.26-.81a15.75,15.75,0,0,1-2-2,3,3,0,0,1-.07-.32c-.08-4.15-.06-8.3,0-12.45a6.1,6.1,0,0,0,0-2c.22-3.81-3.14-7.38-6.88-7.79a8.15,8.15,0,0,0-8.27,4.66c-.21.51-.33,1.09-1,1.31-1.71.21-3.42,0-5.14.1a29.52,29.52,0,0,0-8.74,1.39A10.75,10.75,0,0,0,68.82,117a5.82,5.82,0,0,0-2.44,4.41,2.46,2.46,0,0,0,2.1,2.76h.08c2,.27,3.1-.5,3.4-2.5a3.43,3.43,0,0,1,2.09-2.57,17.4,17.4,0,0,1,6.75-1.37c.7,0,.87.4.71,1-.25.9-.51,1.8-.8,2.69-1.47,4.61-3.06,9.17-4.64,13.75-1.25,3.63-2.08,7.38-3,11.11-.34,1.41,0,2.29.93,2.76a2.47,2.47,0,0,0,3.12-.71,5.22,5.22,0,0,0,1.21-2.4c1.78-7.11,3.73-14.18,5.52-21.29.4-1.6.79-3.21,1.16-4.82.06-.27-.1-.84.55-.71a2.21,2.21,0,0,1,.2,1.36v11.14c0,7.46.07,14.92,0,22.38A1.76,1.76,0,0,1,85.5,155.55Z"/><path class="cls-17" d="M85.5,155.55v-35.1c0-.48.16-1-.16-1.45a.74.74,0,0,1,.21-1l0,0a.81.81,0,0,1,1.1.29.17.17,0,0,1,0,.05c.22.42,0,.7-.34,1a1.87,1.87,0,0,0-.38,1.38v16.7a20.43,20.43,0,0,0,.51,5.94c.7,2.28,2,4,4.37,4.56a6.14,6.14,0,0,0,6.2-2,11,11,0,0,0,2.9-9,12.37,12.37,0,0,0-.73-3.17c-.1-.26-.24-.57,0-.78s.54,0,.77.14a16.33,16.33,0,0,1,1.92,1.48.81.81,0,0,1,.18.63v19.35a2.42,2.42,0,0,1-.12,1,.49.49,0,0,1-.24.27H85.55Z"/><path class="cls-42" d="M153.72,116.55V70.1h33.33v85.44H153.73l-.12-.13a2.17,2.17,0,0,1-.17-1.1c.05-2.07-.13-4.15.1-6.23.13-.35.41-.33.69-.26A7,7,0,0,0,159,147c1.22-.58,2.38-1.25,3.55-1.91.92-.52,1.13-.51,1.7.34,2.49,3.74,7.06,2.83,9.24.76a10.65,10.65,0,0,0,3.19-6.5,11.83,11.83,0,0,0-.63-5.89c-.11-.31-.34-.69,0-.94s.64.1.91.29a14.88,14.88,0,0,1,2.77,2.23c1,1.1,2.24,1.94,3.2,3.08a3.36,3.36,0,0,0-.78-3.69c-1.87-2.14-3.78-4.1-6.53-5.14a9.31,9.31,0,0,0-12.86,8.75v.28a3.27,3.27,0,0,1-2.22,3.91,23.69,23.69,0,0,1-2.84,1.2A2.93,2.93,0,0,1,154,142a2.58,2.58,0,0,1-.12-.42,11.94,11.94,0,0,1-.16-3.82c.1-1.06.14-2.11.15-3.17a2.92,2.92,0,0,1,.28-1.36c.54-.84,1.21-1.59,1.79-2.4a1.67,1.67,0,0,1,1.49-.59h6a1.36,1.36,0,0,0,1.46-.78c.46-1.07,0-1.89-1.18-1.88-1.37,0-2.73-.25-4.1-.23-.92,0-1-.28-.59-1.09a24.52,24.52,0,0,0,2.51-5.21,8.31,8.31,0,0,0-.25-5.77c-1.05-2.54-3.42-3-5.37-1.11a13.4,13.4,0,0,0-1.45,1.83C154.27,116.2,154.18,116.61,153.72,116.55Z"/><path class="cls-38" d="M153.73,155.55v.22a2.63,2.63,0,0,1-.93,0H102.94a2.4,2.4,0,0,1-.92-.06c0-.46.36-.43.65-.48a8.14,8.14,0,0,1,1.21,0h48a2.53,2.53,0,0,1,1.8.31Z"/><path class="cls-1" d="M102.05,165.68v-8.52c0-.92.31-1.07,1.12-1.07h49.26c.39,0,.81.15,1.16-.16.06-.09.11-.1.18,0h0v9.72H102.49Z"/><path class="cls-49" d="M153.71,155.92H101.87l-.11-.18h.12c0-.08.09-.09.15,0h51.68A.28.28,0,0,1,153.71,155.92Z"/><path class="cls-50" d="M101.79,155.92v.19H86v-.19Z"/><path class="cls-51" d="M117.93,186.29V200c-.26-.22-.18-.52-.18-.79V187.07C117.75,186.8,117.67,186.5,117.93,186.29Z"/><path class="cls-1" d="M102.05,134.84l-.18-.26a4.35,4.35,0,0,1,0-3.6,13.91,13.91,0,0,1,2.47,2.25c.37.41.56.56.71-.16.23-1.06.56-2.1.87-3.13a2,2,0,0,1,1.15-1.37,4.71,4.71,0,0,1,2.24,0c1.14.75.71,1.88.66,2.89a38.42,38.42,0,0,1-.81,5.23.6.6,0,0,0,.09.58,50.4,50.4,0,0,1,4-6.85c.69-1,1.42-1.92,2.83-1.85a1.88,1.88,0,0,1,2,1.76,1,1,0,0,1,0,.24,23.73,23.73,0,0,1-1,5.48,3.53,3.53,0,0,1-.1.55c-.12.37-.12.37.19.39a61.37,61.37,0,0,1,4.34-7,2.67,2.67,0,0,1,2.83-1.37,1.9,1.9,0,0,1,1.62,2,39.23,39.23,0,0,1-.79,6.76,14.38,14.38,0,0,0-.13,5.19c.23,1,.62,1.25,1.6.84a2.59,2.59,0,0,0,1.87-2.21c.8-4.75,2.93-8.79,7.12-11.48a7.1,7.1,0,0,1,3.62-1.12,1.43,1.43,0,0,1,1.36.63,2,2,0,0,0,1.94.85c1.78,0,2.17.34,2.12,2.11a42.24,42.24,0,0,1-1.15,6.62c-.14.73-.3,1.46-.46,2.18a.37.37,0,0,1-.11-.32v1.9c0,.08.08.09.12,0,.46,1.29.93,1.44,2.14.71a17.15,17.15,0,0,0,4.25-4.29c.3-.37.14-.85.1-1.26a29.87,29.87,0,0,1,.18-7.07c.07-.52,0-.87-.64-1-1.11-.13-2.2-.36-3.3-.55l-.55-.12a1.33,1.33,0,0,1-.89-1.47c0-.7.6-.76,1.06-.84a13.42,13.42,0,0,1,4-.14c.76.08,1-.13,1.13-.81a34,34,0,0,1,3-8.81.24.24,0,0,1,.3.15,1.77,1.77,0,0,1,.12.82v15.22a1.75,1.75,0,0,1-.05.46c-.27,4.19.09,8.36.08,12.55,0,.54.13,1.13-.35,1.57-.46.21-.76-.1-1.07-.37a7.08,7.08,0,0,1-1.83-2.56c-.35-.8-.44-.81-1-.15a13.37,13.37,0,0,1-3.61,3.09c-2,1.24-4.75,1.35-6.23-1.28-.36-.62-.67-.54-1.16-.12a8.45,8.45,0,0,1-4.77,2.21,5,5,0,0,1-3.91-1.19c-.9-.79-.88-.8-2-.16a8.68,8.68,0,0,1-4.63,1.29,2.22,2.22,0,0,1-2.09-1.31,7.82,7.82,0,0,1-.78-3.53v-3.09a16.05,16.05,0,0,1,.26-3.09c-1.19,3.09-2.34,6-3.54,9a3,3,0,0,1-1.51,1.72,2.36,2.36,0,0,1-3.26-.69,2.39,2.39,0,0,1-.36-.94,11.54,11.54,0,0,1,.06-4.46c.2-1.48.39-3,.65-4.44-1.14,2.13-2.14,4.33-3.15,6.52-.49,1-1.06,2-1.63,3.06a2.34,2.34,0,0,1-2.42,1.25,2.41,2.41,0,0,1-2.18-1.65,7.33,7.33,0,0,1-.39-2.94,37.87,37.87,0,0,1,.67-6,1.44,1.44,0,0,0-.52-1.47C102.82,136,102.16,135.62,102.05,134.84Z"/><path class="cls-1" d="M85.54,118.07l-.18.93a56.75,56.75,0,0,1-1.75,7.64c-1.68,6.56-3.4,13.1-5.1,19.64a4.9,4.9,0,0,1-1.5,2.54,2.76,2.76,0,0,1-3.3.33,2.23,2.23,0,0,1-.92-2.69,143.62,143.62,0,0,1,5.26-17.92c1.17-3.22,2.11-6.52,3.19-9.78.23-.7.2-.9-.67-.81a21.28,21.28,0,0,0-6,1.17,3.32,3.32,0,0,0-2.42,3c-.12,1.75-1.75,2.67-3.8,2.32a2.73,2.73,0,0,1-2.24-3.15s0-.06,0-.09c.4-3,2.43-4.59,5-5.55a31.35,31.35,0,0,1,10.3-1.53h4a.22.22,0,0,1,.28.1,23.89,23.89,0,0,1-.09,3.59A1.11,1.11,0,0,1,85.54,118.07Z"/><path class="cls-17" d="M94.88,80.43a8.09,8.09,0,0,1,7,7.85,8.2,8.2,0,1,1-14.69-4.79,7.88,7.88,0,0,1,5.45-3.11A5.64,5.64,0,0,0,94.88,80.43Z"/><path class="cls-17" d="M85.54,118.07v-.2c1-.49,2-.08,2.93,0,3.07.26,6.12.81,9.19,1.15a10.5,10.5,0,0,0,1.68.07,2.2,2.2,0,0,0,1.89-.84c.15-.19.29-.43.6-.38v12.94c-.5.26-.82-.15-1.18-.34A10.45,10.45,0,0,0,93,129.25,8.48,8.48,0,0,0,86.7,135a15.55,15.55,0,0,0-.52,1.89c-.06.28,0,.67-.44.72V119.84c0-.28-.23-.7.39-.75.17,0,.64-.14.52-.6s-.39-.43-.72-.43Z"/><path class="cls-15" d="M85.72,137.58c.15-.63.29-1.26.46-1.88,1.64-6.25,8.09-8.46,13.56-5.93.7.32,1.38.7,2.07,1a.56.56,0,0,1,.07.16v3.6l-2.42-1.67c-.22.17-.11.31,0,.44a11.84,11.84,0,0,1-1.16,11.56A6.76,6.76,0,0,1,90.74,148a6.11,6.11,0,0,1-4.28-4.31A17.51,17.51,0,0,1,85.72,137.58Z"/><path class="cls-14" d="M153.7,117h-.13l.15-.41a21.22,21.22,0,0,1,2.09-2.73c1.94-1.86,4.41-1.44,5.56,1a9,9,0,0,1-.26,7.94,37.29,37.29,0,0,1-2.3,4.21c1.66.08,3.22.18,4.78.22s2.12,1,1.52,2.38a1.39,1.39,0,0,1-1.51.86h-6.36A1.39,1.39,0,0,0,156,131c-.56.75-1.16,1.46-1.74,2.18-.17.27-.32.37-.44,0V118C153.82,117.61,153.93,117.26,153.7,117Z"/><path class="cls-17" d="M85.75,114.16l-.23-.06c.49-.28.51-.83.7-1.27a8.21,8.21,0,0,1,15.59,2.07,6.86,6.86,0,0,1,0,1.11c-3-1.06-6.19-1.17-9.32-1.49-1.8-.18-3.6-.08-5.4-.11C86.63,114.38,86.14,114.5,85.75,114.16Z"/><path class="cls-15" d="M85.75,114.16a60.26,60.26,0,0,1,10.66.5c1.08.17,2.15.28,3.23.41a3.49,3.49,0,0,1,2.17.94,3.14,3.14,0,0,1,0,1.87c-.9,1.86-2.58,1.6-4.13,1.44-2.86-.3-5.71-.72-8.56-1.07-1.2-.15-2.4-.25-3.6-.38A14.91,14.91,0,0,1,85.75,114.16Z"/><path class="cls-52" d="M143.05,142.56l-.05.37h-.08v-2.55c.2.17.06.41.13.6Z"/><path class="cls-53" d="M109.32,128.59h-2.24A2.66,2.66,0,0,1,109.32,128.59Z"/><path class="cls-54" d="M94.88,80.43a3,3,0,0,1-2.24,0Z"/><path class="cls-55" d="M117.18,137c0,.14-.18.35-.29.24a.54.54,0,0,1,.1-.63C117.05,136.75,117.05,136.9,117.18,137Z"/><path class="cls-16" d="M102.05,134.84c.66.62,1.31,1.24,2,1.84a.7.7,0,0,1,.22.75,41.62,41.62,0,0,0-.78,6.57,7.47,7.47,0,0,0,.22,2.31c.35,1.27.94,1.83,2.08,1.94a2.22,2.22,0,0,0,2.45-1.47c1.42-2.64,2.62-5.38,3.92-8.07a4.76,4.76,0,0,1,1.22-1.78c-.18,1.2-.37,2.41-.54,3.61a18.52,18.52,0,0,0-.33,5.75c.17.93.49,1.77,1.58,2a2.61,2.61,0,0,0,2.85-1.34c.67-1.44,1.21-2.94,1.8-4.41.74-1.85,1.47-3.7,2.28-5.54a12.54,12.54,0,0,1-.06,3,32.49,32.49,0,0,0,.21,5.58,5.72,5.72,0,0,0,.56,1.58,2,2,0,0,0,2,1.13,9,9,0,0,0,5-1.74c.38-.27.61-.35,1,.06a5.11,5.11,0,0,0,6.45,1.11A8.94,8.94,0,0,0,139,145.8c.44-.45.64-.4.92.16a3.67,3.67,0,0,0,3.09,2.42,5.43,5.43,0,0,0,3.25-.94,15.92,15.92,0,0,0,4.17-3.93,8.24,8.24,0,0,0,2.91,4.22c.08.13.32,0,.36.22v7.64h-50.6c-.36,0-.75-.13-1.08.15h-.15V135.57A1.1,1.1,0,0,1,102.05,134.84Z"/><path class="cls-14" d="M153.73,147.91l-.36-.22c.56-.14.33-.6.34-.93V133.62c.07,0,.07-.17.18-.19l.35-.19c-.18,2.73-.61,5.45-.16,8.18A2.62,2.62,0,0,0,157,143.7a2.19,2.19,0,0,0,.56-.14,16.93,16.93,0,0,0,4.34-2.16,1.3,1.3,0,0,0,.61-1.35,12.26,12.26,0,0,1,1.39-6.77,9.36,9.36,0,0,1,9.48-4.45c3.92.66,6.73,2.9,9,6,1.18,1.58,1.35,2.57.63,4.09-2.26-2-4.22-4.37-6.92-6-.12.44.12.74.24,1.06,1.46,4.06.59,9.4-2.7,12.43-2.52,2.33-7.27,3-9.71-1-.37-.6-.66-.51-1.17-.21a29.31,29.31,0,0,1-5.34,2.68A5.11,5.11,0,0,1,153.73,147.91Z"/><path class="cls-16" d="M133.48,141.7c.49-3.21,1.59-6.22,4.25-8.46l.08-.06c.58-.34,1.23-1,1.84-.57.38.24-.06,1-.19,1.54-.59,2.35-1,4.75-1.66,7.07a6.36,6.36,0,0,1-1.51,2.66,1.4,1.4,0,0,1-2.57-.69C133.6,142.74,133.57,142.27,133.48,141.7Z"/><path class="cls-20" d="M153.91,133.43l-.18.19V117c.36.29.21.7.21,1Q153.91,125.71,153.91,133.43Z"/><path class="cls-17" d="M96.41,137.06a11,11,0,0,1-1.7,6.1c-.47.66-1,1.36-1.93,1.22a2.42,2.42,0,0,1-2.23-1.83,10,10,0,0,1,1.8-8.89,2.15,2.15,0,0,1,2.37-.93c.94.26,1.22,1.12,1.45,1.92A6.56,6.56,0,0,1,96.41,137.06Z"/><path class="cls-42" d="M159,118.66a11.41,11.41,0,0,1-1.25,3.73c-.65,1.35-1.43,2.62-2.12,4a.75.75,0,0,1-1,.34c-.55-.16-.23-.55-.17-.84a36.64,36.64,0,0,1,2-6.86c.13-.28.27-.56.42-.83.3-.5.63-1,1.31-.81S158.83,118.17,159,118.66Z"/><path class="cls-42" d="M173.23,137.25a12,12,0,0,1-1.62,5.77,2.26,2.26,0,0,1-2,1.38,2.37,2.37,0,0,1-2.3-1.75c-.87-2.48-.26-7.22,2.17-9.39a1.84,1.84,0,0,1,2.58-.21,1.78,1.78,0,0,1,.55.81A7.43,7.43,0,0,1,173.23,137.25Z"/><rect class="cls-56" width="250" height="250"/></svg>