<svg id="Layer_1" data-name="Layer 1" xmlns="http://www.w3.org/2000/svg" viewBox="0 0 250 250"><defs><style>.cls-1{fill:#e67429;}.cls-2{fill:#d15c2d;}.cls-3{fill:#cd5323;}.cls-4{fill:#9fcfc9;}.cls-5{fill:#c1e4e0;}.cls-6{fill:#89b9b3;}.cls-7{fill:#b2491b;}.cls-8{fill:#a1cdc6;}.cls-9{fill:#afd6d3;}.cls-10{fill:#8cb6af;}.cls-11{fill:#f0ac80;}.cls-12{fill:#fefefd;}.cls-13{fill:#e27950;}.cls-14{fill:#9cc;}.cls-15{fill:#c5e1e1;}.cls-16{isolation:isolate;}.cls-17{fill:#fff;}.cls-18{fill:none;}</style></defs><title>products</title><path class="cls-1" d="M137.92,249.82c-.78,0-1.57.11-2.35.11h-60c-4.57,0-8.55-1-11.73-3.87a11.31,11.31,0,0,1-4-8.15v-2q0-56.47,0-112.94a13.9,13.9,0,0,1,3-8.75c1.65-2.22,3.28-4.37,4.92-6.56a7.09,7.09,0,0,1,4.21-.83h64a12.92,12.92,0,0,1,3.5.33c5,3.95,9.11,8.55,9.35,14.47.46,11.42.15,22.85.13,34.28a4.05,4.05,0,0,1-.49,2.22c-1.34.93-2.21-.08-3.06-.6a9.49,9.49,0,0,0-5.5-1.48,19.13,19.13,0,0,1-6.88-1.26,54.36,54.36,0,0,0-35.4,0,20.11,20.11,0,0,1-6.3,1.21c-5.55,0-9.16,3.19-9.26,7.93q-.09,4.79,0,9.55c.09,4.72,3.72,7.81,9.35,7.84a21.33,21.33,0,0,1,6.82,1.32,52.64,52.64,0,0,0,34.8,0,15.74,15.74,0,0,1,6.25-1.24,10.46,10.46,0,0,0,7-2.11c.59-.44,1.16-1.29,2.16-.43a6.53,6.53,0,0,1,.51,3.45v52.33a26.9,26.9,0,0,1-.75,5.93C147,245.42,144.19,249,137.92,249.82Z"/><path class="cls-2" d="M147.88,158.59c.05-2.75.11-5.5.12-8.25V122.83a11.43,11.43,0,0,0-2-6.93,74.93,74.93,0,0,0-6.25-8.08l.36-.38a7.6,7.6,0,0,1,3.69-.54H159a7.1,7.1,0,0,1,3.92.74c2,2.59,4,5.19,5.88,7.79a11.74,11.74,0,0,1,2.26,7.13q0,55.58,0,111.09a26.19,26.19,0,0,1-1.1,8.18c-1.64,5.09-5.46,7.83-11.64,8q-10.17.32-20.37,0c2.29-1.08,4.82-1.83,6.51-3.7a9.09,9.09,0,0,0,1.81-2.55,22.8,22.8,0,0,0,1.77-8.81V178.56a92.26,92.26,0,0,0,1-10.64C149.1,164.73,148.05,161.7,147.88,158.59Z"/><path class="cls-3" d="M68.86,89.2c-4.43-.7-5.92-2.18-6-5.93,0-1.33-.06-2.67,0-4,.16-2.85,2.16-4.63,5.52-4.92,1-.09,2-.06,2.95-.06h58.21c9.85,0,19.7,0,29.55-.06a8.21,8.21,0,0,1,3.2.22,3,3,0,0,1-2.4.74c-3.94.07-7.88.07-11.88,0a6.49,6.49,0,0,1,2.51,5.32c.06,2.08.31,4.19-.89,6.16a7,7,0,0,1-4.55,3c-3.53.5-7.07.14-10.61.14H76a17.53,17.53,0,0,1-4.4-.22C70.76,89.15,69.76,89.46,68.86,89.2Z"/><path class="cls-4" d="M139.75,107.82c-1.18,0-2.36-.09-3.54-.09H67.66c2-3.51,3.69-7.06,3.42-11.07.41-1.48,1.92-1.21,3.1-1.27,2.45-.16,4.92-.09,7.37-.09H131.2a16.28,16.28,0,0,1,5,.36A1.66,1.66,0,0,1,137.35,97a31.81,31.81,0,0,0,2.67,9.45,1.06,1.06,0,0,1-.29,1.17Z"/><path class="cls-5" d="M136.79,96.14l-63.25,0c-.87,0-1.81-.21-2.48.51-.37-.26-.78-.48-1.12-.74-2.31-1.92-2-3,1.08-4.29a5.6,5.6,0,0,1,3.34-.79c20,0,39.89,0,59.83,0a11.47,11.47,0,0,1,1.75.14,9.08,9.08,0,0,1,2.19.67,2.27,2.27,0,0,1,1.59,2.44c-.13,1.23-.94,2-2.41,2.1Z"/><path class="cls-6" d="M139.71,107.62c-.45-1.09-.87-2.18-1.33-3.25a15.8,15.8,0,0,1-1.57-8.23h0c7.05-1.55,14.2-.61,21.32-.7a2.57,2.57,0,0,1,1.82.7c-.61,3.43.67,6.56,2.12,9.63.28.62.59,1.23.89,1.84C155.17,107.76,147.45,107.74,139.71,107.62Z"/><path class="cls-7" d="M145.67,89.05c3.29-1.41,4.49-3.7,4.13-6.76-.07-.66,0-1.34,0-2-.19-2.29-.8-4.4-3.47-5.84h16c3.72.49,5.26,1.89,5.34,4.88,0,1.48,0,3,0,4.51,0,3.32-2,5.06-5.86,5.32h-1.48C155.44,90.15,150.53,90.47,145.67,89.05Z"/><path class="cls-8" d="M136.77,91.63,71,91.59l.08-2a5,5,0,0,1,2.58-.24h60.48c1.46,0,3.5-.49,2.93,1.87Z"/><path class="cls-9" d="M159.9,96.12H136.77c.28-.38.81-.41,1.2-.61,1.63-.85,1.64-2.46,0-3.31-.39-.2-.93-.21-1.23-.58v-.06a5.82,5.82,0,0,1,3.65-.74h11.23c2.82,0,5.68.23,8.19-1.21.09.87-.06,1.69,1,2.41C163.14,93.65,162.8,94.89,159.9,96.12Z"/><path class="cls-10" d="M159.86,89.62c-1.13,2-1.13,2-3.89,2l-19.19,0c-.31-2-.31-2-2.93-2H71.08c-.19-.1-.24-.19-.16-.25a.33.33,0,0,1,.23-.09c1.18,0,2.37-.1,3.54-.1h67.42c1.18,0,2.36-.06,3.54-.09l14.69.14Z"/><path class="cls-8" d="M71.15,89.22a1.37,1.37,0,0,1-.07.34c-.74-.11-1.56.14-2.21-.36A5.31,5.31,0,0,1,71.15,89.22Z"/><path class="cls-11" d="M69.9,174.58c0-17.48.06-35,0-52.45a13.42,13.42,0,0,1,3.54-8.83,6.9,6.9,0,0,1,6.53-2c2.48.56,3.74,2.49,2.31,4.18-2.2,2.57-2.37,5.52-2.36,8.6q.11,51.18.05,102.37a11.32,11.32,0,0,1-.5,3.71,4.85,4.85,0,0,1-5.07,3.06c-2.4-.13-4.2-1.59-4.43-3.7a21.3,21.3,0,0,1,0-2.26Z"/><path class="cls-12" d="M147.88,158.59a11.63,11.63,0,0,1,1.84,7.2,54.41,54.41,0,0,0,0,6,11.27,11.27,0,0,1-1.7,6.74,11.81,11.81,0,0,1-9.84,3.62,7.83,7.83,0,0,0-4,.68,37.58,37.58,0,0,1-13.59,3.1c-8.53.53-16.93.14-24.71-3.4-1.57-.74-3.29-.32-4.94-.38-4.48-.19-8.3-2.23-9.19-5.93a32.11,32.11,0,0,1,0-15.16c.91-3.77,5-6,9.78-5.93A14.33,14.33,0,0,0,97.73,154a33.53,33.53,0,0,1,9.91-2.33c9.22-.92,18.29-.74,26.82,3a7.92,7.92,0,0,0,3.72.55A12.22,12.22,0,0,1,147.88,158.59Z"/><path class="cls-13" d="M87.29,78.52h15.07A3.54,3.54,0,0,1,106,80.87a3.08,3.08,0,0,1-1.61,3.71,4.18,4.18,0,0,1-2.24.46H72.93c-2.2,0-3.76-.94-4.14-2.23A3.31,3.31,0,0,1,70.28,79a4.82,4.82,0,0,1,2.82-.48C77.83,78.51,82.56,78.52,87.29,78.52Z"/><path class="cls-14" d="M82.94,168.76V164c.08-4.45,3.25-7.15,8.53-7.14A15.25,15.25,0,0,0,98,155.67a39,39,0,0,1,14.53-2.81,53.57,53.57,0,0,1,16.33,1.49,12.06,12.06,0,0,1,1.95.56,22,22,0,0,0,10.15,2,7.29,7.29,0,0,1,7,6.67q.22,5,0,10c-.19,4.27-3.72,7.11-9.11,7.21a21.55,21.55,0,0,0-7.07,1.38,38.75,38.75,0,0,1-12.89,2.31c-5.81.06-11.62.16-17.21-1.48a17,17,0,0,1-2.77-.85,14.74,14.74,0,0,0-6.78-1.3c-4.82,0-9.4-2.46-9.17-7.86C83,171.6,82.94,170.17,82.94,168.76Z"/><path class="cls-15" d="M129.13,170a7.69,7.69,0,0,1,0-1,2.9,2.9,0,0,1,.24-.7c.56.53.3,1.11.3,1.65h-.54Z"/><g class="cls-16"><path class="cls-17" d="M98.07,164.39c0,.29,0,.72,0,1.31s0,1,0,1.31a10.14,10.14,0,0,1-.55,1.32c-.3.66-.51,1.13-.65,1.4-.25.5-.54,1.05-.86,1.64-.11.18-.26.45-.45.82,0,.11-.12.17-.19.17l-.83,0H92.55c-.08,0-.14,0-.2-.16-.31-.57-.75-1.42-1.33-2.56a14.94,14.94,0,0,1-1-2.42c0-.31,0-.76,0-1.37s0-1.07,0-1.38c0-.14,0-.21.14-.21l.79,0,.79,0,.81,0c.35,0,.62,0,.8,0s.1,0,.1.12c0,.32,0,.82-.08,1.47s-.07,1.15-.07,1.48a2,2,0,0,0,.23.74c.13.24.26.48.38.72a5.46,5.46,0,0,0,.39-.8,4.08,4.08,0,0,0,.26-.84c0-.2,0-.5,0-.9,0-1.17,0-1.78,0-1.81s0-.18.09-.18.45,0,.81,0l.8,0,.79,0,.78,0C98,164.25,98.07,164.3,98.07,164.39Z"/><path class="cls-17" d="M102.44,172.19c0,.11-.06.17-.18.17l-.81,0-.81,0c-.17,0-.43,0-.78,0s-.6,0-.77,0-.2,0-.2-.16q0-.7.06-2.13t.06-2.13c0-.4,0-1-.06-1.78s-.06-1.38-.06-1.77c0-.09,0-.13.15-.13l.83,0,.83,0,.79,0,.78,0c.11,0,.16.05.16.14,0,.39,0,1-.05,1.77s-.06,1.38-.06,1.77,0,1.18.06,2.13S102.44,171.72,102.44,172.19Z"/><path class="cls-17" d="M112.3,164.41c0,.44,0,1.1-.07,2s-.06,1.55-.06,2l0,3.84c0,.09-.07.13-.21.13s-.35,0-.62,0-.48,0-.62,0-.35,0-.64,0-.5,0-.65,0-.15-.06-.25-.19a20,20,0,0,0-2.46-2.9c-.06,0-.09.06-.09.17,0,.3,0,.75,0,1.36s0,1.05,0,1.35a.18.18,0,0,1-.2.21c-.15,0-.37,0-.67,0s-.53,0-.68,0-.41,0-.73,0-.58,0-.74,0-.2,0-.2-.16c0-.42,0-1.05.06-1.9s.06-1.47.06-1.89,0-1.09-.06-2-.06-1.53-.06-2c0-.08.09-.12.26-.12s.59,0,1.22-.1l.66-.1a5.26,5.26,0,0,1,.67-.07s.14.08.25.25.41.55,1,1.32c.32.44.82,1.07,1.52,1.9,0,0,.06-.16.06-.38s0-.74-.08-1.34-.08-1-.08-1.34,0-.23.12-.23l.75,0,.75,0,.81,0,.8,0C112.27,164.25,112.3,164.3,112.3,164.41Z"/><path class="cls-17" d="M120.24,170a2.43,2.43,0,0,1-.09.56l-.12.56q0,.39-.21,1.17c0,.09-.09.13-.23.13h-.17a23,23,0,0,0-2.92-.14c-.33,0-.83,0-1.49,0s-1.16,0-1.49,0c-.14,0-.2,0-.2-.16,0-.44,0-1.08.07-1.95s.08-1.51.08-1.94,0-1.26-.07-2.46c0-.3,0-.76-.07-1.38v-.08c0-.08.05-.13.16-.13l1.46,0,1.47,0,1.5,0,1.5,0a.37.37,0,0,1,.41.3c0,.07.07.41.13,1s.09.94.09,1,0,.12-.13.12-.56,0-1-.06a9.75,9.75,0,0,0-1-.07h-.64c-.32,0-.49.11-.49.24s.2.3.59.35h.79c.35,0,.69,0,1,0l.52-.06c.11,0,.16.06.16.17a4.21,4.21,0,0,1,0,.49c-.05.28-.08.45-.09.52,0,.51-.08.88-.08,1.1s-.06.13-.19.13l-.54-.07a14,14,0,0,0-1.55-.08c-.38,0-.57.1-.57.29a.27.27,0,0,0,.08.21,6.29,6.29,0,0,0,1.88.13l.69,0c.31,0,.54,0,.69,0S120.24,170,120.24,170Z"/><path class="cls-17" d="M129.65,172c0,.11-.07.17-.21.17a5.68,5.68,0,0,1-.92-.1,6.38,6.38,0,0,0-.92-.11,5.28,5.28,0,0,1-2.29.58,4.69,4.69,0,0,1-3.27-1.25,4,4,0,0,1-1.36-3,4,4,0,0,1,1.35-3,4.64,4.64,0,0,1,3.28-1.24,5.2,5.2,0,0,1,1.92.38,3.47,3.47,0,0,1,1.56,1.06.48.48,0,0,1,.12.27c0,.11-.23.41-.69.88a5.56,5.56,0,0,1-.89.8.49.49,0,0,1-.25.08,2,2,0,0,1-.58-.28,2,2,0,0,0-1-.27,1.39,1.39,0,0,0-1,.4,1.29,1.29,0,0,0-.42,1,1.34,1.34,0,0,0,.44,1,1.48,1.48,0,0,0,1,.43,1.86,1.86,0,0,0,.73-.14c0-.1,0-.37-.1-.82a7,7,0,0,1-.06-.8.24.24,0,0,1,0-.12.21.21,0,0,1,.13,0l.34,0c.29,0,.7,0,1.23,0l.82,0,.82,0c.13,0,.19,0,.19.14s0,.52-.06.93-.06.73-.06.94,0,.61.07,1.1S129.65,171.82,129.65,172Z"/><path class="cls-17" d="M139.34,172.27c0,.06-.09.08-.25.08s-.45,0-.82,0-.63,0-.81,0-.44,0-.8,0-.62,0-.8,0a.16.16,0,0,1-.18-.17v-.28c0-.16-.08-.23-.24-.23a10.39,10.39,0,0,0-1.71.07.44.44,0,0,0-.3.36c0,.17-.1.25-.2.25s-.43,0-.77,0-.6,0-.77,0-.42,0-.76,0-.59,0-.76,0-.18,0-.18-.14,1-2.74,3-7.88a.35.35,0,0,1,.1-.17s.09,0,.19,0a5.13,5.13,0,0,1,.65.06c.28,0,.5,0,.64,0a6.6,6.6,0,0,0,1.23-.08l.11,0c.07,0,.15.07.25.2s.21.4.51,1,.58,1.22,1,2.2c.21.52.49,1.29.84,2.33s.63,1.81.84,2.32A.41.41,0,0,1,139.34,172.27Zm-4.17-3.72a.87.87,0,0,0-.55-.76c-.37.24-.55.5-.55.76a.47.47,0,0,0,.17.35.55.55,0,0,0,.38.16.57.57,0,0,0,.39-.16A.46.46,0,0,0,135.17,168.55Z"/><path class="cls-17" d="M148,172.29s-.06.06-.17.06-.46,0-.82,0-.63,0-.81,0-.43,0-.77,0-.6,0-.78,0a.27.27,0,0,1-.28-.14l-.32-.79c-.14-.31-.33-.79-.59-1.43-.06-.17-.11-.25-.16-.25s-.06.06-.06.19a11.53,11.53,0,0,0,.09,1.18c.05.52.08.9.08,1.15,0,.09,0,.13-.12.13h-.16a13,13,0,0,0-1.62-.07c-.16,0-.4,0-.72,0s-.56,0-.71,0-.21,0-.21-.16c0-.44,0-1.08.08-1.95s.07-1.51.07-1.94q0-1.65-.18-3.84v-.08c0-.07,0-.12.12-.13h.23c.46,0,1.14,0,2.06,0h2.06a4.6,4.6,0,0,1,2.41.57,2.16,2.16,0,0,1,1.11,2,2.87,2.87,0,0,1-.27,1.34,2.92,2.92,0,0,1-1,1c-.1.06-.15.12-.15.19s.26.55.77,1.52S148,172.25,148,172.29Zm-3.54-5.13c0-.43-.34-.65-1-.65-.17,0-.25.24-.25.72,0,.06,0,.15,0,.26s0,.2,0,.26.09.09.26.09C144.08,167.84,144.42,167.61,144.42,167.16Z"/></g><rect class="cls-18" width="250" height="250"/></svg>