<svg id="Layer_1" data-name="Layer 1" xmlns="http://www.w3.org/2000/svg" viewBox="0 0 250 250"><defs><style>.cls-1{fill:#70c1d4;}.cls-2{fill:#5ab3c7;}.cls-3{fill:#d3c49b;}.cls-4{fill:#faefdc;}.cls-5{fill:#d2c49b;}.cls-6{fill:#e6dcbe;}.cls-7{fill:#cec0ad;}.cls-8{fill:#fefefe;}.cls-9{fill:#349cb3;}.cls-10{fill:#26889e;}.cls-11{fill:#fefffe;}.cls-12{fill:#9d8e63;}.cls-13{fill:#bfac79;}.cls-14{fill:#8c7c51;}.cls-15{fill:#91804c;}.cls-16{fill:#6f5d30;}.cls-17{fill:#5c4a1d;}.cls-18{fill:#a89971;}.cls-19{fill:#92804d;}.cls-20{fill:#6e5d30;}.cls-21{fill:#b9ae8e;}.cls-22{fill:#d04800;}.cls-23{fill:#f0e5b4;}.cls-24{fill:#813d09;}.cls-25,.cls-26{isolation:isolate;}.cls-26{font-size:23.72px;fill:#fff;font-family:BritannicBold, Britannic Bold;}.cls-27{fill:none;}</style></defs><title>products</title><path class="cls-1" d="M205.21,71.09c-5.32-.2-4.29-.52-4.29,4.79q-.09,33.83-.07,67.63c0,.69.05,1.39.08,2.08a8.33,8.33,0,0,0-.22,3.22v50c-.22,1.85-1.54,2.5-2.62,3.33a97.4,97.4,0,0,1-24.27,13.31c-15.95,6.19-32.4,9.33-49,11a233.1,233.1,0,0,1-32.13,1.29c-12.43-.49-24.7-2-36.16-8.52a47.69,47.69,0,0,1-4.84-3c-1.52-1.12-2.07-.44-2.07,1.51v14c0,1.28.14,2.61-.74,3.63a.58.58,0,0,1-.68-.52.13.13,0,0,1,0-.06V76.56a.67.67,0,0,1,.52-.75h.05a1.76,1.76,0,0,1,.62.83c.61,5.92.21,11.87.24,17.8,0,6.66,0,6.8,5.11,4.16C64,93.67,73.73,93,83.76,94A322.44,322.44,0,0,1,117.14,99c18.61,3.88,36.8,9.42,54.07,18.8,8.68,4.73,20.22,12.62,28.54,25.13V121.17q-.21-22.2,0-44.37a20.81,20.81,0,0,1,.31-5.68c1.54-2.18,3.39-1.57,5.26-.83C205.62,70.59,205.59,70.89,205.21,71.09Z"/><path class="cls-2" d="M48.87,231.55V214.08a2.87,2.87,0,0,1,2.55.88A55.87,55.87,0,0,0,69,223.41a87,87,0,0,0,10.87,2.33c2.72.43,5.44.1,8.11.56,5.83,1,11.68.51,17.51.44,4.35-.05,8.7-.38,13-.61a149.3,149.3,0,0,0,15.89-1.75,223.28,223.28,0,0,0,22-4.39,153.7,153.7,0,0,0,16.9-5.29,97.86,97.86,0,0,0,25.06-13.81c.69-.54,1.38-1,2.11-1.52.43,7.63.06,15.27.2,22.9.07,3-.27,5.94.2,8.89a15.05,15.05,0,0,0,.07,3.42c.13.45,0,.69-.41.73a2.25,2.25,0,0,1-.69-.83,2.47,2.47,0,0,0-2.54-1.9H53.56C52,232.54,50.3,233,48.87,231.55Z"/><path class="cls-3" d="M126.16,56.3c8.09,0,16.18-.08,24.27-.09h55a.79.79,0,0,1-.23,1h0c-2.14,1-4.37.48-6.57.53-2.86.08-5.73.1-8.6,0q-12.07.18-24.14,0c-5.1.1-10.21.12-15.32,0-5.69.11-11.38,0-17.08,0-6.73.06-5.94-.78-6,7.13,0,1.87.25,3.79-.52,5.57a1.9,1.9,0,0,1-.77.67c-4.33.18-8.66.91-13-.42-1.29-4.12-.61-8.32-.46-12.55.06-1.57,1.14-1.6,2.19-1.66C118.64,56.42,122.41,56.83,126.16,56.3Z"/><path class="cls-4" d="M74.62,56.26h37.17c-.31,1.61-1.46,1.35-2.38,1.42a53.15,53.15,0,0,1-5.92,0c-1.68,0-2.39.83-2.35,2.83q.06,3.27,0,6.54a6.14,6.14,0,0,1-.69,3.67,34.58,34.58,0,0,1-13.82.06c-1.38-2.19-.74-4.74-.78-7.13-.11-6.44.35-5.93-4.9-6a31.79,31.79,0,0,1-4.14-.08C75.9,57.58,74.84,57.76,74.62,56.26Z"/><path class="cls-5" d="M43.43,70.46c0-4,0-7.93,0-11.89,0-2.27.06-2.33,2-2.33,5.1,0,10.2,0,15.31.06,3.58.53,7.17.13,10.75.22,2.51.08,2.91.33,2.86,3.33-.06,3.6.69,7.27-.59,10.82-1,.93-2.21.75-3.34.69-3.36-.19-6.75.58-10.08-.49-1.38-2.08-.79-4.55-.81-6.85-.11-6.9.34-6.25-5.18-6.28H48c-3.12,0-3.2.21-3.31,4.08-.09,2.84.45,5.74-.47,8.51a.44.44,0,0,1-.62.25A.53.53,0,0,1,43.43,70.46Z"/><path class="cls-6" d="M100.38,70.5V59.22c0-2.32.06-2.36,1.92-2.4,2.55,0,5.1,0,7.65,0,.64,0,1.33.15,1.83-.54l14.37,0c-.69.83-1.56.49-2.35.5h-8.13c-2.38,0-2.39,0-2.4,3V70.52a2.06,2.06,0,0,1-1.78.83q-4.67.11-9.35,0A2,2,0,0,1,100.38,70.5Z"/><path class="cls-6" d="M73.65,70.52V59.83c0-3,0-3-2.4-3H63.11c-.79,0-1.66.3-2.34-.49l13.87,0c.69.84,1.53.54,2.33.54h7.64c1.87,0,1.9.08,1.93,2.4V70.5a2,2,0,0,1-1.77.83c-3.12.07-6.24.07-9.34,0A2,2,0,0,1,73.65,70.52Z"/><path class="cls-7" d="M205.44,250.08q-18.66,0-37.31.08-60.6,0-121.19,0c-3.53,0-3.56.65-3.46-4.12.07-3.57,0-7.15,0-10.72a.39.39,0,0,1,.62-.07.43.43,0,0,1,.13.19c.94,3.53.29,7.16.45,10.74,0,.35,0,.69,0,1,.49,1.88,1.85,1.36,2.9,1.39,4.44.11,8.88,0,13.33.07,4.14-.1,8.29-.12,12.39,0,3.74-.06,7.49.1,11.24-.3-3.46-.76-7,.12-10.41-.72a.78.78,0,0,1-.55-.89.74.74,0,0,1,.55-.66c4.15-1,8.33-.29,12.49-.42q6.87-.16,13.73,0c3.35-.11,6.69,0,10,0a4.19,4.19,0,0,1,2.61.58,1.11,1.11,0,0,1,.35.92c-1.11,1.19-2.48.83-3.77.87a57,57,0,0,0-7.15.3c3.69.53,7.4.23,11.1.36,4.23-.13,8.46-.11,12.69,0q12.09-.18,24.19,0c5.14-.1,10.27-.12,15.41,0,8-.11,16.1-.14,24.18,0,4.19-.12,8.38,0,12.57,0a4.43,4.43,0,0,1,2.63.53A.85.85,0,0,1,205.44,250.08Z"/><path class="cls-8" d="M44,235.27h-.51c.75-1.19,1.83-.65,2.77-.64,1.31,0,1.79-.65,1.69-2.16,0-.59,0-1.19,0-1.79V73.86c0-2.63,0-2.61-2.18-2.73-.78,0-1.68.38-2.27-.67l.5.05a3.76,3.76,0,0,1,4.36-.27,2.08,2.08,0,0,1,.54.88c.26,1.66.49,3.26-.39,4.77-.25,8.14-.06,16.28-.06,24.42V215.63c0,6.45,0,12.91-.07,19.36C46.92,236.55,45.46,236.27,44,235.27Z"/><path class="cls-8" d="M200.92,231.16a6.66,6.66,0,0,1-.31-3.2q-.06-14.29-.09-28.59,0-25.16.07-50.31c0-1.16-.27-2.39.35-3.48Q200.93,188.38,200.92,231.16Z"/><path class="cls-8" d="M205.44,250.08l-.06-.61a4,4,0,0,1-.69-2.49c-.08-2.36-.11-4.71,0-7.06s-.22-4.11-2.63-4.06a.9.9,0,0,1-1.1-1.28h3.69c.78,0,1.23.44,1.23,1.43,0,4.45,0,8.89-.07,13.31C205.81,249.59,205.57,249.83,205.44,250.08Z"/><path class="cls-8" d="M205.37,56.86l0-.63a2,2,0,0,1,.49,1.59V69.38c0,.7,0,1.41-.69,1.71a1.48,1.48,0,0,0,0-.42C204.38,66.05,204.07,61.44,205.37,56.86Z"/><path class="cls-9" d="M200.33,76.46c0,6.75.07,13.5.07,20.24q0,12.48,0,25c-.92.39-1.61-.27-2.27-.83-12.22-9.81-25.81-15.87-39.83-20.68A270.78,270.78,0,0,0,104.59,88C95.75,86.86,86.92,85.72,78,85.66a34.36,34.36,0,0,0-12.63,2.49,104.22,104.22,0,0,0-13.41,6.14c-.95.58-1.92,1.28-3,.72V76.51c1.39-1.35,3-1,4.52-1H196.07C197.5,75.57,199.05,75.17,200.33,76.46Z"/><path class="cls-2" d="M48.91,95q7.71-4,15.61-7.37C71.2,84.78,78.08,84.48,85,85c4,.31,8,.53,12,1.15,3.81.59,7.65.9,11.47,1.56s8,1.21,11.92,1.93c7.22,1.31,14.39,2.87,21.51,4.77a223.43,223.43,0,0,1,25.44,8.31c11.69,4.67,22.87,10.56,33,19v23.29c-2.16-2.68-3.67-5.5-5.69-7.76a86.54,86.54,0,0,0-15.27-13.49c-9.68-6.74-20.17-11.16-30.77-15.2a181.78,181.78,0,0,0-22.44-6.77q-9.39-2.25-18.89-3.9Q100.16,96.71,93,95.8c-3-.39-6.08-.5-9.08-.88-3.87-.5-7.73-.21-11.58-.45a23.83,23.83,0,0,0-10.37,2,69.26,69.26,0,0,0-10.36,4.72,3.27,3.27,0,0,1-2.43.64A40.93,40.93,0,0,1,48.91,95Z"/><path class="cls-10" d="M200.33,76.46H48.91a2.46,2.46,0,0,1,0-.54A9.83,9.83,0,0,1,49,70.84c3.46-1.13,7-.59,10.55-.33,1,.06,2,.3,2.93.3h63.63a22.06,22.06,0,0,1,2.66-.56c12.32.15,24.64-.25,37,0,8.09-.11,16.16-.13,24.25,0,2.55-.12,5.1-.06,7.66,0,1,0,2-.06,2.76.94C200.36,72.93,200.35,74.7,200.33,76.46Z"/><path class="cls-11" d="M120.77,228.19c-5.4,0-10.81-.18-16.21.06-3.57.27-6.64-3-6.85-7.3a8.42,8.42,0,0,1,0-.87c.21-3.84,0-7.7.08-11.55a3.42,3.42,0,0,0-1.38-3.13c-3.09-2.34-6.1-4.85-9.19-7.19-8-6.08-10.67-17.06-8.2-27.36a45.44,45.44,0,0,1,11.86-21.41,41.81,41.81,0,0,1,20.42-12.18c14.6-3.47,27.74.39,39.3,11.73a44.46,44.46,0,0,1,12.22,21.42c1.87,7.48,1.38,14.66-2.39,21.25a20.81,20.81,0,0,1-5,6c-3.22,2.6-6.44,5.21-9.73,7.68a3.35,3.35,0,0,0-1.38,3.11c.06,3.76-.07,7.48,0,11.27.24,4.45-2.58,8.29-6.28,8.57a5.61,5.61,0,0,1-.82,0C131.71,228,126.22,228.19,120.77,228.19Z"/><path class="cls-10" d="M48.87,231.55H197.64c3,0,2.76-.19,2.76,3.45-.74,1.19-1.85,1.06-2.88,1.07-2.5,0-5,.09-7.51,0q-12.09.18-24.18,0c-5.3.13-10.6.09-15.89,0-7.9.08-15.8.11-23.7,0-4.31.09-8.62.1-12.92,0-4.46.12-8.92.08-13.38,0q-6.45.1-12.89,0c-4.45,0-8.91.12-13.37,0-4.31.1-8.61.09-12.92,0q-4.51.13-9,0c-1,0-2.14.1-2.93-1C48.82,233.93,48.84,232.73,48.87,231.55Z"/><path class="cls-12" d="M200.38,71.17c-3.45-.37-6.91.21-10.36-.32-.9-1.12-.82-2.57-.73-3.9.22-3.38-.76-6.89.74-10.13h15.32c0,4.6.27,9.21-.15,13.81C203.6,70.79,201.93,70.06,200.38,71.17Z"/><path class="cls-13" d="M48.79,235.09l11.93.23c.31,3.85.93,7.73-.52,11.48-3.38,1.15-6.83.41-10.25.49-2,.05-4.1.73-6-.75V235.27l4.36-.28A.71.71,0,0,0,48.79,235.09Z"/><path class="cls-9" d="M48.91,71.18c0,1.59,0,3.19,0,4.78l-.42-.08V71.11a.25.25,0,0,1,.4,0A.21.21,0,0,1,48.91,71.18Z"/><path class="cls-12" d="M190.07,235.29l10.36-.27a.66.66,0,0,0,.44,0c1,0,2.08.14,3.16.1s1.45.46,1.42,1.72c0,3.43,0,6.84-.06,10.26-5.16.31-10.33,1-15.45-.48A19,19,0,0,1,190.07,235.29Z"/><path class="cls-14" d="M190.05,56.82v14a14.75,14.75,0,0,1-4.14.19H168.49c-.89,0-1.79-.12-2.68-.19a4.33,4.33,0,0,1-.75-3.33c.22-3.57-.75-7.27.73-10.72Z"/><path class="cls-13" d="M126.65,70.51V59.85c0-3,0-3,2.63-3h21.16c1.49,4.11.69,8.32.53,12.57a1.34,1.34,0,0,1-1.24,1.43h-.14C142,70.66,134.3,71.23,126.65,70.51Z"/><path class="cls-12" d="M126.65,70.51H148.3c2.07,0,2.07-.05,2.07-2.46,0-3.75,0-7.48,0-11.25h15.35v14A14.22,14.22,0,0,1,164,71h-36.2c-.56,0-1.14-.1-1.71-.15v-.29Z"/><path class="cls-13" d="M126.16,70.63v.29c-5,0-10,.15-15,.15H51.83c-1,0-2,.09-2.95.14a1.47,1.47,0,0,0-.46-.07,1,1,0,0,1-.21-.47A1.3,1.3,0,0,1,49,70c3.78-.35,7.6-1.14,11.31.55H86.52q6.92.25,13.82,0h12.89Z"/><path class="cls-13" d="M60.31,70.5l-12.09.14a19.87,19.87,0,0,1-4.29-.13c0-3.88,0-7.75,0-11.65,0-1.54.47-2.09,1.74-2.08,4.29.06,8.58,0,12.88,0,1.67,0,1.7.1,1.73,2.33C60.31,63,60.29,66.73,60.31,70.5Z"/><path class="cls-4" d="M87,235.3q6.49-.26,13,0a1.86,1.86,0,0,1,1,1.58c.1,3.22.84,6.5-.57,9.59H86.55C85.53,242.69,84.84,238.93,87,235.3Z"/><path class="cls-6" d="M87,235.3a6.39,6.39,0,0,0-.45,3.16v8H73.64l-.32-.4c-.53-3.62-1-7.24.31-10.81C78.09,235.11,82.54,235.14,87,235.3Z"/><path class="cls-6" d="M100.37,246.48v-8.32a5.94,5.94,0,0,0-.46-2.87c4.45-.16,8.89-.19,13.34,0,1.34,3.55.81,7.18.34,10.81-.1.15-.2.28-.31.42Z"/><path class="cls-15" d="M150.41,249.48c-8.07.05-16.15.19-24.19-.07-1.1-2.5.28-3,1.82-3.07,3.35-.19,6.71,0,10.07-.09,3.83-.1,7.68.37,11.5-.3a3.69,3.69,0,0,1,.93-.21c4.88-.1,9.78-.46,14.67.19a1.65,1.65,0,0,1,.69.67,2.46,2.46,0,0,1,0,.54l-.34.35c-3.73,1-7.53.26-11.29.49C152.83,248.08,151.39,247.92,150.41,249.48Z"/><path class="cls-16" d="M165.77,247.09a5,5,0,0,1,0-.55c.83-1.06,1.94-1,3-1q9.1-.06,18.22,0a3.66,3.66,0,0,1,3,.94h12.47a4.17,4.17,0,0,1,2.85.57v2.36q-7.65.28-15.32,0c-1-1.56-2.45-1.42-3.83-1.43h-17C168.05,248,166.76,248.27,165.77,247.09Z"/><path class="cls-17" d="M165.77,247.09h22.11c1.93,0,1.93,0,2.17,2.36q-12.15.35-24.28,0a2,2,0,0,1,0-2.39Z"/><path class="cls-18" d="M149.94,246.53c-.76.91-1.71.53-2.58.53H128.14c-1.75,0-1.75.06-1.95,2.32H113.3a1.91,1.91,0,0,1,0-2.34c0-.18,0-.35,0-.54h0a3.27,3.27,0,0,1,2.77-1c3.53,0,7.07-.09,10.6,0,6.84-.16,13.67-.06,20.5,0A3.31,3.31,0,0,1,149.94,246.53Z"/><path class="cls-19" d="M60.73,249.41c-5.08,0-10.17,0-15.24.16-1.66,0-1.68-1-1.55-2.49,5.53-.64,11.05-.21,16.62-.23A1.86,1.86,0,0,1,60.73,249.41Z"/><path class="cls-20" d="M165.77,247.09v2.38c-5.12.2-10.25.18-15.37,0,.22-2.33.22-2.38,1.89-2.38C156.78,247.06,161.28,247.09,165.77,247.09Z"/><path class="cls-21" d="M73.66,247.09H84.25a6.19,6.19,0,0,1,1.71.15c.43.14.53.69.5,1.21a.86.86,0,0,1-.55.87,7.32,7.32,0,0,1-1.47.14H73.61a1.92,1.92,0,0,1,0-2.36Z"/><path class="cls-21" d="M113.25,247.09c0,.78,0,1.56,0,2.34l-10.82,0a8.45,8.45,0,0,1-1.23-.06,1,1,0,0,1-.81-1,1.1,1.1,0,0,1,0-.18.91.91,0,0,1,.74-1,16.37,16.37,0,0,1,1.72-.09Z"/><path class="cls-18" d="M73.66,247.09c0,.78,0,1.56,0,2.35H60.73v-2.26l.34-.4c4.21-.58,8.41-1.14,12.58.33Z"/><path class="cls-18" d="M60.74,247.14H43.94a1.88,1.88,0,0,1,0-.58l16.35-.07a.36.36,0,0,1,.54,0,.56.56,0,0,1-.06.63Z"/><path class="cls-21" d="M60.79,247.07v-.54a2.13,2.13,0,0,1,1.77-.88q4.66-.22,9.33,0a2.49,2.49,0,0,1,1.79.83h0v.57Z"/><path class="cls-10" d="M119.45,224.48h-16c-2.73-.27-4.15-2-4.15-5.28-.05-4-.1-7.93,0-11.88a4.28,4.28,0,0,0-1.79-4.07c-3-2.26-6-4.75-9-7.06-7-5.35-9.56-13.95-7.3-23.88a40.57,40.57,0,0,1,11-19.61c18.08-18.6,46.4-15.13,60.54,7.48a36.92,36.92,0,0,1,5.65,15c1.1,8.55-1.15,15.44-7.09,20.42-3.18,2.66-6.42,5.24-9.73,7.68a4.2,4.2,0,0,0-1.76,4c.11,3.78,0,7.58,0,11.36,0,4-1.47,5.82-4.84,5.82C129.84,224.51,124.64,224.48,119.45,224.48Z"/><path class="cls-14" d="M190.05,246.5H165.8l-.05-.05a18.13,18.13,0,0,1,0-11.19q12.15-.28,24.3,0Z"/><path class="cls-13" d="M149.94,246.53l-23.34-.07c-1.21-3.66-.69-7.41-.41-11.15,7.92-.2,15.84-.15,23.76,0a1.67,1.67,0,0,1,.94,1.25c.27,3.33.9,6.72-.5,10Z"/><path class="cls-12" d="M150.39,246.48v-8.32a5.72,5.72,0,0,0-.47-2.87c5.28-.16,10.55-.17,15.82,0v11.19Z"/><path class="cls-3" d="M73.65,246.5H60.76l-.45-.05c0-2.77,0-5.54,0-8.32a6.05,6.05,0,0,1,.45-2.87c4.31-.18,8.62-.19,12.93,0Z"/><path class="cls-3" d="M126.19,235.31a7.83,7.83,0,0,1,.44,3.75v7.4l-13.29.09,0-11.23C117.58,235.12,121.88,235.14,126.19,235.31Z"/><path class="cls-22" d="M123.58,192.92a4.93,4.93,0,0,1-1.44,1.37c-1.73,1.08-3.35,2.41-5,3.58a37.66,37.66,0,0,1-6.79,3.87,15.14,15.14,0,0,1-5.53,1.29c-4,.06-7.23-1.77-9.08-6.2A14.07,14.07,0,0,1,96.31,184a8.78,8.78,0,0,1,5.68-4.35,13.62,13.62,0,0,1,7,.17,31.56,31.56,0,0,1,7.87,3.46c2,1.15,3.93,2.45,5.86,3.74a3.22,3.22,0,0,1,1.21,1.45.65.65,0,0,1,.26.46,7.06,7.06,0,0,1,.08,2,4.09,4.09,0,0,1-.3,1.56A.61.61,0,0,1,123.58,192.92Z"/><path class="cls-23" d="M123.58,192.92a6.32,6.32,0,0,0,.32-4.41h7.8a23.26,23.26,0,0,0,2.5-.13c.46,0,.46,0,.48-.59a2.89,2.89,0,0,1,2.66-3.09,2.93,2.93,0,0,1,2.56,3.2v.17a3.55,3.55,0,0,1-1.21,2.64c0,.13.14.18.22.25a3.74,3.74,0,0,1,.45,4.47,2.3,2.3,0,0,1-3.57.66,3.22,3.22,0,0,1-1.1-2.58c0-.29-.08-.38-.31-.41a19.09,19.09,0,0,0-2.62-.15h-7.83Z"/><path class="cls-24" d="M97.06,195a.74.74,0,0,1-.75-.54,1.06,1.06,0,0,1,.21-1.07l4.76-5.73,4.28-5.16a1.28,1.28,0,0,1,.37-.33.69.69,0,0,1,.89.3,1.08,1.08,0,0,1,0,1.1c-.12.16-.25.33-.38.48l-8.78,10.56A.76.76,0,0,1,97.06,195Z"/><path class="cls-24" d="M107.22,200.42a.75.75,0,0,1-.75-.51,1,1,0,0,1,.11-1l.17-.2,9-10.82a1,1,0,0,1,.44-.36.71.71,0,0,1,.8.34,1,1,0,0,1,0,1,3.09,3.09,0,0,1-.26.37L107.84,200C107.64,200.22,107.45,200.44,107.22,200.42Z"/><path class="cls-24" d="M102,197.7a.69.69,0,0,1-.69-.49,1,1,0,0,1,.06-.93l.21-.28,8.87-10.66.18-.23a.67.67,0,0,1,1.07,0,1.05,1.05,0,0,1,0,1.29l0,0-4.25,5.1-4.83,5.82A.73.73,0,0,1,102,197.7Z"/><path class="cls-22" d="M133.27,185a4.69,4.69,0,0,1-1.76-1c-1.67-1.5-3.46-2.75-5.19-4.16a46.42,46.42,0,0,1-6.22-6,23.13,23.13,0,0,1-3.59-5.78c-1.91-4.61-2-9.15.69-13.31s6.14-6,10.45-5.24a9.28,9.28,0,0,1,6.11,4.53,23.21,23.21,0,0,1,3.1,8.1,54.44,54.44,0,0,1,.91,10.68c0,2.83-.12,5.67-.25,8.5a4.22,4.22,0,0,1-.59,2.07.7.7,0,0,1-.25.52,5,5,0,0,1-1.54,1,2.67,2.67,0,0,1-1.38.39A.58.58,0,0,1,133.27,185Z"/><path class="cls-23" d="M133.27,185a4.33,4.33,0,0,0,3.65-1.66l3.63,9c.39,1,.81,1.92,1.27,2.83.25.51.25.51.69.28a2.62,2.62,0,0,1,3.65,1.75,3.62,3.62,0,0,1-1.45,4.39,2.47,2.47,0,0,1-2.66-.16c-.09.1-.07.25-.09.37a3,3,0,0,1-3.35,2.6,3.34,3.34,0,0,1-2.19-3.82,3.25,3.25,0,0,1,1.54-2.5c.23-.13.27-.26.19-.54a32.33,32.33,0,0,0-1.1-3.09q-1.81-4.51-3.64-9Z"/><path class="cls-24" d="M119.29,155.41a1,1,0,0,1,.07-1.1.73.73,0,0,1,1-.27l6.76,2.82,6.1,2.55a1.17,1.17,0,0,1,.44.26,1.11,1.11,0,0,1,.06,1.37.74.74,0,0,1-.75.3,3.71,3.71,0,0,1-.55-.22l-12.5-5.2A.87.87,0,0,1,119.29,155.41Z"/><path class="cls-24" d="M119.69,169.64a1.16,1.16,0,0,1,.06-1.1.68.68,0,0,1,.83-.32l.23.1,12.78,5.32a1,1,0,0,1,.5.34,1.18,1.18,0,0,1,.09,1.08.74.74,0,0,1-.82.5,2,2,0,0,1-.41-.13l-12.61-5.25C120.08,170.06,119.78,169.92,119.69,169.64Z"/><path class="cls-24" d="M119.43,162.4a1.07,1.07,0,0,1,.07-1,.7.7,0,0,1,.76-.36,1.42,1.42,0,0,1,.33.11l12.62,5.23.25.11a1,1,0,0,1,.59,1.19.81.81,0,0,1-1,.7.42.42,0,0,1-.14-.06l-6-2.49L120,162.92C119.76,162.8,119.52,162.69,119.43,162.4Z"/><g class="cls-25"><text class="cls-26" transform="translate(74.96 100.57) scale(1.01 1)">B</text><text class="cls-26" transform="translate(91.69 100.57) scale(1.01 1)">r</text><text class="cls-26" transform="translate(103.52 100.57) scale(1.01 1)">e</text><text class="cls-26" transform="translate(117.14 100.57) scale(1.01 1)">a</text><text class="cls-26" transform="translate(131.43 100.57) scale(1.01 1)">d</text><text class="cls-26" transform="translate(145.92 100.57) scale(1.01 1)">e</text><text class="cls-26" transform="translate(159.57 100.57) scale(1.01 1)">d</text><text class="cls-26" transform="translate(74.96 129.05) scale(1.01 1)">c</text><text class="cls-26" transform="translate(88.36 129.05) scale(1.01 1)">h</text><text class="cls-26" transform="translate(103.36 129.05) scale(1.01 1)">i</text><text class="cls-26" transform="translate(111.66 129.05) scale(1.01 1)">c</text><text class="cls-26" transform="translate(125.07 129.05) scale(1.01 1)">k</text><text class="cls-26" transform="translate(138.94 129.05) scale(1.01 1)">e</text><text class="cls-26" transform="translate(152.51 129.05) scale(1.01 1)">n</text></g><rect class="cls-27" width="250" height="250"/></svg>