<svg id="Layer_1" data-name="Layer 1" xmlns="http://www.w3.org/2000/svg" viewBox="0 0 250 250"><defs><style>.cls-1{fill:#cbc9be;}.cls-2{fill:#eae8df;}.cls-3{fill:#d2901b;}.cls-4{fill:#b41c21;}.cls-5{fill:#cbcdd0;}.cls-6{fill:#868c92;}.cls-7{fill:#a6792c;}.cls-8{fill:#a0a4a8;}.cls-9{fill:#ddb33b;}.cls-10{fill:#bf8c34;}.cls-11{fill:#eae7de;}.cls-12{fill:#cf2027;}.cls-13{fill:#cd8e02;}.cls-14{fill:#b57104;}.cls-15{fill:#9e6406;}.cls-16{fill:#ab7924;}.cls-17{fill:#bb8f34;}.cls-18{fill:#db605d;}.cls-19{fill:#b50b1c;}.cls-20{fill:#f0efe7;}.cls-21{fill:#cd1f28;}.cls-22{fill:#f6c057;}.cls-23{fill:#ca9a42;}.cls-24{fill:#f2a620;}.cls-25{fill:#d1ad66;}.cls-26{fill:#ca5154;}.cls-27{fill:#fece45;}.cls-28{fill:#c99538;}.cls-29{fill:#b21b22;}.cls-30{fill:#9d0918;}.cls-31{fill:#9d6203;}.cls-32{fill:#e1e3e1;}.cls-33{fill:#989b9d;}.cls-34{fill:#a5a8aa;}.cls-35{fill:#b5b7b9;}.cls-36{fill:#c2c4c5;}.cls-37{fill:#b7b9ba;}.cls-38{fill:#a6a8aa;}.cls-39{fill:#f0eee6;}.cls-40{fill:#ffce45;}.cls-41{fill:#dd605c;}.cls-42{fill:#d5494c;}.cls-43{fill:#a7782b;}.cls-44{fill:#a8782a;}.cls-45{fill:#ab7428;}.cls-46{fill:#aa7a28;}.cls-47{fill:#ddb418;}.cls-48{fill:#ccc1a4;}.cls-49{fill:#c7a55b;}.cls-50{fill:#fff;}.cls-51{fill:#974d4c;}.cls-52{fill:#4c4c41;}.cls-53{fill:#4f4b40;}.cls-54{fill:#6d0512;}.cls-55{fill:#e0d0b1;}.cls-56{fill:#e9dec4;}.cls-57{fill:#ffdc73;}.cls-58{fill:#ddddda;}.cls-59{fill:#5e040f;}.cls-60{fill:#c2b497;}.cls-61{fill:#010000;}.cls-62{fill:#010101;}.cls-63{fill:#aaa098;}.cls-64{fill:#533031;}.cls-65{fill:#cacacb;}.cls-66{fill:#b4b6ba;}.cls-67{fill:#b6b8bb;}.cls-68{fill:#babcbf;}.cls-69{fill:#d65052;}.cls-70{fill:#d74d4e;}.cls-71{fill:#d64447;}.cls-72{fill:#d64546;}.cls-73{fill:#d75152;}.cls-74{fill:#d4383b;}.cls-75{fill:#d33539;}.cls-76{fill:#020101;}.cls-77{fill:#070505;}.cls-78{fill:#522a2c;}.cls-79{fill:#191415;}.cls-80{fill:#5d3839;}.cls-81{fill:#94c45b;}.cls-82{fill:#7ca83d;}.cls-83{fill:#eca405;}.cls-84{fill:#d4851a;}.cls-85{fill:#d1bd98;}.cls-86{fill:#af9479;}.cls-87{fill:#d1bd99;}.cls-88{fill:#d1be99;}.cls-89{fill:#a28c74;}.cls-90{fill:#81614b;}.cls-91{fill:#d3c09d;}.cls-92{fill:#d3c09c;}.cls-93{fill:#d1be9a;}.cls-94{fill:#db615e;}.cls-95{fill:#984e4d;}.cls-96{fill:#decfb1;}.cls-97{fill:#ded0b2;}.cls-98{fill:#dfd0b3;}.cls-99{fill:#d0bc97;}.cls-100{fill:#95c45c;}.cls-101{fill:#80aa42;}.cls-102{fill:#b4a482;}.cls-103{fill:#cb232b;}.cls-104{fill:#d3bf9c;}.cls-105{fill:#eaa40c;}.cls-106{fill:#917055;}.cls-107{fill:#8e6b51;}.cls-108{fill:#906d53;}.cls-109{fill:#81ac43;}.cls-110{fill:#7c161f;}.cls-111{fill:#d3bf9b;}.cls-112{fill:#eaa50c;}.cls-113{fill:#d68e27;}.cls-114{fill:#d2bf9b;}.cls-115{fill:#d5891e;}.cls-116{fill:#c92e33;}.cls-117{fill:#eaa50b;}.cls-118{fill:#d78a1a;}.cls-119{fill:#90b055;}.cls-120{fill:#eaa714;}.cls-121{fill:#780d17;}.cls-122{fill:#c68d2a;}.cls-123{fill:#97c15e;}.cls-124{fill:#9cbc63;}.cls-125{fill:#e1a53b;}.cls-126{fill:#86282c;}.cls-127{fill:#88a456;}.cls-128{fill:#98bb5e;}.cls-129{fill:#050303;}.cls-130{fill:#4e3132;}.cls-131{fill:#b4a381;}.cls-132{fill:#cb8d0a;}.cls-133{fill:#b5a482;}.cls-134{fill:#80a54d;}.cls-135{fill:#c28e2f;}.cls-136{fill:#89a457;}.cls-137{fill:#81a24e;}.cls-138{fill:#552224;}.cls-139{fill:#4b2728;}.cls-140{fill:#bf5e62;}.cls-141{fill:#a32228;}.cls-142{fill:#ca898b;}.cls-143{fill:#724848;}.cls-144{fill:#9b9ea0;}.cls-145{fill:#c1c3c6;}.cls-146{fill:#555;}.cls-147{fill:#262626;}.cls-148{fill:#959595;}.cls-149{fill:#72933b;}.cls-150{fill:#bdbfc2;}.cls-151{fill:#c6c8c9;}.cls-152{fill:#bec0c3;}.cls-153{fill:#bcbec1;}.cls-154{fill:#e0e2e0;}.cls-155{fill:#df1d1a;}.cls-156{fill:#f4efdd;}.cls-157{fill:#ff9583;}.cls-158{fill:#ff5749;}.cls-159{fill:#df1d1b;}.cls-160{fill:#ec746a;}.cls-161{fill:#f0bbad;}.cls-162{fill:#ea756c;}.cls-163{fill:#e43d38;}.cls-164{fill:#efb4a6;}.cls-165{fill:#e97168;}.cls-166{fill:#f0b7aa;}.cls-167{fill:#ea6a62;}.cls-168{fill:none;}</style></defs><title>products</title><path class="cls-1" d="M207.35,172.49V214c0,6.95.33,13.89.22,20.84a.27.27,0,0,1-.36-.12h0a3.33,3.33,0,0,1-.21-1.59c0-2.33,0-4.67,0-7,0-1.17,0-2.34.08-3.3a4.57,4.57,0,0,1-1.78,1.94,28.9,28.9,0,0,1-7.33,3.5,61.62,61.62,0,0,1-6.41,1.82,2.18,2.18,0,0,1-1.24.06,3.32,3.32,0,0,1-1.16-1.93c-.27-.7,0-1,.74-.93s1.71.29,2.62.42a1.41,1.41,0,0,0,1,0c-.51-.91-1.22-1.71-1.77-2.56s-.47-1.19.62-1.27a10.59,10.59,0,0,0,3.17-.27c-.71-.86-1.6-1.35-2.25-2.11-.77-.91-.7-1.23.46-1.56a20.57,20.57,0,0,0,2.87-.76,12.21,12.21,0,0,0-2.32-1.65c-.32-.25-.85-.38-.8-.86s.56-.59,1-.74c.85-.35,1.71-.81,2.73-1.28-1.19-.48-2.28-.85-3.31-1.32s-.95-.79-.16-1.39,1.77-1.33,2.78-2.07a28.61,28.61,0,0,0-3-.59c-1.16-.25-1.28-.59-.46-1.49a15,15,0,0,0,1.9-2.15,20.86,20.86,0,0,0-3.06-.08c-1.25-.07-1.39-.29-.75-1.35.5-.86,1-1.72,1.59-2.69a24.08,24.08,0,0,0-3,.62c-1,.19-1.32-.11-1-1.1s.69-1.87,1.08-2.92a20.55,20.55,0,0,0-3.09,1.24c-1.24.45-1.43.31-1.25-1,.12-1,.38-2,.46-3.24a22.49,22.49,0,0,0-2.19,1.48c-.44.3-.86.86-1.43.54s-.33-.85-.33-1.37V193c-.94.85-1.65,1.71-2.44,2.38s-1.09.63-1.41-.41-.36-2-.75-3a17.83,17.83,0,0,0-1.59,2.34c-.25.38-.48.86-1,.86s-.54-.59-.72-1c-.39-.79-.73-1.6-1.18-2.57a22.4,22.4,0,0,0-1.31,3c-.54,1.22-.74,1.25-1.58.21-.67-.86-1.23-1.71-2-2.69-.31,1.12-.35,2.12-.6,3.08s-.64,1.18-1.48.44a15.7,15.7,0,0,0-2.24-2c-.09,1.17,0,2.2-.06,3.23s-.28,1.22-1.26.7-1.66-1.11-2.74-1.61c.15.92.35,1.82.59,2.72.1.44.28.94-.15,1.29s-.81.05-1.21-.09c-.85-.33-1.71-.7-2.66-1,.38,1.1.86,2,1.25,3,.53,1.26.31,1.56-1,1.37-1-.14-2-.3-3.13-.43a16.52,16.52,0,0,0,1.47,2.23c.26.4.85.76.5,1.3s-.86.33-1.38.35a9,9,0,0,0-2.63.24c.8.86,1.55,1.56,2.27,2.28s.58,1-.29,1.32c-1,.36-2.14.53-3.31.86.95.61,1.85,1.13,2.7,1.71s.78.91-.09,1.41-1.79.85-2.88,1.35c1.15.56,2.16.91,3.15,1.29s1.12.78.25,1.51-1.78,1.19-2.66,2a21.48,21.48,0,0,0,2.87.59c1.08.27,1.2.58.56,1.5s-1.34,1.36-2,2.25h2.85c1.51,0,1.71.31.94,1.6-.43.76-1,1.47-1.42,2.42a30.55,30.55,0,0,0,3-.61c1.15-.16,1.35.07,1,1.16s-.69,1.88-1.12,3c1.13-.48,2.11-.92,3.09-1.36.34-.15.72-.42,1.09-.18s.29.76.2,1.16c-.19.86.09,1.83-.85,2.35a32.38,32.38,0,0,1-5.72.53c-6.24.36-12.47.71-18.72.75h-.69c-1.84-.05-3.67,0-5.51,0a2.26,2.26,0,0,1-1.44-.27,1.83,1.83,0,0,1-.31-1.2V212.77a2.53,2.53,0,0,1,.21-.76c1.42-1.87,2.95-3.65,4.5-5.42a2.28,2.28,0,0,1,.22-.22.57.57,0,0,1,.11-.11c.36-.36.59-.86,1-1.18a9.14,9.14,0,0,0,1-1.06,83.47,83.47,0,0,1,12-11.21A93,93,0,0,1,192,173.74c3.88-.55,7.78-.85,11.68-1.12.86-.06,1.71-.21,2.52-.3C206.63,172.3,207,172.2,207.35,172.49Z"/><path class="cls-2" d="M49.28,222.18V80.84a.4.4,0,0,1,.36.24c.71,2.18,2.52,3.21,4.38,4.16a56.43,56.43,0,0,0,13.33,4.31,25.44,25.44,0,0,1,2.57.65,1.08,1.08,0,0,1,.57.58,5.8,5.8,0,0,1,.14,1.71V130a5.36,5.36,0,0,1-.12,1.6.94.94,0,0,1-.2.35c-.57.33-1.13,0-1.71-.09a64.93,64.93,0,0,0-12.41-1.71,1.45,1.45,0,0,0-.85.11,32.81,32.81,0,0,1,3.54,4.9,29.91,29.91,0,0,1,3.51,9.69,2.35,2.35,0,0,1-.8,2.27,31.07,31.07,0,0,0-7.36,12.23c-.41,1.19-.39,1.18.9,1.38A19.89,19.89,0,0,1,63.68,164a2.38,2.38,0,0,1,.44.4,1.22,1.22,0,0,1,.18.36,15.07,15.07,0,0,1,.1,2.77v13.15c0,1.49,0,1.49,1.51,1.71.85.14,1.71.11,2.56.25a7.2,7.2,0,0,0,2.27.13h6.62a1.9,1.9,0,0,1,1.21.28c0,.85-.72.62-1.15.64-1.77.06-3.53,0-5.29,0-1.35,0-1.48.11-1.45,1.42a77.73,77.73,0,0,0,.09,8.22c.12.65-.43.67-.8.85C66.4,195.4,63,197,60.35,199.76A8.84,8.84,0,0,0,58.72,202c-.09.2-.19.4-.29.61l-.13.32c-.95,2-.72,4.07-.47,6.15a5.7,5.7,0,0,0,.15,1c1.37,6.29,5.37,10.57,10.67,13.82.49.3,1,.55,1.5.85a1,1,0,0,1,.47.76c-.07,1.75,0,3.5,0,5.25a.38.38,0,0,1-.23.29,1.33,1.33,0,0,1-.79,0c-5.47-1.15-10.89-2.44-15.93-5A8.68,8.68,0,0,1,49.28,222.18Z"/><path class="cls-1" d="M207.34,81.53V155c0,.54,0,1.07,0,1.61a1.25,1.25,0,0,1-.86.46c-1.48,0-2.92.53-4.42.38-.64-.34-.79-1-1-1.6a41.57,41.57,0,0,0-8.11-12.11c-1.08-1.14-1.13-1.29-.43-2.72a60.73,60.73,0,0,1,8-12c1.07-1.28,1.06-1.34-.57-1.71-1.95-.43-3.92-.78-5.88-1.16-.44-.09-.95-.05-1.14-.62a6.59,6.59,0,0,1-.12-1.83V107.29c0-1.71,0-1.71-1.71-1.89a74,74,0,0,0-13.31,0c-1.53.12-3.05.38-4.58.41a70.48,70.48,0,0,0-10.84-3.74,136.49,136.49,0,0,0-18-2.88c-5.31-.51-10.64-.86-16-.91-2.3.07-4.59,0-6.89,0a2,2,0,0,1-1.21-.27c0-.86.68-.63,1.11-.64,1.63-.07,3.28,0,4.91,0,1.8,0,1.93-.13,1.92-1.59a1.06,1.06,0,0,1,.19-.53c.53-.54,1.22-.42,1.86-.4,4.72.14,9.4-.14,14.16-.31,5.62-.18,11.26-.54,16.88-1,6.63-.57,13.23-1.3,19.79-2.38a99.49,99.49,0,0,0,18.23-4.41,19.17,19.17,0,0,0,6.51-3.6C206.31,82.62,206.52,81.76,207.34,81.53Z"/><path class="cls-3" d="M201.88,157.28l5.45-.65c0,.8.06,1.6,0,2.41v11.61c-1.26.85-2.76.67-4.13.72a108.18,108.18,0,0,0-28.46,5.27,80.43,80.43,0,0,0-19.62,9.2,121.13,121.13,0,0,0-13.42,10.33c-3.8,3.3-7.26,7-11.24,10.09a10.06,10.06,0,0,1-1.3,1c-.37.2-.78.45-1-.18a3.6,3.6,0,0,1-.12-1.13V191.53a4,4,0,0,1,.11-1.14c.16-.5.6-.66,1-.8,7.94-2.57,15-6.84,22-11.26,6.22-4,12.35-8.13,18.81-11.69A68.64,68.64,0,0,1,190.63,159c3.22-.6,6.43-1.16,9.63-1.84C200.82,157,201.33,157.51,201.88,157.28Z"/><path class="cls-4" d="M207.31,68.16a17.2,17.2,0,0,1,.07,3v6.75a3.77,3.77,0,0,1-1.71,2.63,24.81,24.81,0,0,1-6.75,3.42,110.82,110.82,0,0,1-20.09,4.62c-6,.94-12,1.6-18,2.07q-6.47.51-13,.8c-5.91.26-11.82.47-17.73.41-.64,0-1.33.15-1.86-.41a2.37,2.37,0,0,1-.22-1.12V83a2.53,2.53,0,0,1,.2-1.12c.45-.59,1.11-.45,1.71-.45,4.27,0,8.55-.17,12.82-.3q7.37-.21,14.73-.85c6.75-.53,13.48-1.16,20.18-2.13a129.15,129.15,0,0,0,19.05-4.06,36.69,36.69,0,0,0,6.3-2.57A10.59,10.59,0,0,0,207,68.22.37.37,0,0,1,207.31,68.16Z"/><path class="cls-5" d="M48.3,65.43c0-.06-.12-.12-.12-.19a18.09,18.09,0,0,1,.07-4.35,5.26,5.26,0,0,1,2.2-3.37,23.21,23.21,0,0,1,5.84-3.2A86.51,86.51,0,0,1,70,50.4q4.53-1,9.15-1.62c2.56-.38,5.21-.77,7.83-1.1,1.71-.23,3.42-.35,5.13-.52l6.4-.64c1.1-.11,2.22-.17,3.32-.21,2-.08,4.07-.19,6.08-.36,2.3-.2,4.6,0,6.9-.34a19.62,19.62,0,0,1,2.87-.06h6.84a16.45,16.45,0,0,0,3-.15,5.52,5.52,0,0,1,2.18.07,4.83,4.83,0,0,0,1.14.08c1.65,0,3.31.06,5,0,3.77-.1,7.53.21,11.29.3,2.56.06,5.2.27,7.8.45,2.79.2,5.57.38,8.35.69,3.61.4,7.22.79,10.82,1.28,4.67.65,9.31,1.38,13.9,2.4,5.48,1.22,10.91,2.56,15.91,5.24a14.24,14.24,0,0,1,3.09,2.2,4.55,4.55,0,0,1,1.6,4.1,5.23,5.23,0,0,1-2.27,3.2,26.27,26.27,0,0,1-7.61,3.77c-7.83,2.76-16,4.17-24.16,5.32-6.2.86-12.42,1.48-18.67,1.9q-6.9.46-13.79.72c-2.56.09-5.07.13-7.6.18-3.19,0-6.38,0-9.57,0-6.11.1-12.21-.16-18.3-.51a251.93,251.93,0,0,1-36.12-4.27,78.11,78.11,0,0,1-14.54-4.15,30.1,30.1,0,0,1-4-2c-1.47-.86-2.93-1.84-3.5-3.6A2.72,2.72,0,0,1,48.3,65.43Z"/><path class="cls-6" d="M134.43,77h.47c3.72.1,7.44-.21,11.16-.3,2.76-.06,5.51-.28,8.26-.44s5.67-.41,8.48-.69c3.42-.34,6.78-.69,10.15-1.15,5.77-.8,11.51-1.71,17.18-3.08a73.13,73.13,0,0,0,11.39-3.6A18.29,18.29,0,0,0,207,64.36a16,16,0,0,0,1.53-2.14v2.16a4.09,4.09,0,0,1-.78,2.66,2.27,2.27,0,0,0-.45,1.14h-.09a22.94,22.94,0,0,1-7.91,4.38,112.36,112.36,0,0,1-20.62,4.93c-6.34,1-12.71,1.71-19.11,2.27-4.48.38-9,.62-13.46.8-6,.25-12,.46-18,.43a4.42,4.42,0,0,1-2.13-.26c-.78-1-.53-2.12-.34-3.2.1-.57.63-.46,1-.46h6.58A2.36,2.36,0,0,0,134.43,77Z"/><path class="cls-7" d="M128.43,91.52c3.73,0,7.47.11,11.19,0,2.15-.1,4.27-.06,6.44-.2,2.83-.2,5.67-.31,8.5-.46s5.89-.37,8.82-.7c3.15-.35,6.31-.65,9.47-1.06,3.33-.44,6.67-.85,10-1.47a87.43,87.43,0,0,0,17.92-4.7,20,20,0,0,0,4.45-2.41,7,7,0,0,0,2.18-2.57,27.94,27.94,0,0,1,0,3.66c-1,2.06-2.84,3.18-4.78,4.14a45.21,45.21,0,0,1-9.1,3.23A147.07,147.07,0,0,1,177.66,92c-4.06.6-8.14,1.05-12.22,1.51-2.17.24-4.35.37-6.53.53-3,.22-6,.45-9,.63-2,.11-4,.17-6,.23-5,.13-10,.37-15,.29h-.58l-.13-.15a13.1,13.1,0,0,1-.16-3.48.21.21,0,0,1,.29,0Z"/><path class="cls-8" d="M134.43,77c-.31.32-.72.21-1.09.21h-6.46c-1,0-1,0-1,.94s-.22,1.71.23,2.49a1.7,1.7,0,0,1-1.4.38c-4.61,0-9.21-.22-13.82-.4q-4.44-.18-8.86-.47c-4.64-.3-9.27-.74-13.89-1.24-5.62-.72-11.25-1.42-16.81-2.57A98.09,98.09,0,0,1,58.2,72.9a26.87,26.87,0,0,1-7.52-3.7,4.86,4.86,0,0,1-1.43-1.63,4.8,4.8,0,0,1-1-2.06V62.65c.42,0,.41.34.54.54a9.34,9.34,0,0,0,3.62,3.12,54.57,54.57,0,0,0,13.59,4.86c4,1,8.07,1.71,12.15,2.36,2.72.41,5.44.85,8.17,1.12,2.47.27,4.92.68,7.4.86,1.3.08,2.56.2,3.89.32a34.78,34.78,0,0,1,4.56.39.88.88,0,0,0,.23,0,54.31,54.31,0,0,1,5.85.29c2.27.11,4.53.06,6.78.22,5.84.4,11.68.09,17.51.19Z"/><path class="cls-9" d="M128.43,207.36a16,16,0,0,0,3-2.26c2.11-1.77,4.08-3.71,6.11-5.58A145.79,145.79,0,0,1,153,187a80.25,80.25,0,0,1,12.5-7.09,90.92,90.92,0,0,1,15.39-5.32c3.15-.81,6.32-1.54,9.5-2.17a43.49,43.49,0,0,1,4.42-.61c2.32-.26,4.65-.28,7-.62,1-.14,2.05-.14,3.09-.23.85-.08,1.65-.25,2.49-.28a8.09,8.09,0,0,1,0,1.84c-2.62.37-5.26.54-7.9.75a100.77,100.77,0,0,0-25,5,91.79,91.79,0,0,0-19.87,9.61,95.38,95.38,0,0,0-13,10.05,78.59,78.59,0,0,0-6.18,6.2,1.39,1.39,0,0,1-.27.21,5.56,5.56,0,0,0-1.12,1c-.36.31-.59.74-.95,1a33.79,33.79,0,0,1-3.63,3c-.34.26-.72.69-1.18.13a3.67,3.67,0,0,1-.06-1.86A.76.76,0,0,1,128.43,207.36Z"/><path class="cls-10" d="M69.78,90.35a65.13,65.13,0,0,1-15.39-4.6,18.09,18.09,0,0,1-2.5-1.42,5.58,5.58,0,0,1-2.56-3.51V68.16h.17l.17.09a.55.55,0,0,1,.18.31,1.09,1.09,0,0,1,0,.36c-.07,2.69,0,5.38,0,8.06a3.34,3.34,0,0,0,1.07,2.45A17.23,17.23,0,0,0,57.09,83a80.77,80.77,0,0,0,11.62,3.25c.62.14,1.33.15,1.71.86a6.25,6.25,0,0,1,.12,2.51C70.52,90,70.52,90.57,69.78,90.35Z"/><path class="cls-10" d="M49.28,222.18c.13.08.32.13.38.24a9.48,9.48,0,0,0,4.07,3.42,44.24,44.24,0,0,0,8.55,3.2c2.61.75,5.27,1.3,7.92,1.89a4.94,4.94,0,0,1,.18,3.43c-.32.42-.76.3-1.16.22-5.49-1.13-10.94-2.4-15.94-5.06a8.77,8.77,0,0,1-3.54-2.84c0,2.13,0,4.34,0,6.55,0,.45.18,1-.47,1.26l-.07-1.32Q49.26,227.7,49.28,222.18Z"/><path class="cls-11" d="M49.68,68.6a.26.26,0,0,0,0-.21.19.19,0,0,0-.14-.16l-.07-.07-.16-.2v-.48c3.29,3.23,7.53,4.61,11.77,5.93A75,75,0,0,0,71,75.83c.1,0,.18.12.29.18a4.43,4.43,0,0,0-1,1,1.09,1.09,0,0,1-.5.16,66.23,66.23,0,0,1-16-4.79,16.12,16.12,0,0,1-2.9-1.87A2.43,2.43,0,0,1,49.68,68.6Z"/><path class="cls-8" d="M49.27,68a.17.17,0,0,1,.17.18v0h-.12A.35.35,0,0,1,49.27,68Z"/><path class="cls-12" d="M49.33,234.54a1.79,1.79,0,0,0,.12-1.12v-7.53c2.07,2.93,5.08,4.11,8.08,5.24a70.19,70.19,0,0,0,12.18,3.27,2.12,2.12,0,0,1,.55.14l.14.17a.9.9,0,0,1,.13.39c.09,2.56,0,5.13,0,7.69a4.41,4.41,0,0,0,.09,1.26,1.65,1.65,0,0,1,.11.36.41.41,0,0,1-.21.47.93.93,0,0,1-.52.05,3.56,3.56,0,0,0-.86-.11,60,60,0,0,1-15.47-4.77A12.16,12.16,0,0,1,50,237.31a1.81,1.81,0,0,1-.65-1.54l-.17-.94Z"/><path class="cls-4" d="M207.43,234.83l-.22,1.16c0,1.29-.93,2-1.83,2.62a28.83,28.83,0,0,1-9.2,4.14A151.89,151.89,0,0,1,172,247.39c-5.64.72-11.3,1.2-17,1.56-3.91.25-7.83.4-11.74.57-4.41.2-8.82.12-13.24.18a2.17,2.17,0,0,1-1.71-.38.77.77,0,0,1-.14-.32,71.67,71.67,0,0,1,.05-9.61.92.92,0,0,1,.29-.33,3.88,3.88,0,0,1,1.82-.21c4.79.16,9.59-.13,14.38-.29,6.33-.21,12.65-.6,18.95-1.23a2.71,2.71,0,0,1,.57,0c.68.59,1.19-.08,1.78-.23.85,0,1.76-.18,2.65-.14.73.43.52,1.26.8,1.89.59-.66.79-1.58,1.54-2.08a5.13,5.13,0,0,1,1.29-.22.88.88,0,0,1,.32.07,1.14,1.14,0,0,1,.35.34,13,13,0,0,1,1,2.29c.58-1,.67-2.2,1.5-3.05a1.53,1.53,0,0,1,1.14-.21c1.07.42,1.34,1.6,2.16,2.32.54-.85.15-2,.9-2.68a2.18,2.18,0,0,1,1.3-.33c.95.21,1.33,1.22,2.24,1.71.06-.65-.29-1.3.13-1.84a6,6,0,0,1,2.84-.85,1.11,1.11,0,0,1,.63.19c.48.42.53-.1.72-.33a5.23,5.23,0,0,1,2-.62,60.36,60.36,0,0,0,12.72-4,10.86,10.86,0,0,0,4.44-3.37.69.69,0,0,1,.66-.38v7.7C207.36,233.92,207.4,234.37,207.43,234.83Z"/><path class="cls-2" d="M128.41,212.35V235.5c-.51.5-1.15.36-1.71.37-5.31.11-10.61,0-15.9-.25-7.17-.33-14.33-.77-21.47-1.57a4.06,4.06,0,0,1-.91-.17,1.07,1.07,0,0,1-.55-.41,5.8,5.8,0,0,1-.2-2.38c0-.86-.24-1.3-1.16-1.28-.41,0-1,.08-1.07-.57a3.73,3.73,0,0,1,2.35-.27c2.14.57,4.27.07,6.42-.1a51.57,51.57,0,0,0,29.07-12.11c1.35-1.16,2.57-2.41,3.86-3.64C127.53,212.8,127.83,212.35,128.41,212.35Z"/><path class="cls-13" d="M165.8,237.36l-1,.78c-.21-.13-.15-.34-.18-.52-.51-1-.22-2.08-.47-3.09v-.3a1.48,1.48,0,0,0,.05-.35.39.39,0,0,0-.28.11l-.21.19-.11.1c-.67.61-1.46,1.07-2.18,1.61-.27.21-.59.48-.92.29s-.28-.67-.21-1.05a1.76,1.76,0,0,1,.39-.8c.17-1,.34-2,.53-3.25l-4.68,2.06c.35-1.63,1.15-3,1.54-4.56l-4.7,1c.91-1.52,1.71-2.81,2.57-4.28h-4.89c1-1.29,2.19-2.23,3.13-3.56l-4.63-.86c1.3-1.21,2.73-2,4-3.12l-4.76-1.88,4.34-2c-1.23-1-2.64-1.64-4-2.67l4.65-1.16a8,8,0,0,0-1.58-1.71c-.5-.55-1-1.1-1.6-1.71,1.48-.41,3-.13,4.55-.36-.77-1.37-1.83-2.43-2.56-3.88,1.71.08,3.21.5,5,.65l-2-4.63c1.59.34,2.88,1.11,4.44,1.51-.09-1.59-.72-3-.85-4.66l4.15,2.56V193c1.36,1,2.28,2.16,3.54,3.12.48-1.54.49-3,.94-4.67l3,4.11,1.87-4.72c.86,1.43,1.3,2.87,2.11,4.33.85-1.37,1.71-2.64,2.63-4.13l1.17,4.87c1.22-1.17,2.23-2.35,3.54-3.61v4.92c1.58-.85,2.72-1.91,4.18-2.78l-.77,5c1.65-.49,3.05-1.37,4.75-1.92-.57,1.53-1.1,2.94-1.71,4.53l4.77-1-2.56,4.22h4.84c-1,1.35-2.11,2.33-3.15,3.54,1.6.45,3.14.44,4.72.94l-4,3c1.54.81,3.11,1.24,4.77,2l-4.47,2,4,2.57c-1.57.68-3.17.71-4.67,1.32,1,1.22,2.28,2.11,3.42,3.32a29.64,29.64,0,0,1-4.7.33c.73,1.41,1.84,2.48,2.62,3.94-1.71-.09-3.24-.52-4.94-.7a16.45,16.45,0,0,0,1,2.57c.14.07.3.12.37.26.27.61,1,1.29.55,1.86s-1.16-.08-1.71-.26a13.07,13.07,0,0,1-2.34-.92.81.81,0,0,1-.25-.3c0,.2.15.31.18.48.09,1.09.85,2.08.48,3.22l.06.86-1.24-.68c-1-.1-1.65-.9-2.61-1.23-.2.69.05,1.38-.34,1.95-.14.73.3,1.43.07,2.28-1-.49-1.55-1.49-2.43-2.06-.54-.42-1-.45-1.36.24-.2,1-.39,2.07-.59,3.12-.47.11-.58-.29-.77-.53a15,15,0,0,0-1.64-2.16c-.5-.52-.85-.33-1.18.21l-1.48,3.42a24.09,24.09,0,0,1-1.3-2.94,1.58,1.58,0,0,0-.22-.23h0c-.62-1.07-.93,0-1.38.21l-1.71,2.56a8.22,8.22,0,0,1-.64-2.24,2.08,2.08,0,0,1-.59-1.19c-.13-.58-.37-.55-.77-.19A11.12,11.12,0,0,1,165.8,237.36Z"/><path class="cls-14" d="M128.41,212.35c-1.48,1.39-2.85,2.89-4.39,4.23a51.87,51.87,0,0,1-26.83,12.29,59.93,59.93,0,0,1-7.8.57A3.3,3.3,0,0,1,88,229.3a1.52,1.52,0,0,1-.34-1c0-1.49,0-3,0-4.48a1.66,1.66,0,0,1,.31-1,2.83,2.83,0,0,1,2.21-.38,58,58,0,0,0,22.7-4.37A66.42,66.42,0,0,0,126.28,211c.66-.47,1.24-1.19,2.19-1.1.46.67.2,1.38.12,2.08Z"/><path class="cls-10" d="M88.29,233.64l7,.63c2.22.18,4.44.38,6.66.5,8.35.49,16.73.86,25.1.78a12.46,12.46,0,0,0,1.37-.05l6.92.06c-.21.64-.78.51-1.24.52-1.37,0-2.74,0-4.12,0-.85,0-1.23.35-1.2,1.23a2.37,2.37,0,0,1-.36,1.86v.06a2.38,2.38,0,0,1-1.65.32c-5.54.06-11.06-.22-16.58-.41-6.23-.2-12.42-.71-18.62-1.22-.77-.06-1.53-.19-2.29-.27-.28-.05-.54-.17-.86-.23a1.17,1.17,0,0,1-.38-.17.85.85,0,0,1-.26-.33,7.38,7.38,0,0,1-.09-2.48C87.75,234.1,87.75,233.66,88.29,233.64Z"/><path class="cls-7" d="M128.41,239.18v-2.63c0-.58.21-.85.8-.85h5c.37,0,.77.12,1.09-.18a3.69,3.69,0,0,1,.47,0c3.48-.1,7-.11,10.46-.29,4.36-.23,8.73-.4,13.08-.86.46-.05.92-.05,1.38-.07.12.56-.39,1.08-.08,1.79l3.1-2.21a.92.92,0,0,1,.68.16,14.56,14.56,0,0,1,.22,3.55c-1.34.12-2.67.2-4,.36-1.07.12-2.13.12-3.2.24-1.33.16-2.67.17-4,.27-2.75.2-5.5.21-8.25.44-1.33.12-2.69,0-4,.06-3.83.17-7.69.26-11.49.21C129.25,239.2,128.83,239.19,128.41,239.18Z"/><path class="cls-7" d="M187.07,230.66l4.14,1.63-.92-2.24a27.89,27.89,0,0,0,4.13-1,43.17,43.17,0,0,0,8.8-3.29,10,10,0,0,0,4.1-3.57v3.57c-1.81,2.75-4.65,4-7.55,5.13a77,77,0,0,1-11.24,3.19l-1,.25a19.11,19.11,0,0,1-.73-3.42C186.83,230.77,187,230.73,187.07,230.66Z"/><path class="cls-15" d="M128.59,212c-.35-.67-.07-1.39-.17-2.07,0,0-.06-.09,0-.14s.05-.05.07-.05a17.3,17.3,0,0,0,2.73-2c.64-.47,1.23-1,1.85-1.51.22-.07.27,0,.23.24h0l-.22.24C131.57,208.44,130.18,210.28,128.59,212Z"/><path class="cls-16" d="M133.26,206.42l-.23-.24a3,3,0,0,1,.93-.93.2.2,0,0,1,.28,0l0,0A4.51,4.51,0,0,1,133.26,206.42Z"/><path class="cls-17" d="M134.27,205.29H134c.3-.43.59-.86,1.18-.92A3.31,3.31,0,0,1,134.27,205.29Z"/><path class="cls-16" d="M133,206.67l.21-.24A.28.28,0,0,1,133,206.67Z"/><path class="cls-18" d="M78.56,183.13H70.29a4.63,4.63,0,0,1-1.92-.18,1,1,0,0,1,.69-.39c.61-.1.81-.5.86-1.06V151.08a3.94,3.94,0,0,1,.25-2,2.25,2.25,0,0,1,1.84-.41A48.09,48.09,0,0,0,80.9,148a25.53,25.53,0,0,0,5.61-1.15c.53-.14,1.07-.51,1.64-.09.47,1.5.1,3.06.25,4.59a1.81,1.81,0,0,1-.85,1.42C84.87,155,84.91,158,85.19,161c.09,1,1,1.45,1.71,2,.12.86,1.15,1.13,1.37,1.95a37.56,37.56,0,0,1,0,5.81,2.43,2.43,0,0,1-2.35,1c-.49-.13-.51-.18-.36-1.16a4.43,4.43,0,0,0-2.65,4.16,1.35,1.35,0,0,0,.77,1.19c.33.18.78.15.94.6.08,1,.85,1.07,1.57,1.15s1.39-.19,2,.4a4.19,4.19,0,0,1,.19,1.89,3,3,0,0,0,.42,1.71c-.34.86-1.19.37-1.71.71a65.25,65.25,0,0,1-7.51.92A1.09,1.09,0,0,1,78.56,183.13Z"/><path class="cls-19" d="M64,164.47l-.23-.15a.18.18,0,0,1-.18-.14,20.88,20.88,0,0,0-8.23-3.11c-.6-.08-1.21-.13-1.83-.2a3.15,3.15,0,0,1,.26-1.25,32.06,32.06,0,0,1,7.91-13.09,1.41,1.41,0,0,0,.42-1.43,29.43,29.43,0,0,0-6.71-14.32l-.69-.77c1.83-.59,10.54.5,15.29,1.89.54.26.57.78.57,1.28,0,2.67.07,5.35,0,8a1.69,1.69,0,0,1-.07.38,2.21,2.21,0,0,1-.8.94,35.26,35.26,0,0,0-4.66,4.88,2.4,2.4,0,0,0-.61,1.33c-.1,4.64,0,9.25,0,13.88C64.38,163.24,64.53,163.93,64,164.47Z"/><path class="cls-20" d="M70.26,131.84V90.58c.39-.38.85-.25,1.31-.17,4.83.86,9.68,1.62,14.53,2.16a5.16,5.16,0,0,1,1.34.33,1.38,1.38,0,0,1,.91,1.43c0,2.2.08,4.4,0,6.6a1.32,1.32,0,0,1-.13.38c-.39.5-1,.5-1.55.63A50.11,50.11,0,0,0,76,105.56a26.66,26.66,0,0,0-2.45,1.49A4.84,4.84,0,0,0,71,112a43.94,43.94,0,0,0,3.74,16.39,46.53,46.53,0,0,0,2.3,4.64c.2.35.64.75.16,1.21-.49.16-.86-.1-1.32-.25-1.52-.5-3-1.07-4.57-1.48C70.91,132.46,70.45,132.35,70.26,131.84Z"/><path class="cls-21" d="M64,164.47V149.54c0-.43-.17-.93.24-1.29a.85.85,0,0,1,.64-.21c1.71.31,3.42.25,5.13.69a.73.73,0,0,1,.29.26v32.25c0,1.6,0,1.6-1.56,1.64a2,2,0,0,0-.34.05,32.6,32.6,0,0,1-3.42-.27c-.79-.07-.8-.08-.81-.91V165.84A5.78,5.78,0,0,0,64,164.47Z"/><path class="cls-20" d="M78.56,183.13c2.85-.24,5.69-.57,8.55-.95.86-.31,1.25.06,1.28.86.07,2.27,0,4.52,0,6.79,0,1.24-1,1.15-1.8,1.32-3.61.49-7.27.65-10.83,1.46-1.24.28-2.47.57-3.7.9-.43.11-.85.33-1.31,0-.39,0-.48-.3-.48-.65V184c0-.59.3-.69.79-.69h6.31C77.77,183.34,78.22,183.49,78.56,183.13Z"/><path class="cls-22" d="M70.77,193.51c1.79-.42,3.56-.9,5.35-1.28A57.33,57.33,0,0,1,84,191.17c.85,0,1.71-.15,2.51-.23a3.54,3.54,0,0,1,1.65,0,3.45,3.45,0,0,1,.29,2.12v3.35a1.44,1.44,0,0,0,1,1.61c-.06.58-.07.58-1.11.66h-.4a3.19,3.19,0,0,0-1.3.15,71.08,71.08,0,0,0-14.83,3.34c-.51.18-1.07.55-1.61,0a7.41,7.41,0,0,1-.2-2.61c-.05-1.87.1-3.74-.12-5.61C70,193.62,70.5,193.84,70.77,193.51Z"/><path class="cls-23" d="M88.28,222.85a1.8,1.8,0,0,0-.24,1.2v5.25H85.47c-.85.49-1.66.1-2.46,0a41.9,41.9,0,0,1-11.51-3.23c-.39-.17-.81-.3-1-.74l-.52-.42a23.06,23.06,0,0,1,.1-5.69c.33-.43.76-.32,1.15-.17A68.75,68.75,0,0,0,88,222.6.68.68,0,0,1,88.28,222.85Z"/><path class="cls-24" d="M69.78,194c.62.1.48.6.48,1v7.37a.31.31,0,0,1-.06.32,31.41,31.41,0,0,0-4.8,2.7c-2,1.46-3.6,3.13-3.72,5.77a.54.54,0,0,1-.29.47c-.65-.06-1-.55-1.34-1a10.7,10.7,0,0,1-2.31-5.3,8.09,8.09,0,0,1,.45-2.8h0c.2-.11.15-.34.23-.5a10,10,0,0,1,3.22-3.83A24.83,24.83,0,0,1,69.78,194Z"/><path class="cls-20" d="M70.55,225.32A47.91,47.91,0,0,0,79,228.24c2.14.5,4.28.76,6.48,1.06.47.4,1,.18,1.54.21,1,.06,1,0,1,1s0,2,0,3a2,2,0,0,1-1.65.26c-4.9-.6-9.79-1.25-14.64-2.2-.47-.09-1-.06-1.26-.63a1.79,1.79,0,0,1-.23-1v-3.77C70.26,225.83,70.24,225.51,70.55,225.32Z"/><path class="cls-25" d="M87.34,93.12c-2.26-.31-4.53-.63-6.84-.93-3.14-.41-6.26-.93-9.4-1.53a3.12,3.12,0,0,0-.91-.08l-.48-.23c.45-.06.49-.38.49-.75V86.88l.15-.13a1.77,1.77,0,0,1,1,0c5.32,1,10.67,1.71,16,2.37a1.76,1.76,0,0,1,.45.12.81.81,0,0,1,.29.29,6.75,6.75,0,0,1-.08,3.54A.67.67,0,0,1,87.34,93.12Z"/><path class="cls-25" d="M70.49,230.9a39.58,39.58,0,0,0,4.71.92c3,.48,6.12.94,9.18,1.33a18.73,18.73,0,0,0,3.66.32l.25.18c-.32.24-.25.61-.25.94v2.57a1.49,1.49,0,0,1-1.41.27c-4.78-.6-9.56-1.24-14.3-2.12a3.54,3.54,0,0,1-2-.69h0V231Z"/><path class="cls-14" d="M70.29,219.1v4.77c0,.37.13.77-.25,1-5.13-2.65-9.17-6.33-11.4-11.78a10.9,10.9,0,0,1-.86-3c-.08-.22,0-.31.22-.35.42.12.6.48.82.79,2.48,3.5,6,5.69,9.78,7.4a13.18,13.18,0,0,1,1.66.78A.29.29,0,0,1,70.29,219.1Z"/><path class="cls-26" d="M70.26,131.84a14,14,0,0,0,2.37.77l4.61,1.63a5.32,5.32,0,0,1,3.7,1.79c-.2.44-.63.53-1,.66a29.58,29.58,0,0,0-8.39,4.42c-.36.26-.69.64-1.23.47v-8.35a2,2,0,0,0-.24-1.32Z"/><path class="cls-27" d="M70.24,218.93a26,26,0,0,1-7.16-3.65,16.93,16.93,0,0,1-5.14-5.38c-.33-.12-.27-.49-.45-.71a11.33,11.33,0,0,1,.23-5.92,1.56,1.56,0,0,1,.44-.79,5.47,5.47,0,0,1,0,.81c-.54,3.42.79,6,3.25,8.22.9.33,1.37,1.21,2.13,1.72a32,32,0,0,0,5.8,3.24,2.29,2.29,0,0,1,.86.51.92.92,0,0,1,.18.32A1.49,1.49,0,0,1,70.24,218.93Z"/><path class="cls-28" d="M57.56,209.19a1.34,1.34,0,0,1,.45.71l-.26.27A1.21,1.21,0,0,1,57.56,209.19Z"/><path class="cls-27" d="M58.45,202c0,.22,0,.41-.23.5A.56.56,0,0,1,58.45,202Z"/><path class="cls-21" d="M63.61,164.2l.18.14a.15.15,0,0,1-.18-.13Z"/><path class="cls-29" d="M173,105.52a47.53,47.53,0,0,1,4.91-.53,71.18,71.18,0,0,1,8.64-.22c1.84.1,3.69.13,5.52.33,1,.1,1,.1,1,1.1v18.21a12.73,12.73,0,0,0,0,1.38,2.4,2.4,0,0,1,.34,1.43v8.55c0,1.45-.13,1.54-1.58,1.55a4.9,4.9,0,0,0-1.48.14c-2.84.16-5.68.3-8.51.56a82.11,82.11,0,0,0-12.27,2.08,1.58,1.58,0,0,0-1.35,1.78v13.76a7,7,0,0,1-.12,1.83.71.71,0,0,1-.25.34c-.74-.35-.54-1-.54-1.6V142c.08-.93-.31-1.18-1.15-.86a58.53,58.53,0,0,0-9.91,3.63,128.91,128.91,0,0,0-18.46,10.07c-.65.38-1.28.85-1.91,1.24-1.41,1-2.83,2-4.27,3-.77.55-1.53,1.11-2.33,1.64-.34.22-.75.64-1.13,0a15,15,0,0,1-.07-3.67,1.24,1.24,0,0,1,.39-.68c2.49-2,3.74-4.78,5-7.56.31-.7.59-1.41.91-2.11.14-.31.17-.78.7-.77.33.35.24.79.32,1.19a2.24,2.24,0,0,0,1.26,1.91c.1.11,0-.05.09.07,1.38,1.71,1.71,1.78,3.27.15a29.3,29.3,0,0,0,4.82-7.55,6.46,6.46,0,0,0,1-2.82c-1,1.28-1.47,2.68-2.26,3.92-.52.85-1,1.63-1.59,2.41-.39.52-.81,1.06-1.6.8-.2-.52.16-.85.4-1.25a51,51,0,0,0,2.95-5.44,4.69,4.69,0,0,0,.53-2c-.92,1.39-1.51,2.79-2.28,4.07a16.93,16.93,0,0,1-1.33,2c-.26.32-.52.86-1.09.42a9.38,9.38,0,0,1,.55-3.71c1.13-4.46,2.64-8.81,3.9-13.23a21.2,21.2,0,0,1,.71-2.31c.26-.49.53-1,1.18-1,.59.73-.25,1.45,0,2.37,1-.76,1.87-1.59,2.76-2.38a24.35,24.35,0,0,1,2.9-2.27c.34-.22.7-.56,1.13-.15a1.17,1.17,0,0,1-.07,1c-.34.86-.61,1.71-.9,2.57a9.13,9.13,0,0,1-2.95,4.81,6.18,6.18,0,0,0-1.82,2.36,1.7,1.7,0,0,0,.43,2.38l.09.06a1.64,1.64,0,0,1,.64,1.8c-.34,1.71-.91,3.42-1.25,5.13-.1.53-.16,1.07-.21,1.6-.07.86.21,1.33,1.08,1.41l.08.07c.37.35.14,1.26.85,1.21s.86-.86,1.11-1.35a27.31,27.31,0,0,0,1.18-3.62,1.08,1.08,0,0,0,0-.79c-.64-1.06-.07-2,.21-3s1-1,1.78-1.32a23.67,23.67,0,0,0,9.74-6.17c3.18-3.42,4.52-7.44,3.21-12.11a7.6,7.6,0,0,0-1.34-2.49,3,3,0,0,0-.76-.65c-1.71-2.2-3.91-2.62-6.49-2.1a20.34,20.34,0,0,0-10.26,5.4,5.69,5.69,0,0,0-1.54,2.48,7.81,7.81,0,0,1-.93,2.46c-.46,0-.72-.41-1.14-.46-1.09-1.63-1.27-1.66-2.37,0a34.17,34.17,0,0,0-3.42,7.54,116.91,116.91,0,0,1-5.37,13c-.23.49-.2,1.37-1.15,1.26a1.91,1.91,0,0,1,.19-1.55c1.12-3.15,2.18-6.31,3.34-9.41a12.22,12.22,0,0,0,.85-5.41c-.07-.86-.24-1.71-1.19-2-.1-.12,0,0-.1-.07-1.37-1.71-1.37-1.71-3.12-.19-.6.54-1.24,1-1.83,1.58-.27.25-.61.69-1,.1a13.09,13.09,0,0,1-.08-3.25,2,2,0,0,1,.09-.35,3.73,3.73,0,0,1,1.4-1.16,110.69,110.69,0,0,1,24.18-12,91.69,91.69,0,0,1,17.8-4.46A3.38,3.38,0,0,1,173,105.52Z"/><path class="cls-30" d="M167.9,157.65l0-.17a5.54,5.54,0,0,1,1.3-2,68.5,68.5,0,0,1,21.57-17.67c.47-.25,1-.31,1.71-.65-.85.33-1.56.51-2.21,0,.85-.46,1.79-.06,2.8-.21V125.83a79.55,79.55,0,0,1,8.91,1.84l-1.33,1.59a65.24,65.24,0,0,0-8.11,12.12c-.65,1.28-.61,1,.26,1.93a41.92,41.92,0,0,1,9.06,14c0,.2.12.5-.26.42s-.8-.22-1.19-.34a4.89,4.89,0,0,1-2.05-.08,64.6,64.6,0,0,0-13.94-1.27,79.07,79.07,0,0,0-14.71,1.71C169.11,157.86,168.48,158.22,167.9,157.65Z"/><path class="cls-14" d="M88,101.39a.29.29,0,0,0,0-.13,1.72,1.72,0,0,1,1.22-.57,149.39,149.39,0,0,1,17.61-2.43q5.79-.45,11.61-.65a2.25,2.25,0,0,1,1.66.3h8.32A1.39,1.39,0,0,1,128.8,99v7.1a1.89,1.89,0,0,1-.24,1c-.63.57-1.42.27-2.13.37-4-.08-8.06,0-12.08.27-8.21.52-16.38,1.36-24.35,3.57-.66.19-1.34.67-2.07.15a1.43,1.43,0,0,1-.22-.77c0-2.79,0-5.59,0-8.38A1.48,1.48,0,0,1,88,101.39Z"/><path class="cls-31" d="M128.43,107.16V98c2.93-.14,5.83.15,8.75.28,2.5.12,5,.34,7.46.61a109.47,109.47,0,0,1,23.61,4.6,26.66,26.66,0,0,1,4.76,2,72.53,72.53,0,0,0-7.34,1.24,94.42,94.42,0,0,0-10.72,3c-.36.12-.71.28-1.06.43a175.31,175.31,0,0,0-19.11-2.39c-1.71-.12-3.42,0-5.13-.26C129.18,107.46,128.74,107.52,128.43,107.16Z"/><path class="cls-2" d="M120.13,97.91c-3.54.11-7.07.25-10.6.49a152.84,152.84,0,0,0-20.33,2.66c-.38.08-.76.13-1.14.2,0-2.3,0-4.6,0-6.9a1.18,1.18,0,0,0-.71-1.24l.7-.05a1.51,1.51,0,0,1,1.12-.15c4.66.44,9.33.85,14,1.15,3.18.22,6.37.42,9.55.47,4.69.06,9.41.44,14.06.29a2.38,2.38,0,0,1,1.71.31v1.91c0,.48-.2.68-.68.68h-6.59C120.85,97.73,120.45,97.61,120.13,97.91Z"/><path class="cls-1" d="M167.9,157.65a8.52,8.52,0,0,0,2.69-.44,73.62,73.62,0,0,1,16.95-1.51,62.09,62.09,0,0,1,12.88,1.66,7.3,7.3,0,0,1-2.56.59c-5.5,1.07-11,1.93-16.35,3.8a78.87,78.87,0,0,0-13,6.12c-5.92,3.37-11.56,7.19-17.3,10.85a133.13,133.13,0,0,1-14.42,8.2,80.06,80.06,0,0,1-8.36,3.28,1,1,0,0,1-.24-.39,5.73,5.73,0,0,1-.11-1.49V162.83a4.68,4.68,0,0,1,.12-1.49.82.82,0,0,1,.25-.38l3.18-2.11a9.1,9.1,0,0,1,2.39-.75c.9-.16,1.61-.47,1.55-1.59a1,1,0,0,1,.27-.61,7.46,7.46,0,0,1,1.83-1.21,8.69,8.69,0,0,1,1.86-.57c7.57-1.51,14.69-4.09,20.93-8.78a35.78,35.78,0,0,0,4.2-3.58,6.48,6.48,0,0,1,1.19-.89,5,5,0,0,1,1.77-.53,1.91,1.91,0,0,1,.14,1.23v15C167.76,156.91,167.62,157.31,167.9,157.65Z"/><path class="cls-24" d="M89.44,198.15c-1.4-.06-1.4-.06-1.4-1.46V191a1.21,1.21,0,0,1,.94-.36c2.84,0,5.65-.42,8.55-.09,2.56.29,5.21,0,7.82.28,2.78.29,5.59.48,8.38.63a44.68,44.68,0,0,0,12.83-1.18,3.13,3.13,0,0,1,1.91-.22.38.38,0,0,0,0,.15v17.4a13.54,13.54,0,0,1-3.42,2.45c-.37.23-.65.09-.74-.36.41-2.57-.85-4.43-2.8-5.91a25.57,25.57,0,0,0-10.45-4.34,50.46,50.46,0,0,0-11.43-1.22,79.93,79.93,0,0,0-8.75.2A1.65,1.65,0,0,1,89.44,198.15Z"/><path class="cls-12" d="M128.43,91.52l-.22.06a2.47,2.47,0,0,1-1.66.3c-5.18.15-10.35,0-15.53-.26-7.19-.33-14.39-.75-21.55-1.57-.54-.06-1.08,0-1.44-.55h0a1.62,1.62,0,0,1-.34-1.08V80.8a1.8,1.8,0,0,1,.24-1,1.32,1.32,0,0,1,1.19-.27c4.88.53,9.78.85,14.68,1.21,1.79.12,3.6.25,5.39.28,3.5.08,7,.37,10.48.26a3.52,3.52,0,0,1,.91.09c2.07.36,4.17.06,6.24.17.55,0,1.16-.14,1.62.33Z"/><path class="cls-1" d="M128.43,81.8c-2.22,0-4.44,0-6.65-.07a3.11,3.11,0,0,1-1.25-.13c.41-.47,1-.37,1.49-.38h4.79c.52,0,1.09,0,1.38-.55h1c5,.13,10-.17,15-.28,3-.07,6-.28,9-.44s5.88-.41,8.82-.7c2.47-.23,4.93-.61,7.41-.85s5-.61,7.51-1a117,117,0,0,0,22.23-5.13,24.64,24.64,0,0,0,7.59-4.07c.17-.14.31-.23.49,0a5.72,5.72,0,0,1-2.31,2.65A25.09,25.09,0,0,1,198.39,74a91.26,91.26,0,0,1-13.61,3.42c-6.32,1.17-12.67,2-19.06,2.61q-7.82.75-15.63,1.16c-4.68.26-9.37.41-14.06.48C133.5,81.67,131,81.74,128.43,81.8Z"/><path class="cls-32" d="M186.14,70c-2.9.65-5.85,1.13-8.78,1.64-2.4.43-4.84.67-7.24,1.07-1.71.28-3.42.29-5.13.53-2,.28-4,.2-5.92.64a.89.89,0,0,1-.23,0,29,29,0,0,0-4.93.29,49.52,49.52,0,0,0-5.84.39,1,1,0,0,1-.34,0c-4.19,0-8.37.24-12.55.3-3.34,0-6.68.29-10,.13-3.49-.16-7,0-10.48-.24-1.87-.1-3.75,0-5.63-.2-2.63-.22-5.27-.25-7.9-.48-2.13-.19-4.27-.3-6.39-.59a34.48,34.48,0,0,0-3.54-.31c-1,0-2-.26-3.07-.36-1.36-.14-2.72-.33-4.08-.52-2.62-.35-5.22-.73-7.81-1.19-2.93-.53-5.87-1.1-8.76-1.84l-1.66-.44a.3.3,0,0,1-.42,0h0a.48.48,0,0,0-.48-.22c-2-.15-3.72-1.06-5.57-1.71a26.09,26.09,0,0,1-2.79-1.29A8.42,8.42,0,0,1,54,63.73,3.43,3.43,0,0,1,54.14,59a14.48,14.48,0,0,1,5.57-3.42,76.47,76.47,0,0,1,14.48-3.89A204.8,204.8,0,0,1,94.53,49c3.71-.34,7.42-.62,11.11-.8,4-.19,8-.27,12-.48,6.43-.32,12.83-.25,19.26-.12q9,.2,18,.86a230.84,230.84,0,0,1,30.78,3.91,67.21,67.21,0,0,1,12,3.47,17.22,17.22,0,0,1,4.13,2.35c2.74,2.14,2.68,4.7-.16,6.69-.19.13-.37.27-.57.39a32.37,32.37,0,0,1-4.87,2.22c-1.46.51-2.93,1-4.42,1.4-1.66.47-3.33.85-5,1.27A.69.69,0,0,1,186.14,70Z"/><path class="cls-33" d="M200.67,65.17a10.2,10.2,0,0,0,2.17-2,2.68,2.68,0,0,0,0-3.42,8.43,8.43,0,0,0-3.2-2.57,39.94,39.94,0,0,0-8.18-3.07,127.48,127.48,0,0,0-14.86-3c-2.92-.44-5.84-.78-8.76-1.15-2.74-.34-5.49-.56-8.24-.85-1.48-.14-3-.25-4.47-.32-3.42-.16-6.84-.41-10.26-.63h-.35q-12.45-.44-24.9-.18c-2.42,0-4.84.06-7.26.19-2.91.17-5.83.27-8.74.47-3.31.24-6.64.49-10,.82-3,.29-6,.59-9,1-7.78,1.06-15.57,2.31-23,4.84a34,34,0,0,0-4.94,2.19,11.94,11.94,0,0,0-2.36,1.83,3.07,3.07,0,0,0-.08,4.34h0a14.1,14.1,0,0,0,2.64,2c.05.22,0,.33-.24.24a9.67,9.67,0,0,1-4.58-3.33,3.13,3.13,0,0,1,.35-3.9,14.13,14.13,0,0,1,5.7-3.6,75.36,75.36,0,0,1,14.14-4c3-.62,6.1-1.11,9.16-1.55,2.08-.29,4.17-.54,6.26-.8,2.66-.33,5.34-.48,8-.85a29.64,29.64,0,0,1,3-.21c1.65-.08,3.29-.24,4.94-.33,3.37-.19,6.74-.27,10.1-.49s6.84-.12,10.27-.16c1.26,0,2.51-.29,3.78-.22,4.65.26,9.3.11,13.94.27,1.92.07,3.83.08,5.75.22,2.56.18,5,.32,7.57.45,2.86.15,5.73.42,8.55.69s5.48.55,8.21.93c3.67.5,7.34,1,11,1.71A108.81,108.81,0,0,1,194,53.4a31.83,31.83,0,0,1,8.16,3.43,8.18,8.18,0,0,1,2.56,2.3,3,3,0,0,1-.29,3.8,10,10,0,0,1-3.3,2.48C200.86,65.56,200.67,65.56,200.67,65.17Z"/><path class="cls-34" d="M200.67,65.17a.48.48,0,0,0,.46.23,21.66,21.66,0,0,1-4.84,2.09c-.24.09-.27,0-.21-.22A32.22,32.22,0,0,0,200.67,65.17Z"/><path class="cls-35" d="M59.4,66.8a42.81,42.81,0,0,0,5.54,1.84.36.36,0,0,1-.39.19A36.53,36.53,0,0,1,59.17,67C59.18,66.89,59.31,66.86,59.4,66.8Z"/><path class="cls-36" d="M186.14,70a44.08,44.08,0,0,0,5.55-1.37.5.5,0,0,1,.22.21A23,23,0,0,1,187.53,70C187.07,70.14,186.61,70.54,186.14,70Z"/><path class="cls-37" d="M191.91,68.87l-.22-.21c1.51-.32,2.93-.93,4.39-1.39l.21.22A18.75,18.75,0,0,1,191.91,68.87Z"/><path class="cls-38" d="M59.4,66.8l-.23.23a8.73,8.73,0,0,1-2.57-1.15l.24-.24Z"/><path class="cls-35" d="M65.42,68.86h.43a.33.33,0,0,1-.41.18C65.3,69,65.33,68.93,65.42,68.86Z"/><path class="cls-11" d="M128.19,80.66c.25.85.24.85-.52.85h-5.75a12.82,12.82,0,0,0-1.39,0c-4.28,0-8.55-.17-12.88-.37-3-.14-6-.37-9-.57q-4.87-.33-9.73-.85h-.92c-.36.21-.69.26-1-.11.18-.49.73-.64,1-1.08a21.84,21.84,0,0,1,3.42.3c1.44.13,2.89.28,4.34.4l7.32.63h.34c2.31,0,4.6.21,6.9.32,2.57.12,5.07,0,7.59.23,2.73.21,5.45.11,8.17.15Z"/><path class="cls-10" d="M88,89.46a12.53,12.53,0,0,0,2.73.35c2.16.27,4.35.36,6.52.54l8.47.64H106c2.42-.09,4.83.17,7.25.28,5,.24,10,.14,15,.25a2.94,2.94,0,0,1,.21,1.71v1.94c-3.31,0-6.62.08-9.92-.12-.85,0-1.71,0-2.56,0-4.28,0-8.55-.28-12.83-.55-4.64-.29-9.27-.74-13.9-1.14A6.4,6.4,0,0,1,88,93.1C88,91.87,88,90.66,88,89.46Z"/><path class="cls-39" d="M88,78.56c-.06.86-.06.86-1,1a1.79,1.79,0,0,1-1.54.24c-4.57-.58-9.15-1.16-13.68-2-.58-.11-1.26-.1-1.58-.76,0-.86,0-.86,1-.93,1.55.11,3.07.52,4.61.76q3.72.62,7.45,1.13C84.86,78.12,86.47,78.19,88,78.56Z"/><path class="cls-40" d="M124.5,209.91c.45.19.67-.25,1-.42,1-.6,1.91-1.36,3-1.89v2.29a77.19,77.19,0,0,1-10.62,6.47,66.85,66.85,0,0,1-16.17,5.51,58.2,58.2,0,0,1-13.37,1l-.26,0a1.72,1.72,0,0,1-.13-1.75c.38-.45.86-.36,1.4-.38A74.9,74.9,0,0,0,101,219.4,67.35,67.35,0,0,0,124,210.09.6.6,0,0,1,124.5,209.91Z"/><path class="cls-12" d="M49.68,68.6a8.27,8.27,0,0,0,3.13,2.86,35.38,35.38,0,0,0,7.64,3.16A91.11,91.11,0,0,0,69.86,77a1,1,0,0,1,.8,1.1c0,2.65,0,5.3,0,8a1.22,1.22,0,0,1-.32.85h0c-2.62-.55-5.24-1.15-7.83-1.85a49.18,49.18,0,0,1-7.8-2.76,12.76,12.76,0,0,1-4.27-2.91,3.13,3.13,0,0,1-.92-2.17V69.34A.89.89,0,0,1,49.68,68.6Z"/><path class="cls-8" d="M49.5,68.23a.14.14,0,0,1,.16.12v0Z"/><path class="cls-41" d="M70.27,86.86V78.15c0-.46,0-.92-.47-1.18h.46a22.14,22.14,0,0,0,4.27.86c3.66.66,7.36,1.11,11,1.59.5.07,1,.06,1.5.08.29.24.67.13,1,.24v9.67a35.39,35.39,0,0,1-5.13-.52c-1.85-.25-3.69-.52-5.54-.8C75,87.73,72.63,87.24,70.27,86.86Z"/><path class="cls-41" d="M86.44,247.25a1.47,1.47,0,0,1-1-.15,13.79,13.79,0,0,0-2.7-.42c-.71-.16-1.42-.23-2.13-.33a8.08,8.08,0,0,0-1.29-.14c-.85-.21-1.71-.28-2.56-.45-1.09-.18-2.18-.35-3.26-.55-.31,0-.6-.14-.91-.14a6.93,6.93,0,0,1-1.89-.54h-.22a49.28,49.28,0,0,1-.11-5,43,43,0,0,0-.1-4.68,1,1,0,0,1,0-.25c1.49.27,3,.54,4.5.79,1.88.3,3.76.57,5.64.86,2.07.3,4.15.59,6.22.85a10.4,10.4,0,0,0,1.37,0l.25.06a49.32,49.32,0,0,1,.11,6.2,11.2,11.2,0,0,1-.18,3.56C87.7,247.53,87,246.94,86.44,247.25Z"/><path class="cls-42" d="M70.28,234.83c.35.35.2.79.2,1.19v8.49c-.31-.21-.23-.53-.23-.85C70.26,240.72,70.26,237.78,70.28,234.83Z"/><path class="cls-42" d="M70.7,244.53a5.32,5.32,0,0,1,1.88.44.4.4,0,0,1-.24.2,5.76,5.76,0,0,1-1.87-.41Z"/><path class="cls-42" d="M70,244.71a.85.85,0,0,1-.72-.18A.68.68,0,0,1,70,244.71Z"/><path class="cls-12" d="M88,247.05V238.5a2.06,2.06,0,0,1,.23-1.31h.24c.13.08.29.07.43.14,2.43.24,4.87.48,7.32.7,1.06.1,2.13.16,3.2.21,1.84.08,3.67.25,5.51.34,4.21.21,8.43.29,12.65.5,3.6.17,7.2,0,10.81.17V249.4c-.42,0-.85,0-1.26,0-5.49,0-11-.08-16.48-.34-7.26-.34-14.54-.75-21.72-1.6C88.73,247.21,88.1,247.69,88,247.05Z"/><path class="cls-43" d="M165.8,237.36a9.38,9.38,0,0,1,2.24-2.5,9.6,9.6,0,0,1,.74,2.32A13.5,13.5,0,0,1,165.8,237.36Z"/><path class="cls-44" d="M183.4,235.29v-2.46a16.15,16.15,0,0,1,3,1.71A15.86,15.86,0,0,0,183.4,235.29Z"/><path class="cls-45" d="M171.13,236.89l.69-1.32a1.24,1.24,0,0,1,.68,1.11A2.68,2.68,0,0,1,171.13,236.89Z"/><path class="cls-46" d="M179.68,235.75c0-.35-.15-.86.27-1s.86.32,1.1.74Z"/><path class="cls-46" d="M175.51,236.39v-.11c.06-.37.08-.86.51-.86s.6.39.67.78Z"/><path class="cls-45" d="M172.53,236.67a.28.28,0,0,1,.21.23Z"/><path class="cls-47" d="M192.62,217.29c.37.67,0,1.34-.13,2a19.53,19.53,0,0,1-29.08,12.83,18.12,18.12,0,0,1-5.75-5.2,19.27,19.27,0,0,1-3.55-8.39,18,18,0,0,1-.15-5.13,20.28,20.28,0,0,1,2.13-7.1,19.06,19.06,0,0,1,10.12-9.1,18.68,18.68,0,0,1,8.55-1.34,19.23,19.23,0,0,1,10.2,3.79,19.76,19.76,0,0,1,6.84,9.2,19.23,19.23,0,0,1,1,7.82c0,.14-.12.26-.18.4-1,.19-2.12-.1-2.9.8a4.42,4.42,0,0,0-.86,1.36,1.79,1.79,0,0,0-.07,1.94c.49.67,1.16.41,1.79.28a2.35,2.35,0,0,0,.43-.19c-.11,0-.2.08-.3.11a1.52,1.52,0,0,1-1.07,0c-1-1-1-1.91,0-3.42C190.49,217,191.59,217.29,192.62,217.29Z"/><path class="cls-48" d="M164.41,234.07c-.23,0-.5.11-.67-.16h0a1.8,1.8,0,0,0,.19-.2l.48-.22a.32.32,0,0,1,.08.4A1.42,1.42,0,0,0,164.41,234.07Z"/><path class="cls-49" d="M187.07,230.66l-.3.28c-.12-.09-.25-.22-.11-.35S187,230.63,187.07,230.66Z"/><path class="cls-7" d="M164.51,233.88l-.08-.41C164.67,233.57,164.67,233.71,164.51,233.88Z"/><path class="cls-7" d="M164,233.69l-.19.2Z"/><path class="cls-41" d="M88.93,237.31a.38.38,0,0,1-.42-.14A.4.4,0,0,1,88.93,237.31Z"/><path class="cls-2" d="M128.41,190.05a26,26,0,0,1-5.91,1.36,58.27,58.27,0,0,1-13.2.09c-2.94-.27-5.88-.52-8.84-.56-2.45,0-4.91-.12-7.36-.13-1.71,0-3.37.11-5.06.17H86.43c.16-.2.4-.18.63-.2,1-.08,1-.08,1-1v-6.56c0-.86,0-.86-.94-1,.48-.41,1.18,0,1.71-.43a2,2,0,0,1,1.25-.52c9.23-2.08,17.53-6.24,25.39-11.4,4-2.62,7.84-5.4,11.71-8.18.38-.28.71-.77,1.31-.5Z"/><path class="cls-21" d="M128.41,161.16a2.83,2.83,0,0,0-1,.6c-5.13,3.72-10.32,7.47-15.78,10.76a72.75,72.75,0,0,1-21.12,8.88c-.59.13-1.2.24-1.8.36S88,181.53,88,181v-2.88l.07-.15c1.25-.68,2.71-.79,4-1.38,3.73-1.71,7-3.9,8.88-7.77a8.44,8.44,0,0,0,.86-3.66,3.19,3.19,0,0,0-1.62-3.18c-1.29-2.06-3.3-2-5.34-1.76-1.56.14-3.13.3-4.69.37a1.86,1.86,0,0,1-1.43-.28c.1-.74.86-.94,1.26-1.45a19.58,19.58,0,0,1,4.81-4.36,1.48,1.48,0,0,1,.94-.37.85.85,0,0,0,1.15-.37l0,0a3,3,0,0,1,.85-1c.28-.16.55-.32.86-.47.85-.14.58.36.4.74a7.66,7.66,0,0,0-1,2.56c.92-1,1.71-2.2,2.65-3.19a5.37,5.37,0,0,0,1.81-4.41,3.82,3.82,0,0,0-.07-.68c-.06-.22-.11-.49-.38-.53s-.32.25-.4.45-.13.56-.52.46a2,2,0,0,1-.25-1.32c0-1.34-.22-1.47-1.54-1.1a27.2,27.2,0,0,0-7.83,4.08c-.79.56-1.51,1.19-2.26,1.79-.29.23-.53.58-1,.48-.34-.26-.23-.62-.23-.94v-3.86c.1-.32.37-.42.64-.54a109.94,109.94,0,0,0,19.52-9.63C114.07,133,119.62,129,125.12,125c.59-.43,1.2-.85,1.8-1.26.49-.18.79-.85,1.47-.59l.06,3.83a1,1,0,0,1-.08.5,2,2,0,0,1-.57.71,20.08,20.08,0,0,0-7,12,3.5,3.5,0,0,1-.17.55,1,1,0,0,1-.17.27.53.53,0,0,1-.3.09,3.55,3.55,0,0,1-.47-.09,1.11,1.11,0,0,1-.44-.16,1.6,1.6,0,0,1-.46-1.19c.52-1.76.52-1.76-1.1-2.67-.86-1.65-1.91-1.91-3.14-.7a38,38,0,0,0-11,20.09,16.32,16.32,0,0,0-.09,5.83,7.13,7.13,0,0,0,2.52,4.64l.37.36c1.71,1.71,3,1.84,5,.36a23.24,23.24,0,0,0,7.13-9.74A36,36,0,0,0,120.93,146a8.35,8.35,0,0,0-.26-2.05.92.92,0,0,1,1-.77c.5.48.09,1.19.46,1.79a3.65,3.65,0,0,0,1.58-1.41c1.26-1.64,2.4-3.37,3.57-5.08.28-.39.47-1,1.21-.77a1.72,1.72,0,0,1-.1,1.22c-1,2.84-2.11,5.66-2.94,8.55a33.67,33.67,0,0,0-.85,3.57,3.5,3.5,0,0,0,1.45,3.93,5.23,5.23,0,0,0,2.27,1.81V161A.66.66,0,0,0,128.41,161.16Z"/><path class="cls-50" d="M88.87,160.11a26.32,26.32,0,0,0,5.61-.19c.76,0,1.53-.14,2.3-.15a3.71,3.71,0,0,1,3.66,2.09,5.64,5.64,0,0,1,.1,4.14,12.84,12.84,0,0,1-4.89,6.75,22.48,22.48,0,0,1-7.7,3.77,9.13,9.13,0,0,1-2.33.43c-.4,0-.85,0-1.11-.37a9.78,9.78,0,0,1-1-.31,1.4,1.4,0,0,1-.93-1.46c.23-2,.86-3.81,3-4.66.17-.07.35-.23.52-.08s.11.42,0,.63-.44.44-.46.86A4.66,4.66,0,0,0,88,171.1a6.25,6.25,0,0,1,2-.85,14.4,14.4,0,0,0,6.52-4.55,3.58,3.58,0,0,0,1-2c-.28-.8-1-.74-1.63-.78a35.06,35.06,0,0,0-7.08.57,9,9,0,0,1-.91.11c-.41,0-.86,0-1.11-.4a2.57,2.57,0,0,1-2-2.7v-3.33a5.51,5.51,0,0,1,1.09-3c.71-1,1.59-1.76,2.36-2.66a36.38,36.38,0,0,1,7.43-5.18,19.25,19.25,0,0,1,4.28-1.62c.85-.21,1.09-.07,1.19.85,0,.61,0,1.23.08,1.84a2,2,0,0,1-.29,1.92,21,21,0,0,1-2.32,2.93c-.25.21-.48.45-.73.67-.4.5-.76,1-1.17,1.52s-.66.26-.86-.21c-.14-1.12.75-1.89,1-2.84a40.86,40.86,0,0,0-6,4.19,15.29,15.29,0,0,0-2.18,2.37C87.93,158.88,88,159.28,88.87,160.11Z"/><path class="cls-51" d="M70.29,141.56a5.47,5.47,0,0,0,1.42-1A31.62,31.62,0,0,1,80.9,136c.61.15.52.68.54,1.11a19.38,19.38,0,0,1,0,2.41v7.08a2.23,2.23,0,0,1-.34,1.63c-1.12.22-2.25.34-3.42.49-2.48.33-5,.13-7.45.24l-.07-.08a1.31,1.31,0,0,1-.24-1v-5.06a2.43,2.43,0,0,1,.33-1.08Z"/><path class="cls-21" d="M97.82,164a6.19,6.19,0,0,1-1.48,2.44A15.1,15.1,0,0,1,88,171.1v-6.4l.13-.15c2.81-.28,5.6-.69,8.42-.9A1.18,1.18,0,0,1,97.82,164Z"/><path class="cls-20" d="M81.13,148.26v-8.75c.6-.07.85.42,1.2.76a42.16,42.16,0,0,0,5.8,5.21c.29.25.66.44.6.92l-.71.31a55.82,55.82,0,0,1-5.55,1.44A6,6,0,0,1,81.13,148.26Z"/><path class="cls-52" d="M84.5,176.59a12.11,12.11,0,0,0,3.55-.35,1.42,1.42,0,0,1,0,1.71.18.18,0,0,1,0,.12c-.72,0-1.46,0-2.19-.07a1.7,1.7,0,0,1-1.53-1C84.17,176.77,84.32,176.68,84.5,176.59Z"/><path class="cls-53" d="M86.84,163.18l1.2.11a1,1,0,0,1,0,1.3.16.16,0,0,1-.05.11,3.94,3.94,0,0,1-1.17-.9A.44.44,0,0,1,86.84,163.18Z"/><path class="cls-54" d="M70.24,141.81v7.1a47.51,47.51,0,0,1-5-.54l-.9-.12a1.27,1.27,0,0,1,.39-.8A27.78,27.78,0,0,1,70.24,141.81Z"/><path class="cls-22" d="M88,145.7a37.12,37.12,0,0,1-5.89-5.24c-.32-.33-.66-.64-1-1,0-.86,0-1.71,0-2.57,0-.33.12-.7-.21-1a23.32,23.32,0,0,0-3.66-1.78,4.07,4.07,0,0,0-.86-1.71,46.34,46.34,0,0,1-5.27-15.59,22.64,22.64,0,0,1-.34-4.86.39.39,0,0,1,.47.22c1.78,2.94,4.82,4,7.75,5.25l.44.16a54.08,54.08,0,0,0,7,2.14,4.73,4.73,0,0,1,1.53.49,1.15,1.15,0,0,1,.35.52,6.22,6.22,0,0,1,.12,1.61v21.38A2.59,2.59,0,0,1,88,145.7Z"/><path class="cls-23" d="M79.24,117.8a2.58,2.58,0,0,1-1.33-.36,30,30,0,0,1-5-2.78A11.89,11.89,0,0,1,70.77,112a4.76,4.76,0,0,1,2.06-4.8,23,23,0,0,1,5.85-3.17,64.06,64.06,0,0,1,8.77-2.63,2.81,2.81,0,0,1,.58,0v10.13a.62.62,0,0,1-.28.42,39.84,39.84,0,0,0-5,2.2A9.41,9.41,0,0,0,79.24,117.8Z"/><path class="cls-55" d="M124.5,209.91a7.36,7.36,0,0,1-2.57,1.84,69,69,0,0,1-13.1,5.86,60.71,60.71,0,0,1-11.6,2.71c-1.71.21-3.42.34-5.13.48-1.34.1-2.69.1-4,.17-.39.19-.8.47-.92-.27a2.3,2.3,0,0,0,.57-1.79v-7a4.77,4.77,0,0,1,.1-1.25c.21-.67,1-.64,1.45-1.06-.37-.43-1-.3-1.34-.77a3,3,0,0,1-.09-1.76,1.6,1.6,0,0,1,.23-.45c.85-.73.43-1.43,0-2.13a1.73,1.73,0,0,1-.25-.7c-.11-1.41,0-2.83,0-4.28a1.61,1.61,0,0,1,.34-1.19c.46-.1,1,.11,1.41-.23a94,94,0,0,1,12.44-.24,46.32,46.32,0,0,1,15.18,3,18.84,18.84,0,0,1,5.13,3,7.93,7.93,0,0,1,1.94,2.41A4.62,4.62,0,0,1,124.5,209.91Z"/><path class="cls-56" d="M88,198.41v5.78a3.84,3.84,0,0,0-1.87.72c-.31.35-.65.66-.43,1.18a1.34,1.34,0,0,0,.2.21,2.09,2.09,0,0,0,.41.17c.54.24,1.22,0,1.71.47v2l-.1.12c-.76.4-1.71-.07-2.49.48.74.75,1.71.3,2.49.67l.11.12v9.41c0,.85,0,.85-.92,1a3.68,3.68,0,0,1-2.57.25A50.52,50.52,0,0,1,72,218.16a3.26,3.26,0,0,1-1.71-1.07h0a3.32,3.32,0,0,1-.28-2.45.83.83,0,0,1,1.09-.76c-.74.05-1.13-.41-1.15-1.2,0-3.07,0-6.14,0-9.2a1.69,1.69,0,0,1,.33-1,.75.75,0,0,1,0-.16,65.14,65.14,0,0,1,11.81-3.16,26.63,26.63,0,0,1,4.53-.59c.36-.23.81.05,1.17-.19A.54.54,0,0,1,88,198.41Z"/><path class="cls-55" d="M87.8,198.41c-.35.34-.77.16-1.17.18C87,198.25,87.39,198.41,87.8,198.41Z"/><path class="cls-57" d="M70.23,217.09A46.81,46.81,0,0,0,81,220.22a27.51,27.51,0,0,0,6.14.54c.26.3.62.17.94.21v1.82a21.5,21.5,0,0,1-5.13-.47A67.67,67.67,0,0,1,72,219.68a6.52,6.52,0,0,0-1.71-.58.48.48,0,0,1,0-.17C70.23,218.31,70.23,217.71,70.23,217.09Z"/><path class="cls-55" d="M70.24,202.48v10.15c0,.85,0,.85.86,1,.29,0,.63-.06.78.32-.3.27-.66.14-1,.15-.5,0-.68.22-.68.7v2.31a24.53,24.53,0,0,1-8-4.67,3,3,0,0,1-.74-.86c-.18-2.38,1-4.11,2.71-5.56A18,18,0,0,1,70.24,202.48Z"/><path class="cls-55" d="M87.77,111.77l.28-.24c2.08-.51,4.13-1.15,6.24-1.59q6.15-1.25,12.4-1.89a174.23,174.23,0,0,1,19-.85h.69a3.73,3.73,0,0,0,1.45.07c.63,0,.85.25.85.85a3.44,3.44,0,0,0,0,1.11,22.06,22.06,0,0,1,.07,2.57v.6c0,1.71.06,3.42,0,5.18a4.06,4.06,0,0,0,0,1.39c0,1.32.33,2.66-.29,3.94v.18l-1.38.81a4.23,4.23,0,0,1-1.12.25c-3.87,0-7.74.13-11.62-.11-2.83-.19-5.66-.32-8.49-.57a141.17,141.17,0,0,1-16.62-2.37,2.12,2.12,0,0,1-1.14-.51l-.25-.22A74.79,74.79,0,0,1,87.77,111.77Z"/><path class="cls-58" d="M146,123.54a3,3,0,0,0-1,.92,2.56,2.56,0,0,1-.2.26,1,1,0,0,1-.44.27.55.55,0,0,1-.63-.45.49.49,0,0,1,0-.17c.07-.79,0-1.71.72-2.26.3-.94.61-1.89.9-2.84a5.16,5.16,0,0,1,1.4-2.21,20.85,20.85,0,0,1,11-5.62,8.84,8.84,0,0,1,2.41,0A5.17,5.17,0,0,1,164,113.9a2.93,2.93,0,0,1,.64.8A11.82,11.82,0,0,1,164,125c-2.18,4-5.78,6.49-9.75,8.47a29.64,29.64,0,0,1-2.76,1.16,2.5,2.5,0,0,0-1.57,2.92,4,4,0,0,1-.18,2.8,27.69,27.69,0,0,1-1,2.81c-.21.44-.33,1-.85,1.13-1.1.43-1.46.21-1.46-1a16.2,16.2,0,0,1,.65-3.73c.3-1.23.59-2.47.92-3.68a1,1,0,0,0-.46-1.24,2,2,0,0,1-.76-2.87,8.7,8.7,0,0,1,2.5-3.11,5.5,5.5,0,0,0,1.83-2.82c.49-1.65,1.23-3.21,1.66-4.88-.2-.86.51-1.48.59-2.41a6.83,6.83,0,0,0-1.71.85A36.89,36.89,0,0,0,147,123C146.62,123.16,146.39,123.5,146,123.54Z"/><path class="cls-59" d="M190.28,137.16h2.27a7.86,7.86,0,0,1-2.21,1.23,69.2,69.2,0,0,0-17.78,13.69c-1.61,1.71-3.08,3.6-4.61,5.4V141.39c0-1.15,0-1.17,1.13-1.49a61.11,61.11,0,0,1,7-1.49c2.45-.37,4.92-.73,7.39-.9A65.33,65.33,0,0,1,190.28,137.16Z"/><path class="cls-60" d="M128.44,108.35c-.12-.92-.12-.91-1-.94-.37,0-.77.11-1.09-.19l2.07-.06c1.34.07,2.68.19,4,.23,3.8.12,7.57.47,11.34.85q4.62.53,9.18,1.42c.35.07.7.07.86.44a71.75,71.75,0,0,0-8.13,3.19,113.9,113.9,0,0,0-16.58,9.16c-.23.15-.46.27-.7.4v-4.17c.55-.54,1.33-.12,2-.45-.64-.37-1.42.06-2-.47v-5.57c.11-.09.3-.13.3-.24s-.2-.09-.3-.18V109C128.57,108.82,128.92,108.62,128.44,108.35Z"/><path class="cls-58" d="M139.79,143.93a6.15,6.15,0,0,0,1.34-1.71c1-1.55,1.86-3.18,2.73-4.81a1.61,1.61,0,0,1,.55-.8,2.08,2.08,0,0,1,0,1.94,40.47,40.47,0,0,1-3.43,6.39c-.2.33-.39.66-.58,1a6.67,6.67,0,0,1-2.68,3.25.88.88,0,0,1-1,.06,1.72,1.72,0,0,1-1.5-1.46c-.18-.59-.1-1.19-.22-1.78a2.82,2.82,0,0,1-.17-2,44.69,44.69,0,0,1,1.1-5c.22-.57.36-1.17.53-1.76a1.08,1.08,0,0,1,.07-.31,1.43,1.43,0,0,0,.18-.7,1.53,1.53,0,0,1,.11-.27c.11-.25.12-.53.21-.78a.1.1,0,0,0,0-.15h0a.67.67,0,0,1,0,.2c-.08.21-.08.45-.18.66a7.71,7.71,0,0,1-.25.85c-.2.63-.45,1.23-.64,1.86a124.08,124.08,0,0,1-4.81,11.71,19.71,19.71,0,0,1-1.85,2.92c-.24.32-.5.85-1.07.37a9.33,9.33,0,0,1-.16-2.74,9.14,9.14,0,0,0-.21-2.39c1.45-1.37,2.1-3.29,3.3-4.83a2,2,0,0,0,.47-.77,117.31,117.31,0,0,0,5.55-13.25,46,46,0,0,1,2.72-6.58,13,13,0,0,1,1.71-2.56c.66-.75.92-.72,1.45.14.2.32.35.67.53,1,.53.52.21,1.1.07,1.63-1,3.68-2.12,7.31-3.23,11a53.3,53.3,0,0,0-1.95,8.07C138.33,143.55,138.58,143.82,139.79,143.93Z"/><path class="cls-3" d="M165.83,140.87a31.72,31.72,0,0,1-6.13,5.37,48.85,48.85,0,0,1-17.3,7.55,33.18,33.18,0,0,1-4.74.86,41.94,41.94,0,0,1,4.23-2.75,123.32,123.32,0,0,1,11.83-6.35,88.71,88.71,0,0,1,11.11-4.44A2.67,2.67,0,0,1,165.83,140.87Z"/><path d="M147.83,144.27a22.33,22.33,0,0,0,2-5.48c.06-.21.11-.57,0-.67-.77-.68-.19-1.39-.1-2.09a1.87,1.87,0,0,1,1.52-1.71,25.18,25.18,0,0,0,8.93-5.14,14.38,14.38,0,0,0,4.73-7.59,12.29,12.29,0,0,0-.54-7c-.08-.22,0-.29.24-.26a8,8,0,0,1,2.08,5.34,12.48,12.48,0,0,1-3.61,9.74,23.85,23.85,0,0,1-10.1,6.4c-1,.33-1.59.79-1.71,1.84-.09.7-.64,1.42.15,2.08.09.08,0,.38,0,.56a33.71,33.71,0,0,1-1.44,4.36c-.29.66-.58,1.55-1.45,1.39S147.93,144.92,147.83,144.27Z"/><path class="cls-58" d="M128.21,138.8l.33-1.32a5,5,0,0,1,.67-2.39c.35-1,.72-2,1.14-3.32a17.06,17.06,0,0,0-1.2,1.41c-.34.37-.64.69-1,0a27.61,27.61,0,0,1,.05-5.89c.08-.12.15-.25.23-.38l2-1.88.93-.86c1.57-1.3,2.12-1.15,2.87.76a2.86,2.86,0,0,1,.41,2.41,28.77,28.77,0,0,1-1.95,6.6c-1.21,3.42-2.36,6.84-3.54,10.33-.12.37,0,1.22-.92.85a23.21,23.21,0,0,1-.12-5.27A6.18,6.18,0,0,0,128.21,138.8Z"/><path class="cls-61" d="M128.47,145.34c.71-2.11,1.41-4.21,2.13-6.3,1-2.86,2-5.71,3-8.55a10.86,10.86,0,0,0,.65-5.53c.78-.1,1.12.39,1.33,1a8,8,0,0,1,.09,4.1,45.1,45.1,0,0,1-1.91,5.9c-.81,2.33-1.61,4.65-2.42,7a1.67,1.67,0,0,0-.16.79,22.46,22.46,0,0,1-2.08,3.94c-.25.37-.5.81-1.09.54C127.41,147.1,127.92,146.24,128.47,145.34Z"/><path class="cls-61" d="M139.79,143.93a.81.81,0,0,1-1.06.4h0a1,1,0,0,1-.54-1,9.37,9.37,0,0,1,.29-2.74c.64-3.42,1.8-6.67,2.76-10q1-3.48,2.06-7a5.42,5.42,0,0,0,.34-2c.54-.36.64.13.85.45-.14.69-.32,1.38-.43,2.08s0,.6.71.44h0l.26-.16c-.81,3.3-1.89,6.53-2.86,9.79a71.41,71.41,0,0,0-2.3,8.76A2.72,2.72,0,0,0,139.79,143.93Z"/><path class="cls-62" d="M128.44,153.84a10.24,10.24,0,0,0,2.05-2.87,60.59,60.59,0,0,0,3.69-8.37c.52-1.35,1.08-2.69,1.61-4,.24-.09.06-.69.56-.43a.94.94,0,0,1,0,.68c-.28,1.26-.56,2.57-.86,3.79A19.72,19.72,0,0,0,135,146c-.85,1.95-1.61,4-2.64,5.84a19.5,19.5,0,0,1-2.19,3.35,8.16,8.16,0,0,1-1.79,1.58,2.25,2.25,0,0,1-2.29-1.55C126.94,154.8,127.65,154.25,128.44,153.84Z"/><path class="cls-61" d="M136.78,149.25a3.59,3.59,0,0,0,2-1.28c.56-.67,1.11-1.35,1.67-2,.71,0,1.07-.51,1.43-1a51.32,51.32,0,0,0,3.51-5.93c.14-.27.29-.53.49-.86a1.67,1.67,0,0,1,.16,1.77,37.27,37.27,0,0,1-5.68,9.54,5.51,5.51,0,0,1-1.11,1,1.41,1.41,0,0,1-2.3-.74C136.88,149.54,136.84,149.39,136.78,149.25Z"/><path class="cls-62" d="M146,123.54a23.49,23.49,0,0,1,7.82-5.51,13.13,13.13,0,0,1-1.08,3,14.37,14.37,0,0,0-3.42,2.46c-.86.72-1.65,1.49-2.47,2.25-.15.12-.29.26-.43.38s-.37.33-.61.21-.23-.46-.19-.71C145.67,124.87,145.83,124.22,146,123.54Z"/><path class="cls-63" d="M135.82,155.9c0,2.38.37,1.95-2,2.56a9.26,9.26,0,0,1-2.21.41A34,34,0,0,1,135.82,155.9Z"/><path class="cls-64" d="M164.65,114.31l-.24.27a1.29,1.29,0,0,1-.4-.73A.75.75,0,0,1,164.65,114.31Z"/><path class="cls-65" d="M58.5,60.8v-.68a4.4,4.4,0,0,1,3.15-4.43,45.47,45.47,0,0,1,7.09-1.8c2.32-.42,4.67-.66,7-1s5-.67,7.47-1,5.13-.85,7.7-1c2.12-.17,4.27-.46,6.4-.43a36.25,36.25,0,0,1,6.14.65,4,4,0,0,1,.69,0,7,7,0,0,1,2.47.54,11.88,11.88,0,0,1,3.54,3c.23.42.53.81.73,1.24a13.58,13.58,0,0,1,.73,5.79c0,.37,0,.78-.46,1-.16,0-.23-.4-.29-.18a5.77,5.77,0,0,1-3.42,3.32,20.12,20.12,0,0,1-7.83,1.71C87.2,67.88,75,66.13,62.87,63.49a13.09,13.09,0,0,1-2.2-.7A3.51,3.51,0,0,1,58.5,60.8Z"/><path class="cls-66" d="M106.74,51.8a7.23,7.23,0,0,1-2.57-.7h.22c.59-.29,1.26.07,1.86-.22,2.41,0,4.83-.17,7.23-.31,2.7-.15,5.38,0,8.06-.2,4.57-.36,9.14-.22,13.68-.13,3.11.06,6.22,0,9.32.22,1.58.1,3.14.08,4.71.2,2.56.2,5.13.29,7.69.48,1.83.14,3.67.23,5.48.46,2.47.31,5,.5,7.41.86,2.91.37,5.84.74,8.74,1.23a104.08,104.08,0,0,1,10.31,2.25,39.8,39.8,0,0,1,4.77,1.71,10.78,10.78,0,0,1,3.51,2.16,2.57,2.57,0,0,1,.38,3.61,2.65,2.65,0,0,1-.72.61,18.38,18.38,0,0,1-4.8,2.43,66.87,66.87,0,0,1-11.56,2.94c-2.76.47-5.5,1-8.27,1.32a35.53,35.53,0,0,1-5.24.54c-.44.07-.92.38-1.19-.27,1.07-.78,2.37-.55,3.55-.71a127.33,127.33,0,0,0,17.11-3.21,25.11,25.11,0,0,0,6.5-2.57c2.57-1.57,2.57-3.29,0-4.88-2.85-1.78-6.08-2.56-9.29-3.33A150.25,150.25,0,0,0,163.06,53q-8.66-.81-17.35-1.19c-2.65-.12-5.31,0-7.94-.19a117.49,117.49,0,0,0-11.87-.18c-5.13.17-10.26.21-15.31.45-.81,0-1.6.24-2.42.21A2.26,2.26,0,0,1,106.74,51.8Z"/><path class="cls-33" d="M58.5,60.8c1.77,2.12,4.38,2.38,6.84,2.94,3.49.82,7.06,1.33,10.6,1.83,2.16.3,4.32.55,6.49.81,2.73.31,5.47.6,8.21.81,2.36.19,4.75,0,7.14.07a26.19,26.19,0,0,0,7.37-.93,11.78,11.78,0,0,0,3.67-1.6,5.57,5.57,0,0,0,2.25-3.24l.11,1.14c.47.75,0,1.4-.3,2a7.17,7.17,0,0,1-4.07,3.3,11.41,11.41,0,0,1-1.63.51c-.55.14-1.11.28-1.66.45a28.25,28.25,0,0,1-5,.54,127.9,127.9,0,0,1-23.28-1.84c-.68-.11-1.37-.2-2-.33-1.83-.38-3.72-.43-5.51-1l-1.34-.44c-1.49-.45-3.06-.64-4.53-1.18-.31-.12-.65-.2-1-.33C59.21,63.73,58.3,62.91,58.5,60.8Z"/><path class="cls-67" d="M66.32,65.86c.94.15,1.88.28,2.81.46,1.16.23,2.33.34,3.51.46a1.25,1.25,0,0,1,.4.2,17.9,17.9,0,0,0,4.27,1,178.08,178.08,0,0,0,21.8,3.06c3.64.31,7.28.53,10.92.76a2.17,2.17,0,0,0,.8.09c3.6,0,7.2.42,10.8.26,1,.09,2.12-.32,3.07.35-.06.63-.69.11-.91.44-2.08,0-4.17.12-6.23,0s-4-.07-6-.22c-2.64-.19-5.28-.3-7.91-.45s-5.5-.39-8.24-.69c-3.79-.41-7.59-.86-11.37-1.4-3.36-.5-6.71-1.1-10-1.87a62.33,62.33,0,0,1-6.68-2A2.36,2.36,0,0,1,66.32,65.86Z"/><path class="cls-68" d="M165.83,71c.32.38.77.17,1.16.24a1.47,1.47,0,0,1-.4.19c-2.09.17-4.19.26-6.27.51-2.62.33-5.27.26-7.88.65h-.22c-2.64-.06-5.28.24-7.92.3-2.37.06-4.73.19-7.1.17a12.54,12.54,0,0,0-2.45-.12c-.35,0-.75.15-1.06-.17.27-.59.86-.5,1.29-.52h3.23c5.19,0,10.36-.31,15.53-.64q5.46-.34,10.9-.85A1.31,1.31,0,0,1,165.83,71Z"/><path class="cls-66" d="M133.72,72.78h2.63c.3,0,.62-.06.86.22H123.79c.25-.33.61-.18.93-.23a1.55,1.55,0,0,1,1.17-.35h6.64A1.47,1.47,0,0,1,133.72,72.78Z"/><path class="cls-65" d="M106.28,50.87c-.59.43-1.24.14-1.86.22C105,50.64,105.65,50.94,106.28,50.87Z"/><path class="cls-69" d="M73.48,245l2.76.46a.76.76,0,0,1,.49.22.66.66,0,0,1-.51.12,1.6,1.6,0,0,1-.72-.08l-.63-.06c-.22-.16-.52,0-.75-.17l-.63-.07a.26.26,0,0,1-.13-.19A.35.35,0,0,1,73.48,245Z"/><path class="cls-70" d="M82.74,246.59c1.1-.12,2.13.33,3.25.26-.16.28-.38.17-.54.25a15.4,15.4,0,0,1-2.71-.3c0-.05-.07-.1,0-.14A.3.3,0,0,1,82.74,246.59Z"/><path class="cls-71" d="M76.25,245.67h.51a7,7,0,0,1,2.56.48l-.13.09a1.2,1.2,0,0,1-.62-.07,12.18,12.18,0,0,1-2.24-.3.09.09,0,0,1-.09-.12C76.27,245.69,76.23,245.67,76.25,245.67Z"/><path class="cls-72" d="M88,247.05c.2.36.71.11.93.44a15.85,15.85,0,0,1-2.57-.24C86.92,246.87,87.5,247.15,88,247.05Z"/><path class="cls-73" d="M82.74,246.59v.21H82.5c-.24-.13-.52,0-.76-.16l-.85-.07a.79.79,0,0,1-.31-.2.17.17,0,0,1,.08-.21C81.29,246.49,82.09,246.15,82.74,246.59Z"/><path class="cls-74" d="M80.64,246.14v.2a.37.37,0,0,1-.5,0l-.85-.07a.09.09,0,0,1-.09-.12s0-.07.08-.07h1.36Z"/><path class="cls-75" d="M73.48,245v.23a.47.47,0,0,1-.52,0l-.62-.08.23-.2Z"/><path class="cls-41" d="M76.25,245.67v.19a1,1,0,0,1-.77-.16Z"/><path class="cls-41" d="M79.26,246.13a.61.61,0,0,1,0,.19.87.87,0,0,1-.76-.16Z"/><path class="cls-41" d="M80.18,246.39l.49,0,.24.22A.84.84,0,0,1,80.18,246.39Z"/><path class="cls-41" d="M81.73,246.63c.27,0,.54-.09.76.15A1,1,0,0,1,81.73,246.63Z"/><path class="cls-41" d="M74.12,245.44c.27,0,.54-.09.75.17A1,1,0,0,1,74.12,245.44Z"/><path class="cls-41" d="M73,245.25l.52,0v.23A.54.54,0,0,1,73,245.25Z"/><path class="cls-24" d="M88,120.59a35.39,35.39,0,0,1,4.07.72c3.28.56,6.57,1,9.88,1.41s6.79.64,10.19.86c4.76.3,9.51.26,14.28.26a2.24,2.24,0,0,1,.57,0,223.33,223.33,0,0,1-20.34,13.91A109.65,109.65,0,0,1,90.05,146c-.42.16-.85.28-1.3.43l-.71-.7Z"/><path class="cls-50" d="M105.83,167c-2-1.24-2.49-3.22-2.77-5.33a20.29,20.29,0,0,1,.86-8.65,40.32,40.32,0,0,1,10.5-17.24,2.08,2.08,0,0,1,2.94,0,2.14,2.14,0,0,1,.57,1.08c.18,1.1-.72,1.63-1.24,2.36-.11.1-.25.16-.35.25a1.42,1.42,0,0,0-.26.29h0a1.2,1.2,0,0,1,.17-.21c.11-.1.24-.17.36-.26,1.2-.67,1.59-.62,2.24.28l.47,1.09a.78.78,0,0,1,.24.27c.14.39.12.86.27,1.22a4.22,4.22,0,0,1,.08.94v2.29A33.58,33.58,0,0,1,114.38,162a17,17,0,0,1-4.81,4.81,3.63,3.63,0,0,1-3.17.61C106.22,167.24,106,167.1,105.83,167Z"/><path class="cls-50" d="M128.24,127.28c.29.33.17.73.18,1.1v5.13a.6.6,0,0,1-.12.74c-2,2.67-3.7,5.55-5.76,8.17-.23.29-.42.67-.86.68l-.85.65c-.16.33-.43.29-.71.19-.47-.51-.2-1.14-.27-1.71a2.53,2.53,0,0,1,0-.55,1.89,1.89,0,0,1,.38-.81,26.11,26.11,0,0,1,2-6.22,18.46,18.46,0,0,1,4.35-5.9A17,17,0,0,0,128.24,127.28Z"/><path class="cls-61" d="M120.16,143.86a.84.84,0,0,0,.71-.08,4.11,4.11,0,0,1,.35,2.46,33.05,33.05,0,0,1-4.15,14.85,20.18,20.18,0,0,1-5.73,6.69,6,6,0,0,1-1.08.66,3.12,3.12,0,0,1-4.2-1.2.14.14,0,0,1,.24-.06,4.3,4.3,0,0,0,3.55-1,19,19,0,0,0,4.42-4.66,31.89,31.89,0,0,0,5.19-14.24l.23-1.83c.21-.39.06-.85.11-1.24C119.8,144,119.81,143.78,120.16,143.86Z"/><path class="cls-61" d="M88.07,178v-1.71a26.62,26.62,0,0,0,5.07-2.15,18.49,18.49,0,0,0,4.67-3.73,9.91,9.91,0,0,0,2.65-8.49,2.57,2.57,0,0,1,1.66,2.52,9.24,9.24,0,0,1-1.56,5.89A16.66,16.66,0,0,1,94.13,176,16.22,16.22,0,0,1,88.07,178Z"/><path class="cls-50" d="M128.44,153.84a2.55,2.55,0,0,1-2.3,1.38,3.05,3.05,0,0,1-1.86-3.14,13,13,0,0,1,.41-2.72,88.93,88.93,0,0,1,3.52-10.56c.33.3.2.71.2,1.07,0,1.83,0,3.65.06,5.47-.05,1-.63,1.84-.45,2.84a2.32,2.32,0,0,1,.42,1.47C128.41,151,128.44,152.44,128.44,153.84Z"/><path class="cls-62" d="M121.7,143.13c2.43-3.07,4.51-6.39,6.76-9.58.8-.68,1.19-1.71,2.08-2.41.16.92-.58,3.22-2,6.35a2.64,2.64,0,0,0-.85,1c-1.22,1.71-2.41,3.47-3.64,5.19a6.09,6.09,0,0,1-1.54,1.54c-.53.36-.76.25-.77-.38S121.69,143.68,121.7,143.13Z"/><path class="cls-62" d="M88.87,160.11c-1.18-.24-1.36-.56-.86-1.62a5.45,5.45,0,0,1,.91-1.32,27.38,27.38,0,0,1,8.36-6.31.43.43,0,0,1,.19.08,21.72,21.72,0,0,0-1.61,3.24,20.28,20.28,0,0,0-6,5.19C89.64,159.73,89.44,160.17,88.87,160.11Z"/><path class="cls-76" d="M98.38,152.15a10.82,10.82,0,0,1,1.46-1.71,5,5,0,0,0,1.42-3,.67.67,0,0,0,.11-.55c0-.42.13-.65.58-.68a.62.62,0,0,1,.7.52.13.13,0,0,1,0,.06,5.19,5.19,0,0,1-.81,4.6,44,44,0,0,0-3.31,4.28.65.65,0,0,1-.15.18c-.2.19-.39.44-.69.27s-.18-.45-.1-.71a14,14,0,0,1,1-2.18,2.19,2.19,0,0,0,.33-.6c.1-.46-.21-.08-.32-.13S98.33,152.38,98.38,152.15Z"/><path class="cls-77" d="M116.43,139.26c.45-.86,1.3-1.45,1.52-2.44,1.58.48,1.85,1.24,1,2.72-.86-.85-1.64-.42-2.46,0a.2.2,0,0,1,0-.28Z"/><path class="cls-61" d="M120.15,141.64v.4c-.31.23.17.85-.45.91a1.89,1.89,0,0,1,0-.85c-.17-.4.06-.86-.18-1.25l-.06-.26.52.1a.35.35,0,0,1,.19.17h0A.66.66,0,0,1,120.15,141.64Z"/><path class="cls-78" d="M98.38,152.15l.26.29a1.19,1.19,0,0,1-.75.42A1.05,1.05,0,0,1,98.38,152.15Z"/><path class="cls-79" d="M120.15,141.64v-.73h.18A1,1,0,0,1,120.15,141.64Z"/><path class="cls-80" d="M106.28,167.17l-.24.06-.23-.26A.48.48,0,0,1,106.28,167.17Z"/><path class="cls-79" d="M120.09,140.89l-.19-.17a.16.16,0,0,1,.18.13A.08.08,0,0,1,120.09,140.89Z"/><path class="cls-76" d="M88.07,164.59v-1.3a43.84,43.84,0,0,1,7.05-.78,5.94,5.94,0,0,1,2.14.21c.73.27.77.39.58,1.31a36.58,36.58,0,0,0-6.35.5A7.89,7.89,0,0,1,88.07,164.59Z"/><path class="cls-56" d="M87.77,111.77c.3.21.27.53.27.85v6.91a1.09,1.09,0,0,1-.25.86,40.53,40.53,0,0,1-6.15-1.59,6.69,6.69,0,0,1-2.4-1A4.5,4.5,0,0,1,81.09,115,19.67,19.67,0,0,1,87.77,111.77Z"/><path class="cls-81" d="M91.94,208.49a9.6,9.6,0,0,1,4.6-2.35,2.22,2.22,0,0,1,1.92.48,6.91,6.91,0,0,1,2.45,3.76.82.82,0,0,1-.61.27,25,25,0,0,1-5.4-.16A4.53,4.53,0,0,1,91.94,208.49Z"/><path class="cls-82" d="M91.94,208.49a1.06,1.06,0,0,1,.77.43,4.76,4.76,0,0,0,3.71,1.46c1.49.05,3,0,4.48,0,.14.51-.17.77-.55,1A9.34,9.34,0,0,1,94,212.6a1.8,1.8,0,0,1-.22-.06,2.4,2.4,0,0,1-2.31-1.71C90.9,209.52,90.86,209.47,91.94,208.49Z"/><path class="cls-83" d="M101.91,203.89a2,2,0,0,1,2.43-1,4.37,4.37,0,0,1,2.21,2.36.5.5,0,0,1-.51.38A5.8,5.8,0,0,1,101.91,203.89Z"/><path class="cls-84" d="M101.91,203.89a12.56,12.56,0,0,0,3.92,1.51,1.3,1.3,0,0,0,.75-.14c.33.57-.12.85-.5.85a6.6,6.6,0,0,1-3.83-.36.84.84,0,0,1-.56-.9A1.77,1.77,0,0,1,101.91,203.89Z"/><path class="cls-85" d="M107.76,203.43a6,6,0,0,1-1.72-.38.46.46,0,0,1-.38-.38.48.48,0,0,1,.39-.48,5.11,5.11,0,0,1,2.47-.34,15.9,15.9,0,0,1,1.55.37.42.42,0,0,1,.34.41.43.43,0,0,1-.35.4A7.88,7.88,0,0,1,107.76,203.43Z"/><path class="cls-86" d="M85.72,206.44a.66.66,0,0,1-.45-.82,1.12,1.12,0,0,1,0-.13,3.28,3.28,0,0,1,1.41-1.3,1.26,1.26,0,0,1,1.3,0l.24.41a2.32,2.32,0,0,1-.14,1.25C87.51,206.76,86.57,206.41,85.72,206.44Z"/><path class="cls-87" d="M104.44,212.28a4,4,0,0,1-3.12.19.37.37,0,0,1-.22-.22c0-.18.1-.26.23-.33a4.77,4.77,0,0,1,2-.17A1.22,1.22,0,0,1,104.44,212.28Z"/><path class="cls-88" d="M88,209a2.45,2.45,0,0,1,1.13.18c.22.11.6.07.55.44s-.3.45-.56.51a2.68,2.68,0,0,1-1.11.25h0A1,1,0,0,1,88,209Z"/><path class="cls-89" d="M85.72,206.44c.26-.33.62-.25,1-.23a1.76,1.76,0,0,0,1.34-.48c.35.25.27.63.28,1l-.26.21a4.74,4.74,0,0,1-2.08-.29Z"/><path class="cls-90" d="M88.29,206.7c-.37-.24-.22-.63-.28-1,.1-.37-.14-.85.26-1.15C89.11,205.79,89.12,206,88.29,206.7Z"/><path class="cls-91" d="M114.89,210.38a.75.75,0,0,1-.74.44c-.34,0-.85.05-.85-.37s.44-.28.71-.3A1,1,0,0,1,114.89,210.38Z"/><path class="cls-92" d="M94.87,203a3.86,3.86,0,0,1-.49-.1.36.36,0,0,1-.19-.26.35.35,0,0,1,.19-.25,1.47,1.47,0,0,1,.55-.08c.31,0,.79-.09.76.38S95.22,203,94.87,203Z"/><path class="cls-93" d="M90.44,217.53a2,2,0,0,1-1.77,0A1.71,1.71,0,0,1,90.44,217.53Z"/><path class="cls-94" d="M76.47,211.23c.3-.75,1-.73,1.64-.85a9,9,0,0,1,3.5.43.71.71,0,0,1,.6.79s0,.05,0,.07a3.76,3.76,0,0,1-2.26,3.18c-.81-.86-1.14-2.08-2.22-2.72C77.28,211.93,76.69,211.82,76.47,211.23Z"/><path class="cls-95" d="M76.47,211.23a5.15,5.15,0,0,1,3.47,3.65,4,4,0,0,1-3.31-1.31A1.91,1.91,0,0,1,76.47,211.23Z"/><path class="cls-96" d="M88,209v1.38a6,6,0,0,1-2.72-.31c-.16-.09-.38-.14-.41-.36s.19-.38.39-.5a1.94,1.94,0,0,1,1-.21Z"/><path class="cls-97" d="M72.7,207.36a2.42,2.42,0,0,1-1.24-.27.28.28,0,0,1-.19-.33.3.3,0,0,1,.19-.19,4.59,4.59,0,0,1,2.57,0,.35.35,0,0,1,.26.34c0,.19-.16.25-.29.33A2.74,2.74,0,0,1,72.7,207.36Z"/><path class="cls-98" d="M80.72,202.72a1.91,1.91,0,0,1-1.71.09A1.52,1.52,0,0,1,80.72,202.72Z"/><path class="cls-86" d="M85.72,206.44l.23.18A.26.26,0,0,1,85.72,206.44Z"/><path class="cls-99" d="M108.89,119.88a3.85,3.85,0,0,1-2-.27c-.22-.16-.48-.3-.51-.58s.32-.38.53-.51a1.05,1.05,0,0,1,.42-.18,9.59,9.59,0,0,1,3.62.13c.3.09.59.21.59.58s-.3.39-.53.54A4.11,4.11,0,0,1,108.89,119.88Z"/><path class="cls-100" d="M122,117.32a1.51,1.51,0,0,1,.71-.56c1.24-.71,2.26-.86,3,1.27C124.14,118.71,122.68,118.43,122,117.32Z"/><path class="cls-101" d="M122,117.32a3,3,0,0,0,2.33.72h1.36a.55.55,0,0,1-.37.63,3.82,3.82,0,0,1-2.87.3c-.48-.15-.6-.54-.77-.9S121.67,117.5,122,117.32Z"/><path class="cls-85" d="M114,112.29a8.81,8.81,0,0,1-1.1-.1.38.38,0,0,1-.29-.31.31.31,0,0,1,.23-.35,3.56,3.56,0,0,1,2.57,0,.27.27,0,0,1,.21.32v0a.5.5,0,0,1-.31.29A12.79,12.79,0,0,1,114,112.29Z"/><path class="cls-85" d="M89.87,117.34a2.33,2.33,0,0,1-1.25-.17c-.14-.09-.28-.16-.25-.34a.37.37,0,0,1,.28-.33,7.06,7.06,0,0,1,2.51,0c.31.08.31.42,0,.61A2.29,2.29,0,0,1,89.87,117.34Z"/><path class="cls-102" d="M128.43,117.8H130a1.62,1.62,0,0,1,.78.17c.13.09.28.14.27.34a.39.39,0,0,1-.37.37h-2.3A.72.72,0,0,1,128.43,117.8Z"/><path class="cls-103" d="M114.63,118.45c.15-.48.56-.47.93-.47a2.29,2.29,0,0,1,1.34.22.44.44,0,0,1,.14.61c-.18.42-.36.86-.85,1C115.59,119.42,115.24,118.83,114.63,118.45Z"/><path class="cls-104" d="M103.09,111.55a2.1,2.1,0,0,1-2.57.09A2,2,0,0,1,103.09,111.55Z"/><path class="cls-105" d="M116.7,111.07a1.19,1.19,0,0,1-.32,0c-.24-.09-.54-.11-.6-.44a.55.55,0,0,1,.2-.51.72.72,0,0,1,.86,0,1.86,1.86,0,0,1,.26.23c.16.16.33.34.22.59S117,111.06,116.7,111.07Z"/><path class="cls-106" d="M118.18,114.68a.57.57,0,0,1-.65.48h0c-.31,0-.72,0-.85-.47-.07-.28.53-.78.85-.76A.86.86,0,0,1,118.18,114.68Z"/><path class="cls-107" d="M126.11,122.45c-.31,0-.67,0-.66-.44a.65.65,0,0,1,.58-.71h0a.77.77,0,0,1,.82.68C126.89,122.45,126.45,122.41,126.11,122.45Z"/><path class="cls-108" d="M102,121.32c-.29,0-.65,0-.71-.44s.46-.73.78-.73a.82.82,0,0,1,.68.8C102.68,121.34,102.33,121.31,102,121.32Z"/><path class="cls-109" d="M109.64,112.66c0,.4-.39.44-.67.48s-.78,0-.8-.42.36-.56.71-.63S109.47,112.34,109.64,112.66Z"/><path class="cls-110" d="M114.63,118.45c.91,0,1.23.66,1.54,1.35C115,119.74,114.66,119.46,114.63,118.45Z"/><path class="cls-111" d="M117.21,121.61a1.7,1.7,0,0,1-2,0A1.54,1.54,0,0,1,117.21,121.61Z"/><path class="cls-112" d="M123.35,113.2c.93-.45,1.06-.4,1.82.68C124.24,114.31,123.79,114.13,123.35,113.2Z"/><path class="cls-113" d="M123.35,113.2a1.72,1.72,0,0,0,1.82.68c0,.15,0,.32-.17.38a2,2,0,0,1-1.35,0C123.1,114.05,122.93,113.7,123.35,113.2Z"/><path class="cls-114" d="M99.1,116a3.7,3.7,0,0,1,1.87,0C100.52,116.82,100.05,116.84,99.1,116Z"/><path class="cls-115" d="M105.37,117.56s.06.08,0,.1a1.34,1.34,0,0,1-1.54.3c-.39-.16-.63-.4-.37-.86A2.58,2.58,0,0,1,105.37,117.56Z"/><path class="cls-116" d="M113.19,110.77a.64.64,0,0,1-.54-.37c-.29-.49-.17-.78.42-.86a.85.85,0,0,1,.85.17C114,110.27,113.38,110.37,113.19,110.77Z"/><path class="cls-117" d="M105.37,117.56a3.55,3.55,0,0,1-1.86-.46c.27-.62.72-.58,1.22-.31A1.29,1.29,0,0,1,105.37,117.56Z"/><path class="cls-118" d="M113.12,116.42c-.21.66-.69.42-1.11.31a.5.5,0,0,1-.46-.53.48.48,0,0,1,.07-.24A2.13,2.13,0,0,1,113.12,116.42Z"/><path class="cls-119" d="M97.28,117.56c-.92.31-1,.28-1.37-.45C97.07,116.77,97.13,116.79,97.28,117.56Z"/><path class="cls-120" d="M113.12,116.42a2.51,2.51,0,0,1-1.5-.46C112.42,115.52,112.48,115.54,113.12,116.42Z"/><path class="cls-121" d="M101.24,113.79c-.08.36-.28.51-.57.48a.44.44,0,0,1-.41-.46c0-.29.26-.32.49-.33A.47.47,0,0,1,101.24,113.79Z"/><path class="cls-122" d="M128.44,108.35a1.21,1.21,0,0,1,.32-.11.43.43,0,0,1,.51.32c0,.26-.18.38-.41.44l-.44,0C128.12,108.8,128.35,108.62,128.44,108.35Z"/><path class="cls-123" d="M97.28,117.56a.45.45,0,0,0-.44-.45h-.91a1,1,0,0,1,.85-.47C97.28,116.6,97.47,116.94,97.28,117.56Z"/><path class="cls-124" d="M112.42,121.9c-.07.32-.32.31-.55.3s-.43,0-.42-.28a.41.41,0,0,1,.42-.4h0A.51.51,0,0,1,112.42,121.9Z"/><path class="cls-125" d="M120.1,121.51c0,.3-.29.38-.55.4s-.38-.11-.34-.34a.49.49,0,0,1,.52-.47h0A.4.4,0,0,1,120.1,121.51Z"/><path class="cls-126" d="M113.19,110.77c-.1-.59.44-.75.73-1.07C114.23,110.43,114.19,110.5,113.19,110.77Z"/><path class="cls-127" d="M128.45,111.82a1.54,1.54,0,0,1,.31-.17c.33-.07.69.06.69.38s-.4.23-.66.24a1.93,1.93,0,0,1-.34,0Z"/><path class="cls-128" d="M124.15,109.47a.38.38,0,0,1-.36.41h0c-.25,0-.49,0-.54-.28s.14-.32.34-.37A.61.61,0,0,1,124.15,109.47Z"/><path class="cls-29" d="M155,125.87l.21-.64a2.93,2.93,0,0,1,.24-1.46,23,23,0,0,0,1.28-4.51c.05-.48.22-1,.73-1.07a9.58,9.58,0,0,1,5.09-.24,1.1,1.1,0,0,1,.47.32,2.88,2.88,0,0,1-.13,1.59,13.61,13.61,0,0,1-6.4,7.77c-.18-.72-.59-.51-1-.31-.29.15-.65.4-.94.09s-.05-.59.09-.86A2.79,2.79,0,0,1,155,125.87Z"/><path class="cls-76" d="M163,118.27a13.54,13.54,0,0,0-4.58,0c-1.28.19-1.3.18-1.46,1.42a22.53,22.53,0,0,1-1.77,5.56,1.09,1.09,0,0,0-1,.13,2.42,2.42,0,0,1-1.13.44c.28-.86.54-1.57.78-2.32.64-2,1.65-3.83,1.58-6,0-.37.23-.54.57-.6a12.27,12.27,0,0,1,5.59,0C162.33,117,163,117.36,163,118.27Z"/><path class="cls-129" d="M154.8,126.58c0,.26-.24.48-.13.85l1.31-.61c.2-.1.41-.25.62,0s0,.42,0,.64a1.72,1.72,0,0,1-.07.21,8.29,8.29,0,0,1-4.28,1.59,2.22,2.22,0,0,1,1-2c.45-.27.85-.59,1.33-.85C154.72,126.25,154.79,126.35,154.8,126.58Z"/><path class="cls-130" d="M154.8,126.58l-.3-.23a1,1,0,0,1,.49-.46C155,126.11,155,126.37,154.8,126.58Z"/><polygon class="cls-29" points="144.74 124.63 144.76 124.66 144.72 124.64 144.71 124.6 144.74 124.63"/><path class="cls-131" d="M135.57,110.64c.39.35.07.54-.19.67a5.85,5.85,0,0,1-4.45.11c-.51-.24-.55-.65-.05-1a4.64,4.64,0,0,1,2-.51,11,11,0,0,1,1.15,0c.07.07.14.15.21.21.33.26.76.14,1.12.28A1.18,1.18,0,0,1,135.57,110.64Z"/><path class="cls-132" d="M133.24,119.2a4.52,4.52,0,0,1-.53-.11.47.47,0,0,1-.36-.52.52.52,0,0,1,.5-.52,1.16,1.16,0,0,1,1,.8C133.87,119.28,133.5,119.13,133.24,119.2Z"/><path class="cls-133" d="M142,113.16a2.63,2.63,0,0,1,2,0A1.85,1.85,0,0,1,142,113.16Z"/><path class="cls-134" d="M135.57,110.64h-.24c-.43-.2-1-.06-1.33-.43a.81.81,0,0,1,0-.22c1.08-.41,1.08-.41,1.61.21a.18.18,0,0,1,0,.16s0,.07,0,.07Z"/><path class="cls-135" d="M137.39,111c.25,0,.44.12.44.4s-.21.37-.45.41-.5,0-.51-.28S137.13,111,137.39,111Z"/><path class="cls-136" d="M132.2,116.32a.43.43,0,0,1-.54.27c-.22,0-.43-.16-.37-.45s.27-.23.45-.2S132.18,116,132.2,116.32Z"/><path class="cls-137" d="M137.68,116.45c-.3,0-.6,0-.59-.3s.3-.33.53-.36a.35.35,0,0,1,.41.29C138.12,116.46,137.78,116.36,137.68,116.45Z"/><path class="cls-131" d="M135.61,110.41v-.23a.89.89,0,0,1,.08.17Z"/><path class="cls-138" d="M136.29,138.06c-.2.13-.2.45-.5.51a5.56,5.56,0,0,1,.65-1.83.23.23,0,0,1,.3-.09h0a.23.23,0,0,1,0,.31h0C136.52,137.29,136.62,137.78,136.29,138.06Z"/><path class="cls-139" d="M136.29,138.06a2,2,0,0,1,.46-1.1,4.63,4.63,0,0,1-.45,1.86C136.3,138.55,136.29,138.31,136.29,138.06Z"/><path class="cls-140" d="M137.24,135.13a1.43,1.43,0,0,1-.24.94c-.15,0-.18-.15-.25-.24a2.72,2.72,0,0,1,.22-.7.16.16,0,0,1,.23,0A.08.08,0,0,1,137.24,135.13Z"/><path class="cls-141" d="M136.75,135.81l.25.24a.54.54,0,0,1-.05.21c-.15.12,0,.39-.24.48h-.27A2.84,2.84,0,0,1,136.75,135.81Z"/><path class="cls-142" d="M137.24,135.13H137a1.08,1.08,0,0,1,.34-.57C137.51,134.77,137.42,134.94,137.24,135.13Z"/><path class="cls-143" d="M136.71,136.74a.6.6,0,0,1,.24-.48.8.8,0,0,1-.18.71Z"/><path class="cls-32" d="M105.15,68.2a12.44,12.44,0,0,0,3.55-1.58,5.23,5.23,0,0,0,2.44-4c.32-.31.19-.71.21-1.08a18.09,18.09,0,0,0-.7-5.85.75.75,0,0,1,.32-.21,15.3,15.3,0,0,0,1.92-.27c3.53-.28,7.06-.48,10.59-.54,6.42-.12,12.83-.08,19.25,0,4.84.07,9.67.41,14.49.85,4.61.4,9.19.91,13.75,1.71a59.56,59.56,0,0,1,6.84,1.61,13.14,13.14,0,0,1,3.47,1.54c1.8,1.19,1.78,2.72-.05,3.9a8.91,8.91,0,0,1-2,1c-1,.33-2,.69-3,1a129.88,129.88,0,0,1-21.68,3c-5.58.43-11.17.73-16.77.7H127.32c-1.92,0-3.83.07-5.75-.06a6.21,6.21,0,0,0-2.06-.17c-4.47-.12-8.93-.4-13.38-.93C105.75,68.69,105.23,68.81,105.15,68.2Z"/><path class="cls-32" d="M133.72,72.78h-9c-.47-.38-1-.16-1.53-.2a14.61,14.61,0,0,0-1.48,0,1.53,1.53,0,0,0-2-.38c-1.4.56-2.87.15-4.28.23a.35.35,0,0,1-.28-.18c-.59-1-1.45-.64-2.23-.39-.55.16-1,.49-1.61.08s-.85.5-1.38.17a57.82,57.82,0,0,1-6.58-.26c-2.71-.13-5.41-.41-8.11-.7-3-.33-6.07-.69-9.09-1.13a105,105,0,0,1-13.68-2.8c.13-.24.35-.15.52-.2,2.06.29,4.1.6,6.14.85,1.6.21,3.2.37,4.8.54l6.18.63h.92c1.71,0,3.42,0,5.07,0a40,40,0,0,0,7.57-.51c1.57-.3,3.11.15,4.66.26,2.09.15,4.2.2,6.27.5a1.64,1.64,0,0,0,2.3.32l0,0c.46-.31,1.12-.08,1.71-.12h2.44c1.28.23,2.56,0,3.86.13,2.82.19,5.66.07,8.49.08,2.4,0,4.81.11,7.21-.08,4.67,0,9.32-.37,14-.59,1.14.79,2.46.64,3.73.66a2.54,2.54,0,0,0,1.78-.68c.3-.29.63-.47,1-.23.68.47,1,0,1.37-.47,3.94-.51,7.86-1,11.75-1.84.86-.17,1.63-.37,2.44-.6a29.13,29.13,0,0,0,5.41-2c.85-.45,1.93-.9,1.89-2.1s-1-1.57-1.86-2a30.32,30.32,0,0,0-7.13-2.25,137.48,137.48,0,0,0-16.79-2.32c-6.28-.53-12.57-.82-18.87-1-3.19-.08-6.39-.28-9.57-.15-5.29.24-10.6.11-15.89.64q-.85,0-1.71,0a6.53,6.53,0,0,0-1.71,0,.88.88,0,0,1-.54-.16,8.29,8.29,0,0,0-2.66-2.37c-.25-.14-.57-.24-.56-.62,2.46,0,4.92-.16,7.36-.32,2.69-.15,5.38,0,8.06-.18a110.63,110.63,0,0,1,12.08-.15c3.3.1,6.61,0,9.9.21,2.91.15,5.82.29,8.73.47,2.13.12,4.27.25,6.4.47l5.81.58c2.21.23,4.41.48,6.61.78,3.64.48,7.26,1.08,10.85,1.89A54.2,54.2,0,0,1,190.94,58a11.17,11.17,0,0,1,2.82,1.53c2.18,1.71,2.17,3.1-.14,4.87A13,13,0,0,1,190.33,66a60.26,60.26,0,0,1-11.81,3.11c-2.71.47-5.43.92-8.14,1.33-1.52.23-3,.35-4.56.52-1.26.12-2.52.19-3.76.37-1,.14-2,.18-3,.24-1.53.1-3,.25-4.57.34a47.91,47.91,0,0,0-5.48.39,1.7,1.7,0,0,1-.45,0c-4.56,0-9.12.4-13.69.27C134.53,72.57,134.05,72.44,133.72,72.78Z"/><path class="cls-32" d="M106.52,59.13v.34a3.55,3.55,0,0,1-2,4,6.83,6.83,0,0,1-2.44.55A38,38,0,0,1,88.58,61.7a10.47,10.47,0,0,1-2.22-1.17.76.76,0,0,1-.39-.66c.58-.79,1.5-.86,2.33-1.14a76.48,76.48,0,0,1,12.54-2.41c1.22-.16,2.43-.32,3.67-.38A3,3,0,0,1,106.52,59.13Z"/><path class="cls-66" d="M112,54.57c2.27,0,4.52-.2,6.78-.32,1.84-.1,3.68-.06,5.51-.17q6.09-.39,12.19-.17c3,.11,6,.06,9,.24,1.61.09,3.23,0,4.82.21,2.57.28,5.13.34,7.66.59,1.93.21,3.88.37,5.82.56,2.32.23,4.63.56,6.92,1a59.92,59.92,0,0,1,8,1.78,13.6,13.6,0,0,1,4.89,2.2c1.2,1,1.2,1.95,0,3a12.72,12.72,0,0,1-4.78,2.17,5.73,5.73,0,0,1-2.23.52c-.24.11-.48.22-.47-.23a22.84,22.84,0,0,0,4.52-1.71c.79-.43,1.65-1,1.64-1.91s-.86-1.47-1.67-1.9A26.92,26.92,0,0,0,173.39,58c-2.06-.45-4.13-.8-6.2-1.12-1.59-.24-3.2-.3-4.78-.54-2-.3-4-.35-5.93-.62a31.08,31.08,0,0,0-3.2-.22c-1.76-.07-3.52-.23-5.27-.32-4.34-.22-8.68-.2-13-.22a20.31,20.31,0,0,0-2.05-.2c-3.95.37-7.9.06-11.86.26-2.78.14-5.57.27-8.36.43-.6.27-1.26-.08-1.85.21h-.23c-.42-.17-.5-.59-.7-.92h.46C111,54.51,111.53,54.85,112,54.57Z"/><path class="cls-33" d="M106.52,59.13a4.14,4.14,0,0,0-1.87-3c-.7-.21-1.38-.5-2.1-.66a18,18,0,0,0-7.2-.1c-1.57.21-3.13.39-4.68.65a8.45,8.45,0,0,0-4.86,2.42c-.3.21-.52.86-1,.22-.1-1.71,1-2.69,2.22-3.51a11.42,11.42,0,0,1,4.89-1.55c1.78-.24,3.56-.5,5.34-.64a12.16,12.16,0,0,1,7,1,5.14,5.14,0,0,1,2.47,4.86C106.69,59,106.59,59,106.52,59.13Z"/><path class="cls-32" d="M63.08,59.63c-.5-1-.41-1.51.44-2.15a7.13,7.13,0,0,1,6.89-.42,1.42,1.42,0,0,1,.78,1.84l0,.05A1.12,1.12,0,0,1,70.44,60a7.13,7.13,0,0,1-6.74.32C63.44,60.23,63.08,60.08,63.08,59.63Z"/><path class="cls-66" d="M102.79,55.26a4.27,4.27,0,0,1,1.86.91c-2.5.31-5,.55-7.48,1A53.38,53.38,0,0,0,86,59.88a1.33,1.33,0,0,1-1.15-1.17c.35.3.46-.1.67-.23a61.54,61.54,0,0,1,13-2.84A31,31,0,0,1,102.79,55.26Z"/><path class="cls-144" d="M63.08,59.63c2.24,1.78,6.3,1.44,8.08-.68.4.34.14.6-.08.86a3.69,3.69,0,0,1-2.35,1.27,7.74,7.74,0,0,1-4.9-.39,2.16,2.16,0,0,1-.86-.6.3.3,0,0,1,0-.41Z"/><path class="cls-145" d="M121.05,69.78h-2.56a3.34,3.34,0,0,0-1.88,0,2,2,0,0,1-1.83-.23,24,24,0,0,0-3-.26c-1.39-.2-2.79-.2-4.19-.36a38.14,38.14,0,0,0-3.86-.32,4.58,4.58,0,0,1,1.44-.42,4,4,0,0,0,2,.37c1.3.06,2.56.22,3.89.33,1.86.15,3.73.13,5.6.38a34.38,34.38,0,0,0,3.8.06c.37,0,.78-.12,1.09.21C121.4,69.72,121.16,69.63,121.05,69.78Z"/><path class="cls-32" d="M110,72.1a.84.84,0,0,0,.49-.26c.59-.57.64-.57,1.31-.08.15.12.31.34.46.12.53-.77,1.41-.4,2.1-.67a.65.65,0,0,1,.87.31.73.73,0,0,1,.07.24c.06.53.4.58.85.57h2.57a1,1,0,0,0,.91-.34c.5-.59,1.2-.38,1.81-.28.42.07.42.49.42.86-1.88,0-3.77.1-5.64,0s-3.75-.17-5.63-.21A.67.67,0,0,1,110,72.1Z"/><path class="cls-21" d="M117.07,143.88a15.69,15.69,0,0,1-.73,5,50,50,0,0,1-3.67,9.77,17.53,17.53,0,0,1-3.42,4.76,3,3,0,0,1-1.48,1c-.58-.31-.41-.85-.37-1.31a32.35,32.35,0,0,1,1.59-7.4c.16-.49.23-1,1-1,.61,0,.62-.7.77-1.14a25.53,25.53,0,0,1,4.16-7.91C115.49,144.94,116,144,117.07,143.88Z"/><path class="cls-61" d="M117.07,143.88a15.24,15.24,0,0,0-3.88,4.93,24.51,24.51,0,0,0-2.18,4.95,8.22,8.22,0,0,1-.4,1.08c-.09.2-.23.46-.49.4s-.24-.27-.36-.44c-.36.23-.36.57-.45.86a34.65,34.65,0,0,0-1.59,7.18,6.19,6.19,0,0,0,0,1.61l-.2.13-.1,0-.08.05c-.86-.18-1-.86-1.1-1.57a10.17,10.17,0,0,1,.09-3.21,34.54,34.54,0,0,1,1.41-5.69c.09-.28.09-.62.39-.81.54.6.63.6.94-.07a9.9,9.9,0,0,0,.39-1.08,27.12,27.12,0,0,1,4.14-7.92,9.74,9.74,0,0,1,1.84-1.9c.76-.56,1.24-.38,1.52.54A2,2,0,0,1,117.07,143.88Z"/><path class="cls-79" d="M119.67,143c.35-.2.08-.71.44-.91l0,1.82c-.32.2-.26.51-.27.8s.06.61-.21.86Z"/><path class="cls-79" d="M119.44,140.88a1.38,1.38,0,0,1,.18,1.25A2.42,2.42,0,0,1,119.44,140.88Z"/><path class="cls-146" d="M116,140a.46.46,0,0,1,.23-.45.16.16,0,0,1,0,.17s0,.08,0,.08c0,.16-.07.22-.24.19Z"/><path class="cls-147" d="M116.2,139.76v-.25a.29.29,0,0,1,.22-.25v.32A.21.21,0,0,1,116.2,139.76Z"/><path class="cls-21" d="M107.38,164.58c.05-.11.12-.08.18,0S107.45,164.65,107.38,164.58Z"/><path class="cls-148" d="M116,140l0,.16-.1-.07L116,140Z"/><path class="cls-149" d="M134,110.19a2.12,2.12,0,0,1,1.33.43h-.85a.43.43,0,0,1-.48-.35Z"/><path class="cls-150" d="M176.22,65.86a.49.49,0,0,0,.47.23,13.5,13.5,0,0,1-3.53.86c-2.28.42-4.57.77-6.84,1.12-.94.15-1.9.2-2.85.28-.29,0-.61,0-.85.22-.09.07-.18.19-.28.19-2.29,0-4.53.86-6.84.58a1.33,1.33,0,0,1-.34-.1c-.16-.1-.42-.11-.38-.42,1.6-.06,3.19-.31,4.78-.42,1.75-.12,3.49-.34,5.23-.54,2.57-.3,5.21-.68,7.77-1.24Z"/><path class="cls-151" d="M140.68,69.8c-.28.3-.64.21-1,.21H125.93c-.34,0-.7.09-1-.21.75-.33,1.57.08,2.32-.23H137.9C138.8,69.87,139.77,69.47,140.68,69.8Z"/><path class="cls-152" d="M140.68,69.8h-2.06a.84.84,0,0,1-.72-.23h.92c3.38.15,6.74-.19,10.11-.29a51.38,51.38,0,0,0,5.81-.39l.24.23a.14.14,0,0,1,.05.15s0,.07-.06.07c-2.48-.1-5,.17-7.44.3C145.24,69.75,143,69.71,140.68,69.8Z"/><path class="cls-153" d="M127.27,69.57c-.74.45-1.55.11-2.32.23h-3.9a.48.48,0,0,1,.46-.23Z"/><path class="cls-65" d="M110.88,55.7c.58-.43,1.24-.14,1.86-.21C112.16,55.92,111.5,55.6,110.88,55.7Z"/><path class="cls-32" d="M155,69.28v-.21a38.43,38.43,0,0,0,5.66-.44c.64,0,1.29-.06,1.94,0-.44,1-.61,1.1-1.41.54-.3-.21-.49-.32-.74.06a2.45,2.45,0,0,1-2.24.86c-.85,0-1.66-.07-2.49-.11A.69.69,0,0,1,155,69.28Z"/><path class="cls-32" d="M114.81,69.56h2.74c.33,0,.69-.09,1,.22a2.41,2.41,0,0,0-2.08.58C116,70.86,115.19,70.4,114.81,69.56Z"/><path class="cls-65" d="M112,54.57c-.5.4-1.08.15-1.63.2C111,54.37,111.5,54.62,112,54.57Z"/><path class="cls-154" d="M102.79,55.26a3,3,0,0,1-1.71.39c-3.16.32-6.29.85-9.41,1.45a50.64,50.64,0,0,0-5.13,1.29c-.32.1-.67.49-1,.08a7.15,7.15,0,0,1,4.69-2.64,60.66,60.66,0,0,1,9.22-1A13.31,13.31,0,0,1,102.79,55.26Z"/><path class="cls-155" d="M175.69,230.38a42.13,42.13,0,0,1-13.11-2.21,13.68,13.68,0,0,1-5.07-2.91,6.59,6.59,0,0,1-2.1-3.62,3.51,3.51,0,0,1,0-1.12,5.31,5.31,0,0,1,2.62-3.9,13.66,13.66,0,0,1,3.14-1.35c.93-.3,1.87-.6,2.82-.86a16,16,0,0,0,5.68-3,36.91,36.91,0,0,0,3.2-2.93,11.09,11.09,0,0,1,1.49-1.25,8.14,8.14,0,0,1,5.56-1.41,11.19,11.19,0,0,1,6.69,3.07,13.44,13.44,0,0,1,4.2,6.84,10.32,10.32,0,0,1-2.08,9.4,13.39,13.39,0,0,1-6.43,4.28A19.79,19.79,0,0,1,175.69,230.38Z"/><path class="cls-156" d="M175.9,229.53a45.68,45.68,0,0,1-12.61-2.05,14.08,14.08,0,0,1-4.14-2,8.09,8.09,0,0,1-1.71-1.54,7,7,0,0,1-.77-1.2,3.76,3.76,0,0,1,.07-3.62,4.72,4.72,0,0,1,1.71-1.84,11.79,11.79,0,0,1,3-1.28c.86-.27,1.71-.52,2.64-.74a15.73,15.73,0,0,0,5.85-3,43.05,43.05,0,0,0,3.43-3,8.73,8.73,0,0,1,4-2.34,8.43,8.43,0,0,1,5.13.41,11.75,11.75,0,0,1,7.18,7.62,10,10,0,0,1-.35,7.65,10.48,10.48,0,0,1-4.58,4.82,16.43,16.43,0,0,1-5.26,1.81A21.66,21.66,0,0,1,175.9,229.53Z"/><path class="cls-157" d="M189.08,218.4a8.67,8.67,0,0,1-2.25,5.85A12.12,12.12,0,0,1,180,228.1a21.12,21.12,0,0,1-3.27.37A32.49,32.49,0,0,1,170,228a50.35,50.35,0,0,1-6.3-1.43,11.11,11.11,0,0,1-2.94-1.26,10.54,10.54,0,0,1-2.83-2.78,3.05,3.05,0,0,1,.37-3.76,5.76,5.76,0,0,1,2.3-1.49,19,19,0,0,1,3.13-.92,18.34,18.34,0,0,0,7.4-3.74,21.43,21.43,0,0,0,2.09-2,11.77,11.77,0,0,1,2.66-2.21,5.72,5.72,0,0,1,2.56-.72,9.41,9.41,0,0,1,6.14,2,11,11,0,0,1,4.42,7.16A6.35,6.35,0,0,1,189.08,218.4Z"/><path class="cls-158" d="M187.92,218.42a7.31,7.31,0,0,1-1.71,4.75,10.81,10.81,0,0,1-6.39,3.8,23.37,23.37,0,0,1-3.22.38,21.35,21.35,0,0,1-2.77-.06,26.74,26.74,0,0,1-3.57-.42c-1.54-.25-3.07-.55-4.57-1a19.32,19.32,0,0,1-3.78-1.27,8.18,8.18,0,0,1-2.57-2.07,7.74,7.74,0,0,1-.47-.62,1.81,1.81,0,0,1-.06-2.07,2.88,2.88,0,0,1,1.35-1.23,10.43,10.43,0,0,1,2.4-.86c.91-.26,1.81-.49,2.73-.73a14,14,0,0,0,3.42-1.52,24.28,24.28,0,0,0,3.79-2.68,19,19,0,0,0,1.36-1.34,17.4,17.4,0,0,1,1.71-1.61,5.4,5.4,0,0,1,5-.86,10.15,10.15,0,0,1,7.27,8.55A4.5,4.5,0,0,1,187.92,218.42Z"/><path class="cls-157" d="M175.52,226.8a36.15,36.15,0,0,1-4.52-.41,52.93,52.93,0,0,1-5.6-1.15,16,16,0,0,1-3.3-1.18,7.27,7.27,0,0,1-2-1.65,8.7,8.7,0,0,1-.75-.95,1,1,0,0,1-.11-.79,2.34,2.34,0,0,1,1.25-1.48,10,10,0,0,1,2.14-.81c.75-.21,1.5-.42,2.26-.6a19.25,19.25,0,0,0,6.77-3.42,17.18,17.18,0,0,0,2.39-2.12,22.65,22.65,0,0,1,2.1-1.94,4.38,4.38,0,0,1,2.91-.93,6.79,6.79,0,0,1,2.48.56,9.63,9.63,0,0,1,4.18,3.34,8.94,8.94,0,0,1,1.71,4.71,6.91,6.91,0,0,1-1.71,5,9.91,9.91,0,0,1-5.13,3.21,16.14,16.14,0,0,1-3.24.55C176.81,226.77,176.27,226.79,175.52,226.8Z"/><path class="cls-158" d="M175.49,225.68a35.19,35.19,0,0,1-4.47-.41,51.91,51.91,0,0,1-5.54-1.17,12.77,12.77,0,0,1-3-1.1l-.41-.25a1.16,1.16,0,0,1-.44-1.34,2.93,2.93,0,0,1,1.15-1.63,4.34,4.34,0,0,1,1.58-.71,17,17,0,0,0,6-2.47,25,25,0,0,0,4-3c.22-.22.42-.45.62-.67a18,18,0,0,1,1.71-1.56,3.62,3.62,0,0,1,3.3-.71,8.22,8.22,0,0,1,3.06,1.48,8.07,8.07,0,0,1,3.1,4.73,5.89,5.89,0,0,1-1.34,5.53,9.07,9.07,0,0,1-4.55,2.78,14.18,14.18,0,0,1-2.73.47C176.87,225.65,176.3,225.66,175.49,225.68Z"/><path class="cls-157" d="M175.81,225.07a27.92,27.92,0,0,1-5.47-.51,44.91,44.91,0,0,1-5.49-1.24,11.2,11.2,0,0,1-2.21-.85.74.74,0,0,1-.48-.91.77.77,0,0,1,.07-.16,2.64,2.64,0,0,1,1.17-1.3,4.62,4.62,0,0,1,1.25-.48,17.16,17.16,0,0,0,4.66-1.71,29.3,29.3,0,0,0,4.5-3.07c.86-.71,1.58-1.53,2.36-2.3a11.59,11.59,0,0,1,.92-.79,2.86,2.86,0,0,1,2.41-.56,7.43,7.43,0,0,1,3.5,1.71,7.59,7.59,0,0,1,2.56,4.32,5.28,5.28,0,0,1-1.38,5,8.94,8.94,0,0,1-5.13,2.68A14.64,14.64,0,0,1,175.81,225.07Z"/><path class="cls-159" d="M182.24,220.8a21.81,21.81,0,0,1-2.49-.28,22.94,22.94,0,0,0-4.46-.17c-2.12.14-4.23.37-6.33.72a29.84,29.84,0,0,0-3.09.67c-.36.1-.52.07-.62-.11s0-.31.33-.51a15.4,15.4,0,0,1,3.19-1.34,30.14,30.14,0,0,0,3.21-1.06,23.58,23.58,0,0,0,7.1-4.35,12.24,12.24,0,0,0,1.14-1.25l.16-.2c.11-.14.24-.21.41-.1a.32.32,0,0,1,.09.44l0,0c-.06.11-.16.2-.22.31a10.13,10.13,0,0,0-1.13,1.9,3.68,3.68,0,0,0-.28.85,2.27,2.27,0,0,0,.2,1.64,4,4,0,0,0,3.34,2.24H183a.28.28,0,0,1,0,.55A2.55,2.55,0,0,1,182.24,220.8Z"/><path class="cls-156" d="M165.92,221.27a13.83,13.83,0,0,1,2.94-1.25c1.09-.34,2.21-.6,3.26-1a27.1,27.1,0,0,0,6-3.35,19.16,19.16,0,0,0,1.58-1.41c.08,0,.13,0,.1.1a9.73,9.73,0,0,0-.86,2,2.51,2.51,0,0,0,.39,2.11,4.71,4.71,0,0,0,2.75,2c-.24.24-.51.08-.77.09l-1.92-.29a19.15,19.15,0,0,0-4.28-.12,81.08,81.08,0,0,0-8.2,1.09c-.3.05-.59.12-.85.19C166,221.36,165.91,221.43,165.92,221.27Z"/><path class="cls-160" d="M181.35,220.48c.24-.07.53.1.77-.09a1,1,0,0,1,.41.09A2,2,0,0,1,181.35,220.48Z"/><path class="cls-161" d="M179.81,214.32l-.11-.1a1,1,0,0,1,.34-.37h0A.91.91,0,0,1,179.81,214.32Z"/><path class="cls-162" d="M180.05,213.8a.44.44,0,0,1,.26-.26h0a.33.33,0,0,1-.15.27.09.09,0,0,1-.1,0Z"/><path class="cls-163" d="M180.58,213.17a.34.34,0,0,1-.17.26.06.06,0,0,1-.09,0h0a.65.65,0,0,1,.26-.26Z"/><path class="cls-164" d="M165.92,221.27l.17.08a.41.41,0,0,1-.26.09c-.09,0-.12,0-.09-.1Z"/><path class="cls-165" d="M165.74,221.34l.09.1c-.06.05-.15.11-.21,0S165.69,221.37,165.74,221.34Z"/><path class="cls-166" d="M180.05,213.8h.11l-.09.1h0a.07.07,0,0,1,0-.09Z"/><path class="cls-167" d="M180.31,213.43h.1l-.1.09h0Z"/><polygon class="cls-163" points="180.57 213.17 180.59 213.15 180.58 213.17 180.57 213.17"/><path class="cls-155" d="M78.06,209.36a12.4,12.4,0,0,1-3.83-.64,4,4,0,0,1-1.48-.86,2,2,0,0,1-.62-1.05.91.91,0,0,1,0-.33,1.53,1.53,0,0,1,.76-1.14,4.25,4.25,0,0,1,.93-.39l.85-.25a4.54,4.54,0,0,0,1.66-.86,9.37,9.37,0,0,0,.93-.85,3.91,3.91,0,0,1,.44-.37,2.39,2.39,0,0,1,1.62-.41,3.28,3.28,0,0,1,2,.86,3.84,3.84,0,0,1,1.22,2,3,3,0,0,1-.61,2.76A4,4,0,0,1,80,209.08,6,6,0,0,1,78.06,209.36Z"/><path class="cls-156" d="M78.12,209.11a12.89,12.89,0,0,1-3.69-.6,4.14,4.14,0,0,1-1.2-.57,2.4,2.4,0,0,1-.5-.45,1.86,1.86,0,0,1-.22-.35,1.11,1.11,0,0,1,0-1.06,1.37,1.37,0,0,1,.51-.53,3.47,3.47,0,0,1,.86-.38c.25-.08.51-.15.77-.21a4.84,4.84,0,0,0,1.71-.86c.34-.27.67-.55,1-.85a2.57,2.57,0,0,1,1.18-.69,2.53,2.53,0,0,1,1.49.12,3.44,3.44,0,0,1,2.1,2.22,3,3,0,0,1-.1,2.24,3.05,3.05,0,0,1-1.34,1.41,4.94,4.94,0,0,1-1.54.53A5.8,5.8,0,0,1,78.12,209.11Z"/><path class="cls-157" d="M82,205.86a2.57,2.57,0,0,1-.65,1.71,3.56,3.56,0,0,1-2,1.1,6,6,0,0,1-1,.11,9,9,0,0,1-1.94-.16,12.57,12.57,0,0,1-1.84-.41,3.41,3.41,0,0,1-.86-.36,3.16,3.16,0,0,1-.85-.82.85.85,0,0,1,.1-1.1,1.74,1.74,0,0,1,.67-.44,7.4,7.4,0,0,1,.92-.26,5.38,5.38,0,0,0,2.2-1.07,8.08,8.08,0,0,0,.6-.57,3.42,3.42,0,0,1,.78-.64,1.62,1.62,0,0,1,.74-.21,2.63,2.63,0,0,1,1.79.59A3.19,3.19,0,0,1,82,205.42,1.3,1.3,0,0,1,82,205.86Z"/><path class="cls-158" d="M81.64,205.86a2.18,2.18,0,0,1-.5,1.4,3.16,3.16,0,0,1-1.86,1.11c-.31,0-.63.09-.94.11h-.86a9.23,9.23,0,0,1-1-.13c-.44-.07-.85-.16-1.33-.27a6.29,6.29,0,0,1-1.11-.37,2.71,2.71,0,0,1-.74-.61l-.14-.18a.54.54,0,0,1,0-.6.82.82,0,0,1,.4-.36,3,3,0,0,1,.7-.27l.79-.2a4.38,4.38,0,0,0,1-.45,8.52,8.52,0,0,0,1.11-.78l.39-.39a5.79,5.79,0,0,1,.51-.48,1.62,1.62,0,0,1,1.46-.24,2.75,2.75,0,0,1,1.13.63,2.84,2.84,0,0,1,1,1.86A1.66,1.66,0,0,1,81.64,205.86Z"/><path class="cls-157" d="M78,208.32q-.67,0-1.32-.12c-.56-.09-1.1-.2-1.63-.34a4.65,4.65,0,0,1-1-.34,2,2,0,0,1-.6-.49,2,2,0,0,1-.22-.27.31.31,0,0,1,0-.23.73.73,0,0,1,.37-.44,2.55,2.55,0,0,1,.62-.23c.22-.07.45-.13.67-.18a5.57,5.57,0,0,0,2-1,5.1,5.1,0,0,0,.7-.61,4.68,4.68,0,0,1,.61-.57,1.32,1.32,0,0,1,.86-.27,1.93,1.93,0,0,1,.71.16,2.7,2.7,0,0,1,1.19,1,2.55,2.55,0,0,1,.5,1.38,2,2,0,0,1-.5,1.45,2.85,2.85,0,0,1-1.48.94,5.27,5.27,0,0,1-.95.17Z"/><path class="cls-158" d="M78,208a8.07,8.07,0,0,1-1.3-.13,13.07,13.07,0,0,1-1.63-.33,3.8,3.8,0,0,1-.85-.32l-.12-.07a.37.37,0,0,1-.14-.4.91.91,0,0,1,.34-.48,1.57,1.57,0,0,1,.46-.2,5,5,0,0,0,.86-.26,6.53,6.53,0,0,0,.91-.47,7.34,7.34,0,0,0,1.16-.85c.07-.06.13-.13.19-.19a4.16,4.16,0,0,1,.48-.46,1.06,1.06,0,0,1,1-.21,2.55,2.55,0,0,1,1.8,1.82,1.7,1.7,0,0,1-.4,1.61,2.61,2.61,0,0,1-1.32.86,3.61,3.61,0,0,1-.81.13A1.64,1.64,0,0,0,78,208Z"/><path class="cls-157" d="M78.1,207.81a9.63,9.63,0,0,1-1.61-.14,12.77,12.77,0,0,1-1.6-.37,3,3,0,0,1-.64-.26.21.21,0,0,1-.14-.26s0,0,0-.05a.74.74,0,0,1,.34-.38,1.13,1.13,0,0,1,.36-.14,5,5,0,0,0,1.36-.51,7.89,7.89,0,0,0,1.32-.9c.25-.2.46-.44.69-.66a1.55,1.55,0,0,1,.27-.24.87.87,0,0,1,.7-.16,2.09,2.09,0,0,1,1,.5,2.2,2.2,0,0,1,.75,1.26,1.55,1.55,0,0,1-.4,1.45,2.62,2.62,0,0,1-1.49.79A5,5,0,0,1,78.1,207.81Z"/><path class="cls-159" d="M80,206.56a5.87,5.87,0,0,1-.72-.08,6.31,6.31,0,0,0-1.3,0c-.63,0-1.24.1-1.86.2a8.08,8.08,0,0,0-.85.2h-.18s0-.09.09-.15a4.47,4.47,0,0,1,.93-.39c.31-.1.63-.18.93-.31a7,7,0,0,0,2.08-1.27c.12-.12.23-.24.34-.37v-.06s.07-.06.11,0,.06.08,0,.14l-.06.08a2.84,2.84,0,0,0-.33.56.83.83,0,0,0,0,.72,1.17,1.17,0,0,0,1,.65h.08a.08.08,0,0,1,.07.08.09.09,0,0,1-.06.09A.79.79,0,0,1,80,206.56Z"/><path class="cls-156" d="M75.2,206.7a4.34,4.34,0,0,1,.86-.36c.31-.1.64-.18,1-.31a7.92,7.92,0,0,0,1.75-1,3.55,3.55,0,0,0,.46-.41h0a2.09,2.09,0,0,0-.24.58.72.72,0,0,0,.11.62,1.36,1.36,0,0,0,.81.57c-.07.07-.16,0-.24,0l-.55-.09a6.42,6.42,0,0,0-1.24,0c-.8.06-1.6.18-2.4.32l-.26.06S75.2,206.74,75.2,206.7Z"/><path class="cls-160" d="M79.71,206.47h.35A.69.69,0,0,1,79.71,206.47Z"/><path class="cls-161" d="M79.26,204.67h0a.36.36,0,0,1,.11-.1h0A.35.35,0,0,1,79.26,204.67Z"/><path class="cls-162" d="M79.32,204.51a.3.3,0,0,1,.08-.08h0a.1.1,0,0,1,0,.08S79.32,204.52,79.32,204.51Z"/><path class="cls-163" d="M79.49,204.33a.1.1,0,0,1-.06.08h0a.3.3,0,0,1,.08-.08Z"/><polygon class="cls-163" points="79.48 204.33 79.49 204.33 79.48 204.34 79.48 204.33"/><path class="cls-155" d="M110.64,122.5a12.12,12.12,0,0,1-3.83-.65,4.12,4.12,0,0,1-1.49-.86,2,2,0,0,1-.61-1.06.86.86,0,0,1,0-.32,1.53,1.53,0,0,1,.76-1.14,3.91,3.91,0,0,1,.92-.39l.85-.26a4.72,4.72,0,0,0,1.67-.85c.33-.27.63-.57.93-.86a2.61,2.61,0,0,1,.44-.37,2.45,2.45,0,0,1,1.62-.42,3.37,3.37,0,0,1,1.95.86,4,4,0,0,1,1.23,2,3,3,0,0,1-.6,2.74,3.94,3.94,0,0,1-1.88,1.25A5.74,5.74,0,0,1,110.64,122.5Z"/><path class="cls-156" d="M110.7,122.25a13.62,13.62,0,0,1-3.69-.6,4.29,4.29,0,0,1-1.18-.57,2.34,2.34,0,0,1-.49-.45,2.25,2.25,0,0,1-.24-.36,1.11,1.11,0,0,1,0-1.06,1.44,1.44,0,0,1,.51-.53,3.22,3.22,0,0,1,.85-.37l.77-.22a4.53,4.53,0,0,0,1.71-.86c.35-.27.67-.58,1-.85a2.47,2.47,0,0,1,1.18-.68,2.42,2.42,0,0,1,1.48.11,3.45,3.45,0,0,1,2.12,2.22,2.92,2.92,0,0,1-.1,2.23,3.1,3.1,0,0,1-1.34,1.41,4.92,4.92,0,0,1-1.54.52A6.05,6.05,0,0,1,110.7,122.25Z"/><path class="cls-157" d="M114.54,119a2.5,2.5,0,0,1-.65,1.71,3.57,3.57,0,0,1-2,1.13,5.11,5.11,0,0,1-.95.1,9.9,9.9,0,0,1-2-.14,14.42,14.42,0,0,1-1.84-.42,2.91,2.91,0,0,1-1.71-1.22.86.86,0,0,1,.11-1.1,1.55,1.55,0,0,1,.67-.43,4.76,4.76,0,0,1,.91-.27,5.66,5.66,0,0,0,2.77-1.71,3.42,3.42,0,0,1,.78-.64,1.62,1.62,0,0,1,.74-.21,2.7,2.7,0,0,1,1.79.59,3.17,3.17,0,0,1,1.29,2.09A1.54,1.54,0,0,1,114.54,119Z"/><path class="cls-158" d="M114.21,119a2.13,2.13,0,0,1-.49,1.39,3.18,3.18,0,0,1-1.9,1.11,7.52,7.52,0,0,1-.94.11,5.48,5.48,0,0,1-.81,0,8.94,8.94,0,0,1-1-.12c-.45-.08-.86-.16-1.34-.27a7.27,7.27,0,0,1-1.11-.38,2.38,2.38,0,0,1-.73-.61.86.86,0,0,1-.14-.18.53.53,0,0,1,0-.61,1,1,0,0,1,.4-.35,3.12,3.12,0,0,1,.7-.26l.8-.21a3.75,3.75,0,0,0,1-.45,6.45,6.45,0,0,0,1.1-.78,5,5,0,0,0,.41-.39,4.51,4.51,0,0,1,.51-.47,1.54,1.54,0,0,1,1.45-.24,3,3,0,0,1,2.12,2.49A1.62,1.62,0,0,1,114.21,119Z"/><path class="cls-157" d="M110.59,121.45c-.45,0-.9-.06-1.34-.12a13.11,13.11,0,0,1-1.63-.34,4.14,4.14,0,0,1-1-.34,2.08,2.08,0,0,1-.59-.48,1.51,1.51,0,0,1-.22-.28.22.22,0,0,1,0-.22.7.7,0,0,1,.37-.44,3.32,3.32,0,0,1,.62-.24l.66-.17a5.7,5.7,0,0,0,2-1,4.37,4.37,0,0,0,.64-.65,6.42,6.42,0,0,1,.61-.56,1.27,1.27,0,0,1,.86-.28,2,2,0,0,1,.72.17,2.86,2.86,0,0,1,1.23,1,2.64,2.64,0,0,1,.48,1.37,2,2,0,0,1-.48,1.46,2.91,2.91,0,0,1-1.49.94,4.3,4.3,0,0,1-.94.16Z"/><path class="cls-158" d="M110.58,121.12a9.81,9.81,0,0,1-1.33-.12,14.86,14.86,0,0,1-1.61-.34,3.7,3.7,0,0,1-.86-.32l-.09-.07a.33.33,0,0,1-.13-.4.87.87,0,0,1,.33-.47,1.37,1.37,0,0,1,.46-.21,6.5,6.5,0,0,0,.86-.25,5.91,5.91,0,0,0,.9-.47,8.21,8.21,0,0,0,1.18-.85l.18-.2A5.11,5.11,0,0,1,111,117a1,1,0,0,1,1-.21,2.44,2.44,0,0,1,.85.43,2.33,2.33,0,0,1,.86,1.38,1.72,1.72,0,0,1-.39,1.62,2.62,2.62,0,0,1-1.33.85,4.37,4.37,0,0,1-.79.14Z"/><path class="cls-157" d="M110.67,120.94a7.81,7.81,0,0,1-1.6-.14,15,15,0,0,1-1.61-.36,4,4,0,0,1-.64-.27c-.14-.08-.18-.15-.12-.31a.76.76,0,0,1,.35-.38,1.13,1.13,0,0,1,.36-.14,4.59,4.59,0,0,0,1.35-.46,8.26,8.26,0,0,0,1.32-.85c.25-.21.46-.45.69-.68l.27-.23a.82.82,0,0,1,.71-.16,2.18,2.18,0,0,1,1,.5,2.31,2.31,0,0,1,.75,1.26,1.58,1.58,0,0,1-.41,1.45,2.61,2.61,0,0,1-1.49.78A3.36,3.36,0,0,1,110.67,120.94Z"/><path class="cls-159" d="M112.54,119.74a6.16,6.16,0,0,1-.72-.09,7.07,7.07,0,0,0-1.3-.05,11.52,11.52,0,0,0-1.85.21,9.21,9.21,0,0,0-.91.2h-.18s0-.09.1-.15a4.5,4.5,0,0,1,.93-.4,8,8,0,0,0,.94-.31,6.8,6.8,0,0,0,2.07-1.27,2.82,2.82,0,0,0,.33-.36l.06-.06a.08.08,0,0,1,.11,0,.09.09,0,0,1,0,.13h0l-.06.09a3.16,3.16,0,0,0-.33.56.85.85,0,0,0-.08.24.67.67,0,0,0,.06.48,1.2,1.2,0,0,0,1,.65h0s.06,0,.07.07a.1.1,0,0,1-.07.09Z"/><path class="cls-156" d="M107.78,119.84a3.85,3.85,0,0,1,.86-.37,9.59,9.59,0,0,0,1-.31,7.78,7.78,0,0,0,1.71-1c.17-.13.32-.27.47-.41h0a2.09,2.09,0,0,0-.24.58.7.7,0,0,0,.11.61,1.36,1.36,0,0,0,.8.59c-.07.06-.14,0-.22,0l-.57-.09a6.42,6.42,0,0,0-1.24,0c-.8.06-1.59.19-2.39.33l-.26,0S107.78,119.88,107.78,119.84Z"/><path class="cls-160" d="M112.29,119.61h.22a.24.24,0,0,1,.12,0A.65.65,0,0,1,112.29,119.61Z"/><path class="cls-161" d="M111.82,117.8h0a.23.23,0,0,1,.09-.11h0A.2.2,0,0,1,111.82,117.8Z"/><path class="cls-162" d="M111.91,117.65a.08.08,0,0,1,.08-.08h0a.11.11,0,0,1,0,.08Z"/><path class="cls-163" d="M112.06,117.47a.11.11,0,0,1,0,.08h0a.1.1,0,0,1,.06-.08Z"/><path class="cls-164" d="M107.78,119.84h0Z"/><path class="cls-165" d="M107.73,119.86Z"/><path class="cls-166" d="M111.91,117.65Z"/><polygon class="cls-163" points="112.06 117.47 112.06 117.46 112.06 117.47 112.06 117.47"/><path class="cls-155" d="M132.34,115.25a12.16,12.16,0,0,1-3.83-.64,3.92,3.92,0,0,1-1.48-.85,2,2,0,0,1-.62-1.05,1.93,1.93,0,0,1,0-.34,1.58,1.58,0,0,1,.76-1.13,4.74,4.74,0,0,1,.93-.4l.85-.25a4.67,4.67,0,0,0,1.66-.85,9.47,9.47,0,0,0,.93-.86,4.94,4.94,0,0,1,.44-.36,2.36,2.36,0,0,1,1.63-.41,3.2,3.2,0,0,1,1.95.89,4,4,0,0,1,1.23,2,3,3,0,0,1-.61,2.73,4,4,0,0,1-1.87,1.27A5.72,5.72,0,0,1,132.34,115.25Z"/><path class="cls-156" d="M132.41,115a14,14,0,0,1-3.69-.59,4.75,4.75,0,0,1-1.2-.58,2.19,2.19,0,0,1-.5-.46,2.07,2.07,0,0,1-.22-.35,1.09,1.09,0,0,1,0-1,1.47,1.47,0,0,1,.51-.54,3.88,3.88,0,0,1,.86-.38c.25-.07.51-.15.77-.21a4.66,4.66,0,0,0,1.71-.85c.34-.27.67-.56,1-.86a2.55,2.55,0,0,1,1.18-.68,2.38,2.38,0,0,1,1.49.12,3.42,3.42,0,0,1,2.1,2.22,2.92,2.92,0,0,1-.1,2.23,3.05,3.05,0,0,1-1.34,1.41,4.41,4.41,0,0,1-1.54.53A7,7,0,0,1,132.41,115Z"/><path class="cls-157" d="M136.26,111.76a2.57,2.57,0,0,1-.65,1.71,3.61,3.61,0,0,1-2,1.14,7.84,7.84,0,0,1-1,.11,9.81,9.81,0,0,1-1.95-.16,12.87,12.87,0,0,1-1.84-.41,3.22,3.22,0,0,1-.85-.37,3,3,0,0,1-.86-.85.85.85,0,0,1,.1-1.1,1.7,1.7,0,0,1,.68-.44,7.3,7.3,0,0,1,.91-.27A5.37,5.37,0,0,0,131,110a8.08,8.08,0,0,0,.6-.57,3.42,3.42,0,0,1,.78-.64,1.62,1.62,0,0,1,.74-.21,2.63,2.63,0,0,1,1.79.59,3.19,3.19,0,0,1,1.29,2.09A1.84,1.84,0,0,1,136.26,111.76Z"/><path class="cls-158" d="M135.93,111.76a2.18,2.18,0,0,1-.49,1.39,3.21,3.21,0,0,1-1.87,1.11,7.31,7.31,0,0,1-.94.11h-.85a9.38,9.38,0,0,1-1.05-.12c-.44-.07-.85-.17-1.33-.28a5,5,0,0,1-1.11-.37,2.68,2.68,0,0,1-.74-.6l-.14-.18a.56.56,0,0,1,0-.61.88.88,0,0,1,.4-.36,3.46,3.46,0,0,1,.7-.26l.79-.21a4,4,0,0,0,1-.44,7.73,7.73,0,0,0,1.11-.79l.39-.38a5.79,5.79,0,0,1,.51-.48,1.62,1.62,0,0,1,1.46-.24,2.73,2.73,0,0,1,1.13.62,2.84,2.84,0,0,1,1,1.87A.78.78,0,0,1,135.93,111.76Z"/><path class="cls-157" d="M132.34,114.21a9.81,9.81,0,0,1-1.32-.12,15.18,15.18,0,0,1-1.63-.33,5.58,5.58,0,0,1-1-.34,2.19,2.19,0,0,1-.6-.49l-.22-.27a.33.33,0,0,1,0-.24A.76.76,0,0,1,128,112a2.8,2.8,0,0,1,.63-.23q.33-.11.66-.18a5.7,5.7,0,0,0,2-1,5.86,5.86,0,0,0,.7-.62,5.4,5.4,0,0,1,.61-.56,1.3,1.3,0,0,1,.85-.28,2,2,0,0,1,.72.17,2.7,2.7,0,0,1,1.22,1,2.63,2.63,0,0,1,.5,1.38,2,2,0,0,1-.5,1.45,2.83,2.83,0,0,1-1.49.94,4.3,4.3,0,0,1-.94.16Z"/><path class="cls-158" d="M132.29,113.89a9.39,9.39,0,0,1-1.3-.13,13.11,13.11,0,0,1-1.63-.34,3.8,3.8,0,0,1-.85-.32l-.12-.07a.35.35,0,0,1-.14-.39.89.89,0,0,1,.34-.48,1.33,1.33,0,0,1,.47-.21,6.36,6.36,0,0,0,.85-.25,6,6,0,0,0,.91-.47,6.12,6.12,0,0,0,1.16-.86l.19-.19a4.29,4.29,0,0,1,.49-.46,1,1,0,0,1,1-.2,2.5,2.5,0,0,1,1.8,1.81,1.69,1.69,0,0,1-.43,1.56,2.59,2.59,0,0,1-1.32.86,3.82,3.82,0,0,1-.81.14A5.36,5.36,0,0,0,132.29,113.89Z"/><path class="cls-157" d="M132.39,113.75a8.58,8.58,0,0,1-1.6-.15,12.88,12.88,0,0,1-1.61-.36,3.18,3.18,0,0,1-.64-.26.22.22,0,0,1-.14-.27s0,0,0,0a.77.77,0,0,1,.34-.37,1.22,1.22,0,0,1,.36-.14,5,5,0,0,0,1.36-.51,7.67,7.67,0,0,0,1.32-.86c.25-.2.46-.44.69-.66a2,2,0,0,1,.27-.24.87.87,0,0,1,.7-.16,2.12,2.12,0,0,1,1,.5,2.23,2.23,0,0,1,.74,1.26,1.55,1.55,0,0,1-.4,1.45,2.62,2.62,0,0,1-1.49.79A5,5,0,0,1,132.39,113.75Z"/><path class="cls-159" d="M134.26,112.46l-.72-.09a7.06,7.06,0,0,0-1.3,0,11.64,11.64,0,0,0-1.86.21,6.17,6.17,0,0,0-.85.2h-.18s0-.1.09-.16a4.7,4.7,0,0,1,.93-.39,9.4,9.4,0,0,0,.94-.31,7.21,7.21,0,0,0,2.07-1.27c.12-.12.23-.24.34-.37v-.06s.07-.06.12,0,.06.08,0,.14l-.07.08a2.84,2.84,0,0,0-.33.56.62.62,0,0,0-.08.24.64.64,0,0,0,.06.47,1.16,1.16,0,0,0,1,.66h.05a.08.08,0,0,1,.07.08.08.08,0,0,1-.06.09Z"/><path class="cls-156" d="M129.49,112.6a3.41,3.41,0,0,1,.86-.36c.31-.11.64-.18,1-.31a8.06,8.06,0,0,0,1.71-1,4.58,4.58,0,0,0,.46-.42h0a2.15,2.15,0,0,0-.24.59.7.7,0,0,0,.11.61,1.32,1.32,0,0,0,.8.57c-.06.07-.15,0-.23,0l-.55-.08a5.14,5.14,0,0,0-1.24,0c-.81.06-1.6.18-2.4.32l-.26.06S129.49,112.65,129.49,112.6Z"/><path class="cls-160" d="M134,112.36h.23a.24.24,0,0,1,.12,0A.53.53,0,0,1,134,112.36Z"/><path class="cls-161" d="M133.55,110.57h0a.27.27,0,0,1,.11-.1h0A.52.52,0,0,1,133.55,110.57Z"/><path class="cls-162" d="M133.62,110.41a.2.2,0,0,1,.08-.08h0a.11.11,0,0,1,0,.08Z"/><path class="cls-163" d="M133.78,110.23a.07.07,0,0,1-.06.07h0a.18.18,0,0,1,.08-.07Z"/><polygon class="cls-163" points="133.78 110.23 133.78 110.23 133.78 110.23 133.78 110.23"/><path class="cls-155" d="M110.64,216.6a12.12,12.12,0,0,1-3.83-.65,4.1,4.1,0,0,1-1.49-.85,2,2,0,0,1-.61-1.06.92.92,0,0,1,0-.33,1.49,1.49,0,0,1,.76-1.13,4,4,0,0,1,.92-.41l.85-.24a4.74,4.74,0,0,0,1.67-.86,10.78,10.78,0,0,0,.93-.85,2.48,2.48,0,0,1,.44-.36,2.39,2.39,0,0,1,1.62-.42,3.32,3.32,0,0,1,1.95.89,4,4,0,0,1,1.23,2,3,3,0,0,1-.6,2.73,4,4,0,0,1-1.88,1.26A5.71,5.71,0,0,1,110.64,216.6Z"/><path class="cls-156" d="M110.7,216.36a13.62,13.62,0,0,1-3.69-.6,3.79,3.79,0,0,1-1.2-.57,2.15,2.15,0,0,1-.5-.45,1.92,1.92,0,0,1-.23-.35,1.11,1.11,0,0,1,0-1.06,1.41,1.41,0,0,1,.5-.53,3.47,3.47,0,0,1,.86-.38l.77-.22a4.46,4.46,0,0,0,1.71-.86c.35-.27.67-.58,1-.85a2.6,2.6,0,0,1,1.18-.68,2.45,2.45,0,0,1,1.49.11,3.49,3.49,0,0,1,2.14,2.17,2.92,2.92,0,0,1-.1,2.23,3.05,3.05,0,0,1-1.34,1.41,4.68,4.68,0,0,1-1.54.52A5.17,5.17,0,0,1,110.7,216.36Z"/><path class="cls-157" d="M114.54,213.1a2.52,2.52,0,0,1-.65,1.71,3.69,3.69,0,0,1-2,1.13,6.13,6.13,0,0,1-.95.1,9.2,9.2,0,0,1-2-.15,11.67,11.67,0,0,1-1.84-.42,3.2,3.2,0,0,1-.85-.36,3.06,3.06,0,0,1-.86-.82.85.85,0,0,1,.11-1.09,1.67,1.67,0,0,1,.67-.44,5.58,5.58,0,0,1,.91-.26,5.7,5.7,0,0,0,2.77-1.67,3.42,3.42,0,0,1,.78-.64,1.62,1.62,0,0,1,.74-.21,2.7,2.7,0,0,1,1.79.59,3.19,3.19,0,0,1,1.29,2.09A1.61,1.61,0,0,1,114.54,213.1Z"/><path class="cls-158" d="M114.21,213.11a2.15,2.15,0,0,1-.49,1.39,3.22,3.22,0,0,1-1.9,1.1,6,6,0,0,1-.94.11,3.66,3.66,0,0,1-.81,0,6,6,0,0,1-1-.12c-.45-.07-.86-.16-1.34-.27a6.32,6.32,0,0,1-1.11-.38,2.35,2.35,0,0,1-.73-.6l-.14-.18a.53.53,0,0,1,0-.61,1,1,0,0,1,.4-.36,3.7,3.7,0,0,1,.7-.26l.8-.21a4.06,4.06,0,0,0,1-.44,7.06,7.06,0,0,0,1.1-.78,5.14,5.14,0,0,0,.41-.4c.16-.16.33-.32.51-.47a1.6,1.6,0,0,1,1.45-.24,3,3,0,0,1,2.12,2.49A1.77,1.77,0,0,1,114.21,213.11Z"/><path class="cls-157" d="M110.59,215.56a11.74,11.74,0,0,1-1.33-.13,14.7,14.7,0,0,1-1.63-.33,5.3,5.3,0,0,1-1-.34,2.48,2.48,0,0,1-.59-.48,1.58,1.58,0,0,1-.22-.29.24.24,0,0,1,0-.23.65.65,0,0,1,.37-.42,2.22,2.22,0,0,1,.62-.24l.66-.17a5.92,5.92,0,0,0,2-1,5.33,5.33,0,0,0,.71-.63,5.4,5.4,0,0,1,.61-.56,1.27,1.27,0,0,1,.86-.28,2,2,0,0,1,.72.17,2.82,2.82,0,0,1,1.23,1,2.66,2.66,0,0,1,.48,1.37,2,2,0,0,1-.49,1.46,2.91,2.91,0,0,1-1.49.94,3.76,3.76,0,0,1-.94.15Z"/><path class="cls-158" d="M110.58,215.23a9.52,9.52,0,0,1-1.31-.12,14.58,14.58,0,0,1-1.62-.35,3.77,3.77,0,0,1-.85-.31l-.12-.08a.33.33,0,0,1-.13-.39.83.83,0,0,1,.33-.47,1.62,1.62,0,0,1,.46-.22,4.51,4.51,0,0,0,1.77-.72,8.19,8.19,0,0,0,1.17-.86l.18-.2c.15-.15.31-.31.48-.45a1.06,1.06,0,0,1,1-.2,2.42,2.42,0,0,1,1.8,1.81,1.72,1.72,0,0,1-.39,1.62,2.66,2.66,0,0,1-1.33.85,5.35,5.35,0,0,1-.8.14Z"/><path class="cls-157" d="M110.67,215.05a8.58,8.58,0,0,1-1.6-.15,15,15,0,0,1-1.61-.36,3.18,3.18,0,0,1-.64-.26c-.14-.08-.18-.16-.12-.31a.78.78,0,0,1,.35-.39,1.11,1.11,0,0,1,.36-.13,4.59,4.59,0,0,0,1.35-.51,7.87,7.87,0,0,0,1.35-.85c.24-.21.46-.45.69-.68l.26-.23a.83.83,0,0,1,.71-.16,2.27,2.27,0,0,1,1,.5,2.23,2.23,0,0,1,.75,1.26,1.56,1.56,0,0,1-.41,1.45,2.5,2.5,0,0,1-1.48.78A3.58,3.58,0,0,1,110.67,215.05Z"/><path class="cls-159" d="M112.54,213.8a6.16,6.16,0,0,1-.72-.09,8.08,8.08,0,0,0-1.3-.05,16.38,16.38,0,0,0-1.85.22,7,7,0,0,0-.91.19h-.18s0-.09.1-.15a4.5,4.5,0,0,1,.93-.4,7.89,7.89,0,0,0,.94-.3,6.83,6.83,0,0,0,2.07-1.28,2.82,2.82,0,0,0,.33-.36l.06-.06a.08.08,0,0,1,.11,0,.11.11,0,0,1,0,.14h0l-.06.09a3.16,3.16,0,0,0-.33.56,1.13,1.13,0,0,0-.08.24.67.67,0,0,0,.06.48,1.2,1.2,0,0,0,1,.65h0s.06,0,.07.08a.08.08,0,0,1-.07.08Z"/><path class="cls-156" d="M107.78,213.93a3.79,3.79,0,0,1,.86-.35c.32-.11.65-.18,1-.31a7.44,7.44,0,0,0,1.71-1,3.63,3.63,0,0,0,.47-.41h0a2.23,2.23,0,0,0-.24.58.72.72,0,0,0,.11.62,1.35,1.35,0,0,0,.8.58c-.07.07-.14,0-.22,0l-.57-.08a5.7,5.7,0,0,0-1.24-.05c-.8.06-1.59.19-2.39.33l-.26,0S107.78,214,107.78,213.93Z"/><path class="cls-160" d="M112.29,213.71h.22a.24.24,0,0,1,.12,0A.65.65,0,0,1,112.29,213.71Z"/><path class="cls-161" d="M111.82,211.91h0a.17.17,0,0,1,.09-.11h0A.31.31,0,0,1,111.82,211.91Z"/><path class="cls-162" d="M111.91,211.75s0-.06.08-.07h0a.09.09,0,0,1,0,.07Z"/><path class="cls-163" d="M112.06,211.57a.11.11,0,0,1,0,.08h0a.16.16,0,0,1,.06-.08Z"/><path class="cls-164" d="M107.78,213.93h0a0,0,0,0,1-.07,0h0Z"/><path class="cls-165" d="M107.73,214Z"/><polygon class="cls-163" points="112.06 211.57 112.06 211.57 112.06 211.57 112.06 211.57"/><rect class="cls-168" width="250" height="250"/></svg>