<svg id="Layer_1" data-name="Layer 1" xmlns="http://www.w3.org/2000/svg" viewBox="0 0 250 250"><defs><style>.cls-1{fill:#beab79;}.cls-2{fill:#9c8d63;}.cls-3{fill:#e5dbbd;}.cls-4{fill:#f0be91;}.cls-5{fill:#e0ae84;}.cls-6{fill:#cb3300;}.cls-7{fill:#a7341e;}.cls-8{fill:#f7dfca;}.cls-9{fill:#fefefd;}.cls-10{fill:#fdfdfd;}.cls-11{fill:#fdfcfc;}.cls-12{fill:#fdfcfb;}.cls-13{fill:#e18b6e;}.cls-14{fill:#cb3301;}.cls-15{fill:#cd3706;}.cls-16{fill:#cd3908;}.cls-17{fill:#cc3402;}.cls-18{fill:#cc3605;}.cls-19{fill:#fefefe;}.cls-20{fill:#fefdfd;}.cls-21{fill:#fefdfc;}.cls-22{fill:#d0471a;}.cls-23{fill:#d24e23;}.cls-24{fill:#d86640;}.cls-25{fill:#df805f;}.cls-26{fill:#eebfaf;}.cls-27{fill:#d7653f;}.cls-28{fill:#d75e36;}.cls-29{fill:#e38e71;}.cls-30{fill:#d35026;}.cls-31{fill:#d65b32;}.cls-32{fill:#da6c47;}.cls-33{fill:#d35126;}.cls-34{fill:#d96c48;}.cls-35{fill:#d7633c;}.cls-36{fill:#d96f4a;}.cls-37{fill:#db6e4c;}.cls-38{fill:#d7623c;}.cls-39{fill:#d55931;}.cls-40{fill:#d4582f;}.cls-41{fill:#da6d49;}.cls-42{fill:#d96a47;}.cls-43{fill:#f0c8b9;}.cls-44{fill:#e08263;}.cls-45{fill:#d86641;}.cls-46{fill:#da6f4d;}.cls-47{fill:#f5d8ce;}.cls-48{fill:#ecb8a7;}.cls-49{fill:#d8633c;}.cls-50{fill:#efc3b4;}.cls-51{fill:#e18b6f;}.cls-52{fill:#d65c35;}.cls-53{fill:#d35127;}.cls-54{fill:#da6e4a;}.cls-55{fill:none;}</style></defs><title>products</title><path class="cls-1" d="M52.86,250.13c-1.88-5.21,1-9.13,4.23-10.43a9.18,9.18,0,0,1,3.51-.64,3.8,3.8,0,0,1,2.54-.44H150a17.18,17.18,0,0,1,2.49.08,9.51,9.51,0,0,1,6.49,3.23c2,2.28,2.39,5.9.89,8.2H111.2c-.07-.6.44-.87.73-1.27a3,3,0,0,0-.43-4.24,3,3,0,0,0-1.77-.67,12.86,12.86,0,0,0-1.52,0H68.15a9.65,9.65,0,0,0-2.08.11,2.91,2.91,0,0,0-1.75,4.87c.31.37.83.64.76,1.24Z"/><path class="cls-2" d="M159.85,250.13c.17-1.35.74-2.65.53-4.06a7.91,7.91,0,0,0-7.12-6.77c-.13,0-.24-.12-.37-.19a1.78,1.78,0,0,1,1.54-.47c5.68,0,11.35-.07,17,0s11.45,0,17.18,0c2.13,0,2.11,0,2.18-2.16.06-1.35-.4-2.77.46-4,.59,1.66.19,3.32.22,5,0,1.12.17,1.59,1.5,1.77a7.76,7.76,0,0,1,6.76,8.63,7.34,7.34,0,0,1-.25,1.22c-.08.36-.31.68-.2,1.07Z"/><path class="cls-3" d="M65.08,250.13c-.92-.75-1.93-1.43-2-2.82-.08-2.32,1.2-3.79,3.55-3.79h42.89a3.31,3.31,0,0,1,3.32,2.37c.55,1.66.1,2.78-1.66,4.25Z"/><path class="cls-4" d="M171.54,229.42H62.37c-1.42,0-1.75-.38-1.75-1.76q0-71.15,0-142.26c0-1.12.14-1.61,1.47-1.61q54.52.06,109,0h.42A2.07,2.07,0,0,1,172,85.2V226.51C172,227.56,172.19,228.56,171.54,229.42Z"/><path class="cls-5" d="M171.54,229.42V83.89a7.5,7.5,0,0,1,1.23-.2c5.93,0,11.85-.11,17.77,0,.91,0,1,.37,1,1.06v143c0,1.18-.07,1.77-1.55,1.77C183.82,229.57,177.67,229.8,171.54,229.42Z"/><path class="cls-1" d="M60.59,72.27c-2.82-.16-5.24-1-6.9-3.42a7.84,7.84,0,0,1,6.44-12.33H171.29a8.4,8.4,0,0,1,1.12,0c4.31.51,7,3.07,7.31,7.1a8.29,8.29,0,0,1-5.94,8.5,6.49,6.49,0,0,1-1.91.23h-110a4.62,4.62,0,0,1-1-.07Z"/><path class="cls-6" d="M60.68,80.87l-.09-8.6v0h.06A2.34,2.34,0,0,1,62,72.18H170.17a4,4,0,0,1,1.38.09A2.29,2.29,0,0,1,172,74v5.11c0,1.83-.14,1.94-2,1.94H62.19A3.52,3.52,0,0,1,60.68,80.87Z"/><path class="cls-6" d="M171.54,239H154.3c-.46,0-.92,0-1.38,0s-1.2,0-1.8,0H60.58v-5.67c0-.76.16-1.14,1-1a4.86,4.86,0,0,0,.54,0h108a13,13,0,0,1,1.39.05c.83,1.44.3,3,.42,4.53A2.47,2.47,0,0,1,171.54,239Z"/><path class="cls-2" d="M171.54,72.31c-.37,0-.74,0-1.11,0H60.74c.49-.55,1.13-.27,1.66-.27H170.77c3.1,0,5.5-1,7.23-3.49a7.58,7.58,0,0,0-5.11-11.78,1.8,1.8,0,0,1-.49-.22c6.7,0,13.41-.1,20.11,0,3.82.05,7.05,3.44,7.33,7.36A8,8,0,0,1,193.65,72a5.63,5.63,0,0,1-1.23.19c-.75,0-.89.37-.88,1v6.64c0,.41.27.92-.24,1.24a2.32,2.32,0,0,1-.46-1.82V74.42c0-1.61-.13-1.71-1.76-1.71H173.69A3.12,3.12,0,0,1,171.54,72.31Z"/><path class="cls-7" d="M171.54,72.31c6.23,0,12.45,0,18.68-.06.83,0,1.1.31,1.08,1.13v7.71h-129c-.53,0-1.1.24-1.57-.21H169.89c1.32,0,1.77-.31,1.71-1.66C171.44,76.92,171.54,74.6,171.54,72.31Z"/><path class="cls-7" d="M171.54,239v-6.58H191.3V238c0,.83-.21,1.13-1.08,1.13C184,239,177.75,239,171.54,239Z"/><path class="cls-8" d="M95.44,190c0,8.06-.14,16.13,0,24.2a10.52,10.52,0,0,1-20.75,2.23,17,17,0,0,1-.35-3.55V100.34A13.09,13.09,0,0,1,76.7,92c3.21-4.32,10.48-5.29,14.63-1.84a10.81,10.81,0,0,1,4.15,8.88c-.1,9.77,0,19.55,0,29.32,0,.59,0,1.2.06,1.8a2.54,2.54,0,0,1-.91,1.66,40.81,40.81,0,0,0-10.25,20.65,42.14,42.14,0,0,0,10,35.79A3,3,0,0,1,95.44,190Z"/><path class="cls-6" d="M95.44,190a42.31,42.31,0,0,1-11.22-20.75c-2.89-14.11.45-26.72,10-37.65.43-.49.83-1,1.28-1.45,6.19-6,13.37-10.23,21.9-11.77,16.33-3,30.24,1.66,41.22,14.11,7.79,8.84,10.95,19.38,10.14,31.07a42.54,42.54,0,0,1-33.63,38.17c-15,3-28.08-.9-39.21-11.34A3,3,0,0,0,95.44,190Z"/><path class="cls-3" d="M88.14,60.94h21.37a3.39,3.39,0,0,1,3.11,5.12,3.69,3.69,0,0,1-3.52,1.77H67.75a8.3,8.3,0,0,1-1.92-.2A3.22,3.22,0,0,1,63.1,64l0-.17A3.19,3.19,0,0,1,66.45,61h13Z"/><path class="cls-9" d="M85.49,160.08c-.07-22.65,18.83-40.59,41-40.32a40.37,40.37,0,1,1-1.64,80.71C103.63,199.85,85.44,182.49,85.49,160.08Z"/><path class="cls-6" d="M126.08,199.37c-21.4,0-39.47-16.85-39.5-39.22,0-22.76,18.43-38.68,38.18-39.28a39.26,39.26,0,1,1,2.79,78.48c-.49,0-1,0-1.46,0Z"/><path class="cls-10" d="M138.35,184.62c-3.24,0-6.25-1.22-9.38-1.82-5-1-9.82-.78-13.93,2.33-3.79,2.88-11.37-1.16-10.53-6.07a6.21,6.21,0,0,0-.69-3.88,5.09,5.09,0,0,1,.49-4.89,11.29,11.29,0,0,0,1.33-6.52c-.23-3.23,2.16-4.5,4.3-5.09a2.61,2.61,0,0,1,2.32.68,8.18,8.18,0,0,0,8.3,1.2,35.26,35.26,0,0,1,9.3-2.05,17.17,17.17,0,0,1,9,1.76,59.07,59.07,0,0,1,7.22,4.1c3.18,2.19,3.84,4.39,2.49,8a16.77,16.77,0,0,0-1.09,4.52C147,181.92,143.67,184.7,138.35,184.62Z"/><path class="cls-11" d="M95.68,157.44c.73.4,2.24-.09,2.14,1.16-.09,1.06-1.48.46-2.24.74a9.45,9.45,0,0,0-1.08.26l3,.28c.29,0,.63.09.75-.19.21-.45.45-.72.94-.45s.19.73.18,1.12a6.62,6.62,0,0,1-.13,1.09c-.09.43-.52.55-.72.29-.92-1.19-2.26-.68-3.4-.89a23.3,23.3,0,0,0-2.89-.24c-.32,0-.75-.12-.93,0-.35.31-.68.83-1.12.39s-.09-1.21-.09-1.83.6-.46,1-.5a13.92,13.92,0,0,0,3.26-.56c-1-.23-2.09-.46-3.11-.71-.4-.09-.9-.15-.9-.69a3.2,3.2,0,0,1,.2-1.73.51.51,0,0,1,.72-.08l0,0c2.1,1.5,4.6.57,6.86,1.1.34.09.41-.3.61-.42.54-.31,1-.23,1,.53a9.17,9.17,0,0,1-.11,1.38c-.08.58-.72.7-.9.4-.7-1.25-1.86-.57-2.8-.83-.58,0-1.17-.08-1.75-.11A2.22,2.22,0,0,1,95.68,157.44Z"/><path class="cls-12" d="M99.06,148.55l2.1.57c.58.15.52.41.38.83-.52,1.47-1,3-1.52,4.43-.09.25-.19.54-.55.53s-.63-.12-.63-.41c0-.79-.65-.77-1.14-.94-1.43-.5-2.87-1-4.31-1.47-.49-.17-1-.57-1.48.06-.17.21-.52.12-.76-.08s-.14-.46-.05-.73c.51-1.44,1-2.87,1.46-4.31.19-.61.46-.69,1-.42a9.31,9.31,0,0,0,1.54.61c.38.11.56.32.46.7s-.33.57-.83.47c-1.2-.24-1.88.38-2,1.71-.08.76.58.62.92.71.56.14,1.12.77,1.66.2.21-.2.42-.68-.16-.83s-.62-.38-.42-.83c.29-.65.7-.2,1-.11.58.16,1.15.37,1.71.56.3.1.67.15.61.6s-.31.68-.76.51a.56.56,0,0,0-.83.41c-.14.41.22.61.58.71.18.05.35.14.52.19,1.73.58,1.66.56,2.29-1.12.34-.91,0-1.17-.76-1.31a.49.49,0,0,1-.49-.49,1.06,1.06,0,0,1,0-.19A.8.8,0,0,1,99.06,148.55Z"/><path class="cls-12" d="M124.73,124.39c3-.09,4.07.9,3.72,3.44,0,.18,0,.44-.11.53-1.36,1.11-.75,2.33-.2,3.54.09.2.1.58.2.6.58.09.88.39.63.92s-.9.17-1.36.25c-.64.11-.63-.39-.67-.78a3.38,3.38,0,0,0-.83-2.42,1.16,1.16,0,0,0-1.14-.36c-.49.14-.32.63-.29.94.06.62-.4,1.54.83,1.66.06,0,.13.13.15.22.07.26.14.65-.17.71a4.46,4.46,0,0,1-2.56-.06.46.46,0,0,1-.08-.63.3.3,0,0,1,.08-.08c.88-.48.53-1.27.55-1.94v-4.26a2.57,2.57,0,0,0,0-.83c-.59-1.42-.6-1.41,1-1.43Z"/><path class="cls-12" d="M160.55,161.05h-1.06c-.32,0-.74-.05-.77-.55s.26-.65.67-.69c1.06-.09,1.66-.63,1.48-1.71a1.42,1.42,0,0,0-1.59-1.22h0c-1.11,0-1.49.74-1.66,1.7-.31,2.22-.94,2.85-2.77,2.81a2.49,2.49,0,0,1-2.63-2.32c-.16-.9.48-1.78-.13-2.71-.23-.35.34-.65.71-.51.88.32,1.9-.83,2.64.2.27.37-.1.83-.61.83-1.26.07-1.52.83-1.42,1.9s.78,1.3,1.66,1.29c1.19,0,1.35-.83,1.45-1.78.19-1.83,1.06-2.67,2.68-2.74a2.62,2.62,0,0,1,2.87,2.34,1.85,1.85,0,0,1,0,.47,18.22,18.22,0,0,0,0,2.09C162.23,161.85,161,160.7,160.55,161.05Z"/><path class="cls-12" d="M101.89,146.38c.61-.34.88-.21,1.12.07s0,.59-.19.83-.44.69-.67,1c-.36.54-.91.32-1,0-.24-1.53-1.66-2.1-2.49-3.12a14.63,14.63,0,0,0-1.76-1.76c-.38-.34-.74-1.29-1.37-.19-.12.19-.41.15-.62,0a.56.56,0,0,1-.32-.55,2.2,2.2,0,0,1,2.52-1.85,1.62,1.62,0,0,1,.38.09l5.33,2a2.4,2.4,0,0,0,.91.27c.52,0,1.34-.44,1.34.32a3.08,3.08,0,0,1-1.35,2.11c-.31.24-.83-.11-.72-.67.18-1.16-.91-1-1.37-1s-1,.83-1,1.3S101.45,146.13,101.89,146.38Z"/><path class="cls-11" d="M145,131.59a8.64,8.64,0,0,1-3.09,5.28,2.48,2.48,0,0,1-3.2.1c-.62-.42-1.27-.75-1.91-1.13-.22-.14-.54-.24-.46-.6s.26-.64.51-.57c.83.2.88-.47,1.14-.89q1.22-2,2.39-4c.23-.4.61-.71.24-1.34-.27-.45.08-1.06.77-.73a22,22,0,0,1,2.73,1.61A2.47,2.47,0,0,1,145,131.59Z"/><path class="cls-12" d="M150.45,135.51c-.07-.5.24-.95.65-.78a4.51,4.51,0,0,1,1.78,1.66c.16.23-.15.62-.42.59-1.26-.15-1.66.91-2.4,1.57-.83.83-1.66,1.66-2.49,2.44-1.27,1.23-2.44,1.26-3.62.1s-1.1-2.3.05-3.52c.92-1,1.88-1.9,2.79-2.88.51-.56,1.35-.93,1.09-2-.08-.33.42-.68.83-.39a7,7,0,0,1,1.49,1.43.49.49,0,0,1,0,.68.47.47,0,0,1-.48.09c-.83-.29-1.12.28-1.56.73-1,1.06-2.06,2.1-3.11,3.15-.6.62-.77,1.25-.08,1.91s1.25.31,1.79-.23q1.75-1.77,3.5-3.55C150.49,136.24,151,136,150.45,135.51Z"/><path class="cls-12" d="M102,139.23c-.49-.13-.69-.63-1-1-1.76-2.12-1.77-2.15.27-4,.78-.68,1.36-2.05,2.34-1.9.83.1,1.52,1.24,2.24,2,.36.36,1,.74.35,1.33s-.92-.2-1.32-.51-1-1.66-1.78-.89.5,1.17.88,1.66c.88,1.12,1.94,2.1,2.92,3.15.33.34.59.74,1.08.15.27-.32.6-.2.83.08a.55.55,0,0,1-.06.78s0,0-.06,0L107,141.69a.57.57,0,0,1-.79.05l0-.05c-.24-.23-.29-.55,0-.72.69-.46.17-.76-.11-1.07-1.19-1.29-2.4-2.56-3.61-3.83-.26-.27-.5-.74-1-.3s-.26.83.06,1.17l1.12,1.23c.18.21.33.44.12.73A.67.67,0,0,1,102,139.23Z"/><path class="cls-12" d="M120.59,128.94a2.6,2.6,0,0,1-2.26,2.44c-.49.13-1.25.1-.83,1,.29.52,0,1.72,1.27,1.15a.54.54,0,0,1,.74.17.47.47,0,0,1,.09.28c.09.43-.2.58-.52.68-.7.23-1.41.43-2.12.63s-1-.34-.76-.7c.66-.83.14-1.53,0-2.24-.33-1.3-.73-2.57-1.12-3.85-.11-.34-.2-.83-.45-1s-1-.3-.83-.9.78-.38,1.18-.55a12.59,12.59,0,0,1,1.31-.43C118.89,124.84,120.75,126.26,120.59,128.94Z"/><path class="cls-12" d="M130.5,131.33a9.79,9.79,0,0,1,1.54-5,2.48,2.48,0,0,1,2.61-1.16,2.34,2.34,0,0,1,1.91,2.1,8.89,8.89,0,0,1-1.34,6.31,2.41,2.41,0,0,1-2.73,1.19,2.38,2.38,0,0,1-1.87-2.28C130.57,132.06,130.54,131.65,130.5,131.33Z"/><path class="cls-12" d="M152.82,152.88a.52.52,0,0,1-.19.7.64.64,0,0,1-.18.06.57.57,0,0,1-.74-.34s0-.05,0-.07c-.26-.74-.53-1.47-.83-2.2a.54.54,0,0,1,.24-.72c.26-.11.64-.15.72.17.19.83.65.53,1.12.35,1.61-.59,3.22-1.15,4.8-1.77.35-.14,1-.09.83-.83s-.77-.51-1.24-.39-1,.36-1.43.5c-.32.09-.67.14-.83-.28s-.06-.74.44-.83h.13c3.32-1.31,3.32-1.31,4.5,1.93.94,2.49.94,2.49-1.52,3.59-.29.13-.6.24-.88.39a.66.66,0,1,1-.47-1.22,13,13,0,0,0,1.79-.7.57.57,0,0,0,.34-.74l-.05-.09c-.17-.42-.45-.39-.78-.27-1.82.67-3.63,1.35-5.44,2C152.71,152.26,152.54,152.47,152.82,152.88Z"/><path class="cls-12" d="M150.94,146.6c.58-.19,1.08-.26,1.13.42s-.46.7-.94.76a2.93,2.93,0,0,1-3.22-2.61,2.82,2.82,0,0,1,.2-1.41,8.09,8.09,0,0,1,6.25-4,2.27,2.27,0,0,1,2.43,1.66c.17.83,1.4,1.14,1,1.9-.28.55-1.16.83-1.76,1.2,0,0-.08.07-.11.08-.46.28-.83,1.22-1.46.58s.32-1,.7-1.45,1-1,.62-1.8a1.52,1.52,0,0,0-1.74-.83,6.78,6.78,0,0,0-4.73,3,1.35,1.35,0,0,0,.07,1.66C149.81,146.38,150.3,146.8,150.94,146.6Z"/><path class="cls-13" d="M95.68,157.44l-1.42-.31a1.77,1.77,0,0,1,1.7,0Z"/><path class="cls-14" d="M137.91,183.78a28.62,28.62,0,0,1-5.51-1.24,25.49,25.49,0,0,0-12.6-.47,18.27,18.27,0,0,0-5,2.33,6.33,6.33,0,0,1-9.27-5c-.07-1.66.08-3.38-.83-5a2.89,2.89,0,0,1,.27-2.66,15.75,15.75,0,0,0,1.66-8,3.83,3.83,0,0,1,1.93-3.72,3.12,3.12,0,0,1,4,.06,8.28,8.28,0,0,0,8.45,1.33c3.92-1.29,7.91-2.26,12.11-1.83a16.08,16.08,0,0,1,5.44,1.49,47.13,47.13,0,0,1,6.77,3.77c2.85,2,3.48,4.06,2.23,7.29a15.81,15.81,0,0,0-1.11,4.64C146.1,181.12,143,183.84,137.91,183.78Z"/><path class="cls-15" d="M124.58,127.08c.13-.68-.41-1.66.93-1.58,1.16,0,1.66.59,1.66,1.66s-.44,1.77-1.66,1.74C124,128.9,124.92,127.65,124.58,127.08Z"/><path class="cls-16" d="M98.15,142.55c.55-.13,1.11.35,1.74.55s.2.5.06.77a.35.35,0,0,1-.63,0C98.91,143.48,98.51,143,98.15,142.55Z"/><path class="cls-17" d="M143.68,131.52a6.94,6.94,0,0,1-2.85,4.49,1.54,1.54,0,0,1-2-.34c-.52-.49.16-.89.36-1.27.7-1.29,1.44-2.56,2.24-3.8.24-.37.23-1.24,1.07-.92A1.82,1.82,0,0,1,143.68,131.52Z"/><path class="cls-18" d="M119.26,128.63c0,1.14-.76,1.47-1.61,1.72s-.83-.58-1.05-1a1.91,1.91,0,0,1-.18-.66c0-.69-1.17-1.66.49-2,1.23-.24,1.85.07,2.21,1.38A1.9,1.9,0,0,1,119.26,128.63Z"/><path class="cls-17" d="M131.78,131.29a10.58,10.58,0,0,1,1.11-4c.32-.59.74-1.14,1.5-1s1,.83,1,1.6a10,10,0,0,1-.83,4.15c-.34.83-.76,1.75-1.84,1.5S131.78,132.36,131.78,131.29Z"/><path class="cls-19" d="M113.71,176c-1.94-1.7-4.15-1.33-6.45-.94-.49.08-1.14.5-1.45-.25a4,4,0,0,1-.07-2.83c.1-.26.41-.12.61,0a6.64,6.64,0,0,0,5.3-1,2.53,2.53,0,0,1,2.08-.22,62.82,62.82,0,0,0,7,1.46,10.43,10.43,0,0,0,3.86-.12,2.74,2.74,0,0,1,3.21,1.33c1.56,2.54,4,3.28,6.74,3.32,4.58.12,5.75.4,10.17,2.66a6.59,6.59,0,0,1-6.83,3.37,26.15,26.15,0,0,1-4.2-.89,28.38,28.38,0,0,0-12.45-1.14c-1.78.26-2.79,0-3.76-1.42a13.18,13.18,0,0,0-2.13-2A2.19,2.19,0,0,1,113.71,176Z"/><path class="cls-19" d="M146,172.61a36.68,36.68,0,0,1-.83,5.72c-.19.83-.72.29-1.08.16-2.23-.87-4.35-2.06-6.83-2.15a31,31,0,0,1-5.51-.59c-2.31-.48-3.52-2.14-4.34-4.09-.7-1.66,1.34-4.85,3.07-4.79,3.26.12,6.15-1.1,9.13-2,.74-.23,1.48-.5,2.34-.78l.11,2.25c.42.52.22,1.24.6,1.78a1.59,1.59,0,0,1,.07.38,1.82,1.82,0,0,0,.32,1.39,3.43,3.43,0,0,0,1.55,1.53,1.71,1.71,0,0,1,.33.17A4.27,4.27,0,0,1,146,172.61Z"/><path class="cls-9" d="M140.63,163.31a14.11,14.11,0,0,1-7.12,1.61c-4.23-.31-8.26.72-12.38,1.21a17.44,17.44,0,0,0-8.16,3.16,8.51,8.51,0,0,1-5.35,2c-.5,0-1.42.13-1.32-.52s.14-1.82,1.43-1.85a22.09,22.09,0,0,0,6-1.16c2.19-.68,3.92-1.84,4.68-4.15a1.06,1.06,0,0,1,.83-.83c3.11-.67,6.1-1.85,9.29-2.22A17.77,17.77,0,0,1,140.63,163.31Z"/><path class="cls-20" d="M118.11,163.08a6.87,6.87,0,0,1-3.73,3.81,23.23,23.23,0,0,1-6.42,1.53c-.56.07-.83.08-.74-.67.19-1.45.23-2.92.35-4.38a2.9,2.9,0,0,1,4.74-2.3C114.73,162.69,115.59,163,118.11,163.08Z"/><path class="cls-20" d="M133.71,166a6.21,6.21,0,0,1-2.6.28,3.18,3.18,0,0,0-3.72,2.52v0c-.56,2.12-1.85,2.71-3.94,2.76-3.36.09-6.46-1-9.86-1.66a8,8,0,0,1,4.41-2.18,78.43,78.43,0,0,0,12.45-2,9.94,9.94,0,0,1,3-.17C133.61,165.64,133.87,165.71,133.71,166Z"/><path class="cls-20" d="M113.7,180.73a11.62,11.62,0,0,1,.34,1.19c.12.54.83,1.08.31,1.61a2.5,2.5,0,0,1-2.24.83c-3.54-.74-6-2.25-5.7-6,.17-2.44,0-2.49,2.37-1.84.62.17,1.23.38,1.84.57C112.41,177.69,113.19,179.09,113.7,180.73Z"/><path class="cls-21" d="M144.92,171.62l-.29,0A3.82,3.82,0,0,1,143,170a2.31,2.31,0,0,1-.41-1.46v-.27a2.66,2.66,0,0,1-.32-1.93v-2c4.73,1.79,6.19,5,3.95,8A2,2,0,0,1,144.92,171.62Z"/><path class="cls-12" d="M111,176.91a17.92,17.92,0,0,0-3.54-1.27,6.55,6.55,0,0,1,6,.65,2.69,2.69,0,0,1,1.66,1.4c.83.93,1.66,1.83,2.4,2.79.54.68.56,1.21-.45,1.66-1.86.83-1.82.88-2.72-1-.12-.25-.26-.48-.39-.72A16.72,16.72,0,0,0,111,176.91Z"/><path class="cls-22" d="M111,176.91a5.82,5.82,0,0,1,3,3.54l-.22.28a13.52,13.52,0,0,0-3.08-3.61Z"/><path class="cls-23" d="M115.11,177.69l-1.66-1.4.29-.29a6,6,0,0,1,1.66,1.4Z"/><path class="cls-24" d="M142.3,166.31l.32,1.93c-.91-.46-.38-1.28-.51-1.93Z"/><path class="cls-25" d="M144.92,171.62l1.33.76-.24.23C145.58,172.35,144.84,172.43,144.92,171.62Z"/><path class="cls-26" d="M133.71,166l-.27-.49h1.28C134.51,166,134.11,166,133.71,166Z"/><path class="cls-27" d="M114,173.29a3.63,3.63,0,0,1,2.78.77c0,.17-.18.19-.29.26l-2.49-.58A.26.26,0,0,1,114,173.29Z"/><path class="cls-28" d="M118.57,176.3c.83.65,1.41,1.53,2.44,1.88,0,.19-.21.21-.34.28a3.83,3.83,0,0,1-2.26-2.18Z"/><path class="cls-29" d="M114,173.29v.45c-.51,0-1.08.23-1.57-.25C112.92,172.88,113.53,173.55,114,173.29Z"/><path class="cls-30" d="M116.5,174.32l.29-.26a3.16,3.16,0,0,1,1.11,1.1c.12.29,0,.33-.27.28Z"/><path class="cls-31" d="M128.76,175.44a1.65,1.65,0,0,1,.83,1.24l-1.15-1C128.39,175.46,128.45,175.3,128.76,175.44Z"/><path class="cls-32" d="M128.76,175.44l-.31.26-1.12-.69C128.06,174.61,128.39,175.15,128.76,175.44Z"/><path class="cls-33" d="M120.67,178.46l.34-.28,1,.35c0,.25,0,.41-.33.28A2,2,0,0,1,120.67,178.46Z"/><path class="cls-34" d="M117.6,175.44l.26-.28c.3.33.7.62.68,1.14h-.16C118,176.16,117.84,175.78,117.6,175.44Z"/><path class="cls-35" d="M121.75,178.81l.33-.28c.27.09.6.11.76.43A1.05,1.05,0,0,1,121.75,178.81Z"/><path class="cls-36" d="M138.35,174.59a4.89,4.89,0,0,1-2.21-1A2.73,2.73,0,0,1,138.35,174.59Z"/><path class="cls-37" d="M143,169.92l1.6,1.66c-1.06-.05-1.46-.74-1.6-1.66Z"/><path class="cls-38" d="M139,169.39a2.3,2.3,0,0,1,1.28,1.61l-1.57-1.35A.53.53,0,0,1,139,169.39Z"/><path class="cls-39" d="M134.07,172.53l-2-1.28a4.74,4.74,0,0,1,2.21,1Z"/><path class="cls-40" d="M139,169.39l-.29.26-2.07-1A3.26,3.26,0,0,1,139,169.39Z"/><path class="cls-41" d="M139.84,175.74a2,2,0,0,1-1.4-1.06,1.68,1.68,0,0,1,1.37.88Z"/><path class="cls-42" d="M143,169.92h0c-.46-.37-1-.72-.4-1.4C143,168.91,142.88,169.45,143,169.92Z"/><path class="cls-43" d="M141.57,173.5a1.6,1.6,0,0,1,1.09,1C142.05,174.34,141.85,174,141.57,173.5Z"/><path class="cls-44" d="M139.84,175.74a.54.54,0,0,1,0-.18c.45,0,.56.37.92.59a.64.64,0,0,1-.86-.24A.49.49,0,0,1,139.84,175.74Z"/><path class="cls-45" d="M124.24,164.13h2c.18.18.49,0,.63.29a5.1,5.1,0,0,1-3.23,0C123.75,164.17,124.09,164.32,124.24,164.13Z"/><path class="cls-46" d="M122.63,164.32l-1.38-.24c-.08-.05-.12-.1-.1-.17s0-.1.06-.1a4.62,4.62,0,0,1,2.05.24C123.13,164.33,122.82,164.23,122.63,164.32Z"/><path class="cls-47" d="M133,162.27c-.39.3-.64.54-1.08.33C132.15,162.13,132.54,162.14,133,162.27Z"/><path class="cls-48" d="M128.44,163.78c.29-.17.58-.34.88-.49-.11.52-.53.63-.89.78-.09-.06-.11-.13-.08-.2S128.39,163.78,128.44,163.78Z"/><path class="cls-49" d="M122.63,164.32l.63-.27,1,.08-.65.31Z"/><path class="cls-50" d="M121.21,163.81a1.22,1.22,0,0,0,0,.27c-.29,0-.69-.08-.63-.32S121,163.58,121.21,163.81Z"/><path class="cls-51" d="M128.44,163.78v.29l-.83.25c-.12-.07-.29-.08-.3-.27C127.61,163.74,128,163.82,128.44,163.78Z"/><path class="cls-52" d="M127.27,164.05l.3.27-.72.1-.62-.28Z"/><path class="cls-53" d="M111,166a5.1,5.1,0,0,0,3.42-1.27C113.21,166.43,112.48,166.72,111,166Z"/><path class="cls-54" d="M112.62,182.49c-.68,0-1-.3-1.12-1.2Z"/><rect class="cls-55" width="250" height="250"/></svg>