<svg id="Layer_1" data-name="Layer 1" xmlns="http://www.w3.org/2000/svg" viewBox="0 0 250 250"><defs><style>.cls-1{fill:#a7c520;}.cls-2{fill:#b9b5ac;}.cls-3{fill:#e5e1d8;}.cls-4{fill:#fefefe;}.cls-5{fill:#d5d1c8;}.cls-6{fill:#8da714;}.cls-7{fill:#96b01c;}.cls-8{fill:#708708;}.cls-9{fill:#cc3301;}.cls-10{fill:#a6a299;}.cls-11{fill:#c7c3ba;}.cls-12{fill:#d5d1c7;}.cls-13{fill:#97938a;}.cls-14{fill:#fefefd;}.cls-15{fill:#c30;}.cls-16{fill:#fdfcfa;}.cls-17{fill:#fdfbfa;}.cls-18{fill:#fcf6f4;}.cls-19{fill:#fdfaf9;}.cls-20{fill:#fdfaf8;}.cls-21{fill:#fdfcfb;}.cls-22{fill:#fdf9f8;}.cls-23{fill:#fcf9f7;}.cls-24{fill:#f3ddd4;}.cls-25{fill:#efcabd;}.cls-26{fill:#e68469;}.cls-27{fill:#dc5731;}.cls-28{fill:#cd3303;}.cls-29{fill:#cd3504;}.cls-30{fill:#ce3b0c;}.cls-31{fill:#d4502a;}.cls-32{fill:#e99d87;}.cls-33{fill:#ce3909;}.cls-34{fill:#cd3503;}.cls-35,.cls-94{fill:#fff;}.cls-36{fill:#fefdfd;}.cls-37{fill:#fefbfa;}.cls-38{fill:#d6522c;}.cls-39{fill:#d4441d;}.cls-40{fill:#d75632;}.cls-41{fill:#d9532d;}.cls-42{fill:#d85734;}.cls-43{fill:#d95b34;}.cls-44{fill:#d6552e;}.cls-45{fill:#e17f63;}.cls-46{fill:#df7e5f;}.cls-47{fill:#dfa38c;}.cls-48{fill:#d64f27;}.cls-49{fill:#d8502f;}.cls-50{fill:#dc6848;}.cls-51{fill:#e07c60;}.cls-52{fill:#ecb4a1;}.cls-53{fill:#e08366;}.cls-54{fill:#e79c83;}.cls-55{fill:#e27c5c;}.cls-56{fill:#d23f15;}.cls-57{fill:#e5795d;}.cls-58{fill:#efbaa8;}.cls-59{fill:#d95e3d;}.cls-60{fill:#d03914;}.cls-61{fill:#e77e5f;}.cls-62{fill:#dc6946;}.cls-63{fill:#df7759;}.cls-64{fill:#e27e61;}.cls-65{fill:#df8262;}.cls-66{fill:#ecb19e;}.cls-67{fill:#e99d85;}.cls-68{fill:#f2c9bb;}.cls-69{fill:#e8a792;}.cls-70{fill:#e68e72;}.cls-71{fill:#e37256;}.cls-72{fill:#d84f30;}.cls-73{fill:#dc623c;}.cls-74{fill:#eca892;}.cls-75{fill:#e87f5e;}.cls-76{fill:#d8532e;}.cls-77{fill:#d5461f;}.cls-78{fill:#dd6f53;}.cls-79{fill:#e15e3c;}.cls-80{fill:#d13813;}.cls-81{fill:#f2c5b6;}.cls-82{fill:#ecab96;}.cls-83{fill:#eba58e;}.cls-84{fill:#ea9479;}.cls-85{fill:#e07756;}.cls-86{fill:#d13d13;}.cls-87{fill:#de6a47;}.cls-88{fill:#e89d85;}.cls-89{fill:#df7e60;}.cls-90{fill:#e16e50;}.cls-91{fill:#eaa088;}.cls-92{fill:#d8512e;}.cls-93{fill:#d1380f;}.cls-94,.cls-95{isolation:isolate;font-size:17.92px;font-family:BerlinSansFB-Reg, Berlin Sans FB;}.cls-95,.cls-96{fill:none;}.cls-95{stroke:#000;stroke-miterlimit:10;stroke-width:0.75px;}</style></defs><title>products</title><path class="cls-1" d="M59.82,233.08c0-4.94.11-9.88.11-14.82V79.49c0-.75,0-1.5.06-2.25a.45.45,0,0,1,.56.26,2.6,2.6,0,0,1,.21.65c.14,5.21.06,10.4.06,15.62v10.51c0,1.92,0,1.91,1.69,1.1,2.55-1.2,5-2.5,7.54-3.8,7.66-4,15.69-5.23,24.31-4.39a260.88,260.88,0,0,1,28.93,4.24,130.27,130.27,0,0,1,27.44,8.87c10.56,4.88,18.65,12.28,23.76,23a204,204,0,0,1,12.41,34c.3,1.09.64,2.17.91,3.26a13.29,13.29,0,0,1,.46,3.32c-.18-13.79-.1-27.58-.15-41.38-.15-17,0-34.08-.06-51.08a10.49,10.49,0,0,1,.21-3.16,1.38,1.38,0,0,1,.45-.59.43.43,0,0,1,.48.37V78q.06,70.56,0,141.13V237a.43.43,0,0,1-.47.39h0c-1.07-1.35-.49-2.92-.6-4.4v-35.7A33.36,33.36,0,0,1,178,211.94c-5.56,4.83-12.08,8-18.91,10.5-11.46,4.23-23.36,6.39-35.49,7.53a169.47,169.47,0,0,1-22.08.64c-12.1-.45-24-2-35.34-6.77-1.39-.59-2.74-1.28-4-2-1-.5-1.35-.25-1.34.84v10.14c-.06,1.45.31,2.93-.39,4.32a.43.43,0,0,1-.6,0h0A14.74,14.74,0,0,1,59.82,233.08Z"/><path class="cls-2" d="M55.77,73.4V61.54a.77.77,0,0,1,.66-.27c4.56.06,9.12-.15,13.62.11a1.12,1.12,0,0,1,.38.63c.21,3.78.53,7.58-.18,11.35-.61.72-1.45.6-2.25.62-2.53,0-5.08-.07-7.62.07a1.66,1.66,0,0,1-.66.07A12.91,12.91,0,0,0,57.16,74C56.59,74,56,74.06,55.77,73.4Z"/><path class="cls-3" d="M92.91,249.58h-.37c-3.65.37-7.4.12-11.1.13a.37.37,0,0,1-.15-.5l.07-.09a3.77,3.77,0,0,1,2.5-.5h6.38c1.27,0,1.77-.55,1.76-1.82v-7.3a3.72,3.72,0,0,1,.53-2.5,3.28,3.28,0,0,1,2.16-.46c3,.18,6.12-.48,9.13.41a3.34,3.34,0,0,1,.6,2.47v7.29c0,1.36.57,1.89,1.9,1.83h6.16A4,4,0,0,1,115,249a.4.4,0,0,1,.07.55.23.23,0,0,1-.07.07c-7,.09-14.08,0-21.11,0A1.44,1.44,0,0,1,92.91,249.58Z"/><path class="cls-4" d="M189,237.1V79.47c0-.62,0-1.24-.07-1.83a4.59,4.59,0,0,1-.14-3.65c1.23-1,2.74-.54,4.08-.64l.3.14a.79.79,0,0,1-.83.76H190.6c-.91,0-1.23.39-1.17,1.25v159c0,2.35-.18,2.32,2.19,2.31.53,0,1.14-.16,1.57.36a1.22,1.22,0,0,1-.57.38C191.38,237.69,190.11,238.1,189,237.1Z"/><path class="cls-4" d="M70,61.46c-4.75,0-9.5-.17-14.25.07a.79.79,0,0,1,.76-.45H191c.72,0,1.52-.29,2.14.36l-.28.25a3.79,3.79,0,0,1-1.82.34c-14.93,0-29.87.07-44.8,0-6.63.07-13.25,0-19.88,0-3.76,0-7.53.07-11.3,0s-7.51.07-11.27,0-7.75,0-11.64,0c-3.64,0-7.29.06-10.94,0-3,.09-6.1,0-9.12,0A3.06,3.06,0,0,1,70,61.46Z"/><path class="cls-4" d="M92.91,249.58h22.17a3,3,0,0,1,2.3-.48h73.44a3.17,3.17,0,0,1,2.32.5c-.53.66-1.27.39-1.92.39h-96C94.47,249.94,93.6,250.26,92.91,249.58Z"/><path class="cls-5" d="M193.15,249.55c-4.38,0-8.76.06-13.14.06q-32.46,0-64.93-.06v-.34l.26-.24c2.12-.68,4.3-.24,6.45-.33,1.42-.07,2.84,0,4.27,0q10.08-.12,20.16,0,6.57-.1,13.18,0c6.85-.07,13.68-.08,20.54,0,3.37-.07,6.75,0,10.13,0,2,0,2.12-.17,2.14-2.15v-6.76a3.55,3.55,0,0,1,.56-2.5h.4a92.25,92.25,0,0,1,0,12A1.83,1.83,0,0,0,193.15,249.55Z"/><path class="cls-5" d="M81.28,249.21v.34a1.41,1.41,0,0,1-1.06.21H56.82c-.37,0-.76.07-1.06-.23V237.24a.4.4,0,0,1,.54.07l0,.08c.74,2.44.3,4.94.35,7.4.09,4.18-.28,3.85,3.81,3.88,3.18,0,6.39-.06,9.51,0s6,0,9,0a4,4,0,0,1,2,.33Z"/><path class="cls-4" d="M55.76,249.53H92.58c-.43.52-1,.37-1.57.37H57.28C56.75,250,56.14,250.13,55.76,249.53Z"/><path class="cls-4" d="M193.2,249.19v-12a1.3,1.3,0,0,1,.38,1.18v9.82A1.19,1.19,0,0,1,193.2,249.19Z"/><path class="cls-4" d="M193.17,61.44c.4.3.37.75.37,1.18v9.65a1.39,1.39,0,0,1-.36,1.19h-.06a1.69,1.69,0,0,1-.48-1.18c-.12-3.18-.11-6.39,0-9.54a1.83,1.83,0,0,1,.46-1.2Z"/><path class="cls-4" d="M56.14,237.24h-.39c.65-.71,1.5-.33,2.26-.38,1.44-.09,1.41-.06,1.5-1.45.05-.77-.27-1.6.31-2.3l.08,4A3.15,3.15,0,0,1,56.14,237.24Z"/><path class="cls-4" d="M55.77,73.4c1.3.78,2.74.17,4.14.46a2.35,2.35,0,0,1-.07,3c-.53-.5-.29-1.15-.34-1.74s-.32-.91-.91-.91H56.76C56.16,74.19,55.79,74,55.77,73.4Z"/><path class="cls-6" d="M59.84,76.84c0-1,0-2,.07-3h0a.36.36,0,0,1,.51,0,.24.24,0,0,1,.06.08,3.08,3.08,0,0,1-.24,3.24H60Z"/><path class="cls-7" d="M188.63,132.77v42l-.19.05q-1-3.74-2-7.46a209.78,209.78,0,0,0-8.21-24.83,85.77,85.77,0,0,0-8.9-17.07,38.11,38.11,0,0,0-9-9c-6.91-5-14.68-8.13-22.72-10.74a152.67,152.67,0,0,0-19.55-4.89c-4.56-.85-9.12-1.7-13.78-2.2-3.27-.35-6.55-.7-9.84-.91-3-.21-6-.17-9-.29a18.67,18.67,0,0,0-6.24,1C72.8,100.43,67,103.77,61,106.72l-.72.32v-13c.61-1.17,1.83-1.45,2.88-2a103.81,103.81,0,0,1,17.46-7.72,33.67,33.67,0,0,1,13.49-1.43c5.85.5,11.71.92,17.53,1.68,13.9,1.9,27.64,4.56,40.8,9.61,7.71,3,15,6.61,21.12,12.28a33,33,0,0,1,4.41,5.1,93.22,93.22,0,0,1,10,18.83C188.33,131.19,188.22,132.05,188.63,132.77Z"/><path class="cls-6" d="M188.63,132.77a37.65,37.65,0,0,1-2.79-6.09,77,77,0,0,0-9.39-16.32,38.48,38.48,0,0,0-10.23-8.88A91.23,91.23,0,0,0,144,91.83a169,169,0,0,0-17-4.19c-3-.57-6-1.1-9-1.62-3.17-.56-6.38-.91-9.58-1.31S102,84,98.77,83.62a.54.54,0,0,0-.18,0c-2.56,0-5.12-.13-7.66-.38-4.46-.27-8.62,1-12.78,2.47-3.94,1.4-7.69,3.24-11.46,5-2.2,1-4.31,2.24-6.46,3.37V77.57c1-.85,2.26-.58,3.42-.58H185.16c1.16,0,2.4-.29,3.41.59v45.05C188.65,126,188.64,129.39,188.63,132.77Z"/><path class="cls-7" d="M60.28,232.68v-12c.53-.33.91,0,1.25.2,6.6,3.71,13.82,5.66,21.17,7.12,3.15.62,6.38.91,9.58,1.3a151.56,151.56,0,0,0,22.24.61,50.8,50.8,0,0,0,8.36-.59c1.48-.2,3-.33,4.45-.39,3-.3,6-.77,9-1.26q6-1,11.86-2.51a92.51,92.51,0,0,0,22.07-8.54A39.57,39.57,0,0,0,184,204.41a51.5,51.5,0,0,0,4.67-9.22v37.49c-1,.83-2.27.58-3.43.59H63.7C62.54,233.28,61.31,233.53,60.28,232.68Z"/><path class="cls-8" d="M60.28,232.68H188.64V237c-.53.81-1.39.71-2.17.72-2.16,0-4.32.07-6.48,0q-10.31.1-20.61,0c-4.4.06-8.8.07-13.18,0-6.74.06-13.49.08-20.23,0-3.65.05-7.29.06-10.94,0-3,.09-6.11,0-9.13,0a3.05,3.05,0,0,1-2.11-.56c-3.75-.12-7.5-.11-11.25,0a3.08,3.08,0,0,1-2.12.56c-3,0-6.08.06-9.12,0q-5.65.09-11.3,0c-2.54.09-5.06,0-7.6,0-.77,0-1.64.09-2.17-.72Z"/><path class="cls-8" d="M188.62,77.61H60.28a.72.72,0,0,0-.06-.35V73.9c.37-.32.83-.2,1.26-.22,14.08-.48,28.19-.31,42.28-.35,27.08.07,54.17-.13,81.26-.06,1.17,0,2.39-.21,3.49.41a7,7,0,0,1,.11,3.93Z"/><path class="cls-9" d="M124.44,200.37a44.64,44.64,0,1,1,44.7-44.59v0a44.53,44.53,0,0,1-44.51,44.56Z"/><path class="cls-2" d="M60.23,237c2.53.25,5.05.05,7.58.11l2.21.07a1.25,1.25,0,0,1,.39.63,56.46,56.46,0,0,1,0,10.72,1.24,1.24,0,0,1-.38.63H57.81c-1.65,0-1.68,0-1.69-1.66V237.22l3.76-.1A.85.85,0,0,0,60.23,237Z"/><path class="cls-10" d="M180,237.24c2.87-.18,5.77.12,8.65-.16a.7.7,0,0,0,.35.06l3.74.1v10.45c0,1.53,0,1.57-1.56,1.57H180a1.41,1.41,0,0,1-.38-.63,55.16,55.16,0,0,1,0-10.75A1.23,1.23,0,0,1,180,237.24Z"/><path class="cls-7" d="M188.66,77.61V73.86a.26.26,0,0,1,.36,0h0c0,1.25-.07,2.5-.1,3.74Z"/><path class="cls-11" d="M70,61.46H81.27c.08.1.21.19.22.29a31.63,31.63,0,0,1-.12,11.72,66.86,66.86,0,0,1-11.32,0Z"/><path class="cls-2" d="M70.05,73.42H81.3a3.19,3.19,0,0,1,2.28-.54h17.63a5.26,5.26,0,0,1,2.19.28.78.78,0,0,1,.41.57c-3.81,0-7.61.06-11.41.06l-30.67,0c-.49,0-1,.07-1.47.11h-.35c.47-.62,1.14-.39,1.73-.4C64.47,73.43,67.21,73.43,70.05,73.42Z"/><path class="cls-5" d="M81.28,237.24c3.76-.11,7.51-.1,11.27,0v10.5c0,1.45,0,1.47-1.5,1.48H81.3a2,2,0,0,1-.54-1.35c-.09-3.09-.1-6.18,0-9.27A2.06,2.06,0,0,1,81.28,237.24Z"/><path class="cls-5" d="M103.8,237.24c3.76-.1,7.5-.11,11.26,0,.11.15.29.27.31.45a42.73,42.73,0,0,1,0,11.07c0,.18-.19.31-.3.46h-9.75c-1.45,0-1.49,0-1.5-1.48C103.79,244.22,103.8,240.72,103.8,237.24Z"/><path class="cls-10" d="M103.82,73.73a1,1,0,0,1,0-.25l.25-.25c1.73-.67,3.54-.28,5.31-.34s3.82,0,5.74,0q5.4-.11,10.83,0c5.72-.08,11.45,0,17.18,0,2.41,0,2.5-.12,2.52-2.55V63.8a3.06,3.06,0,0,1,.59-2.29c.62,0,1.25-.07,1.87-.08H191c.69,0,1.38.07,2.06.09V73.44c-1.3.72-2.73.12-4.09.44h-.37c-.8,0-1.61-.09-2.42-.09h-80C105.43,73.81,104.61,73.76,103.82,73.73Z"/><path class="cls-2" d="M146.24,61.48V71.61c0,1.83,0,1.83-1.7,1.83H126a2.4,2.4,0,0,1-.55-1.73c0-2.73-.05-5.47,0-8.21a2.11,2.11,0,0,1,.91-2.08Z"/><path class="cls-3" d="M103.81,73.48l-11.6-.08c-.52-1.94-.21-3.93-.21-5.88a27.6,27.6,0,0,1,.17-6.08h11.65a1.31,1.31,0,0,1,.37.63,56.57,56.57,0,0,1,0,10.73,1.17,1.17,0,0,1-.38.63Z"/><path class="cls-12" d="M103.81,73.44v-12h11.25a1.34,1.34,0,0,1,.39.63,56.46,56.46,0,0,1,0,10.72,1.1,1.1,0,0,1-.4.61Z"/><path class="cls-5" d="M92.17,61.44A3.33,3.33,0,0,1,92.54,63v8.93a3.19,3.19,0,0,1-.33,1.43H81.27v-12Z"/><path class="cls-11" d="M115.05,73.41v-12h11.26a3.82,3.82,0,0,0-.37,2.15v9.83Z"/><path class="cls-13" d="M180,237.24v12H159.34a2.19,2.19,0,0,1-.54-1.36c-.1-3.1-.09-6.19,0-9.29a2,2,0,0,1,.54-1.35Z"/><path class="cls-2" d="M126,237.24h20.27c.11.15.29.28.31.46a42.73,42.73,0,0,1,0,11.07c0,.19-.2.32-.31.46H126c-.12-.14-.29-.27-.31-.45a42.65,42.65,0,0,1,0-11.06A.73.73,0,0,1,126,237.24Z"/><path class="cls-10" d="M146.23,249.19v-12h13.11v12Z"/><path class="cls-11" d="M126,237.24v12h-10.9v-12C118.69,237.09,122.32,237.12,126,237.24Z"/><path class="cls-11" d="M81.28,237.24v12H70v-12C73.78,237.1,77.53,237.11,81.28,237.24Z"/><path class="cls-14" d="M124.43,112.27a43.31,43.31,0,1,1-.14,0Z"/><path class="cls-15" d="M166.73,155.77a42.26,42.26,0,1,1-42.22-42.29h.38A42.16,42.16,0,0,1,166.73,155.77Z"/><path class="cls-16" d="M112.11,156.41a8.64,8.64,0,0,0,5.68.06c2.52-.73,5-1.53,7.58-2a19.84,19.84,0,0,1,14,2c1.82,1,3.59,2,5.38,3a14.75,14.75,0,0,1,1.41.91c3.25,2.37,4,4.74,2.55,8.46a17.38,17.38,0,0,0-1.21,5.07c-.38,5.61-4.65,8-9,8.21a23.48,23.48,0,0,1-7-1,39.39,39.39,0,0,0-6.38-1.28,19.92,19.92,0,0,0-10.25,1.55c-.42.18-.55-.08-.59-.44,1.52-1.91,3.76-2.05,5.89-2.37,5-.74,9.67.46,14.38,1.72a10.32,10.32,0,0,0,7.3-.32,6.6,6.6,0,0,0,3.87-5.17,37.62,37.62,0,0,1,1.52-6.54c1.06-2.9.54-4.77-2-6.57-4.41-3.14-9.12-5.84-14.68-6.07a27.08,27.08,0,0,0-8.47,1.29,45.44,45.44,0,0,1-5.62,1.45c-1.82.28-3.5.14-4.8-1.36C111.59,156.57,111.65,156.31,112.11,156.41Z"/><path class="cls-17" d="M92.58,153c.66.2,1.75.11,1.73,1s-1.17.56-1.82.83a3,3,0,0,1-.72.13,2.16,2.16,0,0,1-1.35.1c.41.16.92-.06,1.35.19,1.18,0,2.45.62,3.51-.47.17-.18.55,0,.59.25a5,5,0,0,1-.13,2.22.46.46,0,0,1-.58.29.57.57,0,0,1-.18-.12c-.63-1-1.66-.73-2.53-.85-1.42-.19-2.87-.2-4.31-.32a1.68,1.68,0,0,0-1.19.29c-.8.52-1.1.3-1.07-.6,0-1.58.12-1.65,1.7-1.77.81-.06,1.62-.13,2.42-.22.17,0,.31-.18.55-.34L87,152.77c-.46-.11-.91-.3-.84-.83s-.08-1.27.41-1.75a.57.57,0,0,1,.51,0c.8,1.08,2,.81,3.08.91,1.29.17,2.61.2,3.92.29a1.87,1.87,0,0,0,.91-.1c1.25-.59,1.26-.57,1.22.71v.55c-.11,1.07-.41,1.24-1.17.5a2,2,0,0,0-1.36-.42c-.91-.33-1.83.24-2.46-.12A2,2,0,0,1,92.58,153Z"/><path class="cls-18" d="M111.68,183.09a4.06,4.06,0,0,1-4.09.41c-.8-.33-1.63-.61-2.41-1a6,6,0,0,1-3.65-6,9.86,9.86,0,0,0-.85-4.73,4.18,4.18,0,0,1,0-3.65,19.82,19.82,0,0,0,2.1-9.38c0-3,3.53-5.18,6.32-4.16a.34.34,0,0,1,0,.48l0,0a4.71,4.71,0,0,1-1.6.44,3.7,3.7,0,0,0-3.06,3.75,20.41,20.41,0,0,1-1.9,9.06,4.31,4.31,0,0,0,0,3.45,8.78,8.78,0,0,1,.55,3.83c-.21,3.7,3.07,6.73,7.13,6.78a4.2,4.2,0,0,1,1.12,0A.62.62,0,0,1,111.68,183.09Z"/><path class="cls-19" d="M89.7,142.75a5.7,5.7,0,0,0-.37.69c-.77,1.95-.62,2.2,1.49,2.74.32.07.63.16.82-.17s.27-.72-.18-.91-.7-.55-.34-1,.67-.05,1,0c.66.19,1.31.44,2,.66.33.11.54.3.43.68s-.31.56-.68.41c-.53-.21-.83-.08-.91.5s.27.63.64.75l2.12.7c.6-.41.56-1.11.84-1.66.4-.78.22-1.27-.68-1.49-.36-.08-.75-.28-.54-.79s.6-.53,1.06-.32a6,6,0,0,0,.92.26c1.19.36,1.2.36.82,1.55-.46,1.36-.91,2.74-1.4,4.08-.1.3-.19.63-.54.69a.62.62,0,0,1-.76-.45.69.69,0,0,1,0-.13c-.12-.66-.71-.66-1.14-.81-1.59-.58-3.18-1.1-4.78-1.63a1.45,1.45,0,0,0-1.55.06c-.53.37-1-.07-.84-.67.53-1.66,1.12-3.3,1.7-4.95a.51.51,0,0,1,.62-.39l.11,0c.64.24,1.28.48,1.91.74a.62.62,0,0,1,.44.75,1.11,1.11,0,0,1-.07.16.54.54,0,0,1-.68.34.19.19,0,0,1-.08,0A10.85,10.85,0,0,0,89.7,142.75Z"/><path class="cls-20" d="M161.39,156.71H161c-.53,0-1.26.31-1.42-.45s.54-.8,1.09-.91a1.39,1.39,0,0,0,1.2-1.56s0-.06,0-.09a1.51,1.51,0,0,0-1.3-1.41,1.61,1.61,0,0,0-2,1,7.14,7.14,0,0,0-.3,1.46,2.54,2.54,0,0,1-2.65,2.43l-.32,0a2.79,2.79,0,0,1-2.74-2.59c-.12-.91.53-1.89-.12-2.84-.15-.22.24-.53.6-.53a6.37,6.37,0,0,0,2.21-.24.55.55,0,0,1,.7.31.29.29,0,0,1,0,.09.62.62,0,0,1-.32.82l-.14,0a7.09,7.09,0,0,0-.91.22,1.76,1.76,0,0,0-.8,2.1,1.64,1.64,0,0,0,1.69,1.21,1.4,1.4,0,0,0,1.56-1.22v-.06c.08-.43.08-.91.18-1.29a2.91,2.91,0,0,1,3.4-2.3l.12,0a2.77,2.77,0,0,1,2.3,3.14c0,.43-.22.86-.21,1.28s.71,1.07,0,1.44a3.59,3.59,0,0,1-1.46,0Z"/><path class="cls-19" d="M140.19,121.69c0-1,.23-1.14,1.06-.72.6.33,1.2.69,1.83,1,1.62.92,2.11,2,1.65,3.74a9.45,9.45,0,0,1-2.74,4.61,2.89,2.89,0,0,1-3.91.4c-.65-.38-1.31-.74-1.93-1.16s-.65-1,.07-1.18a1.83,1.83,0,0,0,1.2-1c.84-1.46,1.71-2.91,2.55-4.37C140.12,122.6,140.54,122.21,140.19,121.69Z"/><path class="cls-20" d="M150.43,127.55c0,.44-.3.77-.72.59a.91.91,0,0,0-1.14.31c-1.24,1.3-2.51,2.59-3.76,3.9a1.33,1.33,0,0,0-.28,1.82,1.22,1.22,0,0,0,1.7.38,1.27,1.27,0,0,0,.25-.21c1.44-1.38,2.81-2.83,4.21-4.26.11-.13.29-.39.23-.49-.25-.5-.37-1,.28-1.2s.68.43,1,.68a8.28,8.28,0,0,1,.68.64c.53.6.43,1.13-.32,1.11a1.91,1.91,0,0,0-1.54.82c-1.18,1.2-2.32,2.45-3.54,3.65a2.64,2.64,0,0,1-3.89-3.56c1-1.18,2.18-2.24,3.23-3.39.55-.59,1.47-1,1.15-2.11-.07-.24.31-.54.67-.49A7,7,0,0,1,150.43,127.55Z"/><path class="cls-21" d="M125.59,123.15a3.83,3.83,0,0,1,1.07,2,.89.89,0,0,0,.64,1,.54.54,0,0,1,.36.68.36.36,0,0,1,0,.09c-.14.34-.48.32-.79.36-1.1.1-1.21,0-1.37-1.14a3.4,3.4,0,0,0-.91-2.38,1.18,1.18,0,0,0-1.21-.3c-.48.18-.34.63-.32,1,0,.67-.36,1.56.78,1.77.29,0,.31.38.28.63a.7.7,0,0,1-.7.46c-.33,0-.91,0-1.31,0-1.21,0-1.26-.1-.57-1.24a2.1,2.1,0,0,0,.23-1.23c0-1.69,0-3.37,0-5.06a1.88,1.88,0,0,0-.42-1.35c-.58-.7-.33-1,.64-1.08H124c1.18,0,2.3.12,2.8,1.39a3.63,3.63,0,0,1-.34,3.73A6.18,6.18,0,0,1,125.59,123.15Z"/><path class="cls-17" d="M102.12,137.81a6.1,6.1,0,0,1-1.52,2.26c-.42,0-.79-.24-.72-.67.21-1.13-.78-1-1.29-1.18-.71-.24-.91.56-1.12,1-.35.66.43,1.51,1.42,1.63,1.16.13,1.22.23.68,1.14-.19.31-.4.62-.62.91-.4.59-1,.53-1.08-.06-.14-1-.91-1.47-1.46-2.08-1.08-1.13-2.21-2.22-3.3-3.33-.41-.4-.74-.68-1.18,0-.22.31-.55.26-.82,0a.62.62,0,0,1-.06-.84c.23-.37.49-.74.71-1.11a1.27,1.27,0,0,1,1.9-.53q2.61,1,5.28,1.95c.78.26,1.52.91,2.47.42C101.7,137.18,102,137.49,102.12,137.81Z"/><path class="cls-19" d="M118.58,121.79c0,1.67-.46,2.24-2.21,2.95-.43.17-1.32,0-1,.91.21.69.05,1.83,1.38,1.47a.69.69,0,0,1,.91.43c.13.43-.28.62-.65.74-.66.19-1.31.42-2,.58-.91.23-1.3-.13-.86-.91a1.74,1.74,0,0,0,0-1.57c-.44-1.56-.91-3.11-1.37-4.66a1.88,1.88,0,0,0-1-1.42c-.68-.33-.52-.83.28-1.11s1.53-.49,2.31-.71c2.3-.66,3.76.28,4.13,2.64C118.55,121.44,118.58,121.69,118.58,121.79Z"/><path class="cls-19" d="M95.85,129.9,100,126c.32-.3.62-.38.91,0l2.27,2.23c.36.36.49.76.06,1.12s-.7.16-1-.15-.77-.82-1.17-1.22-.67-.6-1.13-.19-.15.77.15,1.09l3.71,4c.43.45.81,1,1.52.35a.48.48,0,0,1,.66.12h0a.62.62,0,0,1-.06.85c-.57.57-1.18,1.11-1.77,1.66-.25.23-.53.38-.83.15s-.44-.54-.17-.81c.56-.52.18-.91-.15-1.24l-3.83-4.13c-.31-.33-.64-.68-1.11-.3s-.27.91.07,1.3.75.83,1.13,1.24.4.67,0,1-.71.14-1-.18Z"/><path class="cls-22" d="M159.34,143a.68.68,0,0,0-.76-.59.4.4,0,0,0-.15,0c-.67.17-1.31.4-2,.61-.43.13-.76,0-.85-.44a.58.58,0,0,1,.42-.71h0c1.07-.32,2.15-.63,3.22-1,.47-.16.7.05.85.44q.9,2.35,1.76,4.73c.17.46-.08.72-.45.91l-2.94,1.21c-.38.14-.76.14-1-.28s0-.82.52-1,1.17-.4,1.74-.67a.66.66,0,0,0,.44-.83l0-.08c-.17-.47-.49-.47-.91-.33l-5.79,2.13c-.43.15-.58.4-.39.85a.58.58,0,0,1-.46.83c-.39.09-.58-.21-.7-.51-.28-.69-.53-1.39-.78-2.09-.13-.38-.2-.76.24-.92a.52.52,0,0,1,.72.18.37.37,0,0,1,.05.11c.17.47.51.49.91.35,1.94-.71,3.85-1.44,5.78-2.15a.61.61,0,0,0,.49-.71Z"/><path class="cls-20" d="M135.93,121.66a11.49,11.49,0,0,1-1.28,5c-.84,1.47-1.83,2-3.18,1.76s-2-1.23-2.12-2.9a10.11,10.11,0,0,1,1.14-5.42c.82-1.59,1.9-2.2,3.26-1.94s2,1.28,2.16,3.11C135.92,121.39,135.93,121.49,135.93,121.66Z"/><path class="cls-23" d="M154.2,133.87c1.77,0,2.89.48,3.24,1.74.22.83,1.31,1.25,1.07,2s-1.31.82-1.89,1.39a9.76,9.76,0,0,1-.84.73.55.55,0,0,1-.77,0l-.06-.07a.6.6,0,0,1,0-.84h0c.3-.33.64-.6.92-.92a1.47,1.47,0,0,0,.45-1.68,1.59,1.59,0,0,0-1.65-1c-1.66,0-4.68,1.88-5.34,3.38a1.75,1.75,0,0,0,.8,2.35,1.67,1.67,0,0,0,.76.18,6,6,0,0,0,.73-.08.56.56,0,0,1,.67.42s0,0,0,.06a.66.66,0,0,1-.46.74,2.3,2.3,0,0,1-1.82,0,3.14,3.14,0,0,1-2-3.95,3.71,3.71,0,0,1,.19-.46A8.45,8.45,0,0,1,154.2,133.87Z"/><path class="cls-24" d="M111.68,183.09l-.45-.4a2.92,2.92,0,0,1,3.09-1.83l.49.43A14.78,14.78,0,0,1,111.68,183.09Z"/><path class="cls-25" d="M109,155.15v-.53a16,16,0,0,1,3,1.82l-.4.37A2.35,2.35,0,0,1,109,155.15Z"/><path class="cls-26" d="M92.58,153l-1.89-.39a4,4,0,0,1,3,0C93.36,152.84,92.84,152.58,92.58,153Z"/><path class="cls-27" d="M91.84,155.27a2.15,2.15,0,0,1-1.37-.12A2,2,0,0,1,91.8,155Z"/><path class="cls-28" d="M109,155.15a12.73,12.73,0,0,0,2.67,1.67,6.74,6.74,0,0,0,5.37.92c2.8-.65,5.47-1.65,8.34-2.16a20.52,20.52,0,0,1,13.68,1.83c1.64.91,3.3,1.77,4.92,2.73a16.08,16.08,0,0,1,2.26,1.67,5.21,5.21,0,0,1,1.6,6.11,29.15,29.15,0,0,0-1.63,6.7c-.51,3.93-3.45,6.39-7.42,6.67a18.16,18.16,0,0,1-6.08-.91,31.57,31.57,0,0,0-12.59-1.33,13.48,13.48,0,0,0-5.81,1.93,14.76,14.76,0,0,0-3.09,1.82c-3.16.64-5.59-.72-7.64-2.91-1.08-1.16-1.15-2.73-1.09-4.25a7,7,0,0,0-.69-3.8,3.71,3.71,0,0,1-.13-2.74,6,6,0,0,1,.46-1.22,15.91,15.91,0,0,0,1.63-8.16c-.12-2.18,1-3.5,2.9-4.35A3.27,3.27,0,0,1,109,155.15Z"/><path class="cls-29" d="M137.9,129.07c1.12-1.91,2.25-3.83,3.35-5.76.35-.61.7-.52,1.2-.23a1.72,1.72,0,0,1,.91,1.87,6.92,6.92,0,0,1-2.64,4.56C139.73,130.29,139.34,130.18,137.9,129.07Z"/><path class="cls-30" d="M123,120.31a2.62,2.62,0,0,1,0-.56c.07-.44-.25-1.08.46-1.22a2,2,0,0,1,1.76.29,2.32,2.32,0,0,1,.4,2.42,1.84,1.84,0,0,1-2,1,.61.61,0,0,1-.57-.6v-1.3Z"/><path class="cls-31" d="M95.19,136.9c.36.13.71.27,1.06.38.59.17.66.53.36,1s-.61.36-.91,0a8.74,8.74,0,0,0-.92-.91C94.68,137,94.79,136.78,95.19,136.9Z"/><path class="cls-32" d="M95.19,136.9c-.2.08-.4.18-.43.44-.29-.12-.65-.41-.49-.63C94.57,136.33,94.91,136.65,95.19,136.9Z"/><path class="cls-33" d="M113.73,120.16c2.34-.91,3.55-.24,3.57,1.73a2.09,2.09,0,0,1-2.16,1.88c-.42-.07-.46-.39-.54-.67C114.27,122.15,114,121.19,113.73,120.16Z"/><path class="cls-34" d="M134.58,121.86a11.68,11.68,0,0,1-1.11,4.14c-.35.68-.78,1.32-1.69,1.18s-1.1-1-1.12-1.71a10.29,10.29,0,0,1,1.13-5c.35-.66.85-1.35,1.75-1.08s1,1,1,1.82C134.59,121.33,134.58,121.52,134.58,121.86Z"/><path class="cls-35" d="M142.5,175.54l2.05,1.06a6.36,6.36,0,0,1-5.47,3.51,12.72,12.72,0,0,1-5.34-.64,36.53,36.53,0,0,0-12.15-1.69c-.43,0-.91,0-1.3,0-1.14-.07-2.3.74-3.27.44s-1.27-1.76-2.28-2.32c-1.23-.27-1.77-1.44-2.73-2-2-2-4.56-2-7.15-2.08-2.16.21-2.32.06-2.29-2.1a2,2,0,0,1,.24-1.21c.68-.2,1.36.3,2.09.27A9.38,9.38,0,0,0,109,167.5a2.75,2.75,0,0,1,2.29-.29c2.1.56,4.26,1,6.38,1.4a11,11,0,0,0,4.85.09,3.44,3.44,0,0,1,3.83,1.22,1.83,1.83,0,0,1,1.19,1.64c-1.14,1-1.73-.42-2.62-.58-.16-.12-.46,0-.54-.3,0,.31.36.19.52.33l2.52,1.38c.25.32.59.58.85.91.07.15.12.32.18.47.86.84.82,2.22,1.77,3a.28.28,0,0,1,.12.31h.07c0-.19-.2-.21-.2-.36-.92-.75-.92-2-1.61-2.81a.94.94,0,0,1-.21-.45c-.12-.42-.61-.6-.69-1.05a.68.68,0,0,1,.63-.42,8.88,8.88,0,0,1,1.82.62c2,.92,4.13.41,6.17.73a22.26,22.26,0,0,1,4.56,1A2.7,2.7,0,0,1,142.5,175.54Z"/><path class="cls-35" d="M134.63,162.11a18.12,18.12,0,0,0,4.56-1.29,4.84,4.84,0,0,1,2.47-.58c.77.73.49,1.69.55,2.57a5.55,5.55,0,0,0,.42,2.64c.06.16.13.32.18.49.36,1.69,2.17,2,3.05,3.25a45,45,0,0,1-.86,6.22c-.06.35-.4.39-.74.26s-.91-.32-1.37-.48c-1.78-.32-3.32-1.51-5.21-1.47-2.38-.58-4.88-.14-7.25-.81-1.63-.68-3.18-1.44-3.75-3.31a4.68,4.68,0,0,1,1.35-6.47,4.59,4.59,0,0,1,2.18-.75C131.7,162.32,133.16,162.22,134.63,162.11Z"/><path class="cls-4" d="M116.7,158.79c2.9-.46,5.63-1.58,8.52-2.16a19.53,19.53,0,0,1,13.62,1.83c.35.19.86.24,1,.91a16.28,16.28,0,0,1-7.74,1.6c-6.07-.38-11.85,1.24-17.74,2.29-.37.2-.45-.06-.52-.34C114.87,161.53,115.36,159.87,116.7,158.79Z"/><path class="cls-14" d="M106,164.67h-1.62c.13-1.91.22-3.75.38-5.58a3,3,0,0,1,1-2.14,2.78,2.78,0,0,1,3.88-.22c1.42.92,2.74,1.94,4.56,2,2.12.3,2.28.53.92,2.3-2,2.57-4.79,3.41-7.89,3.54C106.83,164.61,106.43,164.45,106,164.67Z"/><path class="cls-14" d="M125.59,166.21a3.06,3.06,0,0,1-3,1.83c-3.29.13-8.49-.67-11.12-1.94a8.57,8.57,0,0,1,5.74-2.34,53.05,53.05,0,0,0,11.56-2c.3-.08.62-.1.91-.16a16.31,16.31,0,0,1,3.95,0,1.73,1.73,0,0,1-1.92.91C128.66,162.12,126.79,163.58,125.59,166.21Z"/><path class="cls-36" d="M112.06,180.1a2.24,2.24,0,0,1-2.63,1.77h-.05a10.15,10.15,0,0,1-4.23-1.87,4.35,4.35,0,0,1-1.64-3.24c-.06-1,0-2-.05-3s.54-.76,1.07-.76C108.7,173,111.41,175.59,112.06,180.1Z"/><path class="cls-36" d="M142.18,160.28a11.61,11.61,0,0,1,3.54,2.36c1.83,1.83,1.88,3.51.8,6-.13.29-.43.18-.66.23a5,5,0,0,1-3.39-3h0a12.84,12.84,0,0,1-.57-2.74C142.06,162.16,141.62,161.18,142.18,160.28Z"/><path class="cls-37" d="M115.38,177.6c.49.91.44,1.58-.71,1.89a2.46,2.46,0,0,0-.8.42c-.79.62-1.18.17-1.5-.53-.64-.39-.74-1.11-1-1.7-1-2.14-2.46-3.82-4.93-4.36a2.88,2.88,0,0,1-1.5-.69v0c-.14-.08-.17-.15-.13-.22a.16.16,0,0,1,.15-.09l.33-.09c2.62-1.12,4.75-.09,6.73,1.57a9.65,9.65,0,0,1,2.3,2.59h0a3.15,3.15,0,0,0,.36.37h0a2.64,2.64,0,0,1,.35.4h0A.73.73,0,0,1,115.38,177.6Z"/><path class="cls-20" d="M114,162.91l.39.31a.81.81,0,0,1-.64.36h0c-1.64,1-3.27,2-4.92,3a7.44,7.44,0,0,1-4.62,1.13c-.7-.07-1-.26-.76-1s.75-1.52,1.83-1.48a11.17,11.17,0,0,0,1.82-.22A54.89,54.89,0,0,1,114,162.91Z"/><path class="cls-38" d="M114,162.91a20.59,20.59,0,0,1-6.8,2.09c-.32-.36-.79-.19-1.16-.33,1.82-.56,3.74-.79,5.53-1.48a7.49,7.49,0,0,0,4.25-3.89c-.45-.49-1.14-.1-1.56-.54a8,8,0,0,1,2.49,0A8.79,8.79,0,0,1,114,162.91Z"/><path class="cls-39" d="M125.59,166.21a4.74,4.74,0,0,1,.69-1.89,2.94,2.94,0,0,1,3.05-1.92,8.4,8.4,0,0,0,3.9-.56c-1.22-.44-2.38-.08-3.5-.21,1.4-.66,2.86-.21,4.29-.29.51,0,.29.61.63.77a5.57,5.57,0,0,1-3.77.84,4,4,0,0,0-4.34,2.51,5.6,5.6,0,0,1-.51.76Z"/><path class="cls-40" d="M104.91,172.63c4.06.51,6.32,3,7.46,6.75-.25.18-.24.47-.31.72-.76-1.26-1.06-2.73-2-3.95a7,7,0,0,0-3.93-2.63c-.53-.12-1.14-.08-1.57-.53Z"/><path class="cls-41" d="M112.1,174.06l-1.38-.91a7.13,7.13,0,0,0-5.47-1l-.41-.37a6.74,6.74,0,0,1,7.53,1.94v.15l-.12.12Z"/><path class="cls-42" d="M138,173.39a12.31,12.31,0,0,1,4.94,1.82l-.4.36a21.8,21.8,0,0,0-6.18-1.73C136.76,173.25,137.45,173.77,138,173.39Z"/><path class="cls-43" d="M126.7,169.6a8.1,8.1,0,0,0,3.54,2.88c0,.3-.31.33-.52.43a3.88,3.88,0,0,1-1.5-.76,1.17,1.17,0,0,1-.79-.68,4.64,4.64,0,0,1-1.05-1.54Z"/><path class="cls-44" d="M114.32,176.34a10.44,10.44,0,0,1-2.22-2.28l.1-.1.11-.11.11-.1a10.4,10.4,0,0,1,2.36,2.18Z"/><path class="cls-45" d="M142.47,165.82a12.24,12.24,0,0,0,3.39,3v.35a6.82,6.82,0,0,1-2.51-1.46A2.11,2.11,0,0,1,142.47,165.82Z"/><path class="cls-46" d="M142.18,160.28l-.11,2.93c-.1.17-.21.16-.31,0a15.51,15.51,0,0,1-.08-3Z"/><path class="cls-47" d="M105,172.27a.81.81,0,0,0,0,.31,2.56,2.56,0,0,1-.46-.11C104.51,172.11,104.75,172.24,105,172.27Z"/><path class="cls-44" d="M115.38,177.6a.51.51,0,0,1-.34-.48A.48.48,0,0,1,115.38,177.6Z"/><path class="cls-44" d="M115,177.13a.44.44,0,0,1-.34-.4A.44.44,0,0,1,115,177.13Z"/><path class="cls-44" d="M114.7,176.72a.45.45,0,0,1-.37-.37A.45.45,0,0,1,114.7,176.72Z"/><path class="cls-48" d="M129.72,172.92l.52-.42c2.55.54,5.16.52,7.72.91-.45.53-1.1.24-1.64.42C134.09,173.7,131.82,174,129.72,172.92Z"/><path class="cls-49" d="M109.85,170.06c1.87-.28,3.72-.47,5.19,1.09l-.07.12a.77.77,0,0,1-.25.1c-1.5-.91-3.21-.91-4.87-1.12Z"/><path class="cls-50" d="M116.88,173.39c.91,1.37,2.4,1.72,3.78,2.28.09.35,0,.53-.39.38a4.88,4.88,0,0,1-3.65-2.32C116.4,173.39,116.59,173.32,116.88,173.39Z"/><path class="cls-51" d="M127.41,171.48a1.32,1.32,0,0,1,.79.69.34.34,0,0,0-.36.35v.07a.58.58,0,0,1-.63.08l-2.46-1.41a.26.26,0,0,1,0-.38.25.25,0,0,1,.1-.08c.65.28,1.3.56,1.94.91C127.05,171.79,127.31,171.92,127.41,171.48Z"/><path class="cls-52" d="M130.46,177.1a2.27,2.27,0,0,1-1.34-1.62,19.45,19.45,0,0,0-.91-1.83.32.32,0,0,1,.45-.06l.06.06a22.74,22.74,0,0,1,1.7,3.38Z"/><path class="cls-53" d="M116.88,173.39l-.3.34a7.46,7.46,0,0,1-1.47-1.89.68.68,0,0,1,.32-.33A5.79,5.79,0,0,1,116.88,173.39Z"/><path class="cls-54" d="M120.27,176l.39-.39,1,.43A1.38,1.38,0,0,1,120.27,176Z"/><path class="cls-55" d="M127.23,172.67l.63-.08a1.32,1.32,0,0,1,.63.78.29.29,0,0,1-.42,0A1.85,1.85,0,0,1,127.23,172.67Z"/><path class="cls-56" d="M115.43,171.49l-.32.33a.18.18,0,0,1-.07-.25c-.13-.1-.14-.2,0-.31v-.11Z"/><path class="cls-57" d="M124.83,170.8l-.06.46c-.2-.13-.67,0-.56-.43S124.61,170.74,124.83,170.8Z"/><path class="cls-58" d="M130.46,177.1l.19.18h-.12a1.11,1.11,0,0,1-.07-.16Z"/><path class="cls-59" d="M128.07,173.39h.42l.27.36h-.52C128.18,173.63,128.12,173.51,128.07,173.39Z"/><path class="cls-60" d="M115,171.26a.81.81,0,0,1,0,.31l-.32-.2a.21.21,0,0,1,.28-.12Z"/><path class="cls-61" d="M109.85,170.06v.19l-.32-.1Z"/><path class="cls-62" d="M136.1,164.66a5.48,5.48,0,0,1,3.29,2,.57.57,0,0,1-.51,0l-2.74-1.53a.24.24,0,0,1-.11-.27A.69.69,0,0,1,136.1,164.66Z"/><path class="cls-63" d="M139.36,172.65a7.09,7.09,0,0,1-2.53-1.55.54.54,0,0,1,.36-.3,5.25,5.25,0,0,1,2.32,1.73Z"/><path class="cls-64" d="M131.24,167.69a6.74,6.74,0,0,1,3.07,1.82l-.13.21a7.69,7.69,0,0,1-3-2Z"/><path class="cls-65" d="M141.76,163.21h.31a5.82,5.82,0,0,1,.41,2.64A3.76,3.76,0,0,1,141.76,163.21Z"/><path class="cls-66" d="M141.7,170.74a1.77,1.77,0,0,1-1.09-1.9h0a3.46,3.46,0,0,1,1.15,1.82Z"/><path class="cls-67" d="M134.31,169.54a5.55,5.55,0,0,1,1.83.76c0,.23-.26.24-.4.36a3.25,3.25,0,0,1-1.57-.91A.2.2,0,0,1,134.31,169.54Z"/><path class="cls-68" d="M129.72,166.2a2.46,2.46,0,0,1,1.12,1.09.28.28,0,0,1,.1.27c0,.1-.06.15-.1.15a1.72,1.72,0,0,1-1.14-1.49Z"/><path class="cls-69" d="M140,167.34a1.41,1.41,0,0,1,.58,1.51h0a5,5,0,0,1-1.12-1.53A.47.47,0,0,1,140,167.34Z"/><path class="cls-70" d="M136.1,164.66v.41a2.53,2.53,0,0,1-.48-.19c-.17-.12-.53-.16-.41-.43s.42-.14.63,0A1.33,1.33,0,0,1,136.1,164.66Z"/><path class="cls-71" d="M135.75,170.65l.39-.36a1,1,0,0,1,.73.4.44.44,0,0,1-.59,0Z"/><path class="cls-72" d="M136.28,170.74h.59a.4.4,0,0,1,.32.1l-.36.31A.75.75,0,0,1,136.28,170.74Z"/><path class="cls-68" d="M129.7,166.22c-.19-.06-.37-.33-.27-.37.42-.21.2.21.29.35Z"/><path class="cls-73" d="M139.51,172.53c.13.08.4.12.23.32s-.3,0-.38-.2A.16.16,0,0,0,139.51,172.53Z"/><path class="cls-74" d="M141.75,170.7l.23.16c-.22.23-.22,0-.28-.12Z"/><path class="cls-75" d="M130.84,167.71v-.42c.21.06.38.16.41.4l-.06.05h-.13Z"/><path class="cls-76" d="M140,167.34h-.52a.23.23,0,0,1,0-.31l.07-.06C139.78,166.94,139.88,167.15,140,167.34Z"/><path class="cls-77" d="M138.88,166.6h.51a.91.91,0,0,0,.13.33l-.07.07A.73.73,0,0,1,138.88,166.6Z"/><path class="cls-78" d="M122.59,160.54c-1,.2-1.83-.43-2.82-.51a3.43,3.43,0,0,1,2.82.12c.12.09.16.17.12.26S122.63,160.54,122.59,160.54Z"/><path class="cls-79" d="M126.68,160.15c-.64,0-1.19.5-1.83.37-.13-.07-.16-.16-.13-.23s.09-.12.13-.12a3.11,3.11,0,0,1,1.89-.35c.11.09.14.16.09.23A.19.19,0,0,1,126.68,160.15Z"/><path class="cls-80" d="M124.82,160.17a2,2,0,0,0,0,.35,7,7,0,0,1-2.23,0v-.38Z"/><path class="cls-81" d="M130.46,158.31a.91.91,0,0,1,1.27-.18,1.68,1.68,0,0,1-1.3.54c-.11-.09-.14-.17-.1-.25S130.42,158.31,130.46,158.31Z"/><path class="cls-82" d="M129.35,158.72a2,2,0,0,1-1.52.73h0a1.31,1.31,0,0,1,1.49-.76Z"/><path class="cls-83" d="M126.68,160.15v-.33c.26-.45.69-.4,1.12-.37h0A1.53,1.53,0,0,1,126.68,160.15Z"/><path class="cls-84" d="M130.46,158.31a1.09,1.09,0,0,1,0,.36l-1.08.05h0C129.57,158.17,130.05,158.35,130.46,158.31Z"/><path class="cls-85" d="M110.54,161.69a2.46,2.46,0,0,1,2.6-1L110.91,162A.65.65,0,0,1,110.54,161.69Z"/><path class="cls-86" d="M110.54,161.69l.37.34a2.19,2.19,0,0,1-2.21.38c0-.35,0-.55.44-.4Z"/><path class="cls-87" d="M109.17,162l-.44.4a3.51,3.51,0,0,1-1.5-.73c-.12-.09-.16-.18-.12-.28s.06-.13.1-.13Z"/><path class="cls-88" d="M107.18,161.27v.41c-.24-.16-.74-.17-.53-.62C106.75,160.88,107.07,161,107.18,161.27Z"/><path class="cls-89" d="M107.62,176c.69.4.83,1.19,1.21,1.83a6.28,6.28,0,0,0,1.88,2.39,1.82,1.82,0,0,1-1.93-1.25c-.53-1-1-2-1.52-3a.25.25,0,0,1,.34,0Z"/><path class="cls-90" d="M106.06,174.8a1.5,1.5,0,0,1,1.17.72l-.17.12c-.42.07-.67-.27-1-.43q-.18-.14-.12-.27C106,174.85,106,174.8,106.06,174.8Z"/><path class="cls-91" d="M106.06,174.8v.41c-.27-.14-.74-.18-.54-.63C105.61,174.41,105.93,174.58,106.06,174.8Z"/><path class="cls-92" d="M107.62,176h-.36a.46.46,0,0,1-.19-.31.15.15,0,0,0,.16-.13A.51.51,0,0,1,107.62,176Z"/><polygon class="cls-93" points="112.31 173.85 112.29 173.95 112.19 173.97 112.22 173.87 112.31 173.85"/><text class="cls-94" transform="translate(103.67 150.59) scale(1.26 1)">pate</text><text class="cls-95" transform="translate(103.67 150.59) scale(1.26 1)">pate</text><rect class="cls-96" width="250" height="250"/></svg>