<?xml version="1.0" encoding="utf-8"?>
<!-- Generator: Adobe Illustrator 25.0.0, SVG Export Plug-In . SVG Version: 6.00 Build 0)  -->
<svg version="1.1" id="Layer_1" xmlns="http://www.w3.org/2000/svg" xmlns:xlink="http://www.w3.org/1999/xlink" x="0px" y="0px"
	 viewBox="0 0 250 250" style="enable-background:new 0 0 250 250;" xml:space="preserve">
<style type="text/css">
	.st0{fill:#877D5F;}
	.st1{fill:#6D6048;}
	.st2{fill:#BFAC79;}
	.st3{fill:#685C46;}
	.st4{fill:#9D8E63;}
	.st5{fill:#FBFDFD;}
	.st6{fill:#483B22;}
	.st7{fill:#9C9476;}
	.st8{fill:#EE783D;}
	.st9{fill:#7B7054;}
	.st10{fill:#FCFBFB;}
	.st11{fill:#ED814A;}
	.st12{fill:#C4471E;}
	.st13{fill:#C4481E;}
	.st14{fill:#C44A20;}
	.st15{fill:#B35744;}
	.st16{fill:#B55731;}
	.st17{fill:#E47E4B;}
	.st18{fill:#EB814B;}
	.st19{fill:#EA814B;}
	.st20{fill:#BA4D2D;}
	.st21{fill:#A18B6D;}
	.st22{fill:#1A0F0A;}
	.st23{fill:#C77E51;}
	.st24{fill:#CD8052;}
	.st25{fill:#CB8052;}
	.st26{fill:#CF8051;}
	.st27{fill:#B2522A;}
	.st28{fill:#D28051;}
	.st29{fill:#BF481F;}
	.st30{fill:#A07C56;}
	.st31{fill:#B74B23;}
	.st32{fill:#B3582F;}
	.st33{fill:#A47D57;}
	.st34{fill:#A07E59;}
	.st35{fill:#AB7F59;}
	.st36{fill:#A65C38;}
	.st37{fill:#B07F57;}
	.st38{fill:#B35D33;}
	.st39{fill:#C35126;}
	.st40{fill:#BF562E;}
	.st41{fill:#BF5128;}
	.st42{fill:#C05027;}
	.st43{fill:#D77B4B;}
	.st44{fill:#AFD4D4;}
	.st45{fill:#C54C23;}
	.st46{fill:#AB5C34;}
	.st47{fill:#E6DCBE;}
	.st48{fill:#574A31;}
	.st49{fill:#887D5F;}
	.st50{fill:#C78454;}
	.st51{fill:#907D5C;}
	.st52{fill:#FDF9F6;}
	.st53{fill:#FDF8F4;}
	.st54{fill:#CF5325;}
	.st55{fill:#D05135;}
	.st56{fill:#D05426;}
	.st57{fill:#B77B4E;}
	.st58{fill:#F9E4D8;}
	.st59{fill:#E97B45;}
	.st60{fill:#D35A2D;}
	.st61{fill:#D86132;}
	.st62{fill:#DA6334;}
	.st63{fill:#D85C2B;}
	.st64{fill:#EE783E;}
	.st65{fill:#FCF4EF;}
	.st66{fill:#FDF3ED;}
	.st67{fill:#FBEDE5;}
	.st68{fill:none;}
	.st69{fill:#FFFFFF;}
	.st70{opacity:0.2;fill:#BFAC79;}
</style>
<path class="st0" d="M172.3,225.7c0,0.1,0.1,0.3,0.1,0.4c-0.1,0.3-0.4,0.5-0.7,0.7c-1,0.3-2,0.5-3,0.3H80.3c-1.1,0.1-2.2,0-3.2-0.4
	c-0.3-0.2-0.5-0.5-0.5-0.8c0-22.9-0.1-67.8,0-134.7c0-0.5,0-0.9,0.1-1.3c0.8-1,1.9-0.8,2.9-0.8h63.1c1-0.2,2.1,0.1,2.9,0.7
	c0.6,1.1,0.8,2.4,0.6,3.7v68.8c0.1,1,0,2-0.3,3c-1.1,1.6-2.6,2.2-3.8,0.8c-2.7-3.4-6.1-3.8-9.5-4.4c-4.8-0.8-9.7-0.8-14.6-1.2
	c-1.6-0.1-3.3-0.5-4.9-0.9c-0.9-0.4-1.5-1.5-2.6-1c-0.2,0.1-0.4,0.1-0.7,0.1c-0.2,0-0.4,0-0.7,0c-1.8-0.4-3.6-0.9-5.4-1.4
	c-0.9-0.1-1.8-0.7-2.1-1.6c-0.3-1.3-0.4-2.7-0.3-4.1c0-8.6,0.1-39.2,0-47.7c0-4-1.6-6.9-4.6-8.4c-2.7-1.3-5.5-0.5-7.5,2.2
	c-1.7,2.2-2.1,4.9-2.1,7.8v43.6c0.1,1.3,0,2.5-0.3,3.8c-1.9,1.6-3.3-0.8-4.7-0.8c0.6,0.6,1.8,0.8,2.9,1.2c0.7,0.3,1.6,0.3,1.9,1.5
	c0.3,1.5,0.3,3.1,0.2,4.6v49.1c-0.1,2,0.1,4,0.5,6c1,4,4.1,6.8,7.2,6.4c3.4-0.4,5.9-3.5,6.4-7.9c0.1-1.2,0.1-2.4,0.1-3.6v-12.8
	c-0.1-1.4,0-2.7,0.3-4.1c0.8-1.5,1.2-0.1,1.4,0.5c1.3,2.8,1.9,5.8,1.8,8.8c0.2-3.7-0.8-7.4-2.7-10.6c-0.2-0.4-0.4-0.8-0.4-1.2
	c0-0.3,0-0.6,0.1-0.8c0.2-0.3,0.5-0.4,0.8-0.2c4.5,3.3,7.3,8.1,8.2,14.6c-0.5-5.3-3-10.3-7.1-13.8c-0.9-0.8-2.2-1.2-2.3-3
	c-0.2-4.7-0.2-9.5,0.1-14.2c0.3-1,1-1.9,1.9-2.4c2.4-1.2,4.9-2.3,7.6-1.8c1.4,1.2,2.6,2.7,3.5,4.4c0,0.5-0.4,0.9-0.8,1
	c-3,0.6-5.8,1.8-7.3,5.5c0,0.5,0.6,0.2,0.3,0.2c-0.1,0-0.1-0.1-0.1-0.1c0.7-3,2.8-3.8,4.7-4.8c0.9-0.4,1.9-0.7,2.9-0.7l0.6-0.1
	c0.4,0,0.9,0,1.3,0.2c0.5,0.2,0.8,0.5,1,1c0.1,0.5-0.1,1-0.5,1.3c-2.4,0.9-4.3,2.6-5.4,4.8c-0.4,0.7-0.9,1.2-0.7,1.8
	c1-3.7,3.5-5.5,6.3-6.7c0.4-0.4,0.9-0.6,1.5-0.5c0.7,0.1,1.3,0.7,1.5,1.4c0,0.5-0.2,1-0.5,1.4c-2,1.2-3.6,3.2-4.2,5.5
	c-0.2,0.7-0.6,1.3-0.1,2c0.1,0.4,0.3,0.8,0.4,1.1c-0.2-0.6-0.4-1.2-0.7-1.8c0.6-2.9,2.3-5.4,4.8-7c0.3-0.3,0.7-0.6,1.1-0.8
	c0.9-0.1,1.7,0.4,2.1,1.2c0.1,0.5,0,1-0.2,1.5c-1.6,2.2-3.6,4.2-3.1,7.7c0,0.4,0.4-0.1,0.2,0c-0.1,0-0.1,0-0.1-0.1
	c0-2.3,0.3-4.4,1.9-5.9c0.6-0.6,1.2-1.4,1.6-2.1c0.2-0.3,0.5-0.5,0.8-0.6c1.1-0.1,2.1,0.4,2.6,1.4c0.1,0.4,0.1,0.8,0,1.2
	c-1.4,2.5-2.5,5.1-1.7,8.3c0.7,0.8,1.5,1.4,2.4,1.8c0.2-0.1,0.2,0.3,0.4,0.2c-0.1-0.2-0.3,0-0.4-0.2c-1-0.6-2-0.9-2.6-2.3
	c-0.6-3.1,0.6-5.5,1.9-7.8c0.1-0.4,0.4-0.7,0.7-0.9c0.5-0.2,1-0.2,1.5,0c2.5,0.9,4.9,0.3,7.4,0c1.7,1.2,3.6,1.8,5.7,1.9
	c2.1,0,4,3.2,3.6,5.7c-1.9-0.3-3.8-1.5-5.8-0.9c-1.1-0.4-2.3,0.1-3.4-0.1s-2.1,1.1-2.9,0.6c1.6-0.2,3.6-0.9,5.5-0.4
	c0.2,0.2,0.3,0.4,0.4,0.7c0,0.9-0.6,1.2-1.1,1.5c-0.3,0.1-0.7,0.2-1,0.1c-1.7,0-3.3,0.1-5,0.4c-0.7,0.2-1.4,0.4-2.1,0.5
	c-0.3,0.1,0.2,0.4,0,0.1c0.8-0.3,1.7-0.6,2.6-0.8c1.4,0.2,2.8-0.6,4.2-0.1c0.2,0.2,0.4,0.4,0.4,0.7c0,0.7-0.4,1.4-1,1.7
	c-0.2,0.1-0.4,0.2-0.7,0.2c-2.3-0.2-4.6,0-6.7,0.8c1.9-0.7,4-0.9,6-0.7c1.2,0.9,2.9,0.3,3.7,2c-0.1,1.8-0.9,2.9-2.3,2.9
	c-2.8,0-5.3,1.2-7.8,2.5c-2.7-2.1-5.3-4.2-8-6.2c-0.3-0.3-0.6-0.5-1-0.8c-0.2-0.1-0.3-0.2-0.5-0.3c-0.5-0.3-1-0.6-1.6-0.8
	c-0.2-0.1-0.4-0.2-0.5-0.3c-1.4-0.9-3-1.7-4.6-2.3c-2.2-0.5-2.7,0.1-2.5,2.9c0.5,5.4,2.1,7.6,6.9,9.2c3.5,1.3,7.1,1.5,10.6,2
	c0.5,0.1,0.9,0.4,1.3,0.7c4.5,2.8,9,2.2,13.5,0c0.4-0.1,0.9-0.3,1.3-0.6c0.4-0.3,0.9-0.4,1.3-0.5c0.6,0,1.1,0.4,1.2,1
	c0.3,1.4,0.4,2.9,0.3,4.3v12.7c0,3.7,0.1,3.9,3,3.9s5.6-0.1,8.4,0.1c4.1-0.1,8.1,0,12.2,0C170.8,224.8,171.6,225.1,172.3,225.7z"/>
<path class="st1" d="M172.3,247.7l-14.6-22c-0.5-0.7-0.7-1.6-0.7-2.5c0-16.4-0.2-10.8,0.1-27.2c0.1-0.8,0.3-1.6,0.7-2.2
	c1.6-2.3,2.4-5.1,2.5-7.9c1.7-4.2,1.4-7.6-1.1-11c-0.8-1-1.5-2-1.9-3.2c-0.3-1.4-0.4-2.9-0.3-4.3V94.8c0-1.8-0.3-3.7,1-5.1
	c1.3-0.9,2.8-0.6,4.2-0.6h7.7c0.9-0.1,1.8,0.2,2.4,0.8v23.9L172.3,247.7z"/>
<path class="st2" d="M173.9,249.7c-9.5,0-19.1,0-28.6,0.1H74.9c-0.2,0-0.4,0-0.6-0.1c-0.3-0.4-0.6-0.7-1-1.1c-2.3-2-3.1-4.8-2.4-8.1
	s2.4-4.9,4.9-5.4c0.3-0.1,0.7-0.1,1.1-0.2c0.7-0.6,1.7-0.9,2.7-0.8H142c0.6,0,1.3,0.1,1.9,0.2c4.5,1.5,6.2,3.8,6.1,8.4
	c0.1,2.1-0.6,4.2-2.1,5.6h23C172,248.4,173.3,247.9,173.9,249.7z"/>
<path class="st2" d="M76.8,79c-0.6-0.1-1.3-0.3-1.9-0.4c-2.8-1-4.4-3.9-4.2-7.6c0.2-3.5,2.2-6.3,5-6.8c0.4-0.1,0.9-0.1,1.3,0h66
	c0.3,0,0.6,0,0.9,0.1c1.6,0.4,3.4-0.1,4.7,1.9c1.6,2.4,2,5.4,1.1,8.2c-0.7,2.8-2.3,4.6-4.7,4.8c-0.6,0.1-1.1,0.3-1.7,0.5
	c-1.1,0.2-2.1,0.2-3.2,0.2H80.5C79.2,79.8,77.9,80.1,76.8,79z"/>
<path class="st3" d="M76.8,79c0.9,0,1.8-0.1,2.8-0.1h64.3c0.6-0.4,1.3-0.3,1.9,0.1c0.5,1.3,0.7,2.6,0.5,4c-0.1,2.2,0.7,2.9,2.3,2.8
	c2.1-0.1,4.3,0,6.4,0c1-0.2,1.9,0.1,2.7,0.7c0.1,0.3,0.1,0.7-0.2,0.9c-1.2,0.9-2.5,0.6-3.8,0.6H81.1c-1.6,0-3.2-0.3-4.3,23.8
	c0,0-0.1,113.2-0.1,114.3c-0.1,0.2-0.3-110.4-0.3-110.4C76.3,88.8,77.1,83.9,76.8,79z"/>
<path class="st4" d="M145.6,79l-1.7-0.1c0.2-0.3,0.6-0.5,1-0.5c2.9-0.4,4.6-2.8,4.6-6.4c0-4.6-1.4-6.7-5-7.3c-0.2,0-0.4-0.3-0.6-0.4
	l17.2-0.1h11.4c3.5,0,6.8,3.7,5.9,9.1c-0.2,2.1-1.5,4-3.3,5c-0.7,0.3-1.5,0.5-2.3,0.7c-0.8,0.6-1.7,0.9-2.6,0.8c-4,0-8,0.1-11.9,0
	c-3.2,0.1-6.4,0-9.6,0C147.5,79.8,146.4,79.9,145.6,79z"/>
<path class="st3" d="M144.3,235.1H79.3c-0.9,0-1.7-0.1-2.6-0.1v-5.8c0.6-1,1.5-0.9,2.4-0.9h64.3c0.7-0.1,1.5,0.1,2.1,0.4
	c1.2,2,0.9,4,0.4,6.1C145.4,235.4,144.8,235.3,144.3,235.1z"/>
<path class="st4" d="M144.3,235.1l1.3-0.1c0.6-0.6,1.5-0.9,2.4-0.8c3.2,0,6.4-0.1,9.6,0c4.1-0.1,8.1,0,12.2,0
	c0.9-0.1,1.8,0.2,2.4,0.8c0.8,0.1,1.5,0.3,2.3,0.6c4.2,1.8,5.3,8.4,2.1,12.3c-0.5,0.6-1.3,0.8-1.4,1.9c-0.4,0.2-0.9,0.2-1.3,0
	c-0.7-0.8-1.5-0.4-2.3-0.4h-24.8c0.2-0.6,0.5-1.2,1.1-1.5c2.4-2.2,2-8.5-0.3-11C146.6,235.6,145.3,235.9,144.3,235.1z"/>
<path class="st5" d="M76.8,89.8c-0.1-0.8-0.1-1.6,0-2.4c0.8-0.3,1.7-0.4,2.6-0.2H155c0.9,0,1.7-0.1,2.6-0.1c0.3-0.4,0.7-0.6,1.1-0.6
	c4-0.2,8.1-0.2,12.1,0c0.5,0.1,1,0.3,1.3,0.8c0.2,0.9,0.2,1.8,0,2.7c-4.7,0-9.4-0.2-14.2,0.1c-0.7,0.6-1.5,0.9-2.4,0.8h-7.9
	c-0.8,0.1-1.6-0.2-2.2-0.8c-0.9,0-1.7-0.1-2.6-0.1L76.8,89.8z"/>
<path class="st6" d="M172.2,87.2l-14.6-0.1v-0.5c-0.9-2.6-1.3-5.2,0.4-7.6h14.6c-0.7,1.5-0.4,3.1-0.4,4.7
	C172.2,84.8,172.2,86,172.2,87.2z"/>
<path class="st6" d="M172.2,234.9c-4.9,0.2-9.7,0.1-14.6,0c-0.9-1.9-0.9-4.2,0-6.2c0.8-0.5,1.8-0.7,2.7-0.6h9.4
	c0.9,0,1.9-0.2,2.6,0.9L172.2,234.9z"/>
<path class="st0" d="M172.3,229.1l-14.6,0.1c-2.6,1.4-5.2,0.5-7.8,0.6c-1.4,0.1-2.9,0.4-4.2-0.7c-0.4,0-0.7-0.1-1.1-0.1H76.7
	c-0.4-0.9-0.5-1.9-0.3-2.8c0.1,0,0.2-0.1,0.3-0.1l0.1,0.1c1,1.5,2.3,1.2,3.6,1.3H168c1.4,0,3,0.5,4.2-1.2c0.1-0.1,0.1-0.1,0.2-0.2
	C172.9,227,172.8,228.2,172.3,229.1z"/>
<path class="st7" d="M102.2,191.8v19.3c0,6.1-2.7,10-7.4,10.5c-3.1,0.3-6.3-2.2-7.6-7.1c-0.4-1.6-0.5-3.2-0.5-4.8v-55.7
	c-0.1-1,0.4-0.8,0.9-0.8c2.4,0.7,4.8,1.3,7.2,1.8c2.8,0.5,5.4,1.7,7.5,3.4c0.3,0.7,0.3,1.5,0,2.2c-0.8,1-1.7,0.6-2.6,0.3
	c-2.2-0.7-4.4-1.1-6.6-2c2.6,1,5.2,1.5,7.7,2.7c0.8,0.4,1.7,0.5,2,1.8c-0.1,2.2,0,4.4-0.2,6.6c-0.2,1.6-1.3,2.2-2.2,2.9
	c-1.1,1-2,2.2-2.6,3.6c-1.4,3.4-0.8,7.3,1.6,10.1C100.6,188.1,102.2,189.3,102.2,191.8z"/>
<path class="st8" d="M102.6,163.3c-2-1.5-4.2-1.9-6.4-2.7c-1.3-0.4-2.6-0.9-3.8-1.7c0.7-0.7,1.3-0.4,1.8-0.3c2.6,0.6,5.2,1.6,7.9,2
	c1.3-0.6,2.5,0.4,3.7,0.6c1,0.7,2.2,0.6,3.2,1.4c-0.7-0.4-1.6-0.8-2.4-1c-1.4-1.3-3.1-1.9-4.5-3.1c-2.5-0.8-4.7-2.5-7.3-2.9
	c-0.4-1.5,0.5-1.5,1.2-1.8c2.1,0.3,4.2,0.2,6.1,1.8c2.6,1.1,5.2,1.3,7.8,2.2c0.5,0.7-0.1,2.2,1,2.4s1.3-1.2,1.9-1.8
	c1.4,0.6,2.9,0.9,4.4,1c3.5,0.1,7,0.6,10.4,0.7c3.4,0,6.7,0.6,9.9,1.6c1.8,0.6,3.8,1.1,4.8,3.6c0.3,0.7,0.8,0.6,1.3,0.5
	s1.3-0.3,1.9-0.4c2.2-1.3,4.4-0.4,6,1.1c2.1,2,4.4,3.4,6.4,5.5c0.7,0.9,1.4,1.8,2.1,2.8c1.8,2.4,2.1,5.3,1.8,8.4
	c0,1-0.4,1.9-1.1,2.5c-0.6,1.1-1,2.5-2.3,2.3c-3.2,0.3-6.4,1.2-9.6,0c-0.6-0.2-1.2-0.4-1.8-0.8c-1.3-0.6-2.1-1.9-2.2-3.4
	c-0.1-1.9,1.1-2.3,2.1-3c0.8-0.5,1.7-1.1,2.4-1.7c1.5-1.5,2.6-3.2,3.4-5.2c0.1-0.2,0.2-0.3,0.3-0.5l-0.2,0.4c-0.8,2-1.9,3.7-3.4,5.2
	c-3.2,2.8-6.7,4.3-10.6,2.7c-0.6-0.2-1.1-0.6-1.4-1.1c-0.1-1.1,0.5-1.6,1-2.2c1.8-2.2,3-4.8,3.6-7.6c0.1-0.9-0.4-0.6-0.1-0.6
	c-0.4,4-2.3,6.8-4.5,9.4c-0.4,0.5-0.7,1-1.2,1c-3,1.7-5.9,0.6-8.9,0c-0.4,0-0.7-0.2-0.9-0.6c-0.8-0.5-1.6-0.8-2.5-1
	c-0.4,0-0.7-0.3-0.9-0.6c-0.7-0.4-1.3-1-2.1-1c-0.4,0-0.7-0.3-0.9-0.6c-0.4-0.5-0.8-0.8-1.4-1.1c-0.4-0.4-1.1-0.2-1.3-1l-0.8-0.6
	c-0.3-0.3-0.6-0.2-0.9-0.4c-0.4-0.3-0.6-0.7-0.8-1.2c-1.1-1.2-2.4-2-3-3.8l0.2-0.3c1.2-0.8,2.1-1.9,2.9-3.1c-0.5,0.9-1.2,1.6-2,2.3
	c-0.8,0.5-1.7,0.7-2.7,0.6c-0.2,0-0.4-0.1-0.6-0.1C107,166.8,104.4,165.9,102.6,163.3z"/>
<path class="st9" d="M158,172.2c-1.4-0.5-2.5-1.8-4-1.7c-0.4,0-0.6-0.4-0.7-0.9c-0.5-1.4-1.7-2.6-3.1-3c-1.5-0.6-3-0.9-4.6-1V89.9
	c4.2-0.2,8.3-0.1,12.5,0c-0.4,0.9-0.5,1.9-0.4,2.9v76.4C157.6,170.3,157.7,171.2,158,172.2z"/>
<path class="st9" d="M157.6,195v30.6h-10.1c-2,0-2,0-2-2.7v-19.6l0.2-0.3c3.1-1.2,6.1-2.8,8.2-6.1
	C155.1,196.2,156.1,194.9,157.6,195z"/>
<path class="st7" d="M102.1,155.7l-6-1.1c-2.7,0.3-5.3-0.6-7.9-0.6c-0.5-0.4-1-0.7-1.6-1v-48.8c0-5.1,2.2-8.8,5.9-10.1
	c2.8-1,6.6,0.6,8.1,3.8c1,1.9,1.5,4,1.5,6.1C102.1,113.9,102.1,145.8,102.1,155.7z"/>
<path class="st10" d="M172.2,226.3c0,2.2,0,2.3-1.9,2.3c-19.4,0-38.8,0-58.1,0.1H78.5c-1.6,0-1.6,0-1.7-2.4c0.6,0,1.1-0.1,1.7-0.1
	h92.2C171.2,226.2,171.7,226.3,172.2,226.3z"/>
<path class="st11" d="M120.3,193l5.9,4.3c0.8,0.6,1.4,1.3,1.9,2.2c0.3,1.5,0.2,3-0.5,4.4c-3.8,0.1-7.6-0.6-11.2-2
	c-0.1-0.6-0.9-0.3-0.8-1s0.6-0.8,1-0.8c1.3,0,2.5,0.6,3.8,0.8c1.5,0.4,3.1,0.4,4.1,1c-0.6-0.1-1.7-0.7-2.8-0.7
	c-2.6-0.6-5.2-1.2-7.8-2c-0.6-0.2-1.1-0.4-1.6-0.8c-0.6-0.3-1-1-0.8-1.7c0.2-0.9,0.9-0.8,1.4-0.7c2.5,0.6,5,1.7,7.4,2.6
	c1.5,0.8,3.2,1,4.6,1.9c-1.2-0.6-2.5-1.1-3.8-1.5c-3-1.3-6.1-2.1-8.9-3.7c-0.4-0.2-0.8-0.4-1.2-0.6c-0.6-0.4-1.2-1-0.8-1.9
	s1-0.7,1.5-0.5c2,0.7,3.9,1.8,5.8,2.7c0.7,0.3,1.4,0.7,2,1.1c1.5,0.8,3.1,1.4,4.6,2.3c-1.3-0.7-2.6-1.4-3.9-1.9
	c-2.9-1.6-5.8-2.9-8.6-4.8c-0.8-0.3-1.2-1-1.2-1.8c0.1-1,0.8-0.9,1.3-0.7c1.8,0.6,3.6,1.4,5.3,2.4l0,0c0.7,0.5,1.5,0.6,2.1,1.1l0,0
	C119.6,192.7,120,192.6,120.3,193z"/>
<path class="st12" d="M120.7,201.2c-1.6,0.2-3.1-0.8-4.7-0.6c-0.1,0.6,0.4,0.8,0.4,1.2c-4.1-1-6.5-3.9-7.1-9.3
	c-0.4-3.8,0.4-5,3.2-3.9c0.1,0.5,0,0.8-0.4,0.5c-0.4,0.1-0.9-0.2-1.1,0.5s0.3,0.8,0.6,1l9.1,5.1c0,1-0.3,0.9-0.8,0.5l-6.7-2.9
	c-0.6-0.3-1.2-0.6-1.8-0.8c-0.3-0.1-0.6-0.1-0.8,0.2c-0.1,0.4,0,0.9,0.4,1.1c0.2,0.1,0.4,0.2,0.6,0.3l9.8,4.4c0,1-0.3,0.9-0.8,0.5
	l-8.8-2.6c-0.1,0.9,0.2,1.3,0.7,1.4c3.1,1.1,6.2,2.1,9.3,2.8C121.8,202,121.1,201.3,120.7,201.2z"/>
<path class="st13" d="M149.9,179.2c-1,1.1-2.3,2.1-3.6,2.8c-1.4,0.9-1.5,2-0.5,3.4c0.5,0.7,1.2,1.2,2,1.5c2.6,1.1,5.5,1.3,8.2,0.6
	c0.8-0.1,1.7-0.2,2.6-0.2c-0.8,2.1-2.4,1.6-3.7,1.8c-2.3,0.3-4.7-0.1-7,0.2c-1.5,0.1-3.1,0.6-2.9,3.3c0.1,0.4-0.1,0.8-0.4,1.1
	c-0.4,0.2-0.9,0.1-1.2-0.2c-0.5-0.4-0.8-0.9-1-1.5c-0.1-0.6,0-1.3,0.4-1.8c0.2-0.3,0.4-0.6,0.6-0.8c0.6-0.6,1-1.6,1.9-1.4
	c0.2-0.1,0.4-0.4,0.2-0.6c-0.9-0.9-1.5-2.1-1.7-3.4c-0.2-0.8-0.9-0.9-1.4-0.8c-1.4,0.1-2.7-0.1-4-0.6c-0.9-0.2-1.7-0.8-2.1-1.6
	c0.1-0.5,0.5-0.9,0.9-1.1c0.4-0.1,0.6,0,0.5,0.6c2.8,2.4,5.7,1.9,8.6,0.5c1.2-0.7,2.3-1.4,3.4-2.2
	C149.9,178.5,150,178.7,149.9,179.2z"/>
<path class="st7" d="M102.2,172.2v15.2c-2-0.6-3.7-3.2-3.9-6.2c-0.4-2.9,0.4-5.8,2.2-8.1C101,172.6,101.4,171.8,102.2,172.2z"/>
<path class="st14" d="M142.6,191.8l0.9,1.1c-0.8,0.9-1.9,1-2.8,1.9c-1.4,1.6-1.5,2.2-0.3,4c1.1,1.6,2.7,2.7,4.5,3.4
	c0.4,0.2,0.8,0.4,0.6,1.1v0.1l-1.3-0.1c-0.2,0.3-0.5,0.2-0.8,0.2c-0.4,0-0.8-0.1-1.1-0.2c-0.3-0.1-0.6-0.2-0.9-0.3
	c-1.4-0.8-2.7-1.8-3.8-3c-2.5-2.9-7.3-1.5-8.7,2.5c0,0.7-0.2,1.3-0.6,1.8l-0.8-0.6c-0.2-1.5,0-3,0.5-4.4c2.6-1.8,5.3-2.9,8.3-2.7
	c1.2,0.1,1.4-1.4,2-2.2c0.3-1.1,1.2-1.5,1.9-2.1c0.3-0.2,0.6-0.4,1-0.6C141.6,191.8,142.1,191.5,142.6,191.8z"/>
<path class="st15" d="M100.9,173.2c-1,1.7-2.1,3.2-2.2,5.5c-0.4,3.3,0.9,6.6,3.4,8.7c1.1,1.7,2.8,2.6,4,4c3,3.3,4.4,7.6,4.9,12.5
	c-1.3-6.5-4.1-11.7-8.9-14.8c-3.7-2.4-5.2-6.6-4.4-12.5c-0.1-0.2-0.2-0.4-0.3-0.5c0.6-1.3,1.4-2.4,2.5-3.3
	C100.3,172.7,100.7,172.9,100.9,173.2z"/>
<path class="st16" d="M97.5,176h0.4c-1.4,5.5,0.6,9.4,3.8,12.8c0.2,0.3,0.4,0.6,0.5,0.9c1,1.9,1.9,3.9,2.5,6
	c0.6,2.7,0.7,5.4,0.3,8.1c-0.1-2-0.3-4.1-0.7-6.1c-0.5-2.1-0.8-4.2-2.1-5.8c-0.6-1.8-1.7-2.9-2.7-4.2c-1-1.1-1.7-2.3-2.3-3.6
	C96.2,181.5,96.3,178.6,97.5,176z"/>
<path class="st17" d="M128.4,204.4v-2.1c0.5-0.5,0.8-0.2,1.1,0.4c0.9,2.1,2.6,1.9,4.1,2.1c2.3,0.2,4.6,0,6.8-0.8
	c0.7-0.2,1.4-0.6,2.1-0.2c0.2,0.2,0.2,0.5,0.1,0.7c-4,2.2-8.1,2.8-12.4,1.1C129.4,205.4,128.8,205,128.4,204.4z"/>
<path class="st18" d="M142.6,191.8c-0.3,0.3-0.8,0.5-1.3,0.6c-1.4-0.4-3.2,0.4-4.3-1.6l-0.1-0.5c-0.2-0.7,0.2-0.9,0.5-1.1l0.8-0.1
	c1.7-0.8,3.4-0.8,4.6,1.2L142.6,191.8z"/>
<path class="st19" d="M145.1,187.9l-1.7,1.6c-1.5-0.1-3-0.7-4.3-1.6v-0.1c-0.1-0.4,0.1-0.9,0.5-1
	C141.6,185.8,143.4,186.4,145.1,187.9z"/>
<path class="st20" d="M100.9,173.2c-0.4,0-0.7-0.2-0.9-0.6c0.6-1,1.7-1,2.2-2.1c2.1-2.1,4.4-3.5,7.2-2.9h0.5
	c0.4,0.8,1.6-0.5,1.7,1.1h-0.1c-3.4,0.1-6.6,0.6-9.4,3.3L100.9,173.2z"/>
<path class="st21" d="M102.1,189.7c-1.6-1.6-3-3.5-4-5.5c-1.2-2.6-1.2-5.6-0.1-8.2c0.2,0,0.5-0.5,0.7,0.1c0,0.2-0.1,0.5-0.2,0.8
	c-1.2,3.8-0.1,6.9,1.9,9.7l1.9,2.6C102.2,189.3,102.2,189.5,102.1,189.7z"/>
<path class="st19" d="M140.4,192.9l-2.1,1.7c-0.3-0.4-0.9-0.6-1.4-0.5c-0.8,0-1.6-0.3-2.1-1c0-0.7,0.5-0.8,0.9-1.1l0.4-0.1
	C137.7,191.6,139.2,190.9,140.4,192.9z"/>
<path class="st22" d="M112.8,158.5c0.1,0.6-0.1,1.2-0.3,1.8c-0.5,0.9-1.2,1.2-2,0.8c-0.9-0.5-1.2-1.6-0.7-2.4
	c0.1-0.2,0.2-0.5,0.2-0.8c0.1,0.1,0.2,0.1,0.3,0c0.2,0.3,0.4,0.2,0.5-0.1C111.8,156.7,112.2,158,112.8,158.5z"/>
<path class="st23" d="M114.6,174.2c-2.1,0-4.1,0.8-5.6,2.2c-1.1,1-2.2,1.9-2.3,4c-0.5-1.5-0.1-3.2,1.2-4.2c1.7-1.5,3.7-2.5,5.9-3
	C114,173.6,114.8,173.3,114.6,174.2z"/>
<path class="st24" d="M123.2,179.9c-0.6,0.9-1.3,1.7-1.9,2.6c-1.7,1.9-1.9,4.7-0.6,6.9c-1.8-1.1-1.8-1.2-1.5-3.5
	c0.3-1.9,0.7-3.6,2.2-4.7c0.4-0.4,0.7-0.9,1-1.4C122.7,179.5,123,179.4,123.2,179.9z"/>
<path class="st25" d="M117.2,176.4c-2,0.7-3.8,2.1-5,3.9c-0.8,1.2-1.4,2.2-1,3.8c-1-2.1-0.8-2,0.1-3.8c1.1-2.2,3.1-3.8,5.4-4.5
	C117.1,175.6,117.2,176,117.2,176.4z"/>
<path class="st26" d="M126.7,181.5c0,0.3-0.1,0.5-0.2,0.8c-1.6,2.1-1.7,4.6-1.5,7.3c0.1,0.5,0,0.8-0.5,0.6c-0.8-2.2-0.7-4.6,0.4-6.6
	c0.4-0.7,0.8-1.5,1.2-2.2C126.4,181.2,126.6,181.2,126.7,181.5z"/>
<path class="st27" d="M135.7,191.9c-0.2,0.5-0.5,0.8-0.9,1.1h-3.4c-1.1,0-2.2,0.9-3.4,0.4C130,192.2,132.4,191.7,135.7,191.9z"/>
<path class="st28" d="M115.1,185.9c-0.5-0.6-0.6-1.5-0.2-2.2c1-2.1,1.9-4.4,3.9-5.2c0.2-0.1,0.4-0.2,0.6-0.4
	c0.2-0.2,0.3-0.2,0.5,0.1c-0.1,0.2-0.2,0.5-0.4,0.6c-2.4,1.1-3.4,3.7-4.3,6.4C115.3,185.4,115.2,185.7,115.1,185.9z"/>
<path class="st29" d="M139.6,186.9l-0.5,1c-1.3-0.6-2.8-0.6-4.2-0.2c-0.8,0.3-1.6,0.3-2.4,0.1c2.2-1.3,4.4-0.7,6.5-1.4
	C139.2,186.4,139.4,186.7,139.6,186.9z"/>
<path class="st30" d="M86.7,152.9c0.5,0,1-0.1,1.3,0.6c-0.1,0.2-0.3,0.2-0.4,0c-0.4,0-0.7,0.2-0.9,0.6c-1.6-0.9-3.4-1-5.3-2.6
	C83.5,151.8,85,152.9,86.7,152.9z"/>
<path class="st31" d="M137.5,189.2c-0.2,0.4-0.4,0.7-0.5,1.1h-4.7c-0.4,0.2-0.5,0-0.4-0.5C133.8,189.8,135.6,188.7,137.5,189.2z"/>
<path class="st32" d="M112,189.1l0.4-0.5c1.8,0.5,3.4,1.4,4.8,2.7C115.4,190.9,113.8,189.8,112,189.1z"/>
<path class="st33" d="M139.1,188c1.4,0.7,2.9,0.6,4.3,1.6c-0.1,0.2-0.3,0.4-0.5,0.6c-1.4-0.8-3-1.2-4.6-1.2L139.1,188z"/>
<path class="st34" d="M140.4,192.9c-1.3-1.3-2.8-1-4.3-1.1l0.9-1.1c0.7,0.4,1.4,0.6,2.2,0.6c0.8,0.1,1.5,0.4,2.1,1L140.4,192.9z"/>
<path class="st35" d="M124.5,190.2l0.5-0.6c1,0.6,1.8,1.4,2.5,2.2l0,0C126.3,191.8,125.2,191.2,124.5,190.2z"/>
<path class="st36" d="M131.9,189.7c0.1,0.2,0.3,0.4,0.4,0.5c-0.8,0.9-1.7,0.3-2.6,0.1L131.9,189.7z"/>
<path class="st37" d="M115.1,185.9c0-0.2,0-0.4,0-0.6c0.6,1,1.1,2.2,1.4,3.4C115.6,187.9,115.1,186.9,115.1,185.9z"/>
<path class="st38" d="M119.4,192.4c-0.9,0.1-1.7-0.4-2.1-1.1C118.1,191.2,118.9,191.6,119.4,192.4z"/>
<path class="st39" d="M114.6,174.2l-0.8-1c0.3-0.1,0.7-0.2,0.8-0.6c0.4,0.2,0.8,0.6,0.9,1c-0.1,0.3-0.3,0.3-0.5,0.5L114.6,174.2z"/>
<path class="st40" d="M117.2,176.4c-0.2-0.2-0.3-0.4-0.5-0.5l0.5-1c0.5,0.3,1,0.4,1.3,1L117.2,176.4z"/>
<path class="st41" d="M123.2,179.9l-0.8-0.1l0.4-1.1c0.4,0,0.8,0.2,0.9,0.6L123.2,179.9z"/>
<path class="st42" d="M119.8,178.2l-0.5-0.1l0.5-1.1c0.3-0.1,0.7,0,0.8,0.4c0.1,0.3,0,0.7-0.4,0.8
	C120.2,178.2,120,178.2,119.8,178.2L119.8,178.2z"/>
<path class="st43" d="M142.6,204.4v-0.6c-0.3-0.3-0.3-0.7-0.1-1c0.4-0.2,0.8,0,1,0.4c0,0,0,0,0,0v0.2l-0.1,0.1h0.2v0.2
	C143.3,204.2,143,204.4,142.6,204.4z"/>
<path class="st44" d="M110.8,157.8c0.4,0.2,0.5,0.7,0.1,0.9s-0.6-0.3-0.6-0.7L110.8,157.8z"/>
<path class="st45" d="M126.7,181.5l-0.5-0.1c0-0.4,0-0.7,0.1-1.1c0.4,0,0.8,0.2,0.9,0.6L126.7,181.5z"/>
<path class="st23" d="M115.1,174.2l0.5-0.5c0.4,0,0.7,0.2,0.8,0.5L115.1,174.2z"/>
<path class="st43" d="M143.4,203.3h0.8c-0.1,0.3-0.5,0.6-0.8,0.6l-0.1-0.1C143.3,203.7,143.3,203.5,143.4,203.3L143.4,203.3z"/>
<path class="st46" d="M120.3,193c-0.4,0-0.8-0.2-0.9-0.6C119.7,192.4,120.1,192.6,120.3,193z"/>
<path class="st35" d="M127.5,191.8c0.1,0,0.1,0.1,0.2,0.1C127.7,192.1,127.6,192.1,127.5,191.8L127.5,191.8z"/>
<path class="st8" d="M144.7,192.9c-1-1.4-1-1.9-0.1-2.8c0.8-1,2-1.6,3.3-1.7c2.2,0.1,4.4,0.1,6.6,0c1.4,0,2.8-0.4,4.1-1.1
	c1.1,0.4,1.5-1.1,2.2-1.6c0.2,3.7-1.4,6.5-3.2,9.2c-1,0.9-2.2,1.7-3.4,2.3c-0.2,0.2-0.4,0.3-0.6,0.2c-2.2-0.6-4.3-1.4-6.3-2.3
	C146.3,194.7,145.2,194.3,144.7,192.9z"/>
<path class="st47" d="M96.7,245.4H82.1c-0.5,0.1-1,0.1-1.5,0c-1.3-0.4-2.1-1.6-2.1-3c0-1.6,0.7-2.7,2-3c0.5-0.1,1-0.1,1.5-0.1h29.4
	c0.5,0,1,0,1.5,0.1c1.3,0.2,2.1,1.3,2.1,2.9c0.1,1.3-0.7,2.6-2,3c-0.5,0.1-1,0.1-1.5,0.1L96.7,245.4z"/>
<path class="st47" d="M97,68.5h14.2c0.5,0,1,0,1.5,0c1.5,0.2,2.3,1.2,2.4,2.9c0.2,1.5-0.9,3-2.4,3.2c-0.4,0-0.7,0-1.1,0H82
	c-0.9,0-1.8,0.2-2.6-0.8c-0.8-0.9-1-2.1-0.7-3.2c0.1-1,0.9-1.8,1.8-2c0.6-0.1,1.1-0.1,1.7-0.1L97,68.5z"/>
<path class="st48" d="M158.1,79c-0.7,1.5-0.4,3.1-0.4,4.7v2.9h-10.3c-1.7,0-1.7-0.1-1.7-2.1V79H158.1z"/>
<path class="st48" d="M145.6,229.1h12v5.8h-12V229.1z"/>
<path class="st49" d="M109.4,167.7c-1.9,0.4-3.8,1.1-5.4,2.1c-0.5,0.4-1.2,0.7-1.8,0.7v-5.3c-0.1-0.7,0-1.4,0.4-2L109.4,167.7z"/>
<path class="st50" d="M87.6,153.5H88c2.5-0.3,5,0.6,7.5,0.6c0.2,0,0.5,0.3,0.7,0.5c-0.6,0.1-1.3,0-1.3,1.1c-1.1,0.2-2.3-0.1-3.2-0.8
	c-0.8-0.6-1.8-0.2-2.7-0.3C88.3,154.6,87.7,154.6,87.6,153.5z"/>
<path class="st51" d="M102.2,158.5c1.8,0.3,3.5,1.2,4.7,2.7c0.1,1-0.4,0.8-0.9,0.6c-1.4-0.1-2.7-0.5-3.9-1.2
	C102.2,159.9,102.2,159.2,102.2,158.5z"/>
<path class="st12" d="M115,170.9c3.3,2.2,6.8,4,10.4,5.6c2.1,0.9,4.3,1.3,6.5,1.2c1.4-0.1,2.8-0.7,3.7-1.8c2.6-2.6,4.2-6,4.5-9.6
	c0-0.4,0.2-0.7,0.6-0.8c0.6,1.4,0,2.8-0.2,4.1c-0.7,4-2.3,7.2-5,9.4c-1.1,1-2.6,1.5-4.1,1.3C125.1,179.2,119.8,175.6,115,170.9z"/>
<path class="st52" d="M117.7,161.1c5.9,0.8,11.8,1.2,17.6,2.8c0.9,0.2,1.7,0.5,2.4,1c0.4,0.2,0.6,0.6,0.5,1.1
	c-0.1,0.4-0.4,0.7-0.8,0.6c0,0,0,0,0,0l0,0c-0.7-0.1-1.4-0.2-2.1-0.5c-4.2-2-8.6-2.3-13-3.2c-1.8-0.4-3.7-0.8-5.5-1.2
	C116.8,160.6,117.3,161,117.7,161.1z"/>
<path class="st52" d="M158.9,186c1-6.1-0.7-10.5-4.9-13.4c2.7-0.2,5,2.2,5.9,5.8C160.8,181.4,160.4,184.5,158.9,186z"/>
<path class="st53" d="M151.8,171.1c-2.5-3.2-5.7-3.1-8.9-3.4C145.1,165.2,150.9,167.3,151.8,171.1z"/>
<path class="st54" d="M137.4,180.4l-0.5-0.6c1.4-2.2,3.3-4.1,4-6.9c0.3-1,0.7-1.9,1-2.9C141.9,173.9,140.3,177.6,137.4,180.4z"/>
<path class="st55" d="M111.7,168.8c-0.4-0.9-1.4-0.2-1.7-1.1c2.6,0,3.5-0.8,4.9-3.8C115.2,166.1,113.8,168.3,111.7,168.8z"/>
<path class="st56" d="M149.9,179.2l-0.5-0.6c1.1-1.6,2.3-3.3,3.5-4.9l0,0C152.6,175.9,151.6,177.9,149.9,179.2z"/>
<path class="st57" d="M106,161.8c0.3-0.1,0.7-0.1,0.9-0.6l2.6,1.2C108.3,162.6,107,162.4,106,161.8z"/>
<path class="st58" d="M117.7,161.1c-0.3,0.1-0.7,0.1-0.9,0.5l-1.8-0.5C115.8,160.5,116.9,160.5,117.7,161.1z"/>
<path class="st56" d="M152.9,173.8l0.2-0.7C153.4,173.4,153.1,173.6,152.9,173.8z"/>
<path class="st59" d="M153.8,197.3h0.4c-2.1,3.7-5,5.7-8.6,6c-0.2-0.3-0.5-0.5-0.8-0.5c-0.1-0.2-0.1-0.5,0-0.7
	c1.9-0.7,3.9-0.9,5.5-2.5c0.5-0.5,1.3-0.8,0.9-2c0.3-0.7,0.9-0.7,1.4-0.7C152.9,196.8,153.4,197,153.8,197.3z"/>
<path class="st60" d="M119.8,196.2c0.4,0,0.7-0.2,0.8-0.5l4,2.3C122.9,197.9,121.2,197.3,119.8,196.2z"/>
<path class="st61" d="M120.7,199c0.4,0,0.7-0.2,0.8-0.5l4,1.8C123.8,200.3,122.1,199.9,120.7,199z"/>
<path class="st62" d="M120.7,201.2c0.4-0.1,1,0.1,1.2-0.5c1.2,0.2,2.4,0.7,3.4,1.4C123.8,201.9,122.1,202,120.7,201.2z"/>
<path class="st8" d="M144.7,202.3v0.5c-2.3-0.8-4.2-2.4-5.5-4.5c-0.6-0.8-0.6-1.9,0-2.7c1.2-1.4,2.3-3,4.2-2.7
	c0.1,0.3,0.5,0.6,0.9,0.6c2.6,1.1,5.2,2.7,8,3.1c0.2,0,0.2,0.4,0.2,0.7c-0.5,0-1-0.1-1.3,0.5c-1,2.7-3,3.3-4.9,4
	C145.7,201.9,145.1,201.4,144.7,202.3z"/>
<path class="st63" d="M152.5,197.3l-4.4-1.6c-1.4-0.4-2.8-1.1-3.8-2.2l0.4-0.6c2.3,1.6,4.9,2.7,7.6,3.3c0.6,0.1,1.1,0.5,1.4,1H152.5
	z"/>
<path class="st64" d="M129.3,202.6c-0.2-0.3-0.5-0.4-0.9-0.4c0.8-3.5,3.2-3.8,5.4-4.3c1.8-0.6,3.8,0.2,4.6,2
	c0.8,1.5,2.4,1.6,3.3,2.9c-0.9,2-2.6,1.5-4,1.9c-2.4,0.7-4.9,0.5-7.1-0.6C130,203.9,129.4,203.6,129.3,202.6z"/>
<path class="st65" d="M129.3,202.6c1.8,1.8,3.9,1.8,6.1,1.8c2.2,0,4.4-0.5,6.4-1.6l0.8,0.1l0.1,1c-3.7,1.4-7.5,2.3-11.3,1.1
	c-0.8-0.2-1.5-0.6-2.1-1.1C128.7,203.4,128.7,202.9,129.3,202.6z"/>
<path class="st64" d="M143.4,203.3c0,0.2,0,0.3,0,0.5c-0.1,0-0.2-0.2-0.2-0.3v-0.1C143.3,203.4,143.4,203.4,143.4,203.3z"/>
<path class="st66" d="M153.6,196.1c-0.1-0.2-0.1-0.4,0.1-0.6l0.1-0.1c2-1,3.1-3.1,4.1-5.4c0.2-0.5,0.4-0.9,0.7-1.4
	c0.1-0.2,0.4-0.2,0.6-0.1c0.2,0.2,0.2,0.4,0.2,0.7C159.1,192.1,156,195.8,153.6,196.1z"/>
<path class="st67" d="M144.7,202.3c-0.4-0.5-0.1-0.9,0.2-0.9c2.5,0,4.4-1.7,6.2-3.6c0.3,0,0.8-0.2,1,0.2s-0.1,0.7-0.3,0.9
	C149.8,200.9,147.6,202.7,144.7,202.3z"/>
<rect class="st68" width="250" height="250"/>
<rect x="76.3" y="100.9" class="st69" width="95.9" height="37.6"/>
<rect x="158.1" y="100.9" class="st70" width="14.1" height="37.6"/>
<rect x="145.7" y="100.9" class="st70" width="26.5" height="37.6"/>
<g>
	<path class="st1" d="M88.4,110.5h5.8c4.1,0,7.1,1.4,7.1,5.6c0,4.1-3,5.9-7,5.9h-2.6v6.7h-3.2V110.5z M94,119.5c2.7,0,4-1.1,4-3.3
		c0-2.3-1.4-3-4.1-3h-2.3v6.4H94z"/>
	<path class="st1" d="M104.4,115.1h2.6l0.2,2.5h0.1c1-1.8,2.4-2.8,3.9-2.8c0.7,0,1.1,0.1,1.6,0.3l-0.6,2.8c-0.5-0.1-0.8-0.2-1.4-0.2
		c-1.1,0-2.4,0.8-3.2,2.8v8.4h-3.2V115.1z"/>
	<path class="st1" d="M113.4,125.1c0-2.9,2.4-4.5,8.1-5.1c0-1.5-0.6-2.7-2.5-2.7c-1.4,0-2.7,0.6-3.9,1.4l-1.2-2.2
		c1.5-1,3.5-1.8,5.6-1.8c3.4,0,5.1,2.1,5.1,5.9v8.1h-2.6l-0.2-1.5h-0.1c-1.2,1.1-2.6,1.9-4.3,1.9
		C115.1,129.1,113.4,127.5,113.4,125.1z M121.5,125.1V122c-3.7,0.5-5,1.4-5,2.8c0,1.2,0.8,1.7,2,1.7
		C119.6,126.6,120.5,126.1,121.5,125.1z"/>
	<path class="st1" d="M127.2,115.1h3.2l1.7,7.1c0.3,1.3,0.5,2.6,0.7,4h0.1c0.3-1.3,0.5-2.7,0.9-4l1.8-7.1h2.9l1.8,7.1
		c0.3,1.3,0.6,2.6,0.9,4h0.1c0.3-1.3,0.5-2.6,0.7-4l1.6-7.1h3l-3.5,13.8h-3.8l-1.6-6.4c-0.3-1.3-0.5-2.6-0.8-4h-0.1
		c-0.3,1.4-0.5,2.7-0.8,4l-1.6,6.4h-3.7L127.2,115.1z"/>
	<path class="st1" d="M149.5,115.1h2.6l0.2,1.9h0.1c1.2-1.2,2.6-2.2,4.5-2.2c2.9,0,4.2,2,4.2,5.5v8.6H158v-8.2
		c0-2.3-0.7-3.1-2.1-3.1c-1.2,0-2,0.6-3.1,1.7v9.6h-3.2V115.1z"/>
</g>
</svg>
