<svg id="Layer_1" data-name="Layer 1" xmlns="http://www.w3.org/2000/svg" viewBox="0 0 250 250"><defs><style>.cls-1{fill:#ffd401;}.cls-2{fill:#929293;}.cls-3{fill:#b5b8bc;}.cls-4{fill:#949493;}.cls-5{fill:#818282;}.cls-6{fill:#caccd1;}.cls-7{fill:#c8cbcd;}.cls-8{fill:#b3b6ba;}.cls-9{fill:#afb1b5;}.cls-10{fill:#db1703;}.cls-11{fill:#ffea7f;}.cls-12{fill:#619807;}.cls-13{fill:#b0cc82;}.cls-14{fill:#629808;}.cls-15{fill:#7e8081;}.cls-16{fill:#c01b00;}.cls-17{fill:#4c8003;}.cls-18{fill:#a3a5a9;}.cls-19{fill:#c0c3c2;}.cls-20{fill:#d1d3d3;}.cls-21{fill:#e3e7e5;}.cls-22{fill:#dbdfdd;}.cls-23{fill:#dde0df;}.cls-24{fill:#d88682;}.cls-25{fill:#ed8b82;}.cls-26{fill:#ed8a80;}.cls-27{fill:#b21003;}.cls-28{fill:#d72610;}.cls-29{fill:#ef1106;}.cls-30{fill:#9b1001;}.cls-31{fill:#8ba810;}.cls-32{fill:#8ca80f;}.cls-33{fill:#92980f;}.cls-34{fill:#ff0a03;}.cls-35{fill:#af0f02;}.cls-36{fill:#afb0b2;}.cls-37{fill:#c8c9cb;}.cls-38{fill:#c3c6c8;}.cls-39{fill:#c6c7ca;}.cls-40{fill:#b7b8b9;}.cls-41{fill:#d4d7d7;}.cls-42{fill:#ced0d0;}.cls-43{fill:#dcdfdf;}.cls-44{fill:#d3d5d4;}.cls-45{fill:#e6eae8;}.cls-46{fill:#e5e9e7;}.cls-47{fill:#a4a8a8;}.cls-48{fill:#a3a7a8;}.cls-49{fill:#a7a9aa;}.cls-50{fill:#e3e7e7;}.cls-51{fill:#a3a4a5;}.cls-52{fill:#a2a5a6;}.cls-53{fill:#dbdedd;}.cls-54{fill:#aeafb0;}.cls-55{fill:#a3bf17;}.cls-56{fill:#b03d16;}.cls-57{fill:#d2d28c;}.cls-58{fill:#d5c38a;}.cls-59{fill:#97930e;}.cls-60{fill:#a3be17;}.cls-61{fill:#9c0f01;}.cls-62{fill:#d2d4d4;}.cls-63{fill:#a4a6a7;}.cls-64{fill:#dee1e0;}.cls-65{fill:#b9bdbc;}.cls-66{fill:#b9bdbd;}.cls-67{fill:#a2a3a6;}.cls-68{fill:#b1b3b4;}.cls-69{fill:#b7bab9;}.cls-70{fill:#fd6a5e;}.cls-71{fill:#e22728;}.cls-72{fill:#c62425;}.cls-73{fill:#e12726;}.cls-74{fill:#e32c2c;}.cls-75{fill:#e01315;}.cls-76{fill:#eb4948;}.cls-77{fill:#ec4d49;}.cls-78{fill:#dc0b08;}.cls-79{fill:#e94844;}.cls-80{fill:#e12b2a;}.cls-81{fill:#e33435;}.cls-82{fill:#f04542;}.cls-83{fill:#e01012;}.cls-84{fill:#df1010;}.cls-85{fill:#e20e11;}.cls-86{fill:#fa544b;}.cls-87{fill:#f94c45;}.cls-88{fill:#f84840;}.cls-89{fill:#f89171;}.cls-90{fill:#f58060;}.cls-91{fill:#f58160;}.cls-92{fill:#f48060;}.cls-93{fill:#f89170;}.cls-94{fill:#f79170;}.cls-95{isolation:isolate;}.cls-96{fill:#ffc300;}.cls-97{fill:none;}</style></defs><title>products</title><path class="cls-1" d="M40.94,230.85V215.64c.51-.4.52-1.06.83-1.58,4.59-5.46,10.79-8.51,17-11.44,1.59-.74,3.31-1.18,4.09,1.2a274.09,274.09,0,0,1-.08,36.59c-.66,1.67-2.09,1.64-3.46,1.4-5.33-.91-10.48-2.39-15-5.37C42.35,235.17,40.8,233.52,40.94,230.85Z"/><path class="cls-2" d="M41.39,214.82l-.47.82a5.9,5.9,0,0,1-.41-3.19V62.1c.8-4.63.81-4.65,4.46-2.31,7.68,4.92,16.47,6,25.19,7.52,10.47,1.79,21,2.47,31.49,3.26,4.56,1,9.18.24,13.76.48,1.93.11,4-.3,5.66,1.29,1,3.5-1.36,3.88-3.87,4-4.92.23-9.86,0-14.78.14-7.16.41-14.27-.31-21.37-1.12-6.26-1-12.59-1.6-18.81-3-5.74-1.59-11.72-2.62-17-5.72-2.36-1.36-2.58.06-2.58,1.88,0,5.1,0,10.2.08,15.3.36,20.87.11,41.74.16,62.6q.07,30.36,0,60.73C42.88,209.81,43.17,212.52,41.39,214.82Z"/><path class="cls-3" d="M120.83,72.37c-5.1,0-10.2,0-15.3-.06-1.49,0-3.12.41-4.41-.83,1.71-1.83,4-1.19,6-1.36,4.08-.31,8.24.7,12.24-.76,6.27-1.3,12.59-.85,19-1.07,15.05-.48,30-1.93,44.64-5.54a42,42,0,0,0,7.49-2.51c1.87-.86,3.77-2,3.82-4.28s-2.06-2.91-3.66-3.79c-.81-.45-1.65-.85-2.48-1.29-1-.73-2.33-1.2-2-2.85,3.35.2,6.23,1.74,9.12,3.24,3.51,1.82,5.11,4.61,5,8.72-.18,6.21,0,12.43,0,18.64V209.14c0,7.61-.05,15.22-.1,22.84,0,1.35.36,2.83-.87,3.93a4.81,4.81,0,0,1-1.35-3.22q-.24-9.3,0-18.61c-.35-30.3-.11-60.6-.14-90.9,0-14-.22-28,.13-41.94-.16-5.74-.09-11.46,0-17.18-.47-2.05-1.74-1.2-2.84-.71-15.91,7.07-32.94,8.17-49.94,9.31-6.16.43-12.31,1.52-18.53,1.06C124.54,73.53,122.47,73.84,120.83,72.37Z"/><path class="cls-4" d="M40.94,230.85c1.07,3.71,4.28,5.06,7.35,6.39A57.56,57.56,0,0,0,62,241.11c3.88-1.36,7.59.64,11.39.83,2.63.12,5.19.88,7.83,1,11.82,1,23.63,2.11,35.5,1.81a8.16,8.16,0,0,1,4,.82,6.06,6.06,0,0,0,4.94,2c3.72-.12,7.45-.08,11.18,0,1.68,0,3.46,0,4.71,1.48-1.57,1-3.34.65-5,.7a413.5,413.5,0,0,1-46.57-1c-11.62-1-23.15-2.31-34.42-5.44a56,56,0,0,1-10-3.87C42,237.69,40.18,235,40.94,230.85Z"/><path class="cls-5" d="M141.54,249.07c-5.82,0-11.63-.11-17.44-.11-1.78,0-3.5.06-3.36-2.48,1.83-2.41,4.52-1.64,6.87-1.65,17.9-.13,35.64-1.59,53.14-5.46,5.32-1.18,10.53-2.69,15.25-5.52a3.79,3.79,0,0,1,3.06-.76c.05,1,.09,1.85.14,2.78-1.51,2.56-4,3.74-6.63,4.85-7.32,3.13-15.08,4.58-22.9,5.81C160.37,247.88,151,249.18,141.54,249.07Z"/><path class="cls-6" d="M119.86,69.54c-.3,2.29-2.06,1.86-3.53,1.87-5.08,0-10.15,0-15.22.07a206.12,206.12,0,0,1-44.38-5.63c-5.4-1.31-10.65-3-14.85-6.78-.91,1-.25,2.36-1.27,3.08C40.13,54.31,43.25,50.62,51.67,49l.29.72a3.07,3.07,0,0,1-.68,1.36c-1.5,1.81-5.12,1.93-4.67,5.18s3.78,3.94,6.26,4.84C61.19,64.19,70,65.28,78.7,66.45a236.23,236.23,0,0,0,36.55,1.94,7.64,7.64,0,0,1,4.08.69Z"/><path class="cls-7" d="M55.36,48c4.63-2.39,9.79-2.74,14.78-3.55,11.16-1.81,22.44-2.49,33.75-3.16,10.1-.6,20.17-.42,30.26-.59,1.5,0,3.14-.4,4.46.81-2.23,2.12-5,1-7.57,1.34-3.47.47-7.15-1.12-10.44,1.09a5.18,5.18,0,0,1-1.51.6c-10.73.64-21.5-.26-32.18,1.14-7.4.48-14.68,1.94-22,3-2.05.77-4.47.34-6.32,1.83a1.78,1.78,0,0,1-1.94.88,2.16,2.16,0,0,1-1-.7A4.84,4.84,0,0,1,55,49,1.23,1.23,0,0,1,55.36,48Z"/><path class="cls-8" d="M120.83,43.35c-.33-.92-.65-1.84.88-1.84h9.14l7.75,0c11.25-.13,22.33,1.57,33.43,3.06a4,4,0,0,1,1.19.66c-2.05,2-4.85,1-7.21,1.85-13.15-1.17-26.25-2.8-39.49-2.38C124.56,44.71,122.43,45.06,120.83,43.35Z"/><path class="cls-9" d="M166.55,46.13c2-1.71,4.48-.48,6.68-1a24.25,24.25,0,0,1,9.2,1.88c1,1.16,2.66,0,3.74,1h0L188,49.87a1.84,1.84,0,0,1-1.58,1.4C179.8,49.61,172.89,49,166.55,46.13Z"/><path class="cls-3" d="M186.17,48c-1.31-.11-2.79.48-3.74-1C183.73,47.16,185.15,46.84,186.17,48Z"/><path class="cls-6" d="M55.36,48v1a2.41,2.41,0,0,1-1.83.85A2.89,2.89,0,0,1,51.66,49h0C52.62,47.69,54.08,48.15,55.36,48Z"/><path class="cls-10" d="M41.39,214.82c0-1.7-.15-3.42-.15-5.12V87.37c0-1.71.15-3.41.22-5.13a2.4,2.4,0,0,1,1.81.27c5.92,4.5,12.67,7.75,18.87,11.77a4.59,4.59,0,0,1,.69,1.36,11.62,11.62,0,0,1,.39,3.21c.11,17.86-.09,35.71.12,53.56a16.75,16.75,0,0,1-.28,3.24,30.89,30.89,0,0,0-.16,13.86,20.62,20.62,0,0,1,.37,5.08c.13,7.08.13,14.15.09,21.21,0,2,.15,4-.86,5.86l-.63.63a70.83,70.83,0,0,0-18.55,11.36C42.76,214.14,42.28,214.78,41.39,214.82Z"/><path class="cls-11" d="M80.74,244A98,98,0,0,1,62,241.13l-.08-38.84.21-.29c4.55-5,11-5.49,17-7a2.25,2.25,0,0,1,2.48,1.73c1.13,5.05.48,10.17.55,15.25.1,8.65.07,17.31,0,26C82.08,240,82.35,242.24,80.74,244Z"/><path class="cls-12" d="M80.75,74.26c7.09,0,14.12,1.45,21.22,1,6.3,1.06,12.68-.24,19,.69a5,5,0,0,1,1.15,3.47c0,8.4.5,16.8-.26,25.19a4.49,4.49,0,0,1-.78,1.56,4,4,0,0,1-1.49.81c-13.2.41-26.23-.56-38.82-5.07a3.65,3.65,0,0,1-1-1.39c-1.12-7.64-.45-15.31-.42-23A4.31,4.31,0,0,1,80.75,74.26Z"/><path class="cls-13" d="M80.75,74.26l-.15,26.79c-.17.28-.41.65-.64.61-6.39-1-12.69-2.22-17.72-6.78a.69.69,0,0,1-.31-.4c-2.16-7.75-2.7-15.44.23-23.12A185.1,185.1,0,0,1,80.75,74.26Z"/><path class="cls-14" d="M62.16,71.39l-.23,23.12c-7.53-2.91-14.1-7.38-20.44-12.26V63.85c1.4-.48,2.14.47,3,1,4,2.55,8.39,3.79,12.88,5C59,70.24,60.76,70.19,62.16,71.39Z"/><path class="cls-15" d="M120.83,76.23c-4.79-.08-9.56-.13-14.35-.24-1.51,0-3.12.31-4.47-.74,5.23,0,10.45-.13,15.67-.06,2.07,0,3.3-.53,3.15-2.82,8.72.39,17.31-.52,26-1.08,13.08-.85,26.16-2.2,38.83-5.77a44.39,44.39,0,0,0,13.06-5.81c1,1,.56,2.13.57,3.16-1.58,3.72-5.13,4.79-8.43,6-8.78,3.23-17.93,4.85-27.18,5.95-12.14,1.43-24.32,2.32-36.55,2.58C124.9,77.47,122.66,77.71,120.83,76.23Z"/><path class="cls-16" d="M199.19,80.22c.08,1.39.2,2.79.2,4.18V211c0,1.24-.11,2.48-.18,3.72a2.22,2.22,0,0,1-2.62-.32c-7.08-6-15.5-9.68-23.65-13.84-.73-2.2.33-4.28.42-6.41.36-9.06-2.26-16.82-10-22.29a20.11,20.11,0,0,0-10.07-5.33c-2.25-.79-4.6-.37-6.9-.6-3.88-.37-4.53-1.93-2.43-5.13,1-1.41,2.36-2.32,3.8-3.77-2.17.23-2.64,2.69-4.61,2.35-1.52-1.51-1.66-3.58-2.24-5.47-2.84-9.09-8.72-15-18.11-17.13a4.31,4.31,0,0,1-2.91-2.63c-.81-8.22-.26-16.47-.33-24.67a4.53,4.53,0,0,1,1.29-3.35l-.09-.4c6.92-1.94,14.15-1.63,21.18-2.73,19.38-3,37.57-8.72,53.13-21.18C196.23,80.83,197.43,79.73,199.19,80.22Z"/><path class="cls-1" d="M173.15,200.37c3.57,0,6.38,2.14,9.38,3.61a67.49,67.49,0,0,1,14.71,9.55,12.29,12.29,0,0,0,1.94,1.16,111,111,0,0,1-.11,18.41c-4.68,4.19-10.54,5.88-16.41,7.28-11.62,2.78-23.49,4-35.41,5-8.83.73-17.68.4-26.5,1.08-4.15-.11-8.3-.25-12.46-.34a223.37,223.37,0,0,1-27.58-2.1l-.15-48.3a2.17,2.17,0,0,1,1.2-.75c5.21.69,9.93,3,14.85,4.58,4.23,5.71,7.64,12,13.56,16.39a51.37,51.37,0,0,0,9.29,5.28,40.16,40.16,0,0,0,51.63-18.4A4.67,4.67,0,0,1,173.15,200.37Z"/><path class="cls-17" d="M199.19,80.22c-4.84,3.58-9.46,7.52-14.84,10.43a117.45,117.45,0,0,1-35.91,12.5c-9.15,1.63-18.35,3.15-27.73,2.55q0-14.73.08-29.47c8.06-.34,16.12-.57,24.22-1.06,14.72-.87,29.34-2.44,43.52-6.78a32.82,32.82,0,0,0,10.72-5.48C199.44,68.67,199.48,74.45,199.19,80.22Z"/><path class="cls-18" d="M187.12,50.78l.91-.89a14.26,14.26,0,0,1,7.22,4c1.28,1.34,1.47,2.65.15,4.08A13.76,13.76,0,0,1,189.8,62a120.6,120.6,0,0,1-20.29,4.77,239,239,0,0,1-39.27,2.91c-3.43,0-7,1.56-10.4-.15a1.41,1.41,0,0,1,.62-1.45c5.48-1.58,11.09-.4,16.61-.78,2.13,0,4.26.16,6.33-.59,2.63-.48,5.3-.24,8-.37a56.68,56.68,0,0,1,10.07-1c7-1.14,14.19-1.82,21-4,1.73-.65,3.54-1.12,5.22-1.93,4.31-2.1,4.59-4.05,1-7.07A4.65,4.65,0,0,1,187.12,50.78Z"/><path class="cls-3" d="M119.86,68.82v.77c-6.53,0-13.08.27-19.59-.06A231.68,231.68,0,0,1,69,66.23c-4.71-.89-9.4-1.72-14-3a32.24,32.24,0,0,1-6.78-2.91c-4.46-2.5-4.49-5.81-.19-8.42,1.2-.72,2.49-1.27,3.74-1.94a1.28,1.28,0,0,1,1.78-.08c.4.88-.14,1.4-.71,1.93-4.84,4.42-4.72,5.17,1.12,8,12.6,4.31,25.59,6,38.76,6.65a29.87,29.87,0,0,1,4.63.33c2.3.83,4.71.55,7.08.58,5,.39,10.07-.82,15,.81Z"/><path class="cls-7" d="M53.56,49.94H51.63V49h1.86l.32.47A1.43,1.43,0,0,1,53.56,49.94Z"/><path class="cls-19" d="M56.34,50.85A1.91,1.91,0,0,0,58.21,50c1.67-.76,3.33-1.58,5.26-1.44l1.39-.38a25,25,0,0,1,3-.54A123.6,123.6,0,0,1,94,45.21c8.62-.89,17.3,0,25.92-.89,4,0,8.07,0,12.1,0,1.47,0,3.24-.42,3.93,1.6-1.59,2-3.88,1.4-5.94,1.51-3.19.19-6.41-.25-9.57.37-5.67.49-11.36.07-16.27.22,4.63.31,10.06-.47,15.5.37a2.22,2.22,0,0,1,1.32,2.55,3.46,3.46,0,0,1-1.31.82,38.94,38.94,0,0,1-9.76.33c-3.53-.13-5.81.8-5.69,4.79A2.91,2.91,0,0,1,103,59.29c-6,4.6-12.8,5.77-20.18,4.34-3.78-.72-7.68-.55-11.52-1a95.55,95.55,0,0,1-19.86-4.79C49,53.82,50.92,51.08,56.34,50.85Z"/><path class="cls-20" d="M135.76,46.12c-1.1-1.2-2.57-.84-3.87-.85h-12a1.28,1.28,0,0,1-.15-1.79l.15-.14h1c4.34,0,8.72.07,13,0a157.75,157.75,0,0,1,24,1.75c2.91.41,5.87.11,8.72,1a85,85,0,0,1,20.57,4.65c2.64.88,5.63,1.66,5.53,5.16-.1,3.15-3.1,3.88-5.37,4.94A25.89,25.89,0,0,1,183.4,62c-1,.39-1.11-.18-1.14-.91a5,5,0,0,1,2-1.66,12.43,12.43,0,0,0,2.16-1.5c1.38-3.14-1.18-3.66-3.06-4.39-5.37-2.11-11-3-16.7-3.83-7.95-1.17-15.94-1.87-24-2.34C140.3,47.23,137.75,48.12,135.76,46.12Z"/><path class="cls-21" d="M119.86,43.37v1.94a200.42,200.42,0,0,1-26.16.88c-1.84-1-3.8-.23-5.7-.45-.86-.1-1.94.09-1.71-1.33C97.44,43.26,108.64,43.3,119.86,43.37Z"/><path class="cls-22" d="M86.27,44.37c1,1.26,2.42.78,3.71.88s2.7-.34,3.7.9c-9.1-.5-18.07,1-27.07,1.94-.52.53-1.39.29-1.93.87l-.91,0c-.33-.19-.44-.38-.33-.58s.22-.28.33-.28c1.55-1.77,3.79-1,5.66-1.31C75,45.68,80.66,45.13,86.27,44.37Z"/><path class="cls-23" d="M56.34,50.85A6,6,0,0,0,51.07,55a1.85,1.85,0,0,0,.65,2.36c1.21.16,2.21.57,2.29,2-.22.71-.53,1.26-1.41.85a5,5,0,0,1-2.84-1.4c-2.52-2-2.5-4.39,0-6.44,1.19-1,2.85-1.17,3.81-2.48h0a2.33,2.33,0,0,1,2.77-.11C56.33,50.19,56.33,50.52,56.34,50.85Z"/><path class="cls-23" d="M63.81,48.07v.87l-5.6,1C59.59,47.9,61.73,48.06,63.81,48.07Z"/><path class="cls-3" d="M56.32,49.85,53.54,50V49h1.85Z"/><path class="cls-24" d="M62.27,174.27l-.37-4.75a41.65,41.65,0,0,1,0-13.09Q62,130.1,62,103.78c0-2,.15-4,.22-6,2.46,1.06,1.85,3.34,1.86,5.19q.12,21.63,0,43.27c3.74-5.14,8.13-9.49,14.53-11.12a3.8,3.8,0,0,1,1.38.22,1.63,1.63,0,0,1,.85,1c0,1.5-1,3.07.23,4.53a4.8,4.8,0,0,1,.3,2.43,5.49,5.49,0,0,1-.34,1.2c-2.59,2.14.29,3.7.6,5.54.43,14.14.63,28.28-.09,42.39-1.3,3.34-3.48,1.94-5.13.64C70.16,188,64.29,182.6,62.27,174.27Z"/><path class="cls-25" d="M80.62,135.84c-8.17,1.69-13.37,7.07-17.75,14V102.75c0-1.66.5-3.43-.57-5V95c6,2.28,12,4.93,18.41,6.14l.39.35c1,1.44,1,3.22,1,4.88,0,8.1.07,16.19,0,24.28C82.08,132.45,82.14,134.38,80.62,135.84Z"/><path class="cls-26" d="M62.27,174.27c1.31.78,1.78,2.16,2.33,3.41,2.91,6.64,8.24,11.11,13.83,15.33a4,4,0,0,0,2.14.82,1.17,1.17,0,0,1,.79,1.4l-.77.51c-6.52,1.08-12.53,3.65-18.51,6.29C62.13,192.83,61.79,183.53,62.27,174.27Z"/><path class="cls-27" d="M61.91,156.43a114.33,114.33,0,0,1,0,13.09A20,20,0,0,1,61.91,156.43Z"/><path class="cls-10" d="M80.62,135.84c0-9.78.06-19.56.12-29.34,0-1.7.17-3.41.24-5.1a182.51,182.51,0,0,0,38.88,4.71c1,8.76.22,17.56.45,26.34,0,1.77-1.19,2.35-2.66,2.64s-3.09.14-4.6.43c-3.46,1-6.78,2.37-10.16,3.47a1.32,1.32,0,0,1-1.14-.56,20,20,0,0,1,2.54-9.69c-1.65,1.41-1.86,3.41-2.16,5.36-.21,1.44.23,3.14-1.52,4-6.42-2-13.07-1.83-19.67-2.1Z"/><path class="cls-28" d="M111.43,134.87c1.25-1.33,2.91-.79,4.38-.85,4-.18,4-.15,4-4.28V106.11h1v28.64C117.69,137.08,114.58,137,111.43,134.87Z"/><path class="cls-29" d="M173.15,200.37c-2.41,9-8.29,15.21-16.11,19.62-10.8,6.11-22.29,7.3-34.22,3.88a9.55,9.55,0,0,1-4.2-1.89c4.85-7.36,6.67-16,10.12-23.93,3.77-8.72,6.43-17.82,10.2-26.51a2.42,2.42,0,0,1,1.17-.67c4.3,1.66,6,4,7.48,10.12.33-1-.07-1.79.06-2.65.27-1.76-1.11-4.17.72-5.18,2.17-1.2,4,1,5.81,2,2.1,1.33,3.73,3.21,6.1,5.17-2.42-4.55-2.21-7.87,3.3-8.79,2.09-1.08,3,.71,3.94,1.83C173.88,181.41,176.85,190.2,173.15,200.37Z"/><path class="cls-30" d="M123.23,136a8,8,0,0,1,5.74,1.35c6.29,4.14,11.69,9.09,13.27,17,.33,1.65.68,3.3,1,5,1.45,2.27-.19,3.54-1.59,4.9-1.82-.13-3.15-1.29-4.43-2.37a23.3,23.3,0,0,0-13.07-5.56c-4.32-1.52-8.53,1.06-12.83.35a3.19,3.19,0,0,1-.53-3.34c2.63-1.94,1-4.06.17-6.11-1.48-3.79-1-4.47,2.9-3.95,3.56.48,6.79,1.94,10.2,3.33-.32-1.3-1.29-2-2-2.91-1.63-1.94-4.74-4,.67-5.14C123.74,138.29,122.6,136.77,123.23,136Z"/><path class="cls-31" d="M123.23,136c.36,1.35,1.94,2.08,1.94,3.67-1.46.65-3-.56-4.74.47,1.94,2.62,5.08,4.44,5.9,8.45-5.22-1.94-9.86-4.5-15.66-4.55a17.2,17.2,0,0,1,3.09,9.94c-1.53.37-1.41-1.2-2.25-1.49-3.29-2.34-5.67-6-10.05-6.78a1.63,1.63,0,0,1-.75-1.17c.17-2.16-.5-4.56,1.72-6.15,2.7-1.94,5.94-2.48,9-3.54l9.34-.13Z"/><path class="cls-32" d="M163.52,171.58c0,.91.45,1.82-.11,3-1.31.21-2.28-1.35-3.66-1.08a.91.91,0,0,0-.33,1.18c1.24,2.6,2.63,5.15,2.15,9-4.13-4.1-7.75-8-12.86-10.27-.13,3.73,1.09,7.36-1.45,10.89-1-5.25-2.3-10-6.89-12.91-1.45-2.91-.26-4.77,2.41-6.05,3.56.39,7.19-.44,10.74.51C157.71,166.23,161.42,167.53,163.52,171.58Z"/><path class="cls-33" d="M153.52,165.76H142.26c-.83-.33-1.32-.85-1-1.82,1.58-1.18,1.74-2.91,1.94-4.67,1.18-1.21,1.8-2.91,3.26-3.88.88-.6,1.93-1.5,2.78-.29a1.94,1.94,0,0,1-.06,2.74,1.8,1.8,0,0,1-.61.4c-2.55,1.17-4,3.2-5.32,5.89C146.62,165.86,150.47,163.67,153.52,165.76Z"/><path class="cls-34" d="M111.43,156.27c4.32-1.16,8.61-2.77,13.15-1,0,1.33-4.3,2.47-.07,4.12,1,.4.07,1.94-1,2.57-1.38.91-3,1.38-4.39,2.7,3.66,0,7.17-.2,10.65.74,4,1.08,4.1,1.55,1.22,4.66A8.63,8.63,0,0,0,128.8,173c3.43-1.79,6.7-4.27,10.66-1.41-1.38,6.49-3.87,12.65-6.29,18.76q-5.53,13.94-10.65,28c-.68,1.94-1.14,4-3.88,3.68-9.14-3.39-15.31-10.1-20.24-18.18-.71-1.18-1.26-2.47-1.89-3.71C92,195.62,91.94,189.56,92,184c.13-9.47,3.58-17.87,11.22-24.09C105.85,158.47,108,155.93,111.43,156.27Z"/><path class="cls-35" d="M104.09,160.26c-2.22,3-5.15,5.22-6.94,8.64-5.14,9.87-5.08,19.75-1,29.86a11.81,11.81,0,0,1,.35,1.33c-5.33-.69-10.19-2.9-15.12-4.84l-.79-1.45c.28-15.26.24-30.52,0-45.78a1.1,1.1,0,0,1,0-1.27c3.05-2.32,6.68-3.05,10.33-3.65,2.72-.44,4,.53,2.64,3.33a24.31,24.31,0,0,0-1.94,5.94c.74-2.83,3.06-5,5.86-6.78a11.06,11.06,0,0,1,2.51-.84,1.74,1.74,0,0,1,1.23.33l.91.31c1.86,2.09,1.29,4.65,1.3,7.05A62.21,62.21,0,0,0,104.09,160.26Z"/><path class="cls-36" d="M182.41,61.13c.31.32.63.64,1,1-4.93,2.41-10.36,2.77-15.64,3.61-1.94.31-3.93.74-5.92,1-3.56-1.24-7,0-10.5.5-3.11.15-6.24-.38-9.32.39-1.76.2-3.57-.12-5.31.4a7.81,7.81,0,0,1-3.87-.15,2.17,2.17,0,0,1-.37-1.52,1.93,1.93,0,0,1,1-1.21c5.29-1.48,10.8.27,16.09-1.13,6.41-.39,12.8-1.06,19.16-1.87,1.22,0,2.46.62,3.67-.06a3.86,3.86,0,0,1,2.72-.62c.53.38,1.07.71,1.61,0a2.91,2.91,0,0,1,2.44-.76c.51.52,1,.56,1.38-.14a1.79,1.79,0,0,1,2.07-.35.7.7,0,0,1-.13,1Z"/><path class="cls-37" d="M132.89,67.63h3.76c1-.39,1.11.06.86.88l-17.65.31v-.18a1.47,1.47,0,0,1,.66-1.46C124.71,66.18,128.84,65.59,132.89,67.63Z"/><path class="cls-38" d="M151.59,66.77c3.4-.79,6.78-1.94,10.2-.07a43.72,43.72,0,0,0-10.2.9c-.3-.19-.41-.37-.3-.56S151.49,66.77,151.59,66.77Z"/><path class="cls-39" d="M151.59,66.77v.83l-8.39.09c-1,.56-1.94.76-1.81-.91Z"/><path class="cls-40" d="M141.39,66.78a1.87,1.87,0,0,0,1.81.91c-1.69,1.63-3.77.68-5.69.85l-.86-.87C138,66.11,139.79,67,141.39,66.78Z"/><path class="cls-41" d="M52.55,60.26l1-1c6,.31,11.62,2.72,17.51,3.54a43.1,43.1,0,0,0,9.63.32c1-.1,3.13-.55,2.32,1.94a.68.68,0,0,1-.94.19.9.9,0,0,1-.2-.19c.44.77,1.1.31,1.53.12a12.32,12.32,0,0,1,9-.65,1.6,1.6,0,0,1,.6,1.21c-.34.53-1,.41-1.42.68,3-.46,6.06-2,8.88.62-.67,1.74-1.86,1.21-3,.73a141.14,141.14,0,0,1-42.85-6.39A3.64,3.64,0,0,1,52.55,60.26Z"/><path class="cls-42" d="M97.39,67.7c1-.08,2.15.16,2.83-1,1.15-1.34,2.91-1.41,4.37-1.93,3.94.2,8.16-1.86,11.7,1.49-2.8,2.9-6.39.62-9.49,1.46-.9.33-1.94.17-2.78.79C101.8,68.33,99.42,69.38,97.39,67.7Z"/><path class="cls-43" d="M104,68.55a2,2,0,0,1,1.84-.89c4.43-.77,8.9-.44,13.35-.56l.66.54v1Z"/><path class="cls-44" d="M119.8,50.89l1-.07c1.33-1.37,3.07-1.25,4.75-1.25,6,.06,12-.28,17.94.21,7.48,1.11,15.11,1,22.53,2.65,3.12.7,6.57.78,8.27,4.26-.65,3.27-3.53,3.87-6,4.3a191.23,191.23,0,0,1-47.47,2.9,3.62,3.62,0,0,1-1.45-1C118.07,58.88,117.62,54.85,119.8,50.89Z"/><path class="cls-45" d="M119.8,50.89V63c-1.71,1.81-4,1.4-6,1.3-4.67-.21-9.43.87-14-.78-1.3-2.59,1.08-3.06,2.39-4.15,1.36-1.25.83-2.91.87-4.39.12-4,.09-4,4.23-4S115.63,50.88,119.8,50.89Z"/><path class="cls-46" d="M97.58,52.62C98.65,57,97,60.1,92.73,60.1A30.34,30.34,0,0,1,78.4,56.84c-1.63-.88-1.36-1.8-.52-3,1.44-2.14,3.78-2.44,6-2.91,3-.65,6.07-.55,9.11-1C95,49.59,97.1,49.93,97.58,52.62Z"/><path class="cls-47" d="M102.16,59.32a8.23,8.23,0,0,1-2.6,2.84c-.86.46-.41,1.62-1.17,2.13a8.1,8.1,0,0,1-5,.64l-.62-.11c-3.25-.33-6.44.38-9.58,1-2,.38-.34-2.1-1.86-1.79s-3.32.54-5,.76-3-.45-4.51-.78-3-.59-4.52-.88-3-.56-4.51-.91-3.29-.8-4.89-1.31S55,59.8,53.55,59.24l-1.86-1.87c.72-1.09,1.54-.59,2.4-.19,7.75,3.57,16,4,24.31,4.84,1.68.16,3.36.13,5.06.43,6.25,1.11,12.26.62,17.56-3.42C101.45,58.74,101.84,58.9,102.16,59.32Z"/><path class="cls-48" d="M97.58,52.62A3,3,0,0,0,94.52,51c-5.5,1-11.33.19-16.55,2.83-1.25-1.74.48-2.28,1.36-2.62a47.64,47.64,0,0,1,7.13-2.06c1.8-.39,3.65-.49,5.48-.86C95.16,47.61,97.58,49.62,97.58,52.62Z"/><path class="cls-49" d="M144.08,50.91l-23.25-.09c-.31-.59-.62-1.18-1-1.77l.61-.61c9.15-1.67,18.19-.61,27.19,1.2C147.27,51.56,147.17,51.6,144.08,50.91Z"/><path class="cls-50" d="M119.86,49.05c-5.72.11-11.47-.55-17.18.49-1.44.26-2.27-.5-2.83-2.5h20.07l.33.45a1.35,1.35,0,0,1-.44,1.5Z"/><path class="cls-51" d="M135.76,46.12l7.39.13c.12,1.15-.72,1.49-1.56,1.85-7.23-.37-14.53,1-21.73-1l.09-.05c1.07-1.26,2.55-.82,3.87-.85C127.8,46.14,131.78,46.14,135.76,46.12Z"/><path class="cls-52" d="M55.49,54.66c.65-2.1,1.63-2.82,4-2.91s2.69.37,3.38,2.83A48.6,48.6,0,0,1,55.49,54.66Z"/><path class="cls-53" d="M55.49,54.66a7.16,7.16,0,0,1,7.34,0C60.39,56.41,58,57.3,55.49,54.66Z"/><path class="cls-7" d="M64.72,49a1.87,1.87,0,0,1,1.93-.87A1.91,1.91,0,0,1,64.72,49Z"/><path class="cls-54" d="M142.22,47.14l1-.89c6,.42,12,1,18,1.63A136,136,0,0,1,179.42,51c2.79.67,5.81,1.16,8,3.37s2,3.22-1.23,4.89l-.44-.62c-.71-3.26-3.3-4.22-6.06-5-10.95-3-22.2-3.87-33.44-4.73C144.77,48.83,142.63,49.8,142.22,47.14Z"/><path class="cls-18" d="M186.19,59.29a1.86,1.86,0,0,1-1.94.9,5.8,5.8,0,0,1-.13-.6c.53-.82,1.17-1.08,2-.37Z"/><path class="cls-18" d="M182.41,61.13v-.86a1.22,1.22,0,0,1,1.72-.18l.13.12h0A1.78,1.78,0,0,1,182.41,61.13Z"/><path class="cls-55" d="M98.4,146.08a20.36,20.36,0,0,0-7.21,8.72c-1-4.51.28-7.53,2.64-10.66-5-.25-8.82,1.89-12.87,3.09-1.32-.85-1-1.93-.39-3l.29-1.08c1.26-1.53.83-2.75-.7-3.76a3.08,3.08,0,0,1,.44-2.4l.31-1c5-2.09,10-1.56,15-.2,1.78.49,3.49,1.27,5.23,1.94.48.08.67.69,1.2.64h.06c-.71,2.18.19,4.67-1.25,6.71a1.64,1.64,0,0,1-.9.17C99.76,145.76,98.93,145.55,98.4,146.08Z"/><path class="cls-56" d="M80.86,139.69c1,0,2-.34,3,.35-.52,1.57-1.79,2.32-3,3.08-.14-.89-.26-1.76-.4-2.64a.53.53,0,0,1,.17-.72A.48.48,0,0,1,80.86,139.69Z"/><path class="cls-57" d="M80.57,144.2c.12,1,.26,2,.39,3a4.09,4.09,0,0,1-.36.83c-.73.11-1.7.6-2.13.3-1-.71,0-1.52.32-2.26A3.61,3.61,0,0,1,80.57,144.2Z"/><path class="cls-58" d="M80.86,139.69c-.14.26-.27.52-.4.79-3.06-1.3-.59-2.37.14-3.53C80.69,137.88,80.78,138.78,80.86,139.69Z"/><path class="cls-59" d="M102.36,138.41a1.05,1.05,0,0,1-1.2-.64c.29-2.6-.52-5.27.52-7.83a10.38,10.38,0,0,1,.85-2.14c.56-.79,1.11-2.34,2.37-1.42,1.06.77,2.1,2.21.67,3.55C103.1,132.28,102.89,135.39,102.36,138.41Z"/><path class="cls-60" d="M139.44,171.51c-5.15-1.43-8.83,1.64-13.17,4.74.73-4.29,3.11-6.59,6.37-8.88-5.52-2.05-10.82-1.47-16.67-1.32,2.43-3,5.38-4.26,8.35-5.49-.71-2.05-3.09-.91-3.88-2.59,1-1.47,2.61-1.94,4.12-2.69,7,.24,12.13,3.87,16.75,8.71l1,1.83c-.79,1.78-2.08,3.4-1.94,5.52Z"/><path class="cls-61" d="M104.09,160.26c-2.14-.31-2-1.94-2-3.44V145.43c4.85.1,7.52,3.06,9.42,7.07l-.09,3.77Z"/><path class="cls-31" d="M98.4,146.08a1.8,1.8,0,0,1,1.94-.79A2.1,2.1,0,0,1,98.4,146.08Z"/><path class="cls-62" d="M184.29,60.21l-1.85.06-1.94.88a.57.57,0,0,1-.79.11l-.1-.11a5.59,5.59,0,0,0-2.85.91.56.56,0,0,1-.79.11l-.1-.11c-1.05,0-2.13-.18-2.83.88a2.34,2.34,0,0,1-2.76.07c-6.82.9-13.6,2.2-20.52,1.93-1.1.23-1.21-.31-1-1.17,5.75-1.7,11.79-1.57,17.61-2.91a26.13,26.13,0,0,0,6.48-2.16c1.31-.71,2.35-1.75.51-3.12-6-3.23-12.77-3.37-19.33-4.2-2.12-.29-4.33-.1-6.24-1.36-9.34-.15-18.62-1.53-28-1V47.11l22.36,0c1,1.1,2.26.9,3.48.89,9.5-.1,18.83,1.33,28.15,2.91a52.69,52.69,0,0,1,10.29,2.91c2.77,1.07,3.06,2.11,2,5.44A1.66,1.66,0,0,0,184.29,60.21Z"/><path class="cls-42" d="M148.8,64l1,.88c-1.09,1.2-2.56.84-3.88.85-4.31.07-8.61.07-12.92.1-2.91,1.75-6.12.48-9.15,1a9.88,9.88,0,0,0-1.33.31,3,3,0,0,0-2.36-.16,1.56,1.56,0,0,1-.66-1.22,2.06,2.06,0,0,1,1.45-1.61c5.11-.38,10.25-.08,15.36-.18,2.4-.11,4.85.31,7.19-.42C145.27,63.14,147.15,62.4,148.8,64Z"/><path class="cls-63" d="M119.86,66.7h1a.64.64,0,0,1,.9-.06l.07.06h.87a26.26,26.26,0,0,1,10.3.06v.88H119.86l-.39-.41Z"/><path class="cls-40" d="M132.91,66.75l-10.3-.06c3.32-1.84,6.89-.46,10.32-.84C132.92,66.15,132.91,66.45,132.91,66.75Z"/><path class="cls-18" d="M170.32,63.06l2.76-.07C172.18,64.15,171.26,64.21,170.32,63.06Z"/><path class="cls-18" d="M175.91,62.11a6.61,6.61,0,0,1,.89,0C176.51,62.6,176.22,62.64,175.91,62.11Z"/><path class="cls-18" d="M179.65,61.18a4.41,4.41,0,0,1,.89,0C180.26,61.66,179.93,61.71,179.65,61.18Z"/><path class="cls-64" d="M119.86,64.86V66.7l.06.08a3.66,3.66,0,0,1-3.74-.08c-2-1.66-4.46-.66-6.69-.85-1.84-.15-3.71,0-5.57,0a28.48,28.48,0,0,1-11.19-.09l0-1h0c3.07-.66,6.22-.6,9.32-.91,5.71.21,11.44-.44,17.14.37Z"/><path class="cls-65" d="M92.73,65.76l11.15.15c-1,1.33-2.42.7-3.66.89H88.54C90.17,65.34,91.58,66.05,92.73,65.76Z"/><path class="cls-66" d="M116.13,66.7l3.74.08c0,.27,0,.54,0,.82l-14,.06c1.51-1.6,3.46-.74,5.23-.89S114.45,66.71,116.13,66.7Z"/><path class="cls-67" d="M136.65,64.81l-16.79,0,.08-.07c-.61-1,.36-1.27.88-1.73,3.88,0,7.75-.06,11.58-.07a216,216,0,0,0,34.44-3c2.6-.43,5.61-.71,7.17-3.56-.27-.21-.36-.41-.26-.63s.18-.3.28-.3c1.1.52,1.94,1.17.84,2.42a9,9,0,0,1-4.4,2.35c-7,2.26-14.36,2.85-21.65,3.7h-5.54C141.18,65,138.75,63.74,136.65,64.81Z"/><path class="cls-68" d="M174,55.55v1c-4.3-2.74-9.3-2.91-14.11-3.74a72,72,0,0,0-13.75-1,2.75,2.75,0,0,1-2.08-.84c1.27-.23,2.77.41,3.77-1,6.85.7,13.75,1.22,20.45,2.91C170.24,53.4,172.58,53.64,174,55.55Z"/><path class="cls-69" d="M120.83,63.06,120,64.79H102.19c-1.11-1-2.74.15-3.87-1,.07-.81.29-1.52,1.23-1.73.78,1.08,1.93.79,3,.79h17.25Z"/><path class="cls-41" d="M98.33,63.88c1.29.24,2.78-.3,3.88,1H92.73C94.38,63.29,96.46,64.22,98.33,63.88Z"/><path class="cls-36" d="M136.65,64.81c2-1.6,4.4-.61,6.61-.81C141.18,65.53,138.86,64.63,136.65,64.81Z"/><path class="cls-40" d="M121.74,66.69h-1C121.07,66.2,121.39,66.19,121.74,66.69Z"/><path class="cls-70" d="M101.54,177.48a17.82,17.82,0,0,1,5.91-6.35,32.11,32.11,0,0,1,14.73-5.08,25.06,25.06,0,0,1,14.94,3.41,10.79,10.79,0,0,1,5.31,8.34,18.34,18.34,0,0,0,.35,1.94,1.74,1.74,0,0,0,1.77,1.56c1.59.2,3.18.37,4.76.68a25.73,25.73,0,0,1,13.62,7.26,8,8,0,0,1,1.62,2.59c.24.58.45,1.18.67,1.77a5.57,5.57,0,0,0,.23,1.06,6,6,0,0,1,.16,1.68,1.34,1.34,0,0,0,.22.78c.22.31.08-.21.21-.08a1.66,1.66,0,0,0,.67,1.09,18.94,18.94,0,0,1,5.41,7.84c.26.78.47,1.59.7,2.39a5.13,5.13,0,0,0,.22,1.22.2.2,0,0,1,0,.11,3.45,3.45,0,0,0,.1,1,18.2,18.2,0,0,1-.9,6.55,22.14,22.14,0,0,1-4.85,8.28,23.78,23.78,0,0,1-10.2,6.59,54.15,54.15,0,0,1-12,2.6,47.16,47.16,0,0,1-7,.23A55.49,55.49,0,0,1,121,231.47a12.27,12.27,0,0,1-2.61-1.11c-.12-.19,0-.28.15-.35.87-.45,1.72-.92,2.6-1.34a.42.42,0,0,1,.27,0,48.2,48.2,0,0,0,34.24,1,19.53,19.53,0,0,0,7.83-5,18.62,18.62,0,0,0,5.28-11,17.17,17.17,0,0,0-4.54-13.83,22.22,22.22,0,0,0-7-5.33,24,24,0,0,0-8-2.41,20.4,20.4,0,0,0-6.66.25,9.24,9.24,0,0,0-4.18,1.94,9.72,9.72,0,0,0-2.17,2.8,2.4,2.4,0,0,1-.5.86.18.18,0,0,1-.2,0,11.25,11.25,0,0,1-1.42-2.23,7.05,7.05,0,0,1,1.38-2.08,10.5,10.5,0,0,1,5.22-3.18c1.1-.31,2.22-.46,3.34-.66a33.21,33.21,0,0,1,3.73-.13,23.14,23.14,0,0,1,6.71,1.08,27.21,27.21,0,0,1,6.49,2.91,8,8,0,0,0-1-2.39,12.61,12.61,0,0,0-3.67-3.46A22.48,22.48,0,0,0,146,184c-1.48-.18-3-.2-4.45-.33a1.43,1.43,0,0,1-1.5-1.34v-.06a29.58,29.58,0,0,1-.12-3.52,8.94,8.94,0,0,0-2-5.73,9.94,9.94,0,0,0-2.81-2.17,20.28,20.28,0,0,0-8.08-2.39,24.78,24.78,0,0,0-10.56,1.29,23.13,23.13,0,0,0-6.91,4,16.86,16.86,0,0,0-5.94,12.53v2.57a4,4,0,0,0,1.32,2.73c.18.16.35.34.52.52a1.66,1.66,0,0,0,2.15.47c1-.42,1.93-.87,3-1.26a26.21,26.21,0,0,1,14.75-1.56c.37.09.76.17,1.14.23A9.29,9.29,0,0,1,131,192.3a11.09,11.09,0,0,0,1,1,14.93,14.93,0,0,1,3.81,8.18c.81,5.44-1,10.08-4.44,14.18a32.66,32.66,0,0,1-7.95,6.53,56.49,56.49,0,0,1-11.81,5.66,52.36,52.36,0,0,1-10.55,2.4c-1.73.21-3.45.3-5.18.36a41.07,41.07,0,0,1-8.72-.48,23.2,23.2,0,0,1-12.59-6.46A20.53,20.53,0,0,1,69,214a7.83,7.83,0,0,1-.29-2.2,4,4,0,0,0,0-.85c0,.06,0,.15-.13.15a18.7,18.7,0,0,1,2.54-9.85,31.87,31.87,0,0,1,10.22-11,25.22,25.22,0,0,1,12.22-4,14.44,14.44,0,0,1,4.49.34c.48.13.32-.25.45-.42.16.09.16.29.29.4a.59.59,0,0,0,.56.17c.19-.08.13-.3.13-.46a20.44,20.44,0,0,1,.81-5.92,10.82,10.82,0,0,1,1-2.2C101.29,177.93,101.52,177.75,101.54,177.48Z"/><path class="cls-71" d="M68.76,211.8a14.8,14.8,0,0,0,1.29,5.1,21.09,21.09,0,0,0,5.61,7.63A23.32,23.32,0,0,0,86.6,229.9a34.75,34.75,0,0,0,3.81.46,42.73,42.73,0,0,0,4.39.18A54.83,54.83,0,0,0,110.68,228a57.27,57.27,0,0,0,15.07-7.51,26.65,26.65,0,0,0,6.78-6.53,17.41,17.41,0,0,0,3.3-9,15.89,15.89,0,0,0-3.28-10.9c-.19-.27-.43-.51-.65-.77.09-.29.29-.11.36,0a7.5,7.5,0,0,1,2,2.28l1.45,2.24a.68.68,0,0,1,.37.39,19.18,19.18,0,0,1,2.44,7.53,14.47,14.47,0,0,1-.89,6,27.55,27.55,0,0,1-6.86,10.41c-.75.64-1.45,1.35-2.26,1.94a13,13,0,0,1-1.68,1.27,52.37,52.37,0,0,1-5,3.19.71.71,0,0,1-.42.14,33,33,0,0,0-3,1.56.11.11,0,0,1,0,.15c-1.62.67-3.25,1.3-4.84,2.07-.22-.21-.43-.08-.66,0A54,54,0,0,1,102,235.05h-.56a.82.82,0,0,0-.49,0c-.18,0-.11.13-.12,0h0s.21-.05.29.06a1.43,1.43,0,0,1-.71.09c-.23-.13-.48,0-.71-.06.14,0,.29,0,.41.07a16.85,16.85,0,0,1-2.83.21,33.48,33.48,0,0,0-4.25,0,16.74,16.74,0,0,1-2.82-.21.36.36,0,0,1,.33-.06,1.55,1.55,0,0,0-.64,0,16.72,16.72,0,0,1-6.29-1.58A26.32,26.32,0,0,1,69,216.23a10.14,10.14,0,0,1-.41-2.57,11.36,11.36,0,0,1,0-1.65C68.6,211.87,68.63,211.79,68.76,211.8Z"/><path class="cls-71" d="M118.4,230.34v-.12a56.52,56.52,0,0,0,14.95,4.05,49.79,49.79,0,0,0,8.28.41,51.71,51.71,0,0,0,7.75-.82,54.33,54.33,0,0,0,8.5-2.26,23.41,23.41,0,0,0,7.75-4.59,22.64,22.64,0,0,0,5.45-7.27,18.84,18.84,0,0,0,1.88-7.05c0-.71.07-1.42.09-2.12,0-.24-.23-.53.14-.7h0c.11.17,0,.4.11.56h0c.12.21,0,.47.1.68v.16c.11.31-.05.65.1,1v.34a5.74,5.74,0,0,0,0,1.94.69.69,0,0,1,0,.45c-.13.31,0,.64-.09,1a23.67,23.67,0,0,1-2,7.57,25,25,0,0,1-9.86,11.5,28.18,28.18,0,0,1-7.69,2.91A52.17,52.17,0,0,1,138,239.58a54.72,54.72,0,0,1-20.64-5.09c-.13-.06-.26-.15-.38-.22a23.42,23.42,0,0,0,1-2.74C118,231.12,118,230.61,118.4,230.34Z"/><path class="cls-72" d="M118.4,230.34c-.38,1.17-.76,2.35-1.11,3.52-.06.21-.1.39-.36.41a35,35,0,0,1-3.35-1.83c.06-.39.45-.35.69-.47,1.24-.55,2.5-1.08,3.76-1.61A.4.4,0,0,1,118.4,230.34Z"/><path class="cls-73" d="M101.31,178a19,19,0,0,0-1.53,5.38,22.13,22.13,0,0,0-.17,3c0,.63,0,.59-.57.43-.41-.11-.59-.3-.56-.72a18.81,18.81,0,0,1,2.8-8.28.09.09,0,0,1,0,.14Z"/><path class="cls-74" d="M166,197l-.06.37a1,1,0,0,1-.52-1.08,9.88,9.88,0,0,0-.12-1.72c0-.13-.16-.3.11-.34A11.5,11.5,0,0,1,166,197Z"/><path class="cls-75" d="M93.13,235.37c.12-.14.27-.11.42-.11H97a.55.55,0,0,1,.41.11C96,235.43,94.55,235.43,93.13,235.37Z"/><path class="cls-76" d="M68.76,211.8c-.26.59,0,1.21-.12,1.81a10.47,10.47,0,0,1-.08-2.5l.2-.29Z"/><path class="cls-77" d="M173,209.55a1.28,1.28,0,0,1-.22-1.22A2.15,2.15,0,0,1,173,209.55Z"/><path class="cls-78" d="M173.51,214.47a3.21,3.21,0,0,1,0-1.94A9,9,0,0,1,173.51,214.47Z"/><path class="cls-79" d="M165.45,194.24c-.13.09-.09.23-.11.34a1.48,1.48,0,0,1-.12-1Z"/><path class="cls-80" d="M173.15,209.87c-.22.2-.09.46-.14.7a.88.88,0,0,1,0-.91.15.15,0,0,1,.14.18Z"/><path class="cls-80" d="M173.51,212.2c-.23-.29-.07-.63-.1-1A2.6,2.6,0,0,1,173.51,212.2Z"/><path class="cls-81" d="M173.41,215.86c0-.31-.12-.64.09-1A2.3,2.3,0,0,1,173.41,215.86Z"/><path class="cls-82" d="M101.31,178v-.15c0-.21.17-.27.26-.41C101.68,177.76,101.45,177.89,101.31,178Z"/><path class="cls-83" d="M90,235.15c.25-.2.52-.09.79,0H90Z"/><path class="cls-84" d="M100.2,235.17h-.47c.26-.06.53-.17.77,0Z"/><path class="cls-85" d="M101.22,235.06l-.38-.06c.24-.07.47-.15.67,0Z"/><path class="cls-80" d="M173.39,211.12c-.19-.2-.08-.46-.1-.68A1.33,1.33,0,0,1,173.39,211.12Z"/><path class="cls-80" d="M173.29,210.44c-.2-.15-.09-.37-.11-.56A1,1,0,0,1,173.29,210.44Z"/><path class="cls-86" d="M95.54,228.11a31.29,31.29,0,0,1-8.41-.82A20,20,0,0,1,74.2,216.7a17.76,17.76,0,0,1-1.62-5.57,16.61,16.61,0,0,1,1.18-8.33,22.72,22.72,0,0,1,4.33-6.89,25.71,25.71,0,0,1,5.14-4.21,22.55,22.55,0,0,1,7.17-3,14.93,14.93,0,0,1,6.78-.16c2.67.63,4.41,2.47,5.77,4.74.37.64.76,1.28,1.17,1.94.88,1.35,1.36,1.46,2.74.68a29.33,29.33,0,0,1,9.45-3.52,19.37,19.37,0,0,1,6.08-.06,10.19,10.19,0,0,1,4.51,1.47,12.06,12.06,0,0,1,3.87,4.68,13.88,13.88,0,0,1,1.35,4.49,15.31,15.31,0,0,1,0,3.45,14.43,14.43,0,0,1-1.5,4.84,19.71,19.71,0,0,1-4.85,6,42.32,42.32,0,0,1-6.68,4.59,49.14,49.14,0,0,1-8.17,3.69q-2.61.88-5.29,1.51a37.49,37.49,0,0,1-4.59.74A42.15,42.15,0,0,1,95.54,228.11Z"/><path class="cls-86" d="M121.41,228.67c1.4-1,2.91-1.69,4.24-2.66.36-.27.75-.52,1.14-.78a49.42,49.42,0,0,0,5,1.28,36,36,0,0,0,4.15.59,33.13,33.13,0,0,0,3.73.07,26.49,26.49,0,0,0,8.63-1.57,6.39,6.39,0,0,0,1.57-.83.88.88,0,0,0,.39-1.2l-.06-.11a6.14,6.14,0,0,0-1.16-1.57,69.32,69.32,0,0,0-6-5.51c-1.65-1.37-3.35-2.65-5-4-.2-.17-.44-.3-.5-.58.21-1,.54-1.94.71-3a13.71,13.71,0,0,0-.45-6.2,26.4,26.4,0,0,0-2-4.84,11,11,0,0,1,2.18-3.32,7.32,7.32,0,0,1,2.58-1.71,16.32,16.32,0,0,1,5-1,22.83,22.83,0,0,1,8.94,1.3,23.55,23.55,0,0,1,7.86,4.51,21.12,21.12,0,0,1,5.42,7.18,15.26,15.26,0,0,1,1.25,4.65,18.31,18.31,0,0,1-1.7,10.12,18.74,18.74,0,0,1-3.77,5.31,20.59,20.59,0,0,1-7.9,5,50.06,50.06,0,0,1-7.75,2c-1.41.25-2.85.36-4.29.49a65.82,65.82,0,0,1-6.59.07,32.57,32.57,0,0,1-4.18-.45,48.13,48.13,0,0,1-5.7-1.21c-1.79-.48-3.54-1.1-5.28-1.74A.9.9,0,0,1,121.41,228.67Z"/><path class="cls-87" d="M131,192.45a9.71,9.71,0,0,0-5.45-2.48l-.14-.09c.77-.63,1.69-1,2.46-1.63a23.81,23.81,0,0,0,4-3.3,5.28,5.28,0,0,0,1.36-2.69c0-.38.26-.69.32-1.07a7.9,7.9,0,0,0-.59-4.1,7.3,7.3,0,0,0-4.64-4.43,12.94,12.94,0,0,0-4-.54,16.44,16.44,0,0,0-5.21.81,13.41,13.41,0,0,0-5,2.9,10.82,10.82,0,0,0-3.25,5.92c-.14.69-.37,1.37-.51,2.06a14.37,14.37,0,0,0-.25,3.87c.07.89,0,1.8.11,2.69a3,3,0,0,0,.32,1,21.42,21.42,0,0,1-3.69,1.49,1.08,1.08,0,0,1-1-.27,11.72,11.72,0,0,1-2-2.22,3.75,3.75,0,0,1-.4-2,18.78,18.78,0,0,1,1-7.51,17.61,17.61,0,0,1,3.28-5.57,21.59,21.59,0,0,1,6.79-5,20.63,20.63,0,0,1,6.52-1.94,26.52,26.52,0,0,1,6.78-.07,21.36,21.36,0,0,1,7.23,2.24,8.78,8.78,0,0,1,4.42,4.58,9.76,9.76,0,0,1,.68,3.14c.06,1.26,0,2.52.11,3.78.11,1,.48,1.35,1.44,1.4a35.79,35.79,0,0,1,9.48,1.37,20.86,20.86,0,0,1,6.67,3.6,9.36,9.36,0,0,1,3.21,4.17,6.46,6.46,0,0,1,.29,1.15c-.88-.54-1.71-1-2.57-1.44a28.44,28.44,0,0,0-8.1-2.51,34.49,34.49,0,0,0-5.28-.19c-.4,0-.8.13-1.22.1,0-.27.25-.24.42-.27a9.4,9.4,0,0,1,2.9,0c.27,0,.53,0,.79,0a14.48,14.48,0,0,1-3.07-.51,12,12,0,0,0-3.33-.29,5.61,5.61,0,0,0-1.44.4c-1.25.36-2.47.81-3.69,1.26s-2.63.91-3.88,1.48C132.21,192.1,131.59,192.18,131,192.45Z"/><path class="cls-88" d="M110.57,191.45c-.42,0-.41-.41-.44-.68a12.39,12.39,0,0,1-.12-2.11c.06-.9-.08-1.79,0-2.7a20.93,20.93,0,0,1,.63-3.59,23.26,23.26,0,0,1,.91-3,9.59,9.59,0,0,1,1.94-3,12.64,12.64,0,0,1,3-2.43,13.68,13.68,0,0,1,4.23-1.62,21.91,21.91,0,0,1,3.79-.36,12.1,12.1,0,0,1,3.12.29,8,8,0,0,1,2.53,1.08,7.4,7.4,0,0,1,3.16,4.07,6.62,6.62,0,0,1,.4,4,9.25,9.25,0,0,1-1.08,2.8,10.91,10.91,0,0,1-2.22,2.33c-.9.71-1.81,1.4-2.72,2.07a9.77,9.77,0,0,0-1.79,1.19c-.08.09-.28.06-.43.08l-4.35-.42a15.38,15.38,0,0,0-2.71.12,23.24,23.24,0,0,0-4.68.86C112.64,190.75,111.62,191.11,110.57,191.45Z"/><path class="cls-88" d="M131,192.45c.12-.5.63-.44.92-.51,1-.25,1.83-.72,2.76-1s1.93-.72,3-1.07,2.36-.82,3.55-1.21a5.51,5.51,0,0,1,2.49-.06,26.9,26.9,0,0,1,3.87.82,6.15,6.15,0,0,1,.86.13h-2.95a4.83,4.83,0,0,0-1.41.22,35.42,35.42,0,0,0-3.93.89,10.08,10.08,0,0,0-5.9,4.93,23.74,23.74,0,0,0-1.81-1.94c-.16-.14-.27-.35-.54-.26C131.54,193.13,131.35,192.72,131,192.45Z"/><path class="cls-70" d="M137.5,211.79c2.11,1.67,4.22,3.32,6.3,5a55.83,55.83,0,0,1,5.45,5.09,6.15,6.15,0,0,1,1,1.4c.4.81.27,1.22-.51,1.7a14.41,14.41,0,0,1-4.53,1.64,29.37,29.37,0,0,1-4.28.59,38.64,38.64,0,0,1-3.88.07,30.5,30.5,0,0,1-3.7-.37,49.23,49.23,0,0,1-6-1.39c-.22-.07-.43-.11-.55-.33l1.67-1.24c.12.1.12.26.15.4.08.44.2.87.73,1a1.28,1.28,0,0,0,1.28-.62,2.4,2.4,0,0,0,.06-2.62,32.1,32.1,0,0,0,4.08-4.93,25.37,25.37,0,0,0,2.64-5.16A1,1,0,0,1,137.5,211.79Z"/><path class="cls-89" d="M130.67,222.06a1.79,1.79,0,0,1,.4,2,2,2,0,0,1-.88,1.22,1.09,1.09,0,0,1-1.52-.23,1.13,1.13,0,0,1-.2-.64,3.23,3.23,0,0,1,0-.44Z"/><path class="cls-70" d="M127.46,203.39a11,11,0,0,1-2.25,6.66,25.28,25.28,0,0,1-6.32,5.93,35,35,0,0,1-10.19,5,31.48,31.48,0,0,1-6.3,1.3,22.34,22.34,0,0,1-3.27.19,13,13,0,0,1-4.63-.75.83.83,0,0,1-.56-1.05,10.5,10.5,0,0,1,1.6-3.4,78.53,78.53,0,0,1,5.43-7.53c1.59-2,3.27-4,4.92-6,.85-1,1.7-2.07,2.62-3a7.18,7.18,0,0,1,2.57-1.51,25.69,25.69,0,0,1,6.39-1.65,16,16,0,0,1,6,.09,5,5,0,0,1,3.64,3.36A5.35,5.35,0,0,1,127.46,203.39Z"/><path class="cls-70" d="M98.82,200.84a11,11,0,0,1-1.1,4.55,47,47,0,0,1-3.67,6.94,60.57,60.57,0,0,1-4,5.81,14.82,14.82,0,0,1-2.55,2.64,1.25,1.25,0,0,1-1.49.06,12.2,12.2,0,0,1-3.92-3.71,20.59,20.59,0,0,1-3.36-6.86,15.06,15.06,0,0,1-.67-3.94,11.78,11.78,0,0,1,2.51-7.27A16.1,16.1,0,0,1,86.92,194a8.87,8.87,0,0,1,3.88-1,8.47,8.47,0,0,1,8,6.88A6.42,6.42,0,0,1,98.82,200.84Z"/><path class="cls-70" d="M162.78,209a20.42,20.42,0,0,1-2.25,9.69,10.51,10.51,0,0,1-2.27,3.14,1.31,1.31,0,0,1-1.81.31l0,0a16.13,16.13,0,0,1-2.69-1.79,54.72,54.72,0,0,1-6.78-6.22,31.73,31.73,0,0,1-5.33-7,7.31,7.31,0,0,1,.44-7.43,7.75,7.75,0,0,1,5.55-3.82,8.72,8.72,0,0,1,3.22.09,16.17,16.17,0,0,1,7,3.1,11.91,11.91,0,0,1,4.85,7.84C162.79,207.61,162.72,208.33,162.78,209Z"/><path class="cls-90" d="M112.44,182.72a5.29,5.29,0,0,1,2.43.69c.3.16.26.28.09.5a2.35,2.35,0,0,1-2.23.69,2.26,2.26,0,0,1-1-.31.88.88,0,0,1-.53-1c.11-.48.48-.57.91-.53Z"/><path class="cls-90" d="M114.13,181.72a2.55,2.55,0,0,1-1.5-.37.91.91,0,0,1-.44-1c.12-.48.51-.51,1-.47a5.86,5.86,0,0,1,2.47,1c.31.18.29.45-.06.63A2.77,2.77,0,0,1,114.13,181.72Z"/><path class="cls-91" d="M124.33,174.26c0-.85.12-1.35.69-1.66.28-.16.47-.16.66.11a3.43,3.43,0,0,1,.3,2.91.64.64,0,0,1-.88.24.55.55,0,0,1-.17-.14A2,2,0,0,1,124.33,174.26Z"/><path class="cls-90" d="M118.39,174.12a1.18,1.18,0,0,1,1,.43,5,5,0,0,1,1.39,2c.1.29,0,.42-.29.46a1.57,1.57,0,0,1-1-.26,3,3,0,0,1-1.5-2.22C117.92,174.22,118,174,118.39,174.12Z"/><path class="cls-90" d="M131.59,175.72a3.68,3.68,0,0,1-1.48,2.42.62.62,0,0,1-.73,0,.65.65,0,0,1-.23-.65,3.45,3.45,0,0,1,.87-1.94c.29-.31.61-.54,1.07-.3C131.28,175.44,131.74,175.11,131.59,175.72Z"/><path class="cls-90" d="M112.21,190.21h-.55a.67.67,0,0,1-.75-.53.74.74,0,0,1,.56-.85,4,4,0,0,1,1.94-.15,2.88,2.88,0,0,1,.7.18c.21.08.49.14.5.45s-.22.41-.44.51A3.92,3.92,0,0,1,112.21,190.21Z"/><path class="cls-91" d="M128.58,174.15a3.84,3.84,0,0,1-.31,1.77c-.13.37-.38.73-.77.68s-.58-.47-.58-.88a3.88,3.88,0,0,1,.12-1.48c.06-.14.13-.28.2-.41a.88.88,0,0,1,1.07-.48C128.79,173.45,128.46,174,128.58,174.15Z"/><path class="cls-90" d="M112.33,187.41a6.91,6.91,0,0,1-.76-.17.61.61,0,0,1-.43-.7.81.81,0,0,1,.65-.68,3.44,3.44,0,0,1,2.48.28c.16.08.38.14.36.37a.56.56,0,0,1-.37.45A6.63,6.63,0,0,1,112.33,187.41Z"/><path class="cls-90" d="M121.3,173.91a1.4,1.4,0,0,1,0-.29c.1-.63.47-.77,1-.36a3.89,3.89,0,0,1,1.18,2.26c.08.41-.29.41-.57.38A1.86,1.86,0,0,1,121.3,173.91Z"/><path class="cls-90" d="M130.65,180.48a.62.62,0,0,1-.69-.56.57.57,0,0,1,0-.29,2.43,2.43,0,0,1,1.86-1.49.68.68,0,0,1,.72.63.66.66,0,0,1-.06.34A2.48,2.48,0,0,1,130.65,180.48Z"/><path class="cls-90" d="M115.15,176.41c0-.5.34-.81.76-.67a4,4,0,0,1,2.16,1.94c.21.34-.13.43-.34.47a3.47,3.47,0,0,1-2.56-1.53A1.49,1.49,0,0,1,115.15,176.41Z"/><path class="cls-92" d="M116,179.6a4.34,4.34,0,0,1-2.37-.74c-.29-.2-.57-.49-.4-.89s.58-.32.89-.26a7.16,7.16,0,0,1,2.48,1.36c.25.18.07.38-.12.47A1.32,1.32,0,0,1,116,179.6Z"/><path class="cls-90" d="M130.35,183.14a.92.92,0,0,1,.32-.76,3.18,3.18,0,0,1,1.41-.73.43.43,0,0,1,.49.16.45.45,0,0,1,0,.56,3,3,0,0,1-1.77,1.15C130.45,183.56,130.32,183.42,130.35,183.14Z"/><path class="cls-89" d="M135.49,224.61c0,1.08-.27,1.49-1.22,1.64a1,1,0,0,1-1.1-.46,2.24,2.24,0,0,1,.23-2.44,1.16,1.16,0,0,1,1.23-.25,1.2,1.2,0,0,1,.86,1.06A3.38,3.38,0,0,1,135.49,224.61Z"/><path class="cls-89" d="M140.53,224.38c0-.47,0-1,.44-1.14a1.06,1.06,0,0,1,1.25.47,3.43,3.43,0,0,1,.76,1.77.85.85,0,0,1-.58,1A1.24,1.24,0,0,1,141,226,2.44,2.44,0,0,1,140.53,224.38Z"/><path class="cls-89" d="M139.64,225.12c0,.56-.08,1-.64,1.19s-.92-.14-1.24-.72a2.23,2.23,0,0,1-.27-1.27.79.79,0,0,1,.63-.84.89.89,0,0,1,1.07.35A1.75,1.75,0,0,1,139.64,225.12Z"/><path class="cls-89" d="M146.79,224.7a.71.71,0,0,1-.65.76.69.69,0,0,1-.25,0A2.83,2.83,0,0,1,144,223.3a.56.56,0,0,1,.46-.66.53.53,0,0,1,.33,0,3.56,3.56,0,0,1,1.94,1.8A.85.85,0,0,1,146.79,224.7Z"/><path class="cls-89" d="M123,207.88a3.5,3.5,0,0,1-2.54-1,.83.83,0,0,1-.22-1.14.86.86,0,0,1,.46-.33,2.32,2.32,0,0,1,1.56-.15,4,4,0,0,1,1.73.52,1.08,1.08,0,0,1,.54,1.42,1.06,1.06,0,0,1-1.14.62Z"/><path class="cls-93" d="M120.63,211.57a2.75,2.75,0,0,1-2-.71,1.06,1.06,0,0,1-.21-1.37,1.31,1.31,0,0,1,1.4-.6,4.39,4.39,0,0,1,1.72,1c.27.24.62.55.47,1a1.14,1.14,0,0,1-1,.68Z"/><path class="cls-93" d="M114.24,217.82a2.22,2.22,0,0,1-1.77-2.15c0-.9.07-1,1-.9h.16c.76-.43,1.13.13,1.47.62a1.87,1.87,0,0,1,.22,2C115.1,217.78,114.72,217.84,114.24,217.82Z"/><path class="cls-89" d="M111.24,218.41a1.2,1.2,0,0,1-1.11,1.28H110c-.86,0-1.46-.78-1.45-1.89a1.19,1.19,0,0,1,1.06-1.32h.24C110.63,216.5,111.25,217.36,111.24,218.41Z"/><path class="cls-89" d="M122.32,203.4a1.56,1.56,0,0,1-1-.16.6.6,0,0,1-.38-.56c0-.28.19-.37.38-.47a8,8,0,0,1,2.68-.91,2.59,2.59,0,0,1,1.2.13c.48.15.48.66,0,1a5.74,5.74,0,0,1-1.94.86A2.14,2.14,0,0,1,122.32,203.4Z"/><path class="cls-93" d="M103.76,219.86a2.09,2.09,0,0,1-.72,1.63.85.85,0,0,1-1.19,0,.91.91,0,0,1-.23-.46,2.91,2.91,0,0,1,.41-2.29,1,1,0,0,1,.91-.53,1.1,1.1,0,0,1,.73.78A3.25,3.25,0,0,1,103.76,219.86Z"/><path class="cls-89" d="M118.16,215.39a2.5,2.5,0,0,1-2.09-1.27,1,1,0,0,1,.3-1.39c.35-.31.71-.12,1.08,0a2.79,2.79,0,0,1,1.35,1.19,1,1,0,0,1,.07,1C118.69,215.22,118.42,215.45,118.16,215.39Z"/><path class="cls-93" d="M106.76,219.1a2,2,0,0,1-.27,1.12.83.83,0,0,1-.89.52.85.85,0,0,1-.81-.66,2.18,2.18,0,0,1,0-1.47c.26-.68.53-.84,1.27-.79a.65.65,0,0,1,.58.52A1.33,1.33,0,0,1,106.76,219.1Z"/><path class="cls-94" d="M100.07,219.36a3.37,3.37,0,0,1-1.26,2.06.72.72,0,0,1-1,0,.68.68,0,0,1-.2-.84,4.26,4.26,0,0,1,1.21-1.83.74.74,0,0,1,.87-.15C100,218.66,100.06,219,100.07,219.36Z"/><path class="cls-93" d="M122,198.8c.27,0,.51-.07.61.1s-.14.3-.24.45a7.63,7.63,0,0,1-1.45,1.5,1.55,1.55,0,0,1-.65.3c-.36.06-.74.1-1-.35s.07-.62.3-.86A4.22,4.22,0,0,1,122,198.8Z"/><path class="cls-93" d="M118.05,199.21A2.5,2.5,0,0,1,116.8,201a.7.7,0,0,1-.78-.06.68.68,0,0,1-.16-.77,2.94,2.94,0,0,1,1.37-1.61C117.66,198.29,118.06,198.64,118.05,199.21Z"/><path class="cls-94" d="M112.46,201.73a.65.65,0,0,1-.63-.67.8.8,0,0,1,.09-.3,5.05,5.05,0,0,1,1.94-1.64c.22-.12.4,0,.31.29a5.73,5.73,0,0,1-1.06,2.05A.83.83,0,0,1,112.46,201.73Z"/><path class="cls-89" d="M81,211.68c-.55,0-.89-.1-1.06-.54a.74.74,0,0,1,.34-1,4.15,4.15,0,0,1,2.06-.74h.39c.12,0,.57-.23.7,0a1,1,0,0,1-.14.84A3.21,3.21,0,0,1,81,211.68Z"/><path class="cls-93" d="M80.28,208.67a1.25,1.25,0,0,1-.71-.14.72.72,0,0,1-.35-.95.79.79,0,0,1,.35-.35,5.26,5.26,0,0,1,2.9-.45c.31,0,.5.22.22.58A3.08,3.08,0,0,1,80.28,208.67Z"/><path class="cls-89" d="M86.19,195.64a1,1,0,0,1,.44-.9c.32-.2.63.06.88.31a3.45,3.45,0,0,1,1.19,1.82.64.64,0,0,1-.46.8.69.69,0,0,1-.35,0A2.65,2.65,0,0,1,86.19,195.64Z"/><path class="cls-93" d="M82.08,199.36a6.22,6.22,0,0,1,2.63,1.12c.26.21.22.48-.09.62a2.08,2.08,0,0,1-1.56.21,3.52,3.52,0,0,1-1.67-1c-.47-.53-.41-.7.26-.91Z"/><path class="cls-89" d="M85.16,214.47c.72,0,.91.24.61.71a4.09,4.09,0,0,1-2.18,1.72c-.26.1-.65.13-.8-.19a.9.9,0,0,1,.13-1A4.12,4.12,0,0,1,85.16,214.47Z"/><path class="cls-89" d="M93.39,193.91a3.47,3.47,0,0,1,.21,3.29.56.56,0,0,1-.66.42.57.57,0,0,1-.41-.37,3.14,3.14,0,0,1-.12-2.53.46.46,0,0,1,.41-.34C93.13,194.39,93.25,194.17,93.39,193.91Z"/><path class="cls-89" d="M90.9,196.5c-.07.25,0,.61-.35.74a.76.76,0,0,1-.83-.31A3.27,3.27,0,0,1,88.9,195a1,1,0,0,1,.28-.82c.42-.43.7-.39,1,.13A5.69,5.69,0,0,1,90.9,196.5Z"/><path class="cls-94" d="M83.85,212c.31,0,.52,0,.63.18a.55.55,0,0,1-.15.61,4.77,4.77,0,0,1-1.85,1.47.73.73,0,0,1-1-.23.72.72,0,0,1,.14-.95A3.68,3.68,0,0,1,83.85,212Z"/><path class="cls-93" d="M85.55,199a2.19,2.19,0,0,1-1.94-1.43c-.14-.49,0-.7.53-.68a2.56,2.56,0,0,1,1.85,1c.2.22.69.31.53.75s-.63.31-1,.44Z"/><path class="cls-93" d="M96.16,197.05a2.26,2.26,0,0,1-.85,1.87c-.44.36-1,.2-1-.35a2.3,2.3,0,0,1,.53-1.93c.25-.31.54-.55,1-.36A.66.66,0,0,1,96.16,197.05Z"/><path class="cls-93" d="M80,206.09h-.1c-.55,0-1.09-.33-1-.65,0-.56.55-.58,1-.69a7.62,7.62,0,0,1,2.43,0c.37,0,.4.21.23.49a.8.8,0,0,1-.36.32A5.81,5.81,0,0,1,80,206.09Z"/><path class="cls-89" d="M81.38,203.63a2.44,2.44,0,0,1-1.28-.2c-.3-.16-.53-.39-.45-.75a.66.66,0,0,1,.7-.5,4.47,4.47,0,0,1,2.41.51q.58.31,0,.69A2.21,2.21,0,0,1,81.38,203.63Z"/><path class="cls-94" d="M85.69,219.17a.7.7,0,0,1-.72-.69.62.62,0,0,1,.1-.38,3.43,3.43,0,0,1,2.1-1.55c.23-.08.28,0,.25.23A4.1,4.1,0,0,1,86,219.09.61.61,0,0,1,85.69,219.17Z"/><path class="cls-89" d="M97.82,199.82a2.66,2.66,0,0,1-1,1.72c-.25.2-.42.14-.56-.15a2.19,2.19,0,0,1,1-2.21C97.65,199.06,97.85,199.26,97.82,199.82Z"/><path class="cls-93" d="M159.64,210a3.57,3.57,0,0,1,1.71.28.8.8,0,0,1,.5.79.83.83,0,0,1-.54.72,3.1,3.1,0,0,1-3.1-1c-.34-.55-.28-.67.37-.77A3.78,3.78,0,0,1,159.64,210Z"/><path class="cls-93" d="M160.18,207.21H161a.76.76,0,0,1,.81.68.88.88,0,0,1-.62.89,3.08,3.08,0,0,1-2.9-.74c-.27-.31-.2-.51.2-.63A4.43,4.43,0,0,1,160.18,207.21Z"/><path class="cls-89" d="M150,198.83a3.36,3.36,0,0,1,.8-1.74c.18-.23.41-.55.71-.44a1.17,1.17,0,0,1,.64.8,2.81,2.81,0,0,1-1.1,2.34C150.45,200.13,150,199.82,150,198.83Z"/><path class="cls-94" d="M155.48,202.52a2.09,2.09,0,0,1-.5,0c-.31-.1-.52-.35-.29-.63a4,4,0,0,1,2.69-1.69c.71-.07.88.21.5.81A2.81,2.81,0,0,1,155.48,202.52Z"/><path class="cls-93" d="M157.79,215.59a3.89,3.89,0,0,1,2,.59,1,1,0,0,1,.48.58c.17.51-.07.86-.6.84a4,4,0,0,1-2.58-1.14c-.19-.18-.33-.38-.22-.63s.36-.23.58-.24Z"/><path class="cls-89" d="M146.46,199.78a1.5,1.5,0,0,1-.16.78.52.52,0,0,1-.61.41.53.53,0,0,1-.36-.26,4,4,0,0,1-.75-2.78c0-.2,0-.49.46-.29A1.87,1.87,0,0,1,146.46,199.78Z"/><path class="cls-89" d="M149.48,197.94a3.21,3.21,0,0,1-.75,1.94.45.45,0,0,1-.65.09.46.46,0,0,1-.17-.26,3.9,3.9,0,0,1,.23-2.85c.14-.34.86-.24,1.05.14A2.85,2.85,0,0,1,149.48,197.94Z"/><path class="cls-93" d="M158.75,212.91a2.94,2.94,0,0,1,1.69.39c.45.26.7.74.5,1.09a.84.84,0,0,1-1.11.34,4.45,4.45,0,0,1-1.94-1,.54.54,0,0,1-.26-.56c.06-.25.3-.29.52-.3Z"/><path class="cls-93" d="M153.2,200.63a2.63,2.63,0,0,1-.49,0c-.21-.07-.43-.25-.29-.46.54-.72,1-1.55,1.94-1.86.53-.17.74,0,.72.54a1.85,1.85,0,0,1-1.87,1.83Z"/><path class="cls-93" d="M142.77,200.92c-.07-.34.14-.56.42-.75s.55,0,.76.16a2.69,2.69,0,0,1,1,1.67.62.62,0,0,1-.43.77.64.64,0,0,1-.45-.05A2.17,2.17,0,0,1,142.77,200.92Z"/><path class="cls-93" d="M158,204.31c-.47,0-1,.12-1.09-.38s.4-.53.67-.72a3.58,3.58,0,0,1,1.94-.7.58.58,0,0,1,.61.38.59.59,0,0,1-.19.7A3.06,3.06,0,0,1,158,204.31Z"/><path class="cls-93" d="M159.58,206.3a3.41,3.41,0,0,1-1.38-.14c-.18-.06-.35-.15-.38-.37s.18-.31.35-.38A6.79,6.79,0,0,1,161,205a.49.49,0,0,1,.5.37.5.5,0,0,1-.27.61A2.47,2.47,0,0,1,159.58,206.3Z"/><path class="cls-94" d="M155.77,218a3.61,3.61,0,0,1,2.59,1,.85.85,0,0,1,0,1.08c-.23.31-.63.18-.91,0A3.66,3.66,0,0,1,155.77,218Z"/><path class="cls-94" d="M143.66,205.12c0,.51-.19.63-.66.42a2.4,2.4,0,0,1-1.24-1.56c-.13-.4.13-.65.54-.56A2.38,2.38,0,0,1,143.66,205.12Z"/><g class="cls-95"><g class="cls-95"><path class="cls-96" d="M72.36,84.21l-2.18.53c0-2.55-.87-3.82-2.59-3.82-1.06,0-1.59.6-1.59,1.79,0,.88.91,1.83,2.73,2.84q4.2,2.34,4.2,6,0,5.76-5.34,5.76-5.66,0-5.65-5.76l2.32-.64c0,.37-.05.72-.05,1a3.89,3.89,0,0,0,.91,2.58,2.7,2.7,0,0,0,2.14,1.1q1.62,0,1.62-1.89c0-.85-.87-1.78-2.62-2.81q-4-2.33-4-6a5.38,5.38,0,0,1,1.52-4,5.2,5.2,0,0,1,3.89-1.54Q71.94,79.42,72.36,84.21Z"/><path class="cls-96" d="M88.53,79.4V96.86H84V94.14q-1.55,3-4,3c-2.2,0-3.29-1.46-3.29-4.39v-13c1.51-.09,3-.24,4.5-.44V92.64c0,1.15.25,1.72.76,1.72q2,0,2-5.94V79.84C85.54,79.75,87,79.6,88.53,79.4Z"/><path class="cls-96" d="M104.83,96.86h-4.5V84.37c0-1.28-.26-1.91-.78-1.91s-1,.5-1.37,1.51a10.12,10.12,0,0,0-.58,3.57v9.32H93.1v-17a22.9,22.9,0,0,0,4.5-.43v3.2q1.68-3.18,4.1-3.18c2.08,0,3.13,1.45,3.13,4.36Z"/><path class="cls-96" d="M120.52,73.46v23.4H116V95.39a3.44,3.44,0,0,1-3,1.86q-4.2,0-4.19-8.81,0-9.07,4.43-9.07A3.13,3.13,0,0,1,116,81.48V73.81A32.67,32.67,0,0,0,120.52,73.46Zm-5.83,8.39c-.76,0-1.13,1-1.13,2.85l-.09,3.62,0,3.29c0,2.11.43,3.16,1.28,3.16s1.25-1,1.25-3.11l.06-4.15-.1-2.84Q115.82,81.85,114.69,81.85Z"/><path class="cls-96" d="M133.93,86h-3.08c.11-.66.2-1.15.28-1.47a5,5,0,0,0,.18-1.25q0-1.08-.57-1.08c-.29,0-.56.48-.83,1.43a11.34,11.34,0,0,0-.39,3v10.2H125v-17l.87,0a16.8,16.8,0,0,0,3.63-.46v2.8c.73-1.86,1.63-2.8,2.69-2.8,1.44,0,2.17,1.09,2.17,3.28a10.77,10.77,0,0,1-.21,2C134.12,85,134,85.41,133.93,86Z"/><path class="cls-96" d="M137.86,96.86v-17a23.54,23.54,0,0,0,4.5-.46V96.86Zm2.28-23.62c1.4,0,2.1.74,2.1,2.23s-.7,2.23-2.1,2.23-2.09-.75-2.09-2.23S138.75,73.24,140.14,73.24Z"/><path class="cls-96" d="M155.82,90.63l1.82.73c-.19,3.93-1.89,5.89-5.08,5.89q-6.23,0-6.22-8.49A12.47,12.47,0,0,1,148,82a4.88,4.88,0,0,1,4.22-2.63q5.4,0,5.39,9.52h-6.56q0,6.69,2.48,6.69,2.33,0,2.32-3.78Q155.85,91.29,155.82,90.63ZM151,87h2.69q0-5.94-1.31-5.94c-.79,0-1.23,1.47-1.33,4.41Z"/><path class="cls-96" d="M172.7,73.46v23.4h-4.5V95.39a3.44,3.44,0,0,1-3,1.86q-4.2,0-4.19-8.81,0-9.07,4.43-9.07a3.13,3.13,0,0,1,2.79,2.11V73.81A32.67,32.67,0,0,0,172.7,73.46Zm-5.83,8.39q-1.14,0-1.14,2.85l-.08,3.62,0,3.29c0,2.11.42,3.16,1.28,3.16s1.24-1,1.24-3.11l.07-4.15-.1-2.84Q168,81.85,166.87,81.85Z"/></g><g class="cls-95"><path class="cls-96" d="M69.38,111v1.91h-2v12c0,.75.18,1.13.53,1.13s.41-.25.45-.76l1.29.17a3.07,3.07,0,0,1-3.38,2.67q-3.39,0-3.39-4v-11.3H61.37V111h1.51v-3a17.77,17.77,0,0,0,4.5-2.53V111Z"/><path class="cls-96" d="M78.17,110.53q6.17,0,6.16,8.92t-6.16,8.91q-6.18,0-6.18-8.91T78.17,110.53Zm0,1.5c-1,0-1.49,2.47-1.49,7.42s.49,7.41,1.49,7.41,1.5-2.47,1.5-7.41S79.16,112,78.16,112Z"/><path class="cls-96" d="M106.21,128h-4.5V115.21c0-1.12-.24-1.67-.71-1.67q-1.66,0-1.66,4.81V128h-4.5V115.48c0-1.27-.21-1.91-.64-1.91-1.12,0-1.67,1.6-1.67,4.8V128H88V110.92a24.15,24.15,0,0,0,4.5-.42v2.93c1.06-1.94,2.36-2.92,3.92-2.92,1.29,0,2.26.92,2.89,2.76q1.51-2.79,3.76-2.79,3.11,0,3.11,4.31Z"/><path class="cls-96" d="M123,127.38a6.76,6.76,0,0,1-3.21.88,2.62,2.62,0,0,1-2.86-2,3.53,3.53,0,0,1-3.24,2.06q-3.93,0-3.93-5a5.41,5.41,0,0,1,3.6-5.34c2.2-.94,3.31-2.08,3.31-3.41,0-1.75-.64-2.62-1.9-2.62-1.47,0-2.2.85-2.2,2.54a8.73,8.73,0,0,0,.35,2.09l-2.23-.59a13.33,13.33,0,0,1-.09-1.49q0-4.05,5.4-4,5.13,0,5.13,3.78V124.6q0,1.59.75,1.59a1.32,1.32,0,0,0,.69-.36Zm-6.37-9.62a4.72,4.72,0,0,1-1,1.1,4.52,4.52,0,0,0-1.4,3.75c0,2.25.32,3.37,1,3.37.94,0,1.41-1.11,1.41-3.34Z"/><path class="cls-96" d="M132.36,111v1.91h-2v12c0,.75.17,1.13.53,1.13s.41-.25.45-.76l1.29.17a3.07,3.07,0,0,1-3.38,2.67q-3.39,0-3.39-4v-11.3h-1.51V111h1.51v-3a17.77,17.77,0,0,0,4.5-2.53V111Z"/><path class="cls-96" d="M141.15,110.53q6.16,0,6.16,8.92t-6.16,8.91q-6.18,0-6.18-8.91T141.15,110.53Zm0,1.5c-1,0-1.49,2.47-1.49,7.42s.49,7.41,1.49,7.41,1.5-2.47,1.5-7.41S142.14,112,141.14,112Z"/><path class="cls-96" d="M159.88,121.76l1.81.73c-.18,3.93-1.88,5.89-5.07,5.89q-6.23,0-6.22-8.49a12.56,12.56,0,0,1,1.65-6.76,4.87,4.87,0,0,1,4.23-2.63q5.39,0,5.39,9.52h-6.56q0,6.69,2.48,6.69c1.54,0,2.32-1.26,2.32-3.78Q159.91,122.42,159.88,121.76Zm-4.78-3.65h2.69q0-5.94-1.31-5.94c-.79,0-1.23,1.47-1.33,4.41Z"/><path class="cls-96" d="M175.06,115.34l-2.18.53q0-3.83-2.59-3.82c-1.06,0-1.59.6-1.59,1.79,0,.88.91,1.82,2.74,2.84q4.19,2.34,4.19,6,0,5.76-5.34,5.76-5.64,0-5.64-5.76L167,122c0,.37-.05.72-.05,1a4,4,0,0,0,.91,2.59,2.71,2.71,0,0,0,2.14,1.1c1.08,0,1.63-.63,1.63-1.9,0-.84-.88-1.77-2.63-2.8-2.64-1.55-4-3.55-4-6a5.42,5.42,0,0,1,1.52-4,5.21,5.21,0,0,1,3.89-1.54Q174.64,110.55,175.06,115.34Z"/></g></g><rect class="cls-97" width="250" height="250"/></svg>