<svg id="Layer_1" data-name="Layer 1" xmlns="http://www.w3.org/2000/svg" viewBox="0 0 250 250"><defs><style>.cls-1{fill:#336090;}.cls-2{fill:#32527b;}.cls-3{fill:#b1a789;}.cls-4{fill:#a3b9a7;}.cls-5{fill:#cfc5a7;}.cls-6{fill:#859b89;}.cls-7{fill:#5f8cbc;}.cls-8{fill:#796f52;}.cls-9{fill:#7d7356;}.cls-10{fill:#beb496;}.cls-11{fill:#d2ded4;}.cls-12{fill:#d2ded5;}.cls-13{fill:#dfd9c5;}.cls-14{fill:#ded9c5;}.cls-15{fill:#857c61;}.cls-16{fill:#796f51;}.cls-17{fill:#807659;}.cls-18{fill:#7b7154;}.cls-19{fill:#887e61;}.cls-20{fill:#93896b;}.cls-21{fill:#fefdfd;}.cls-22{fill:#fdfcfc;}.cls-23{fill:#837a5e;}.cls-24{fill:#cbc1a3;}.cls-25{fill:#cac0a2;}.cls-26{fill:#82785c;}.cls-27{fill:#82795d;}.cls-28{fill:#afa587;}.cls-29{fill:#a59b7c;}.cls-30{fill:#fcfcfb;}.cls-31{fill:#fdfdfc;}.cls-32{fill:#ccc2a4;}.cls-33{fill:#83795e;}.cls-34{fill:#9c9274;}.cls-35{fill:#978d6f;}.cls-36{fill:#fefefd;}.cls-37{fill:#fbfbfa;}.cls-38{fill:#847a5f;}.cls-39{fill:#dad4c0;}.cls-40{fill:#b8ae90;}.cls-41{fill:#afa585;}.cls-42{fill:#c9bea1;}.cls-43{fill:#b5ab8d;}.cls-44{fill:#8a8268;}.cls-45{fill:#7c7356;}.cls-46{fill:none;}</style></defs><title>products</title><path class="cls-1" d="M54.24,111.73V50.25c.55-1.42,1.87-1.56,3.19-1.7A44.28,44.28,0,0,1,62,48.46c29.37,0,58.73-.07,88.09,0,10.79,0,21.58-.08,32.38,0,1.74,0,3.91-.54,4.79,1.77l-.13-.06c-1.47,1.25-3.31,1.07-5.06,1.07h-27c-5.94,0-5.95,0-5.95,5.51V97.92a14.12,14.12,0,0,1-.45,5c-1.49,2.14-3.12.72-4.59.06A54.41,54.41,0,0,0,94,104.93c-1.38.81-2.69,2.43-4.68,1.09-.8-1.47-.62-3.07-.62-4.68V74.69a18.62,18.62,0,0,0-1.17-7.28,9.82,9.82,0,0,0-18.71,2c-1,5.69-.74,11.43-.76,17.15v20.59c0,1.65.27,3.41-1.07,4.82C62.61,113.09,58.38,113.71,54.24,111.73Z"/><path class="cls-1" d="M54.21,234.21V172.73a3.67,3.67,0,0,1,1.07-.7c2.93-.52,5.9-.18,8.85-.24a3.61,3.61,0,0,1,3.93,3.13,26.85,26.85,0,0,1,.59,6.38v32.44A8.55,8.55,0,0,0,74,221.87a9.73,9.73,0,0,0,10.36-.93c2.76-1.88,3.53-4.63,3.53-7.71V182.81c0-1.66-.31-3.41,1.12-4.79,1.69-.69,3,.32,4.24,1,16.48,9.35,33.38,10.09,50.76,2.36,1.47-.66,3.14-2,4.68.08a8.29,8.29,0,0,1,.47,3.31v45.41c0,1.44.06,2.92-.93,4.2-1.1.86-2.43.8-3.74.81h-87a7.9,7.9,0,0,1-2.11-.23A2.58,2.58,0,0,1,54.21,234.21Z"/><path class="cls-2" d="M148.07,234.24V185c0-1.46-.07-2.92-.1-4.38a1.31,1.31,0,0,1,.23-1.13c3-2.55,6.32-4.68,9.35-7.2a6.18,6.18,0,0,1,4-1.21c7.48-.09,14.9-.06,22.35,0,1.19,0,2.4.06,3.23,1.07.06.94.2,1.79.2,2.69v59.42a4.76,4.76,0,0,1-3.63,1.05c-10.64,0-21.3.19-32-.09C150.38,235.19,149,235.33,148.07,234.24Z"/><path class="cls-2" d="M147.94,103.8q0-24.12.07-48.27V53.18c.06-2.9.07-3,3.26-3h35.86c0,1.22.13,2.46.13,3.74v54.26c0,1.24-.07,2.47-.1,3.75-1.43,1.1-3.13.93-4.77.93-6.4,0-12.79-.09-19.18.06a11.58,11.58,0,0,1-8.69-3c-1.93-1.82-4.31-3.16-6.33-4.9A1.05,1.05,0,0,1,147.94,103.8Z"/><path class="cls-3" d="M148.07,104.35c3.38,1.27,5.89,3.69,8.5,5.93A6.1,6.1,0,0,0,161,112c8.75-.09,17.49-.07,26.2-.09l0,58.94a10,10,0,0,1-.16,1.34c-8.42,0-16.84.05-25.18,0a6.87,6.87,0,0,0-5.07,1.82c-2.66,2.37-5.38,4.73-8.79,6.18-1.23-1.17-1-2.68-1.06-4.11-.08-3.8.07-7.62-.15-11.42a2.75,2.75,0,0,1,0-1c.86-2.91.1-5-3.21-5.82a.93.93,0,0,1,.3-.94c2.44-.57,3.43-2,3.19-4.4-.18-1.87,0-3.83-.07-5.75-.2-7.16-.2-7.13-8-7.56-1.4-.07-3.44.56-3.74-1.79,1.44-1.06,3.14-.71,4.75-.76,5-.11,10.06.14,15.08-.13a13,13,0,0,1,3.53.15c2.4.12,4.62.29,4-3.2-.28-1.5.84-1.71,2-.81a9.7,9.7,0,0,1,2.13,2.68,2.93,2.93,0,0,0,3.39,1.23c1.48-.3,1.08-1.56,1.16-2.5.31-3.56-.72-7.22,1.08-10.66a1.48,1.48,0,0,0-.6-2l-.12-.06c-1.2-.6-2.86-.84-3.67.06-1.65,1.81-2.81,1.19-4.49.13-2.56-1.63-5.27.15-7.93.06-1.42-.75-3-.58-4.52-.7-1.3-.09-2.63-.12-3.48-1.33C146.78,114.42,145.94,109.32,148.07,104.35Z"/><path class="cls-4" d="M150.12,49.48c-2,0-4,.12-6.05.12H58.67c-1.5,0-3.1-.34-4.47.63-.62-.82-1.68-.76-2.52-1.16-3.3-1.6-5.19-4.84-4.61-8a8.09,8.09,0,0,1,7.7-6.35H56.9q63.83,0,127.64-.06c1.61,0,3.34-.45,4.8.68-1.46,1.34-3.32,1-5.05,1-10.49,0-21,.1-31.37,0a7.16,7.16,0,0,1,3,7.21C155.55,46.73,153.46,48.71,150.12,49.48Z"/><path class="cls-4" d="M54.21,234.21a1.51,1.51,0,0,1,.62.14,9.85,9.85,0,0,0,3.86.25h88.93c4.68,0,6.74,1.24,8,4.68s.24,6.27-3.19,8.85c5.37-.19,10.69-.09,16-.09s10.91-.08,16.36,0a3.85,3.85,0,0,1,3.23,1.11c-1.18.79-2.53.47-3.8.47-9.95,0-19.9.23-29.85,0-32.9-.84-65.82-.22-98.73-.36-3.48,0-6-1.09-7.68-3.85-2.26-3.74-.3-8.71,4-10.4C52.7,234.79,53.57,234.87,54.21,234.21Z"/><path class="cls-5" d="M54.75,172.65a1.37,1.37,0,0,1-.53.08q0-20.39-.09-40.78c0-6.74.07-13.48.11-20.22a114.5,114.5,0,0,0,12.7.13c5.24-2,10.57-1.3,15.91-.49-.21,1.77-.21,1.87-2.3,2-3,.21-5.92.14-8.87.07-2.7-.08-3.91.93-3.75,3.55A75.87,75.87,0,0,0,69,128.05a6.5,6.5,0,0,1,0,3.1c-.66,1.87-.22,3.81-.22,5.7v30.07c0,1.68.2,3.41-.84,4.93-2.94,1.06-6,.24-9,.5C57.52,172.47,56.1,172.05,54.75,172.65Z"/><path class="cls-6" d="M188,249.26l-26.65-.14H150.6c1.08-1,1.93-1.81,2.73-2.63a6.09,6.09,0,0,0,1.21-7.2,6.49,6.49,0,0,0-6.46-4.33H58.56c-1.25,0-2.62.45-3.74-.57l49.44-.07h83c.55.21,1.09.42,1.64.61,3.94,1.4,5.74,3.83,5.61,7.57S192.25,248.27,188,249.26Z"/><path class="cls-6" d="M150.12,49.48c.46-.33.93-.64,1.41-1,4.68-3.58,4.91-7.94.68-12.12l-1.06-1h38.19c3.55,1.23,5.19,3.69,5.13,7.24s-2.07,5.61-5.31,6.85a5.17,5.17,0,0,0-1.87.87c-1-1.1-2.42-.68-3.65-.69Q166.86,49.52,150.12,49.48Z"/><path class="cls-5" d="M148.07,104.35V120l-.42.37c-1.76.78-3.74.31-5.55.82-5.56,0-11.15-.93-16.66.53a6.62,6.62,0,0,1-3.44-.34c-3.16-1.25-5.74-.17-8.16,1.76-.88.71-1.46,2.28-3.14,1.24-.53-2.89-2.42-3.88-5.31-3.43-4.11.65-8.25-.41-12.37.18a4.07,4.07,0,0,1-3.56-1.19c-1.3-2.33-.63-4.85-.77-7.29a15.84,15.84,0,0,0-.56-4.33c-.28-1.23.39-1.74,1.56-1.87a59.34,59.34,0,0,1,18.94-8.14A54.91,54.91,0,0,1,146.06,103c.61.31,1.28.55,1.92.82A5,5,0,0,0,148.07,104.35Z"/><path class="cls-7" d="M89.65,106.39l-1.37,1.34c-1.17,2-2.37,3.91-5.08,4.19l-16.26-.08c0-10.46.09-20.92,0-31.38a104.62,104.62,0,0,1,.72-11.73c.54-5.48,7.33-9.56,13.26-8.1,5.49,1.36,8.68,5.67,8.7,12,.06,9.22,0,18.45,0,27.67C89.61,102.34,89.63,104.35,89.65,106.39Z"/><path class="cls-5" d="M135.22,137.49c.67.88,1.68.69,2.6.7h7.11c3,0,3,.06,3.07,2.81v6.08c-1.58.85-3.25.22-4.82.09-5.23-.39-10.41,1.42-15.66.15-1.53-.36-2.91.66-4.24,1.36-1.87.8-2.23,3-4,3.89-1.1-.32-1.1-1.16-1.07-2,.8-2.42,0-3.59-2.81-3.38-1.47.12-3-.27-4.38.65-.81.56-.7,1.92-2,2.09a20.82,20.82,0,0,0-11.86-2.67c-2.26.19-3.29.88-2.42,3.24a13.8,13.8,0,0,1,0,9.92c-.72,1.87.07,2.54,1.87,2.56,6.55.06,13,0,19.57,0,1.58,0,2.3-.93,3.13-1.87,1-.36,1.77.25,2.57.71,2.8,1.63,5.77,2.54,8.93.73a1.1,1.1,0,0,1,.65-.21c5.18,1.32,10.68-.39,15.78,1.56,1.05.89.63,2.08.65,3.15,0,4.35,0,8.7,0,13.1a2.77,2.77,0,0,0-.1.5c-5.2,2.4-10.41,4.68-16.17,5.78a54.46,54.46,0,0,1-39.65-7c-.79-.48-1.61-.94-2.42-1.39-1.08-.27-2-.64-1.51-2,.94-8,.2-15.9.41-23.92,0-2.13-.1-4.28,0-6.41.19-3.37.3-6.55-4.34-7.34-.36-.07-.35-.55-.41-.87,1.24-1.19,2.81-.94,4.33-.94h18c1.49,0,3.12.26,4.08-1.31a2.07,2.07,0,0,1,.93-.66,1.73,1.73,0,0,1,1.32.31c3.68,3.06,7.61,2.9,11.7.85,2.64.93,5.4.88,8.17.93C133.32,136.64,134.73,135.84,135.22,137.49Z"/><path class="cls-7" d="M88.34,176.75l1.34,1.31c-1.09,1-.66,2.34-.67,3.52,0,10.7-.13,21.38,0,32.08.1,6.62-4.42,9.15-8.8,10.29s-10.1-2.09-12.16-6.34a8.78,8.78,0,0,1-.55-4V180.22a45.17,45.17,0,0,0-.58-5.68c-.17-1.48-.93-1.87-2.29-1.87H54.69c.85-.85,2-.54,3-.55h9.81l.58-.13c4.81-.33,9.61-.21,14.42-.07A9.2,9.2,0,0,1,88.34,176.75Z"/><path class="cls-8" d="M135.22,137.49l-4.83.14c-2.29.05-4.67.26-6.55-1.43-.61.29-.88-.08-1.1-.53-.45-1.06,1.64-2.16-.07-3.19a1.17,1.17,0,0,1-.5-1.19c2-1.56,4-3.1,2.39-5.95-.28-.37-.53-.74-.8-1.11-.94-1.44-3.39-1.3-3.74-3.31.41-.75,1-.75,1.69-.36,1.59.17,3.21.85,4.75-.23a1.87,1.87,0,0,1,1-.22c4.91.17,9.86-.4,14.76.46,1.87-.83,3.89.25,5.71-.64h4.86c1.19,0,2.34,0,3,1.19,1.72,2.59.71,5.42.83,8.17a5.22,5.22,0,0,0-.05,3.2c.1,1.53.45,3.08-.79,4.39-.93,1-2.19.64-3.32.64C146.78,137.57,141,137.52,135.22,137.49Z"/><path class="cls-9" d="M119.06,150.36c-.13.71-.65,1.49.44,1.94a2.71,2.71,0,0,1,1.25,1.53,6.16,6.16,0,0,1,.35,2.3c0,2.43.82,4.39,3.24,5.48,2.66,1.19,5,.66,7.77-1.75-2.18.46-3.75.77-5.11-.07s-2.39-1.8-2.52-3.42a2,2,0,0,1,1-2.09,1.18,1.18,0,0,1,1.14.66c1.15,2.27,2.81,2.81,5.13,1.47a4.39,4.39,0,0,1,1.72-.25c1.58-1.17.7-2.63.52-4l-.61-.59a2.29,2.29,0,0,1-.48-.64v-.38c.31-.63-.4-.41-.6-.63-1.66-.5-3.18-1.39-5-1.45a5.54,5.54,0,0,0-1.62.15l-.73.27-.71.29-.36.11a2,2,0,0,1-.78,0,1.15,1.15,0,0,1-.64-.94A7.31,7.31,0,0,1,130,146.6c1.87.55,3.56.16,5.4,0,4.19-.32,8.49-.76,12.67.43v6.31c0,3.74-.25,3.92-4.21,3.66-.51.29-.75.58,0,.88,3.89-.22,4.43.29,4.22,3.74a6,6,0,0,1-.7,2.24l-10.91.1c-.35,0-.84.13-1,0-2.22-1.94-4.16-.37-6.26.28-2.64.8-5.08-.07-7.33-1.44-.78-.48-1.26-1.35-2.23-1.58a1.9,1.9,0,0,1-.62-.73,5,5,0,0,1-.36-2.74,1.63,1.63,0,0,0,.57-1.66c0,.66,0,1.31-1.06,1.17a2.05,2.05,0,0,1-.66-.88,9.79,9.79,0,0,1-.17-4.24C117.42,151.24,117.54,150.11,119.06,150.36Z"/><path class="cls-9" d="M155.85,130.09v-8.93c1.11-.35,2.08-1.07,3.3-1.17,2.56-.21,5-.17,6.55,2.3.94-.69.87-2.07,2.14-2.21a9,9,0,0,1,3.87.1c1.4.48,2.35,1.73,1.67,2.92-2.07,3.64-.8,7.49-1.2,11.23-.13,1.13.56,2.6-1.21,3.16A4.47,4.47,0,0,1,166,136l-2.81-4.06c1.14,6.86-.06,5.48-5,5.62a9.29,9.29,0,0,1-2.37-.61v-4.87c.83.06,1.45.22.57,1.09.94-.26.31-.83.29-1.28-.09-2.2.48-4.38.26-5.82-.11-1.22-.86-.63-.43-.81.13,0,.24,0,.2.22C156.49,127,158.07,128.88,155.85,130.09Z"/><path class="cls-10" d="M143.81,157.91c-.13.42-.31,1-.74.93-1.21-.21-.81-1.17-.58-1.8s.85-.46,1.32,0Z"/><path class="cls-11" d="M82.58,45.49H62.67c-2.64,0-4.77-1.35-4.89-3-.15-2,2-3.74,5-3.74,6.88-.06,13.74,0,20.58,0h18.49A14,14,0,0,1,105,39c1.8.44,3.07,2.05,2.9,3.39a3.79,3.79,0,0,1-3.74,3.06c-3,.09-5.92,0-8.89,0Z"/><path class="cls-12" d="M82.51,245.12H62.64a14.54,14.54,0,0,1-2.47-.09,3.05,3.05,0,0,1-.05-5.95,11.66,11.66,0,0,1,2.13-.11h42.94c1.76.08,2.45,1.3,2.74,2.65s-.51,2.34-1.75,3a7,7,0,0,1-3.47.44Z"/><path class="cls-13" d="M88.34,176.75c-2-1.06-3.31-3-5.17-4.22-5.19-.59-10.43.31-15.61-.47h0q0-18.85,0-37.77c0-1.19-.42-2.49.58-3.55.83.4,1,1.23,1.48,1.91,3.19,4.79,6,5.62,11.57,3.21,2.2-.93,2.8-.26,2.7,1.75,1.12.94,2.49.5,3.74.54s2,.51,2,1.81v33.71C89.61,174.81,90.28,176.32,88.34,176.75Z"/><path class="cls-14" d="M83.2,111.92c1.81-1.27,3.1-3.11,5.08-4.19,1.47.21,1.36,1.27,1.37,2.27v10l-.38.34c-1.72.94-3.79,0-5.5,1a4.07,4.07,0,0,1-3.08.28c-5.72-1.32-8.27-.15-11.12,5A2.7,2.7,0,0,1,68.18,128c-.26-.36-.77-.73-.75-1.08.14-4.12-.94-8.17-.6-12.31.13-1.57.71-2.18,2.35-2.16,3.54.06,7.08,0,10.62,0C81,112.45,82.2,112.82,83.2,111.92Z"/><path class="cls-15" d="M68.21,128a2.38,2.38,0,0,1,.71-1.49,2.61,2.61,0,0,1,1.34,1.6,5,5,0,0,1,0,3.11,2.62,2.62,0,0,1-1.32,1.63c-.69-.54-.61-1.36-.79-2.09Z"/><path class="cls-16" d="M69,132.86a1.63,1.63,0,0,1,.73-1.43,2.47,2.47,0,0,1,1.39.93c4.22,5,7.94,4.81,11.56-.6,1.39-1.71,1.33-3.63.94-5.62a4.77,4.77,0,0,0-1.51-.62,2,2,0,0,1-.79-1c-2.41-3-5.74-3.1-8.58-.19-1.11,1.15-1.53,2.81-3,3.67-.58-.36-.61-.94-.73-1.52,1.87-5.33,6.26-7.48,11.76-5.85.87.26,1.73.81,2.62,0,2-1.18,4.36.21,6.39-.77h0a20.66,20.66,0,0,0,5.61.13c3.74-.11,7.48.18,11.23,0,4.55-.19,4.67.09,4.51,4.57,0,.12-.1.25-.14.37a6,6,0,0,0-.32.73,8.46,8.46,0,0,0-.12,2.46v2.18a4.81,4.81,0,0,0,.57,2.9,3.28,3.28,0,0,1,.35.79,1.1,1.1,0,0,1-.23.82c-.39,2.61-.39,2.67-2.81,2.69H84l-1.14-1.62C76.5,139.67,71.62,138.55,69,132.86Z"/><path class="cls-17" d="M109.6,130.78V128a3.32,3.32,0,0,0,.76-2.32,2,2,0,0,1,.66-1.06h0c1.51-1.06,2.38-2.73,4.1-3.62,2.18-1.12,4.33-1.74,6.67-.51a1.79,1.79,0,0,0-1.52.67c-.86,1-2.28,1-3.41,1.61a7.17,7.17,0,0,0-3.58,9.49,2.14,2.14,0,0,1,.1.22,5.62,5.62,0,0,0,6.33,3.16c1.12-.16,2.22-.81,3.4-.23l.79.73c-4.15,3.13-8.27,2.67-12.16-1.35a8,8,0,0,1-.7-.73h0C110.17,133.16,110.29,131.82,109.6,130.78Z"/><path class="cls-3" d="M148.07,119.93c-1.78,1.24-3.82.34-5.72.64C144.09,119.26,146.12,120.14,148.07,119.93Z"/><path class="cls-18" d="M119.06,150.36c-.93.39-.93,1.15-.93,1.93v4.89c.63,1.08.53,2.43,1.41,3.42v.65c-.29,2.67-.29,2.75-2.72,2.76q-10.29.06-20.54,0c-2.8,0-3.53-1.17-2.53-3.63a12.48,12.48,0,0,0-.06-10c-1-2.29-.08-3.74,2.51-3.9a55,55,0,0,1,6,0,11.64,11.64,0,0,1,7.28,3c.64.79.78,1.56-.09,2.29a1,1,0,0,1-1-.19c-.41-.32-.77-.66-1.14-1-2.5-1.87-5.44-2-8.43-2.08-1.91,0-2.44.69-2.08,2.5a33.44,33.44,0,0,1,.16,7.07c-.09,3.62-.12,3.62,3.95,3.47.8-.07,1.45-.69,2.3-.62.7.12,1.32.48,2,.59,1.33.21,2.35,0,1.36-1.52-2-3-.18-4.74,2.12-6.41a1.07,1.07,0,0,1,1.25.56,2.53,2.53,0,0,1,.18.94c.17.94-1.23,1.8-.18,2.81.59-2.25,0-4.51.28-6.75-.18-1.37-.68-2.74.07-4.09,2.43-1.12,5-.62,7.48-.49C119.62,146.63,119.84,147.57,119.06,150.36Z"/><path class="cls-18" d="M122.47,148.32l.64.66.29.26v.39a2.53,2.53,0,0,1-.4.67l-.25.28c-.17.19-.35.36-.52.54a1.78,1.78,0,0,0-.24.28c-.07.11-.26.41-.38.62s-.23.44-.36.65a3.12,3.12,0,0,1-.71.87l-.36.14a1.56,1.56,0,0,1-.66-1.42A5.52,5.52,0,0,1,122.47,148.32Z"/><path class="cls-19" d="M108.89,151.72c.87-.56.66-1.4.64-2.2.15-.86-.25-1.87.78-2.48a7.41,7.41,0,0,0,.65,4.1c-1,.94.71,2.81-1.3,3.38l-.76-.77a1.33,1.33,0,0,1-.16-1.87A1.14,1.14,0,0,1,108.89,151.72Z"/><path class="cls-20" d="M111,134.12l.7.73a2,2,0,0,0-.59.08Z"/><path class="cls-5" d="M67.61,172.06h13c.94,0,1.88-.21,2.66.51l-13.31.06A3,3,0,0,1,67.61,172.06Z"/><path class="cls-21" d="M141.61,134.81c0,.34.07.85-.11.94-1.87,1.33-5.2.59-6.17-1.37-.7-1.4-1.33-2.8-2.21-4.75-1.3,2.38-.73,4.17.18,6.24-2.25.77-4.37.31-6.55.34a31,31,0,0,0,.07-14.12c1.16-.8,2.5-.42,3.74-.43,2.38,0,2.33,0,1.87,2.49a2.36,2.36,0,0,0,.46,2.41c1.24-1.31,3.74-1.77,2.38-4.38.48-1,1.45-.59,2.18-.56,1,0,2.33-.57,2.88.62.48,1-.27,2-1.07,2.68-1.63,1.34-1.16,2.71-.33,4.2s1.87,3.16,1.92,5h0A4.45,4.45,0,0,1,141.61,134.81Z"/><path class="cls-22" d="M155.05,126.21c0,.45-.11.93-.11,1.34,0,1.54-.17,2.22-2.22,1.44-2.67-1-3.34-.36-3.4,2.3a3.75,3.75,0,0,0,0,.67c.14.82-.45,1.94.67,2.37a2.82,2.82,0,0,0,2.65-.57c.59-.45.94-1.56,1.93-.76.64.53.37,1.48.3,2.25-.1,1.08-1,1.07-1.87,1.07h-8.14c-.94,0-1.59-.31-1.73-1.26a46.5,46.5,0,0,0,0-12c.13-1.16.93-1.4,2-1.38h7.07c2.4,0,2.4.07,2.81,2.7-1.17,1.74-2.81-.29-4.19.49C151.81,126.73,154.39,123.84,155.05,126.21Z"/><path class="cls-22" d="M123.11,135.48a1.89,1.89,0,0,0-.34.09c-2.93,1.55-5.85,1.78-8.55-.33s-3-5-2.26-8a7.92,7.92,0,0,1,6.55-5.88c.57-.11,1.17-.11,1.75-.17l3.5,1.41a1.19,1.19,0,0,1,.76,1.32,5.38,5.38,0,0,1-.82,1.46c-2.53,2.6-3.92,2.56-6-.21-1.87,4.56.32,7.33,5.61,7,2,.14,2.21.34,1.32,1.55A22.4,22.4,0,0,1,123.11,135.48Z"/><path class="cls-23" d="M123.3,132.2c-2.93,1.66-4.83,1.27-6.33-1.34a7.26,7.26,0,0,1-.88-5.21c.2-1,.71-2.08,2-2s1.57,1.1,1.29,2.22c-.08.35,0,.67.47,1.09,1.87-.33,2.93-2.25,4.68-3l.82.78c-.77,3.19-3.66,3.85-6.33,4.77.48,1.7,2.27,1.32,3.39,2Z"/><path class="cls-24" d="M122.4,131.48c-3.19.71-3.79.26-4.81-3.64,4,2,5.44-1.45,7.75-3.09,1.38,1.53.54,3.34.66,5,0,.69-.51.94-1.18.74C123.74,130.18,123.14,131,122.4,131.48Z"/><path class="cls-25" d="M142.33,133.49a2.94,2.94,0,0,0-.59-.12c-1.48-.93-2-2.43-2.8-3.74-1.69-3-.94-4.5,2.76-5.54h.49C144.37,126.17,144.44,131.48,142.33,133.49Z"/><path class="cls-26" d="M141.7,124.06c-.57.36-1.16.71-1.72,1.09a2.4,2.4,0,0,0-.95,3.26l.15.24c.83,1.59,2,3,2.56,4.68l-.93.79c-1.76-2-2.49-4.47-3.84-6.65-.85-1.38.39-1.94,1-2.81s2.55-1.14,2-2.35-2.27-.5-3.48-.57a3.33,3.33,0,0,0-1.3.43c1-1.74,2.68-.81,4.06-.94C141.44,121.11,140.46,123.48,141.7,124.06Z"/><path class="cls-26" d="M142.33,133.49a13.51,13.51,0,0,0-.13-9.42l.94-1c.7.26,1.23.63,1.23,1.45v9.12c0,.81-.54,1.19-1.24,1.45Z"/><path class="cls-27" d="M155.05,126.21c-.74-.62-1.23-.38-2.09.07-2.09,1.11-3.6.49-3.65-1.12s.52-1.93,2.15-1.68c1.23.2,2.08,1.68,3.56.94Z"/><path class="cls-28" d="M155.85,130.09c1.47-1.59,0-3.74,1.17-5.69.6,3.19.14,6.08.32,9-1.14,0-.78-1.15-1.48-1.34A1.75,1.75,0,0,1,155.85,130.09Z"/><path class="cls-29" d="M151.07,132.34c-.32-.74-.58-1.52.36-2a.76.76,0,0,1,1,.37.64.64,0,0,1,.06.18C152.6,131.8,152,132.24,151.07,132.34Z"/><path class="cls-26" d="M141.61,134.81a.85.85,0,0,1-.78-.65Z"/><path class="cls-30" d="M135.8,160.49a59.55,59.55,0,0,0,0-10.17,4.43,4.43,0,0,0-.61-.69h0c-.39-.71-.77-1.42.28-1.94,3.06,0,6.13.1,9.2.13,1.09,0,1.78.32,1.82,1.52,0,1.43-.43,1.82-1.81,1.19a6.8,6.8,0,0,0-2-.75c-1.07-.12-1.87.07-1.87,1.34,0,.94,0,1.87,1.38,1.87s2.57,0,3.38-1.67a4.83,4.83,0,0,1,.67,4.17c-.39.11-.67.29-.82.23-1.41-.61-3.13-1.46-4.21-.24s-.46,3-.29,4.56c.1.87,1,.65,1.71.66,1.41,0,1.95-1.49,3.22-1.78.93,3.63.93,3.75-2.4,3.75h-6.73c-1.1,0-1.87-.26-1.61-1.54A2.29,2.29,0,0,0,135.8,160.49Z"/><path class="cls-31" d="M120.93,152.36a2.87,2.87,0,0,1,.24-.57,2,2,0,0,1,.54-.74h0a1.69,1.69,0,0,0,.62-.73h0a.94.94,0,0,0,.68-.67h0a2.81,2.81,0,0,0,.77-.6h0a2.49,2.49,0,0,1,.79-.49,2.79,2.79,0,0,1,.61-.22c.44-.32,1-.22,1.5-.5,2.47-.39,4.45.75,6.41,1.92a.37.37,0,0,1-.14.62h0a4.07,4.07,0,0,1-1.87,2.3c-2.58,1.88-3,1.75-4.68-1.32-1.11,1.72-1.87,3.27-1.14,5.19,1.87,3.41,2.87,3.83,6.32,2.4.68-.28,1.34-.75,1.87,0,.38.52-.15,1-.51,1.49A7.51,7.51,0,0,1,125,162.9a6.32,6.32,0,0,1-4.82-6.16c-.07-1,0-2,0-3l.16.06C120.69,153.37,120.57,152.78,120.93,152.36Z"/><path class="cls-32" d="M133.86,151.13h.53c.42,2.11,1.33,4.26-.57,6.17-.87-.74-1.66-.41-2.54,0-2.75,1.46-3.43,1.27-4.82-1.28a12,12,0,0,1-.58-1.55v-.33C129.24,154.87,131.1,151.91,133.86,151.13Z"/><path class="cls-33" d="M133.86,151.13a6.23,6.23,0,0,1-1.87,1.55c-3.12,2.29-3.11,2.3-6.14,1.81-.79.51-.59,1.3-.65,2-1.11-1.38-.86-3-.65-4.52.14-1,.74-2.08,2-2s1.55,1.15,1.22,2.29c-.11.33-.07.67.64,1,1.71-.43,2.81-2.23,4.55-3Z"/><path class="cls-33" d="M133.82,157.23c1.31-2,.56-4.1.57-6.16,1.57,1.94.77,4.11.53,6.2C134.87,157.68,134.19,157.56,133.82,157.23Z"/><path class="cls-34" d="M119.56,160.6c-1.57-.73-1.46-2.09-1.41-3.42.22,0,.45,0,.67,0s.28.28.22.43-.13.21-.19.21A4.69,4.69,0,0,1,119.56,160.6Z"/><path class="cls-18" d="M118.85,157.8v-2.59h.69C119.45,156.1,119.91,157,118.85,157.8Z"/><path class="cls-33" d="M135.51,147.74a2.29,2.29,0,0,0-.28,1.94C134.27,148.9,134.21,148.23,135.51,147.74Z"/><path class="cls-5" d="M126.71,147.77a1.58,1.58,0,0,1-1.5.51A1.33,1.33,0,0,1,126.71,147.77Z"/><path class="cls-35" d="M142.8,151.31c.08,0,.18-.1.25-.08.26.06.29.2.07.32a.3.3,0,0,1-.26,0C142.81,151.48,142.82,151.37,142.8,151.31Z"/><path class="cls-5" d="M124.6,148.49a.8.8,0,0,1-.79.5A.72.72,0,0,1,124.6,148.49Z"/><path class="cls-33" d="M135.8,160.49c.08.45-.21.59-.6.64Z"/><path class="cls-33" d="M135.21,149.67c.4.08.68.25.61.68Z"/><path class="cls-33" d="M133,150.32a1.7,1.7,0,0,1,.14-.63C133.61,150,133.48,150.2,133,150.32Z"/><path class="cls-5" d="M123.8,149a.85.85,0,0,1-.77.6,2.25,2.25,0,0,1,.08-.58A2.27,2.27,0,0,1,123.8,149Z"/><path class="cls-36" d="M162.41,135.83c-1.47.78-2.73.4-4.47.39,1.56-2.46,1.18-4.88,1.19-7.25s.42-4.68-1.15-6.77c4.68-1,5-.93,7.31,2.3.94,1.26,1.87,2.49,3.23,4.26.3-2.6.52-4.52-.73-6.42,1.37-.93,2.66-.74,4.26-.16-1.78,2.15-1.15,4.52-1.21,6.82-.06,1.68,0,3.37,0,5.07,0,.8.42,1.87-.94,2.18a2.37,2.37,0,0,1-2.63-1.26c-1.2-1.8-2.48-3.57-3.74-5.31-.53-.71-.84-1.63-2.09-2.1C161.1,130.48,160.32,133.28,162.41,135.83Z"/><path class="cls-5" d="M89.69,119.94c-2,1.17-4.32.1-6.39.78C85.25,119.13,87.55,120.15,89.69,119.94Z"/><path class="cls-31" d="M83.19,132.2c-.56,2.91-2.87,4-5.5,4.48a6.48,6.48,0,0,1-6.55-2.56,21.18,21.18,0,0,1-1.46-2.69V128a22.52,22.52,0,0,1,1.43-3,7.61,7.61,0,0,1,10.45-2.59l.43.28c1.13.7.15,1.3-.15,1.93-2.43,3.44-3.47,3.54-6.12.43-1.48,2.21-.67,4.13.61,5.94s2.86,1.68,4.67.82A1.63,1.63,0,0,1,83.19,132.2Z"/><path class="cls-30" d="M91.87,136a18,18,0,0,1-7,.09,30,30,0,0,0,0-14c1.41-.78,3-.4,4.47-.4,2.12,0,2.1,0,1.39,2-.35.93-.73,2.13.33,2.73a2.8,2.8,0,0,0,3-.1c.86-.72.67-1.87.09-2.81-.29-.46-.94-.73-.51-1.59,2-.59,4.2-.36,6.79-.08-1.59,2.36-1.19,4.78-1.11,7.16s-.66,4.68,1.2,6.9a21.58,21.58,0,0,1-7.26.15A9.09,9.09,0,0,0,94.55,130c-.08-1.31-1-1.34-2-1.32s-2.08-.15-2.08,1.18C90.46,131.85,89.88,133.92,91.87,136Z"/><path class="cls-37" d="M109.47,136a16.42,16.42,0,0,1-6.55,0c1.16-4.43,1.6-8.74,0-13-.34-.94.17-1.28.94-1.32a23.4,23.4,0,0,1,5.61.16A31.2,31.2,0,0,0,109.47,136Z"/><path class="cls-38" d="M83.19,132.2c-1.2-.48-2,.44-2.9.83a3.6,3.6,0,0,1-4.18-.82,6.94,6.94,0,0,1-1.87-6.82c.22-1,.87-2,2.17-1.76,1.12.22,1.25,1.17,1.09,2.16a.92.92,0,0,0,.48,1.07c1.55,0,2.33-1.79,3.85-2.23l.78.73c-.53,2.86-3.12,3.37-5.54,4.15,2.73,1.71,5.61.77,6-1.93a7.59,7.59,0,0,1,.79-2.87C85.23,127.34,85.43,129.88,83.19,132.2Z"/><path class="cls-39" d="M83.87,124.71a19.53,19.53,0,0,1,0,5.61c-1.06.29-2.06,0-3.09.56-2.74,1.49-3.75,1.06-4.9-1.76a1.29,1.29,0,0,1,0-1.48c1.73,1.76,3.18.77,4.61-.52.67-.6,1.6-.93,2-1.78Z"/><path class="cls-5" d="M101.66,133.68a14.64,14.64,0,0,1-.19-8.74C102.69,126.63,102.84,130,101.66,133.68Z"/><path class="cls-40" d="M92.54,133.71c-.94-1.5-.94-2.41-.2-3.52C93.6,131.17,93.25,132.14,92.54,133.71Z"/><path class="cls-20" d="M111,125.87A1.87,1.87,0,0,1,109.6,128c.16-1.14-.51-2.43.71-3.35C110.75,124.94,110.51,125.59,111,125.87Z"/><path class="cls-20" d="M109.6,130.78a3.67,3.67,0,0,1,1.41,3.36C109.36,133.47,109.59,132.08,109.6,130.78Z"/><path class="cls-5" d="M111,125.87c-.62-.21-.61-.74-.64-1.23H111C111,125.06,111,125.48,111,125.87Z"/><path class="cls-41" d="M92.47,124.79c.1,0,.26.06.28.13s-.1.32-.39.26c-.06,0-.17-.18-.14-.22A1.73,1.73,0,0,1,92.47,124.79Z"/><path class="cls-31" d="M108.89,151.72v2a5.15,5.15,0,0,0-.49.89c-.37,1.14-2.11,1.53-2.05,2.57.07,1.42,1.14,2.64,2.06,3.8.28.36.68.64.32,1.42-1.87.1-4.13,1.42-5.61-1.21-.46-.05-.58-1.12-1-.55-.33.41.15,1.29-.35,1.87a22.12,22.12,0,0,1-6.55-.1c1.08-4.43,1.56-8.74,0-13-.31-.85-.06-1.48.71-1.48,4.28,0,8.83-1,12.37,2.41a3,3,0,0,1,.52.87A.47.47,0,0,0,108.89,151.72Z"/><path class="cls-37" d="M118.06,162.52a30.09,30.09,0,0,1-6.84,0c1.45-3.19,1.54-9.9.23-13.1-.44-1.1.11-1.46,1.06-1.53a34.64,34.64,0,0,1,3.53,0c2.11.08,1.87.07,1.55,2A28,28,0,0,0,118.06,162.52Z"/><path class="cls-42" d="M110.27,159.78c-2.56-1.51-2.56-1.51-.54-4.56C111.58,156.56,110.51,158.21,110.27,159.78Z"/><path class="cls-43" d="M110.27,159.78c-.18-1.52.6-3.15-.54-4.56a2.45,2.45,0,0,0-.07-.71c1.28-.82,0-2.56,1.3-3.37v6.6C111,158.48,111.16,159.31,110.27,159.78Z"/><path class="cls-44" d="M101.75,162.55c-.07-1.47-1.69-2.74-.55-4.51,1.4.66,1.54,2,1.87,3.18Z"/><path class="cls-19" d="M108.77,151.23c-.18-.28-.34-.57-.52-.86A.93.93,0,0,1,108.77,151.23Z"/><path class="cls-5" d="M120.93,152.36a1.35,1.35,0,0,1-.57,1.41A1.24,1.24,0,0,1,120.93,152.36Z"/><path class="cls-5" d="M121.67,151.05a.75.75,0,0,1-.54.74A.66.66,0,0,1,121.67,151.05Z"/><path class="cls-5" d="M122.3,150.3a.8.8,0,0,1-.62.73A.78.78,0,0,1,122.3,150.3Z"/><path class="cls-5" d="M123,149.62a.77.77,0,0,1-.68.66A.74.74,0,0,1,123,149.62Z"/><path class="cls-45" d="M101.18,149.94c1.88.12,2.64.94,2.94,2.3a3.15,3.15,0,0,1-.69,2.81,1.87,1.87,0,0,1-1.87.69c-.77-.16-.72-.81-.7-1.34C100.9,153,100.59,151.52,101.18,149.94Z"/><path class="cls-20" d="M102.22,153.94c-.49-.26-.46-.72-.4-1.14s.33-.86.94-.66c.37.14.4.54.33.87A1.08,1.08,0,0,1,102.22,153.94Z"/><rect class="cls-46" width="250" height="250"/></svg>