<svg id="Layer_1" data-name="Layer 1" xmlns="http://www.w3.org/2000/svg" viewBox="0 0 250 250"><defs><style>.cls-1{fill:#dbf1fd;}.cls-2{fill:#299aea;}.cls-3{fill:#1379da;}.cls-4{fill:#61b6f2;}.cls-5{fill:#29293f;}.cls-6{fill:#3c3c50;}.cls-7{fill:#31a33c;}.cls-8{fill:#fff;}.cls-9{fill:none;}</style></defs><title>products</title><polygon class="cls-1" points="137.55 85.74 73.42 85.73 92.41 62 156.55 62 137.55 85.74"/><polygon class="cls-2" points="175.56 250 137.55 249.62 137.55 85.74 175.56 85.74 175.56 250"/><polygon class="cls-3" points="156.55 62 149.19 71.2 175.56 85.74 156.55 62"/><polygon class="cls-4" points="175.56 85.74 149.19 71.2 137.55 85.74 175.56 85.74"/><path class="cls-2" d="M95.64,46.58h57.68a3.22,3.22,0,0,1,3.23,3.22V62H92.43V49.8A3.22,3.22,0,0,1,95.64,46.58Z"/><polygon class="cls-4" points="137.56 249.99 73.42 249.99 73.42 85.73 137.55 85.74 137.54 142.88 137.56 249.99"/><polygon class="cls-4" points="137.55 85.74 137.56 137.03 73.42 137.03 73.42 85.73 137.55 85.74"/><path class="cls-5" d="M115.17,62.59A11.84,11.84,0,0,0,105,72.72l-2.29.88,3.77,3.75.1.13c2.72,2.66,7.91,1.91,11.61-1.78s4.48-8.86,1.77-11.59l-3.87-3.8Z"/><path class="cls-6" d="M116.11,60.31c2.71,2.71,1.92,7.9-1.78,11.59s-8.86,4.49-11.6,1.77-1.92-7.89,1.77-11.59S113.39,57.59,116.11,60.31Z"/><path class="cls-3" d="M94.13,243.61H82.9a2.11,2.11,0,0,1,0-4.21H94.13a2.11,2.11,0,1,1,0,4.21Z"/><path class="cls-3" d="M128.06,243.61H104.84a2.11,2.11,0,0,1,0-4.21h23.23a2.11,2.11,0,1,1,0,4.21Z"/><rect class="cls-3" x="145.08" y="103.02" width="23.27" height="30.64" rx="1.85" ry="1.85"/><rect class="cls-3" x="145.08" y="228.59" width="23.27" height="12.95" rx="1.85" ry="1.85"/><rect class="cls-3" x="145.08" y="142.5" width="23.27" height="67.54" rx="1.85" ry="1.85"/><path class="cls-7" d="M95,85.73v.14a21.53,21.53,0,0,1-21.55,21.52V85.73Z"/><path class="cls-8" d="M131.16,136.28a6.43,6.43,0,0,0-6.42,6.41,6.42,6.42,0,0,0-12.83,0,6.41,6.41,0,0,0-12.82,0,6.42,6.42,0,0,0-12.84,0h0a6.42,6.42,0,0,0-12.83,0v47.78a6.42,6.42,0,0,0,12.83,0V166.75a6.42,6.42,0,0,1,12.84,0v40.1a6.41,6.41,0,0,0,12.82,0V176.71a6.42,6.42,0,0,1,12.83,0v5.85a6.42,6.42,0,0,0,12.83,0V142.69A6.43,6.43,0,0,0,131.16,136.28Z"/><path class="cls-8" d="M137.57,129.05v5H124.83a19.17,19.17,0,0,0-37.88,0H73.42v-5h9.45a24.37,24.37,0,0,1,46.09,0Z"/><path class="cls-8" d="M137.57,140v5H129a24.37,24.37,0,0,1-46.09,0H73.42v-5H87a19.17,19.17,0,0,0,37.88,0Z"/><path class="cls-5" d="M137.54,132.51v10.37h-12A20.48,20.48,0,0,1,106,157.57a21,21,0,0,1-20-14.69H73.42V132.51h12.2a20.93,20.93,0,0,1,20.33-16,20.53,20.53,0,0,1,20,16Z"/><path class="cls-8" d="M89.11,133.19a1.91,1.91,0,0,1,1.9-1.9,1.86,1.86,0,0,1,1.77,1.26l1.52,4.28a5.54,5.54,0,0,1,.23.89l.07.36h.07l.06-.36a9,9,0,0,1,.25-.89l1.52-4.33a1.8,1.8,0,1,1,3.54.6v6.8a1.19,1.19,0,0,1-2.37,0v-5.39h-.1l-.11.51a7.38,7.38,0,0,1-.31,1.14l-1.42,4.06a1.27,1.27,0,0,1-2.4,0l-1.43-4.06a8.74,8.74,0,0,1-.32-1.14c0-.18-.08-.35-.11-.51h-.08V140a1.13,1.13,0,0,1-1.12,1.13A1.14,1.14,0,0,1,89.11,140h0Z"/><path class="cls-8" d="M101.92,132.51a1.22,1.22,0,0,1,2.44-.2.67.67,0,0,1,0,.2v7.35a1.22,1.22,0,0,1-2.44,0Z"/><path class="cls-8" d="M106.27,132.51a1.22,1.22,0,0,1,2.44,0h0V139h3.36a1,1,0,0,1,0,2h-4.72a1,1,0,0,1-1.08-.86.81.81,0,0,1,0-.22Z"/><path class="cls-8" d="M114.26,132.49a1.2,1.2,0,0,1,2.4,0v3.11l3.06-3.91a1.06,1.06,0,0,1,.81-.4,1,1,0,0,1,1,1,1,1,0,0,1-.22.63l-1.95,2.41,2.48,3.87a1.26,1.26,0,0,1,.19.65,1.2,1.2,0,0,1-1.18,1.21h0a1.29,1.29,0,0,1-1-.56l-2.09-3.33-1.06,1.3v1.4a1.2,1.2,0,0,1-2.4,0Z"/><path class="cls-8" d="M73.42,227.21a6.44,6.44,0,0,0,6.45,6.41l.65,0a6.67,6.67,0,0,0,5.7-6.77v-6a6.41,6.41,0,0,0-12.82,0Z"/><path class="cls-8" d="M124.75,217.6a6.42,6.42,0,0,0,6.44,6.41c.22,0,.43,0,.65,0a6.68,6.68,0,0,0,5.73-6.77V206.84a6.41,6.41,0,0,0-12.82,0Z"/><rect class="cls-9" width="250" height="250"/></svg>