<?xml version="1.0" encoding="utf-8"?>
<!-- Generator: Adobe Illustrator 22.1.0, SVG Export Plug-In . SVG Version: 6.00 Build 0)  -->
<svg version="1.1" id="Layer_1" xmlns="http://www.w3.org/2000/svg" xmlns:xlink="http://www.w3.org/1999/xlink" x="0px" y="0px"
	 viewBox="0 0 250 250" style="enable-background:new 0 0 250 250;" xml:space="preserve">
<style type="text/css">
	.st0{fill:none;}
	.st1{fill-rule:evenodd;clip-rule:evenodd;fill:#4596DF;}
	.st2{fill:#175E9C;}
	.st3{fill-rule:evenodd;clip-rule:evenodd;fill:#FFCC5C;}
	.st4{fill:#FFFFFF;}
	.st5{fill-rule:evenodd;clip-rule:evenodd;fill:#C7AB87;}
	.st6{fill-rule:evenodd;clip-rule:evenodd;fill:#F7EAC3;}
	.st7{fill:#3080C7;}
	.st8{fill-rule:evenodd;clip-rule:evenodd;fill:#297DC8;}
	.st9{fill:#004283;}
	.st10{fill-rule:evenodd;clip-rule:evenodd;fill:#0B62B1;}
	.st11{fill:#002669;}
	.st12{fill-rule:evenodd;clip-rule:evenodd;fill:#A1C9EE;}
	.st13{fill:#D3CDCD;}
	.st14{fill:#E0DEDE;}
	.st15{fill:#EFEFEF;}
	.st16{fill:#AFAEAE;}
	.st17{fill:#E8C986;}
	.st18{fill:#F9DA9B;}
	.st19{fill:#FFE8C0;}
	.st20{fill:#E86E56;}
	.st21{fill:#F75757;}
	.st22{fill:#FF7D7D;}
	.st23{fill:#7D6FBC;}
</style>
<title>products</title>
<g>
	<rect x="0" y="-0.5" class="st0" width="250" height="250"/>
	<g>
		<polygon class="st1" points="54.6,54 195.3,54 195.3,250 54.6,250 54.6,54 		"/>
		<polygon class="st2" points="102.3,54 102.3,250 61.5,250 61.5,54 102.3,54 		"/>
		<path class="st3" d="M143.4,202h51.9v23.3h-51.9c-6.4,0-11.6-5.2-11.6-11.6l0,0C131.7,207.2,137,202,143.4,202L143.4,202z"/>
		<path class="st4" d="M150.1,215.7l3,0.9c-0.5,1.7-1.2,3-2.3,3.8c-1.1,0.8-2.5,1.2-4.1,1.2c-2.1,0-3.8-0.7-5.1-2.1
			c-1.3-1.4-2-3.3-2-5.8c0-2.6,0.7-4.6,2-6c1.3-1.4,3.1-2.2,5.3-2.2c1.9,0,3.4,0.6,4.6,1.7c0.7,0.7,1.2,1.6,1.6,2.9l-3.1,0.7
			c-0.2-0.8-0.6-1.4-1.2-1.9c-0.6-0.5-1.3-0.7-2.1-0.7c-1.2,0-2.1,0.4-2.8,1.2c-0.7,0.8-1.1,2.2-1.1,4c0,2,0.4,3.4,1.1,4.2
			c0.7,0.8,1.6,1.3,2.8,1.3c0.8,0,1.6-0.3,2.2-0.8C149.4,217.7,149.8,216.8,150.1,215.7L150.1,215.7z"/>
		<g>
			<path class="st5" d="M93,92.7c-7.7,6.8-16.9,9.9-28.6,7.8l8.7,8.6l-5.3,9.2c10.8,0.4,22-2,29.9-8.4C96.1,104.1,94.6,98.4,93,92.7
				L93,92.7L93,92.7z"/>
			<path class="st5" d="M156.9,92.7c7.7,6.8,17,9.9,28.6,7.8l-8.7,8.6l5.3,9.2c-10.8,0.4-22-2-29.9-8.4
				C153.8,104.1,155.3,98.4,156.9,92.7L156.9,92.7L156.9,92.7z"/>
			<path class="st6" d="M77.4,92.9c33.9-14.8,61.2-14.8,95.2,0c0,6.9,0,13.8,0,20.7c-35.7-15.4-60.4-14.9-95.2,0
				C77.4,106.8,77.4,99.8,77.4,92.9L77.4,92.9L77.4,92.9z"/>
			<path class="st7" d="M84.6,106.7l-0.2-0.6c0.5-0.3,0.8-0.5,0.9-0.5c0-0.1,0.1-0.1,0.1-0.2c0-0.1-0.2-0.6-0.5-1.5
				c-0.3-0.9-0.7-1.7-1-2.5c-0.6-1.5-1.1-2.5-1.4-3.2c-0.3-0.6-0.5-1-0.6-1c-0.1,0-0.3,0-0.7,0.1l-0.4,0.1l-0.2-0.6l0.8-0.3
				c0.5-0.2,0.9-0.4,1.2-0.5c0.4-0.2,1-0.4,1.9-0.8c0.5-0.2,0.8-0.4,1-0.5c0.8-0.4,1.5-0.5,1.9-0.5c0.5,0,0.9,0.1,1.2,0.3
				c0.3,0.2,0.6,0.6,0.8,1.1c0.4,0.9,0.4,1.7,0,2.6c-0.4,0.8-1,1.5-2,1.9c-0.1,0.1-0.3,0.1-0.4,0.1c-0.1,0-0.3,0.1-0.5,0.1
				c-0.1-0.1-0.3-0.3-0.5-0.4l0.1-0.2c0.1,0,0.2,0,0.3-0.1c0.1,0,0.2-0.1,0.2-0.1c0.5-0.2,0.8-0.5,0.9-1c0.2-0.5,0.1-1-0.1-1.6
				c-0.3-0.7-0.6-1.1-1.1-1.3c-0.4-0.2-1-0.2-1.6,0.1c-0.2,0.1-0.5,0.3-0.8,0.5c0.6,1.5,1.1,2.7,1.5,3.7c0.1,0.3,0.6,1.4,1.4,3.2
				c0.3,0.7,0.5,1.1,0.6,1.2c0.1,0.1,0.1,0.1,0.2,0.1c0.1,0,0.5-0.1,1.2-0.4l0.2,0.6c-0.8,0.3-1.5,0.6-2.1,0.8
				C86.9,105.7,86.1,106,84.6,106.7L84.6,106.7z M98.8,101.4c-1.8,0.6-3.3,0.6-4.5,0c-1.2-0.6-2.1-1.7-2.6-3.3
				c-0.4-1.1-0.4-2.1-0.2-3.1c0.2-0.9,0.6-1.7,1.3-2.4c0.7-0.7,1.6-1.2,2.9-1.7c1.2-0.4,2.3-0.5,3.2-0.4c0.9,0.1,1.7,0.5,2.3,1.1
				c0.7,0.6,1.1,1.4,1.5,2.4c0.4,1.1,0.5,2.2,0.3,3.1c-0.2,1-0.6,1.8-1.3,2.5C100.9,100.5,99.9,101.1,98.8,101.4L98.8,101.4z
				 M98.8,100.6c1-0.3,1.6-0.9,2-1.8c0.3-0.9,0.3-2.1-0.2-3.5c-0.5-1.5-1.2-2.6-2.1-3.2c-0.7-0.5-1.7-0.5-2.8-0.2
				c-1,0.3-1.7,0.9-2.1,1.8c-0.3,0.9-0.3,2,0.2,3.4c0.3,1,0.8,1.8,1.3,2.4c0.5,0.6,1.1,1,1.7,1.1C97.3,100.9,98,100.8,98.8,100.6
				L98.8,100.6z M105.4,99.3l-0.1-0.6c0.6-0.2,0.9-0.3,1-0.3c0,0,0.1-0.1,0.1-0.2c0-0.1,0-0.5-0.1-1.2c-0.2-1.1-0.3-1.9-0.4-2.5
				c-0.2-0.8-0.4-1.9-0.6-3.1c-0.2-0.9-0.4-1.5-0.5-1.7c0-0.1-0.1-0.1-0.1-0.1c-0.1,0-0.4,0-1,0l-0.1-0.6c1-0.2,1.7-0.3,2-0.3
				l3.7-0.8c0.8-0.2,1.4-0.2,1.8-0.1c0.4,0.1,0.7,0.3,1,0.6c0.3,0.3,0.5,0.7,0.6,1.2c0.1,0.6,0,1.1-0.2,1.7c-0.3,0.5-0.8,1-1.6,1.5
				l2,2.1l1.6,1.6c0.3,0.3,0.5,0.4,0.6,0.4c0.1,0,0.3,0,0.6,0l0.1,0.6l-0.4,0.1c-1.3,0.3-2.1,0.4-2.4,0.5c-0.6-0.6-1.4-1.5-2.5-2.6
				l-2-2c0-0.1,0-0.2,0.1-0.3c0.2,0,0.4,0,0.4-0.1c0.5-0.1,0.9-0.4,1.3-0.8c0.4-0.5,0.5-1,0.4-1.7c-0.1-0.6-0.4-1-0.8-1.3
				c-0.4-0.3-1-0.3-1.7-0.2c-0.2,0-0.5,0.1-0.9,0.2l0.4,2.2l0.5,2.8c0.1,0.6,0.3,1.4,0.5,2.4c0.2,0.7,0.3,1.1,0.4,1.2
				c0,0.1,0.1,0.1,0.2,0.1c0.1,0,0.5,0,1-0.1l0.1,0.6c-0.9,0.1-1.7,0.3-2.4,0.4C107,98.9,106.2,99.1,105.4,99.3L105.4,99.3z
				 M116.2,97.2l0-0.6c0.6-0.1,0.9-0.1,1-0.2c0.1,0,0.1-0.1,0.1-0.1c0-0.1,0.1-0.5,0.1-1.2c0-1.1,0-1.9-0.1-2.6
				c0-0.8-0.1-1.9-0.2-3.2c-0.1-1-0.1-1.6-0.2-1.8c0-0.1-0.1-0.1-0.1-0.1c-0.1,0-0.4-0.1-1-0.1l0-0.6c1,0,1.7,0,2,0l3.8-0.2
				c0.8,0,1.4,0,1.8,0.2c0.4,0.1,0.7,0.4,0.9,0.7c0.2,0.3,0.4,0.7,0.4,1.2c0,0.6-0.1,1.1-0.5,1.6c-0.3,0.5-0.9,0.9-1.8,1.3l1.7,2.4
				l1.3,1.8c0.3,0.3,0.4,0.5,0.6,0.5c0.1,0.1,0.3,0.1,0.6,0.1l0,0.6l-0.4,0c-1.3,0.1-2.1,0.1-2.5,0.2c-0.5-0.7-1.2-1.7-2.1-3
				l-1.7-2.3c0-0.1,0.1-0.2,0.1-0.3c0.2,0,0.4,0,0.5,0c0.5,0,0.9-0.2,1.4-0.6c0.4-0.4,0.6-0.9,0.6-1.7c0-0.6-0.2-1.1-0.6-1.4
				c-0.4-0.3-0.9-0.5-1.6-0.4c-0.2,0-0.5,0-0.9,0.1l0.1,2.2l0.1,2.8c0,0.6,0.1,1.5,0.2,2.5c0.1,0.8,0.1,1.2,0.2,1.3
				c0,0.1,0.1,0.1,0.2,0.2c0.1,0.1,0.5,0.1,1,0.1l0,0.6c-0.9,0-1.7,0-2.4,0.1C117.9,97.1,117.1,97.2,116.2,97.2L116.2,97.2z
				 M127.3,96.9l0-0.6c0.7,0,1.1,0,1.2-0.1c0.1-0.1,0.2-0.3,0.2-0.6c0.1-0.7,0.1-1.9,0.2-3.7c0-0.7,0.1-1.7,0.1-3c0-0.9,0-1.4,0-1.5
				c0-0.1-0.1-0.2-0.1-0.2c-0.1-0.1-0.5-0.1-1.1-0.2l0-0.6c1,0.1,1.8,0.1,2.4,0.2c0.9,0,1.8,0.1,2.5,0.1l0,0.6c-0.7,0-1.1,0-1.2,0.1
				c-0.1,0.1-0.2,0.2-0.2,0.5c-0.1,0.5-0.1,1.5-0.2,2.9c-0.1,2-0.1,3.3-0.2,4.1c0,0.8,0,1.2,0.1,1.4c0,0.1,0.1,0.1,0.2,0.2
				c0.1,0,0.4,0.1,1,0.2l0,0.6l-0.9-0.1c-0.6,0-1.1-0.1-1.5-0.1L127.3,96.9L127.3,96.9z M133.7,97.2l0.1-0.4
				c0.4-0.1,0.6-0.3,0.8-0.3c0.2-0.9,0.5-2.5,0.9-4.9c0.2-1,0.3-1.9,0.4-2.6c0.1-0.7,0.1-1.1,0.1-1.2c0-0.1,0-0.1-0.1-0.1
				c-0.1-0.1-0.4-0.2-1.1-0.4l0.1-0.6c0.7,0.2,1.6,0.3,2.6,0.5l3.7,0.6c1.3,0.2,2.3,0.6,3,1c0.6,0.5,1.1,1.1,1.4,1.8
				c0.3,0.8,0.4,1.6,0.2,2.6c-0.2,1.3-0.7,2.3-1.5,3.2c-0.8,0.8-1.7,1.4-2.7,1.6c-1,0.2-2,0.3-3,0.1l-2.8-0.5
				C135.3,97.4,134.6,97.3,133.7,97.2L133.7,97.2z M136.8,96.7c0.4,0.1,0.8,0.2,1.3,0.3c1.1,0.2,2,0.2,2.6-0.1
				c0.6-0.2,1.2-0.7,1.7-1.3c0.5-0.7,0.8-1.5,1-2.6c0.2-1.4,0-2.5-0.6-3.3c-0.5-0.7-1.5-1.2-2.9-1.5c-0.3-0.1-0.9-0.1-1.6-0.2
				l-0.8,4.6C137.1,94.7,136.9,96,136.8,96.7L136.8,96.7z M153.5,97.8l0.2-0.6c0.9,0.3,1.7,0.5,2.3,0.7c0.6,0.2,1.3,0.4,2.1,0.6
				L158,99c-0.2,0-0.5,0-0.7,0.1c-0.2,0.5-0.4,0.9-0.5,1.2c-0.1,0.2-0.2,0.7-0.4,1.5c-1.1,0.1-1.9,0-2.6,0c-0.7-0.1-1.4-0.2-2.1-0.4
				c-1.9-0.6-3.2-1.5-3.9-2.8c-0.8-1.3-0.9-2.7-0.4-4.2c0.5-1.6,1.4-2.7,2.8-3.3c1.4-0.6,3.1-0.6,5.1,0c0.7,0.2,1.4,0.5,2,0.8
				c0.6,0.3,1.2,0.7,1.7,1.1l0,0.1c-0.3,0.6-0.7,1.3-1,2.2l-0.6-0.2c0.1-0.5,0.2-0.9,0.3-1.2c-0.2-0.5-0.5-0.8-0.9-1.2
				c-0.4-0.3-1-0.6-1.6-0.8c-1.2-0.4-2.3-0.3-3.3,0.2c-1,0.5-1.6,1.4-2,2.8c-0.4,1.4-0.4,2.6,0.1,3.7c0.5,1.1,1.3,1.8,2.5,2.1
				c0.6,0.2,1.3,0.2,2.1,0.1c0.2-0.4,0.3-0.7,0.4-1c0.2-0.7,0.3-1.2,0.2-1.3C154.9,98.3,154.4,98.1,153.5,97.8L153.5,97.8z
				 M158.3,103.3l0.1-0.4c0.3,0,0.6-0.1,0.8-0.1c0.4-0.7,1.1-2.2,2-4.6c0.6-1.6,1.1-2.7,1.2-3.2c0.1-0.3,0.1-0.5,0.1-0.6
				c-0.1-0.1-0.4-0.3-1-0.6l0.2-0.6c1.1,0.5,2,0.8,2.6,1.1l3.9,1.5c0.4,0.2,0.8,0.3,1.1,0.5l0,0.1c-0.3,0.5-0.6,1.1-1,1.9l-0.6-0.2
				c0.2-0.7,0.4-1.1,0.4-1.1c0-0.1-0.1-0.1-0.3-0.3c-0.4-0.2-0.9-0.5-1.7-0.8c-0.4-0.2-0.9-0.3-1.4-0.5c-0.6,1.4-1.1,2.6-1.5,3.4
				c0.5,0.2,1,0.4,1.4,0.6c0.6,0.3,1,0.4,1.2,0.4c0.1,0,0.2,0,0.2-0.1c0.1-0.1,0.2-0.4,0.5-0.8l0.6,0.2c-0.3,0.8-0.6,1.3-0.7,1.5
				l-0.6,1.6l-0.6-0.2c0.2-0.6,0.3-1,0.3-1.1c0-0.1-0.1-0.1-0.1-0.2c-0.2-0.1-0.7-0.4-1.6-0.7c-0.3-0.1-0.6-0.2-0.9-0.3
				c-0.1,0.2-0.2,0.5-0.3,0.8c-0.5,1.3-0.9,2.4-1.2,3.1l1.4,0.6c0.8,0.3,1.5,0.6,2.2,0.7c0.3-0.4,0.6-0.8,0.9-1.3l0.6,0.2
				c-0.4,0.8-0.8,1.6-1.2,2.3c-0.4-0.1-0.9-0.3-1.2-0.5c-0.3-0.1-0.8-0.3-1.5-0.6c-0.7-0.3-1.4-0.6-1.9-0.8
				C160,104,159.2,103.7,158.3,103.3L158.3,103.3z"/>
		</g>
		<path class="st8" d="M195.3,103.6V250H54.6v-49.2c8.4,6.7,18.5,13.5,25,13.5c12.9,0,77.3-7.8,97.1-47.7
			C184.2,151.5,190.4,127.5,195.3,103.6L195.3,103.6z"/>
		<path class="st9" d="M102.3,211.6V250H61.5v-44c6.6,4.6,13.3,8.3,18.1,8.3C83.4,214.3,91.9,213.6,102.3,211.6L102.3,211.6z"/>
		<path class="st10" d="M195.3,169.2V250H54.6v-20c9,6.8,19.9,13.7,26.9,13.7c13.7,0,82.2-7.8,103.3-47.7
			C188.6,188.8,192.1,179.5,195.3,169.2L195.3,169.2z"/>
		<path class="st11" d="M102.3,241.6v8.4H61.5v-15.1c7.2,4.9,14.7,8.8,20,8.8C85.2,243.7,92.8,243.1,102.3,241.6L102.3,241.6z"/>
		<polygon class="st12" points="54.6,54 195.3,54 58.7,57.5 54.6,250 54.6,54 		"/>
	</g>
	<g id="_Group_">
		<path id="_Path_" class="st13" d="M87.3,203.3L87.3,203.3l-0.4-0.1l0,0l-1.2-0.2h-0.1l-0.3-0.1l-0.2-0.1l-0.2-0.1l-0.3-0.1
			l-0.2-0.1l-0.5-0.1l0,0c-4.5-1.1-9.5-2.6-12.9-4.7l-0.1-0.1c-0.8-0.5-1.5-1-2.2-1.7c-0.1-0.1-0.3-0.3-0.4-0.4
			c-0.1-0.2-0.3-0.3-0.4-0.5c-0.1-0.1-0.2-0.3-0.3-0.4c-0.1-0.1-0.2-0.3-0.3-0.4c-0.3-0.5-0.4-1-0.5-1.6c0.3,4.6,4.7,40.3,57,40.3
			c19,0,31.7-4.7,40.1-11c-7,3.8-16.7,6.5-29.9,6.5C102.7,228.7,91.4,213.7,87.3,203.3z"/>
		<path id="_Path_2" class="st14" d="M183,194.2c0-0.1,0-0.2,0-0.2C183,194.5,183,194.5,183,194.2z"/>
		<path id="_Path_3" class="st14" d="M163.7,202.6c-10.6,2.5-24.8,3.9-39.9,3.9h-5h-0.4h-0.2h-1.6h-3.6h-0.3h-0.3h-0.3h-0.3l-0.7,0
			h-0.2h-0.4h-0.3h-0.4h-0.3h-0.4H109h-0.4h-0.3H108h-0.2h-0.4h-0.2l-0.4,0h-0.2c-0.7-0.1,12.4,0.1,11.7,0.1l-0.8-0.6l-12.8-0.2
			l-0.8,0h-0.1l-0.4,0h-0.2l-0.4,0h-0.2l-0.4,0H102l-0.5-0.1h-0.1l-0.5-0.1l0,0c-0.9-0.1-1.8-0.2-2.7-0.3h-0.1l-0.5-0.1h-0.1
			l-0.5-0.1H97l-0.5-0.1h-0.1l-0.5-0.1l0,0c-1.3-0.2-2.5-0.3-3.7-0.5l0,0l-0.5-0.1l0,0l-0.5-0.1l0,0c-1.3-0.2-2.7-0.5-3.9-0.7l0,0
			c4.1,10.4,15.4,25.4,46.7,25.4c13.2,0,22.9-2.7,29.9-6.5c9.5-7,15.6-17.7,16.8-29.5C180.2,197.7,171.3,200.8,163.7,202.6z"/>
		<path id="_Compound_Path_" class="st15" d="M163.7,182c-10.7-2.6-24.8-3.9-39.8-3.9S94.7,179.5,84,182
			c-7.8,1.9-17.1,5.1-17.1,10.3c0,0.2,0,0.3,0.1,0.5c0.1,0.6,0.2,1.1,0.5,1.6c0.1,0.1,0.2,0.3,0.3,0.4c0.1,0.1,0.2,0.3,0.3,0.4
			c0.1,0.2,0.3,0.3,0.4,0.5c0.1,0.1,0.2,0.3,0.4,0.4c0.7,0.6,1.4,1.2,2.2,1.7l0.1,0.1c3.4,2.1,8.4,3.6,12.9,4.7l0,0l0.4,0.1l0.2,0
			l0.3,0.1l0.2,0.1l0.2,0.1l0.3,0.1h0.1l1.2,0.2l0,0l0.4,0.1l0,0c1.3,0.3,2.6,0.5,3.9,0.7l0,0l0.5,0.1l0,0l0.5,0.1l0,0
			c1.2,0.2,2.4,0.4,3.7,0.5l0,0l0.5,0.1h0.1l0.5,0.1h0.1l0.5,0.1h0.1L98,205H98c0.9,0.1,1.8,0.2,2.7,0.3l0,0l0.5,0.1h0.1l0.5,0.1
			h0.1l0.4,0h0.2l0.4,0h0.2l0.4,0h0.1l0.5,0h0.1c0.7,0.1,1.4,0.1,2.1,0.2h0.2l0.4,0h0.2h0.4h0.2h0.4h0.3h0.4h0.3h0.4h0.3h0.4h0.3
			h0.4h0.2l0.7,0h0.3h0.3h0.3h0.3h0.3h0.3h0.3h0.3h0.3h0.3h0.3h0.3h0.4h0.3h0.4h0.3h0.6h0.2l0.7,0.7h0.2h0.4h5
			c15,0,29.2-1.4,39.9-3.9c7.5-1.7,16.5-4.8,17.1-9.7c0-0.2,0-0.3,0-0.5C180.9,187.2,171.5,183.9,163.7,182z M176,193.3L176,193.3
			L176,193.3l-0.2,0.2l0,0l-0.2,0.2l0,0l-0.2,0.2l0,0l-0.2,0.1l0,0l-0.2,0.2l0,0c-0.3,0.2-0.5,0.4-0.8,0.5l0,0l-0.2,0.1l0,0
			l-0.4,0.2l0,0l-0.2,0.1l0,0l-0.2,0.1l0,0c-0.8,0.4-1.6,0.8-2.5,1.2c-0.4,0.2-0.8,0.3-1.3,0.5c-2.5,0.9-5,1.6-7.6,2.2
			c-2.1,0.5-4.4,0.9-6.7,1.3l-0.8,0.1l-1.3,0.2l-0.9,0.1H152c-9.3,1.3-18.7,1.9-28.1,1.9c-9.8,0-19.6-0.6-29.3-2l-1.1-0.2
			c-0.6-0.1-1.1-0.2-1.7-0.3l-0.9-0.2l-1.1-0.2l-0.5-0.1c-1.2-0.2-2.3-0.5-3.4-0.7c-1.1-0.3-2-0.5-3-0.7l-0.5-0.1l-0.4-0.1l-0.8-0.2
			c-0.6-0.2-1.3-0.4-1.9-0.6c-0.5-0.2-0.9-0.3-1.4-0.5c-0.5-0.2-1.1-0.4-1.6-0.6c-0.7-0.3-1.3-0.6-1.9-0.9l0,0l-0.2-0.1l0,0
			c-0.7-0.4-1.3-0.8-1.9-1.3l0,0l-0.1-0.1l0,0l-0.1-0.1l0,0l-0.2-0.2l0,0l-0.1-0.1l0,0l-0.1-0.1l0,0l-0.1-0.1l0,0l-0.1-0.1l0,0
			l-0.1-0.1l0,0l-0.1-0.1l0,0l-0.1-0.1l0,0l-0.1-0.1l0,0c0-0.1-0.1-0.1-0.1-0.2l0,0l-0.1-0.1l0,0l-0.1-0.1l0,0c0,0,0,0,0-0.1l0,0
			l0-0.1l0,0l0-0.1l0,0c0,0,0-0.1,0-0.1l0,0c0-0.1-0.1-0.1-0.1-0.2l0,0c0,0,0,0,0-0.1l0,0c0,0,0-0.1,0-0.1l0,0c0,0,0-0.1,0-0.1l0,0
			v-0.1l0,0v-0.1v0v-0.1h-0.2c0-0.1,0-0.1,0-0.2l0,0c0,0,0,0,0-0.1l0,0c0,0,0,0,0-0.1v0c0,0,0-0.1,0-0.1l0,0c0-0.2,0-0.4,0.1-0.6
			c0-0.1,0-0.1,0.1-0.2c0-0.1,0.1-0.2,0.1-0.3L71,190l0.1-0.1l0-0.1l0.1-0.3l0.1-0.1l0.1-0.1c0.1-0.2,0.3-0.3,0.4-0.5l0.1-0.1
			l0.1-0.1l0,0l0.1-0.1l0.2-0.1l0.1-0.1c0.6-0.5,1.3-0.9,1.9-1.3c1.1-0.6,2.3-1.1,3.5-1.6l0.9-0.3l0.4-0.2l1.1-0.4
			c1.6-0.5,3.4-1,5.4-1.5c4.4-1,8.8-1.7,13.3-2.2l1.2-0.1l1.2-0.1l1.2-0.1c6.6-0.7,13.8-1,21.2-1c7.5,0,15,0.4,22.5,1.1l1.1,0.1
			l1.3,0.2c4.4,0.5,8.9,1.3,13.2,2.2c1.9,0.4,3.6,0.9,5.2,1.4c1,0.3,1.9,0.6,2.7,0.9c1.2,0.4,2.3,0.9,3.4,1.5l0.1,0l0.1,0.1l0.1,0.1
			l0.1,0l0.4,0.2l0.1,0.1c0.4,0.3,0.9,0.6,1.3,0.9l0.2,0.2l0.1,0.1l0.1,0.1c0.7,0.6,1.2,1.4,1.3,2.4c0,0,0,0.1,0,0.1l0,0
			c0,0,0,0.1,0,0.1l0,0v0.1l0,0c0,0,0,0.1,0,0.1l0,0c0,0,0,0.1,0,0.1l0,0v0.1l0,0c0,0,0,0.1,0,0.1l0,0l0,0.1l0,0l0,0.1l0,0L177,192
			l0,0c0,0,0,0.1,0,0.1l0,0c0,0.1-0.1,0.1-0.1,0.2l0,0l-0.1,0.1l0,0c0,0,0,0.1-0.1,0.1l0,0l-0.1,0.1l0,0l-0.1,0.1l0,0l-0.1,0.1l0,0
			c-0.1,0.1-0.1,0.1-0.2,0.2l0,0l-0.1,0.1L176,193.3z"/>
		<path id="_Path_4" class="st16" d="M111.7,182.9L111.7,182.9C111.5,182.8,111.5,182.8,111.7,182.9z"/>
		<path id="_Path_5" class="st16" d="M159.5,188.2c0-0.1-0.1-0.1-0.1-0.2c0,0.1,0,0.2,0,0.3h0.1L159.5,188.2z"/>
		<path id="_Path_6" class="st16" d="M176.1,193.2c0.1-0.1,0.1-0.1,0.2-0.2l0,0l0.1-0.1l0,0l0.1-0.1l0,0l0.1-0.1l0,0
			c0,0,0-0.1,0.1-0.1l0,0l0.1-0.1l0,0c0-0.1,0.1-0.1,0.1-0.2l0,0c0,0,0,0,0-0.1l0,0l0.1-0.1l0,0l0-0.1l0,0l0-0.1l0,0
			c0,0,0-0.1,0-0.1l0,0v-0.1l0,0c0,0,0-0.1,0-0.1l0,0c0,0,0-0.1,0-0.1l0,0v-0.1l0,0c0,0,0-0.1,0-0.1l0,0c0,0,0-0.1,0-0.1
			c-0.1-0.9-0.6-1.8-1.3-2.4l-0.1-0.1l-0.1-0.1l-0.2-0.2c-0.4-0.3-0.8-0.6-1.3-0.9l-0.1-0.1l-0.4-0.2l-0.1,0l0.1-0.3l-0.1-0.1
			l-0.1,0c-1.1-0.6-2.2-1.1-3.4-1.5c-0.8-0.3-1.7-0.6-2.7-0.9c-1.6-0.5-3.3-0.9-5.2-1.4c-4.4-1-8.8-1.7-13.2-2.2l-1.3-0.2l-1.1-0.1
			c-7.5-0.8-14.9-1.1-22.4-1.1c-7.4,0-14.6,0.3-21.2,1l-1.2,0.1l-1.2,0.1l-1.2,0.1c-4.5,0.5-8.9,1.3-13.3,2.2
			c-2,0.5-3.8,0.9-5.4,1.5l-1.1,0.4l-0.4,0.2l-0.9,0.3c-1.2,0.4-2.4,0.9-3.5,1.5c-0.7,0.4-1.3,0.8-2,1.3l-0.1,0.1l-0.2,0.1l-0.1,0.1
			l0,0l-0.1,0.1c0,0,0,0-0.1,0.1c-0.2,0.1-0.3,0.3-0.4,0.5l-0.1,0.1l-0.1,0.1l-0.1,0.2l0,0.1l-0.1,0.1L71,190
			c-0.1,0.1-0.1,0.2-0.1,0.3c0,0,0,0.1-0.1,0.2c-0.1,0.2-0.1,0.4-0.1,0.6h0c0,0,0,0.1,0,0.1v0c0,0,0,0,0,0.1l0,0c0,0,0,0,0,0.1l0,0
			c0,0,0,0.1,0,0.1l0,0v0.1v0v0.1l0,0v0.1l0,0c0,0,0,0.1,0,0.1l0,0c0,0,0,0.1,0,0.1l0,0c0,0,0,0,0,0.1l0,0c0,0,0,0,0,0.1l0,0
			c0,0,0,0.1,0,0.1l0,0l0,0.1l0,0l0,0.1l0,0c0,0,0,0,0,0.1l0,0l0.1,0.1l0,0l0.1,0.1l0,0c0,0,0,0,0,0.1l0,0l0.1,0.1l0,0l0.1,0.1l0,0
			l0.1,0.1l0,0l0.1,0.1l0,0l0.1,0.1l0,0l0.1,0.1l0,0l0.1,0.1l0,0l0.1,0.1l0,0l0.2,0.2l0,0l0.1,0.1l0,0l0.1,0.1l0,0l0.2,0.2
			c0-0.2,0.1-0.4,0.1-0.6c0.1-0.3,0.4-0.5,0.7-0.4c0.9,0.2,1.8,0.1,2.5-0.4c0-0.1,0-0.2,0-0.4c0-0.3,0.1-0.7,0.3-1
			c0.2-0.7,0.8-1.2,1.6-1.1h0.1l0.1-0.1c0.2-0.4,0.5-0.7,0.9-0.8c0.5-0.1,1-0.1,1.5,0.1c0.4-0.3,0.9-0.4,1.4-0.3
			c0.5-0.1,1-0.1,1.4,0.2c0,0,0,0,0-0.1v-0.2c0,0,0,0,0-0.1v0c0,0,0,0,0-0.1v0c0,0,0,0,0-0.1v0V188l0,0c0-0.1,0-0.1,0.1-0.2l0,0
			c0,0,0-0.1,0-0.1l0,0l0-0.1l0,0l0-0.1l0,0c0,0,0-0.1,0-0.1l0,0c0.1-0.2,0.3-0.4,0.5-0.6l0,0l0.1-0.1l0,0l0.1-0.1l0,0l0.1-0.1l0,0
			l0.1-0.1l0,0l0.1-0.1l0,0l0.1-0.1c0.8-0.5,1.8-0.7,2.7-0.5l0.2,0.1c0.2,0,0.4,0,0.6,0c0.2,0.1,0.4,0.2,0.6,0.3l0,0
			c0.2,0.1,0.4,0.3,0.5,0.5l0.2-0.1c0.2-0.4,0.5-0.8,0.8-1.1l-0.2-0.2c-0.2-0.3-0.2-0.6-0.1-0.9c0.1-0.2,0.2-0.4,0.3-0.5
			c0.2-0.2,0.4-0.3,0.6-0.3c0.1,0,0.3,0,0.5,0l0.3,0.1c0.2,0.1,0.3,0.2,0.5,0.4c0-0.2,0.1-0.3,0.2-0.5c0.4-0.5,1.1-0.7,1.7-0.3
			l0.4,0.3l0.2,0.1c0.2,0.1,0.4,0.3,0.5,0.6c0,0.1,0.1,0.1,0.1,0.2c0.1,0.2,0.2,0.5,0.1,0.8c0,0.1,0,0.1-0.1,0.2
			c0.1,0,0.3,0.1,0.4,0.2c0.2-0.2,0.4-0.4,0.6-0.5c0.1-0.3,0.2-0.5,0.4-0.6c0.1-0.1,0.2-0.1,0.2-0.2c0.2-0.1,0.4-0.2,0.6-0.2h0
			c0.1-0.7,0.7-1.2,1.3-1.2c0.4,0,0.8,0,1.3,0.1c0.6,0,1.1,0.3,1.4,0.8c0.2-0.1,0.4-0.2,0.6-0.2c0.5,0,0.8,0.4,0.9,0.9
			c0,0,0,0.1,0,0.1c0.4,0,0.7,0.1,1,0.3c0.6,0.3,1.3,0.9,2,0.9c0.6-0.1,1.2-0.4,1.6-0.9c0.5-0.5,1.1-0.9,1.7-1.2
			c0.1-0.5,0.5-0.9,1-1c0.2-0.1,0.4-0.1,0.6-0.1c0.2,0,0.4,0,0.6,0.1c0.3,0,0.6,0.2,0.9,0.4c0.1,0.1,0.1,0.1,0.2,0.2
			c0.1,0.1,0.2,0.3,0.3,0.5l0.1-0.1c-0.1-0.3,0-0.6,0.1-0.8c0.3-0.7,1.1-1,1.7-0.7c0.1,0,0.1,0,0.2,0.1l1.1,0.7
			c0.2,0.1,0.4,0.2,0.5,0.4c0.3,0.2,0.5,0.4,0.6,0.7c0.1,0.1,0.1,0.2,0.1,0.3c0.6,0.2,1.2,0.6,1.7,1c0.1,0,0.1-0.1,0.2-0.1
			c0,0,0.1-0.1,0.2-0.1c0.2-0.1,0.4-0.2,0.6-0.3c0.1-0.2,0.2-0.4,0.3-0.6c0.3-0.3,0.6-0.4,1-0.4c0.4,0,0.7,0.2,1,0.4l0.1,0.1
			c0.2,0,0.3,0,0.5,0.1c0-0.2,0.1-0.4,0.2-0.6c0.1-0.2,0.3-0.4,0.5-0.5c0.2-0.1,0.5-0.1,0.7-0.1l0.3,0.1c0.2,0,0.4,0.1,0.6,0.3l0,0
			c0.1,0.1,0.3,0.2,0.4,0.4c0.1,0,0.3,0.1,0.4,0.1h-0.1l0.2,0c0.4-0.1,0.8-0.2,1.1-0.2v-0.1c0.2-0.3,0.5-0.5,0.9-0.6
			c0.4-0.1,0.8,0,1.1,0.1l0.9,0.6c0.2,0.2,0.4,0.3,0.6,0.5c0.2,0.2,0.4,0.5,0.4,0.8l0.1,0.2c0.2-0.1,0.4-0.1,0.6-0.1
			c0.4-0.3,0.8-0.6,1.3-0.8c0-0.1,0-0.3,0-0.5c0-0.5,0.3-0.8,0.8-1c0.3-0.1,0.6-0.1,0.9-0.1c0.2,0,0.4,0,0.6,0
			c0.1,0,0.2,0.1,0.3,0.1c0.4,0,0.7,0.3,0.8,0.6c0,0.1,0,0.1,0,0.2c0-0.1,0.1-0.1,0.2-0.1c0.5-0.3,1.1-0.3,1.6,0
			c0-0.4,0.1-0.7,0.3-1c0.4-0.6,1.2-0.7,1.8-0.4l0.1,0h0c0.1,0,0.3,0.1,0.4,0.1h-0.2c0.2,0,0.4,0.1,0.7,0.1c0.1,0,0.1,0,0.2,0h0.1
			c0.1,0,0.2,0,0.3,0.1c0.1-0.2,0.2-0.4,0.3-0.6c0.5-0.5,1.4-0.5,1.9,0c0.4,0.4,0.7,0.8,1.1,1.2c0.2,0.3,0.3,0.6,0.4,0.9
			c0.5-0.7,1.2-1.1,2-1.3c0.1-0.2,0.2-0.4,0.4-0.5c0.5-0.4,1.3-0.4,1.8,0.1l0.4,0.3h0c0.2,0.1,0.3,0.2,0.4,0.4
			c0.3,0.3,0.4,0.6,0.6,0.9c0,0.1,0,0.1,0,0.2c0.2,0.3,0.4,0.7,0.6,1.1c0.2-0.1,0.3-0.1,0.5-0.1c0.2-0.1,0.3-0.1,0.5-0.1L152,185
			c-0.3-0.5-0.1-1.1,0.4-1.4c0.2-0.1,0.3-0.1,0.5-0.1c0.3,0,0.7,0,1,0.1c0.2,0.1,0.5,0.2,0.7,0.4c0.1,0.1,0.2,0.1,0.2,0.2
			c0.1,0.2,0.1,0.2,0,0c0.1,0.1,0.2,0.2,0.2,0.3c0.2,0.3,0.2,0.6,0.1,0.9c0.2,0.1,0.3,0.3,0.5,0.5c0.3,0.3,0.5,0.6,0.6,1
			c0.1-0.1,0.2-0.3,0.3-0.4c0.3-0.3,0.6-0.4,1-0.4c0.4,0,0.7,0.1,1,0.4c0.2,0.2,0.4,0.4,0.5,0.7c0.1,0.1,0.2,0.3,0.2,0.4
			c-0.1-0.7,0.5-1.4,1.2-1.4c0,0,0.1,0,0.1,0c0.2,0,0.4,0,0.7,0.1c0.1-0.2,0.3-0.4,0.5-0.4l0.1,0c0.1,0,0.2,0,0.3,0
			c0.2,0,0.3,0,0.4,0.1c0.2,0.1,0.3,0.2,0.5,0.3c0.2,0.2,0.4,0.4,0.5,0.7c0.1,0.3,0,0.5-0.1,0.8c0,0.1-0.1,0.2-0.1,0.2
			c0.1,0.2,0.1,0.4,0.1,0.6c0,0.1,0.1,0.2,0.1,0.3c0.4,0.1,0.8,0.1,1.3,0.2h0.1l0.4-0.1l0.3-0.1l0.1,0c0.1-0.1,0.3-0.1,0.4-0.2
			c0.2,0,0.4,0,0.5,0c0.5,0,1,0.3,1.3,0.8c0,0.1,0.1,0.2,0.1,0.3l0,0h0l0.1,0l0,0l0.1,0l0,0l0.1,0l0,0l0.1,0.1l0,0l0.1,0.1
			c0.4,0.4,0.7,0.9,0.8,1.4l0.2-0.1l0,0l0.2-0.1l0,0l0.2,0l0,0c0.1,0,0.2,0,0.3-0.1c1.8-0.3,3.6,0.7,4.4,2.3
			c0.1,0.3,0.3,0.6,0.4,0.9l0.2-0.2l0,0l0.3-0.1l0,0l0.1-0.1l0,0l0.2-0.2l0,0l0.2-0.2l0,0l0.1-0.1l0,0l0.1-0.1l0,0L176.1,193.2
			L176.1,193.2z"/>
		<path id="_Path_7" class="st17" d="M86.7,193.3c0.1-0.1,0.1-0.3,0.2-0.4C86.8,193,86.7,193.2,86.7,193.3z"/>
		<path id="_Path_8" class="st17" d="M132.4,201.2L132.4,201.2C132.7,201,132.7,201,132.4,201.2z"/>
		<path id="_Path_9" class="st17" d="M122.2,195.3L122.2,195.3L122.2,195.3z"/>
		<path id="_Compound_Path_2" class="st17" d="M174.4,193.3c-0.8-1.6-2.6-2.6-4.4-2.3h-0.1l-0.1,0.1c-0.6,0.8-1.5,1.1-2.5,0.9
			c0,0,0,0.1,0,0.1c0,0,0,0,0,0.1c0,0,0,0,0,0v0.1l0,0c0,0,0,0.1,0,0.1l0,0c0,0.1-0.1,0.3-0.2,0.4c0.3,0,0.5,0.1,0.8,0.2
			c0.5,0.3,0.6,0.9,0.3,1.4c0,0.1-0.1,0.1-0.1,0.2c-0.2,0.2-0.4,0.4-0.6,0.5l-0.3,0.2l0,0c-0.1,0.1-0.1,0.1,0,0l0,0
			c0,0-0.1,0.1-0.1,0.1c-0.5,0.5-1.2,0.4-1.7,0c-0.1-0.1-0.2-0.3-0.3-0.5c-0.1-0.3,0-0.6,0.1-0.9c0-0.1,0.1-0.1,0.1-0.2h-0.1h-0.1
			l0,0h-0.1l0,0c-0.1,0-0.3-0.1-0.4-0.1l0,0h-0.1l0,0h-0.1l0,0h-0.1l0,0h-0.1l0,0h0l0,0h0l0,0l0,0l0,0l-0.1-0.1
			c-0.6,0.1-1.3,0.1-1.9,0c0.1,0.1,0.3,0.2,0.4,0.3c0.3,0.3,0.4,0.6,0.3,1c0.1,0.1,0.2,0.2,0.3,0.4c0.3,0.2,0.4,0.5,0.5,0.8
			c0,0.4-0.1,0.7-0.4,1c-0.2,0.2-0.4,0.4-0.6,0.6c-0.2,0.1-0.3,0.2-0.5,0.2c-0.5,0.1-1,0-1.3-0.4c-0.3-0.3-0.3-0.8-0.2-1.2l-0.1,0.1
			l0,0c0,0,0,0.1,0,0.1l0,0c0,0,0,0-0.1,0.1l0,0l-0.1,0.1l0,0l-0.1,0.1l0,0l-0.1,0.1l0,0l-0.1,0.1l0,0l-0.1,0.1l0,0l-0.1,0l0,0
			l-0.1,0l0,0h-0.1l0,0H160l0,0h-0.1l0,0l-0.3,0.2h-0.3c-0.5,0-0.9-0.2-1.3-0.6c-0.8,0.6-2,0.5-2.6-0.3c-0.1-0.2-0.2-0.4-0.3-0.6
			l-0.1,0.1c-0.2,0.2-0.5,0.3-0.8,0.3h-0.3c-0.3,0-0.6-0.1-0.9-0.3c-0.2-0.1-0.3-0.3-0.5-0.5c-0.1,0-0.2-0.1-0.2-0.1
			c-0.1,0-0.1-0.1-0.2-0.1c-0.5,0.5-1.1,0.7-1.8,0.7c-0.7,0-1.4-0.4-1.9-1c-0.2,0.4-0.6,0.6-1,0.7c0.4,1.2,0.1,2.5-0.8,3.4
			c-1.5,1.3-3.7,1.1-5-0.3c0,0,0,0,0,0c-1.4,1-3.3,1.9-5,1.1c-1.1-0.5-1.9-1.6-1.8-2.8c-1,0.2-1.9-0.2-2.5-1
			c-0.5,1.2-1.6,2.2-2.8,2.5c-0.8,0.2-1.9,0.2-2.5-0.5l-0.1,0c-0.8,0.8-2,1-3,0.6c-0.3-0.2-0.6-0.4-0.9-0.7
			c-0.2,0.2-0.4,0.3-0.7,0.4c-0.1,0-0.2,0.1-0.3,0.1c-0.3,0.1-0.5,0.1-0.8,0.1c0.1,0.5-0.1,0.9-0.6,1.1c-0.6,0.1-1.2,0.2-1.9,0.1
			c-0.2,0-0.3,0-0.5-0.1c-0.2,0.4-0.6,0.6-1.1,0.6c-0.5,0-1-0.2-1.5-0.3c-0.3-0.1-0.6-0.3-0.8-0.6c-0.4-0.6-0.2-1.5,0.4-1.8
			c0.3-0.2,0.7-0.2,1-0.2c0.4,0.1,0.8,0.3,1.2,0.5c0.3-0.5,0.9-0.7,1.4-0.6c0.3,0.1,0.7,0.3,1.1,0.4c-0.1-0.3-0.1-0.6,0.1-0.9
			l0.1-0.1c-0.4,0.1-0.9,0.1-1.3,0c-0.4,0-0.9-0.2-1.3-0.3c0.5,0.1,0.9,0,1.3-0.4c0.1-0.1,0.2-0.3,0.3-0.5l0.1,0l0.9,0.2l0.4,0.1
			c0.3,0,0.6,0,0.8-0.1c0.5-0.1,0.8-0.6,0.6-1.1c0-0.1,0-0.1-0.1-0.2c-0.1-0.2-0.3-0.3-0.4-0.5c-0.1-0.1-0.3-0.2-0.5-0.2l-0.8-0.4
			c-0.6-0.3-1.3-0.1-1.7,0.5c-0.3-0.2-0.6-0.4-0.9-0.5c-0.7-0.2-1.5,0-1.9,0.6c-0.3,0.3-0.3,0.8-0.2,1.1c-1-0.2-2-0.8-2.5-1.6
			c-0.4-0.7-0.6-1.6-0.5-2.4c0.1,0,0.2,0,0.3-0.1c0.2-0.1,0.3-0.1,0.4-0.3c0.1-0.2,0.3-0.3,0.3-0.5c0-0.2,0-0.3,0-0.5
			c0-0.2-0.1-0.3-0.1-0.5l-0.1-0.1l0,0l0,0l-0.1-0.1c-0.1-0.1-0.2-0.2-0.2-0.3c-0.1,0-0.2,0-0.3-0.1c-0.2-0.1-0.4-0.2-0.6-0.5
			c-0.1,0-0.1,0-0.2,0h-0.2c-0.1,0-0.1-0.1-0.2-0.1l0,0c-0.1-0.1-0.2-0.1-0.3-0.2c-0.3-0.2-0.7-0.2-1.1-0.2
			c-0.4,0.1-0.7,0.3-0.9,0.7c-0.3,0.6-0.2,1.4,0.4,1.9c-0.6,0.1-1.3-0.1-1.8-0.4c-0.1,0.1-0.1,0.3-0.2,0.4l-0.1-0.1c0,0,0,0-0.1,0
			l-0.2-0.1l0,0c-0.2-0.5-0.7-0.8-1.3-0.8c-0.5,0.1-0.9,0.4-1.1,0.9c0.1,0.1,0.2,0.1,0.3,0.2c0.1,0.1,0.2,0.1,0.3,0.2
			c0.2,0.2,0.3,0.6,0.3,0.9c0,0.1-0.1,0.3-0.2,0.4l0,0.1c0.4,0.4,0.9,0.7,1.5,0.7c0.2,0,0.5-0.1,0.7-0.2c0.2-0.1,0.3-0.1,0.4-0.2
			c0.3-0.2,0.4-0.4,0.5-0.8c0.1,0.2,0.1,0.5,0.1,0.8c0.1,0.1,0.2,0.1,0.2,0.2c0.1,0.1,0.2,0.2,0.2,0.4c0.3-0.1,0.5-0.1,0.8-0.1
			l0.5,0c0.2,0,0.4,0,0.6,0.1c0.1,0,0.2,0.1,0.2,0.1l-0.2-0.1c0.1,0,0.2,0.1,0.2,0.1c0.3-0.1,0.7,0.1,0.9,0.3l1.2,1.5
			c0.1,0.2,0.3,0.3,0.4,0.5c0.1,0.2,0.2,0.4,0.2,0.6c0.1,0.4,0,0.8-0.2,1.1c-0.4,0.3-0.9,0.3-1.3,0c-0.1-0.1-0.3-0.1-0.4-0.2
			c-0.1,0.1-0.2,0.2-0.3,0.2l-0.1,0.1c-0.2,0.1-0.4,0.2-0.6,0.2c-0.2,0-0.4,0-0.6-0.2c-0.4-0.2-0.6-0.6-0.6-1c0-0.2,0.1-0.4,0.2-0.6
			h-0.2c-0.5,0-1-0.1-1.4-0.3c-0.1-0.1-0.2-0.2-0.3-0.3c-0.8,0.4-1.6,0.6-2.5,0.6c-0.3,0-0.5,0-0.8,0c0.3,0.6,0.2,1.2-0.1,1.8
			c-0.3,0.4-0.7,0.8-1.2,0.9c-0.1,0.1-0.2,0.1-0.3,0.1c-0.2,0-0.3,0-0.5,0c-0.5,0.1-1,0-1.3-0.4c-0.2-0.1-0.4-0.3-0.5-0.5
			c-1.4,0-2.8-0.5-4-1.3c0,0.7-0.4,1.3-0.9,1.8c-1.3,1.1-3.3,0.6-4.3-0.6c0.2-0.1,0.3-0.2,0.4-0.4c0.2-0.4,0.3-0.8,0.1-1.3
			c0.3-0.6,0-1.2-0.5-1.5c-0.1-0.1-0.3-0.1-0.4-0.1c0.2,0.2,0.3,0.4,0.3,0.6c0,0.3-0.2,0.6-0.5,0.8c-0.3,0.2-0.6,0.3-0.9,0.3l-0.2,0
			c0.1,0,0.1,0,0,0c-0.1,0-0.3,0.1-0.4,0.1l-0.4,0c-0.3,0-0.6-0.2-0.8-0.5l0,0c0-0.1-0.1-0.1-0.1-0.2c0-0.1,0-0.2,0-0.2l-0.1-0.1
			c-0.2-0.1-0.4-0.2-0.6-0.4c-0.4,0.1-0.7,0.5-0.8,1c-0.1,0.5,0.2,1,0.7,1.3c0.4,0.2,1,0.1,1.3-0.2c0.1-0.1,0.1-0.2,0.2-0.2l0,0
			c0.4,0.5,0.3,1.2-0.1,1.7c-0.2,0.2-0.4,0.3-0.7,0.4c-0.1,0-0.3,0-0.4,0h0.2c-0.2,0-0.4,0.1-0.5,0.1c-0.2,0-0.4,0-0.6-0.1
			c-0.6-0.1-1.1-0.4-1.5-0.8c-0.6-0.6-0.6-1.5,0-2.1c0.1-0.1,0.1-0.1,0.2-0.2l0,0c-0.5,0.1-1,0.1-1.5,0.1l0,0h-0.2h-0.1H84h-0.1
			h-0.1h-0.1h-0.1h-0.1h-0.1h-0.1h-0.1h-0.1H83l-0.2-0.1l-0.1-0.3h0l-0.1-0.1l0,0l-0.1-0.1l0,0l-0.1-0.1l0,0c-0.1,0-0.2-0.1-0.2-0.1
			l0,0l-0.1-0.1l0,0l-0.1-0.1l0,0c-0.1,0.1-0.2,0.2-0.3,0.3l0,0c-0.1,0.5-0.5,0.9-1.1,1c-0.1,0-0.3,0-0.4,0c-0.8,0.1-1.6-0.3-2-1
			c-0.4-0.6-0.4-1.4,0-2.1c0-0.1,0.1-0.1,0.1-0.2c0.4,0.2,0.8,0.2,1.2,0c0.3,0,0.7,0,1-0.1h0c0.2,0,0.4-0.1,0.6-0.1
			c0.5-0.1,0.8-0.5,1-1c0.1-0.2,0.1-0.5,0-0.7c-0.1-0.3-0.3-0.5-0.5-0.7c-0.2-0.2-0.5-0.3-0.8-0.3c0.4,0.1,0.1,0,0,0l-0.1,0l-0.1,0
			c-0.5-0.2-1-0.2-1.5-0.1c-0.4,0.1-0.7,0.4-0.9,0.8l-0.1,0.1h-0.1c-0.7-0.1-1.4,0.4-1.6,1.1c-0.2,0.3-0.3,0.6-0.3,1
			c0,0.1,0,0.2,0,0.4c-0.7,0.5-1.6,0.6-2.5,0.4c-0.3-0.1-0.6,0.1-0.7,0.4c0,0.2-0.1,0.4-0.1,0.6c0.5,0.4,1.1,0.8,1.7,1.1l0,0
			l0.1,0.1l0,0c0.6,0.3,1.2,0.6,1.9,0.9c0.5,0.2,1,0.4,1.6,0.6c0.4,0.2,0.9,0.3,1.4,0.5c0.6,0.2,1.2,0.4,1.9,0.6l0.8,0.2l0.4,0.1
			l0.5,0.1c0.9,0.3,1.9,0.5,3,0.7c1,0.2,2.3,0.5,3.4,0.7l0.5,0.1l1.1,0.2l0.9,0.2c0.6,0.1,1.1,0.2,1.7,0.3l1.1,0.2
			c9.7,1.4,19.5,2,29.4,2c9.4,0,18.8-0.6,28.1-1.8h0.2l0.9-0.1l1.3-0.2l0.8-0.1c2.4-0.4,4.6-0.8,6.7-1.3c2.6-0.6,5.1-1.3,7.6-2.2
			c0.5-0.2,0.9-0.3,1.3-0.5c0.9-0.3,1.7-0.7,2.5-1.2l0,0l0.2-0.1l0,0l0.2-0.1l0,0l0.4-0.2l0,0l0.2-0.1l0,0c0.2-0.1,0.4-0.3,0.6-0.4
			C174.7,194,174.6,193.7,174.4,193.3z M89.7,195.8h0.1c0.1,0,0.2,0,0.3,0h0l0,0c0,0-0.1,0,0,0l0,0c0,0.2,0.1,0.5,0.3,0.7
			c-0.1-0.1-0.3-0.1-0.4-0.2C89.9,196.1,89.8,196,89.7,195.8z M130,199.8c0.2-0.4,0.4-0.6,0.8-0.8c0.3-0.2,0.5-0.2,0.8-0.3
			c-0.4,0.1-0.1,0,0,0c0.6-0.2,1.6-0.2,2,0.3c0.3,0.3,0.4,0.8,0.2,1.2c-0.4,0.5-0.9,0.8-1.5,1l-0.1,0.1c-0.2,0.1-0.4,0.2-0.6,0.2
			c-0.2,0.1-0.5,0.1-0.8,0c-0.6,0-1.1-0.5-1.1-1.1C129.9,200.2,129.9,200,130,199.8L130,199.8z M107.6,196.7
			c0.3-0.3,0.7-0.4,1.1-0.3c0.1,0,0.2,0.1,0.3,0.1c0.1,0,0.1,0.1,0.2,0.1c0.3,0.2,0.3,0.2,0.1,0.1c0.2,0.1,0.4,0.2,0.5,0.4
			c0.1,0.1,0.3,0.3,0.4,0.4c0.2,0.3,0.2,0.7,0,1c-0.4,0.5-1.1,0.7-1.7,0.4c-0.2-0.1-0.4-0.2-0.6-0.3c-0.3-0.2-0.4-0.5-0.5-0.8
			C107.2,197.3,107.3,196.9,107.6,196.7z M153.7,197.7c-0.1,0.1-0.2,0.2-0.3,0.3c-0.1,0.1-0.3,0.2-0.4,0.3c-0.2,0.1-0.4,0.3-0.6,0.4
			c-0.3,0.2-0.7,0.3-1,0.4c-0.1,0-0.3,0.1-0.4,0.1c-0.2,0.1-0.5,0.1-0.7,0c-0.1,0-0.2-0.1-0.4-0.2c-0.5-0.3-0.7-0.9-0.6-1.4
			c0.3-0.9,1.3-1.3,2-1.6c0.4-0.2,0.8-0.2,1.2-0.3c0.5,0,1,0.3,1.3,0.7C153.9,197,153.9,197.4,153.7,197.7z"/>
		<path id="_Path_10" class="st18" d="M101.2,188.2c-0.1-0.1-0.2-0.2-0.2-0.2C101,188.1,101.1,188.1,101.2,188.2z"/>
		<path id="_Path_11" class="st18" d="M167.2,195.4C167.1,195.5,167,195.6,167.2,195.4z"/>
		<path id="_Path_12" class="st18" d="M152,194.8c-0.2-0.1-0.4-0.1-0.6-0.2c-0.1,0-0.2-0.1-0.2-0.1l0,0c-0.1,0-0.2,0-0.3-0.1
			c-0.3,0.2-0.6,0.2-0.9,0c-0.3-0.2-0.4-0.6-0.2-0.9c0.1-0.1,0.2-0.3,0.3-0.4l0.2-0.1h0c0.1-0.1,0.1-0.1,0,0c-0.1,0.1,0,0.1,0,0
			c0-0.1,0.1-0.2,0.2-0.2c0.1-0.1,0.3-0.2,0.4-0.2l0,0c-0.4-0.4-0.7-1-0.7-1.6c-0.3,0.2-0.5,0.3-0.8,0.4c0,0.3-0.1,0.6-0.3,0.8
			c-0.2,0.2-0.4,0.3-0.6,0.4c0.1,0.1,0.1,0.2,0.2,0.4c0.1,0.5-0.1,1-0.5,1.3c-0.5,0.3-1.1,0.2-1.6-0.1c-0.1-0.1-0.2-0.1-0.2-0.2
			l-0.2,0.1c-0.5,0.2-1.1,0.2-1.6,0.2c-0.1,0-0.2,0-0.4,0c0.2,0.4,0,0.9-0.5,1.1c0,0-0.1,0-0.1,0c-0.2,0-0.3,0.1-0.5,0.1l0,0
			c0.4,0.3,0.6,0.9,0.5,1.4c-0.1,0.2-0.2,0.4-0.3,0.6c-0.1,0.2-0.2,0.3-0.3,0.5c0,0.1-0.1,0.1-0.2,0.2c-0.6,0.6-1.6,0.6-2.2,0
			c-0.1-0.1-0.2-0.2-0.3-0.4c-0.2-0.3-0.3-0.8-0.2-1.2c-0.4,0-0.8-0.1-1-0.4c-0.2-0.2-0.3-0.5-0.5-0.7c-0.3-0.1-0.6-0.2-0.9-0.3
			l-0.1-0.1c0,0,0,0.1-0.1,0.1c-0.1,0.2-0.3,0.4-0.5,0.5c0,0.1,0,0.2,0,0.3c-0.2,0.5-0.7,0.8-1.3,0.7c-0.3-0.1-0.7-0.2-1-0.4
			c-0.3-0.2-0.6-0.3-0.8-0.6c-0.2-0.1-0.3-0.3-0.5-0.5c-0.1,0.1-0.3,0.1-0.4,0c-0.2-0.1-0.4-0.1-0.5-0.2c-0.1,0-0.2-0.1-0.3-0.3
			c-0.4-0.2-0.8-0.4-1.2-0.7l0-0.1l-0.1,0.2l-0.1,0.1c-0.1,0.2-0.2,0.4-0.4,0.6c0.3,0.6-0.4,1.6-1.1,1.3l0,0h-0.6l-0.2,0h-0.1l0,0
			c-0.1,0.1-0.2,0.1-0.3,0.1c-0.1,0-0.2,0.1-0.3,0.2l-0.1,0.1c-0.4,0.4-1,0.3-1.4,0c-0.3-0.3-0.3-0.8-0.1-1.1
			c0.1-0.1,0.2-0.3,0.3-0.4c-0.3-0.3-0.4-0.7-0.4-1.1c-0.4,0-0.8,0-1.1-0.2c0,0.3,0,0.5-0.2,0.8c-0.2,0.4-0.6,0.6-1.1,0.6
			c-0.2,0-0.4,0-0.6-0.1c-0.3-0.1-0.5-0.2-0.7-0.4c-0.3-0.3-0.6-0.6-0.8-0.9c-0.4-0.7-0.2-1.6,0.5-2l0.1-0.1l-0.2,0
			c-0.4-0.1-0.7-0.3-0.9-0.6c-0.1,0.1-0.3,0.2-0.4,0.3c0,0.1,0.1,0.3,0,0.5c-0.1,0.5-0.5,1-1.1,1h-0.7l-0.2,0l-0.3,0l-0.3,0
			c0,0,0.2,0,0.1,0c-0.5,0-0.9-0.3-1.1-0.8c0-0.2,0-0.3,0-0.5c-0.1-0.1-0.2-0.1-0.3-0.2c-0.8-0.6-1.1-1.5-0.9-2.4
			c0.1-0.5,0.4-0.9,0.8-1.2c-0.1-0.1-0.3-0.3-0.4-0.5c-0.3,0.1-0.6,0.2-0.9,0.3c-0.1,0.2-0.3,0.3-0.6,0.4c-0.6,0.3-1.3,0.5-1.9,0.5
			c0.1,0.1,0.2,0.2,0.2,0.3l0.1,0.1l0,0l0,0l0.1,0.1c0.1,0.1,0.1,0.3,0.1,0.5c0,0.2,0,0.3,0,0.5c-0.1,0.2-0.2,0.4-0.3,0.5
			c-0.1,0.1-0.2,0.2-0.4,0.3c-0.1,0-0.2,0.1-0.3,0.1c-0.1,0.8,0,1.7,0.5,2.4c0.6,0.9,1.5,1.5,2.5,1.6c-0.2-0.4-0.1-0.8,0.2-1.1
			c0.4-0.6,1.2-0.9,1.9-0.6c0.3,0.1,0.6,0.2,0.9,0.5c0.3-0.6,1.1-0.8,1.7-0.5l0.8,0.4c0.2,0.1,0.3,0.1,0.5,0.2
			c0.1,0.2,0.3,0.3,0.4,0.5c0.2,0.4,0.1,1-0.3,1.2c-0.1,0-0.1,0.1-0.2,0.1c-0.3,0.1-0.5,0.1-0.8,0.1l-0.4-0.1l-0.9-0.2l-0.1,0
			c-0.1,0.2-0.2,0.3-0.3,0.5c-0.3,0.3-0.8,0.5-1.3,0.4c0.4,0.2,0.8,0.3,1.3,0.3c0.4,0.1,0.9,0.1,1.3,0c0.1-0.1,0.2-0.2,0.3-0.3
			l0.2-0.2c0.2-0.1,0.3-0.2,0.5-0.2c0.3-0.1,0.5-0.2,0.8-0.2c0.1,0,0.1,0,0.2,0l0,0l0,0c0.4,0.1,0.8,0.4,1,0.8
			c0.1,0.3,0.1,0.6,0.1,0.8c-0.1,0.2-0.2,0.4-0.3,0.6l0,0c0.2,0.3,0.6,0.5,0.9,0.7c1,0.4,2.2,0.2,3.1-0.5l0.1,0.1
			c0.6,0.7,1.7,0.7,2.5,0.5c1.3-0.3,2.3-1.3,2.8-2.5c0.6,0.8,1.5,1.2,2.5,1c0,1.2,0.7,2.4,1.8,2.8c1.7,0.8,3.6-0.1,5-1.1
			c1.3,1.5,3.5,1.6,5,0.3c0,0,0,0,0,0c0.9-0.9,1.2-2.2,0.8-3.4c0.4-0.1,0.8-0.3,1-0.7c0.5,0.6,1.1,0.9,1.9,1c0.7,0,1.3-0.3,1.8-0.7
			c0,0.1,0.1,0.1,0.2,0.1c0.1,0.1,0.1,0.1,0.2,0.1c-0.1-0.1-0.1-0.2-0.2-0.4C152.2,194.9,152.1,194.8,152,194.8z"/>
		<path id="_Compound_Path_3" class="st18" d="M80.6,189.3C80.7,189.3,81,189.3,80.6,189.3c0.3,0,0.6,0.1,0.8,0.3
			c0.2,0.2,0.4,0.4,0.5,0.7c0.1,0.2,0.1,0.5,0,0.7c-0.1,0.5-0.5,0.8-1,1c-0.2,0-0.4,0.1-0.6,0.1h0c-0.3,0.1-0.7,0.1-1,0.1
			c-0.4,0.2-0.8,0.2-1.2,0c0,0.1-0.1,0.1-0.1,0.2c-0.4,0.6-0.3,1.4,0,2.1c0.4,0.7,1.2,1.1,2,1c0.1,0,0.3,0,0.4,0c0.5,0,1-0.4,1.1-1
			l0,0c0.1-0.1,0.2-0.2,0.3-0.3l0,0l0,0l0.1,0.1l0,0l0.1,0.1l0,0c0.1,0,0.1,0.1,0.2,0.1l0,0l0.1,0.1l0,0l0.1,0.1l0,0l0.1,0h0l0.1,0
			l0.2,0.1H83h0.1h0.1h0.1h0.1h0.1h0.1h0.1h0.1h0.1H84h0.1h0.2l0,0c0.5,0,1,0,1.5-0.1l0,0c-0.1,0.1-0.2,0.1-0.2,0.2
			c-0.6,0.6-0.6,1.5,0,2.1c0.4,0.4,0.9,0.7,1.5,0.8c0.2,0.1,0.4,0.1,0.6,0.1c0.2,0,0.4-0.1,0.5-0.1H88c0.1,0,0.3,0,0.4,0
			c0.3-0.1,0.5-0.2,0.7-0.4c0.4-0.4,0.5-1.1,0.1-1.7l0,0c-0.1,0.1-0.1,0.2-0.2,0.2c-0.3,0.3-0.9,0.4-1.3,0.2
			c-0.5-0.2-0.8-0.7-0.7-1.3c0.1-0.5,0.4-0.8,0.8-1c0,0-0.1-0.1-0.1-0.1c-0.1-0.1-0.2-0.2-0.2-0.3l0,0c-0.1-0.1-0.1-0.1-0.1-0.2
			c-0.2-0.3-0.3-0.6-0.2-1c-0.1-0.1-0.2-0.2-0.3-0.4c-0.4-0.6-0.5-1.4-0.3-2.2c-0.2,0.1-0.3,0.1-0.5,0.2c-0.2,0-0.5,0-0.7-0.1
			l-0.2,0.2c-0.1,0-0.2,0-0.3-0.1c-0.4-0.1-0.7-0.3-1-0.6c-0.6-0.5-0.8-1.3-0.6-2.1c0-0.1,0.1-0.2,0.1-0.3l-0.1,0
			c-0.1,0.1-0.2,0.2-0.2,0.4l0,0c0,0,0,0.1,0,0.1l0,0l0,0.1l0,0l0,0.1l0,0c0,0,0,0.1,0,0.1l0,0c0,0.1,0,0.1-0.1,0.2l0,0v0.1v0
			c0,0,0,0,0,0.1v0c0,0,0,0,0,0.1v0.1c0,0,0,0,0,0.1v0.2c0,0,0,0,0,0.1c-0.4-0.3-1-0.4-1.4-0.2c-0.4,0.1-0.8,0.4-1,0.8L80.6,189.3
			L80.6,189.3z M86.9,192.9c0,0.2-0.1,0.3-0.2,0.4C86.7,193.2,86.8,193,86.9,192.9z M83.1,189.6c0.2-0.1,0.4-0.1,0.5,0l0.4,0.2
			c0.2,0.1,0.2,0.3,0.1,0.5c0,0.1-0.1,0.1-0.1,0.1l-0.4,0.2c-0.2,0.1-0.4,0.1-0.5,0c-0.2-0.1-0.3-0.3-0.3-0.5
			C82.9,189.9,83,189.7,83.1,189.6L83.1,189.6z"/>
		<path id="_Path_13" class="st18" d="M167.5,190.7c-0.5,0.5-1.2,0.7-1.9,0.7c-0.3,0-0.6,0-0.8,0l-0.3,0l-0.2-0.1l-0.2-0.1
			c-0.4-0.1-0.6-0.4-0.8-0.7l-0.3,0.1c-0.3,0.1-0.6,0.2-0.9,0.2c-0.1,0.2-0.2,0.4-0.4,0.5c-0.2,0.1-0.4,0.2-0.7,0.2h-0.4
			c-0.3,0-0.6-0.1-0.8-0.4c-0.1,0-0.1,0.1-0.2,0.1c0.1,0.1,0.3,0.2,0.4,0.4l0,0l0,0l0.1,0.1c0.2,0,0.3,0.1,0.5,0.1
			c0.1,0,0.2,0,0.3,0c0.3,0.1,0.5,0.3,0.7,0.5c0.3,0.2,0.4,0.5,0.3,0.9c0,0,0,0.1,0,0.1l0,0l0.1,0c0.6,0.1,1.3,0.1,1.9,0l0.1,0.1
			l0,0l0,0l0,0h0l0,0h0l0,0h0.1l0,0h0.1l0,0h0.1l0,0h0.1l0,0c0.1,0,0.3,0.1,0.4,0.1l0,0h0.1l0,0h0.1h0.1c0,0.1-0.1,0.1-0.1,0.2
			c-0.2,0.3-0.2,0.6-0.1,0.9c0.2,0.6,0.9,1,1.5,0.8c0.2-0.1,0.3-0.1,0.5-0.3c0,0,0.1-0.1,0.1-0.1l0,0l0,0l0.3-0.2
			c0.2-0.1,0.4-0.3,0.6-0.5c0.4-0.4,0.4-1.1,0-1.4c-0.1-0.1-0.1-0.1-0.2-0.1c-0.2-0.1-0.5-0.2-0.8-0.2l0,0c0.1-0.1,0.1-0.3,0.2-0.4
			l0,0c0,0,0-0.1,0-0.1l0,0V192c0,0,0,0,0,0c0,0,0,0,0-0.1c0,0,0-0.1,0-0.1c0.9,0.2,1.9-0.1,2.4-0.9l0.1-0.1l-0.2,0l0,0l-0.2,0l0,0
			l-0.2,0.1l0,0l-0.2,0.1c-0.1-0.5-0.4-1-0.8-1.4l0.2,0.3l0,0l-0.1-0.1l0,0l-0.1,0l0,0l-0.1,0l0,0l-0.1,0h0l0,0
			C168,190,167.8,190.4,167.5,190.7z"/>
		<path id="_Path_14" class="st18" d="M112.3,186.8c0.1-0.1,0.2-0.3,0.3-0.4c-0.6,0.3-1.2,0.4-1.8,0.3l-0.3-0.1c0,0-0.1,0.1-0.1,0.1
			c-0.2,0.3-0.5,0.4-0.9,0.5c-0.5,0.1-1.1,0-1.5-0.4c-0.1-0.1-0.2-0.2-0.3-0.3c-0.4,0.1-0.7,0.1-1.1,0.1c-0.2,1.3-1.9,1.8-3,2
			c-0.4,0.1-0.9,0.2-1.4,0.3c0,0.1,0,0.2,0,0.3c0.2,0.1,0.3,0.2,0.4,0.4c0,0.1,0.1,0.2,0.2,0.3l0,0l0,0c0.1,0.1,0.1,0.1,0.2,0.2
			l0.1,0l0.3,0.2c0.1-0.2,0.2-0.4,0.4-0.5c0.2-0.2,0.5-0.2,0.8-0.2c0.2,0,0.4,0,0.6,0.2c0.1-0.5,0.5-0.9,1-0.9
			c0.5-0.1,1.1,0.2,1.3,0.8l0,0l0.2,0.1c0.1,0,0.1,0.1,0.1,0l0.1,0.1c0.1-0.1,0.2-0.2,0.2-0.4c0.5,0.3,1.2,0.5,1.8,0.4
			c-0.6-0.4-0.7-1.2-0.4-1.9c0.2-0.3,0.5-0.6,0.9-0.7c0.4-0.1,0.8,0,1.1,0.2c0.1,0.1,0.2,0.1,0.3,0.2l0,0c0.1,0,0.1,0.1,0.2,0.1h0.2
			c0.1,0,0.1,0,0.2,0C112.1,187.4,112.1,187,112.3,186.8z"/>
		<path id="_Path_15" class="st18" d="M153.7,193.1c0.2,0,0.4,0,0.6,0.1c-0.1,0-0.2-0.1-0.2-0.2c-0.1-0.1-0.1-0.1-0.2-0.2
			c-0.2,0.1-0.4,0.3-0.6,0.3l0,0C153.4,193.1,153.5,193.1,153.7,193.1z"/>
		<path id="_Path_16" class="st18" d="M150.5,194.2c0.1,0.1,0.1,0.1,0.2,0.2l0,0L150.5,194.2z"/>
		<path id="_Path_17" class="st18" d="M158.2,191.4L158.2,191.4L158.2,191.4z"/>
		<path id="_Path_18" class="st18" d="M148.5,192.4L148.5,192.4C148.5,192.4,148.5,192.5,148.5,192.4L148.5,192.4z"/>
		<path id="_Compound_Path_4" class="st18" d="M104.8,191.6h-0.2c0,0.1,0,0.2,0,0.3c-0.1,0.5-0.4,0.9-0.9,1
			c-0.6,0.2-1.3,0.1-1.9-0.2c-0.4,0.9-1.4,1.3-2.4,1c-0.8-0.2-1.4-0.9-1.6-1.6c-0.6,0.1-1.3,0-1.9-0.2c-0.4-0.2-0.8-0.5-1.1-0.9
			c-0.2,0.2-0.5,0.3-0.7,0.5c-0.1,0.1-0.2,0.1-0.3,0.2c-0.2,0.1-0.4,0.2-0.7,0.2l0,0c-0.3,0.4-0.6,0.7-1,1c-0.3,0.2-0.6,0.4-1,0.5
			c0,0,0,0.1,0,0.1c0,0,0,0.1,0,0.1c0.1,0.1,0.2,0.1,0.3,0.2c0.6,0,1.1,0.5,1.1,1.2c0,0.2,0,0.3-0.1,0.4c0.1,0.4,0.1,0.9-0.1,1.3
			c-0.1,0.2-0.2,0.3-0.4,0.4c1,1.2,3,1.7,4.3,0.6c0.5-0.5,0.8-1.1,0.9-1.8c1.2,0.8,2.5,1.3,4,1.3c0.1,0.2,0.3,0.3,0.5,0.4
			c-0.2-0.2-0.3-0.5-0.4-0.8c0-0.5,0.3-0.9,0.7-1.2c-0.3-0.2-0.6-0.4-0.7-0.8c-0.1-0.3,0-0.7,0.1-1c0.2-0.3,0.4-0.5,0.7-0.6
			c0.4-0.1,0.8-0.1,1.3,0c0.1,0,0.2,0.1,0.3,0.1c0.1,0,0.3,0.1,0.4,0.2l0,0.1c0.1,0.1,0.1,0.1,0.2,0.2c0.1,0.1,0.2,0.3,0.2,0.4
			c0.1,0.5-0.1,0.9-0.5,1.2c-0.1,0.1-0.2,0.1-0.3,0.1h-0.1c-0.1,0-0.2,0-0.2,0c0.2,0.1,0.4,0.3,0.5,0.6c0.1,0,0.1,0.1,0.2,0.1l0,0
			c0.2,0.2,0.3,0.6,0.2,0.9c-0.1,0.2-0.2,0.4-0.3,0.5c0,0-0.1,0.1-0.2,0.1c0.5-0.2,0.9-0.5,1.2-0.9c0.3-0.5,0.3-1.2,0.1-1.8
			c0.3,0,0.6,0,0.9,0c0.9,0,1.7-0.2,2.5-0.6c-0.4-0.6-0.3-1.4,0.2-1.9c0,0,0.1-0.1,0.1-0.1c0.2-0.1,0.4-0.2,0.6-0.2
			c-0.1-0.1-0.1-0.2-0.2-0.4c-0.1-0.1-0.1-0.2-0.2-0.2c0.1-0.3,0.1-0.5-0.1-0.8c-0.1,0.3-0.2,0.6-0.5,0.8c-0.1,0.1-0.3,0.2-0.4,0.2
			c-0.2,0.1-0.4,0.2-0.7,0.2c-0.6,0-1.1-0.3-1.5-0.7l0-0.1C105.5,191.7,105.1,191.7,104.8,191.6L104.8,191.6z M98.6,194.3
			c-0.1,0.3-0.4,0.6-0.7,0.7c-0.4,0.1-0.8,0.1-1.2-0.1c-0.3-0.2-0.6-0.5-0.7-0.9c0,0.6-0.5,1.2-1.1,1.4c-0.5,0.2-1,0-1.4-0.3
			c-0.1-0.1-0.2-0.3-0.3-0.4l-0.1-0.3c-0.1-0.2-0.1-0.4,0-0.6c0-0.1,0-0.3,0.1-0.4l0-0.1c0,0,0,0,0,0c0-0.1,0-0.1,0-0.1l0.1-0.4
			c0-0.7,0.6-1.2,1.3-1.2c0.2,0,0.4,0.1,0.5,0.1c0.3,0.2,0.5,0.4,0.6,0.7c0,0.2,0.1,0.5,0.1,0.7c0,0.2,0.1,0.5,0.2,0.7
			c0-0.3,0.1-0.6,0.3-0.8c0.3-0.3,0.7-0.4,1-0.3c0.1,0,0.3,0.1,0.4,0.2c0.1,0,0.2,0.1,0.2,0.1c0.1,0.1,0.2,0.2,0.3,0.3l0.1,0.1
			C98.6,193.6,98.7,194,98.6,194.3z"/>
		<path id="_Path_19" class="st18" d="M145.4,191.4c0-0.1,0-0.1-0.1-0.2l-0.2-0.1c-0.1,0.2-0.2,0.3-0.3,0.5c0.2,0,0.4-0.1,0.6-0.1
			L145.4,191.4z"/>
		<path id="_Path_20" class="st18" d="M123.8,191.6c0-0.1,0-0.2,0-0.3c-0.1,0.1-0.2,0.1-0.4,0.1l0,0
			C123.6,191.4,123.7,191.5,123.8,191.6z"/>
		<path id="_Path_21" class="st18" d="M90.1,196.3c0.1,0.1,0.2,0.2,0.4,0.2c-0.1-0.2-0.2-0.4-0.3-0.7l0,0c-0.1-0.1,0.1,0,0,0
			c-0.1,0,0,0,0,0h-0.1c-0.1,0-0.2,0-0.3,0h-0.1C89.8,196.1,89.9,196.2,90.1,196.3z"/>
		<path id="_Path_22" class="st18" d="M132.8,192.5L132.8,192.5l0.1,0.1l0.1,0.1c0,0,0.2,0.1,0,0c-0.1-0.1,0.2,0.1,0.3,0.1
			c0.1,0.1,0.2,0.1,0.3,0.2c0.1,0.1,0.1,0.1,0.2,0.2c0.1,0.1,0.1,0.1,0.2,0.2c0.3-0.2,0.6-0.2,1-0.1l0.1,0.1
			c0.2-0.1,0.4-0.2,0.6-0.2l0,0c-0.3-0.1-0.6-0.3-0.8-0.6c-0.2-0.3-0.1-0.6,0.2-0.8c0.1-0.1,0.3-0.1,0.4-0.1c0-0.2,0.1-0.4,0.2-0.5
			c-0.3,0-0.6-0.1-0.9-0.2l-0.1-0.1c-0.1,0.3-0.4,0.6-0.6,0.8c0.1,0.1,0.2,0.3,0.3,0.4c0.2,0.2,0.2,0.5,0,0.7
			c-0.1,0.1-0.3,0.2-0.4,0.1c-0.5-0.1-1-0.4-1.3-0.8c-0.4-0.1-0.8-0.2-1.2-0.5c0,0.2,0,0.5,0,0.7
			C131.8,192.1,132.4,192.2,132.8,192.5z"/>
		<path id="_Path_23" class="st18" d="M142.5,194.9l-0.2-0.1c-0.1-0.1-0.2-0.1-0.3-0.2c0,0.1-0.1,0.3-0.1,0.4
			C142.1,194.9,142.3,194.9,142.5,194.9z"/>
		<path id="_Path_24" class="st18" d="M143.7,192c-0.1,0-0.3,0-0.4-0.1c-0.1,0.6-0.6,1.2-1.2,1.3c0,0.1,0,0.1,0,0.1
			c0,0,0.1-0.1,0.1-0.1c0.2-0.1,0.5-0.1,0.7-0.1c0.2,0,0.3,0.1,0.5,0.1l0.1,0c-0.1-0.2-0.1-0.3-0.1-0.5
			C143.4,192.5,143.5,192.2,143.7,192z"/>
		<path id="_Path_25" class="st18" d="M163.1,196c-0.1,0.2-0.4,0.4-0.6,0.5c-0.3,0.1-0.6,0-0.8-0.1c-0.1-0.1-0.2-0.2-0.3-0.3
			c0,0-0.1-0.1-0.1-0.1c-0.1-0.1-0.1-0.1-0.2-0.2c-0.6-0.1-1.1-0.3-1.6-0.6c-0.4-0.2-0.6-0.7-0.6-1.2c-0.4-0.3-0.8-0.6-1-1.1
			l-0.1-0.1c-0.3,0.3-0.8,0.5-1.3,0.3c-0.2-0.1-0.4-0.2-0.6-0.3c-0.1,0.1-0.2,0.2-0.3,0.2c-0.3,0.2-0.7,0.2-1,0.1l0.2,0.1
			c0.5,0.3,0.8,0.9,0.6,1.5c-0.1,0.2-0.2,0.4-0.4,0.6c0.3,1,1.4,1.5,2.4,1.2c0.2-0.1,0.4-0.2,0.5-0.3c0.3,0.4,0.8,0.6,1.3,0.6h0.3
			h0.1l0,0h0.1l0,0h0.1l0,0h0.1l0,0l0.1,0l0,0l0.1,0l0,0l0.1-0.1l0,0l0.1-0.1l0,0l0.1-0.1l0,0l0.1-0.1l0,0l0.1-0.1l0,0
			c0.1,0,0.2-0.1,0.3-0.2l0,0c0,0,0-0.1,0.1-0.1l0,0l0.1-0.1l0,0c-0.1,0.4-0.1,0.9,0.2,1.2c0.3,0.4,0.8,0.6,1.3,0.4
			c0.2-0.1,0.3-0.1,0.5-0.2c0.2-0.1,0.5-0.3,0.6-0.6c0.2-0.3,0.4-0.6,0.4-1c0-0.5-0.3-0.9-0.8-1.1
			C163.3,195.4,163.3,195.7,163.1,196L163.1,196z"/>
		<path id="_Path_26" class="st19" d="M111.7,184.9L111.7,184.9C111.5,185,111.5,185,111.7,184.9z"/>
		<path id="_Path_27" class="st19" d="M119.3,185.1c0-0.1,0-0.2,0.1-0.3c-0.2,0.1-0.4,0.2-0.6,0.3c0.1,0,0.1,0,0.2,0
			C119.1,185.1,119.2,185.1,119.3,185.1z"/>
		<path id="_Path_28" class="st19" d="M83.4,187c-0.1,0.1-0.1,0.2-0.1,0.3c-0.3,0.7,0,1.5,0.5,2.1c0.3,0.3,0.6,0.5,1,0.6
			c0.1,0,0.2,0.1,0.3,0.1l0.3,0l-0.2-0.1c0.3-0.1,0.5-0.4,0.5-0.7c0-0.1-0.1-0.2-0.2-0.3c-0.3-0.3-0.8-0.6-1.3-0.7h-0.1v-0.1
			c0.2-0.5,0.6-0.9,1.2-1c0.3,0,0.7,0,1,0.2c-0.1-0.2-0.1-0.3-0.1-0.5c0-0.3,0.1-0.6,0.4-0.9c0.2-0.2,0.4-0.3,0.6-0.3l-0.2-0.1
			c-0.9-0.2-1.9,0-2.7,0.5l-0.1,0.1l0,0l-0.1,0.1l0,0l-0.1,0.1l0,0l-0.1,0.1l0,0l-0.1,0.1l0,0l-0.1,0.1l0,0
			C83.5,186.8,83.4,186.9,83.4,187L83.4,187z"/>
		<path id="_Path_29" class="st19" d="M122.4,184.8c0-0.1-0.1-0.3-0.1-0.4l0,0c-0.2,0-0.3,0-0.5-0.1L122.4,184.8L122.4,184.8z"/>
		<path id="_Path_30" class="st19" d="M162.9,189.3c-0.5,0.4-1.2,0.3-1.6-0.1l0,0c-0.1,0-0.1-0.1-0.2-0.1l-0.2-0.1l-0.2-0.1
			c0,0-0.1-0.1-0.2-0.1c-0.1,0-0.3-0.1-0.4-0.1c-0.3-0.1-0.6-0.2-0.7-0.5l-0.1,0.2h-0.1c-0.1,0.3-0.2,0.6-0.5,0.7
			c-0.4,0.3-1,0.4-1.4,0.1c-0.1-0.1-0.2-0.1-0.3-0.2c0,0.1-0.1,0.2-0.1,0.3l-0.1,0.2c-0.1,0.1-0.2,0.3-0.3,0.4l0.1,0
			c0.5,0.4,1,0.8,1.4,1.4c0,0,0,0,0,0.1l0,0c0.1-0.1,0.2-0.2,0.3-0.2c0.5-0.3,1-0.2,1.5,0.1c0.1,0,0.1-0.1,0.2-0.1
			c-0.4-0.4-0.4-1.2,0-1.6c0.4-0.4,1-0.4,1.4-0.2l0.3,0.2c0.2,0.1,0.4,0.3,0.5,0.5c0.1,0.2,0.2,0.5,0.1,0.7c0.3,0,0.6-0.1,0.9-0.2
			l0.3-0.1c-0.1-0.1-0.1-0.3-0.1-0.4c0-0.5,0.3-1,0.8-1.1h0.2c-0.2,0.1-0.2,0.1,0,0c0.1,0,0.2-0.1,0.3-0.1h0.1h-0.1
			c-0.4,0-0.8-0.1-1.3-0.2c0-0.1-0.1-0.2-0.1-0.3C163.4,188.8,163.2,189.1,162.9,189.3z"/>
		<path id="_Compound_Path_5" class="st19" d="M112.1,184.6c-0.1,0.1-0.1,0.1-0.2,0.2c-0.3,0.2-0.6,0.4-0.9,0.4
			c-0.2,0-0.3,0.1-0.5,0.1c0.1,0.2,0.1,0.3,0.1,0.5c0.1,0.3,0.1,0.6-0.1,0.9l0.3,0.1c0.6,0.1,1.3,0,1.9-0.3
			c-0.1,0.1-0.2,0.2-0.3,0.4c-0.2,0.3-0.2,0.6,0,0.9c0.1,0.2,0.3,0.4,0.6,0.5c0.1,0,0.2,0,0.3,0.1c0.7,0,1.3-0.2,1.9-0.5
			c0.2-0.1,0.4-0.2,0.6-0.4c0.3,0,0.6-0.1,0.9-0.3c0.1,0.2,0.2,0.3,0.4,0.5c-0.4,0.3-0.6,0.7-0.8,1.2c-0.2,0.9,0.1,1.9,0.9,2.4
			c0.1,0.1,0.2,0.2,0.3,0.2c0,0.2,0,0.3,0,0.5c0.1,0.5,0.6,0.8,1.1,0.8c0.2,0,0,0-0.1,0l0.3,0l0.3,0l0.2,0h0.7c0.6,0,1-0.4,1.1-1
			c0-0.2,0-0.3,0-0.5c0.1-0.1,0.3-0.2,0.4-0.3c0.2,0.3,0.6,0.5,0.9,0.6l0.2,0c0.3-0.1,0.7-0.1,1,0c0.1,0,0.3-0.1,0.4-0.1
			c0,0.1,0,0.2,0,0.3c0.2,0.1,0.4,0.3,0.5,0.5c0.1,0.1,0.1,0.3,0.2,0.4l-0.1-0.1l0.2,0.3c0.1,0.1,0.2,0.3,0.3,0.4
			c0.1,0.2,0.1,0.3,0.2,0.5c0.4,0.2,0.7,0.2,1.1,0.2c0,0.4,0.2,0.8,0.4,1.1c-0.1,0.1-0.2,0.3-0.3,0.4c-0.3,0.5-0.1,1,0.4,1.3
			c0.4,0.2,0.8,0.1,1.1-0.1l0.1-0.1c0.1-0.1,0.2-0.1,0.3-0.2c0.1,0,0.2-0.1,0.3-0.1l0,0h0.1l0.2,0h0.6l0,0c0.7,0.3,1.4-0.6,1.1-1.3
			c0.2-0.2,0.3-0.4,0.4-0.6c-0.2,0.2-0.3,0.3-0.6,0.4l-0.1-0.1c-0.6-0.5-1.4-0.6-2.2-0.4l-0.2,0c-0.2-0.6,0-1.3,0.6-1.7
			c0.5-0.3,1-0.5,1.5-0.6c0.5,0,0.9,0.3,1.1,0.7l0,0c0,0,0.1-0.1,0.1-0.1c0-0.2,0-0.5,0-0.7c0.3,0.3,0.7,0.4,1.2,0.5l-0.2-0.2
			c-0.2-0.2-0.3-0.5-0.2-0.8c0.1-0.2,0.2-0.4,0.4-0.5c0.2-0.1,0.4-0.1,0.6-0.1c0.3,0.1,0.5,0.3,0.6,0.6c-0.1-0.2,0,0,0,0.1
			c0,0,0.1,0.1,0.1,0.2c0,0.1,0.1,0.2,0.2,0.3l0.1,0.1c0.3-0.2,0.5-0.5,0.6-0.8l0.1,0.1c0.3,0.1,0.6,0.2,0.9,0.2
			c0.3-0.4,0.7-0.6,1.2-0.6h0.2l-0.1-0.2c-0.3-0.6-0.2-1.3,0.4-1.7c0.5-0.4,1.3-0.4,1.8,0.1l0.5,0.5c0.2,0.2,0.4,0.5,0.6,0.8
			c0.2,0.3,0.2,0.7,0.1,1.1c-0.1,0.2-0.2,0.4-0.4,0.6c0,0-0.1,0.1-0.1,0.1c0.1,0.2,0.2,0.5,0.1,0.7c-0.1,0.5-0.4,0.8-0.8,1
			c-0.5,0.3-1.1,0.3-1.7,0.2l0.2,0.1c0.2,0.3,0.2,0.7,0.1,1l0.1,0.1c0.3,0.1,0.6,0.2,0.9,0.3c0.3,0.1,0.4,0.4,0.5,0.7
			c0.2,0.3,0.6,0.5,1,0.4c0,0,0,0,0-0.1c0.1-0.5,0.6-1,1.1-1.1l0.2-0.1l0.2-0.1l0.2-0.1c0-0.1,0.1-0.3,0.1-0.4
			c0.1,0.1,0.1,0.2,0.2,0.2l0.2,0.1l0,0c0.1,0.1,0.2,0.1,0.4,0.2c0.1,0,0.2,0.1,0.3,0.1c0.2,0,0.3,0,0.5-0.1
			c0.5-0.1,0.7-0.6,0.6-1.1c0,0,0-0.1,0-0.1c0,0,0-0.1-0.1-0.1c-0.1-0.1-0.1-0.2-0.2-0.3c-0.1-0.1-0.3-0.2-0.4-0.3l-0.1,0
			c-0.1-0.1-0.3-0.1-0.5-0.1c-0.2-0.1-0.5,0-0.7,0.1c0,0-0.1,0.1-0.1,0.1c0,0,0-0.1,0-0.1c0.6-0.1,1.1-0.7,1.2-1.3
			c0.1,0,0.2,0.1,0.4,0.1l0,0c0.2-0.2,0.5-0.3,0.9-0.4h0.2c0.1-0.1,0.3-0.3,0.3-0.5l0.2,0.1c-0.2-0.6,0.1-1.2,0.6-1.5
			c0.4-0.2,0.9-0.4,1.3-0.3c0.3,0,0.6,0.1,0.8,0.3c0.1,0,0.1,0.1,0.2,0.2c0.1,0.1,0.2,0.1,0.2,0.2c0.1,0.1,0.1,0.2,0.2,0.3
			c-0.2-0.1-0.4,0-0.6,0.1l-0.1,0.1l-0.1,0l-0.4,0.2c-0.4,0.1-0.7,0.5-0.7,1c0,0.2,0,0.3,0.1,0.4l0,0c0.1,0.1,0.1,0.2,0.2,0.3
			c0.1,0.1,0.1,0.1,0.2,0.2c0.2,0.1,0.5,0.2,0.8,0.1c0.2-0.1,0.5-0.2,0.7-0.3l0,0l0,0c0.2-0.1,0.4-0.2,0.6-0.4
			c0.2-0.2,0.3-0.5,0.3-0.8c0.3-0.1,0.6-0.2,0.8-0.4c0.1,0.6,0.3,1.2,0.7,1.6c0.1,0,0.2-0.1,0.3-0.1c0.4-0.1,0.9,0,1.3,0.1
			c0.3,0.1,0.6,0.3,0.7,0.5c0.2-0.1,0.4-0.2,0.6-0.3c-0.2-0.3-0.3-0.6-0.2-1l0.2-0.1l0,0c0.3-0.1,0.6-0.4,0.7-0.7
			c0.1-0.3,0-0.5-0.1-0.8c0.1-0.1,0.1-0.2,0.3-0.4c-0.1-0.1-0.2-0.1-0.3-0.2c-0.2-0.2-0.3-0.5-0.4-0.8c0-0.2,0-0.4,0-0.5
			c0-0.1-0.1-0.1-0.1-0.2c-0.2-0.2-0.3-0.4-0.5-0.6c-0.1,0.4-0.3,0.8-0.6,1c0.2,0.1,0.4,0.3,0.6,0.4c0.2,0.2,0.3,0.4,0.3,0.6
			c-0.4-0.1-0.7,0-1.1,0.1c-0.2,0.1-0.3,0.1-0.5,0.2c-0.3,0.2-0.5,0.4-0.6,0.7c0,0,0,0.1,0,0.1l-0.7,0c-0.5,0-1-0.4-1.2-0.9
			c-0.3-0.2-0.5-0.6-0.5-1c0-0.7,0.5-1.2,1.2-1.2h0.4c0-0.2-0.1-0.3-0.1-0.5v-0.1c0-0.2-0.1-0.5-0.1-0.7c0-0.5,0.3-1,0.8-1.2
			c0.2-0.1,0.5-0.1,0.8-0.1c0,0,0-0.1-0.1-0.1l0,0c-0.2,0-0.3,0.1-0.5,0.1c-0.2,0-0.3,0-0.5,0.1c-0.1-0.4-0.3-0.8-0.6-1.1
			c0,0.3,0,0.5,0,0.8c-0.1,0.5-0.6,0.9-1.2,0.9c-0.3,0-0.6-0.1-0.9-0.2c0,0.3-0.1,0.5-0.2,0.8c0,0.1-0.1,0.3-0.1,0.4
			c-0.1,0.3-0.4,0.5-0.7,0.6c-0.3,0.1-0.6,0.2-1,0.1c-0.7-0.3-1.4-0.7-1.8-1.4c-0.2-0.3-0.2-0.6-0.2-0.9c-0.6,0.2-1.2,0.1-1.7-0.3
			c-0.2-0.2-0.4-0.4-0.6-0.6c0,0,0,0.1-0.1,0.1c-0.2,0.3-0.5,0.5-0.8,0.6c-0.6,0.3-1.2,0.3-1.9,0.2c-0.2-0.1-0.4-0.1-0.6-0.2l0,0.1
			c0.3,0.5,0.2,1.2-0.2,1.6c-0.1,0.1-0.3,0.3-0.5,0.3c0,0.3-0.1,0.5-0.3,0.7l-0.2,0.2c-0.1,0.1-0.1,0.2-0.2,0.3
			c-0.1,0.2-0.3,0.3-0.4,0.4c-0.1,0-0.2,0.1-0.3,0.1c-0.1,0.1-0.3,0.1-0.4,0.1c-0.2,0-0.4-0.1-0.6-0.2c-0.1-0.1-0.2-0.1-0.3-0.2
			c-0.7,0.1-1.4,0-2-0.2l-0.2-0.1c-0.1,0.4-0.4,0.6-0.7,0.8c-0.6,0.3-1.3,0-1.7-0.6c0,0-0.1-0.1-0.1-0.2l-0.1-0.1
			c-0.1-0.1-0.1-0.2-0.2-0.2l-0.1-0.2v0l-0.1-0.1l-0.1-0.1c-0.1-0.1-0.2-0.2-0.3-0.3l0,0.1l-0.1,0.1c0-0.2,0-0.3-0.1-0.5
			c-0.1-0.2-0.3-0.4-0.6-0.5c-0.2-0.1-0.4-0.1-0.5,0c-0.1,0-0.3,0-0.4,0.1c-0.2,0-0.3,0.1-0.4,0.2c-0.1,0.1-0.2,0.2-0.3,0.3
			c-0.1-0.1-0.1-0.1-0.2-0.2c-0.1-0.1-0.1-0.3-0.2-0.4c-0.1-0.2-0.1-0.4,0-0.6l-0.1,0l-0.2-0.1c0,0.2-0.1,0.4-0.2,0.6
			c-0.1,0.1-0.2,0.2-0.3,0.3c-0.6,0.6-1.5,0.7-2.3,0.3c-0.3-0.2-0.7-0.4-0.9-0.6c0.1,0.5-0.2,1.1-0.7,1.3c-0.4,0.3-1,0.3-1.4,0
			c-0.2-0.1-0.5-0.3-0.7-0.5c0,0.1-0.1,0.2-0.1,0.2l-0.1,0.2l0.1,0.1c0.2,0.2,0.3,0.5,0.3,0.8c0.4,0,0.7,0.2,1,0.4
			c0.4,0.4,0.4,1,0.2,1.5c-0.2,0.3-0.5,0.6-0.8,0.7l-0.1,0l-0.1,0.1c-0.1-0.3-0.4-0.6-0.7-0.7c-0.3-0.1-0.7-0.2-1.1-0.2
			c-0.4,0-0.9,0.1-1.3,0.4c-0.1,0.1-0.2,0.2-0.3,0.2c-0.1-0.2-0.2-0.3-0.2-0.5c-0.1-0.5,0.2-1.1,0.7-1.3l-0.2-0.1
			c-0.6-0.4-0.8-1.2-0.5-1.8c0.1-0.2,0.3-0.4,0.5-0.5c0,0,0,0,0-0.1c0-0.2,0-0.3,0-0.5l0.1-0.3l0.2-0.3c0.1-0.1,0.1-0.1,0.2-0.2
			c-0.5-0.5-1.1-0.8-1.7-1c0.1,0.4-0.1,0.8-0.5,0.9c0,0,0,0,0,0v0.1c0,0,0,0.1,0,0.1c0.1,0.3,0,0.6-0.1,0.9
			c-0.1,0.1-0.1,0.2-0.2,0.3c0-0.1,0-0.1,0-0.2c-0.2-0.5-0.7-0.9-1.3-0.7c-0.3,0.1-0.7,0.2-1,0.3l-0.4,0.2c0-0.1,0-0.1-0.1-0.2
			c-0.1-0.5,0-1,0.4-1.3l-0.1,0c-0.5-0.1-0.8-0.5-0.9-1l-0.1,0.1C112.4,184,112.3,184.4,112.1,184.6z M141,186.6
			c0-0.1,0.1-0.2,0.1-0.3c0.1-0.1,0.1-0.2,0.2-0.3c0.3-0.6,1.1-0.8,1.7-0.5c0.2,0.1,0.4,0.4,0.5,0.6c0.1,0,0.2,0.1,0.3,0.1
			c0.1,0.1,0.2,0.2,0.3,0.3h0.2c0.3,0.1,0.5,0.4,0.4,0.7c-0.1,0.2-0.3,0.4-0.5,0.4h0l-0.1,0.1c0,0.2,0,0.4,0,0.6
			c-0.2,0.7-0.7,1.1-1.4,1.1c-0.5,0-1-0.2-1.3-0.5c-0.1-0.1-0.2-0.2-0.3-0.3c0.2,0,0.5-0.1,0.6-0.3c0.3-0.4,0.3-1-0.1-1.3
			c0,0-0.1-0.1-0.1-0.1c-0.1-0.1-0.1-0.1-0.1,0c0.1,0.1,0,0.1-0.2-0.1c-0.1,0-0.1-0.1-0.2-0.1l-0.1,0
			C140.9,186.7,140.9,186.7,141,186.6L141,186.6z M125.4,188c0.4-0.3,0.9-0.3,1.3,0c0,0,0.1-0.1,0.1-0.1c0.2-0.2,0.4-0.3,0.6-0.4
			c0,0.3,0.1,0.6,0.3,0.8c0.1,0.1,0.2,0.2,0.3,0.2c0.2,0.1,0.5,0.1,0.7,0c0.2,0,0.3-0.1,0.5-0.2l0,0l0,0.1c0.1,0.2,0.3,0.3,0.4,0.5
			c0.1,0.3,0.2,0.5,0.2,0.8c0,0.4-0.2,0.7-0.5,1c0,0.2-0.1,0.4-0.2,0.5c-0.7,0.6-1.8,0.4-2.6,0.3c-0.4,0-0.8-0.2-1-0.5
			c-0.2-0.3-0.3-0.6-0.2-0.9c0-0.2,0.1-0.4,0.3-0.6l-0.1-0.1C125,188.9,125,188.4,125.4,188z"/>
		<path id="_Compound_Path_6" class="st19" d="M89,187.3c0.2-0.1,0.5-0.1,0.7,0c0.6,0.2,1.1,0.5,1.6,1c0.1,0.2,0.1,0.3,0.2,0.5
			c0.1,0.3,0,0.7-0.3,0.9c-0.3,0.2-0.7,0.4-1.1,0.3c-0.3,0-0.6-0.1-0.9-0.2c-0.7-0.2-1-0.9-0.9-1.5c-0.3,0.1-0.5,0.1-0.8,0
			c-0.1,0-0.2,0-0.3-0.1c0.2,0.3,0.2,0.7,0.1,1.1c-0.1,0.4-0.3,0.6-0.7,0.8c-0.2,0.7-0.1,1.5,0.3,2.2c0.1,0.1,0.2,0.2,0.3,0.4
			c0,0,0-0.1,0-0.1c0.2-0.4,0.5-0.6,0.9-0.6h0.1c0.6-0.1,1.2,0,1.7,0.3c0.2,0.1,0.4,0.2,0.6,0.3c0.1,0.1,0.2,0.1,0.3,0.2
			c0.3,0.2,0.5,0.4,0.6,0.8c0.3-0.1,0.7-0.3,0.9-0.5c0.4-0.3,0.7-0.6,1-1c-0.5,0-1-0.5-1-1c0-0.1,0-0.2,0-0.3c0.2-0.4,0.4-0.7,0.8-1
			c0.2-0.2,0.5-0.3,0.7-0.4c0.3-0.1,0.5-0.2,0.8-0.3c0.2-0.1,0.3-0.1,0.5-0.1c0.2,0,0.4,0.1,0.6,0.2c0.1,0,0.2,0.1,0.2,0.2
			c0-0.2,0.1-0.5,0.2-0.7l0.2-0.3c0.2-0.2,0.5-0.3,0.8-0.4c0.3,0,0.6,0,0.9,0.2c0.2,0.1,0.4,0.4,0.5,0.6l0,0l0-0.1
			c0,0.1,0.1,0.1,0.1,0.2l0.1,0.1c0.6,0.4,0.8,1.1,0.6,1.8c-0.1,0.3-0.3,0.5-0.6,0.7c-0.3,0.2-0.7,0.2-1.1,0.1
			c-0.4-0.2-0.8-0.4-1.1-0.7c-0.2-0.2-0.4-0.5-0.5-0.8c0,0.1-0.1,0.3-0.2,0.4c-0.1,0.1-0.3,0.2-0.4,0.3l-0.3,0.2l-0.1,0l-0.1,0.1
			l0,0c0.3,0.4,0.7,0.7,1.1,0.9c0.6,0.3,1.3,0.4,1.9,0.2c0.2,0.8,0.8,1.4,1.6,1.7c0.9,0.3,1.9-0.1,2.4-1c-0.8-0.5-1.4-1.2-1.7-2
			c-0.2-0.6,0.2-1.3,0.8-1.6c0.3-0.1,0.6-0.1,0.9-0.1c0.2,0,0.3,0.1,0.4,0.2c0-0.1,0-0.2,0-0.3c0.5-0.1,1-0.2,1.4-0.3
			c1.1-0.2,2.8-0.8,3-2c0.4,0,0.7,0,1.1-0.1c-0.3-0.3-0.4-0.7-0.4-1.1c0-0.8,0.6-1.4,1.4-1.4c0,0,0-0.1,0-0.1c0-0.1,0-0.2,0-0.3
			c-0.6,0.3-1.2,0.7-1.7,1.2c-0.4,0.4-1,0.8-1.6,0.9c-0.7,0.1-1.3-0.6-2-0.9c-0.3-0.2-0.7-0.2-1-0.3c0,0.4-0.4,0.8-0.9,0.8
			c-0.2,0-0.5-0.1-0.6-0.3c0,0.1-0.1,0.1-0.2,0.2c-0.2,0.2-0.3,0.3-0.6,0.4c-0.2,0.1-0.3,0.1-0.5,0.1c0.2,0.6-0.1,1.2-0.6,1.5
			c-1.2,0.7-2.6-0.1-3.1-1.2c-0.2-0.3-0.2-0.7-0.1-1.1c-0.2,0.2-0.4,0.3-0.6,0.5l0.1,0.1l0.4,0.4c0.1,0.1,0.2,0.2,0.3,0.4
			c0.1,0.2,0.1,0.4,0.1,0.6c0,0.3-0.2,0.6-0.6,0.7c-0.2,0.1-0.5,0.1-0.7,0c-0.1,0-0.2-0.1-0.3-0.2l-0.5-0.3
			c-0.4-0.2-0.6-0.7-0.5-1.1c0,0-0.1,0-0.1,0l-0.1,0c-0.3-0.1-0.6-0.2-0.8-0.4l-0.2-0.1l-0.2-0.2l0,0.1c0.1,0.1,0.2,0.2,0.2,0.3
			c0.1,0.2,0.2,0.5,0.1,0.8c0,0.1-0.1,0.2-0.2,0.3c-0.1,0.1-0.1,0.2-0.2,0.3c-0.2,0.2-0.6,0.4-0.9,0.4c-0.3,0-0.6-0.1-0.8-0.2
			c-0.3-0.1-0.4-0.4-0.5-0.7c0-0.2,0-0.4,0-0.6c0-0.1,0.1-0.2,0.2-0.3c-0.1-0.1-0.1-0.2-0.2-0.3c-0.3,0.3-0.6,0.7-0.8,1.1l-0.2,0.1
			c0.1,0.2,0.1,0.3,0.1,0.5C89.1,187.2,89,187.2,89,187.3z M101.9,185.7c0.1-0.2,0.3-0.3,0.5-0.4h-0.1h0.1l0.2-0.1l-0.2,0.1
			c0.2-0.1,0.3-0.1,0.5-0.1c0.2,0,0.4,0.1,0.6,0.2c0.1,0.1,0.2,0.1,0.3,0.1c0.2,0.1,0.4,0.3,0.5,0.6c0.3,0.4,0.2,1-0.2,1.3
			c0,0,0,0,0,0c-0.2,0.2-0.3,0.3-0.5,0.3c-0.3,0.1-0.7,0-0.9-0.1c-0.3-0.1-0.5-0.3-0.7-0.6C101.7,186.6,101.7,186.1,101.9,185.7z
			 M101.2,188.2c-0.1-0.1-0.2-0.1-0.2-0.2C101,188,101.1,188.1,101.2,188.2L101.2,188.2z M93.3,186.9c0.5,0,0.9,0.4,0.9,0.9
			s-0.4,0.9-0.9,0.9s-0.9-0.4-0.9-0.9c0,0,0,0,0,0C92.5,187.3,92.9,186.9,93.3,186.9z"/>
		<path id="_Path_31" class="st19" d="M126.5,184.5c0-0.2,0.1-0.4,0.2-0.6c-0.4,0-0.8,0.1-1.1,0.2l0.3,0.1
			C126,184.2,126.3,184.3,126.5,184.5z"/>
		<path id="_Path_32" class="st19" d="M135.6,185.6L135.6,185.6h-0.2H135.6z"/>
		<path id="_Path_33" class="st19" d="M134.8,185.3l-0.2,0.1l0.3,0.1h0.1c0.2,0,0.4,0.1,0.6,0.1l0,0l-0.1,0h0.1l-0.1-0.1
			c-0.1-0.2-0.2-0.4-0.2-0.6l-0.1,0.1C135.2,185.1,135,185.3,134.8,185.3z"/>
		<path id="_Path_34" class="st19" d="M132.7,184.9c-0.1-0.1-0.1-0.2-0.2-0.4c-0.5,0.2-0.9,0.4-1.3,0.8c0.2,0,0.3,0,0.5,0.1
			C131.9,185.1,132.3,184.9,132.7,184.9z"/>
		<path id="_Path_35" class="st19" d="M145.1,184.4c0.5-0.4,1.3-0.4,1.8,0c0.1,0,0.2,0,0.3,0l-0.1-0.1c-0.2-0.4-0.2-0.9,0-1.3
			c-0.8,0.2-1.5,0.7-2.1,1.3C145,184.4,145,184.4,145.1,184.4L145.1,184.4z"/>
		<path id="_Path_36" class="st19" d="M135.7,185.6L135.7,185.6z"/>
		<path id="_Path_37" class="st19" d="M135.7,185.6L135.7,185.6L135.7,185.6z"/>
		<path id="_Path_38" class="st18" d="M86.2,186.9c0,0.2,0,0.4,0.1,0.5l0.1,0c0.2,0.1,0.3,0.2,0.5,0.4c0.1,0.1,0.2,0.2,0.2,0.3
			c0.1,0,0.2,0,0.3,0.1c0.3,0.1,0.5,0.1,0.8,0c-0.2,0.7,0.2,1.3,0.9,1.5c0.3,0.1,0.6,0.2,0.9,0.2c0.4,0.1,0.8,0,1.1-0.3
			c0.3-0.2,0.4-0.5,0.3-0.9c0-0.2-0.1-0.3-0.2-0.5c-0.4-0.5-0.9-0.8-1.6-1c-0.2-0.1-0.5-0.1-0.7,0c0-0.1,0-0.2,0-0.2
			c0-0.2-0.1-0.4-0.1-0.5c-0.1-0.2-0.3-0.4-0.5-0.5l0,0c-0.2-0.2-0.4-0.3-0.6-0.3c-0.2,0-0.4,0-0.6,0c-0.2,0-0.5,0.1-0.6,0.3
			C86.3,186.2,86.2,186.6,86.2,186.9z"/>
		<path id="_Path_39" class="st18" d="M91.5,186.2c-0.2,0.1-0.4,0.1-0.6,0c-0.2-0.1-0.4-0.2-0.5-0.3c-0.1-0.1-0.1-0.1-0.2-0.2
			c-0.1,0.1-0.1,0.2-0.2,0.3c0,0.2,0,0.4,0,0.6c0.1,0.3,0.3,0.5,0.5,0.7c0.3,0.1,0.6,0.2,0.8,0.2c0.3,0,0.7-0.1,0.9-0.4
			c0.1-0.1,0.2-0.2,0.2-0.3c0.1-0.1,0.1-0.2,0.2-0.3c0.1-0.3,0-0.5-0.1-0.8c-0.1-0.1-0.1-0.2-0.2-0.3c-0.1,0.2-0.1,0.3-0.3,0.4
			C91.8,186.1,91.6,186.2,91.5,186.2z"/>
		<path id="_Path_40" class="st18" d="M92.3,184.8c0.1,0.2,0.1,0.4,0,0.6l0,0l0.2,0.2l0.2,0.1c0.2,0.2,0.5,0.3,0.8,0.4l0.1,0
			c0,0,0.1,0,0.1,0c-0.1,0.4,0.1,0.9,0.5,1.1l0.5,0.3c0.1,0.1,0.2,0.1,0.3,0.2c0.2,0.1,0.5,0.1,0.7,0c0.3-0.1,0.5-0.4,0.6-0.7
			c0-0.2,0-0.4-0.1-0.6c-0.1-0.1-0.2-0.2-0.3-0.4l-0.4-0.4l-0.1-0.1c-0.1-0.1-0.2-0.2-0.4-0.2c0-0.1,0-0.1,0.1-0.2
			c0-0.3,0-0.5-0.1-0.8c0-0.1-0.1-0.1-0.1-0.2c-0.1-0.2-0.3-0.4-0.5-0.6l-0.2-0.1l-0.4-0.3c-0.6-0.3-1.3-0.2-1.7,0.3
			c-0.1,0.1-0.2,0.3-0.2,0.5l0.2,0.2C92.1,184.4,92.2,184.6,92.3,184.8z"/>
		<path id="_Path_41" class="st18" d="M93.3,188.6c0.5,0,0.9-0.4,0.9-0.9s-0.4-0.9-0.9-0.9s-0.9,0.4-0.9,0.9c0,0,0,0,0,0
			C92.5,188.2,92.9,188.6,93.3,188.6z"/>
		<path id="_Path_42" class="st18" d="M96,186.1c0.6,1.1,2,1.9,3.1,1.2c0.5-0.3,0.7-0.9,0.6-1.5c0.2,0,0.4,0,0.5-0.1
			c0.2-0.1,0.4-0.2,0.6-0.4c0.1,0,0.1-0.1,0.2-0.2c0.2,0.2,0.4,0.3,0.6,0.3c0.4,0,0.8-0.3,0.9-0.8c0,0,0-0.1,0-0.1
			c0-0.5-0.4-0.8-0.9-0.9c-0.2,0-0.4,0.1-0.6,0.2c-0.2-0.5-0.7-0.8-1.2-0.9c-0.4-0.1-0.8-0.1-1.3-0.1c-0.7,0-1.2,0.5-1.3,1.2
			c0.2,0,0.5,0,0.7,0.1c0.2,0.1,0.3,0.2,0.4,0.4c0.2,0.2,0.2,0.5,0,0.8c-0.1,0.3-0.3,0.5-0.6,0.6l-0.1,0l-0.2,0.1
			c-0.1,0-0.2,0.1-0.3,0.1h-0.1l0,0c-0.5,0.1-1-0.2-1.1-0.6c0-0.1,0-0.1,0-0.2c0,0.4,0-0.1,0-0.1c0-0.2,0.1-0.3,0.1-0.5
			c0.1-0.1,0.2-0.2,0.3-0.3c0.1-0.1,0.2-0.1,0.3-0.2c-0.1,0-0.2,0.1-0.2,0.2c-0.2,0.2-0.4,0.4-0.4,0.6
			C95.8,185.4,95.9,185.8,96,186.1z"/>
		<path id="_Path_43" class="st18" d="M96.1,189.8c0,0,0,0.1-0.1,0.1c0.1,0.3,0.3,0.5,0.5,0.8c0.3,0.3,0.7,0.6,1.1,0.7
			c0.4,0.1,0.8,0.1,1.1-0.1c0.3-0.2,0.5-0.4,0.6-0.7c0.3-0.7,0-1.4-0.6-1.8l-0.1-0.1c0-0.1-0.1-0.1-0.1-0.2l0,0.1l0,0
			c-0.1-0.3-0.3-0.5-0.5-0.6c-0.3-0.1-0.6-0.2-0.9-0.2c-0.3,0-0.6,0.2-0.8,0.4l-0.2,0.3c-0.1,0.2-0.2,0.4-0.2,0.7
			C96.1,189.3,96.1,189.5,96.1,189.8z"/>
		<path id="_Compound_Path_7" class="st18" d="M108.7,184c0.1,0,0.3,0,0.4,0.1c0.4,0.2,0.8,0.4,1,0.8l-0.1-0.2
			c0.2,0.2,0.3,0.4,0.4,0.6c0.2,0,0.3-0.1,0.5-0.1c0.3,0,0.6-0.2,0.9-0.4c0.1-0.1,0.1-0.1,0.2-0.2c0.2-0.3,0.3-0.6,0.3-1
			c0-0.2-0.1-0.4-0.3-0.5c-0.1-0.1-0.1-0.1-0.2-0.2c-0.3-0.2-0.6-0.4-0.9-0.4c-0.2,0-0.4-0.1-0.6-0.1c-0.2,0-0.4,0-0.6,0.1
			c-0.5,0.1-0.8,0.5-1,1C108.8,183.7,108.8,183.8,108.7,184C108.8,183.9,108.7,184,108.7,184z M111.7,184.9
			C111.5,185,111.5,185,111.7,184.9L111.7,184.9z M111.7,182.9L111.7,182.9C111.5,182.8,111.5,182.8,111.7,182.9z"/>
		<path id="_Path_44" class="st18" d="M113.4,184.6l0.1,0c0.1-0.1,0.1-0.1,0.2-0.2c0.2-0.1,0.5-0.2,0.7-0.3c0.3,0,0.5,0,0.8,0
			c0.3,0.1,0.6,0.3,0.7,0.5c0.1,0.1,0.2,0.3,0.2,0.4c0.4-0.1,0.6-0.5,0.6-1c0-0.1,0-0.2-0.1-0.3c-0.1-0.3-0.4-0.5-0.6-0.7
			c-0.2-0.1-0.4-0.2-0.5-0.4l-1.1-0.7c-0.6-0.4-1.4-0.2-1.8,0.5c0,0.1-0.1,0.1-0.1,0.2c-0.1,0.3-0.1,0.5-0.1,0.8
			C112.6,184.1,112.9,184.4,113.4,184.6z"/>
		<path id="_Path_45" class="st18" d="M118.2,185.5l-0.2,0.3l-0.1,0.3c0,0.2,0,0.3,0,0.5c0,0,0,0,0,0.1c-0.2,0.1-0.4,0.3-0.5,0.5
			c-0.4,0.6-0.1,1.4,0.5,1.8l0.2,0.1c0.1-0.1,0.2-0.1,0.3-0.1c0.6-0.3,1.3-0.5,2.1-0.5h0.4c0-0.3-0.1-0.6-0.3-0.9l-0.1-0.1l0.1-0.2
			c0-0.1,0.1-0.2,0.1-0.2c0.2,0.2,0.4,0.4,0.7,0.5c0.4,0.3,1,0.3,1.4,0c0.5-0.3,0.7-0.8,0.7-1.3c0.3,0.3,0.6,0.5,0.9,0.6
			c0.7,0.4,1.7,0.3,2.3-0.3c0.1-0.1,0.2-0.2,0.3-0.3c0.1-0.2,0.2-0.4,0.2-0.6l0.1,0.1l0.1,0c0.2-0.7,0.9-1.2,1.6-1c0,0,0,0,0,0
			c0.2,0,0.3,0.1,0.4,0.2c0.1,0.1,0.2,0.2,0.3,0.3c0.1,0.1,0.2,0.2,0.3,0.3c0,0.1,0.1,0.1,0.1,0.2l0.1,0.2c0.3,0.5,0.2,1-0.2,1.4
			c0.1,0.1,0.2,0.2,0.3,0.3l0.1,0.1l0.1,0.1v0l0.1,0.2c0.1,0.1,0.1,0.2,0.2,0.2l0.1,0.1c0,0.1,0.1,0.1,0.1,0.2
			c0.3,0.6,1.1,0.8,1.7,0.6c0.3-0.1,0.6-0.4,0.7-0.8l0.2,0.1c0.6,0.2,1.3,0.3,2,0.2c-0.1-0.1-0.1-0.2-0.2-0.3c0-0.1-0.1-0.2-0.1-0.3
			c-0.1-0.5,0.1-1.1,0.5-1.5c0.2-0.2,0.5-0.3,0.7-0.5c0.3-0.1,0.6-0.2,0.9-0.1c0.3,0.1,0.5,0.2,0.6,0.4c0.2,0.2,0.3,0.6,0.2,0.9
			c0.2-0.1,0.4-0.2,0.5-0.3c0.4-0.4,0.5-1.1,0.2-1.6l0-0.1c0.2,0.1,0.4,0.2,0.6,0.2c0.6,0.2,1.3,0.1,1.9-0.2
			c0.3-0.1,0.6-0.3,0.8-0.6c0,0,0-0.1,0.1-0.1c0.2,0.2,0.4,0.4,0.6,0.6c0.5,0.4,1.1,0.5,1.7,0.3c-0.1,0.3,0,0.7,0.2,0.9
			c0.4,0.6,1,1.1,1.8,1.4c0.3,0.1,0.7,0.1,1-0.1c0.3-0.1,0.5-0.3,0.7-0.6c0.1-0.1,0.1-0.3,0.1-0.4c0.1-0.3,0.2-0.5,0.2-0.8
			c0.3,0.2,0.6,0.2,0.9,0.2c0.6,0,1.1-0.4,1.2-0.9c0-0.3,0-0.5,0-0.8c0-0.1,0-0.1,0-0.2c-0.1-0.3-0.3-0.7-0.6-0.9
			c-0.1-0.1-0.2-0.3-0.4-0.4h0l-0.4-0.3c-0.5-0.5-1.2-0.5-1.8-0.1c-0.2,0.1-0.3,0.3-0.4,0.5c-0.2,0.4-0.2,0.9,0,1.3l0.1,0.1
			c-0.1,0-0.2,0-0.3,0c-0.5-0.4-1.3-0.4-1.8,0l-0.1,0.1c0-0.1,0-0.1,0-0.2c0-0.3-0.2-0.7-0.4-0.9c-0.3-0.4-0.7-0.8-1.1-1.2
			c-0.5-0.5-1.4-0.5-1.9,0c-0.1,0.2-0.3,0.3-0.3,0.6c-0.1,0-0.2,0-0.3-0.1h-0.1c-0.1,0-0.1,0-0.2,0c-0.2-0.1-0.4-0.1-0.7-0.1h0.2
			c-0.1,0-0.3-0.1-0.4-0.1h0l-0.1,0c-0.6-0.3-1.4-0.2-1.8,0.4c-0.2,0.3-0.3,0.7-0.3,1c-0.5-0.3-1.1-0.3-1.6,0
			c-0.1,0-0.1,0.1-0.2,0.2c0.1,0.3,0,0.6-0.3,0.9l-0.1,0.1c0,0.2,0.1,0.4,0.2,0.6l0.1,0.1h-0.1l0.1,0l0,0l0,0h-0.2h0.2
			c-0.2-0.1-0.4-0.1-0.6-0.1H135l-0.3-0.1c-0.2,0-0.4,0.1-0.5,0.1c-0.4,0-0.8-0.1-1.1-0.3c-0.1-0.1-0.2-0.2-0.3-0.3
			c-0.4,0-0.8,0.2-1,0.5c-0.2-0.1-0.3-0.1-0.5-0.1c-0.2,0-0.4,0-0.6,0.1l-0.1-0.2c-0.1-0.3-0.2-0.6-0.4-0.8
			c-0.2-0.2-0.4-0.4-0.6-0.5l-0.9-0.6c-0.3-0.2-0.7-0.2-1.1-0.1c-0.4,0.1-0.7,0.3-0.9,0.6v0.1c-0.1,0.2-0.2,0.4-0.2,0.6
			c-0.2-0.1-0.4-0.3-0.6-0.3l-0.3-0.1l-0.2,0h0.1c-0.1,0-0.3,0-0.4-0.1c0.1,0.1,0.1,0.2,0.2,0.4c0.1,0.3,0.1,0.5-0.1,0.8
			c-0.2,0.6-0.8,0.9-1.4,0.7l-0.2,0c-0.2-0.1-0.5-0.2-0.6-0.3l-0.2-0.3c-0.1-0.1-0.2-0.2-0.3-0.4l0,0l-0.6-0.5l-0.1-0.1
			c-0.3-0.3-0.6-0.4-1-0.4c-0.4,0-0.7,0.2-1,0.4c-0.1,0.2-0.3,0.4-0.3,0.6c0,0.1-0.1,0.2-0.1,0.3c-0.1,0-0.2,0-0.3,0
			c-0.1,0-0.1,0-0.2,0c-0.1,0-0.1,0-0.2,0.1c-0.1,0-0.1,0-0.2,0.1C118.4,185.3,118.3,185.4,118.2,185.5z"/>
		<path id="_Path_46" class="st18" d="M127.9,189c0.4,0.4,0.4,1,0,1.4c-0.4,0.4-1,0.4-1.4,0c-0.3-0.3-0.6-0.7-0.9-1
			c-0.1,0.2-0.2,0.4-0.3,0.6c-0.1,0.3,0,0.7,0.2,0.9c0.2,0.3,0.6,0.5,1,0.5c0.8,0.1,1.9,0.4,2.6-0.3c0.1-0.1,0.2-0.3,0.2-0.5
			c0.3-0.2,0.5-0.6,0.5-1c0-0.3-0.1-0.6-0.2-0.8c-0.1-0.2-0.2-0.3-0.4-0.5l0-0.1l0,0c-0.1,0.1-0.3,0.2-0.5,0.2
			c-0.2,0.1-0.5,0.1-0.7,0c-0.1-0.1-0.2-0.1-0.3-0.2c-0.2-0.2-0.3-0.5-0.3-0.8c-0.2,0.1-0.5,0.2-0.6,0.4c0,0-0.1,0.1-0.1,0.1l0,0
			C127.1,188.4,127.5,188.7,127.9,189z"/>
		<path id="_Path_47" class="st18" d="M137.5,190.6c0.1-0.1,0.2-0.1,0.4-0.1c0.3-0.1,0.6,0.1,0.8,0.3c0.3,0.1,0.6,0.3,0.8,0.6
			c0.1,0.1,0.2,0.2,0.3,0.4c0,0,0.1-0.1,0.1-0.1c0.2-0.2,0.3-0.4,0.4-0.6c0.1-0.4,0-0.7-0.1-1.1c-0.1-0.3-0.3-0.6-0.6-0.8l-0.5-0.5
			c-0.5-0.5-1.2-0.5-1.8-0.1c-0.5,0.4-0.7,1.2-0.4,1.7l0.1,0.2L137.5,190.6z"/>
		<path id="_Path_48" class="st18" d="M141,186.8c0.2-0.2,0.5-0.4,0.8-0.5c0.2,0,0.3-0.1,0.5-0.1c0.4-0.1,0.8-0.1,1.3-0.1
			c-0.3-0.6-1-1-1.6-0.7c-0.3,0.1-0.5,0.3-0.6,0.5c-0.1,0.1-0.1,0.2-0.2,0.3c0,0.1-0.1,0.2-0.1,0.3l0,0c0,0,0,0.1-0.1,0.1L141,186.8
			z"/>
		<path id="_Path_49" class="st18" d="M142.8,188.4c-0.4,0.1-0.8,0.1-1.1,0.1c-0.1,0.2-0.4,0.3-0.6,0.3c0.1,0.1,0.2,0.2,0.3,0.3
			c0.4,0.3,0.9,0.5,1.3,0.5c0.7,0,1.2-0.4,1.4-1.1c0-0.2,0-0.4,0-0.6l0,0C143.7,188.1,143.3,188.3,142.8,188.4z"/>
		<path id="_Path_50" class="st18" d="M154,186.3c-0.1,0-0.2,0-0.2,0h-0.1c-0.1,0-0.1,0,0,0c-0.1,0-0.3,0-0.3-0.1
			c-0.2-0.1-0.4-0.2-0.6-0.3c-0.2-0.1-0.4-0.3-0.6-0.5c-0.3,0-0.5,0-0.8,0.1c-0.5,0.2-0.8,0.7-0.8,1.2c0,0.2,0,0.5,0.1,0.7v0.1
			c0,0.2,0,0.3,0.1,0.5h-0.4c-0.7,0-1.2,0.5-1.2,1.2c0,0.4,0.2,0.7,0.5,1c0-0.1-0.1-0.2-0.1-0.3c0-0.7,0.6-1.3,1.3-1.3l1.2,0.1
			c0.3,0,0.5,0,0.8,0.1l0.1,0c0.3-0.3,0.5-0.6,0.6-1c0.2,0.2,0.3,0.4,0.5,0.6c0,0,0.1,0.1,0.1,0.1c-0.1,0.2-0.1,0.4,0,0.5
			c0,0.3,0.1,0.6,0.4,0.8c0.1,0.1,0.2,0.1,0.3,0.2c0.2-0.2,0.4-0.3,0.6-0.4c0.5-0.1,1,0,1.4,0.3c0.1-0.1,0.2-0.2,0.3-0.4l0.1-0.2
			c0-0.1,0.1-0.2,0.1-0.3c0.1,0.1,0.2,0.1,0.3,0.2c0.4,0.3,1,0.2,1.4-0.1c0.2-0.2,0.4-0.4,0.5-0.7c0-0.1,0-0.2,0-0.3
			c0,0.1,0.1,0.1,0.1,0.2c0.2,0.3,0.4,0.4,0.7,0.5c0.1,0,0.3,0.1,0.4,0.1c0.1,0,0.1,0.1,0.2,0.1l0.2,0.1l0.2,0.1
			c0.1,0,0.1,0.1,0.2,0.1l0,0c0.4,0.4,1.1,0.4,1.6,0.1c0.3-0.2,0.5-0.6,0.5-1c0-0.2,0-0.4-0.1-0.6c-0.1,0.1-0.3,0.2-0.4,0.2
			c-0.3,0.1-0.6,0-0.8-0.1c-0.1-0.1-0.2-0.1-0.2-0.2l0.1,0.1c-0.1-0.1-0.2-0.1-0.3-0.2c-0.1-0.1-0.2-0.3-0.3-0.4
			c-0.1-0.1-0.1-0.2-0.1-0.3c0-0.1,0-0.2,0-0.4c0-0.2,0-0.2,0,0c0-0.1,0-0.2,0.1-0.3c-0.2,0-0.4-0.1-0.7-0.1c-0.7,0-1.3,0.6-1.3,1.3
			c0,0,0,0.1,0,0.1c-0.1-0.2-0.1-0.3-0.2-0.4c-0.2-0.2-0.3-0.5-0.5-0.7c-0.3-0.3-0.6-0.4-1-0.4c-0.4,0-0.7,0.1-1,0.4
			c-0.1,0.1-0.2,0.2-0.3,0.4c-0.2-0.4-0.4-0.7-0.6-1c-0.1-0.2-0.3-0.3-0.5-0.5C155.1,185.9,154.6,186.3,154,186.3z"/>
		<path id="_Path_51" class="st18" d="M107.8,198.6c0.2,0.1,0.4,0.2,0.6,0.3c0.6,0.3,1.3,0.1,1.7-0.4c0.2-0.3,0.2-0.7,0-1
			c-0.1-0.2-0.2-0.3-0.4-0.4c-0.2-0.2-0.3-0.2-0.5-0.4c0.2,0.2,0.2,0.1-0.1-0.1c-0.1,0-0.1-0.1-0.2-0.1c-0.1,0-0.2-0.1-0.3-0.1
			c-0.4-0.1-0.8,0-1.1,0.3c-0.3,0.3-0.4,0.7-0.3,1.1C107.4,198.1,107.6,198.3,107.8,198.6z"/>
		<path id="_Path_52" class="st18" d="M112.3,193.7c0,0.6-0.4,1.1-0.9,1.3l0,0l0,0c-0.1,0-0.2,0.1-0.3,0.1l0,0c-0.2,0-0.3,0-0.5,0.1
			h-0.2c-0.1,0.2-0.2,0.4-0.2,0.6c0,0.4,0.2,0.8,0.6,1c0.2,0.1,0.4,0.2,0.6,0.2c0.2,0,0.4-0.1,0.6-0.2l0.1-0.1
			c0.1-0.1,0.2-0.1,0.3-0.2c0.1,0.1,0.3,0.2,0.4,0.2c0.4,0.2,0.9,0.2,1.3,0c0.2-0.3,0.3-0.7,0.2-1.1c0-0.2-0.1-0.4-0.2-0.6
			c-0.1-0.2-0.3-0.4-0.4-0.5l-1.2-1.5c-0.2-0.3-0.6-0.4-0.9-0.3C112,192.8,112.3,193.3,112.3,193.7z"/>
		<path id="_Path_53" class="st18" d="M120.1,197.4c0-0.1,0-0.1-0.1-0.2c-0.3-0.1-0.7-0.3-1.1-0.4c-0.5-0.2-1.1,0.1-1.4,0.6
			c-0.4-0.2-0.8-0.4-1.2-0.5c-0.7-0.2-1.5,0.2-1.6,0.9c-0.1,0.3,0,0.7,0.1,1c0.2,0.3,0.5,0.5,0.8,0.6c0.5,0.2,1,0.3,1.5,0.3
			c0.4,0,0.9-0.2,1.1-0.6c0.1,0.1,0.3,0.1,0.5,0.1c0.6,0,1.3,0,1.9-0.1c0.5-0.1,0.7-0.6,0.6-1.1c-0.1,0-0.2,0-0.3-0.1
			C120.5,197.9,120.3,197.7,120.1,197.4z"/>
		<path id="_Compound_Path_8" class="st18" d="M131,201.5c0.2,0.1,0.5,0.1,0.8,0c0.2,0,0.4-0.1,0.6-0.2l0.1-0.1
			c0.6-0.1,1.1-0.5,1.5-1c0.2-0.4,0.2-0.9-0.2-1.2c-0.5-0.5-1.4-0.5-2-0.3c-0.1,0-0.4,0.1,0,0c-0.3,0-0.6,0.1-0.8,0.3
			c-0.3,0.2-0.6,0.5-0.8,0.9c-0.3,0.5-0.1,1.2,0.4,1.5C130.6,201.4,130.8,201.5,131,201.5z M132.4,201.2L132.4,201.2
			C132.7,201,132.7,201,132.4,201.2z"/>
		<path id="_Path_54" class="st18" d="M152.5,195.9c-0.4,0-0.8,0.1-1.2,0.3c-0.8,0.3-1.7,0.7-2,1.6c-0.1,0.5,0.1,1.1,0.6,1.4
			c0.1,0.1,0.2,0.1,0.4,0.2c0.2,0.1,0.5,0.1,0.7,0c0.1,0,0.3-0.1,0.4-0.1c0.4-0.1,0.7-0.3,1-0.4c0.2-0.1,0.4-0.3,0.6-0.4
			c0.1-0.1,0.3-0.2,0.4-0.3c0.1-0.1,0.2-0.2,0.3-0.3c0.2-0.3,0.2-0.8,0-1.1C153.4,196.2,153,196,152.5,195.9z"/>
		<path id="_Path_55" class="st17" d="M131.2,193.9L131.2,193.9c0.4,0.4,0.8,0.7,1.2,0.8c0,0.1,0.1,0.2,0.3,0.3
			c0.2,0,0.4,0.1,0.5,0.2c0.1,0,0.3,0,0.4,0c0.1,0.2,0.3,0.3,0.5,0.5c0.3,0.2,0.5,0.4,0.8,0.6c0.3,0.2,0.6,0.3,1,0.4
			c0.5,0.1,1.1-0.1,1.3-0.7c0-0.1,0-0.2,0-0.3c-0.5,0.2-1,0.3-1.5,0.2c-0.7,0-1.3-0.5-1.3-1.2c0-0.3,0.1-0.7,0.4-0.9
			c0.1-0.1,0.2-0.1,0.3-0.2l-0.1-0.1c-0.3-0.1-0.7-0.1-1,0.1c0-0.1-0.1-0.1-0.2-0.2c-0.1-0.1-0.1-0.1-0.2-0.2
			c-0.1-0.1-0.2-0.2-0.3-0.2c-0.1-0.1-0.5-0.2-0.3-0.1c0.2,0.1,0,0,0,0l-0.1-0.1l-0.1,0l-0.1,0c-0.4-0.4-0.9-0.4-1.4-0.1
			c-0.1,0-0.1,0.1-0.1,0.1l0,0l0.1,0.1C131.5,193.1,131.4,193.6,131.2,193.9z"/>
		<path id="_Path_56" class="st17" d="M133.1,192.6c0.3,0.2,0.5,0.3,0.8,0.3c0.3,0.1,0.5-0.1,0.6-0.4c0-0.2,0-0.3-0.1-0.4
			c-0.1-0.1-0.2-0.2-0.3-0.4l-0.1-0.1c-0.1-0.1-0.1-0.2-0.2-0.3c-0.1-0.1-0.1-0.1-0.1-0.2s-0.1-0.2,0-0.1c-0.1-0.3-0.3-0.5-0.6-0.6
			c-0.2-0.1-0.4,0-0.6,0.1c-0.2,0.1-0.3,0.3-0.4,0.5c-0.1,0.3,0,0.6,0.2,0.8l0.2,0.2C132.7,192.4,132.9,192.5,133.1,192.6z"/>
		<path id="_Path_57" class="st17" d="M134.9,192.6c0.2,0.3,0.4,0.5,0.8,0.6c0.7-0.2,1.4,0,1.9,0.5c0.6,0.1,1.2,0.1,1.7-0.2
			c0.4-0.2,0.7-0.5,0.8-1c0-0.3,0-0.5-0.1-0.7c-0.1-0.2-0.2-0.3-0.4-0.4c-0.2-0.3-0.5-0.5-0.9-0.6c-0.2-0.3-0.5-0.4-0.8-0.3
			c-0.1,0-0.2,0.1-0.4,0.1h-0.6c-0.5,0-0.9,0.2-1.2,0.6c-0.1,0.2-0.2,0.3-0.2,0.5c-0.3,0-0.6,0.2-0.6,0.5
			C134.9,192.4,134.9,192.5,134.9,192.6z"/>
		<path id="_Path_58" class="st17" d="M146.4,193.7c0.1,0.1,0.1,0.2,0.2,0.2c0.4,0.4,1.1,0.4,1.6,0.1c0.4-0.3,0.6-0.8,0.5-1.3
			c0-0.1-0.1-0.2-0.2-0.4l0,0v0.1c0,0,0,0,0-0.1c-0.2,0.1-0.4,0.2-0.7,0.3c-0.3,0.1-0.5,0-0.8-0.1v0
			C147.2,193.1,146.9,193.6,146.4,193.7z"/>
		<path id="_Compound_Path_9" class="st17" d="M150.5,192.8c-0.1,0.1-0.1,0.1-0.2,0.2c0,0,0,0,0,0s0-0.1,0,0h0l-0.2,0.1
			c-0.1,0.1-0.2,0.2-0.3,0.4c-0.2,0.3-0.1,0.7,0.2,0.9c0.3,0.2,0.6,0.2,0.9,0c0.1,0,0.2,0.1,0.3,0.1l0,0c0.1,0,0.1,0.1,0.2,0.1
			c0.2,0.1,0.4,0.1,0.6,0.2c0.1,0,0.2,0.1,0.4,0c-0.1-0.2-0.1-0.5,0-0.7c0.1-0.3,0.3-0.5,0.5-0.7c0.1-0.1,0.3-0.2,0.5-0.2l0,0
			c-0.2-0.2-0.4-0.4-0.7-0.5c-0.4-0.2-0.8-0.2-1.3-0.1c-0.1,0-0.2,0.1-0.3,0.1l0,0C150.8,192.6,150.6,192.7,150.5,192.8z
			 M150.5,194.2l0.2,0.2l0,0C150.6,194.3,150.6,194.2,150.5,194.2z"/>
		<path id="_Path_59" class="st17" d="M154.3,193.2l0.1,0.1l0.2,0.1c0.3,0.1,0.7,0.1,1-0.1c0.1-0.1,0.2-0.2,0.3-0.2
			c0.2,0.1,0.4,0.2,0.6,0.3c0.4,0.1,0.9,0,1.3-0.3l0.1,0.1c0.2,0.4,0.6,0.8,1,1.1c0-0.1,0-0.2,0.1-0.3c0.2-0.5,0.8-0.8,1.4-0.7
			c0.2,0.1,0.3,0.1,0.5,0.1h0.1h0.1c0.2,0,0.5,0,0.7,0.1c0.1,0,0.2,0.1,0.3,0.1l0,0c0,0,0-0.1,0-0.1c0.1-0.3,0-0.7-0.3-0.9
			c-0.2-0.2-0.4-0.4-0.7-0.5c-0.1,0-0.2,0-0.3,0c-0.2,0-0.3-0.1-0.5-0.1l-0.1-0.1l0,0l0,0c-0.1-0.1-0.2-0.3-0.4-0.4
			c-0.4-0.3-1-0.4-1.5-0.1c-0.1,0.1-0.2,0.1-0.3,0.2l0,0l0,0c0,0,0,0,0-0.1c-0.4-0.5-0.8-1-1.4-1.4l-0.1,0c-0.4-0.3-0.9-0.5-1.4-0.3
			c-0.2,0.1-0.5,0.2-0.6,0.4c-0.1,0.1-0.2,0.2-0.3,0.4c0.1,0.2,0.2,0.5,0.1,0.8c-0.1,0.3-0.4,0.6-0.7,0.7l0,0l-0.2,0.1
			c0,0.4,0.1,0.7,0.3,1c0,0.1,0.1,0.1,0.2,0.2C154.2,193.1,154.2,193.1,154.3,193.2z"/>
		<path id="_Path_60" class="st17" d="M103.8,192.9c0.5-0.1,0.8-0.5,0.9-1c0-0.1,0-0.2,0-0.3h-0.1h-0.2h-0.2l0,0l-0.2,0
			c-0.4-0.1-0.6-0.4-0.7-0.8c0-0.1,0-0.3,0-0.4l-0.3-0.2l-0.1,0c-0.1,0-0.1-0.1-0.2-0.2l0,0l0,0c-0.1-0.1-0.1-0.2-0.2-0.3
			c-0.1-0.2-0.2-0.3-0.4-0.4c-0.1-0.1-0.3-0.2-0.4-0.2c-0.3-0.1-0.6,0-0.9,0.1c-0.6,0.3-0.9,0.9-0.8,1.6c0.3,0.9,0.9,1.6,1.7,2
			C102.5,193.1,103.2,193.1,103.8,192.9z"/>
		<path id="_Path_61" class="st17" d="M96,193.8c0-0.2-0.1-0.5-0.2-0.7s-0.1-0.5-0.1-0.7c-0.1-0.3-0.3-0.6-0.6-0.7
			c-0.6-0.3-1.4-0.1-1.7,0.5c-0.1,0.2-0.1,0.3-0.1,0.5l-0.1,0.4c0,0,0,0.1,0,0.1c0,0,0,0,0,0l0,0.1c0,0.1-0.1,0.3-0.1,0.4
			c-0.1,0.2-0.1,0.4,0,0.6l0.1,0.3c0.1,0.2,0.2,0.3,0.3,0.4c0.4,0.4,0.9,0.5,1.4,0.3c0.6-0.2,1.1-0.7,1.1-1.4l0,0
			C96,193.9,96,193.8,96,193.8z"/>
		<path id="_Path_62" class="st17" d="M103.4,195.5c0.1,0,0.2,0,0.2,0h0.1c0.1,0,0.2-0.1,0.3-0.1c0.4-0.2,0.6-0.7,0.5-1.2
			c0-0.2-0.1-0.3-0.2-0.4c-0.1-0.1-0.1-0.1-0.2-0.2l0-0.1c-0.1-0.1-0.2-0.2-0.4-0.2c-0.1,0-0.2-0.1-0.3-0.1c-0.4-0.1-0.8-0.1-1.3,0
			c-0.3,0.1-0.6,0.3-0.7,0.6c-0.1,0.3-0.2,0.6-0.1,0.9c0.1,0.4,0.4,0.7,0.7,0.8c0.2-0.1,0.4-0.2,0.6-0.2
			C103,195.3,103.2,195.4,103.4,195.5z"/>
		<path id="_Path_63" class="st17" d="M121.9,193.5c0.2,0.4,0.5,0.7,0.8,0.9c0.2,0.2,0.5,0.3,0.7,0.4c0.2,0.1,0.4,0.1,0.6,0.1
			c0.4,0,0.9-0.2,1.1-0.6c0.1-0.2,0.2-0.5,0.2-0.8c0-0.2-0.1-0.3-0.2-0.5c-0.1-0.2-0.2-0.3-0.3-0.4l-0.2-0.3l0.1,0.1
			c-0.1-0.1-0.2-0.2-0.2-0.4c-0.1-0.2-0.3-0.4-0.5-0.5c-0.1-0.1-0.2-0.1-0.4-0.1l0,0c-0.3-0.1-0.7,0-1,0.1l-0.1,0.1
			C121.7,192,121.5,192.8,121.9,193.5z"/>
		<path id="_Path_64" class="st17" d="M164.7,188.8c-0.1,0-0.2,0.1-0.3,0.1c-0.2,0.1-0.2,0.1,0,0h-0.2c-0.5,0.1-0.9,0.6-0.9,1.1
			c0,0.1,0,0.3,0.1,0.4c0.1,0.3,0.4,0.6,0.8,0.7l0.2,0.1l0.2,0.1l0.3,0c0.3,0.1,0.6,0.1,0.8,0c0.7,0,1.4-0.2,1.9-0.7
			c0.3-0.3,0.4-0.8,0.4-1.2c0-0.1,0-0.2-0.1-0.3c-0.2-0.5-0.7-0.8-1.3-0.8c-0.2,0-0.4,0-0.5,0c-0.1,0-0.3,0.1-0.4,0.2l-0.1,0
			l-0.3,0.1l-0.4,0.1l0,0L164.7,188.8z"/>
		<path id="_Path_65" class="st17" d="M140.5,197.5c0.4,0.8,1.4,1,2.1,0.6c0.1-0.1,0.3-0.2,0.4-0.3c0.1-0.1,0.1-0.1,0.2-0.2
			c0.1-0.1,0.2-0.3,0.3-0.5c0.1-0.2,0.2-0.4,0.3-0.6c0.1-0.5-0.1-1.1-0.5-1.4l0,0c-0.1,0-0.2,0-0.3-0.1c-0.1,0-0.3-0.1-0.4-0.2l0,0
			c-0.2,0-0.4,0-0.5,0.1l-0.2,0.1l-0.2,0.1l-0.2,0.1c-0.5,0.1-1,0.6-1.1,1.1c0,0,0,0,0,0.1C140.2,196.8,140.3,197.2,140.5,197.5z"/>
		<path id="_Path_66" class="st20" d="M88.9,194c0.3-0.3,0.7-0.5,1.2-0.6c0.5-0.1,0.9-0.1,1.4,0.1c0,0,0-0.1,0-0.1c0,0,0-0.1,0-0.1
			c-0.1-0.3-0.3-0.6-0.6-0.8c-0.1-0.1-0.2-0.1-0.3-0.2c-0.2-0.1-0.4-0.2-0.6-0.3c-0.5-0.3-1.1-0.3-1.7-0.2h-0.1
			c-0.4,0-0.8,0.2-0.9,0.6c0,0,0,0.1,0,0.1c-0.1,0.3,0,0.7,0.2,1c0,0.1,0.1,0.1,0.1,0.2l0,0c0.1,0.1,0.1,0.2,0.2,0.3
			c0,0,0.1,0.1,0.1,0.1c0.2,0.2,0.4,0.3,0.6,0.4l0.1,0.1C88.6,194.4,88.7,194.1,88.9,194z"/>
		<path id="_Path_67" class="st20" d="M108.4,194.6c0.1,0.1,0.2,0.2,0.4,0.3c0.4,0.2,0.9,0.3,1.4,0.3h0.2h0.2c0.2,0,0.3,0,0.5-0.1
			c0.1-0.1,0.2-0.1,0.3-0.1l0,0c0.6-0.2,0.9-0.7,0.9-1.3c0-0.5-0.3-0.9-0.7-1.1c-0.1,0-0.2-0.1-0.2-0.1l0.2,0.1
			c-0.1,0-0.2-0.1-0.2-0.1c-0.2-0.1-0.4-0.1-0.6-0.1l-0.5,0c-0.3,0-0.6,0-0.8,0.1c-0.2,0.1-0.4,0.1-0.6,0.2
			c-0.6,0.4-0.8,1.2-0.4,1.8C108.4,194.5,108.4,194.5,108.4,194.6z"/>
		<path id="_Path_68" class="st20" d="M111.4,194.9"/>
		<path id="_Path_69" class="st21" d="M120.4,188.4c-0.7,0-1.4,0.1-2.1,0.5c-0.1,0-0.2,0.1-0.3,0.1c-0.5,0.2-0.7,0.8-0.7,1.3
			c0,0.2,0.1,0.4,0.2,0.5c0.1-0.1,0.2-0.2,0.3-0.2c0.4-0.2,0.8-0.4,1.3-0.4c0.4,0,0.7,0,1.1,0.2c0.3,0.1,0.6,0.4,0.7,0.7l0.1-0.1
			l0.1,0c0.4-0.1,0.7-0.3,0.8-0.7c0.3-0.5,0.2-1.1-0.2-1.5c-0.3-0.3-0.6-0.4-1-0.4H120.4L120.4,188.4z"/>
		<path id="_Path_70" class="st21" d="M135.7,193.2L135.7,193.2c-0.2,0-0.4,0.1-0.6,0.2c-0.1,0.1-0.2,0.1-0.3,0.2
			c-0.5,0.5-0.5,1.3,0,1.8c0.2,0.2,0.6,0.4,0.9,0.4c0.5,0.1,1,0,1.5-0.2c0.2-0.1,0.4-0.3,0.5-0.5c0,0,0.1-0.1,0.1-0.1
			c0.1-0.3,0.1-0.7-0.1-1l-0.1-0.1C137.1,193.3,136.4,193.1,135.7,193.2z"/>
		<path id="_Path_71" class="st20" d="M144.6,194c0.6,0,1.1-0.1,1.6-0.2l0.2-0.1c0.4-0.2,0.7-0.6,0.7-1v0c-0.1,0-0.2-0.1-0.2-0.2
			c-0.1-0.1-0.1-0.2-0.2-0.3l0,0c-0.3,0-0.5,0-0.8-0.2c-0.2-0.1-0.4-0.3-0.5-0.5c-0.2,0-0.4,0-0.6,0.1h-0.2c-0.3,0-0.6,0.1-0.9,0.4
			l0,0c-0.2,0.2-0.3,0.5-0.3,0.8c0,0.2,0,0.3,0.1,0.5c0.2,0.1,0.3,0.1,0.4,0.3c0.1,0.1,0.2,0.2,0.2,0.3c0,0,0,0.1,0.1,0.1
			C144.4,194,144.5,194,144.6,194z"/>
		<path id="_Path_72" class="st21" d="M152.1,188.6l-1.2-0.1c-0.7,0-1.3,0.6-1.3,1.3c0,0.1,0,0.2,0.1,0.3c0.2,0.5,0.6,0.9,1.2,0.9
			l0.7,0c0,0,0-0.1,0-0.1c0.1-0.3,0.3-0.6,0.6-0.7c0.2-0.1,0.3-0.2,0.5-0.2c0.3-0.1,0.7-0.1,1.1-0.1c0-0.2-0.1-0.5-0.3-0.6
			c-0.2-0.2-0.4-0.3-0.6-0.4l-0.1,0C152.6,188.7,152.3,188.7,152.1,188.6z"/>
		<path id="_Path_73" class="st20" d="M161.8,193.3c-0.2,0-0.5-0.1-0.7-0.1H161h-0.1c-0.2,0-0.3-0.1-0.5-0.1
			c-0.6-0.2-1.2,0.1-1.4,0.7c0,0.1-0.1,0.2-0.1,0.3c-0.1,0.5,0.2,0.9,0.6,1.2c0.5,0.3,1,0.5,1.6,0.6c0-0.1,0-0.1-0.1-0.2
			c0-0.2,0-0.3,0.1-0.5c0-0.1,0.1-0.2,0.2-0.3c0.1-0.1,0.1-0.1,0.2-0.1c0.3-0.3,0.8-0.3,1.2-0.1c0.1,0,0.1,0.1,0.2,0.1
			c0.1-0.4-0.1-0.7-0.3-1c-0.1-0.1-0.3-0.2-0.4-0.3l-0.1,0C162,193.4,161.9,193.3,161.8,193.3z"/>
		<path id="_Path_74" class="st20" d="M138,186.4c-0.2-0.2-0.4-0.4-0.6-0.4c-0.3-0.1-0.6,0-0.9,0.1c-0.3,0.1-0.5,0.3-0.7,0.5
			c-0.4,0.3-0.6,0.9-0.5,1.5c0,0.1,0,0.2,0.1,0.3c0,0.1,0.1,0.2,0.2,0.3c0.1,0.1,0.2,0.2,0.3,0.2c0.2,0.1,0.4,0.1,0.6,0.2
			c0.2,0,0.3,0,0.4-0.1c0.1,0,0.2-0.1,0.3-0.1c0.2-0.1,0.3-0.2,0.4-0.4c0.1-0.1,0.1-0.2,0.2-0.3l0.2-0.2c0.2-0.2,0.3-0.4,0.3-0.7
			C138.2,187,138.2,186.7,138,186.4z"/>
		<path id="_Path_75" class="st20" d="M123.3,197c0.1-0.3,0-0.6-0.1-0.8c-0.2-0.4-0.5-0.7-1-0.8l0,0c-0.1,0-0.1,0-0.2,0
			c-0.3,0-0.6,0.1-0.8,0.2c-0.2,0.1-0.3,0.1-0.5,0.2l-0.2,0.2c-0.1,0.1-0.2,0.2-0.3,0.3l-0.1,0.1c-0.2,0.3-0.2,0.6-0.1,0.9
			c0.1,0.4,0.4,0.7,0.8,0.8c0.1,0,0.2,0,0.3,0.1c0.3,0,0.5,0,0.8-0.1c0.1,0,0.2,0,0.3-0.1c0.3-0.1,0.5-0.2,0.7-0.4l0,0
			C123.1,197.4,123.2,197.2,123.3,197z"/>
		<path id="_Path_76" class="st20" d="M102.6,187.5c0.3,0.2,0.6,0.2,0.9,0.1c0.2-0.1,0.4-0.2,0.5-0.3c0.4-0.3,0.6-0.9,0.3-1.3
			c0,0,0,0,0,0c-0.1-0.3-0.3-0.5-0.5-0.6c-0.1,0-0.2-0.1-0.3-0.1c-0.2-0.1-0.4-0.2-0.6-0.2c-0.2,0-0.4,0.1-0.5,0.1l0.2-0.1l-0.2,0.1
			h-0.1h0.1c-0.2,0.1-0.4,0.2-0.5,0.4c-0.2,0.4-0.2,0.9,0,1.3C102,187.2,102.3,187.4,102.6,187.5z"/>
		<path id="_Path_77" class="st20" d="M122.4,184.8c0.1,0.1,0.2,0.3,0.3,0.4l0.3,0.2c0.2,0.2,0.4,0.3,0.6,0.3l0.2,0
			c0.6,0.1,1.2-0.1,1.4-0.7c0.1-0.2,0.1-0.5,0-0.8c0-0.1-0.1-0.2-0.2-0.4c-0.1-0.1-0.2-0.3-0.4-0.4l0,0c-0.2-0.1-0.4-0.2-0.6-0.3
			l-0.3,0c-0.2-0.1-0.5,0-0.7,0.1c-0.2,0.1-0.4,0.3-0.5,0.5c-0.1,0.2-0.1,0.4-0.2,0.6l0,0C122.3,184.5,122.3,184.7,122.4,184.8z"/>
		<path id="_Path_78" class="st20" d="M133,185.2c0.3,0.2,0.7,0.3,1.1,0.3c0.2,0,0.4,0,0.5-0.1l0.2-0.1c0.2-0.1,0.4-0.2,0.5-0.4
			l0.1-0.1l0.1-0.1c0.2-0.2,0.3-0.6,0.3-0.9c0-0.1,0-0.1-0.1-0.2c-0.1-0.3-0.5-0.6-0.8-0.6c-0.1,0-0.2-0.1-0.3-0.1
			c-0.2,0-0.4,0-0.6,0c-0.3,0-0.6,0.1-0.9,0.1c-0.4,0.1-0.7,0.5-0.8,0.9c0,0.1,0,0.3,0,0.5c0,0.1,0.1,0.3,0.2,0.4
			C132.8,185,132.9,185.1,133,185.2z"/>
		<path id="_Path_79" class="st20" d="M90.3,185.9c0.1,0.1,0.3,0.3,0.5,0.3c0.2,0.1,0.4,0.1,0.6,0c0.2-0.1,0.4-0.2,0.5-0.3
			c0.1-0.1,0.2-0.3,0.3-0.4l0-0.1l0,0c0.1-0.4,0-0.9-0.3-1.2l-0.2-0.2c-0.2-0.1-0.3-0.3-0.5-0.4l-0.3-0.1c-0.1,0-0.3,0-0.5,0
			c-0.2,0-0.5,0.1-0.6,0.3c-0.1,0.1-0.2,0.3-0.3,0.5c-0.1,0.3,0,0.6,0.1,0.9l0.2,0.2c0.1,0.1,0.1,0.2,0.2,0.3
			C90.2,185.8,90.2,185.8,90.3,185.9z"/>
		<path id="_Path_80" class="st20" d="M152.3,185.4c0.2,0.2,0.3,0.4,0.6,0.5c0.2,0.1,0.4,0.2,0.6,0.3c0.1,0,0.2,0,0.3,0.1
			c-0.1,0-0.1,0,0,0h0.1c0.1,0,0.2,0,0.2,0c0.5,0,1-0.4,1.2-0.9c0.1-0.3,0-0.6-0.1-0.9c-0.1-0.1-0.1-0.2-0.2-0.3
			c0.1,0.2,0.1,0.2,0,0c-0.1-0.1-0.1-0.2-0.2-0.2c-0.2-0.2-0.4-0.3-0.7-0.4c-0.3-0.1-0.7-0.1-1-0.1c-0.6,0-1,0.5-1,1.1
			c0,0.2,0.1,0.3,0.1,0.5l0.2,0.2L152.3,185.4C152.2,185.3,152.2,185.4,152.3,185.4z"/>
		<path id="_Path_81" class="st21" d="M108.1,186.8c0.4,0.4,1,0.5,1.5,0.4c0.3,0,0.6-0.2,0.9-0.5c0,0,0.1-0.1,0.1-0.1
			c0.1-0.3,0.2-0.6,0.1-0.9c0-0.2-0.1-0.3-0.1-0.5c-0.1-0.2-0.3-0.4-0.4-0.6l0.1,0.2c-0.3-0.4-0.6-0.6-1-0.8c-0.1,0-0.3-0.1-0.4-0.1
			c-0.8,0-1.4,0.7-1.4,1.4c0,0.4,0.2,0.8,0.4,1.1C107.9,186.7,108,186.8,108.1,186.8z"/>
		<path id="_Path_82" class="st22" d="M142.3,186.2c-0.2,0-0.3,0-0.5,0.1c-0.3,0.1-0.6,0.3-0.8,0.5c0.1,0,0.1,0.1,0.2,0.1
			c0.2,0.2,0.3,0.2,0.2,0.1c-0.1-0.1,0,0,0.1,0c0.4,0.3,0.6,0.9,0.3,1.3c0,0,0,0.1-0.1,0.1c0.4,0.1,0.8,0,1.1-0.1
			c0.5,0,0.9-0.2,1.2-0.5l0,0l0.1-0.1h0c0.3,0,0.6-0.3,0.6-0.6c0-0.2-0.2-0.5-0.4-0.5h-0.2c-0.1-0.1-0.2-0.2-0.3-0.3
			c-0.1-0.1-0.2-0.1-0.3-0.1C143.1,186.1,142.7,186.1,142.3,186.2z"/>
		<path id="_Path_83" class="st22" d="M125.5,189.4c0.3,0.3,0.6,0.7,0.9,1c0.4,0.4,1,0.4,1.4,0c0.4-0.4,0.4-1,0-1.4
			c-0.4-0.3-0.8-0.6-1.2-1l0,0c-0.4-0.3-0.9-0.3-1.3,0c-0.3,0.4-0.3,0.9,0,1.3L125.5,189.4z"/>
		<path id="_Path_84" class="st22" d="M103.8,189.8c-0.2,0.1-0.3,0.3-0.4,0.5c-0.1,0.1-0.1,0.3,0,0.4c0.1,0.4,0.3,0.7,0.7,0.8l0.2,0
			h0.2h0.2h0.1h0.2c0.3,0.1,0.6,0,0.9-0.2c0.1-0.1,0.2-0.2,0.2-0.4c0.1-0.3,0-0.7-0.3-0.9c-0.1-0.1-0.2-0.2-0.3-0.2
			c-0.1-0.1-0.2-0.1-0.3-0.2c-0.2-0.1-0.4-0.2-0.6-0.2C104.2,189.6,104,189.7,103.8,189.8z"/>
		<path id="_Path_85" class="st22" d="M94,191.6c0.1-0.1,0.2-0.1,0.3-0.2c0.2-0.2,0.5-0.3,0.7-0.5l0,0l0.1-0.1l0.1,0l0.3-0.2
			c0.1-0.1,0.3-0.2,0.4-0.3c0.1-0.1,0.2-0.2,0.2-0.4c0,0,0-0.1,0.1-0.1c0-0.2,0-0.4-0.1-0.6c0-0.1-0.1-0.2-0.2-0.2
			c-0.2-0.1-0.4-0.2-0.5-0.2c-0.2,0-0.3,0-0.5,0.1c-0.3,0.1-0.5,0.2-0.8,0.3c-0.2,0.1-0.5,0.2-0.7,0.4c-0.4,0.2-0.6,0.6-0.8,0.9
			c-0.2,0.5,0.1,1.1,0.7,1.2c0.1,0,0.2,0,0.3,0l0,0C93.5,191.7,93.8,191.7,94,191.6z"/>
		<path id="_Path_86" class="st22" d="M96.1,184.8c-0.1,0.2-0.1,0.3-0.1,0.5c0,0.1,0,0.5,0,0.1c0,0.5,0.4,0.9,0.9,0.9
			c0.1,0,0.1,0,0.2,0l0,0h0.1c0.1,0,0.2-0.1,0.3-0.1l0.2-0.1l0.1,0c0.3-0.1,0.5-0.3,0.6-0.6c0.1-0.2,0.1-0.6,0-0.8
			c-0.1-0.2-0.2-0.3-0.4-0.4c-0.2-0.1-0.5-0.2-0.7-0.1h0c-0.2,0-0.4,0.1-0.6,0.2c-0.1,0.1-0.2,0.1-0.3,0.2
			C96.3,184.6,96.2,184.7,96.1,184.8z"/>
		<path id="_Path_87" class="st22" d="M161.2,186.5C161.2,186.3,161.2,186.3,161.2,186.5c0,0.1,0,0.2,0,0.3c0,0.1,0.1,0.2,0.1,0.3
			c0.1,0.1,0.2,0.3,0.3,0.4c0.1,0.1,0.2,0.1,0.3,0.2l-0.1-0.1c0.1,0.1,0.1,0.1,0.2,0.2c0.2,0.1,0.5,0.2,0.8,0.1
			c0.2,0,0.3-0.1,0.4-0.2c0.1-0.1,0.1-0.2,0.1-0.2c0.1-0.2,0.1-0.5,0.1-0.8c-0.1-0.3-0.3-0.5-0.5-0.7c-0.1-0.1-0.3-0.2-0.5-0.3
			c-0.1-0.1-0.3-0.1-0.4-0.1c-0.1,0-0.2,0-0.3,0l-0.1,0c-0.2,0.1-0.4,0.2-0.5,0.4C161.2,186.3,161.2,186.4,161.2,186.5z"/>
		<path id="_Path_88" class="st23" d="M98.4,193.3l-0.1-0.1c-0.1-0.1-0.2-0.2-0.3-0.3c-0.1,0-0.1-0.1-0.2-0.1
			c-0.1-0.1-0.3-0.1-0.4-0.2c-0.4-0.1-0.8,0-1,0.3c-0.2,0.2-0.3,0.5-0.3,0.8c0,0.1,0,0.2,0,0.2l0,0c0.1,0.4,0.3,0.7,0.7,0.9
			c0.4,0.2,0.8,0.3,1.2,0.1c0.3-0.1,0.6-0.4,0.7-0.7C98.7,193.9,98.6,193.6,98.4,193.3z"/>
		<path id="_Path_89" class="st23" d="M131,194.1l0.1-0.2c0.3-0.4,0.3-0.8,0.2-1.3l-0.1-0.1c-0.2-0.4-0.7-0.7-1.1-0.7
			c-0.5,0.1-1.1,0.3-1.5,0.6c-0.6,0.4-0.8,1.1-0.6,1.7l0.2,0c0.8-0.2,1.6-0.1,2.2,0.4l0.1,0.1c0.2-0.1,0.4-0.2,0.6-0.4L131,194.1z"
			/>
		<path id="_Path_90" class="st23" d="M145.4,191.5c0.1,0.2,0.3,0.4,0.5,0.5c0.2,0.1,0.5,0.2,0.8,0.2c-0.1-0.1-0.1-0.3-0.1-0.4
			c0-0.5,0.3-0.9,0.7-1l0.4-0.2l0.1,0l0.1-0.1c0.2-0.1,0.4-0.2,0.6-0.1c-0.1-0.1-0.1-0.2-0.2-0.3c-0.1-0.1-0.1-0.1-0.2-0.2
			c0-0.1-0.1-0.1-0.2-0.2c-0.2-0.2-0.5-0.3-0.8-0.3c-0.5-0.1-0.9,0.1-1.3,0.3c-0.5,0.3-0.7,0.9-0.6,1.5c0,0.1,0,0.1,0.1,0.2
			L145.4,191.5z"/>
		<path id="_Path_91" class="st23" d="M146.7,192.2"/>
		<path id="_Path_92" class="st23" d="M155.5,194.9c0.1-0.6-0.1-1.2-0.6-1.5l-0.2-0.1l-0.2-0.1l-0.1-0.1c-0.2-0.1-0.4-0.1-0.6-0.1
			c-0.1,0-0.3,0-0.4,0.1c-0.2,0-0.3,0.1-0.5,0.2c-0.2,0.2-0.4,0.4-0.5,0.7c-0.1,0.2-0.1,0.5,0,0.7c0,0.1,0.1,0.3,0.2,0.4
			c0.1,0.2,0.3,0.3,0.5,0.5c0.3,0.2,0.6,0.3,0.9,0.3h0.3c0.3,0,0.6-0.1,0.8-0.3l0.1-0.1C155.3,195.4,155.4,195.2,155.5,194.9z"/>
		<path id="_Path_93" class="st23" d="M160.9,191.5h0.4c0.2,0,0.5-0.1,0.7-0.2c0.2-0.1,0.3-0.3,0.4-0.5c0.1-0.2,0.1-0.5-0.1-0.7
			c-0.1-0.2-0.3-0.4-0.5-0.5l-0.3-0.2c-0.5-0.3-1.2-0.1-1.6,0.4c-0.3,0.4-0.2,1,0.2,1.4C160.3,191.4,160.6,191.5,160.9,191.5z"/>
		<path id="_Path_94" class="st23" d="M115.2,184.2c-0.3-0.1-0.5-0.1-0.8,0c-0.3,0-0.5,0.1-0.7,0.3c-0.1,0-0.1,0.1-0.2,0.2
			c-0.4,0.3-0.5,0.9-0.4,1.3c0,0.1,0,0.1,0.1,0.2l0.4-0.2c0.3-0.1,0.7-0.2,1-0.3c0.6-0.1,1.1,0.2,1.3,0.7c0,0.1,0,0.1,0,0.2
			c0.1-0.1,0.2-0.2,0.2-0.3c0.2-0.3,0.2-0.6,0.1-0.9c0,0,0-0.1,0-0.1v-0.1c0,0,0,0,0,0c0-0.2-0.1-0.3-0.2-0.4
			C115.8,184.5,115.5,184.3,115.2,184.2z"/>
		<path id="_Path_95" class="st23" d="M130.1,186l-0.1-0.2c0-0.1-0.1-0.1-0.1-0.2c-0.1-0.1-0.2-0.2-0.3-0.3
			c-0.1-0.1-0.2-0.2-0.3-0.3c-0.1-0.1-0.3-0.1-0.4-0.2c-0.7-0.2-1.4,0.2-1.6,1c0,0,0,0,0,0c-0.1,0.2-0.1,0.4,0,0.6
			c0,0.2,0.1,0.3,0.2,0.4c0,0.1,0.1,0.2,0.2,0.2c0.1-0.1,0.2-0.2,0.3-0.3c0.1-0.1,0.3-0.2,0.4-0.2c0.1,0,0.3,0,0.4-0.1
			c0.2,0,0.4,0,0.5,0c0.3,0.1,0.5,0.3,0.6,0.5c0.1,0.2,0.1,0.3,0.1,0.5l0.1-0.1l0-0.1C130.3,187,130.4,186.4,130.1,186z"/>
		<path id="_Path_96" class="st23" d="M87.2,189.2c0.1-0.4,0-0.8-0.1-1.1c-0.1-0.1-0.1-0.2-0.2-0.3c-0.1-0.1-0.3-0.3-0.5-0.4l-0.1,0
			c-0.3-0.2-0.6-0.2-1-0.2c-0.5,0.1-1,0.5-1.2,1v0.1h0.1c0.5,0.1,0.9,0.4,1.3,0.7c0.2,0.2,0.2,0.6,0,0.8c-0.1,0.1-0.2,0.1-0.3,0.2
			l0.2,0.1c0.2,0.1,0.5,0.1,0.7,0.1c0.2,0,0.3-0.1,0.5-0.2C86.9,189.8,87.1,189.6,87.2,189.2z"/>
		<path id="_Path_97" class="st23" d="M102.7,197.7c-0.1,0-0.1-0.1-0.2-0.2c-0.1-0.1-0.2-0.3-0.2-0.5c0-0.1,0-0.3,0-0.4l0.1-0.2
			l0.2-0.2l0.2-0.2l0,0c0.1-0.1,0.2-0.1,0.4-0.1c0.1,0,0.2,0,0.2,0l0,0c0.1,0,0.2,0,0.4,0.1l0,0l0.1,0.1l0,0h0
			c-0.1-0.2-0.3-0.4-0.5-0.6c-0.2-0.2-0.5-0.2-0.7-0.2c-0.2,0-0.4,0.1-0.6,0.2c-0.4,0.2-0.7,0.7-0.7,1.2c0,0.3,0.1,0.6,0.3,0.9
			c0.3,0.4,0.8,0.6,1.3,0.4H103C102.9,197.9,102.7,197.8,102.7,197.7z"/>
		<path id="_Path_98" class="st19" d="M104.3,197.1c0.1-0.3,0-0.7-0.2-0.9l0,0c0,0-0.1-0.1-0.2-0.1h0l0,0l-0.1-0.1l0,0
			c-0.1-0.1-0.2-0.1-0.4-0.1l0,0c-0.1,0-0.2,0-0.2,0c-0.1,0-0.3,0-0.4,0.1l0,0l-0.2,0.2l-0.2,0.2l-0.1,0.2c0,0.1,0,0.3,0,0.4
			c0,0.2,0.1,0.3,0.2,0.5c0,0.1,0.1,0.1,0.2,0.2c0.1,0.1,0.2,0.1,0.3,0.2h0.1c0.2,0,0.3,0,0.5,0c0.1,0,0.2-0.1,0.3-0.1
			c0.1,0,0.1-0.1,0.2-0.1C104.2,197.5,104.3,197.3,104.3,197.1z"/>
		<path id="_Path_99" class="st19" d="M161.6,194.7c-0.1,0-0.1,0.1-0.2,0.1c-0.1,0.1-0.1,0.2-0.2,0.3c-0.1,0.2-0.1,0.3-0.1,0.5
			c0,0.1,0,0.1,0.1,0.2c0,0.1,0.1,0.2,0.2,0.2c0,0,0.1,0.1,0.1,0.1c0.1,0.1,0.2,0.2,0.3,0.3c0.2,0.1,0.5,0.2,0.8,0.1
			c0.3-0.1,0.5-0.2,0.6-0.5c0.2-0.3,0.2-0.6,0.1-0.9c-0.1-0.1-0.2-0.3-0.3-0.4c0,0-0.1-0.1-0.2-0.1
			C162.4,194.3,161.9,194.4,161.6,194.7z"/>
		<path id="_Path_100" class="st19" d="M91.4,193.5c-0.4-0.2-0.9-0.2-1.3-0.1c-0.4,0.1-0.8,0.3-1.2,0.6c-0.2,0.2-0.3,0.4-0.3,0.6
			c0,0.1,0,0.2,0,0.2c0,0.1,0,0.1,0.1,0.2l0,0c0.2,0.3,0.5,0.5,0.8,0.5l0.4,0c0.1,0,0.3,0,0.4-0.1c0.1,0,0.1,0,0,0l0.2,0
			c0.3,0,0.6-0.1,0.9-0.3c0.3-0.1,0.4-0.4,0.5-0.7c0-0.2-0.1-0.5-0.3-0.6C91.6,193.6,91.5,193.6,91.4,193.5L91.4,193.5z"/>
		<path id="_Path_101" class="st19" d="M83.1,190.5c0.2,0.1,0.4,0.1,0.5,0l0.4-0.2c0.2-0.1,0.2-0.3,0.1-0.5c0-0.1-0.1-0.1-0.1-0.1
			l-0.4-0.2c-0.2-0.1-0.4-0.1-0.5,0c-0.2,0.1-0.3,0.3-0.3,0.5C82.8,190.2,82.9,190.4,83.1,190.5z"/>
	</g>
</g>
</svg>
