<svg id="Layer_1" data-name="Layer 1" xmlns="http://www.w3.org/2000/svg" viewBox="0 0 250 250"><defs><style>.cls-1{fill:#f4cd7d;}.cls-2{fill:#9e4f32;}.cls-3{fill:#cf9834;}.cls-4{fill:#813f30;}.cls-5{fill:#f5d374;}.cls-6{fill:#e4b23a;}.cls-7{fill:#cf9e3a;}.cls-8{fill:#a56b3c;}.cls-9{fill:#632b15;}.cls-10{fill:#642c15;}.cls-11{fill:#cf9d3a;}.cls-12{fill:#d09e3a;}.cls-13{fill:#d09e3b;}.cls-14{fill:none;}</style></defs><title>products</title><path class="cls-1" d="M125,249.89c-23.74,0-47.47.13-71.24-.06-12.14-.09-21.47-5.5-27.46-16.23a25.29,25.29,0,0,1-3.11-12c-.14-9-.22-18.08-.35-27.12q-.25-19.89-.54-39.78l-.25-18.55-.54-40.2q-.14-9.36-.28-18.72c-.16-8.54,3.42-15.36,9.73-20.83a33,33,0,0,1,22.21-8.16q70.53-.08,141.05,0c13.14,0,24.65,7.6,29.12,19.09a32.74,32.74,0,0,1,1.93,11.59c.14,10.69.35,21.39.53,32.07q.27,15,.55,30l.55,30q.28,15,.56,30c.14,6.79.42,13.57.42,20.35,0,9.17-4.19,16.28-11.33,21.73a32.84,32.84,0,0,1-20.35,6.84Q160.61,249.94,125,249.89Z"/><path class="cls-2" d="M31.85,74.56A16.58,16.58,0,0,1,38.43,63.8a22.54,22.54,0,0,1,14.16-4.93q70.91,0,141.83.05c8.49,0,15.08,3.78,18.92,11.68a6.64,6.64,0,0,1,.76,2.34,7.79,7.79,0,0,1-1,3.35L202,98.5c-.35.71-.59,1.59-1.62,1.67a1.63,1.63,0,0,1-1.26-.92c-3-5.72-8.07-9.25-13.35-12.59a38.28,38.28,0,0,0-17.09-6.08,45.3,45.3,0,0,0-15,1.15c-1.69.41-3.39.83-5.05,1.35a2.22,2.22,0,0,1-2.78-1,26.55,26.55,0,0,0-11.39-9.45,21.69,21.69,0,0,0-11-1.65,51,51,0,0,0-8.94,1.46c-5.06,1.39-9.37,3.94-11.88,8.82a1.68,1.68,0,0,1-2.18.87A40.08,40.08,0,0,0,91.22,81a56.47,56.47,0,0,0-15.73,2.64c-5.55,1.72-11.1,3.56-15.9,7.07-5.05,3.7-9,8.2-11.19,14.14-.2.55-.38,1.14-1,1.34-.93,0-1.11-.7-1.41-1.29-2.08-4.17-4.06-8.4-6-12.64s-4.09-8.68-6.14-13C33.06,77.7,32.51,76.11,31.85,74.56Z"/><path class="cls-3" d="M47.26,106a29.73,29.73,0,0,1,8.26-12.81,38.44,38.44,0,0,1,13.22-8A83.65,83.65,0,0,1,85.2,80.8a38.77,38.77,0,0,1,15,.66,1.6,1.6,0,0,0,2.11-.8.5.5,0,0,0,0-.13c2.46-4.49,6.48-7.06,11.23-8.51a42,42,0,0,1,11.94-1.85,23.23,23.23,0,0,1,15.86,6.12,22.55,22.55,0,0,1,5.18,5.83c.4.73.92.6,1.51.41A65.55,65.55,0,0,1,159.78,80,38.3,38.3,0,0,1,179,82.41a53.58,53.58,0,0,1,16.72,11c2,1.89,3.2,4.34,4.74,6.56a1.88,1.88,0,0,1,1,.87c2.46,5.19,4,10.55,2.71,16.36a11.89,11.89,0,0,1-2,4.47c-1.05,1.43-1.08,1.65.26,2.87a17.92,17.92,0,0,1,5.83,13.22c.13,4.68-1.77,7.34-6.14,9-1.6.63-1.66.66-.92,2.23a24.35,24.35,0,0,1,2.16,11.38,17.48,17.48,0,0,1-4.06,10.44c-2.29,2.78-2.41,2.09.4,4a36.29,36.29,0,0,1,13.88,17c2,5.12,2.47,10.34.25,15.55a19,19,0,0,1-7.19,8.32c-1.46,1-1.46,1-.51,2.56,2.33,3.79,3.82,7.83,3.55,12.36-.15,2.52-.8,4.81-3.16,6.21-.31.26-.73.35-1,.63a18.91,18.91,0,0,1-9.87,1.85c-.07-.85.66-.93,1.16-1.09,1.25-.47,2.5-.92,3.7-1.5,4.22-2.09,5.56-5.19,4.72-10-1.1-6.26-5.08-10.37-10.31-13.54A25.76,25.76,0,0,0,175,209.92c-4.7,1.1-9.41,2.21-13.5,4.91S154,221,153.07,226.18a9.21,9.21,0,0,0,1.31,6.33,12.18,12.18,0,0,0,6.21,5.39c.65.26,1.61.31,1.58,1.41H157.8a10.23,10.23,0,0,1-5.86-6.1c-.14-.34-.41-.6-.53-.93-1.95-5.15-.46-9.66,2.63-13.87a15,15,0,0,1,3.62-3.71c.7-.43,1.19-1.12,1.85-1.6s.46-1.08,0-1.61a30.64,30.64,0,0,0-4.83-4.28c-5.55-3.78-11.35-7.24-17.88-9.25a34.29,34.29,0,0,0-16.83-.83,55.89,55.89,0,0,0-10.36,3.18,21.69,21.69,0,0,0-8.42,6.48c-1.11,1.3-1,1.49.62,2a4.25,4.25,0,0,1,1,.38,37.63,37.63,0,0,1,9.7,4.14,28.12,28.12,0,0,1,11.43,14.65,5.19,5.19,0,0,1,.38,1.6,10.87,10.87,0,0,1,.06,5.66c-.24.93.26,1.36,1.06,1.59,1.85.53,3.7,1,5.55,1.53.54.15,1.36.1,1.34,1H112.82c-.26-.83.42-1.13.92-1.52a26.5,26.5,0,0,0,2.78-2.62,8.34,8.34,0,0,0,1.48-9.25,20.93,20.93,0,0,0-11.55-11.73,39.8,39.8,0,0,0-14.8-3.38,30.59,30.59,0,0,0-12.33,2.28c-6.7,2.78-13.06,6.14-18.14,11.4C57.57,228.2,55,232.61,54.7,238a1.54,1.54,0,0,1-.63,1.3,9,9,0,0,1-3.82-.46,2.87,2.87,0,0,1-.18-1.85c.82-4.63,3.15-8.54,5.88-12.24.77-.46,1.1-1.29,1.7-1.9.27-.29.07-.48-.26-.56-2-.46-4.1-.25-6.11-.77-7.49-2-13.08-6.14-14.88-14A20,20,0,0,1,37.78,195,34.86,34.86,0,0,1,51,179.36a22.13,22.13,0,0,1,2.92-1.85,10.52,10.52,0,0,0-1.76-.92A21.73,21.73,0,0,1,41.6,165.92a13.81,13.81,0,0,1-1.27-4.63,26.37,26.37,0,0,1,2.22-13.68,42.8,42.8,0,0,1,8.19-11.75,22.48,22.48,0,0,1,3.46-2.92c1.36-1.06,2.77-2.12,4.19-3.05.72-.46.75-.92-.07-1.24a20.33,20.33,0,0,1-4.48-2.84c-4.57-4-7.68-8.7-7.55-15V108A2.27,2.27,0,0,1,47.26,106Z"/><path class="cls-4" d="M54.66,133.28a40.07,40.07,0,0,0-10.51,12.57c-2.6,4.91-4,10.1-3.13,15.66,1.24,7.55,6.17,12.13,12.87,15.13.38.17.77.31,1.15.46l.16.17c-1.63,1.11-3.28,2.19-4.87,3.32a32.65,32.65,0,0,0-12.66,16.72c-1.45,4.49-1.71,9.07.46,13.42,3,6.09,8.23,9.3,14.81,10.4,1.57.26,3.17.36,4.76.53A7.68,7.68,0,0,0,56.54,225c-3.07,4-5.39,8.33-6.11,13.46a1.37,1.37,0,0,1-.19.36c-8.19-1.32-14.71-7.47-15.81-15.46A98.28,98.28,0,0,1,34,211.83c-.24-13.71-.44-27.43-.67-41.13q-.26-15.47-.54-30.95l-.57-31.36Q32,92.66,31.69,76.93c0-.77.09-1.55.13-2.33.7-.15.71.48.88.83l12.13,25.84c.76,1.61,1.59,3.18,2.4,4.77-.13,1.09-.29,2.17-.37,3.27-.49,6.47,2.33,11.46,6.9,15.72l.59.56A27.53,27.53,0,0,1,54.66,133.28Z"/><path class="cls-4" d="M206.07,236.85c3.13-3.1,3.31-6.9,2.46-10.89a20.85,20.85,0,0,0-3.78-8.32c-.69-.93-.67-1.31.37-1.92,5.27-3.12,8.75-7.55,9.26-13.82.43-5.22-1.19-10-3.7-14.43a38.94,38.94,0,0,0-13.38-13.41c-1.33-.85-1.29-.84-.16-1.93,5-4.89,6.4-10.84,5.07-17.58a26.81,26.81,0,0,0-2.37-6.73c-.35-.71-.31-1,.51-1.24,6.67-1.69,8.07-6.11,6.81-12.24a17.25,17.25,0,0,0-6-10.06c-.92-.79-1.1-1.3-.18-2.36,3.16-3.7,3.35-8.07,2.59-12.62a42.25,42.25,0,0,0-3.2-9.34c.3-.51.64-1,.92-1.53q6-12,12-24.05c.24-.49.54-.93.81-1.43a13.57,13.57,0,0,1,.65,5c.13,5.32.21,10.64.3,16q.27,15.82.55,31.64.27,14.65.55,29.31l.56,30.69q.25,14.8.55,29.61a46,46,0,0,1,0,8c-.92,6.64-5,10.92-10.8,13.78a.3.3,0,0,1-.42-.07Z"/><path class="cls-5" d="M99.32,239.32H76.39c-.13-.39.12-.62.4-.78s.57-.27.85-.44c.73-.44,1.72-.86,1.47-1.85s-1.37-1.15-2.26-1.16a6.48,6.48,0,0,0-3.37,1c-1.12.68-1.21,1.39-.36,2.43.2.26.44.47.29.83H60.69c-2-1.44-1.85-3.57-1.57-5.61.66-4.71,3.37-8.33,6.84-11.3a46.49,46.49,0,0,1,18.39-9.61,32.29,32.29,0,0,1,17.38.62,19.3,19.3,0,0,1,8.13,4.17c2.77,2.59,5.08,5.41,5,9.56a6.36,6.36,0,0,1-1.92,4.55c-3.7,3.65-8,6.48-13.19,7.49A.85.85,0,0,0,99.32,239.32Z"/><path class="cls-6" d="M162.07,239.3c-1-.48-2.13-.87-3.13-1.43-4.16-2.36-6.76-5.8-6.71-10.72,0-3.5,1.85-6.36,4.1-8.92,3.95-4.46,9.2-6.48,14.73-8.08a37,37,0,0,1,10.56-1.62,24,24,0,0,1,10.74,2.57c3.85,2,7.52,4.26,10.09,7.86a17.08,17.08,0,0,1,3.46,10.8c-.13,3.37-1.85,5.64-4.71,7.23a37.87,37.87,0,0,1-5.73,2.3Z"/><path class="cls-6" d="M99.32,239.32c2.46-1.31,5.11-2.25,7.48-3.71a25.63,25.63,0,0,0,5.29-3.92,7,7,0,0,0,1.41-8.22,16.41,16.41,0,0,0-9.44-8.54,36.08,36.08,0,0,0-13.6-2.33,34.24,34.24,0,0,0-15.14,4.49c-3.7,2-7.4,4-10.36,7.17-2.48,2.69-4.52,5.63-5.19,9.37a10.09,10.09,0,0,0,.92,5.72H54.08c-.21-6,2.41-10.94,6.47-15a48.28,48.28,0,0,1,26-13.75c5.55-1,11,0,16.4,1.64,4.55,1.44,8.68,3.51,11.81,7.21a18.56,18.56,0,0,1,4.48,8.4c.73,3.7-.76,6.53-3.31,9-.93.92-2,1.68-3.08,2.52Z"/><path class="cls-6" d="M151.93,232.16a14.51,14.51,0,0,0,5.26,6.48,2.77,2.77,0,0,1,.51.62H132.3c-2.59-.71-5.18-1.45-7.78-2.14-1-.27-1.36-.67-.92-1.75a11.44,11.44,0,0,0,.22-6c.56-.58,1.19-.27,1.78-.09a86.54,86.54,0,0,0,13.67,3.06A35,35,0,0,0,151.93,232.16Z"/><path class="cls-7" d="M73.41,239.32c-.71-.46-1.68-.73-1.64-1.86a2.55,2.55,0,0,1,1.79-2.15,6.18,6.18,0,0,1,4.63-.62c.76.25,1.5.52,1.72,1.41s-.47,1.51-1.08,2.08a10.42,10.42,0,0,1-2.47,1.19Z"/><path class="cls-8" d="M206.07,236.85l.43,0a2.06,2.06,0,0,1-1.15.52A1,1,0,0,1,206.07,236.85Z"/><path class="cls-5" d="M103.15,92.46c2.18,2.69,5.12,4.24,8.25,5.55,4.56,3.23,6,7.82,5.8,13.16a1.63,1.63,0,0,1-1.12,1.71c-6.08-.7-11.8.76-17.46,2.77a26,26,0,0,0-9.25,6,3.78,3.78,0,0,1-1.93.63c-7,.15-14-.14-20.89-1.94a20.33,20.33,0,0,1-8.11-3.95c-5.61-4.69-6.3-10.9-1.66-16.59,3.81-4.69,8.92-7.4,14.62-9a63.68,63.68,0,0,1,13.33-2.69A33,33,0,0,1,101.21,91,5.14,5.14,0,0,1,103.15,92.46Z"/><path class="cls-5" d="M183.86,117a39.07,39.07,0,0,0-16.24,3.59,12.67,12.67,0,0,1-4.93.93c-3.54-.07-7.07.1-10.59-.05-5.75-.25-11.42-1.06-16.65-3.55a13.88,13.88,0,0,1-7.68-8.19,9.51,9.51,0,0,1,.65-7.46,2.74,2.74,0,0,1,1.27-1.2,42.69,42.69,0,0,0,11.87-1.17,12.75,12.75,0,0,0,4.63-2.08c2.62-2.09,3-5,2.77-8.06a1.57,1.57,0,0,1,1.33-1c9.3-2.17,18.34-2,27,2.7a58.78,58.78,0,0,1,5.37,3.28A19.06,19.06,0,0,1,190.69,107a8.28,8.28,0,0,1-3.84,9.13A12.37,12.37,0,0,1,183.86,117Z"/><path class="cls-5" d="M111.72,189.11c-3.6-8-9.42-13.64-17.83-16.46a56,56,0,0,0-7.52-2.23c-.71-.73-.43-1.53-.12-2.31A20,20,0,0,1,93,159.63a23.46,23.46,0,0,1,8.33-3.77,43.32,43.32,0,0,1,10.54-1.73,36.75,36.75,0,0,1,16.66,3.54,68.28,68.28,0,0,1,12.88,7.45,23.3,23.3,0,0,1,4.83,4.63,1.66,1.66,0,0,1,.45,1.5,38.06,38.06,0,0,0-8.71,9.37,12.7,12.7,0,0,0-1.49,2.91c-.79.39-1.1-.35-1.55-.69a7.1,7.1,0,0,0-6-1.4,1.62,1.62,0,0,0-1.44,1.11,1.59,1.59,0,0,0,.77,1.65,6.9,6.9,0,0,0,5.55,1.43c.57-.08,1.16-.41,1.63.23a19.24,19.24,0,0,0-.83,7.11c-.7.78-1.59.37-2.32.23a40,40,0,0,0-5.46-.41c-4.63-.16-9-1.46-13.45-2.65A4.43,4.43,0,0,1,111.72,189.11Z"/><path class="cls-5" d="M151.93,232.16c-.11.72-.67.76-1.22.93-4.23.92-8.47.49-12.68-.13a75.39,75.39,0,0,1-14.2-3.51,28.05,28.05,0,0,0-6.14-10.79,25.62,25.62,0,0,0-10.17-7.11c-1.67-.64-3.32-1.31-5-2-.44-.88.12-1.52.57-2.12a20,20,0,0,1,9.95-7.48,41.31,41.31,0,0,1,13.63-2.32,36.58,36.58,0,0,1,15.42,4.06,79,79,0,0,1,9.25,5.38,25,25,0,0,1,6.35,6.22,1.41,1.41,0,0,1,.18,1.76c-3.89,3.4-6.71,7.41-6.89,12.8A11.65,11.65,0,0,0,151.93,232.16Z"/><path class="cls-5" d="M130.71,140.43a8.64,8.64,0,0,0,4.91-7.19,4.63,4.63,0,0,1,5-2.77,75.63,75.63,0,0,0,14.29,2c1.19,0,2.37.17,3.57.21.7,0,.92.41,1.06,1,.93,5.55,4.47,8.63,9.35,10.62a51.72,51.72,0,0,0,18,3.57h4.42c1.39,1,1.36,2.56,1.44,4,.28,4.68-2,7.91-6,10.18-3.12,1.8-6.52,2.21-10.07,2.18-13-.12-25.11-3.79-36.63-9.61a30.37,30.37,0,0,1-8-5.75,8,8,0,0,1-2.19-6.92C129.89,141.27,130.36,140.94,130.71,140.43Z"/><path class="cls-5" d="M68.68,131.54a83.62,83.62,0,0,0,15.69,1.7,1.19,1.19,0,0,1,1.32.93c1.44,4.23,4.52,6.78,8.61,8.25a39.32,39.32,0,0,0,11.86,2.12,50.88,50.88,0,0,0,9.07-.21c.62.56.43,1.15.07,1.73a7.12,7.12,0,0,1-3.65,3.19c-10.77,1.35-21,4-28.9,12.14-1.45,1.25-3.29,1.36-5,1.63a47.77,47.77,0,0,1-7.92.69,36.64,36.64,0,0,1-7.25-.33,15.26,15.26,0,0,1-9.25-5.28c-2.28-2.77-2.67-6-1.85-9.47a21.37,21.37,0,0,1,5.22-9.26,33.36,33.36,0,0,1,9.14-7.18A4.71,4.71,0,0,1,68.68,131.54Z"/><path class="cls-6" d="M210.24,197.51c.21,5.55-2.65,9.32-7.25,12-.59.35-1.23.61-1.85.93a5,5,0,0,1-5.48-.16,25,25,0,0,0-17.17-3.37A52.19,52.19,0,0,0,171,208.6a3.41,3.41,0,0,1-1.9,0,75,75,0,0,1-24.24-11.49c-6.07-4.45-7-10.18-2.89-16.66a25,25,0,0,1,13.25-10.61A46.15,46.15,0,0,1,170.09,167a36.53,36.53,0,0,1,15.08,3.29,62.42,62.42,0,0,1,16.22,10,26,26,0,0,1,8.8,14.74A12.73,12.73,0,0,1,210.24,197.51Z"/><path class="cls-6" d="M59.48,215.08c-3.86.14-7.91-.15-11.59-2.29s-6.68-5-7.28-9.6.82-8.39,3.12-12.12c3.32-5.36,8.13-9,13.47-12.11A52.66,52.66,0,0,1,70,173.24a35.41,35.41,0,0,1,19.68.47c4,1.18,7.88,2.51,11.1,5.32,3.4,3,6.12,6.48,7.16,11a8.62,8.62,0,0,1-3.81,9.56c-2.17,1.38-3.9,3.33-6.11,4.62a58.91,58.91,0,0,1-6.12,3.15,7.57,7.57,0,0,1-2.83.49,34.44,34.44,0,0,0-16.1,4.84c-3.22,1.85-6.68,2.08-10.18,2.4C61.77,215.16,60.76,215.08,59.48,215.08Z"/><path class="cls-6" d="M103.15,92.46c-5.28-2.57-10.85-4.19-16.72-3.77-9,.67-17.83,2.39-25.39,7.89a19,19,0,0,0-4.62,4.84c-3.59,5.5-2.24,10.49,2.34,14.41,3.35,2.87,7.49,4,11.72,4.74a94.87,94.87,0,0,0,18.9,1.11,16.67,16.67,0,0,0-4,7.85c-.17.93-.8,1-1.54.93a81.85,81.85,0,0,1-15.3-1.55c-4.56-.92-9-2.26-12.79-5.14-4.62-3.57-7.6-8.15-7.4-14.21.19-4.77,2.43-8.76,5.55-12.31C59.34,91,66.54,87.83,74.29,85.62a54.49,54.49,0,0,1,16.53-2.5,34,34,0,0,1,9.06,1.45c.49.14,1.06.29,1,.92C100.7,88.13,101.91,90.3,103.15,92.46Z"/><path class="cls-6" d="M183.86,117l1-.5c4.74-2.27,6.41-5.92,4.87-11A19.73,19.73,0,0,0,180.52,94c-5-3-10.17-5.3-16-5.82a41.67,41.67,0,0,0-15.62,1.6,14.59,14.59,0,0,0-.72-3.64,1,1,0,0,1,.4-1.41,1.08,1.08,0,0,1,.43-.13c9.36-2.6,18.72-3.23,27.94.52a43.33,43.33,0,0,1,14.46,9.15c5.2,5.18,8.23,11.56,8.13,19.11a11,11,0,0,1-2.07,6.17,1.22,1.22,0,0,1-1.9.45,22.2,22.2,0,0,0-8.69-2.87C185.87,117,184.89,117,183.86,117Z"/><path class="cls-6" d="M108.62,142.91a40.59,40.59,0,0,1-15.23-2.47c-7.66-3.06-9.45-11.46-3.82-17.5,3.81-4.09,8.62-6,13.87-7.4s10.62-1.85,15.79.3c5.37,2.17,10.18,5.17,12.47,10.91,1.32,3.28,2,6.63-.06,9.89-1.14,1.77-3,2.64-4.91,3.37a43.6,43.6,0,0,1-12.46,2.65C112.37,142.79,110.5,142.91,108.62,142.91Z"/><path class="cls-6" d="M130.71,140.43c-1.08,4.07,0,7,3.7,9.82a58.78,58.78,0,0,0,15.19,7.91,82.45,82.45,0,0,0,21.71,5.28c4,.37,8.17.59,12.15-.68A13.68,13.68,0,0,0,189.6,159a9.4,9.4,0,0,0,2.19-9c-.16-.71-.35-1.41-.52-2.12l3.83-.32a1.37,1.37,0,0,1,1.56.83c1.85,4.41,2.67,8.89.67,13.47-1.48,3.34-4.18,5.55-7.27,7.24a1.41,1.41,0,0,1-1.43-.15,42.82,42.82,0,0,0-15.35-4.5,36.93,36.93,0,0,0-11.33.92,40.76,40.76,0,0,0-5.94,1.72,4.64,4.64,0,0,1-5.07-1.14,72.08,72.08,0,0,0-24.23-14.6,2.58,2.58,0,0,1-1.67-1.66,10.21,10.21,0,0,1-.18-6.35,1.55,1.55,0,0,1,1.26-1.1A26,26,0,0,0,130.71,140.43Z"/><path class="cls-6" d="M68.68,131.54a26.66,26.66,0,0,0-7.21,4.22,26.48,26.48,0,0,0-7.35,8.1c-2.11,3.65-3.44,7.5-1.56,11.65,2,4.4,5.81,6.42,10.28,7.18,5.38.93,10.78.37,16.12-.59,1.27-.22,2.53-.49,3.79-.74a41,41,0,0,0-5.38,7.45,1.43,1.43,0,0,1-1.32.82,46.75,46.75,0,0,0-6.76,1.13c-7.46,1.43-14.27,0-19.92-5.24-3.87-3.62-5-8.22-3.91-13.35a28.07,28.07,0,0,1,6.85-12.84,44.56,44.56,0,0,1,10.18-8.1,3.53,3.53,0,0,1,3.24-.45C66.71,131.09,67.7,131.29,68.68,131.54Z"/><path class="cls-6" d="M189.2,146.26c-7.58-.21-14.26-1-20.57-3.64a13.09,13.09,0,0,1-7.26-6.42,9,9,0,0,1,1.23-9.93c2.64-3.43,6.25-5.32,10.31-6.47a38.17,38.17,0,0,1,9.91-1.39,22.36,22.36,0,0,1,14.63,5.13c3.43,2.72,6.12,5.87,7.17,10.27,1.56,6.48-.66,10.18-7.21,11.51a18.33,18.33,0,0,1-3.12.53C192.29,145.94,190.38,146.41,189.2,146.26Z"/><path class="cls-6" d="M130.87,99.41c-7.76-.08-14.38-.93-20.65-3.53a13.92,13.92,0,0,1-7-5.55c-2.45-4.11-1.46-8.39,1.43-11.64A19.21,19.21,0,0,1,114.43,73a39.92,39.92,0,0,1,10.32-1.39,21.17,21.17,0,0,1,12.64,4.05c3,2.16,5.81,4.51,7.46,7.93A15.84,15.84,0,0,1,146.37,92c-.25,2.92-2.23,5-5.55,6A33.06,33.06,0,0,1,136,99,30.16,30.16,0,0,1,130.87,99.41Z"/><path class="cls-6" d="M129.65,101.07a13.07,13.07,0,0,0-1.72,5.18c-.17,4.75,2.49,7.86,6.17,10.18s8.06,3.19,12.38,3.85c5.93.92,11.89.54,17.85.54a24.15,24.15,0,0,1,3.29-.23,32.64,32.64,0,0,0-4.53,3.76,13.2,13.2,0,0,0-2.94,4.43,1.51,1.51,0,0,1-1.65,1.14c-7.82-.35-15.63-.87-23.13-3.61a3.55,3.55,0,0,1-2.1-1.85c-2-3.95-5.43-6.36-9.08-8.51a3.18,3.18,0,0,1-1.59-1.84,15.92,15.92,0,0,1,1.23-12.4,1.21,1.21,0,0,1,1.38-.79C126.7,101.07,128.18,101,129.65,101.07Z"/><path class="cls-6" d="M146.66,171.29c-3.7-5-8.92-8.11-14.27-11-4.54-2.45-9.25-4.48-14.44-5.11-8.7-1.07-17.08.1-24.51,5-3.6,2.38-6.34,5.69-7.07,10.22-1.31-.22-2.61-.46-3.93-.67-.87-.13-1.07-.5-.62-1.3,3.15-5.55,7.4-10,13.45-12.44a50,50,0,0,1,17.2-4,38.56,38.56,0,0,1,16.35,3.16,80.07,80.07,0,0,1,16.43,9.45,31.37,31.37,0,0,1,4.11,3.7c.72.75.63,1.2-.29,1.64S147.46,170.83,146.66,171.29Z"/><path class="cls-6" d="M158,215.08a15.11,15.11,0,0,0-4-5.13,46.69,46.69,0,0,0-10.31-6.76,38.7,38.7,0,0,0-12.95-4.5,34.25,34.25,0,0,0-21.38,3.82,17.53,17.53,0,0,0-6.75,7.07c-.73-.16-1.45-.31-2.15-.48-1.54-.4-1.61-.57-.59-1.85A23.68,23.68,0,0,1,110,199.36a47,47,0,0,1,16.71-3.55,37.59,37.59,0,0,1,15,3.31A71.45,71.45,0,0,1,156.51,208a46,46,0,0,1,4,3.8c.56.56.44,1-.19,1.46S158.76,214.46,158,215.08Z"/><path class="cls-6" d="M116.08,112.86c1.5-4.33,0-8.11-2.25-11.71-.76-1.09-1.57-2.15-2.43-3.16a58.22,58.22,0,0,0,9.84,2.43c1.07.16,1.28.59.85,1.58a17.38,17.38,0,0,0-1.52,11.1c.21,1,0,1.12-.92.79C118.48,113.45,117.27,113.18,116.08,112.86Z"/><path class="cls-6" d="M111.72,189.11c4.17,1.09,8.32,2.26,12.57,3a74.5,74.5,0,0,0,10.23.92c.2.71-.1.93-.77.81a39.11,39.11,0,0,0-19.23,1.42c-1.09.35-1.53,0-1.6-1.05A19.55,19.55,0,0,0,111.72,189.11Z"/><path class="cls-7" d="M135.35,185.89a7.82,7.82,0,0,1-5.75,0,5.66,5.66,0,0,1-2.27-1.49c-1.19-1.33-.88-2.67.78-3.35a7.67,7.67,0,0,1,7.51,1.66c.29.3.57.59.85.93C135.85,184.22,135.8,185.15,135.35,185.89Z"/><path class="cls-6" d="M111.65,149.21a37.82,37.82,0,0,0,2.67-2.86,2.86,2.86,0,0,0,.92-2c1.31-.15,2.62-.26,3.92-.47.8-.12,1,.12.83.87-.3,1.29-.58,2.59-.82,3.88-.12.66-.4,1-1.1.86C115.94,149,113.79,149.35,111.65,149.21Z"/><path class="cls-9" d="M54.66,133.28a3.1,3.1,0,0,1-.55-2.21c.12-1.85-.33-3.7.27-5.55a25,25,0,0,0,5.18,3c1.06.44.93.76.08,1.29C58,131,56.29,132.13,54.66,133.28Z"/><path class="cls-6" d="M140.59,130.47c-1.44,0-2.39,1.05-3.5,1.76-.5.32-1,.67-1.47,1-.08-.76-.2-1.52-.23-2.28,0-1.17.58-1.73,1.69-1.47S139.43,130.13,140.59,130.47Z"/><path class="cls-10" d="M56.56,225a4.63,4.63,0,0,1-.24-2.5c0-.92.83-.73,1.4-.84a2.29,2.29,0,0,1,1.56.24Z"/><path class="cls-7" d="M103.13,225.3c-.33,0-.66,0-1-.08-.78-.16-1.54-.38-1.85-1.25a1.91,1.91,0,0,1,.79-2.06,6.07,6.07,0,0,1,5.68-1.57c1.73.41,2.09,1.75.85,3A6.31,6.31,0,0,1,103.13,225.3Z"/><path class="cls-5" d="M177,235.22a38.9,38.9,0,0,1-13.13-1.66c-2.67-.86-5.05-2.18-6.47-4.76a6.62,6.62,0,0,1,.23-7.06,16.31,16.31,0,0,1,8.4-6.58A39.72,39.72,0,0,1,179,212.38a24.39,24.39,0,0,1,14,4.14,13.63,13.63,0,0,1,6.33,8.45c.83,3.34-.45,5.88-3.59,7.28a38,38,0,0,1-11.11,2.65A55.67,55.67,0,0,1,177,235.22Z"/><path class="cls-7" d="M68.18,117.25c-1.51-.23-3.05-.33-4.2-1.5a1.69,1.69,0,0,1,.11-2.78c1.8-1.55,6.3-1.31,8,.42a1.76,1.76,0,0,1,.19,2.5,1.79,1.79,0,0,1-.53.42A7.13,7.13,0,0,1,68.18,117.25Z"/><path class="cls-7" d="M99.11,101c-1-.1-2-.21-2.45-1.22a2.36,2.36,0,0,1,.84-2.69A6.87,6.87,0,0,1,103.71,95a1.79,1.79,0,0,1,1.65,1.92,1.77,1.77,0,0,1-.49,1.1A7.41,7.41,0,0,1,99.11,101Z"/><path class="cls-7" d="M172.62,100.23c-1,0-2-.07-2.47-1.12A2.42,2.42,0,0,1,171,96.4a7.26,7.26,0,0,1,5.17-2.24,2.36,2.36,0,0,1,2.56,1.22c.46,1.08-.19,2-.93,2.69A7.21,7.21,0,0,1,172.62,100.23Z"/><path class="cls-11" d="M140.92,111.19a6.53,6.53,0,0,1,4.43,1.3,1.77,1.77,0,0,1,.51,2.46,1.61,1.61,0,0,1-.58.55c-1.76,1.46-6.27,1.2-7.83-.45a1.78,1.78,0,0,1-.26-2.49,2,2,0,0,1,.53-.43A5.36,5.36,0,0,1,140.92,111.19Z"/><path class="cls-7" d="M99.47,169.89a8.74,8.74,0,0,1-5.25-2,2.4,2.4,0,0,1-.92-2.44,2.09,2.09,0,0,1,2-1.48,7.52,7.52,0,0,1,6.27,1.71c.77.68,1.48,1.43,1.14,2.59s-1.39,1.34-2.37,1.57C100,169.84,99.77,169.85,99.47,169.89Z"/><path class="cls-7" d="M114,212.23a7.42,7.42,0,0,1-5.25-2.07c-1.32-1.39-.93-2.77.87-3.34a6.83,6.83,0,0,1,6.77,2.33,1.69,1.69,0,0,1-.19,2.38,1.77,1.77,0,0,1-.6.33A12.77,12.77,0,0,1,114,212.23Z"/><path class="cls-7" d="M142.33,222.21a6.49,6.49,0,0,1,4.36,1.42,2.13,2.13,0,0,1,1,2,2,2,0,0,1-1.58,1.57,6.79,6.79,0,0,1-6.23-1.18,2,2,0,0,1-1-2.22c.3-1,1.2-1.33,2.12-1.51A9,9,0,0,1,142.33,222.21Z"/><path class="cls-7" d="M140.22,135.72a7.22,7.22,0,0,1,5.07,2.07c1.4,1.48,1,3-.92,3.53a7.28,7.28,0,0,1-6.86-2.22,1.85,1.85,0,0,1,0-2.62,1.75,1.75,0,0,1,.84-.49A5.07,5.07,0,0,1,140.22,135.72Z"/><path class="cls-11" d="M173,152a6.31,6.31,0,0,1,4.45,1.57c1.45,1.19,1.17,2.84-.55,3.57a7.63,7.63,0,0,1-7.08-1.5,1.92,1.92,0,0,1,.75-3.37A6.24,6.24,0,0,1,173,152Z"/><path class="cls-11" d="M69.53,156.67a4.82,4.82,0,0,1-1.92-.32c-2-.7-2.31-2.51-.66-3.79a7.46,7.46,0,0,1,6.59-1.44,2.26,2.26,0,0,1,2,1.67,2.33,2.33,0,0,1-1.24,2.42A8,8,0,0,1,69.53,156.67Z"/><path class="cls-5" d="M188.81,204.66c-8.44-.1-16.52-2.14-24.4-5a55.93,55.93,0,0,1-15.26-7.86c-4.76-3.63-5.39-7.85-2-12.79,3-4.3,7.18-6.63,12.12-8a35.33,35.33,0,0,1,27.29,3.06c4.46,2.4,8.9,4.78,12.38,8.57a20.8,20.8,0,0,1,4.76,7.82c1.62,5.15-.27,9.68-5,12.15C195.59,204.25,193.68,204.63,188.81,204.66Z"/><path class="cls-5" d="M61.28,207.87a18.34,18.34,0,0,1-9-1.5c-6.38-3.06-7.34-8.86-4.45-14.43A26.14,26.14,0,0,1,58.2,181.57C63,178.71,68,176.08,73.55,175a33.78,33.78,0,0,1,20,2.44,15.55,15.55,0,0,1,8.84,9.49c1,3,.1,5.55-2.21,7.68-3.92,3.54-8.62,5.73-13.45,7.65a83.81,83.81,0,0,1-21.93,5.55A32.68,32.68,0,0,1,61.28,207.87Z"/><path class="cls-5" d="M107.07,137.62c-3-.18-7.27-.25-11.36-1.73a10.11,10.11,0,0,1-3.81-2.35,6,6,0,0,1-.44-8.54h0a15.41,15.41,0,0,1,6.87-4.9c4.43-1.61,9-2.77,13.75-2.19,5.72.67,10.7,2.89,14,7.94a8.46,8.46,0,0,1,1.25,3.9,4.63,4.63,0,0,1-2.17,4.63c-2.71,1.73-5.8,2.27-8.88,2.78A50.55,50.55,0,0,1,107.07,137.62Z"/><path class="cls-5" d="M180.92,121.43a21.63,21.63,0,0,1,16.13,6.75,9.55,9.55,0,0,1,2.77,6.84,4.53,4.53,0,0,1-3.45,4.84,19,19,0,0,1-5.12.92c-7.6.47-15-.2-22.07-3.33a9.21,9.21,0,0,1-4-3.44,5.67,5.67,0,0,1,.63-7.4c2.64-2.85,6.06-4,9.76-4.63C177.62,121.7,179.68,121.56,180.92,121.43Z"/><path class="cls-5" d="M128.67,94.15A45.73,45.73,0,0,1,112,91.32a10.42,10.42,0,0,1-5.22-3.88A6,6,0,0,1,108,79.12a17,17,0,0,1,8.33-3.7,31.9,31.9,0,0,1,10.94-.24,20.59,20.59,0,0,1,11.78,6.88,10.1,10.1,0,0,1,2.38,6.47c.08,2.15-1.16,3.71-3.36,4.53A26,26,0,0,1,128.67,94.15Z"/><path class="cls-12" d="M165.78,232.14a5.25,5.25,0,0,1-2-.49c-.7-.3-1.38-.7-1.33-1.56s.78-1.17,1.47-1.45a4.76,4.76,0,0,1,4,.31,1.39,1.39,0,0,1,0,2.68A5.06,5.06,0,0,1,165.78,232.14Z"/><path class="cls-7" d="M189.8,216.74c1,0,1.77.12,2.12.87s-.24,1.37-.74,1.91a5.24,5.24,0,0,1-3.59,1.5,1.6,1.6,0,0,1-1.64-.8,1.52,1.52,0,0,1,.46-1.75A5.41,5.41,0,0,1,189.8,216.74Z"/><path class="cls-7" d="M185.82,193.33c1.73.19,3.45.5,4.73,1.85s.93,2.47-.68,3.13a7.3,7.3,0,0,1-6.82-1.31,1.85,1.85,0,0,1,.61-3.28A4.59,4.59,0,0,1,185.82,193.33Z"/><path class="cls-7" d="M154.57,178a7,7,0,0,1,4.77,1.79,2.18,2.18,0,0,1,.79,2.21,2,2,0,0,1-1.85,1.4,7,7,0,0,1-5.77-1.7,2.15,2.15,0,0,1-.93-2.39c.35-1,1.26-1.24,2.21-1.37Z"/><path class="cls-7" d="M61.92,202.31c-1.48,0-2.86-.7-3.08-1.66s.57-2.07,2.17-2.77a6.76,6.76,0,0,1,4-.6c.93.16,1.94.43,2.22,1.55s-.55,1.77-1.32,2.33A7.65,7.65,0,0,1,61.92,202.31Z"/><path class="cls-7" d="M93.62,182.33a4.3,4.3,0,0,1,2.09.41,1.56,1.56,0,0,1,1,2,1.5,1.5,0,0,1-.2.4c-1.08,1.92-4.93,3.14-7,2.21a1.61,1.61,0,0,1-1.16-2,1.73,1.73,0,0,1,.52-.83A6.84,6.84,0,0,1,93.62,182.33Z"/><path class="cls-13" d="M117.1,125.21a1.75,1.75,0,0,1-1.64-.85c-.3-.67.16-1.16.57-1.56a4.76,4.76,0,0,1,3.17-1.35,1.41,1.41,0,0,1,1.41.68,1.31,1.31,0,0,1-.34,1.5A4.89,4.89,0,0,1,117.1,125.21Z"/><path class="cls-12" d="M97.53,131.6h.39c1.68,0,2.87.83,2.78,1.85s-1.63,1.59-3.09,1.38h-.13c-1-.28-2.33-.32-2.22-1.72S96.71,131.75,97.53,131.6Z"/><path class="cls-7" d="M190.94,129.67c-.74,0-1.54,0-1.79-.93s.39-1.44,1.09-1.85a4.07,4.07,0,0,1,2.24-.56c.74,0,1.56.07,1.76.92s-.43,1.34-1.08,1.73A3.91,3.91,0,0,1,190.94,129.67Z"/><path class="cls-12" d="M172.09,136.77a5.72,5.72,0,0,1-2.48-.74,1.4,1.4,0,0,1-.82-1.33c.09-.69.67-.92,1.26-1.09a4.17,4.17,0,0,1,2.54.23c.77.33,1.65.72,1.52,1.7S172.86,136.54,172.09,136.77Z"/><path class="cls-12" d="M112.29,86.68a4.3,4.3,0,0,1,2.71.93,1.11,1.11,0,0,1,.36,1.54,1.06,1.06,0,0,1-.7.5,3.46,3.46,0,0,1-2.93-.11c-.75-.33-1.61-.77-1.47-1.74S111.5,86.82,112.29,86.68Z"/><path class="cls-7" d="M132.55,82.86c-1,0-1.85,0-2.05-.92s.43-1.27,1-1.65a4.23,4.23,0,0,1,2.87-.7,1.36,1.36,0,0,1,1.3.88c.21.63-.17,1.06-.59,1.42A3.6,3.6,0,0,1,132.55,82.86Z"/><rect class="cls-14" width="250" height="250"/></svg>