<svg id="Layer_1" data-name="Layer 1" xmlns="http://www.w3.org/2000/svg" viewBox="0 0 250 250"><defs><style>.cls-1{fill:#d03b57;}.cls-2{fill:#d5c997;}.cls-3{fill:#eee2b0;}.cls-4{fill:#ef5b72;}.cls-5{fill:#f3888f;}.cls-6{fill:#dea54d;}.cls-7{fill:#f4edd0;}.cls-8{fill:#d09348;}.cls-9{fill:#f3878f;}.cls-10{fill:#a61e3e;}.cls-11{fill:#ddae70;}.cls-12{fill:#e4b160;}.cls-13{fill:#d39c56;}.cls-14{fill:#daa765;}.cls-15{fill:#c48447;}.cls-16{fill:#ef5a71;}.cls-17{fill:#ee5a71;}.cls-18{fill:#ee5b72;}.cls-19{fill:#ec586f;}.cls-20{fill:#f1848d;}.cls-21{fill:#c63451;}.cls-22{fill:#e14f68;}.cls-23{fill:#bb7840;}.cls-24{fill:#bb7841;}.cls-25{fill:#bb7740;}.cls-26{fill:#bb7741;}.cls-27{fill:#ba7740;}.cls-28{fill:#ebbf75;}.cls-29{fill:#a71f3e;}.cls-30{fill:#f1c983;}.cls-31{fill:#c17f42;}.cls-32{fill:#c17e41;}.cls-33{fill:#c17e42;}.cls-34{fill:#ea576f;}.cls-35{fill:none;}</style></defs><title>products</title><path class="cls-1" d="M196.36,224.16c0,8.3,0,16.6,0,24.9,0,1.11-.71.93-1.49.93h-134c-.56,0-1.12,0-1.67-.05-.33-2.87-.07-5.74-.14-8.62,0-.53.51-.61.95-.69,1.32-.25,2.65-.43,4-.64a191.85,191.85,0,0,0,37.37-9.3,133,133,0,0,0,13.66-5.91,10.18,10.18,0,0,1,2.08-.93c1-.08,2-.11,2.93-.11h73.59C194.59,223.76,195.57,223.55,196.36,224.16Z"/><path class="cls-2" d="M196.37,119.7V213c0,.56,0,1.1-.05,1.65a2.28,2.28,0,0,1-1.46.29H133c-1-.18-.73-.64-.27-1.09.7-.67,1.5-1.28,2.23-1.93,2.07-1.86,4.41-3.48,6.19-5.58a1.65,1.65,0,0,1,.75-.31,4.87,4.87,0,0,0,3.7-2.44c.47-.85.78-.84,1.43-.08.13.17.23.35.35.52a4.9,4.9,0,0,0,4.37,2.14,5.19,5.19,0,0,0,4.47-2.44c.24-.36.29-.93.9-.93s.57.56.78.93a4.27,4.27,0,0,0,2.55,2.07,5.33,5.33,0,0,0,6.56-2.12c.19-.33.22-.88.78-.86s.61.54.79.87a5.37,5.37,0,0,0,6.2,2.27,4.32,4.32,0,0,0,3.32-4.65,4.22,4.22,0,0,0-2.08-2.84c-1.26-.93-1.28-1,0-1.79a4,4,0,0,0-.72-7.44c-.37-.13-.86-.23-.86-.68s.51-.53.87-.67a4,4,0,0,0,.05-7.7,4.84,4.84,0,0,1-.73-.34c-.46-.26-.54-.53,0-.8.27-.14.57-.25.86-.37a4,4,0,0,0,2.68-3.86,3.88,3.88,0,0,0-2.64-3.64,3.17,3.17,0,0,1-.37-.16c-.34-.18-.91-.22-.87-.65s.56-.48.93-.64c3.73-1.61,4-5.66.51-7.61-1.25-.69-1.25-.76,0-1.48a4,4,0,0,0,1.79-5.62c-1-1.81-3.82-2.69-6.24-2-.53.15-1.13.74-1.68,0a74.36,74.36,0,0,1,1.5-7.82c1.18-6.4,2-12.82,2.76-19.26a29.28,29.28,0,0,1,.73-5.87,1,1,0,0,1,.4-.29,5.09,5.09,0,0,1,1.65-.15h18.37A2.77,2.77,0,0,1,196.37,119.7Z"/><path class="cls-3" d="M141.4,206.56c-1.74,2.22-4.25,3.83-6.36,5.76-.85.78-1.74,1.53-2.62,2.29a3.89,3.89,0,0,1-2.52.41H60.56a3.86,3.86,0,0,1-1.51-.15V121.21c0-.43,0-.87,0-1.3a.86.86,0,0,1,.35-.19,43.21,43.21,0,0,1,8.2.09c.67.59.47,1.34.47,2v72.63c0,6.51,5.07,11.47,12.68,12.38,7.86.92,15.72-4.74,15.79-11.49.06-4.3,0-8.62,0-12.92,0-1,.85-1.64,1.35-2.41.37-.6.66-.07.78.23a4.79,4.79,0,0,0,2.5,2.44,5.43,5.43,0,0,0,6.94-2c.19-.34.17-.93.71-.93s.61.52.78.85a5.31,5.31,0,0,0,3.54,2.48,2.18,2.18,0,0,1,2.43,2.07,3.61,3.61,0,0,0,2.55,2.65c.4.17,1,.25.94.75s-.53.52-.9.67a4.29,4.29,0,0,0-2.82,4.18,3.84,3.84,0,0,0,1.9,3c1.25.93,1.24.93-.18,1.68a4.08,4.08,0,0,0-2.42,4.77c.26,1.41,2,2.79,3.92,3.18a5.29,5.29,0,0,0,5.1-1.8c.14-.2.26-.42.4-.63s.27-.73.78-.74.63.42.79.73A4.61,4.61,0,0,0,129,206a5.45,5.45,0,0,0,5.63-2c.24-.35.4-.72.66-1.06s.61-.33.74,0C136.88,205.23,139.15,205.88,141.4,206.56Z"/><path class="cls-4" d="M59,52.5V44.68c0-.7.19-1.06,1.08-.93H175.37c.51,0,1,0,1.53,0a1.35,1.35,0,0,1,.42,1.1c0,2.2,0,4.41,0,6.61a1.48,1.48,0,0,1-.37,1.12,2.6,2.6,0,0,1-1.47.27H93.24a1.24,1.24,0,0,1-.5-.07c-1.34-.7-2.5-1.63-3.93-2.21A16.16,16.16,0,0,0,74,51.6a9.61,9.61,0,0,1-2.2,1.24c-3.81.21-7.63.07-11.44.08A1.72,1.72,0,0,1,59,52.5Z"/><path class="cls-1" d="M196.36,57.78v52.87a2.53,2.53,0,0,1-1.82.42H177.26a3.66,3.66,0,0,1-1.63-.26.81.81,0,0,1-.3-.76c0-4.36.34-8.71.4-13a2.85,2.85,0,0,1,.12-.58c.07-.61.66-.67,1.2-.8,4.49-1.14,6.38-3.59,5.87-7.56a3.67,3.67,0,0,0-1.36-2.27c-1.15-1-1.11-1.09.3-1.74a3.72,3.72,0,0,0,2.46-4,3.9,3.9,0,0,0-3.06-3.61,13.26,13.26,0,0,0-3.41-.54c-.6,0-1.25,0-1.53-.6a3.3,3.3,0,0,1-.16-1.29V59.36a2.22,2.22,0,0,1,.37-1.6,2.48,2.48,0,0,1,1.45-.33h16.85A2.17,2.17,0,0,1,196.36,57.78Z"/><path class="cls-4" d="M116.83,224.14a17.35,17.35,0,0,1-4,2.12,153.65,153.65,0,0,1-30.37,10.5c-7.31,1.77-14.74,3.07-22.22,4.17-.88.14-1,.44-1,1.08v8c-.36-.11-.27-.38-.27-.59q0-12.62.07-25.22a2.4,2.4,0,0,1,1.7-.35h54.36A2.44,2.44,0,0,1,116.83,224.14Z"/><path class="cls-4" d="M59.05,110.64V57.79a2.39,2.39,0,0,1,1.69-.39c2.13-.06,4.27.07,6.4-.11.52,0,1,0,1.28.5,0,1.49-.34,3-.33,4.47q.06,23.13,0,46.23a3.13,3.13,0,0,1-.38,2.19,2,2,0,0,1-1.29.37q-3,0-6.12,0A1.72,1.72,0,0,1,59.05,110.64Z"/><path class="cls-4" d="M59,214.89a3.46,3.46,0,0,1,1.9-.22h69.56c.65,0,1.29,0,1.94,0s1.21,0,1.82,0h62.11v4.94a.46.46,0,0,1-.43-.21,6.93,6.93,0,0,1-.24-2.94c0-.83-.4-1.24-1.41-1.22H134.36a6,6,0,0,0-4,1.24c-1.13.93-2.44,1.7-3.77,2.6a3.43,3.43,0,0,0,1.68.18h65.21a4.17,4.17,0,0,1,2.67.4c-.12.53-.65.5-1.09.56a13.67,13.67,0,0,1-1.81,0c-21.84,0-43.67.25-65.49-.08-22.29-.32-44.57,0-66.86-.22a2.53,2.53,0,0,1-1.76-.26Z"/><path class="cls-2" d="M59.1,219.61h1.82c20.88,0,41.77-.16,62.65,0,23.62.23,47.25,0,70.87.13a2.62,2.62,0,0,0,1.74-.19h.24v4.53c-.55,0-1.11-.07-1.66-.07H118.81c-.65,0-1.3,0-2,.06H59.06a.33.33,0,0,1,0-.24,4,4,0,0,1,2.54-.39h52.24a11.27,11.27,0,0,0,6.85-1.8c.67-.49,1.47-.83,2.24-1.36a4,4,0,0,0-1.69-.16H61.58a3.84,3.84,0,0,1-2.54-.39A.27.27,0,0,1,59.1,219.61Z"/><path class="cls-3" d="M59,219.84h65.24c-1.21,1.15-2.71,1.68-3.92,2.53a9.62,9.62,0,0,1-5.91,1.55q-27.7-.09-55.41,0Z"/><path class="cls-1" d="M176.87,52.53V43.78c6.21,0,12.43,0,18.64-.07.78,0,.88.34.87.88,0,2.63,0,5.28,0,7.92a2.51,2.51,0,0,1-1.81.41H178.69A2.62,2.62,0,0,1,176.87,52.53Z"/><path class="cls-5" d="M67.65,120l-8.64,0v-5a.35.35,0,0,1,.42.12,4.76,4.76,0,0,1,.25,2.34c0,1.93,0,1.93,2.35,1.94h3.63c1.21,0,1.64-.33,1.57-1.31q0-.93,0-1.86a1.51,1.51,0,0,1,.46-1.32,3.18,3.18,0,0,1,1.49-.21H95.37a4.66,4.66,0,0,1,1.39.13,1,1,0,0,1,.41.3,7.38,7.38,0,0,1,.25,3.06c0,.85.42,1.24,1.43,1.21H172a7.78,7.78,0,0,1,2.63.18.39.39,0,0,1,.27.38v.1a2.84,2.84,0,0,1-1.73.33H97c-9.26.08-18.52,0-27.77,0A2.45,2.45,0,0,1,67.65,120Z"/><path class="cls-2" d="M176.87,52.53h19.49v5.28c-4.72,0-9.37-.06-14.06-.07h-5.7a4.18,4.18,0,0,1-2.55.38H98.89a11.08,11.08,0,0,1-2.23-.1,1.26,1.26,0,0,1-.48-.23.33.33,0,0,1,.12-.41,5.91,5.91,0,0,1,2.6-.26h74.43c2.95,0,3.39-.44,3.07-2.91-.08-.67-.4-1-1.2-1h-79a21.32,21.32,0,0,1-2.65-.07A2,2,0,0,1,93,53a.29.29,0,0,1-.2-.37c.65,0,1.3-.05,1.95-.05Z"/><path class="cls-2" d="M175.49,110.64h20.85V115a3.48,3.48,0,0,1-1.87.35H175.11a20.81,20.81,0,0,1-2.09,0H99.68a4.51,4.51,0,0,1-2.7-.37v-.1a.56.56,0,0,1,.35-.34,7.41,7.41,0,0,1,2.48-.18h72.28c3.28,0,2.94,0,3-2.39a2.91,2.91,0,0,1,.14-.93A.89.89,0,0,1,175.49,110.64Z"/><path class="cls-1" d="M175.21,115H194.3a6,6,0,0,1,2.06.06v4.73a1.8,1.8,0,0,1-1.06.21H174.92v-.17A7.53,7.53,0,0,1,175.21,115Z"/><path class="cls-3" d="M96.15,57.55v.16a2.26,2.26,0,0,1-1.8.44H70.08a2.73,2.73,0,0,1-1.84-.4,27.92,27.92,0,0,0-4.09,0c-1.69,0-3.39,0-5.1.07v-5.3H72.12a5,5,0,0,1,2.14-.36H90.37a4.91,4.91,0,0,1,2.14.36l.28.08v.17a3.08,3.08,0,0,1-2.11.38H73.82c-2,0-4.25,1.73-4.48,3.37,0,.36.08.52.48.59a10.74,10.74,0,0,0,1.39,0H93.78a5.25,5.25,0,0,1,2.19.21Z"/><path class="cls-3" d="M97,114.73v.14c-1.15,0-2.31.06-3.46.06H67.65c-2,.64-4.08.32-6.13.29a4,4,0,0,1-2.26-.3H59v-4.31h8.62l.18.17a5,5,0,0,1,.26,2.45c0,.83.41,1.08,1.27,1.08H94.6a5.48,5.48,0,0,1,2.2.22Z"/><path class="cls-3" d="M97,120H174.9c-.21,3.42-.61,6.8-1,10.23q-.52,4.44-1.19,8.87c-.62,4.17-1.43,8.31-2.36,12.42-.13.58-.27,1.16-.39,1.73-.25,1-1.25,1.62-1.69,2.53a.47.47,0,0,1-.7.19.58.58,0,0,1-.15-.19c-.2-.27-.34-.56-.53-.83a5.47,5.47,0,0,0-8.78,0c-.14.2-.25.41-.38.63-.33.57-.69.57-1.09.05-.18-.23-.31-.48-.47-.72a5.49,5.49,0,0,0-8.71-.08c-.15.21-.26.42-.4.63-.41.57-.95.59-1.24,0-.89-1.82-2.69-2.5-4.72-2.94a1.18,1.18,0,0,1-.29-.93c0-1.75-1.2-2.85-2.89-3.65-.35-.16-.91-.22-.93-.62s.51-.52.88-.66a4.07,4.07,0,0,0,.55-7.62c-1.28-.65-1.23-.77,0-1.49a4.09,4.09,0,0,0,2.24-4.53,4.82,4.82,0,0,0-4-3.26,5.41,5.41,0,0,0-5.27,2l-.06.19c-1,1.38-1,1.39-1.9.07a5.2,5.2,0,0,0-4.72-2.25,5,5,0,0,0-4.27,2.47c-.2.3-.25.77-.79.76s-.66-.48-.88-.83a5.38,5.38,0,0,0-9.24.22c-.59.83-.91.85-1.37,0a5.49,5.49,0,0,0-9.37,0c-.47.83-.79.81-1.38,0a4.58,4.58,0,0,1-.88-1.86c-.15-3.11,0-6.21,0-9.3A1.48,1.48,0,0,1,97,120Z"/><path class="cls-6" d="M141.19,152.44a5.28,5.28,0,0,1,5.17,3.48,5.62,5.62,0,0,1,5.5-3.49,5.37,5.37,0,0,1,5.3,3.54,5.5,5.5,0,0,1,5.91-3.52,5.25,5.25,0,0,1,4.78,3.48,7.55,7.55,0,0,1,2.12-2.72,6.65,6.65,0,0,1,6.28,0c3.33,1.86,3.09,6.15-.42,7.77l-.89.41c2.53.77,3.77,2.37,3.76,4.39,0,2.23-1.5,3.84-4.35,4.57,2.78.75,4.35,2.23,4.34,4.52s-1.51,3.81-4.35,4.55c2.76.78,4.36,2.27,4.34,4.56s-1.35,3.79-4.27,4.53c2.6.85,4.05,2.16,4.23,4.34s-1.2,3.53-3.41,4.65c2.79,1.56,4.28,3.53,2.83,6.37a5.07,5.07,0,0,1-5,2.66,5.4,5.4,0,0,1-5.25-3.77,5.06,5.06,0,0,1-5.38,3.72c-2.63,0-4.55-1.21-5.22-3.62a6,6,0,0,1-10.9.15c-.74,2.2-2.6,3.12-4.92,3.54-2.86-.1-4.8-1.25-5.74-3.72a5.28,5.28,0,0,1-5.33,3.72,5.09,5.09,0,0,1-5.34-3.66c-1.37,2.92-3.64,4.17-7.07,3.43a4.62,4.62,0,0,1-3.64-3.71c-.22-2.7.73-4,3.83-5.22-1.93-1.14-3.33-2.48-3-4.65s1.67-3.34,4-4.14c-.68-.3-1.26-.5-1.78-.79a3.48,3.48,0,0,1-2-2.43,2,2,0,0,0-2.13-2,3.42,3.42,0,0,0,2.41-1.86,3.82,3.82,0,0,1,3.23-2,5.16,5.16,0,0,1-2.78-1.37,4.21,4.21,0,0,1-1.25-3.51,3.37,3.37,0,0,1,1.2-2.72,9.21,9.21,0,0,1,2.13-1.47,8.36,8.36,0,0,1-2.91-2.61c-1.14-2.15-.49-4.18,2.2-6.32-3.08-1.15-3.93-3.27-3.28-5.85.45-1.86,2-2.91,4.09-3.36,2.55-.56,4.52.26,6.77,2.68a7.46,7.46,0,0,1,1.45-1.56,6,6,0,0,1,3.8-1.24,5.86,5.86,0,0,1,4.32,1.53,3.43,3.43,0,0,1,1.08,1.64,5.62,5.62,0,0,1,3.45-2.89A2.45,2.45,0,0,1,141.19,152.44Z"/><path class="cls-7" d="M97,120v11a1.92,1.92,0,0,1-1.24-.46c-2.83-1.4-5.8-.76-7.42,1.63-.74,1.08-1,1.08-1.73,0a5.34,5.34,0,0,0-5.5-2.29,4.63,4.63,0,0,0-3.92,3.57c-.38,1.67.63,3.41,2.56,4.38,1.44.74,1.44.74.15,1.64-2.85,2-2.56,5.42.6,7.12a9.37,9.37,0,0,0,.86.38q1.19.48,0,.93a5.38,5.38,0,0,0-2.43,1.52c-1.89,2.41-1,5.21,2,6.51.35.14.94.13.93.57s-.53.5-.89.68c-2.55,1.26-3.29,2.47-2.94,4.73.23,1.44,1.31,2.31,2.66,3s1.27.78,0,1.43c-3.4,1.73-3.71,5.21-.67,7.31,1.13.78,1.15.83-.23,1.49a4,4,0,0,0-2.62,4.36c.26,1.91,1.63,3.14,3.82,3.66a5.29,5.29,0,0,0,5.5-2.15c.85-1.29.94-1.29,1.81-.11,1.81,2.48,4.41,3,7.38,1.56.31-.15.59-.43,1-.26.45.35.26.82.26,1.24v11.74c0,5.87-5.46,11.08-12.28,12a16.09,16.09,0,0,1-12.57-3.29c-2.81-2.19-4.5-5-4.5-8.36V120Z"/><path class="cls-8" d="M96.71,182.14c-3.56,2.43-6.84,1.73-9.34-2.09A4.93,4.93,0,0,1,85,182.78a6,6,0,0,1-3.86.68c-2.6-.46-4.21-2-4.49-4.26-.25-2,1.13-3.72,3.93-4.78-5.1-2.83-3.14-7.76,1.07-8.81-2.53-.93-4.16-2.32-4.14-4.65s1.66-3.72,4.27-4.55c-2.78-.83-4.23-2.4-4.32-4.54-.07-1.92,1.49-3.61,4.19-4.52-5-1.57-5.67-6.4-1.1-8.86-3-1.44-4.23-3-3.84-5.05a5.07,5.07,0,0,1,4.19-4c2.68-.48,4.53.43,6.52,3.19,2.81-3.72,5.89-4.3,9.54-1.76l1.23,2a5.5,5.5,0,0,1,5.89-3.43,5.27,5.27,0,0,1,4.79,3.52,5.45,5.45,0,0,1,5.38-3.54,5.3,5.3,0,0,1,5.37,3.6,5.83,5.83,0,0,1,10.71-.18c1.75-2.74,3.52-3.72,6.29-3.4a5.25,5.25,0,0,1,4.42,3.5c.57,2.14-.47,3.85-3.39,5.43,2.51,1,3.81,2.65,3.48,5-.29,2-1.76,3.22-4.14,3.9,1.91.64,3.34,1.52,3.92,3.14a13.38,13.38,0,0,1,.26,2,5.58,5.58,0,0,0-5.56,3.49,8.79,8.79,0,0,0-1.23-2,2.83,2.83,0,0,1-.44-1.94V139.37a3.7,3.7,0,0,0-1.1-3,4.92,4.92,0,0,0-3.54-1.13H89c-3.6,0-5,1.16-5,4.21v33.8c0,3.18,1.45,4.42,5.27,4.42H114a3.75,3.75,0,0,1,2.27.37c1,.36,1.69,1.18,2.89,1.3a5.6,5.6,0,0,0-3.93,3.41c-.38.93-1.35.34-2,.53a5.17,5.17,0,0,1-4.26-3.48,5,5,0,0,1-2,2.69,6.19,6.19,0,0,1-3.49,1,5.42,5.42,0,0,1-5.16-3.66A7.1,7.1,0,0,1,96.71,182.14Z"/><path class="cls-9" d="M92.51,52.52H72.09C77.64,47.75,87.07,47.76,92.51,52.52Z"/><path class="cls-4" d="M96.43,57.76H176.6V75.57c-.22.48-.79.53-1.25.64a7.59,7.59,0,0,0-4.52,2.6c-.41.52-1,.93-1.39.06-1.27-2.92-5.62-3.56-9-2.38a11,11,0,0,0-4.89,3.37,14.14,14.14,0,0,0-3.36,8.42,4.15,4.15,0,0,1-.07.7,1.39,1.39,0,0,1-1.64,1.16c-1-.11-.78-.86-.65-1.42.6-2.79,1.38-5.49,2-8.25.31-1.28.61-2.55-.4-3.71-.42-.52,0-.93.46-1.2a3.87,3.87,0,0,0,1.72-2,2.84,2.84,0,0,0-1-3.56,4.3,4.3,0,0,0-4.17-.54c-2.64.93-3.56,3.51-1.95,5.51.65.78.58,1.24-.43,1.64a12.55,12.55,0,0,0-2,1,1.19,1.19,0,0,1-1.67-.2c-1.57-1.54-2.91-1.77-5.19-1-.45.15-.94.52-1.41.15s-.16-.75-.08-1.12c.24-1.14.65-2.23.79-3.38.3-2.24-.68-3.12-3.34-3.17a8.1,8.1,0,0,0-4.9,1.63,2.13,2.13,0,0,0-.57,3.37c1.33,1.74.15,4.94-2.11,5.76-.43.16-.79.12-.86-.28a4.35,4.35,0,0,0-3.14-3,9.47,9.47,0,0,0-6.13,0A10.16,10.16,0,0,0,111.15,79a8.88,8.88,0,0,1-4,2.12c-1.19.38-1.93-.21-1.57-1.29a1.91,1.91,0,0,0-.72-2.15,7.61,7.61,0,0,0-6-1.71c-.78,0-1.57.35-2.11-.45a4.72,4.72,0,0,1-.17-1.76V62.27a13.39,13.39,0,0,0-.25-3.41A1.08,1.08,0,0,1,96.43,57.76Z"/><path class="cls-4" d="M176,96.2c.55.67-.07,1.34,0,2,.25,3.84-.38,7.68-.26,11.52a1.5,1.5,0,0,1-.25.93v.09a3.26,3.26,0,0,1-1.88.34H98.89a3.63,3.63,0,0,1-1.89-.3,1.18,1.18,0,0,1-.43-.93c0-4.4-.17-8.81.07-13.22.15-.57.68-.81,1.26-1A14.31,14.31,0,0,0,105.15,90l.21-.31c.25-.32.45-.82,1-.71s.46.64.49,1a6.18,6.18,0,0,0,1.77,3.83c2,2.11,5.55,2.71,8.75,1.56a14,14,0,0,0,5.28-3.59c.4-.39.71-1.2,1.38-.93s.15,1,.12,1.53a5.35,5.35,0,0,1-.25,1.05c-.4,1.54.11,2.18,2,2.42,2.79.37,4.62-.63,5.5-3,.16-.43.07-1.14.71-1.17s.86.63,1.15,1.07c.14.2.25.41.38.63a5.27,5.27,0,0,0,7.07,1.86,3.52,3.52,0,0,1,3.55,0,7.11,7.11,0,0,0,6.63-.27c2-1.12,3.39-1.26,5.5,0,2.36,1.42,5.34,1.18,7.94.3,2.21-.74,4.13-1,6.22.17,1,.57,2.26.31,3.42.36A3.51,3.51,0,0,1,176,96.2Z"/><path class="cls-10" d="M176,96.2c-2.21,0-4.58.49-6.54-.66-1.57-.93-2.74-.61-4.27-.07-3,1-6.23,1.46-9-.06a4.76,4.76,0,0,0-5.31,0,7.35,7.35,0,0,1-7.92-.29c-.62-.44-.92,0-1.32.17-3.19,1.55-5.69,1.33-7.72-.74a8.15,8.15,0,0,1-.93-1.31c-.29-.44-.54-.93-.93-1.58a18,18,0,0,1-.91,2.52c-1.22,2.36-5.36,2.7-7.59,1.26-.57-.37-.41-.86-.32-1.31.24-1,.53-2.06.7-3.14a26.84,26.84,0,0,1-3.25,3,11,11,0,0,1-8.22,2.21,6.85,6.85,0,0,1-6.06-6,1.74,1.74,0,0,0-.25-1.29A14.94,14.94,0,0,1,97,96.21a7.8,7.8,0,0,1-7.31-1.43,1.83,1.83,0,0,0-2.57-.24A16.37,16.37,0,0,1,78.5,96.6c-4.36-.15-7.86-2.95-8.14-6.67a13.93,13.93,0,0,1,4.56-11.48,11.07,11.07,0,0,1,9.66-3c4.6.66,6.06,4.38,4.3,7.17A5,5,0,0,1,82,84.19c-1.12-.67-1.22-1-.69-2.14a9.11,9.11,0,0,0-1.84,6.33c.09,1.41,1,2,2.59,1.74a12.55,12.55,0,0,0,2.64-.75,4.07,4.07,0,0,0,2.78-3.12,14.24,14.24,0,0,1,5.39-8.68A7,7,0,0,1,97,75.79c2.08-.15,4.14-.38,6.14.43a7,7,0,0,1,2.83,2.2c.41.51.11,1-.07,1.47s-.34.67.08.93a1.12,1.12,0,0,0,1.17,0,11.84,11.84,0,0,0,3.93-2.31A10.59,10.59,0,0,1,121.41,76c2.13.64,3.37,1.86,3.6,3.61,2.35-.79,2.64-2.59,3-4.39.08-.46-.31-.71-.61-1a2.44,2.44,0,0,1-.42-3,2,2,0,0,1,.73-.71,9.29,9.29,0,0,1,6.4-1.86c1.75.16,2.81,1.05,2.86,2.53,0,1.86-.84,3.53-1.09,5.47a10.47,10.47,0,0,1,3.53-.88,3.66,3.66,0,0,1,3.23,1.49c.35.58.59.61,1.22.2.91-.59,2-1,3-1.54-1.85-2.1-2-3.66-.47-5.43A4.89,4.89,0,0,1,151,69a3.64,3.64,0,0,1,3.19,2.67,3.43,3.43,0,0,1-1.75,4c-.78.48-1.1.74-.3,1.49s.52,1.74.31,2.62c-.72,3-1.5,6.08-2.26,9.13-.1.39-.33.79,0,1.12s.53,0,.78-.08c.47-.2.79-.38.79-.93a14.06,14.06,0,0,1,4.58-10.39,10.41,10.41,0,0,1,9.8-2.62c1.74.38,2.75,1.3,3.84,3.44,1.38-2.39,3.86-3.23,6.55-3.79a23.53,23.53,0,0,1,3.14.19c3.09.56,4.72,1.8,4.91,4,.27,2.58-.78,4-3.75,5,.67.85,1.84,1.36,2.12,2.44,1.09,4.23-.79,7.75-6.13,8.8C176.62,96,176.26,96,176,96.2Z"/><path class="cls-9" d="M97,75.79A13.59,13.59,0,0,0,87.71,87a3,3,0,0,1-1.83,2.21,12.64,12.64,0,0,1-4.14,1.34c-1.38.17-2.49-.38-2.6-1.44a9.19,9.19,0,0,1,2.52-7.89c.44.36.13.67,0,.89-.78.93-.17,1.49.79,2a5,5,0,0,0,4.63.11,3.87,3.87,0,0,0,2.24-4.06c-.19-3.82-4.41-4.74-7.57-4.4a10.9,10.9,0,0,0-8,4.65c-2.58,3.5-3.89,7.27-2.45,11.39,1,2.78,3.75,4.4,7.19,4.56a16,16,0,0,0,9-2.27c.84-.49,1.3-.69,2,.2a6.31,6.31,0,0,0,4.81,2H97v14.37l-.19.17a4.13,4.13,0,0,1-1.9.26H69.64a3.53,3.53,0,0,1-2-.34v-50a12.15,12.15,0,0,1,.58-3H96.13l.3.06a12.75,12.75,0,0,1,.56,4C97,66.41,97,71.09,97,75.79Z"/><path class="cls-1" d="M196.14,219.63H125.28c.79-1,2.07-1.45,3-2.19s2-1.39,3-2.12a2.32,2.32,0,0,1,1.53-.45H194.9c1,0,1.3.27,1.26,1.09-.07,1.22,0,2.44,0,3.67Z"/><path class="cls-4" d="M175.21,115a21.57,21.57,0,0,1-.31,4.75H98.79c-1.81,0-1.81,0-1.81-1.53V115h78.23Z"/><path class="cls-4" d="M59.25,114.94h8.39c0,1.23,0,2.45,0,3.67,0,.78-.19,1.14-1.22,1.11-2-.06-4,0-6,0-.9,0-1.25-.2-1.21-1C59.31,117.46,59.25,116.21,59.25,114.94Z"/><path class="cls-3" d="M93.06,52.78h82.25c1.26,0,1.57.38,1.57,1.38,0,3.39,0,3.39-3.93,3.39H96.15C95.24,55.88,93.87,54.46,93.06,52.78Z"/><path class="cls-7" d="M93.06,52.78c1.29,1.46,2.67,2.87,3.07,4.74H69.75c-1.44,0-1.41,0-.85-1.21,1.22-2.53,3-3.82,6.6-3.63,5.74.33,11.53.09,17.28.08Z"/><path class="cls-3" d="M97,110.64c.59,0,1.2,0,1.8,0h76.7v3.08c0,.65-.21.93-1,.93H97a4.19,4.19,0,0,1,0-4Z"/><path class="cls-7" d="M97,110.73v4H69c-1.07,0-1.37-.31-1.3-1.16s0-1.86,0-2.85Z"/><path class="cls-11" d="M126.59,153.64a5,5,0,0,0-1.68,2.33c-1.15-2.87-3.48-3.9-6.56-3.44a4.34,4.34,0,0,0-3.92,3.14c-.66,2.72.39,4.81,3.84,5.78-4.23,2.05-4.71,7,.79,8.91-.25.26-.6.08-.88.15a18.52,18.52,0,0,0-2.24,1.19,34.63,34.63,0,0,1-5,0,1.38,1.38,0,0,1-.63-.23,2,2,0,0,0-2.81,0,1.94,1.94,0,0,1-.5.2,29.81,29.81,0,0,1-5,0,1.07,1.07,0,0,1-.51-.17,2.16,2.16,0,0,0-3,0,1.39,1.39,0,0,1-.5.19,20.54,20.54,0,0,1-3.76.05c-1.8-.1-3.2-1.21-3.24-2.73q-.21-5.38,0-10.77a.71.71,0,0,1,.14-.32c1.31-1.57,1.31-1.57,0-3.07a1.85,1.85,0,0,1-.25-.93c0-3.34-.06-6.68,0-10a3.32,3.32,0,0,1,.62-1.67,1.21,1.21,0,0,1,.5-.48c1.9-.93,3.93-.61,6-.51.16.06,0-.08.12,0a2.86,2.86,0,0,0,3.58,0,33.37,33.37,0,0,1,5.29,0,3.51,3.51,0,0,0,3.81,0,38.53,38.53,0,0,1,5,0,1.48,1.48,0,0,1,.74.27,2,2,0,0,0,2.56,0,1.72,1.72,0,0,1,.79-.26,24.44,24.44,0,0,1,3.63,0c1.73.09,3.14,1,3.26,2.44a67.7,67.7,0,0,1,.08,9.23A1.43,1.43,0,0,1,126.59,153.64Z"/><path class="cls-12" d="M121,179.52V161.85c0-2.35,1.85-3.91,4.61-3.91h41.64c2.76,0,4.6,1.57,4.6,3.92v34.9c0,2.84-1.82,4.37-5.18,4.38H126.16c-2.94,0-5.27-1.7-5.2-4.41C121.1,191,121,185.25,121,179.52Z"/><path class="cls-13" d="M116.25,178.09H88.62c-3.32,0-5.05-1.5-5.05-4.32V138.9c0-2.51,1.77-4,4.71-4h41.53c2.79,0,4.62,1.55,4.63,3.92v15.06a5.88,5.88,0,0,0-4.18-1.42,2.06,2.06,0,0,1-.44-1.7V142c0-2.33-1.14-3.36-3.88-3.37q-16.89-.06-33.78,0c-2.77,0-4.15,1.17-4.16,3.52q-.07,14.35,0,28.7c0,2.31,1.25,3.31,4,3.32h20.94a3.77,3.77,0,0,1,2.28.37C114.83,175.87,115.58,177,116.25,178.09Z"/><path class="cls-14" d="M115.12,174.53H91.4c-2.41,0-3.93-1.25-3.93-3.32V141.8c0-2.16,1.66-3.57,4.2-3.57H126.3c2.47,0,3.92,1.25,3.92,3.31v10.92a5.41,5.41,0,0,0-3.63,1.18v-9c0-2.17-1.09-3.09-3.65-3.09h-3.35c-.29-.23-.3-.56-.42-.85a1.24,1.24,0,0,0-1.3-.93,1.23,1.23,0,0,0-1.17.93c-.12.29-.12.62-.42.85h-5.64c-.26-.18-.28-.46-.36-.72a1.25,1.25,0,0,0-1.31-1,1.22,1.22,0,0,0-1.29,1,1,1,0,0,1-.36.73h-5.84c-.29-.67,0-1.69-1.35-1.74s-1.43.87-1.68,1.65a.51.51,0,0,1-.08.09c-2.06.11-4.17-.31-6.15.48-.24-.39.14-.77,0-1.15A1.27,1.27,0,0,0,91,139.82a1,1,0,0,0-1.17.92c-.11.63.14,1.08,1,1.2a2,2,0,0,1,1.15.31,6.64,6.64,0,0,0-.56,3.45v8a2.06,2.06,0,0,0,.29,1.36,1,1,0,0,1-.6.27c-.68.09-1.31.27-1.39.93s.48,1.06,1.14,1.33a1.35,1.35,0,0,1,.57.32V168.7c0,1.72,1.2,2.73,3.19,2.75h3.8c.43.61.26,1.64,1.57,1.66s1.28-1.06,1.83-1.65h5.58a.84.84,0,0,1,.38.6,1.12,1.12,0,0,0,1.2.93,1.35,1.35,0,0,0,1.37-.82,1.52,1.52,0,0,1,.41-.73h5.59c.18.15.17.3,0,.46C115.67,172.7,115,173.49,115.12,174.53Z"/><path class="cls-15" d="M116.26,171.91v-.46a2.17,2.17,0,0,1,1.95-.93Z"/><path class="cls-3" d="M132.07,84.92c3.76-.56,5.38-2.73,4.31-5.64a1,1,0,0,1,.44-1.34,4,4,0,0,1,3.52-.64c1.22.35,1.3,1.36,1.31,2.28.06,2.63-1.68,4.36-4.15,5.58-.79.39-.9.71-.64,1.4a10.75,10.75,0,0,0,1.86,3.55,2.75,2.75,0,0,0,2.75,1,2.62,2.62,0,0,0,2.19-2c.53-2.52,1.26-5,1.83-7.53.1-.46.78-1.59-.92-1a.4.4,0,0,1-.53-.25,1.17,1.17,0,0,1,.06-1.26c.83-1.19,4.33-2.29,5.88-1.86a1.26,1.26,0,0,1,1,1.73c-.61,2.56-1.24,5.11-1.86,7.66-.25,1-.55,2-.7,3-.25,1.63.59,2.22,2.45,1.73a12.13,12.13,0,0,0,1.89-.74,1.15,1.15,0,0,0,.75-1.24,12.76,12.76,0,0,1,3.44-9.3,8.74,8.74,0,0,1,7.46-3c2.93.17,4.32,1.66,3.92,4.14a6,6,0,0,1-2.2,3.72,25.94,25.94,0,0,1-6.53,4c-.94.44-.87.86-.44,1.5a3.76,3.76,0,0,0,3.56,1.45,10.43,10.43,0,0,0,3.11-.63c1-.35,1.83-.69,2.19-1.74.45-1.34,1.92-2,3.51-1.81.86.09,1.52.27.83,1.17a2.07,2.07,0,0,0-.28.79,2.09,2.09,0,0,0,1.57,2.78A3.37,3.37,0,0,0,177.34,91c.67-1.18.34-2.06-1.13-2.91-1-.56-2-1-2.93-1.63a4.58,4.58,0,0,1-2.23-5.16c.4-2,1.75-3.26,4-3.92a10.47,10.47,0,0,1,5.36-.14c2.48.56,3.59,3.15,2.14,5a2.58,2.58,0,0,1-2.24,1c-1.37,0-1.57-.28-1.24-1.41a3.51,3.51,0,0,0,.13-1.17,1.46,1.46,0,0,0-1.28-1.51,2,2,0,0,0-2.07.67,2.78,2.78,0,0,0,.65,4.25A19.65,19.65,0,0,0,179,85.37c3.71,1.93,3.79,6.51,0,8.37a11.87,11.87,0,0,1-8.48.73,2.22,2.22,0,0,1-1.09-.5c-1.13-1.45-2.3-.93-3.66-.23a11.53,11.53,0,0,1-4.8,1.13c-3,.12-5.4-.68-6.87-3.14a19.16,19.16,0,0,1-3.66,2.36,8.93,8.93,0,0,1-3.61.79c-1.8,0-3.14-.63-3.71-2.32A23,23,0,0,1,140,94.42a4,4,0,0,1-5-1.07,13.45,13.45,0,0,1-2.36-5.65c-.09-.33.09-.93-.55-.93s-.68.55-.79,1c-.37,1.58-.78,3.17-1.17,4.75-.47,1.86-2.13,2.69-4.26,2.27-.79-.15-1-.41-.83-1.15,1-3.72,1.91-7.56,2.85-11.33a2.55,2.55,0,0,1,.08-.67l-3.15,2.25c-.3.21-.19.51-.21.77-.35,4.1-2.7,7.21-6.79,9.3-5,2.5-9.75.11-9.86-4.78a14,14,0,0,1,1.24-5.71l-3,.93c-.57.17-.53.58-.6.93a11.71,11.71,0,0,1-5.79,8.08C95.5,96.13,91.54,95.22,89.29,91a17.5,17.5,0,0,1-7.37,3.65,12.25,12.25,0,0,1-3.3.28c-4-.27-6.41-2.44-6.35-6.12a12.27,12.27,0,0,1,5-10,8.84,8.84,0,0,1,7.64-1.6c2.45.54,3.59,3.19,2.15,5a2.57,2.57,0,0,1-2,1c-1.64.09-1.91-.19-1.57-1.55.16-.66.65-1.48-.33-1.93a2.45,2.45,0,0,0-2.67.5c-2.21,1.93-2.82,4.4-3.09,6.95a7.24,7.24,0,0,0,0,1.86c.32,2,2,3,4.37,2.79a14,14,0,0,0,6.73-2.7,1.59,1.59,0,0,0,.62-1.36,12.68,12.68,0,0,1,4.71-8.74,8.75,8.75,0,0,1,7.69-1.86,5,5,0,0,1,2.52,1.42c.29.28.46.57.19.92a1.1,1.1,0,0,1-1.15.49h-.28c-4-1.15-6,.84-7.22,3.07A8.34,8.34,0,0,0,94.74,90c.65,2,2.35,2.42,4.24,1.11a5.76,5.76,0,0,0,2.57-5.49c0-.37,0-.8-.7-.84-1.45-.08-1.67-.93-1.62-1.93a2.3,2.3,0,0,1,2.1-2.07,3.73,3.73,0,0,1,3.74,1.36,1,1,0,0,0,1.35.37,13.81,13.81,0,0,0,5.87-3,8.55,8.55,0,0,1,8.15-2.29A4.86,4.86,0,0,1,123,78.6a.75.75,0,0,1,.13,1.08,1,1,0,0,1-1.09.39c-1.78-.42-3.56-.71-5.18.4a8.55,8.55,0,0,0-3.36,5.31,7.15,7.15,0,0,0,.18,4.34c.69,1.86,2.36,2.27,4.1,1.08a5.84,5.84,0,0,0,2.68-5.82c0-.37-.23-.56-.69-.59-1.66-.11-1.67-1.14-1.57-2.17a2.13,2.13,0,0,1,2.15-1.86,3.74,3.74,0,0,1,3.26,1,.76.76,0,0,0,1.2.09l0,0L128.45,79c.56-.43.51-1.08.65-1.64.29-1.12.58-2.24.79-3.37.06-.31.32-.84-.51-.84-1.1,0-1.47-.47-1-1.26.75-1.22,4.27-2.38,5.83-1.93,1.24.36,1.22,1.18,1,2-.79,3.21-1.57,6.41-2.4,9.62C132.62,82.71,132.37,83.74,132.07,84.92Z"/><path class="cls-3" d="M149.54,75.12c-1.57,0-2.57-.78-2.6-2.06A2.91,2.91,0,0,1,150,70.27c1.57,0,2.73.85,2.73,2.12A3,3,0,0,1,149.54,75.12Z"/><path class="cls-16" d="M143.61,82.59c-.55,2.19-1,4.38-1.67,6.51-.26.93-1.16,1-1.86.28a7.75,7.75,0,0,1-1.4-2.42c-.24-.49,0-.83.52-1.1a8.74,8.74,0,0,0,3.51-3.59c.1-.2.08-.49.47-.49S143.63,82.15,143.61,82.59Z"/><path class="cls-17" d="M169.26,83.33a11.28,11.28,0,0,0,1.13,2.41c.43.48-.11.62-.5.68a4.42,4.42,0,0,0-3.36,2.4c-.66,1.15-3.54,2.06-4.94,1.58-.19-.07-.45-.19-.51-.34s.24-.37.46-.5c1.16-.64,2.36-1.26,3.49-1.94A11.61,11.61,0,0,0,169.26,83.33Z"/><path class="cls-16" d="M116.45,82.84c.18,1.51.39,2.69,2,3.14.36.1.43.32.4.65A4.74,4.74,0,0,1,117,90c-1,.78-1.57.58-1.88-.56C114.47,87.17,115.23,85.15,116.45,82.84Z"/><path class="cls-18" d="M96.81,84.39a1.82,1.82,0,0,1,.79-1.15c.2,1.23.45,2.41,2.09,2.79.26,0,.28.27.31.48.2,1.26-1.44,3.52-2.86,3.93a.37.37,0,0,1-.45-.16A24.19,24.19,0,0,1,96.81,84.39Z"/><path class="cls-19" d="M176,89.9a1.54,1.54,0,0,1-1.57,1.28c-.64,0-1-.43-.92-.93s.06-1.36,1-1.3A1.67,1.67,0,0,1,176,89.9Z"/><path class="cls-20" d="M96.81,84.39a14.55,14.55,0,0,1-.06,5.88c-1-1.49-.79-3.06-.35-4.64A5.46,5.46,0,0,1,96.81,84.39Z"/><path class="cls-21" d="M177,82.08c-.13-.07-.19-.1-.19-.12,0-.48-.11-1,.49-1.32.06,0,.3.09.31.14A1.7,1.7,0,0,1,177,82.08Z"/><path class="cls-22" d="M134.76,80.59a1.4,1.4,0,0,1-.22,1.73l-.18.13Z"/><path class="cls-23" d="M114.88,164.31c.09.8-.57,1.26-1.53,1.38a1.59,1.59,0,0,1-1.83-1.42c0-1,.78-1.47,1.73-1.52A1.43,1.43,0,0,1,114.88,164.31Z"/><path class="cls-24" d="M97,164.14a1.5,1.5,0,0,1-1.44,1.56l-.13,0c-.92,0-1.79-.32-1.83-1.38s.64-1.51,1.65-1.52A1.52,1.52,0,0,1,97,164.14Z"/><path class="cls-25" d="M91.39,158c-1.25-.09-2.21-.78-2.2-1.56s.84-1.29,2.48-1.3C93.21,156.2,93.12,157,91.39,158Z"/><path class="cls-24" d="M101.71,171.46a1.67,1.67,0,0,1-.65,1.61,1.87,1.87,0,0,1-1.94.2,1.33,1.33,0,0,1-.88-1.54,1.19,1.19,0,0,1,.1-.32C99.64,170.19,100.43,170.19,101.71,171.46Z"/><path class="cls-25" d="M98.38,141.54a1.44,1.44,0,0,1,.86-1.91,1.73,1.73,0,0,1,1.82.11,1.23,1.23,0,0,1,.43,1.8C100.32,142.63,99.5,142.63,98.38,141.54Z"/><path class="cls-25" d="M122.2,150.09a1.53,1.53,0,0,1-1.72-1.36c-.15-.81.74-1.47,1.72-1.49a1.59,1.59,0,0,1,1.75,1.37C124.11,149.34,123.16,150.07,122.2,150.09Z"/><path class="cls-26" d="M105.9,164c.07,1.2-.64,1.6-1.57,1.72a1.54,1.54,0,0,1-1.75-1.46c0-.84.44-1.37,1.57-1.38S105.85,163.31,105.9,164Z"/><path class="cls-25" d="M116.27,141.54a1.66,1.66,0,0,1,.68-1.86,1.74,1.74,0,0,1,1.71-.13,1.68,1.68,0,0,1,.93,1.95C118.21,142.68,117.65,142.68,116.27,141.54Z"/><path class="cls-25" d="M104.16,150.11c-1-.11-1.57-.55-1.57-1.45s.6-1.39,1.65-1.42,1.76.63,1.7,1.49S105.21,150,104.16,150.11Z"/><path class="cls-25" d="M98.25,156.45c.06-.93.67-1.35,1.7-1.39a1.56,1.56,0,0,1,1.73,1.37c.16.82-.78,1.52-1.77,1.48A1.63,1.63,0,0,1,98.25,156.45Z"/><path class="cls-25" d="M107.32,141.54c0-.61-.22-1.28.51-1.72a1.87,1.87,0,0,1,1.79-.27,1.6,1.6,0,0,1,1,1.86l0,.12C109.18,142.59,108.42,142.59,107.32,141.54Z"/><path class="cls-25" d="M110.68,156.37a1.62,1.62,0,0,1-1.79,1.52c-1.1,0-1.57-.56-1.57-1.45s.56-1.37,1.63-1.38A1.53,1.53,0,0,1,110.68,156.37Z"/><path class="cls-25" d="M110.65,171.45c0,1.33-.49,1.86-1.62,1.9s-1.68-.45-1.74-1.9C108.6,170.19,109.38,170.19,110.65,171.45Z"/><path class="cls-25" d="M113.31,147.23c.94.11,1.57.54,1.57,1.45s-.59,1.38-1.63,1.4-1.68-.46-1.7-1.33S112.18,147.34,113.31,147.23Z"/><path class="cls-27" d="M97,148.67a1.55,1.55,0,0,1-1.75,1.42c-1-.05-1.57-.54-1.62-1.42s.58-1.43,1.57-1.41S96.9,147.68,97,148.67Z"/><path class="cls-25" d="M91.94,142.24c-2.1,0-2.51-.17-2.54-1.34A1.57,1.57,0,0,1,92,139.83c.46.45.95.93.54,1.56l-.36.63Z"/><path class="cls-28" d="M146.4,197.56c-5.63,0-11.27-.13-16.9,0-3.4.1-4.59-1.93-4.59-4v-28c0-3.3,1.32-4.42,5.2-4.42H163.2c3.15,0,4.72,1.17,4.72,3.86q.08,14.41,0,28.82c0,2-1.31,3.72-4.47,3.67C157.76,197.44,152.07,197.56,146.4,197.56Z"/><path class="cls-25" d="M91,173.35A1.5,1.5,0,0,1,89.21,172c-.11-.68,1-1.58,1.8-1.52A1.72,1.72,0,0,1,92.72,172C92.88,172.7,92,173.34,91,173.35Z"/><path class="cls-25" d="M128.55,141a1.3,1.3,0,0,1-1.57,1.28c-1,0-1.67-.45-1.74-1.33a1.5,1.5,0,0,1,1.72-1.5C127.89,139.55,128.58,139.94,128.55,141Z"/><path class="cls-29" d="M158.6,87.76A11.16,11.16,0,0,1,161,81.15c1-1.2,2.74-1.72,3.59-1.19s.78,1.79-.12,3.08C163.12,85.06,161,86.37,158.6,87.76Z"/><path class="cls-30" d="M139.11,164.55h5.67a4.36,4.36,0,0,0,3.29,0h5.67a4.07,4.07,0,0,0,3.28,0c2.06.12,4.17-.32,6.16.48h0c1,1.17.86,2.51.85,3.85v7.81a2,2,0,0,1-.28,1.37,1.77,1.77,0,0,0,.28,2.87v10.3a3.41,3.41,0,0,1-.84,2.55c0,.17-.05.25-.26.22-1.9.7-3.93.4-5.88.45a3,3,0,0,0-3.36,0h-5.58a3,3,0,0,0-3.37,0h-5.6a.35.35,0,0,1-.37,0c-1-1-2-.42-3,0-2,0-4,.26-5.87-.45-.22,0-.31,0-.27-.23a3.72,3.72,0,0,1-.83-2.55V180.93a1.78,1.78,0,0,0,.29-2.87,2,2,0,0,1-.29-1.37v-8.05a5.45,5.45,0,0,1,.85-3.61h0c2-.8,4.09-.36,6.15-.48A4.12,4.12,0,0,0,139.11,164.55Z"/><path class="cls-31" d="M129.11,178.07c1.57,1.13,1.47,2-.29,2.87-1.57-.22-2.24-.79-2-1.76S128,177.91,129.11,178.07Z"/><path class="cls-31" d="M162.94,194l.26-.22c.78-.22,1.57-.51,2.3.13a1.24,1.24,0,0,1,.35,1.79,1.71,1.71,0,0,1-2,.62,1.39,1.39,0,0,1-1.17-1.54A2.78,2.78,0,0,1,162.94,194Z"/><path class="cls-31" d="M164,180.94c-1.76-.86-1.84-1.72-.28-2.87,1.13-.17,2.06,0,2.31,1.11S165.58,180.72,164,180.94Z"/><path class="cls-31" d="M129.64,193.78l.27.22c.05.4.36.73.27,1.15a1.78,1.78,0,0,1-2.17,1.22,1.25,1.25,0,0,1-1.12-1.72,1.55,1.55,0,0,1,2-1.08A5.41,5.41,0,0,1,129.64,193.78Z"/><path class="cls-32" d="M135.78,194.46c1.26-1.27,2.1-1.27,3.36,0,0,1.32-.49,1.86-1.62,1.91S135.83,195.93,135.78,194.46Z"/><path class="cls-32" d="M153.7,194.47c1.26-1.28,2.1-1.28,3.36,0,0,.86,0,1.71-1.32,1.91S153.71,195.88,153.7,194.47Z"/><path class="cls-32" d="M139.11,164.55c-1.37,1-2,1-3.29,0a1.62,1.62,0,0,1,.78-2,1.8,1.8,0,0,1,1.7.08,1.55,1.55,0,0,1,.82,1.85Z"/><path class="cls-32" d="M157,164.56c-1.26,1-1.92,1-3.28,0a1.52,1.52,0,0,1,.75-1.85h0a1.83,1.83,0,0,1,1.7-.09C157.13,163.05,157.11,163.79,157,164.56Z"/><path class="cls-32" d="M144.73,194.47c1.25-1.27,2.11-1.27,3.37,0a1.54,1.54,0,0,1-.94,1.83l-.14,0a1.84,1.84,0,0,1-2-.48C144.65,195.4,144.78,194.93,144.73,194.47Z"/><path class="cls-33" d="M129.66,165c-1.49.69-3.06,0-2.79-1.39a1.47,1.47,0,0,1,1.87-1.18c1,.15,1.57.73,1.41,1.6a2.75,2.75,0,0,1-.48.93Z"/><path class="cls-32" d="M163.18,165c-.42-.63-.83-1.26-.22-2a1.78,1.78,0,0,1,2-.56,1.36,1.36,0,0,1,1,1.72c-.19.79-.73,1-1.57,1.06a2.89,2.89,0,0,1-1.19-.25Z"/><path class="cls-32" d="M148.07,164.55c-1.42,1-1.88,1-3.29,0a1.61,1.61,0,0,1,.86-1.93l.14,0a1.84,1.84,0,0,1,1.79.25C148.29,163.28,148.1,163.93,148.07,164.55Z"/><path class="cls-34" d="M161.33,83.93a3.58,3.58,0,0,1,2.06-2.71C163.33,82.58,162.36,83.27,161.33,83.93Z"/><path class="cls-31" d="M159.61,173.11c-1-.05-1.64-.58-1.61-1.43s.54-1.48,1.74-1.44,1.67.58,1.66,1.4S160.79,173.1,159.61,173.11Z"/><path class="cls-33" d="M132.38,188.65a1.29,1.29,0,0,1-1.31-1.3s0-.08,0-.11c0-.88.61-1.4,1.58-1.49a1.55,1.55,0,0,1,1.76,1.45C134.4,188.14,133.79,188.65,132.38,188.65Z"/><path class="cls-31" d="M150.93,173.1c-1.2,0-2.06-.69-2-1.48a1.51,1.51,0,0,1,1.7-1.37c1.09,0,1.9.71,1.76,1.47A1.49,1.49,0,0,1,150.93,173.1Z"/><path class="cls-31" d="M143.38,187.31c.07.78-.55,1.26-1.51,1.39a1.84,1.84,0,0,1-1.86-1.43,1.66,1.66,0,0,1,1.72-1.52C142.68,185.8,143.37,186.24,143.38,187.31Z"/><path class="cls-31" d="M148.1,179.42a1.56,1.56,0,0,1-1.73,1.48c-1-.09-1.64-.5-1.63-1.44a1.58,1.58,0,0,1,1.72-1.49C147.39,178.08,148.1,178.5,148.1,179.42Z"/><path class="cls-31" d="M153.69,179.57a1.68,1.68,0,0,1,1.77-1.58c.93.06,1.57.41,1.57,1.3a1.69,1.69,0,0,1-3.34.28Z"/><path class="cls-31" d="M137.44,178c.92.14,1.64.51,1.71,1.42a1.5,1.5,0,0,1-1.73,1.5c-.94-.08-1.66-.51-1.63-1.45A1.46,1.46,0,0,1,137.44,178Z"/><path class="cls-33" d="M132.68,173.13c-1-.11-1.62-.54-1.62-1.45s.59-1.39,1.64-1.42a1.47,1.47,0,0,1,1.71,1.48C134.35,172.6,133.74,173.06,132.68,173.13Z"/><path class="cls-32" d="M143.38,171.63c-.07.93-.57,1.42-1.62,1.47a1.45,1.45,0,1,1,0-2.84C142.81,170.29,143.28,170.8,143.38,171.63Z"/><path class="cls-31" d="M152.32,187.15c0,1-.51,1.43-1.57,1.42s-1.84-.66-1.73-1.46a1.67,1.67,0,0,1,1.78-1.35C151.72,185.77,152.37,186.29,152.32,187.15Z"/><path class="cls-33" d="M161.37,187.48c0,.53-.51,1.09-1.45,1.15a1.6,1.6,0,0,1-1.9-1.33,1.67,1.67,0,0,1,1.66-1.58A1.77,1.77,0,0,1,161.37,187.48Z"/><rect class="cls-35" width="250" height="250"/></svg>