<svg id="Layer_1" data-name="Layer 1" xmlns="http://www.w3.org/2000/svg" viewBox="0 0 250 250"><defs><style>.cls-1{fill:#fefefe;}.cls-2{fill:#969;}.cls-3{fill:#8a548a;}.cls-4{fill:#dedede;}.cls-5{fill:#bc9abc;}.cls-6{fill:#7d497d;}.cls-7{fill:#c5c5c5;}.cls-8{fill:#da9d36;}.cls-9{fill:#633463;}.cls-10{fill:#a06300;}.cls-11{fill:#7e4a7d;}.cls-12{fill:#a06402;}.cls-13{fill:#b97c15;}.cls-14{fill:#fff;}.cls-15{fill:#9a6699;}.cls-16{fill:#da5f57;}.cls-17{fill:#cb5551;}.cls-18{fill:#feb5a2;}.cls-19{fill:#e6867b;}.cls-20{fill:#b34b48;}.cls-21{fill:#c56d65;}.cls-22{fill:#b44b49;}.cls-23{fill:#c94d4a;}.cls-24{fill:#c9504e;}.cls-25{fill:#ef9a90;}.cls-26{fill:#f0a097;}.cls-27{fill:#f2a095;}.cls-28{fill:#f1a399;}.cls-29{fill:#e17266;}.cls-30{fill:#e17166;}.cls-31{fill:#c94c49;}.cls-32{isolation:isolate;}.cls-33{fill:none;}</style></defs><title>products</title><rect class="cls-1" x="53.95" y="38.2" width="136.11" height="73.04"/><path class="cls-2" d="M182.84,58.67c-2.1-.58-4.11-1.47-6.36-1.54a17.93,17.93,0,0,0-8,1.65L163.41,61A9.76,9.76,0,0,1,155,61c-2-.9-4-1.78-6-2.61a15.5,15.5,0,0,0-12.38.06c-1.75.75-3.53,1.45-5.25,2.28a10.35,10.35,0,0,1-9.59.07c-1.64-.81-3.36-1.48-5-2.22a16.21,16.21,0,0,0-13.57.1c-2,.88-4,1.76-6,2.61a8.62,8.62,0,0,1-7-.06c-2.08-.89-4.16-1.77-6.24-2.68a16,16,0,0,0-13.37.09,42.81,42.81,0,0,0-5,2.32c-.25.6-.93.17-1.27.54h0c-.38.43-1,.13-1.4.42h-.15l-.14.08a5.83,5.83,0,0,1-3.41,0l-.12-.07H59a1.31,1.31,0,0,1-.94-.72,9.15,9.15,0,0,1-.27-3.79c.22-3.32.42-6.64.46-10,0-2.2.7-2.76,2.89-3.21,3.08-.62,6.21-.44,9.31-.64,6.21-.42,12.44-.66,18.66-1s12.29-.68,18.43-1.09c5.86-.39,11.73-.63,17.59-1,6.78-.41,13.56-.82,20.34-1.12,7.13-.32,14.26-.92,21.41-.78a10.23,10.23,0,0,0,3.17-.19h28.37c.55,0,1.14-.18,1.62.26h0c.36.33.27.78.27,1.19,0,6.48,0,13,0,19.44a.46.46,0,0,1-.61.23l-.07,0a4.52,4.52,0,0,1-.57-3V43.07c0-3.33,0-3.33-3.25-3.35-2.19,0-4.38.06-6.57,0h-5.07c-1.41,0-2,.43-1.88,2,.48,4.83.89,9.68,1.3,14.52C183.45,57,183.68,58,182.84,58.67Z"/><path class="cls-2" d="M62.27,67.94l.73-.11c.28-.17.64-.14.92-.32a.38.38,0,0,0,.35-.09c.26-.2.62-.13.86-.36h0c.26-.28.66-.24,1-.4a34.61,34.61,0,0,0,4.89-2,15.42,15.42,0,0,1,12.77.07c1.68.74,3.38,1.45,5,2.24a10.52,10.52,0,0,0,9.6.06c1.71-.84,3.5-1.53,5.25-2.3a15.38,15.38,0,0,1,13.14.1c1.94.88,3.9,1.68,5.85,2.54a9,9,0,0,0,7.41.08l4.1-1.74,2.53-1.09a15.29,15.29,0,0,1,12.76.16c1.88.83,3.79,1.59,5.65,2.45a9.53,9.53,0,0,0,8.4,0c1.6-.75,3.25-1.4,4.85-2.16A16.78,16.78,0,0,1,182.89,65c.54.2,1.46-.17,1.41.93a8.34,8.34,0,0,0-.3,3.78c.08.69.32,1.41-.23,2a1.59,1.59,0,0,1-1.44-.07c-5.85-2.67-11.34-1.34-16.7,1.5a16.06,16.06,0,0,1-2.75,1.13,11.08,11.08,0,0,1-8.67-.53c-1.52-.78-3.12-1.34-4.67-2.06-5.5-2.55-10.77-1.61-15.91,1.09a15,15,0,0,1-8.55,2.06,18.27,18.27,0,0,1-6.55-2.39,17.47,17.47,0,0,0-17.1.06,33.64,33.64,0,0,1-3.7,1.61,11.15,11.15,0,0,1-8.69-.2c-2.33-1-4.61-2.17-7-3a15,15,0,0,0-10.4.33c-2.24.88-4.4,2-6.64,2.86a12.16,12.16,0,0,1-5.64.65,2.4,2.4,0,0,1-2-1c0-2-.37-4,.44-5.86a1.23,1.23,0,0,1,1.42,0,.26.26,0,0,0,.31,0A4.82,4.82,0,0,0,62.27,67.94Z"/><path class="cls-3" d="M182.84,58.67c.2-2.47-.34-4.91-.49-7.36s-.44-5-.67-7.55c-.09-1.06-.28-2.09-.42-3.13-.18-1.34.09-1.63,1.47-1.65h6.15c1.24,2.75,1.24,5.75,1.7,8.64.61,3.9.88,7.84,1.39,11.75a4,4,0,0,1-.24,2.28,1.36,1.36,0,0,1-1.65.58c-2.56-.7-5.11-1.44-7.15-3.28A.71.71,0,0,1,182.84,58.67Z"/><path class="cls-1" d="M200,249.54c-.56.65-1.32.42-2,.42H54.9c-2.11,0-2.12,0-2.12-2.33V68a13.54,13.54,0,0,1,.08-2.11c.08-.5.46-.41.77-.11a41.5,41.5,0,0,1,.18,6.5c.06,2,.09,4,0,6,.13,3.54,0,7.09.06,10.63.08,26.15-.11,52.29,0,78.44.07,5.41,0,10.81,0,16.22,0,5,.06,9.91,0,14.87,0,3.67.06,7.35,0,11,0,2.14.06,4.29,0,6.43s.08,4.27,0,6.4.07,4,0,6c.05,5.14.1,10.28,0,15.42.22,1.58-.43,3.25.54,4.73,1,.73,2.06.44,3.09.44H196.11a8.79,8.79,0,0,1,3.57.3Z"/><path class="cls-1" d="M199.87,59.32V38.56a1,1,0,0,1,.48.88V246.91c0,.87.35,1.85-.4,2.63l-.1-.08a2.84,2.84,0,0,1-.5-2c-.08-6.34-.16-12.69,0-19-.07-2,0-4,0-6s-.07-4,0-6c-.1-2.31,0-4.62,0-6.92q-.08-64.29,0-128.57c0-.85,0-1.7.07-2.55-.07-2-.05-4.07,0-6.11s-.05-4.29,0-6.44S198.79,61.39,199.87,59.32Z"/><path class="cls-1" d="M199.92,38.6H169.75c-4,.35-7.91.21-11.86.31-27.1.63-54.2.2-81.3.31h-20a6.69,6.69,0,0,1-3.13-.4l-.31-.29c.56-.64,1.31-.41,2-.41H197.94C198.6,38.13,199.42,37.86,199.92,38.6Z"/><path class="cls-4" d="M182.93,59a48.5,48.5,0,0,1,4.67,1.89,10.26,10.26,0,0,0,3.85,1l.28.25a7.22,7.22,0,0,1,.66,4.51,1.64,1.64,0,0,1-1.49,1.75,9.9,9.9,0,0,1-6.68-2.63c-.29-.53-1-.3-1.33-.79a1.91,1.91,0,0,0,.35-2.12A14.71,14.71,0,0,1,182.93,59Z"/><path class="cls-5" d="M53.2,72.08V67.27c0-.53-.14-1.14.46-1.5h0c.21.28.6.16.84.39a.52.52,0,0,0,.32.07,1.8,1.8,0,0,1,.52.34.84.84,0,0,0,.38.08c.27.21.66.14.91.4h0c.22.25.59.17.84.37a.77.77,0,0,0,.4.07c.16.06.22.13.18.22s-.08.14-.13.14v3.83a3.18,3.18,0,0,1-.41,2C55.7,74.06,54.43,73.11,53.2,72.08Z"/><path class="cls-1" d="M53.6,59.84c-1.15-.24-.82-1.17-.82-1.89V40.75c0-.75-.28-1.58.4-2.21h0a2.78,2.78,0,0,1,.61,2c0,6.3.1,12.61,0,18.91A2,2,0,0,1,53.6,59.84Z"/><path class="cls-1" d="M59.15,61.93H62.6A3.21,3.21,0,0,1,59.15,61.93Z"/><path class="cls-1" d="M62.27,67.94a2.85,2.85,0,0,1-2.8,0Z"/><path class="cls-1" d="M62.85,61.89a1.9,1.9,0,0,1,1.4-.42C63.92,62.06,63.37,61.92,62.85,61.89Z"/><path class="cls-1" d="M58.32,61.48l.56.41c-.52,0-1.06.15-1.44-.37l.18-.18A.63.63,0,0,1,58.32,61.48Z"/><path class="cls-1" d="M64.23,61.48c.31-.44.82-.42,1.27-.54C65.28,61.62,64.73,61.49,64.23,61.48Z"/><path class="cls-1" d="M56.6,61.12c-.46,0-1,0-1.26-.45l.24-.21a.83.83,0,0,1,1.1.35Z"/><path class="cls-1" d="M57.89,67.85a1.12,1.12,0,0,0,0-.36c.48,0,1-.11,1.32.41Z"/><path class="cls-1" d="M63.92,67.51a.92.92,0,0,1-.92.32A.92.92,0,0,1,63.92,67.51Z"/><path class="cls-1" d="M65.13,67.06a.86.86,0,0,1-.86.36A.9.9,0,0,1,65.13,67.06Z"/><path class="cls-1" d="M57.44,67.42a.83.83,0,0,1-.84-.37A.89.89,0,0,1,57.44,67.42Z"/><path class="cls-1" d="M66.09,66.67a1.16,1.16,0,0,1-1,.4A.9.9,0,0,1,66.09,66.67Z"/><path class="cls-1" d="M56.6,67.05a1,1,0,0,1-.91-.4A.82.82,0,0,1,56.6,67.05Z"/><path class="cls-1" d="M54.47,66.16a.88.88,0,0,1-.84-.39A.88.88,0,0,1,54.47,66.16Z"/><path class="cls-1" d="M57.44,61.52a1,1,0,0,1-.86-.4h0c.48-.32.8-.23.9.36Z"/><path class="cls-1" d="M55.32,60.67a.94.94,0,0,1-.86-.41l.2-.18c.41-.07.72,0,.72.52Z"/><path class="cls-1" d="M54.46,60.26a1,1,0,0,1-.85-.42h0c.48-.28.81-.24.86.4Z"/><path class="cls-1" d="M55.31,66.57l-.51-.34Z"/><path class="cls-5" d="M54.5,60.2a1,1,0,0,0-.86-.4,2.8,2.8,0,0,1-.48-1.8q0-9.72.07-19.44H169.74a3,3,0,0,1-2.25.33c-4.53-.2-9,.36-13.55.54-5.07.19-10.14.55-15.21.83s-10.28.54-15.42.85-10.13.59-15.2.86-10,.56-15,.85-10.13.59-15.2.85c-4.86.25-9.7.75-14.57.8-1.13,0-2.2.5-3.36.42a1,1,0,0,0-1,.89,2.85,2.85,0,0,0-.18,1c.23,4.89-.68,9.74-.45,14.62h-.82a1.07,1.07,0,0,0-.9-.36c-.3-.43-.77-.43-1.22-.49A1.11,1.11,0,0,0,54.5,60.2Z"/><path class="cls-6" d="M191.45,61.88c0-2.59-.52-5.14-.77-7.71s-.66-5.41-.94-8.12c-.24-2.37-1-4.66-.86-7.07h8.93c1.63,0,1.68.05,1.68,1.68V59.37c0,.07.07.16,0,.2-1.42,1.86-6,3.22-8.14,2.44Z"/><path class="cls-7" d="M191.4,62a15.93,15.93,0,0,0,8.1-2.64,1.15,1.15,0,0,0,.37,0c0,2.19,0,4.37-.05,6.55-2.19,1.88-4.91,2.44-7.63,3-.67-.08-1.44,0-1.69-.88.9,0,1.4-.36,1.38-1.4A18,18,0,0,0,191.4,62Z"/><path class="cls-8" d="M53.2,72.08c1.51.3,2.8,1.21,4.26,1.64a9.33,9.33,0,0,0,7.24-.11c2-.8,3.92-1.63,5.85-2.53,4.76-2.22,9.47-1.87,14.15.25,1.49.67,3,1.33,4.45,2a10.07,10.07,0,0,0,8.63.13c1.88-.82,3.79-1.59,5.65-2.44,4.71-2.16,9.35-1.81,14,.27,1.22.55,2.49,1,3.67,1.66,3.77,2,7.47,1.7,11.19-.15,1.26-.63,2.59-1.15,3.87-1.74a16,16,0,0,1,13.57,0c1.37.58,2.76,1.13,4.06,1.83a11.43,11.43,0,0,0,11,0c1.47-.71,3-1.37,4.45-2a14.9,14.9,0,0,1,11.17-.55c1.14.4,2.26.82,3.39,1.23l.27.28a10.25,10.25,0,0,1,0,5.6c-.78,1-1.7.5-2.52.15-4.48-1.93-8.85-1.37-13.16.54-1.56.69-3.14,1.32-4.68,2a10.7,10.7,0,0,1-8.86.06c-2.16-.89-4.26-1.92-6.44-2.76a14.91,14.91,0,0,0-11.18,0c-1.91.74-3.81,1.53-5.66,2.42a11.24,11.24,0,0,1-9.85.15c-1.81-.8-3.61-1.64-5.45-2.37a15.41,15.41,0,0,0-12.38,0c-1.75.76-3.53,1.48-5.26,2.27A10.68,10.68,0,0,1,89,80c-.57-.28-1.2-.44-1.75-.75-6.84-4-13.6-3.56-20.4.18C64,81,60.92,81.77,57.66,80.56c-1.46-.87-3.39-.92-4.43-2.52C53.21,76.13,53.21,74.11,53.2,72.08Z"/><path class="cls-3" d="M190.5,68c.52.49,1.19.29,1.79.39,1,1.73.41,3.68.7,5.51a1.06,1.06,0,0,1-.35.59c-3.49.86-6.22-.83-8.89-2.7v-.15a16.06,16.06,0,0,1-.42-4.69c0-.63.18-1.08.87-1.16l3.87,1.58A6.21,6.21,0,0,0,190.5,68Z"/><path class="cls-2" d="M58.25,80.56c3.33,1.08,6.37.22,9.41-1.2,2.87-1.34,5.73-2.73,9-3.06a16.1,16.1,0,0,1,7.63,1.22c2.17.86,4.3,1.82,6.44,2.75a8.66,8.66,0,0,0,7,.17l7.23-3a15.17,15.17,0,0,1,12.14.12c1.89.78,3.8,1.53,5.64,2.43a10.53,10.53,0,0,0,9.59-.22,51.47,51.47,0,0,1,7.25-3,14.94,14.94,0,0,1,10.14.69c2,.81,3.93,1.61,5.84,2.52A10.36,10.36,0,0,0,165,79.8c2-.93,4-1.76,6-2.56a14.81,14.81,0,0,1,11.73.33,5,5,0,0,0,1.81.57,1.38,1.38,0,0,1,.44.6,25.51,25.51,0,0,1,.63,5.9c0,11.76.18,23.52-.08,35.27-.16,7.28-.59,14.55-1.12,21.82a290.82,290.82,0,0,1-3.52,30.15,93.9,93.9,0,0,1-5.18,19,26.56,26.56,0,0,1-8.59,10.86c-4.43,3.49-9.58,5.75-14.56,8.28a2.84,2.84,0,0,1-1.8-.1,16.92,16.92,0,0,0-15.52.63c-1,.52-2.09.87-3.12,1.35a11.05,11.05,0,0,1-9.45.16c-1.56-.67-3.12-1.34-4.66-2.07a16.23,16.23,0,0,0-14.15-.08c-.58.26-1.17.51-1.73.81-5,2.67-9.82,3.05-14.93.17A17.78,17.78,0,0,0,76.4,208.4c-.75-.09-1.49.25-2.23,0a38.68,38.68,0,0,0-4.9-5.25A102.87,102.87,0,0,1,55.6,187,22.89,22.89,0,0,1,54,184c-.14-5.39-.08-10.78,0-16.17a93,93,0,0,0,.32-11.2q.15-12.42.76-24.81c.54-10.59,1-21.18,1.51-31.77.24-4.87.69-9.74.57-14.63C57.12,83.74,57.09,82,58.25,80.56Z"/><path class="cls-6" d="M199.75,228.34c.24,2.32.09,4.64.1,7V249.5c-.78,0-1.56.07-2.34.07H55.59c-.78,0-1.68.39-2.34-.4,1.16-1,2.56-.67,3.88-.67H197a1.84,1.84,0,0,0,0-3.67H57.33c-1.39,0-2.86.33-4.1-.67q-.23-7.82,0-15.64c1-.49,1.78.19,2.56.58a11,11,0,0,0,10,.07c2.94-1.34,5.83-2.92,9.14-3.25a2.16,2.16,0,0,1,.67.08,12.44,12.44,0,0,1,2,1.62c5.64,5.75,12.92,6.91,20.45,7.26,17.45.81,34.52-1.61,51.31-6.27a8.84,8.84,0,0,1,2.28-.43,4.17,4.17,0,0,1,.71.06,17.86,17.86,0,0,1,2.54,1,10.4,10.4,0,0,0,9-.14,53.45,53.45,0,0,1,6.43-2.73,17.08,17.08,0,0,1,11.81.4c2,.78,3.88,1.7,5.83,2.53a10,10,0,0,0,8.22,0C197.29,228.88,198.38,228.07,199.75,228.34Z"/><path class="cls-9" d="M53.23,244H198.45a.91.91,0,0,1,1,.81.61.61,0,0,1,0,.19.74.74,0,0,0,0,.21c.33,3.83.33,3.83-3.58,3.83H53.25A24.26,24.26,0,0,1,53.23,244Z"/><path class="cls-3" d="M53.22,183.61c.86.46,1.18,1.38,1.67,2.13a118.24,118.24,0,0,0,7.8,10.18c3,3.65,6.58,6.74,9.8,10.18.44.47,1.28.82.7,1.72a1.21,1.21,0,0,1-.83.88c-3.13,1.1-6,2.77-9.23,3.68a1.36,1.36,0,0,1-.91-.11c-2.37-4.08-5.2-7.85-7.76-11.81-.43-.65-.85-1.29-1.24-2Q53,191.07,53.22,183.61Z"/><path class="cls-5" d="M57.47,80.18c-.55,3.5-.26,7-.5,10.57-.42,6.35-.6,12.7-.87,19-.26,6.07-.52,12.13-.88,18.19-.17,3-.14,6.07-.35,9.1-.45,6.48-.62,13-.93,19.46-.15,3-.2,6.07-.33,9.1,0,.62.16,1.29-.38,1.81,0-.43-.08-.85-.08-1.27v-88C54.6,78.94,56.16,79.27,57.47,80.18Z"/><path class="cls-10" d="M74.88,226.12a40.64,40.64,0,0,0-8.28,3.16,11.6,11.6,0,0,1-11.67-.11c-.55-.31-1.15-.53-1.72-.79a41.4,41.4,0,0,1,0-6.1c1.07-.57,2,.1,2.79.52,3.62,1.84,7.11,1.4,10.59-.35a7.85,7.85,0,0,1,3.78-1.27C72.25,222.49,74.17,223.75,74.88,226.12Z"/><path class="cls-6" d="M70.6,221.43a11.86,11.86,0,0,0-3.34,1.31c-4,2.21-8,2.54-12.09.33a16.29,16.29,0,0,0-2-.79,44.16,44.16,0,0,1,0-6.3,2.42,2.42,0,0,1,2.19.36,11.35,11.35,0,0,0,10.29.43c1.41-.21,2.15.73,2.91,1.67a26.39,26.39,0,0,1,2,2.39A.53.53,0,0,1,70.6,221.43Z"/><path class="cls-7" d="M66,217.21c-.46.16-.94.29-1.4.47a8.58,8.58,0,0,1-7,.08c-1.42-.62-2.87-1.19-4.31-1.78l-.06-6.39c.19-.1.4-.23.59-.14a48,48,0,0,0,8.37,2.6H63a8.4,8.4,0,0,1,3.61,4.53C66.5,216.93,66.18,217,66,217.21Z"/><path class="cls-6" d="M62.14,212.05c-2.34.45-4.42-.39-6.5-1.28-.83-.36-1.64-.79-2.46-1.18V198.5a4.74,4.74,0,0,1,1.64,1.6c2.36,3.46,4.51,7.08,7.08,10.41A1.25,1.25,0,0,1,62.14,212.05Z"/><path class="cls-6" d="M199.75,78.15c0,.56.1,1.13.1,1.69V209.47a10.13,10.13,0,0,1-8.52,3.14,13.66,13.66,0,0,1-8.67-3.8,3.77,3.77,0,0,1,.39-2.06c4.13-9.91,5.91-20.39,7.31-30.94,1.45-10.95,2.15-22,2.64-33,.65-14.45.31-28.9.22-43.35a91.71,91.71,0,0,0-.62-13.15,18.12,18.12,0,0,1,0-4.88,2,2,0,0,1,.24-.67A14.74,14.74,0,0,1,199.75,78.15Z"/><path class="cls-10" d="M199.75,228.34c-1.35.61-2.7,1.24-4.07,1.81a9.15,9.15,0,0,1-7.22,0c-2-.81-3.93-1.62-5.85-2.52-5-2.32-9.87-2-14.75.3-1.15.53-2.36,1-3.47,1.57-3.56,1.92-7.06,1.67-10.57-.08-.51-.25-1-.52-1.51-.79.22-1.18,1.31-1.13,2.1-1.4a109.54,109.54,0,0,0,13.82-5.72,5.58,5.58,0,0,1,.52-.32,9.92,9.92,0,0,0,1-.62,9.2,9.2,0,0,1,2.33-.92,14.27,14.27,0,0,1,9.12.59,57,57,0,0,1,5.63,2.4,10.73,10.73,0,0,0,10.34,0c.77-.4,1.6-1,2.56-.38A37.4,37.4,0,0,1,199.75,228.34Z"/><path class="cls-6" d="M199.76,222.27a13.5,13.5,0,0,0-3.73,1.47,9.8,9.8,0,0,1-8.57-.21c-1.29-.58-2.6-1.12-3.88-1.72-3.73-1.76-7.59-2.64-11.71-1.65a.62.62,0,0,1,.27-.73,83.09,83.09,0,0,0,7.15-5.53,4.64,4.64,0,0,1,3.25.65c1.47.68,3,1.21,4.45,2a10.63,10.63,0,0,0,10.15,0c.81-.38,1.77-1.48,2.73-.13Z"/><path class="cls-7" d="M199.87,216.41a.88.88,0,0,0-1-.12c-.5.25-1,.46-1.53.72a10.8,10.8,0,0,1-10.55.05c-1.51-.78-3.09-1.41-4.65-2.07a6.52,6.52,0,0,0-3-.78.52.52,0,0,1,0-.54c1.43-1.31,2-3.22,3.32-4.63a.68.68,0,0,1,.56,0c1.79.8,3.57,1.61,5.37,2.38a9,9,0,0,0,7.54,0,22.75,22.75,0,0,0,4-1.87Z"/><path class="cls-11" d="M192.71,74.28c-.67-1.94-.37-3.94-.42-5.92a25.6,25.6,0,0,0,5.58-1.8,4.52,4.52,0,0,1,1.95-.69q0,3.1,0,6.21C197.65,73.56,195.6,75.11,192.71,74.28Z"/><path class="cls-12" d="M192.71,74.28a13.23,13.23,0,0,0,4.93-1.43,7.65,7.65,0,0,1,2.13-.77,41,41,0,0,1,0,6.07c-2.19.87-4.24,2.13-6.64,2.4-1.57-1.94-1.28-4-.39-6.1Z"/><path class="cls-13" d="M192.72,74.45c0,2-.27,4.1.39,6.11v.15a3.32,3.32,0,0,1-3.06.28c-2.24-.63-4.57-1.11-6.27-2.9a.76.76,0,0,0-.05-.33v-6a4.75,4.75,0,0,1,2,.75A16.38,16.38,0,0,0,192.72,74.45Z"/><path class="cls-3" d="M183.81,78.09c1.35.54,2.71,1.07,4,1.64a12.31,12.31,0,0,0,5.29,1,146.57,146.57,0,0,0,.51,14.82c.64,11.6.11,23.2.33,34.8.05,2.69.14,5.39,0,8.08-.23,3.52-.23,7.06-.48,10.57-.27,3.86-.32,7.74-.81,11.58-.46,3.62-.64,7.27-1.13,10.9s-.82,7-1.38,10.45a125.48,125.48,0,0,1-5.66,23.16,24.09,24.09,0,0,0-1.54,3.93h-.4c-1.39.2-2.59-.57-3.9-.8A17.39,17.39,0,0,0,168,209.81c-1.59.74-3.22,1.4-4.83,2.11-3.62,1.6-9.17.42-11.68-2.4.36-.81,1.18-1,1.86-1.32,3.84-1.95,7.77-3.74,11.27-6.3s7-5.57,8.93-9.72a64.71,64.71,0,0,0,3.88-11c1.47-5.59,2.4-11.28,3.31-17,.44-2.76.68-5.59,1-8.37.45-3.63.57-7.28,1.14-10.9a51.42,51.42,0,0,0,.38-6.32c.11-4,.42-7.89.61-11.83.69-14.36.13-28.72.38-43.08C184.27,81.84,183.6,80,183.81,78.09Z"/><path class="cls-8" d="M165.53,167.61a40.47,40.47,0,1,1-40.41-40.53h.13a40.26,40.26,0,0,1,40.28,40.24Z"/><path class="cls-14" d="M157.3,156.92a1,1,0,0,0,.4,1.34,3,3,0,0,1,.33.54c.66.84-.45,1.77.13,2.59a2.4,2.4,0,0,1,.29,2.57,1,1,0,0,0,.09,1,2,2,0,0,1,.27.58c.06.26.19.62.08.78-1,1.38.4,3-.53,4.4a1.44,1.44,0,0,0-.16,1.63.38.38,0,0,1,0,.15c0,.32.07.79-.11.93-1.41,1.08-.16,3.07-1.44,4.15a1.26,1.26,0,0,0-.55,1.37.43.43,0,0,1,0,.16c0,.38,0,.9-.25,1.06-1.56.86-.76,3.14-2.41,3.89a.94.94,0,0,0-.63,1,1.71,1.71,0,0,1,0,.32c0,.33-.15.77-.4.84-1.69.49-1.49,2.68-3,3.27-.59.23-1,.45-1.15,1.13a1.75,1.75,0,0,1-1.31,1.3c-.62.18-1.17.27-1.4,1.07a1.55,1.55,0,0,1-1.47,1.07,1.32,1.32,0,0,0-1.37.87c-.14.35-.47.76-.8.73-1.73-.17-2.46,1.92-4,1.79a1.72,1.72,0,0,0-1.62.66c-.2.22-.6.48-.82.42-1.68-.48-2.88,1.41-4.51.9a1.16,1.16,0,0,0-1.3.2,3.64,3.64,0,0,1-.86.43c-.91.43-1.69-.88-2.72-.12a2.11,2.11,0,0,1-2.55-.22c-.26-.19-.49,0-.74.07s-.6.22-.9.31c-1,.32-1.58-1.08-2.65-.69a2.25,2.25,0,0,1-2.51-.58.79.79,0,0,0-.87-.22,1.83,1.83,0,0,1-.46.12c-.32,0-.78,0-.92-.18-1.06-1.37-3.13-.51-4.13-1.89A1.31,1.31,0,0,0,109,196c-.45,0-1-.05-1.17-.38-.6-1.7-2.89-1-3.52-2.62a1.25,1.25,0,0,0-1.13-.93,1.81,1.81,0,0,1-1.43-1.17c-.26-.59-.5-1.12-1.24-1.31a1.7,1.7,0,0,1-1.25-1.34,1.41,1.41,0,0,0-1-1.28c-.42-.13-.91-.48-.9-.84,0-1.73-2.19-2.18-2.09-3.89a1.06,1.06,0,0,0-.59-1.18c-.39-.18-.88-.64-.79-1,.55-1.83-1.92-2.75-1.3-4.55a.81.81,0,0,0-.23-1,2,2,0,0,1-.58-2.21,1.49,1.49,0,0,0-.28-1.46,1.81,1.81,0,0,1-.29-1.83c.23-.62.45-1.12,0-1.75a1.56,1.56,0,0,1-.06-1.82,1.46,1.46,0,0,0,.13-1.75,1.16,1.16,0,0,1-.08-1.07c1.2-1.3-.16-3.16,1-4.42a1.06,1.06,0,0,0,.34-1.26c-.17-.39-.2-1,.11-1.22,1.48-1,.55-3,1.83-4,.49-.4.84-.72.74-1.42-.05-.41,0-1,.42-1.16,1.6-.66,1-2.91,2.64-3.5a1.17,1.17,0,0,0,.89-1.16.85.85,0,0,1,.09-.31c.14-.22.26-.59.45-.63,1.65-.4,1.79-2.46,3.3-3a1.65,1.65,0,0,0,1.27-1,1.69,1.69,0,0,1,1.62-1.12,1.23,1.23,0,0,0,1.21-.82,1.82,1.82,0,0,1,1.68-1,1.43,1.43,0,0,0,1.47-.73,1.58,1.58,0,0,1,.22-.23c.71-.89,1.94-.15,2.61-.73a2.78,2.78,0,0,1,2.4-1,1.3,1.3,0,0,0,1.3-.38,1.88,1.88,0,0,1,2.08-.46,1.41,1.41,0,0,0,1.46-.24c.29-.22.77-.49,1-.38,1.26.5,2.44.07,3.64-.14a.87.87,0,0,1,.63.09,1.62,1.62,0,0,0,2,.06h.15c.27,0,.65-.09.78,0,1.25,1.33,3.18-.19,4.41,1.09a1,1,0,0,0,1.14.33l.47-.09c1.12-.16,1.59,1.2,2.46,1.2a2.74,2.74,0,0,1,2.43.85,1.32,1.32,0,0,0,1.33.66.43.43,0,0,1,.16,0c.39,0,.9.11,1,.39.64,1.65,2.9,1.09,3.54,2.67.19.47.39.89,1,.84a.63.63,0,0,1,.3.07c.35.15.87.3.9.62.22,1.78,2.64,1.64,2.86,3.35a1.1,1.1,0,0,0,.84,1,1.32,1.32,0,0,1,.42.23c.23.22.61.48.61.71-.07,1.78,2.32,2.23,2.13,4a1,1,0,0,0,.57,1,2,2,0,0,1,.9,1.93,1.47,1.47,0,0,0,.55,1.38A2.32,2.32,0,0,1,157.3,156.92Z"/><path class="cls-14" d="M75.33,207.47A16.39,16.39,0,0,1,84.42,209c1.87.83,3.76,1.64,5.65,2.43a8.82,8.82,0,0,0,7.22,0c2.28-1,4.56-1.94,6.85-2.88a15.42,15.42,0,0,1,12.38.19c2,.83,3.9,1.67,5.84,2.54a9.78,9.78,0,0,0,8.42-.09c2.07-.92,4.14-1.84,6.24-2.68a15.37,15.37,0,0,1,13.14.66c0,1.55-1.43,1.59-2.38,2a125.77,125.77,0,0,1-23.43,6.25c-.69.11-1.38.27-2.08.33a3.06,3.06,0,0,1-1-.13c-1.45-.55-2.89-1.14-4.3-1.8a15.79,15.79,0,0,0-13.53-.1c-2.78,1.21-5.45,2.75-8.51,3.22a9.16,9.16,0,0,1-5.16-.76c-2.72-1-5.33-2.21-7.94-3.45a60.62,60.62,0,0,1-6.14-5.17C75.16,209,74.13,208.35,75.33,207.47Z"/><path class="cls-4" d="M122.06,217.25c3.57-.72,7.15-1.37,10.7-2.18A116.2,116.2,0,0,0,149,210a1.68,1.68,0,0,0,1.12-.86l1.29.39c1.22.55,2.44,1.1,3.65,1.67a9.89,9.89,0,0,0,8.58-.09c2.84-1.22,5.57-2.73,8.64-3.39A14.4,14.4,0,0,1,182.6,209a20.25,20.25,0,0,1-2.43,4.3,9.21,9.21,0,0,1-2.27.92c-4.3-.71-8.05,1-11.81,2.68-.78.34-1.57.65-2.34,1a10.39,10.39,0,0,1-9.42-.18c-1.85-.9-3.76-1.65-5.66-2.43a14.89,14.89,0,0,0-11.57,0c-2.3.91-4.51,2-6.84,2.91a9,9,0,0,1-6.63.27C123,218.26,122.16,218.17,122.06,217.25Z"/><path class="cls-4" d="M75.33,207.47c-.47.63,0,1,.37,1.42a53.65,53.65,0,0,0,4.81,4.1,4.81,4.81,0,0,1,1.21,1.17,1.2,1.2,0,0,1-1.36.3c-4-1.05-7.61.34-11.21,1.83-.87.36-1.72,1.06-2.76.46-.86-1.75-2.39-3-3.41-4.66l10.21-4.27C73.94,207.92,74.6,207.23,75.33,207.47Z"/><path class="cls-13" d="M168.88,221.45a2,2,0,0,1-1.26,1.06A126.86,126.86,0,0,1,153.83,228c-.51.17-1.13.19-1.52.68h-.44a25.3,25.3,0,0,1-3.82-1.11,14.81,14.81,0,0,0-12.55.91c-5.88,3.23-11.48,3.7-17.47.29-5.56-3.15-11.28-2.63-16.83.36-.81.43-1.7.7-2.54,1.09a11.09,11.09,0,0,1-9.64.14c-4.08-1.8-8.06-3.86-12.7-3.78a2.52,2.52,0,0,1-1-.37l-.45-.1c-1.21-1.77-3.09-2.91-4.27-4.69l.09-.36c3-2,6.32-2.2,9.74-1.55A22.28,22.28,0,0,1,87,222c4.47,2.44,8.84,2.57,13.31,0a27.41,27.41,0,0,1,5.33-2.08,14.88,14.88,0,0,1,10.19.36c2,.75,3.93,1.62,5.84,2.54a10.91,10.91,0,0,0,10.19-.28,47.41,47.41,0,0,1,6.5-2.61,14.85,14.85,0,0,1,10.18.33c1.86.7,3.67,1.52,5.44,2.39a11.41,11.41,0,0,0,11-.21C166.12,221.82,167.34,220.86,168.88,221.45Z"/><path class="cls-3" d="M75.33,226.22c4.23-.72,7.92,1,11.63,2.58l3.12,1.35a9.91,9.91,0,0,0,8-.29c2.35-1,4.61-2.16,7-3a14.92,14.92,0,0,1,10.57.28c2.37,1,4.71,2,7,3a10,10,0,0,0,8.23-.31,73.33,73.33,0,0,1,6.84-2.89,15.53,15.53,0,0,1,10.4.1,18.07,18.07,0,0,1,3.63,1.67c-3.55.88-7.09,1.78-10.64,2.63-4.44,1.06-8.93,1.84-13.45,2.49-4,.57-7.92,1.06-11.92,1.37-2.46.2-4.91.24-7.37.32a10.33,10.33,0,0,0-2.93.31,3.21,3.21,0,0,1-1.89.06c-1.88-.58-3.79-.28-5.68-.36a43.31,43.31,0,0,1-14.27-2.85,12.74,12.74,0,0,1-3.52-2.28C78.47,229,76.6,228,75.33,226.22Z"/><path class="cls-3" d="M168.88,221.45a35.08,35.08,0,0,0-5.68,2.32,9.92,9.92,0,0,1-8.19-.1,76.31,76.31,0,0,0-8.45-3.44c-3.67-1-7.14-.31-10.55,1.11-2.09.86-4.16,1.77-6.25,2.65a9,9,0,0,1-7.2-.19c-2-.82-3.92-1.62-5.84-2.52a15.57,15.57,0,0,0-13.54.08c-1.94.86-3.9,1.68-5.86,2.51a9.34,9.34,0,0,1-7.79-.18c-1.87-.84-3.78-1.59-5.65-2.44a15,15,0,0,0-12-.47,10.46,10.46,0,0,1-1.23.29c-1.38-.61-2.13-1.88-3-3a1.92,1.92,0,0,0-1.74-.86c.15-.15.29-.3.43-.46a13,13,0,0,0,3.49-1.39,16.69,16.69,0,0,1,11.84-1.2L89,217.25a13.6,13.6,0,0,0,5.72,1.2,45.28,45.28,0,0,1,10.07-.62,81.92,81.92,0,0,0,13.28-.75,6.63,6.63,0,0,1,3.13.12l.78.05a8.5,8.5,0,0,0,7.94.46q3-1.28,6-2.61A15.64,15.64,0,0,1,149.3,215c1.8.81,3.65,1.54,5.44,2.38a9.72,9.72,0,0,0,8.61.06c1.15-.54,2.33-1,3.49-1.55,3.85-1.77,7.78-3,12.1-2a1.87,1.87,0,0,1,.08.34,21.19,21.19,0,0,1-6.21,5.25c-.35.22-.68.47-1,.7l-2.14.91c-.24.23-.63.13-.86.39Z"/><path class="cls-13" d="M168.87,221.46a.91.91,0,0,1,.86-.39A.87.87,0,0,1,168.87,221.46Z"/><path class="cls-15" d="M121.28,217.2c-2.27.48-4.57.65-6.86.91-6.54.76-13.08.21-19.62.34a41.17,41.17,0,0,0,8-3.18,16.33,16.33,0,0,1,14.67.1A23.41,23.41,0,0,1,121.28,217.2Z"/><path class="cls-16" d="M110.41,183.17c-.11,0-.15.07-.21.12q-1.87,1.65-3.9,3.11c-.15.11-.24.12-.37,0-.52-.63-1.06-1.24-1.59-1.86a2.59,2.59,0,0,1,.35-2.06,7.37,7.37,0,0,1,1.74-1.65,25.09,25.09,0,0,1,2.26-1.41,6.92,6.92,0,0,0,1.92-1.65c.58-.73,1.12-1.49,1.65-2.26a5.62,5.62,0,0,0,.81-2,1.81,1.81,0,0,1,.17-.59.39.39,0,0,1,.25-.1,2.49,2.49,0,0,0,1.08-.37.55.55,0,0,0,.32-.71.51.51,0,0,0-.25-.29,1.7,1.7,0,0,0-.46-.29A.19.19,0,0,1,114,171a2,2,0,0,1,.52-.77,7.52,7.52,0,0,1,1.18-1,5.66,5.66,0,0,0,.43-.42,1.8,1.8,0,0,0,.43-1.15,1.34,1.34,0,0,1,.38-1,1.09,1.09,0,0,1,.48-.27,2.77,2.77,0,0,0,1.38-1c.48-.56.92-1.16,1.4-1.72a2,2,0,0,0,.4-1.65c0-.33-.15-.64-.18-1a2.39,2.39,0,0,1,.66-2,.34.34,0,0,1,.23-.13,13.73,13.73,0,0,0,1.67.58,4.3,4.3,0,0,0,1.34.06,7.29,7.29,0,0,0,1.78-.35,3.62,3.62,0,0,0,1.27-.71c.15-.13.31-.28.25-.51s-.26-.27-.46-.32a9.57,9.57,0,0,0-2-.13.55.55,0,0,1-.34-.07.21.21,0,0,1,0-.24,7.5,7.5,0,0,0,.61-1.46,7.76,7.76,0,0,1,.7-1.59,1.47,1.47,0,0,1,.71-.68,2.53,2.53,0,0,0,1.4-1.61,17.18,17.18,0,0,0,.73-2.73,5.2,5.2,0,0,1,.63-1.74,1.44,1.44,0,0,1,.64-.63,2.59,2.59,0,0,1,.61.48c.35.27.69.56,1.06.81s.64.25.87,0a.72.72,0,0,0,.08-1,3.61,3.61,0,0,0-1.06-1c-.08-.05-.21-.08-.15-.24a4.2,4.2,0,0,1,.49-.33.66.66,0,0,0,.32-.46c0-.09,0-.19-.09-.24a.24.24,0,0,0-.28,0l-.45.39a2.09,2.09,0,0,1-.59.35.34.34,0,0,1-.2,0,5,5,0,0,1-1.57-1,1.43,1.43,0,0,1-.38-.62c0-.1.08-.14.15-.19.81-.65,1.63-1.29,2.43-1.94.22-.18.39-.39.6-.57a.13.13,0,0,1,.12,0c1.1.94,2.17,1.91,3.33,2.77a20.13,20.13,0,0,0,2,1.3c-.39.4-.78.78-1.15,1.17a23.77,23.77,0,0,0-3.45,4.48,13.27,13.27,0,0,0-1,2.79,19.74,19.74,0,0,1-1,2.69,5.91,5.91,0,0,1-3,2.89c-.53.24-1.06.49-1.58.75a5.86,5.86,0,0,0-3,3.75c-.31,1-.46,2.1-.73,3.15V167a2.42,2.42,0,0,1-.19.7,4.79,4.79,0,0,1-2.09,2.69c-.71.45-1.48.8-2.22,1.18a10.37,10.37,0,0,0-1.71,1.06,7,7,0,0,0-1.93,2.09,10.29,10.29,0,0,0-1.25,2.84,30.6,30.6,0,0,1-.92,3.1,7.29,7.29,0,0,1-.37.74,8.52,8.52,0,0,1-1.09,1.31A4.06,4.06,0,0,0,110.41,183.17Z"/><path class="cls-17" d="M152.88,156.37l.79,1.41,1.06,1.85c-.11.19-.31.27-.46.41-.43.42-.82.87-1.23,1.3a11.68,11.68,0,0,1-2.79,2,10.72,10.72,0,0,1-2.16.9,17.84,17.84,0,0,0-2.79,1.33,16.49,16.49,0,0,1-2.82,1.33,8.74,8.74,0,0,1-1.6.33,8.5,8.5,0,0,0-1.93.47,3.48,3.48,0,0,0-.43.22,1.25,1.25,0,0,0-.68,1c0,.17-.05.35-.06.52a2,2,0,0,1-.85,1.51,1,1,0,0,1-1.41-.07.48.48,0,0,1-.09-.11,2.1,2.1,0,0,0-1.67-.75,6.59,6.59,0,0,0-2.71.42,1.47,1.47,0,0,0-.57.38c-.12.14-.09.24.1.3a2,2,0,0,0,.84,0,12.42,12.42,0,0,0,1.71-.19,1.3,1.3,0,0,1,1,.3,1,1,0,0,1,.15,1.22,2.2,2.2,0,0,1-2.87.73,2.15,2.15,0,0,0-2-.14,4,4,0,0,1-1.37.25,8,8,0,0,0-2.53.38,5,5,0,0,0-2.57,2,1.56,1.56,0,0,1-.16.2h-.11a.34.34,0,0,1,0-.26,4.27,4.27,0,0,0,.31-2.06,17.24,17.24,0,0,1,0-2.49.17.17,0,0,1,0-.1,3.36,3.36,0,0,1,.51-.32,15.53,15.53,0,0,0,2.55-1.78,7.37,7.37,0,0,1,3-1.49,38.31,38.31,0,0,1,3.81-.76,4.61,4.61,0,0,0,2.2-1,15.61,15.61,0,0,1,1.5-1.06,2.07,2.07,0,0,1,2.05-.25,2.65,2.65,0,0,0,1.84,0,37.22,37.22,0,0,0,4.07-1.58c.72-.31,1.46-.55,2.19-.83a11.41,11.41,0,0,0,1.66-.78,2.61,2.61,0,0,0,.44-.37.29.29,0,0,0,.1-.35c-.07-.14-.21-.11-.33-.09a5.76,5.76,0,0,0-1.16.35c-.42.16-.83.37-1.24.55-.77.33-1.58.57-2.37.87s-1.8.73-2.7,1.1a5,5,0,0,1-1,.31.79.79,0,0,1-.43,0,.45.45,0,0,1-.31-.52,1.14,1.14,0,0,1,.26-.58,2,2,0,0,1,1.6-.76,1.49,1.49,0,0,0,.69-.13,17.48,17.48,0,0,1,3.07-1,4.48,4.48,0,0,0,1.7-.82,3.56,3.56,0,0,1,1.57-.77,2.13,2.13,0,0,0,.88-.49,13.06,13.06,0,0,1,1.43-1c.68-.37,1.4-.67,2.09-1A.14.14,0,0,1,152.88,156.37Z"/><path class="cls-18" d="M132.15,141.29a8.84,8.84,0,0,1-1.33,1.19L129,144a2.66,2.66,0,0,1-.6.51l-.82.58a4.83,4.83,0,0,0-1.12.94,2,2,0,0,0-.41.86,8.89,8.89,0,0,1-.74,2.29c-.52,1.11-1.05,2.21-1.65,3.28a6,6,0,0,1-2.23,2.26,6.06,6.06,0,0,0-1.67,1.52c-.28.29-.52.62-.77.93a8.47,8.47,0,0,1-.63.7c-.66.68-1.43,1.23-2.14,1.84a10.37,10.37,0,0,0-1.68,1.76,2.07,2.07,0,0,0-.4,1.66,1.86,1.86,0,0,1-.47,1.64c-.29.34-.62.63-.9,1a3.15,3.15,0,0,0-.49.9c-.15.46-.3.92-.48,1.37a3.28,3.28,0,0,1-1.57,1.84,9,9,0,0,0-1.72,1.13l-.21.21c-.58.52-1.25.93-1.85,1.44a2.54,2.54,0,0,0-.69.87.73.73,0,0,0-.06.54.24.24,0,0,0,.29.2l.07,0a1.93,1.93,0,0,0,.6-.32c.53-.4,1-.85,1.51-1.28a1.51,1.51,0,0,1,1.06-.47.34.34,0,0,1,.34.5,2.26,2.26,0,0,1-.5.79,11.54,11.54,0,0,1-1.1,1,12.49,12.49,0,0,0-1.18,1.12,5.43,5.43,0,0,1-2.35,1.34,4.5,4.5,0,0,0-1,.45,4.07,4.07,0,0,0-1.39,1.55,14,14,0,0,0-.74,1.63.34.34,0,0,1-.15.26c-.09.06-.22-.19-.31-.29-.41-.45-.8-.91-1.2-1.37a.39.39,0,0,1-.11-.22.47.47,0,0,1,.06-.15,17.89,17.89,0,0,0,1.94-3.92,7.34,7.34,0,0,1,.68-1.48,5.15,5.15,0,0,1,1.85-1.71c.58-.35,1.19-.63,1.8-.92a12.28,12.28,0,0,0,2.29-1.28,3.82,3.82,0,0,0,1.52-1.89,1.22,1.22,0,0,0-.36.18,2.25,2.25,0,0,1-.53.28c-.23.08-.33,0-.28-.24a1.59,1.59,0,0,1,.41-.79,7.86,7.86,0,0,1,1.08-1l.83-.62a5.07,5.07,0,0,0,1.56-2.15,6.48,6.48,0,0,0,.38-1.9,4.82,4.82,0,0,1,.37-1.79,4.35,4.35,0,0,1,1.56-1.68c.29-.21.6-.4.9-.59a10.06,10.06,0,0,0,2.4-1.75,3.68,3.68,0,0,0,.82-1.3,3,3,0,0,1,1.41-1.62c.44-.26.89-.49,1.32-.76a5,5,0,0,0,1.88-1.78,5.54,5.54,0,0,0,.51-1.68,16.56,16.56,0,0,1,.47-2.2,5,5,0,0,1,1-1.91,5.82,5.82,0,0,1,2.07-1.27,7.26,7.26,0,0,0,1.52-.84c.43-.31.78-.69,1.17-1a6.36,6.36,0,0,1,.87-.68c.07,0,.14-.1.23-.08s.28.28.48.35l.09.08a.78.78,0,0,0,.24.24A.14.14,0,0,1,132.15,141.29Z"/><path class="cls-17" d="M133.72,176a3.64,3.64,0,0,1-.66,0c.09-.07.2,0,.28,0H131.6a.69.69,0,0,1,.35,0c-.63.06-1.25.1-1.87.22a6.15,6.15,0,0,0-4.5,3.32,14.7,14.7,0,0,1-1.37,2.2,4.65,4.65,0,0,1-3,1.78h-.12a1.37,1.37,0,0,0,.22-1.14c-.09-.76-.23-1.5-.31-2.25a2.74,2.74,0,0,1,.12-1.27.69.69,0,0,1,.17-.3,1.33,1.33,0,0,1,.74,0,8.4,8.4,0,0,0,1.32.11,2.64,2.64,0,0,0,1-.26.2.2,0,0,0,.19-.19.25.25,0,0,0-.19-.2,1.15,1.15,0,0,0-.52-.1c-.56,0-.77-.39-.47-.89a2.76,2.76,0,0,1,.58-.65,10.66,10.66,0,0,1,2.78-1.64,4.79,4.79,0,0,1,1.79-.35,22.29,22.29,0,0,1,2.45.09,5.31,5.31,0,0,0,3.95-1.36,1.09,1.09,0,0,0,.37-.83.52.52,0,0,1,.48-.56h.07a3.14,3.14,0,0,1,.75,0,1.84,1.84,0,0,0,1.85-.65,1.4,1.4,0,0,0,.25-.89,1.14,1.14,0,0,1,.35-.82,4.16,4.16,0,0,1,1.34-.84c.92-.41,1.83-.85,2.75-1.25s2-.74,3-1.13a20.13,20.13,0,0,0,5.2-2.76,25.94,25.94,0,0,0,2-1.78,13.48,13.48,0,0,1,1.47-1.25c.08-.05.15-.13.26-.1a21.28,21.28,0,0,1,1.1,2.12c0,.08.06.14,0,.21-1.07,1-2,2.09-3,3.09a10.61,10.61,0,0,1-3.34,2.28,6.37,6.37,0,0,1-2.48.44,4.09,4.09,0,0,0-.7,0h-.21a6.91,6.91,0,0,1,.91,0,9.14,9.14,0,0,1-1.28.06,6,6,0,0,0-5.21,3.12,14.42,14.42,0,0,1-1.89,2.57,5.89,5.89,0,0,1-4,1.87A8.42,8.42,0,0,0,133.72,176Z"/><path class="cls-16" d="M105.82,170.75c-.65.33-1.31.64-1.94,1a5,5,0,0,0-2.24,2.78,22.09,22.09,0,0,1-1.7,3.7,3.08,3.08,0,0,1-.47.65l-1.1-1.27c-.06-.07-.12-.12,0-.21a9.19,9.19,0,0,0,2.27-3.17,23.81,23.81,0,0,0,1.62-4.26A4.75,4.75,0,0,1,105,166.8a11,11,0,0,1,1.94-.72,6.38,6.38,0,0,0,4.58-4.67,24.05,24.05,0,0,0,.63-3.15,6.21,6.21,0,0,1,3.41-4.75,19.78,19.78,0,0,1,2.32-1,6.24,6.24,0,0,0,3.29-2.69,8.55,8.55,0,0,0,.83-2.45,8.87,8.87,0,0,1,1-2.79,10.24,10.24,0,0,1,2.79-2.89c1-.69,2-1.28,3-1.94.25-.17.5-.34.75-.53a.21.21,0,0,1,.29,0,14.38,14.38,0,0,1,1.42,1.09h0a3.82,3.82,0,0,0-1,.74c-.35.3-.69.62-1,.93,0,.05-.12.08-.18.13s-.07-.07-.08-.11a.91.91,0,0,0-1-.82.9.9,0,0,0-.39.13,4.57,4.57,0,0,0-1.44.93,2.7,2.7,0,0,0-.73,1.28,2.06,2.06,0,0,0,.06.7,6.69,6.69,0,0,0-1.24,3.09c-.11.61-.21,1.22-.35,1.82a4,4,0,0,1-1.7,2.32c-.58.41-1.22.74-1.83,1.1a3.07,3.07,0,0,0-1.44,1.63,3.21,3.21,0,0,1-.84,1.3c-.15,0-.23-.1-.33-.17a2.76,2.76,0,0,0-2.25-.54,3.67,3.67,0,0,0-1.15.49,1.11,1.11,0,0,0-.47,1.15.83.83,0,0,0,.62.65,2.59,2.59,0,0,0,1,.1c.07,0,.17-.06.21.06l-1.12.77a3.62,3.62,0,0,0-1.65,2.94,6.83,6.83,0,0,1-.43,2.28,5.4,5.4,0,0,1-2,2.43,9.08,9.08,0,0,0-1.49,1.28,1.7,1.7,0,0,0-.42.78c0,.07,0,.16,0,.21s.14,0,.2,0a4.75,4.75,0,0,0,.85-.48s.09-.08.14,0,0,.08,0,.13a3.87,3.87,0,0,1-1.57,1.91,3,3,0,0,1-2-.48,4.51,4.51,0,0,0-.92-.65,1.72,1.72,0,0,0-1.07-.15.71.71,0,0,0-.48.38,3.64,3.64,0,0,0-.39,1.15.82.82,0,0,0,.6,1h0a3.41,3.41,0,0,0,1.35,0l.38-.05S105.81,170.65,105.82,170.75Z"/><path class="cls-18" d="M113.27,172.91a16.07,16.07,0,0,1-.47,1.68,8.42,8.42,0,0,1-1.12,1.81,18.15,18.15,0,0,1-1.37,1.77,6.86,6.86,0,0,1-1.74,1.34,19.44,19.44,0,0,0-2.8,1.86,5.78,5.78,0,0,0-1.14,1.28,1.72,1.72,0,0,0-.29,1v.83a1,1,0,0,1-.27-.28c0-.14-.14-.2-.23-.28l-.08-.09c0-.12-.11-.17-.2-.23a2.17,2.17,0,0,1-.32-.36,4,4,0,0,1,2.8-4.64,17.65,17.65,0,0,0,2-.72,5.76,5.76,0,0,0,3.68-5.29A10.12,10.12,0,0,1,112,171a5.35,5.35,0,0,1,1.24-2.2c.28-.32.58-.64.85-1a2.79,2.79,0,0,0,.62-1.31,1.76,1.76,0,0,1,.2-.54.85.85,0,0,1,1-.48,5.62,5.62,0,0,0,.57.09.83.83,0,0,0,.67-.22,6.62,6.62,0,0,0,.85-1c.44-.61.86-1.23,1.24-1.88a2.66,2.66,0,0,0,.34-.9,1,1,0,0,0-.13-.73q-.15-.22-.27-.45a1,1,0,0,1,.15-1.17,4.54,4.54,0,0,1,.79-.66,14.72,14.72,0,0,0,1.27-1.1c.47-.45.88-.94,1.3-1.43a5.26,5.26,0,0,1,1-1l.23-.16a.31.31,0,0,1,.44,0,.3.3,0,0,1,.08.3.76.76,0,0,1-.21.54,3.39,3.39,0,0,1-.66.54,5.12,5.12,0,0,0-.78.61.77.77,0,0,0-.22.34v.2c0,.06.13,0,.19,0a2.65,2.65,0,0,0,.62-.43,9.6,9.6,0,0,0,1.41-1.44,2.87,2.87,0,0,0,.59-1.4,2.91,2.91,0,0,1,.94-1.82,13.48,13.48,0,0,1,1-1,3.47,3.47,0,0,0,1.21-2.23,6.42,6.42,0,0,1,.24-1.22,2.67,2.67,0,0,1,1-1.5,8.69,8.69,0,0,1,1.15-.65.31.31,0,0,0,.22-.06,3.22,3.22,0,0,0,.88-.63c.14-.14.29-.29.5-.15s.12.41,0,.6a3.44,3.44,0,0,1-.7.5,11,11,0,0,1-1.43.88,2.69,2.69,0,0,0-1,1.51c-.29.87-.4,1.78-.65,2.66a6.9,6.9,0,0,1-.73,1.75,1.33,1.33,0,0,1-.62.6,2.63,2.63,0,0,0-1.5,1.72c-.2.54-.39,1.09-.61,1.63-.1.25-.24.49-.36.74a1.27,1.27,0,0,1-.58.65,2.25,2.25,0,0,1-1,.37c-.25,0-.49.09-.74.11a3.16,3.16,0,0,0-1.24.39,2.31,2.31,0,0,0-.76,2.33,7.13,7.13,0,0,1,.18,1.11,1.82,1.82,0,0,1-.4,1.21c-.58.7-1.11,1.42-1.72,2.09a2.48,2.48,0,0,1-1.13.75,1,1,0,0,0-.84,1.09,2.3,2.3,0,0,1-1.12,1.91,5.05,5.05,0,0,0-1.41,1.43l-.06.12a1.8,1.8,0,0,1-.22.49,10.44,10.44,0,0,0-.43,1.18A1.2,1.2,0,0,1,113.27,172.91Z"/><path class="cls-17" d="M125,164.73a5,5,0,0,1,2.47-.66c.9,0,1.79,0,2.69-.08a6.94,6.94,0,0,0,3.43-1,6.75,6.75,0,0,0,1.85-1.84c.33-.45.65-.9,1-1.34a5.52,5.52,0,0,1,2.85-1.88,19.33,19.33,0,0,1,4-.6h.12a12,12,0,0,0,1.67-.33,22.27,22.27,0,0,0,4.54-2.1c.67-.4,1.33-.83,2-1.29.11-.09.16-.11.21,0a17.85,17.85,0,0,0,.76,1.87c0,.1-.07.13-.13.17-.85.61-1.71,1.19-2.58,1.77a3.77,3.77,0,0,1-.7.34.42.42,0,0,1-.55-.15c-.12-.18-.25-.16-.41-.08a7.64,7.64,0,0,0-1.12.72,10.23,10.23,0,0,1-2.71,1.58,3.53,3.53,0,0,1-1,.27.39.39,0,0,1-.43-.26.3.3,0,0,0-.24-.19,2.41,2.41,0,0,0-1.78.46,1.4,1.4,0,0,0-.44.66,2.15,2.15,0,0,1-1.69,1.32c-.09,0-.2,0-.26,0s0-.19,0-.27.25-.29.37-.44.09-.1,0-.16-.1,0-.15,0a2.13,2.13,0,0,0-.87.35,15,15,0,0,0-1.45,1.19c-.71.61-1.4,1.24-2.12,1.84a5.5,5.5,0,0,1-2.61,1.12c-1,.17-1.94.23-2.91.36a7.25,7.25,0,0,0-3.92,1.76l-.74.66c-.07,0-.12.14-.24.09a.73.73,0,0,1,.09-.5c.33-.92.6-1.85.88-2.78A3.83,3.83,0,0,1,125,164.73Z"/><path class="cls-19" d="M123.88,168.6a18.36,18.36,0,0,1,1.67-1.39,7.39,7.39,0,0,1,2.85-1.15c1.06-.18,2.15-.22,3.21-.4a5.35,5.35,0,0,0,2.76-1.24c.93-.81,1.85-1.61,2.79-2.41a3.72,3.72,0,0,1,1.31-.82c.17-.05.4-.14.49,0s-.13.28-.23.4a4,4,0,0,0-.27.34c-.08.12-.07.09,0,.15s.09,0,.14,0a2.06,2.06,0,0,0,1.7-1.26,1.91,1.91,0,0,1,1.78-1.22h.41c.21,0,.38,0,.43.28s.14.19.29.18a4.19,4.19,0,0,0,1.42-.4,14.87,14.87,0,0,0,2.89-1.8,3.69,3.69,0,0,1,.78-.43c.12-.05.18,0,.25.09a.52.52,0,0,0,.58.19,8.82,8.82,0,0,0,1.71-1.05c.57-.37,1.13-.75,1.68-1.16a3.81,3.81,0,0,1,.4.84l-1,.46a11.45,11.45,0,0,0-2.62,1.53,2.8,2.8,0,0,1-1.22.6,2.46,2.46,0,0,0-1.11.57,5.6,5.6,0,0,1-2.45,1.09,8.36,8.36,0,0,0-2,.65,4.63,4.63,0,0,1-1.6.34,1.71,1.71,0,0,0-1.33,1.1c-.12.45.14.72.6.63a5.14,5.14,0,0,0,.94-.3c1.5-.63,3-1.23,4.57-1.77.61-.21,1.19-.52,1.79-.76a4.78,4.78,0,0,1,1.11-.35h.21c.26,0,.38.19.23.42a1.57,1.57,0,0,1-.49.47,12.21,12.21,0,0,1-2.45,1.09c-1,.35-2,.81-3,1.21a22.94,22.94,0,0,1-3,1,2.35,2.35,0,0,1-1.46-.08,1.93,1.93,0,0,0-1.9.21,15.34,15.34,0,0,0-1.49,1.17,4.63,4.63,0,0,1-2.22,1,31.43,31.43,0,0,0-4.31.91,6.84,6.84,0,0,0-2.58,1.44,15.93,15.93,0,0,1-2.41,1.67l-.52.3a.93.93,0,0,1,.05-.73c.16-.52.37-1,.54-1.55C123.76,168.68,123.8,168.61,123.88,168.6Z"/><path class="cls-19" d="M155.08,160.23a6.65,6.65,0,0,0-1.11.87,32.12,32.12,0,0,1-3,2.6,18.66,18.66,0,0,1-2.94,1.69c-1.49.69-3.06,1.2-4.59,1.79-.6.23-1.17.52-1.75.8s-1.24.51-1.83.84a2.37,2.37,0,0,0-1.05.93,1.52,1.52,0,0,0-.09.67,1.48,1.48,0,0,1-1.06,1.25,1.74,1.74,0,0,1-1.08.1,1.89,1.89,0,0,0-1,0,.33.33,0,0,0-.28.37,1.24,1.24,0,0,1-.61,1.13,8.55,8.55,0,0,1-1.6.93,3.45,3.45,0,0,1-1,.22,12.73,12.73,0,0,1-2.31,0,6.6,6.6,0,0,0-4.21.87,9.21,9.21,0,0,0-1.94,1.4,1,1,0,0,0-.36.72.35.35,0,0,0,.31.39h.06a3.05,3.05,0,0,1,.52,0,.75.75,0,0,1,.28.11c.22.14.22.3,0,.42a3,3,0,0,1-1.8.28,7.84,7.84,0,0,0-1.37-.12h0a3.63,3.63,0,0,1,.39-.82c.22-.4.49-.77.68-1.18a1.8,1.8,0,0,1,.41-.54,7.47,7.47,0,0,1,.78-1,5.54,5.54,0,0,1,3.08-1.5,14.56,14.56,0,0,1,1.87-.13,2.65,2.65,0,0,0,.73-.16,6.78,6.78,0,0,1,.88-.25,1.92,1.92,0,0,1,1.34.29,2,2,0,0,0,1.15.3,2.2,2.2,0,0,0,1.67-.93.93.93,0,0,0-.23-1.29.83.83,0,0,0-.45-.17,4.91,4.91,0,0,0-1.08.07,6.65,6.65,0,0,1-1.89.07q-.45-.11-.12-.45a2.11,2.11,0,0,1,1-.5,6.77,6.77,0,0,1,2.24-.29,2.5,2.5,0,0,1,1.38.36,2,2,0,0,1,.42.41,1,1,0,0,0,1.4.22L137,171a2,2,0,0,0,.78-1.47,2,2,0,0,1,.34-1.21,2.46,2.46,0,0,1,1-.64,9.17,9.17,0,0,1,2-.44,8.59,8.59,0,0,0,2.47-.74c1-.48,1.95-1,2.94-1.56a10.51,10.51,0,0,1,1.73-.72,11.78,11.78,0,0,0,3.27-1.63,10.66,10.66,0,0,0,1.88-1.67,9.78,9.78,0,0,1,1.12-1.11.82.82,0,0,1,.2-.12A2.5,2.5,0,0,1,155.08,160.23Z"/><path class="cls-16" d="M111.79,172.64a5.48,5.48,0,0,1-1.29,3.48,7.43,7.43,0,0,1-3.82,2.35,5,5,0,0,0-2.51,1.45,3.58,3.58,0,0,0-.89,2,12,12,0,0,0,0,1.34l-2.15-2.49a9.35,9.35,0,0,1,1.34-2.68,3.54,3.54,0,0,1,1.73-1.19,6.3,6.3,0,0,0,1.85-.79,13.72,13.72,0,0,0,1.44-1.31c.5-.49,1.07-.89,1.54-1.41a2.25,2.25,0,0,0,.52-.83c.07-.23,0-.37-.28-.39a1.4,1.4,0,0,0-1,.46c-.49.43-1,.87-1.5,1.27a2,2,0,0,1-.68.37.26.26,0,0,1-.35-.15.14.14,0,0,1,0-.06,1,1,0,0,1,.23-.94,3.73,3.73,0,0,1,1-.94c.46-.35.93-.69,1.38-1.06.12-.06.22,0,.32,0,.81.36,1.6.76,2.41,1.11.19.08.38.16.57.22A.49.49,0,0,1,111.79,172.64Z"/><path class="cls-20" d="M121.26,178.52a3.39,3.39,0,0,0-.17,2.24,13.79,13.79,0,0,1,.26,2.12c0,.25,0,.5-.32.6a27,27,0,0,0-5.42,1,8.34,8.34,0,0,0-2.87,1.44c-.09.07-.13.06-.2,0l-1-1.32c0-.17.18-.2.3-.24a1.4,1.4,0,0,1,.5,0,2.4,2.4,0,0,0,2.18-1c.4-.45.79-.91,1.19-1.37a1.14,1.14,0,0,1,1-.45,3.55,3.55,0,0,0,1.41-.12,1.35,1.35,0,0,0,.89-.88v-.16a1.67,1.67,0,0,1,.53-1.06,3.4,3.4,0,0,1,1.48-.74.26.26,0,0,1,.24,0Z"/><path class="cls-21" d="M121.26,178.52a2.67,2.67,0,0,0-2,1.18,1.77,1.77,0,0,0-.19.63,1.44,1.44,0,0,1-1.28,1.13,4.2,4.2,0,0,1-1.12,0,1.09,1.09,0,0,0-1,.48c-.44.52-.88,1-1.34,1.53a3.76,3.76,0,0,1-.72.6,2.22,2.22,0,0,1-1.26.25,1.13,1.13,0,0,0-.85.23,12.53,12.53,0,0,1-.91-1.16,1.21,1.21,0,0,1,.27-.73l.84-1c.08-.1.14-.22.21-.32a.32.32,0,0,1,.33,0,1.85,1.85,0,0,1,.33.21,1.45,1.45,0,0,0,2-.1,4,4,0,0,0,.73-1c.19-.36.37-.72.59-1.06a3.57,3.57,0,0,1,.66-.74,1.46,1.46,0,0,1,1-.33,2.19,2.19,0,0,0,1.5-.45,4.09,4.09,0,0,1,1.53-.66,3.8,3.8,0,0,0,1.56-.7s.1-.1.18-.07a5.28,5.28,0,0,1-.52.93C121.6,177.78,121.45,178.15,121.26,178.52Z"/><path class="cls-20" d="M123.88,168.6l-.09.13a5.7,5.7,0,0,1-.73.82,16.94,16.94,0,0,1-2.23,2,5.54,5.54,0,0,1-2.23.92,17,17,0,0,1-1.75.18.52.52,0,0,1-.42-.05,7.51,7.51,0,0,1,1.43-.94c.83-.45,1.71-.82,2.52-1.33a4.79,4.79,0,0,0,2-2.39,8.22,8.22,0,0,1,.33-.95,10.52,10.52,0,0,1,1.72-1.93,2.49,2.49,0,0,1,.58-.37,1,1,0,0,1-.09.57c-.29,1.06-.64,2.1-1,3.14A.71.71,0,0,0,123.88,168.6Z"/><path class="cls-22" d="M110.88,182.7l-.27.73-.2-.26C110.49,182.94,110.7,182.84,110.88,182.7Z"/><path class="cls-23" d="M131.94,176h1.66c-.17.08-.35,0-.52.06Z"/><path class="cls-24" d="M133.72,176c.14-.13.31,0,.46,0a2,2,0,0,1,.78,0A6.42,6.42,0,0,1,133.72,176Z"/><path class="cls-25" d="M132.15,141.29c0-.14-.14-.2-.24-.28s-.18-.1-.17-.23a4.41,4.41,0,0,1,.51.46Z"/><path class="cls-26" d="M131.19,140.37v-.05a3.32,3.32,0,0,1,.46.38c-.05.05-.08,0-.12,0Z"/><path class="cls-27" d="M103.84,183.94a.24.24,0,0,1,.23.28Z"/><path class="cls-28" d="M103.6,183.62a.19.19,0,0,1,.2.23Z"/><path class="cls-20" d="M122.36,176.5a4.08,4.08,0,0,1-1.93.89,4.07,4.07,0,0,0-1.46.68,1.85,1.85,0,0,1-1.2.36,2,2,0,0,0-1.82,1.06c-.37.57-.61,1.21-1,1.75a1.79,1.79,0,0,1-1.66.77,1.18,1.18,0,0,1-.66-.32.86.86,0,0,0-.66-.27,6.81,6.81,0,0,0,.69-1.62,33.09,33.09,0,0,1,1.15-3.75,7,7,0,0,1,.73-1.34,3,3,0,0,1,1.13-.29c.4-.06.8-.06,1.21-.11a7.92,7.92,0,0,0,2.83-1,28.81,28.81,0,0,0,2.43-1.65l.72-.48c.09-.06.17-.12.28-.09v3a3.21,3.21,0,0,1-.35,1.58,1,1,0,0,0-.06.25A5,5,0,0,1,122.36,176.5Z"/><path class="cls-21" d="M123.1,171.07a15.88,15.88,0,0,0-1.8,1.23,12.23,12.23,0,0,1-3.41,1.84,7.12,7.12,0,0,1-1.77.29,6.74,6.74,0,0,0-1.48.25h-.14a4.8,4.8,0,0,1,.79-1.06,5.46,5.46,0,0,1,1.14-1,11.58,11.58,0,0,0,2.87-.36,5.59,5.59,0,0,0,1.82-1,21.8,21.8,0,0,0,2-1.85,4.77,4.77,0,0,1,.71-.71c-.13.52-.36,1-.52,1.52a2.6,2.6,0,0,0-.13.78Z"/><path class="cls-29" d="M121.3,158.94a1.62,1.62,0,0,1,1-.41l1.09-.16a2.29,2.29,0,0,0,1.48-1c.07.08.17,0,.25,0a10.3,10.3,0,0,1,1.92.09h.2c.23.05.45.11.51.36s-.12.43-.29.58a4,4,0,0,1-1.71.85,8.86,8.86,0,0,1-1.92.25,4.65,4.65,0,0,1-1.83-.41A3.49,3.49,0,0,1,121.3,158.94Z"/><path class="cls-29" d="M130.31,146.81a5.43,5.43,0,0,1,.85-.56c.19-.12.39-.21.58-.32,0,.09,0,.1.07.13a3.57,3.57,0,0,1,1.12,1,.78.78,0,0,1,0,1,.66.66,0,0,1-.91.22l-.09-.07a16,16,0,0,1-1.64-1.31S130.33,146.83,130.31,146.81Z"/><path class="cls-29" d="M131.1,145.61c-.44.27-.92.45-1.34.74a.61.61,0,0,1-.31-.18,5.64,5.64,0,0,0-1.79-1c-.06,0-.11,0-.11-.12l1.43-1a2.77,2.77,0,0,0,1.38,1.32A1.62,1.62,0,0,0,131.1,145.61Z"/><path class="cls-30" d="M113.27,172.91A6.45,6.45,0,0,1,114,171c0,.09.09.09.14.12a2,2,0,0,1,.57.38.59.59,0,0,1,.12.83.55.55,0,0,1-.2.17,2.62,2.62,0,0,1-1.18.42A.81.81,0,0,0,113.27,172.91Z"/><path class="cls-16" d="M120.11,158.53a7.36,7.36,0,0,0-.75.63.92.92,0,0,0-.17,1.17,3.37,3.37,0,0,0,.19.32,1.18,1.18,0,0,1,.15,1.13,5.52,5.52,0,0,1-.8,1.47,23.33,23.33,0,0,1-1.42,2,1.07,1.07,0,0,1-1.14.38h-.07c-.79-.17-1.18,0-1.34.82a3.93,3.93,0,0,1-1.1,2,8,8,0,0,0-1.33,1.78,5.64,5.64,0,0,0-.31.81.1.1,0,0,1-.09.06,1.13,1.13,0,0,1-.88-.35,2.54,2.54,0,0,0-.83-.77.09.09,0,0,1,0-.1,3.79,3.79,0,0,0,1.76-2.41c.09-.24.18-.49.25-.74a3,3,0,0,1,.76-1.23c.23-.25.47-.48.69-.74a1.76,1.76,0,0,0,.42-1.55,2.15,2.15,0,0,1,.45-1.76,11.54,11.54,0,0,1,2.19-2.17c.55-.45,1.11-.9,1.62-1.39a.25.25,0,0,1,.24,0c.49.17,1,.4,1.43.59C120.05,158.41,120.12,158.43,120.11,158.53Z"/><path class="cls-16" d="M127.6,145l.61.26a7.25,7.25,0,0,1,1.6,1.08,3.43,3.43,0,0,0-1.14,2.37,3.66,3.66,0,0,1-.14.72,3.32,3.32,0,0,1-1.2,1.92,10.81,10.81,0,0,0-1.32,1.3,2.23,2.23,0,0,0-.55,1.24,3.18,3.18,0,0,1-.8,1.8,9.14,9.14,0,0,1-1.71,1.58l-.08,0c-.12,0-.25.19-.37.07s0-.29,0-.42a2.39,2.39,0,0,1,.71-.67,4.88,4.88,0,0,0,.89-.68.74.74,0,0,0,.2-.63c0-.22-.15-.29-.34-.19a2.9,2.9,0,0,0-.9.77c-.51.56-1,1.17-1.52,1.71a.36.36,0,0,1-.18.14,1.11,1.11,0,0,1-.83-.31.35.35,0,0,1-.09-.44l.09-.19c.06-.14,0-.2-.13-.2a2.53,2.53,0,0,1-.55,0,.15.15,0,0,1-.16-.07,5.62,5.62,0,0,1,1.68-1.54,6,6,0,0,0,2.32-2.41c.62-1.18,1.24-2.36,1.75-3.59A8.42,8.42,0,0,0,126,147a2.45,2.45,0,0,1,1.11-1.59A2,2,0,0,1,127.6,145Z"/><path class="cls-29" d="M105.82,170.75a.9.9,0,0,0-.46,0,6.67,6.67,0,0,1-.89.07,2,2,0,0,1-.82-.18.8.8,0,0,1-.44-.83,3,3,0,0,1,.45-1.37,1,1,0,0,1,1-.36,2.41,2.41,0,0,1,1.29.65,2.39,2.39,0,0,0,1.5.63,2.59,2.59,0,0,1,.68.09,3.68,3.68,0,0,1-.89.58A12.61,12.61,0,0,1,105.82,170.75Z"/><path class="cls-29" d="M115.6,157.28a4.2,4.2,0,0,1-1.12-.08,1,1,0,0,1-.73-1.21.85.85,0,0,1,.06-.17,1.06,1.06,0,0,1,.92-.75.59.59,0,0,0,.23-.13,2.15,2.15,0,0,1,1.77-.1,3.33,3.33,0,0,1,1.26.7A8.89,8.89,0,0,1,115.6,157.28Z"/><path class="cls-29" d="M110.18,169.78a2.22,2.22,0,0,1,.84.74,1.07,1.07,0,0,0,1,.42,16.15,16.15,0,0,0-.23,1.7,13.4,13.4,0,0,1-1.75-.72c-.6-.27-1.17-.59-1.79-.8a6.08,6.08,0,0,1,1.47-1.1Z"/><path class="cls-29" d="M125.35,144.28a.89.89,0,0,1-.07-.89,3.14,3.14,0,0,1,.79-1.21,5.8,5.8,0,0,1,1.22-.79,1,1,0,0,1,1.38.12,1.17,1.17,0,0,1,.27.66,5,5,0,0,1-1.47.83A6.57,6.57,0,0,0,125.35,144.28Z"/><path class="cls-29" d="M119.69,156.18a3.37,3.37,0,0,0,.84,0c.28-.07.15.08.11.18l-.1.21c-.14.28-.09.42.18.58a4.88,4.88,0,0,0,.64.23,8.15,8.15,0,0,1-1,1l-.2.15a9.64,9.64,0,0,0-1.79-.74C118.81,157.29,119.21,156.7,119.69,156.18Z"/><path class="cls-31" d="M147.33,168.37h-1A2.41,2.41,0,0,1,147.33,168.37Z"/><g class="cls-32"><g class="cls-32"><path class="cls-14" d="M67.4,113.42V95.33H63.74v-.74H76a27.06,27.06,0,0,1,3.39.17,7.36,7.36,0,0,1,2.65.86,4.52,4.52,0,0,1,1.83,1.73,4.14,4.14,0,0,1,.55,2q0,3.49-6.48,4.57v.07q7.31,1,7.31,5a4.19,4.19,0,0,1-.65,2.1,5.41,5.41,0,0,1-2.09,1.9,7.93,7.93,0,0,1-2.92,1,29.56,29.56,0,0,1-3.75.2H63.74v-.74Zm7.82-18.09H71.6v8.22h3.25c2.2,0,3.61-.36,4.22-1.07A5.06,5.06,0,0,0,80,99.13a4.5,4.5,0,0,0-.6-2.62,2.43,2.43,0,0,0-1.53-1A13.73,13.73,0,0,0,75.22,95.33Zm-.41,9H71.6v9.13h3.32a14.59,14.59,0,0,0,3-.24,3.15,3.15,0,0,0,1.88-1.25,5.27,5.27,0,0,0,.77-3.18,4.38,4.38,0,0,0-1.17-3.39C78.58,104.65,77.06,104.29,74.81,104.29Z"/></g><g class="cls-32"><path class="cls-14" d="M67.4,113.42V95.33H63.74v-.74H76a27.06,27.06,0,0,1,3.39.17,7.36,7.36,0,0,1,2.65.86,4.52,4.52,0,0,1,1.83,1.73,4.14,4.14,0,0,1,.55,2q0,3.49-6.48,4.57v.07q7.31,1,7.31,5a4.19,4.19,0,0,1-.65,2.1,5.41,5.41,0,0,1-2.09,1.9,7.93,7.93,0,0,1-2.92,1,29.56,29.56,0,0,1-3.75.2H63.74v-.74Zm7.82-18.09H71.6v8.22h3.25c2.2,0,3.61-.36,4.22-1.07A5.06,5.06,0,0,0,80,99.13a4.5,4.5,0,0,0-.6-2.62,2.43,2.43,0,0,0-1.53-1A13.73,13.73,0,0,0,75.22,95.33Zm-.41,9H71.6v9.13h3.32a14.59,14.59,0,0,0,3-.24,3.15,3.15,0,0,0,1.88-1.25,5.27,5.27,0,0,0,.77-3.18,4.38,4.38,0,0,0-1.17-3.39C78.58,104.65,77.06,104.29,74.81,104.29Z"/></g><g class="cls-32"><path class="cls-14" d="M100.38,108.06H92.86l-2.42,5.36h4.38v.74H86.24v-.74H89.5l8.64-19.28h.55L107,113.42h3.18v.74H98.86v-.74h3.83Zm-7.19-.74h6.87l-3.33-7.84h-.08Z"/></g><g class="cls-32"><path class="cls-14" d="M100.38,108.06H92.86l-2.42,5.36h4.38v.74H86.24v-.74H89.5l8.64-19.28h.55L107,113.42h3.18v.74H98.86v-.74h3.83Zm-7.19-.74h6.87l-3.33-7.84h-.08Z"/></g><g class="cls-32"><path class="cls-14" d="M129.3,94.37v5.81h-.76q-1.23-5.3-6.39-5.3a4.59,4.59,0,0,0-4,1.8q-1.27,1.78-1.27,7.56a25.2,25.2,0,0,0,.54,6.45,4,4,0,0,0,1.9,2.44,6.12,6.12,0,0,0,3,.74,6.76,6.76,0,0,0,4-1.32,8.49,8.49,0,0,0,2.89-4.24H130l-.29,6H129a3.8,3.8,0,0,0-1.27-1.58,10,10,0,0,1-5.74,1.91,9.72,9.72,0,0,1-6.83-2.93,9.5,9.5,0,0,1-3.1-7.18,10,10,0,0,1,3-7.35,9.69,9.69,0,0,1,7-3A8.55,8.55,0,0,1,127.5,96a10.31,10.31,0,0,0,1-1.59Z"/><path class="cls-14" d="M144.44,114.61a10.67,10.67,0,0,1-7.8-3.18,9.49,9.49,0,0,1-3.2-6.8,9.7,9.7,0,0,1,3.36-7.42,11.22,11.22,0,0,1,7.81-3.07,10.68,10.68,0,0,1,7.51,3.12,9.32,9.32,0,0,1,0,14.27A11,11,0,0,1,144.44,114.61Zm.07-19.73a8,8,0,0,0-3.49.74,3.93,3.93,0,0,0-2.1,2.56,24.81,24.81,0,0,0-.56,6.36,31.49,31.49,0,0,0,.32,5,5.32,5.32,0,0,0,1.62,3.09,5.74,5.74,0,0,0,4.07,1.23,8.4,8.4,0,0,0,3.4-.75A3.94,3.94,0,0,0,150,110.2a31.32,31.32,0,0,0,.52-6.71,16.84,16.84,0,0,0-.64-5.66,4.22,4.22,0,0,0-2.07-2.26A7.44,7.44,0,0,0,144.51,94.88Z"/><path class="cls-14" d="M179.74,95.33v19.28H179l-15.6-19.36h-.07v18.17h4v.74h-8.42v-.74h3.51V95.33h-3.76v-.74h9l11,13.72h.07v-13h-3.92v-.74h8.4v.74Z"/></g><g class="cls-32"><path class="cls-14" d="M129.3,94.37v5.81h-.76q-1.23-5.3-6.39-5.3a4.59,4.59,0,0,0-4,1.8q-1.27,1.78-1.27,7.56a25.2,25.2,0,0,0,.54,6.45,4,4,0,0,0,1.9,2.44,6.12,6.12,0,0,0,3,.74,6.76,6.76,0,0,0,4-1.32,8.49,8.49,0,0,0,2.89-4.24H130l-.29,6H129a3.8,3.8,0,0,0-1.27-1.58,10,10,0,0,1-5.74,1.91,9.72,9.72,0,0,1-6.83-2.93,9.5,9.5,0,0,1-3.1-7.18,10,10,0,0,1,3-7.35,9.69,9.69,0,0,1,7-3A8.55,8.55,0,0,1,127.5,96a10.31,10.31,0,0,0,1-1.59Z"/><path class="cls-14" d="M144.44,114.61a10.67,10.67,0,0,1-7.8-3.18,9.49,9.49,0,0,1-3.2-6.8,9.7,9.7,0,0,1,3.36-7.42,11.22,11.22,0,0,1,7.81-3.07,10.68,10.68,0,0,1,7.51,3.12,9.32,9.32,0,0,1,0,14.27A11,11,0,0,1,144.44,114.61Zm.07-19.73a8,8,0,0,0-3.49.74,3.93,3.93,0,0,0-2.1,2.56,24.81,24.81,0,0,0-.56,6.36,31.49,31.49,0,0,0,.32,5,5.32,5.32,0,0,0,1.62,3.09,5.74,5.74,0,0,0,4.07,1.23,8.4,8.4,0,0,0,3.4-.75A3.94,3.94,0,0,0,150,110.2a31.32,31.32,0,0,0,.52-6.71,16.84,16.84,0,0,0-.64-5.66,4.22,4.22,0,0,0-2.07-2.26A7.44,7.44,0,0,0,144.51,94.88Z"/><path class="cls-14" d="M179.74,95.33v19.28H179l-15.6-19.36h-.07v18.17h4v.74h-8.42v-.74h3.51V95.33h-3.76v-.74h9l11,13.72h.07v-13h-3.92v-.74h8.4v.74Z"/></g></g><rect class="cls-33" width="250" height="250"/></svg>