<svg id="Layer_1" data-name="Layer 1" xmlns="http://www.w3.org/2000/svg" viewBox="0 0 250 250"><defs><style>.cls-1{fill:#b6cce2;}.cls-2{fill:#b6cbe1;}.cls-3{fill:#e0eaf4;}.cls-4{fill:#f91d1d;}.cls-5{fill:#cd1911;}.cls-6{fill:#adbcca;}.cls-7{fill:#b6cee6;}.cls-8{fill:#fff;}.cls-9{fill:#d0e1ef;}.cls-10{fill:#aebcca;}.cls-11{fill:#b6cee5;}.cls-12{fill:#cf1819;}.cls-13{fill:#adbbca;}.cls-14{fill:#e60a0b;}.cls-15{fill:#42b338;}.cls-16{fill:#643a1b;}.cls-17{fill:#d40404;}.cls-18{fill:#d0e1f0;}.cls-19{fill:#c31417;}.cls-20{fill:#d50405;}.cls-21{fill:#c8e5d5;}.cls-22{fill:#fefbfb;}.cls-23{fill:#fef8f8;}.cls-24{fill:#fef2f2;}.cls-25{fill:#d1d8e4;}.cls-26{fill:#fbe4e4;}.cls-27{fill:#fee3e3;}.cls-28{fill:#f94949;}.cls-29{fill:#43b338;}.cls-30{fill:#d50404;}.cls-31{fill:#fef9f9;}.cls-32{fill:#fefbfa;}.cls-33{fill:#fd6f6f;}.cls-34{fill:#d0d5e2;}.cls-35{fill:#f93737;}.cls-36{fill:#d0dbe8;}.cls-37{fill:#d0d7e4;}.cls-38{fill:#d0dae7;}.cls-39{fill:#f92323;}.cls-40{fill:#f82424;}.cls-41{fill:#f82f2f;}.cls-42{fill:#d2cfdb;}.cls-43{fill:#d3d0dc;}.cls-44{fill:#cf1b1c;}.cls-45{fill:#d8bcc5;}.cls-46{fill:#fef8f7;}.cls-47{fill:#d0dbe9;}.cls-48{fill:#d0d1de;}.cls-49{fill:#f92727;}.cls-50{fill:#d1d1dd;}.cls-51{fill:#d2ceda;}.cls-52{fill:#f92e2e;}.cls-53{fill:#d3c3ce;}.cls-54{fill:#d1ceda;}.cls-55{fill:#fedcdc;}.cls-56{fill:#fefefe;}.cls-57{fill:#63391b;}.cls-58{fill:#fef7f7;}.cls-59{fill:#d1d9e6;}.cls-60{fill:#cf1d1e;}.cls-61{fill:#f92221;}.cls-62{fill:#f92222;}.cls-63{fill:#f92627;}.cls-64{fill:#d2d4e0;}.cls-65{fill:#d3c1cc;}.cls-66{fill:#d1ced9;}.cls-67{fill:#d14044;}.cls-68{fill:#d12326;}.cls-69{fill:#fb4242;}.cls-70{fill:#fd7676;}.cls-71{fill:#fa2b2b;}.cls-72{fill:#fb4a4a;}.cls-73{fill:#d0dae8;}.cls-74{fill:#cf1a1b;}.cls-75{fill:#f92525;}.cls-76{fill:#d6d0db;}.cls-77{fill:#d8b9c3;}.cls-78{fill:#f58181;}.cls-79{fill:#f63233;}.cls-80{fill:#fa393a;}.cls-81{fill:#fc6d6d;}.cls-82{fill:#cf1e20;}.cls-83{fill:#d05157;}.cls-84{fill:#d11e20;}.cls-85{fill:#f72d2d;}.cls-86{fill:#fa3e3e;}.cls-87{fill:#fb5a59;}.cls-88{fill:#d05559;}.cls-89{fill:#d02023;}.cls-90{fill:#d15459;}.cls-91{fill:#fedbdb;}.cls-92{fill:#fdaaa9;}.cls-93{fill:#f62b2b;}.cls-94{fill:#fa3d3d;}.cls-95{fill:#fc6261;}.cls-96{fill:#d01e21;}.cls-97{fill:#d2545a;}.cls-98{fill:#d27f87;}.cls-99{fill:none;}</style></defs><title>products</title><path class="cls-1" d="M34.11,248.22a26.07,26.07,0,0,0-.49-6.17,2,2,0,0,1-1-1.6c.09-2.29-.75-4.54-.58-6.82a7.11,7.11,0,0,0,.24-3,.93.93,0,0,1,.33-.54c-.08-2.32.29-4.65-.39-7-1.73-.91-.94-2.26-1.19-3.47.26-.87.25-1.85.57-2.75,1.36-1,1.74.11,2.08.64a38,38,0,0,0,7.7,8.69c1.93,1.68,3.87,3.47,7.24,3.83a15.22,15.22,0,0,1,3.26,2c6.82,4.35,14.9,5.73,23.75,5.49H77.3a8.74,8.74,0,0,1,.87.14c5.75,1,11.56,1.83,17.47,2.28,4.42.35,8.85.28,13.28.34a5.19,5.19,0,0,1,2.82.59c1.2,1.81.82,3.72.75,5.61-.07.53-.48,1-.43,1.57v.74a2.18,2.18,0,0,1-.21.47,1.78,1.78,0,0,1-1.25.71c-.68,0-1.35.06-2,.06H35C34,249.53,33.34,249.09,34.11,248.22Z"/><path class="cls-2" d="M212.06,240.92c.37,2.52-.42,5-.47,7.51,0,.54-.47,1-.87,1.48-1,0-2,.05-3,.05H138.33c-1,0-2-.05-3-.07a2.42,2.42,0,0,1-2-2.66c-.12-5.66-1-11.3-1.11-16.94-.05-1.92-.67-3.82-.47-5.75a3.69,3.69,0,0,1,.4-2.12,1.56,1.56,0,0,1,2.18-.25,1.58,1.58,0,0,1,.37.44c3,3.79,7.82,6.45,12.17,9.3,3.83,2.49,8.69,4,13.63,5.22,3.12.78,6.24.66,9.4.69a7.18,7.18,0,0,1,3.63.49,1.47,1.47,0,0,0,1.41,0c1.18-.65,2.55-.46,3.88-.49,6.63.8,13.19,1.85,19.91,2.22,3.36.19,6.72.05,10.09.11C210,240.21,211.2,240.17,212.06,240.92Z"/><path class="cls-3" d="M212.06,240.92c-4.18,0-8.39.19-12.55,0A138.53,138.53,0,0,1,180,238.66c-.57-.11-1.15-.17-1.74-.24a.5.5,0,0,1-.26-.5c.6-1,2-1,3.15-1.3,11.38-2.79,18.55-8.34,20.92-16.84,3.31-11.88-8.61-23.59-25.29-25.35-13-1.36-25.1,3.75-30.76,10.81-.53.66-.65,1.9-2.52,1.47a2.23,2.23,0,0,1-.67-1.89c.2-5.69,1.4-11.21,5.21-16.28a6.15,6.15,0,0,1,2.16-2c4.35-.79,4.81-.67,7,2.13a8.34,8.34,0,0,0,4.34,2.61,23.73,23.73,0,0,0,6.15.93,93,93,0,0,0,13.35-.29c3.72-.48,6.95-1.33,8.44-4.18.54-1.06,1.81-1.55,3.38-1.62.87,0,1.68,0,2.52,0,4-.2,6.33-1.87,6.51-4.76.13-2.18,0-4.35,0-6.53a3,3,0,0,1,.87-2.61,2.14,2.14,0,0,1,.77-.34c4.58-.06,9.23-.51,13.49,1.21,0,1.06,0,2.13.05,3.19-.69,1.19.48,2.22.56,3.35a13.76,13.76,0,0,1-.15,3.14,12.46,12.46,0,0,0-.78,3.62,1.39,1.39,0,0,1-.54.48c-.13,3.47-.86,7-.57,10.54.87,2.22,1.23,4.42-.5,6.53a16,16,0,0,0-.42,2.15c-.58,8-1,16-1.74,24C212.73,233.7,212.81,237.33,212.06,240.92Z"/><path class="cls-3" d="M214.75,113.78c-.35,4.28-.67,8.54-1.06,12.82-.41,4.45-.43,8.92-1.06,13.36a3.13,3.13,0,0,1-2.7,1.08,132.76,132.76,0,0,1-28.9-2.18,6.2,6.2,0,0,1-2-.67,1.23,1.23,0,0,1-.47-.49c0-1.27,1.45-1.36,2.61-1.6,7.6-1.61,13.41-4.86,17.66-9.66,11.38-12.87-.56-30.92-21.66-32.62-13.56-1.1-23.66,2.84-30.75,11.08-.5.57-.67,1.64-2.29,1.16a2.15,2.15,0,0,1-.68-1.9c.37-5.59,1.27-11.1,5.12-16.12a6.67,6.67,0,0,1,2.27-2.15c4.34-.8,4.81-.66,7,2.12a7.66,7.66,0,0,0,4.35,2.61,24,24,0,0,0,4.91.79c5.53.23,11.08.56,16.55-.47,2.82-.52,5.16-1.44,6.26-3.53.75-1.43,2.27-2,4.35-2H196c4-.19,6.36-1.85,6.55-4.73.14-2.12,0-4.24,0-6.36a3.44,3.44,0,0,1,.64-2.46,2.61,2.61,0,0,1,1.06-.63,52.89,52.89,0,0,1,11.86.5c1.33.2,1.86.93,1.86,1.87a10.52,10.52,0,0,0,.32,3.4v4c-.35,2.54-.34,5.11-.87,7.64a3.27,3.27,0,0,0,0,1.46c-.3,1.88,0,3.78-.36,5.66a7.77,7.77,0,0,0-.38,4.08c.38,2.27-.21,4.53-.61,6.79a5.06,5.06,0,0,0,.06,2.32C216.13,110.64,216.19,112.33,214.75,113.78Z"/><path class="cls-2" d="M178.81,137.76c3.52.55,7,1.16,10.57,1.62a146.08,146.08,0,0,0,21.53.93,5.15,5.15,0,0,0,1.69-.35c.28,2.61-.31,5.15-.55,7.72-.18,2.08-2,3-5.61,3.23-1,.87-2.44.69-3.76.69H140.33c-3.58-.26-5.53-1.73-6-4.24a11.73,11.73,0,0,0-.56-1.38c-.21-6.44-1.12-12.86-1.26-19.3a9.08,9.08,0,0,0-.19-2,6.65,6.65,0,0,1,.49-2.45c2.1-1,3,.34,3.67,1.24a38.18,38.18,0,0,0,5.57,4.9c4.34,3.47,9.87,5.52,15.72,7.35A54.86,54.86,0,0,0,174.44,138C175.94,138,177.29,137,178.81,137.76Z"/><path class="cls-4" d="M128.53,165.51l-4.34-.08c-2.61-.72-1.31-1.89-.69-3,2-3.38,4.23-4.24,9.9-3.86,1.17-.08,2.36-.09,3.54-.09h72a13.68,13.68,0,0,1,4.88.69,9.2,9.2,0,0,1,3.91.77,2.29,2.29,0,0,1,1.2.28,12.27,12.27,0,0,1,3.59,2.46c1.73,1.67.79,3.13-2.1,3.41-1.09.11-2.15-.13-3.22,0-4.77.14-9.52.24-14.27-.07-18.75-.1-37.49,0-56.23,0-1.11,0-2.17.22-3.26.24H131.58A5.1,5.1,0,0,1,128.53,165.51Z"/><path class="cls-4" d="M139.88,150.88h66.58c3,1.78,4.25,4.39,5.84,6.82a3.38,3.38,0,0,1-2.68.74H136.05a4.91,4.91,0,0,1-1.48-.15c-1.49-.49-1.18-1.33-.7-2.13a18.3,18.3,0,0,1,2.65-3.65A4.85,4.85,0,0,1,139.88,150.88Z"/><path class="cls-5" d="M133.85,157.75H212.3l1.53,1.43H136.36c-1.26,0-2.52-.05-3.79-.07C132.41,158.38,132.75,157.89,133.85,157.75Z"/><path class="cls-2" d="M217.14,173l-13.57-.76c-1.29-1.25-.87-2.65-.48-4,.21-.79,1.31-1,2.37-1.08,3.25-.1,6.51-.13,9.77,0,2,.08,2.61.87,2,2.22A10.37,10.37,0,0,1,217.14,173Z"/><path class="cls-6" d="M217.27,169.43c0-1-.43-1.56-2-1.52-3.19.06-6.38,0-9.56,0-1.89,0-2,.13-2.08,1.44-.05,1,0,1.93,0,2.89h-.42l-.41-.19c-1.24-2.25-.87-4.46.4-6.63,4.93,0,9.86-.17,14.78.11a20,20,0,0,0-.26,3.77Z"/><path class="cls-7" d="M48.28,230.41a6.44,6.44,0,0,1-3.63-.92c-3.91-2.05-6.26-5-9-7.73-1.54-1.53-2.37-3.43-3.53-5.16a1.46,1.46,0,0,1-1.06-.5c-.72-1-.3-1.85.44-2.71.09-3.27-.67-6.52-.46-9.81,0-.28-.24-.55-.36-.87-1.61-.8-1-2-1.18-3.1.32-1,.22-2.07.57-3.08.8-1.59-.49-3.3.87-4.93a47.65,47.65,0,0,1,7.4-7.69,6.45,6.45,0,0,1,4.07-1.65,1.37,1.37,0,0,1,.66.27c.36.34.67.73,1.06,1.07a8.18,8.18,0,0,0,4,2.28c.87.21,1.74.47,2.05,1.19a2.45,2.45,0,0,1-.66,2.08c-3.88,5.21-4.9,10.95-5.07,16.78a1.18,1.18,0,0,1,0,.59,17,17,0,0,0-2.61,9A17.49,17.49,0,0,0,47,227.85C47.65,228.59,48.79,229.29,48.28,230.41Z"/><path class="cls-2" d="M42.7,182.46a14.74,14.74,0,0,0-7.17,5.29c-.93,1.28-2.39,2.28-3.35,3.55a6.38,6.38,0,0,0-1.58,5l-.25.14-.28-.12v-1.86c-.58-1.2.17-2.47-.43-3.67l-.06-2.85a.41.41,0,0,1-.16-.56.49.49,0,0,1,.16-.16v-.37a9.1,9.1,0,0,1-1-7.14,6.25,6.25,0,0,0,0-3.78c0-.6,0-1.2-.06-1.81-.43-1.12-.1-2.27-.2-3.41,0-3.48,0-3.48,4.86-3.48h6.08c3.11.07,3.69.49,3.74,2.68.08,4-.13,8,.14,12A1,1,0,0,1,42.7,182.46Z"/><path class="cls-3" d="M43.77,206.08a26.37,26.37,0,0,1,3-14.35c.86-1.7,2.39-3.16,3.09-4.92a1.39,1.39,0,0,1,.57-.42c3.94-.55,4.57-.37,6.39,2.18a8.16,8.16,0,0,0,5.5,2.92,66.65,66.65,0,0,0,20,.18c3-.4,5.41-1.45,6.54-3.58.86-1.55,2.36-2.11,4.51-2h1.27c3.64-.14,5.64-1.22,6.88-3.75s.42-5,.63-7.55c.08-.87-.28-1.83.56-2.61a2,2,0,0,1,1.09-.43,58.4,58.4,0,0,1,11.74.71c1.47.27,1.44,1.19,1.12,2.08V177a2.3,2.3,0,0,1,.87,1.08c.29,2.5-.52,5-.66,7.45,0,.34-.4.64-.86.81-.61,1-.36,2.12-.37,3.19,0,1.51,0,3-.06,4.51.44.87.29,1.89.6,2.82.23,2.72-.61,5.41-.57,8.13a2,2,0,0,1-1,1.74,21.08,21.08,0,0,0-.45,5.82c.64.44,1.07,1,.91,1.6-.75,2.79.06,5.64-.87,8.42-.19.59-.27,1.19-1,1.57L113,227a4.56,4.56,0,0,0,.49,3.82c.54,2.78-.46,5.5-.47,8.27a1.45,1.45,0,0,1-1.07,1.34l-.45.42c-3.63,0-7.26.16-10.87,0-7.82-.39-15.56-.91-23-2.87.21-1.27,1.81-1.11,2.88-1.35,7.9-1.81,13.91-5.22,18-10.43,10.16-13-1.46-29.86-22-31.82-12.54-1.19-22.33,2.18-29.66,9.5C46,204.76,45.69,206,43.77,206.08Z"/><path class="cls-8" d="M43.77,206.08c1.58-1.56,2.89-3.24,4.64-4.73a33.51,33.51,0,0,1,14.25-6.85,41.69,41.69,0,0,1,8.69-1.1,44,44,0,0,1,11.36,1.4,32,32,0,0,1,11.05,4.93c5.22,3.71,8.41,8.2,9.27,13.54a16.75,16.75,0,0,1-2.49,11.62,25.09,25.09,0,0,1-11.76,9.88,37.79,37.79,0,0,1-10.51,3,2.15,2.15,0,0,0-.64.28h-.5c-.56-.3-1.23-.09-1.83-.19-13.55-2.48-23-8.42-28.68-17.52a29,29,0,0,1-3.54-9.79c-.3-1.4.41-2.73.67-4.09A1.24,1.24,0,0,1,43.77,206.08Z"/><path class="cls-9" d="M43.71,206.42a26.83,26.83,0,0,0,4.92,15.39c3.95,5.71,10,9.9,17.77,12.92a69.4,69.4,0,0,0,9.2,3c.33.1.34.21,0,.33-3.48,0-7.07.25-10.55-.35a37.81,37.81,0,0,1-12.17-4.18,20.27,20.27,0,0,1-4.59-3.08,21.47,21.47,0,0,1-6.66-9.78,15.93,15.93,0,0,1,1.13-12.39C43.07,207.65,43.06,207,43.71,206.42Z"/><path class="cls-3" d="M75.62,238v-.33a2.24,2.24,0,0,1,1.53.33Z"/><path class="cls-7" d="M150.48,186.84a28.27,28.27,0,0,0-6.55,20,.84.84,0,0,1,.22.54c-.87,3-1.88,6-1.82,9.09.16,11.08,13,20.57,28.48,20.86,1.73,0,3.47.25,5.27.18h1.22a1.63,1.63,0,0,1,1,.5v.36c-1.51-.24-2.71.61-4.09.64s-2.39-.78-3.85-.65a37.35,37.35,0,0,1-18.5-3.48,1.85,1.85,0,0,0-.44-.18c-3.76-.76-6.21-2.8-8.77-4.72-2.14-1.61-4.57-3-6.61-4.69a8.71,8.71,0,0,1-2.12-2.44,1.38,1.38,0,0,0-1.14-.87c-.6-4.61-.87-9.24-1.11-13.9-.25-4-.64-7.94-1-11.91v-1.81c-.49-.86.06-1.73.56-2.39a47.54,47.54,0,0,1,9.91-9.56,2,2,0,0,1,1.4-.33,2,2,0,0,1,1.1.61,4.12,4.12,0,0,1,.32.41,4.83,4.83,0,0,0,.43.58l.42.33.48.31c1.34,1.09,3.47,1.28,5,2.17A1.79,1.79,0,0,0,150.48,186.84Z"/><path class="cls-2" d="M142.8,182.46a1.6,1.6,0,0,0-1.25.53,9.25,9.25,0,0,1-2.78,2.5,21.55,21.55,0,0,0-4.4,4.34c-1.21,1.55-2.92,2.9-3.64,4.65a1.23,1.23,0,0,1-.4-1c.09-3-.41-6-.6-9.05-.28-4.58-.67-9.16-1-13.74-.06-.87,0-1.81,0-2.71a3.29,3.29,0,0,1,2-.73c3.47-.09,6.9-.11,10.35,0,1.55.06,2.51.67,2.53,1.84q.1,6.08,0,12.17A1.26,1.26,0,0,1,142.8,182.46Z"/><path class="cls-2" d="M116.67,174.5c0-1-.53-1.44-2.08-1.56-3.84-.3-7.68-.52-11.54-.63-1.56-1.27-.87-2.72-.56-4.11.13-.57,1-.87,1.74-.92a93.49,93.49,0,0,1,12.07.06,2.53,2.53,0,0,1,.87.35c1.27,1.17,1.32,2.34-.06,3.48C116.82,172.28,117.39,173.48,116.67,174.5Z"/><path class="cls-10" d="M142.8,182.46V169.61c0-1.63-.09-1.68-2.49-1.69H128.72a2.61,2.61,0,0,1-.21-2.42l13.34-.07a2.41,2.41,0,0,1,1.38.34l.41.18c1,.78.56,1.74.62,2.61.33,4.27.13,8.56.13,12.84a1.74,1.74,0,0,1-1.06,1.74A1.13,1.13,0,0,1,142.8,182.46Z"/><path class="cls-11" d="M30.54,92.36l.15-1.44c1.74-3.65,5.26-6.37,8.81-9.09a3.94,3.94,0,0,1,3.08-1,2,2,0,0,1,1.05.68,2.13,2.13,0,0,1,.26.44,3,3,0,0,0,.32.87l.27.37a3.29,3.29,0,0,0,.87.6c1.43,1.28,4.14,1.21,5.42,2.66a2.38,2.38,0,0,1-.65,2.06c-3.9,5.22-5,10.92-5.07,16.76a1.42,1.42,0,0,1,0,.58A17.66,17.66,0,0,0,42.31,115c0,5.07,2.12,9.73,6.69,13.74,7,6.16,16.11,8.58,26.94,8.15a8,8,0,0,0,1.2-.06,4.07,4.07,0,0,1,1.2.14c1.26.6,3.4.05,4,1.57-1.24,1.18-3.11,1.47-4.92,1.56-13.77.76-25.82-2.19-36.18-8.75a32.26,32.26,0,0,1-7.22-6c-.46-.53-1.26-.8-1.74-1.28-1.18-1.88-.55-3.86-.59-5.8a4.52,4.52,0,0,0-.42-2.26c.06-3-.75-6-.39-9a8.92,8.92,0,0,0-.61-4.45,8,8,0,0,1,0-3.24,6.05,6.05,0,0,0-.53-3.77C29.62,94.44,29.16,93.27,30.54,92.36Z"/><path class="cls-4" d="M28.49,64.9,26,64.84c-2.34-.08-2.79-.52-2.16-2.13.06-.18.12-.35.19-.53.1-1.86,1.38-3.12,3.78-3.81a11.62,11.62,0,0,1,5.3-.46c25.8-.14,51.59,0,77.35-.07a17,17,0,0,1,2.26.1c5.13-.32,7.9,2.12,10.59,4.67.43,1.74-.39,2.61-2.71,2.83-1.07.12-2.14-.15-3.21,0-4.88.08-9.75,0-14.63.06a70.34,70.34,0,0,0-7.54-.23c-17.32,0-34.64-.06-51.95,0-4.16.35-8.32.12-12.49.16A5.13,5.13,0,0,1,28.49,64.9Z"/><path class="cls-2" d="M42.72,81.1a7.39,7.39,0,0,0-3.21,1.61,54.85,54.85,0,0,0-6.66,6.09c-.67.72-.75,1.73-2.16,2.1-.87-3.48-.61-7-1.15-10.55C28.28,78,27.8,75.59,29,73.14V70.59a1,1,0,0,1-.19-.34c-.39-3.48-.1-3.72,4.76-3.73,2.34,0,4.7,0,7,0,1.49,0,2.7.47,2.74,1.68.13,4,.14,8,0,11.93A1.12,1.12,0,0,1,42.72,81.1Z"/><path class="cls-6" d="M42.72,81.1V69.15c0-1.79-.08-1.84-2.54-1.86H31.36c-2.15,0-2.23.1-2.27,1.66v1.64c-.79-1-.37-2-.46-3s-.07-1.8-.11-2.7c4.85-.2,9.74-.06,14.66-.06,1.48,1.31,1,2.91,1.07,4.35.24,3.48.11,7,.06,10.52a1.93,1.93,0,0,1-1.13,2.11A.89.89,0,0,1,42.72,81.1Z"/><path class="cls-8" d="M178.28,238h-1a3.53,3.53,0,0,0-1.44-.15c-6.19-.53-11.19-2.91-15.88-5.55-10.14-5.68-15.42-13.32-16.51-22.5a16,16,0,0,0,.41-2.38v-.27a1.08,1.08,0,0,1,0-.35c3.94-6.17,10.43-10.43,19.44-12.32,11.58-2.48,21.95-.58,30.75,5.37,7.37,5,10.43,11.3,9.31,18.4-1.38,8.69-8,14.83-19.24,18.25C182.28,237.14,180.25,237.55,178.28,238Z"/><path class="cls-4" d="M203.15,172.29c0,3-.06,5.92-.09,8.89,0,3.47-2.87,5.51-7.69,5.57h-1.26a13.3,13.3,0,0,0-2.75.1c-1,.25-.72,1.14-1.09,1.74a8,8,0,0,1-4.79,3.3,28.77,28.77,0,0,1-7.15,1,94.57,94.57,0,0,1-13.36-.23,27.41,27.41,0,0,1-3.91-.71c-2.7-.71-4.66-2-5.34-4-.33-1-.93-1.29-2.22-1.19-1,.08-2,.07-3,.09l.07-.17c-.27-.53.1-1,.5-1.34a33.83,33.83,0,0,1,10.77-7,2.81,2.81,0,0,1,1.22-.15c1.12.27,2,.93,3.25,1a1.38,1.38,0,0,1,.49.37c.06.76-.81.95-1.46,1.31-1.22.71-2.61,1.34-3,2.53a1.09,1.09,0,0,0,.41,1.48l0,0c.86.43,1.36-.2,1.83-.59a12.06,12.06,0,0,0,2.37-3c1.55-2.32,3.37-3,7-2.49a3.45,3.45,0,0,0,1.46-.19,3.45,3.45,0,0,1,3.16,0,2.13,2.13,0,0,0,2,0,8.06,8.06,0,0,0,3.44-3,4.15,4.15,0,0,1,1.15-1.38,1.93,1.93,0,0,1,2-.29c.72.34.47.87.23,1.3-.38.72-1.14,1.32-1.29,2.13-.18,1.06.55,1.9,1.9,1.44a5.09,5.09,0,0,1,4.48.33c.16.09.48,0,.74,0a3.6,3.6,0,0,0,2-.87c-1,.65-2,1.46-3.68.44-.95-1.74.44-3.09,1.49-4.49a10.37,10.37,0,0,1,1.74-1.94c.92-.73,2.26-.46,3.38-.73,1.65.06,3.47-.37,4.8.73Z"/><path class="cls-8" d="M144.44,106.19c3.93-6.19,10.43-10.38,19.43-12.34a40,40,0,0,1,27.69,3.48c7.16,3.79,11.3,9,12.37,15.22.86,5.09-.61,10-4.45,14.4-3.55,4.1-8.47,7-14.52,9-2,.66-4.26.68-6.18,1.47a4.38,4.38,0,0,1-1.48.29c-18.25-3.38-31.54-13.9-33.33-28.18a3.66,3.66,0,0,0-.05-2.38,1.19,1.19,0,0,1,.07-.56A.91.91,0,0,1,144.44,106.19Z"/><path class="cls-4" d="M203.67,72c0,2.84-.07,5.67-.1,8.52,0,3.56-2.88,5.59-7.82,5.62h-.25c-2.51-.24-4.44,0-5.1,2.2-.43,1.46-2.35,2.29-4.26,2.89a23.25,23.25,0,0,1-5.11.87,84.38,84.38,0,0,1-16.59-.17c-4.13-.5-7.5-1.85-8.43-5.13-.16-.54-.59-.68-1.24-.67l-3.77.07-.17-.23c1.39-2.78,4.58-4.47,7.5-6.27a14.12,14.12,0,0,1,4.58-2.1,2.66,2.66,0,0,1,.69,0,8.41,8.41,0,0,1,1.17.47c.6.4,1.5.2,2.15.52a.91.91,0,0,1,.4.4c0,.73-.95.87-1.59,1.27-1.23.71-2.52,1.38-3,2.6-.25.59-.26,1.1.46,1.44s1.24-.13,1.7-.46a10.3,10.3,0,0,0,2.44-2.94c1.74-2.54,3.23-3.12,7.08-2.65a8.64,8.64,0,0,0,2-.25l.69-.17h.38a3,3,0,0,1,.73,0c2.33.7,3.75.28,5.44-1.68.62-.71,1-1.51,1.68-2.22a2,2,0,0,1,2.33-.6c.93.42.47,1.09.11,1.62a5.67,5.67,0,0,0-1.14,1.8c-.34,1.32.43,1.91,2.2,1.46a4.92,4.92,0,0,1,3.69.21c1.64.73,2.72-.32,3.48-1.09a3,3,0,0,1-3.29,1.13c-1.39-.46-1-1.55-.68-2.42a14.56,14.56,0,0,1,3.36-4.42c.87-.61,2-.4,3.07-.6a16.59,16.59,0,0,1,4.45.13,2.2,2.2,0,0,1,.68.31A.42.42,0,0,1,203.67,72Z"/><path class="cls-7" d="M144.44,106.19l-.05.33c-.47,3.27-1.66,6.47-1.57,9.82.29,10.1,12.73,19.63,26.74,20.37a52.73,52.73,0,0,1,7.73.68h1.49a1.93,1.93,0,0,0,0,.34c-3.64,1.08-7.37.87-11.12.45-1.33-.16-2.69,0-4-.24a96.74,96.74,0,0,1-13-3.71c-5.22-1.9-9.08-5.07-13-8.12-1.19-.92-1.63-2.22-2.8-3.19a2.54,2.54,0,0,0-1.58-.8c-.72-.8.13-1.74-.52-2.61,0-.6,0-1.21-.07-1.81-.59-1.68.23-3.41-.44-5.08l0-1.45c-.62-1.68.2-3.44-.46-5.11,0-.6,0-1.2-.06-1.79-.61-1.69.21-3.48-.44-5.12V93.79c-.64-.92-.12-1.82.38-2.6a26,26,0,0,1,9-8.82,5.11,5.11,0,0,1,2.45-.82,1.57,1.57,0,0,1,1.13.53,2.31,2.31,0,0,1,.31.39c.11.18.2.38.3.57l.25.34c.12.1.21.2.32.3l.38.27.74.34c1.43.71,3.33.75,4.61,1.66l-.06.17C145.83,92.36,144.26,99.12,144.44,106.19Z"/><path class="cls-2" d="M217.87,71.68c-.22,1.82.17,3.66-.55,5.45,0-1.2,0-2.4,0-3.6,0-.72-.39-1.08-1.44-1.17a35,35,0,0,0-5.22-.35c-2.19.15-4.28-.47-6.47-.34-.11-.09-.21-.19-.32-.27a2.08,2.08,0,0,1-.46-1.57c-.14-2.8.46-3.27,4.35-3.3h7.52c1.9,0,3.08.51,2.8,2C217.78,69.62,218.4,70.67,217.87,71.68Z"/><path class="cls-2" d="M203.67,72v-.35a.27.27,0,0,1,.39,0h.07Z"/><path class="cls-4" d="M129,64.84c-1.17,0-2.34,0-3.47-.08-1.32-.11-2-.81-1.53-1.64a10.47,10.47,0,0,1,2.79-3.38c1.74-1.29,4-1.4,6.29-1.25a11.86,11.86,0,0,1,4.34-.69h72.28a10.59,10.59,0,0,1,3.71.4c4.66-.67,7.07,1.68,9.61,3.78,1,.87,1.64,1.89-.26,2.7l-4.41.19a5.35,5.35,0,0,1-2.31.59c-4.15,0-8.32.19-12.47-.15-17.52-.14-35,0-52.55-.06a61.37,61.37,0,0,0-7.05.25H132A4.93,4.93,0,0,1,129,64.84Z"/><path class="cls-6" d="M203.65,64.84c4.9,0,9.8-.13,14.69.07,0,1.27-.08,2.54-.14,3.82-.07.17-.21.21-.41.08.05-1-.45-1.56-2-1.52-3.19.06-6.39,0-9.56,0-1.89,0-2,.12-2.09,1.43v2.89h-.63C201.8,69.35,202.52,67.09,203.65,64.84Z"/><path class="cls-12" d="M202.92,172.29l-5.1-.06c-2.61-1.2-2.61-1.2-5.63.44a3.13,3.13,0,0,1-1.93.5,22.11,22.11,0,0,0-2.93.23,2.18,2.18,0,0,1-1.48-.58c-.55-.53-.94-.32-1.31.12a1.86,1.86,0,0,1-.42.37,2.38,2.38,0,0,1-1.5.33,2.29,2.29,0,0,1-.71-.24c-.12,0-.23-.1-.35-.16a.84.84,0,0,0-.35.07,3.5,3.5,0,0,0-.3.24,2.92,2.92,0,0,1-.5.43,3.45,3.45,0,0,1-.8.38,3.07,3.07,0,0,1-2.67-.25c-1.74-.87-1.57.68-2.38,1a2.56,2.56,0,0,1-1,.41,1.83,1.83,0,0,1-1.66-.44c-.32-.87-.31-1.78-1.92-2a4.5,4.5,0,0,0-3.25,1c-.87.53-1.39,1.35-2.54,1.66a1,1,0,0,1-.64-.14c-1.19-.2-1.28-1.06-1.8-1.64a2.13,2.13,0,0,0-2.54-.53c-1.74.56-3.66,2.87-3.38,4.16s2.14,1.82,3.59,1a5.25,5.25,0,0,0,1.69-1.56,2.75,2.75,0,0,1,2-1.49,1,1,0,0,1,.79.42.91.91,0,0,1,.1.46,6.81,6.81,0,0,0-.22,1.18,1.17,1.17,0,0,1-.3.68,1.07,1.07,0,0,1-.56.26,35.68,35.68,0,0,0-10.79,6.84c-.5.47-1.1.87-1.64,1.35a9,9,0,0,1-6.21-2c-.11-.15-.34-.26-.42-.42h0c-.41-.19-.32-.56-.52-.82.06-.1,0-.18-.08-.26a145,145,0,0,1,0-14.89c2.33-1.27,4.91-.73,7.44-.53.55.19,1.09.44,1,.93-.56,2.9.37,6-1.55,8.39,1.49-3.2,6.44-4.74,9.13-7.64,0,0,0-.14,0-.13s-.15-.07-.15-.05a.88.88,0,0,0-.32.07l-.15.09-.29.2-.15.12a1.73,1.73,0,0,1-.31.22,1.74,1.74,0,0,0-.15.13,3.88,3.88,0,0,1-.33.23l-.16.12a2,2,0,0,1-.33.24l-.17.12a3,3,0,0,1-.34.25l-.17.12a2.88,2.88,0,0,1-.35.26s-.18.12-.17.13a3.24,3.24,0,0,1-.37.28l-.18.14c-.13.11-.27.21-.41.31l-.23.15a2.81,2.81,0,0,1-.55.27l-.33.08a1.94,1.94,0,0,1-.72-.07l-.29-.18c-.69-1.18-.41-2.45-.74-3.66a1.7,1.7,0,0,1,.28-.61,2.13,2.13,0,0,1,.7-.44c3.06-.35,6.08-.87,9.22-.4a14.32,14.32,0,0,0,2.27.09h33.33a4.76,4.76,0,0,0,3-.5c-1.09-.71-2.3-.48-3.39-.49H147.59c-1.49,0-3.07.17-4.29-.7h0a3.62,3.62,0,0,1,2.14-.4h57a3.78,3.78,0,0,1,.75.05C203.09,167.74,203,170,202.92,172.29Z"/><path class="cls-4" d="M26.18,160a10.94,10.94,0,0,1,5.78-.87,13.47,13.47,0,0,1,4.88-.7h71.74a11.81,11.81,0,0,1,4.61.65l.87-.09a1.54,1.54,0,0,1,1.51.2c2.44,1,4.18,2.61,6.14,4,.55.39,1,.83.67,1.45a2.14,2.14,0,0,1-2,.87c-.91,0-1.83.07-2.74.12a6.78,6.78,0,0,1-2.85.53H102.33a71.32,71.32,0,0,0-7.31-.25c-17.38,0-34.71,0-52.06,0-4.56.37-9.12.13-13.67.15a3.17,3.17,0,0,1-.87-.15,4.94,4.94,0,0,1-1.26-.37,8.85,8.85,0,0,0-2.67-.07c-.36,0-.7.08-.92-.19h0a.93.93,0,0,1-.52-.47.24.24,0,0,0-.11-.26.76.76,0,0,1,0-1.07h0c.31-.18.22-.52.5-.72h0c.32-.18.21-.53.53-.71h0c.28-.2.19-.55.54-.73h0c.14-.12.27-.25.4-.38s.15-.12.14-.2a.75.75,0,0,1,.53-.53v.06a.87.87,0,0,1,.57-.4Z"/><path class="cls-10" d="M28.41,165.5H42.68c1.48,1.3,1,2.91,1.07,4.35.24,3.38.11,6.77.06,10.16a1.9,1.9,0,0,1-1.11,2.11c-.65-.59-.43-1.27-.44-1.92V170c0-2.05,0-2.06-2.75-2.07H31.16c-2.48,0-2.48,0-2.54,1.85v1.09c-.21.15-.36.13-.46-.07v-3.21c-.46-.46-.23-1-.41-1.52A.9.9,0,0,1,28.41,165.5Z"/><path class="cls-12" d="M42.68,182.09q.23-8.31,0-16.62c.92,0,1.84-.08,2.77-.08h54a5.76,5.76,0,0,1,3.14.38l-.3.26c-1.27.66-2.74.45-4.15.45H48.66a6.89,6.89,0,0,0-3.57.44c1.58,1,3.62.24,5.22.81.76.26,1.24.72,1.16,1.29-.37,2.75-.07,5.57-1.85,8.46,1.11-2.25,3.31-3.53,5.36-4.86a36.49,36.49,0,0,0,5.58-4.88,12.76,12.76,0,0,1,3.26-.22H98.46c1.32,0,2.73-.18,3.85.58.7,1.34.22,2.73.27,4.09-1.26,1.15-2.93.87-4.56.67a5.44,5.44,0,0,1-2.79-2c-.87.81-2.28,1.13-3.22,1.87a4.21,4.21,0,0,1-2.39.43,24.53,24.53,0,0,0-2.72.23,2.44,2.44,0,0,1-1-.16,1.41,1.41,0,0,1-.48-.36c-.24-.33-.47-.7-1-.2a3.55,3.55,0,0,1-1.19.95,2.93,2.93,0,0,1-1.38.08c-1.35-.4-1.74.8-2.87.87a4.23,4.23,0,0,1-2.12-.13c-1.64-1.28-2,0-2.69.69a2.73,2.73,0,0,1-.87.48,3.17,3.17,0,0,1-1.78,0,1.13,1.13,0,0,1-.31-1.37c.26-.87-.59-1-1.4-1.17a2.37,2.37,0,0,0-2.44.41,8.61,8.61,0,0,0-4.35,5,6.77,6.77,0,0,1-2.35,1.6,30.33,30.33,0,0,0-7.52,5.05,4.62,4.62,0,0,1-2.73,1.5l-.52.17a9.49,9.49,0,0,1-6.53-2.95c-.58-.28-.13-.81-.54-1.13a.22.22,0,0,0-.06-.3h0Z"/><path class="cls-2" d="M42.76,182.76a1.44,1.44,0,0,1,.55,1.13A1,1,0,0,1,42.76,182.76Z"/><path class="cls-4" d="M50.36,186.67a35.78,35.78,0,0,1,12.17-8.25,1.13,1.13,0,0,1,.68-.06,3.32,3.32,0,0,0,2,.63c.67,0,1.47-.09,1.53.6s-.52.87-1.13,1.09a10.94,10.94,0,0,0-2.34,1,3.47,3.47,0,0,0-1.45,1.65,1.15,1.15,0,0,0,.57,1.53l.17.06c.87.31,1.29-.3,1.74-.73a20.23,20.23,0,0,0,2.36-3.17c1.35-2,3.39-2.65,6.48-2.2a2,2,0,0,0,1,0c1.74-1.05,3.39-.47,5.07,0a3.67,3.67,0,0,0,2.61-1.28,19.19,19.19,0,0,0,2.45-2.95,2.07,2.07,0,0,1,2.66-.78c1.11.52.2,1.18-.13,1.74-.17.28-.49.51-.63.78-.35.72-1.15,1.49-.22,2.2s1.88.19,2.8-.07a2.27,2.27,0,0,1,2.09,0c1.5,1.06,2.7.56,3.82-.37-.87.63-1.67,1.32-3,.71a1.35,1.35,0,0,1-.9-1.69,1.44,1.44,0,0,1,.21-.41,13,13,0,0,1,3.77-4.66,2.69,2.69,0,0,1,2.61.09h5.12a68.52,68.52,0,0,1,.11,10.43c-1.53,2.93-3.65,4-7.92,4H93.36a13,13,0,0,0-2.49.1c-.92.23-.65,1-1,1.58A7.8,7.8,0,0,1,85,191.84a28.11,28.11,0,0,1-6.63,1,92.52,92.52,0,0,1-14.32-.22,21.41,21.41,0,0,1-3.87-.78c-2.34-.73-4-1.91-4.84-3.7-.64-1.38-.67-1.37-2.76-1.39C51.87,186.74,51.12,186.7,50.36,186.67Z"/><path class="cls-13" d="M102.56,182.71c0-3.48.17-7-.12-10.43a11.51,11.51,0,0,0,0-4c-1.09-.87-1.14-1.68.06-2.49h0a2.5,2.5,0,0,1,1.38-.35h13a3.62,3.62,0,0,1,.73.14c-.38.75,0,1.59-.56,2.31H105.23c-2.14,0-2.22.08-2.25,1.67,0,.87,0,1.81.08,2.71,0,2.83-.06,5.65-.12,8.48C102.92,181.43,103.15,182.12,102.56,182.71Z"/><path class="cls-4" d="M82.19,211c5.21-1.33,9.87,0,12,3.47a4,4,0,0,1,.2,4.35.87.87,0,0,1-.59-1.08s0-.08,0-.12c-1.42,2.84-4.79,4.53-9.15,5.27-5.85,1-11.83-1-15-4.63-1.58-1.84-1.34-3.81-1.33-5.8,4.34-2.72,7.77-3.54,12.4-2C81.22,210.64,81.71,210.85,82.19,211Z"/><path class="cls-14" d="M68.39,212.59c.64.14,1.84,0,1.21.87-1.1,1.51-.38,2.85.63,4.11,4.26,5.35,13,6.19,18.85,3.2a14.19,14.19,0,0,0,5.21-4.39v2.44c-.66,4.57-8.82,9.51-18.25,6.56-.79-.24-1.45-.87-2.5-.5-2.9-1-2.9-1-5.38-.41.33.81,1.74,1.08,1.92,2a16.77,16.77,0,0,1-14.22-1.63c-4-2.69-5.21-6.81-3.07-10.42,1.73.05,1.47,1.14,1.73,1.85,1,2.6,3,4.53,6.3,5.82a5.17,5.17,0,0,0,2.76.51c-1.42-3.92-2.28-7.77,3.74-10.27A1.52,1.52,0,0,1,68.39,212.59Z"/><path class="cls-4" d="M67.52,212.59c-5.36,3.13-4.67,6.95-2.1,10.95-5.78.15-10.5-3.66-11.58-6.58-.32-.87-.19-1.82-1-2.61,1.57-3.64,7.4-5.21,11.67-3.15.29.12.58.22.87.31a2.62,2.62,0,0,1,1.51.27C67.25,212,67.52,212.27,67.52,212.59Z"/><path class="cls-15" d="M73.25,198a15,15,0,0,1,12.56.18c-1.21,1.31-3.12,1.65-5,2.3,1.09,1.15,2.43,2.22,2.88,3.69-2.55.51-4.7-.3-7-.75-2.55-.47-4.83-2.53-4.69-4.22A1.28,1.28,0,0,1,73.25,198Z"/><path class="cls-16" d="M73.25,198c-1,1.41-.09,2.61,1,3.65a18.72,18.72,0,0,0,2.51,1.74A21.16,21.16,0,0,1,82.19,211a2.64,2.64,0,0,1-1.62.06,10.63,10.63,0,0,1-2.71-3.22,19.4,19.4,0,0,0-4.81-4.88,31.13,31.13,0,0,1-3.16,6c-.81,1.23-1.34,2.6-3.33,3.27a1.47,1.47,0,0,1-1.17-.68c2.17-2.85,4.34-5.68,5.3-8.91.15-.51.51-1-.44-1.41-.35-.16-.36-.76-.48-1.17C69.12,197.93,70,197.39,73.25,198Z"/><path class="cls-17" d="M70.12,226.49c-1.73-.32-2.6-1.36-3.86-2.34,1.24-.25,2.26-.44,3.28-.66,2.29-.47,2.82-.29,4,1.45A7.51,7.51,0,0,1,70.12,226.49Z"/><path class="cls-18" d="M144.37,209.7c1,7.34,4.49,13.91,11.85,19.27a54,54,0,0,0,20,8.69c.33.1.34.21,0,.33-3.43-.07-6.87.23-10.3-.33-8.61-1.41-15.31-4.71-20-10.12a17.3,17.3,0,0,1-4.49-13.81,12.44,12.44,0,0,1,2.47-6.58h0C144.5,208,143.77,208.89,144.37,209.7Z"/><path class="cls-2" d="M143.44,183.44a1,1,0,0,1,.52.81A.76.76,0,0,1,143.44,183.44Z"/><path class="cls-3" d="M176.26,238v-.33a1.57,1.57,0,0,1,1,.32Z"/><path class="cls-2" d="M143.92,184.22a.49.49,0,0,1,.42.42Z"/><path class="cls-19" d="M143.27,165.8q9.85,0,19.7-.06h37.86c1.44.08,1.74.34,1.74,1.35s-.56,1.21-1.69,1.18H164.25a16.78,16.78,0,0,1-3.47-.22,5.13,5.13,0,0,0-2-.06,34.69,34.69,0,0,1-6.28.28.69.69,0,0,1-.42.22.7.7,0,0,1-.45-.17l-8.28,0A4.93,4.93,0,0,1,143.27,165.8Z"/><path class="cls-3" d="M113,132.63c-.62,1-.39,2.09-.41,3.15,0,1.35-.07,2.72-.11,4.08a1.43,1.43,0,0,1-.76.82A4.06,4.06,0,0,1,110,141,140.06,140.06,0,0,1,85,139.58a4.2,4.2,0,0,1-2.77-1.11c-1.19-.67-2.87-.4-4-1.08.19-1.28,1.8-1.12,2.86-1.35,7.83-1.74,13.81-5.14,17.91-10.27,6.38-8,4.3-18.72-4.54-25.39-6-4.53-13.34-6.86-21.81-6.86-10.59.06-19.12,3.39-25.21,9.75-.8.87-1.15,2.11-3.08,2.13a25.46,25.46,0,0,1,1.91-12.1,28.79,28.79,0,0,1,2.75-4.83,7.54,7.54,0,0,0,1.41-2.3,1.28,1.28,0,0,1,.58-.42c3.93-.55,4.65-.37,6.37,2.17,1.14,1.74,3.13,2.51,5.45,2.92a65.47,65.47,0,0,0,20.2.16c3.07-.41,5.43-1.6,6.6-3.76.7-1.32,2-1.83,3.91-1.82h1.74c3.72-.14,5.55-1.14,6.82-3.74,1.15-2.42.43-4.91.64-7.36.08-.94-.32-1.94.54-2.81.12-.08.25-.21.39-.22a48.08,48.08,0,0,1,12.9.61,1.82,1.82,0,0,1,1.44,1.41,16.25,16.25,0,0,1,.09,5,13.71,13.71,0,0,0-.87,3.68,2.9,2.9,0,0,1-.48.51c0,1-.09,1.92-.14,2.89a3.28,3.28,0,0,0,.26,3,5.24,5.24,0,0,1,.33.94c.26,2.67-.53,5.3-.56,8a1.59,1.59,0,0,1-1.07,1.55c-.61,2.06-.37,4.15-.43,6.22a1.92,1.92,0,0,1,.7.87,67.89,67.89,0,0,1-.8,11.12,2,2,0,0,1-.87,1.08L114,119.2a6.71,6.71,0,0,0,.34,4.82c.71,2.55-.48,5.07-.45,7.6C113.92,132.05,113.52,132.41,113,132.63Z"/><path class="cls-8" d="M44.27,105.44a64.87,64.87,0,0,1,4.8-4.87,34.16,34.16,0,0,1,11.74-6.08A49,49,0,0,1,72.1,92.75a28.7,28.7,0,0,1,6,.39c6,.94,11.37,2.74,15.89,5.93,4.87,3.43,8.15,7.4,9.16,12.17,1.39,6.61-.41,12.71-6.42,18C92,133.5,86,136.06,78.81,137.12a2.53,2.53,0,0,0-.63.28h-1a3.47,3.47,0,0,0-1.47-.15c-11.87-2.05-20.53-7.16-26.59-14.63a27.78,27.78,0,0,1-5.53-12.71c-.28-1.4.42-2.72.66-4.09A1.2,1.2,0,0,1,44.27,105.44Z"/><path class="cls-2" d="M82.19,138.49a47.66,47.66,0,0,1,5.89.78,151.54,151.54,0,0,0,21.19,1H112a8.94,8.94,0,0,1,.87,1.82c.23,2.1.52,4.21-.42,6.25a3.17,3.17,0,0,1-3.47,2.15,11.88,11.88,0,0,1-3.14.36c-.87.8-2.07.71-3.23.71-21,0-42.08.06-63.12,0-4.35-.68-5.73-1.8-5.92-5-.06-1-.45-1.89-.48-2.85a2.13,2.13,0,0,1,1-2c.12-2.07-.43-4.11-.54-6.17-1.7-2.37-1.41-4.95-1.53-7.49a1.82,1.82,0,0,1,1-1.94V124c1.74.64,2.61,1.89,3.69,2.93A38.26,38.26,0,0,0,45.59,133a54.91,54.91,0,0,0,19.75,6.08c2.61.31,5.28.94,8,.2a2.41,2.41,0,0,1,1,0,12.07,12.07,0,0,0,6.57-.62A6.44,6.44,0,0,1,82.19,138.49Z"/><path class="cls-12" d="M50.86,86l-.52.17a10.44,10.44,0,0,1-6-2.25c-.42-.14-.33-.51-.6-.72h0c-.53-.28-.07-.81-.53-1.11a.26.26,0,0,0,0-.34c.11-5.66.15-11.3,0-17,.93,0,1.85-.08,2.77-.08h54c1.07,0,2.21-.2,3.15.39l-.3.26c-1.28.66-2.75.45-4.15.45H49.15a7.47,7.47,0,0,0-3.6.41c1.5,1.09,3.65.2,5.1,1a1.47,1.47,0,0,1,.87,1,13.59,13.59,0,0,1-1.39,8.56c.93-2.08,3.18-3.48,5.33-4.81s3.8-3.25,5.67-4.91a10.94,10.94,0,0,1,2.74-.2H99.38a7.21,7.21,0,0,1,3.61.55,3.52,3.52,0,0,1,.18,4.1c-1.26,1.16-3,.87-4.6.7-1.38-.3-2-1.2-3-2-.73.92-2.25,1.07-3.09,1.86a4,4,0,0,1-2.35.43,9.91,9.91,0,0,0-2.6.32,3,3,0,0,1-1,0,1.09,1.09,0,0,1-.72-.5c-.22-.31-.22-1-1-.31-.36.32-.59.71-1.13.87a2.9,2.9,0,0,1-1.34.08c-1.33-.42-1.74.67-2.72.87a6.31,6.31,0,0,1-2.45.1c-1.49-1.52-1.87-.11-2.6.5a2.73,2.73,0,0,1-.87.47c-.74.11-1.5.31-2-.33s.57-1.74-1.34-2.17c-1.74-.39-2.44.36-3.4,1a8.74,8.74,0,0,1-2.52,1.43,2.8,2.8,0,0,1-1.08,0c-.94-.22-1-.87-1.4-1.39a2.52,2.52,0,0,0-3.52-.42,4.93,4.93,0,0,0-2.23,2.74c-.3.93-.33,1.84,1.09,2.32a2.9,2.9,0,0,0,3.19-.87c.57-.59.93-1.3,2.1-1.41a1.16,1.16,0,0,1,1,.77,1.76,1.76,0,0,1-.1,1.11,4.22,4.22,0,0,1-1.84,1.44,32.17,32.17,0,0,0-8.36,5.68A4.19,4.19,0,0,1,50.86,86Z"/><path class="cls-18" d="M44.21,105.79a27,27,0,0,0,5.39,16c3.69,5.07,9.16,8.9,16,11.78a69.44,69.44,0,0,0,10.53,3.48c.33.1.34.22,0,.34a42.49,42.49,0,0,1-14.55-1.21,33.52,33.52,0,0,1-9.21-4,23.71,23.71,0,0,1-9-9.17,16.19,16.19,0,0,1-.12-15.24A4.92,4.92,0,0,1,44.21,105.79Z"/><path class="cls-2" d="M43.25,82.16a1.37,1.37,0,0,1,.53,1.11A1,1,0,0,1,43.25,82.16Z"/><path class="cls-3" d="M76.12,137.39v-.33a1.58,1.58,0,0,1,1,.32Z"/><path class="cls-2" d="M43.76,83.25a1,1,0,0,1,.6.72A.79.79,0,0,1,43.76,83.25Z"/><path class="cls-5" d="M113.68,58.51c-.75,0-1.51.05-2.28.05H32.54c-.16-1.14.68-1.74,2.12-2a16.07,16.07,0,0,1,3.25-.24h71a20.9,20.9,0,0,1,2.52.1C113.22,56.54,113.92,57.26,113.68,58.51Z"/><path class="cls-6" d="M103,71.63a12.14,12.14,0,0,0,0-4c-1.1-.87-1.15-1.67.06-2.48h0a2.64,2.64,0,0,1,1.63-.34l13.12.06a2.83,2.83,0,0,1-.24,2.42,4.5,4.5,0,0,1-3,.75h-7.28c-1.82,0-2.94.38-2.84,1.83a2.17,2.17,0,0,1-.86,1.83c0,2.83-.07,5.66-.13,8.48,0,.65.21,1.34-.39,1.93a1.65,1.65,0,0,1-1.15-1.68c-.09-2.35-.06-4.7,0-7A2.1,2.1,0,0,1,103,71.63Z"/><path class="cls-4" d="M34,57.09q1.38-2.18,2.73-4.34a.61.61,0,0,1,.39-.39c1.41-1.67,3.48-2.24,6.14-2.1s5.36,0,8,0c1,0,2,.08,3,.08,16.16,0,32.32.07,48.48-.07,3.47,0,5.62.79,7,3a4.52,4.52,0,0,0,.72.73c.21,1,1.2,1.82,1.57,2.8a3.33,3.33,0,0,1-2.12.42Z"/><path class="cls-4" d="M209.7,52.4l3.09,4.69c-.72.78-1.85.75-2.95.75H137.31c-1.09,0-2.22,0-2.95-.73A46.59,46.59,0,0,1,138,52a5.36,5.36,0,0,1,4.4-1.69c8.69,0,17.32,0,26,0,.92,0,1.85,0,2.77-.07,3.94,0,7.9.09,11.85.08,7.82,0,15.65,0,23.47-.05.33.16.8.1,1.1.34h0l.51.32h.06a1.9,1.9,0,0,0,.45.34h0a3.55,3.55,0,0,1,.47.4h0c.35.14.2.53.58.66Z"/><path class="cls-2" d="M143.28,81.83A22.92,22.92,0,0,0,134,89.49a15.32,15.32,0,0,1-1.92,2.34,2.64,2.64,0,0,0-.87,2,1.72,1.72,0,0,1-.39-1.21c-.21-3.33-.38-6.65-.61-10-.31-4.52-.67-9.05-1-13.58,0-.6,0-1.2,0-1.81a1.25,1.25,0,0,1,.73-.47,58.41,58.41,0,0,1,12.54-.06A1.54,1.54,0,0,1,144,68.23q.17,6.26,0,12.53A1.15,1.15,0,0,1,143.28,81.83Z"/><path class="cls-5" d="M134.36,57.11h78.43c.56.32.63,1,1.38,1.15a2.76,2.76,0,0,0,.08.27c-.76,0-1.51,0-2.26,0H135.58c-.87,0-1.68,0-2.52,0Z"/><path class="cls-2" d="M103.57,71.7c0-1-.11-1.93-.09-2.89,0-1.42.15-1.5,2.22-1.52h11.86c0,1.1,0,2.19.07,3.29,1,1.08,1.59,2.12-.45,3a1.3,1.3,0,0,0-1.42-1.16h-.09c-.92,0-1.8-.22-2.7-.27C109.84,71.93,106.7,71.8,103.57,71.7Z"/><path class="cls-6" d="M143.28,81.83c0-4.28.05-8.56,0-12.85,0-1.63-.08-1.68-2.48-1.69H129.2a2.35,2.35,0,0,1-.23-2.42l13.16,0a2.76,2.76,0,0,1,1.64.34l.4.19c1,.77.56,1.73.63,2.6.32,4.29.12,8.57.12,12.86a1.74,1.74,0,0,1-1.07,1.73A1.23,1.23,0,0,1,143.28,81.83Z"/><path class="cls-4" d="M182.48,211c6-1.53,11,.28,12.43,4.5-1.23,4.56-5.7,7.4-11.93,7.57-6.62.19-12.43-2.66-14.2-6.86-.54-1.27.49-2.53-.27-3.76,4.11-2.67,8.24-3.63,12.51-2A7.81,7.81,0,0,1,182.48,211Z"/><path class="cls-14" d="M168.62,212.59l1.37.12c.31.19.35.39.2.53-1.37,1.4-.76,2.74.23,4.06,2.48,3.27,6.18,5.1,11.52,5.13s9.24-1.78,11.77-5.12c.44-.58.8-1.19,1.2-1.74.87,3.62-.87,6.54-4.81,8.75-4.12,2.32-8.69,2.55-13.52,1.12-.78-.23-1.53-.49-2.29-.73-1.84-.37-3.68-1.25-5.59-.06.29.82,1.74,1,2,1.8a17,17,0,0,1-14.29-1.53c-3.41-2.23-5.56-6.52-3.36-10.1,1.84-.08,1.74,1,2.14,1.83,1.49,3.24,4.27,5.22,8.7,6.09-.78-3.83-2.21-7.77,3.67-10.31A1.36,1.36,0,0,1,168.62,212.59Z"/><path class="cls-4" d="M167.66,212.59a18.86,18.86,0,0,1-1.46,1.22,4.44,4.44,0,0,0-2,3.23c-.2,1.93-.26,3.86,1.13,5.64a2.63,2.63,0,0,1,.3.78,7,7,0,0,1-3.21-.24c-4.42-1.36-7.47-3.59-8.36-7.1a1.55,1.55,0,0,0-1-1.34c1.47-3.92,7.59-5.73,12-3.48a5.39,5.39,0,0,0,.68.22,5.26,5.26,0,0,1,1.56.39A.76.76,0,0,1,167.66,212.59Z"/><path class="cls-15" d="M173.83,198a13.49,13.49,0,0,1,12.29.2c-1.13,1.25-3.11,1.54-4.88,2.21.95,1.19,2.41,2.18,2.78,3.67-1.82.5-3.48,0-5.15-.26-.46-.18-1,.07-1.42,0a5.79,5.79,0,0,1-1.07-.34c-1.94-.81-3.41-1.94-3.78-3.58C172.43,199.16,172,198.14,173.83,198Z"/><path class="cls-16" d="M173.83,198c-1.36,1.38-.13,2.5.77,3.62a7.31,7.31,0,0,0,2.45,1.54c.39.09.49.39.77.55a.93.93,0,0,1,.36.53c1.81,2.14,3.55,4.29,4.3,6.77a2.9,2.9,0,0,1-1.6,0c-1.48-1.12-2.1-2.61-3.1-3.91a14.67,14.67,0,0,0-4.35-4,31.21,31.21,0,0,1-3,5.65c-.87,1.26-1.4,2.74-3.39,3.48a1.54,1.54,0,0,1-1.31-.7,29.08,29.08,0,0,0,5.21-8.35,1.72,1.72,0,0,0-.36-2.16c-.62-.62-.54-1.6-.73-2.44,0-.14.13-.43.25-.45C171.32,198,172.53,197.24,173.83,198Z"/><path class="cls-20" d="M170.65,226.41c-2.29-.58-2.51-.71-3.69-2.16,4.27-1.51,5.31-1.45,7.33.43A7.7,7.7,0,0,1,170.65,226.41Z"/><path class="cls-3" d="M144.37,209.7c-.87-.79-.38-1.74-.44-2.55C144.72,208,144.28,208.85,144.37,209.7Z"/><path class="cls-21" d="M178.18,204.26a.57.57,0,0,1-.47-.36c-.2-.17-.18-.33,0-.46a1.62,1.62,0,0,1,1.11.4Z"/><path class="cls-22" d="M173.62,175.22l.53-.38c.64-.5,1.31-.94,2.26-.31.6.79-.11,1.45-.42,2.15s-1.14,1.08-.4,1.74a.55.55,0,0,1,.13.69,2.82,2.82,0,0,1-2.33.35c-.62-.15-1-1-1.88-.4-1.09.69-2.88.63-3.48,1.92a16.83,16.83,0,0,1-2,2.93,5.67,5.67,0,0,1-1.74,1.53c-1.17.64-2.23.41-2.75-.59a2.21,2.21,0,0,1,.67-2.73,9.18,9.18,0,0,1,2.85-1.74c.54-.24,1.31-.25,1.59-.77a1.42,1.42,0,0,0-.2-.41,2.35,2.35,0,0,1-.24-.64,1.14,1.14,0,0,1,0-.45,1.82,1.82,0,0,1,.24-.43l.16-.2a4.27,4.27,0,0,1,.36-.38c.05-.07.12-.13.17-.2s.25-.27.38-.4a3.8,3.8,0,0,1,1.59-1c.82-.08,1.73-.41,2.32.32.28.63-.12,1.17-.49,1.8C171.87,176.69,172.28,175.67,173.62,175.22Z"/><path class="cls-23" d="M187.3,173.06c.8-.29,1.51-.87,2.54-.36,1.3.79.67,1.61.06,2.43s-1.49,1.3-1.67,2.51c2.07-1.84,2.43-4.12,4.75-5.48.93-.23,1.88-.51,2.12.57l-2.29,3.14a3.26,3.26,0,0,0-.87,2.88c.2.54,1.55-.13,1.45.72-1.31.36-2.13-.4-3.17-.63-.79-.18-1.68.87-2.9.74-1.59-.11-2.4-.87-2.19-2.15s1.27-2.07,2.21-3.17c-1.07-.18-1.74,0-2.17.68a25.36,25.36,0,0,1-2,2.69,4.2,4.2,0,0,1-2.36,1.55.54.54,0,0,1-.72-.23.3.3,0,0,1,0-.1c1.14-2,3.17-3.62,3.65-5.78h.2C185,171.89,186.15,173.48,187.3,173.06Z"/><path class="cls-24" d="M180.31,178.84l.48.34c-1,.57-2.26.67-2.88-.05-.92-1.07-1.47-.1-2.19,0l-.53-.3c.49-2.17,2.65-3.55,4.6-5l.55-.35c.12-.15.32-.27.42-.45h0c.34-.15.49-.59,1.07-.34h0c.35.28.19.68.46,1,.54,1-.38,1.67-.78,2.49S179.71,177.71,180.31,178.84Z"/><path class="cls-25" d="M195.1,172.73c-.65-.59-1.36-.36-2.08-.08a1.4,1.4,0,0,1-1.07-.34c-.16-.2-.34-.62-.15-.61,2.33.15,2.89-1.26,4-2.23.07-.08.28-.07.62-.14.36,1,.12,2.18,1.44,2.9C196.9,172.36,195.84,172.1,195.1,172.73Z"/><path class="cls-26" d="M166.64,178.48c.06.26.93.28.45.72-.26.22-.72.14-1,.33-1.39.17-2.52,0-3.12-1.06l.16-.35a2,2,0,0,1,1.74-.66,3.13,3.13,0,0,1,1.05.44l.38.29Z"/><path class="cls-27" d="M193.42,179.47c-.43-.3-1.21-.22-1.45-.72a2.27,2.27,0,0,0,2.42-.53c.63-.56,1.18-1.17,1.74-1.73C196.9,177.68,196.14,178.53,193.42,179.47Z"/><path class="cls-28" d="M166.1,179.56a1.42,1.42,0,0,1,1-.33c0,.2-.09.35-.42.36Z"/><path class="cls-4" d="M183,110.41c5.58-2,11.06.87,12.43,4.13a2.07,2.07,0,0,1,0,.7c-1.74,4.4-5.52,6.82-11.1,7.2-6.22.41-11.43-1.63-14.21-5.39-1.3-1.74-.87-3.48-.65-5.28a12.24,12.24,0,0,1,12-1.91A6.12,6.12,0,0,1,183,110.41Z"/><path class="cls-14" d="M169.55,111.92c.74.1,1.73.15,1,1-1.12,1.27-.51,2.45.27,3.59,2.13,3.12,5.56,5,10.43,5.29,5.54.35,9.86-1.15,12.69-4.66a7.17,7.17,0,0,1,1.52-1.86c1.18,4.44-3.47,9.1-9.77,10.17a18.3,18.3,0,0,1-9.3-.87c-.52-.19-1-.36-1.58-.54-1.85-.36-3.68-1.26-5.58-.06.29.82,1.73,1,2,1.81-4.71,1.9-10.94.69-14.23-1.45-3.61-2.36-5.66-6.76-3.48-10.2.32-.2.23-.53.46-.75h0c1.73.1,1.35,1.18,1.54,1.91.86,3.53,4.27,6.08,9,6.7-1-3.84-2.13-7.72,3.64-10.34A1.9,1.9,0,0,1,169.55,111.92Z"/><path class="cls-9" d="M177.29,137.39a49.14,49.14,0,0,1-11.24-.33,34.7,34.7,0,0,1-17.59-8,18.53,18.53,0,0,1-6.4-10.89,14.94,14.94,0,0,1,2.33-11.63,2,2,0,0,1,0,.35c.58.81-.17,1.74.45,2.55a27.1,27.1,0,0,0,6,13.51c5.57,6.82,14.06,11,24.14,13.75A8.33,8.33,0,0,1,177.29,137.39Z"/><path class="cls-4" d="M168.17,112c-.87,1-2.48,1.66-3,2.9a7.46,7.46,0,0,0,.22,6.58c.27.5.81.93.8,1.67a15.14,15.14,0,0,1-8.89-3.26c-1.73-1.48-3-3.24-2.84-5.3a1.22,1.22,0,0,0-.54-1.17c2-3.7,7.74-4.55,11.36-2.75.27.13.59.2.87.32a4.67,4.67,0,0,1,1.57.36A.72.72,0,0,1,168.17,112Z"/><path class="cls-29" d="M174.31,97.4c4.1-2,8.14-1.65,12.36.11-1.16,1.34-3.11,1.64-4.87,2.3.87,1.2,2.28,2.2,2.73,3.69a11.15,11.15,0,0,1-5.32-.38,1,1,0,0,1-.34-.13l-.61-.1a2.81,2.81,0,0,1-1.52-.09c-1.89-.87-3.31-2-3.77-3.63C172.74,98.42,172.39,97.41,174.31,97.4Z"/><path class="cls-16" d="M174.31,97.4a.87.87,0,0,0-.69,1,.86.86,0,0,0,.07.21c.37,1.74,1.79,3,3.72,3.92a1.63,1.63,0,0,1,.77.72,19.35,19.35,0,0,1,4.79,7.14,3.1,3.1,0,0,1-1.6,0c-1.47-1-1.93-2.38-2.88-3.57a18.21,18.21,0,0,0-4.64-4.5,21.42,21.42,0,0,1-2.91,5.84c-.87,1.26-1.41,2.75-3.39,3.48a1.55,1.55,0,0,1-1.32-.69,29.33,29.33,0,0,0,5.22-8.35,1.73,1.73,0,0,0-.36-2.16c-.62-.61-.55-1.6-.74-2.43a.54.54,0,0,1,.26-.46C171.8,97.43,173,96.61,174.31,97.4Z"/><path class="cls-30" d="M171.19,125.79a11.41,11.41,0,0,1-1.62-.44c-.87-.42-2.15-.92-2-1.65s1.63-.53,2.5-.8c2.05-.64,3.7-.37,4.77,1.15A7.62,7.62,0,0,1,171.19,125.79Z"/><path class="cls-3" d="M144.86,109.43c-.87-.78-.38-1.74-.45-2.56C145.22,107.66,144.79,108.58,144.86,109.43Z"/><path class="cls-4" d="M154,113.39a.7.7,0,0,1-.45.76A.63.63,0,0,1,154,113.39Z"/><path class="cls-12" d="M143.85,82.55c-.22-5-.25-9.94,0-14.91,2.27-1.21,4.74-.78,7.2-.47a2.38,2.38,0,0,1,.67.35c.7,3.12.54,6.19-.39,7.92,1.74-2.68,7.38-4.7,10.43-8.33a16.32,16.32,0,0,1,4-.22h32.16a5.68,5.68,0,0,0,3.3-.46c-1-.74-2.19-.52-3.25-.52H148.17c-1.5,0-3.07.17-4.31-.71h0a3.75,3.75,0,0,1,2.13-.39h57c.25,0,.5,0,.74.06q-.11,3.42-.22,6.82l-5.14-.07c-2.11-1.45-3.87-.7-5.56.47a3.29,3.29,0,0,1-2,.49c-1.15-.11-2.24.33-3.38.21a2.64,2.64,0,0,1-.62-.2c-.52-.27-.87-1.29-1.74-.24a1.64,1.64,0,0,1-.42.37,2.32,2.32,0,0,1-1.48.32,2.21,2.21,0,0,1-.71-.24c-.12,0-.23-.11-.34-.16a.84.84,0,0,0-.35.07l-.29.22a4,4,0,0,1-.48.44,3.72,3.72,0,0,1-.76.41c-1.11.42-2.21.69-3.06-.29-1.49-.54-1.36.62-2,1a2.6,2.6,0,0,1-.87.5c-.95.26-1.74.25-2.1-.61a1.63,1.63,0,0,0-1.36-1.84h-.06c-1.42-.39-2.21.27-3.14.68-1.21.53-1.59,1.92-3.48,1.74a2.61,2.61,0,0,1-1.64-1.28c-.76-1.44-2-1.4-3.48-.59a5,5,0,0,0-2.61,3.39c-.18.78.41,1.42,1.41,1.74a2.59,2.59,0,0,0,2.48-.49,6.33,6.33,0,0,0,1.56-1.62,4.59,4.59,0,0,1,.78-.87,2.39,2.39,0,0,1,.56-.32,1.24,1.24,0,0,1,1.3.24c.44.87,0,1.6-.35,2.37a1.16,1.16,0,0,1-.59.33A35.06,35.06,0,0,0,153,84.51c-.57.51-1.19,1-1.79,1.5-2.16.28-3.79-.54-5.45-1.34-.47-.07-.37-.49-.73-.63h0c-.1-.15-.31-.26-.41-.42h0c-.39-.19-.29-.54-.52-.79a.23.23,0,0,0-.14-.27Z"/><path class="cls-31" d="M180.33,73.14l.52-.35c.11-.17.31-.29.42-.45h0c.33-.14.48-.59,1-.32h0c.39.26.21.67.48,1,.75,1.48-1.25,2.39-1.48,3.76,1.91-1.17,2.1-2.85,2.9-4.34h.2A1.71,1.71,0,0,1,186,72c.54.06.75.69,1.48.45,1-.11,1.69-1,2.82-.39,1.39.74.74,1.57.15,2.37s-1.56,1.41-1.82,2.61c2.22-1.79,2.42-4.19,4.89-5.51.87-.14,1.85-.6,2.11.51-.87,1.12-1.67,2.23-2.46,3.36a3,3,0,0,0-.79,2.07c.11.77.8,1,1.74.6a5.71,5.71,0,0,0,1.54-1.17c.38-.36.47-.92,1.46-1,.09,1.38-1.1,2.1-2.44,2.72a3.13,3.13,0,0,1-3.23-.13,1.12,1.12,0,0,0-1.47-.06,3.33,3.33,0,0,1-1.09.44c-1.94.42-3.39-.4-3.26-1.85a3.35,3.35,0,0,1,.87-1.87c.44-.51.87-1,1.38-1.52a1.94,1.94,0,0,0-2.36,1A9.9,9.9,0,0,1,182,78.27a3.42,3.42,0,0,1-4.17-.16.76.76,0,0,0-.66,0h0a.47.47,0,0,1-.58.14.87.87,0,0,1-.64-.59C176.78,75.84,178.59,74.51,180.33,73.14Z"/><path class="cls-32" d="M176.37,77.88l.38.31c.24.19.2.3-.16.34-1.15.35-2.31.81-3.47-.06a1.09,1.09,0,0,0-.63-.17c-1.28.79-3.37.69-4,2.2a10.59,10.59,0,0,1-2.89,3.78,2.61,2.61,0,0,1-2.53.87A1.79,1.79,0,0,1,161.86,83c.32-1.38,1.66-2.18,3.11-2.92.74-.39,1.74-.43,2.26-1.06-.2-.24-.45-.13-.69-.06-.87,0-1.87.25-2.51-.45-.21-.17-.21-.42-.38-.61l-.18,0,.15-.36a1.66,1.66,0,0,1,1.8-.45c2,.67,2-.69,2.74-1.33a3.1,3.1,0,0,1,1.38-.87c.87-.08,1.73-.44,2.4.28.29.61,0,1.15-.4,1.74a9.66,9.66,0,0,1,2.55-2.3l.53-.37c.66-.52,1.33-1,2.28-.3.61.87-.21,1.6-.57,2.38C176.15,76.78,175.36,77.32,176.37,77.88Z"/><path class="cls-25" d="M195.62,72.09c-.67-.59-1.41-.09-2.11-.07a1.4,1.4,0,0,1-1.06-.33c-.16-.21-.24-.62,0-.61,2.16.16,2.66-1.12,3.58-2a4.06,4.06,0,0,1,.78-.39c.45,1,.16,2.24,1.49,2.94C197.38,71.72,196.36,71.52,195.62,72.09Z"/><path class="cls-33" d="M166.59,78.86a.62.62,0,0,1,.72-.26c.29.08.24.22,0,.31Z"/><path class="cls-34" d="M163.69,77.8c.25.17.43.35.38.61C163.71,78.28,163.59,78.08,163.69,77.8Z"/><path class="cls-35" d="M176.59,78.5a3.54,3.54,0,0,1,.16-.34h.47A.84.84,0,0,1,176.59,78.5Z"/><path class="cls-35" d="M177.19,78.14c.08-.16.16-.33.45-.26.11,0,.14.18.21.28Z"/><path class="cls-2" d="M144.86,84.06a1.27,1.27,0,0,1,.74.62A.85.85,0,0,1,144.86,84.06Z"/><path class="cls-2" d="M143.93,82.83a.89.89,0,0,1,.52.79A.76.76,0,0,1,143.93,82.83Z"/><path class="cls-2" d="M144.42,83.6c.26.08.39.22.41.42Z"/><path class="cls-4" d="M39.34,150.88h66.57a7.28,7.28,0,0,1,3.1,2.52c1,1.43,2,2.89,3,4.35-.73.77-1.87.72-3,.72H36.46c-1.09,0-2.22,0-2.94-.74L36,153.79C35.67,152,37.44,151.39,39.34,150.88Z"/><path class="cls-5" d="M33.5,157.73H112l1.23,1.37c-.75,0-1.51.07-2.26.07H32Z"/><path class="cls-36" d="M151.62,168.33h.17a.58.58,0,0,1,.63.44c0,.1,0,.19.13.25.4.95.07,1.91.2,2.86,0,.36-.26,1,.8.81h0a1.1,1.1,0,0,1,.55-.4h0a1.08,1.08,0,0,1,.55-.39h0a1,1,0,0,1,.54-.39h0a1.1,1.1,0,0,1,.55-.4h0a1.16,1.16,0,0,1,.55-.4h0a1.1,1.1,0,0,1,.55-.4h0a1.1,1.1,0,0,1,.55-.4h0a1.1,1.1,0,0,1,.55-.39h0a.88.88,0,0,1,.61-.37h-.07a.64.64,0,0,1,.59-.4l-.08.05a.61.61,0,0,1,.58-.41l-.09.06c.24-.39.81-.3,1.21-.44.58,1-.2,1.74-1.09,2.42-1.4,1-2.84,2.06-4.35,3a12.92,12.92,0,0,0-4.68,4.86c-.15.3-.13.75-.87.87a1.06,1.06,0,0,1-.61-1.37.91.91,0,0,1,.24-.37c1.93-2.61,1.37-5.41,2-8.12A1.75,1.75,0,0,1,151.62,168.33Z"/><path class="cls-37" d="M163.67,175.5c-1,.15-1,.87-1.4,1.38a6.68,6.68,0,0,1-2.21,2.15,3.78,3.78,0,0,1-3.06.4,2.44,2.44,0,0,1-1.95-2c-.29-1.73,1.85-4.34,4.16-5a3.13,3.13,0,0,1,3.65,1.55c.28.49,0,1.1.75,1.48Z"/><path class="cls-38" d="M164.9,177.69l-1.73.43a.7.7,0,0,1,0-.76c.39-.32,0-.79.44-1.09h0c.35-.19.16-.56.5-.75a7.38,7.38,0,0,1,3.87-2.9,2.76,2.76,0,0,1,2.56,0c.16.1.26.28.59.24s.8-.87,1.4-.22c.4.41.24.93.07,1.39a6.06,6.06,0,0,1-.4.86c-.23.38.3,1.15-1,1-.69-.24-1.34.17-2,.08-.52-.25-.14-.86-.68-1.06C166.85,175.54,166.79,177.22,164.9,177.69Z"/><path class="cls-39" d="M192,172.31a1.94,1.94,0,0,1,1.07.34,37.8,37.8,0,0,0-2.75,4.23,4.15,4.15,0,0,1-1.74,1.73,1.39,1.39,0,0,1-1.36.17.74.74,0,0,1-.32-1A5.94,5.94,0,0,1,189,175a1.89,1.89,0,0,0,.8-2.3A4.23,4.23,0,0,0,192,172.31Z"/><path class="cls-39" d="M180.31,178.84c-.82,0-1.3-.13-1.1-.82a6.29,6.29,0,0,1,1-1.65c.58-.87,1.59-1.57,1.74-2.61a.59.59,0,0,1,.39-.41l1.37-.32c.87,1.14.24,2.13-.52,3.12A10.65,10.65,0,0,1,180.31,178.84Z"/><path class="cls-40" d="M179.79,173.76a15.88,15.88,0,0,1-4.6,5.05c-1.21.07-1.2-.51-.87-1,.59-1,1.33-2,2-3,.22-.38-.33-1.11.92-1C178.09,174.35,178.94,174,179.79,173.76Z"/><path class="cls-41" d="M171.21,175.85l1-1a2.14,2.14,0,0,0,1.42.29,5.41,5.41,0,0,1-3.85,3.64C169.61,177.61,171,176.87,171.21,175.85Z"/><path class="cls-42" d="M177.24,173.77c-.52.26-.3.87-.92,1-.73-.55-1.45-.14-2.17,0a6.67,6.67,0,0,1,2.15-2.45C177.3,172.7,177.18,173.26,177.24,173.77Z"/><path class="cls-43" d="M187.3,173.06a1.24,1.24,0,0,1-1.29.18,5.64,5.64,0,0,0-2.12-.21c-.13-.4.19-.7.47-1a1.8,1.8,0,0,1,1.54-.8c.95.16.51.8.49,1.22S186.74,173.07,187.3,173.06Z"/><path class="cls-44" d="M153.55,172.69a1.16,1.16,0,0,1-1,.61V169c.64.56.39,1.23.45,1.85S152.82,172.17,153.55,172.69Z"/><path class="cls-37" d="M163.6,176.27a1.08,1.08,0,0,1-.44,1.09A1,1,0,0,1,163.6,176.27Z"/><path class="cls-45" d="M181.83,172.61l-1.08.34C180.94,172.61,181,171.91,181.83,172.61Z"/><path class="cls-45" d="M182.31,173.37l-.39.42a1.33,1.33,0,0,1-.09-1.15C182.23,172.81,182.14,173.13,182.31,173.37Z"/><path class="cls-44" d="M160.32,168.32l-1.21.44A1.35,1.35,0,0,1,160.32,168.32Z"/><path class="cls-37" d="M164.1,175.53a.86.86,0,0,1-.5.75,6.85,6.85,0,0,1,.07-.78h-.06Z"/><path class="cls-44" d="M158.7,169.06a.7.7,0,0,1-.59.4Z"/><path class="cls-45" d="M180.76,173c0,.21-.17.35-.42.45C180.33,173.19,180.5,173,180.76,173Z"/><path class="cls-44" d="M157.62,169.76a.67.67,0,0,1-.55.39Z"/><path class="cls-44" d="M159.2,168.7a.72.72,0,0,1-.58.42Z"/><path class="cls-44" d="M156.6,170.48a.63.63,0,0,1-.55.4Z"/><path class="cls-44" d="M152.42,168.77l-.63-.44.7-.05Z"/><path class="cls-44" d="M156.09,170.87a.61.61,0,0,1-.55.4Z"/><path class="cls-44" d="M155.59,171.21a.62.62,0,0,1-.55.39Z"/><path class="cls-44" d="M155.08,171.57a.63.63,0,0,1-.54.4Z"/><path class="cls-44" d="M154.58,171.94a.61.61,0,0,1-.55.39Z"/><path class="cls-44" d="M158.18,169.42a.71.71,0,0,1-.61.37Z"/><path class="cls-44" d="M157.11,170.12a.62.62,0,0,1-.55.39Z"/><path class="cls-44" d="M154.08,172.3a.66.66,0,0,1-.56.4Z"/><path class="cls-19" d="M102.52,165.8a5,5,0,0,1-.06,2.48H63.35c-1.17,0-2.35,0-3.53,0a2.38,2.38,0,0,1-.7.38,20.51,20.51,0,0,1-7.41,0,2.07,2.07,0,0,1-.7-.38c-2,0-4-.06-6.08-.06-1.15,0-1.7-.34-1.69-1.19,0-1,.28-1.25,1.74-1.34h55.76C101.34,165.74,101.93,165.78,102.52,165.8Z"/><path class="cls-32" d="M79.62,179.47c-1.33.25-2.27-.06-2.74-1.05-.73.34-1.35.65-2,.92a3,3,0,0,1-1.94.1c-.57-.13-.87-1-1.64-.45-1.11.69-3,.6-3.55,1.85a10.17,10.17,0,0,1-1.1,1.81,17.44,17.44,0,0,1-1.74,2c-1,1-2.07,1.34-2.91,1a1.91,1.91,0,0,1-1-2.46,5.47,5.47,0,0,1,3-2.6c.76-.34,1.55-.65,2.88-1.2-1.88,0-3.64.61-4.08-.92-.15-.72.42-1,1.29-1,2,1,2.39-.41,3.22-1.14a3.31,3.31,0,0,1,.79-.53,4.1,4.1,0,0,1,2.76-.43,1,1,0,0,1,.42.43,1.31,1.31,0,0,1-.1.78c-.12.23-.26.45-.4.67a1.93,1.93,0,0,1,.27-.3c.69-.57,1.06-1.34,2-1.74l.52-.38c.69-.37,1.28-1,2.32-.56,1.08,1.15-.48,2-.75,3.17,1.55-1.11,2.08-2.65,3.92-3.34.77-.48.93-1.29,1.8-1.74.87.12.56.68.81,1,.8,1-.16,1.74-.64,2.51a28.85,28.85,0,0,0-1.53,2.45C79.6,178.74,79.93,179.1,79.62,179.47Z"/><path class="cls-46" d="M94.82,172.61c-.87,1.12-1.67,2.22-2.47,3.35a7.53,7.53,0,0,0-.67,1.17c-.29.58-.66,1.25.25,1.64s1.62-.28,2.28-.7.87-1.32,1.91-1.62c-.16,2.49-3,3.79-5.7,2.56a1.05,1.05,0,0,0-1.24,0,4.19,4.19,0,0,1-.87.36c-2.22.64-3.91-.31-3.57-2,.24-1.2,1.37-2.06,2.2-3.12a1.85,1.85,0,0,0-2.29,1,9.35,9.35,0,0,1-2.46,2.92.7.7,0,0,1-.87-.42c.05-1.58,1.23-2.89,2.07-4.27.53-.87,1.33-1,2.35-.42h0a1,1,0,0,0,.87.14c.87-.2,1.57-1,2.7-.47,1.49.68,1,1.53.35,2.37s-1.51,1.44-1.74,2.38c2-1.31,2-3.55,4.23-4.74C93.63,171.74,93.93,171.74,94.82,172.61Z"/><path class="cls-36" d="M51,168.33h.19c2,.44,2.2,1.53,2,2.78.09.33-.59.65,0,1,2.13-1.28,3.58-3.16,6.43-3.76h.23c.66,1,0,1.74-1,2.41-1.47,1.06-2.94,2.14-4.5,3.15a12.31,12.31,0,0,0-4.49,4.71c-.17.33-.24.7-.87.92a1,1,0,0,1-.68-1.29,1,1,0,0,1,.23-.41c1.74-2.39,1.63-5,1.88-7.55A11,11,0,0,1,51,168.33Z"/><path class="cls-47" d="M62,176.37a4.69,4.69,0,0,1-2.2,2.61,3.82,3.82,0,0,1-3.27.46,2.36,2.36,0,0,1-1.85-2c-.18-1.69,1.67-4.05,3.82-4.78a3.11,3.11,0,0,1,3.72,1.08,1.77,1.77,0,0,1,.28,1.41.45.45,0,0,1,.05.53h0C62.09,175.73,62.23,176.09,62,176.37Z"/><path class="cls-39" d="M92.52,173a16.76,16.76,0,0,0-2.41,3.54,5.86,5.86,0,0,1-1.51,1.85,1.59,1.59,0,0,1-1.74.47c-.73-.29-.57-.78-.35-1.27a7.79,7.79,0,0,1,2.33-2.74c.87-.68,1-1.35.48-2.14a6.16,6.16,0,0,0,2.45-.28C92.72,172.14,92.48,172.61,92.52,173Z"/><path class="cls-48" d="M64.42,177.75a1.87,1.87,0,0,0-1.54.75l-.36-.08c0-2.44,1.74-4.19,4.34-5.52.87-.45,2-1,3.13-.24.42.32.3.63,0,.94a13.27,13.27,0,0,0-4.62,3.88A1.6,1.6,0,0,1,64.42,177.75Z"/><path class="cls-40" d="M83.59,173.75c.53.69,0,1.28-.41,1.86s-1,1.36-1.57,2a2,2,0,0,1-2.92,1.08c-.13-1,.71-1.79,1.31-2.6a7.71,7.71,0,0,0,1.74-2.71l1.36-.07C83.49,173.37,83.48,173.58,83.59,173.75Z"/><path class="cls-49" d="M79.17,174.1a15.21,15.21,0,0,1-3,3.7,3.54,3.54,0,0,1-.68.53c-.43.24-.87.69-1.49.35s-.23-.66,0-1c.34-.54.7-1.08,1.06-1.62l1.14-1.59c0-.23.21-.36.53-.38Z"/><path class="cls-50" d="M92.52,173a.71.71,0,0,0-.71-.57c-.32-.24-.87-.76-.13-.74,1.95.08,2.47-.86,3.25-1.79a.86.86,0,0,1,.94-.46c.53.11.6.51.45.72-.67,1,1,1.37,1,2.16a5.43,5.43,0,0,0-2.51.35C93.84,171.94,93.23,172.61,92.52,173Z"/><path class="cls-51" d="M69.54,173.37a.87.87,0,0,0,.5-.71,1.6,1.6,0,0,0,.68.18c1.53-.3,1.91-.1,1.54,1a12.71,12.71,0,0,1-.87,1.68c-.06.17-.19.2-.37.08a10.44,10.44,0,0,0-2.52.68C67.45,175,68.76,174.25,69.54,173.37Z"/><path class="cls-52" d="M71,175.57l.38-.08,1.73-.28a5.39,5.39,0,0,1-3.81,3.66c-.12-1.09,1-1.74,1.25-2.66a.22.22,0,0,0,.24-.26Z"/><path class="cls-53" d="M83.59,173.75c-.16-.13-.31-.27-.46-.41a3.83,3.83,0,0,1,1.25-1.74,1.39,1.39,0,0,1,1.28-.39c.59.16.55.56.46.91a5.54,5.54,0,0,1-.37.87C84.85,173,83.91,172.91,83.59,173.75Z"/><path class="cls-54" d="M76.68,174.1l-.53.38a8.93,8.93,0,0,0-2.47.35A5.61,5.61,0,0,1,75,173.16c.3-.32.52-.87,1.23-.66s.46.69.49,1.08A4.41,4.41,0,0,1,76.68,174.1Z"/><path class="cls-53" d="M86.64,173.13c-.41.3-.73.32-.87-.14Z"/><path class="cls-48" d="M62,176.37a.7.7,0,0,1,.6-.78A1.31,1.31,0,0,1,62,176.37Z"/><path class="cls-48" d="M62.56,175.63l-.05-.53C62.88,175.26,63.08,175.42,62.56,175.63Z"/><path class="cls-55" d="M78.69,178.74c1.49.35,2-.68,2.92-1.08l.58.43a3.64,3.64,0,0,1-2.57,1.38Z"/><path class="cls-56" d="M66.56,212.25c1.42-1.88,2.75-3.84,4-5.85a16.7,16.7,0,0,0,1.85-5c4.06,2.89,7,5.9,8.18,9.62a14.58,14.58,0,0,0-4.82-.69,6.71,6.71,0,0,0-3.47.87,9.82,9.82,0,0,1-3.89,1.35h-.87Z"/><path class="cls-4" d="M103,71.63c.27,3.48.08,7,.09,10.48-1.6,3-3.6,4-7.94,4H93.37c-2.09,0-2.11,0-2.83,1.51-1,2.13-3.26,3.33-6.14,3.93a31,31,0,0,1-4.7.63,87.31,87.31,0,0,1-15.59-.25c-4.13-.52-7.5-1.84-8.49-5.11-.19-.61-.71-.72-1.46-.72-1.09,0-2.18,0-3.27-.07A35.85,35.85,0,0,1,63.06,77.8a1.06,1.06,0,0,1,.68-.08,3.6,3.6,0,0,0,2,.64c.66,0,1.47-.11,1.55.59.06.55-.51.87-1.13,1.1a8.55,8.55,0,0,0-2.76,1.31,2.48,2.48,0,0,0-1.15,1.73,1.13,1.13,0,0,0,.87,1.24c.82.25,1.15-.27,1.55-.66A20.09,20.09,0,0,0,67,80.85c1.74-2.38,3.25-2.94,7-2.61a1.33,1.33,0,0,0,.74,0c1.74-1,3.4-.48,5.08,0A3.68,3.68,0,0,0,82.29,77a14.12,14.12,0,0,0,2-2.31,3.13,3.13,0,0,1,1.17-1.17,2.12,2.12,0,0,1,2.08-.18c.68.39.26.87,0,1.32a10.64,10.64,0,0,0-1.31,2c-.45,1.36.21,2,2,1.56a6.16,6.16,0,0,1,4,.26c1.59.67,2.31-.57,3.25-1.13l.07-.07h0l-.09.07L94.6,78a2.22,2.22,0,0,1-2.43.4,1.37,1.37,0,0,1-.87-1.73c.44-1.63,1.9-2.92,2.91-4.35a1.93,1.93,0,0,1,.47-.43,4.48,4.48,0,0,1,.6-.35,2.6,2.6,0,0,1,2.56.13Z"/><path class="cls-4" d="M82.68,110.38a10.6,10.6,0,0,1,9.74,1.23c2.61,1.8,3.69,4,2.45,6.59-.58-.26-.73-.63-.6-1.09-3,5.39-14,7.21-20.43,3.48-3.89-2.29-5.73-5.11-5-8.69,4.41-2.61,8-3.6,12.39-1.93A7,7,0,0,0,82.68,110.38Z"/><path class="cls-14" d="M69,112c.68.12,1.8.07,1.15.92-1,1.37-.45,2.61.45,3.8a11.69,11.69,0,0,0,7.3,4.71c6.78,1.31,11.86.07,15.87-4.58a3.08,3.08,0,0,1,1.13-1v2.45c-.87,5-9.56,9.35-18,6.67-.87-.28-1.61-1-2.75-.61-1.67-.68-3.37-1.23-5.32-.38.29.82,1.74,1.06,1.9,2-4.85,1.94-11.3.47-14.43-1.74-4.17-2.91-5-7.73-2.77-10.66,1.69.27,1.34,1.39,1.64,2.19,1.23,3.37,4.15,5.49,9.12,6.55-1.36-4.15-2.47-8,3.72-10.52A1.48,1.48,0,0,1,69,112Z"/><path class="cls-4" d="M68,112c-3.48,2-4.69,4.56-3.66,7.69.37,1.11,1.06,2.13,1.43,3.25-6.08-.14-11-3.47-11.91-8.09-.1-.47,0-1-.43-1.38,2.61-3.73,6.69-4.66,11.73-2.68a4.23,4.23,0,0,0,.7.18,5,5,0,0,1,1.37.22C67.68,111.37,68,111.61,68,112Z"/><path class="cls-29" d="M73.8,97.42c4.71-1.93,8.6-1.87,12.38.24-1.15,1.21-3.1,1.53-4.86,2.16,1.06,1.2,2.4,2.24,2.8,3.71-2.52.5-4.65-.32-6.86-.77-2.46-.5-4.64-2.36-4.68-4C72.57,98.13,72.68,97.54,73.8,97.42Z"/><path class="cls-57" d="M73.8,97.42c-1.11,1.39-.1,2.53,1,3.59a18.84,18.84,0,0,0,2.5,1.73,22.26,22.26,0,0,1,5.42,7.63,3.14,3.14,0,0,1-1.61.06,12.58,12.58,0,0,1-2.93-3.57,19.52,19.52,0,0,0-4.59-4.57,30.61,30.61,0,0,1-3.16,6.09c-.81,1.24-1.36,2.6-3.33,3.28a1.22,1.22,0,0,1-1.17-.69,34,34,0,0,0,4.81-7.54c.43-1.05,1.18-2.11-.18-3.15-.3-.22-.31-.68-.34-1-.06-.57-.66-1.43.15-1.66C71.36,97.28,72.6,96.56,73.8,97.42Z"/><path class="cls-17" d="M70.66,125.83c-1.74-.32-2.61-1.37-4-2.38l3.57-.6c2.36-.4,2.61-.31,3.81,1.41A7.16,7.16,0,0,1,70.66,125.83Z"/><path class="cls-19" d="M103,65.16a5,5,0,0,1-.06,2.48H63.86c-1.18,0-2.36,0-3.53,0a2.66,2.66,0,0,1-.77.39c-3,.43-5.9.61-8.69-.44H45.31c-1.26,0-1.53-.55-1.51-1.31s.29-1.19,1.4-1.2h57.12Z"/><path class="cls-32" d="M80.14,78.85c-1.31.21-2.33,0-2.73-1.08l-1.74.87a3.93,3.93,0,0,1-2,.23c-.75,0-1-1-2.13-.43-1.35.73-3.2.93-3.74,2.44a8.35,8.35,0,0,1-2.72,3.47,2.41,2.41,0,0,1-2.36.75,1.62,1.62,0,0,1-1.34-1.83c.07-1.5,1.43-2.38,2.95-3.2a14.71,14.71,0,0,0,2.74-1.25c-1.52-.08-3.31.63-3.77-.93-.14-.72.42-1,1.31-1,2,1,2.41-.45,3.26-1.19a2.58,2.58,0,0,1,.87-.52c1-.3,2.15-.91,2.78.37a1.44,1.44,0,0,1-.23,1c1-.55,1.21-1.53,2.33-2l.52-.37c.68-.37,1.25-1,2.3-.58,1.13,1.17-.48,2-.75,3.21,1.57-1.12,2.1-2.67,3.93-3.37.79-.46.93-1.27,1.79-1.67.8.11.59.65.83,1,.87.75.27,1.45-.23,2.12a17.11,17.11,0,0,0-1.93,2.84C80.13,78.11,80.44,78.48,80.14,78.85Z"/><path class="cls-58" d="M96.35,77.11a4.77,4.77,0,0,1-1.85,1.44,3.06,3.06,0,0,1-2.81.24c-1.17-.75-1.91-.35-3,0-2.06.66-3.71-.33-3.48-2,.18-1.26,1.37-2.17,2.26-3.23a2,2,0,0,0-2.35.92,8.83,8.83,0,0,1-2.44,2.92.7.7,0,0,1-.87-.4c0-1.59,1.25-2.88,2.06-4.27.53-.87,1.31-1,2.34-.42l.5.27a2.18,2.18,0,0,0,.45-.16c.87-.19,1.55-.93,2.61-.45,1.53.65,1,1.48.43,2.32s-1.74,1.46-1.92,2.75c2.06-1.65,2.15-3.86,4.34-5.12C94,71,94.37,71,95.24,72h0a1,1,0,0,0-.36.41c-.87,1.28-1.83,2.55-2.66,3.86-.4.64-1,1.48.21,1.92s1.74-.42,2.38-.94A10.52,10.52,0,0,0,95.92,76c.23-.31.49-.26.76,0a.26.26,0,0,1,0,.31C96.54,76.58,96.66,76.91,96.35,77.11Z"/><path class="cls-36" d="M60.09,67.69h.21c.54,1,0,1.74-1,2.44-1.5,1.05-3,2.13-4.51,3.14A12.44,12.44,0,0,0,50.33,78a1.33,1.33,0,0,1-.86.87c-1-.56-.76-1.3-.33-1.92,1.85-2.61,1.55-5.37,1.74-8.11.3-.38.09-1.07,1.12-1a1.62,1.62,0,0,1,1.46.87,3.46,3.46,0,0,1,0,3C55.24,70.28,57,68.42,60.09,67.69Z"/><path class="cls-36" d="M62.55,76.05a8.45,8.45,0,0,1-2.13,2.21,3.93,3.93,0,0,1-3.47.53,2.19,2.19,0,0,1-1.8-2.2c.12-1.86,1.28-3.38,3.41-4.42a3.25,3.25,0,0,1,4.34,1.25c.2.38-.11.87.44,1.17C64,75.33,63.37,75.72,62.55,76.05Z"/><path class="cls-59" d="M71.1,75.56c-.75-.87-1.39.06-2.08.06-.65-.3-.17-.87-.57-1.29a15.26,15.26,0,0,0-2.56,2.52,1.69,1.69,0,0,1-1,.27,2,2,0,0,0-1.54.77A2.22,2.22,0,0,1,63,77.8v-1c.22-.81.09-1.73,1.3-2.25a13.09,13.09,0,0,1,2.77-2.09c1.11-.55,2.25-1.16,3.64-.37a.51.51,0,0,0,.21.1c2.18.38,2.18.38,1.26,2.07a1.42,1.42,0,0,0-.11.35C71.74,74.9,72.4,75.74,71.1,75.56Z"/><path class="cls-60" d="M60.09,67.69l-7.5,5.22c-.32-1,.17-1.81.17-2.61a6.21,6.21,0,0,0-.07-1.43c-.1-.39-.23-.92-1-.87-.57,0-.5.58-.83.87l0-1.21Z"/><path class="cls-61" d="M93,72.3a17.22,17.22,0,0,0-2.44,3.55,5.79,5.79,0,0,1-1.51,1.86,1.59,1.59,0,0,1-1.69.49c-.75-.29-.57-.79-.36-1.28a8,8,0,0,1,2.33-2.75c.87-.68,1-1.35.45-2.14a7.72,7.72,0,0,0,2.49-.23C93.18,71.5,93,72,93,72.3Z"/><path class="cls-62" d="M84,73.15c.46.54.18,1-.18,1.51-.6.79-1.16,1.58-1.74,2.37-.52,1-1.21,1.74-2.94,1.09-.13-1,.6-1.73,1.18-2.47a8.89,8.89,0,0,0,1.91-2.87l1.35-.07C84,72.74,84,73,84,73.15Z"/><path class="cls-63" d="M79.68,73.46A13.68,13.68,0,0,1,76,77.71c-.37.29-.86.7-1.49.36s-.16-.65,0-1c.49-1.16,1.65-2.09,2.22-3.22a.33.33,0,0,1,.41-.07A8.41,8.41,0,0,1,79.68,73.46Z"/><path class="cls-64" d="M93,72.3a.79.79,0,0,0-.73-.52c-.27-.21-.62-.7-.24-.68,2.07.09,2.6-1,3.47-2a.89.89,0,0,1,.78-.37c.41.06.62.38.5.53-.79,1.06.87,1.53,1,2.35a5.27,5.27,0,0,0-2.48.36A1.68,1.68,0,0,0,93,72.3Z"/><path class="cls-41" d="M71.1,75.56l1-1c.53.27,1-.07,1.58,0a5.21,5.21,0,0,1-3.81,3.63C69.69,77.14,70.89,76.46,71.1,75.56Z"/><path class="cls-65" d="M84,73.15l-.42-.44A3.88,3.88,0,0,1,84.85,71a1.33,1.33,0,0,1,1.27-.37.63.63,0,0,1,.52.72.88.88,0,0,1,0,.15,8.2,8.2,0,0,1-.38.87C85.3,72.34,84.38,72.32,84,73.15Z"/><path class="cls-66" d="M77.08,73.78l-.41.07a8.93,8.93,0,0,0-2.47.35,8,8,0,0,1,1.6-2,.88.88,0,0,1,.78-.35.65.65,0,0,1,.63.67h0C77.18,73,77.08,73.36,77.08,73.78Z"/><path class="cls-67" d="M64.31,74.53,63,76.78l-.46-.73c-.07-.59.71-.93.87-1.46Z"/><path class="cls-65" d="M87.18,72.48a.34.34,0,0,1-.45.16C86.8,72.47,87,72.46,87.18,72.48Z"/><path class="cls-19" d="M151.47,67.67h-7.63a4.89,4.89,0,0,1-.06-2.49h57.63c1.16,0,1.66.39,1.65,1.22,0,1-.3,1.24-1.74,1.31H164.39c-1.17,0-2.35.05-3.54.06a2.07,2.07,0,0,1-.75.39C157.18,68.36,154.24,68.88,151.47,67.67Z"/><path class="cls-56" d="M167,212.26l2.67-3.88a21,21,0,0,0,3.18-6.91c3.86,2.88,7,5.78,8,9.56-3.41-1-6.66-1.11-9.48.91-.8.59-2,.11-2.78.63h-1Z"/><path class="cls-68" d="M164.9,177.69a8.69,8.69,0,0,1,4.95-4.42c.68,1.13-.57,1.82-.66,2.67l-1.11,1a1.49,1.49,0,0,1-.41.42h0a1,1,0,0,0-.47.43h0a.68.68,0,0,0-.55.48,1.55,1.55,0,0,1-.06.23h-.34a4.66,4.66,0,0,0-.73.3C164.67,178.64,165.06,178.08,164.9,177.69Z"/><path class="cls-69" d="M163,183.4a4.23,4.23,0,0,1,2.08-2.07l.23.06a2,2,0,0,0,.18.32,7,7,0,0,1-2.29,2.61.59.59,0,0,1-.6,0l.06-.38C162.84,183.74,163,183.59,163,183.4Z"/><path class="cls-70" d="M165.12,181.3a.52.52,0,0,1,.67-.28c.29.09.17.24-.07.31a.87.87,0,0,1-.52.16A.2.2,0,0,1,165.12,181.3Z"/><path class="cls-28" d="M167.67,177.38c0-.21.15-.34.41-.42C168.06,177.17,167.91,177.3,167.67,177.38Z"/><path class="cls-28" d="M167.21,177.82l.47-.42C167.67,177.6,167.52,177.74,167.21,177.82Z"/><path class="cls-28" d="M166.7,178.25a.72.72,0,0,1,.55-.49A.69.69,0,0,1,166.7,178.25Z"/><path class="cls-71" d="M165.2,181.53l.52-.16-.19.34A1.74,1.74,0,0,1,165.2,181.53Z"/><path class="cls-72" d="M163,183.4l-.34.5C162.67,183.68,162.81,183.52,163,183.4Z"/><path class="cls-72" d="M162.64,184.27h.6c-.1.14-.21.29-.46.22C162.7,184.51,162.69,184.36,162.64,184.27Z"/><path class="cls-28" d="M165.57,178.79l.73-.31A.72.72,0,0,1,165.57,178.79Z"/><path class="cls-56" d="M167.52,111.65c1-1.45,2-2.9,3-4.34a20.57,20.57,0,0,0,2.85-6.38c3.9,2.81,7,5.73,8,9.56-3.42-1-6.69-1.1-9.5.94-.7.5-1.66.14-2.32.54l-1.38.06Z"/><path class="cls-38" d="M160.81,67.69h0c.45,1-.23,1.74-1.15,2.44-1.48,1.07-3,2.13-4.52,3.15a12.42,12.42,0,0,0-4.39,4.6c-.18.36-.19.87-1,1a1.08,1.08,0,0,1-.62-1.39,1.16,1.16,0,0,1,.26-.39c2.1-2.85,1.37-6,2-9,1.19-.5,1.92-.13,2.22.7a3.31,3.31,0,0,1,0,2.72C155.67,70.19,157.3,68,160.81,67.69Z"/><path class="cls-73" d="M162.67,76.14a4,4,0,0,1-2,2.2c-2.05,1.24-4.64.55-5.09-1.34s1.84-4.5,4.19-5.09c1.5-.37,2-.16,3.42,1.43a2,2,0,0,1,0,2h0C162.77,75.51,162.84,75.86,162.67,76.14Z"/><path class="cls-34" d="M165.18,77.45c-.52-.32-1,0-1.53,0-.44-1,.37-1.79.62-2.69h-.05a30.19,30.19,0,0,1,3.09-2.3c1.07-.63,2.3-1.32,3.81-.46.06,0,.11.1.18.12,2.16.36,2.16.36,1.4,2-.57.19.31,1.15-1,1-.7-.25-1.34.16-2,.08-.49-.26-.41-.74-.63-1.19a13.86,13.86,0,0,0-2.92,3.1A1.08,1.08,0,0,1,165.18,77.45Z"/><path class="cls-74" d="M160.81,67.69a26.89,26.89,0,0,0-3.94,2.48c-1.2.81-2.37,1.64-3.79,2.61V69.14c0-.66-.11-1.42-1.56-1.11v-.4Z"/><path class="cls-39" d="M192.45,71.69l1.06.33a40.32,40.32,0,0,0-2.74,4.24A4.35,4.35,0,0,1,189,78a1.36,1.36,0,0,1-1.36.17.66.66,0,0,1-.34-.82c.16-1.21,1.2-2.08,2.2-2.95s1.17-1.42.76-2.3A4.87,4.87,0,0,0,192.45,71.69Z"/><path class="cls-75" d="M184.2,72.43c0,.68.87,1.24.24,2-1,1.26-1.74,2.61-3.34,3.53a1.33,1.33,0,0,1-1.16.16c-.42-.17-.32-.49-.24-.8A6.68,6.68,0,0,1,181,75.41c.52-.75,1.35-1.38,1.46-2.26a.65.65,0,0,1,.4-.41Z"/><path class="cls-35" d="M176.37,77.88c-.45.1-.87.5-1.36.3-.67-.27-.41-.77-.19-1.12.6-1,1.31-1.91,2-2.86.25-.37-.3-1.1.87-1,.2.48.57.71,1.27.45l1.36-.42A19.94,19.94,0,0,1,176.37,77.88Z"/><path class="cls-41" d="M171.72,75.27l.95-1c.24.73.93.24,1.43.28a5.45,5.45,0,0,1-3.86,3.64C170.12,77,171.49,76.24,171.72,75.27Z"/><path class="cls-76" d="M177.71,73.12c-.5.26-.3.87-.87,1-.72-.56-1.44-.13-2.15,0a7.56,7.56,0,0,1,2-2.37C177.72,72.05,177.69,72.6,177.71,73.12Z"/><path class="cls-34" d="M186.39,72.4h-2a1,1,0,0,1,.09-.53c.46-.54.87-1.41,1.87-1.21,1.18.22.32,1.11.47,1.69C186.71,72.53,186.58,72.54,186.39,72.4Z"/><path class="cls-34" d="M163.11,75.32v-2c.59.42.08,1.23,1.06,1.51h.05Z"/><path class="cls-77" d="M182.3,72l-1,.31C181.66,71.57,181.68,71.56,182.3,72Z"/><path class="cls-77" d="M182.82,72.74l-.4.41A1.26,1.26,0,0,1,182.3,72C182.69,72.19,182.65,72.5,182.82,72.74Z"/><path class="cls-34" d="M162.67,76.14a.8.8,0,0,1,.5-.87A.92.92,0,0,1,162.67,76.14Z"/><path class="cls-78" d="M186.39,72.4a1.09,1.09,0,0,1,.44,0l.64.1a.67.67,0,0,1-.95,0A.61.61,0,0,1,186.39,72.4Z"/><path class="cls-77" d="M181.27,72.34c0,.22-.16.35-.42.45C180.83,72.56,181,72.4,181.27,72.34Z"/><path class="cls-68" d="M165.61,77.05c.64-1.93,2.21-3.35,4.72-4.41.64,1.13-.56,1.82-.64,2.67l-.87.72C167.81,76.5,167.24,77.63,165.61,77.05Z"/><path class="cls-79" d="M165.61,77.05l3.19-1a4.82,4.82,0,0,1-1.87,1.85c-.87.56-1.51.36-1.74-.47Z"/><path class="cls-80" d="M165.72,81.53a7.44,7.44,0,0,1-2.52,2.56c-.16-1.41.87-2.22,1.9-3C165.62,81,165.89,81.11,165.72,81.53Z"/><path class="cls-81" d="M165.72,81.53l-.62-.45a5.14,5.14,0,0,1,.41-.4c.22-.17.49-.36.78-.14.1.07,0,.31,0,.45A5.29,5.29,0,0,1,165.72,81.53Z"/><path class="cls-82" d="M159.31,174.08c.38.7,1.61,1.07,1.41,1.81a4.4,4.4,0,0,1-2.05,2.4c-.42.25-.87.64-1.52.39a.77.77,0,0,1-.54-1,.47.47,0,0,1,.06-.15A5.52,5.52,0,0,1,159.31,174.08Z"/><path class="cls-83" d="M161.12,174.49c-.36-.13-.43-.35-.32-.6a.39.39,0,0,1,.52-.2h0a.58.58,0,0,1,.19.49C161.53,174.35,161.5,174.57,161.12,174.49Z"/><path class="cls-44" d="M52.27,171.5c-.15-1.1.48-2.33-1.09-3.18h8.39L52.86,173C51.47,172.75,52.19,172.06,52.27,171.5Z"/><path class="cls-84" d="M69.54,173.37c.47,1.12-.74,1.91-1,2.88l-.56.37c-1,.35-1.59,1.53-3.09.73A6.94,6.94,0,0,1,69.54,173.37Z"/><path class="cls-85" d="M64.85,177.35c1.15,0,2-.62,3.09-.73a5.24,5.24,0,0,1-1.67,1.74,1.44,1.44,0,0,1-1.51.37c-.47-.21-.23-.66-.34-1Z"/><path class="cls-86" d="M65.05,181.81a6.31,6.31,0,0,1-2.61,2.61c0-1.42,1-2.43,2.56-3.22C65.22,181.41,65.26,181.6,65.05,181.81Z"/><path class="cls-87" d="M65.05,181.81l-.1-.57c.16-.18.38-.25.5,0S65.34,181.66,65.05,181.81Z"/><path class="cls-51" d="M70.83,176c0,.14,0,.22-.24.26C70.58,176.09,70.65,176,70.83,176Z"/><path class="cls-88" d="M52.27,171.5c.28.49-.14,1.12.59,1.52a.61.61,0,0,1-.66.43c-.34,0-.36-.22-.34-.39A2.58,2.58,0,0,1,52.27,171.5Z"/><path class="cls-89" d="M56.3,177.71a5.24,5.24,0,0,1,1.93-3.22c.4-.33.86-.43,1.12,0s1.51.87.87,1.74-1.33,2.15-3,2.46C56.22,178.9,56.39,178.18,56.3,177.71Z"/><path class="cls-90" d="M61.11,174.1c-.14.15-.31.43-.37.42-.37-.08-.38-.33-.35-.56s.13-.37.37-.32S61,173.92,61.11,174.1Z"/><path class="cls-91" d="M79.19,78.12c1.49.36,2-.7,2.94-1.09l.57.43a3.55,3.55,0,0,1-2.61,1.39Z"/><path class="cls-92" d="M96.35,77.11c-.06-.32.14-.55.45-.75C96.91,76.68,96.7,76.92,96.35,77.11Z"/><path class="cls-92" d="M96.76,76.05H96C96.2,75.76,96.47,75.49,96.76,76.05Z"/><path class="cls-64" d="M95,72.42l.36-.41C95.33,72.21,95.25,72.36,95,72.42Z"/><path class="cls-56" d="M67.06,111.63c1.25-1.84,2.67-3.61,3.77-5.51a18.27,18.27,0,0,0,2.07-5.29c4,2.9,6.9,5.89,8.17,9.61a16.71,16.71,0,0,0-4.39-.71,7.57,7.57,0,0,0-4,.94A9.27,9.27,0,0,1,69,112h-.94Z"/><path class="cls-84" d="M65.33,76.71a7.72,7.72,0,0,1,4.53-4c.69,1.2-.6,2-.87,2.92l-.57.37C67.45,76.33,66.84,77.53,65.33,76.71Z"/><path class="cls-93" d="M65.33,76.71c1.15,0,2-.61,3.12-.72a5.66,5.66,0,0,1-1.67,1.74,1.46,1.46,0,0,1-1.52.36c-.5-.22-.26-.66-.35-1Z"/><path class="cls-94" d="M65.57,81.17A9.57,9.57,0,0,1,63,84.08c0-1.6.36-2.1,2.52-3.48C65.73,80.78,65.78,81,65.57,81.17Z"/><path class="cls-95" d="M65.57,81.17l-.1-.55c.15-.18.37-.25.47,0S65.86,81,65.57,81.17Z"/><path class="cls-96" d="M59.38,73.38c.4.87,1.74,1.2,1.42,2A4.78,4.78,0,0,1,58.24,78c-.87.38-1.35.14-1.42-.64C56.72,76.22,57.41,75.11,59.38,73.38Z"/><path class="cls-97" d="M61.22,74c-.4-.28-.6-.73-.12-.87s.4.33.38.57A1.39,1.39,0,0,1,61.22,74Z"/><path class="cls-89" d="M159.86,73.53c.29.71,1.57,1.06,1.35,1.82a4.37,4.37,0,0,1-1.91,2.28c-.47.3-1,.79-1.74.47s-.5-.87-.4-1.32C157.44,75.58,158.23,74.61,159.86,73.53Z"/><path class="cls-98" d="M161.11,73.42c.07-.23.13-.5.57-.42s.47.3.41.54,0,.53-.54.43a.49.49,0,0,1-.45-.53Z"/><rect class="cls-99" width="250" height="250"/></svg>