<svg id="Layer_1" data-name="Layer 1" xmlns="http://www.w3.org/2000/svg" viewBox="0 0 185.6 87.94"><defs><style>.cls-1{fill:#d3cdcd;}.cls-2{fill:#e0dede;}.cls-3{fill:#efefef;}.cls-4{fill:#afaeae;}.cls-5{fill:#e8c986;}.cls-6{fill:#f9da9b;}.cls-7{fill:#ffe8c0;}.cls-8{fill:#e86e56;}.cls-9{fill:#f75757;}.cls-10{fill:#ff7d7d;}.cls-11{fill:#7d6fbc;}</style></defs><title>Untitled-1</title><g id="_Group_" data-name="&lt;Group&gt;"><path id="_Path_" data-name="&lt;Path&gt;" class="cls-1" d="M34.54,43h0l-.66-.13h0L32,42.49l-.15,0-.42-.09-.35-.08-.35-.08-.45-.1L30,42l-.73-.17h0c-7.17-1.7-15.13-4.17-20.61-7.51l-.22-.14a21.09,21.09,0,0,1-3.53-2.69c-.21-.2-.41-.41-.59-.61a9.52,9.52,0,0,1-.66-.79,7,7,0,0,1-.46-.65,5.52,5.52,0,0,1-.4-.66A7.12,7.12,0,0,1,2,26.2c.55,7.39,7.53,64.44,91,64.44,30.34,0,50.57-7.54,64.06-17.5-11.26,6.15-26.68,10.39-47.79,10.39C59.12,83.53,41.05,59.63,34.54,43Z" transform="translate(-1.92 -2.7)"/><path id="_Path_2" data-name="&lt;Path&gt;" class="cls-2" d="M187.49,28.42c0-.13,0-.24,0-.34C187.43,28.87,187.43,28.92,187.49,28.42Z" transform="translate(-1.92 -2.7)"/><path id="_Path_3" data-name="&lt;Path&gt;" class="cls-2" d="M156.62,41.87c-17,4-39.64,6.26-63.67,6.26H85l-.67,0H84l-.88,0h-.31l-.89,0h-.43l-.62,0-.47,0-.57,0h-.49l-.55,0-.5,0-.54,0-.51,0-.52,0-.51,0-.52,0-.52,0-.49,0-.54,0-.45,0-1.16-.06-.37,0-.59,0-.42,0-.58,0-.42,0-.59,0-.41,0-.59,0-.4,0-.6,0-.38,0-.62,0-.34,0-.65-.05-.27,0c-1.14-.08-2.26-.18-3.38-.27l-.15,0L61,46.75l-.23,0-.7-.07-.26,0-.68-.07-.26,0-.69-.07-.23,0-.72-.08H57l-.77-.08h0c-1.47-.15-2.92-.32-4.35-.5H51.8l-.78-.1-.12,0-.75-.09-.13,0-.76-.1h-.11l-.79-.11h0q-3-.4-5.84-.87h0l-.78-.13h0l-.78-.13h0c-2.15-.37-4.25-.76-6.27-1.17h0c6.51,16.61,24.58,40.51,74.68,40.51,21.11,0,36.53-4.24,47.79-10.39A66.65,66.65,0,0,0,183.93,26.2C183,34,168.7,39,156.62,41.87Z" transform="translate(-1.92 -2.7)"/><path id="_Compound_Path_" data-name="&lt;Compound Path&gt;" class="cls-3" d="M156.62,9C139.59,4.92,117,2.7,93,2.7S46.31,4.92,29.28,9c-12.48,3-27.36,8.22-27.36,16.45A6.84,6.84,0,0,0,2,26.2a7.12,7.12,0,0,0,.84,2.62,5.52,5.52,0,0,0,.4.66,7,7,0,0,0,.46.65,9.52,9.52,0,0,0,.66.79c.18.2.38.41.59.61a21.09,21.09,0,0,0,3.53,2.69l.22.14c5.48,3.34,13.44,5.81,20.61,7.51h0L30,42l.27.06.45.1.35.08.35.08.42.09.15,0,1.84.39h0l.66.13h0c2,.41,4.12.8,6.27,1.17h0l.78.13h0l.78.13h0q2.85.47,5.84.87h0l.79.11h.11l.76.1.13,0,.75.09.12,0,.78.1h.08c1.43.18,2.88.35,4.35.5h0l.77.08h.18l.72.08.23,0,.69.07.26,0,.68.07.26,0,.7.07.23,0,.73.06.15,0c1.12.09,2.24.19,3.38.27l.27,0,.65.05.34,0,.62,0,.38,0,.6,0,.4,0,.59,0,.41,0,.59,0,.42,0,.58,0,.42,0,.59,0,.37,0,1.16.06.45,0,.54,0,.49,0,.52,0,.52,0,.51,0,.52,0,.51,0,.54,0,.5,0,.55,0h.49l.57,0,.47,0,.62,0h.43l.89,0h.31L84,48h.39l.67,0H93c24,0,46.64-2.22,63.67-6.26C168.7,39,183,34,183.93,26.2a6.84,6.84,0,0,0,0-.79C184,17.18,169.1,11.92,156.62,9Zm19.55,18-.15.14h0l-.14.13,0,0-.3.28h0l-.32.27h0L175,28h0l-.35.27h0c-.41.31-.84.6-1.27.87h0l-.31.19h0l-.61.36h0l-.28.16,0,0-.28.15h0a41,41,0,0,1-4,1.89c-.66.27-1.35.54-2.07.8a101.34,101.34,0,0,1-12.07,3.49c-3.36.77-7,1.47-10.75,2.1l-1.34.22-2,.31-1.51.22-.26,0A326.62,326.62,0,0,1,93,42,323.46,323.46,0,0,1,46.17,38.8l-1.75-.27q-1.37-.21-2.7-.45l-1.43-.25-1.78-.32-.82-.16C35.8,37,34,36.6,32.19,36.19S29,35.41,27.45,35l-.8-.22L26,34.61l-1.26-.37c-1-.31-2-.63-3-1-.76-.26-1.49-.52-2.19-.79-.87-.33-1.71-.67-2.5-1C16,31,15,30.51,14,30h0l-.39-.22h0a21.36,21.36,0,0,1-3-2l0,0-.12-.1,0,0-.14-.12h0l-.27-.25,0,0-.11-.1,0,0L9.77,27h0l-.12-.13h0l-.11-.12,0,0-.09-.1,0,0-.1-.11h0l-.11-.14h0l-.09-.11,0,0A.86.86,0,0,1,9,26l0,0-.09-.12h0l-.09-.14,0,0a.61.61,0,0,1-.07-.1l0,0-.06-.1,0,0-.06-.12h0c0-.05-.05-.09-.07-.14l0,0A.54.54,0,0,0,8.33,25l0,0a.42.42,0,0,0,0-.1l0,0s0-.08,0-.13h0s0-.09,0-.14v0l0-.1v0l0-.1v-.05l0-.13H8A.59.59,0,0,1,8,24v0s0-.07,0-.1v0a.38.38,0,0,1,0-.1v-.05a.61.61,0,0,1,0-.14H8a3.4,3.4,0,0,1,.15-1,2.25,2.25,0,0,1,.08-.24,4,4,0,0,1,.21-.47l.12-.24.14-.23.07-.12L9,20.89l.12-.16.09-.11a8.19,8.19,0,0,1,.7-.75l.11-.11.21-.2,0,0,.22-.19.26-.22.2-.15A21.81,21.81,0,0,1,14,16.93a46.53,46.53,0,0,1,5.54-2.49l1.49-.54.7-.25,1.76-.57q3.88-1.23,8.66-2.33A203.6,203.6,0,0,1,53.41,7.17L55.27,7l1.89-.2,1.91-.2C69.63,5.51,81.11,5,93,5a346.27,346.27,0,0,1,35.89,1.79l1.68.18,2.08.24a204.49,204.49,0,0,1,21.11,3.57c3,.7,5.79,1.43,8.29,2.21,1.54.48,3,1,4.32,1.48a45.45,45.45,0,0,1,5.44,2.44l.1.05.18.1.16.09.12.07.66.38.15.1a20.76,20.76,0,0,1,2,1.38l.36.3.11.1.23.21a5.51,5.51,0,0,1,2.11,3.81c0,.05,0,.11,0,.16v0s0,.09,0,.13v0l0,.16v0a.69.69,0,0,0,0,.13v0s0,.1,0,.15v0l0,.14,0,0c0,.05,0,.09,0,.14h0l-.06.16v0l-.06.13v0l-.08.15v0a.75.75,0,0,1-.07.12l0,0c0,.1-.11.2-.17.3l0,0-.08.13,0,0a.71.71,0,0,1-.1.14l0,0-.1.13,0,0-.11.15h0l-.11.13,0,0c-.08.1-.17.19-.26.29l0,0-.12.13Z" transform="translate(-1.92 -2.7)"/><path id="_Path_4" data-name="&lt;Path&gt;" class="cls-4" d="M73.5,10.41l-.06-.05C73.17,10.27,73.19,10.29,73.5,10.41Z" transform="translate(-1.92 -2.7)"/><path id="_Path_5" data-name="&lt;Path&gt;" class="cls-4" d="M149.85,18.93a2,2,0,0,1-.14-.25,1.91,1.91,0,0,1-.05.54l.08,0Z" transform="translate(-1.92 -2.7)"/><path id="_Path_6" data-name="&lt;Path&gt;" class="cls-4" d="M176.32,26.79c.09-.1.18-.19.26-.29l0,0,.11-.13h0l.11-.15,0,0L177,26l0,0a.71.71,0,0,0,.1-.14l0,0,.08-.13,0,0c.06-.1.12-.2.17-.3l0,0a.75.75,0,0,0,.07-.12v0l.08-.15v0l.06-.13v0l.06-.16h0c0-.05,0-.09,0-.14l0,0,0-.14v0c0-.05,0-.1,0-.15v0a.69.69,0,0,1,0-.13v0l0-.16v0s0-.09,0-.13v0c0-.05,0-.11,0-.16a5.51,5.51,0,0,0-2.11-3.81l-.23-.21-.11-.1-.36-.3a20.76,20.76,0,0,0-2-1.38l-.15-.1-.66-.38-.12-.07L172,17l-.18-.1-.1-.05a45.45,45.45,0,0,0-5.44-2.44c-1.34-.51-2.78-1-4.32-1.48-2.5-.78-5.27-1.51-8.29-2.21A204.49,204.49,0,0,0,132.6,7.18l-2.08-.24-1.68-.18A346.27,346.27,0,0,0,93,5c-11.84,0-23.32.54-33.88,1.58l-1.91.2L55.27,7l-1.86.22a203.6,203.6,0,0,0-21.22,3.58q-4.77,1.1-8.66,2.33l-1.76.57-.7.25-1.49.54A46.53,46.53,0,0,0,14,16.93,21.81,21.81,0,0,0,10.88,19l-.2.15-.26.22-.22.19,0,0-.21.2a1.14,1.14,0,0,0-.11.11,8.19,8.19,0,0,0-.7.75l-.09.11L9,20.89l-.21.29-.07.12-.14.23-.12.24a4,4,0,0,0-.21.47,2.25,2.25,0,0,0-.08.24,3.4,3.4,0,0,0-.15,1H8a.61.61,0,0,0,0,.14v.05a.38.38,0,0,0,0,.1v0s0,.06,0,.1v0a.59.59,0,0,0,0,.14H8l0,.13v.05l0,.1v0l0,.1v0c0,.05,0,.1,0,.14h0c0,.05,0,.09,0,.13l0,0a.42.42,0,0,1,0,.1l0,0a.54.54,0,0,1,.05.11l0,0c0,.05,0,.09.07.14h0l.06.12,0,0,.06.1,0,0a.61.61,0,0,0,.07.1l0,0,.09.14h0l.09.12,0,0a.86.86,0,0,0,.07.1l0,0,.09.11h0l.11.14h0l.1.11,0,0,.09.1,0,0,.11.12h0l.12.13h0l.12.12,0,0,.11.1,0,0,.27.25h0l.14.12,0,0,.12.1,0,0,.3.24c.06-.34.12-.67.19-1a1,1,0,0,1,1.19-.68,4.9,4.9,0,0,0,4-.67,2.13,2.13,0,0,1-.05-.57,2.74,2.74,0,0,1,.53-1.53,2.41,2.41,0,0,1,2.51-1.8h.14l.14-.16a2.56,2.56,0,0,1,1.5-1.27,3.47,3.47,0,0,1,2.35.11A2.93,2.93,0,0,1,25,19.23a2.68,2.68,0,0,1,2.3.36.28.28,0,0,0,0-.09v-.39a.31.31,0,0,0,0-.1V19s0-.07,0-.1v-.06s0-.07,0-.11v-.05l0-.12v0a3,3,0,0,1,.1-.32v0s0-.09,0-.13v0l.06-.12v0l.06-.12,0,0s.05-.08.07-.13h0a4.93,4.93,0,0,1,.73-1h0l.18-.19h0l.18-.17h0l.19-.17h0l.18-.15,0,0,.18-.13,0,0,.19-.13a5.81,5.81,0,0,1,4.39-.81l.3.08a2.42,2.42,0,0,1,.93,0,2.13,2.13,0,0,1,.93.54l.07.07a1.82,1.82,0,0,1,.75.78l.33-.08a6.63,6.63,0,0,1,1.28-1.74l-.24-.31a1.78,1.78,0,0,1-.18-1.39,2.21,2.21,0,0,1,.47-.81,1.69,1.69,0,0,1,1-.49,1.26,1.26,0,0,1,.72,0l.44.18c.25.2.51.39.75.6a2.25,2.25,0,0,1,.39-.79,2.06,2.06,0,0,1,2.67-.53l.65.42.27.18a2.24,2.24,0,0,1,.82.89,3.21,3.21,0,0,0,.21.3,1.78,1.78,0,0,1,.23,1.22,2,2,0,0,1-.08.35,1.29,1.29,0,0,1,.62.33,11.64,11.64,0,0,1,.88-.84,2,2,0,0,1,.71-1,2.55,2.55,0,0,1,.39-.24,2.68,2.68,0,0,1,.9-.31h.06a2.15,2.15,0,0,1,2.11-1.86,11.62,11.62,0,0,1,2,.17A2.72,2.72,0,0,1,56.5,12a1.46,1.46,0,0,1,.93-.36A1.38,1.38,0,0,1,58.79,13a.48.48,0,0,1,0,.12,4.42,4.42,0,0,1,1.64.43c1,.49,2,1.51,3.14,1.39a5.13,5.13,0,0,0,2.53-1.42,12.74,12.74,0,0,1,2.71-1.93,2.25,2.25,0,0,1,1.53-1.63,3.07,3.07,0,0,1,1-.14,8.06,8.06,0,0,1,1,.13,2.66,2.66,0,0,1,1.43.63,1.81,1.81,0,0,1,.33.29,1.63,1.63,0,0,1,.43.78l.21-.09a2,2,0,0,1,.11-1.3,2.1,2.1,0,0,1,3-1l1.74,1.14c.29.19.58.38.86.58a2.9,2.9,0,0,1,1,1.07,1.23,1.23,0,0,1,.16.5,6.58,6.58,0,0,1,2.71,1.66,1.48,1.48,0,0,1,.29-.12.8.8,0,0,1,.25-.11,8,8,0,0,1,.89-.53,2.49,2.49,0,0,1,.52-.89,2.33,2.33,0,0,1,1.62-.67,2.48,2.48,0,0,1,1.63.67l.13.11a7.53,7.53,0,0,1,.8.09,2.06,2.06,0,0,1,.24-.91,1.77,1.77,0,0,1,.87-.75A2.07,2.07,0,0,1,92.72,11l.51.08a2,2,0,0,1,.9.44h0a2.55,2.55,0,0,1,.6.58q.31.08.63.12l-.16,0,.32.06a7.54,7.54,0,0,1,1.82-.37l0-.08a2.4,2.4,0,0,1,1.37-1,2.34,2.34,0,0,1,1.76.23l1.37,1a7.18,7.18,0,0,1,1,.83,2.56,2.56,0,0,1,.69,1.24l.12.27a2.4,2.4,0,0,1,1-.13,7.71,7.71,0,0,1,2.1-1.21,1.92,1.92,0,0,1,0-.72A1.73,1.73,0,0,1,108,10.79a10.84,10.84,0,0,1,1.37-.22,2.4,2.4,0,0,1,.88,0,2,2,0,0,1,.42.18,1.57,1.57,0,0,1,1.29.94A2.45,2.45,0,0,1,112,12a1.79,1.79,0,0,1,.25-.23,2.18,2.18,0,0,1,2.56,0,2.32,2.32,0,0,1,.45-1.63,2.26,2.26,0,0,1,2.9-.57l.14.07.07,0a4.26,4.26,0,0,0,.69.15l-.24,0a9.29,9.29,0,0,1,1.05.21,2.61,2.61,0,0,0,.27.06h.19a2.52,2.52,0,0,1,.55.08,2.21,2.21,0,0,1,.51-.89,2.18,2.18,0,0,1,3.06,0,20.78,20.78,0,0,1,1.69,1.94,3.2,3.2,0,0,1,.59,1.51A6.07,6.07,0,0,1,130,10.58a2.22,2.22,0,0,1,.62-.77,2.17,2.17,0,0,1,2.82.17l.56.47.05,0a2.19,2.19,0,0,1,.63.56,3.74,3.74,0,0,1,.89,1.48,2.44,2.44,0,0,1,.06.26,6.54,6.54,0,0,1,.89,1.77,2.93,2.93,0,0,1,.79-.17,3.57,3.57,0,0,1,.81-.21l-.27-.38a1.68,1.68,0,0,1,1.43-2.51,5.05,5.05,0,0,1,1.6.19,3.71,3.71,0,0,1,1.09.59,1.09,1.09,0,0,1,.37.37c.21.28.22.28,0,0a5.78,5.78,0,0,1,.37.51,1.69,1.69,0,0,1,.22,1.38,7.9,7.9,0,0,1,.76.77,6,6,0,0,1,1,1.54,2.58,2.58,0,0,1,.41-.57,2.23,2.23,0,0,1,1.56-.65,2.19,2.19,0,0,1,1.57.65c.28.35.57.7.83,1.07a2.89,2.89,0,0,1,.38.69,2.12,2.12,0,0,1,2.11-2.29,8.73,8.73,0,0,1,1.06.15,1.36,1.36,0,0,1,.81-.7l.12-.05a1.84,1.84,0,0,1,.41-.05,1.48,1.48,0,0,1,.7.17,3.2,3.2,0,0,1,.77.42,2.37,2.37,0,0,1,.83,1.14,1.75,1.75,0,0,1-.11,1.23,1.27,1.27,0,0,1-.22.38,2.11,2.11,0,0,1,.2.91,3.25,3.25,0,0,1,.15.4,14.48,14.48,0,0,0,2,.25h.11l.69-.16.42-.13.18-.06a3.7,3.7,0,0,1,.62-.26,4.2,4.2,0,0,1,.87-.07,2.16,2.16,0,0,1,2,1.33,1.94,1.94,0,0,1,.14.45l0,0,.06,0,.09.06.06.05.09.06.06.05.09.07.06.05.09.08,0,0,.13.14a4.69,4.69,0,0,1,1.27,2.22l.26-.1,0,0,.26-.08,0,0,.26-.07h0a3.58,3.58,0,0,1,.45-.09,6.74,6.74,0,0,1,7,3.71,9.63,9.63,0,0,1,.6,1.41l.35-.26h0L175,28h0l.17-.13h0l.32-.27h0l.3-.28,0,0,.14-.13h0l.15-.14h0l.12-.13Z" transform="translate(-1.92 -2.7)"/><path id="_Path_7" data-name="&lt;Path&gt;" class="cls-5" d="M33.6,27.06a1.36,1.36,0,0,0,.26-.68A2.34,2.34,0,0,0,33.6,27.06Z" transform="translate(-1.92 -2.7)"/><path id="_Path_8" data-name="&lt;Path&gt;" class="cls-5" d="M106.61,39.57l0,0C107,39.29,107,39.3,106.61,39.57Z" transform="translate(-1.92 -2.7)"/><path id="_Path_9" data-name="&lt;Path&gt;" class="cls-5" d="M90.32,30.27l0,0h0Z" transform="translate(-1.92 -2.7)"/><path id="_Compound_Path_2" data-name="&lt;Compound Path&gt;" class="cls-5" d="M173.72,27.08a6.74,6.74,0,0,0-7-3.71l-.17,0-.16.23A3.72,3.72,0,0,1,162.47,25a1.23,1.23,0,0,1,0,.19s0,.07,0,.11a.64.64,0,0,1,0,.07l0,.16v0a1.21,1.21,0,0,0,0,.18h0a2.76,2.76,0,0,1-.3.68,2.82,2.82,0,0,1,1.25.34,1.63,1.63,0,0,1,.32,2.52,5,5,0,0,1-1,.84l-.45.28h0c-.18.2-.13.09,0,0l.07-.07c-.05.06-.13.11-.18.16a1.9,1.9,0,0,1-3.13-.83,1.86,1.86,0,0,1,.19-1.44,3.15,3.15,0,0,1,.22-.29h-.14l-.13,0h0l-.14,0h0a3.69,3.69,0,0,1-.65-.18h0l-.11,0h0l-.09,0,0,0-.08,0,0,0-.08,0,0,0-.07,0,0,0-.07,0,0,0-.07-.05,0,0-.1-.08a8.5,8.5,0,0,1-3.1,0,3.71,3.71,0,0,1,.64.42,1.71,1.71,0,0,1,.52,1.58,1.77,1.77,0,0,1,.43.62A1.91,1.91,0,0,1,157,31.52a2.21,2.21,0,0,1-.62,1.54,3.12,3.12,0,0,1-1,.91,5.32,5.32,0,0,1-.82.35,2,2,0,0,1-2.08-.71,2,2,0,0,1-.31-1.9l-.1.14,0,0A.69.69,0,0,1,152,32h0a.57.57,0,0,1-.11.11l0,0-.13.12h0l-.11.1h0l-.14.1h0l-.13.09h0l-.15.08,0,0-.15.07h0l-.14.06h0l-.16,0h0l-.15,0h0l-.16,0h0L150,33h-.42a2.73,2.73,0,0,1-2-1,3,3,0,0,1-4.71-1.44l-.19.16a2.3,2.3,0,0,1-1.29.46l-.51,0a2.85,2.85,0,0,1-1.45-.45,2.13,2.13,0,0,1-.74-.72,1.33,1.33,0,0,1-.37-.2,1.25,1.25,0,0,1-.27-.23,4,4,0,0,1-2.9,1.18,4.1,4.1,0,0,1-3-1.56,2.35,2.35,0,0,1-1.58,1.11,5.36,5.36,0,0,1-1.22,5.48,5.61,5.61,0,0,1-7.92-.53c-2.29,1.59-5.31,3.06-8,1.82a4.89,4.89,0,0,1-2.94-4.55,4.2,4.2,0,0,1-4-1.6,6.72,6.72,0,0,1-4.54,4c-1.33.33-3,.27-4-.86L97.72,34a4.56,4.56,0,0,1-4.83.89,4.11,4.11,0,0,1-1.43-1.07,3,3,0,0,1-1.14.66,3.25,3.25,0,0,1-.42.11,3.65,3.65,0,0,1-1.28.12,1.37,1.37,0,0,1-.93,1.69,11.1,11.1,0,0,1-3,.21,2.09,2.09,0,0,1-.72-.13,1.92,1.92,0,0,1-1.7,1,8.8,8.8,0,0,1-2.32-.54,2.55,2.55,0,0,1-1.28-1A2.14,2.14,0,0,1,81,32.74a9,9,0,0,1,1.89.81,1.91,1.91,0,0,1,2.24-.93c.55.21,1.14.4,1.69.63A1.65,1.65,0,0,1,87,31.83l.13-.17a8,8,0,0,1-2.07,0,6.23,6.23,0,0,1-2-.55,2.24,2.24,0,0,0,2-.57,2,2,0,0,0,.49-.76l.22.05,1.42.26.63.11a2.59,2.59,0,0,0,1.3-.13A1.45,1.45,0,0,0,90,28a3.68,3.68,0,0,0-.66-.76,3.15,3.15,0,0,0-.75-.39l-1.28-.59a2,2,0,0,0-2.69.72,4.2,4.2,0,0,0-1.39-.72,2.73,2.73,0,0,0-3.1,1,1.84,1.84,0,0,0-.26,1.83,5.84,5.84,0,0,1-4.05-2.62,5.53,5.53,0,0,1-.72-3.8,1.16,1.16,0,0,0,.41-.13,1.53,1.53,0,0,0,.63-.41,2.38,2.38,0,0,0,.51-.87,1.48,1.48,0,0,0,0-.78,1.49,1.49,0,0,0-.23-.73l-.1-.15,0,0h0l-.13-.21a3.71,3.71,0,0,0-.39-.48,2.17,2.17,0,0,1-.5-.08,1.45,1.45,0,0,1-.89-.74,1.83,1.83,0,0,0-.33,0l-.25,0a2.71,2.71,0,0,0-.3-.13h0c-.15-.11-.31-.19-.47-.3a2.41,2.41,0,0,0-1.8-.24,2.34,2.34,0,0,0-1.4,1.08,2.37,2.37,0,0,0,.61,3,4.36,4.36,0,0,1-2.86-.62,2.26,2.26,0,0,1-.34.58l-.2-.08s0,0-.09-.07l-.27-.13h0a1.9,1.9,0,0,0-2-1.21A2,2,0,0,0,63,21.39a3.64,3.64,0,0,1,.42.3,2.83,2.83,0,0,1,.4.37,1.59,1.59,0,0,1,.42,1.44,1,1,0,0,1-.33.56l.06.08a3.53,3.53,0,0,0,2.38,1.09,1.69,1.69,0,0,0,1.1-.32,2.87,2.87,0,0,0,.7-.35,1.94,1.94,0,0,0,.81-1.2,1.63,1.63,0,0,1,.1,1.21,2.28,2.28,0,0,1,.38.38,2.48,2.48,0,0,1,.36.57,3.47,3.47,0,0,1,1.32-.15l.79.06a3,3,0,0,1,1,.2,3.39,3.39,0,0,1,.39.18L73,25.72a2.53,2.53,0,0,1,.37.18,1.63,1.63,0,0,1,1.46.53l1.89,2.36a6.15,6.15,0,0,1,.65.82,3.37,3.37,0,0,1,.31,1,2,2,0,0,1-.32,1.81,1.78,1.78,0,0,1-2,.07,3.48,3.48,0,0,1-.66-.36,1.66,1.66,0,0,1-.44.35l-.2.11a1.88,1.88,0,0,1-.95.25,1.85,1.85,0,0,1-1-.25,1.91,1.91,0,0,1-.94-1.63,1.93,1.93,0,0,1,.26-1l-.37,0a4.26,4.26,0,0,1-2.24-.52A1.91,1.91,0,0,1,68.3,29a7.91,7.91,0,0,1-4,.88A12.44,12.44,0,0,1,63,29.82a3.11,3.11,0,0,1-.13,2.87A3.34,3.34,0,0,1,61,34.15a1.53,1.53,0,0,1-.48.23,1.7,1.7,0,0,1-.81,0,2,2,0,0,1-2.13-.66A3.13,3.13,0,0,1,56.8,33a10.89,10.89,0,0,1-6.32-2.13,4.29,4.29,0,0,1-1.37,2.85c-2,1.8-5.21,1-6.87-.9a1.56,1.56,0,0,0,.7-.69,2.57,2.57,0,0,0,.19-2,1.8,1.8,0,0,0-1.57-2.57,1.42,1.42,0,0,1,.45,1,1.35,1.35,0,0,1-.74,1.21,3.23,3.23,0,0,1-1.41.52l-.37.05c.1,0,.1,0,0,0a2.34,2.34,0,0,1-.66.09l-.71.06a1.49,1.49,0,0,1-1.27-.73l0,0a1,1,0,0,1-.12-.32,1.6,1.6,0,0,1-.05-.39l-.2-.1a4.78,4.78,0,0,1-1-.65,1.92,1.92,0,0,0-1.3,1.55,1.85,1.85,0,0,0,1.12,2,1.91,1.91,0,0,0,2.07-.39,2.55,2.55,0,0,0,.29-.38h0a2.06,2.06,0,0,1-.21,2.64,2.55,2.55,0,0,1-1.11.62,3.55,3.55,0,0,1-.63.05H36c-.27,0-.56.12-.84.11a4.36,4.36,0,0,1-.93-.14,4.54,4.54,0,0,1-2.35-1.3,2.48,2.48,0,0,1,0-3.42,2.2,2.2,0,0,1,.37-.3h0a8.11,8.11,0,0,1-2.47.15h0l-.26,0h-.08l-.22,0H29.1l-.21,0-.13,0-.18,0-.14,0-.17,0-.16,0-.14,0-.19,0-.1,0-.29-.09L27.2,29l-.05,0L27,28.9h0l-.19-.09h0l-.16-.08,0,0c-.13-.06-.24-.13-.36-.2h0l-.15-.1,0,0-.17-.12,0,0a2.83,2.83,0,0,1-.5.48v0a1.77,1.77,0,0,1-1.71,1.52c-.21,0-.42,0-.62.05a3.09,3.09,0,0,1-3.17-1.62,3.32,3.32,0,0,1-.05-3.3,2.75,2.75,0,0,1,.19-.28,2.1,2.1,0,0,0,1.92.05,4.12,4.12,0,0,0,1.67-.11h-.06c.31-.05.61-.1.92-.17a2.19,2.19,0,0,0,1.55-1.55,2.06,2.06,0,0,0,0-1.18,2.54,2.54,0,0,0-.79-1.15,2.4,2.4,0,0,0-1.35-.48c.66.08.15,0,0,0l-.2-.05-.19-.07a3.47,3.47,0,0,0-2.35-.11,2.56,2.56,0,0,0-1.5,1.27l-.14.16h-.14a2.41,2.41,0,0,0-2.51,1.8,2.74,2.74,0,0,0-.53,1.53,2.13,2.13,0,0,0,.05.57,4.9,4.9,0,0,1-4,.67,1,1,0,0,0-1.19.68c-.07.31-.13.64-.19,1a21.34,21.34,0,0,0,2.73,1.79h0L14,30h0c.92.5,1.94,1,3,1.48.79.34,1.63.68,2.5,1,.7.27,1.43.53,2.19.79.95.32,1.94.64,3,1l1.26.37.64.18.8.22c1.5.4,3.08.8,4.74,1.18s3.61.79,5.5,1.16l.82.16,1.78.32,1.43.25q1.34.24,2.7.45l1.75.27A323.46,323.46,0,0,0,93,42a326.62,326.62,0,0,0,44.88-2.9l.26,0,1.51-.22,2-.31,1.34-.22c3.79-.63,7.39-1.33,10.75-2.1a101.34,101.34,0,0,0,12.07-3.49c.72-.26,1.41-.53,2.07-.8a41,41,0,0,0,4-1.89h0l.28-.15,0,0,.28-.16h0l.61-.36h0l.31-.19h0c.31-.19.62-.4.92-.61A9.63,9.63,0,0,0,173.72,27.08ZM38.34,31h.23a3.54,3.54,0,0,1,.46,0h.07s0,0,0,0-.12-.06,0,0l0,0a2.27,2.27,0,0,0,.42,1.07,2.65,2.65,0,0,1-.6-.38A3.1,3.1,0,0,1,38.34,31Zm64.45,6.44A2.74,2.74,0,0,1,104,36.12a3.27,3.27,0,0,1,1.33-.44c-.64.1-.09,0,.06,0,1-.26,2.48-.33,3.26.52a1.63,1.63,0,0,1,.25,1.91,4.24,4.24,0,0,1-2.32,1.53l-.16.12a4.37,4.37,0,0,1-.92.34,2.62,2.62,0,0,1-1.21,0A1.76,1.76,0,0,1,102.79,37.48ZM66.93,32.37a1.75,1.75,0,0,1,1.71-.46,5.34,5.34,0,0,1,.52.18,2.41,2.41,0,0,1,.33.15c.46.34.52.39.17.15.27.22.56.36.82.61a3.48,3.48,0,0,1,.58.69,1.57,1.57,0,0,1,0,1.57,2.27,2.27,0,0,1-2.79.64,3.9,3.9,0,0,1-.92-.5,2.74,2.74,0,0,1-.87-1.32A1.7,1.7,0,0,1,66.93,32.37Zm73.65,1.72a4.44,4.44,0,0,1-.42.55,3.85,3.85,0,0,1-.67.47,9.51,9.51,0,0,1-1,.65,11.11,11.11,0,0,1-1.63.7,5.78,5.78,0,0,1-.69.17,2.45,2.45,0,0,1-1.11,0,6,6,0,0,1-.58-.25,2,2,0,0,1-.91-2.22c.44-1.4,2-2,3.21-2.52a5.29,5.29,0,0,1,1.84-.41,2.39,2.39,0,0,1,2,1.1A1.69,1.69,0,0,1,140.58,34.09Z" transform="translate(-1.92 -2.7)"/><path id="_Path_10" data-name="&lt;Path&gt;" class="cls-6" d="M56.73,18.86a2.79,2.79,0,0,0-.39-.38A1.18,1.18,0,0,0,56.73,18.86Z" transform="translate(-1.92 -2.7)"/><path id="_Path_11" data-name="&lt;Path&gt;" class="cls-6" d="M162.11,30.42c-.13.09-.18.2,0,0Z" transform="translate(-1.92 -2.7)"/><path id="_Path_12" data-name="&lt;Path&gt;" class="cls-6" d="M137.85,29.37c-.31-.11-.62-.23-.94-.33a2.67,2.67,0,0,1-.36-.14h0a3.59,3.59,0,0,1-.41-.11,1.12,1.12,0,0,1-1.42,0,1.1,1.1,0,0,1-.28-1.44,3.06,3.06,0,0,1,.52-.62l.25-.2.05,0c.1-.09.11-.09,0,0s-.06.09,0,0a2.11,2.11,0,0,1,.26-.35,2.31,2.31,0,0,1,.68-.39l0,0a4.35,4.35,0,0,1-1.17-2.63,3.83,3.83,0,0,1-1.34.56,1.48,1.48,0,0,1-.42,1.22,4.31,4.31,0,0,1-.88.64,1.67,1.67,0,0,1,.27.57,1.93,1.93,0,0,1-.84,2.08,2.28,2.28,0,0,1-2.51-.22,3.06,3.06,0,0,1-.37-.35l-.25.12a9.65,9.65,0,0,1-2.63.36,1.4,1.4,0,0,1-.58-.06,1.36,1.36,0,0,1-.88,1.81,2.59,2.59,0,0,1-.78.08h0a2.19,2.19,0,0,1,.78,2.29,3,3,0,0,1-.45.94,3.22,3.22,0,0,1-.52.78,2.23,2.23,0,0,1-.26.27,2.51,2.51,0,0,1-4-.51,2.63,2.63,0,0,1-.28-1.84,1.72,1.72,0,0,1-1.59-.68c-.3-.37-.41-.84-.86-1.07s-1-.25-1.43-.46l-.22-.11a.78.78,0,0,1-.12.22,2.28,2.28,0,0,1-.77.75,1.48,1.48,0,0,1,0,.55,1.64,1.64,0,0,1-2,1.06,6.92,6.92,0,0,1-1.54-.56,7.4,7.4,0,0,1-1.33-.9,4.25,4.25,0,0,1-.77-.76,1,1,0,0,1-.64.05,5.13,5.13,0,0,0-.87-.26.6.6,0,0,1-.44-.44,4.83,4.83,0,0,1-1.84-1.16L104.6,28l-.19.24-.12.13a4.81,4.81,0,0,1-.63,1c.43,1-.61,2.51-1.8,2.05l0,0h-.88l-.29.06-.15,0,0,0c-.13.08-.27.14-.41.21a3.26,3.26,0,0,0-.4.24l-.13.12a1.53,1.53,0,0,1-2.39-1.85,4.87,4.87,0,0,1,.5-.67A3.21,3.21,0,0,1,97,27.74a3.42,3.42,0,0,1-1.82-.33,2,2,0,0,1-.26,1.25,2.09,2.09,0,0,1-1.74,1,2.48,2.48,0,0,1-1-.19A4.15,4.15,0,0,1,91,28.88a4.65,4.65,0,0,1-1.22-1.49,2.39,2.39,0,0,1,.83-3.18l.18-.1-.35-.05a2.36,2.36,0,0,1-1.5-.95q-.33.23-.66.42a1.93,1.93,0,0,1,.05.73,1.76,1.76,0,0,1-1.74,1.53l-1.18,0-.27.07-.5.06-.49-.06c0,.06.38,0,.09.05a1.79,1.79,0,0,1-1.68-1.27,1.47,1.47,0,0,1,0-.83,5.91,5.91,0,0,1-.52-.35,3.62,3.62,0,0,1-1.36-3.89,3.73,3.73,0,0,1,1.22-1.85,2.77,2.77,0,0,1-.56-.76,4.91,4.91,0,0,1-1.45.41,2.09,2.09,0,0,1-.9.65,7.89,7.89,0,0,1-3.09.85,3.71,3.71,0,0,1,.39.48l.13.21h0l0,0,.1.15a1.49,1.49,0,0,1,.23.73,1.48,1.48,0,0,1,0,.78,2.38,2.38,0,0,1-.51.87,1.53,1.53,0,0,1-.63.41,1.16,1.16,0,0,1-.41.13,5.53,5.53,0,0,0,.72,3.8,5.84,5.84,0,0,0,4.05,2.62,1.84,1.84,0,0,1,.26-1.83,2.73,2.73,0,0,1,3.1-1,4.2,4.2,0,0,1,1.39.72,2,2,0,0,1,2.69-.72l1.28.59a3.15,3.15,0,0,1,.75.39A3.68,3.68,0,0,1,90,28a1.45,1.45,0,0,1-.86,2.11,2.59,2.59,0,0,1-1.3.13l-.63-.11-1.42-.26-.22-.05a2,2,0,0,1-.49.76,2.24,2.24,0,0,1-2,.57,6.23,6.23,0,0,0,2,.55,8,8,0,0,0,2.07,0,2.49,2.49,0,0,1,.42-.44l.33-.25a4,4,0,0,1,.77-.39,3.06,3.06,0,0,1,1.34-.3,1.07,1.07,0,0,1,.25,0l0,0v0a2.06,2.06,0,0,1,1.58,1.23,2.09,2.09,0,0,1,.1,1.33,1.88,1.88,0,0,1-.53.9h0a4.11,4.11,0,0,0,1.43,1.07A4.56,4.56,0,0,0,97.72,34l.13.18c1,1.13,2.65,1.19,4,.86a6.72,6.72,0,0,0,4.54-4,4.2,4.2,0,0,0,4,1.6,4.89,4.89,0,0,0,2.94,4.55c2.74,1.24,5.76-.23,8-1.82a5.61,5.61,0,0,0,7.92.53,5.36,5.36,0,0,0,1.22-5.48,2.35,2.35,0,0,0,1.58-1.11,4.1,4.1,0,0,0,3,1.56,4,4,0,0,0,2.9-1.18,1.25,1.25,0,0,0,.27.23,1.33,1.33,0,0,0,.37.2,2.31,2.31,0,0,1-.25-.61A1.31,1.31,0,0,1,137.85,29.37Z" transform="translate(-1.92 -2.7)"/><path id="_Compound_Path_3" data-name="&lt;Compound Path&gt;" class="cls-6" d="M23.8,20.57c.13,0,.64.08,0,0a2.4,2.4,0,0,1,1.35.48,2.54,2.54,0,0,1,.79,1.15,2.06,2.06,0,0,1,0,1.18,2.19,2.19,0,0,1-1.55,1.55c-.31.07-.61.12-.92.17h.06a4.12,4.12,0,0,1-1.67.11,2.1,2.1,0,0,1-1.92-.05,2.75,2.75,0,0,0-.19.28,3.32,3.32,0,0,0,.05,3.3A3.09,3.09,0,0,0,23,30.35c.2,0,.41,0,.62-.05a1.77,1.77,0,0,0,1.71-1.52v0a2.83,2.83,0,0,0,.5-.48l0,0h0l.17.12,0,0,.15.1h0c.12.07.23.14.36.2l0,0,.16.08h0l.19.09h0l.15.06.05,0,.19.07.29.09.1,0,.19,0,.14,0,.16,0,.17,0,.14,0,.18,0,.13,0,.21,0h.11l.22,0h.08l.26,0h0a8.44,8.44,0,0,0,2.47-.15h0a2.2,2.2,0,0,0-.37.3,2.48,2.48,0,0,0,0,3.42,4.54,4.54,0,0,0,2.35,1.3,4.36,4.36,0,0,0,.93.14c.28,0,.57-.12.84-.11h-.27a3.55,3.55,0,0,0,.63-.05,2.55,2.55,0,0,0,1.11-.62,2.06,2.06,0,0,0,.21-2.64h0a2.55,2.55,0,0,1-.29.38,1.91,1.91,0,0,1-2.07.39,1.85,1.85,0,0,1-1.12-2,1.92,1.92,0,0,1,1.3-1.55,2,2,0,0,1-.21-.19,1.74,1.74,0,0,1-.38-.47l0,0a1.79,1.79,0,0,1-.22-.34,1.67,1.67,0,0,1-.38-1.56,4.73,4.73,0,0,1-.43-.57,4.25,4.25,0,0,1-.52-3.44,2.75,2.75,0,0,1-.77.24,2.37,2.37,0,0,1-1.1-.12L31,21.81a.85.85,0,0,1-.4-.1A4.15,4.15,0,0,1,29,20.8a3.08,3.08,0,0,1-.91-3.29,3.75,3.75,0,0,1,.21-.5L28.19,17a3.6,3.6,0,0,0-.39.57h0c0,.05-.05.09-.07.13l0,0-.06.12v0l-.06.12v0s0,.09,0,.13v0a3,3,0,0,0-.1.32v0l0,.12v.05s0,.07,0,.11v.06s0,.07,0,.1V19a.31.31,0,0,1,0,.1v.39a.28.28,0,0,1,0,.09,2.68,2.68,0,0,0-2.3-.36,2.93,2.93,0,0,0-1.59,1.22l.19.07Zm10.06,5.81a1.36,1.36,0,0,1-.26.68A2.34,2.34,0,0,1,33.86,26.38Zm-6-5.3a.87.87,0,0,1,.84,0l.58.26a.53.53,0,0,1,0,.92l-.58.26a.87.87,0,0,1-.84,0,.85.85,0,0,1-.41-.72A.84.84,0,0,1,27.83,21.08Z" transform="translate(-1.92 -2.7)"/><path id="_Path_13" data-name="&lt;Path&gt;" class="cls-6" d="M162.69,22.79a4.28,4.28,0,0,1-3,1.13,5.11,5.11,0,0,1-1.35-.07l-.4-.07-.26-.11-.27-.09a2,2,0,0,1-1.23-1.15l-.41.18a5.92,5.92,0,0,1-1.47.39,1.45,1.45,0,0,1-.6.74,2.28,2.28,0,0,1-1.11.36l-.57,0a1.74,1.74,0,0,1-1.3-.56,1.75,1.75,0,0,1-.29.18,2.58,2.58,0,0,1,.58.61h0l.07.07.21.13a6.17,6.17,0,0,1,.74.19,3.4,3.4,0,0,1,.46.06,2.09,2.09,0,0,1,1.12.78,1.28,1.28,0,0,1,.47,1.37s0,.08,0,.12l0,0,.13.07a8.5,8.5,0,0,0,3.1,0l.1.08,0,0,.07.05,0,0,.07,0,0,0,.07,0,0,0,.08,0,0,0,.08,0,0,0,.09,0h0l.11,0h0a3.69,3.69,0,0,0,.65.18h0l.14,0h0l.13,0h.14a3.15,3.15,0,0,0-.22.29,1.86,1.86,0,0,0-.19,1.44,1.9,1.9,0,0,0,3.13.83c.05-.05.13-.1.18-.16l-.07.07h0l.45-.28a5,5,0,0,0,1-.84,1.63,1.63,0,0,0-.32-2.52,2.82,2.82,0,0,0-1.25-.34h0a2.76,2.76,0,0,0,.3-.68h0a1.21,1.21,0,0,1,0-.18v0l0-.16a.64.64,0,0,0,0-.07s0-.07,0-.11a1.23,1.23,0,0,0,0-.19,3.72,3.72,0,0,0,3.88-1.39l.16-.23-.28.06h0l-.26.07,0,0-.26.08,0,0-.26.1a4.69,4.69,0,0,0-1.27-2.22L164,21.4l0,0-.09-.08-.06-.05-.09-.07-.06-.05-.09-.06-.06-.05-.09-.06-.06,0,0,0A2.24,2.24,0,0,1,162.69,22.79Z" transform="translate(-1.92 -2.7)"/><path id="_Path_14" data-name="&lt;Path&gt;" class="cls-6" d="M74.47,16.62A3,3,0,0,1,75,16a4.7,4.7,0,0,1-2.95.46l-.41-.11a2.14,2.14,0,0,1-.13.19,2.1,2.1,0,0,1-1.37.75,2.61,2.61,0,0,1-2.42-.63,3.19,3.19,0,0,1-.49-.48,5.26,5.26,0,0,1-1.77.12c-.31,2-3,2.84-4.83,3.23-.65.15-1.41.39-2.17.52a3.87,3.87,0,0,1,0,.48,1.83,1.83,0,0,1,.58.64,2.55,2.55,0,0,0,.25.46h0v0a3.07,3.07,0,0,0,.26.25l.11.07.47.28a1.89,1.89,0,0,1,.66-.81,2.1,2.1,0,0,1,1.22-.35,1.65,1.65,0,0,1,1,.26,2,2,0,0,1,1.65-1.49,1.9,1.9,0,0,1,2,1.21h0l.27.13c.1.06.12.08.09.07l.2.08a2.26,2.26,0,0,0,.34-.58,4.36,4.36,0,0,0,2.86.62,2.37,2.37,0,0,1-.61-3,2.34,2.34,0,0,1,1.4-1.08,2.41,2.41,0,0,1,1.8.24c.16.11.32.19.47.3h0a2.71,2.71,0,0,1,.3.13l.25,0a1.83,1.83,0,0,1,.33,0A1.29,1.29,0,0,1,74.47,16.62Z" transform="translate(-1.92 -2.7)"/><path id="_Path_15" data-name="&lt;Path&gt;" class="cls-6" d="M140.55,26.66a2.33,2.33,0,0,1,1,.12,1.93,1.93,0,0,1-.36-.28,1.48,1.48,0,0,1-.26-.3,4,4,0,0,1-1,.54v0A3.7,3.7,0,0,1,140.55,26.66Z" transform="translate(-1.92 -2.7)"/><path id="_Path_16" data-name="&lt;Path&gt;" class="cls-6" d="M135.5,28.41a.85.85,0,0,0,.35.27.05.05,0,0,0,0,0Z" transform="translate(-1.92 -2.7)"/><path id="_Path_17" data-name="&lt;Path&gt;" class="cls-6" d="M147.72,23.93h0l0,0Z" transform="translate(-1.92 -2.7)"/><path id="_Path_18" data-name="&lt;Path&gt;" class="cls-6" d="M132.36,25.63h0s0,.07,0,.11Z" transform="translate(-1.92 -2.7)"/><path id="_Compound_Path_4" data-name="&lt;Compound Path&gt;" class="cls-6" d="M62.53,24.36l-.28,0a1.79,1.79,0,0,1,0,.4,1.91,1.91,0,0,1-1.36,1.58,3.77,3.77,0,0,1-3-.3,3.08,3.08,0,0,1-3.76,1.59A3.84,3.84,0,0,1,51.6,25a4.92,4.92,0,0,1-3.06-.39,4.73,4.73,0,0,1-1.75-1.47c-.35.28-.73.51-1.1.77a5,5,0,0,1-.49.31,2.81,2.81,0,0,1-1.06.3h0a8.08,8.08,0,0,1-1.59,1.61A6.63,6.63,0,0,1,41,27c0,.05.05.1.07.16a.88.88,0,0,1,.05.15,10.32,10.32,0,0,0,.43.34,1.8,1.8,0,0,1,1.57,2.57,2.57,2.57,0,0,1-.19,2,1.56,1.56,0,0,1-.7.69c1.66,1.94,4.84,2.7,6.87.9a4.29,4.29,0,0,0,1.37-2.85A10.89,10.89,0,0,0,56.8,33a3.13,3.13,0,0,0,.76.69A2.26,2.26,0,0,1,57,32.34a2.08,2.08,0,0,1,1.11-1.86A2,2,0,0,1,57,29.2a2.05,2.05,0,0,1,.2-1.53,2,2,0,0,1,1.19-.91,4.27,4.27,0,0,1,2,0,3,3,0,0,1,.45.18,1.4,1.4,0,0,1,.62.39l.07.09a1.42,1.42,0,0,1,.29.31,2,2,0,0,1,.33.67,1.69,1.69,0,0,1-.76,1.86,2.06,2.06,0,0,1-.48.21l-.16,0a1.68,1.68,0,0,1-.39.07,2.23,2.23,0,0,1,.74.9,1.88,1.88,0,0,1,.24.18l0,0a1.51,1.51,0,0,1,.39,1.47,1.89,1.89,0,0,1-.48.79,1.71,1.71,0,0,1-.26.21,3.34,3.34,0,0,0,1.85-1.46A3.11,3.11,0,0,0,63,29.82a12.44,12.44,0,0,0,1.37.07,7.91,7.91,0,0,0,4-.88,2.13,2.13,0,0,1,.58-3.12,4.91,4.91,0,0,1,.92-.37,2.48,2.48,0,0,0-.36-.57,2.28,2.28,0,0,0-.38-.38,1.63,1.63,0,0,0-.1-1.21,1.94,1.94,0,0,1-.81,1.2,2.87,2.87,0,0,1-.7.35,1.69,1.69,0,0,1-1.1.32A3.53,3.53,0,0,1,64,24.14l-.06-.08a1.39,1.39,0,0,1-1.38.3Zm-9.92,4.26a1.66,1.66,0,0,1-1.14,1.13,2.13,2.13,0,0,1-1.87-.17,2.35,2.35,0,0,1-1.1-1.43,2.4,2.4,0,0,1-1.73,2.21,2.31,2.31,0,0,1-2.27-.54,2,2,0,0,1-.45-.69l-.16-.41a1.73,1.73,0,0,1,0-.93,3.63,3.63,0,0,1,.15-.67l.06-.22a.14.14,0,0,1,0-.07c0-.08,0-.17,0-.23L44.2,26a2,2,0,0,1,2.92-1.68A1.92,1.92,0,0,1,48,25.45c.06.38.1.77.17,1.15s.2.75.27,1.14a1.6,1.6,0,0,1,.47-1.27A1.65,1.65,0,0,1,50.55,26a4.71,4.71,0,0,1,.65.28,3.92,3.92,0,0,1,.36.16,1.59,1.59,0,0,1,.48.41l.15.14A1.61,1.61,0,0,1,52.61,28.62Z" transform="translate(-1.92 -2.7)"/><path id="_Path_19" data-name="&lt;Path&gt;" class="cls-6" d="M127.32,24a1.34,1.34,0,0,1-.09-.26l-.33-.23a2.45,2.45,0,0,1-.53.78c.35-.05.69-.09,1-.11Z" transform="translate(-1.92 -2.7)"/><path id="_Path_20" data-name="&lt;Path&gt;" class="cls-6" d="M92.92,24.21a2.44,2.44,0,0,1,0-.47,4.84,4.84,0,0,1-.6.22l0,0A2.37,2.37,0,0,1,92.92,24.21Z" transform="translate(-1.92 -2.7)"/><path id="_Path_21" data-name="&lt;Path&gt;" class="cls-6" d="M39,31.85a2.65,2.65,0,0,0,.6.38,2.27,2.27,0,0,1-.42-1.07l0,0c-.17-.08.13.06,0,0s0,0,0,0H39a3.54,3.54,0,0,0-.46,0h-.23A3.1,3.1,0,0,0,39,31.85Z" transform="translate(-1.92 -2.7)"/><path id="_Path_22" data-name="&lt;Path&gt;" class="cls-6" d="M107.18,25.74l.09.07.1.07.21.13c.06,0,.29.11.07,0s.3.11.43.19a2.09,2.09,0,0,1,.45.33c.1.09.18.21.28.31a1.59,1.59,0,0,1,.25.33,2,2,0,0,1,1.55-.13l.22.09a2.5,2.5,0,0,1,1-.28h0a2.55,2.55,0,0,1-1.21-1,.89.89,0,0,1,.93-1.33,2.45,2.45,0,0,1,.37-.84,2.87,2.87,0,0,1-1.47-.33l-.2-.11a3.79,3.79,0,0,1-1,1.27,3.38,3.38,0,0,0,.47.62.78.78,0,0,1-.75,1.29,3.94,3.94,0,0,1-2.13-1.23,3.7,3.7,0,0,1-1.84-.79c0,.36,0,.73,0,1.09A1.78,1.78,0,0,1,107.18,25.74Z" transform="translate(-1.92 -2.7)"/><path id="_Path_23" data-name="&lt;Path&gt;" class="cls-6" d="M122.66,29.56l-.24-.17A1.45,1.45,0,0,1,122,29a5,5,0,0,1-.23.65A2.5,2.5,0,0,1,122.66,29.56Z" transform="translate(-1.92 -2.7)"/><path id="_Path_24" data-name="&lt;Path&gt;" class="cls-6" d="M124.71,24.9a2.43,2.43,0,0,1-.6-.1,2.44,2.44,0,0,1-1.92,2.08c0,.08,0,.16,0,.23a1.13,1.13,0,0,1,.21-.15,1.52,1.52,0,0,1,1.09-.15,3,3,0,0,1,.72.18l.13.05a2,2,0,0,1-.2-.79A2,2,0,0,1,124.71,24.9Z" transform="translate(-1.92 -2.7)"/><path id="_Path_25" data-name="&lt;Path&gt;" class="cls-6" d="M155.68,31.29a1.72,1.72,0,0,1-1,.77,1.76,1.76,0,0,1-1.29-.17,2.13,2.13,0,0,1-.46-.4,1.56,1.56,0,0,1-.2-.16,1,1,0,0,1-.26-.37,7.16,7.16,0,0,1-2.59-.92A1.87,1.87,0,0,1,149,28.2a5,5,0,0,1-1.6-1.7l-.08-.17a2.06,2.06,0,0,1-2,.55,4.8,4.8,0,0,1-.92-.42,5,5,0,0,1-.52.38,2,2,0,0,1-1.65.2l.29.16a2.2,2.2,0,0,1,1,2.41,2,2,0,0,1-.58.94A3,3,0,0,0,147.58,32a2.73,2.73,0,0,0,2,1H150l.15,0h0l.16,0h0l.15,0h0l.16,0h0l.14-.06h0l.15-.07,0,0,.15-.08h0l.13-.09h0l.14-.1h0l.11-.1h0l.13-.12,0,0A.57.57,0,0,0,152,32h0a.69.69,0,0,0,.11-.13l0,0,.1-.14h0a2,2,0,0,0,.31,1.9,2,2,0,0,0,2.08.71,5.32,5.32,0,0,0,.82-.35,3.12,3.12,0,0,0,1-.91,2.21,2.21,0,0,0,.62-1.54,1.91,1.91,0,0,0-1.25-1.72,1.52,1.52,0,0,1-.09,1.49Z" transform="translate(-1.92 -2.7)"/><path id="_Path_26" data-name="&lt;Path&gt;" class="cls-7" d="M73.44,13.63l.06-.06Q73,13.75,73.44,13.63Z" transform="translate(-1.92 -2.7)"/><path id="_Path_27" data-name="&lt;Path&gt;" class="cls-7" d="M85.61,13.88a3.59,3.59,0,0,1,.12-.47,8,8,0,0,0-.89.53,1.15,1.15,0,0,1,.26,0A1.46,1.46,0,0,1,85.61,13.88Z" transform="translate(-1.92 -2.7)"/><path id="_Path_28" data-name="&lt;Path&gt;" class="cls-7" d="M28.34,17a3.75,3.75,0,0,0-.21.5A3.08,3.08,0,0,0,29,20.8a4.15,4.15,0,0,0,1.59.91.85.85,0,0,0,.4.1l.44.07-.24-.09a.94.94,0,0,0,.51-1.59,4.67,4.67,0,0,0-2-1.18l-.18,0,0-.14a2.19,2.19,0,0,1,1.85-1.57,2.56,2.56,0,0,1,1.58.29,1.83,1.83,0,0,1-.17-.82,2,2,0,0,1,.6-1.41,1.74,1.74,0,0,1,1-.5l-.3-.08a5.81,5.81,0,0,0-4.39.81l-.19.13,0,0-.18.13,0,0L29.1,16h0l-.19.17h0l-.18.17h0l-.18.19h0a3.26,3.26,0,0,0-.34.4Z" transform="translate(-1.92 -2.7)"/><path id="_Path_29" data-name="&lt;Path&gt;" class="cls-7" d="M90.55,13.4a2,2,0,0,1-.12-.68h0a7.53,7.53,0,0,0-.8-.09l.89.74Z" transform="translate(-1.92 -2.7)"/><path id="_Path_30" data-name="&lt;Path&gt;" class="cls-7" d="M155.38,20.66a2,2,0,0,1-2.55-.12h0a2.79,2.79,0,0,1-.28-.16l-.37-.16-.27-.16a2.07,2.07,0,0,0-.25-.15c-.21,0-.43-.14-.64-.18a1.78,1.78,0,0,1-1.15-.79l-.11.26-.08,0a2.06,2.06,0,0,1-.75,1.19,2,2,0,0,1-2.24.16c-.15-.09-.31-.18-.45-.28a2,2,0,0,1-.18.4l-.2.27a2,2,0,0,1-.48.59l.08.07a9.64,9.64,0,0,1,2.18,2.19.6.6,0,0,1,.06.11h0a2.4,2.4,0,0,1,.42-.34,2.05,2.05,0,0,1,2.33.15,1.75,1.75,0,0,0,.29-.18A1.82,1.82,0,0,1,153,20.71l.49.28a2.22,2.22,0,0,1,.77.84,1.35,1.35,0,0,1,.1,1.17,5.92,5.92,0,0,0,1.47-.39l.41-.18a1.93,1.93,0,0,1-.14-.65A1.86,1.86,0,0,1,157.45,20l.27,0c-.31.15-.3.16,0,0a2.32,2.32,0,0,1,.51-.16l.13,0h-.11a14.48,14.48,0,0,1-2-.25,3.25,3.25,0,0,0-.15-.4A2,2,0,0,1,155.38,20.66Z" transform="translate(-1.92 -2.7)"/><path id="_Compound_Path_5" data-name="&lt;Compound Path&gt;" class="cls-7" d="M74.11,13.15a2.28,2.28,0,0,1-.33.29,2.65,2.65,0,0,1-1.43.62c-.26,0-.54.1-.81.13a1.81,1.81,0,0,1,.22.78,1.87,1.87,0,0,1-.13,1.41l.41.11A4.7,4.7,0,0,0,75,16a3,3,0,0,0-.52.59,1.29,1.29,0,0,0,0,1.39,1.45,1.45,0,0,0,.89.74,2.17,2.17,0,0,0,.5.08A7.89,7.89,0,0,0,78.93,18a2.09,2.09,0,0,0,.9-.65,4.91,4.91,0,0,0,1.45-.41,2.77,2.77,0,0,0,.56.76,3.73,3.73,0,0,0-1.22,1.85A3.62,3.62,0,0,0,82,23.42a5.91,5.91,0,0,0,.52.35,1.47,1.47,0,0,0,0,.83,1.79,1.79,0,0,0,1.68,1.27c.29,0-.06,0-.09-.05l.49.06.5-.06.27-.07,1.18,0a1.76,1.76,0,0,0,1.74-1.53,1.93,1.93,0,0,0-.05-.73q.33-.2.66-.42a2.36,2.36,0,0,0,1.5.95l.35.05A2.48,2.48,0,0,1,92.31,24a4.84,4.84,0,0,0,.6-.22,2.44,2.44,0,0,0,0,.47,2.13,2.13,0,0,1,.83.83,3.37,3.37,0,0,0,.36.61L94,25.54l.3.4a6.05,6.05,0,0,1,.55.68,1.85,1.85,0,0,1,.26.79,3.42,3.42,0,0,0,1.82.33,3.21,3.21,0,0,0,.65,1.83,4.87,4.87,0,0,0-.5.67,1.53,1.53,0,0,0,2.39,1.85l.13-.12a3.26,3.26,0,0,1,.4-.24c.14-.07.28-.13.41-.21l0,0,.15,0,.29-.06h.88l0,0c1.19.46,2.23-1,1.8-2.05a4.81,4.81,0,0,0,.63-1,3.34,3.34,0,0,1-.88.6l-.09-.08a3.88,3.88,0,0,0-3.5-.66l-.25.07a2.23,2.23,0,0,1,.91-2.72,5.62,5.62,0,0,1,2.45-.91,2.05,2.05,0,0,1,1.8,1.06h0a1.43,1.43,0,0,1,.23-.2c0-.36,0-.73,0-1.09a3.7,3.7,0,0,0,1.84.79l-.28-.33a1.36,1.36,0,0,1-.33-1.25,1.32,1.32,0,0,1,.59-.76,1.39,1.39,0,0,1,1-.13,1.32,1.32,0,0,1,.89.89c-.1-.24,0,.06.06.11s.09.16.14.24.18.27.27.41l.09.14a3.79,3.79,0,0,0,1-1.27l.2.11a2.87,2.87,0,0,0,1.47.33,2.39,2.39,0,0,1,1.88-1h.32l-.22-.37a2.14,2.14,0,0,1,.56-2.77,2.17,2.17,0,0,1,2.82.17l.86.73a3.39,3.39,0,0,1,.9,1.29,2.35,2.35,0,0,1,.23,1.7,2.61,2.61,0,0,1-.57,1,.93.93,0,0,1-.18.16,1.87,1.87,0,0,1,.22,1.18,2,2,0,0,1-1.3,1.6,3.75,3.75,0,0,1-2.66.34L115,28a1.84,1.84,0,0,1,.12,1.65l.22.11c.46.21,1,.24,1.43.46s.56.7.86,1.07a1.72,1.72,0,0,0,1.59.68.36.36,0,0,0,0-.1A2.54,2.54,0,0,1,121,30.09l.24-.09.24-.16.37-.16A5,5,0,0,0,122,29a1.45,1.45,0,0,0,.38.36l.24.17.07.05a3.05,3.05,0,0,0,.61.27,1.82,1.82,0,0,0,.5.12,2.59,2.59,0,0,0,.78-.08,1.36,1.36,0,0,0,.88-1.81,1.09,1.09,0,0,0-.08-.15,3.45,3.45,0,0,0-.35-.5,2.15,2.15,0,0,0-.71-.42l-.13-.05a3,3,0,0,0-.72-.18,1.52,1.52,0,0,0-1.09.15,1.13,1.13,0,0,0-.21.15c0-.07,0-.15,0-.23a2.44,2.44,0,0,0,1.92-2.08,2.43,2.43,0,0,0,.6.1h0a2.09,2.09,0,0,1,1.36-.57l.29,0a2.45,2.45,0,0,0,.53-.78l.33.23a2.12,2.12,0,0,1,.94-2.35,3.23,3.23,0,0,1,2.1-.48,2.2,2.2,0,0,1,1.24.44,2.05,2.05,0,0,1,.26.24,1.66,1.66,0,0,1,.34.3,2.86,2.86,0,0,1,.32.51,1.26,1.26,0,0,0-1,.19l-.15.09-.19.07-.68.26a1.65,1.65,0,0,0-1.19,1.55,1.75,1.75,0,0,0,.18.69h0a2.7,2.7,0,0,0,.3.45.93.93,0,0,0,.34.27,1.52,1.52,0,0,0,1.22.14,9.45,9.45,0,0,0,1.08-.49h0l0,0a4.31,4.31,0,0,0,.88-.64,1.48,1.48,0,0,0,.42-1.22,3.83,3.83,0,0,0,1.34-.56,4.35,4.35,0,0,0,1.17,2.63,3.1,3.1,0,0,1,.52-.15,3.6,3.6,0,0,1,2,.22,2.5,2.5,0,0,1,1.19.85,4,4,0,0,0,1-.54,2.24,2.24,0,0,1-.34-1.58l.26-.08h0a1.55,1.55,0,0,0,1.11-1.1,1.76,1.76,0,0,0-.18-1.25,2.28,2.28,0,0,1,.4-.56c-.15-.1-.29-.21-.44-.33a1.86,1.86,0,0,1-.57-1.2,2,2,0,0,1,.06-.85A1.73,1.73,0,0,1,141,19c-.26-.3-.52-.59-.76-.9a3.32,3.32,0,0,1-.91,1.67,3.91,3.91,0,0,1,1,.7,1.3,1.3,0,0,1,.44,1,3.46,3.46,0,0,0-1.72.11,3.38,3.38,0,0,0-.8.36,2.12,2.12,0,0,0-1,1.19.76.76,0,0,0-.06.2l-1.17-.06a2,2,0,0,1-1.86-1.41,2.06,2.06,0,0,1-.78-1.53,1.94,1.94,0,0,1,1.91-1.91H136a4.57,4.57,0,0,1-.12-.74v-.15a8.78,8.78,0,0,1-.11-1.15,2.06,2.06,0,0,1,1.27-1.89,2.31,2.31,0,0,1,1.23-.13,1.47,1.47,0,0,1-.1-.13l-.05-.07a3.57,3.57,0,0,0-.81.21,2.93,2.93,0,0,0-.79.17,6.54,6.54,0,0,0-.89-1.77,3.91,3.91,0,0,1,0,1.23,2,2,0,0,1-1.94,1.48,2.63,2.63,0,0,1-1.43-.36A3.5,3.5,0,0,1,132,16.4a4.32,4.32,0,0,1-.23.61,2.1,2.1,0,0,1-1.11,1,2.31,2.31,0,0,1-1.53.12,5.62,5.62,0,0,1-2.84-2.22,2.1,2.1,0,0,1-.29-1.5,2.59,2.59,0,0,1-2.64-.4,12.86,12.86,0,0,1-1-.88c0,.05,0,.11-.08.17a2.31,2.31,0,0,1-1.29,1,4.62,4.62,0,0,1-3,.29,6.22,6.22,0,0,1-1-.39l.06.12a2.29,2.29,0,0,1-.34,2.63,2,2,0,0,1-.82.51,1.69,1.69,0,0,1-.51,1.06l-.26.26c-.11.16-.21.33-.33.48a2.35,2.35,0,0,1-.7.63,3,3,0,0,1-.44.17,1.52,1.52,0,0,1-.7.15,2.2,2.2,0,0,1-.91-.24,1.57,1.57,0,0,1-.42-.35,6.16,6.16,0,0,1-3.23-.32l-.33-.13a2,2,0,0,1-1.16,1.24,2.15,2.15,0,0,1-2.68-.88c0-.06-.08-.18-.14-.29l-.1-.1c-.11-.13-.2-.24-.3-.38l-.19-.24,0-.06-.18-.17-.11-.11a2.31,2.31,0,0,1-.48-.51l-.07.08-.15.14a1.47,1.47,0,0,0-.11-.78,1.39,1.39,0,0,0-.91-.81,2,2,0,0,0-.85-.07,4.07,4.07,0,0,0-.61.08,1.81,1.81,0,0,0-.67.36,1.86,1.86,0,0,0-.42.42,2.11,2.11,0,0,1-.26-.35,2.84,2.84,0,0,1-.28-.71,1.82,1.82,0,0,1,0-1l-.09-.07L98,14.77a1.71,1.71,0,0,1-.26.89,2.22,2.22,0,0,1-.47.53,3.16,3.16,0,0,1-3.63.44,6.74,6.74,0,0,1-1.51-1,2.17,2.17,0,0,1-1.08,2.14,2.24,2.24,0,0,1-2.28,0A6.28,6.28,0,0,1,87.72,17a1.84,1.84,0,0,1-.17.38l-.19.24.15.14A1.66,1.66,0,0,1,88,19.11a2.52,2.52,0,0,1,1.58.65,2,2,0,0,1,.3,2.33,2.26,2.26,0,0,1-1.34,1.08l-.15.06-.22.17A2.09,2.09,0,0,0,87,22.31a4.2,4.2,0,0,0-1.73-.24,3.58,3.58,0,0,0-2,.56,2.27,2.27,0,0,0-.43.39,2.17,2.17,0,0,1-.31-.86,2,2,0,0,1,1.06-2.09l-.3-.15a2.12,2.12,0,0,1-.74-2.85,1.81,1.81,0,0,1,.78-.77.41.41,0,0,1,0-.11,1.63,1.63,0,0,1,0-.82l.21-.49.32-.41a1.74,1.74,0,0,1,.37-.3,6.58,6.58,0,0,0-2.71-1.66A1.34,1.34,0,0,1,80.68,14s0,0,0,.06v.1a.5.5,0,0,1,0,.13,2.12,2.12,0,0,1-.2,1.48,1.36,1.36,0,0,1-.37.45,1.37,1.37,0,0,0-.07-.34A1.69,1.69,0,0,0,78,14.75c-.54.18-1.08.35-1.61.55l-.57.24a2.18,2.18,0,0,1-.11-.27,2.09,2.09,0,0,1,.66-2.14l-.19-.06a2.22,2.22,0,0,1-1.47-1.54l-.21.09A1.66,1.66,0,0,1,74.11,13.15Zm46.13,3.2c.07-.15.13-.31.2-.46a5.05,5.05,0,0,1,.28-.51,2,2,0,0,1,3.59.25,1.87,1.87,0,0,1,.51.2,1.33,1.33,0,0,1,.47.44l.29,0a.92.92,0,0,1-.25,1.8h-.07l-.11.15a2.56,2.56,0,0,1,0,1A2.33,2.33,0,0,1,122.9,21a3.2,3.2,0,0,1-2.15-.8,3.47,3.47,0,0,1-.4-.46,1.22,1.22,0,0,0,1-.48A1.51,1.51,0,0,0,121,17c-.14-.09-.17-.1-.09,0s0,.08-.28-.2a1.83,1.83,0,0,0-.32-.14l-.21-.06a1.8,1.8,0,0,1,.08-.21ZM95.39,18.56a1.47,1.47,0,0,1,2,0,1.46,1.46,0,0,1,.16-.19,1.9,1.9,0,0,1,1-.58A1.58,1.58,0,0,0,99,19a2.27,2.27,0,0,0,.44.37,1.18,1.18,0,0,0,1.14.05,2,2,0,0,0,.77-.29h0l.07.08a7.69,7.69,0,0,1,.61.8,3.22,3.22,0,0,1,.35,1.29,1.82,1.82,0,0,1-.77,1.52,1.1,1.1,0,0,1-.35.83c-1.09,1-2.83.58-4.16.43a2.13,2.13,0,0,1-1.59-.8,1.89,1.89,0,0,1-.39-1.49,2,2,0,0,1,.42-1l-.19-.19A1.48,1.48,0,0,1,95.39,18.56Z" transform="translate(-1.92 -2.7)"/><path id="_Compound_Path_6" data-name="&lt;Compound Path&gt;" class="cls-7" d="M37.26,17.45a1.57,1.57,0,0,1,1.07,0A4.88,4.88,0,0,1,40.81,19a4.57,4.57,0,0,1,.28.76,1.25,1.25,0,0,1-.55,1.42,2.13,2.13,0,0,1-1.75.44,8.65,8.65,0,0,1-1.51-.33,2,2,0,0,1-1.39-2.44,3.06,3.06,0,0,1-1.28,0,1.87,1.87,0,0,1-.41-.09,2.48,2.48,0,0,1,.22,1.76,2,2,0,0,1-1.08,1.27,4.25,4.25,0,0,0,.52,3.44,4.73,4.73,0,0,0,.43.57,1.18,1.18,0,0,1,.07-.2,1.61,1.61,0,0,1,1.5-1H36a4.15,4.15,0,0,1,2.69.42,5.87,5.87,0,0,1,.93.49c.14.09.27.19.4.29A2.68,2.68,0,0,1,41,27a6.63,6.63,0,0,0,1.51-.86,8.08,8.08,0,0,0,1.59-1.61,1.56,1.56,0,0,1-1.46-2A3.2,3.2,0,0,1,43.93,21a6.28,6.28,0,0,1,1.12-.65c.42-.18.83-.35,1.26-.49a3.08,3.08,0,0,1,.79-.16A2,2,0,0,1,48,20a.8.8,0,0,1,.35.31,2.32,2.32,0,0,1,.3-1.1l.35-.45a2.14,2.14,0,0,1,1.27-.61,2.27,2.27,0,0,1,1.4.27,2.07,2.07,0,0,1,.87,1h0l-.06-.13c0,.08.09.16.14.24l.16.22a2.3,2.3,0,0,1,.9,2.85,2.46,2.46,0,0,1-.94,1.1,2.31,2.31,0,0,1-1.78.23,4.9,4.9,0,0,1-1.77-1.14,3.2,3.2,0,0,1-.73-1.21,1.43,1.43,0,0,1-.34.58,4.21,4.21,0,0,1-.64.47L47,23l-.08.06-.1.09h0a4.73,4.73,0,0,0,1.75,1.47A4.92,4.92,0,0,0,51.6,25a3.84,3.84,0,0,0,2.51,2.68,3.08,3.08,0,0,0,3.76-1.59,5.93,5.93,0,0,1-2.67-3.25,2.09,2.09,0,0,1,1.22-2.49,2.18,2.18,0,0,1,1.38-.11,2,2,0,0,1,.68.33,3.87,3.87,0,0,0,0-.48c.76-.13,1.52-.37,2.17-.52,1.8-.39,4.52-1.21,4.83-3.23a5.26,5.26,0,0,0,1.77-.12,3.08,3.08,0,0,1-.69-1.8,2.32,2.32,0,0,1,2.25-2.28c0-.05,0-.09,0-.14a2.09,2.09,0,0,1,0-.43,12.74,12.74,0,0,0-2.71,1.93,5.13,5.13,0,0,1-2.53,1.42c-1.18.12-2.15-.9-3.14-1.39a4.42,4.42,0,0,0-1.64-.43,1.39,1.39,0,0,1-1.36,1.25,1.31,1.31,0,0,1-1-.41,1.33,1.33,0,0,1-.27.26,2.27,2.27,0,0,1-.91.68,2.43,2.43,0,0,1-.84.18,2.15,2.15,0,0,1-.92,2.38c-1.89,1.13-4.09-.17-5-1.93a2.22,2.22,0,0,1-.16-1.72,11.64,11.64,0,0,0-.88.84l.11.11.6.7a4.25,4.25,0,0,1,.46.57,1.65,1.65,0,0,1,.19.9,1.25,1.25,0,0,1-.89,1.16,1.63,1.63,0,0,1-1.09,0,4.44,4.44,0,0,1-.49-.24l-.81-.43a1.6,1.6,0,0,1-.78-1.77,1.55,1.55,0,0,1-.23-.06l-.2-.06a2.46,2.46,0,0,1-1.24-.61l-.26-.2-.35-.28-.06.13a2.1,2.1,0,0,1,.37.42A1.75,1.75,0,0,1,43,16.18a1.3,1.3,0,0,1-.24.52,1.89,1.89,0,0,1-.36.54,1.93,1.93,0,0,1-1.41.59,3.16,3.16,0,0,1-1.35-.36,1.81,1.81,0,0,1-.84-1.08,2.27,2.27,0,0,1,0-1,1.42,1.42,0,0,1,.27-.55c-.12-.14-.23-.28-.34-.43a6.63,6.63,0,0,0-1.28,1.74l-.33.08a2.08,2.08,0,0,1,.22.82A1.55,1.55,0,0,1,37.26,17.45Zm20.58-2.64a1.49,1.49,0,0,1,.73-.67l-.08,0,.09,0,.35-.14-.29.12a2.36,2.36,0,0,1,.84-.21,2.06,2.06,0,0,1,1,.28,4.37,4.37,0,0,0,.43.22,1.57,1.57,0,0,1,.81.95,1.5,1.5,0,0,1-.41,2.1,2.15,2.15,0,0,1-.87.53,2.09,2.09,0,0,1-1.51-.19,2.48,2.48,0,0,1-1.07-.93A2.06,2.06,0,0,1,57.84,14.81Zm-1.11,4a1.18,1.18,0,0,1-.39-.38A2.79,2.79,0,0,1,56.73,18.86ZM44.19,16.73a1.39,1.39,0,1,1-1.39,1.39A1.4,1.4,0,0,1,44.19,16.73Z" transform="translate(-1.92 -2.7)"/><path id="_Path_31" data-name="&lt;Path&gt;" class="cls-7" d="M97.08,12.91a2.52,2.52,0,0,1,.28-1,7.54,7.54,0,0,0-1.82.37l.51.15A3.44,3.44,0,0,1,97.08,12.91Z" transform="translate(-1.92 -2.7)"/><path id="_Path_32" data-name="&lt;Path&gt;" class="cls-7" d="M111.76,14.7h0l-.36,0Z" transform="translate(-1.92 -2.7)"/><path id="_Path_33" data-name="&lt;Path&gt;" class="cls-7" d="M110.44,14.3l-.25.09.47.09h.1a4.23,4.23,0,0,1,1,.2h0l-.14-.06.14,0-.08-.13a1.59,1.59,0,0,1-.31-1l-.18.14A2,2,0,0,1,110.44,14.3Z" transform="translate(-1.92 -2.7)"/><path id="_Path_34" data-name="&lt;Path&gt;" class="cls-7" d="M107.06,13.53a1.76,1.76,0,0,1-.29-.58,7.71,7.71,0,0,0-2.1,1.21,2.22,2.22,0,0,1,.76.18A2.28,2.28,0,0,1,107.06,13.53Z" transform="translate(-1.92 -2.7)"/><path id="_Path_35" data-name="&lt;Path&gt;" class="cls-7" d="M126.86,12.85a2.37,2.37,0,0,1,2.89,0,2,2,0,0,1,.49-.06l-.14-.22a2,2,0,0,1-.06-2,6.07,6.07,0,0,0-3.31,2.08,2.72,2.72,0,0,1,0,.28Z" transform="translate(-1.92 -2.7)"/><path id="_Path_36" data-name="&lt;Path&gt;" class="cls-7" d="M111.8,14.7h0Z" transform="translate(-1.92 -2.7)"/><path id="_Path_37" data-name="&lt;Path&gt;" class="cls-7" d="M111.8,14.71h0l0,0Z" transform="translate(-1.92 -2.7)"/><path id="_Path_38" data-name="&lt;Path&gt;" class="cls-6" d="M32.81,16.75a1.83,1.83,0,0,0,.17.82l.12.07a3,3,0,0,1,.74.6,2.8,2.8,0,0,1,.36.49,1.87,1.87,0,0,0,.41.09,3.06,3.06,0,0,0,1.28,0,2,2,0,0,0,1.39,2.44,8.65,8.65,0,0,0,1.51.33,2.13,2.13,0,0,0,1.75-.44,1.25,1.25,0,0,0,.55-1.42,4.57,4.57,0,0,0-.28-.76,4.88,4.88,0,0,0-2.48-1.54,1.57,1.57,0,0,0-1.07,0,1.55,1.55,0,0,0,0-.37,2.08,2.08,0,0,0-.22-.82,1.82,1.82,0,0,0-.75-.78l-.07-.07a2.13,2.13,0,0,0-.93-.54,2.42,2.42,0,0,0-.93,0,1.74,1.74,0,0,0-1,.5A2,2,0,0,0,32.81,16.75Z" transform="translate(-1.92 -2.7)"/><path id="_Path_39" data-name="&lt;Path&gt;" class="cls-6" d="M41.17,15.69a1.89,1.89,0,0,1-1,0,1.86,1.86,0,0,1-.83-.49c-.11-.1-.21-.22-.31-.33a1.42,1.42,0,0,0-.27.55,2.27,2.27,0,0,0,0,1,1.81,1.81,0,0,0,.84,1.08,3.16,3.16,0,0,0,1.35.36,1.93,1.93,0,0,0,1.41-.59,1.89,1.89,0,0,0,.36-.54,1.3,1.3,0,0,0,.24-.52,1.75,1.75,0,0,0-.16-1.25,2.1,2.1,0,0,0-.37-.42,2.29,2.29,0,0,1-.42.7A2.14,2.14,0,0,1,41.17,15.69Z" transform="translate(-1.92 -2.7)"/><path id="_Path_40" data-name="&lt;Path&gt;" class="cls-6" d="M42.49,13.37a1.89,1.89,0,0,1,0,1h0l.35.29.26.2a2.46,2.46,0,0,0,1.24.61l.2.06a1.55,1.55,0,0,0,.23.06,1.6,1.6,0,0,0,.78,1.77l.81.43a4.44,4.44,0,0,0,.49.24,1.63,1.63,0,0,0,1.09,0,1.25,1.25,0,0,0,.89-1.16,1.65,1.65,0,0,0-.19-.9,4.25,4.25,0,0,0-.46-.57l-.6-.7-.11-.11a1.29,1.29,0,0,0-.62-.33,2,2,0,0,0,.08-.35,1.78,1.78,0,0,0-.23-1.22,3.21,3.21,0,0,1-.21-.3,2.24,2.24,0,0,0-.82-.89l-.27-.18-.65-.42a2.06,2.06,0,0,0-2.67.53,2.25,2.25,0,0,0-.39.79l.32.29A1.87,1.87,0,0,1,42.49,13.37Z" transform="translate(-1.92 -2.7)"/><path id="_Path_41" data-name="&lt;Path&gt;" class="cls-6" d="M44.19,19.51a1.39,1.39,0,1,0-1.39-1.39A1.41,1.41,0,0,0,44.19,19.51Z" transform="translate(-1.92 -2.7)"/><path id="_Path_42" data-name="&lt;Path&gt;" class="cls-6" d="M48.51,15.5c.93,1.76,3.13,3.06,5,1.93a2.15,2.15,0,0,0,.92-2.38,2.43,2.43,0,0,0,.84-.18,2.27,2.27,0,0,0,.91-.68,1.33,1.33,0,0,0,.27-.26,1.31,1.31,0,0,0,1,.41,1.39,1.39,0,0,0,1.36-1.25.48.48,0,0,0,0-.12,1.38,1.38,0,0,0-1.36-1.36,1.46,1.46,0,0,0-.93.36,2.72,2.72,0,0,0-1.94-1.45,11.62,11.62,0,0,0-2-.17,2.15,2.15,0,0,0-2.11,1.86,1.79,1.79,0,0,1,1.16.17,1.51,1.51,0,0,1,.62.68,1.14,1.14,0,0,1,.06,1.25,1.72,1.72,0,0,1-1,.95l-.12.06-.37.23a3,3,0,0,1-.45.19l-.19,0h0a1.42,1.42,0,0,1-1.78-1.35c.05.67,0-.09,0-.2a1.88,1.88,0,0,1,.22-.8,2.32,2.32,0,0,1,.44-.55,2.24,2.24,0,0,1,.43-.33,2.55,2.55,0,0,0-.39.24,2,2,0,0,0-.71,1A2.22,2.22,0,0,0,48.51,15.5Z" transform="translate(-1.92 -2.7)"/><path id="_Path_43" data-name="&lt;Path&gt;" class="cls-6" d="M48.52,21.36c0,.07-.05.15-.08.22a3.2,3.2,0,0,0,.73,1.21,4.9,4.9,0,0,0,1.77,1.14,2.31,2.31,0,0,0,1.78-.23,2.46,2.46,0,0,0,.94-1.1,2.3,2.3,0,0,0-.9-2.85l-.16-.22c-.05-.08-.1-.16-.14-.24l.06.13h0a2.07,2.07,0,0,0-.87-1,2.27,2.27,0,0,0-1.4-.27,2.14,2.14,0,0,0-1.27.61l-.35.45a2.32,2.32,0,0,0-.3,1.1A1.29,1.29,0,0,1,48.52,21.36Z" transform="translate(-1.92 -2.7)"/><path id="_Compound_Path_7" data-name="&lt;Compound Path&gt;" class="cls-6" d="M68.78,12.13a1.81,1.81,0,0,1,.61.1,3.58,3.58,0,0,1,1.67,1.25l-.18-.24a5.61,5.61,0,0,1,.66.95c.27,0,.55-.09.81-.13a2.65,2.65,0,0,0,1.43-.62,2.28,2.28,0,0,0,.33-.29,1.66,1.66,0,0,0,.43-1.53,1.63,1.63,0,0,0-.43-.78,1.81,1.81,0,0,0-.33-.29,2.66,2.66,0,0,0-1.43-.63,8.06,8.06,0,0,0-1-.13,3.07,3.07,0,0,0-1,.14,2.25,2.25,0,0,0-1.53,1.63,2.09,2.09,0,0,0,0,.43S68.78,12.08,68.78,12.13Zm4.66,1.5q-.41.12.06-.06Zm0-3.27.06.05C73.19,10.29,73.17,10.27,73.44,10.36Z" transform="translate(-1.92 -2.7)"/><path id="_Path_44" data-name="&lt;Path&gt;" class="cls-6" d="M76.22,13.07l.19.06a2.34,2.34,0,0,1,.31-.24,2.91,2.91,0,0,1,1.14-.42,3.91,3.91,0,0,1,1.27.07,2.05,2.05,0,0,1,1.16.8,1.79,1.79,0,0,1,.39.7,1.34,1.34,0,0,0,.91-1.53,1.23,1.23,0,0,0-.16-.5,2.9,2.9,0,0,0-1-1.07c-.28-.2-.57-.39-.86-.58L77.84,9.22a2.1,2.1,0,0,0-3,1,2,2,0,0,0-.11,1.3A2.22,2.22,0,0,0,76.22,13.07Z" transform="translate(-1.92 -2.7)"/><path id="_Path_45" data-name="&lt;Path&gt;" class="cls-6" d="M83.93,14.47l-.32.41-.21.49a1.63,1.63,0,0,0,0,.82.41.41,0,0,0,0,.11,1.81,1.81,0,0,0-.78.77,2.12,2.12,0,0,0,.74,2.85l.3.15a2.82,2.82,0,0,1,.46-.23,6.4,6.4,0,0,1,3.28-.73H88a1.66,1.66,0,0,0-.52-1.37l-.15-.14.19-.24a1.84,1.84,0,0,0,.17-.38,6.28,6.28,0,0,0,1.07.81,2.24,2.24,0,0,0,2.28,0,2.17,2.17,0,0,0,1.08-2.14,6.74,6.74,0,0,0,1.51,1,3.16,3.16,0,0,0,3.63-.44,2.22,2.22,0,0,0,.47-.53,1.71,1.71,0,0,0,.26-.89l.19.15.09.07a2.11,2.11,0,0,1,2.58-1.56,3.39,3.39,0,0,1,.71.28,2.76,2.76,0,0,1,.55.45,4.7,4.7,0,0,1,.45.55,1.77,1.77,0,0,1,.15.31l.17.28a2,2,0,0,1-.24,2.31,2.31,2.31,0,0,0,.48.51l.11.11.18.17,0,.06.19.24c.1.14.19.25.3.38l.1.1c.06.11.11.23.14.29a2.15,2.15,0,0,0,2.68.88,2,2,0,0,0,1.16-1.24l.33.13a6.16,6.16,0,0,0,3.23.32,2,2,0,0,1-.31-.51,1.6,1.6,0,0,1-.11-.4,2.29,2.29,0,0,1,.8-2.33,5.21,5.21,0,0,1,1.13-.76,2.1,2.1,0,0,1,1.43-.19,1.76,1.76,0,0,1,1,.66,1.88,1.88,0,0,1,.37,1.37,2,2,0,0,0,.82-.51,2.29,2.29,0,0,0,.34-2.63l-.06-.12a6.22,6.22,0,0,0,1,.39,4.62,4.62,0,0,0,3-.29,2.31,2.31,0,0,0,1.29-1c0-.06,0-.12.08-.17a12.86,12.86,0,0,0,1,.88,2.59,2.59,0,0,0,2.64.4,2.1,2.1,0,0,0,.29,1.5,5.62,5.62,0,0,0,2.84,2.22,2.31,2.31,0,0,0,1.53-.12,2.1,2.1,0,0,0,1.11-1,4.32,4.32,0,0,0,.23-.61,3.5,3.5,0,0,0,.32-1.27,2.63,2.63,0,0,0,1.43.36A2,2,0,0,0,135.65,14a3.91,3.91,0,0,0,0-1.23,2.44,2.44,0,0,0-.06-.26,3.74,3.74,0,0,0-.89-1.48,2.19,2.19,0,0,0-.63-.56l-.05,0-.56-.47a2.17,2.17,0,0,0-2.82-.17,2.22,2.22,0,0,0-.62.77,2,2,0,0,0,.06,2l.14.22a2,2,0,0,0-.49.06,2.37,2.37,0,0,0-2.89,0l-.12.09a2.72,2.72,0,0,0,0-.28,3.2,3.2,0,0,0-.59-1.51,20.78,20.78,0,0,0-1.69-1.94,2.18,2.18,0,0,0-3.06,0,2.21,2.21,0,0,0-.51.89,2.52,2.52,0,0,0-.55-.08h-.19a2.61,2.61,0,0,1-.27-.06,9.29,9.29,0,0,0-1.05-.21l.24,0a4.26,4.26,0,0,1-.69-.15l-.07,0-.14-.07a2.26,2.26,0,0,0-2.9.57,2.32,2.32,0,0,0-.45,1.63,2.18,2.18,0,0,0-2.56,0A1.79,1.79,0,0,0,112,12a1.48,1.48,0,0,1-.4,1.39l-.21.17a1.59,1.59,0,0,0,.31,1l.08.13-.14,0,.14.06h0l0,0-.38,0,.36,0a4.23,4.23,0,0,0-1-.2h-.1l-.47-.09a4.12,4.12,0,0,1-.86.1,3.4,3.4,0,0,1-1.78-.53,1.57,1.57,0,0,1-.49-.43,2.28,2.28,0,0,0-1.63.81,2.22,2.22,0,0,0-.76-.18,2.4,2.4,0,0,0-1,.13l-.12-.27a2.56,2.56,0,0,0-.69-1.24,7.18,7.18,0,0,0-1-.83l-1.37-1a2.34,2.34,0,0,0-1.76-.23,2.4,2.4,0,0,0-1.37,1l0,.08a2.52,2.52,0,0,0-.28,1,3.44,3.44,0,0,0-1-.52l-.51-.15-.32-.06.16,0q-.31,0-.63-.12a2.42,2.42,0,0,1,.27.56,1.8,1.8,0,0,1-.09,1.23A1.91,1.91,0,0,1,92.69,15l-.33-.06a2.2,2.2,0,0,1-1-.54L91,14a1.6,1.6,0,0,1-.41-.61l0,0-.89-.74-.13-.11a2.48,2.48,0,0,0-1.63-.67,2.33,2.33,0,0,0-1.62.67,2.49,2.49,0,0,0-.52.89,3.59,3.59,0,0,0-.12.47,1.46,1.46,0,0,0-.51,0,1.15,1.15,0,0,0-.26,0,.8.8,0,0,0-.25.11,1.48,1.48,0,0,0-.29.12A1.74,1.74,0,0,0,83.93,14.47Z" transform="translate(-1.92 -2.7)"/><path id="_Path_46" data-name="&lt;Path&gt;" class="cls-6" d="M99.32,20.15a1.59,1.59,0,0,1-2.25,2.25c-.48-.54-1-1.07-1.49-1.6a2,2,0,0,0-.42,1,1.89,1.89,0,0,0,.39,1.49,2.13,2.13,0,0,0,1.59.8c1.33.15,3.07.57,4.16-.43a1.1,1.1,0,0,0,.35-.83,1.82,1.82,0,0,0,.77-1.52,3.22,3.22,0,0,0-.35-1.29,7.69,7.69,0,0,0-.61-.8l-.07-.08h0a2,2,0,0,1-.77.29,1.18,1.18,0,0,1-1.14-.05A2.27,2.27,0,0,1,99,19a1.58,1.58,0,0,1-.43-1.23,1.9,1.9,0,0,0-1,.58,1.46,1.46,0,0,0-.16.19l0,0C98.06,19.1,98.68,19.64,99.32,20.15Z" transform="translate(-1.92 -2.7)"/><path id="_Path_47" data-name="&lt;Path&gt;" class="cls-6" d="M114.78,22.76a1.61,1.61,0,0,1,.56-.19,1.33,1.33,0,0,1,1.32.55A2.88,2.88,0,0,1,118,24a2.19,2.19,0,0,1,.52.63.93.93,0,0,0,.18-.16,2.61,2.61,0,0,0,.57-1,2.35,2.35,0,0,0-.23-1.7,3.39,3.39,0,0,0-.9-1.29l-.86-.73a2.17,2.17,0,0,0-2.82-.17,2.14,2.14,0,0,0-.56,2.77l.22.37Z" transform="translate(-1.92 -2.7)"/><path id="_Path_48" data-name="&lt;Path&gt;" class="cls-6" d="M120.35,16.66a2.25,2.25,0,0,1,1.22-.81,6.53,6.53,0,0,1,.77-.14,4.86,4.86,0,0,1,2-.08,2,2,0,0,0-3.59-.25,5.05,5.05,0,0,0-.28.51c-.07.15-.13.31-.2.46l0,0a1.8,1.8,0,0,0-.08.21Z" transform="translate(-1.92 -2.7)"/><path id="_Path_49" data-name="&lt;Path&gt;" class="cls-6" d="M123.2,19.11a4.16,4.16,0,0,1-1.81.13,1.22,1.22,0,0,1-1,.48,3.47,3.47,0,0,0,.4.46,3.2,3.2,0,0,0,2.15.8,2.33,2.33,0,0,0,2.23-1.7,2.56,2.56,0,0,0,0-1h0A3.37,3.37,0,0,1,123.2,19.11Z" transform="translate(-1.92 -2.7)"/><path id="_Path_50" data-name="&lt;Path&gt;" class="cls-6" d="M141.14,15.79a.86.86,0,0,1-.39,0h-.12c-.18,0-.2,0,0,0-.17,0-.42-.07-.51-.1a3.62,3.62,0,0,1-.88-.44,3.33,3.33,0,0,1-.88-.83,2.31,2.31,0,0,0-1.23.13,2.06,2.06,0,0,0-1.27,1.89,8.78,8.78,0,0,0,.11,1.15v.15a4.57,4.57,0,0,0,.12.74h-.65a1.94,1.94,0,0,0-1.91,1.91,2.06,2.06,0,0,0,.78,1.53,2.34,2.34,0,0,1-.09-.54,2,2,0,0,1,2-2l1.84.2a5.35,5.35,0,0,1,1.2.18l.19.06a3.32,3.32,0,0,0,.91-1.67c.24.31.5.6.76.9a1.73,1.73,0,0,0,.23.21,2,2,0,0,0-.06.85,1.86,1.86,0,0,0,.57,1.2c.15.12.29.23.44.33a2.2,2.2,0,0,1,1-.6,2.38,2.38,0,0,1,2.17.53,2,2,0,0,0,.48-.59l.2-.27a2,2,0,0,0,.18-.4c.14.1.3.19.45.28a2,2,0,0,0,2.24-.16,2.06,2.06,0,0,0,.75-1.19,1.91,1.91,0,0,0,.05-.54,2,2,0,0,0,.14.25,1.78,1.78,0,0,0,1.15.79c.21,0,.43.14.64.18a2.07,2.07,0,0,1,.25.15l.27.16.37.16a2.79,2.79,0,0,0,.28.16h0a2,2,0,0,0,2.55.12,2,2,0,0,0,.76-1.54,2.11,2.11,0,0,0-.2-.91,1,1,0,0,1-.69.36,1.82,1.82,0,0,1-1.31-.19c-.12-.09-.24-.18-.35-.28l.13.1c-.12-.14-.31-.22-.43-.36a5.67,5.67,0,0,1-.5-.68,2.05,2.05,0,0,1-.22-.5,1.07,1.07,0,0,1,0-.56c0-.28,0-.25,0,.07a1.09,1.09,0,0,1,.1-.5,8.73,8.73,0,0,0-1.06-.15,2.12,2.12,0,0,0-2.11,2.29,2.89,2.89,0,0,0-.38-.69c-.26-.37-.55-.72-.83-1.07a2.19,2.19,0,0,0-1.57-.65,2.23,2.23,0,0,0-1.56.65,2.58,2.58,0,0,0-.41.57,6,6,0,0,0-1-1.54,7.9,7.9,0,0,0-.76-.77A2.05,2.05,0,0,1,141.14,15.79Z" transform="translate(-1.92 -2.7)"/><path id="_Path_51" data-name="&lt;Path&gt;" class="cls-6" d="M67.35,35.4a3.9,3.9,0,0,0,.92.5,2.27,2.27,0,0,0,2.79-.64,1.57,1.57,0,0,0,0-1.57,3.48,3.48,0,0,0-.58-.69c-.26-.25-.55-.39-.82-.61.35.24.29.19-.17-.15a2.41,2.41,0,0,0-.33-.15,5.34,5.34,0,0,0-.52-.18,1.75,1.75,0,0,0-1.71.46,1.7,1.7,0,0,0-.45,1.71A2.74,2.74,0,0,0,67.35,35.4Z" transform="translate(-1.92 -2.7)"/><path id="_Path_52" data-name="&lt;Path&gt;" class="cls-6" d="M74.51,27.68a2.13,2.13,0,0,1-1.5,2l0,0h0a3,3,0,0,0-.48.22h0a6,6,0,0,1-.74.09l-.34,0a1.93,1.93,0,0,0-.26,1,1.91,1.91,0,0,0,.94,1.63,1.85,1.85,0,0,0,1,.25,1.88,1.88,0,0,0,.95-.25l.2-.11a1.66,1.66,0,0,0,.44-.35,3.48,3.48,0,0,0,.66.36,1.78,1.78,0,0,0,2-.07,2,2,0,0,0,.32-1.81,3.37,3.37,0,0,0-.31-1,6.15,6.15,0,0,0-.65-.82l-1.89-2.36a1.63,1.63,0,0,0-1.46-.53A2.06,2.06,0,0,1,74.51,27.68Z" transform="translate(-1.92 -2.7)"/><path id="_Path_53" data-name="&lt;Path&gt;" class="cls-6" d="M87,33.5a1.84,1.84,0,0,1-.09-.25c-.55-.23-1.14-.42-1.69-.63a1.91,1.91,0,0,0-2.24.93A9,9,0,0,0,81,32.74a2.14,2.14,0,0,0-2.42,3.14,2.55,2.55,0,0,0,1.28,1,8.8,8.8,0,0,0,2.32.54,1.92,1.92,0,0,0,1.7-1,2.09,2.09,0,0,0,.72.13,11.1,11.1,0,0,0,3-.21,1.37,1.37,0,0,0,.93-1.69,3.4,3.4,0,0,1-.46-.09A1.84,1.84,0,0,1,87,33.5Z" transform="translate(-1.92 -2.7)"/><path id="_Compound_Path_8" data-name="&lt;Compound Path&gt;" class="cls-6" d="M104.3,40.08a2.62,2.62,0,0,0,1.21,0,4.37,4.37,0,0,0,.92-.34l.16-.12a4.24,4.24,0,0,0,2.32-1.53,1.63,1.63,0,0,0-.25-1.91c-.78-.85-2.26-.78-3.26-.52-.15,0-.7.15-.06,0a3.27,3.27,0,0,0-1.33.44,2.74,2.74,0,0,0-1.22,1.36A1.76,1.76,0,0,0,104.3,40.08Zm2.36-.53,0,0C107,39.3,107,39.29,106.66,39.55Z" transform="translate(-1.92 -2.7)"/><path id="_Path_54" data-name="&lt;Path&gt;" class="cls-6" d="M138.62,31.23a5.29,5.29,0,0,0-1.84.41c-1.24.52-2.77,1.12-3.21,2.52a2,2,0,0,0,.91,2.22,6,6,0,0,0,.58.25,2.45,2.45,0,0,0,1.11,0,5.78,5.78,0,0,0,.69-.17,11.11,11.11,0,0,0,1.63-.7,9.51,9.51,0,0,0,1-.65,3.85,3.85,0,0,0,.67-.47,4.44,4.44,0,0,0,.42-.55,1.69,1.69,0,0,0,0-1.76A2.39,2.39,0,0,0,138.62,31.23Z" transform="translate(-1.92 -2.7)"/><path id="_Path_55" data-name="&lt;Path&gt;" class="cls-5" d="M104.6,28l.14.15a4.83,4.83,0,0,0,1.84,1.16.6.6,0,0,0,.44.44,5.13,5.13,0,0,1,.87.26,1,1,0,0,0,.64-.05,4.25,4.25,0,0,0,.77.76,7.4,7.4,0,0,0,1.33.9,6.92,6.92,0,0,0,1.54.56,1.64,1.64,0,0,0,2-1.06,1.48,1.48,0,0,0,0-.55,3.82,3.82,0,0,1-2.34.33,2,2,0,0,1-1.42-3.43,1.88,1.88,0,0,1,.4-.31l-.22-.09a2,2,0,0,0-1.55.13,1.59,1.59,0,0,0-.25-.33c-.1-.1-.18-.22-.28-.31a2.09,2.09,0,0,0-.45-.33c-.13-.08-.78-.29-.43-.19s0,0-.07,0l-.21-.13-.1-.07-.09-.07a1.78,1.78,0,0,0-2.21-.2,1.43,1.43,0,0,0-.23.2h0l.12.23A2.09,2.09,0,0,1,104.6,28Z" transform="translate(-1.92 -2.7)"/><path id="_Path_56" data-name="&lt;Path&gt;" class="cls-5" d="M107.63,25.93a4.77,4.77,0,0,0,1.32.54.78.78,0,0,0,.75-1.29,3.38,3.38,0,0,1-.47-.62l-.09-.14c-.09-.14-.19-.27-.27-.41s-.1-.16-.14-.24-.16-.35-.06-.11a1.32,1.32,0,0,0-.89-.89,1.39,1.39,0,0,0-1,.13,1.32,1.32,0,0,0-.59.76,1.36,1.36,0,0,0,.33,1.25l.28.33A4.78,4.78,0,0,0,107.63,25.93Z" transform="translate(-1.92 -2.7)"/><path id="_Path_57" data-name="&lt;Path&gt;" class="cls-5" d="M110.65,25.9a2.55,2.55,0,0,0,1.21,1,3.11,3.11,0,0,1,3,.86,3.75,3.75,0,0,0,2.66-.34,2,2,0,0,0,1.3-1.6,1.87,1.87,0,0,0-.22-1.18A2.19,2.19,0,0,0,118,24a2.88,2.88,0,0,0-1.37-.89,1.33,1.33,0,0,0-1.32-.55,1.61,1.61,0,0,0-.56.19h-1a2.39,2.39,0,0,0-1.88,1,2.45,2.45,0,0,0-.37.84A.89.89,0,0,0,110.65,25.9Z" transform="translate(-1.92 -2.7)"/><path id="_Path_58" data-name="&lt;Path&gt;" class="cls-5" d="M129,27.69a3.06,3.06,0,0,0,.37.35,2.28,2.28,0,0,0,2.51.22,1.93,1.93,0,0,0,.84-2.08,1.67,1.67,0,0,0-.27-.57l0,0,0,.11s0-.07,0-.11a9.45,9.45,0,0,1-1.08.49,1.52,1.52,0,0,1-1.22-.14V26A1.79,1.79,0,0,1,129,27.69Z" transform="translate(-1.92 -2.7)"/><path id="_Compound_Path_9" data-name="&lt;Compound Path&gt;" class="cls-5" d="M135.5,26.23a2.11,2.11,0,0,0-.26.35c0,.05,0,0,0,0s.06-.1,0,0l-.05,0-.25.2a3.06,3.06,0,0,0-.52.62,1.1,1.1,0,0,0,.28,1.44,1.12,1.12,0,0,0,1.42,0,3.59,3.59,0,0,0,.41.11h0a2.67,2.67,0,0,0,.36.14c.32.1.63.22.94.33a1.31,1.31,0,0,0,.59.07,2.4,2.4,0,0,1,0-1.16,2.11,2.11,0,0,1,.79-1.15,2.19,2.19,0,0,1,.73-.37v0a2.5,2.5,0,0,0-1.19-.85,3.6,3.6,0,0,0-2-.22,3.1,3.1,0,0,0-.52.15l0,0A2.31,2.31,0,0,0,135.5,26.23Zm0,2.18.31.25a.05.05,0,0,1,0,0A.85.85,0,0,1,135.5,28.41Z" transform="translate(-1.92 -2.7)"/><path id="_Path_59" data-name="&lt;Path&gt;" class="cls-5" d="M141.57,26.78l.23.08.38.18a2,2,0,0,0,1.65-.2,5,5,0,0,0,.52-.38,4.8,4.8,0,0,0,.92.42,2.06,2.06,0,0,0,2-.55l.08.17a5,5,0,0,0,1.6,1.7,1.91,1.91,0,0,1,.14-.52,1.88,1.88,0,0,1,2.23-1.1,6.61,6.61,0,0,0,.76.22l.11,0h.21a7.86,7.86,0,0,1,1.19.11,3.29,3.29,0,0,1,.44.16l0,0s0-.08,0-.12a1.28,1.28,0,0,0-.47-1.37,2.09,2.09,0,0,0-1.12-.78,3.4,3.4,0,0,0-.46-.06,6.17,6.17,0,0,0-.74-.19l-.21-.13-.07-.07h0a2.58,2.58,0,0,0-.58-.61,2.05,2.05,0,0,0-2.33-.15,2.4,2.4,0,0,0-.42.34l0,0,0,0a.6.6,0,0,0-.06-.11,9.64,9.64,0,0,0-2.18-2.19l-.08-.07a2.38,2.38,0,0,0-2.17-.53,2.2,2.2,0,0,0-1,.6,2.28,2.28,0,0,0-.4.56,1.76,1.76,0,0,1,.18,1.25,1.55,1.55,0,0,1-1.11,1.1h0l-.26.08A2.24,2.24,0,0,0,141,26.2a1.48,1.48,0,0,0,.26.3A1.93,1.93,0,0,0,141.57,26.78Z" transform="translate(-1.92 -2.7)"/><path id="_Path_60" data-name="&lt;Path&gt;" class="cls-5" d="M60.88,26.38a1.91,1.91,0,0,0,1.36-1.58,1.79,1.79,0,0,0,0-.4h-.11l-.27,0-.31,0h0l-.37-.06A1.54,1.54,0,0,1,60.1,23a1.5,1.5,0,0,1,.07-.71L59.7,22l-.11-.07a3.07,3.07,0,0,1-.26-.25v0h0a2.55,2.55,0,0,1-.25-.46,1.83,1.83,0,0,0-.58-.64,2,2,0,0,0-.68-.33,2.18,2.18,0,0,0-1.38.11,2.09,2.09,0,0,0-1.22,2.49,5.93,5.93,0,0,0,2.67,3.25A3.77,3.77,0,0,0,60.88,26.38Z" transform="translate(-1.92 -2.7)"/><path id="_Path_61" data-name="&lt;Path&gt;" class="cls-5" d="M48.45,27.74c-.07-.39-.19-.74-.27-1.14s-.11-.77-.17-1.15a1.92,1.92,0,0,0-.89-1.16A2,2,0,0,0,44.2,26l-.08.63c0,.06,0,.15,0,.23a.14.14,0,0,0,0,.07l-.06.22a3.63,3.63,0,0,0-.15.67,1.73,1.73,0,0,0,0,.93l.16.41a2,2,0,0,0,.45.69,2.31,2.31,0,0,0,2.27.54,2.4,2.4,0,0,0,1.73-2.21.09.09,0,0,1,0,0C48.47,28,48.46,27.86,48.45,27.74Z" transform="translate(-1.92 -2.7)"/><path id="_Path_62" data-name="&lt;Path&gt;" class="cls-5" d="M60.32,30.58a1.68,1.68,0,0,0,.39-.07l.16,0a2.06,2.06,0,0,0,.48-.21,1.69,1.69,0,0,0,.76-1.86,2,2,0,0,0-.33-.67,1.42,1.42,0,0,0-.29-.31l-.07-.09A1.4,1.4,0,0,0,60.8,27a3,3,0,0,0-.45-.18,4.27,4.27,0,0,0-2,0,2,2,0,0,0-1.19.91A2.05,2.05,0,0,0,57,29.2a2,2,0,0,0,1.15,1.28,2.11,2.11,0,0,1,1-.26A2,2,0,0,1,60.32,30.58Z" transform="translate(-1.92 -2.7)"/><path id="_Path_63" data-name="&lt;Path&gt;" class="cls-5" d="M89.74,27.39A4.65,4.65,0,0,0,91,28.88a4.15,4.15,0,0,0,1.15.58,2.48,2.48,0,0,0,1,.19,2.09,2.09,0,0,0,1.74-1,2,2,0,0,0,.26-1.25,1.85,1.85,0,0,0-.26-.79,6.05,6.05,0,0,0-.55-.68l-.3-.4.08.11a3.37,3.37,0,0,1-.36-.61,2.13,2.13,0,0,0-.83-.83,2.37,2.37,0,0,0-.56-.23l0,0a2.48,2.48,0,0,0-1.56.15l-.18.1A2.39,2.39,0,0,0,89.74,27.39Z" transform="translate(-1.92 -2.7)"/><path id="_Path_64" data-name="&lt;Path&gt;" class="cls-5" d="M158.25,19.81a2.32,2.32,0,0,0-.51.16c-.32.14-.33.13,0,0l-.27,0a1.86,1.86,0,0,0-1.37,1.79,1.93,1.93,0,0,0,.14.65,2,2,0,0,0,1.23,1.15l.27.09.26.11.4.07a5.11,5.11,0,0,0,1.35.07,4.28,4.28,0,0,0,3-1.13,2.24,2.24,0,0,0,.58-1.91,1.94,1.94,0,0,0-.14-.45,2.16,2.16,0,0,0-2-1.33,4.2,4.2,0,0,0-.87.07,3.7,3.7,0,0,0-.62.26l-.18.06-.42.13-.69.16h0Z" transform="translate(-1.92 -2.7)"/><path id="_Path_65" data-name="&lt;Path&gt;" class="cls-5" d="M119.46,33.78a2.51,2.51,0,0,0,4,.51,2.23,2.23,0,0,0,.26-.27,3.22,3.22,0,0,0,.52-.78,3,3,0,0,0,.45-.94,2.19,2.19,0,0,0-.78-2.29h0a1.82,1.82,0,0,1-.5-.12,3.05,3.05,0,0,1-.61-.27l-.07-.05a2.5,2.5,0,0,0-.85.12l-.37.16-.24.16-.24.09a2.54,2.54,0,0,0-1.76,1.75.36.36,0,0,1,0,.1A2.63,2.63,0,0,0,119.46,33.78Z" transform="translate(-1.92 -2.7)"/><path id="_Path_66" data-name="&lt;Path&gt;" class="cls-8" d="M37.08,28.07a4.47,4.47,0,0,1,1.89-1,3.1,3.1,0,0,1,2.16.19.88.88,0,0,0-.05-.15c0-.06,0-.11-.07-.16a2.68,2.68,0,0,0-1-1.23c-.13-.1-.26-.2-.4-.29a5.87,5.87,0,0,0-.93-.49A4.15,4.15,0,0,0,36,24.56h-.17a1.61,1.61,0,0,0-1.5,1,1.18,1.18,0,0,0-.07.2,1.67,1.67,0,0,0,.38,1.56,1.79,1.79,0,0,0,.22.34l0,0a1.74,1.74,0,0,0,.38.47,2,2,0,0,0,.21.19,4.78,4.78,0,0,0,1,.65l.2.1A1.35,1.35,0,0,1,37.08,28.07Z" transform="translate(-1.92 -2.7)"/><path id="_Path_67" data-name="&lt;Path&gt;" class="cls-8" d="M68.3,29a1.91,1.91,0,0,0,.58.47,4.26,4.26,0,0,0,2.24.52l.37,0,.34,0a6,6,0,0,0,.74-.09,3,3,0,0,1,.48-.22l0,0a2.13,2.13,0,0,0,1.5-2,2.06,2.06,0,0,0-1.13-1.78,2.53,2.53,0,0,0-.37-.18l.24.09a3.39,3.39,0,0,0-.39-.18,3,3,0,0,0-1-.2l-.79-.06a3.47,3.47,0,0,0-1.32.15,4.91,4.91,0,0,0-.92.37A2.13,2.13,0,0,0,68.3,29Z" transform="translate(-1.92 -2.7)"/><path id="_Path_68" data-name="&lt;Path&gt;" class="cls-8" d="M73.05,29.63Z" transform="translate(-1.92 -2.7)"/><path id="_Path_69" data-name="&lt;Path&gt;" class="cls-9" d="M87.38,19.11a6.4,6.4,0,0,0-3.28.73,2.82,2.82,0,0,0-.46.23,2,2,0,0,0-1.06,2.09,2.17,2.17,0,0,0,.31.86,2.27,2.27,0,0,1,.43-.39,3.58,3.58,0,0,1,2-.56,4.2,4.2,0,0,1,1.73.24A2.09,2.09,0,0,1,88.2,23.4l.22-.17.15-.06a2.26,2.26,0,0,0,1.34-1.08,2,2,0,0,0-.3-2.33A2.52,2.52,0,0,0,88,19.11h-.65Z" transform="translate(-1.92 -2.7)"/><path id="_Path_70" data-name="&lt;Path&gt;" class="cls-9" d="M111.86,26.9h0a2.5,2.5,0,0,0-1,.28,1.88,1.88,0,0,0-.4.31,2,2,0,0,0,1.42,3.43,3.82,3.82,0,0,0,2.34-.33,2.28,2.28,0,0,0,.77-.75.78.78,0,0,0,.12-.22A1.84,1.84,0,0,0,115,28l-.15-.21A3.11,3.11,0,0,0,111.86,26.9Z" transform="translate(-1.92 -2.7)"/><path id="_Path_71" data-name="&lt;Path&gt;" class="cls-8" d="M126.08,28.17a9.65,9.65,0,0,0,2.63-.36l.25-.12a1.79,1.79,0,0,0,1.1-1.66V26a.93.93,0,0,1-.34-.27,2.7,2.7,0,0,1-.3-.45h0a2.24,2.24,0,0,1-1.25-.25,1.89,1.89,0,0,1-.76-.82c-.35,0-.69.06-1,.11l-.29,0a2.09,2.09,0,0,0-1.36.57h0a2,2,0,0,0-.55,1.35,2,2,0,0,0,.2.79,2.15,2.15,0,0,1,.71.42,3.45,3.45,0,0,1,.35.5,1.09,1.09,0,0,1,.08.15A1.4,1.4,0,0,0,126.08,28.17Z" transform="translate(-1.92 -2.7)"/><path id="_Path_72" data-name="&lt;Path&gt;" class="cls-9" d="M138,19.56l-1.84-.2a2,2,0,0,0-2,2,2.34,2.34,0,0,0,.09.54,2,2,0,0,0,1.86,1.41l1.17.06a.76.76,0,0,1,.06-.2,2.12,2.12,0,0,1,1-1.19,3.38,3.38,0,0,1,.8-.36,3.46,3.46,0,0,1,1.72-.11,1.3,1.3,0,0,0-.44-1,3.91,3.91,0,0,0-1-.7l-.19-.06A5.35,5.35,0,0,0,138,19.56Z" transform="translate(-1.92 -2.7)"/><path id="_Path_73" data-name="&lt;Path&gt;" class="cls-8" d="M153.61,27a7.86,7.86,0,0,0-1.19-.11h-.21l-.11,0a6.61,6.61,0,0,1-.76-.22,1.88,1.88,0,0,0-2.23,1.1,1.91,1.91,0,0,0-.14.52,1.87,1.87,0,0,0,.91,1.84,7.16,7.16,0,0,0,2.59.92,2,2,0,0,1-.09-.35,1.35,1.35,0,0,1,.15-.79,1.68,1.68,0,0,1,.3-.4,1.07,1.07,0,0,1,.32-.23,1.71,1.71,0,0,1,1.93-.19,1.2,1.2,0,0,1,.26.18,1.71,1.71,0,0,0-.52-1.58,3.71,3.71,0,0,0-.64-.42l-.13-.07A3.29,3.29,0,0,0,153.61,27Z" transform="translate(-1.92 -2.7)"/><path id="_Path_74" data-name="&lt;Path&gt;" class="cls-8" d="M115.52,16a1.76,1.76,0,0,0-1-.66,2.1,2.1,0,0,0-1.43.19,5.21,5.21,0,0,0-1.13.76,2.29,2.29,0,0,0-.8,2.33,1.6,1.6,0,0,0,.11.4,2,2,0,0,0,.31.51,1.57,1.57,0,0,0,.42.35,2.2,2.2,0,0,0,.91.24,1.52,1.52,0,0,0,.7-.15,3,3,0,0,0,.44-.17,2.35,2.35,0,0,0,.7-.63c.12-.15.22-.32.33-.48l.26-.26a1.69,1.69,0,0,0,.51-1.06A1.88,1.88,0,0,0,115.52,16Z" transform="translate(-1.92 -2.7)"/><path id="_Path_75" data-name="&lt;Path&gt;" class="cls-8" d="M92,32.87a2.09,2.09,0,0,0-.1-1.33,2.06,2.06,0,0,0-1.58-1.23h0a1.07,1.07,0,0,0-.25,0,3.06,3.06,0,0,0-1.34.3,4,4,0,0,0-.77.39l-.33.25a2.49,2.49,0,0,0-.42.44l-.13.17a1.65,1.65,0,0,0-.18,1.42,2,2,0,0,0,1.3,1.33,3.4,3.4,0,0,0,.46.09,3.65,3.65,0,0,0,1.28-.12,3.25,3.25,0,0,0,.42-.11,3,3,0,0,0,1.14-.66h0A1.88,1.88,0,0,0,92,32.87Z" transform="translate(-1.92 -2.7)"/><path id="_Path_76" data-name="&lt;Path&gt;" class="cls-8" d="M58.93,17.79a2.09,2.09,0,0,0,1.51.19,2.15,2.15,0,0,0,.87-.53,1.5,1.5,0,0,0,.41-2.1,1.57,1.57,0,0,0-.81-.95,4.37,4.37,0,0,1-.43-.22,2.06,2.06,0,0,0-1-.28,2.36,2.36,0,0,0-.84.21l.29-.12-.35.14-.09,0,.08,0a1.49,1.49,0,0,0-.73.67,2.06,2.06,0,0,0,0,2A2.48,2.48,0,0,0,58.93,17.79Z" transform="translate(-1.92 -2.7)"/><path id="_Path_77" data-name="&lt;Path&gt;" class="cls-8" d="M90.55,13.4A1.6,1.6,0,0,0,91,14l.45.36a2.2,2.2,0,0,0,1,.54l.33.06a1.91,1.91,0,0,0,2.24-1.1A1.8,1.8,0,0,0,95,12.64a2.42,2.42,0,0,0-.27-.56,2.55,2.55,0,0,0-.6-.58h0a2,2,0,0,0-.9-.44L92.72,11a2.07,2.07,0,0,0-1.18.09,1.77,1.77,0,0,0-.87.75,2.06,2.06,0,0,0-.24.91h0A2,2,0,0,0,90.55,13.4Z" transform="translate(-1.92 -2.7)"/><path id="_Path_78" data-name="&lt;Path&gt;" class="cls-8" d="M107.55,14a3.4,3.4,0,0,0,1.78.53,4.12,4.12,0,0,0,.86-.1l.25-.09a2,2,0,0,0,.77-.58l.18-.14.21-.17A1.48,1.48,0,0,0,112,12a2.45,2.45,0,0,0-.08-.29,1.57,1.57,0,0,0-1.29-.94,2,2,0,0,0-.42-.18,2.4,2.4,0,0,0-.88,0,10.84,10.84,0,0,0-1.37.22,1.73,1.73,0,0,0-1.24,1.44,1.92,1.92,0,0,0,0,.72,1.76,1.76,0,0,0,.29.58A1.57,1.57,0,0,0,107.55,14Z" transform="translate(-1.92 -2.7)"/><path id="_Path_79" data-name="&lt;Path&gt;" class="cls-8" d="M39.34,15.2a1.86,1.86,0,0,0,.83.49,1.89,1.89,0,0,0,1,0,2.14,2.14,0,0,0,.84-.48,2.29,2.29,0,0,0,.42-.7l.06-.13h0A1.89,1.89,0,0,0,42,12.54l-.32-.29c-.24-.21-.5-.4-.75-.6l-.44-.18a1.26,1.26,0,0,0-.72,0,1.69,1.69,0,0,0-1,.49,2.21,2.21,0,0,0-.47.81,1.78,1.78,0,0,0,.18,1.39l.24.31c.11.15.22.29.34.43S39.23,15.1,39.34,15.2Z" transform="translate(-1.92 -2.7)"/><path id="_Path_80" data-name="&lt;Path&gt;" class="cls-8" d="M138.31,14.37a3.33,3.33,0,0,0,.88.83,3.62,3.62,0,0,0,.88.44c.09,0,.34.07.51.1-.15,0-.13,0,0,0h.12a.86.86,0,0,0,.39,0A2.05,2.05,0,0,0,143,14.31a1.69,1.69,0,0,0-.22-1.38,5.78,5.78,0,0,0-.37-.51c.19.29.18.29,0,0a1.09,1.09,0,0,0-.37-.37,3.71,3.71,0,0,0-1.09-.59,5.05,5.05,0,0,0-1.6-.19,1.68,1.68,0,0,0-1.43,2.51l.27.38.05.07A1.47,1.47,0,0,0,138.31,14.37Z" transform="translate(-1.92 -2.7)"/><path id="_Path_81" data-name="&lt;Path&gt;" class="cls-9" d="M67.71,16.69a2.61,2.61,0,0,0,2.42.63,2.1,2.1,0,0,0,1.37-.75,2.14,2.14,0,0,0,.13-.19A1.87,1.87,0,0,0,71.76,15a1.81,1.81,0,0,0-.22-.78,5.61,5.61,0,0,0-.66-.95l.18.24a3.58,3.58,0,0,0-1.67-1.25,1.81,1.81,0,0,0-.61-.1,2.32,2.32,0,0,0-2.25,2.28,3.08,3.08,0,0,0,.69,1.8A3.19,3.19,0,0,0,67.71,16.69Z" transform="translate(-1.92 -2.7)"/><path id="_Path_82" data-name="&lt;Path&gt;" class="cls-10" d="M122.34,15.71a6.53,6.53,0,0,0-.77.14,2.25,2.25,0,0,0-1.22.81,1.83,1.83,0,0,1,.32.14c.31.28.4.35.28.2s0-.07.09,0a1.51,1.51,0,0,1,.35,2.22,4.16,4.16,0,0,0,1.81-.13,3.37,3.37,0,0,0,1.94-.85h0l.11-.15h.07a.92.92,0,0,0,.25-1.8l-.29,0a1.33,1.33,0,0,0-.47-.44,1.87,1.87,0,0,0-.51-.2A4.86,4.86,0,0,0,122.34,15.71Z" transform="translate(-1.92 -2.7)"/><path id="_Path_83" data-name="&lt;Path&gt;" class="cls-10" d="M95.58,20.8c.5.53,1,1.06,1.49,1.6a1.59,1.59,0,0,0,2.25-2.25c-.64-.51-1.26-1-1.88-1.59l0,0a1.44,1.44,0,0,0-2,2.08Z" transform="translate(-1.92 -2.7)"/><path id="_Path_84" data-name="&lt;Path&gt;" class="cls-10" d="M60.83,21.48a1.89,1.89,0,0,0-.66.81,1.5,1.5,0,0,0-.07.71,1.54,1.54,0,0,0,1.09,1.27l.37.06.31,0,.27,0h.11l.28,0a1.39,1.39,0,0,0,1.38-.3,1,1,0,0,0,.33-.56,1.59,1.59,0,0,0-.42-1.44,2.83,2.83,0,0,0-.4-.37,3.64,3.64,0,0,0-.42-.3,1.65,1.65,0,0,0-1-.26A2.1,2.1,0,0,0,60.83,21.48Z" transform="translate(-1.92 -2.7)"/><path id="_Path_85" data-name="&lt;Path&gt;" class="cls-10" d="M45.2,24.21a5,5,0,0,0,.49-.31c.37-.26.75-.49,1.1-.77h0l.1-.09L47,23l.47-.34a4.21,4.21,0,0,0,.64-.47,1.43,1.43,0,0,0,.34-.58c0-.07.05-.15.08-.22a1.29,1.29,0,0,0-.2-1A.8.8,0,0,0,48,20a2,2,0,0,0-.87-.27,3.08,3.08,0,0,0-.79.16c-.43.14-.84.31-1.26.49a6.28,6.28,0,0,0-1.12.65,3.2,3.2,0,0,0-1.28,1.51,1.56,1.56,0,0,0,1.46,2h0A2.81,2.81,0,0,0,45.2,24.21Z" transform="translate(-1.92 -2.7)"/><path id="_Path_86" data-name="&lt;Path&gt;" class="cls-10" d="M48.58,13.41a1.88,1.88,0,0,0-.22.8c0,.11.06.87,0,.2a1.42,1.42,0,0,0,1.78,1.35h0l.19,0a3,3,0,0,0,.45-.19l.37-.23.12-.06a1.72,1.72,0,0,0,1-.95,1.14,1.14,0,0,0-.06-1.25,1.51,1.51,0,0,0-.62-.68,1.79,1.79,0,0,0-1.16-.17h-.06a2.68,2.68,0,0,0-.9.31,2.24,2.24,0,0,0-.43.33A2.32,2.32,0,0,0,48.58,13.41Z" transform="translate(-1.92 -2.7)"/><path id="_Path_87" data-name="&lt;Path&gt;" class="cls-10" d="M152.53,16.17c.05-.32.05-.35,0-.07a1.07,1.07,0,0,0,0,.56,2.05,2.05,0,0,0,.22.5,5.67,5.67,0,0,0,.5.68c.12.14.31.22.43.36l-.13-.1c.11.1.23.19.35.28a1.82,1.82,0,0,0,1.31.19,1,1,0,0,0,.69-.36,1.27,1.27,0,0,0,.22-.38,1.75,1.75,0,0,0,.11-1.23,2.37,2.37,0,0,0-.83-1.14,3.2,3.2,0,0,0-.77-.42,1.48,1.48,0,0,0-.7-.17,1.84,1.84,0,0,0-.41.05l-.12.05a1.36,1.36,0,0,0-.81.7A1.09,1.09,0,0,0,152.53,16.17Z" transform="translate(-1.92 -2.7)"/><path id="_Path_88" data-name="&lt;Path&gt;" class="cls-11" d="M52.19,27,52,26.89a1.59,1.59,0,0,0-.48-.41,3.92,3.92,0,0,0-.36-.16,4.71,4.71,0,0,0-.65-.28,1.65,1.65,0,0,0-1.63.43,1.6,1.6,0,0,0-.47,1.27c0,.12,0,.24,0,.36a.09.09,0,0,0,0,0,2.35,2.35,0,0,0,1.1,1.43,2.13,2.13,0,0,0,1.87.17,1.66,1.66,0,0,0,1.14-1.13A1.61,1.61,0,0,0,52.19,27Z" transform="translate(-1.92 -2.7)"/><path id="_Path_89" data-name="&lt;Path&gt;" class="cls-11" d="M104.41,28.26l.19-.24a2.09,2.09,0,0,0,.25-2l-.12-.23a2.05,2.05,0,0,0-1.8-1.06,5.62,5.62,0,0,0-2.45.91,2.23,2.23,0,0,0-.91,2.72l.25-.07a3.88,3.88,0,0,1,3.5.66l.09.08a3.34,3.34,0,0,0,.88-.6Z" transform="translate(-1.92 -2.7)"/><path id="_Path_90" data-name="&lt;Path&gt;" class="cls-11" d="M127.41,24.19a1.89,1.89,0,0,0,.76.82,2.24,2.24,0,0,0,1.25.25,1.75,1.75,0,0,1-.18-.69A1.65,1.65,0,0,1,130.43,23l.68-.26.19-.07.15-.09a1.26,1.26,0,0,1,1-.19,2.86,2.86,0,0,0-.32-.51,1.66,1.66,0,0,0-.34-.3,2.05,2.05,0,0,0-.26-.24,2.2,2.2,0,0,0-1.24-.44,3.23,3.23,0,0,0-2.1.48,2.12,2.12,0,0,0-.94,2.35,1.34,1.34,0,0,0,.09.26Z" transform="translate(-1.92 -2.7)"/><path id="_Path_91" data-name="&lt;Path&gt;" class="cls-11" d="M129.42,25.26Z" transform="translate(-1.92 -2.7)"/><path id="_Path_92" data-name="&lt;Path&gt;" class="cls-11" d="M143.45,29.61a2.2,2.2,0,0,0-1-2.41l-.29-.16-.38-.18-.23-.08a2.33,2.33,0,0,0-1-.12,3.7,3.7,0,0,0-.61.1,2.19,2.19,0,0,0-.73.37,2.11,2.11,0,0,0-.79,1.15,2.4,2.4,0,0,0,0,1.16,2.31,2.31,0,0,0,.25.61,2.13,2.13,0,0,0,.74.72,2.85,2.85,0,0,0,1.45.45l.51,0a2.3,2.3,0,0,0,1.29-.46l.19-.16A2,2,0,0,0,143.45,29.61Z" transform="translate(-1.92 -2.7)"/><path id="_Path_93" data-name="&lt;Path&gt;" class="cls-11" d="M152.06,24.12l.57,0a2.28,2.28,0,0,0,1.11-.36,1.45,1.45,0,0,0,.6-.74,1.35,1.35,0,0,0-.1-1.17,2.22,2.22,0,0,0-.77-.84l-.49-.28a1.82,1.82,0,0,0-2.22,2.85A1.74,1.74,0,0,0,152.06,24.12Z" transform="translate(-1.92 -2.7)"/><path id="_Path_94" data-name="&lt;Path&gt;" class="cls-11" d="M79.13,12.54a3.91,3.91,0,0,0-1.27-.07,2.91,2.91,0,0,0-1.14.42,2.34,2.34,0,0,0-.31.24,2.09,2.09,0,0,0-.66,2.14,2.18,2.18,0,0,0,.11.27l.57-.24c.53-.2,1.07-.37,1.61-.55a1.69,1.69,0,0,1,2.06,1.17,1.37,1.37,0,0,1,.07.34,1.36,1.36,0,0,0,.37-.45,2.12,2.12,0,0,0,.2-1.48.5.5,0,0,0,0-.13v-.1s0,0,0-.06a1.79,1.79,0,0,0-.39-.7A2.05,2.05,0,0,0,79.13,12.54Z" transform="translate(-1.92 -2.7)"/><path id="_Path_95" data-name="&lt;Path&gt;" class="cls-11" d="M102.91,15.3l-.17-.28a1.77,1.77,0,0,0-.15-.31,4.7,4.7,0,0,0-.45-.55,2.76,2.76,0,0,0-.55-.45,3.39,3.39,0,0,0-.71-.28A2.11,2.11,0,0,0,98.3,15a1.82,1.82,0,0,0,0,1,2.84,2.84,0,0,0,.28.71,2.11,2.11,0,0,0,.26.35,1.86,1.86,0,0,1,.42-.42,1.81,1.81,0,0,1,.67-.36,4.07,4.07,0,0,1,.61-.08,2,2,0,0,1,.85.07,1.39,1.39,0,0,1,.91.81,1.47,1.47,0,0,1,.11.78l.15-.14.07-.08A2,2,0,0,0,102.91,15.3Z" transform="translate(-1.92 -2.7)"/><path id="_Path_96" data-name="&lt;Path&gt;" class="cls-11" d="M34.42,20.49a2.48,2.48,0,0,0-.22-1.76,2.8,2.8,0,0,0-.36-.49,3,3,0,0,0-.74-.6L33,17.57a2.56,2.56,0,0,0-1.58-.29,2.19,2.19,0,0,0-1.85,1.57l0,.14.18,0a4.67,4.67,0,0,1,2,1.18.94.94,0,0,1-.51,1.59l.24.09a2.37,2.37,0,0,0,1.1.12,2.75,2.75,0,0,0,.77-.24A2,2,0,0,0,34.42,20.49Z" transform="translate(-1.92 -2.7)"/><path id="_Path_97" data-name="&lt;Path&gt;" class="cls-11" d="M59.07,34.08a.83.83,0,0,1-.28-.28,1.64,1.64,0,0,1-.31-.75,1.13,1.13,0,0,1,0-.63l.16-.38.24-.32.32-.25,0,0a1.18,1.18,0,0,1,.6-.19,1,1,0,0,1,.38,0h0a1.13,1.13,0,0,1,.57.12h0l.18.08h0l.05,0a2.23,2.23,0,0,0-.74-.9,2,2,0,0,0-1.18-.36,2.11,2.11,0,0,0-1,.26A2.08,2.08,0,0,0,57,32.34a2.26,2.26,0,0,0,.54,1.39,2,2,0,0,0,2.13.66l-.08,0A1.22,1.22,0,0,1,59.07,34.08Z" transform="translate(-1.92 -2.7)"/><path id="_Path_98" data-name="&lt;Path&gt;" class="cls-7" d="M61.72,33.15a1.51,1.51,0,0,0-.39-1.47l0,0a1.88,1.88,0,0,0-.24-.18l-.05,0h0l-.18-.08h0a1.13,1.13,0,0,0-.57-.12h0a1,1,0,0,0-.38,0,1.18,1.18,0,0,0-.6.19l0,0-.32.25-.24.32-.16.38a1.13,1.13,0,0,0,0,.63,1.64,1.64,0,0,0,.31.75.83.83,0,0,0,.28.28,1.22,1.22,0,0,0,.54.28l.08,0a1.7,1.7,0,0,0,.81,0,1.53,1.53,0,0,0,.48-.23,1.71,1.71,0,0,0,.26-.21A1.89,1.89,0,0,0,61.72,33.15Z" transform="translate(-1.92 -2.7)"/><path id="_Path_99" data-name="&lt;Path&gt;" class="cls-7" d="M153.15,29.19a1.07,1.07,0,0,0-.32.23,1.68,1.68,0,0,0-.3.4,1.35,1.35,0,0,0-.15.79,2,2,0,0,0,.09.35,1,1,0,0,0,.26.37,1.56,1.56,0,0,0,.2.16,2.13,2.13,0,0,0,.46.4,1.76,1.76,0,0,0,1.29.17,1.72,1.72,0,0,0,1-.77,1.52,1.52,0,0,0,.09-1.49,1.77,1.77,0,0,0-.43-.62,1.2,1.2,0,0,0-.26-.18A1.71,1.71,0,0,0,153.15,29.19Z" transform="translate(-1.92 -2.7)"/><path id="_Path_100" data-name="&lt;Path&gt;" class="cls-7" d="M41.13,27.3A3.1,3.1,0,0,0,39,27.11a4.47,4.47,0,0,0-1.89,1,1.35,1.35,0,0,0-.42,1,1.6,1.6,0,0,0,.05.39,1,1,0,0,0,.12.32l0,0a1.49,1.49,0,0,0,1.27.73l.71-.06a2.34,2.34,0,0,0,.66-.09c.1,0,.1,0,0,0l.37-.05a3.23,3.23,0,0,0,1.41-.52A1.35,1.35,0,0,0,42,28.64a1.42,1.42,0,0,0-.45-1,10.32,10.32,0,0,1-.43-.34Z" transform="translate(-1.92 -2.7)"/><path id="_Path_101" data-name="&lt;Path&gt;" class="cls-7" d="M27.83,22.52a.87.87,0,0,0,.84,0l.58-.26a.53.53,0,0,0,0-.92l-.58-.26a.87.87,0,0,0-.84,0,.84.84,0,0,0-.41.72A.85.85,0,0,0,27.83,22.52Z" transform="translate(-1.92 -2.7)"/></g></svg>