<svg id="Layer_1" data-name="Layer 1" xmlns="http://www.w3.org/2000/svg" viewBox="0 0 250 250"><defs><style>.cls-1{fill:#fff11d;}.cls-2{fill:#e3a600;}.cls-3{fill:#91298f;}.cls-4{fill:#91288f;}.cls-5{fill:#fff666;}.cls-6{fill:#fff675;}.cls-7{fill:#ecc352;}.cls-8{fill:#b68708;}.cls-9{fill:#b68608;}.cls-10{fill:#e9b70e;}.cls-11{fill:#c6a24f;}.cls-12{fill:#e8ba5f;}.cls-13{fill:#f1d59d;}.cls-14{fill:#de9e26;}.cls-15{fill:#de9f26;}.cls-16{fill:#fef574;}.cls-17{fill:#f1d598;}.cls-18{fill:#ebc261;}.cls-19{fill:#ecc457;}.cls-20{fill:#bc7bba;}.cls-21{fill:#e8ba5d;}.cls-22{fill:#ebc374;}.cls-23{fill:#dfa228;}.cls-24{fill:#e1a626;}.cls-25{fill:#f0d17d;}.cls-26{fill:#e0a427;}.cls-27{fill:#de9f27;}.cls-28{fill:#dfa027;}.cls-29{fill:#dfa026;}.cls-30{fill:#df9f27;}.cls-31{fill:#dfa226;}.cls-32{fill:#dea026;}.cls-33{fill:#e0a226;}.cls-34{fill:#e0a326;}.cls-35{fill:#e0a426;}.cls-36{fill:#e0a428;}.cls-37{fill:#dfa127;}.cls-38{fill:#e3ab26;}.cls-39{fill:#e2a728;}.cls-40{fill:#e2a928;}.cls-41{fill:#e1a728;}.cls-42{fill:#e3ab28;}.cls-43{fill:#e4ae26;}.cls-44{fill:#e6b32d;}.cls-45{fill:#e5b12a;}.cls-46{fill:#ea5e5f;}.cls-47{fill:#f1d59c;}.cls-48{fill:#e8ba5e;}.cls-49{fill:#dfa129;}.cls-50{fill:#ebc57b;}.cls-51{fill:#e9bc60;}.cls-52{fill:#e2a927;}.cls-53{fill:#f9cb2e;}.cls-54{fill:#e4ad39;}.cls-55{fill:#f4a93c;}.cls-56{fill:#e3ab2e;}.cls-57{fill:#f6b139;}.cls-58{fill:#ecc67a;}.cls-59{fill:#edca7a;}.cls-60{fill:#fef01e;}.cls-61{fill:#feef1e;}.cls-62{fill:#fdee1e;}.cls-63{fill:#feef1d;}.cls-64{fill:#fdef1e;}.cls-65{fill:#feee1e;}.cls-66{fill:#fdee1f;}.cls-67{fill:#fded1f;}.cls-68{fill:#fcec20;}.cls-69{fill:#ebc47a;}.cls-70{fill:#f1d49a;}.cls-71{fill:#fdee24;}.cls-72{fill:#ebc479;}.cls-73{fill:#f1d59b;}.cls-74{fill:#ebc578;}.cls-75{fill:#ebc57a;}.cls-76{fill:#fff576;}.cls-77{fill:#feee1f;}.cls-78{fill:#fef375;}.cls-79{fill:#ebc67b;}.cls-80{fill:#ecc67b;}.cls-81{fill:#efce7c;}.cls-82{fill:#edcb7a;}.cls-83{fill:#edca7c;}.cls-84{fill:#f0d07b;}.cls-85{fill:#ecc57b;}.cls-86{fill:#ecc77b;}.cls-87{fill:#efce79;}.cls-88{fill:#ecc67c;}.cls-89{fill:#fdf178;}.cls-90{fill:#ecc77d;}.cls-91{fill:#fdf279;}.cls-92{fill:#fcf177;}.cls-93{fill:#fcf079;}.cls-94{fill:#fbee7a;}.cls-95{fill:#fae62b;}.cls-96{fill:#fbed7a;}.cls-97{fill:#dea027;}.cls-98{fill:#feef1f;}.cls-99{fill:#dfa028;}.cls-100{fill:#fdec20;}.cls-101{fill:#dfa229;}.cls-102{fill:#fbea22;}.cls-103{fill:#fcea21;}.cls-104{fill:#fce921;}.cls-105{fill:#dfa128;}.cls-106{fill:#fcec1f;}.cls-107{fill:#fceb21;}.cls-108{fill:#fceb20;}.cls-109{fill:#e0a228;}.cls-110{fill:#fae721;}.cls-111{fill:#e0a32a;}.cls-112{fill:#fcea23;}.cls-113{fill:#fae723;}.cls-114{fill:#fbe923;}.cls-115{fill:#dfa029;}.cls-116{fill:#fcea20;}.cls-117{fill:#dfa22b;}.cls-118{fill:#fbea20;}.cls-119{fill:#fbe823;}.cls-120{fill:#fbe81f;}.cls-121{fill:#fbe822;}.cls-122{fill:#fae624;}.cls-123{fill:#fae722;}.cls-124{fill:#f9e224;}.cls-125{fill:#fae623;}.cls-126{fill:#fcea1f;}.cls-127{fill:#fbe821;}.cls-128{fill:#fae621;}.cls-129{fill:#fbe820;}.cls-130{fill:#fff01d;}.cls-131{fill:#f8c92e;}.cls-132{fill:#fcf078;}.cls-133{fill:#ecc97c;}.cls-134{fill:#fbee78;}.cls-135{fill:#ecc77e;}.cls-136{fill:#fcf07a;}.cls-137{fill:#fbee7b;}.cls-138{fill:#fbe921;}.cls-139{fill:#dfa22c;}.cls-140{fill:#fcef78;}.cls-141{fill:#e1a832;}.cls-142{fill:#fae625;}.cls-143{fill:#fbed77;}.cls-144{fill:#ecc67e;}.cls-145{fill:#ecc87e;}.cls-146{fill:#fcf077;}.cls-147{fill:#fbee79;}.cls-148{fill:#fbed7b;}.cls-149{fill:#fbed78;}.cls-150{fill:#faec7b;}.cls-151{fill:#faec7d;}.cls-152{fill:#ecc77c;}.cls-153{fill:#ecc67d;}.cls-154{fill:#f9e97d;}.cls-155{fill:#fae979;}.cls-156{fill:#fcf076;}.cls-157{fill:#fdf277;}.cls-158{fill:#fcf178;}.cls-159{fill:none;}</style></defs><title>products</title><path class="cls-1" d="M54.94,228.47a38.3,38.3,0,0,1-.94-6.13c-.52-4.32-.86-8.65-1.25-13V207.7a1.76,1.76,0,0,1,1.13-.88c2.82-.89,5.53-2.37,8.59-2.55,1,.64,1.05,1.76,1.31,2.76A55.54,55.54,0,0,0,68,218.87a11.3,11.3,0,0,0,2.42,3.28c1.39,1.23,2.59,1.18,3.87-.16a9.3,9.3,0,0,0,2-3.75,66.58,66.58,0,0,0,2.82-14c.11-1,.11-2.12,1.11-2.82a13.62,13.62,0,0,1,5-.2c17.23,1.15,34.16,4.42,51.12,7.5a322.33,322.33,0,0,0,32.28,4.61,153.07,153.07,0,0,0,24.6.12,12.18,12.18,0,0,1,1.48,0c2.62.19,2.69.3,2.51,2.88-.28,4-.74,8-1.21,12a4.38,4.38,0,0,1-.77,2.44c-1.75.78-3.54-.13-5.3.12a10.83,10.83,0,0,1-2-.16c-6.57-1.34-13.21-1.7-19.84-2.37-9-.89-18-1.37-27-1.78-7.82-.36-15.67-.72-23.52-.45-2.73.09-5.42-.55-8.14-.38-7.15.47-14.33.14-21.48.43-9.25.38-18.51.75-27.72,1.77a5.94,5.94,0,0,0-2.44.82A2.71,2.71,0,0,1,54.94,228.47Z"/><path class="cls-2" d="M53.59,68.07a1.49,1.49,0,0,1-.2-.31c-2.26-5.87-4.32-11.8-5.15-18.09,2.24-.77,4.69-.47,7-.54,4.2-.11,8.39-.48,12.59-.3,2.09.09,4.18,0,6.28.22,2.7.33,5.42-.25,8.12-.4,2.94-.14,5.89-.48,8.84-.66,4.43-.26,8.85-.47,13.28-.68,3-.14,5.91-.28,8.88-.32,5.43-.08,10.87-.11,16.32-.12,3.45,0,6.91,0,10.37.12,5.74.2,11.46.43,17.18.75q7.47.43,14.92,1.12c4.69.43,9.38,1,14.17,1.14,4.49.12,9,.63,13.44.93a3.92,3.92,0,0,1,.74.22l-.82,6.05a4.74,4.74,0,0,1-.31,3.39c-.83,2.5-1.76,4.94-1.39,7.66a.83.83,0,0,1-.3.64c-1.74.24-3.5,0-5.25.07-.73-.28-2,.51-2.1-1a4,4,0,0,1,2.76-.83c-2.61.09-4.88.11-7.14,0-7-.2-14,.2-20.95.47-27.76,1.11-55.54.62-83.3.53-7,0-14.07-.14-21.14-.29a5.91,5.91,0,0,0-3.07.53C56.1,68.64,54.79,69,53.59,68.07Z"/><path class="cls-2" d="M170.48,248c-1.6,0-3.2.08-4.82.1-6.16.06-12.33.3-18.49.46-8.63.21-17.28.08-25.91.37-15.18.5-30.37.13-45.55.19-3.33,0-6.57.67-9.85.75a22.29,22.29,0,0,1-4.62-.06,13.74,13.74,0,0,0-3.68-.1c-1.36-.06-2.71-.15-4.06-.18-.75,0-1.14-.32-1.13-1.11.07-4-.06-8,1-11.91A59.83,59.83,0,0,1,55,230.67c.29-.69-.06-1.46,0-2.2l2.69-.06a2.51,2.51,0,0,1,1.72-.27,9.9,9.9,0,0,0,1.88.18c16.17.47,32.33.18,48.5.44,6.9.1,13.81.13,20.71.37a32.75,32.75,0,0,1,6.41.51c1,.69.94,1.87,1,2.81.5,4,1.09,8.06,1.29,12.13a3.16,3.16,0,0,0,.31,1.42c.23-4.94.26-9.68-1.37-14.27-.22-.65-.74-1.35,0-2a18.37,18.37,0,0,1,6.57-.2c2.7.28,5.4.2,8.1.23a34.84,34.84,0,0,1,7.13.64c1,.77.94,2,1.07,3,.63,4,1.25,7.9,1.66,11.89,0,.22,0,.5.26.64a31.85,31.85,0,0,0-1.68-13.24c-.24-.71-.81-1.44-.16-2.23a11,11,0,0,1,5.63,0,1.06,1.06,0,0,1,.52.73c1.11,5.29,2.38,10.54,3.52,15.83A1.09,1.09,0,0,1,170.48,248Z"/><path class="cls-1" d="M53.59,68.07h3.76a1.4,1.4,0,0,1,.94-.18C65.08,69,72,69.4,78.79,70c2.14.19,4.31,0,6.4.67.84.51.49,1.14.12,1.7-.77,1.16-1.4,2.41-2.24,3.52-.94.71-2.25.11-3.32.62.38.94,1.45,1.07,1.79,1.88a10.8,10.8,0,0,1-2.33,4.95.57.57,0,0,1-.53-.12,12.12,12.12,0,0,1-.93-2.61,9.7,9.7,0,0,0-3.26-4.42c-2.35-1.86-5.86-1.39-8.22,1-4.44,4.59-4,14.21.85,18.34a5.79,5.79,0,0,0,3.76,1.32,6.8,6.8,0,0,1,2.38,0,1.59,1.59,0,0,1-.12,1.87,2.56,2.56,0,0,0-.59,1.43,40.18,40.18,0,0,1-2,6.32c-.45.72-1.93.3-1.82,1.65a35.91,35.91,0,0,0-3.91,6.84,2.19,2.19,0,0,1-.34.34c-.48.29-.39.73-.24,1.17a2,2,0,0,1,0,.49c-.45,1.82-1,3.57-1.47,5.38a1,1,0,0,1-.31.4c-1.13.34-.53,1.06-.33,1.68a4,4,0,0,1,.07.59c-.94,5.3-1.81,10.6-2.27,16-.25,2.89-.64,5.77-.61,8.68a15.67,15.67,0,0,1-.64,4.57,18.19,18.19,0,0,1-8.44,2.82c0-.74-.08-1.48-.07-2.22,0-10.81-.08-21.58.17-32.42a131,131,0,0,1,.54-13.14c.16-1.34.06-2.72.13-4.07.24-4.69.39-9.48.78-14.2.58-7,.93-14.07,2.09-21.1A7.61,7.61,0,0,0,53.59,68.07Z"/><path class="cls-1" d="M52.21,200.93c-.19-2.27-.43-4.53-.56-6.81q-.37-6.33-.66-12.71c-.21-4.43-.52-8.86-.47-13.29,0-.94-.12-1.83-.17-2.75,2-2.1,4.61-3.22,7.16-4.45a.8.8,0,0,1,1.11.25.88.88,0,0,1,.1.22,29.81,29.81,0,0,1,.19,5.82,31.13,31.13,0,0,0,.33,4.92,21,21,0,0,1,0,2.51,2,2,0,0,1-.12.59,1.75,1.75,0,0,1-.88,1.06c-.4.15-.78-.11-1.19,0,0,.45.43.66.47,1.06a2,2,0,0,1-1.17,1.93c-.63.15-1.14-.29-1.79-.43.1.79.84,1.08,1.06,1.68s0,1.35,1,1.27a3.18,3.18,0,0,1,1.6,1.22c.52.76,1.69,1,1.79,2.12.7,4.62,1.37,9.25,1.93,13.89a1.17,1.17,0,0,1-.58.71C58.29,200.19,55.32,201.14,52.21,200.93Z"/><path class="cls-3" d="M52.21,200.93a68.71,68.71,0,0,1,9.12-1.57c1.69,1.14,1.34,2.95,1.49,4.59a1.13,1.13,0,0,1-.3.52c-3.33.82-6.51,2.11-9.74,3.23-.57-.76-.27-1.64-.3-2.46C52.44,203.8,51.91,202.39,52.21,200.93Z"/><path class="cls-3" d="M58.33,161a60.12,60.12,0,0,0-6.83,3.82c-.36.21-.74.4-1.11.6,0-2.73-.09-5.47-.13-8.2l8.15-2.73a1,1,0,0,1,.34.51,19.63,19.63,0,0,1,0,5.52A1,1,0,0,1,58.33,161Z"/><path class="cls-4" d="M197.22,208.08c.18,1.6-.35,3.15-.37,4.73a.78.78,0,0,1-.72.84h-.07c-.47.06-1-.11-1.4.28a61.57,61.57,0,0,1-7.18.5,179.19,179.19,0,0,1-19.25-.5c-8.44-.78-16.75-2-25.07-3.39-12.08-2-24.1-4.49-36.23-6.25-5.13-.75-10.24-1.43-15.4-1.88-3.87-.34-7.73-.68-11.62-.67l-.21-.22a3,3,0,0,1,.46-3.26,2,2,0,0,1,.6-.27,70.62,70.62,0,0,1,13.32.42c18.93,1.74,37.53,5.92,56.23,9a99.84,99.84,0,0,0,14.95,1.24c4.82.06,9.65,0,14.48,0a140.72,140.72,0,0,0,15.35-.85C195.83,207.68,196.57,207.49,197.22,208.08Z"/><path class="cls-2" d="M195,230.66a50.11,50.11,0,0,0,.94,6.35c.51,2.91.65,5.85.94,8.78.07.93-.27,1.19-1.14,1.22-3.63.11-7.26.25-10.87.43-4.11.2-8.23.4-12.35.37a12.79,12.79,0,0,0-1.63.23c-.47-1.88-.15-3.76-.42-5.63a34.78,34.78,0,0,0-2.82-9.94c-.28-.6-.94-1.21-.27-2,4.54.16,9.08-.13,13.62.25,2.92.24,5.88.57,8.77-.36A23.48,23.48,0,0,1,195,230.66Z"/><path class="cls-5" d="M59.09,228.48l-1.47-.07c.42-1.16,1.56-.94,2.35-1,3.31-.31,6.57-.68,9.92-.88,4.92-.29,9.84-.43,14.75-.76,5.69-.38,11.35-.18,17-.28,3.21-.06,6.4-.67,9.6-.35,6.66.67,13.34,0,20,.43,3.27.19,6.57.11,9.79.33,4.55.31,9.09.53,13.64.77,3.31.18,6.64.4,9.93.74,4.4.46,8.81.77,13.2,1.33q4.67.58,9.31,1.22a1.09,1.09,0,0,1,.82.34c-1.78,1.1-3.75.57-5.63.45s-3.45-.23-5.17-.26c-12-.15-23.93-.69-35.9-.94-8.77-.17-17.55-.09-26.27-.45-9.94-.4-19.88-.17-29.81-.23-8.34-.06-16.68-.36-25-.24A1.76,1.76,0,0,1,59.09,228.48Z"/><path class="cls-6" d="M79.91,201.72c-.56,4.07-.94,8.17-1.87,12.2a28.49,28.49,0,0,1-2.32,7,6.46,6.46,0,0,1-.67,1.1c-1.67,2.12-3.38,2.22-5.26.28a19.52,19.52,0,0,1-3.6-6.19,66.73,66.73,0,0,1-3-9.66,19.79,19.79,0,0,0-.64-1.88l0-.16a1.92,1.92,0,0,1,1.06-.7c4.69-1.16,9.39-2.44,14.3-2.42a3.3,3.3,0,0,1,2,.4Z"/><path class="cls-7" d="M59.09,228.48h5c15.71,0,31.42-.21,47.11.11,8,.16,16.07-.09,24.07.35,5.81.33,11.62-.07,17.39.36,5,.39,10-.05,15,.38,4.38.36,8.76,0,13.13.36,2.41.19,4.79.28,7.19.29l1.82.06c0,.32-.11.62-.49.67a16.92,16.92,0,0,1-2.74.4c-5.73,0-11.45-.6-17.18-.38-.76,0-1.43-.47-2.19-.29a.26.26,0,0,1-.36,0l0,0-6,0a.49.49,0,0,1-.68,0l0,0c-4.41-.47-8.84-.2-13.25-.48-3-.2-6-.2-9-.28a.52.52,0,0,1-.73,0l0,0c-7.39-.43-14.81-.16-22.2-.45-13.33-.55-26.67,0-40-.4-4.93-.14-9.86-.16-14.79-.3A1.22,1.22,0,0,1,59.09,228.48Z"/><path class="cls-1" d="M197.48,68.76c.35,4.18.68,8.35.94,12.54q.41,7.29.78,14.6c.15,3,.12,6,.32,9.06.43,6,.11,12,.42,18s.07,11.86.21,17.83a3.3,3.3,0,0,1-.29,2c-.77,1.4-2.21,1.69-3.55,2.12a119.3,119.3,0,0,1-19.08,3.79c-10.11,1.4-20.21,2.94-30.46,2.38-7.33-.39-14.68-.64-22-1q-11.76-.59-23.54-.49c-6.25,0-12.47.39-18.69.86a3.74,3.74,0,0,1-1.88-.06,1.78,1.78,0,0,1-.88-1.54c-.23-4.69-.68-9.47-1.15-14.2a2.64,2.64,0,0,1,.21-1.27c.33-.59.79-.55,1.3-.26.54.74.94,1.8,2.19.85A128.76,128.76,0,0,1,96,139.07c.35,1.2,1,1.24,1.88.5a31.06,31.06,0,0,1,6.78,2.2c.67.94-.28,2.06.47,3,1.2-.31,1.3-1.77,2.32-2.23a11.17,11.17,0,0,1,4.78,1.4c.57.8.14,1.65.11,2.47,0,.3,0,.66.29.8s.55-.14.75-.36c.66-.73.94-1.69,1.68-2.38.94-.34,2,.35,3-.3-.31-.85-1.36-1.05-1.57-1.88a14.81,14.81,0,0,1,2.65-5.63c.75-.48,1.7-.06,2.55-.53-.29-.86-1.43-1-1.55-1.93a19,19,0,0,1,2.28-5.63c.51-.47,1.3-.24,1.87-.62,0-.75-.82-1-.86-1.66a12.87,12.87,0,0,1,2-5.18c.78-.57,1.78-.17,2.72-.61-.32-.88-1.4-1.14-1.65-2a14.4,14.4,0,0,1,1.54-5c.6-.52,1.28-.14,1.88-.16s1.1.26,1.33-.26-.4-.78-.75-1.08c-.54-.47-1.28-.74-1.44-1.57a13.23,13.23,0,0,1,1.88-5.22c1.17-.66,2.51.5,3.75-.3-.64-1.4-2.61-1.45-3-3a17,17,0,0,1,1.11-4.33c.73-.67,1.52-.23,2.28-.08a5.3,5.3,0,0,0,3,.08c-1.16-1.69-3.25-2-4.27-3.61-.34-.79-.05-1.69-.39-2.6-1,.14-1.14,1.31-2,1.49a13.24,13.24,0,0,1-5.79-3c-.32-.67,0-1.46-.41-2.22-.83,0-.94,1-1.66,1.19-2.28,0-4.1-1.11-5.93-2.25-.33-1-.59-2.22-1.87-.75a10.91,10.91,0,0,1-5.63-2.21c-.38-.7-.07-1.57-.45-2.31-1,.23-1.17,1.37-2.06,1.58A10.47,10.47,0,0,1,102.39,81c-.29-1.06.34-2.16-.15-3.32-1.24.49-1.41,2-2.46,2.55a11.54,11.54,0,0,1-5.41-1.5,2.08,2.08,0,0,1-.26-1.88c.08-.63.38-1.45-.23-2.17-1.43.74-1.53,2.7-3,3.3-1.57-.18-3.19-.27-4.47-1.4a10.56,10.56,0,0,1,1.07-5.69,2.57,2.57,0,0,1,1.44-.27c8.63.61,17.29.35,25.9.8,9.28.47,18.51-.23,27.76-.27,9.06,0,18.12-.77,27.17-1.37,3.05-.19,6.13-.45,9.17-.93,2.27-.13,4.52-.61,6.8-.55,2.25-.25,4.46.61,6.71.19C194.12,68.61,195.82,68.17,197.48,68.76Z"/><path class="cls-7" d="M185.67,68.82c-2.21-.13-4.39.59-6.56.37-4.69.39-9.48.44-14.22.62-19.47.74-38.94.37-58.41.27-11.35,0-22.72-.28-34.07-.77-4.82-.22-9.65-.19-14.34-1.2h-.72c.54-.77,1.37-.72,2.17-.72,6.31,0,12.63-.22,18.93,0,14.34.63,28.68.18,43,.31,8.44.08,16.84.2,25.24-.09,5.06-.18,10.14,0,15.18-.37,4.07-.3,8.16,0,12.2-.35,6.29-.55,12.6-.16,18.89-.31a4.21,4.21,0,0,1,2,.26,16.92,16.92,0,0,1-4.79,1.25C188.79,69,187.14,68.32,185.67,68.82Z"/><path class="cls-8" d="M125.09,67.2a3,3,0,0,1-.22-2.09c.62-4.56,1.09-9.14,1.48-13.72.07-.85.37-1.68.4-2.55a.64.64,0,0,1,.57-.63c.4,0,.42.35.47.66.7,4.06,0,8.08-.54,12.08A23.39,23.39,0,0,1,126,66C125.8,66.4,125.74,66.9,125.09,67.2Z"/><path class="cls-8" d="M95.45,67c-1.28-1-1.41-2.43-1.72-3.76a43.15,43.15,0,0,1-.8-11.73,14.55,14.55,0,0,1,.4-2.36.51.51,0,0,1,.45-.52c.28,0,.48.3.56.59a.31.31,0,0,1,0,.19c-.18,1.67.4,3.28.4,5a71.58,71.58,0,0,0,.66,7.87A44.65,44.65,0,0,1,95.45,67Z"/><path class="cls-8" d="M157,48.78a10.28,10.28,0,0,1,.12,3.5,39.55,39.55,0,0,1-3.7,12.9,1.29,1.29,0,0,1-.09.16c-.3.41-.41,1.28-1.06,1s-.17-.94,0-1.47c1.18-4.69,2.33-9.32,3.54-13.95A3,3,0,0,1,157,48.78Z"/><path class="cls-9" d="M136,48.3a68.22,68.22,0,0,1-.06,7.15,44.76,44.76,0,0,1-1.44,8c-.24.83-.51,1.66-.77,2.47-.09.25-.26.49-.52.46s-.47-.35-.51-.67a2.53,2.53,0,0,1,0-.55c.54-3.33.78-6.7,1.35-10,.32-1.81.6-3.62.85-5.45A1.39,1.39,0,0,1,136,48.3Z"/><path class="cls-9" d="M101.31,48.32c.36.1.44.39.48.7a100.38,100.38,0,0,1,.74,16.89.73.73,0,0,1-.44.74C100.43,64.21,99.86,50.71,101.31,48.32Z"/><path class="cls-9" d="M87.31,66.87c-2.34-2.69-3.41-13.29-2-18a2.18,2.18,0,0,1,.84,1.88c.37,3.75.55,7.58,1.08,11.35A37.49,37.49,0,0,1,87.31,66.87Z"/><path class="cls-9" d="M119.6,66.59c-1-4,.24-15.81,1.88-18C122.52,51,121.32,63.1,119.6,66.59Z"/><path class="cls-9" d="M52.81,53.51V50.93c0-.36,0-.86.46-.85s.56.42.61.81c.19,1.15.39,2.31.59,3.45a64.77,64.77,0,0,0,2.81,10.87c.19.51.61,1.21,0,1.5s-.85-.52-1.12-.94A21.91,21.91,0,0,1,52.81,53.51Z"/><path class="cls-9" d="M114.41,66.8a9,9,0,0,1-.72-3.23c0-3-.11-5.92,0-8.86a27.29,27.29,0,0,1,.71-5.63c.07-.24.12-.49.44-.49a.54.54,0,0,1,.52.44,6.12,6.12,0,0,1,.14,1.28c0,3.51.12,7-.06,10.52A16.42,16.42,0,0,1,114.41,66.8Z"/><path class="cls-9" d="M163.25,50.31a15.29,15.29,0,0,1,.13,5,28.06,28.06,0,0,1-2.89,10c-.3.54-.39,1.63-1.23,1.29-.66-.27,0-1.12.11-1.66.94-4.56,2-9.11,3-13.67A1.45,1.45,0,0,1,163.25,50.31Z"/><path class="cls-8" d="M142.8,49.05c.74,1.52.45,3,.31,4.62a45.77,45.77,0,0,1-1.22,7.08,16.78,16.78,0,0,1-1.38,3.82c-.24.41-.41.94-1,1-.23-1.3,1.39-11.44,2.47-15.32C142.11,49.79,142.21,49.26,142.8,49.05Z"/><path class="cls-8" d="M108.59,49.45c1.09,2.17,1.44,14.73.47,17.24C107.33,64.52,107,52.37,108.59,49.45Z"/><path class="cls-9" d="M62.49,66.57A3.66,3.66,0,0,1,60.88,65,25,25,0,0,1,58,50.78c0-.3,0-.68.42-.69s.59.37.66.74c.3,1.76.6,3.5.93,5.25a68.92,68.92,0,0,0,2.49,9.38A1,1,0,0,1,62.49,66.57Z"/><path class="cls-9" d="M146.34,65.53c-.74-1.4-.18-2.53,0-3.62.82-4.1,1.73-8.18,2.6-12.27a.67.67,0,0,1,.53-.59,1.71,1.71,0,0,1,.55,1.38,32.62,32.62,0,0,1-3.15,14.31A8.37,8.37,0,0,1,146.34,65.53Z"/><path class="cls-8" d="M67,66.17a3.32,3.32,0,0,1-1.19-1.87A35.28,35.28,0,0,1,64,51.62a3.69,3.69,0,0,1,0-.74.52.52,0,0,1,.47-.48.54.54,0,0,1,.56.38A12.74,12.74,0,0,1,65.76,54c.51,3.27.89,6.57,1.47,9.81A3.55,3.55,0,0,1,67,66.17Z"/><path class="cls-8" d="M180,66.13c.48-3.59,3.56-13.88,4.63-15.41a3.36,3.36,0,0,1,.31,2.65,38.92,38.92,0,0,1-2.36,9.81C182,64.4,181.46,65.6,180,66.13Z"/><path class="cls-8" d="M73.21,64.52V65c0,.43,0,.94-.52,1s-.49-.45-.62-.79a21,21,0,0,1-1.34-5.9,35.78,35.78,0,0,1-.46-6,3.94,3.94,0,0,1,.85-2.7c1,.56.88,1.67.94,2.54.29,3.11.78,6.2.8,9.38C72.88,63.14,73.35,63.81,73.21,64.52Z"/><path class="cls-8" d="M79.75,67c-1.25-1.68-1.24-3.39-1.69-4.94-.54-1.87-.3-3.9-.69-5.83a12.14,12.14,0,0,1,.4-4.76c.06-.32.24-.64.56-.67.52,0,.42.47.55.79A12.12,12.12,0,0,1,79.44,56C79.65,59.5,80.28,63.05,79.75,67Z"/><path class="cls-8" d="M165.88,65.39c.74-5.09,2-9.81,2.81-14.8a2,2,0,0,1,1.06,1.87,20.22,20.22,0,0,1-.4,5.15,21,21,0,0,1-2.06,6.48A2.32,2.32,0,0,1,165.88,65.39Z"/><path class="cls-9" d="M176.7,52.39c.42.17.46.54.47.94a18.77,18.77,0,0,1-3.37,12.19,1.41,1.41,0,0,1-.21.31c-.29.3-.55.81-1,.51s-.23-.68-.11-1c.56-1.57,1.21-3.11,1.69-4.69.74-2.41,1.36-4.86,2.07-7.28C176.29,53,176.29,52.6,176.7,52.39Z"/><path class="cls-8" d="M191.16,52c1.88,3.43-1.43,12.29-4.62,12.88-.25-1.3.72-2.18,1.12-3.23s.94-2.14,1.35-3.23.61-2.14.93-3.19S190.28,52.88,191.16,52Z"/><path class="cls-8" d="M192.88,64.31a95.79,95.79,0,0,0,2.94-12.92c1.39.83,1,2,1,3a15.94,15.94,0,0,1-.09,3.31C196.13,61.16,194.6,63.8,192.88,64.31Z"/><path class="cls-10" d="M185.67,68.82a20.8,20.8,0,0,1,4.5-.72c.66.65,1.49.23,2.23.36-.5.54-1.14.35-1.74.36C189,68.84,187.34,68.83,185.67,68.82Z"/><path class="cls-1" d="M197.22,208.08c-3.5.34-7,.75-10.48,1-2.15.16-4.32.15-6.48.14-6.13,0-12.2,0-18.36-.13a92,92,0,0,1-14-1.52c-9.52-1.72-19-3.36-28.57-5.08q-11.1-2-22.31-3.23a117.12,117.12,0,0,0-15.32-.94,12.38,12.38,0,0,1-1.47-.06c-.82-.94-.63-2.11-.49-3.16.32-2.32.26-4.64.38-7a2.35,2.35,0,0,1,.1-.59,22.28,22.28,0,0,1,3-4.1,1.77,1.77,0,0,0,.67-.94,4.56,4.56,0,0,1,2.06-2.45c1.31.23.56-.66.6-1.12a1.79,1.79,0,0,1,.83-1.52c.68-.16,1.58-.17.81-1.26,0-.65-.42-.88-1-.93a5.13,5.13,0,0,1-1.62-1.56,1.25,1.25,0,0,0-1.1-1,4.54,4.54,0,0,1-1.94-1.5,1.43,1.43,0,0,0-1.1-.84,1.48,1.48,0,0,1-.84-.77,2.24,2.24,0,0,1-.16-.63c0-4.27-.24-8.53-.45-12.79a3.77,3.77,0,0,1,.51-2.68c1.4-.79,3-.72,4.49-.87,5.55-.53,11.11-.33,16.67-.42,7.72-.12,15.44.05,23.14.45,12.64.67,25.28,1.27,37.95,1a152,152,0,0,0,33.59-4.06c1-.24,2-.79,3.05-.22.57.39.37,1,.36,1.53,0,4.26.11,8.53-.13,12.78-.2,3.44-.13,6.89-.35,10.32-.31,5-.46,10.08-.73,15.12-.3,5.63-.72,11.18-1.11,16.76C197.48,206.59,197.33,207.32,197.22,208.08Z"/><path class="cls-4" d="M199.49,149.33a104.19,104.19,0,0,1-14.28,3c-5.55.83-11.12,1.28-16.72,1.61-7.73.45-15.44.31-23.15.15q-9-.2-18.11-.73c-10.11-.61-20.22-.75-30.34-.72a157.42,157.42,0,0,0-16.25.94,1.25,1.25,0,0,1-.31-.44,11.08,11.08,0,0,1-.21-2.93.47.47,0,0,1,.46-.21c3.85-.31,7.71-.65,11.58-.94,2-.13,4.07-.15,6.11-.14,5.88,0,11.75-.06,17.62.14s12,.45,17.92.75c3.14.16,6.29.13,9.43.37,3.33.27,6.65.22,10,.31a89,89,0,0,0,12.2-.93c4.4-.49,8.79-1.14,13.13-1.75a123.46,123.46,0,0,0,17.57-3.56c1.32-.38,2.45-1.15,3.75-1.58a11,11,0,0,1,0,5.63.21.21,0,0,1,0,.29l0,0Z"/><path class="cls-8" d="M166.78,230.76h.39c1.88,2.5,2.58,5.44,3.28,8.37.37,1.61.54,3.26.76,4.9a12.64,12.64,0,0,1-.34,4h-.39c-1.35-4.17-1.81-8.55-3-12.75A12.31,12.31,0,0,1,166.78,230.76Z"/><path class="cls-11" d="M199.87,148.62a.44.44,0,0,1,0-.32c0,.08.09.16.11.24Z"/><path class="cls-9" d="M56.44,249c-1.19-5.09.06-9.91,1.81-14.6a7.28,7.28,0,0,1,2.57-3.88c-.34,3.47-1.49,6.38-2.19,9.39S57.73,246,56.44,249Z"/><path class="cls-8" d="M116.72,248.84a6.24,6.24,0,0,1-.77-2.67c-.07-2.5-.56-4.94-.14-7.51.35-2.15.44-4.39.94-6.56.12-.53.1-1.55.8-1.49.93.08.65,1.12.54,1.67-.67,3.34,0,6.76-.64,10.11a19.05,19.05,0,0,0-.06,3.7A4.93,4.93,0,0,1,116.72,248.84Z"/><path class="cls-9" d="M61.82,248.67c-1.43-3,.73-15.13,3.23-17.83.72.32.46.94.38,1.43-.94,5.07-2,10.13-2.93,15.19A1.69,1.69,0,0,1,61.82,248.67Z"/><path class="cls-9" d="M137.08,230h.74c2.56,5.19,2.28,10.76,2.19,16.29a1.8,1.8,0,0,1-.85,1.52,13.09,13.09,0,0,1-.57-2.61c0-3-.56-6-.82-9C137.61,234.09,137.12,232.05,137.08,230Z"/><path class="cls-8" d="M68.88,247.93c-1.53-4-.4-14.21,1.82-17.18.8,2,0,3.92-.1,5.8s-.39,3.76-.61,5.63A23.41,23.41,0,0,1,68.88,247.93Z"/><path class="cls-8" d="M95.29,230.9c1.06,3.63.55,13.82-.94,16.81a3.79,3.79,0,0,1-.75-2.38,72.81,72.81,0,0,1,.81-12.86,6.41,6.41,0,0,1,.3-1.06C94.78,231.21,94.8,230.93,95.29,230.9Z"/><path class="cls-9" d="M77.58,230.91c.39,2.42-.12,4.7-.41,6.91-.22,1.76-.34,3.53-.53,5.29-.15,1.28-.41,2.54-.46,3.83,0,.32-.08.67-.47.65s-.51-.31-.58-.63a15.77,15.77,0,0,1-.39-5.3A47.22,47.22,0,0,1,76.25,233,3,3,0,0,1,77.58,230.91Z"/><path class="cls-8" d="M109.31,247.56c-1.88-3.95-1.08-14.35,1.12-16.65.35.17.29.52.29.8a24.17,24.17,0,0,1-.08,3.71C110,239.43,110.38,243.57,109.31,247.56Z"/><path class="cls-8" d="M132.26,241a25.25,25.25,0,0,1-.4,6.2c-.07.3-.13.67-.48.69s-.6-.4-.59-.76c.11-1.8-.53-3.54-.4-5.34.22-3-.6-5.89-.35-8.86.05-.56-.36-1.51.4-1.6s.84,1,.94,1.55A31.74,31.74,0,0,1,132.26,241Z"/><path class="cls-8" d="M145.56,230.72c2.58,3.63,3.52,13.47,1.65,16.4C146.53,245.89,145.13,232.47,145.56,230.72Z"/><path class="cls-9" d="M160.12,230.71h.7c2.48,4.81,3.57,14.39,1.88,17a5.35,5.35,0,0,1-.65-2.44c-.27-2.93-.73-5.82-1.14-8.72A34.66,34.66,0,0,1,160.12,230.71Z"/><path class="cls-9" d="M124.34,248.24a1.85,1.85,0,0,1-.63-1.61c-.7-10.76-.67-13.34.27-15.36C125.48,233.18,125.76,245.61,124.34,248.24Z"/><path class="cls-8" d="M82.05,247.85c-1.87-2.65-1-13.14,1.24-16.57C84,233.29,83,245.87,82.05,247.85Z"/><path class="cls-8" d="M88.69,247.48c-1.66-3.43-.93-13.69,1.13-16.93A62.45,62.45,0,0,1,88.69,247.48Z"/><path class="cls-9" d="M103.17,230.66a23.75,23.75,0,0,1,0,6.19c-.52,3.44,0,7-1.24,10.65C100.24,243.83,101,233.17,103.17,230.66Z"/><path class="cls-9" d="M155.27,241.39v3.11a6.65,6.65,0,0,1-.44,2.16c-.07.24-.22.5-.49.49s-.46-.34-.54-.64a.61.61,0,0,1,0-.19,45.4,45.4,0,0,0-.36-4.95c-.1-2.82-.7-5.63-.94-8.45,0-.3-.12-.6-.14-.94a.42.42,0,0,1,.27-.43.41.41,0,0,1,.49.15,6.59,6.59,0,0,1,1.06,2.14A19.78,19.78,0,0,1,155.27,241.39Z"/><path class="cls-6" d="M80.59,150l-.3.17a4.73,4.73,0,0,1-2.45.75,129.09,129.09,0,0,0-17.42,3.48,3,3,0,0,1-2,.18l-.06-.15c.48-4.57.49-9.17,1-13.75.4-3.35.82-6.7,1.26-10,.26-2.06.75-4.1,1.15-6.16a4.55,4.55,0,0,1,3.58,2.18c.32.79-.15,1.73.44,2.49.94-.11,1.08-1.19,1.88-1.46A11.63,11.63,0,0,1,73,130.2c.19.94.76.86,1.41.49a23.92,23.92,0,0,1,4.42,1.71c.24.16.41.35.31.67a48.76,48.76,0,0,0,.62,6.93,9.07,9.07,0,0,1,.09,1.28c0,2.64.57,5.24.44,7.88A2.56,2.56,0,0,0,80.59,150Z"/><path class="cls-12" d="M94.38,78.45A52.47,52.47,0,0,0,99.91,80a2.68,2.68,0,0,1,2.65.77,27.23,27.23,0,0,0,5.18,1.82,2.7,2.7,0,0,1,2.56.77,24.76,24.76,0,0,0,5.55,2.19c.88-.35,1.39.28,2,.77,1.94.81,3.75,1.93,5.89,2.26a3.29,3.29,0,0,1,2.25,1.11,52.44,52.44,0,0,0,5.56,2.91,2.88,2.88,0,0,1,2.57,1.16l3.46,2.4c.3.22.62.41.89.64a.94.94,0,0,1,.42.94c-.13.45-.53.46-.94.45a10.49,10.49,0,0,1-2.37-.19,8.59,8.59,0,0,0-2.5-.53c-1.4.42-2.58-.47-3.88-.67-1.44-.37-2.81-.94-4.3-1.26-1.31-.46-2.63-.88-3.94-1.32-1.48-.53-3-.94-4.44-1.53s-2.73-.94-4.11-1.44c-1.2-.43-2.42-.78-3.6-1.27S106,89,104.68,88.45s-2.51-.83-3.78-1.41-2.7-.94-4-1.53-2.7-.94-4-1.54-2.81-1.13-4.2-1.7c-1.08-.39-2.08-1-3.19-1.33-1.35-.83-3.07-1.09-4.08-2.48l-2-1.24a.85.85,0,0,1-.47-.94c.11-.45.51-.47.87-.48h3.1a3.61,3.61,0,0,1,3.75.73l4.44,1.13A3,3,0,0,1,94.38,78.45Z"/><path class="cls-12" d="M126.66,118.55c.54.37,1.1.74,1.62,1.15a1,1,0,0,1,.39.94c-.11.4-.51.47-.93.47h-2.11c-2.09.27-3.95-.71-5.93-1-.62-.19-1.27-.33-1.87-.49-1.88-.73-3.94-1.14-5.88-1.88-1-.38-2.08-.71-3.13-1-1.82-.62-3.63-1.23-5.42-1.93-.94-.36-1.88-.62-2.82-1-1.8-.81-3.69-1.38-5.51-2.15-.67-.24-1.3-.58-2-.79-1.88-.69-3.62-1.53-5.44-2.25a13.42,13.42,0,0,0-2.17-.94c-1.79-.94-3.67-1.69-5.51-2.54-.75-.43-1.54-.79-2.32-1.17-1.24-.8-2.56-1.45-3.82-2.22a3.73,3.73,0,0,1-1.7-1.61c-.07-.56-.11-1.1.68-1.19,2.11-1.07,4.08.07,6.11.38.83.26,1.7.46,2.55.66,2,.65,4,1.17,5.94,1.82.79.27,1.57.56,2.35.79,1.88.65,3.83,1.27,5.74,1.88.67.26,1.31.6,2,.8,1.82.56,3.56,1.34,5.37,1.87.88.44,1.82.73,2.73,1.11,1.81.79,3.68,1.44,5.49,2.21a28.7,28.7,0,0,0,2.67,1.16c1.87.81,3.69,1.65,5.5,2.55.63.3,1.31.49,1.94.81C123.05,116.13,125.28,116.68,126.66,118.55Z"/><path class="cls-12" d="M123.68,126.34c.44.66,1.8.87,1.33,1.88-.36.78-1.44.26-2.18.38h-.19c-2,.69-3.75-.31-5.58-.59a16,16,0,0,1-2.27-.57c-1.82-.51-3.65-1-5.47-1.5-1.15-.39-2.3-.77-3.45-1.13-1.82-.67-3.67-1.22-5.51-1.87-1-.4-2.07-.72-3.11-1.06-1.66-.72-3.38-1.28-5.06-1.88-.84-.29-1.66-.66-2.49-.94-1.67-.62-3.28-1.4-4.94-2a20.14,20.14,0,0,0-2.66-1.15c-1.7-.94-3.56-1.51-5.27-2.42a14.1,14.1,0,0,1-2.25-1.32,3.24,3.24,0,0,1-.51-.6c-.34-.58-.64-1.18-1-1.73-1.27-1.88-2-2.1-4.15-1.49a.5.5,0,0,1-.5-.18c-.2-1.31-.2-1.32.94-1.43h.87c2-.55,3.88.46,5.81.75a20.49,20.49,0,0,0,2.46.73c2,.61,4,1.1,5.9,1.81.77.28,1.56.54,2.34.79,1.88.66,3.82,1.27,5.73,1.87.59.23,1.19.43,1.79.62,1.76.71,3.55,1.34,5.32,2,1,.36,2,.82,3,1.14,1.88.71,3.7,1.44,5.55,2.17.93.43,2,.83,3,1.19,1.8.93,3.75,1.61,5.57,2.54.62.3,1.3.49,1.93.8C120.32,124.17,122.37,124.67,123.68,126.34Z"/><path class="cls-6" d="M73.23,97.1c-4.2,1.13-6.57-.5-8.6-3.61a12.85,12.85,0,0,1-1.88-6.69,14.54,14.54,0,0,1,1.75-8,8.37,8.37,0,0,1,3.67-3.54,6,6,0,0,1,6.56.62,10,10,0,0,1,4.08,7.43c-.59.58-1,1.21-.51,2.07a22.84,22.84,0,0,1-2.24,5.71c-.83.44-1.65.88-1,2a8.12,8.12,0,0,1-1.12,3.62A.73.73,0,0,1,73.23,97.1Z"/><path class="cls-5" d="M58.07,68.11c4,.47,8,.08,12,.44,2.9.25,5.79.12,8.68.29,7.45.42,14.93.1,22.39.42,14.07.6,28.14.07,42.22.32,10.55.18,21.1-.56,31.66-.4h4.08c-.22.12-.43.34-.64.32a37.53,37.53,0,0,0-5.89.47c-4.34.45-8.72.42-13,1a1.09,1.09,0,0,1-.36,0,85.62,85.62,0,0,0-9.61.42c-7,.34-14.07.31-21.1.4-1.77,0-3.55.39-5.34.3-7.65-.37-15.31-.21-23-.44-3-.09-6-.2-9-.32a28.65,28.65,0,0,0-3.7-.27c-.63-.25-1.26.17-1.88,0-2.66-.44-5.37-.27-8-.69-1.7-.25-3.46-.25-5.14-.38-4-.27-7.8-.81-11.68-1.25A5.6,5.6,0,0,1,58.07,68.11Z"/><path class="cls-13" d="M78.81,132.68a24.85,24.85,0,0,1-4.45-1.88c-.66.43-1.08,0-1.51-.39-1.53-1.27-3.53-1.6-5.2-2.59a2.79,2.79,0,0,1-2.57-1.12c-.94-1-2.22-1.46-3.29-2.23a1.4,1.4,0,0,1-.1-.35c0-.53-.07-1.06.42-1.44a1.71,1.71,0,0,1,.3-.09c1.08-.72,2.18-.06,3.26,0,1.32.31,2.64.65,4,1s2.71.66,4,1.11a22.83,22.83,0,0,1,4.7,1.59,1.91,1.91,0,0,1,.45.78C78.81,128.93,79.9,130.8,78.81,132.68Z"/><path class="cls-13" d="M64,116.73c0-.12-.05-.23-.06-.35-.21-.51.11-.83.4-1.16h0c1.07-.73,2.19-.4,3.29-.14a40,40,0,0,1,4.86,1,6.65,6.65,0,0,0,3.81.51,2.4,2.4,0,0,1,.7,1.17c.33,1.17.6,2.36.81,3.55,0,.46.09.92.17,1.37a1.07,1.07,0,0,1-.24.79c-1.32.52-2.34-.34-3.45-.77a24.26,24.26,0,0,0-3.34-1.58,42.75,42.75,0,0,1-4.4-2.3C65.58,118.24,64.42,117.89,64,116.73Z"/><path class="cls-14" d="M76.11,107.8a52.32,52.32,0,0,1-5.84-1.12,27.65,27.65,0,0,1,1.3-4.36,9.41,9.41,0,0,0,.57-2.28c1.65,1.5,3.76,2.27,5.52,3.61A6.57,6.57,0,0,1,76.11,107.8Z"/><path class="cls-14" d="M73.23,97.1l.4-.39a21.05,21.05,0,0,1,3.05-2.52,4.62,4.62,0,0,1,3.76,2.06c-.25,1.21-.38,2.46-1.34,3.38a6.27,6.27,0,0,1-2.27-.39,19.39,19.39,0,0,0-4-.4C72.9,98.3,73.31,97.73,73.23,97.1Z"/><path class="cls-15" d="M81.37,78.5a32.05,32.05,0,0,1,4.11,2.14,6.12,6.12,0,0,1-1.14,3.91,14.08,14.08,0,0,1-5.07-.69.45.45,0,0,1-.16-.54A45,45,0,0,1,81.37,78.5Z"/><path class="cls-6" d="M64,116.73l2.61,1.87a4.44,4.44,0,0,1-.78,4.45c-1.16.18-2.23-.45-3.38-.39A19.9,19.9,0,0,1,64,116.73Z"/><path class="cls-16" d="M67.64,115.58a10.15,10.15,0,0,0-3.29-.37c.48-1.11,1-2.23,1.46-3.33a16.05,16.05,0,0,1,2.62-3.76h.34a.94.94,0,0,1,.93.94A25.65,25.65,0,0,1,67.64,115.58Z"/><path class="cls-15" d="M85.51,71.09l.74-.54c.64-.42,1-.2,1.16.51a30.87,30.87,0,0,1-.84,5.56l-3.75-.74a12.65,12.65,0,0,1,2.06-3.67A2.83,2.83,0,0,0,85.51,71.09Z"/><path class="cls-17" d="M79.11,83.29a.57.57,0,0,0,.07.33,1.89,1.89,0,0,1,.23,2c-.82.75-.94-.16-1.36-.54-1.08-1.13-1-1.29.76-1.87Z"/><path class="cls-18" d="M62.11,122.69c-.06.51.13,1.09-.42,1.45-.38-.2-.75-.46-.59-.94S61.66,122.69,62.11,122.69Z"/><path class="cls-19" d="M64.3,115.19a2,2,0,0,1-.4,1.16c-.28-.15-.57-.35-.48-.68S63.92,115.19,64.3,115.19Z"/><path class="cls-6" d="M80.64,153.59c0,5.27.62,10.54.35,15.82-.66.21-.94-.25-1.22-.69-.06-.67-.57-.63-1-.65A2.81,2.81,0,0,1,77,166.58c0-1-.62-.8-1.21-.71a3.9,3.9,0,0,1-1.93-1.19c.27-1.41-.55-1.28-1.47-1a1.83,1.83,0,0,1-1.33-1.17c-.16-.47.2-.94.08-1.41-.63.07-.94.74-1.57.8-.78-.12-.94.36-.94,1a2.76,2.76,0,0,1-1.56,1.65c-.56.12-1.08.27-.94,1a2.66,2.66,0,0,1-1.55,1.92,1,1,0,0,0-.78,1,3,3,0,0,1-1.55,1.88c-.67,0-.66.55-.67,1A2.22,2.22,0,0,1,60.27,173a1.5,1.5,0,0,1-1.47-.64c-.69-3-.21-6.15-.39-9.22v-2.38a6.73,6.73,0,0,1,2.92-1.88c5.7-2.53,11.41-5,17.72-5.63.53,0,1.1-.25,1.6.13Z"/><path class="cls-6" d="M80.64,187.62c.29,3.57-.48,7.1-.36,10.65l-.07.14a4.52,4.52,0,0,1-2.81.56,88.77,88.77,0,0,0-13.24.63,2.59,2.59,0,0,1-2.42-.52,20.72,20.72,0,0,1-1-5c-.51-2.93-.79-5.91-1.17-8.86a5,5,0,0,1,0-.55c.8-.2,1.1.47,1.56.88a2.32,2.32,0,0,0,.87.68,9.27,9.27,0,0,1,1.73,1.18,2.79,2.79,0,0,0,.94.69,13,13,0,0,1,2.09,1.6,1.61,1.61,0,0,0,1.13.74,5.41,5.41,0,0,1,2.24,1.6c0,1,.56,1.13,1.38.94a2.1,2.1,0,0,1,1.55.94c.25.39,0,.83.11,1.26.55,0,.94-.58,1.48-.6.76.2.94-.13.71-.81C76.9,191.53,78.22,189.1,80.64,187.62Z"/><path class="cls-20" d="M61.71,199.08c2.09.27,4.15-.24,6.2-.43,3.07-.29,6.12-.24,9.18-.29,1,0,2.09,0,3.13,0-.47,1-.23,2.12-.34,3.18-5.93-.1-11.59,1.47-17.31,2.72-.34-1.67-.33-3.42-1.24-4.95Z"/><path class="cls-13" d="M64.32,167.22a2.81,2.81,0,0,0,1.49-1.87c.14-.59.64-.83,1.1-1.11a4.34,4.34,0,0,0,1.5-1.51c.28-.46.53-.94,1.1-1.11.57-.46,1.12-.94,1.71-1.36a.48.48,0,0,1,.66.09.45.45,0,0,1,0,.5c-.2.51-.39,1-.58,1.53a9.17,9.17,0,0,1-.88,1.94c-.37.5-.71,1-1.08,1.53a12.38,12.38,0,0,0-1.1,1.51,16.13,16.13,0,0,1-1.11,1.5c-.36.49-.71,1-1.11,1.48s-.71,1-1.11,1.49-.71,1-1.12,1.48-.71,1-1.11,1.5-.74,1-1.14,1.52a18.62,18.62,0,0,1-1.22,1.59c-.46.35-.71,1.24-1.55.61a3.06,3.06,0,0,1-.08-3.18,2.38,2.38,0,0,1,.06-.37,3.28,3.28,0,0,1,1.44-2.21l1.12-1.49c.19-.41.18-.94.74-1.12.76-.4,1-1.24,1.48-1.88C63.75,167.9,63.81,167.41,64.32,167.22Z"/><path class="cls-21" d="M58.73,175.36a9.43,9.43,0,0,0,.4,3.34.44.44,0,0,1,.11.45,7.34,7.34,0,0,1-1.1,1.33c-.51.53-.78,1.32-1.62,1.51a3.8,3.8,0,0,0-.51.15c-.77.38-1,.13-.85-.66.07-.29.15-.59.23-.88a1.74,1.74,0,0,1,.77-1.5,3.42,3.42,0,0,0,1.07-1.87,1.21,1.21,0,0,1,.76-1.16Z"/><path class="cls-22" d="M61,185.76l-1.41-1.07c-.17-.29-.31-.65-.74-.6-.67.06-.73-.4-.76-.89,0-.72.15-1.36,1-1.55.46.55.93,1,1.71.48a1.71,1.71,0,0,1,1.5,1A3,3,0,0,1,61,185.76Z"/><path class="cls-23" d="M59.11,181.68l-1,1.52L56.55,182c.53-.55.72-1.4,1.46-1.79a1.46,1.46,0,0,1,1.23.62.81.81,0,0,1,.06.68Z"/><path class="cls-24" d="M56.19,179.1a2.18,2.18,0,0,1-.77,1.5,4,4,0,0,1-1.84-2.55A7.24,7.24,0,0,1,56.19,179.1Z"/><path class="cls-25" d="M60.23,172.78A9,9,0,0,1,58.78,175v-2.61Z"/><path class="cls-26" d="M58,176.12a2.36,2.36,0,0,1-.76,1.15c-.53-.38-1.1-.73-1-1.6A2.78,2.78,0,0,1,58,176.12Z"/><path class="cls-20" d="M80.59,153.44c-1.16.55-2.42.33-3.62.55a62.91,62.91,0,0,0-12.2,3.93c-2.16.87-4.26,1.87-6.38,2.87l.08-6.2a58.37,58.37,0,0,1,9.09-2.45c3.84-.89,7.75-1.41,11.66-2a6.86,6.86,0,0,1,1.11,0A7.65,7.65,0,0,1,80.59,153.44Z"/><path class="cls-8" d="M182.38,244v1.29c0,.42.23,1.17-.46,1.21s-.66-.66-.76-1.12q-1.08-4.7-2.12-9.34c-.27-1.19-.51-2.4-.72-3.6,0-.28-.09-.66.31-.77s.59.19.71.46a28.59,28.59,0,0,1,1.4,3.21A29,29,0,0,1,182.38,244Z"/><path class="cls-8" d="M176.06,247.32c-.94-1.73-.64-3.56-.94-5.27s-.55-3.39-.94-5.07a24.15,24.15,0,0,1-1.12-5.34,3.14,3.14,0,0,1,1.82,2,21,21,0,0,1,2,7.08,23.7,23.7,0,0,1,0,4.91A2.28,2.28,0,0,1,176.06,247.32Z"/><path class="cls-8" d="M188.72,243.51c0,.8-.05,1.6-.13,2.4a.59.59,0,0,1-.62.56h0c-.31,0-.37-.29-.43-.52a23.51,23.51,0,0,1-.6-2.51c-.46-3.29-1.39-6.49-2.14-9.72,0-.19-.13-.36-.15-.54s-.1-.65.26-.8.59.15.72.41a34.91,34.91,0,0,1,1.87,4A18.7,18.7,0,0,1,188.72,243.51Z"/><path class="cls-8" d="M190.37,233.87a2.66,2.66,0,0,1,1.32,1.42,20,20,0,0,1,1.88,9.64v.74c0,.25-.15.66-.47.73s-.54-.25-.61-.57c-.34-1.36-.7-2.73-.94-4.1-.44-2.09-.84-4.19-1.22-6.29A2.71,2.71,0,0,1,190.37,233.87Z"/><path class="cls-12" d="M79.15,85.89V83.66a19,19,0,0,1,5.14.74c1.21-.56,2.27.21,3.38.34,1.52.53,3.11.85,4.62,1.4,1.24.39,2.51.66,3.75,1.12,1.57.54,3.14,1.06,4.69,1.56,1,.37,2.07.72,3.11,1.05,1.47.45,2.81,1.15,4.34,1.56,1.29.44,2.54.94,3.76,1.46,1.41.58,2.86,1.06,4.28,1.63,1.22.55,2.47,1,3.76,1.49,1.42.73,2.93,1.27,4.42,1.88,1.15.64,2.4,1.11,3.57,1.72,1.28.79,2.82,1.12,3.88,2.29l2.37,1.7a3.91,3.91,0,0,1,.83.68c.51.65.29,1.13-.54,1.27-1.17.2-2.29-.26-3.43-.33-1.94.57-3.63-.51-5.44-.77-.93-.27-1.87-.47-2.75-.76-1.7-.47-3.37-1.08-5.1-1.5-1.13-.39-2.28-.76-3.42-1.11-1.73-.65-3.49-1.17-5.23-1.77a22.35,22.35,0,0,0-3-1.13L101,96.3c-.73-.34-1.51-.53-2.26-.82-1.71-.76-3.47-1.4-5.21-2.09-1-.46-1.93-.88-2.93-1.25-1.57-.83-3.23-1.35-4.78-2.21-.93-.55-2-1-3-1.52a29.39,29.39,0,0,1-3.68-2A.44.44,0,0,1,79.15,85.89Z"/><path class="cls-12" d="M80.28,96.23c-1.21-.64-2.25-1.66-3.75-1.79a.57.57,0,0,1-.12-.47c.48-.93.94-1.77,1.37-2.69a.74.74,0,0,1,.69-.3c1.1.34,2.22.63,3.35.86.88.24,1.77.43,2.64.71,1.8.47,3.54,1.13,5.35,1.56.94.32,1.88.65,2.88.94,1.81.62,3.65,1.2,5.47,1.88.77.25,1.48.65,2.27.87,1.73.55,3.39,1.28,5.11,1.88.93.44,2,.8,3,1.2,1.75.69,3.56,1.27,5.25,2.09.94.43,2,.84,2.95,1.19,1.68.82,3.41,1.51,5.1,2.29a14.35,14.35,0,0,0,2.63,1.17c1.64.87,3.44,1.49,4.77,2.89.73.54,1.48,1.07,2.19,1.64.38.3.85.64.7,1.19s-.78.46-1.25.49a8.85,8.85,0,0,1-2.71-.34c-1.95.64-3.64-.56-5.47-.79-.82-.26-1.66-.42-2.48-.68-1.88-.54-3.75-1.13-5.63-1.78-.94-.32-1.88-.64-2.88-.94-2-.73-4-1.32-6-2-.86-.29-1.67-.72-2.54-.94-1.87-.75-3.75-1.36-5.55-2.11-.66-.26-1.3-.58-2-.8q-2.73-1.12-5.46-2.18c-.83-.31-1.58-.79-2.43-1.07a55.62,55.62,0,0,0-5.29-2.46C81.73,97.23,80.77,97.08,80.28,96.23Z"/><path class="cls-12" d="M77.31,121.54l-.75-3.75c1.5-.59,2.7.6,4.08.69,1.06.32,2.12.7,3.18,1,1.65.57,3.3,1.11,5,1.64.76.3,1.54.53,2.32.77,1.71.6,3.44,1.18,5.13,1.88,1.2.43,2.4.84,3.57,1.32,1.55.53,3.08,1.08,4.61,1.67,1.2.61,2.53.94,3.75,1.47,1.72.74,3.43,1.5,5.18,2.15.84.32,1.61.77,2.42,1.12,1.56.82,3.47,1,4.59,2.63.49.36.94.75,1.48,1.1s.76.49.65,1-.64.49-1,.5h-2.21c-1.64.71-3.13-.3-4.69-.39-1.13-.3-2.28-.44-3.41-.76-1.55-.44-3.14-.77-4.69-1.29s-3.1-.86-4.64-1.31a41.25,41.25,0,0,0-4.26-1.33l-3.92-1.3a34.86,34.86,0,0,0-4.08-1.48c-1.18-.42-2.32-.93-3.53-1.32s-2.63-1.07-4-1.56-2.68-1.46-4.27-1.11a1,1,0,0,1-.12-1.46.46.46,0,0,1,.07-.07v-.7C77.35,122.35,77.66,121.84,77.31,121.54Z"/><path class="cls-12" d="M78.81,132.68c.16-2-.57-3.92-.42-5.91,1.18-.63,2.22.14,3.31.36,1.29.48,2.54,1.05,3.87,1.43s2.41.8,3.62,1.22c1.21.61,2.54.94,3.76,1.45,1.51.6,3,1.13,4.54,1.76,1.23.52,2.48,1,3.75,1.49,1.58.64,3.11,1.36,4.69,2,1.29.78,2.75,1.16,4.07,1.88.94.55,2,1,3,1.52,1.2.85,2.9.93,3.63,2.48a12.78,12.78,0,0,1,1.71,1.32c.57.6.33,1.19-.48,1.25a4.7,4.7,0,0,1-2.67-.28,2.54,2.54,0,0,1-3-.41l-4.8-1.44a2,2,0,0,1-2.68-.76,70.26,70.26,0,0,1-7-2.2,1.53,1.53,0,0,1-1.88-.43,49.65,49.65,0,0,0-7-2.5c-1.24-.32-2.38-1.09-3.63-1.53l-3.09-1.14c-.82.26-1.34-.25-1.87-.76a2.68,2.68,0,0,0-1.13-.39Z"/><path class="cls-12" d="M149.7,109.73a5,5,0,0,0,2.29-1.55c.4-.43.71-1,1.46-.8l2.6-1.81a1.2,1.2,0,0,1,1.13-.77,12.57,12.57,0,0,0,3.25-1.88,1.3,1.3,0,0,1,1.21-.76,14.63,14.63,0,0,0,3.28-1.47c.37-.51.76-1,1.5-.76l2.23-.88c.42-.17.94-.35,1.21,0s-.18.76-.45,1.06c-.48.55-1,1.09-1.5,1.63-.29.87-1.16,1.14-1.73,1.72-.63.37-1.18.88-1.79,1.28a22.84,22.84,0,0,0-2.33,1.71c-.61.39-1.22.78-1.81,1.19-.74.48-1.48.94-2.21,1.47l-1.81,1.21c-.75.48-1.47,1-2.21,1.48s-1.35.94-2,1.36-1.36.88-2.07,1.26a19.55,19.55,0,0,0-2,1.33c-.67.45-1.41.81-2.1,1.24l-1.88,1.13a8.36,8.36,0,0,1-2.76,1.1c-.57,0-1.22.75-1.67.12s.45-1.09.73-1.64c.06-.11.13-.21.18-.32a2.34,2.34,0,0,1,1.55-1.51,9.9,9.9,0,0,0,2.16-1.82c.33-.62.59-1.32,1.52-1.14.82-.75,2-1.15,2.57-2.16A2.26,2.26,0,0,1,149.7,109.73Z"/><path class="cls-12" d="M154.88,139.74l-1.76.51c-.23.06-.48.21-.67,0a.67.67,0,0,1,.08-.85c.29-.38.61-.76.93-1.14a5.92,5.92,0,0,1,2.35-2.43c.39-.31.77-.63,1.17-.94.87-.66,1.76-1.3,2.6-2L161,132c.84-.62,1.65-1.27,2.55-1.82.4-.25.79-.53,1.19-.79.88-.58,1.75-1.16,2.61-1.75.53-.36,1.07-.71,1.59-1.1.94-.6,1.88-1.24,2.82-1.87.61-.42,1.28-.71,1.88-1.13.83-.52,1.69-1,2.52-1.54.44-.23.88-.45,1.31-.7.94-.43,1.72-1.46,3-1.19.54.06,1-.5,1.67-.19.23.86-.58,1.32-.88,2-.26.94-1.07,1.44-1.73,2.06a6.64,6.64,0,0,0-1.48,1.21c-.73.66-1.55,1.17-2.28,1.8s-1.42,1.06-2.15,1.57-1.3.94-2,1.43-1.41,1.07-2.16,1.54-1.47.93-2.21,1.46c-.54.36-1.07.71-1.6,1.08a20,20,0,0,0-2.07,1.25c-.61.41-1.23.8-1.87,1.15a26.16,26.16,0,0,1-2.36,1.35,15.13,15.13,0,0,0-2.17,1.17A5.19,5.19,0,0,1,154.88,139.74Z"/><path class="cls-12" d="M172.41,107.78h.35c.68,0,1.5-.87,2-.06.38.64-.73.94-.93,1.6-.47,1.32-1.7,1.88-2.66,2.73a10.3,10.3,0,0,1-.94.81c-.94.58-1.87,1.29-2.81,2-.54.35-1.08.7-1.59,1.09-.81.67-1.71,1.21-2.57,1.81-.54.36-1.08.72-1.61,1.09a23,23,0,0,0-2.87,1.8c-.28.18-.56.34-.82.52-.94.59-1.94,1.2-2.94,1.76a8.61,8.61,0,0,0-1.48.83c-.94.6-1.88,1-2.81,1.55-.44.24-.86.56-1.31.8-1.17.29-2.12,1.33-3.46,1.08-.84.06-1.17-.33-1-1.15a5.71,5.71,0,0,1,2.32-2.47c.46-.36.85-.79,1.32-1.13.93-.67,1.87-1.39,2.81-2.12.41-.27.84-.54,1.24-.83.94-.62,1.76-1.35,2.72-1.88.41-.26.81-.55,1.22-.81l2.62-1.75a13.14,13.14,0,0,1,1.46-.88c.94-.58,1.88-1.31,2.92-1.88.56-.33,1.1-.7,1.69-1,.94-.42,1.81-1.13,2.81-1.57.45-.21.89-.44,1.34-.68C170.39,108.62,171.25,107.82,172.41,107.78Z"/><path class="cls-12" d="M169.42,103.68c.94,0,1.75-.77,2.89-.55a4.28,4.28,0,0,1-1.45,2.09,7,7,0,0,1-2.07,2.4,12.8,12.8,0,0,0-1.57,1.17c-.84.57-1.63,1.2-2.44,1.82-.52.39-1.08.74-1.61,1.13a21.51,21.51,0,0,0-2.55,1.82c-.48.3-.94.6-1.41.93-.94.64-2,1.16-2.88,1.8-.35.21-.67.46-1,.69-.94.64-2,1.15-2.9,1.8a14.6,14.6,0,0,0-1.48.86,27.33,27.33,0,0,1-2.82,1.52l-1.58.8c-1,.36-1.88,1.32-3.1,1.08-1.06-.15-1.06-.15-.74-1.45.24-1.1,1.33-1.4,2-2.1a13.78,13.78,0,0,1,1.49-1.26c.8-.55,1.46-1.28,2.29-1.77a18.52,18.52,0,0,0,1.88-1.42,18.87,18.87,0,0,0,2.15-1.51c.51-.39,1.06-.73,1.58-1.12.75-.46,1.48-.94,2.22-1.47a13.37,13.37,0,0,1,1.87-1.15,24,24,0,0,0,2.25-1.46c.72-.38,1.42-.8,2.11-1.25s1.54-.94,2.35-1.39,1.49-.72,2.22-1.11A6.9,6.9,0,0,1,169.42,103.68Z"/><path class="cls-12" d="M162,141.16a9.69,9.69,0,0,0-2.59,1.49c-.3.64-.93.64-1.48.72l-1.94.51c-.33.09-.7.4-.94-.07s.08-.68.31-.93l1.06-1.25c.28-.85,1-1.26,1.66-1.75a20.84,20.84,0,0,1,1.88-1.49c.6-.51,1.28-.94,1.87-1.45a17.45,17.45,0,0,1,1.8-1.23c.6-.42,1.46-.94,2.2-1.47.55-.34,1.07-.7,1.61-1.07l2.21-1.48c.75-.49,1.48-1,2.27-1.45s1.24-.78,1.88-1.13c.83-.51,1.69-1,2.52-1.52s1.75-.94,2.63-1.42c.52-.25,1-.49,1.55-.77a5.83,5.83,0,0,1,2.31-.86h.35c.45.08,1.06-.26,1.3.29s-.47.78-.61,1.22c-.38.61-.65,1.32-1.47,1.49a6.21,6.21,0,0,0-2.22,1.82,1.9,1.9,0,0,1-1.45,1.06c-1.15.93-2.89,1.16-3.25,3a.52.52,0,0,1-.44.22c-.88-.44-1.4.29-2,.65-1.88,1.19-3.67,2.43-5.51,3.66-.2.49-.67.57-1.1.72-1,.63-2.23.85-3,1.87C163.07,141,162.45,140.92,162,141.16Z"/><path class="cls-12" d="M175.35,111.86c.56-.2,1.1-.57,1.71-.13.1.67-.44,1.09-.64,1.65a12.47,12.47,0,0,1-2.63,2.5,8.67,8.67,0,0,0-.94.76c-.94.69-1.88,1.45-2.82,2.09a8.37,8.37,0,0,0-1.19.86c-1.06.77-2.17,1.46-3.25,2.2-.42.28-.85.53-1.28.78-.94.55-1.88,1.19-2.75,1.78a7.48,7.48,0,0,1-.84.54c-1.09.58-2.1,1.3-3.22,1.82-.43.24-.83.54-1.26.79a22,22,0,0,0-3,1.71,10,10,0,0,1-1.42.62c-1.16.32-2.12,1.36-3.47,1a.66.66,0,0,1-.7-.59.65.65,0,0,1,0-.2c.1-1.46,1.42-1.93,2.3-2.76.43-.37.82-.8,1.28-1.13.94-.64,1.8-1.37,2.82-2a14.34,14.34,0,0,0,1.35-1.06c.94-.59,1.87-1.2,2.73-1.8a9.13,9.13,0,0,1,.84-.53l3-2c.49-.31,1-.51,1.48-.86a24.46,24.46,0,0,1,2.94-1.78c.51-.26.94-.59,1.47-.88,1.07-.48,2-1.16,3-1.73l1.14-.58C173.05,112.58,173.93,111.36,175.35,111.86Z"/><path class="cls-12" d="M177.93,116h.35c.33,0,.67-.42.94,0s0,.65-.17.94l-.37.59c-.38,1.08-1.34,1.66-2.1,2.41a7.49,7.49,0,0,0-1.15.86,29.15,29.15,0,0,1-2.5,1.88c-.66.46-1.27,1-2,1.42-.88.58-1.74,1.18-2.61,1.78-.48.29-.93.6-1.4.94-.89.56-1.75,1.15-2.62,1.74-.4.27-.82.53-1.21.81-.94.59-1.95,1.2-2.95,1.77a8.7,8.7,0,0,0-1.49.83c-.83.55-1.75.94-2.62,1.41-.52.26-1,.52-1.56.8-1.08.49-2.08,1.2-3.35,1.15s-1.27-.14-.77-1.42,1.51-1.78,2.45-2.53c.45-.35.85-.79,1.32-1.13.83-.56,1.6-1.22,2.45-1.76a8.21,8.21,0,0,0,1.18-.85c.94-.66,1.88-1.28,2.81-1.87.35-.22.67-.47,1-.71,1.09-.68,2.14-1.42,3.2-2.13.35-.21.73-.39,1.09-.6,1-.58,1.87-1.3,2.9-1.82.58-.34,1.11-.7,1.68-1,1.05-.66,2.14-1.24,3.25-1.8a9.19,9.19,0,0,0,.85-.52C175.62,116.51,176.58,115.65,177.93,116Z"/><path class="cls-14" d="M123.68,126.34a54.56,54.56,0,0,1-5.21-3,3.22,3.22,0,0,1,1.15-3.69,41.48,41.48,0,0,1,6,1.47Z"/><path class="cls-14" d="M120.37,134.17l-4.86-2.28a4.94,4.94,0,0,1,1.49-4.38l5.63,1.11C121.89,130.48,121.13,132.32,120.37,134.17Z"/><path class="cls-14" d="M129.28,110.43a26.71,26.71,0,0,1-4.87-2.65c-.55-1.55.4-2.6,1.23-3.69a53.23,53.23,0,0,1,5.48,1.13Z"/><path class="cls-14" d="M122.58,112.24c1.94.07,3.75.94,5.63,1.17-.29,1.79-1.14,3.4-1.56,5.14l-5.54-3.24C121.21,114.1,121.23,112.86,122.58,112.24Z"/><path class="cls-15" d="M116.66,142.31,113,140.15c0-1.54,0-3.09,1.43-4.15,1.66-.05,3.21.6,4.84.77Z"/><path class="cls-15" d="M131.89,101.9a29,29,0,0,1-4.14-1.87c-.31-1.57.66-2.59,1.54-3.66l3.76,1.11A15.77,15.77,0,0,1,131.89,101.9Z"/><path class="cls-27" d="M153,131.56l-2.63,2.26a15.74,15.74,0,0,1-2.19-3l3.38-1.45C152.41,129.88,153.16,130.43,153,131.56Z"/><path class="cls-28" d="M151.19,135.24a18.46,18.46,0,0,1,3.32-1.45,2.68,2.68,0,0,1,1.49,2.26l-2.56,2.16Z"/><path class="cls-29" d="M94.38,78.45l-3.33-.79c.68-1.09,1.35-2.19,2.06-3.26.23-.34.53-.76,1-.63s.56.71.62,1.19C94.91,76.18,94.35,77.28,94.38,78.45Z"/><path class="cls-27" d="M143.39,123l3-1.46c.79.5,1.48,1,1.14,2.14L144.93,126Z"/><path class="cls-28" d="M150.1,127.43c-.77.94-1.95,1.52-2.57,2.61-.53-.94-1.07-1.93-1.61-2.9l3.37-1.5C149.86,126.1,150.55,126.51,150.1,127.43Z"/><path class="cls-28" d="M177.93,116l-3.32,1.49a1.6,1.6,0,0,1-1.13-1.88c1-.67,1.7-1.8,2.92-2.23Z"/><path class="cls-30" d="M176.4,119.67a9.32,9.32,0,0,1,2.31-2.25c.88.69,1.11,1.81,1.79,2.64-1,.54-1.94,1-2.94,1.48a1.51,1.51,0,0,1-1.17-1.79S176.4,119.7,176.4,119.67Z"/><path class="cls-28" d="M168.59,107.45a8.6,8.6,0,0,1,2.27-2.23c.47.89,1.28,1.55,1.55,2.56a7.88,7.88,0,0,1-3,1.51,1.28,1.28,0,0,1-.93-1.55A1,1,0,0,1,168.59,107.45Z"/><path class="cls-28" d="M175.35,111.86a23.2,23.2,0,0,0-3.34,1.5,1.88,1.88,0,0,1-1.1-1.53l2.92-2.51Z"/><path class="cls-31" d="M112.22,144.19c1-.12,2,.48,3,.41a7.93,7.93,0,0,1-1.78,3c-.23.27-.48.64-.94.53s-.6-.61-.65-1a2.88,2.88,0,0,1,.1-1.27A7.41,7.41,0,0,0,112.22,144.19Z"/><path class="cls-28" d="M182.78,124.5a4.47,4.47,0,0,1-2.23,1.12,1.5,1.5,0,0,1-1.21-1.74l0-.14a6.57,6.57,0,0,1,1.88-1.87A5.14,5.14,0,0,1,182.78,124.5Z"/><path class="cls-32" d="M102.56,80.72A7.23,7.23,0,0,1,99.91,80a6.49,6.49,0,0,1,2-2.82c.5-.45.94-.31,1,.36A5.68,5.68,0,0,1,102.56,80.72Z"/><path class="cls-28" d="M144.88,119.66a12.92,12.92,0,0,1-2.23,1.88c-.73-.61-.78-1.65-1.48-2.29a12.92,12.92,0,0,1,2.56-1.44A1.71,1.71,0,0,1,144.88,119.66Z"/><path class="cls-33" d="M104.74,142a11.31,11.31,0,0,0,2.67.76,6,6,0,0,1-1.49,2.28c-.29.31-.6.7-1.08.56s-.46-.67-.45-1.08A5.05,5.05,0,0,1,104.74,142Z"/><path class="cls-28" d="M169.42,103.68a4.48,4.48,0,0,1-2.3,1.19c-.93-.11-1-.84-1.09-1.57a4.24,4.24,0,0,1,1.87-1.48A3.4,3.4,0,0,1,169.42,103.68Z"/><path class="cls-34" d="M142,115.94a4.45,4.45,0,0,1-1.54,1.51c-.54-1.19-1.29-2.33-1-3.84C140.82,113.83,141.34,114.94,142,115.94Z"/><path class="cls-28" d="M158.25,140.08l-1.88,1.51-1.5-1.88c.59-.75,1.57-.7,2.31-1.14C158.14,138.64,158.37,139.24,158.25,140.08Z"/><path class="cls-26" d="M134.07,93.71a10.55,10.55,0,0,1-2.56-1.16A10.09,10.09,0,0,1,133,90.67c.58-.45,1.09-.26,1.15.47S134.07,92.85,134.07,93.71Z"/><path class="cls-31" d="M110.3,83.29a6.26,6.26,0,0,1-2.56-.78,9.11,9.11,0,0,1,1.44-1.88c.58-.46,1.09-.27,1.15.46A20.15,20.15,0,0,1,110.3,83.29Z"/><path class="cls-29" d="M125.94,89.64c-.79-.27-1.74-.25-2.25-1.11.29-.46.55-.94.87-1.39a1,1,0,0,1,.94-.42c.44.12.43.54.44.94C126,88.3,125.94,89,125.94,89.64Z"/><path class="cls-35" d="M145.64,113l-1.52,1.15a5.58,5.58,0,0,1-.71-1.88c0-.63.43-.94.93-.58A4.17,4.17,0,0,1,145.64,113Z"/><path class="cls-36" d="M182.35,127.51a3.92,3.92,0,0,1,1.48-1.49c.12.52.27,1,.36,1.56.07.35.11.73-.31.94a.73.73,0,0,1-.81-.2C182.8,128.06,182.59,127.77,182.35,127.51Z"/><path class="cls-37" d="M117.8,86.27a5.49,5.49,0,0,1-2-.77,6,6,0,0,1,.39-.81c.26-.35.58-.69,1.06-.58s.47.64.49,1S117.79,85.89,117.8,86.27Z"/><path class="cls-38" d="M149.7,109.73a2,2,0,0,1-1.49,1.09c-.59-.58-.31-1.37-.78-2.08C148.59,108.62,149.08,109.34,149.7,109.73Z"/><path class="cls-35" d="M178.68,130.39c.3-.61.94-.76,1.45-1.06a2.22,2.22,0,0,1,.28,1.94C179.59,131.42,179.24,130.7,178.68,130.39Z"/><path class="cls-39" d="M95.89,139.36c.69-.09,1.25.33,1.88.43-.14.58-.42,1.1-1.1,1S95.87,140,95.89,139.36Z"/><path class="cls-40" d="M166.42,100l-1.5.76c.07-.58-.77-1.29-.07-1.68S166,99.46,166.42,100Z"/><path class="cls-40" d="M80.3,133.43a5.27,5.27,0,0,1,1.87.76,2.53,2.53,0,0,1-.31.42c-.84.75-1.1.7-1.46-.31A3.69,3.69,0,0,1,80.3,133.43Z"/><path class="cls-34" d="M157.9,143.34a2.54,2.54,0,0,1,1.48-.73,2.1,2.1,0,0,1,.32.61c.09.7-.14,1.06-.89.65A3.94,3.94,0,0,1,157.9,143.34Z"/><path class="cls-41" d="M153.45,107.38c-.5.24-.82.81-1.46.8V108c0-.52-.34-1.23.26-1.46S153.13,107,153.45,107.38Z"/><path class="cls-42" d="M161.64,102.2a2.26,2.26,0,0,1-1.21.76c-.18-.49-.51-.94-.18-1.59A1.54,1.54,0,0,1,161.64,102.2Z"/><path class="cls-43" d="M157.18,104.8c-.26.42-.73.55-1.13.77a2.28,2.28,0,0,1,0-.37c0-.34-.13-.79.32-.93S157,104.5,157.18,104.8Z"/><path class="cls-44" d="M166.4,138.64a2.68,2.68,0,0,1,1.1-.71C167.43,139,167.4,139,166.4,138.64Z"/><path class="cls-45" d="M162,141.16a2.24,2.24,0,0,1,1.43-.7C163.35,141.53,162.56,141.16,162,141.16Z"/><path class="cls-46" d="M101.09,175c-.87,5.47-1.24,11-1.8,16.5-.15,1.53-.06,3.08-.12,4.62-.06,1.15-.55,1.75-1.4,1.88s-1.49-.31-2-1.32a4,4,0,0,1-.32-1.63c-.37-6.95-1.5-13.81-2.46-20.64-.8-5.63-1.5-11.34-2.66-17a1.6,1.6,0,0,1,.93-2,1.39,1.39,0,0,1,1.9.54.72.72,0,0,1,.09.2,11.85,11.85,0,0,1,1.1,3.33,121.25,121.25,0,0,1,1.88,14.07c.19,2.45.48,4.9.72,7.34.29.44.08.94.13,1.29.12-.35-.12-.86.19-1.28.48-4,1-7.92,1.39-11.9a56.48,56.48,0,0,0,.45-6.62,7.06,7.06,0,0,1,.08-1.66,1.57,1.57,0,0,1,1.7-1.37,1.69,1.69,0,0,1,1.82,1.25,2.74,2.74,0,0,1,.1.94c-.2,4.69,1,9.29,2,13.86.43,2,.94,3.94,1.44,5.91.33.4.28,1,.64,1.36a.73.73,0,0,1,0-1c.62-4.64,1.31-9.26,1.81-13.92.24-2.38.51-4.77.53-7.19,0-1.72.27-3.44.3-5.16,0-1.19.94-1.69,2.28-1.49a1.5,1.5,0,0,1,1.5,1.5,1.49,1.49,0,0,1-.14.63,17.31,17.31,0,0,0-.57,4.75,146.15,146.15,0,0,1-2.16,16.67c-.56,3.15-1,6.32-1.34,9.51s-.55,6.13-.64,9.21a1.89,1.89,0,0,1-.59,1.5c-.66.55-1.29.45-1.87-.3a6.67,6.67,0,0,1-1-2.38q-1.29-4.92-2.09-9.94c-.61-3.34-1.05-6.69-1.56-10-.24-.23-.14-.55-.2-.82A1.17,1.17,0,0,1,101.09,175Z"/><path class="cls-46" d="M125.07,159.82c2,0,2.23.21,2.39,2.16.53,6.19,1.34,12.35,2.12,18.5.21,1.65.2,3.31.35,5,.27,3.08.94,6.08,1.38,9.12a10.37,10.37,0,0,1,.15,1.1c0,1.42-.3,1.93-1.31,2-1.4.12-2.24-.43-2.27-1.78,0-1.67-.28-3.32-.45-5s-.37-1.88-2-2.13c-.79-.14-1.58-.28-2.38-.38-1.15-.15-1.37,0-1.59,1.2-.27,1.46-.51,2.91-.72,4.37a7.45,7.45,0,0,1-.72,2.48c-.56,1.06-1.12,1.3-2.07.94a1.56,1.56,0,0,1-1-2.16c1.16-4.69,2.32-9.45,3.21-14.23a133.7,133.7,0,0,0,2.51-17,22,22,0,0,1,.35-2.55C123.27,159.93,123.43,159.82,125.07,159.82Z"/><path class="cls-46" d="M182.25,164c.33,3-.37,6-.25,9,.05,1.63,0,1.65,1.62,1.7a5.28,5.28,0,0,1,2.2.2,1.51,1.51,0,0,1,.85,2,1.53,1.53,0,0,1-.85.86,3.61,3.61,0,0,1-2.34,0c-1.19-.24-1.61.07-1.41,1.21.72,4-.3,8-.07,12,.05,1,0,2.1,0,3.15,0,.71.34,1,1,.94a6.12,6.12,0,0,0,1.65-.16,4.14,4.14,0,0,1,2.71.22,1.2,1.2,0,0,1,.94,1.25,1.26,1.26,0,0,1-.85,1.3,4.66,4.66,0,0,1-1.61.36h-4.63a1.94,1.94,0,0,1-2.17-1.67,1.81,1.81,0,0,1,0-.52c0-4.94-.68-9.86-.36-14.79q.38-5.82.35-11.65a14.89,14.89,0,0,0-.32-4,2,2,0,0,1,0-.55c-.18-3.36.94-4.51,4.25-4.22a9.46,9.46,0,0,1,4,1.19c.68.4,1.18.94.86,1.82a1.77,1.77,0,0,1-2,1.07c-.67-.12-1.32-.35-2-.53A2.3,2.3,0,0,0,182.25,164Z"/><path class="cls-46" d="M139.34,173.64v1.12c0,1.55,0,1.55,1.52,1.78a3.13,3.13,0,0,1,.72.17c.77.17,1.42.44,1.45,1.4a1.64,1.64,0,0,1-1.46,1.64,3.75,3.75,0,0,1-.94.09c-1.74.06-1.75.06-1.75,1.88v13a8.14,8.14,0,0,1,0,1.48c-.22,1.2-.79,1.64-1.88,1.55s-1.88-.72-1.64-2c.5-2.87.17-5.77.55-8.65a57.08,57.08,0,0,0,.15-6.67c.07-5.05.48-10.09.41-15.16,0-1.14.26-2.31.28-3.48a1.49,1.49,0,0,1,1.36-1.62,1.22,1.22,0,0,1,.27,0,17.31,17.31,0,0,1,5.87.47,6,6,0,0,1,1.34.62,1.25,1.25,0,0,1,.67,1.39,1.44,1.44,0,0,1-1.24,1.22,7.43,7.43,0,0,1-2.4,0c-.23-.06-.47-.18-.7-.22-2-.35-2.18-.19-2.13,1.76C139.81,168.12,139.42,170.87,139.34,173.64Z"/><path class="cls-46" d="M153.08,173.66V174c0,.73-.24,1.54.17,2.17s1.26.23,1.87.43c1.27.38,1.69.76,1.6,1.66s-.73,1.34-1.88,1.53c-.7.14-1.6-.43-2.09.26s-.19,1.56-.2,2.34v12.2a9.4,9.4,0,0,1,0,1.3c-.17,1.29-.78,1.82-1.94,1.7a1.57,1.57,0,0,1-1.69-1.46,1.47,1.47,0,0,1,0-.51c.56-6.2.56-12.43.8-18.64.13-3.57.23-7.15.29-10.72,0-1.54.41-3,.32-4.6a1.41,1.41,0,0,1,1.26-1.57h.21a17.73,17.73,0,0,1,6.24.5,4.6,4.6,0,0,1,.68.31c.69.35,1.34.78,1.12,1.68s-.94,1.2-1.81,1.27a20.18,20.18,0,0,1-3.47-.42c-.94-.06-1.24.23-1.21,1.12A83.4,83.4,0,0,1,153.08,173.66Z"/><path class="cls-46" d="M163.77,190.73c.12-5.43.32-10.87.55-16.28.14-3.41-.52-6.76-.2-10.14a7.9,7.9,0,0,1,.51-2.89c.37-.72.83-1.26,1.71-1.18s1.2.75,1.22,1.8-.34,2.34-.33,3.5a77.34,77.34,0,0,0,.2,10.54,18.86,18.86,0,0,1-.12,3.68c-.22,4.12-.59,8.25-.47,12.38a4.29,4.29,0,0,0,.26,1.07c.44,1.54,1.17,2.11,2.72,1.69a6.52,6.52,0,0,1,2.91.19,1.43,1.43,0,0,1,1.26,1.58c0,.88-.73,1.26-1.52,1.35a5.14,5.14,0,0,1-1.46-.15,9.55,9.55,0,0,0-4.57,0c-1.83.49-2.65-.22-2.66-2.16C163.76,194.07,163.77,192.4,163.77,190.73Z"/><path class="cls-47" d="M80.64,187.62c-.93,1.31-2.29,2.31-3,3.83-.12.3-.25.54-.59.62-.94.27-1.27,1.09-1.64,1.88a1,1,0,0,1-.76.76l-2,1.26c-.62-.77.17-1.37.12-2a3.62,3.62,0,0,1,.82-2,9.93,9.93,0,0,0,.71-1.22A20.88,20.88,0,0,1,75.58,189a7.89,7.89,0,0,0,.8-1.12c.47-.63.88-1.3,1.39-1.88.3-.38.54-.8.85-1.17s.76-1.13,1.25-1.62c.46-.3.93-.88,1.43-.11a5.21,5.21,0,0,1-.6,4.18A1.91,1.91,0,0,1,80.64,187.62Z"/><path class="cls-48" d="M80.7,187.27c0-1.5.55-3,.28-4.45a.77.77,0,0,1-.16-.71c.3-.7.94-1.12,1.34-1.77a11,11,0,0,1,1.24-1.49,12.48,12.48,0,0,0,1.43-1.74c.26-.3.55-.58.83-.87.55-.44.94-1.12,1.69-1.27a2.65,2.65,0,0,0,.54-.13c.8-.36,1-.07.8.71a4.46,4.46,0,0,1-.22.5c.24.74-.18,1.15-.74,1.48a2.74,2.74,0,0,0-.84,1.53c-.12.44-.22.93-.71,1.11a7,7,0,0,0-1.88,2.58,1.85,1.85,0,0,1-.7.74C82.55,184.69,82,186.26,80.7,187.27Z"/><path class="cls-48" d="M84.72,172.42c1.11-.39,1.11-.39,1.11,1.1a3.52,3.52,0,0,1-.81,2,10.7,10.7,0,0,0-.72,1.23,18.48,18.48,0,0,0-1.1,1.88c-.41.64-.83,1.29-1.27,1.87-.32.26-.55.82-1.1.34-.57-1.16-.08-2.45-.43-3.63-.18-.26-.43-.47-.61-.74a1.47,1.47,0,0,1-.11-.46v-.24a3,3,0,0,1,.28-.64,2.07,2.07,0,0,1,.28-.38,1.37,1.37,0,0,1,.4-.24h.24a.73.73,0,0,1,.35.28c.19.29.42.27.66,0l.83-.85A5.79,5.79,0,0,1,84.72,172.42Z"/><path class="cls-49" d="M84.72,172.42a5.63,5.63,0,0,1-1.88,1.88c-.74.17-1.18-.26-1.59-.79.15-1.08.31-2.15,1.58-2.54Z"/><path class="cls-50" d="M79.92,168.67l1.07.72a2,2,0,0,1,.09.35,1.33,1.33,0,0,1,.25.72,2.33,2.33,0,0,1-.13.52,2.19,2.19,0,0,1-1.65,1.17,2.18,2.18,0,0,1-1.23-.94A3.48,3.48,0,0,1,79.92,168.67Z"/><path class="cls-31" d="M84.72,175.4a6.48,6.48,0,0,1,1.11-1.88A4.57,4.57,0,0,1,87.35,175a4.74,4.74,0,0,1-1.42,1.47C85.33,176.34,84.68,176.25,84.72,175.4Z"/><path class="cls-51" d="M81,170.93v-.4a1.13,1.13,0,0,1,.74-.39c1-.37,1-.35,1.07.79a11.76,11.76,0,0,0-1.43,2.54.38.38,0,0,1-.54,0l0,0A2.3,2.3,0,0,1,81,170.93Z"/><path class="cls-43" d="M87.73,177.56l.74-1.47a1.88,1.88,0,0,1,.94,1.62C88.82,178.05,88.3,177.46,87.73,177.56Z"/><path class="cls-52" d="M86.22,180.21a1.27,1.27,0,0,1,.71-1.12,2.48,2.48,0,0,1,.56,1.32A.94.94,0,0,1,86.22,180.21Z"/><path class="cls-53" d="M107,181.65V183a1.73,1.73,0,0,1-.67-1.71Z"/><path class="cls-54" d="M81.78,170.14a.73.73,0,0,1-.74.39v-.77A.88.88,0,0,1,81.78,170.14Z"/><path class="cls-55" d="M97.34,180.92a2.35,2.35,0,0,1-.14,1.26c-.33-.42-.18-.85-.18-1.27A1.13,1.13,0,0,0,97.34,180.92Z"/><path class="cls-56" d="M83.63,183.53a1.31,1.31,0,0,1,.7-.74C84.39,183.32,84.13,183.54,83.63,183.53Z"/><path class="cls-57" d="M101.09,175a1.11,1.11,0,0,1,.15-.87c.26.25.2.56.2.85Z"/><path class="cls-58" d="M65.08,126.74a10.46,10.46,0,0,1,2.57,1.11,4.7,4.7,0,0,1-1.26,1.82c-.29.24-.59.47-1,.28s-.33-.5-.33-.8C65.06,128.32,65.08,127.54,65.08,126.74Z"/><path class="cls-59" d="M72.85,130.44l1.51.4a3.58,3.58,0,0,1-.31.45c-.25.24-.47.63-.94.46s-.27-.6-.31-.94A1.22,1.22,0,0,0,72.85,130.44Z"/><path class="cls-15" d="M92.21,86.6l-4.57-1.44a3.15,3.15,0,0,1,1.2-3.29c1.32.71,2.81,1,4.1,1.88A2.1,2.1,0,0,1,92.21,86.6Z"/><path class="cls-60" d="M129.29,96.32,127.75,100c-1.07-.69-2.44-.84-3.38-1.81a2.53,2.53,0,0,1,.5-3C126.46,95.11,127.79,96,129.29,96.32Z"/><path class="cls-15" d="M124.87,95.19c-.17.94-.33,2-.5,3A11.33,11.33,0,0,1,120,96.29c-.48-1.22.22-1.94,1.09-2.58C122.31,94.28,123.75,94.4,124.87,95.19Z"/><path class="cls-60" d="M88.84,81.85c-.4,1.1-.79,2.2-1.2,3.29a23.47,23.47,0,0,1-3.3-.74,10.57,10.57,0,0,1,1.16-3.75C86.72,80.67,87.64,81.64,88.84,81.85Z"/><path class="cls-27" d="M100.66,89.23l-4.8-1.5A2.77,2.77,0,0,1,97,85.16l4.1,1.5A2,2,0,0,1,100.66,89.23Z"/><path class="cls-27" d="M116.24,94.81a27.8,27.8,0,0,1-4.42-1.52,2.21,2.21,0,0,1,.76-2.5l4.11,1.49A2,2,0,0,1,116.24,94.81Z"/><path class="cls-60" d="M116.24,94.81c.17-.86.33-1.71.49-2.56l4.39,1.47A12.91,12.91,0,0,0,120,96.31,9.14,9.14,0,0,1,116.24,94.81Z"/><path class="cls-61" d="M97,85.16a12.32,12.32,0,0,1-1.16,2.56l-3.65-1.13a8.05,8.05,0,0,0,.73-2.89A16,16,0,0,1,97,85.16Z"/><path class="cls-27" d="M108.15,91.83c-1.58-.25-2.93-1.19-4.49-1.5-.13-1-.15-1.87,1.1-2.22a19.32,19.32,0,0,1,4.1,1.48A1.74,1.74,0,0,1,108.15,91.83Z"/><path class="cls-61" d="M108.15,91.83c.23-.74.47-1.49.71-2.24l3.75,1.17-.79,2.53Z"/><path class="cls-62" d="M104.76,88.11c-.68.59-.66,1.52-1.1,2.22l-3-1.1c0-.88.52-1.67.46-2.56C102.29,87.25,103.65,87.37,104.76,88.11Z"/><path class="cls-15" d="M84.34,110.38c-1.94-.63-4-1-5.87-1.87-.09-1.47,0-2.87,1.43-3.76a24.67,24.67,0,0,1,5.63,2.56A3.92,3.92,0,0,1,84.34,110.38Z"/><path class="cls-15" d="M116.62,122.69a26.54,26.54,0,0,1-5.55-2.55,2.11,2.11,0,0,1,.81-2.64,25.49,25.49,0,0,1,5.9,1.87A3.84,3.84,0,0,1,116.62,122.69Z"/><path class="cls-27" d="M92.45,113a34.48,34.48,0,0,1-5.86-1.88,2.82,2.82,0,0,1,1.07-2.93l5.63,2.24A2.49,2.49,0,0,1,92.45,113Z"/><path class="cls-15" d="M82.52,97.36c2,.38,3.63,1.73,5.56,2.28a2,2,0,0,1-.76,2.53l-5.94-1.87A2.81,2.81,0,0,1,82.52,97.36Z"/><path class="cls-27" d="M114.75,109.71l5.63,1.87c.31,1.24.2,2.33-1.11,3a57.09,57.09,0,0,1-5.58-2.53A2.11,2.11,0,0,1,114.75,109.71Z"/><path class="cls-27" d="M108.08,118.94a26,26,0,0,1-5.56-2.24,1.49,1.49,0,0,1,.76-2.23,47.66,47.66,0,0,1,5.63,1.88A2.11,2.11,0,0,1,108.08,118.94Z"/><path class="cls-27" d="M99.63,115.63c-2-.33-3.75-1.35-5.62-1.88a2.47,2.47,0,0,1,1.07-2.54l5.63,2.21C100.85,114.38,100.82,115.28,99.63,115.63Z"/><path class="cls-27" d="M90.33,100.76A55.42,55.42,0,0,1,96,103c.48.77.17,1.33-.45,1.83L89.6,103A2,2,0,0,1,90.33,100.76Z"/><path class="cls-27" d="M105.92,106.74c1.88.85,4,1.19,5.9,2.17a1.78,1.78,0,0,1-.78,1.88,28.35,28.35,0,0,1-5.54-2.25C105.06,107.79,105.43,107.24,105.92,106.74Z"/><path class="cls-27" d="M97.77,103.73a33.84,33.84,0,0,1,5.56,2.24.94.94,0,0,1-.13,1.32.9.9,0,0,1-.3.17c-2-.3-3.75-1.28-5.63-1.88A1.31,1.31,0,0,1,97.77,103.73Z"/><path class="cls-63" d="M79.88,104.8c-.73,1.16-.85,2.54-1.43,3.75a3.92,3.92,0,0,1-2.34-.74,14.26,14.26,0,0,1,1.56-4.15A5,5,0,0,1,79.88,104.8Z"/><path class="cls-61" d="M108.08,118.94l.82-2.59a9.74,9.74,0,0,1,3,1.1c-.26.88-.54,1.76-.81,2.64A7.34,7.34,0,0,1,108.08,118.94Z"/><path class="cls-64" d="M82.52,97.36c-.37,1-.76,2-1.14,3a6.24,6.24,0,0,1-2.27-.73,9.57,9.57,0,0,1,1.17-3.39A5.16,5.16,0,0,1,82.52,97.36Z"/><path class="cls-65" d="M87.66,108.2l-1.07,2.93a9.17,9.17,0,0,1-2.27-.75,7.87,7.87,0,0,1,1.15-3A5.07,5.07,0,0,1,87.66,108.2Z"/><path class="cls-62" d="M116.62,122.69a15.9,15.9,0,0,1,1.16-3.36,3.25,3.25,0,0,1,1.88.41,19.76,19.76,0,0,0-1.16,3.69A3.6,3.6,0,0,1,116.62,122.69Z"/><path class="cls-66" d="M111,110.79a5.55,5.55,0,0,1,.78-1.88,14.85,14.85,0,0,1,2.93.83l-1,2.26A7.65,7.65,0,0,1,111,110.79Z"/><path class="cls-66" d="M99.63,115.63c.64-.61.64-1.53,1.07-2.23.83.44,1.88.43,2.58,1.07a5.25,5.25,0,0,0-.76,2.23A6.06,6.06,0,0,1,99.63,115.63Z"/><path class="cls-62" d="M119.28,114.5a12,12,0,0,0,1.11-3,5.69,5.69,0,0,1,2.19.7c-.49,1-.94,2.05-1.46,3.07A4.83,4.83,0,0,1,119.28,114.5Z"/><path class="cls-66" d="M90.33,100.76c-.26.72-.52,1.45-.77,2.18l-2.24-.74.76-2.53Z"/><path class="cls-67" d="M95.1,111.18,94,113.72c-.49-.29-1.15-.25-1.57-.72a8.69,8.69,0,0,1,.83-2.57Z"/><path class="cls-67" d="M102.9,107.46a2.81,2.81,0,0,0,.43-1.49c.94-.16,1.68.65,2.58.75.07.65-.35,1.19-.41,1.82A5.27,5.27,0,0,1,102.9,107.46Z"/><path class="cls-68" d="M97.77,103.73c-.15.61-.31,1.21-.46,1.82a5.52,5.52,0,0,1-1.88-.72l.49-1.84A5.93,5.93,0,0,1,97.77,103.73Z"/><path class="cls-69" d="M67.64,115.58a29.15,29.15,0,0,1,1.88-6.65c2,.23,3.32,1.56,4.84,2.59l.36.37v.26c-.55,1.6-.79,3.37-2.21,4.55A32.43,32.43,0,0,0,67.64,115.58Z"/><path class="cls-15" d="M80.64,118.94c-1.44-.06-2.68-.88-4.08-1.11l-.48-1.08a1.36,1.36,0,0,1-.31-.82A3.75,3.75,0,0,1,77,113c1.65,1,3.61,1.34,5.17,2.54A3.88,3.88,0,0,1,80.64,118.94Z"/><path class="cls-15" d="M113.3,130.82a31.82,31.82,0,0,1-5.17-2.19c-.1-1.18,0-2.31,1.12-3a24.84,24.84,0,0,1,5.55,1.47A4.74,4.74,0,0,1,113.3,130.82Z"/><path class="cls-15" d="M88.78,121.54c-1.8-.21-3.41-1.11-5.16-1.52-.18-1.3-.1-2.51,1.13-3.32,1.49.09,2.62,1.14,4,1.48a11.61,11.61,0,0,1,1.17.42C90.36,119.88,89.6,120.73,88.78,121.54Z"/><path class="cls-27" d="M104.43,127.14c-1.72-.25-3.21-1.21-4.9-1.58a2.43,2.43,0,0,1,.81-2.91,24.27,24.27,0,0,1,5.58,1.81C105.71,125.51,105.78,126.71,104.43,127.14Z"/><path class="cls-15" d="M96.23,124.15a32.35,32.35,0,0,1-5.18-1.79c0-1.06,0-2.09,1.13-2.69a24.62,24.62,0,0,1,5.17,1.88A2.44,2.44,0,0,1,96.23,124.15Z"/><path class="cls-61" d="M104.43,127.14c.8-.72.64-2,1.45-2.68a9.37,9.37,0,0,1,3.37,1.15l-1.12,3C106.86,128.15,105.49,128.07,104.43,127.14Z"/><path class="cls-61" d="M84.75,116.7c-.59,1-.62,2.26-1.13,3.32l-3-1.08,1.5-3.39A4.6,4.6,0,0,1,84.75,116.7Z"/><path class="cls-61" d="M96.23,124.15c.36-.87.74-1.74,1.12-2.61a9.56,9.56,0,0,1,3,1.15,29.34,29.34,0,0,0-.81,2.92C98.49,125,97.22,124.85,96.23,124.15Z"/><path class="cls-70" d="M74.35,111.52c-1.88-.44-3.24-1.71-4.84-2.59l-.74-.78c1.57-1,2.54-.94,3.75.26A6.46,6.46,0,0,1,74.35,111.52Z"/><path class="cls-62" d="M113.3,130.82c.49-1.25,1-2.5,1.5-3.75l2.2.42-1.49,4.38Z"/><path class="cls-65" d="M92.18,119.67c-.51.84-.49,1.88-1.13,2.69a4.91,4.91,0,0,1-2.27-.82c.39-.94.78-2,1.16-2.94A17,17,0,0,1,92.18,119.67Z"/><path class="cls-71" d="M77,113,76.13,116a3.84,3.84,0,0,1-1.42-4h0Z"/><path class="cls-72" d="M78.39,91.09l-.34.39A1.5,1.5,0,0,1,76,91.3a1.37,1.37,0,0,1-.15-.21c.44-2.09,1.74-3.85,2.24-5.92l1.1.72v.41A4.07,4.07,0,0,1,78.39,91.09Z"/><path class="cls-73" d="M75.81,91.09a7.13,7.13,0,0,0,2.24.39,4,4,0,0,1-1.48,2.6c-.94.17-1.4-.47-1.87-1.11a4.53,4.53,0,0,1-.3-.46c-.51-.94-.45-1.14.47-1.37A4.24,4.24,0,0,1,75.81,91.09Z"/><path class="cls-74" d="M74.73,93l1.88,1.11a2.16,2.16,0,0,0,0,.36,5,5,0,0,1-3,2.27C73.79,95.41,74.74,94.33,74.73,93Z"/><path class="cls-75" d="M65.79,123c.25-1.48.52-3,.78-4.45,1.62.45,2.87,1.64,4.42,2.23a4.1,4.1,0,0,1-1.45,3.32Z"/><path class="cls-76" d="M69.54,124.12c.47-1.11.93-2.21,1.45-3.32a16.29,16.29,0,0,1,3.33,1.49,3,3,0,0,1-.73,2.95A17.27,17.27,0,0,0,69.54,124.12Z"/><path class="cls-58" d="M73.59,125.24a12,12,0,0,1,.73-2.95,8.29,8.29,0,0,0,3.35,1.1c.06.5-.15,1.07.29,1.5a.94.94,0,0,1,.15,1.32l-.15.14Z"/><path class="cls-77" d="M78,126.35v-1.46c.18-.68.55-.85,1.2-.55.94.45,2,.86,3,1.3a1.47,1.47,0,0,1-.41,1.82c-1.15,0-2.17-.57-3.31-.69Z"/><path class="cls-78" d="M74.71,111.91a22.27,22.27,0,0,0,1.42,4v.8c-.34.45-.65.82-1.33.56a22,22,0,0,0-2.25-.61L74,113.14A1.91,1.91,0,0,1,74.71,111.91Z"/><path class="cls-58" d="M77.31,121.54c.43.28.36.71.35,1.13C77.25,122.38,77.3,122,77.31,121.54Z"/><path class="cls-13" d="M61,185.76c0-1,1-1.61,1.14-2.59a1.53,1.53,0,0,1,.24-.93c.46-.69.94-1.37,1.36-2.07.29-.4.56-.81.83-1.23a19.7,19.7,0,0,0,1.62-2.22,9.45,9.45,0,0,1,.59-.82c.49-.56.86-1.22,1.39-1.75A7.47,7.47,0,0,0,69,173a14.71,14.71,0,0,0,1.4-1.75c.35-.47.78-.86,1.16-1.29s.87-1.21,1.39-1.73l.86-.86c.68-.55,1.12-1.38,2-1.65l.16-.07c.46-.22.83-.94,1.4-.49s-.19.87-.1,1.33a6.74,6.74,0,0,1-1.15,2.68c-.18.27-.36.55-.52.83-.49.68-.94,1.37-1.39,2.08-.25.33-.53.63-.78.93-.6.81-1.09,1.68-1.74,2.44l-.57.82a27.13,27.13,0,0,0-1.72,2.13,5.17,5.17,0,0,1-.49.56A20,20,0,0,1,67.21,181a5.68,5.68,0,0,0-.77.93,15.16,15.16,0,0,1-1.88,2c-.17.19-.35.37-.53.54-.77.65-1.32,1.58-2.35,1.87a.67.67,0,0,1-.73-.6Z"/><path class="cls-13" d="M79.92,168.67l-1.49,2.58a.45.45,0,0,1,.13.44,22.84,22.84,0,0,1-1.73,2.66,8.31,8.31,0,0,0-.73.93,15.59,15.59,0,0,1-1.48,2,6.22,6.22,0,0,0-.88,1.16c-.48.58-.94,1.18-1.36,1.78-.26.31-.56.6-.81.94a15.35,15.35,0,0,1-1.73,2.06c-.2.25-.37.53-.56.81-.54.63-1.12,1.23-1.72,1.81-.3.28-.59.57-.87.86a4.32,4.32,0,0,1-2.37,1.6.67.67,0,0,1-.75-.58.65.65,0,0,1,0-.14,5.56,5.56,0,0,1,.86-2.26,11.77,11.77,0,0,0,.77-1.21,19.11,19.11,0,0,1,1.45-2.21,7.39,7.39,0,0,0,.73-.94c.53-.63.94-1.37,1.48-2a4.57,4.57,0,0,0,.6-.79,16.33,16.33,0,0,1,1.75-2c.19-.34.49-.62.68-.94.47-.63.94-1.23,1.48-1.83a10.72,10.72,0,0,1,.87-1.14c.5-.64,1.14-1.15,1.66-1.78.2-.26.37-.54.57-.81.73-.64,1.12-1.76,2.35-1.67l.17-.07c.36-.17.66-.75,1.06-.46S80,168.26,79.92,168.67Z"/><path class="cls-13" d="M60.62,182.41c-1.09.67-1.09.67-1.51-.73h0c-.06-1.47.78-2.56,1.54-3.68.28-.41.57-.8.84-1.22a19.81,19.81,0,0,0,1.43-1.88c.28-.39.53-.82.84-1.2.47-.56.86-1.21,1.36-1.78.31-.38.55-.81.87-1.19A14.42,14.42,0,0,0,67.38,169a8.74,8.74,0,0,0,1.08-1.27A11.84,11.84,0,0,1,70,166a5.9,5.9,0,0,0,1.06-1.23c.39-.52.72-1.09,1.43-1.22l2-1.12a5,5,0,0,1-.57,2.21c.24.93-.6,1.48-.85,2.24-.22.34-.48.66-.7,1-.48.73-.93,1.44-1.44,2.17-.24.39-.54.76-.79,1.16-.37.59-.87,1.09-1.23,1.7-.31.43-.71.81-1,1.28s-.88,1.1-1.24,1.71l-.78.93c-.57.69-1.06,1.44-1.69,2.08-.2.26-.37.53-.55.81-.53.65-1.15,1.21-1.72,1.8A5.87,5.87,0,0,1,60.62,182.41Z"/><path class="cls-79" d="M72.85,166.79c.06-.94.72-1.5,1.13-2.22a4,4,0,0,1,1.88,1.12A6,6,0,0,1,74,167.57,1,1,0,0,1,72.85,166.79Z"/><path class="cls-80" d="M78.8,167.94l-2.2,1.87a.85.85,0,0,1-.78-.75,12,12,0,0,1,1.47-2.58C77.57,167.2,78.53,167.21,78.8,167.94Z"/><path class="cls-80" d="M72.5,163.49,71.36,165c-.61.08-1.16.09-1.11-.76a2.39,2.39,0,0,1,1.09-1.88C71.54,163,72.19,163,72.5,163.49Z"/><path class="cls-81" d="M69.51,161.63a2.32,2.32,0,0,1-1.12,1.11,3.45,3.45,0,0,0-.11-.54c-.35-.79-.07-1,.71-.79A3.38,3.38,0,0,1,69.51,161.63Z"/><path class="cls-82" d="M66.91,164.25a2.46,2.46,0,0,1-1.1,1.11C65.44,164.25,65.44,164.25,66.91,164.25Z"/><path class="cls-83" d="M62.09,170.17c-.22.39-.32.85-.75,1.12l-.16-.34c-.15-.27-.3-.59-.08-.85C61.44,169.67,61.76,170.1,62.09,170.17Z"/><path class="cls-84" d="M64.32,167.22c-.23.38-.33.85-.75,1.09C63.19,167.32,63.21,167.29,64.32,167.22Z"/><path class="cls-13" d="M81,170.93l.08,2.63a.47.47,0,0,1,.06.4,1.77,1.77,0,0,1-.5.68h0a3.23,3.23,0,0,0-.37.37h0c-.25.19-.17.55-.38.75h0a.89.89,0,0,0-.21.64,3.27,3.27,0,0,1-.75,1.47,22.1,22.1,0,0,0-1.38,2c-.24.34-.53.64-.78.94a16.46,16.46,0,0,1-1.38,1.74c-.21.26-.38.54-.56.8a25.78,25.78,0,0,0-1.76,2.15c-.27.31-.57.6-.85.94a12.75,12.75,0,0,0-1.39,1.72c-.39.43-.82.82-1.21,1.25-.65.46-.94,1.43-2,1.24-1,.37-1,.35-1.11-.75a4.93,4.93,0,0,1,1.13-2.46c.17-.27.36-.53.54-.79a14.36,14.36,0,0,1,1.43-2.18c.3-.38.54-.79.81-1.18.44-.71,1-1.33,1.43-2,.15-.2.3-.4.46-.59.58-.69,1.1-1.45,1.66-2.16a6.6,6.6,0,0,1,.59-.8c.65-.64,1.1-1.45,1.72-2.11a6.22,6.22,0,0,0,.88-1.16c.51-.65,1.14-1.18,1.68-1.8a2,2,0,0,1,.74-.63Z"/><path class="cls-47" d="M80.59,176.51c.62.45.35,1.11.37,1.69v2.73a.43.43,0,0,1,.14.44,21,21,0,0,1-1.45,2.17,18.27,18.27,0,0,0-1.12,1.5c-.35.41-.68.84-1,1.26a13.12,13.12,0,0,1-1.13,1.45,10.78,10.78,0,0,0-.79,1.12c-.44.54-.94,1-1.42,1.54s-.75,1-1.09,1.46a4.1,4.1,0,0,1-1.67,1.3c-.54.2-.94.7-1.63.62-.5-.63.21-1.13.14-1.7a3.65,3.65,0,0,1,.83-2c.29-.4.54-.82.8-1.22.47-.69.94-1.38,1.38-2.06.19-.29.36-.57.55-.85a19.18,19.18,0,0,0,1.61-2.21,7,7,0,0,1,.59-.81c.48-.57.87-1.2,1.36-1.76.3-.38.55-.8.85-1.18.51-.59.93-1.26,1.43-1.87A8,8,0,0,1,80.59,176.51Z"/><path class="cls-85" d="M68,187.62c-.49.74-.94,1.49-1.48,2.24a10.12,10.12,0,0,1-2.22-1.51l2.19-1.85C67.45,186.32,67.71,187,68,187.62Z"/><path class="cls-75" d="M71,190.25a6.68,6.68,0,0,1-1.13,1.88,9.55,9.55,0,0,1-2.23-1.49l1.88-1.52C70.58,188.72,71,189.22,71,190.25Z"/><path class="cls-79" d="M64.7,185.39a4.51,4.51,0,0,1-1.13,2.25l-1.88-1.15a8.56,8.56,0,0,1,2.21-2.2C64.49,184.44,64.85,184.73,64.7,185.39Z"/><path class="cls-86" d="M71.37,193.17a4,4,0,0,1,1.5-1.48.85.85,0,0,1,1.09.41,6.4,6.4,0,0,1-1.1,1.87Z"/><path class="cls-87" d="M74.7,194.69a1.3,1.3,0,0,1,.76-.76c.3.27.75.61.34,1S75,195.07,74.7,194.69Z"/><path class="cls-88" d="M61,178c-.45,1.32-1.51,2.33-1.88,3.69V181a1.59,1.59,0,0,1,0-1.88v-.43c.46-.28.53-.94,1.11-1.11A.54.54,0,0,1,61,178Z"/><path class="cls-86" d="M70.27,166.11,68.78,168c-.59.11-.86-.12-.75-.73.31-.55.46-1.22,1.13-1.5A.85.85,0,0,1,70.27,166.11Z"/><path class="cls-89" d="M70.27,166.11l-1.11-.4c.3-.54.45-1.21,1.11-1.48.25.41.72.53,1.1.76A2.44,2.44,0,0,1,70.27,166.11Z"/><path class="cls-90" d="M63.2,175a3.48,3.48,0,0,1-1.45,1.88c-.36-.12-.59-.31-.41-.73l1.14-1.51C62.88,174.42,63.25,174.3,63.2,175Z"/><path class="cls-90" d="M67.66,169.08A3.57,3.57,0,0,1,66.19,171c-.35-.12-.57-.32-.4-.72l1.12-1.57C67.32,168.51,67.53,168.73,67.66,169.08Z"/><path class="cls-90" d="M65.43,172c-.51.61-.73,1.43-1.47,1.87-.35-.13-.57-.31-.4-.73l1.13-1.5C65.1,171.48,65.29,171.7,65.43,172Z"/><path class="cls-91" d="M67.66,169.08l-.75-.39L68,167.21a1.36,1.36,0,0,0,.75.74A2.58,2.58,0,0,1,67.66,169.08Z"/><path class="cls-92" d="M61.34,176.18l.41.73A1.24,1.24,0,0,1,61,178l-.74-.39Z"/><path class="cls-93" d="M65.43,172l-.74-.38,1.1-1.46.4.72C66,171.32,65.84,171.78,65.43,172Z"/><path class="cls-94" d="M63.56,173.16l.4.74c-.23.38-.34.84-.76,1.09a.8.8,0,0,0-.72-.37A5.94,5.94,0,0,1,63.56,173.16Z"/><path class="cls-95" d="M59.09,179.13V181l-1.11-.8A2,2,0,0,1,59.09,179.13Z"/><path class="cls-96" d="M60.62,182.41a2.22,2.22,0,0,1,1.09-1.09c.55.16.94.45.78,1.09a.82.82,0,0,1-.4.76C61.58,183,61.26,182.39,60.62,182.41Z"/><path class="cls-15" d="M89.89,94.44c-2-.11-3.69-1-5.55-1.5a2.7,2.7,0,0,1,1.46-3.36,21.86,21.86,0,0,1,4.89,2.24A2.11,2.11,0,0,1,89.89,94.44Z"/><path class="cls-15" d="M121.87,106.74a29.84,29.84,0,0,1-5.2-2.23,2.28,2.28,0,0,1,1.11-2.63,20.45,20.45,0,0,1,5.21,1.49A3.46,3.46,0,0,1,121.87,106.74Z"/><path class="cls-27" d="M78.39,91.09a14.21,14.21,0,0,0,.8-4.79,10.12,10.12,0,0,1,3.7,1.87,4.73,4.73,0,0,1-1.19,4.08C80.59,91.85,79.23,92.26,78.39,91.09Z"/><path class="cls-15" d="M98.09,97.36l-5.57-1.88a2.27,2.27,0,0,1,1.09-2.57,26,26,0,0,1,5.23,2.17A2,2,0,0,1,98.09,97.36Z"/><path class="cls-27" d="M113.67,103.33c-1.68-.94-3.58-1.26-5.22-2.24-.53-1-.11-1.68.76-2.19a28,28,0,0,1,5.22,1.81A2.58,2.58,0,0,1,113.67,103.33Z"/><path class="cls-27" d="M105.56,100a54.46,54.46,0,0,1-5.29-1.88A1.62,1.62,0,0,1,101,96l.06,0a39.17,39.17,0,0,1,5.22,1.88A1.68,1.68,0,0,1,105.56,100Z"/><path class="cls-61" d="M81.7,92.21c.16-1.43.94-2.68,1.19-4.07a7.11,7.11,0,0,1,2.91,1.44,9.25,9.25,0,0,0-1.46,3.36Z"/><path class="cls-61" d="M121.87,106.74l1.12-3.37a6.57,6.57,0,0,1,2.67.76c0,1.36-1.19,2.35-1.24,3.7A3.73,3.73,0,0,1,121.87,106.74Z"/><path class="cls-61" d="M113.67,103.33a8.57,8.57,0,0,1,.76-2.62,8.4,8.4,0,0,1,3.33,1.13c-.36.87-.74,1.74-1.1,2.62Z"/><path class="cls-61" d="M93.61,93c-.36.85-.72,1.72-1.09,2.57-.84-.44-1.87-.44-2.63-1.09.26-.87.53-1.74.8-2.62C91.85,91.82,92.66,92.53,93.61,93Z"/><path class="cls-66" d="M105.56,100c.24-.74.49-1.48.75-2.21a9.71,9.71,0,0,1,2.9,1.1,6,6,0,0,0-.76,2.21A8.4,8.4,0,0,1,105.56,100Z"/><path class="cls-67" d="M101.09,95.92l-.8,2.2-2.2-.76c.25-.76.49-1.51.75-2.26A4.28,4.28,0,0,1,101.09,95.92Z"/><path class="cls-27" d="M109.9,138.64a13.94,13.94,0,0,1-4-1.87,2.55,2.55,0,0,1,.75-2.94c1.46.64,3.11.68,4.52,1.46A3.89,3.89,0,0,1,109.9,138.64Z"/><path class="cls-61" d="M109.9,138.64c.07-1.22,1-2.13,1.24-3.31a7.65,7.65,0,0,1,3.26.7c-.72,1.3-.71,2.81-1.43,4.14A9.61,9.61,0,0,1,109.9,138.64Z"/><path class="cls-60" d="M106.63,133.84c-.26.94-.5,1.95-.76,2.94-1.71-.35-3.18-1.34-4.82-1.88-.44-.94.09-1.63.79-2.2C103.51,132.75,105,133.62,106.63,133.84Z"/><path class="cls-97" d="M101.84,132.68l-.79,2.21-3.75-1.5a1.54,1.54,0,0,1,.4-2.15h0C99.07,131.76,100.59,131.81,101.84,132.68Z"/><path class="cls-98" d="M97.71,131.22a8.85,8.85,0,0,0-.4,2.16,45.94,45.94,0,0,1-4.47-1.88c-.3-.79-.1-1.33.77-1.54A36.62,36.62,0,0,1,97.71,131.22Z"/><path class="cls-97" d="M81.7,127.46a4,4,0,0,1,.41-1.82l4.11,1.5a1.62,1.62,0,0,1-.78,1.81A12.9,12.9,0,0,1,81.7,127.46Z"/><path class="cls-28" d="M93.61,130a3.25,3.25,0,0,0-.77,1.55c-1.26-.43-2.63-.53-3.69-1.47-.31-.62-.57-1.22.38-1.51A10.65,10.65,0,0,1,93.61,130Z"/><path class="cls-66" d="M89.53,128.57c-.46.41-.31.94-.38,1.51A13.42,13.42,0,0,1,85.4,129a5.81,5.81,0,0,1,.78-1.81A19.4,19.4,0,0,1,89.53,128.57Z"/><path class="cls-99" d="M148.61,116.68l-2.26,1.88c-.75-.39-1.14-.94-.79-1.8a6.17,6.17,0,0,1,2.27-1.18C148.66,115.55,148.69,116.13,148.61,116.68Z"/><path class="cls-23" d="M165,105.94a8,8,0,0,1-2.26,1.48,1.09,1.09,0,0,1-.76-1.16c.51-.87,1.45-1.21,2.2-1.78C164.78,104.76,165.38,105.07,165,105.94Z"/><path class="cls-100" d="M165,105.94c0-.62-.58-.94-.82-1.46.68-.32,1-1.11,1.88-1.19l1.09,1.58A4.22,4.22,0,0,1,165,105.94Z"/><path class="cls-100" d="M145.56,116.75l.79,1.8-1.47,1.11c-.39-.61-.76-1.22-1.15-1.82Z"/><path class="cls-49" d="M152.69,113.73a4,4,0,0,1-2.24,1.53c-.82,0-.86-.5-.75-1.12.82-.28,1.36-1,2.25-1.19C152.52,112.91,152.84,113.15,152.69,113.73Z"/><path class="cls-101" d="M160.52,108.54a4.34,4.34,0,0,1-2.23,1.5.86.86,0,0,1-.44-1.1,8,8,0,0,1,2.19-1.5C160.6,107.63,160.8,108,160.52,108.54Z"/><path class="cls-101" d="M156.44,111.13a4.4,4.4,0,0,1-2.24,1.52c-.55-.2-.75-.55-.45-1.09l2.25-1.5C156.48,110.27,156.74,110.59,156.44,111.13Z"/><path class="cls-68" d="M160.52,108.54l-.48-1.1a4.88,4.88,0,0,1,1.88-1.18,3.34,3.34,0,0,1,.76,1.16A4.92,4.92,0,0,1,160.52,108.54Z"/><path class="cls-102" d="M149.7,114.14a3.39,3.39,0,0,0,.75,1.12,3.32,3.32,0,0,1-1.87,1.42c-.25-.38-.38-.84-.78-1.11C148.28,114.85,149.08,114.61,149.7,114.14Z"/><path class="cls-103" d="M156.44,111.13c-.15-.35-.29-.72-.44-1.07a8.91,8.91,0,0,1,1.87-1.12c.15.36.29.73.44,1.1C157.7,110.5,157.23,111.07,156.44,111.13Z"/><path class="cls-104" d="M153.77,111.56c.15.36.31.72.46,1.09a2.84,2.84,0,0,1-1.51,1.08A1.6,1.6,0,0,0,152,113C152.35,112.22,153.16,112,153.77,111.56Z"/><path class="cls-97" d="M156,133.09a10.28,10.28,0,0,1,2.67-1.53c.94.08,1,.82,1.1,1.54-.64.94-1.77,1.38-2.6,2.15C156.49,134.67,155.57,134.23,156,133.09Z"/><path class="cls-28" d="M172.67,122.32l2.66-1.88c1.1.18,1.19.94,1.11,1.88a15,15,0,0,1-2.67,1.53C172.85,123.72,172.34,123.33,172.67,122.32Z"/><path class="cls-28" d="M160.09,130.79A12,12,0,0,1,163,129c.55.34.94.74.78,1.46l-2.6,1.88C160.55,132,159.88,131.72,160.09,130.79Z"/><path class="cls-105" d="M168.26,125.59a7.74,7.74,0,0,1,2.65-1.87c.79,0,.93.61,1.06,1.2a10.55,10.55,0,0,1-2.93,1.81C168.48,126.57,168,126.32,168.26,125.59Z"/><path class="cls-49" d="M164.15,128.27a14.88,14.88,0,0,1,2.64-1.88,1.14,1.14,0,0,1,.76,1.4.17.17,0,0,0,0,0,16.7,16.7,0,0,1-2.62,1.88C164.31,129.4,163.73,129.1,164.15,128.27Z"/><path class="cls-37" d="M179,126.45a14.18,14.18,0,0,1-2.52,1.42,1,1,0,0,1-.82-1.14c.51-.94,1.49-1.23,2.24-1.88A1.45,1.45,0,0,1,179,126.45Z"/><path class="cls-106" d="M156,133.09c.06.94,1.14,1.25,1.17,2.16l-1.14.8a9,9,0,0,1-1.49-2.26A2,2,0,0,1,156,133.09Z"/><path class="cls-107" d="M175.67,126.7c.42.28.56.75.82,1.14a8.32,8.32,0,0,1-2.61,1.47.78.78,0,0,1-.44-1l0-.07C174.18,127.69,174.72,126.9,175.67,126.7Z"/><path class="cls-68" d="M179,126.45l-1.1-1.56a1.93,1.93,0,0,1,1.46-1.1l1.18,1.88A2.71,2.71,0,0,1,179,126.45Z"/><path class="cls-108" d="M172,124.94c-.54-.24-.65-.86-1.06-1.2l1.76-1.42a2.34,2.34,0,0,0,1.1,1.47C173.31,124.4,172.54,124.57,172,124.94Z"/><path class="cls-107" d="M158.25,140.08c-.34-.51-.48-1.16-1.06-1.48a3.75,3.75,0,0,1,2.12-1.07,1.31,1.31,0,0,1,.77,1.11Z"/><path class="cls-109" d="M160.08,138.64a1.34,1.34,0,0,1-.77-1.1l2.24-1.49c.38.29.64.61.41,1.12C161.52,137.89,160.72,138.16,160.08,138.64Z"/><path class="cls-108" d="M160.09,130.79l1.11,1.49c-.49.27-.84.79-1.46.82l-1.1-1.54A2.11,2.11,0,0,1,160.09,130.79Z"/><path class="cls-107" d="M167.53,127.84l-.74-1.45c.5-.24.83-.8,1.47-.8l.78,1.16C168.72,127.39,168.09,127.56,167.53,127.84Z"/><path class="cls-49" d="M173.48,128.23l.41,1.08a3.79,3.79,0,0,1-1.92,1.16c-.62,0-.58-.33-.41-.74C172,129,172.82,128.72,173.48,128.23Z"/><path class="cls-110" d="M176.44,122.26a8.39,8.39,0,0,0-1.11-1.87,1.13,1.13,0,0,1,1.07-.75l1.16,1.88A2.35,2.35,0,0,1,176.44,122.26Z"/><path class="cls-111" d="M166,134.52,163.83,136c-.48-.22-.74-.53-.44-1.06a6,6,0,0,1,2.22-1.18C166,133.89,166.18,134.11,166,134.52Z"/><path class="cls-112" d="M171.6,129.73a.94.94,0,0,0,.4.74,7.52,7.52,0,0,1-2.21,1.48c-.34-.15-.54-.36-.39-.76C170.07,130.68,170.6,129.87,171.6,129.73Z"/><path class="cls-111" d="M169.36,131.19c.13.25.26.5.38.76a8.53,8.53,0,0,1-2.18,1.47.79.79,0,0,1-.42-.78A9.33,9.33,0,0,1,169.36,131.19Z"/><path class="cls-100" d="M163.39,135c.15.34.3.7.44,1.06L162,137.16c-.15-.37-.28-.75-.42-1.11Z"/><path class="cls-113" d="M164.15,128.27c0,.6.55.94.76,1.41l-1.11.75c-.23-.49-.76-.84-.78-1.46A2.24,2.24,0,0,1,164.15,128.27Z"/><path class="cls-114" d="M167.14,132.64a1,1,0,0,1,.42.78l-1.52,1.1-.42-.75C166,133.15,166.6,133,167.14,132.64Z"/><path class="cls-99" d="M147.82,120.82l3-1.52c.56.18,1,.43.78,1.15a7.23,7.23,0,0,1-2.89,2.18A1.58,1.58,0,0,1,147.82,120.82Z"/><path class="cls-99" d="M164.54,110.37a7,7,0,0,1,2.59-1.87c.94.06,1.19.67,1.15,1.49-1.05.4-1.8,1.36-3,1.52C164.75,111.35,164.34,111.07,164.54,110.37Z"/><path class="cls-99" d="M170.89,113.75a11.56,11.56,0,0,1-3,1.88c-.44-.23-.93-.41-.74-1.09.94-.65,1.76-1.61,3-1.88C170.93,112.62,171,113.1,170.89,113.75Z"/><path class="cls-99" d="M154.18,124.49c-1.06.52-1.79,1.57-3,1.87-.7-.24-1.17-.63-.81-1.46l3-1.54C154.26,123.36,154.25,123.89,154.18,124.49Z"/><path class="cls-49" d="M152.27,118.55a8.15,8.15,0,0,1,2.92-1.88.87.87,0,0,1,.49,1.1c-1.05.51-1.78,1.53-2.94,1.87a.83.83,0,0,1-.47-1.08Z"/><path class="cls-115" d="M160.44,113.36a4.92,4.92,0,0,1,2.58-1.88c.58.15.94.45.79,1.11l-2.94,1.88C160.51,114.17,160.2,113.87,160.44,113.36Z"/><path class="cls-49" d="M156,116l2.93-1.87c.48.21.76.51.44,1.07a15.44,15.44,0,0,1-2.65,1.87C156.3,116.85,155.81,116.65,156,116Z"/><path class="cls-49" d="M158.24,121.54a9.63,9.63,0,0,1-3,1.88c-.63,0-.63-.31-.43-.76a10.85,10.85,0,0,1,3-1.88C158.2,120.92,158.41,121.13,158.24,121.54Z"/><path class="cls-49" d="M166.41,116.36a22,22,0,0,1-3,1.88c-.68,0-.56-.33-.39-.73a17.21,17.21,0,0,1,2.68-1.88C166.25,115.56,166.58,115.74,166.41,116.36Z"/><path class="cls-116" d="M147.82,120.82c.29.61.57,1.21.86,1.81a2.56,2.56,0,0,1-1.17,1.06c-.16-.83-.9-1.35-1.14-2.14Z"/><path class="cls-117" d="M162,118.94a18.38,18.38,0,0,1-3,2.18.77.77,0,0,1-.41-.79,6.47,6.47,0,0,1,3-1.88C161.93,118.49,162.07,118.62,162,118.94Z"/><path class="cls-116" d="M168.28,110l-1.15-1.49a1.86,1.86,0,0,1,1.46-1.08,7.43,7.43,0,0,0,.82,1.87A2.76,2.76,0,0,1,168.28,110Z"/><path class="cls-108" d="M163.81,112.61,163,111.5c.32-.63.94-.81,1.52-1.13l.77,1.17Z"/><path class="cls-118" d="M150.4,124.93c0,.61.58.94.81,1.46a2.13,2.13,0,0,1-1.11,1c0-.7-.8-1.08-.81-1.79Z"/><path class="cls-108" d="M152.27,118.55c.16.38.31.76.47,1.13a1.49,1.49,0,0,1-1.17.79l-.77-1.15A2.18,2.18,0,0,1,152.27,118.55Z"/><path class="cls-119" d="M166.41,116.36a1.55,1.55,0,0,0-.69-.78,5.39,5.39,0,0,1,1.43-1.08l.74,1.09C167.4,115.83,167.05,116.38,166.41,116.36Z"/><path class="cls-120" d="M170.89,113.75a3.19,3.19,0,0,0-.77-1.15,1.47,1.47,0,0,1,.76-.77,3.34,3.34,0,0,1,1.11,1.53A2.22,2.22,0,0,1,170.89,113.75Z"/><path class="cls-121" d="M159.4,115.19l-.44-1.07c.51-.23.85-.78,1.48-.77.15.36.29.74.44,1.11Z"/><path class="cls-122" d="M154.86,122.69a.93.93,0,0,0,.43.76,2.42,2.42,0,0,1-1.11,1.06,3.42,3.42,0,0,0-.75-1.09A2,2,0,0,1,154.86,122.69Z"/><path class="cls-123" d="M156,116l.72,1.08-1.06.74c-.17-.37-.33-.74-.49-1.1A1.63,1.63,0,0,1,156,116Z"/><path class="cls-124" d="M162,118.94l-.39-.44c.28-.63.94-.79,1.45-1a.93.93,0,0,0,.39.73A2.2,2.2,0,0,1,162,118.94Z"/><path class="cls-125" d="M158.61,120.36a1,1,0,0,1,.41.79l-.78.39-.39-.74A1,1,0,0,1,158.61,120.36Z"/><path class="cls-28" d="M156.79,128.58a6.27,6.27,0,0,1-2.66,1.87c-.94-.06-1.27-.65-1.12-1.54.74-1,2-1.22,3-1.87C156.59,127.39,157.21,127.73,156.79,128.58Z"/><path class="cls-99" d="M173.82,117.86a17.72,17.72,0,0,1-3.27,1.82c-.63-.14-.81-.59-.8-1.17a11.06,11.06,0,0,1,3-2.18C173.69,116.41,173.77,117.13,173.82,117.86Z"/><path class="cls-99" d="M160.89,126l-2.95,1.88a1.27,1.27,0,0,1-.81-1.47l3.3-1.87C160.92,124.89,161.28,125.32,160.89,126Z"/><path class="cls-49" d="M164.93,123.11a10.67,10.67,0,0,1-3.27,2.15.84.84,0,0,1-.48-1.07s0,0,0-.06a9.4,9.4,0,0,1,3-1.88A.88.88,0,0,1,164.93,123.11Z"/><path class="cls-105" d="M169.05,120.76l-3,1.88a1.44,1.44,0,0,1-.76-1.15,22.83,22.83,0,0,1,3.27-2.16,1,1,0,0,1,.6,1.19A1.08,1.08,0,0,1,169.05,120.76Z"/><path class="cls-126" d="M153,129c.32.55.51,1.19,1.12,1.54a2.2,2.2,0,0,1-1.09,1.06l-1.44-2.18Z"/><path class="cls-103" d="M169.05,120.76l-.48-1.43a1.54,1.54,0,0,1,1.18-.81c.26.38.54.77.8,1.16Z"/><path class="cls-127" d="M157.13,126.39c.26.5.74.86.81,1.46a1.3,1.3,0,0,1-1.15.73c0-.6-.56-.94-.78-1.46Z"/><path class="cls-128" d="M173.82,117.86l-1.09-1.53a1.22,1.22,0,0,1,.75-.72c.38.61.76,1.22,1.13,1.88A1,1,0,0,1,173.82,117.86Z"/><path class="cls-129" d="M165.3,121.48a1.42,1.42,0,0,1,.76,1.15l-1.13.48a1.8,1.8,0,0,1-.75-.84C164.45,121.86,164.92,121.76,165.3,121.48Z"/><path class="cls-128" d="M161.2,124.13c.15.37.3.75.46,1.13a1.8,1.8,0,0,1-.77.7c-.15-.48-.31-.94-.46-1.44Z"/><path class="cls-130" d="M125.21,169.05c.66,1.51.42,3.17.62,4.74a59.54,59.54,0,0,1,.56,7.19c0,1.53.34,3.05.26,4.6-.08,1.2-.27,1.38-1.47,1.21-3.2-.44-3.13-.43-2.68-3.7.66-4.69,1.47-9.38,2.35-14C125,168.9,125.08,168.88,125.21,169.05Z"/><path class="cls-131" d="M125.21,169.05h-.36c0-.28-.22-.75.23-.77C125.3,168.28,125.21,168.78,125.21,169.05Z"/><path class="cls-132" d="M74,192.13a2.49,2.49,0,0,1-1.09-.41c.29-.54.43-1.19,1.08-1.45.45,0,.58.41.76.72A3,3,0,0,1,74,192.13Z"/><path class="cls-133" d="M74.71,191a1.38,1.38,0,0,1-.76-.72,4.25,4.25,0,0,1,1.47-1.51.46.46,0,0,1,.4.41Z"/><path class="cls-134" d="M79.54,183.52a4.59,4.59,0,0,1,1.35-2.2c.39.18.33.46.13.75v.75l-1.07.73C79.77,183.68,79.65,183.68,79.54,183.52Z"/><path class="cls-135" d="M76.2,187.61l1.12-1.48a.46.46,0,0,1,.66-.06l.07.06c-.51.59-.73,1.42-1.46,1.88A.44.44,0,0,1,76.2,187.61Z"/><path class="cls-136" d="M76.2,187.61l.39.39a1.27,1.27,0,0,1-.77,1.14l-.4-.41A1.27,1.27,0,0,1,76.2,187.61Z"/><path class="cls-135" d="M79.54,183.52h.37c-.31.55-.46,1.2-1.11,1.48-.14.16-.27.15-.39,0A1.9,1.9,0,0,1,79.54,183.52Z"/><path class="cls-137" d="M78.41,185h.39a2.65,2.65,0,0,1-.75,1.13h-.73A2.44,2.44,0,0,1,78.41,185Z"/><path class="cls-111" d="M82.89,178.36A8.69,8.69,0,0,1,84,176.48c.69-.14.94.25,1.11.84-.39.67-.69,1.41-1.46,1.76C83.21,179,83.06,178.69,82.89,178.36Z"/><path class="cls-103" d="M85.11,177.31,84,176.48c.22-.38.31-.83.72-1.08.33.43.93.54,1.21,1.09A2.15,2.15,0,0,1,85.11,177.31Z"/><path class="cls-138" d="M82.89,178.36a1.5,1.5,0,0,1,.76.71l-1.19,1.49c-.4.17-.6,0-.72-.39Z"/><path class="cls-139" d="M81.77,180.17l.72.39A3.69,3.69,0,0,1,81,182.07a3.8,3.8,0,0,0-.13-.75c0-.26.08-.26.12-.39Z"/><path class="cls-140" d="M80.59,176.51c0,.81-.64,1.26-1.08,1.82a.83.83,0,0,1-.75-.75l.74-1.46a.21.21,0,0,1,.31-.05l.06.05A.83.83,0,0,0,80.59,176.51Z"/><path class="cls-141" d="M82.16,175a3.24,3.24,0,0,1-.17.32c-.17.24-.26.64-.62.58s-.29-.47-.33-.75a2.48,2.48,0,0,1,0-.55.3.3,0,0,1,0-.43l.08-.05C81.81,174,82.22,174.2,82.16,175Z"/><path class="cls-142" d="M82.16,175a1.3,1.3,0,0,0-1.08-.78c-.14,0-.2-.11-.18-.19s0-.14.1-.14.06-.23.09-.34a1.59,1.59,0,0,0,.33-.09c.61,0,.94.54,1.44.79A1.24,1.24,0,0,1,82.16,175Z"/><path class="cls-47" d="M81,173.9a.51.51,0,0,0,.08.33c.07.12-.06.26-.08.38h-.35A.76.76,0,0,1,81,173.9Z"/><path class="cls-47" d="M79.91,175.75a.75.75,0,0,1,.38-.75A.78.78,0,0,1,79.91,175.75Z"/><path class="cls-47" d="M80.28,175l.37-.37Z"/><path class="cls-47" d="M79.9,176.18h-.36l.37-.38Z"/><path class="cls-143" d="M79.57,172a.8.8,0,0,1-.4.72c-.55-.15-.94-.44-.79-1.09v-.4A1.25,1.25,0,0,1,79.57,172Z"/><path class="cls-88" d="M62.49,182.41l-.78-1.09a6.19,6.19,0,0,1,1.83-1.88c.36.12.56.33.42.73A4,4,0,0,1,62.49,182.41Z"/><path class="cls-88" d="M70.63,169.79l1.51-2.23c.59-.08,1.15-.09,1.11.76-.51.61-.72,1.47-1.51,1.88A.88.88,0,0,1,70.63,169.79Z"/><path class="cls-88" d="M76.2,170.55a6.32,6.32,0,0,1-1.88,1.87.47.47,0,0,1-.4-.39,4,4,0,0,1,1.48-2.23C76.07,169.65,76.28,169.94,76.2,170.55Z"/><path class="cls-88" d="M66.92,182.07a8.61,8.61,0,0,1-1.49,2.23.82.82,0,0,1-1.1-.39v0l1.87-2.22C66.58,181.52,66.79,181.72,66.92,182.07Z"/><path class="cls-90" d="M63.94,178.7a11.4,11.4,0,0,1,1.88-2.22.82.82,0,0,1,.74.4c-.6.74-.94,1.74-1.88,2.21C64.27,179.3,64.08,179.05,63.94,178.7Z"/><path class="cls-88" d="M68.75,172.78c0-.86.87-1.19,1.14-1.88.43-.21.76-.24.74.39-.11.94-.79,1.39-1.49,1.87C68.81,173.24,68.67,173.13,68.75,172.78Z"/><path class="cls-88" d="M66.51,175.74c0-.85.87-1.18,1.15-1.87.42-.23.75-.26.73.38-.5.62-.72,1.46-1.49,1.88C66.57,176.18,66.44,176.09,66.51,175.74Z"/><path class="cls-144" d="M69.14,179.09l-1.49,2.23c-.39.16-.6,0-.73-.39a10.69,10.69,0,0,1,1.87-2.21A.41.41,0,0,1,69.14,179.09Z"/><path class="cls-135" d="M73.6,173.5l-1.49,1.88a.52.52,0,0,1-.72,0l0,0,1.88-2.58C73.55,172.9,73.78,173.09,73.6,173.5Z"/><path class="cls-145" d="M71.36,176.18c-.61.74-.93,1.74-1.87,2.21a.24.24,0,0,1-.34.05l-.06-.05A4.56,4.56,0,0,1,71,176.18a.24.24,0,0,1,.33-.07A.14.14,0,0,1,71.36,176.18Z"/><path class="cls-146" d="M73.23,168.32c-.26-.41-.72-.52-1.11-.76a1.5,1.5,0,0,1,.73-.76c.39.25.86.37,1.13.77A1.26,1.26,0,0,1,73.23,168.32Z"/><path class="cls-147" d="M64.32,183.89l1.11.41a1.11,1.11,0,0,1-.73,1.09l-.78-1.1Z"/><path class="cls-132" d="M70.63,171.29a.79.79,0,0,0-.74-.39l.74-1.11,1.09.39A2.15,2.15,0,0,1,70.63,171.29Z"/><path class="cls-148" d="M68.39,174.3a.8.8,0,0,0-.73-.39,2.24,2.24,0,0,1,1.08-1.09l.39.38A1.12,1.12,0,0,1,68.39,174.3Z"/><path class="cls-132" d="M63.94,178.7l.76.39a1.1,1.1,0,0,1-.74,1.09l-.42-.73A.87.87,0,0,1,63.94,178.7Z"/><path class="cls-147" d="M73.6,173.5l-.4-.72A1.37,1.37,0,0,1,74,172l.41.39C74.12,172.79,74,173.25,73.6,173.5Z"/><path class="cls-149" d="M76.2,170.55a1.33,1.33,0,0,0-.76-.75.83.83,0,0,1,.38-.74,1.58,1.58,0,0,1,.78.75A.85.85,0,0,1,76.2,170.55Z"/><path class="cls-150" d="M66.92,180.93l.73.39a1.34,1.34,0,0,1-.73.75l-.74-.4A1.34,1.34,0,0,1,66.92,180.93Z"/><path class="cls-149" d="M66.51,175.74l.39.39-.38.75a.81.81,0,0,1-.74-.4A1.27,1.27,0,0,1,66.51,175.74Z"/><path class="cls-151" d="M71.36,176.18H71a.85.85,0,0,1,.38-.76h.75A1.46,1.46,0,0,1,71.36,176.18Z"/><path class="cls-150" d="M69.13,178.32h.4a.82.82,0,0,1-.39.75l-.38-.38Z"/><path class="cls-50" d="M69.89,184.62l-1.5,2.25c-.57-.16-1.21-.25-1.13-1.1a5.89,5.89,0,0,1,1.88-1.87C69.74,183.77,70,184.05,69.89,184.62Z"/><path class="cls-88" d="M78.38,171.67l.79,1.09a6.24,6.24,0,0,1-1.88,1.88.78.78,0,0,1-.76-.41A7.22,7.22,0,0,1,78.38,171.67Z"/><path class="cls-88" d="M72.14,181.34c-.15.93-.93,1.49-1.5,2.21a.86.86,0,0,1-1.1-.4l1.88-2.22C71.78,180.77,72,181,72.14,181.34Z"/><path class="cls-152" d="M76.57,175.73c-.58.77-.94,1.75-1.87,2.25-.37-.13-.59-.34-.41-.75L75.78,175C76.42,174.9,76.68,175.14,76.57,175.73Z"/><path class="cls-153" d="M74.33,178.72a10.82,10.82,0,0,1-1.83,2.22c-.36-.12-.56-.34-.4-.74a3.55,3.55,0,0,1,1.49-1.88C74,178.13,74.17,178.44,74.33,178.72Z"/><path class="cls-140" d="M67.28,185.77c.29.45.94.54,1.13,1.1l-.39.75-1.51-1.12A1.26,1.26,0,0,1,67.28,185.77Z"/><path class="cls-136" d="M76.57,175.73a1.39,1.39,0,0,0-.74-.73,1.41,1.41,0,0,1,.73-.77.88.88,0,0,1,.76.41A1.11,1.11,0,0,1,76.57,175.73Z"/><path class="cls-134" d="M69.52,183.15l1.09.4c-.2.38-.31.84-.72,1.09a1.27,1.27,0,0,0-.76-.73A.83.83,0,0,1,69.52,183.15Z"/><path class="cls-154" d="M74.33,178.72l-.74-.4a1.13,1.13,0,0,1,.75-1.09l.4.75Z"/><path class="cls-155" d="M72.14,180.2l.41.74-.39.4-.74-.41A1.26,1.26,0,0,1,72.14,180.2Z"/><path class="cls-80" d="M73.22,186.91a8.76,8.76,0,0,1-1.47,2.19c-.66-.07-1.25-.22-1.15-1.09a3.41,3.41,0,0,1,1.52-1.88C72.78,186,73.08,186.35,73.22,186.91Z"/><path class="cls-152" d="M75.45,183.93c-.6.74-.94,1.73-1.82,2.21a.87.87,0,0,1-.78-.76,4.64,4.64,0,0,1,1.87-2.21C75.15,183.2,75.27,183.6,75.45,183.93Z"/><path class="cls-88" d="M78.8,177.58a1.41,1.41,0,0,1,.75.75c-.5.62-.74,1.45-1.49,1.88a.78.78,0,0,1-.76-.41A4,4,0,0,1,78.8,177.58Z"/><path class="cls-152" d="M77.31,181.3c-.49.63-.72,1.46-1.48,1.87-.61.13-.84-.13-.76-.73l1.5-1.87C77.16,180.46,77.43,180.69,77.31,181.3Z"/><path class="cls-156" d="M70.6,188c.19.57.86.64,1.15,1.09-.22.39-.33.85-.74,1.1a1.91,1.91,0,0,0-1.48-1.11A2.13,2.13,0,0,1,70.6,188Z"/><path class="cls-157" d="M72.85,185.38a1.52,1.52,0,0,1,.78.76,1,1,0,0,1-.41.77l-1.08-.77A1.3,1.3,0,0,1,72.85,185.38Z"/><path class="cls-89" d="M77.31,181.3a1.39,1.39,0,0,0-.74-.73,1.4,1.4,0,0,1,.73-.78.92.92,0,0,1,.76.41C77.84,180.59,77.77,181,77.31,181.3Z"/><path class="cls-158" d="M75.07,182.44a1.36,1.36,0,0,0,.76.73c-.13.25-.26.5-.38.76a1.47,1.47,0,0,1-.77-.76A.83.83,0,0,1,75.07,182.44Z"/><rect class="cls-159" width="250" height="250"/></svg>