<svg id="Layer_1" data-name="Layer 1" xmlns="http://www.w3.org/2000/svg" viewBox="0 0 250 250"><defs><style>.cls-1{fill:#ef693b;}.cls-2{fill:#b2344b;}.cls-3{fill:#76c046;}.cls-4{fill:#ef4137;}.cls-5{fill:#b2335a;}.cls-6{fill:#df3d32;}.cls-7{fill:#ea633c;}.cls-8{fill:#fcde43;}.cls-9{fill:#a3abb2;}.cls-10{fill:#faf150;}.cls-11{fill:#e0e5eb;}.cls-12{fill:#de9c2f;}.cls-13{fill:#de9d30;}.cls-14{fill:#de9d32;}.cls-15{fill:#e0e4ea;}.cls-16{fill:#de9d2f;}.cls-17{fill:#faf050;}.cls-18{fill:#e09f31;}.cls-19{fill:#e88e8b;}.cls-20{fill:#e3c5c8;}.cls-21{fill:#d96562;}.cls-22{fill:#dfbf89;}.cls-23{fill:#ef6a3b;}.cls-24{fill:#df9f31;}.cls-25{fill:#de9f32;}.cls-26{fill:#dea033;}.cls-27{fill:#ebda56;}.cls-28{fill:#fff;}.cls-29{fill:#8fc642;}.cls-30{fill:#3db54c;}.cls-31{fill:#8ec642;}.cls-32{fill:#3db64c;}.cls-33{fill:#df9e30;}.cls-34{fill:#de9e30;}.cls-35{fill:#df9f30;}.cls-36{fill:#e0a235;}.cls-37{fill:#dfa030;}.cls-38{fill:#dfa031;}.cls-39{fill:#e0a131;}.cls-40{fill:#dfa131;}.cls-41{fill:#e0a436;}.cls-42{fill:#e0a231;}.cls-43{fill:#e0a432;}.cls-44{fill:#e2a833;}.cls-45{fill:#e0a332;}.cls-46{fill:#e1a533;}.cls-47{fill:#dea131;}.cls-48{fill:#df9e2f;}.cls-49{fill:#dca231;}.cls-50{fill:#e1a733;}.cls-51{fill:#e4ae36;}.cls-52{fill:#d8a834;}.cls-53{fill:#e2a834;}.cls-54{fill:#e2a733;}.cls-55{fill:#e2a934;}.cls-56{fill:#e4af38;}.cls-57{fill:#e3ac35;}.cls-58{fill:#e4ae3d;}.cls-59{fill:#e3aa35;}.cls-60{fill:#e3aa34;}.cls-61{fill:#e4b036;}.cls-62{fill:#e1a633;}.cls-63{fill:#e5b037;}.cls-64{fill:#e5b237;}.cls-65{fill:#e7b83a;}.cls-66{fill:#e4af36;}.cls-67{fill:#eac040;}.cls-68{fill:#e9be3c;}.cls-69{fill:#e4b03f;}.cls-70{fill:#e9bd3c;}.cls-71{fill:#efd043;}.cls-72{fill:#e8bc3b;}.cls-73{fill:#ebc43e;}.cls-74{fill:#ecc53f;}.cls-75{fill:#eecc41;}.cls-76{fill:#e5b238;}.cls-77{fill:#fcb042;}.cls-78{fill:#f9f050;}.cls-79{fill:#f8f050;}.cls-80{fill:#daa232;}.cls-81{fill:#dd9d2f;}.cls-82{fill:#f3ed4e;}.cls-83{fill:#f7f050;}.cls-84{fill:#e6f0b2;}.cls-85{fill:#dc9d2f;}.cls-86{fill:#f3ed4f;}.cls-87{fill:#e8e34c;}.cls-88{fill:#dca030;}.cls-89{fill:#dfab35;}.cls-90{fill:#f8ef24;}.cls-91{fill:none;}</style></defs><title>products</title><path class="cls-1" d="M28.21,190.41V141.63c0-.36-.16-.76.16-1.07a4.77,4.77,0,0,1,1.41-.15H129.7a8.49,8.49,0,0,1,1.51.07,10.66,10.66,0,0,1,2.23,1.26,228.08,228.08,0,0,0,24.33,13.15A190.5,190.5,0,0,0,191.91,167c4.49,1.12,9.09,2,13.7,2.7.5.08,1,.1,1.28.67a30.09,30.09,0,0,1,0,6.15c-.43.53-.9.23-1.37.06a88.86,88.86,0,0,0-15.11-4.2,118.6,118.6,0,0,0-11.87-1.56,104.5,104.5,0,0,0-11.87-.32,107.8,107.8,0,0,0-23.31,3.13,78.19,78.19,0,0,0-14.26,5,50.64,50.64,0,0,0-11.12,6.9,3.34,3.34,0,0,1-1.11.71c-2,.15-4.11.21-6.17.27-4.34.1-8.68,0-13,0h-.9c-1.14,0-1.5.24-1.55,1-.09,1.23.29,1.74,1.44,1.9,1.48.21,3,.24,4.49.33,3.44.22,6.88.48,10.31.76a1.93,1.93,0,0,1,.75.15c.55.54,0,.9-.24,1.3a20.84,20.84,0,0,0-2.7,5.55,15,15,0,0,0-.71,6.65,1.24,1.24,0,0,1,0,.47,19,19,0,0,0,.1,5.48A52.54,52.54,0,0,0,114,228.39a49.27,49.27,0,0,0,12.72,15.81,67.77,67.77,0,0,0,5.92,4.31c.34.22.89.34.82.9-2.76.08-5.53.1-8.3,0a49.58,49.58,0,0,1-8.28-1.58,119.13,119.13,0,0,1-19.27-6.62A175.92,175.92,0,0,1,73,227.85,236.32,236.32,0,0,1,52.42,213q-5.81-4.71-11.4-9.77c-3.44-3.14-6.87-6.29-10.13-9.62A15.59,15.59,0,0,1,28.21,190.41Z"/><path class="cls-2" d="M131.44,140.72H29.53c-.4,0-.83.14-1.2-.16a26.35,26.35,0,0,1,2.28-2.45q6.45-6.65,13-13.28a1.59,1.59,0,0,1,.58-.48,2.08,2.08,0,0,1,1-.08H218.34c.39,0,.9-.25,1.12.19s-.28.74-.53,1.06c-3.71,4.83-7.56,9.55-11.27,14.38a2.82,2.82,0,0,1-.95.9,11.13,11.13,0,0,1-2,0H133.8A6.93,6.93,0,0,1,131.44,140.72Z"/><path class="cls-3" d="M28.21,190.41c1.79,1.8,3.51,3.66,5.33,5.39,3.59,3.48,7.25,6.9,11,10.19,3.18,2.76,6.4,5.47,9.7,8.09q5.22,4.13,10.64,8c4.94,3.5,10,6.82,15.27,9.88a166.56,166.56,0,0,0,18.34,9.37,130.2,130.2,0,0,0,12.28,4.58,96.06,96.06,0,0,0,13.78,3.34,1.27,1.27,0,0,1,.53.2c-.38,0-.76.06-1.13.06H29.34c-1.26,0-1.14.06-1.14-1.13v-57A5,5,0,0,1,28.21,190.41Z"/><path class="cls-4" d="M133.45,249.45a9.39,9.39,0,0,0-1.8-1.26,58.54,58.54,0,0,1-6.18-4.67c-1.23-1.05-2.37-2.19-3.49-3.35a48.09,48.09,0,0,1-6.53-8.56,51.67,51.67,0,0,1-5-11.13,52.26,52.26,0,0,1-1.8-8,40.54,40.54,0,0,1-.54-6.87c0-.31-.08-.64.14-.9a1.32,1.32,0,0,1,.45,1,20.62,20.62,0,0,0,5,10c4.63,5.39,10.54,9,17,11.75a91.9,91.9,0,0,0,24.75,6.5,120.22,120.22,0,0,0,17.07.76,99,99,0,0,0,28.54-4.5c1.57-.48,3.13-1,4.66-1.61.39-.15.82-.47,1.2,0a1.2,1.2,0,0,1,.1.37c.05,3.23.12,6.47,0,9.7a13.84,13.84,0,0,1-2.69,3.17,57.64,57.64,0,0,1-8.44,6.64,6.34,6.34,0,0,1-1.22.68h10a1,1,0,0,1,.9.27,2.39,2.39,0,0,1-1,.08H134.57C134.14,249.52,133.79,249.47,133.45,249.45Z"/><path class="cls-5" d="M206.72,239V228.49c-.54-1-.19-2-.27-3s0-2.17,0-3.26c0-2.44,0-4.88,0-7.31a7.33,7.33,0,0,0,0-1.24V203.31c-.07-2,0-4.05,0-6.08V189c0-1.06,0-2.12-.07-3.18.11-1.94,0-3.89.07-5.84.08-1.07-.25-2.15.23-3.19.07-2.19.06-4.37,0-6.56a1.89,1.89,0,0,1-.27-1.27V142.06a1.71,1.71,0,0,1,.32-1.35,40.27,40.27,0,0,1,2.42-3.25c.82-1.08,1.66-2.16,2.53-3.2,1.19-1.43,2.24-3,3.47-4.36.84-1,1.55-2,2.34-3,.63-.78,1.24-1.59,1.85-2.39-.14-.3-.39-.15-.59-.16a3.75,3.75,0,0,0-.67,0H44.14c.1-.16.26-.16.42-.16H218.35c1.52,0,1.32-.2,1.32,1.31V229.74a3.85,3.85,0,0,1-.72,2.36q-5.91,8.35-11.75,16.75c-.14.2-.23.46-.48.57a1,1,0,0,1-.27-.68c-.08-2.89,0-5.78,0-8.68A2.14,2.14,0,0,1,206.72,239Z"/><path class="cls-6" d="M206.72,239v9.88c-.21.36-.66.33-.9.58H194a11.23,11.23,0,0,1,1.91-1.29,53.7,53.7,0,0,0,7.15-5.59c.75-.72,1.58-1.36,2.27-2.15A8,8,0,0,1,206.72,239Z"/><path class="cls-7" d="M205.77,249.44a1.16,1.16,0,0,1,.9-.58v.54A1.39,1.39,0,0,1,205.77,249.44Z"/><path class="cls-3" d="M206.74,140.71V170.2c-2.43-.42-4.87-.8-7.29-1.28q-7.41-1.44-14.66-3.59a190.14,190.14,0,0,1-19.24-6.8q-8.36-3.45-16.38-7.61-8.82-4.57-17.24-9.89a3.13,3.13,0,0,1-.44-.36,6.9,6.9,0,0,1,1.51-.14h72.56A2.81,2.81,0,0,1,206.74,140.71Z"/><path class="cls-4" d="M206.71,194v3.31a1.15,1.15,0,0,1-.9.16c-2.93-.28-5.88-.27-8.8-.6a3.39,3.39,0,0,0-.89.15,2.79,2.79,0,0,1-2.45-.28c-.44-.34-1.06-.09-1.57-.24-1.64-.17-3.28-.1-4.91-.3-1.14,0-2.26-.21-3.4-.25a10.84,10.84,0,0,0-2.2-.13c-8-.53-16.08-1-24.1-1.7q-5.72-.25-11.4-.75c-1.33,0-2.65-.17-4-.28a10.48,10.48,0,0,0-2.37-.12c-7.59-.55-15.18-1-22.76-1.59-1.2-.27-2.44,0-3.6-.26-.32-.08-.69,0-.95-.31-2.2-.13-4.4-.3-6.6-.44-1.8-.11-3.6-.26-5.39-.39-1.48-.11-3-.08-4.43-.33a1,1,0,0,1-.86-.66,5.56,5.56,0,0,1-.23-1.86,1,1,0,0,1,1.1-.9h0a2.81,2.81,0,0,0,.58,0h6.6c4.58.12,9.17-.12,13.76-.19a8.42,8.42,0,0,1,3.35-.28,16.19,16.19,0,0,1,2,0c12.49-.06,25,.14,37.48-.08,9.51-.17,19-.05,28.52-.13,5.58,0,11.16,0,16.74,0a2.33,2.33,0,0,1,1.55.27.76.76,0,0,1,.2.69V189a2.56,2.56,0,0,1-1.65.26H181.6a6.61,6.61,0,0,0-.89,0H161.3c-.9,0-1.8-.2-2.65-.21H136.34a9.87,9.87,0,0,1-1.8-.08,4.79,4.79,0,0,0-1.51-.15c-4.49,0-9,0-13.47-.09a3.92,3.92,0,0,0-1.18-.08c-.13,0,.08.16,0,0a2.72,2.72,0,0,1,.9,0,10.68,10.68,0,0,0,1.79.08h1.54c8.6.4,17.2,1,25.8,1.49a5.1,5.1,0,0,0,1.51.14c3.07,0,6.11.35,9.18.5,2.15.09,4.29.25,6.44.37,3.4.21,6.81.43,10.22.62,2.64.27,5.3.44,7.94.47,1.24,0,2.41.27,3.59.31,2.79-.1,5.54.37,8.31.45,2,0,4,.28,6.05.31,1.34.16,2.7.14,4,.28A1.78,1.78,0,0,1,206.71,194Z"/><path class="cls-8" d="M71.22,160.18c.9-.38,1.41-.79,1.56-1.66.3-1.62.69-3.21,1-4.82.07-.3.11-.57-.27-.8s-.34-.65.09-.74a.83.83,0,0,0,.65-.79c.11-.62.27-1.24.41-1.85a.69.69,0,0,1,.69-.63c.9-.07,1.74-.24,2.69-.37a7.55,7.55,0,0,1-.3,2.06,4,4,0,0,1-.16.75c-.15.65-.11.69.53.79.21,0,.58-.11.58.28s-.24.52-.64.55c-.83.06-.82.09-1,.89-.39,1.89-.8,3.78-1.2,5.66a4.94,4.94,0,0,0-.12.65c-.05,1,.61,1.41,1.47.9a1.8,1.8,0,0,0,1-1.37,10.88,10.88,0,0,1,1.65-5.2,5.24,5.24,0,0,1,3.19-2.37,2.66,2.66,0,0,1,2.7.5c1.08-.9,2.31-.21,3.5-.54a17,17,0,0,1-.55,3.09c-.29,1.59-.66,3.15-1,4.73a1.84,1.84,0,0,0-.06.47.9.9,0,0,0,.47,1,1,1,0,0,0,1.14-.19,3.86,3.86,0,0,0,1.21-2.41c.42-1.85.79-3.71,1.17-5.57a4,4,0,0,1,.14-.55c.08-.41.25-.57.72-.51.62.08,1.26,0,1.9.06s.53,0,.72.63c.29.07.43-.19.65-.3a4,4,0,0,1,1.9-.5,2.3,2.3,0,0,1,2.38,2.22v.08a14.61,14.61,0,0,1-.63,3.83c-.13.62-.29,1.23-.41,1.85a1,1,0,0,0,.41,1.16,1,1,0,0,0,1.23-.19,3.63,3.63,0,0,0,1.23-2.09c.46-1.8.79-3.59,1.18-5.39.06-.29,0-.42-.3-.6s-.33-.64.1-.74a.82.82,0,0,0,.64-.8c.08-.56.26-1.1.35-1.66s.28-.78.86-.81,1.3-.2,2-.3.71.06.6.62c-.14.71-.33,1.41-.49,2.12s-.08.7.55.79c.26,0,.53,0,.53.39s-.3.41-.59.44c-.79.06-.78.07-1,.83-.4,1.88-.81,3.77-1.22,5.65a5.39,5.39,0,0,0-.1.9c0,.72,0,.76.77.9.43.08.42.27.29.59a2.3,2.3,0,0,1-4.27.28.8.8,0,0,0-.08-.16l-.12-.1c-.41.25-.66.71-1.08,1a3.61,3.61,0,0,1-3.34.35,2.14,2.14,0,0,1-1.29-2,8.1,8.1,0,0,1,.29-2.45c.19-.89.4-1.72.59-2.58a3.78,3.78,0,0,0,.06-1.42.77.77,0,0,0-.78-.75.72.72,0,0,0-.4.12,1.59,1.59,0,0,0-.74.71,5.33,5.33,0,0,0-.65,1.67q-.61,2.92-1.22,5.85c-.2.95-.19,1-1.16,1H90.44c-.73,0-.73,0-.71-.83-.19-.12-.29,0-.4.13a3.83,3.83,0,0,1-3,.72,1.57,1.57,0,0,1-1.33-.74l-.4-.82a4.75,4.75,0,0,0-1,1c-.9.9-3.41,1-4.16.17-.3-.36-.58-.73-.85-1.12-.37.07-.51.4-.75.59a4,4,0,0,1-3.67,1.07,2.09,2.09,0,0,1-1.65-1.87,1.2,1.2,0,0,0-.31-.77c-.71.5-1.44,1-2.13,1.52a5.35,5.35,0,0,1-4.27,1.12,3.21,3.21,0,0,1-2.08-1.22c-.14-.05-.24,0-.31.15a3.6,3.6,0,0,1-2.9,1.11A2.45,2.45,0,0,1,58.11,161a2.56,2.56,0,0,1,0-.39c.2-1.62.72-3.19,1-4.82A1.89,1.89,0,0,0,59,154.6a.71.71,0,0,0-.88-.49l-.19.08a1.88,1.88,0,0,0-.9.86,6,6,0,0,0-.56,1.6c-.42,2-.9,4-1.28,6a.75.75,0,0,1-.9.71,20.49,20.49,0,0,1-2.48-.12c.31-1.42.59-2.8.9-4.2.44-2.06.9-4.13,1.33-6.21.16-.74.16-.75.9-.77h1.79c.59,0,.61,0,.64.69.27.09.39-.15.55-.27a2.66,2.66,0,0,1,1.4-.54c2.15-.17,3.18.89,3,3.1-.14,1.51-.69,3-1,4.44,0,.22-.08.44-.1.66,0,.65.21,1,.7,1.07s1.21-.23,1.27-.75a4.31,4.31,0,0,1,1.29-2.24,9.62,9.62,0,0,0,1.28-2.54c.45-1.11.9-2.24,1.26-3.38.13-.35.26-.58.71-.62A14.49,14.49,0,0,0,70,151.4c.32-.05.57,0,.58.4,0,.66.18,1.32.18,2C70.79,155.9,71.13,158,71.22,160.18Z"/><path class="cls-9" d="M112.34,190.82a43.35,43.35,0,0,1,4.55.36c.15.46-.19.77-.42,1.09A17.53,17.53,0,0,0,113,203.44a16.25,16.25,0,0,0,1.8,6.72A24.4,24.4,0,0,0,121,218a9.23,9.23,0,0,0,1.33,1.08,53.53,53.53,0,0,0,14.81,8A92.44,92.44,0,0,0,159.62,232c1.54.16,3.09.21,4.63.33,1.86.18,3.7,0,5.55.06.9,0,1.8.06,2.64,0,2.41-.1,4.82-.21,7.19-.47,1.15-.11,2.3-.16,3.43-.38.52-.1,1.06-.07,1.57-.19a16.57,16.57,0,0,1,1.71-.27c2-.26,3.88-.69,5.8-1.12a18.32,18.32,0,0,0,2.33-.54c.58-.09,1.12-.33,1.69-.44,1.59-.45,3.14-1,4.71-1.5a25,25,0,0,0,2.77-1c.71-.24,1.38-.56,2.08-.82.31-.1.61-.31,1-.15v3a85,85,0,0,1-11.77,3.69c-3.33.78-6.69,1.38-10.08,1.87a120.38,120.38,0,0,1-21.64.86c-2.93-.11-5.86-.45-8.78-.84a102.33,102.33,0,0,1-12.73-2.52,71.41,71.41,0,0,1-18.4-7.57,41.21,41.21,0,0,1-8.46-6.59,23.93,23.93,0,0,1-5.87-9.45,25.61,25.61,0,0,1-.7-3.24,6.37,6.37,0,0,0-.12-1.51,18.75,18.75,0,0,1,2.08-8.88A31.81,31.81,0,0,1,112.34,190.82Z"/><path class="cls-8" d="M87.89,172.39c.28-1.32.56-2.59.81-3.86.09-.43.2-.89.7-.89a14.18,14.18,0,0,1,2.83-.24c-.27,1.31-.52,2.56-.79,3.82-.57,2.7-1.17,5.44-1.74,8.16a1.93,1.93,0,0,0,0,.48c0,1,.56,1.37,1.45.89a2.4,2.4,0,0,0,1.08-1.69c.32-1.25.56-2.52.83-3.79.48-2.23.9-4.49,1.41-6.68.19-.85.28-.9,1.11-1,.62-.07,1.25-.15,1.88-.2.42,0,.57.09.47.54-.32,1.36-.58,2.7-.9,4.08q-.81,3.81-1.63,7.6c-.09.43-.15.85.25,1.14a1.18,1.18,0,0,0,1.25,0,2,2,0,0,0,1.1-1.8,8.8,8.8,0,0,1,2.39-5.85,4.92,4.92,0,0,1,4.23-1.49,2,2,0,0,1,1.93,2,.71.71,0,0,0,0,.14,4.43,4.43,0,0,1-2.06,3.67,5.21,5.21,0,0,1-2.53,1c-.41,0-.58.21-.56.6s0,.57,0,.9a1.15,1.15,0,0,0,1.14,1.05,3.64,3.64,0,0,0,2.23-.69l.33-.2a3,3,0,0,1-1.94,2.84c-1.91.81-3.54.32-5.1-1.52-.31.3-.62.62-1,.9a4,4,0,0,1-2.62.9,2.2,2.2,0,0,1-2.19-1.36.58.58,0,0,0-.12-.25l-.17-.09a7.66,7.66,0,0,1-1.55,1.18,4.12,4.12,0,0,1-2.52.23,1.94,1.94,0,0,1-1.42-1.57,5.3,5.3,0,0,0-1,.9,3.29,3.29,0,0,1-3.26.78,2.55,2.55,0,0,1-1.7-1.5,4.62,4.62,0,0,1-.37-2.51,16.76,16.76,0,0,1,.43-2.33c.16-.51,0-.63-.52-.51-.7.14-.79.26-.9,1A7.46,7.46,0,0,1,77,181.9a4.39,4.39,0,0,1-4.58,1,3.36,3.36,0,0,1-2.08-3.76,14.14,14.14,0,0,1,.45-2.42c.16-.5,0-.65-.53-.55a1,1,0,0,0-.9,1,7.82,7.82,0,0,1-.68,2.47,5.34,5.34,0,0,1-4,3.43,3.69,3.69,0,0,1-3.33-.9,2.19,2.19,0,0,1-.73-1.31,9.12,9.12,0,0,1,2.7-8.09,4.82,4.82,0,0,1,3.88-1.19,2.46,2.46,0,0,1,2.12,1.79,4.14,4.14,0,0,1,.22,1.31c0,.36.15.55.51.5a2.35,2.35,0,0,0,1.93-1,5.16,5.16,0,0,1,4.37-2.61c2.1-.09,2.8,1.22,3.06,2.69a1.93,1.93,0,0,1,0,.48c0,.4.24.5.55.44a2.47,2.47,0,0,0,2-1.16,4.62,4.62,0,0,1,4.75-2.32A2.21,2.21,0,0,1,87.89,172.39Z"/><path class="cls-9" d="M122.22,186q-2.68.09-5.31,0a46.35,46.35,0,0,1,10.17-6.75A72.07,72.07,0,0,1,137.72,175a94.7,94.7,0,0,1,13.48-3.21c3.24-.53,6.5-.9,9.78-1.16a109.86,109.86,0,0,1,12.83-.27c2.8.1,5.61.34,8.41.64a104.52,104.52,0,0,1,15.37,2.87,85.28,85.28,0,0,1,8.39,2.69c.23.09.49.16.72.23a27.94,27.94,0,0,1,0,3.17c-.41.14-.74-.1-1.08-.24A86.54,86.54,0,0,0,183,173.73a113.67,113.67,0,0,0-19-.7,86.44,86.44,0,0,0-16.17,2.14,73.16,73.16,0,0,0-18.58,6.62,45.05,45.05,0,0,0-5.57,3.47A4.57,4.57,0,0,1,122.22,186Z"/><path class="cls-8" d="M56,177.65a8.63,8.63,0,0,0,.68-2.43c.57-2.79,1.15-5.57,1.68-8.37.09-.51.27-.69.79-.67h2.54a17.89,17.89,0,0,1-.57,3.09q-1.35,6.4-2.69,12.8c-.19.89-.17.89-1.12.89H56c-.43,0-.55-.11-.62-.53-.29-2-.62-3.92-.95-5.88-.25-1.56-.51-3.11-.77-4.71a1,1,0,0,0-.32.63c-.65,3.11-1.31,6.24-2,9.37a.43.43,0,0,1-.07.28c-.19.84-.19.84-1,.84H47.89c1-5,2.11-10,3.14-14.94-1.8.12-3.7,3.25-2.8,6A1.81,1.81,0,0,1,46,172.9a2.24,2.24,0,0,1-.08-.57,4.7,4.7,0,0,1,.58-2.7,6.12,6.12,0,0,1,5.66-3.49h1.62a.71.71,0,0,1,.72.71h0c.42,3,.9,6.06,1.33,9.09A16.39,16.39,0,0,0,56,177.65Z"/><path class="cls-8" d="M49.4,148.26c-1.94.84-3.17,2.55-2.69,6.08a1.81,1.81,0,0,1-2.24-1.21,1.68,1.68,0,0,1-.07-.59,3.9,3.9,0,0,1,1-2.69,9,9,0,0,1,7-3.35c.83,0,1,.15.78.9-.5,2.38-1,4.76-1.53,7.14q-.84,3.93-1.66,7.87c-.21,1-.19,1-1.24,1H47.16c-.68,0-.77-.13-.62-.8.3-1.46.62-2.91.89-4.36q1-4.67,2-9.35A.78.78,0,0,0,49.4,148.26Z"/><path class="cls-10" d="M179.75,232.12a5.38,5.38,0,0,1-2.22.28,42.91,42.91,0,0,1-5.07.23,15.28,15.28,0,0,1-4.25-1.19,1.26,1.26,0,0,0-1.61.25,1.47,1.47,0,0,1-1,.5h0c.19.05.22.15.12.31a4.37,4.37,0,0,1-1.69,0,56.93,56.93,0,0,1-6.9-.54q-4.34-.48-8.6-1.38a76.29,76.29,0,0,1-16.4-5.32,49.41,49.41,0,0,1-9.08-5.3c-.37-.28-.74-.59-1.11-.89a1.79,1.79,0,0,1,0-1.74,1.67,1.67,0,0,0,0-1.54,3,3,0,0,1,.69-3.8,2.55,2.55,0,0,0,.58-1.86,8.81,8.81,0,0,1,1.61-4.78,1.42,1.42,0,0,0,.28-.61,5.59,5.59,0,0,1,3.35-4,9.48,9.48,0,0,1,2.9-.89,1.31,1.31,0,0,0,1.17-.84c1-2.46,3-3.54,5.39-4.05a3.18,3.18,0,0,0,2.3-1.31,1.66,1.66,0,0,1,1.79-.89l4,.25c-.13.59-.67.49-1.06.59a7.73,7.73,0,0,0-2.37.85,1.24,1.24,0,0,0,.9.17h7.7a10.43,10.43,0,0,1,4.49.72c.5.22.78.13.9-.41a1.43,1.43,0,0,1,.9-1.15l6.29.47c1.2.08,2.41.18,3.59.23a36.28,36.28,0,0,1,4.17.37h.57c3.07,0,6.14.33,9.2.57h.38c.19.38-.69.27-.34.67a1.19,1.19,0,0,0,1.24.49c.6-.12.8-.67,1.2-1a32.35,32.35,0,0,1,3.41.22c.32.54-.1.95-.23,1.41a10.82,10.82,0,0,0-.42,1.13.12.12,0,0,0,.16.09c1.28-1,2.93-1.28,4.28-2.12a1.36,1.36,0,0,1,1.17-.18,7.31,7.31,0,0,1,1.24.07c.25,0,.9-.33.7.44a.33.33,0,0,0,.13.07c.69-.12,1.43.25,2.07-.24a.57.57,0,0,1,.36-.07c.82.06,1.64.1,2.46.23a8.47,8.47,0,0,0,1.13.1,64.7,64.7,0,0,1,6.53.45,31.05,31.05,0,0,1,0,3.2c0,1.07,0,1.88,0,2.83-.84.67-1.87.36-2.76.58.84.34,2-.22,2.76.57v1.49c-.31.36-.7.16-1.06.14a1.76,1.76,0,0,0-1,.08c.62.58,1.53,0,2.1.59v1.88c-.54.48-1.14,0-1.8.12.77.85.49,2.3,1.8,2.75v2.16c-1,.4-.07.79,0,1.18v7.41c-.45.39-.9.11-1.33,0a3.84,3.84,0,0,0-2-.21c-.62.12-.9.43-.59,1.07a17.24,17.24,0,0,1,1,3.59,13.89,13.89,0,0,1-2.7,1.06c-.73-.42-.83-1.2-1.09-1.89a3.2,3.2,0,0,0-.26-.81c-.32-.44-.7-.68-1.13-.13a18.58,18.58,0,0,1-2.55,2.77.45.45,0,0,0-.14.62.48.48,0,0,0,.09.11c.2.24.42.48.31.84a8,8,0,0,1-1.67.43c-.58-.47-1.12-.55-1.64.12a1.66,1.66,0,0,1-.68.45,42.38,42.38,0,0,1-5.9,1.14c.5-.82,1.47-.7,2.07-1.09a7.56,7.56,0,0,1-2.88-.27c-.66-.18-.9,0-.76.69a.93.93,0,0,1-.13.9,3.79,3.79,0,0,1-1.53.21.79.79,0,0,1-.24-.49c-.11-.54-.42-.57-.84-.36a18,18,0,0,1-2.25,1,1.19,1.19,0,0,0-.36.09S179.68,232,179.75,232.12Z"/><path class="cls-11" d="M122.22,186a37.69,37.69,0,0,1,6.16-4.1,62.57,62.57,0,0,1,11-4.72,87.58,87.58,0,0,1,12-3c2.42-.42,4.86-.72,7.3-1.06.9-.12,1.8-.12,2.74-.21,3.25-.32,6.52-.23,9.78-.23h2.09c2.53.08,5,.27,7.56.53,2.86.29,5.7.69,8.52,1.24a79.57,79.57,0,0,1,10.9,2.89,52.22,52.22,0,0,1,6.43,2.57v5.17a.82.82,0,0,1-.21.7h-.94l-31.79.08h-3q-10.51,0-21,.08L126,186C124.76,186,123.49,186.13,122.22,186Z"/><path class="cls-11" d="M181.42,188.9h25.32V194c-1.69-.13-3.4-.11-5.09-.37-2.09-.35-4.06-1.17-6.1-1.71a99,99,0,0,0-13.12-2.54,2.15,2.15,0,0,1-.9-.2A.22.22,0,0,1,181.42,188.9Z"/><path class="cls-12" d="M203.74,226.61a5.75,5.75,0,0,1-.74-2.09,5.55,5.55,0,0,0-.61-1.68c-.29-.55-.2-.77.38-1a3.22,3.22,0,0,1,2.12-.09,4.73,4.73,0,0,0,1.8.45v3.27A25.68,25.68,0,0,1,203.74,226.61Z"/><path class="cls-13" d="M206.71,211.55c-1,0-1.05,0-1.24-.89a12.28,12.28,0,0,0-.9-2.11c.75-.2,1.43.3,2.14.14Z"/><path class="cls-13" d="M206.71,204.51a7.78,7.78,0,0,0-2.15-.21,1.48,1.48,0,0,1-1.18-.43,25.06,25.06,0,0,1,3.33-.52Z"/><path class="cls-13" d="M206.69,206.81a11.25,11.25,0,0,1-2.24-.2c-.25-.07-.38-.17-.37-.44s.24-.32.47-.34a17,17,0,0,1,2.14.17A2.21,2.21,0,0,1,206.69,206.81Z"/><path class="cls-14" d="M206.71,214.79l-.46-.33c-.19-.15-.54-.22-.4-.54a.55.55,0,0,1,.68-.39.53.53,0,0,1,.17.08C206.7,214,206.7,214.39,206.71,214.79Z"/><path class="cls-11" d="M114.6,210.43a16.13,16.13,0,0,1-1.87-9.34,18,18,0,0,1,3.64-9.12,5.13,5.13,0,0,0,.52-.79c1.61-.08,3.21.17,4.82.25,2.53.12,5,.33,7.56.51l10.49.75c-.06.51-.52.5-.9.62a75.27,75.27,0,0,0-9,3.8A42.89,42.89,0,0,0,119,204.86a26.45,26.45,0,0,0-3.74,4.88C115.13,210,115.05,210.41,114.6,210.43Z"/><path class="cls-12" d="M114.6,210.43a37.93,37.93,0,0,1,2.92-4.2,34.35,34.35,0,0,1,7.09-6.25,58,58,0,0,1,13.24-6.52,7.72,7.72,0,0,0,1.91-.77,8.11,8.11,0,0,1,2.25.16,3.16,3.16,0,0,0-2,1.5,1.37,1.37,0,0,1-1,.69,11.15,11.15,0,0,0-3.25,1,5.49,5.49,0,0,0-2.91,3.11,1.47,1.47,0,0,1-1.37,1,8.07,8.07,0,0,0-4.93,2.4,3.49,3.49,0,0,0-1.09,2.26,1.21,1.21,0,0,1-.3.67,7.74,7.74,0,0,0-1.61,4.66,12.29,12.29,0,0,1-.18,1.5.82.82,0,0,1-.37.53,2.54,2.54,0,0,0-.81,3.44,1.78,1.78,0,0,1,0,1.93c-.31.47-.13,1.05-.19,1.58A26,26,0,0,1,114.6,210.43Z"/><path class="cls-12" d="M181.44,189.05a86.75,86.75,0,0,1,12.5,2.2c2.33.57,4.63,1.27,6.9,2.05a1.68,1.68,0,0,1,.77.34,58.59,58.59,0,0,1-6.21-.34,4.82,4.82,0,0,0-.76,0,49,49,0,0,1-5-.35c-.84-.08-1.69-.06-2.55-.08-.37-.42-.52-1-1-1.37a3.57,3.57,0,0,0-3.64-.58,6.37,6.37,0,0,1-2.12.35,28,28,0,0,0-4.63.89c-1.8-.13-3.6-.09-5.39-.31-1-.12-2-.13-2.93-.17-1.58-.06-3.16-.18-4.74-.29a36.49,36.49,0,0,1-4.43-.3,2.5,2.5,0,0,0-.67,0c-1.9,0-3.78-.17-5.67-.35-.9-.09-1.8,0-2.69-.07-.32,0-.64.09-.9-.09.22-.4.64-.36,1-.43a48.24,48.24,0,0,1,8.53-1.18,2.38,2.38,0,0,0,.74-.15,11.26,11.26,0,0,1,2.17.15H180.6C180.86,189.08,181.18,188.91,181.44,189.05Z"/><path class="cls-15" d="M158.58,188.73a1.41,1.41,0,0,1-1,.33c-2.69.25-5.39.71-8.08,1.22l-1.21.21L141,190c-3.85-.25-7.69-.5-11.55-.72-2.33-.13-4.66-.23-7-.44-.06-.15,0-.23.14-.26h11.3a1.39,1.39,0,0,1,.57.06h1.23Z"/><path class="cls-16" d="M157.44,193.87a3.43,3.43,0,0,0-.82,2.14.45.45,0,0,1-.42,0,9.33,9.33,0,0,0-4.49-1h-8.84a1.38,1.38,0,0,1-1-.17,4.08,4.08,0,0,1,2.06-1.13,11.63,11.63,0,0,0,2.08-.56l3.75.3c.12,0,.25,0,.36,0,1.46-.08,2.89.2,4.34.23C155.43,193.69,156.43,193.86,157.44,193.87Z"/><path class="cls-17" d="M175.73,192.1a10.9,10.9,0,0,1,4.72-1.11,5.52,5.52,0,0,0,1.93-.33,3.64,3.64,0,0,1,4.49,1.31,1.19,1.19,0,0,1,.22.9,4.7,4.7,0,0,1-2-.37.32.32,0,0,0-.42,0,.83.83,0,0,1-.8.15c-1.13-.15-2.27-.09-3.4-.21C178.88,192.28,177.29,192.35,175.73,192.1Z"/><path class="cls-12" d="M192.07,196.28a1.53,1.53,0,0,0-1,.3,4,4,0,0,1-1.92.89,5.34,5.34,0,0,0-1.84,1,5.38,5.38,0,0,1-.71.46.41.41,0,0,1-.52-.06c-.12-.14,0-.3.07-.44a14.3,14.3,0,0,0,.9-2.47c1.57,0,3.13.27,4.71.21C191.91,196.15,192,196.23,192.07,196.28Z"/><path class="cls-18" d="M183.7,195.72c0,.23.16.47-.15.68a5.55,5.55,0,0,1-1.06.6c-.6.21-1.27-.24-1.7-1.12.19-.3.62,0,.81-.32A5.14,5.14,0,0,1,183.7,195.72Z"/><path class="cls-19" d="M134.41,188.67h-12c-.49.19-1,0-1.51.14a3.29,3.29,0,0,1-1.73-.17c-.08,0-.1-.08-.07-.11h14.39A1.4,1.4,0,0,1,134.41,188.67Z"/><path class="cls-20" d="M120.9,188.87c.48-.32,1-.14,1.51-.15a.43.43,0,0,0,0,.16Z"/><path class="cls-21" d="M119.19,188.53a.49.49,0,0,0,0,.17h-1.13A1.85,1.85,0,0,1,119.19,188.53Z"/><path class="cls-22" d="M181.44,189.05a.89.89,0,0,1-.83-.16h.81A.41.41,0,0,1,181.44,189.05Z"/><path class="cls-1" d="M81.66,159.47a10.27,10.27,0,0,1,1.79-5.28,2.25,2.25,0,0,1,.9-.69c.79-.29,1.34.09,1.3.9a7.18,7.18,0,0,1-.19,1c-.26,1.25-.52,2.52-.8,3.78a3,3,0,0,1-.9,1.62c-.83.7-1.8.51-2-.63A4.66,4.66,0,0,1,81.66,159.47Z"/><path class="cls-23" d="M67.3,154.84a2.52,2.52,0,0,1,.21.54c0,1.51.35,3,.26,4.49a1.79,1.79,0,0,1-1.8,1.8h-.13c-.82,0-1.07-.29-1.2-1.26l.36,0c1-.1,1.35-.68.9-1.55a.76.76,0,0,1-.05-.78A28.61,28.61,0,0,0,67.3,154.84Z"/><path class="cls-12" d="M196.24,229.18l-.23-.41c-.18-.32-.69-.5-.62-.9s.55-.49.81-.75a24.3,24.3,0,0,0,2.09-2.33c.21-.26.32-.71.75-.59a1.2,1.2,0,0,1,1,.9,7.29,7.29,0,0,0,1,2.55A44.12,44.12,0,0,1,196.24,229.18Z"/><path class="cls-13" d="M165.44,232.12a3.45,3.45,0,0,0,1.38-.9c.22-.21.42-.37.74-.22,1.59.68,3.28,1.08,4.9,1.68a24.32,24.32,0,0,1-2.7,0c-1.11-.19-2.25,0-3.38-.16a1.17,1.17,0,0,1-.62-.18h-.35s-.07-.07,0-.1S165.42,232.12,165.44,232.12Z"/><path class="cls-24" d="M184.65,231.55a6,6,0,0,1-.09-2.09,14.52,14.52,0,0,0,4.49.59,13.49,13.49,0,0,1-2.69,1.26A6.19,6.19,0,0,1,184.65,231.55Z"/><path class="cls-25" d="M179.75,232.12h-.45V232l3.17-1.49c.3-.13.46,0,.57.28a3.23,3.23,0,0,1,.11,1A12.15,12.15,0,0,1,179.75,232.12Z"/><path class="cls-26" d="M192.25,230.18c.3-.32.59-.66.9-1,.58-.55.79-.52,1.27.14.05.08.1.16.14.24A10.14,10.14,0,0,1,192.25,230.18Z"/><path class="cls-27" d="M165.79,232.32c1.33.17,2.7.05,4,.33h-5.18a.71.71,0,0,1-.53-.15C164.64,232.39,165.24,232.66,165.79,232.32Z"/><path class="cls-1" d="M73.67,179.29a11.31,11.31,0,0,1,1.66-5.39,2.32,2.32,0,0,1,1-.85.67.67,0,0,1,.9.15.77.77,0,0,1,.12,1,1.61,1.61,0,0,0-.13,2.16,1.32,1.32,0,0,1,0,1.1,9.71,9.71,0,0,1-1,2.54l-.1.17a1.61,1.61,0,0,1-1.59.82c-.51-.12-.77-.61-.8-1.47A.74.74,0,0,1,73.67,179.29Z"/><path class="cls-1" d="M83.57,179.09a10.81,10.81,0,0,1,1.35-4.7,2.92,2.92,0,0,1,1.14-1.12,1,1,0,0,1,1.16,0,.84.84,0,0,1,.28,1c-.36,1.6-.72,3.2-1.06,4.81a2.43,2.43,0,0,1-.9,1.43,1.15,1.15,0,0,1-2-.8C83.54,179.52,83.55,179.3,83.57,179.09Z"/><path class="cls-1" d="M63.77,179.33a11.34,11.34,0,0,1,1.8-5.59,1.38,1.38,0,0,1,.89-.64c.31-.06.65-.12.9.2a.77.77,0,0,1,0,1,1.59,1.59,0,0,0-.4,1.22.78.78,0,0,0,.12.54c.52.4.35.9.23,1.39a7,7,0,0,1-1.12,2.7,2.15,2.15,0,0,1-.89.8.9.9,0,0,1-1.34-.62A2.82,2.82,0,0,1,63.77,179.33Z"/><path class="cls-23" d="M104.81,173.72a4.11,4.11,0,0,1-2.47,3.48c-.21.07-.44.17-.62,0s0-.35,0-.53a13.73,13.73,0,0,1,1-2.47,4.16,4.16,0,0,1,.85-1c.22-.22.48-.44.83-.3S104.73,173.44,104.81,173.72Z"/><path class="cls-28" d="M141.42,200.11a20.71,20.71,0,0,1,5.39-.34h1a9.41,9.41,0,0,1,5,1.15c1.55.7,3.17,1.24,4.68,2,1.16.59,2.29,1.23,3.39,1.93a9.11,9.11,0,0,1,4.13,8.17c-.19.37-.6.42-.9.61-.9.53-.9.89-.08,1.51.17.13.4.19.44.45a5,5,0,0,1-.74,1.85,1.27,1.27,0,0,1-.82,1.15,20.91,20.91,0,0,0-4.18,6.63,7.66,7.66,0,0,1-1.9,2.7c-.72,1.15-2,1.27-3.12,1.54a3,3,0,0,1-2.21,0,37.59,37.59,0,0,1-4.37-.43,4.23,4.23,0,0,1-3.05-1l-3-1.3h0a5.85,5.85,0,0,0-1.53-.74,6,6,0,0,1-2.7-1.34,16.91,16.91,0,0,0-5.09-1.62,9.45,9.45,0,0,1-3.95-1.42,2.2,2.2,0,0,1-1.43-1.69,11.46,11.46,0,0,1-1.4-5.25,13.48,13.48,0,0,1,.06-2.54,3.94,3.94,0,0,1,1.45-2.69c1.34-1.1,2.69-2.16,4.08-3.23l2.48-1.9c0-.25.23-.33.44-.38a14.87,14.87,0,0,0,2-1.36.29.29,0,0,1,.4-.21,24.8,24.8,0,0,1,5-2.22C141,199.94,141.22,200,141.42,200.11Z"/><path class="cls-12" d="M175.87,231.37c0,.26-.14.31-.38.26-1.06-.24-2.16-.43-3.22-.72s-2.35-.75-3.5-1.15c-.63-.22-.62-.26-.41-.9a10.26,10.26,0,0,0,.5-1.72c.12-.78.49-1,1.29-.66.62.25,1.24.46,1.88.65a6.55,6.55,0,0,0,2.25.21c.48,0,.73.17.77.62a11.46,11.46,0,0,0,.8,3.3A.89.89,0,0,0,175.87,231.37Z"/><path class="cls-12" d="M183.51,203.94c-.92.42-1.82.87-2.7,1.38a.86.86,0,0,1-.72.05c-2.24-.51-4.5-1-6.7-1.66a5.14,5.14,0,0,0-1.11-.18c-.21,0-.5,0-.49-.31a.47.47,0,0,1,.49-.38,4.74,4.74,0,0,1,1.8,0,8,8,0,0,0,4.29,0,21.69,21.69,0,0,1,3.78-.12C182.57,202.8,182.74,203,183.51,203.94Z"/><path class="cls-12" d="M169.05,223a10.15,10.15,0,0,0-.49-2.79c-.11-.4,0-.57.38-.66.74-.14,1.47-.35,2.21-.53a6.07,6.07,0,0,0,4,1.45.89.89,0,0,1,.79.26,5.46,5.46,0,0,1-2.12,2.09.73.73,0,0,1-.69.25,10.85,10.85,0,0,0-3.55.1A.63.63,0,0,1,169.05,223Z"/><path class="cls-12" d="M182.67,228.6a50,50,0,0,1-4.84,2.24c-.31.14-.48,0-.57-.27a9.9,9.9,0,0,1-.67-2.93c0-.23,0-.41.25-.43a11,11,0,0,1,3.17-.44.81.81,0,0,1,.51.18A16.35,16.35,0,0,0,182.67,228.6Z"/><path class="cls-12" d="M190.25,199.39a1.89,1.89,0,0,1,1.56-.81c2-.08,3.93-.18,5.89-.16A1.7,1.7,0,0,1,199,199a10.84,10.84,0,0,0,2,1.6,13.17,13.17,0,0,1-3.6-.26c-1.18-.11-2.39-.2-3.59-.41S191.5,199.7,190.25,199.39Z"/><path class="cls-16" d="M154.76,197.23c-.9.12-1.8.22-2.7.36a1.36,1.36,0,0,1-.81-.17,4.48,4.48,0,0,0-5.07.51,4.09,4.09,0,0,1-2.61.67.55.55,0,0,1-.55-.31,4.75,4.75,0,0,0-1.44-1.88,15.72,15.72,0,0,1,3.36,0,9.71,9.71,0,0,0,1.2.1h6.18A4.49,4.49,0,0,1,154.76,197.23Z"/><path class="cls-12" d="M151.53,229.44a16.5,16.5,0,0,0,2.88-.4,8.55,8.55,0,0,0,2.45-1.14,6,6,0,0,0,1.88-.12c.38-.13.6,0,.66.43a2.54,2.54,0,0,0,.1.37c.18,1.11.07,1.29-1,1.62a10.1,10.1,0,0,1-6.29-.25C151.91,229.85,151.63,229.76,151.53,229.44Z"/><path class="cls-29" d="M184.1,220.66a9.09,9.09,0,0,0,2.33,0c.68.55,1.69.53,2.23,1.32a.57.57,0,0,1,0,.77,2.34,2.34,0,0,1-1,.7,9.16,9.16,0,0,1-5.67.15,4.41,4.41,0,0,1-.78-.32c-.8-.42-.9-.71-.5-1.61A3.47,3.47,0,0,1,184.1,220.66Z"/><path class="cls-30" d="M170.54,207.54c0-.74.51-1.06,1.08-1.29a8.66,8.66,0,0,1,4-.5,6.5,6.5,0,0,1,2.56.65c.37.19.72.42.75.89s-.34.72-.7.9a7.3,7.3,0,0,1-2.54.71,13.28,13.28,0,0,1-3.45-.09C171.48,208.72,170.7,208.5,170.54,207.54Z"/><path class="cls-31" d="M175.93,220.69a10.61,10.61,0,0,1-3.17-.4,2,2,0,0,1-1.61-1.31,2.6,2.6,0,0,1,1.88-1.3,11,11,0,0,1,4.78,0,2.74,2.74,0,0,1,1.43.71.79.79,0,0,1,.21,1.1.73.73,0,0,1-.29.26,2.62,2.62,0,0,1-1.1.53C177.35,220.44,176.64,220.56,175.93,220.69Z"/><path class="cls-32" d="M176.84,214.6a9.93,9.93,0,0,1,6-.22,3.18,3.18,0,0,1,1,.48c.71.51.7,1.07,0,1.57a2.68,2.68,0,0,1-.75.39,9.63,9.63,0,0,1-5.6.05,3.66,3.66,0,0,1-.94-.44c-.68-.44-.7-1-.09-1.53.11-.11.23-.2.35-.3Z"/><path class="cls-31" d="M164.49,215.61a2.94,2.94,0,0,1-1-.54.77.77,0,0,1-.24-1.06.78.78,0,0,1,.24-.24,4.35,4.35,0,0,1,1.54-.72,10.75,10.75,0,0,1,5.89.43.25.25,0,0,1,.18.15c.58.85.5,1.23-.36,1.72a2.85,2.85,0,0,1-1.14.42,2.28,2.28,0,0,1-2.45.33A14.16,14.16,0,0,1,164.49,215.61Z"/><path class="cls-30" d="M189,219a9.43,9.43,0,0,1,5.87-.24,4.54,4.54,0,0,1,.89.34c.38.18.72.42.73.9s-.33.72-.7.9a5.32,5.32,0,0,1-2,.58,9,9,0,0,1-4.5-.37c-.63-.25-1.24-.55-1.19-1.4A.89.89,0,0,1,189,219Z"/><path class="cls-31" d="M182.9,209.63a1.12,1.12,0,0,1,.75-1.39l.15,0a9.34,9.34,0,0,1,3.59-.62c.53.17,1.07-.16,1.59,0s.84.09,1.07.51c.48.22,1,.39,1.16,1a.13.13,0,0,1,0,.13v.07c-.08.6-.63.8-1,1.14a.75.75,0,0,1-1,.24,12.09,12.09,0,0,1-4.94-.1C183.65,210.45,183,210.41,182.9,209.63Z"/><path class="cls-31" d="M169.05,223a14.37,14.37,0,0,1,4.76-.18c.5.19,1,.4,1.46.63.84.58.81,1.22-.09,1.73a4.76,4.76,0,0,1-1.8.58,9.45,9.45,0,0,1-4.57-.3,2.17,2.17,0,0,1-.35-.15c-.41-.21-.9-.38-.94-1s.48-.83.89-1.08Z"/><path class="cls-16" d="M159.72,202.94a1.55,1.55,0,0,1,1.1-1.13,5,5,0,0,1,2.54-.09c2,.34,4,.89,6,1.08.12,0,.27,0,.31.16a.39.39,0,0,1-.28.44,3.93,3.93,0,0,1-2.32.29c-.47-.08-.9-.19-1.38-.31a13.18,13.18,0,0,0-5.62-.37A.37.37,0,0,1,159.72,202.94Z"/><path class="cls-12" d="M184.1,220.66a7.38,7.38,0,0,0-3.42,1,2.5,2.5,0,0,0-.35-.56c-.65-.63-.25-1.38-.19-2,0-.39.56-.52.9-.57a13.39,13.39,0,0,1,2.83,0c.33,0,.58.19.46.63S184.36,220.16,184.1,220.66Z"/><path class="cls-16" d="M187.58,200.66l8.54,1.06c0,.35-.22.29-.38.29-1.9,0-3.78.29-5.66.42a8.44,8.44,0,0,0-.9.16c-.69,0-1-.13-1.19-.79C187.86,201.47,187.75,201.14,187.58,200.66Z"/><path class="cls-16" d="M141.42,200.11l-.54.1a37.86,37.86,0,0,0-5.92-.43,6.22,6.22,0,0,1,3.92-2.14c.23,0,.39,0,.45.23A4.47,4.47,0,0,0,141.42,200.11Z"/><path class="cls-13" d="M136.83,224.65a16.16,16.16,0,0,1,2.7,1.34c-.06.15-.14.29-.19.43-.39,1.12-.39,1.13-1.46.73a11.27,11.27,0,0,1-2.79-1.36,1.43,1.43,0,0,1-.69-.8A11.76,11.76,0,0,1,136.83,224.65Z"/><path class="cls-33" d="M184.52,227.71c.14-1.12.13-1.22,1.14-1.26,1.61-.06,3-.83,4.57-1.13a2.68,2.68,0,0,0,.9-.35,1.68,1.68,0,0,1,1.45-.09c.25.05.42.17.44.42s.24.62,0,.9-.56.15-.89.1a9.55,9.55,0,0,0-4.22.23,18.63,18.63,0,0,0-2.5.9A9.18,9.18,0,0,1,184.52,227.71Z"/><path class="cls-16" d="M167.16,216.1a14.57,14.57,0,0,0,2.45-.33,5.51,5.51,0,0,0,1.8.71,4.33,4.33,0,0,1,1,.38,6.17,6.17,0,0,1-1.91.65,21.7,21.7,0,0,1-2.29.51c-.77.14-.9,0-1-.81A3.22,3.22,0,0,0,167.16,216.1Z"/><path class="cls-13" d="M170.54,207.54c.76,1.06,1.94,1.18,3.09,1.33.68.08,1.37,0,2.06.06a1.12,1.12,0,0,1-.82.13,20.38,20.38,0,0,0-7.27,1.09h-.43A5.72,5.72,0,0,1,170.54,207.54Z"/><path class="cls-16" d="M198.44,213.58c.85,1.32,2.08,2,2.7,3.42-1,.19-1.85.49-2.75-.06a.65.65,0,0,1-.38-.76C198.19,215.38,198.25,214.62,198.44,213.58Z"/><path class="cls-16" d="M161.2,231.67a1.18,1.18,0,0,1,.7-1.34c.23-.11.41-.29.63-.41s.53-.75,1-.61a9,9,0,0,1,1.71.75c.24.12.08.33-.08.44a5.58,5.58,0,0,1-1.16.61,4.57,4.57,0,0,1-1.34.39A3.16,3.16,0,0,1,161.2,231.67Z"/><path class="cls-16" d="M153.64,199a16.63,16.63,0,0,1,3-.37c.44,0,1.07.9,1,1.32a.43.43,0,0,1-.35.28c-.59.1-1.18.19-1.8.27-.28,0-.44-.22-.64-.36A3.79,3.79,0,0,1,153.64,199Z"/><path class="cls-33" d="M170.75,211.07a4.92,4.92,0,0,1,2.07-.46,16.35,16.35,0,0,1,2,0,4.94,4.94,0,0,0,2.56-.54c.16-.08.36-.26.52-.08a1,1,0,0,1,.25.78c0,.24-.28.21-.46.24-1.12.18-2.26.16-3.38.35A18.11,18.11,0,0,1,170.75,211.07Z"/><path class="cls-16" d="M167.35,226.59a6.49,6.49,0,0,1-.54,1.95.4.4,0,0,1-.61.23l-1.23-.53c-.4-.18-.34-.35-.11-.6a11.93,11.93,0,0,0,.9-1.33c.29-.49.71-.25,1.1-.16S167.38,226.37,167.35,226.59Z"/><path class="cls-34" d="M189.18,210.63a4.05,4.05,0,0,1,1-.24l1.67.63-1.59,1.49a.4.4,0,0,1-.43.09,11.27,11.27,0,0,1-1.86-.7C188.22,211.3,189,211.2,189.18,210.63Z"/><path class="cls-33" d="M131.68,202.2a25.74,25.74,0,0,0-.57,3,9.16,9.16,0,0,0-1.89-.16c-.24,0-.34-.15-.23-.38A4.5,4.5,0,0,1,131.68,202.2Z"/><path class="cls-33" d="M191,216.88c-.68.16-1.1-.19-1.35-.9-.09-.25-.17-.47.07-.66s.36-.9,1-.68c.83.26,1.15.6,1.19,1.35v.29c0,.66,0,.66-.64.6Z"/><path class="cls-35" d="M171.11,213.63l-.18-.15a5,5,0,0,1,2.84-.37c.84.13,1.65.42,2.48.61a.69.69,0,0,1,.62.75.4.4,0,0,1,0,.15h0a31.27,31.27,0,0,0-4-.77A6.11,6.11,0,0,0,171.11,213.63Z"/><path class="cls-35" d="M165.29,204.92a20.66,20.66,0,0,0-1.75,1.33.39.39,0,0,1-.7-.13,11.34,11.34,0,0,0-1.3-1.71A9.2,9.2,0,0,1,165.29,204.92Z"/><path class="cls-33" d="M196.06,214.94c0,.43-.19.58-.58.39s-1-.59-1.58-.9a.52.52,0,0,1-.26-.69l0,0a1.1,1.1,0,0,1,1.44-.55l.05,0A3.4,3.4,0,0,1,196.06,214.94Z"/><path class="cls-36" d="M152.84,200.91l-5-1.15a12.14,12.14,0,0,1,2.54-.42c1.19-.19,1.8.56,2.42,1.38A.6.6,0,0,1,152.84,200.91Z"/><path class="cls-37" d="M172,196.81a1.93,1.93,0,0,1,1.06-.11,20.27,20.27,0,0,0,3.39-.32c.34-.06.9-.29,1,.26s-.48.41-.81.44a4.6,4.6,0,0,0-1.23.14,6.3,6.3,0,0,1-2.8,0A.6.6,0,0,1,172,196.81Z"/><path class="cls-35" d="M206,219.87a4.57,4.57,0,0,1-2.14-.19c-.3-.14-.59-.26-.51-.68a.73.73,0,0,1,.63-.61C205.08,218.18,205.62,218.57,206,219.87Z"/><path class="cls-35" d="M125.26,209a5.87,5.87,0,0,1,.34-1.31,1.21,1.21,0,0,1,1.27-1,.73.73,0,0,1,.78.34c.21.33.25.57-.21.7A7.64,7.64,0,0,0,125.26,209Z"/><path class="cls-38" d="M202.64,212.49c-1.15-.32-2.27-.73-3.44-1-.19,0-.4-.12-.37-.35s.29-.17.46-.2A3.1,3.1,0,0,1,202.64,212.49Z"/><path class="cls-39" d="M177.75,225.26h-.57c-.34,0-.54-.1-.54-.48s0-.58.46-.68c.9-.23,1.06-.21,1.48.53.25.45.18.59-.36.63A3.69,3.69,0,0,1,177.75,225.26Z"/><path class="cls-37" d="M191.16,209.25a.61.61,0,0,0,0-.19c1.18-.84,1.18-.84,2.38.09.16.12.45.23.3.5a.49.49,0,0,1-.64.27l-.07,0c-.29-.13-.59-.22-.9-.36A2.19,2.19,0,0,0,191.16,209.25Z"/><path class="cls-39" d="M175.53,201.21a4.82,4.82,0,0,1,4.19-.29C178.24,201.5,176.87,201.19,175.53,201.21Z"/><path class="cls-40" d="M182.8,213.82c-.79-.16-1.4-.28-2-.42-.2,0-.49-.09-.44-.4a.63.63,0,0,1,.43-.46,1.35,1.35,0,0,1,1.73.66C182.59,213.33,182.65,213.48,182.8,213.82Z"/><path class="cls-41" d="M144.1,228.05l3.06,1c0,.38-.28.46-.61.39-.77-.18-1.54-.35-2.3-.54C143.66,228.71,143.65,228.62,144.1,228.05Z"/><path class="cls-42" d="M184.9,212.9a13.26,13.26,0,0,1,2.84.77,4.86,4.86,0,0,1-1.64.35C184.88,214,185.09,214,184.9,212.9Z"/><path class="cls-43" d="M191.52,227.85a6.72,6.72,0,0,1-4,.54A6.8,6.8,0,0,1,191.52,227.85Z"/><path class="cls-44" d="M194.66,205c-.9.65-1.73,1.22-3,.63C192.68,205.11,193.46,204.3,194.66,205Z"/><path class="cls-45" d="M181.5,199.84c1.13.37,2.27,0,3.22.74C183.55,201.21,182.55,201,181.5,199.84Z"/><path class="cls-40" d="M200.65,213.49l1.8.72c.18.08.39.14.38.35a1,1,0,0,1-.56.71c-.2.14-.35,0-.48-.18-.42-.49-.83-1-1.25-1.5Z"/><path class="cls-39" d="M162,226.76l1.4-.9a.45.45,0,0,1,.6,0c.19.17,0,.33-.1.48l-.11.15C163.11,227.46,163.06,227.47,162,226.76Z"/><path class="cls-46" d="M162.69,197.87l-1.27,1a.77.77,0,0,1-1.07-.17.73.73,0,0,1-.14-.31.3.3,0,0,1,.24-.35h.09A21,21,0,0,1,162.69,197.87Z"/><path class="cls-40" d="M182,207.21a6.44,6.44,0,0,0-.89,1.35h-.26c-.21-.27-.74-.38-.57-.83A1.4,1.4,0,0,1,182,207.21Z"/><path class="cls-47" d="M182.9,209.63c.31.5.9.56,1.35.9l-.14.13c-.68.65-1.36.46-1.66-.44C182.31,209.8,182.72,209.8,182.9,209.63Z"/><path class="cls-40" d="M162.14,222c.52-.18,1-.29,1.46-.47.14-.06.32-.09.41.08a1,1,0,0,1,0,.83c-.07.17-.25.15-.41.09Z"/><path class="cls-48" d="M168.27,200.83a5.69,5.69,0,0,1,2.78.12A2.87,2.87,0,0,1,168.27,200.83Z"/><path class="cls-36" d="M126.37,219.93l1.43,1.69c-.41-.1-.83-.21-1.25-.29a.54.54,0,0,1-.44-.82C126.19,220.32,126.17,220.08,126.37,219.93Z"/><path class="cls-49" d="M189,219l-.9.76H188c-.26-.32-.71-.56-.58-1,.05-.17.4-.08.62-.09A.81.81,0,0,1,189,219Z"/><path class="cls-50" d="M194.66,226.23c-.25-1.31-.16-1.39,1.26-1.32A3.4,3.4,0,0,1,194.66,226.23Z"/><path class="cls-51" d="M172.47,205.38c-1.14.25-2.27.58-3.41.84A4.86,4.86,0,0,1,172.47,205.38Z"/><path class="cls-52" d="M190,208.09a6.23,6.23,0,0,0-2.13-.36.67.67,0,0,1-.53-.14,4.48,4.48,0,0,1,2.49-.05C190.24,207.68,190.1,207.87,190,208.09Z"/><path class="cls-53" d="M158.66,194.9c.2,0,.36.16.36.36a.86.86,0,0,1-.15.44c-.19.29-.07.79-.52.89-.2.06-.24-.78,0-1.28C158.39,195.15,158.44,195,158.66,194.9Z"/><path class="cls-54" d="M195.56,207.69a2.24,2.24,0,0,1,1.09-.13c.16,0,.32,0,.35.22a.38.38,0,0,1-.18.4C196.36,208.54,196,208.43,195.56,207.69Z"/><path class="cls-50" d="M202.65,202.11c1.06-.65,1.06-.65,1.84-.19A2.28,2.28,0,0,1,202.65,202.11Z"/><path class="cls-55" d="M196.82,206a2.15,2.15,0,0,1,2.22-.59A6.82,6.82,0,0,1,196.82,206Z"/><path class="cls-56" d="M135.92,202.38l-.4.22a4.53,4.53,0,0,1-1.22-.08.29.29,0,0,1-.2-.29c0-.17.15-.19.28-.2A3.31,3.31,0,0,1,135.92,202.38Z"/><path class="cls-57" d="M195.72,221.22l2.76.48c-.47.58-.95.14-1.31.05S196.19,221.78,195.72,221.22Z"/><path class="cls-58" d="M162.93,218.62l.82-1.15a.63.63,0,0,1,.14.51C163.9,218.82,163.8,218.89,162.93,218.62Z"/><path class="cls-37" d="M168.68,199.21a13.88,13.88,0,0,0-1.58,0,.27.27,0,0,1-.31-.27.31.31,0,0,1,.39-.28A3.93,3.93,0,0,1,168.68,199.21Z"/><path class="cls-45" d="M193.76,223.29a2.3,2.3,0,0,1,2.31,0A7.77,7.77,0,0,1,193.76,223.29Z"/><path class="cls-45" d="M181.32,224.17c-.8.47-.8.47-1.31-.36A1.16,1.16,0,0,1,181.32,224.17Z"/><path class="cls-59" d="M188.16,223.71c-.49.66-.49.66-1.71.51A4.29,4.29,0,0,1,188.16,223.71Z"/><path class="cls-46" d="M194.66,216.66c-1,.33-1.13.27-1.13-.63Z"/><path class="cls-60" d="M199.66,208.93a2.82,2.82,0,0,1,1.68-.36A1.37,1.37,0,0,1,199.66,208.93Z"/><path class="cls-61" d="M198.15,218.86a1.8,1.8,0,0,1,1.62.81A4.34,4.34,0,0,1,198.15,218.86Z"/><path class="cls-53" d="M179,196a4.35,4.35,0,0,1,.57,1.14C178.86,197.2,178.86,197.2,179,196Z"/><path class="cls-62" d="M206.05,198.93c-.29.36-.67.25-1,.21a.23.23,0,0,1-.16-.28v0a.19.19,0,0,1,.2-.18s0,0,.07,0C205.44,198.81,205.76,198.7,206.05,198.93Z"/><path class="cls-63" d="M127.08,205a1.42,1.42,0,0,1,.52-1.26A1.81,1.81,0,0,1,127.08,205Z"/><path class="cls-64" d="M165.29,208.78a2.57,2.57,0,0,1,.9-.25C165.91,209.35,165.91,209.36,165.29,208.78Z"/><path class="cls-65" d="M165.71,221.42c0-.4-.46-.75-.17-1.19a.22.22,0,0,1,.16,0A1.94,1.94,0,0,1,165.71,221.42Z"/><path class="cls-66" d="M167.28,212.43c-.41.06-.67.39-1,0a.28.28,0,0,1,0-.25C166.61,212,166.88,212.16,167.28,212.43Z"/><path class="cls-67" d="M141.08,226.75a2.26,2.26,0,0,1-.4,1.33,1.07,1.07,0,0,1,.39-1.34Z"/><path class="cls-68" d="M123.68,213.8a3.21,3.21,0,0,1,0,1.31C123.37,214.66,123.21,214.34,123.68,213.8Z"/><path class="cls-51" d="M164.6,199.09c.07-.27.19-.47.51-.39,0,0,.11.17.08.23C165.08,199.25,164.85,199.21,164.6,199.09Z"/><path class="cls-50" d="M161.55,228.56c-.06.14-.15.27-.33.24s-.17-.23-.17-.37.09-.22.23-.17S161.56,228.37,161.55,228.56Z"/><path class="cls-69" d="M133.47,204a.88.88,0,0,1-.44.39,1.14,1.14,0,0,1-.16-.31.41.41,0,0,1,.08-.32c.09-.08.21,0,.3.1Z"/><path class="cls-70" d="M203.31,198.83c0,.06-.06.2-.1.2a.29.29,0,0,1-.27-.29v0a.31.31,0,0,1,.12-.21C203.27,198.48,203.29,198.64,203.31,198.83Z"/><path class="cls-71" d="M177.59,222.35c0,.16-.11.21-.25.21a.17.17,0,0,1-.19-.15h0a.23.23,0,0,1,.19-.27C177.44,222.12,177.51,222.23,177.59,222.35Z"/><path class="cls-72" d="M195.89,211.36c-.09,0-.25,0-.23-.16s.13-.19.26-.19.25,0,.25.17S196,211.34,195.89,211.36Z"/><path class="cls-57" d="M160.89,196.43c-.2.08-.51.19-.52-.1s.26-.11.41,0S160.85,196.38,160.89,196.43Z"/><path class="cls-73" d="M162.44,195a.22.22,0,0,1-.22.12.24.24,0,0,1-.27-.27c0-.18.15-.09.24-.07A.29.29,0,0,1,162.44,195Z"/><path class="cls-74" d="M184.46,198.1s.1.08.1.12a.27.27,0,0,1-.27.16.1.1,0,0,1-.08-.11l0,0A.22.22,0,0,1,184.46,198.1Z"/><path class="cls-75" d="M183,226.76a.16.16,0,0,1-.11.13.2.2,0,0,1-.24-.17v0a.49.49,0,0,1,.16-.07.17.17,0,0,1,.19.13Z"/><path class="cls-76" d="M160.9,225.43a.72.72,0,0,1-.19.14.12.12,0,0,1-.16-.07.17.17,0,0,1,0-.07.16.16,0,0,1,.18-.16C160.81,225.27,160.9,225.26,160.9,225.43Z"/><path class="cls-4" d="M165.07,194.89c-.1.14-.22.22-.38.14s-.08-.15-.07-.15A.43.43,0,0,1,165.07,194.89Z"/><path class="cls-27" d="M165.44,232.12v.16C165.29,232.23,165.29,232.17,165.44,232.12Z"/><path class="cls-77" d="M142.09,220.91a8.53,8.53,0,0,1-5.34-1.67,5.18,5.18,0,0,1-2.34-4.62,5.46,5.46,0,0,1,2.69-4.28,9.33,9.33,0,0,1,10.6.41,5.09,5.09,0,0,1,1.2,7.1,5.21,5.21,0,0,1-.77.86A8.65,8.65,0,0,1,142.09,220.91Z"/><path class="cls-78" d="M184.61,223.33a4.89,4.89,0,0,1-2.19-.45c-.23-.12-.53-.29-.49-.63s.29-.39.53-.48a5.15,5.15,0,0,1,3.76-.26c.43.14,1,.22,1,.81s-.59.62-1,.75A3.81,3.81,0,0,1,184.61,223.33Z"/><path class="cls-79" d="M172.11,207.38c-.05-.41.26-.57.55-.68a6.07,6.07,0,0,1,4.16,0,.84.84,0,0,1,.24.14c.46.3.49.65,0,1a2.87,2.87,0,0,1-1.8.49A16.56,16.56,0,0,1,172.11,207.38Z"/><path class="cls-80" d="M172.11,207.38a7.49,7.49,0,0,1,3.2.89,4.68,4.68,0,0,1-2.29-.18C172.64,208,172.24,207.83,172.11,207.38Z"/><path class="cls-81" d="M176.46,219.92a5,5,0,0,1-3-.19,1.26,1.26,0,0,1-.33-.16c-.55-.39-.56-.77,0-1.06a4.49,4.49,0,0,1,3.48-.3A1.27,1.27,0,0,1,176.46,219.92Z"/><path class="cls-82" d="M176.46,219.92a5.83,5.83,0,0,0,.23-1.71,1.41,1.41,0,0,1,.8.21c.24.13.58.21.6.54s-.33.58-.64.72A1.91,1.91,0,0,1,176.46,219.92Z"/><path class="cls-83" d="M180.21,214.61a5.08,5.08,0,0,1,2.21.44.69.69,0,0,1,.49.54.66.66,0,0,1-.49.64,5.54,5.54,0,0,1-4.34,0,.6.6,0,0,1,0-1.18A5.33,5.33,0,0,1,180.21,214.61Z"/><path class="cls-78" d="M165,214a5,5,0,0,1,4.44-.15c.26.1.54.24.52.6s-.26.48-.52.6a2.87,2.87,0,0,1-.62.22,8.89,8.89,0,0,1-3,0,1.42,1.42,0,0,1-1-.51C164.65,214.48,164.89,214.23,165,214Z"/><path class="cls-84" d="M165,214c0,.26-.12.51-.17.76C164.47,214.4,164.57,214.16,165,214Z"/><path class="cls-85" d="M190.53,219.35a3.73,3.73,0,0,1,2.65-.2c.53.4,1.35.56,1.16,1.51a4.87,4.87,0,0,1-3.82.06A1.13,1.13,0,0,1,190.53,219.35Z"/><path class="cls-86" d="M194.34,220.66c0-.34-.24-.48-.42-.69a3.58,3.58,0,0,1-.73-.82,2.13,2.13,0,0,1,1.08.2c.31.12.62.25.67.6S194.66,220.55,194.34,220.66Z"/><path class="cls-87" d="M190.53,219.35v1.37c-.44-.06-.9-.22-.9-.69S190.09,219.4,190.53,219.35Z"/><path class="cls-78" d="M189,208.66c.34.06.58.23.57.61a.62.62,0,0,1-.51.6,5.33,5.33,0,0,1-4.11,0c.43-1.08,1.43-1.18,2.37-1.32A4.33,4.33,0,0,1,189,208.66Z"/><path class="cls-88" d="M189,208.66a6,6,0,0,0-3.47.7,1.47,1.47,0,0,0-.58.47.6.6,0,0,1-.64-.58.85.85,0,0,1,.68-.71A5.26,5.26,0,0,1,189,208.66Z"/><path class="cls-78" d="M172.85,225.08a4.7,4.7,0,0,1-3.22-.2c-.3-.12-.59-.32-.58-.68s.32-.48.58-.57a5.54,5.54,0,0,1,4.16,0c.29.12.58.26.56.66C173.93,224.72,173.34,224.78,172.85,225.08Z"/><path class="cls-89" d="M172.85,225.08c-.14-.15,0-.21.1-.26l1.4-.52A1.51,1.51,0,0,1,172.85,225.08Z"/><path class="cls-90" d="M146.38,212.85a1.53,1.53,0,0,1-.68,1.17,3.16,3.16,0,0,1-3.84-.23,1.34,1.34,0,0,1-.1-1.9.47.47,0,0,1,.1-.1,3.14,3.14,0,0,1,3.84-.25A1.54,1.54,0,0,1,146.38,212.85Z"/><rect class="cls-91" width="250" height="250"/></svg>