<svg id="Layer_1" data-name="Layer 1" xmlns="http://www.w3.org/2000/svg" viewBox="0 0 250 250"><defs><style>.cls-1{fill:#ffabe1;}.cls-2{fill:#e260a8;}.cls-3{fill:#559338;}.cls-4{fill:#ffc024;}.cls-5{fill:#fc7ac8;}.cls-6{fill:#fb7ac7;}.cls-7{fill:#e261a8;}.cls-8{fill:#e363a8;}.cls-9{fill:#fb79c6;}.cls-10{fill:#f979c5;}.cls-11{fill:#fb79c7;}.cls-12{fill:#fa79c6;}.cls-13{fill:#fa79c3;}.cls-14{fill:#e363aa;}.cls-15{fill:#f879c4;}.cls-16{fill:#fa79c4;}.cls-17{fill:#fa78c4;}.cls-18{fill:#fa78c5;}.cls-19{fill:#fcda70;}.cls-20{fill:#b5642d;}.cls-21{fill:#fc7ac7;}.cls-22{fill:#f97dbe;}.cls-23{fill:#3f7c1e;}.cls-24{fill:#75a848;}.cls-25{fill:#90b23f;}.cls-26{fill:#fa7ac7;}.cls-27{fill:#74a748;}.cls-28{fill:#74a747;}.cls-29{fill:#508928;}.cls-30{fill:#ef75bb;}.cls-31{fill:#dc7bab;}.cls-32{fill:#f877c2;}.cls-33{fill:#fc7bc6;}.cls-34{fill:#fb7ac6;}.cls-35{fill:#fa83bc;}.cls-36{fill:#ffd348;}.cls-37{fill:#ffea83;}.cls-38{fill:#ffea82;}.cls-39{fill:#ffe982;}.cls-40{fill:#ffd347;}.cls-41{fill:#ffe981;}.cls-42{fill:#ffd248;}.cls-43{fill:#fb7dbe;}.cls-44{fill:#fc7ebd;}.cls-45{fill:#fc84af;}.cls-46{fill:#fa7bbd;}.cls-47{fill:#fa7ac6;}.cls-48{fill:#f97ac6;}.cls-49{fill:#f77ac4;}.cls-50{fill:#f379bf;}.cls-51{fill:#dd2626;}.cls-52{fill:#ed3f32;}.cls-53{fill:#5b903b;}.cls-54{fill:#f76dac;}.cls-55{fill:#7b8249;}.cls-56{fill:#fb78c5;}.cls-57{fill:#fb79c5;}.cls-58{fill:#5e8f3b;}.cls-59{fill:#eb79b8;}.cls-60{fill:#ed7aba;}.cls-61{fill:#a85b27;}.cls-62{fill:#c4723b;}.cls-63{fill:#fff097;}.cls-64{fill:#ece58b;}.cls-65{fill:#e89952;}.cls-66{fill:#c6743c;}.cls-67{fill:#f4af64;}.cls-68{fill:#c5733c;}.cls-69{fill:#bf6b3b;}.cls-70{fill:#ce7354;}.cls-71{fill:#c77047;}.cls-72{fill:#ca7150;}.cls-73{fill:#549237;}.cls-74{fill:#878362;}.cls-75{fill:#b7808b;}.cls-76{fill:#72a646;}.cls-77{fill:#ff6248;}.cls-78{fill:#5b8f37;}.cls-79{fill:#5e8c37;}.cls-80{fill:#cf1c18;}.cls-81{fill:#cf1d18;}.cls-82{fill:#668736;}.cls-83{fill:#d01d19;}.cls-84{fill:#cc201a;}.cls-85{fill:#d01c19;}.cls-86{fill:#d01d1a;}.cls-87{fill:#6f7e34;}.cls-88{fill:#d1668d;}.cls-89{fill:#8d8765;}.cls-90{fill:#ff7a56;}.cls-91{fill:#fe7956;}.cls-92{fill:#df2927;}.cls-93{fill:#df2928;}.cls-94{fill:#fe7a56;}.cls-95{fill:#fe7855;}.cls-96{fill:#de2927;}.cls-97{fill:#de2827;}.cls-98{fill:#e12d2a;}.cls-99{fill:#df2a28;}.cls-100{fill:#df2b28;}.cls-101{fill:#e02b29;}.cls-102{fill:#de2826;}.cls-103{fill:#c4733b;}.cls-104{fill:#c3cf75;}.cls-105{fill:#74a848;}.cls-106{fill:#e12e2a;}.cls-107{fill:#d62b26;}.cls-108{fill:#d01e19;}.cls-109{fill:#d3211b;}.cls-110{fill:#e02b28;}.cls-111{fill:#e5372f;}.cls-112{fill:#e3312c;}.cls-113{fill:#d21f1a;}.cls-114{fill:#d11e1a;}.cls-115{fill:#d11f1a;}.cls-116{fill:#cd241c;}.cls-117{fill:#e02d2a;}.cls-118{fill:#e02c29;}.cls-119{fill:#e2302b;}.cls-120{fill:#ff7a57;}.cls-121{fill:#ff7956;}.cls-122{fill:#e5352e;}.cls-123{fill:#e79852;}.cls-124{fill:#e79851;}.cls-125{fill:#e69751;}.cls-126{fill:#e49550;}.cls-127{fill:none;}</style></defs><title>products</title><path class="cls-1" d="M102.88,248.08c-11.34,0-19.6.14-27.86-.07-4.33-.11-8.69,0-13-.37a48.36,48.36,0,0,1-15.42-3.86,46.35,46.35,0,0,1-16.72-12.44A44.62,44.62,0,0,1,19.53,210a94.07,94.07,0,0,1-1.12-11.23,92.93,92.93,0,0,0-.63-9.44,2.62,2.62,0,0,1,0-.56c.14-4.78-.34-9.54-.5-14.31-.14-4.15,0-8.32-.35-12.46-.51-6.7,0-13.41-.38-20.1-.5-8.81-.38-17.63-.18-26.43.17-7.45.05-14.9.32-22.34a53.57,53.57,0,0,1,2.24-15,47.6,47.6,0,0,1,7.89-14.87,46,46,0,0,1,11.33-10.4,45,45,0,0,1,15.26-6.48,54.67,54.67,0,0,1,9.37-1.16c4.34-.12,8.69-.16,13-.44,4-.26,8-.13,12.08-.29,16.82-.68,33.65-.4,50.47-.24,6.57.07,13.15,0,19.71.36,4,.24,8,0,11.9.34s7.57,0,11.33.39c3.16.29,6.32.21,9.47.31,9.67.32,18.67,2.66,26.67,8.18A46.48,46.48,0,0,1,238,91.5c.6,15.77.39,31.54.23,47.31-.06,5.71,0,11.43-.37,17.12-.27,4,.07,8.08-.36,12.08-.42,3.83.1,7.69-.61,11.49a3.14,3.14,0,0,0,0,.75c.19,4.66-.27,9.3-.49,13.94-.25,5.29-.29,10.64-1.75,15.83a49.48,49.48,0,0,1-9.1,17.94,46.78,46.78,0,0,1-15.07,12.2,43.48,43.48,0,0,1-14.83,4.6c-3.38.39-6.77.58-10.17.77q-7,.42-14.09.8c-2.28.13-4.6,0-6.85.33-3.89.57-7.8.09-11.69.6-2.38.31-4.85,0-7.26.13-5.51.39-11,.09-16.55.41C119.29,248.38,109.55,247.84,102.88,248.08Z"/><path class="cls-2" d="M24.41,148.54c0-1.68,0-3.36-.05-5-.4-7.76-.5-15.52-.23-23.27s.08-15.52.34-23.27a48.05,48.05,0,0,1,3.22-17.06,44.79,44.79,0,0,1,13.12-17.8,43.17,43.17,0,0,1,18.81-8.88,38,38,0,0,1,7.73-.9c5,0,10-.27,15.06-.5,5.34-.24,10.68,0,16-.29,9.93-.49,19.86-.44,29.79-.22,7.69.17,15.39,0,23.07.37,4.53.21,9.06,0,13.57.34,3.85.31,7.7,0,11.52.38,3.29.3,6.57.17,9.85.33,6.61.32,13,1.41,19.06,4.33a45.5,45.5,0,0,1,10,6.66,42.78,42.78,0,0,1,11.14,15,44.31,44.31,0,0,1,3.47,12.48c.36,2.79.18,5.58.34,8.36.7,12.78.18,25.58.3,38.37,0,2.67-.46,5.31-.36,8a1.36,1.36,0,0,1-1.89.34,1.26,1.26,0,0,1-.35-.34,3.47,3.47,0,0,0-2.69-.92c-2.73-1.39-3.26-2.65-2.95-5.91a120.24,120.24,0,0,0,.14-15.42,6.59,6.59,0,0,1,.32-2.38,73.78,73.78,0,0,0,2-18.42c-.29-10.1-2-20-6-29.3A11,11,0,0,0,216,69.72a6.07,6.07,0,0,0-5.65-1.65,3.45,3.45,0,0,1-1.83.11,40.54,40.54,0,0,0-18.91-8.62,43.66,43.66,0,0,0-6.84-.67c-7.56-.11-15.1-.73-22.66-.73a8.71,8.71,0,0,0-2.22.15,28.62,28.62,0,0,0-7.62-.35,62.67,62.67,0,0,0-9.09-.09c-3.35.11-6.66-.52-10-.28a7.43,7.43,0,0,1-2.74-.18c-2.39-.46-4.77,0-7.15,0-2.23-.06-4.47.08-6.71,0-1.86-.1-3.61-.79-5.51-.78a17.16,17.16,0,0,0-7.23,1.48,2.85,2.85,0,0,1-2.66,0,15.75,15.75,0,0,0-14-.44,5.79,5.79,0,0,1-1.42.41c-4.77-.1-9.53.2-14.27.48a38.84,38.84,0,0,0-17.33,5.22c-.86.49-1.73,1-2.57,1.5a11.42,11.42,0,0,1-2.51.64,14.7,14.7,0,0,0-11.89,11.2,19.23,19.23,0,0,1-1.92,5,34.08,34.08,0,0,0-1.79,31,3.08,3.08,0,0,1-.27,3.15c-3.6,5.48-3.53,9.8.16,15.15a5,5,0,0,1,.84,1.45c-.18,2.66.24,5.31.18,8a3.82,3.82,0,0,1-1.56,3.2c-1.49,1.11-2.88,2.35-4.3,3.55C25.92,148.05,25.35,148.78,24.41,148.54Z"/><path class="cls-3" d="M38.6,159.39h2.48a5.46,5.46,0,0,1,4.85,3.5c1.93-1.21,3.93-2.11,6.32-1.47a7.62,7.62,0,0,1,5.16,4.43c.22.44.34.92.54,1.36a1.58,1.58,0,0,0,2,1,1.53,1.53,0,0,0,.8-.54,26.06,26.06,0,0,1,2.68-2.47,14.18,14.18,0,0,1,6.68-4.12c4.09-1.08,7.51.49,10.9,2.39a23,23,0,0,1,2,1.31,24.43,24.43,0,0,1,2,1.57,5.81,5.81,0,0,1,1.77,3.79c0,.87.72,1.4,1.21,2,2.43,3.11,3.26,6.54,1.77,10.29-.78,2-2.23,3.5-4.46,3.33-2-.16-2.78.82-3.23,2.46a4.23,4.23,0,0,0,1.28,0c1.55.29,2.74.22,3.34-1.71.35-1.12,1.67-1.56,2.93-1.63a5.35,5.35,0,0,1,3.85,1.13c1.16.95,1.78,1.06,2.47-.59a5.17,5.17,0,0,1,9.64.36,6.62,6.62,0,0,0,3,3.81c2.37,2.49,3.09,5.32,1.61,8.5a2.81,2.81,0,0,0,.35,2.94,11.39,11.39,0,0,1,1.54,8,4.34,4.34,0,0,1-2.66,3.73,1.45,1.45,0,0,0-1.06,1.69,7.12,7.12,0,0,1-.9,4.11,6.61,6.61,0,0,1-7,3.21c-3.5-.54-5-3.09-5.75-6.23-3.68,2.3-6,1.94-9.27-1.44.5-1.45,1.9-.84,2.78-1.27-2.88-1.41-3.64-2.9-2.72-6,.41-1.42.46-2-1.33-2.07-2.51-.08-3.44-1-4.12-3.43-.43.17-.73.7-1.31.48,0-.05-.1-.12-.09-.15,1.06-2.16-.21-3.82-1-5.66a5.07,5.07,0,0,1,1.21-5.85,5.89,5.89,0,0,1-4.83-.78,2.38,2.38,0,0,0-3.18.06,4,4,0,0,1-4.84.08c-1.24-.78-1.08-2.56-2.36-3.31a21.17,21.17,0,0,1-3.17-5.83,7.32,7.32,0,0,0-1.33-2.21,8.85,8.85,0,0,1-2.24,5,4.2,4.2,0,0,1-4.7,1.27c-.7-.27-1.11-.34-1.35.54a5.35,5.35,0,0,1-3,3.72c.45,1.14,2.39.5,2.19,2.16-2.94,2.83-5,3.24-8.56,1.58a5.32,5.32,0,0,0-4.5-.06,5.38,5.38,0,0,1-3.44.45A6.49,6.49,0,0,1,32,192c-2.34-1.74-2.89-4.22-2.73-6.92.06-.91,0-1.42-1-1.84a4.33,4.33,0,0,1-2.31-5,8.21,8.21,0,0,1,2.35-4.35c.58-.54.8-.86.12-1.61-2.77-3.06-2-6,2-7.39a3.77,3.77,0,0,1,2.84.45c.21.18.31.47.54.64.52,1-.09,1.52-.92,1.82s-1.73.54-1.81,1.6a2,2,0,0,0,1.45,2c1.32.59.91,1.19.1,1.87a6.42,6.42,0,0,0-2.36,4.29c-.2,1.89,1,3,2.65,2.46.66-.22,1.46-1.14,2-.44A4.8,4.8,0,0,1,36.19,183c-.35,2.6-.18,3.06,1.41,3.33s3-.75,3.38-2.81a2.5,2.5,0,0,1,.85-1.59,6.12,6.12,0,0,0,2.24-4.71c0-.95.24-1.55,1.43-1.73,2.18-.31,4.39-3.52,4.11-5.72-.16-1.27-.84-2.14-2.17-2.07a2.62,2.62,0,0,1-2.57-1.39,2.69,2.69,0,0,0-3.12-1.1,2,2,0,0,1-1.9-.29c-1.58-1.17-2.57-1.07-4.2.08-.6.42-1,1.33-2,.93a5.29,5.29,0,0,1,3.52-6.26A4,4,0,0,0,38.6,159.39Z"/><path class="cls-2" d="M230.12,149.67c0,.52,0,1-.72,1.06h-1.49c-6.89,0-13.78.07-20.67,0-49.7-.68-99.41,0-149.11-.44-10.72-.09-21.45-.07-32.18-.24-.54,0-1.14.17-1.54-.38,3.22-2.88,6.33-5.66,11.24-5.49,8.34.3,16.7,0,25.05.12a16.3,16.3,0,0,0,7.54-.33,13.06,13.06,0,0,1,8.7.9c3.09,1.43,6.06,1.63,9-.37a6.44,6.44,0,0,1,2.83-.09,25.9,25.9,0,0,1,3.38,1.87,12.7,12.7,0,0,0,12.66-.5,7.55,7.55,0,0,1,2.78-1.41c5.93-.26,11.85.07,17.77,0,6.11,0,12.21-.1,18.32-.05a4,4,0,0,1,2.11.58,16.06,16.06,0,0,0,13.49,0,4.85,4.85,0,0,1,1.78-.51c2.82-.32,5.6.47,8.41.33a8.37,8.37,0,0,0,2.54-.24,14,14,0,0,1,4.47,0,16.44,16.44,0,0,0,5,.17c2.66,0,5.33.34,8-.17a13.62,13.62,0,0,1,4.13,0,87.77,87.77,0,0,0,11,.15,36.42,36.42,0,0,0,5.72-.06,98.79,98.79,0,0,0,10.18.13,6.41,6.41,0,0,1,4.73,1.7A25.53,25.53,0,0,0,230.12,149.67Z"/><path class="cls-4" d="M121.41,219v-6.41c.44-1.82,2-2.43,3.43-3.25,1.72-.85,0-1.34-.22-2a6.46,6.46,0,0,1-.24-7,5.25,5.25,0,0,1,1.73-1.62,6.55,6.55,0,0,1,5.48-.81,2.31,2.31,0,0,0,1.78-.22,7.25,7.25,0,0,1,8,.64c.78.92,1.56,1.2,2.37,0a13.82,13.82,0,0,1,5-2.77c2.38-.71,6.76.49,7.54,3.56a4.3,4.3,0,0,1,.2,1.43,5.38,5.38,0,0,1-.15,1.12,3.82,3.82,0,0,1-2.34,2.84,12.21,12.21,0,0,1,2.38,1.8c2.26,3.45,2.26,5.53,0,8.81a10.91,10.91,0,0,1-2.74,1.92,22.3,22.3,0,0,1,2.72,1.57c1.55,1.21,2.92,2.55,3,4.68a4.33,4.33,0,0,1,0,2.42c0,1.88-1.29,2.92-2.66,3.89a1.8,1.8,0,0,0-.76.6,7.74,7.74,0,0,1-1.06,5.36,6.2,6.2,0,0,1-8.58,1.48c-1-.64-1.56-.61-2.25.39-1.22,1.83-3.14,2.47-5.22,2.75h0a6.93,6.93,0,0,1-7.09-2.39c-.88-1.06-1.61-1.29-2.79-.64a3.58,3.58,0,0,1-3.22.11,6.33,6.33,0,0,1-1.25-.62c-1.59-1.26-1.6-3-1.3-4.74a3.31,3.31,0,0,0-.54-2.76c-1.37-1.92-1.15-3.93-.09-5.94.43-.83,1-1.56,1.45-2.54C123,220.37,121.74,220.29,121.41,219Z"/><path class="cls-2" d="M30.41,165.36a1.65,1.65,0,0,1-.31.2,3.33,3.33,0,0,0-2.69,2.92,4.09,4.09,0,0,0,2,4.1c.23.16.6.13.73.57a8.23,8.23,0,0,0-3.73,5.33,4.6,4.6,0,0,0,.75,3.52,2,2,0,0,0,2.7.83l.1-.05c-.43,3.44-.63,6.65,2.23,9a2.16,2.16,0,0,1,.4,1.72c-.4,1.33-1.59,2.18-2.06,3.49-.76,2.12-.52,3.19,1.38,4.38.77.47.88.94.51,1.66a10,10,0,0,0-1,2.18,2.61,2.61,0,0,0,.59,2.92,4.23,4.23,0,0,1,1.42,4,6.27,6.27,0,0,0,.08,1.67c.31,1.34,1.15,2.43,2.49,2.36,2.24-.12,3.17,1.28,4.14,2.81a5.46,5.46,0,0,0,1.88,2.7c1.66,1.55,3,3.46,5,4.6,1.22,1.9,3.29,1.88,5.17,2.26-.28.78-.28.78-1.32.7,1.84.61,3.35,2,5.33,2.26A6.48,6.48,0,0,0,61.28,233a5.77,5.77,0,0,0,3.86.65,14.23,14.23,0,0,0,4.91.33,93.7,93.7,0,0,0,12.08.44,2.46,2.46,0,0,1,1.72.57,6,6,0,0,0,7,.17,3.66,3.66,0,0,1,1.87-.75c3,.16,6,.11,9.07.05a5.85,5.85,0,0,1,4.5,1.68,34.54,34.54,0,0,0,4,3.34c.49.35,1.08.68.94,1.45-9.56,0-19.13.18-28.69-.08-4.64-.13-9.3-.06-13.94-.3a43.9,43.9,0,0,1-24.24-8.32,43.09,43.09,0,0,1-16.75-24.75,56.62,56.62,0,0,1-1.39-10.27c-.22-3.52-.14-7.06-.65-10.56a1.15,1.15,0,0,1,0-.37c.15-3.67-.39-7.3-.44-11-.07-4.84-.51-9.66-.34-14.5a.8.8,0,0,1,1,.26C27.24,162.61,28.89,163.92,30.41,165.36Z"/><path class="cls-2" d="M229.41,168.34c0,2.67.09,5.35-.07,8-.33,5.69-.48,11.39-.78,17.07a57,57,0,0,1-1.7,12.66,44.94,44.94,0,0,1-8.76,16.64,42.51,42.51,0,0,1-14.77,11.34,39.34,39.34,0,0,1-12.23,3.64c-3.07.35-6.16.54-9.24.77-2.53.2-5.06.32-7.6.31a15.23,15.23,0,0,1-4.42.07.85.85,0,0,1,0-1.18,23.8,23.8,0,0,1,4.28-5c3.26,1.76,6.8,1.54,10.32,1.47a8.06,8.06,0,0,0,4.85-1.6,5.19,5.19,0,0,1,3.23-.61,30.19,30.19,0,0,0,9.13-1.53,10.73,10.73,0,0,0,6.62-6.12,13.55,13.55,0,0,1,2.14-1.79c4-1,6.51-3.57,8.18-7.18a32.58,32.58,0,0,0,3-10.44,2.52,2.52,0,0,1,1.1-1.2,6.41,6.41,0,0,0,2.85-5.51,4.6,4.6,0,0,0-.22-1.81c-.42-1.11.13-1.61,1.47-1.78-.85-.59-1.66-1-1-2-1.35-.28-.88-1.4-.92-2.2a16,16,0,0,1-.23-2.92c2.9-5.26,1.19-10.47-.16-15.68a8.74,8.74,0,0,1-.59-2.51c.28-3.16,2.72-5.12,4.24-7.59a.87.87,0,0,1,1-.26c.79.53.43,1.34.42,2A24,24,0,0,1,229.41,168.34Z"/><path class="cls-2" d="M57.19,166.05a8.42,8.42,0,0,0-3.78-3.73,6.3,6.3,0,0,0-5.4,0c-.73.33-1.44.69-2.28,1.1a7.59,7.59,0,0,0-4.68-4h65.29c1.67,0,3.3-.44,5-.32s1.71.16,1.71,1.72V175.7c0,1.42-.37,2.82-.3,4.25-.23.31-.46.61-.91.39a2.16,2.16,0,0,1-.33-.27,5,5,0,0,1-.31-.54l-.18-.36a2.43,2.43,0,0,0-.3-.52l-.26-.34a2.26,2.26,0,0,1-.25-.38,4.43,4.43,0,0,1-.2-.45,2.37,2.37,0,0,0-2-2c-1-.16-.82-.69-.69-1.57.31-2.1,1.15-4.36-.72-6.23a2,2,0,0,1,.63-2.5c1.24-1.3,2.5-2.58,3.82-3.8a11.75,11.75,0,0,0-1,.81,10.89,10.89,0,0,1-9.62,3.29,5.47,5.47,0,0,0-2.74.38c-3.79-3.36-6.24-3.57-10.7-.91a4.08,4.08,0,0,1-1.34.61c-.92,0-1.81-.23-2.73-.25-1.44-.83-2.85-1.72-4.31-2.5A11.73,11.73,0,0,0,64.1,165.3a6.26,6.26,0,0,1-.57.45C61.41,166,59.3,165.7,57.19,166.05Z"/><path class="cls-2" d="M168.31,237.63c0-12.15.21-24.31-.14-36.45s-.14-24-.26-36v-2.05c.46-.95-.18-2.07.52-3.24,2,2.21,3.82,4.33,5.59,6.55-1.3,5-.73,9.94-.19,14.93a41.45,41.45,0,0,0,.1,9.83,1.14,1.14,0,0,1-.63,1.22c-3.6,2.54-3.52,6.1-2.6,9.8a22.65,22.65,0,0,0,2.74,5.85,3.3,3.3,0,0,1,.63,1.9c-.09,3-.1,5.92,0,8.88a6,6,0,0,1-.84,2.63c-1.35,3.15-1.7,6.31-.18,9.52a2,2,0,0,1,.18.9c-1.19,1.77-2.58,3.39-3.68,5.22C169.32,237.51,169,238.13,168.31,237.63Z"/><path class="cls-2" d="M229.41,168.34v-5.51c0-.56,0-1.14-.74-1.23-.3-.4.1-.85-.16-1.47a18.91,18.91,0,0,0-3.39,4.06,5.56,5.56,0,0,1-2.51,2.38,1.38,1.38,0,0,1-.85-.3c-1.91-1.56-3.89-1.47-5.94-.31a2.67,2.67,0,0,1-.87.27,4.61,4.61,0,0,1-1.84-.32c-.35-.25-.39-.59-.28-1.1-.35.63-.53,1.28-1.25,1.42A8.12,8.12,0,0,1,210,166a1.63,1.63,0,0,1-1-.67c-.44-.77-.42.28-.68.16a1.82,1.82,0,0,1-1.22-.32,6.71,6.71,0,0,0-7,.18,4.55,4.55,0,0,1-2.17.91,50.49,50.49,0,0,0-5.77,0,1.48,1.48,0,0,1-.86-.31c-2.83-2.55-6.43-2.69-9.92-3.11a7.56,7.56,0,0,0-5.15,1.2,2.55,2.55,0,0,1-2.06.65c-2-1.17-3.38-3.07-4.89-4.78-.5-.56-.51-1.18.54-1.15h41.7a3,3,0,0,1,1.47.14H227.7c2.28,0,2.08,0,2.08,2.18,0,1.8,0,3.59-.05,5.39C229.72,167.17,229.89,167.78,229.41,168.34Z"/><path class="cls-2" d="M111.63,179.86a1,1,0,0,0,1.11,0V239c0,.7.25,1.54-.67,1.94a13.54,13.54,0,0,0-3.76-4,5.16,5.16,0,0,1-2.37-5.07,16.47,16.47,0,0,0-.08-3.51,3.53,3.53,0,0,1,.55-1.73,8.46,8.46,0,0,0,.88-6.73,3.08,3.08,0,0,1-.07-1.28c.61-1.83,1.12-3.67.44-5.63a1.7,1.7,0,0,1,.51-.24,3.63,3.63,0,0,0,3.49-3.44,11,11,0,0,0-1.74-8.3,2.31,2.31,0,0,1-.22-2.92,6.23,6.23,0,0,0-.55-7.14c-.25-.35-.54-.67-.81-1,.17-.73.86-1,1.29-1.53a8.72,8.72,0,0,0,1.94-6.22C111.49,181.42,111.07,180.61,111.63,179.86Z"/><path class="cls-5" d="M60.9,144.78H33.53a5,5,0,0,0-3.12,1c-1.61,1.16-3.26,2.26-4.88,3.39a2,2,0,0,1-1.15.55c-.61-.38-.11-.76,0-1.13,2.16-1.74,4.31-3.47,6.48-5.2a2.31,2.31,0,0,0,1-2.07c-.15-1.84.21-3.7-.31-5.53-.28-1,.45-1.92.31-2.92a1.14,1.14,0,0,1,1.07.16,13,13,0,0,0,6.5,2.5,2.29,2.29,0,0,1,1.69,1.25c2.83,4.61,9.31,6.15,14.34,4,1.27-.54,2.14-.42,2.68.93a4.33,4.33,0,0,0,1.74,1.88C60.3,143.93,61,144.05,60.9,144.78Z"/><path class="cls-5" d="M230.12,149.67c-1.45.2-2.44-.74-3.46-1.5a12.85,12.85,0,0,1-1.86-1.5,4.88,4.88,0,0,0-4.16-1.51c-2.84.08-5.68,0-8.52,0-.6,0-1.25.2-1.74-.36a1.48,1.48,0,0,1,.82-1c4.05-2.18,5.88-6.06,7.59-10a60.17,60.17,0,0,0,2.94-8.4c.19-.7.24-1.5,1-1.88.47.52.29,1.17.29,1.77v11.65a22.81,22.81,0,0,1-.42,3.28,4.09,4.09,0,0,0,2,4,10.47,10.47,0,0,0,1,.52,13.49,13.49,0,0,1,3.81,3,3,3,0,0,1,.43.57,3.84,3.84,0,0,0,.33.59Z"/><path class="cls-2" d="M141.41,198.9a8.74,8.74,0,0,0-4.26-1.55,6.54,6.54,0,0,0-3.87,1c-.41.27-.76.58-1.33.32-2-.94-3.95-.4-5.82.54-1.56-.48-2.34-1.77-3.13-3-.55-.86-.18-1.2.79-1.19h6.87a3.92,3.92,0,0,0,1.83-.15h8.92a63.21,63.21,0,0,1,8.14-.16h9.1c.73.37.52.93.17,1.37a12.84,12.84,0,0,1-2.88,3.27c-2.13-4-6.58-3.95-9.45-2.23a31.77,31.77,0,0,0-2.75,1.89A2.12,2.12,0,0,1,141.41,198.9Z"/><path class="cls-2" d="M122.41,159l35.77-.05c-.5,2.08-2.35,2.82-3.85,3.92-6.14-1.54-12.36-1.21-18.6-.86-3.46.2-6.87.69-10.31,1a10.58,10.58,0,0,1-3-3,.7.7,0,0,1,0-1Z"/><path class="cls-2" d="M147.41,186.23h-16c-2.25-.37-4.53-.07-6.79-.18-.46,0-1.12.25-1.33-.27s.42-.94.81-1.29A6.63,6.63,0,0,1,126,183.3a5.69,5.69,0,0,1,2.39-.21,155.32,155.32,0,0,0,22,0c1.73-.09,3.34-.91,5.1-.77a11.52,11.52,0,0,1,2.83,2.87c.52.66.55,1.27-.6,1.24C154.26,186.28,150.82,186.58,147.41,186.23Z"/><path class="cls-6" d="M106,228.28a1.22,1.22,0,0,1,.44,1.15,13.9,13.9,0,0,1,0,2.58c-.42,2.17.76,3.53,2.29,4.65.91.66,1.65,1.47,2.49,2.19A2.38,2.38,0,0,1,112,241h-.8l-4.39-3.66c-.23-.2-.56-.33-.73-.56-1.14-1.64-2.76-1.81-4.58-1.73-2.42.11-4.84,0-7.26,0-.59,0-1.26.18-1.7-.45.48-2.35,1-2.63,2.91-1.49a3.71,3.71,0,0,0,3.55.24,17.11,17.11,0,0,0,4.6-3.4C104.3,229.28,104.8,228.3,106,228.28Z"/><path class="cls-7" d="M138.8,240.26c.53-.49,1.26-.42,1.88-.7a9,9,0,0,0,4.22-4.16,6.53,6.53,0,0,0,5.8,2.32,5.69,5.69,0,0,0,3.85-2.29,6.41,6.41,0,0,1,3.86,3.81.57.57,0,0,1-.34.43c-.29,0-.59,0-.88,0-1.4.09-2.81-.2-4.2.18A131.79,131.79,0,0,1,138.8,240.26Z"/><path class="cls-7" d="M121.3,185.83c-.59-.48-.36-1.15-.36-1.73V161.23c.21-.66.59-1.22,1.22-.5.76.88,1.88,1.51,2.19,2.75a10.67,10.67,0,0,0-1.44,6.2c.06,3.14,0,6.29,0,9.44,0,1.45.27,2.82,1.67,3.65C124,184.32,122.51,184.91,121.3,185.83Z"/><path class="cls-2" d="M124.72,200.48a6.65,6.65,0,0,0,.33,6.93,1.68,1.68,0,0,1,0,2.15,12.31,12.31,0,0,0-3.66,3c0-3.08,0-6.15-.07-9.23a43.2,43.2,0,0,1,.07-7.88C122.78,197,124.35,198.34,124.72,200.48Z"/><path class="cls-7" d="M159.31,159h.4a2.65,2.65,0,0,1,.16,1.45v23.07c0,.51.32,1.24-.29,1.51s-1.14-.3-1.58-.72a11.05,11.05,0,0,1-1.58-1.83,1.1,1.1,0,0,1,.15-1.36c2.07-3,2-6.31,1.7-9.66-.19-2.48-.38-5-2-7.08a3,3,0,0,1-.38-.41l-.2-.19c-.13-.12-.26-.26-.38-.39a.67.67,0,0,1-.18-.73C156.85,161.78,157.88,160.14,159.31,159Z"/><path class="cls-8" d="M121.41,219a4,4,0,0,0,3.36,1.14c.1.72-.33,1-.63,1.42a11,11,0,0,0-1.49,2.57,4.77,4.77,0,0,0,1,5.64c.35.35.73.58.4,1.23a4.51,4.51,0,0,0,.73,5.47,43,43,0,0,1-2.23,3.75c-.2.4-.58.84-1.16.39Q121.41,229.78,121.41,219Z"/><path class="cls-7" d="M125.76,237a5.21,5.21,0,0,0,4.94-1.34,8.39,8.39,0,0,0,8.14,4.6c-.57.57-1.29.34-1.94.34-4.07,0-8.15.06-12.23.08a2.35,2.35,0,0,1-1.26.11c-.71,0-.91-.39-.53-.91C123.72,238.78,124.28,237.43,125.76,237Z"/><path class="cls-2" d="M38.6,159.39a9.72,9.72,0,0,0-2.84,1.6,6.07,6.07,0,0,0-2.08,5h0l-.34-.28a31.44,31.44,0,0,1-5-3.81,8.78,8.78,0,0,0-2.52-1.56c-.46-.19-1.16-.2-1.07-1a.72.72,0,0,1,.64-.31c4.27.58,8.55.15,12.83.3Z"/><path class="cls-9" d="M213,159H168.93c2.22,2,3.61,4.15,5.75,5.61.33.84-.12,1.24-.85,1.48-1.2-.26-1.81-1.25-2.48-2.1a30.92,30.92,0,0,1-2.87-3.69c-.49,1,.14,2-.55,2.81.11-1.37-.42-2.79.34-4.11h0c.42-.53,1-.36,1.55-.36h41.59C212,158.63,212.56,158.49,213,159Z"/><path class="cls-10" d="M156.27,182a1.45,1.45,0,0,1,1.14.74,8.63,8.63,0,0,0,1.91,2c.09-.28,0,0,.19-.11a.28.28,0,0,0,.09-.13c0-.37.05-.74.05-1.11V158.92c.53.42.36,1,.36,1.56v23.46a5.76,5.76,0,0,1-.24,1.64,1.1,1.1,0,0,1-1.17.94c-3.54,0-7.08,0-10.61-.05-.22,0-.44-.2-.66-.3h11.1a9.56,9.56,0,0,0-1.82-2.14c-.44-.5-1.07-.87-1.09-1.65C155.58,181.92,155.87,181.88,156.27,182Z"/><path class="cls-11" d="M24.76,159.36a18.86,18.86,0,0,1,6.74,4.71c.6.57,1.74.55,1.85,1.66a9.79,9.79,0,0,0-3-.37,6.37,6.37,0,0,1-2.7-1.77,21.64,21.64,0,0,0-2.93-2.73C24.89,160.35,24.11,159.86,24.76,159.36Z"/><path class="cls-12" d="M124.72,200.48c-1.06-1.53-2.32-2.93-3.44-4.56v7.44c-.42-.39-.33-.9-.33-1.39v-5.58c0-1.56,0-1.6,1.52-1.61h10c-.51.52-1.17.32-1.77.33H123c.69,1.77,2.13,2.73,3.11,4Z"/><path class="cls-13" d="M158.21,239.14a25.18,25.18,0,0,0-3.66-3.71c.73-1.61,1.39-3.23.74-5.05a.48.48,0,0,1,.26-.6.38.38,0,0,1,.54,0c.61,1.09.3,2.27.37,3.41a2.55,2.55,0,0,0,.07.73c.07.23.09.28.13.42l.2.36c0,.06.07.12.11.17a3.53,3.53,0,0,1,.24.34c.07.11.13.23.19.34l.21.34.12.15.28.28a.62.62,0,0,0,.14.14c.09.1.19.2.27.3a4.12,4.12,0,0,1,.46.66.47.47,0,0,0,.24.26,1.74,1.74,0,0,0,.12-.14c-.3-.06-.28-.32-.36-.52,0-3.47-.48-6.94.28-10.38a.32.32,0,0,1,.35-.28.33.33,0,0,1,.14,0v11.88c0,.43,0,.88-.36,1.19h0c-.55.6-1.25.29-1.89.32-.11-.08-.14-.16-.1-.23s.08-.1.12-.1h.74c.1-.08.13-.16.1-.24S158.24,239.14,158.21,239.14Z"/><path class="cls-9" d="M168.31,237.63c.53,0,.7-.39.91-.76a43,43,0,0,1,2.75-4.05,1.43,1.43,0,0,1,1.15-.77c.59-.06.89.16.73.79a6.2,6.2,0,0,1-1.7,2.55c-.85,1-1.61,2-2.39,3a1,1,0,0,1-1.33.47l-.13-.07Z"/><path class="cls-14" d="M159.65,226.45h-.32c-.21-.19-.18-.46-.23-.7a6.3,6.3,0,0,0,0-2.37c-.84-8.78-.19-17.58-.38-26.37,0-.7,0-1.38.93-1.5Z"/><path class="cls-15" d="M121.3,185.83c1-1.06,1.63-2.56,3.38-2.63.5-.31.93-.38,1.13.34-.53.94-1.67,1.2-2.41,2.3h6c.65,0,1.36-.23,1.92.33h-7.54C123,186.24,122.17,185.78,121.3,185.83Z"/><path class="cls-6" d="M124.35,163.15c-1.15-.18-1.63-1.11-2.18-2-.43-.66-.82-.5-1.2,0,0-2,0-2,1.48-2.2,0,.92.84,1.26,1.32,1.85s1.25,1,1.3,1.89C125,163.26,124.75,163.31,124.35,163.15Z"/><path class="cls-2" d="M230.13,148.91l-.36-.36a2.72,2.72,0,0,0-.39-.37c-1.19-1.18-2.72-2-3.72-3.36.81-.42,1.55-.67,2.11.43s1.45.86,2.35.69C230.12,146.93,230.13,147.92,230.13,148.91Z"/><path class="cls-7" d="M159,195.14c-.56-.6-1.28-.35-1.93-.35H141.41c.46-.46,1-.32,1.59-.33h15.07c.6,0,1.46-.34,1.62.73a.49.49,0,0,1-.69,0Z"/><path class="cls-16" d="M125.76,237,123,240.38c.6.42,1.17.16,1.68.29a3.46,3.46,0,0,1-3.33-.06c.81,0,.86-.78,1.16-1.27.65-1,1.1-2.21,2.23-2.87Z"/><path class="cls-17" d="M159,195.14h.74v.38a2.61,2.61,0,0,0-.72,1.12c-.43,1.74-.77,3.54-2.87,4.1l-.15-1.5c.4-1.28,1.54-2,2.21-3.1A9.65,9.65,0,0,1,159,195.14Z"/><path class="cls-18" d="M159.31,159c-1,1.69-2,3.34-4.15,3.8a.22.22,0,0,1-.28-.06l0-.05c.08-.92.79-1.33,1.43-1.77a6.63,6.63,0,0,0,1.93-1.91Z"/><path class="cls-2" d="M168.3,238.78a2.89,2.89,0,0,0,1.46-.4c.6.65,1.39.32,2.09.37s1.61,0,2.41,0A10.6,10.6,0,0,1,168.3,238.78Z"/><path class="cls-14" d="M157.46,239.52v.33H153c.74-.67,1.64-.27,2.46-.35A16.16,16.16,0,0,1,157.46,239.52Z"/><path class="cls-19" d="M60.9,144.78c-1.51-.84-3-1.62-3.5-3.55-.17-.7-.74-.46-1.2-.2a11.11,11.11,0,0,1-5.91,1.2,11.37,11.37,0,0,1-9.54-5.14,2.39,2.39,0,0,0-2-1.26,10.44,10.44,0,0,1-5.31-2c-.5-.36-1-.69-1.53-1-1.42-1.8-2.86-3.57-3.39-5.91A12.45,12.45,0,0,1,30.74,116a2.24,2.24,0,0,0,.32-2.67A35,35,0,0,1,33.58,80.6a6.11,6.11,0,0,0,.83-2.44c1-6.45,6.46-12.19,12.93-12.83.67-.06,1.34-.21,2-.32,1.13-.7,2.3-.32,3.43,0a3,3,0,0,0,2.89-.75c6.18-5.29,13.21-6.87,21-4.4,1.78.56,3.18.81,4.43-.86a5.23,5.23,0,0,1,2.58-1.37c.87-.32,1.73-.66,2.6-1a15.88,15.88,0,0,1,13.08,1,1.81,1.81,0,0,0,1.86.12,16.17,16.17,0,0,1,12.24-1c.24,0,.48.08.73.11,2.38,1.28,4.76.36,7.14,0,2.26-.1,4.49-.5,6.77-.1a18.84,18.84,0,0,0,2.89.43c2.09-.13,3.8.93,5.46,1.93,2,1.22,4.13,2.41,5.5,4.48A2.21,2.21,0,0,1,141.4,65a60,60,0,0,0-7.81,16.52c-.19.59-.12,1.58-1.25,1.39A29.47,29.47,0,0,0,124.18,71a13.48,13.48,0,0,0-4.55-2.84,4.24,4.24,0,0,0-5.22,1.64,11.26,11.26,0,0,0-1.84,4.43c-1,4.73-.73,9.52-.83,14.29,0,1.76.53,3.6-.5,5.27-2.83-1-5.84-.92-8.76-1.37-.43-.4-.15-.73.21-.83,1.65-.45,1.32-1.61,1.16-2.82-.23-1.61-2-2.69-1.82-4.18s1.79-2.26,2.24-3.76a7.48,7.48,0,0,0-2.74-8.09A12.6,12.6,0,0,0,93.77,70H91.35c-1-.07-1.6-.34-1.19-1.63.89-2.8-.64-5-3.66-5.34a22.18,22.18,0,0,0-5.75.29c-8,1-16,2.1-23.59,5.1C48.79,71.76,42,77,38.16,85.33A17.68,17.68,0,0,0,36.61,97.2a8.49,8.49,0,0,0,2,3.92,4.86,4.86,0,0,0,5.41,1.4,43,43,0,0,0,4.7-2.24c2-1,2.71-.69,3.31,1.38,1.7,5.84,8.1,10.2,14.47,10.56a23.1,23.1,0,0,0,8.91-.73h.36a25.72,25.72,0,0,0,9.36,4.09c.31,1.42-.88,2.34-1.21,3.57-.37,1.42-.87,2.78.63,3.83,1.1.78,2.68.47,4-.74a16.62,16.62,0,0,0,3.07-3.92c1-1.59.31-3.09-.29-4.59.19-.72.82-1.08,1.3-1.55a12.14,12.14,0,0,0,3.94-9.13,4.7,4.7,0,0,1,.27-2.2A7.42,7.42,0,0,1,99.45,99c2.26-.08,4.47.8,6.78.16,1.36-.38,2.69-.85,4.08-1.11.85.66.38,1.48.2,2.21a25.88,25.88,0,0,1-5.68,10.34c-2.28,2.78-4.88,5.28-7,8.19a13.88,13.88,0,0,0-2.64,5.88,6.37,6.37,0,0,0,4.87,7.57,7.42,7.42,0,0,0,1.33.15c3.48.22,6.27-1.15,8.86-3.2a49.21,49.21,0,0,0,4.94-4.52,1.78,1.78,0,0,1,2.45-.55c3.84,2.22,7,.64,10-1.85.89-.74,1.49-1.84,2.69-2.22.84.29.7,1.08.84,1.71,1.18,5,2.44,10,5.19,14.43.72,1.16,1.6,2.2,2.42,3.29.45.62,1.16,1.19.73,2.13-2.76,1.86-6,2-9.12,2.57-1.63.28-3.3.11-4.94.33-3.1.06-6.2.13-9.3,0a9.12,9.12,0,0,1-5-1.79c-.84-.64-1.38-.61-1.91.33a4.66,4.66,0,0,1-2.12,1.75q-1.45,1-3,1.89c-5.11,2.6-9.94,1.89-14.53-1.33l-.76-.54c-1-.82-1.93-1.2-2.89,0a6.65,6.65,0,0,1-7,1.32c-1-.35-2-.67-3-1.09a13,13,0,0,0-8.32-.45c-1,.23-1.94.37-2.91.53A11.94,11.94,0,0,1,60.9,144.78Z"/><path class="cls-20" d="M132.54,83c.81-2.27,1.56-4.56,2.44-6.8a50.37,50.37,0,0,1,6.79-12.56c2.12-3.09,4.61-5.66,8.62-6.05.91-.12,1.82-.26,2.73-.36,1.63-.19,3.16.39,4.72.7a.65.65,0,0,1,.83.42.51.51,0,0,1,0,.17.66.66,0,0,1-.35.45c-4,.25-6.26,3-8.14,6.07a67.42,67.42,0,0,0-9,25.49,86.48,86.48,0,0,0-1.1,15,138.4,138.4,0,0,0,3.77,28.57,19.43,19.43,0,0,0,3.07,7.15A9.13,9.13,0,0,0,159.72,143a9.31,9.31,0,0,0,1.38-1.28,1.35,1.35,0,0,0,.2-1.9,1,1,0,0,0-.2-.2c-6.22-6.51-8-14.78-9.34-23.28-.4-2.65-.27-5.34-.77-8a79.23,79.23,0,0,1,1.21-15.15c.44-1.77.59-3.61,1.09-5.38,1.76-6.64,3.82-13.17,7.39-19.11a18,18,0,0,1,1.21-1.86l.34-.42c.06-.07.12-.13.17-.2,1.73-1.28.9-2.86.51-4.39a.69.69,0,0,1,.64-.42c1.43,1.13,2.54.79,4-.28a11.54,11.54,0,0,1,10.32-2.07,3,3,0,0,1,2.06,1.11.75.75,0,0,1-.53.64c-3.23.22-5.32,2.18-7,4.69a61.22,61.22,0,0,0-8.78,22.4,82.84,82.84,0,0,0-1.5,20.37A125.38,125.38,0,0,0,166,133.83a18.27,18.27,0,0,0,2.35,5.26,8.27,8.27,0,0,0,10.84,2.82c1.05-.54,1.44-1.15.58-2.15-5.15-6-6.72-13.3-7.84-20.78-.48-3.19-.63-6.41-.8-9.63a5.29,5.29,0,0,1,.14-1.26,30,30,0,0,0,.19-5.76,62.77,62.77,0,0,1,1.24-9.17c.38-1.24.51-2.54.8-3.79a67.74,67.74,0,0,1,6.82-17.54A40.19,40.19,0,0,1,183.17,68c1.4-.79,1.6-2,1.3-3.47a.74.74,0,0,1,.62-.44c1.28.85,2.44.66,3.89.09,3.89-1.5,7.41-.32,10.52,2.23a12.85,12.85,0,0,1,3,3.28c.66,1.11,1.21,1.31,2.23.28s2.15-2.07,3.8-2c4.6-1.68,7.18.29,9,2.65A12.14,12.14,0,0,1,219,73.13a61.69,61.69,0,0,1,2.78,7.49,80.17,80.17,0,0,1,3,15.29,75.53,75.53,0,0,1-.15,16.87c-.45,3.63-1.18,7.2-1.92,10.77a77.18,77.18,0,0,1-4.83,13.38,16.22,16.22,0,0,1-7.51,7.85,9.9,9.9,0,0,1-5.63.06c-1.6,0-2.59-1.06-3.53-2.11-.74-.82-1.24-.91-2.1-.11a7.17,7.17,0,0,1-5.48,2.19h-4.15a8.08,8.08,0,0,1-5.22-1.43,2.56,2.56,0,0,0-2.92,0,7.85,7.85,0,0,1-4.88,1.41H172a.44.44,0,0,1-.45.08,4.7,4.7,0,0,0-1.24-.11,16.68,16.68,0,0,1-5.27-2.08c-.78-.45-1.28-.49-1.81.34a5.09,5.09,0,0,1-2.53,1.74c-.84.37-1.67.81-2.54,1.11a17,17,0,0,1-13.5-1.06c-.22-.11-.45-.2-.67-.3a6.22,6.22,0,0,1-4.36-3.17c-5.35-5.89-7.8-13-9.08-20.73a2,2,0,0,0-.24-.49c-1.25-1.86-1-4-1.26-6.11a80.25,80.25,0,0,1,2.34-28.74C131.64,84.45,131.72,83.53,132.54,83Z"/><path class="cls-5" d="M179.77,60.26c-5.49-2.31-10.15-.69-14.31,3.11-.86-.41-1.22-1.31-2-1.74-.73-.15-1.19-.74-1.8-1.09a2.65,2.65,0,0,1-.39-.26c-.26-.18-.52-.36-.79-.52a4.05,4.05,0,0,1-.4-.26,9.17,9.17,0,0,1-1.52-1.17l-.74-.41c.43-.51,1-.34,1.57-.34a52.38,52.38,0,0,1,6.51.05c3.53.4,7.07,0,10.57.4,2.79.28,5.58.07,8.34.32a41.26,41.26,0,0,1,14.83,3.74A34.91,34.91,0,0,1,208,67.2a1.12,1.12,0,0,1,.47.75,13,13,0,0,0-4.83,3.83c-.94-.56-1.2-1.44-1.71-2.11-2.21-2.89-4.88-5-8.61-5.58a9.08,9.08,0,0,0-4.88.7c-1.93.78-1.91.82-3.35-.56-1.08-.24-1.6-1.21-2.4-1.82-.19-.14-.39-.29-.6-.42l-.41-.27C181.09,61.19,180.22,61,179.77,60.26Z"/><path class="cls-21" d="M83.68,57.58a23.91,23.91,0,0,0-3.83,3.2,1,1,0,0,1-1.3.22h0a19.82,19.82,0,0,0-7.33-1.81A20.71,20.71,0,0,0,62,60.78,17.28,17.28,0,0,0,55.51,65a1.88,1.88,0,0,1-2.13.62,13.94,13.94,0,0,0-4-.59,9.17,9.17,0,0,1,3-2,39.07,39.07,0,0,1,13-4.56,38.58,38.58,0,0,1,5.14-.52C74.93,57.72,79.3,57.48,83.68,57.58Z"/><path class="cls-21" d="M150.41,57.58c-3.55,1.06-6.14,3.47-8.62,6A28.24,28.24,0,0,0,131,57.15a3.78,3.78,0,0,1,3-.23,15.62,15.62,0,0,0,2.56.23h11.87C149.11,57.22,149.84,57,150.41,57.58Z"/><path class="cls-22" d="M121.33,56.86c-1.27.43-2.55.84-3.82,1.3a1.42,1.42,0,0,1-1.22-.15,11.88,11.88,0,0,1-2.1-1.15Z"/><path class="cls-23" d="M40.09,219.35c-.3-.31-.6-.61-.9-.93a4.86,4.86,0,0,0-3.3-1.63A3.58,3.58,0,0,1,33,213.63a13.74,13.74,0,0,1,0-3.14,1.21,1.21,0,0,0-.5-1.26c-1.93-1.51-2.22-3-1.13-5.17.32-.66.73-1.28,1.18-2.05a3,3,0,0,1-2.65-1.75A4.26,4.26,0,0,1,30,197a14.08,14.08,0,0,1,2.16-3.43c.41-.33.51-1,1.18-1a7.45,7.45,0,0,0,3.58-.63,5.17,5.17,0,0,1,5,.22,5.55,5.55,0,0,0,7.08-.89,1.54,1.54,0,0,1,1.12-.57c.85-.32,1.4.3,2,.69a25.57,25.57,0,0,1,5.61,5.08,2.17,2.17,0,0,0,2.92.59,22,22,0,0,0,5-3.44,1.56,1.56,0,0,0,.42-2,4.71,4.71,0,0,1-.61-1.73c.07-.37.13-.76.66-.66,1.73,1.24,3.36.81,4.94-.32,1.39-1,1.4-1,2.8,0,1.75,1.29,3.66,1.24,5.75.79,0,.5-.39.71-.63,1a5.3,5.3,0,0,0,.18,7.23c.73.76,1.13,1.34.32,2.29a2.47,2.47,0,0,0-.65,1.7c.41.61,0,1-.36,1.46a23.53,23.53,0,0,1-4.07,4.39c-2.21.93-2.21.93-3-1.25a5.47,5.47,0,0,0-6-3.33,16.14,16.14,0,0,0-13,9.59c-.75,1.54-1.26,3.24-2.75,4.31a4.4,4.4,0,0,0-.66.39,24.4,24.4,0,0,1-1.66,1.89,4.22,4.22,0,0,1-.64.55C43.82,221.1,41.6,220.92,40.09,219.35Z"/><path class="cls-23" d="M111.63,179.86a9.91,9.91,0,0,1,0,6,6.5,6.5,0,0,1-3.3,4.06c-1.48-.79-2.73-1.63-3-3.58a4,4,0,0,0-2.49-3c-3.2-1.42-5.89.52-6.8,3.16a3,3,0,0,1-.63,1.28A2.33,2.33,0,0,1,94,187a7.09,7.09,0,0,0-2.57-1.4c-3-.81-5,.68-5,3.89A8.3,8.3,0,0,0,80.9,189a8.08,8.08,0,0,0,1.8-3.76c.82.07,1.49.17,2.15.19a4.47,4.47,0,0,0,4.52-3.12c1.47-3.89.55-7.28-2.14-10.29-.45-.51-1-1-.92-1.73a3.51,3.51,0,0,0-1.16-3,1.21,1.21,0,0,1-.34-.84c-.22-.73.2-1,.8-1.07a10.58,10.58,0,0,1,7.06-2.81c2.35,0,4.2.82,5.17,3.12a1.56,1.56,0,0,0,2,.68c3-.9,5-.14,7,2.48,1.37,2.38.79,4.72-.26,7.07,1.51.39,3.14.47,3.89,2.12h0a.69.69,0,0,1,.39.41h0c.31.13.22.52.45.72h0c.23.19.14.55.39.73Z"/><path class="cls-24" d="M33.68,166c.75-.26,1.09-1,1.69-1.42,1.72-1.19,3.35-1.66,4.92.1.33.37.56.32,1,.21,2.24-.62,3.37-.19,4.4,1.78.3.57.57.68,1.15.53,2.29-.58,4,1.43,3.19,4.17a8.31,8.31,0,0,1-2.81,4.08,2.31,2.31,0,0,1-2.55.4c-.09,1.74,0,3.36-1,4.75-.28.4-.44.92-.87,1.18a2.85,2.85,0,0,0-1.34,2.51c-.23,2.36-3.78,3.46-5.62,1.88a1.82,1.82,0,0,1-.41-2.37,1.78,1.78,0,0,0-.15-2.47c-.37-.44-.34-1.05-.51-1.56-.52-.1-.8.31-1.15.51-1,.59-1.94.91-2.87,0a3.08,3.08,0,0,1-.93-3,7.66,7.66,0,0,1,3.49-5,4.22,4.22,0,0,1-2.11-1.1c-1.26-1.54-.74-3.25,1.23-3.56,1-.17,1.41-.62,1.31-1.59Z"/><path class="cls-23" d="M106,228.28a47.68,47.68,0,0,1-4.51,4.13,12.68,12.68,0,0,1-1.88,1.19c-2.08,1-3.41.73-5.57-1.12l-1.44,2.11c-1.88,1.55-3.92,2.51-6.46,2a8.56,8.56,0,0,1-3.48-2c-1.52-.78-1.81-2.21-2-3.71a3,3,0,0,1,.69-1.49c2.83-3.8,2.71-7.64.18-11.52-.54-.83-1.2-1.63-.56-2.7,1.41-.79,2.77-1.8,4.54-1a1.88,1.88,0,0,1,1,.46c3.32,2.8,5.08,2.85,8.58.15a12.65,12.65,0,0,0,.79,3,6.21,6.21,0,0,0,10.72,1.36,2.5,2.5,0,0,1,.57-.46,7.81,7.81,0,0,1,.13,7.25A24.52,24.52,0,0,1,106,228.28Z"/><path class="cls-24" d="M66.34,172.24c-2-2.72-.31-6.16,3.14-6.49a10.64,10.64,0,0,0,3.18-.86A4.24,4.24,0,0,1,78,166.25a4.6,4.6,0,0,1,.36,3.16,9,9,0,0,1,2.82-.36,4.6,4.6,0,0,1,4.37,4.85,4.53,4.53,0,0,1-.24,1.26,4.08,4.08,0,0,1-4.87,2.69c-2.22-.57-2.22-.57-3.32,1.35a2.77,2.77,0,0,1-.9,1.16,1.39,1.39,0,0,0-.83,1.79,1.12,1.12,0,0,0,0,.13c.26.92-1.07,2.31-2.14,2.4a12.92,12.92,0,0,1-2.78,0c-1.54-.2-2.07-1.53-1.23-2.88q.21-.31.39-.63c.2-.47,1.12-.5.8-1.29A3,3,0,0,0,69,178.29a3.65,3.65,0,0,0-1.63-.28A2.59,2.59,0,0,1,65,174,13.43,13.43,0,0,1,66.34,172.24Z"/><path class="cls-24" d="M87.9,196.47c-.61-.19-1,.33-1.54.46a2.5,2.5,0,0,1-2.7-.73,2.44,2.44,0,0,1,.26-2.94,8.28,8.28,0,0,1,4.62-2.57c2.84-.76,4.91.35,6.41,2.9.64-1.18,1.11-2.25,1.74-3.21,1.26-1.9,2.87-3.19,5.35-3.09a3.44,3.44,0,0,1,3.35,2.21,3.31,3.31,0,0,1-.81,3.92c-.27.26-.56.49-.91.8a2.55,2.55,0,0,1,.84,3.5l0,.05a11.37,11.37,0,0,1-6.42,6.13c-1.86.64-3.37.38-4.11-1.88-.43-1.29-1.26-1.7-2.28-1.09s-1.91.75-2.7,0a3.39,3.39,0,0,1-1.13-3.19C87.92,197.3,88.27,196.91,87.9,196.47Z"/><path class="cls-25" d="M65.77,189.92c.3.62.58,1.24.9,1.84a1.39,1.39,0,0,1-.34,1.84,20.18,20.18,0,0,1-6.3,4.17,1.73,1.73,0,0,1-2.33-.64,24.18,24.18,0,0,0-7.59-6.46L46.88,189c.9-.93,2.19-1.23,2.84-2.34s.68-2.22,1.23-3.25c3.36,1.77,6.26.45,7.31-3.28a8.1,8.1,0,0,0,.43-3.16,5.45,5.45,0,0,1,2,2.63,37.09,37.09,0,0,0,2.1,4.69,18.93,18.93,0,0,0,1.07,1.91A13.13,13.13,0,0,1,65.77,189.92Z"/><path class="cls-25" d="M85.5,214.12a19.11,19.11,0,0,0-4.42,1.21c-1.6,1.45-3.65,2-5.58,2.85a1.87,1.87,0,0,1-1.6-.3,6,6,0,0,1-1.62-1.24c-3.47-4.08-3.17-5.88,1-8.44.37-.23.71-.5,1.06-.75,1.28-1.51,2.76-2.83,3.91-4.45a2.55,2.55,0,0,0,.62-1.11c.71-.34,1-1.11,1.49-1.63.6.23.3.73.33,1.1.12,1.69.47,2.19,2,2.73a7,7,0,0,0,2.36.41,2.57,2.57,0,0,1,1.91.31,8.9,8.9,0,0,0-1.15,3c-.34,2.32.22,3.61,2.3,4.64.38.19.87.15,1.16.53a1.07,1.07,0,0,1,.07.27A18.1,18.1,0,0,0,85.5,214.12Z"/><path class="cls-24" d="M49,175.78a3.21,3.21,0,0,1,3.32-3.1,3.1,3.1,0,0,1,.68.1,1.57,1.57,0,0,1,1.23,1.43,3.51,3.51,0,0,1-2.51,3.65C50.17,178.29,48.83,177.78,49,175.78Z"/><path class="cls-24" d="M95.59,207.28a2.32,2.32,0,0,1-2.22,2.4h-.21a2.85,2.85,0,0,1-2.41-2.38,2.71,2.71,0,0,1,2.66-2.71C94.82,204.65,95.61,205.64,95.59,207.28Z"/><path class="cls-26" d="M57.19,166.05c.08-.4.25-.71.71-.71,1.74,0,3.47,0,5.21,0,.15,0,.29.2.44.31a11,11,0,0,0-2.7,2.78.83.83,0,0,1-1.09.44l-.15-.08a1.83,1.83,0,0,0-.72-.19c-.85-.06-1.4-.36-1.39-1.35A5.32,5.32,0,0,0,57.19,166.05Z"/><path class="cls-27" d="M83,182.84a1.57,1.57,0,0,1-1.6-1.54v-.13a2.83,2.83,0,0,1,2.69-2.39,2.05,2.05,0,0,1,1.67,2A2.94,2.94,0,0,1,83,182.84Z"/><path class="cls-28" d="M105.61,203.63a3.08,3.08,0,0,1-1.63,2.06,2,2,0,0,1-2.26-.24c-.7-.48-.61-1.13-.3-1.81a3,3,0,0,1,2.72-1.55A1.89,1.89,0,0,1,105.61,203.63Z"/><path class="cls-28" d="M100.31,209a2.16,2.16,0,0,1,1.87,1.53A3.17,3.17,0,0,1,99.41,213a1.89,1.89,0,0,1-1.54-1.6A2.9,2.9,0,0,1,100.31,209Z"/><path class="cls-28" d="M53,165.83a2.14,2.14,0,0,1-2.06,1.73c-.86-.06-1.51-.68-1.4-1.34a2,2,0,0,1,2.12-1.63C52.41,164.67,53,165.26,53,165.83Z"/><path class="cls-29" d="M65.77,189.92a12.58,12.58,0,0,1-1.89-3.7c.22-.33.58-.9.73-.09a7,7,0,0,0,1.53,3.06A.75.75,0,0,0,65.77,189.92Z"/><path class="cls-30" d="M85.58,165.4l-.8,1.07c-.82-.08-1.27-.73-1.84-1.2A2.15,2.15,0,0,1,85.58,165.4Z"/><path class="cls-31" d="M33.41,192.54a4.36,4.36,0,0,1-1.18,1v-1.79A1.89,1.89,0,0,1,33.41,192.54Z"/><path class="cls-21" d="M139.62,141.38a36.75,36.75,0,0,0,4.36,3.17c-.47.43-1,.27-1.59.27h-17c-.13-.09-.18-.18-.14-.27s.08-.14.12-.14c1.46-.62,3-.38,4.55-.61A39.82,39.82,0,0,0,139.62,141.38Z"/><path class="cls-17" d="M193.64,144.85a11.19,11.19,0,0,0,6.48-3.82,15,15,0,0,0,4.63,3.85,1.25,1.25,0,0,1-1,.3h-9.08A1.19,1.19,0,0,1,193.64,144.85Z"/><path class="cls-32" d="M176.47,144.78a16.57,16.57,0,0,0,5.72-2.43,1.06,1.06,0,0,1,1.36.08,17.44,17.44,0,0,0,5.94,2.38c-.32.38-.76.33-1.19.33H177.64C177.21,145.18,176.77,145.21,176.47,144.78Z"/><path class="cls-33" d="M125.41,144.4v.41H107.13c.89-1.17,2.06-2.11,2.64-3.43.64,0,.85.41,1.17.66a12.09,12.09,0,0,0,7,2.4C120.46,144.51,122.92,144.41,125.41,144.4Z"/><path class="cls-34" d="M171.65,144.78a.5.5,0,0,1,.34,0c-.49.55-1.15.3-1.74.35-3.2.23-6.36-.53-9.56-.38.87-1,2.06-1.6,2.77-2.72.39-.61.81-.28,1.25,0a21,21,0,0,0,5.81,2.42C170.85,144.78,171.32,144.51,171.65,144.78Z"/><path class="cls-35" d="M86,144.78l1-1.84a5.13,5.13,0,0,1,1.89,1.84Z"/><path class="cls-7" d="M156.09,200.78c1.5-1,1.88-2.76,2.87-4.1.46.37.36.89.36,1.37v24.31a1.74,1.74,0,0,1-.19,1.07,8.74,8.74,0,0,0-3.17-4.49,3.52,3.52,0,0,1,0-3.77,7.67,7.67,0,0,0,1.62-4.8c-.11-1.53-1-2.64-1.61-3.89-.9-1.53-.39-3.07,0-4.61Z"/><path class="cls-36" d="M132.47,201.13a2.84,2.84,0,0,0,.92,0c2.91-1.24,5.52,2,5.06,4.9-.5,3.07-4.4,5.39-7.43,3.85a5.39,5.39,0,0,1-1.91-2,1.19,1.19,0,0,1,.77-.44c3.43-1,4.25-2.87,2.59-5.93A.5.5,0,0,1,132.47,201.13Z"/><path class="cls-36" d="M131,230.22c1.08-1.27,2.67-1.42,4.12-1.88a4.06,4.06,0,0,1,2.63.76c-.28.48-.91.23-1.38.64,1.33,1.07,1.92,2.39,1,3.88a4.14,4.14,0,0,1-4.34,2.16c-1.51-.19-2.12-1.27-2.42-2.61A2.91,2.91,0,0,1,131,230.22Z"/><path class="cls-37" d="M137.72,229.1c-.94,0-2,.2-2.63-.76l-1.11-1.5c-.34-.31,0-.82-.35-1.14V225c.25-.81-.17-1.94,1.1-2.26.5-.24.86-.75,1.47-.78.23-.18.56-.12.78-.31h.7c3,.6,4.1,2.86,2.6,5.16A5.63,5.63,0,0,1,137.72,229.1Z"/><path class="cls-36" d="M140.28,226.78c.54-2.82,0-3.83-2.6-5.16.85.09,1.33-.49,1.92-1a3.66,3.66,0,0,1,3.73-1,3,3,0,0,1,2.24,3.6,3.06,3.06,0,0,1-.64,1.27A5.25,5.25,0,0,1,140.28,226.78Z"/><path class="cls-36" d="M126.18,217.18c-1.07-1.66-1.1-1.94,0-3.47a5.42,5.42,0,0,1,3.85-2.66,3,3,0,0,1,2.88,1.19c.53.82.3,1.84-.49,2.91-.55.73-1.59,1-1.83,2C129.13,216.18,127.66,217,126.18,217.18Z"/><path class="cls-38" d="M132.47,201.13a2.78,2.78,0,0,1,1.37,3.47c-.58,1.58-1.55,3-3.43,3.22-.43,0-.87,0-1.3,0a3.15,3.15,0,0,1-1.27-3.69,4,4,0,0,1,3.35-3A5.48,5.48,0,0,1,132.47,201.13Z"/><path class="cls-36" d="M150.41,203.78c1,2.36-1.28,4.92-3.12,5.45a2.46,2.46,0,0,1-3.11-1.54,2.6,2.6,0,0,1-.12-.91,3.45,3.45,0,0,1,1-2.52,6.73,6.73,0,0,0,1.62-2.73C147.12,203.51,148.78,203.57,150.41,203.78Z"/><path class="cls-36" d="M127.78,222.37c1.61,0,2.28.71,2.08,2.29-.06.48-.31,1-.32,1.43a2.71,2.71,0,0,1-2.13,2.49,1.89,1.89,0,0,1-2.32-.64,3.26,3.26,0,0,1-.52-3.48A3.43,3.43,0,0,1,127.78,222.37Z"/><path class="cls-38" d="M150.41,203.78a14,14,0,0,1-1.42.35c-1.5.19-2.17-.36-2.3-1.86v-.74a3.87,3.87,0,0,1,2.49-2.73,2.52,2.52,0,0,1,3.26.77,2.71,2.71,0,0,1-.63,3.32A10.7,10.7,0,0,1,150.41,203.78Z"/><path class="cls-7" d="M159.1,225.78a.93.93,0,0,1,.23.7V238a.23.23,0,0,1-.31,0l0,0h0l-.36-.36-.39-.74a4.59,4.59,0,0,0-.37-.39h0l-.36-.38h0l-.36-.36v-.36c0-.12-.23-.27-.36-.39h0l-.36-.37v-.36c0-.12-.23-.27-.36-.38v-4.1a.62.62,0,0,1,.36-.33A6.12,6.12,0,0,0,159.1,225.78Z"/><path class="cls-39" d="M126.18,217.18c.27-.16.54-.3.8-.46,1.69-1,2.15-1,3.64.43a3,3,0,0,1-1,3.78,2.86,2.86,0,0,1-3.06.49,2.78,2.78,0,0,1-.93-3.26C125.82,217.78,126,217.5,126.18,217.18Z"/><path class="cls-40" d="M151.63,225c-1.66,0-2.42-.77-2.37-2.36a2.9,2.9,0,0,1,2.82-2.85,2.3,2.3,0,0,1,2.42,2.17,2.26,2.26,0,0,1,0,.45C154.48,224.06,153.41,225,151.63,225Z"/><path class="cls-40" d="M140.69,211.56a11.21,11.21,0,0,1,.79,1,2.72,2.72,0,0,1-.36,3.2c-1.17,1.28-2.1,1.6-3.2,1.09a1.89,1.89,0,0,1-1.29-2.34,1.81,1.81,0,0,1,.23-.51,3.84,3.84,0,0,1,1.93-1.9c.38-.18.87-.12,1.14-.54A.54.54,0,0,1,140.69,211.56Z"/><path class="cls-41" d="M147.75,212.67a3.54,3.54,0,0,1,1.86-2.2,2,2,0,0,1,2.27,0c.81.45.79,1.18.75,1.93-.15,2.5-2.49,3.83-4.52,2.58C147.13,214.32,147.29,213.52,147.75,212.67Z"/><path class="cls-40" d="M147.28,231.31a1.72,1.72,0,0,1-2-.95,2,2,0,0,1,.5-2.22,3.05,3.05,0,0,1,2.89-1.3,1.65,1.65,0,0,1,1.61,1.69c0,.1,0,.2,0,.31C149.79,230.83,148.71,231.54,147.28,231.31Z"/><path class="cls-41" d="M131,230.22a6.33,6.33,0,0,1-.35,2.95L129,234a2,2,0,0,1-2.37-.43c-.61-.53-.55-1.49,0-2.4C127.59,229.48,129,229.17,131,230.22Z"/><path class="cls-41" d="M141.6,229.85a2,2,0,0,1,1.82,1.08c.45.62.11,1.21-.23,1.71a3.35,3.35,0,0,1-3.1,1.67,1.71,1.71,0,0,1-1.57-1.83s0,0,0-.07A3.54,3.54,0,0,1,141.6,229.85Z"/><path class="cls-41" d="M140.69,211.56h-.76c-1.56-.75-1.88-1.54-1.16-2.86a2.54,2.54,0,0,1,3.36-1,1.5,1.5,0,0,1,.66,1.93A3.26,3.26,0,0,1,140.69,211.56Z"/><path class="cls-40" d="M147.75,212.67a4.33,4.33,0,0,0,.37,2.27c-.33.27-.68.52-1,.81a4.17,4.17,0,0,1-1.21.82,1.83,1.83,0,0,1-2.43-.61,2,2,0,0,1,.91-2.53A2.58,2.58,0,0,1,146,213,2.76,2.76,0,0,0,147.75,212.67Z"/><path class="cls-42" d="M134.73,222.78c-.63.63-.66,1.54-1.1,2.26-.06-.69-.51-.43-.93-.44-1.27,0-1.61-.69-1-1.79C132.53,221.42,133.55,221.41,134.73,222.78Z"/><path class="cls-43" d="M155.92,215.14v3.77L152.41,217A10.7,10.7,0,0,0,155.92,215.14Z"/><path class="cls-44" d="M156,201.85v4.61l-2.63-1.81A5.26,5.26,0,0,0,156,201.85Z"/><path class="cls-45" d="M125,209.56v-2.15a4.36,4.36,0,0,1,1.4,1.37A2.24,2.24,0,0,1,125,209.56Z"/><path class="cls-46" d="M141.41,198.9h2.33C142.56,200.27,142.56,200.27,141.41,198.9Z"/><path class="cls-42" d="M133.63,225.7c.39.3.35.72.35,1.14C133.54,226.56,133.6,226.13,133.63,225.7Z"/><path class="cls-14" d="M156.33,229.5l-.36.33-.42-.05A.83.83,0,0,1,156.33,229.5Z"/><path class="cls-36" d="M137,221.65a.81.81,0,0,1-.78.31A.77.77,0,0,1,137,221.65Z"/><path class="cls-3" d="M74.32,207.45c-.7,1.3-2.08,1.9-3.1,2.88a2.33,2.33,0,0,0-.6,3,9,9,0,0,0,3.5,4.21,1.73,1.73,0,0,0,1.88.06,32.81,32.81,0,0,1,5.08-2.24,2.36,2.36,0,0,0,.54,1.87A9.92,9.92,0,0,1,84,223.11a9.4,9.4,0,0,1-2.13,6.49c-.35.43-.79.79-.8,1.4a5.42,5.42,0,0,1-6.36,1.51,1.47,1.47,0,0,0-1.93.45,3.46,3.46,0,0,1-2.86,1.42A6.86,6.86,0,0,1,65,234a1.37,1.37,0,0,1-1.33-.47c-.74-1-1.55-.64-2.4-.3-2.2,1.05-3.76.05-5.14-1.58-1.49-1-1.18-2.59-1.55-4a2.15,2.15,0,0,1-2.27,1.13h-1.1c-2,.25-3.34-.83-4.45-2.32-1.64-1.91-1.73-4.07-.28-6.56a4.64,4.64,0,0,0,.65-1l1.41-1.78c.29.08.29-.2.42-.33.84,0,1-.72,1.41-1.29,1.15-1.84,1.74-4,3-5.73,3-4.1,7-6.75,12.08-7.08,3.48-.23,6,1,6.72,5.14C73,208.1,73.6,207.47,74.32,207.45Z"/><path class="cls-47" d="M69.88,234.35a7.07,7.07,0,0,0,3.36-2.84.59.59,0,0,1,.8.07c1.74,1.35,3.53,1.16,5.37.2.54-.28.91-.89,1.62-.81a8.12,8.12,0,0,0,1.58,3.62c-.39.56-1,.42-1.52.45-3.53.18-7-.25-10.56-.39C70.31,234.64,70.1,234.45,69.88,234.35Z"/><path class="cls-48" d="M46.81,219.78a7.52,7.52,0,0,0,0,6.67.72.72,0,0,1-.37-.06,36.64,36.64,0,0,1-6.45-6.6c-.13-.17,0-.34.13-.46a6.58,6.58,0,0,0,6.67,0,.31.31,0,0,1,.13.29C46.87,219.78,46.84,219.78,46.81,219.78Z"/><path class="cls-49" d="M52.33,228.78a6.13,6.13,0,0,0,2.49-1.8,20,20,0,0,0,1.33,4.66c-.19.27-.42.43-.76.26l-5.14-2.54C51,228.88,51.81,229.36,52.33,228.78Z"/><path class="cls-50" d="M61.29,233.2l1.32-1.49A8.39,8.39,0,0,0,65,234,3.17,3.17,0,0,1,61.29,233.2Z"/><path class="cls-51" d="M173.85,232.84l-.73-.79c-2.32-3.72-1.81-7.47-.14-11.23l.84-1.83c.29-2.25,2.06-3.66,3.12-5.46a10.52,10.52,0,0,1,6.32-4.55c1.41-.3,1.79-1.94.92-3.42-1.15-1.94-1.13-1.91.75-3a2.81,2.81,0,0,0,1.31-2.69c-.13-.93-1.43-1.26-2.29-1.13-1.63.26-2.2-.5-2.67-1.85-.55-1.6-2.21-2.48-2.92-4-.28-.59-1.09-1.17-.16-1.88a1.21,1.21,0,0,1,.92.55,19,19,0,0,0,7.33,5.81c1.07.53,2,1.11,2-.83a1.23,1.23,0,0,1,.79-1.16,1.47,1.47,0,0,1,1.43.7c.28.31.44.76,1,.65a16,16,0,0,1,6.26.53c1.44.3,1.93-.27,1.92-1.63a17.49,17.49,0,0,0-2-8.59,47.33,47.33,0,0,0-3.74-6.42c-2.29-2.88-5.13-3.56-8.41-2-1.24.22-2.8-.12-3,1.81,0,.09-.34.08-.52,0a4.41,4.41,0,0,1-2.11-2,1.9,1.9,0,0,1,.78-1.42,24,24,0,0,0,6-8,2,2,0,0,1,.68-.19c.38-.07.77-.23.68-.67s-.55-.29-.86-.19a.62.62,0,0,1-.66-.15,7.43,7.43,0,0,0-8.28-3,3.43,3.43,0,0,0-2.7,2.5,17.13,17.13,0,0,0,.53,10.38c.3.85,1.09,1.33,1.57,2.05a4.54,4.54,0,0,1-.2,2.45c-.15.45-.24.82.45.86s1.2-.29,1.79,0c.37,1.63-1.24,2.51-1.47,3.92a1.28,1.28,0,0,1-.34.39,1,1,0,0,1-.52,0,3.5,3.5,0,0,1-.78-.23,5.71,5.71,0,0,1-3.33-5.8,50.11,50.11,0,0,1-.79-8.81,16.57,16.57,0,0,1,1.17-6.5,5.47,5.47,0,0,0,.85-1.48,9.06,9.06,0,0,1,8.3-2c1.09.21,2.2.33,3.3.51a9.1,9.1,0,0,1,5.75,3.07,2.86,2.86,0,0,1,1.3,2.47,6.91,6.91,0,0,1-1.77,6c-.77.89-.9,1.42.48,2.07,2.82,1.35,4.68,3.81,6.18,6.49a2.38,2.38,0,0,0,2.8,1.47c.54-.1,1.11-.07,1.66-.17,3.13-.62,3.14-.44,3.17-3.58,0-2.67,1.31-5,2.52-7.3a37.32,37.32,0,0,1,2-3.34,39.31,39.31,0,0,1,3.45-3.5c.25-.21.51-.42.78-.62l.21-.11.34-.16c3-1.88,4.69-1.74,7.52.59,1.23.46,1.48,1.47,1.49,2.63a65,65,0,0,1,2.36,9.65,12.15,12.15,0,0,1-1.73,9,1,1,0,0,1-.41.66,2,2,0,0,1-1.32.32,1.56,1.56,0,0,1-.65-.34c-3.24-2.87-6.84-3.25-10.49-1a27.2,27.2,0,0,0-8.51,8.7,7.46,7.46,0,0,0-1,4.84c.32,3,2.41,4.79,6.93,5.18A30.69,30.69,0,0,0,219.78,205c.68-.18,1.38-.66,2.12-.12a12.77,12.77,0,0,1-.72,4.74,28.3,28.3,0,0,1-3.76,8.64,9.94,9.94,0,0,1-7,4.57,1.63,1.63,0,0,1-1.38.15,1.43,1.43,0,0,1-.78-1.35c.19-.7-.22-1.23-.53-1.79a.76.76,0,0,1,.08-.49c1-1.08,2.55-.59,3.58-1.48a15.81,15.81,0,0,0,4.55-6.86c.68-1.76,0-2.78-1.81-3a12,12,0,0,0-6.12,1.17,2.1,2.1,0,0,0-1.74,2c-.24.77.18,1.55,0,2.32s0,1.68-.49,2.42c-.62.41-.89-.16-1.21-.48-4.29-4.23-8.75-3.92-12.92-.54a27.26,27.26,0,0,0-7.12,8.7c-1.12,2.17-1.29,4.38.5,6.38a1.79,1.79,0,0,1,.57,1.13c-.21.49-.84.5-1.09,1,.62-.16.76-.79,1.22-1,1.42.28,3.1,0,3.89,1.68a5.32,5.32,0,0,1-3.75,1.74,34.87,34.87,0,0,1-7.91,0A8.29,8.29,0,0,1,173.85,232.84Z"/><path class="cls-52" d="M221.94,204.84a40.32,40.32,0,0,1-12.53,1.87,10.69,10.69,0,0,1-5.38-1.82c-1.69-1-2.17-2.84-2.15-4.67a8.28,8.28,0,0,1,1.34-4.74,30.4,30.4,0,0,1,8.6-8.61,10.21,10.21,0,0,1,7.14-1.33,5.1,5.1,0,0,1,3.32,1.89c.33.41.52,1,1.22,1a2.34,2.34,0,0,1,.64,1.21,13.46,13.46,0,0,0,1.47,7.07,10.8,10.8,0,0,0,.48,1.56,6.81,6.81,0,0,1-3.26,5.86A7.49,7.49,0,0,0,221.94,204.84Z"/><path class="cls-52" d="M208.54,221.2a2.34,2.34,0,0,0,.34,1.5v.22a2.17,2.17,0,0,1-.07.91,2.3,2.3,0,0,1-.23.4c-1,3.59-3.6,5.51-6.89,6.69a29.65,29.65,0,0,1-9.84,1.53,3.78,3.78,0,0,0-2.34.36c-1.18-1-2.76-.94-4.11-1.5h0c-.19-.24-.35-.51-.56-.73a5.87,5.87,0,0,1-.82-7.3,29.5,29.5,0,0,1,6.88-8.43c2-1.59,4-3,6.81-3a9.61,9.61,0,0,1,7,3.18c.3.3.4.79.87.92a.42.42,0,0,1,.46.11c.58,1.22,1.23,2.4,1.69,3.67h0C208,220.26,208.65,220.52,208.54,221.2Z"/><path class="cls-11" d="M224.17,169.07c-.5-.88-1-1.75-1.49-2.63,1.7-1.82,3-4,4.59-5.86a7.26,7.26,0,0,1,.93-.91c.29-.25.64-.42,1-.11s.17.58,0,.87-.38.77-.57,1.16c-1.18,1.72-2.28,3.5-3.57,5.14C224.48,167.47,224.84,168.44,224.17,169.07Z"/><path class="cls-53" d="M225.32,197a10.47,10.47,0,0,1-1.53-7.41c-.28-.78.37-1.14.74-1.63l.27-.25c.81,1.42.29,3,.54,4.56L227,192c-.06.86-1,.68-1.18,1.38.47.51,1.38.4,1.85,1.21a2.54,2.54,0,0,1-1.43.47c-1,.1-.61.69-.56,1.19S226,197,225.32,197Z"/><path class="cls-54" d="M208.6,224.23v-.42c.19-.3-.07-.73.3-1l-.05-.13,1.56.1C209.9,223.43,209.48,224.12,208.6,224.23Z"/><path class="cls-55" d="M225.32,197c.3-.17.33-.48.37-.77a2.67,2.67,0,0,1,.37,2.06A2.75,2.75,0,0,1,225.32,197Z"/><path class="cls-12" d="M106.47,169c-2.45-2.83-4.2-3.16-8.47-1.53a4.67,4.67,0,0,1-.19-1.78c.11-.76.67-.76,1.25-.76h5a4,4,0,0,0,2.72-.93c1.58-1.27,3.23-2.46,4.85-3.69a.45.45,0,0,1,.54,0c.19.59-.34.84-.65,1.15-1.25,1.29-2.5,2.57-3.81,3.8a2.42,2.42,0,0,0-.94,2.27C107.11,168.14,107.41,168.7,106.47,169Z"/><path class="cls-2" d="M106.47,169c.45-.41.24-1,.3-1.46.51,0,1,0,1.12.7.17,1,.6,1.9.24,2.91a1.18,1.18,0,0,0-.08.72,2.32,2.32,0,0,1-.83,2.89c.94.44,2,0,2.53.83a3.73,3.73,0,0,1,.7,2.45,6.6,6.6,0,0,0-4.79-1.58A7,7,0,0,0,106.47,169Z"/><path class="cls-2" d="M111.62,179.85a1,1,0,0,1-.39-.73A.73.73,0,0,1,111.62,179.85Z"/><path class="cls-2" d="M111.24,179.13a.86.86,0,0,1-.45-.72C111.17,178.5,111.23,178.78,111.24,179.13Z"/><path class="cls-2" d="M110.83,178.44a.48.48,0,0,1-.39-.41A.49.49,0,0,1,110.83,178.44Z"/><path class="cls-52" d="M177.64,187.3h.29c.7,1.2,1.83,2.35.4,3.76-.24.16-.36.39-.21.62.59.94,1.23,1.85,1.91,2.73s1.87,1.65,2,3.13c.05.73.69,1.39,1.59.56a.48.48,0,0,1,.66-.11h0c.87.68,2.11.68,3,1.66a7.81,7.81,0,0,0-1.33,2.77c-.17.68-.43,1-1.17.65a.79.79,0,0,0-1,.5h0a.92.92,0,0,0,.34,1.14,2.17,2.17,0,0,1,1,1.81c0,2.52.09,2.57-2.37,3.1-2.21.48-3.6,2-5,3.59-.16.17-.31.38-.46.57a6.77,6.77,0,0,1-3.36-4.12,33.38,33.38,0,0,1-3.81-7.83,11.62,11.62,0,0,1-.17-5.34,6.78,6.78,0,0,1,4-5c.05-.11.11-.28.2-.29C176.41,190.87,177.41,189.48,177.64,187.3Z"/><path class="cls-9" d="M177.64,187.3a8.34,8.34,0,0,0,.13,2.17c.31,1.06-.23,1.27-1,1.41s-1.9.38-2.84.57a.8.8,0,0,1-.77-.83v-8.78c0-.16.18-.31.28-.46.25.82.45,1.67.76,2.47a4.77,4.77,0,0,0,2.9,3.15,1.42,1.42,0,0,1,.49.28Z"/><path class="cls-56" d="M173.87,209.67l3.36,4.12-3.41,5.2c-.07-.1-.21-.19-.22-.29a76.92,76.92,0,0,1,0-8.59C173.57,210,173.77,209.78,173.87,209.67Z"/><path class="cls-52" d="M210.8,170.07a12.59,12.59,0,0,1-1.55,2.92c-1.72,3-3.28,6.11-3,9.75.09,1-.28,1.48-1.33,1.77-1.86.5-3.78.46-5.65.8-.53.1-.67-.37-.87-.78a20.8,20.8,0,0,0-4-5.52,9.43,9.43,0,0,0-4.41-2.63,7.41,7.41,0,0,1,1.57-2.79,4.5,4.5,0,0,0,1.24-4,3.62,3.62,0,0,1,0-.93c1.16.41.74,1.12.51,1.72,1.57-1.25,2.3-3.69,4.7-4.3,1.82-1.15,3.58-2.36,5.92-2.3,1.72,0,3,.92,4.46,1.64C209.46,166.86,210.71,168.18,210.8,170.07Z"/><path class="cls-57" d="M198.1,166.07c-1.73,1.36-3,3.22-4.62,4.75-.47-.75,0-1.6-.59-2.17a7.41,7.41,0,0,0-.86-2.5,1,1,0,0,1,.94-.45h4.34A1,1,0,0,1,198.1,166.07Z"/><path class="cls-58" d="M210.8,170.07c-.73-1.57-2-2.87-2.32-4.67.08-.39,0-1,.71-.42l.81.72c.47.32.9.77,1.54.4s.66-1.19,1.28-1.58c.42.35.07.8.17,1.17s0,1.09.85.91a.6.6,0,0,1,.38.24A36,36,0,0,1,210.8,170.07Z"/><path class="cls-59" d="M213.73,166.78c-.15.09-.32.16-.46.26-.53.39-.76.26-.64-.38a7.89,7.89,0,0,1,.36-1c.61.09,1.3-.22,1.83.32v.09C214.64,166.62,214.08,166.54,213.73,166.78Z"/><path class="cls-60" d="M211.54,166.1a1.5,1.5,0,0,1-.6,1,3,3,0,0,1-.94-1.43C210.54,165.78,211.14,165.53,211.54,166.1Z"/><path class="cls-2" d="M229.41,148.18l.39.37Z"/><path class="cls-61" d="M154.86,162.66a.77.77,0,0,0,.3.11l.42.41a.39.39,0,0,1-.17.44c-.42.3-.94.24-1.4.41a1,1,0,0,0-.78,1.09.66.66,0,0,0,.58.61,1.25,1.25,0,0,0,1.25-.6c.34-.47.13-1.09.43-1.57a.33.33,0,0,1,.45-.1h0l.37.34a7.5,7.5,0,0,1,2.19,5.12,32.21,32.21,0,0,1,.14,7.91,7.53,7.53,0,0,1-2.4,5.19l-.7.4a30.07,30.07,0,0,1-7.29,1.23c-5.2.47-10.41.28-15.61.25-2.29,0-4.58-.25-6.86-.39a1.69,1.69,0,0,0-1.13-.33,3.59,3.59,0,0,1-2.27-3.81c.06-3.89,0-7.78.07-11.65,0-1.77.33-3.44,1.87-4.59l.72-.38a56.86,56.86,0,0,1,9.55-1.23c4.21-.34,8.41-.34,12.62-.27A19.45,19.45,0,0,1,154.86,162.66Z"/><path class="cls-14" d="M158.21,239.14c.25.13.27.25,0,.37Z"/><path class="cls-62" d="M156.34,163.78l-.37-.34A.44.44,0,0,1,156.34,163.78Z"/><path class="cls-62" d="M155.94,163.46h-.35v-.28A.34.34,0,0,1,155.94,163.46Z"/><path class="cls-2" d="M168.27,159s.15.06.14.08S168.33,159.16,168.27,159Z"/><path class="cls-14" d="M156,233.93l.36.38Z"/><path class="cls-14" d="M156.35,234.67l.36.37Z"/><path class="cls-14" d="M156.72,235l.36.39Z"/><path class="cls-14" d="M157.1,235.78l.36.36Z"/><path class="cls-14" d="M157.47,236.16l.36.38Z"/><path class="cls-14" d="M157.83,236.53l.37.39Z"/><path class="cls-14" d="M158.59,237.66l.36.36Z"/><path class="cls-14" d="M159,238h.34C159.19,238.25,159.07,238.23,159,238Z"/><path class="cls-14" d="M159.33,239.53c-.06,0-.16-.07-.15-.09s.08-.1.15.08Z"/><path class="cls-63" d="M75.5,111.61a1.19,1.19,0,0,1-.82.71c-4.56.64-9.15,1-13.53-.81-4.6-1.9-8.16-4.91-9.59-9.93-.08-.3-.22-.58-.31-.88a.66.66,0,0,0-.7-.6.64.64,0,0,0-.3.11,7.85,7.85,0,0,0-2,.86,17.06,17.06,0,0,1-4.36,2,5,5,0,0,1-5.14-1.19A8.78,8.78,0,0,1,36,96.78a18.54,18.54,0,0,1,1.63-11.54,32.12,32.12,0,0,1,15-15.35,58.57,58.57,0,0,1,16-5.25c4.24-.83,8.51-1.4,12.79-1.92a27.5,27.5,0,0,1,4.8-.27,4.75,4.75,0,0,1,4.47,2.8,3.69,3.69,0,0,1-.73,4.25h3.22a13.17,13.17,0,0,1,8.5,2.72,8,8,0,0,1,3.48,6.67,6.71,6.71,0,0,1-3.09,5.73,9.19,9.19,0,0,1,2.3,4.39,6.68,6.68,0,0,0,.14.73c.17,1.78.07,1.91-1.72,2.18a1.52,1.52,0,0,0-.49.25c-1.66,1.21-3.7,1.25-5.57,1.73-1.11.29-1.1-.76-.91-1.5a22.07,22.07,0,0,0,.37-5.9,15.55,15.55,0,0,0-2.68-8.16c-.35-.56-.69-1.26-1.58-.84l-.41.31-.19.17a20.78,20.78,0,0,0-4.5,5.25,12.55,12.55,0,0,0-1.57,6.55,9.55,9.55,0,0,0,4.17,7.51,4.82,4.82,0,0,1,1.45,1.13,1,1,0,0,1,.06.54c-.4.77-1.2.8-1.89,1a44.82,44.82,0,0,0-13.51,6.75c-1.8,1.3-1.79,1.39-.67,3.25C75.11,110.48,75.66,110.9,75.5,111.61Z"/><path class="cls-63" d="M132.54,83a105,105,0,0,0-2.46,11.79,83.06,83.06,0,0,0-.67,16c.23,3.15.69,6.27.93,9.42a16.68,16.68,0,0,1-5.47,4.65,7,7,0,0,1-7.24-.15c-.77-.47-1.21-.54-1.86.15a52.16,52.16,0,0,1-5.14,4.83c-3,2.38-6.27,3.79-10.14,3.21a6.4,6.4,0,0,1-5.56-4.79c-.84-3,.13-5.75,1.73-8.25a45,45,0,0,1,5.38-6.6,38.74,38.74,0,0,0,6.51-8.76,21.94,21.94,0,0,0,2-6.15,6,6,0,0,0,.74-4.66c0-4.46-.15-8.93.06-13.38.15-3.3.36-6.67,2-9.68a5.78,5.78,0,0,1,2.06-2.55,4.47,4.47,0,0,1,4.06-.48,15.19,15.19,0,0,1,5,3,33.32,33.32,0,0,1,7,9A7.55,7.55,0,0,1,132.54,83Z"/><path class="cls-63" d="M40.41,119.31c.1-4.73,2.86-8.16,7.51-8.34a16.77,16.77,0,0,1,6.49,1.53c5.79,2.2,11.58,4.38,17.33,6.66a16.68,16.68,0,0,1,7.08,4.91A7.78,7.78,0,0,1,78,134.94a9.93,9.93,0,0,1-7.13,2.72,14.09,14.09,0,0,1-6.5-1.52c-1.64-.87-3.33-1.68-4.89-2.68A16.08,16.08,0,0,0,51.27,131a10.12,10.12,0,0,1-8.14-4.44A15.37,15.37,0,0,1,40.41,119.31Z"/><path class="cls-3" d="M111.24,93.64c1.34,1.94,1.21,2.75-.74,4.66a14.42,14.42,0,0,1-10.09,1.23c-.36-.08-.73-.13-1.09-.19-.76.32-1.36-.31-2.08-.36-.25.6.38,1.27-.1,1.85a18,18,0,0,1-.64,6.37,14.89,14.89,0,0,1-5,6.69,6.64,6.64,0,0,1-6.36,1.89,15.53,15.53,0,0,1-9.64-4.13c-.51-.7-1-1.38-1.51-2.11-1-1.54-1-1.57.48-2.64a46.81,46.81,0,0,1,15-7.52c.42-.12.83-.26,1.24-.39a.62.62,0,0,1,.46-.19.51.51,0,0,1-.45-.19c-5.19-2-7.25-8.2-5.35-13.18A8.43,8.43,0,0,1,86.59,83c1.28.35.64,1.29.5,1.94a11.74,11.74,0,0,0,0,5.71,4,4,0,0,0,1,2c.25-2.08.38-4,.68-5.8.14-.84,0-2.19,1.06-2.26s1.06,1.21,1.29,2a36,36,0,0,1,1.21,4.24A18.1,18.1,0,0,0,91.66,80c-.26-.74-.78-1.43-.62-2.29h0a.62.62,0,0,0,.4-.39c1.24-1.12,1.26-1.13,2.13.17a18.76,18.76,0,0,1,2.84,14.33c-.1.55-.22,1.09-.32,1.63,0,0,.06.1.17.25a29.45,29.45,0,0,1,6-1.5c1.95.15,3.91-.13,5.85.34A11.31,11.31,0,0,1,111.24,93.64Z"/><path class="cls-63" d="M85.14,115.78a15.88,15.88,0,0,0,6.39-1.85,3.71,3.71,0,0,1,.63,4.56A18.89,18.89,0,0,1,88.59,123a4,4,0,0,1-2.72,1A2.79,2.79,0,0,1,83,121.31a2.7,2.7,0,0,1,.13-1A12.66,12.66,0,0,1,85.14,115.78Z"/><path class="cls-63" d="M102.32,62.44a10.59,10.59,0,0,1,3.92.38A3.82,3.82,0,0,1,108.12,64a2.23,2.23,0,0,1,.14,3.15,2.32,2.32,0,0,1-.61.47c-1.51,1-3.2.89-4.86.77a11,11,0,0,1-3.56-1c-1.3-.58-2.25-1.92-2.07-2.82A3.33,3.33,0,0,1,100,62.42,18.43,18.43,0,0,1,102.32,62.44Z"/><path class="cls-63" d="M85.52,132.69a4.15,4.15,0,0,1,.79-2.84,2,2,0,0,1,2.72-.79h0c2.11,1,4,5.06,3.09,7.18a3,3,0,0,1-4.91,1.1C86.08,136.46,85.52,134.89,85.52,132.69Z"/><path class="cls-63" d="M32.57,109.07a6.62,6.62,0,0,1,.31-1.83,2.51,2.51,0,0,1,2.25-1.92c1.27-.21,2,.74,2.5,1.6,1,1.55.62,5.3-.55,6.74s-2.52,1.21-3.44-.33C32.85,112,32.84,110.51,32.57,109.07Z"/><path class="cls-64" d="M97.14,100.83a9.82,9.82,0,0,1-.6-2.72l2.78,1.23A4.1,4.1,0,0,1,97.14,100.83Z"/><path class="cls-65" d="M153.71,87.78A37.88,37.88,0,0,1,152.64,93c-.42-.64-.87-.64-1.53-.25-1.87,1.11-3.79,2.12-5.72,3.11a3.76,3.76,0,0,0-2.29,3.39c0,4.34-.67,8.67-.43,13,0,.42-.14,1,.3,1.19s.8-.21,1.13-.46a53.28,53.28,0,0,1,5.39-3.67c.61-.36,1.18-1,2-.69.57,2.48.33,5,.71,7.56,1,6.83,2.48,13.51,6.25,19.45a23.46,23.46,0,0,0,3.31,4c1.08,1,1,1,0,2.19a10.79,10.79,0,0,1-7.9,3.59,8.32,8.32,0,0,1-6.81-3.2,22.41,22.41,0,0,1-4.1-9.85c-.8-3.93-1.61-7.87-2.14-11.84a67.87,67.87,0,0,1-.89-9.22c0-2.91-.48-5.8-.35-8.72.48-10.38,2-20.56,6.2-30.14a47.8,47.8,0,0,1,5.38-9.69,15.89,15.89,0,0,1,2.85-3,6.1,6.1,0,0,1,4.59-1.08,3.36,3.36,0,0,1,1.87.7h0a7.21,7.21,0,0,0,1.13.76h0a3.13,3.13,0,0,1,1.47,1.89l.08.16c1.41,2.48,1.6,1.89-.46,4.3-1-.39-1.17-1.39-1.6-2.18-1-1.85-2-2.24-3.94-1.42a10.43,10.43,0,0,0-4.45,3.87,46.06,46.06,0,0,0-8.18,21.3,19.39,19.39,0,0,0-.37,3.32v1.22c2.6-1.27,4.9-2.85,7.35-4.16C152.19,88.09,152.81,87.48,153.71,87.78Z"/><path class="cls-65" d="M192.84,106v8a56.58,56.58,0,0,0,4.2,21.52,24,24,0,0,0,1.46,2.8c1,1.77,1,2-.75,3.3a20.65,20.65,0,0,1-2.43,1.36c-3.2,1.63-7.38,0-9-2.59a22.26,22.26,0,0,1-2.7-6.49,106.21,106.21,0,0,1-2.21-12.75,115.9,115.9,0,0,1-.81-16.86,75.15,75.15,0,0,1,3-19.54,58.66,58.66,0,0,1,6.16-13.88,10.51,10.51,0,0,1,2.88-3.13,4.91,4.91,0,0,1,6.77,1.14A16.87,16.87,0,0,1,201.17,72a3,3,0,0,1-.5,3.86c-1.14-1.46-1.25-3.34-2-5-1.1-2.2-2.1-2.53-4.26-1.3a9.62,9.62,0,0,0-3.31,3.71,45.89,45.89,0,0,0-6.64,20,5.38,5.38,0,0,0,.15,2.39c2.81-1.51,5.41-3.26,8.05-4.93.76-.48,1.4-1.29,2.47-1.09A43.45,43.45,0,0,1,194,94.5a5.41,5.41,0,0,0-2.77,1c-1.89,1.07-3.72,2.23-5.61,3.29a4,4,0,0,0-2.2,3.22c-.22,4.14,0,8.28-.09,12.38.84.33,1.19-.24,1.57-.56a50.41,50.41,0,0,1,5.28-3.8,3.35,3.35,0,0,0,1.94-2.93C192.08,106.65,192.11,106.05,192.84,106Z"/><path class="cls-65" d="M173.87,89.27a10.35,10.35,0,0,1-.73,3.76c-2.14.82-4,2.16-6.1,3.11a4.27,4.27,0,0,0-2.35,4.14c-.08,4.2,0,8.41,0,12.9a20.47,20.47,0,0,0,2.81-1.87c1.32-.77,2.27-2.38,4.15-1.92.49,7.29,1,14.56,3.63,21.5a27.4,27.4,0,0,0,4.84,8.5c1.61,1.86,1.73,1.85-.54,3-4.45,2.19-9.67,1-12.22-3.84a36,36,0,0,1-3.12-10.07c-.68-3.51-1.35-7-1.79-10.59-.25-2.07-.34-4.2-.57-6.28a85.09,85.09,0,0,1-.25-9.84,71.9,71.9,0,0,1,1.19-12.17,70.51,70.51,0,0,1,4-14.27A55.77,55.77,0,0,1,172.23,65a15,15,0,0,1,2.63-2.88,5.72,5.72,0,0,1,4.55-1.5A6.37,6.37,0,0,1,182,61.66h0c.16.19.41.28.58.47a5.79,5.79,0,0,1,2,2.58c.74,2,.74,2-1,3.36-1-.36-1.24-1.35-1.6-2.16a2.3,2.3,0,0,0-3-1.41l0,0a7.16,7.16,0,0,0-4.1,2.74,44.15,44.15,0,0,0-8.7,22,4.69,4.69,0,0,0,0,.75c0,.85-.74,2-.08,2.47s1.62-.54,2.41-.94c1.21-.61,2.38-1.33,3.56-2C172.57,89.25,173.15,88.78,173.87,89.27Z"/><path class="cls-66" d="M197.34,92.25c-.34,0-.58-.15-.46-.59.29-1.07.52-2.16.85-3.22a67.74,67.74,0,0,1,3.68-10.29A15.56,15.56,0,0,1,204,74.56a5.55,5.55,0,0,1,9,1.17,13.58,13.58,0,0,1,1.83,7c0,1.21.51,2.31.39,3.5-.35,3.55-.29,7.14-1,10.67-.3,1.5-.54,3-.85,4.54a1.42,1.42,0,0,1-.77,1.17,1.17,1.17,0,0,1-1,.35,23,23,0,0,0-15.41,3.56,1.48,1.48,0,0,1-.71.19c-.12-.21-.33-.42-.34-.63a36.05,36.05,0,0,1,.64-8.8A2.87,2.87,0,0,1,196.6,96c2.22-1.75,4.88-2.31,7.57-2.71a20,20,0,0,1,4.64,0,3.81,3.81,0,0,0,2.82-.66c.49-.4,1-.84.85-1.54s-.75-.79-1.28-.92a15.81,15.81,0,0,0-6.64-.06,27,27,0,0,0-5.48,1.72C198.53,92,198,92.48,197.34,92.25Z"/><path class="cls-67" d="M153.71,87.78c-2.73,1.56-5.46,3.13-8.21,4.67a2.58,2.58,0,0,1-1.77.59,28,28,0,0,1,.78-8.26,47,47,0,0,1,7.66-18.12A15.25,15.25,0,0,1,156,62.9a5.29,5.29,0,0,1,1.69-.73c2-.55,2.74-.2,3.68,1.67.45.88.88,1.77,1.32,2.66h0a1.65,1.65,0,0,0-.33.41A66.68,66.68,0,0,0,154,87.07,4.87,4.87,0,0,1,153.71,87.78Z"/><path class="cls-67" d="M195.1,89.64c-3.58,2.41-7.19,4.76-11.07,6.91a25.75,25.75,0,0,1,.64-8.21A44.36,44.36,0,0,1,191,72.6a8.93,8.93,0,0,1,3.08-3.4,6.78,6.78,0,0,1,1.88-.75c1.48-.34,1.94-.08,2.64,1.28a20.92,20.92,0,0,1,2.12,6.11A58.67,58.67,0,0,0,195.1,89.64Z"/><path class="cls-67" d="M173.87,89.27c-1.6.39-2.83,1.49-4.25,2.21-1.16.6-2.25,1.3-3.38,2a.65.65,0,0,1-.72.08c-.36-.33-.25-.79-.22-1.2a48,48,0,0,1,7.89-23.66,10.5,10.5,0,0,1,4.36-4.2,7.29,7.29,0,0,1,3.06-.55,1.32,1.32,0,0,1,1.31.83c.54,1.12,1.11,2.22,1.67,3.33a42.17,42.17,0,0,0-5.06,8.17,79.79,79.79,0,0,0-4.27,12.23A1.43,1.43,0,0,1,173.87,89.27Z"/><path class="cls-67" d="M151.51,108.66a83.18,83.18,0,0,0-8.72,5.94c-.75-.41-.6-.9-.6-1.3a64.93,64.93,0,0,1,.05-7.25c.23-2.29.26-4.56.32-6.85a3.62,3.62,0,0,1,1.8-3.28c2.67-1.42,5.23-3,8-4.24.39.47.2.93.29,1.34-.35,3.36-.76,6.72-1,10.09C151.46,105,151.54,106.78,151.51,108.66Z"/><path class="cls-67" d="M192.84,106c-.57.57-.31,1.29-.33,1.95a1.73,1.73,0,0,1-.81,1.57c-3,1.78-5.6,4-8.42,6h-.19c-.42-.3-.28-.77-.28-1.17V102.68a4.72,4.72,0,0,1,2.94-4.51C188,97,190,95.49,192.34,94.41a5.1,5.1,0,0,1,1.18-.5c.42-.08.42.35.5.63-.24,2.69-.72,5.34-1,8C193,103.72,193,104.88,192.84,106Z"/><path class="cls-66" d="M211.5,106.41c.42.28.23.62.1,1a47.9,47.9,0,0,1-4,9.14,2.38,2.38,0,0,0-.22.7l-.18.19a2.27,2.27,0,0,1-.77.22h-1.06a6,6,0,0,0-2.11.24c-2,.19-3.57,1.54-5.57,1.53a.91.91,0,0,1-1-.65c-.75-3.08-1.64-6.14-1.59-9.36a1,1,0,0,1,.37-.8,31.7,31.7,0,0,1,7.26-2.2,37.4,37.4,0,0,1,6.68-.54A2.62,2.62,0,0,1,211.5,106.41Z"/><path class="cls-67" d="M171.61,109.39a10.78,10.78,0,0,0-4.08,2.48,35,35,0,0,1-3,2.1c-.55-.29-.31-.78-.31-1.16V100.7a5.41,5.41,0,0,1,3.88-5.62,25.3,25.3,0,0,0,4.4-2.39c.51-.3.63-.12.7.34-.31,2.3-.57,4.62-.94,6.91-.13.79-.15,1.58-.23,2.38-.48,2,.14,4-.32,6Z"/><path class="cls-66" d="M133.23,91.12a.91.91,0,0,1-.33-1,122.27,122.27,0,0,1,3.26-13.5,12.34,12.34,0,0,1,3.66-5.73,2.37,2.37,0,0,1,2.22-.6A1.47,1.47,0,0,1,143.26,72a1.09,1.09,0,0,1-.08.31,2.26,2.26,0,0,1-.31.67c-1.88,2.46-2.38,5.4-2.93,8.33a44.2,44.2,0,0,0-1.18,6.17c-.07,1.45-1.37,1.31-2.18,1.81A8.13,8.13,0,0,1,133.23,91.12Z"/><path class="cls-66" d="M155.22,91.51a36.62,36.62,0,0,1,1.42-7.79,59,59,0,0,1,1.94-6.94A10.71,10.71,0,0,1,161,72.87a3.16,3.16,0,0,1,1.53-1c.72-.17,1.54-.37,2.09.28a1.63,1.63,0,0,1,0,2.08c-2,2.63-2.22,5.85-2.94,8.88a43.42,43.42,0,0,0-1.27,6.52A53.58,53.58,0,0,1,155.22,91.51Z"/><path class="cls-66" d="M175,95.6c-.73-1.07-.08-2.2.11-3.17a70.77,70.77,0,0,1,2.85-11.87,8.92,8.92,0,0,1,2.53-4,2,2,0,0,1,.73-.54c.65-.17,1.36-.36,1.91.24a1.34,1.34,0,0,1,0,1.87,9.13,9.13,0,0,0-1.63,3.7c-.63,2.83-1.16,5.68-1.7,8.52a16,16,0,0,1-.76,3.41A21.08,21.08,0,0,1,175,95.6Z"/><path class="cls-61" d="M197.34,92.25a19.25,19.25,0,0,1,14.17-2.61,5.16,5.16,0,0,1,1,.35,1,1,0,0,1,.55,1.66,3.6,3.6,0,0,1-3.22,2.1c-1.59.06-3.16-.18-4.77-.08A21.17,21.17,0,0,0,199,95.15a17.22,17.22,0,0,1-2.45.83c-.63,0-1.26,0-1.44-.81a1.74,1.74,0,0,1,.67-1.94C196.31,92.87,197,92.78,197.34,92.25Z"/><path class="cls-61" d="M211.5,106.41a48.72,48.72,0,0,0-9.57.75,19.56,19.56,0,0,0-3.18,1,7.77,7.77,0,0,1-3.27.51,1.53,1.53,0,0,1,0-1.86,13.86,13.86,0,0,1,7-3.57,27.81,27.81,0,0,1,7.09-.92c1.07,0,2,.51,3.1.39,1.11,1.34.93,2.54-.52,3.34A3.33,3.33,0,0,0,211.5,106.41Z"/><path class="cls-66" d="M137.7,92.63c0,3.46-.62,6.89-.38,10.36a1,1,0,0,1-.36.82c-1.79.46-3.33,1.66-5.22,1.86-.26-3.09.4-6.13.42-9.2,0-2.09.37-2.38,2.2-3.1a2.74,2.74,0,0,1,1.89-.79c.33,0,.66-.09,1-.12A.62.62,0,0,1,137.7,92.63Z"/><path class="cls-66" d="M138.08,119.83c1,1.13.91,2.62,1.25,4a23.93,23.93,0,0,1,.63,6.43,1.67,1.67,0,0,1-1.21,1.85,1.8,1.8,0,0,1-2.06-.86c-1.73-2.36-2.32-5.16-3.05-7.9a23.73,23.73,0,0,1-.4-2.36A11.75,11.75,0,0,1,138.08,119.83Z"/><path class="cls-66" d="M154.48,105.3c-.52-.42-.33-1-.38-1.54-.25-2.82.41-5.59.39-8.4a1.07,1.07,0,0,1,.89-1.23.47.47,0,0,1,.17,0,1,1,0,0,0,.8-.37,2.06,2.06,0,0,1,2.6-.39c.65.07.7.52.76,1,.14,1.2-.42,2.29-.4,3.47v5.92A39.33,39.33,0,0,1,154.48,105.3Z"/><path class="cls-66" d="M160.07,119.08c1,1.12.92,2.62,1.24,4a20,20,0,0,1,.63,5.66,2.21,2.21,0,0,1-.52,1.53c-.87,1-1.59,1-2.46,0a3.84,3.84,0,0,1-.55-.74,21.91,21.91,0,0,1-2.82-9.28l.19-.19a13.37,13.37,0,0,1,1.75-.49C158.41,119.45,159.15,118.78,160.07,119.08Z"/><path class="cls-61" d="M205.54,117.23h1.12a.49.49,0,0,0,.68.06l.06-.06h0c.6.14,1.21.23,1.78.42a1.31,1.31,0,0,1,1.13,1.48,1.34,1.34,0,0,1-.28.66,2.93,2.93,0,0,1-2.73,1.55,5.17,5.17,0,0,0-2.88.36h-.23c-.48.08-.93.28-1.41.39-1.44.11-2.81,1-4.31.34h-1.28c-.42,0-1.05.16-1.25-.47a1.61,1.61,0,0,1,.53-1.81c.37-.33,1-.22,1.24-.7a13.71,13.71,0,0,1,5.59-1.86C204,117.14,204.85,117.7,205.54,117.23Z"/><path class="cls-66" d="M133.23,117.23a1.28,1.28,0,0,1-.74-1.18,53,53,0,0,1-.37-7.76,16,16,0,0,1,4.47-1.13c.4.07.72.24.71.69a34.4,34.4,0,0,0,.42,6.24,1.75,1.75,0,0,1-1.14,2C135.56,116.78,134.63,117.68,133.23,117.23Z"/><path class="cls-66" d="M178.71,97.09c.19,3.24-.64,6.45-.38,9.7a20.51,20.51,0,0,1-4.1,1.49c-.47-.36-.33-.88-.37-1.37-.24-2.72.41-5.4.38-8.11a.87.87,0,0,1,.87-1c.62-.07,1,.09,1.36-.38A1.61,1.61,0,0,1,178.71,97.09Z"/><path class="cls-66" d="M159,106.78c.12.21.34.42.33.62-.14,2.67.65,5.28.41,8-1.31.57-2.53,1.48-4.09,1.13a.63.63,0,0,1-.69-.51c-.16-1.09-.35-2.18-.41-3.28a17.83,17.83,0,0,0-.33-2.74c-.28-1.19,0-1.42,1.18-1.7A1.16,1.16,0,0,0,156,108,4.42,4.42,0,0,1,159,106.78Z"/><path class="cls-66" d="M179.08,121a1.19,1.19,0,0,1,.73,1c.36,2,.77,4,1.09,6a9.16,9.16,0,0,1,0,2.22,1.78,1.78,0,0,1-1.22,1.5c-.75.28-1.16-.23-1.57-.68a4,4,0,0,1-.61-.92,21.06,21.06,0,0,1-2.14-8l.17-.18a14,14,0,0,1,1.68-.47C177.84,121.31,178.35,120.7,179.08,121Z"/><path class="cls-66" d="M175,118.72a14.59,14.59,0,0,1-.74-4.58,9.82,9.82,0,0,0-.37-3.24,11.23,11.23,0,0,1,4.09-1.12,3,3,0,0,1,.72,2,29.78,29.78,0,0,0,.39,5.81C177.76,118.17,176.54,119.08,175,118.72Z"/><path class="cls-61" d="M133.23,117.23c1.2-.13,2.08-1.22,3.35-1.13a5,5,0,0,0,.55,0,1.69,1.69,0,0,1,2,1,1.8,1.8,0,0,1-.58,2.13,3.51,3.51,0,0,0-.42.59,9.08,9.08,0,0,1-4.84,1.13c-1,0-1.73-.35-1.82-1.35a1.82,1.82,0,0,1,1.22-2A3.25,3.25,0,0,0,133.23,117.23Z"/><path class="cls-61" d="M155.6,116.49c1.4-.26,2.53-1.48,4.09-1.13,1.87,1.16,1.91,1.51.38,3.72a4.36,4.36,0,0,1-2.6.76c-.57.43-1.32-.08-1.87.37h0a2.39,2.39,0,0,1-1.33-.52,1.62,1.62,0,0,1-.1-2.29.47.47,0,0,1,.1-.1C154.61,116.87,155.27,117,155.6,116.49Z"/><path class="cls-61" d="M136.59,107.16c-1.3,1.16-2.88,1.16-4.47,1.13-1.43-.71-1.46-.92-.38-2.62a12.28,12.28,0,0,0,1.27-.73,5.25,5.25,0,0,1,4-1.13C138.1,105.23,138,105.86,136.59,107.16Z"/><path class="cls-61" d="M136.59,93l-2.23.38h-.18c-.64-.07-1.46.25-1.83-.47s.48-1.23.88-1.78a6.65,6.65,0,0,1,3.35-1.86h1.47c1.31.08,1.77,1,1.2,2.14-.33.68-1,.9-1.55,1.22h-.36C137.13,92.85,136.78,92.78,136.59,93Z"/><path class="cls-61" d="M175,118.72c1.4-.25,2.53-1.48,4.09-1.13,1.51,1.3,1.51,1.75,0,3.37-.59.33-1.08.9-1.86.75-.56.42-1.31-.09-1.87.36h0a1.56,1.56,0,0,1-1.81-1.21c-.21-.87.38-1.36,1-1.76A4.11,4.11,0,0,0,175,118.72Z"/><path class="cls-61" d="M159,93.36c-.89,0-1.69.52-2.6.39h-.54c-1.5-.12-1.65-.42-.87-1.77.09-.16.19-.31.28-.46,1.59-1,3.16-2.14,5.21-1.88,1.34,1.52,1,2.8-.87,3.37A1.05,1.05,0,0,0,159,93.36Z"/><path class="cls-61" d="M159,106.78a5.2,5.2,0,0,1-3,1.12h-1.29c-.42,0-1.06.15-1.25-.49a1.35,1.35,0,0,1,.34-1.53l.7-.58a6.15,6.15,0,0,1,4.84-1.5A2.37,2.37,0,0,1,159,106.78Z"/><path class="cls-61" d="M178,109.78a5.76,5.76,0,0,1-4.09,1.13c-.84-.46-1-1-.31-1.76.24-.27.45-.57.67-.86a5.13,5.13,0,0,1,4.1-1.49C178.85,107.86,179,108.89,178,109.78Z"/><path class="cls-61" d="M178.71,97.09l-2.24.38a4.86,4.86,0,0,1-.54,0c-.52-.06-1.17.24-1.52-.29-.45-.68.41-1,.57-1.57,1.19-1,2.41-2,4.09-1.87,1.24.63,1.52,1.47.74,2.4A10,10,0,0,1,178.71,97.09Z"/><path class="cls-68" d="M198.47,122.45c1.62-.16,3.17-.83,4.83-.76a1,1,0,0,1,1.12,0h0a5.9,5.9,0,0,1-1.47,1.64c-1.46,1.35-2.54,1.3-3.93-.15C198.82,122.94,198.64,122.7,198.47,122.45Z"/><path class="cls-65" d="M171.65,108.31v-4.62c0-.48-.1-1,.34-1.37v4.78A1.56,1.56,0,0,1,171.65,108.31Z"/><path class="cls-69" d="M184.63,64.7l-2.22-2.65c.13-.14.25-.15.37,0a7.94,7.94,0,0,1,2.32,2.19Z"/><path class="cls-70" d="M182.08,61.66a9.51,9.51,0,0,1-2.67-1.07l.32-.33A4,4,0,0,1,182.08,61.66Z"/><path class="cls-71" d="M163,62.05l-1.47-1.89c.91.13,1.39.82,1.91,1.47Z"/><path class="cls-72" d="M160.46,59.42a3.6,3.6,0,0,1-1.87-.7v-.39A2.42,2.42,0,0,1,160.46,59.42Z"/><path class="cls-2" d="M171.65,144.78c-.42,0-.84.09-1.13-.31A1.11,1.11,0,0,1,171.65,144.78Z"/><path class="cls-65" d="M162.33,66.93l.33-.41Z"/><path class="cls-71" d="M161.58,60.17a1.07,1.07,0,0,1-1.13-.76A1.14,1.14,0,0,1,161.58,60.17Z"/><path class="cls-70" d="M182.79,62.05h-.38l-.35-.4A.71.71,0,0,1,182.79,62.05Z"/><path class="cls-3" d="M36.84,200.86c-.36-.2-.58-.31-.78-.45a2.14,2.14,0,0,1-.56-3.47,4.7,4.7,0,0,1,3.56-1.75,16.83,16.83,0,0,1,5.3,0c1.78.43,3.43,1,4.25,2.91s.52,3.54-1.34,4.6c-1,.58-.87,1.37-.88,2.22s-.12,1.64,1.06,2c1.76.59,1.77,1.59,1.47,3.13a3.47,3.47,0,0,1-4,2.78,3.56,3.56,0,0,1-1.22-.47,1.11,1.11,0,0,0-1.19,0,5.14,5.14,0,0,1-2.32.48c-2.29-.22-3.42-1.62-3.45-4.16-2.2-.42-2.77-1.38-2.28-3.65A8.73,8.73,0,0,1,36.84,200.86Z"/><path class="cls-3" d="M69.81,194.4c2,0,2.67,1,1.91,2.84a3.83,3.83,0,0,1-4.25,2,1.31,1.31,0,0,1-1-1.19,3.07,3.07,0,0,1,2.41-3.61A2.91,2.91,0,0,1,69.81,194.4Z"/><path class="cls-3" d="M55,200.67a2.69,2.69,0,0,1-2.81,2.54,3.43,3.43,0,0,1-.64-.11,1.43,1.43,0,0,1-1-1.38A2.68,2.68,0,0,1,53.15,199a2.35,2.35,0,0,1,.7.08A1.46,1.46,0,0,1,55,200.67Z"/><path class="cls-73" d="M76.21,200a2.72,2.72,0,0,1-2.47,2.52A1.57,1.57,0,0,1,72.11,201v-.09a2.74,2.74,0,0,1,2.59-2.64,1.57,1.57,0,0,1,1.52,1.62A.31.31,0,0,0,76.21,200Z"/><path class="cls-73" d="M73.51,194.78c-.76,0-1.35-.22-1.38-1.11a2,2,0,0,1,2.09-1.91l.19,0A1.19,1.19,0,0,1,75.73,193,2.15,2.15,0,0,1,73.51,194.78Z"/><path class="cls-74" d="M49,216.78l-.12.5-.3-.17Z"/><path class="cls-75" d="M46.81,219.78v-.45l.39-.44A.86.86,0,0,1,46.81,219.78Z"/><path class="cls-3" d="M93.41,171.7c-2.22-.2-3.06-.88-3-2.34a3.48,3.48,0,0,1,3.12-2.91A4,4,0,0,1,97.27,169a5.07,5.07,0,0,1,.25.89.59.59,0,0,0,.61.56.57.57,0,0,0,.18,0c.12,0,.24-.09.36-.11,1.64-.34,3.36-.5,4.28,1.2a4.92,4.92,0,0,1-.19,5.12,7.11,7.11,0,0,1-5.45,3.12A4.11,4.11,0,0,1,93,175.89v0A8.48,8.48,0,0,1,93.41,171.7Z"/><path class="cls-3" d="M108.64,181.13a2.19,2.19,0,0,1-1.88,2.45,2.5,2.5,0,0,1-.47,0,3.32,3.32,0,0,1-2.88-2.62,2.36,2.36,0,0,1,2.49-2.24,2.48,2.48,0,0,1,2.73,2.2C108.63,181,108.64,181.06,108.64,181.13Z"/><path class="cls-3" d="M96.73,228a1.09,1.09,0,0,1-.56-.12c-1.23-1-2-.19-2.81.66a7.2,7.2,0,0,1-2.9,1.6,3.46,3.46,0,0,0-2,1.7c-.89,1.57-2.39,1.88-3.55.9s-1.22-2.21,0-3.11a3.72,3.72,0,0,0,1.62-2.52,3.57,3.57,0,0,1,.72-1.49,1.41,1.41,0,0,0,.08-1.67c-.79-1.58.91-4.33,2.66-4.5a1.86,1.86,0,0,1,2.16,1.52v0c.2.9.64,1.13,1.4,1,1-.14,1.71.56,2.55.81s1.68-.56,2.66-.43a2.13,2.13,0,0,1,2,2.22,2.45,2.45,0,0,1-.09.53A4.68,4.68,0,0,1,96.73,228Z"/><path class="cls-24" d="M66.63,215.53c2.65.34,3.64,2.05,3.93,4.22.13.91.23,1.49,1.29,1.62.78.09,1,.72,1,1.51a4.44,4.44,0,0,1-2.93,3.9,1.63,1.63,0,0,1-2-.61c-.47-.84-1-.68-1.71-.41-1.93.79-3.62.21-5.21-.94-1-.74-1.26-1.95-1.79-3-.71,0-.84.68-1.19,1.05a5.53,5.53,0,0,1-4.87,1.74,3.71,3.71,0,0,1-3-2.5,2.54,2.54,0,0,1,1.51-3.25l.3-.08c1-.25,1.22-.61,1.1-1.51-.51-3.59,1.76-6.17,5.37-6a1.26,1.26,0,0,0,1.4-.79,9.83,9.83,0,0,1,1.77-2.38,5.4,5.4,0,0,1,4.81-1.32,2.75,2.75,0,0,1,2.28,2.41,6.12,6.12,0,0,1-.92,4.61C67.41,214.28,67.11,214.78,66.63,215.53Z"/><path class="cls-28" d="M79.54,222.78a2.78,2.78,0,0,1-2.61,2.43,2.13,2.13,0,0,1-1.79-1.61,2.9,2.9,0,0,1,2.7-2.37,1.55,1.55,0,0,1,1.69,1.41A.61.61,0,0,1,79.54,222.78Z"/><path class="cls-76" d="M68.07,230.17a1,1,0,0,1-1.15-.83,1.4,1.4,0,0,1,0-.29c0-.77.49-1.07,1.2-1.08s1.27.12,1.32.94C69.47,229.49,68.73,230.14,68.07,230.17Z"/><path class="cls-52" d="M178.33,191.05c.17-.8.6-1.58-.18-2.35-.35-.35-.16-.93-.22-1.41,0-1.63,1.33-2.7,1.9-4.09.31-1.28,1.49-1.72,2.37-2.45,1.11-.7,1.8-2,3.17-2.32,1.62-1.67,3.59-1.43,5.49-.84,2.77.86,4.14,3.22,5.49,5.54.87,1.49,1.69,3,2.43,4.59a17.37,17.37,0,0,1,1.5,9.05c-.08,1-.42,1.21-1.61,1s-2.54-.47-3.82-.67a5.44,5.44,0,0,0-2.94.06c-1,.39-1.34-.19-1.64-.93,1.24-.44,2.38-1.09,3.61-1.54.33.21.46.6.7.88-.12-.5-.6-.71-.85-1.11a27.64,27.64,0,0,0-1-10.08.69.69,0,0,1,0-.35c.84-1.76.82-1.8-1.12-1.85a4.79,4.79,0,0,0-4.25-1,1.73,1.73,0,0,0-1.52.59,5.53,5.53,0,0,0-3.59,2.7,4.32,4.32,0,0,0-1.19,3.17,1.12,1.12,0,0,0,.18,1.58.55.55,0,0,0,.14.09c.48.43.78,1,1.24,1.5l.35.34.17.17a17.31,17.31,0,0,0,3.11,2.42,5.45,5.45,0,0,0,1.21.81c.54.36,1.27.41,1.68,1a2.33,2.33,0,0,0-.31,1.95c.22.82-.27,1-.9,1a1.39,1.39,0,0,1-.71-.2C183.81,196.45,180.35,194.64,178.33,191.05Z"/><path class="cls-52" d="M177.59,179.87a3.08,3.08,0,0,1-2-2.24,18.16,18.16,0,0,1-.5-10.17,4,4,0,0,1,4.14-3.24,13.86,13.86,0,0,1,4.21.31,4.51,4.51,0,0,1,3.5,3.41.8.8,0,0,1,0,1.11,12.39,12.39,0,0,1-3.28,5.69c-1.1,1.25-2.45,2.27-3.44,3.62l-.31.38a9.64,9.64,0,0,1-1.11,1C178.41,179.88,178,180.13,177.59,179.87Z"/><path class="cls-52" d="M193.31,198.13c2.56-.13,5,.81,7.49,1,.47,0,.59.4.61.78a15.69,15.69,0,0,1,0,1.68,4.63,4.63,0,0,0,3.13,4.75c.29.13.58.22.86.36a.68.68,0,0,1,.42.86.94.94,0,0,1-.12.22,16.32,16.32,0,0,1-3.06,3.47,1,1,0,0,1-1.2.14c-3.91-1.51-7.25-.21-10.36,2.15-.29.23-.53.53-.82.75a.48.48,0,0,1-.67,0,.54.54,0,0,1-.1-.16,10.46,10.46,0,0,1-.51-1,5.65,5.65,0,0,0-2.61-3,1.49,1.49,0,0,1-.84-1.92.59.59,0,0,0,0-.08,37.67,37.67,0,0,1,1.39-5.56C188.34,199.36,189.17,197.89,193.31,198.13Z"/><path class="cls-77" d="M189.16,195.55a2.45,2.45,0,0,1-1.89-.76c.62-.83,1.29-1.63.94-2.79-.15-.49-.35-.94-.89-1.05s-.82.37-1,.82c-.61.53-.51,1,0,1.57a.66.66,0,0,1-.16.69c-1.25-.71-2.58-1.3-3.36-2.61a5.75,5.75,0,0,0,1.61-3.24c.06-.2.33-.21.38-.43-.16,0-.32.07-.49,0-1-1-.65-2.87-2.3-3.42.41-1.52,1.73-2.12,2.9-2.85.27-.17.56.16.84.26a4.5,4.5,0,0,0,1.48-.75c2-.8,3.1-.52,4.51,1.12a7.24,7.24,0,0,1,1.08,1.87,15.69,15.69,0,0,1,1.25,9.5c-.08.42-.08.86-.12,1.28h0c-1,1-2.11,1.89-3.71,1.48A1.07,1.07,0,0,0,189.16,195.55Z"/><path class="cls-52" d="M217.09,167.19c.09-.8.64-.83,1.21-.66a3.66,3.66,0,0,1,2.53,2.22c.48,1.23,1,2.48.49,3.89a5.93,5.93,0,0,0-.13,1.63h0a22.94,22.94,0,0,1-4.35,5.69c-1.07.94-2.25,1.72-3.37,2.58a2.12,2.12,0,0,1-1.23.32c-.33.21-.54,0-.77-.2-.06-.31-.17-.34-.35-.07a.29.29,0,0,1-.36-.13,3.19,3.19,0,0,1-.35-3.68c.62-.9.44-2.1,1.1-3a1.24,1.24,0,0,1-.42-1.57,16.47,16.47,0,0,1,3.15-5.2c.4.12.22.69.63.8C215.92,169.2,217,168.59,217.09,167.19Z"/><path class="cls-52" d="M181,222.36a39.53,39.53,0,0,1-4.19,6.94,1.51,1.51,0,0,1-1.86.42,1.57,1.57,0,0,1-1-1.41A15.49,15.49,0,0,1,178,215.86c1.17-1.25,2.25-2.66,4-3.3,1.17-.45,1.56-.32,2.38.86a1.25,1.25,0,0,1,.37,1.49,8,8,0,0,1-1.29,4c-.3.54-.64,1.06-1,1.58C181.9,221.09,181.48,221.78,181,222.36Z"/><path class="cls-52" d="M205.88,213.48a2.54,2.54,0,0,0-.23-1.36.68.68,0,0,1,.26-.93,2.4,2.4,0,0,0,1.87-2.25,9,9,0,0,1,7.24-1.21,2,2,0,0,1,1.72,2.24,2,2,0,0,1-.1.41c-1.14,3-2.41,6-5.22,7.9-3.54-.86-3.54-.86-1.83-3.78-.8-.68-.59.4-.92.52a1.22,1.22,0,0,1-1.16.47,3.23,3.23,0,0,1-1.56-1.75C205.93,213.65,205.9,213.57,205.88,213.48Z"/><path class="cls-78" d="M207.46,215.39l1.06-.55a1.07,1.07,0,0,1,1.43-.49l.07,0c.37.27.21.5,0,.74a8.46,8.46,0,0,0-1.65,1.78,5.68,5.68,0,0,1,3.1,1.37,3.33,3.33,0,0,1-2,.74,2.13,2.13,0,0,0-1.63.75,6.12,6.12,0,0,1-1.88-3.71,1,1,0,0,1,0-1.18C206.58,214.59,206.9,215.34,207.46,215.39Z"/><path class="cls-79" d="M179.85,178.39h.34c.59.64,1.42,1,1.9,1.77.11.28.57.41.33.83-.87.74-1.73,1.49-2.59,2.24a4.7,4.7,0,0,1-2.64.37c-.71-.22-.7-.5,0-1.18a2.42,2.42,0,0,1,1.42-.71c1.18-.06,1.76-.46,1.09-1.73A1.3,1.3,0,0,1,179.85,178.39Z"/><path class="cls-80" d="M211.5,175.78v1.81a1.09,1.09,0,0,1-1,1.18h-.1c-1.25-.6-1.3-.7-.85-1.67A1.85,1.85,0,0,1,211.5,175.78Z"/><path class="cls-81" d="M217.09,167.19c.49,1.61-.27,2.49-2.23,2.6C215,167.59,215.22,167.34,217.09,167.19Z"/><path class="cls-80" d="M180.41,230.12a1.58,1.58,0,0,1-1.32,1.54.89.89,0,0,1-1-.78.57.57,0,0,1,0-.13,1.45,1.45,0,0,1,1.17-1.65A1.11,1.11,0,0,1,180.41,230.12Z"/><path class="cls-82" d="M182.41,181l-.33-.83c.52.06.61-.27.64-.68a3,3,0,0,1,.7-2.14c.67.31.8,1.69,1.94,1.12A23.72,23.72,0,0,1,182.41,181Z"/><path class="cls-83" d="M207.78,208.94c.58,1.57-.21,2.51-1.87,2.25C206,209.36,206.13,209.26,207.78,208.94Z"/><path class="cls-80" d="M220.25,181a.92.92,0,0,1,.8,1,1.23,1.23,0,0,1-1.24,1.13.68.68,0,0,1-.82-.49.7.7,0,0,1,0-.25A1.55,1.55,0,0,1,220.25,181Z"/><path class="cls-84" d="M178.7,182.07a4.23,4.23,0,0,1-1.49.32,6.52,6.52,0,0,1,.38-2.52,2.3,2.3,0,0,1,1.11-.38,1.61,1.61,0,0,1,.31,2.26A1.57,1.57,0,0,1,178.7,182.07Z"/><path class="cls-80" d="M186.91,169.05v-1.11l.14-.11c.35-.35.47-1.12,1.25-.65a1.16,1.16,0,0,1,.38,1.48.86.86,0,0,1-1,.72,1,1,0,0,1-.29-.09Z"/><path class="cls-80" d="M218.94,210.16c0,.87-.28,1.33-1.05,1.37-.41,0-.78-.14-.72-.62a1.6,1.6,0,0,1,1.15-1.31C218.81,209.43,218.79,210,218.94,210.16Z"/><path class="cls-80" d="M185.8,174.34c.46,0,.66.19.7.52a1.16,1.16,0,0,1-.88,1.39h0a.7.7,0,0,1-.85-.49.71.71,0,0,1,0-.2A1.33,1.33,0,0,1,185.8,174.34Z"/><path class="cls-83" d="M181,222.36a1.56,1.56,0,0,1,1.23-1.84l.25,0c.3.57.54,1.1,0,1.7a1,1,0,0,1-1.4.22Z"/><path class="cls-85" d="M185.41,231.31a1.64,1.64,0,0,1-.55,1.47c-.37.31-.74.43-1.08,0a.8.8,0,0,1,.07-1.13h0c.44-.44,1-.28,1.55-.32Z"/><path class="cls-85" d="M201.1,188.78a.92.92,0,0,1,.61-1c.48-.16,1.12.52,1.09,1s-.44.68-.89.71S201.1,189.36,201.1,188.78Z"/><path class="cls-83" d="M184.68,214.91a2.15,2.15,0,0,1-.37-1.49c.17-.08.33-.17.5-.24a.8.8,0,0,1,1.11.28l0,0c.31.5-.12.78-.42,1.09A1.29,1.29,0,0,1,184.68,214.91Z"/><path class="cls-80" d="M210.76,182.46h.36a.27.27,0,0,1,.37,0l0,0,.73.39a2.33,2.33,0,0,1-.06.35,1,1,0,0,1-1.22.71l-.19-.07C210.06,183.49,210.61,182.93,210.76,182.46Z"/><path class="cls-85" d="M221.19,174.27a1.83,1.83,0,0,1,.67-.26.62.62,0,0,1,.7.55v.1a.68.68,0,0,1-.55.64.57.57,0,0,1-.74-.3.65.65,0,0,1,0-.19,2.44,2.44,0,0,1,0-.54Z"/><path class="cls-86" d="M214.41,217.35c0,.83-.24,1.3-1,1.4a.56.56,0,0,1-.34-.36C213.14,217.57,213.74,217.51,214.41,217.35Z"/><path class="cls-83" d="M205,187.11c.42,0,.48.28.48.52,0,.39-.08.74-.58.73a.44.44,0,0,1-.43-.45v0A.72.72,0,0,1,205,187.11Z"/><path class="cls-87" d="M206.27,214.91c-.44.28-.32.75-.37,1.15l-.27-.07c0-.84-.5-1.74.25-2.51h0C206.14,213.89,206.74,214.26,206.27,214.91Z"/><path class="cls-88" d="M224.53,188c-.24.55-.49,1.09-.74,1.63a1,1,0,0,1-.32-1.14Z"/><path class="cls-78" d="M208.54,221.2c-.19-.52-.83-.81-.77-1.46C208.25,220.11,209.19,220.23,208.54,221.2Z"/><path class="cls-89" d="M213.73,166.78c.26-.4.71-.49,1.08-.71a.64.64,0,0,1-.51.73h-.08Z"/><path class="cls-52" d="M177.6,187.28l-.49-.28A.53.53,0,0,1,177.6,187.28Z"/><path class="cls-77" d="M208.15,192.54a7.45,7.45,0,0,1,4.45-3.76c.53,2.09,2,.65,3,.78.38.25.72.7,1.25.19-.4-.45-1,.16-1.33-.25a1.71,1.71,0,0,1-.29-1.78h2.22a3.24,3.24,0,0,1,1.76.5c1.22.67,1.59,1.58.89,2.75a20.47,20.47,0,0,1-4.74,5.62c-1.63,1.3-3.32,2.53-5,3.8a3,3,0,0,1-1.88.74,6.63,6.63,0,0,1-2.84,1.26c-1,.26-1.53-.11-1.61-1.14a5.77,5.77,0,0,1,.31-2.37,15.06,15.06,0,0,1,2.31-4.81c1.62,2,1.79,2,4,.71a1.42,1.42,0,0,0,.86-1.8,1.29,1.29,0,0,0-.17-.33c-.12-.81-.44-1.24-1.27-.63a5.78,5.78,0,0,1-1,.77A.92.92,0,0,1,208.15,192.54Z"/><path class="cls-90" d="M211.5,192.54c1,.76,1,1.81,0,2.37-.8.43-1.64.78-2.44,1.22a1.37,1.37,0,0,1-2-.87,11.18,11.18,0,0,1-.35-1.22h0c.13-.12.23-.27.36-.39a2.46,2.46,0,0,1,1.12-1.11h1.12A16,16,0,0,1,211.5,192.54Z"/><path class="cls-91" d="M215.62,189.58c-.4.25-.81.52-1.22.76a1.25,1.25,0,0,1-1.51,0,1.1,1.1,0,0,1-.34-1.52l0-.07a2.58,2.58,0,0,1,2.63-1.06,3,3,0,0,1,.39,1.85Z"/><path class="cls-92" d="M216.51,204.59a1.22,1.22,0,0,1-1.17,1c-.53,0-1-.13-1.13-.71-.16-.76.49-.92,1-1A1.25,1.25,0,0,1,216.51,204.59Z"/><path class="cls-92" d="M208.5,201.1c.4-.84,1.17-.73,1.88-.74.34.64.63,1.26-.33,1.66S208.64,202,208.5,201.1Z"/><path class="cls-92" d="M220.49,195.5c-.41,0-.77-.14-.71-.61a1.26,1.26,0,0,1,1.21-1.15c.35,0,.52.24.55.57a1,1,0,0,1-.79,1.17A1.14,1.14,0,0,1,220.49,195.5Z"/><path class="cls-93" d="M222.35,201.56c.33,0,.56.07.61.35.09.49-.22.65-.64.67-.25,0-.53,0-.57-.32C221.68,201.78,222,201.64,222.35,201.56Z"/><path class="cls-93" d="M218.73,199.11a.66.66,0,0,1-.71.46.52.52,0,0,1-.56-.46.51.51,0,0,1,.46-.56.37.37,0,0,1,.18,0A.61.61,0,0,1,218.73,199.11Z"/><path class="cls-77" d="M207,193.65l-.36.39Z"/><path class="cls-77" d="M197,214.19h2.58a3.39,3.39,0,0,1,3.68,3.66c-.07,1.41-.25,3-1.78,3.8a2,2,0,0,0-1.86.74c.52.42.66.82,0,1.29a12.92,12.92,0,0,1-4.54,2.45.62.62,0,0,1-.16-.36.55.55,0,0,0-.28-.47,1.11,1.11,0,0,0-1,.83c0,.27.83.44.16.74a17.28,17.28,0,0,1-4.41,1.1,2.72,2.72,0,0,1-2.58-1.09c-.24-.29-.17-.55.13-.77a2.18,2.18,0,0,0,.69-1,.2.2,0,0,0-.22-.17,2,2,0,0,1-.49.07c-.3-.22-.26-.47-.15-.79a11.94,11.94,0,0,1,2.4-4.41c.43.2.7,1,1.32.43s.08-1.07-.21-1.56a8.72,8.72,0,0,1,3-2.6c.43.85.86,1.71,2.07,1.19a2.4,2.4,0,0,0,1.69-3Z"/><path class="cls-94" d="M197,214.19c1,1.13,1,1.33.14,2.27a4.08,4.08,0,0,1-1.92,1.34,1.9,1.9,0,0,1-1.74-.27c-.6-.46-.2-1-.2-1.5A3.47,3.47,0,0,1,197,214.19Z"/><path class="cls-95" d="M190.25,218.63c.69,0,1.24.14,1.08,1s-.56,1.44-1.38,1.46-.79-.73-.81-1.34A2.46,2.46,0,0,1,190.25,218.63Z"/><path class="cls-96" d="M191.71,230.89c-.56,0-1.33-.54-1.21-.92a1.22,1.22,0,0,1,1.25-.88c.48,0,1-.05,1.08.65S192.23,230.69,191.71,230.89Z"/><path class="cls-97" d="M201.41,228.27a1.39,1.39,0,0,1-1.49,1.1.56.56,0,0,1-.45-.64.07.07,0,0,1,0,0,1.26,1.26,0,0,1,1.46-1h0A.53.53,0,0,1,201.41,228.27Z"/><path class="cls-98" d="M195.12,225.78a2.23,2.23,0,0,1-.05.36h-1.46c-.22-1.21.25-1.56,1.51-1.14A.62.62,0,0,1,195.12,225.78Z"/><path class="cls-99" d="M205.51,224.43c-.37-.12-.35-.46-.31-.75.08-.55.38-.94,1-.85.4,0,.46.38.39.7S205.86,224.5,205.51,224.43Z"/><path class="cls-99" d="M199.58,222.36c.55-1.55.9-1.69,1.86-.74C201.06,222.48,200.3,222.37,199.58,222.36Z"/><path class="cls-100" d="M188,224.59c.29.94.15,1.12-1.13,1.49V225l.38-.37A.56.56,0,0,1,188,224.59Z"/><path class="cls-2" d="M208.93,222.83c-.06.34,0,.72-.3,1C208.58,223.44,208.41,223,208.93,222.83Z"/><path class="cls-77" d="M173.51,206.34a3.61,3.61,0,0,0-.58-1.87,3.35,3.35,0,0,1-.56-1.86c1.81-1.94,1.81-2.33,0-3.73v-.37a3.54,3.54,0,0,1,0-1.52c-.13-.32-.48-.63-.21-1,.48-.63,1-1.4,1.76-1.51,1.12-.15,2.34-.37,3.25.65-.18,1,.18,1.35,1.15,1.15,1.31.06,1.66,1.27,2.18,2.07,2,3.12,2.8,6.45.91,10a3.3,3.3,0,0,1-5.29.88c-.63-.59-1.28-1.15-1.93-1.72.13-.31.67-.46.52-.83C174.51,206,173.89,206.58,173.51,206.34Z"/><path class="cls-91" d="M172.41,198.88c1.41.14,1.75.41,1.85,1.46s-.39,1.75-1.85,2.27h0a2.67,2.67,0,0,0-.37-.38,4.25,4.25,0,0,1-.35-2.67C171.68,199.12,172,198.94,172.41,198.88Z"/><path class="cls-91" d="M173.51,206.34c.32-.15.39-.72.83-.61s1.21.29,1.23.91c0,.86-.76.78-1.36.83h-.34c-.23-.19-.15-.53-.36-.74A2.54,2.54,0,0,1,173.51,206.34Z"/><path class="cls-101" d="M178.34,196.28c-.34.62-.85,1-1.47.47s-.38-1.19.32-1.62a1.1,1.1,0,0,1,1.15,1Z"/><path class="cls-96" d="M172.41,197a1,1,0,0,1,.11,1.4l-.11.12c-.48,0-1,.05-1.1-.66S171.82,197,172.41,197Z"/><path class="cls-77" d="M173.51,206.7a.8.8,0,0,1,.36.74A.69.69,0,0,1,173.51,206.7Z"/><path class="cls-77" d="M172,202.23l.37.38Z"/><path class="cls-77" d="M195.83,172.42c-.43-.85.19-1.38.61-2a10.4,10.4,0,0,1,6.35-4.14,1.52,1.52,0,0,1,.89.12.81.81,0,0,1,1.12,0,3.3,3.3,0,0,1,3.24,2.33,4,4,0,0,1-.93,4.13,21.14,21.14,0,0,1-6.89,4.21c-.72.31-1-.31-1.41-.56a16.88,16.88,0,0,1-1.48,1.45c-2.44-.06-3.27-1.14-2.59-3.35A5.26,5.26,0,0,1,195.83,172.42Z"/><path class="cls-97" d="M195.83,172.42a2.29,2.29,0,0,1-1.09,2.23c-.44-.05-1-.12-.89-.68s.13-1.3.88-1.49A5,5,0,0,1,195.83,172.42Z"/><path class="cls-92" d="M200.93,181.78c.51,0,.84.14.81.63a.81.81,0,0,1-.81.79h0c-.47,0-.86-.23-.81-.75A.75.75,0,0,1,200.93,181.78Z"/><path class="cls-97" d="M205,175.78c.25.05.5.13.51.43,0,.65-.49.78-1,.87-.32,0-.4-.25-.38-.49A.86.86,0,0,1,205,175.78Z"/><path class="cls-101" d="M197.33,178a1.46,1.46,0,0,1,1.47-1.46h0C198.92,177.65,198.41,178.07,197.33,178Z"/><path class="cls-102" d="M204.8,166.44h-1.12a2.32,2.32,0,0,1,.22-.69.72.72,0,0,1,1-.28C205.3,165.72,204.87,166.11,204.8,166.44Z"/><path class="cls-66" d="M128.91,171.88c-2.4-1.09-3.15-3.21-1.81-5a4.12,4.12,0,0,1,1.93-1.41,14.79,14.79,0,0,1,9.07-.88c.86.22,1.9.44,2.27,1.14.66,1.23,1.31.69,2.08.34a8.59,8.59,0,0,1,6.64-.7c3,1,4.62,3,4.54,5.65a7.54,7.54,0,0,1-3.2,5.84,27.59,27.59,0,0,1-11.91,4.9,5.77,5.77,0,0,0-.9.19,5.61,5.61,0,0,1-5.73-1.75,1.66,1.66,0,0,0-1.67-.73c-2.36.21-3.74-1.64-3.18-4A15.91,15.91,0,0,1,128.91,171.88Z"/><path class="cls-66" d="M151.58,182.47c-2.08,0-2.77-1.14-2-2.59a4.74,4.74,0,0,1,3.26-2.22,1.53,1.53,0,0,1,1.64.61,1.46,1.46,0,0,1,0,1.73A4.07,4.07,0,0,1,151.58,182.47Z"/><path class="cls-62" d="M155.6,163.46c.3,1,.38,1.95-.7,2.58a1.56,1.56,0,0,1-1.74.11,1.16,1.16,0,0,1-.53-1.27,1.47,1.47,0,0,1,1.3-1.38,9.2,9.2,0,0,1,1.66,0Z"/><path class="cls-103" d="M126.89,180.44a1.6,1.6,0,0,1-1.53,1.66,1.92,1.92,0,0,1-.24,0,1.12,1.12,0,0,1-1.21-1,.82.82,0,0,1,0-.27,1.75,1.75,0,0,1,1.8-1.68C126.5,179.13,126.9,179.58,126.89,180.44Z"/><path class="cls-24" d="M91,77.66a14.52,14.52,0,0,1,2.26,7.12c.2,2.13.34,4.34-.66,6.39a.56.56,0,0,1-.49.4l-2-6.93A21.54,21.54,0,0,0,88.87,92c0,.51.31,1.32-.36,1.47s-1-.62-1.25-1.17a11.17,11.17,0,0,1-.85-6.83c.12-.84,1-1.67.18-2.58A15,15,0,0,1,91,77.66Z"/><path class="cls-104" d="M90.75,98.57c.16,0,.45.09.46.14,0,.34-.27.23-.47.24Z"/><path class="cls-24" d="M91.41,77.27a.47.47,0,0,1-.4.39A.52.52,0,0,1,91.41,77.27Z"/><path class="cls-24" d="M85.15,107.16c1.79-.18,3.4-1.07,5.19-1.32a15.48,15.48,0,0,1,3.6-.09,9.11,9.11,0,0,1-3.38,4.43c-4.74,3.41-12,1.74-15.3-1.7a46.61,46.61,0,0,1,12.79-5.65c-.59,1.85-1.86,3-2.89,4.33Z"/><path class="cls-105" d="M99.78,97.35c1.24-.93,2.69-.52,3.89-1.33-.49-.87-1.73-.82-2.32-1.78a18.76,18.76,0,0,1,7.74.64c.71.2.84.75.28,1.21-1.49,1.22-3.06,2.27-5.14,2.14C102.78,98.15,101.28,98.41,99.78,97.35Z"/><path class="cls-20" d="M205.54,117.23c-.66.66-1.49.26-2.24.37C204,116.94,204.79,117.33,205.54,117.23Z"/><path class="cls-20" d="M207.41,117.23c-.24.38-.49.38-.74,0Z"/><path class="cls-20" d="M136.59,93a.72.72,0,0,1,.75-.36A.8.8,0,0,1,136.59,93Z"/><path class="cls-20" d="M155.6,120.21c.52-.62,1.23-.29,1.87-.37C156.94,120.45,156.23,120.13,155.6,120.21Z"/><path class="cls-20" d="M204.41,121.7h-1.12C203.68,121.23,204.05,121.22,204.41,121.7Z"/><path class="cls-20" d="M175.35,122.07c.53-.61,1.24-.28,1.87-.36C176.69,122.32,176,122,175.35,122.07Z"/><path class="cls-94" d="M182,184.33c1.62.14,1.61.14,1.9,1.53a3.92,3.92,0,0,0,.7,1.85c.09,0,.13.11.12.19s0,.12-.06.12c.15,1.57-.16,2.88-1.9,3.4h0a1.44,1.44,0,0,0-.39-.35c-.63-.3-.79-.94-1.06-1.49.27-.72-.17-1.28-.42-1.88C180.28,186.24,180.87,185.18,182,184.33Z"/><path class="cls-94" d="M186.16,194v-.72c-.11-.49-.46-1,0-1.49-.21-.52-.5-1.08.24-1.39a1.54,1.54,0,0,1,1.72.22,2.62,2.62,0,0,1-.17,3.7,2.92,2.92,0,0,1-.66.44A1.16,1.16,0,0,1,186.16,194Z"/><path class="cls-93" d="M192.85,184c-1-.23-1.06-1-1.08-1.87,1.28-.81,1.39-.81,1.86,0S194.06,183.38,192.85,184Z"/><path class="cls-99" d="M197.67,190.86a.85.85,0,0,1-.8.88h-.09a.83.83,0,0,1-.87-.76c-.08-.46.48-1.22.88-1.21S197.64,190.41,197.67,190.86Z"/><path class="cls-106" d="M180.93,187.7c1.44.85,1.49,1.06.42,1.88C179.92,188.94,179.83,188.5,180.93,187.7Z"/><path class="cls-92" d="M194,194.78a1.74,1.74,0,0,1,1,.21.83.83,0,0,1,.31,1.11.77.77,0,0,1-.89.46c-.45-.11-.43-.52-.45-.88s0-.6,0-.9Z"/><path class="cls-96" d="M187.26,181c-.32,1.17-.49,1.26-1.48.75C186,180.47,186,180.45,187.26,181Z"/><path class="cls-77" d="M182.41,191.07l.39.35Z"/><path class="cls-107" d="M178.7,182.07c.52-.86,0-1.72,0-2.58a2.17,2.17,0,0,1,1.15-1.1,9.09,9.09,0,0,0,.87,3.13A3.15,3.15,0,0,1,178.7,182.07Z"/><path class="cls-108" d="M176.33,175c-.57,0-1-.16-1-.82s.75-1.44,1.29-1.36.76.62.85,1.1C177.62,174.57,177.13,175,176.33,175Z"/><path class="cls-109" d="M182.12,169.54a.75.75,0,0,1,.63.81.83.83,0,0,1-.76.89,1,1,0,0,1-.24,0c-.41,0-.72-.26-.59-.71S181.52,169.57,182.12,169.54Z"/><path class="cls-83" d="M176.79,166.22c.42.11.42.43.4.72a.88.88,0,0,1-.84.93h0a.48.48,0,0,1-.53-.41.32.32,0,0,1,0-.17A1.24,1.24,0,0,1,176.79,166.22Z"/><path class="cls-77" d="M190.6,201.09c1.67-.84,1.67-.84,2.62,0a5.47,5.47,0,0,1,2.28,0c.49-.24,1-.67,1.48,0a1.61,1.61,0,0,1-.14.52c-.14.32-.49.67-.17,1s.76,0,1.09-.22a2.85,2.85,0,0,1,.72-.53c1.49,1.32,1.77,2.13,1.13,3.29a.87.87,0,0,1-.76.44c-.67.11-1.9-.16-.78,1.15a9.66,9.66,0,0,1-8,2.92,1.49,1.49,0,0,1-1.47-1.22c-.18-1.69-.51-3.41.2-5.07a1.44,1.44,0,0,1,.54.07c.79.23,1.58.38,2.08-.51S191,201.64,190.6,201.09Z"/><path class="cls-94" d="M190.6,201.09c.9,0,1.6.25,1.49,1.35a1.74,1.74,0,0,1-1.8,1.66h0a1.4,1.4,0,0,1-1.52-.75A2.18,2.18,0,0,1,190.6,201.09Z"/><path class="cls-94" d="M198.48,201.84a3.13,3.13,0,0,1-.33.83c-.57.7-1.72,1-2.07.45-.55-.8,0-1.35.59-1.84.09-.07.21-.12.31-.19A1.38,1.38,0,0,1,198.48,201.84Z"/><path class="cls-92" d="M195.5,201.14a1.83,1.83,0,0,1-2.28,0c.08-.92.65-1.18,1.48-1.14S195.47,200.59,195.5,201.14Z"/><path class="cls-101" d="M198.07,206.72a2.82,2.82,0,0,1-.87-.13c-.64-.35-.67-1,0-1.22s1.23-.73,1.69.2A1.23,1.23,0,0,1,198.07,206.72Z"/><path class="cls-110" d="M202.78,208.78c-.23.43-.5.87-1.08.8a.54.54,0,0,1-.5-.58.19.19,0,0,1,0-.08c.13-.61.61-.69,1.14-.65C202.64,208.26,202.77,208.43,202.78,208.78Z"/><path class="cls-98" d="M191.71,189.34a.86.86,0,0,1-.77.87c-.6.07-.69-.37-.69-.83s0-.9.65-.87A.84.84,0,0,1,191.71,189.34Z"/><path class="cls-111" d="M186.14,191.78c0,.5.63,1,0,1.49-.51-.07-1-.19-1-.84S185.67,191.78,186.14,191.78Z"/><path class="cls-112" d="M184.7,188a1.55,1.55,0,0,0-.06-.31,2.2,2.2,0,0,1,.06-.37c.12-.38.33-.74.77-.44s.26.67-.08.92A2.38,2.38,0,0,1,184.7,188Z"/><path class="cls-113" d="M217,176.09a1.34,1.34,0,0,1-1.26,1.12.74.74,0,0,1-.73-.68,1.3,1.3,0,0,1,1.25-1.1A.78.78,0,0,1,217,176.09Z"/><path class="cls-51" d="M211.51,182.47h-.39C211.26,182.26,211.41,182.26,211.51,182.47Z"/><path class="cls-108" d="M181.29,215.26a1,1,0,0,1-.85,1.13,1.41,1.41,0,0,1-.29,0c-.44,0-.88-.12-.83-.72s.83-1.44,1.29-1.37S181.26,214.78,181.29,215.26Z"/><path class="cls-114" d="M176.1,224.7c0,.67-.14,1.25-.92,1.32-.34,0-.52-.23-.55-.57-.07-.65.57-1.51,1.07-1.43S176.06,224.43,176.1,224.7Z"/><path class="cls-115" d="M212.87,208.61a.73.73,0,0,1,.73.64c.07.49-.7,1.2-1.21,1.13a.6.6,0,0,1-.5-.66,1,1,0,0,1,.88-1.11Z"/><path class="cls-116" d="M210,214.39l-1.5.45a2.84,2.84,0,0,1,.08-.72.8.8,0,0,1,.94-.64l.06,0C210.05,213.61,210,214,210,214.39Z"/><path class="cls-51" d="M206.27,214.91l-.39-1.48c.84.4,1.07,1.3,1.58,2C206.77,216,206.58,215.3,206.27,214.91Z"/><path class="cls-117" d="M211.5,192.54c-.74.49-1.49.79-2.23,0a1.36,1.36,0,0,1,.95-1.23c.45-.21.94-.45,1.38-.09S211.65,192.1,211.5,192.54Z"/><path class="cls-98" d="M206.93,197.34a2.34,2.34,0,0,1-1.19,1.73.38.38,0,0,1-.46-.16,1.67,1.67,0,0,1,.85-2.13.63.63,0,0,1,.78.47A.29.29,0,0,1,206.93,197.34Z"/><path class="cls-118" d="M215.62,189.57c.45-.18.71-.68,1.24-.72a.78.78,0,0,1,.77.38.66.66,0,0,1-.13.83,1.33,1.33,0,0,1-1.42.56c-.58-.15-.43-.64-.46-1Z"/><path class="cls-106" d="M212.84,196.31a.37.37,0,0,1,.39.46.55.55,0,0,1-.62.47h0a.32.32,0,0,1-.28-.36h0a.5.5,0,0,1,.46-.56Z"/><path class="cls-98" d="M193.62,219c.41,0,.71.17.68.64a1.61,1.61,0,0,1-1.48,1.1.54.54,0,0,1-.48-.47A1.34,1.34,0,0,1,193.62,219Z"/><path class="cls-98" d="M199.41,215.11a.81.81,0,0,1,.73.68c.07.48-.66,1-1.3,1a.61.61,0,0,1-.65-.51C198.07,215.78,198.78,215.11,199.41,215.11Z"/><path class="cls-52" d="M195.12,225.78V225C195.49,225.22,195.48,225.48,195.12,225.78Z"/><path class="cls-52" d="M188,224.59h-.77C187.52,224.23,187.78,224.22,188,224.59Z"/><path class="cls-99" d="M179.19,204.59c.44.21.89.48.87,1a.68.68,0,0,1-.68.69l-.2,0a.79.79,0,0,1-.63-.91v0C178.59,205,178.7,204.61,179.19,204.59Z"/><path class="cls-119" d="M174.86,203.65a.61.61,0,0,1-.5.67c-.63.08-.82-.37-.85-.89,0-.3,0-.69.38-.68A1.14,1.14,0,0,1,174.86,203.65Z"/><path class="cls-120" d="M202,167.2c.62,0,1.11.2,1.22.88a1,1,0,0,1-.63,1.26l-.14,0a4.93,4.93,0,0,0-2.44,1.61,2.24,2.24,0,0,1-.74.55,1.24,1.24,0,0,1-1.39-.14,1.19,1.19,0,0,1-.13-1.23C198.15,169,200.75,167.16,202,167.2Z"/><path class="cls-121" d="M205.51,170.06a1.18,1.18,0,0,1-1-1.11,1.75,1.75,0,0,1,1.57-1.34.93.93,0,0,1,.89,1v0A1.55,1.55,0,0,1,205.51,170.06Z"/><path class="cls-122" d="M202.15,170.67a.76.76,0,0,1-.64.86h-.08c-.26,0-.54-.16-.5-.42a.9.9,0,0,1,.85-.83C202,170.27,202.09,170.46,202.15,170.67Z"/><path class="cls-123" d="M144.8,174.22a3.09,3.09,0,0,1-1,2.71,8.58,8.58,0,0,1-3.2,1.4,1.92,1.92,0,0,1-1.41-.37c-.76-.45-.91-1-.27-1.65,1-1,2.13-1.84,3.14-2.82a2,2,0,0,1,2.28-.13A.92.92,0,0,1,144.8,174.22Z"/><path class="cls-124" d="M133.41,169.78c-.43,0-1-.34-1.74-.38a1,1,0,0,1-1.16-.81,1,1,0,0,1,.39-1,4.61,4.61,0,0,1,3.1-1.5,2.05,2.05,0,0,1,1.82,1.81A2.23,2.23,0,0,1,133.41,169.78Z"/><path class="cls-125" d="M132.86,175.37a1.55,1.55,0,0,1-1.45-1.39,2.22,2.22,0,0,1,2-1.89,1.48,1.48,0,0,1,1.36,1.48A2.22,2.22,0,0,1,132.86,175.37Z"/><path class="cls-126" d="M147.05,169.37a1,1,0,0,1-1.12-.88,1,1,0,0,1,.84-1.15h.08c.58-.1,1.18.13,1.22.8S147.5,169.14,147.05,169.37Z"/><path class="cls-3" d="M85.15,107.16s-.06.15-.08.14-.09-.08.09-.14Z"/><path class="cls-118" d="M191.55,206.16c.42.09.88.2.88.74s-.4.86-1,.91-.94,0-1-.57S190.94,206.28,191.55,206.16Z"/><rect class="cls-127" width="250" height="250"/></svg>