<?xml version="1.0" encoding="utf-8"?>
<!-- Generator: Adobe Illustrator 25.0.0, SVG Export Plug-In . SVG Version: 6.00 Build 0)  -->
<svg version="1.1" id="Layer_1" xmlns="http://www.w3.org/2000/svg" xmlns:xlink="http://www.w3.org/1999/xlink" x="0px" y="0px"
	 viewBox="0 0 250 250" style="enable-background:new 0 0 250 250;" xml:space="preserve">
<style type="text/css">
	.st0{fill:none;}
	.st1{fill:#E62323;}
	.st2{fill:#CF0C0C;}
	.st3{fill:#EFEFEF;}
	.st4{fill:#E1E1E1;}
	.st5{fill:#C8C8C8;}
	.st6{fill:#F52B2B;}
	.st7{fill:#FF504C;}
	.st8{fill:#FF4040;}
	.st9{fill:#18B44B;}
	.st10{fill:#278C1F;}
	.st11{fill:#41A029;}
	.st12{fill:#404040;}
</style>
<rect class="st0" width="250" height="250"/>
<g>
	<path class="st1" d="M163.6,153.1c-12.7-24.7-18.4-57.9-18.4-89.1h-40.4c0,31.1-5.7,64.3-18.4,89.1c-1.4,2.6-2.1,5.5-2.1,8.5v78.9
		c0,5.1,4.2,9.3,9.3,9.3H125h31.3c5.1,0,9.3-4.2,9.3-9.3v-78.9C165.6,158.7,164.9,155.8,163.6,153.1z"/>
	<path class="st2" d="M163.6,153.1c-12.7-24.7-18.4-57.9-18.4-89.1h-10.7c0,31.1,5.7,64.3,18.4,89.1c1.4,2.6,2.1,5.5,2.1,8.5v78.9
		c0,5.1-4.2,9.3-9.3,9.3h10.7c5.1,0,9.3-4.2,9.3-9.3v-78.9C165.6,158.7,164.9,155.8,163.6,153.1z"/>
	<path class="st3" d="M145.2,64.1h-40.4V53.5c0-4.4,3.6-8,8-8h24.4c4.4,0,8,3.6,8,8V64.1z"/>
	<rect x="104.8" y="62.2" class="st4" width="40.4" height="1.9"/>
	<path class="st5" d="M104.8,52.7v1.4h12.1c0.7,1.2,3.6,2.3,8.1,2.3s7.4-1.2,8.1-2.3h12.1v-1.4H104.8z"/>
	<path class="st6" d="M125,153.5c12.6,0,24.5,1.1,35,2.9c-0.2-0.4-0.3-0.8-0.5-1.2c-11.5-22.3-18.3-53.6-18.8-91.2h-31.2
		c-0.6,37.5-7.4,68.9-18.8,91.2c-0.2,0.4-0.4,0.8-0.5,1.2C100.5,154.6,112.4,153.5,125,153.5z"/>
	<path class="st1" d="M154,155.5c2,0.3,4,0.6,6,1c-0.2-0.4-0.3-0.8-0.5-1.2c-11.5-22.3-18.3-53.6-18.8-91.2H135
		c0.6,37.5,7.4,68.9,18.8,91.2C153.9,155.3,153.9,155.4,154,155.5z"/>
	<path class="st7" d="M116.4,64.1h-7c-0.6,37.5-7.4,68.9-18.8,91.2c-0.2,0.4-0.4,0.8-0.5,1.2c3.1-0.6,6.4-1,9.7-1.5
		C111.1,132.7,115.8,101.5,116.4,64.1z"/>
	<path class="st8" d="M98.5,240.6v-78.9c0-2.3,0.4-4.6,1.3-6.8c-3.4,0.4-6.6,0.9-9.8,1.4c-0.5,1.7-0.8,3.5-0.8,5.3v78.9
		c0,5.1,4.2,9.3,9.3,9.3h9.3C102.7,249.9,98.5,245.7,98.5,240.6z"/>
	<g>
		<path class="st3" d="M103.5,89.6h43c-0.6-6.2-1-12.4-1.2-18.6h-40.6C104.5,77.2,104.1,83.4,103.5,89.6z"/>
		<g>
			<path class="st9" d="M145.4,73.4h-40.7c0,0.8-0.1,1.5-0.1,2.3h40.9C145.4,74.9,145.4,74.2,145.4,73.4z"/>
			<path class="st9" d="M146.1,85h-42.1c-0.1,0.8-0.1,1.5-0.2,2.3h42.5C146.2,86.5,146.1,85.8,146.1,85z"/>
		</g>
	</g>
	<g>
		<path class="st3" d="M125,162.9c-17.1,0-30.9,6.9-30.9,15.4v55.2c0,3.7,3,6.6,6.6,6.6h48.5c3.7,0,6.6-3,6.6-6.6v-55.2
			C155.9,169.8,142.1,162.9,125,162.9z"/>
		<path class="st9" d="M149.3,236.6h-48.5c-1.7,0-3.1-1.4-3.1-3.1v-55.2c0-2.7,2.6-5.5,7.1-7.8c5.3-2.6,12.7-4.2,20.3-4.2
			c7.6,0,15,1.5,20.3,4.2c4.5,2.3,7.1,5.1,7.1,7.8v55.2C152.4,235.2,151,236.6,149.3,236.6z M125,168.7c-7.3,0-14.3,1.4-19.2,3.9
			c-3.5,1.8-5.8,4-5.8,5.7v55.2c0,0.4,0.4,0.8,0.8,0.8h48.5c0.4,0,0.8-0.4,0.8-0.8v-55.2c0-1.7-2.3-4-5.8-5.7
			C139.3,170.1,132.3,168.7,125,168.7z"/>
		<ellipse class="st4" cx="125" cy="228.5" rx="15.1" ry="2.3"/>
		<g>
			<g>
				<path class="st10" d="M127.5,197.9c-0.4,0.4-0.7,0.7-1,1.2c-0.3,0.4-0.5,0.9-0.6,1.4c-0.3,0.9-0.3,2-0.2,3l-1.7,0.1
					c0-0.6,0.1-1.2,0.2-1.8c0.1-0.6,0.3-1.2,0.5-1.7c0.2-0.5,0.6-1.1,0.9-1.5c0.4-0.5,0.8-0.9,1.3-1.2L127.5,197.9z"/>
				<path class="st10" d="M124.8,204.5c-0.8-0.2-1.7-0.3-2.5-0.5c-0.8-0.2-1.7-0.4-2.5-0.8c-0.4-0.2-0.8-0.4-1.2-0.7
					c-0.4-0.3-0.7-0.6-0.9-1c-0.3-0.4-0.4-0.8-0.5-1.2c-0.1-0.4-0.2-0.9-0.2-1.3c0-0.1,0.1-0.1,0.1-0.1c0.1,0,0.1,0,0.1,0.1l0,0
					c0.1,0.8,0.4,1.6,0.9,2.2c0.3,0.3,0.6,0.5,0.9,0.7c0.3,0.2,0.7,0.3,1.1,0.5c0.8,0.2,1.6,0.3,2.4,0.4c0.8,0.1,1.7,0.1,2.5,0.2
					l0,0c0.5,0,0.8,0.4,0.8,0.9c0,0.5-0.4,0.8-0.9,0.8C124.9,204.5,124.9,204.5,124.8,204.5z"/>
				<path class="st11" d="M124.8,204.5c-0.6-0.1-1.3-0.3-1.9-0.6c-0.3-0.1-0.6-0.3-0.9-0.5c-0.3-0.2-0.6-0.5-0.8-0.8
					c-0.2-0.3-0.4-0.7-0.4-1c-0.1-0.4,0-0.7,0-1c0.1-0.6,0.3-1.2,0.5-1.8c0-0.1,0.1-0.1,0.2-0.1c0.1,0,0.1,0.1,0.1,0.2l0,0
					c-0.1,0.6-0.2,1.2-0.2,1.8c0,0.3,0.1,0.6,0.1,0.8c0.1,0.2,0.2,0.4,0.4,0.6c0.3,0.3,0.8,0.5,1.4,0.6c0.5,0.1,1.1,0.2,1.7,0.2
					c0.5,0,0.8,0.4,0.8,0.9c0,0.5-0.4,0.8-0.9,0.8C125,204.5,124.9,204.5,124.8,204.5L124.8,204.5z"/>
				<path class="st10" d="M124.8,202.8c0.8,0,1.7-0.1,2.5-0.2c0.8-0.1,1.6-0.2,2.4-0.4c0.4-0.1,0.7-0.2,1.1-0.4
					c0.3-0.2,0.6-0.4,0.9-0.7c0.5-0.6,0.8-1.4,0.9-2.2l0,0c0-0.1,0.1-0.1,0.2-0.1c0.1,0,0.1,0.1,0.1,0.1c0,0.4-0.1,0.9-0.2,1.3
					c-0.1,0.4-0.3,0.9-0.5,1.2c-0.2,0.4-0.6,0.7-0.9,1c-0.4,0.3-0.8,0.5-1.2,0.7c-0.8,0.4-1.7,0.6-2.5,0.8c-0.8,0.2-1.7,0.3-2.5,0.5
					c-0.5,0.1-0.9-0.2-1-0.7c-0.1-0.5,0.2-0.9,0.7-1C124.7,202.8,124.7,202.8,124.8,202.8L124.8,202.8z"/>
				<path class="st11" d="M124.7,202.8c1.3-0.2,2.9-0.4,3.9-1.3c0.2-0.2,0.4-0.4,0.5-0.6c0.2-0.3,0.3-0.6,0.4-0.9
					c0.1-0.2,0.1-0.4,0.2-0.6c0-0.1,0.1-0.3,0.3-0.3c0.1,0,0.1,0.2,0.1,0.4c0,0.2,0,0.4-0.1,0.6c0,0.3-0.1,0.7-0.2,1
					c-0.1,0.3-0.2,0.5-0.4,0.7c-0.7,1.1-2,1.7-3.2,2.1c-0.4,0.2-0.8,0.3-1.2,0.4c-0.3,0.1-0.6,0-0.8-0.2
					C123.7,203.7,124,202.9,124.7,202.8z"/>
			</g>
			<g>
				<path class="st1" d="M132.8,203.6c-3.6-1.4-5.5-0.2-7.9-0.2c-2.4,0-4.3-1.3-7.9,0.2c-5,2-7,6.9-6,12.1
					c1.4,7.6,6.5,12.6,13.9,12.7c7.5-0.1,12.5-5.1,13.9-12.7C139.8,210.5,137.8,205.6,132.8,203.6z"/>
				<path class="st2" d="M136.9,206.6c0.8,1.6,0.9,3.6,0.5,5.5c-1.4,7.6-6.9,12.5-14.4,12.6c-5,0-9.3-1.8-11.4-6.1
					c2,6,6.7,9.8,13.2,9.9c7.5-0.1,12.5-5.1,13.9-12.7C139.5,212.3,138.8,209,136.9,206.6z"/>
				<path class="st8" d="M117.4,207.1c1-0.4,2-0.6,2.9-0.6c0.8,0,1.5,0.1,2.2,0.3c0.7,0.1,1.5,0.3,2.3,0.3c0.8,0,1.6-0.1,2.3-0.3
					c3.6-0.9,4.9-1.8,8.3-0.1c-0.8-0.9-1.9-1.6-3.1-2.1c-1-0.4-2-0.6-2.9-0.6c-0.8,0-1.5,0.1-2.2,0.3c-0.7,0.1-1.5,0.3-2.3,0.3
					c-0.8,0-1.6-0.1-2.3-0.3c-0.7-0.1-1.4-0.3-2.2-0.3c-1,0-1.9,0.2-2.9,0.6c-4.3,1.7-6.3,5.9-5.3,10.9c0.3,1.7,0.8,3.3,1.5,4.7
					C112.6,215.2,113.2,208.8,117.4,207.1z"/>
			</g>
		</g>
		<g>
			<path class="st12" d="M110.3,193.1c-0.9-0.7-1.4-1.1-2.2-1.7c0.4-0.7,0.7-1.2,1.2-1.9c0.1-0.2,0.2-0.4,0.1-0.6
				c0-0.2-0.1-0.3-0.3-0.4c-0.1-0.1-0.3-0.1-0.5-0.1c-0.1,0-0.2,0.1-0.3,0.1c-0.1,0.1-0.1,0.1-0.2,0.2c-0.6,0.9-0.9,1.5-1.4,2.2
				l-0.4-1.2c-0.1-0.2-0.2-0.3-0.4-0.4c-0.2-0.1-0.4-0.1-0.6,0c-0.2,0.1-0.3,0.2-0.4,0.3c-0.1,0.2-0.1,0.4-0.1,0.6l1.5,4.5
				c0.1,0.2,0.2,0.3,0.4,0.4c0.1,0,0.2,0.1,0.3,0.1c0.1,0,0.1,0,0.2,0c0.2-0.1,0.3-0.2,0.4-0.3c0.1-0.2,0.1-0.4,0.1-0.5l-0.5-1.5
				c0-0.1,0.1-0.1,0.1-0.2c0.8,0.6,1.3,0.9,2.1,1.6c0.2,0.2,0.4,0.2,0.6,0.1c0.2-0.1,0.3-0.2,0.4-0.3c0.1-0.2,0.1-0.3,0.1-0.5
				C110.5,193.3,110.4,193.2,110.3,193.1z M110.2,193.5L110.2,193.5L110.2,193.5L110.2,193.5z M110,194L110,194L110,194L110,194z"/>
			<path class="st12" d="M115.5,191.9c-0.1-0.1-0.3-0.1-0.5-0.1c-1,0.2-1.6,0.3-2.5,0.5l-0.2-1c0.6-0.1,1-0.2,1.7-0.3
				c0.2,0,0.3-0.1,0.5-0.3c0.1-0.2,0.2-0.3,0.1-0.5c0-0.2-0.1-0.4-0.3-0.5c-0.2-0.1-0.3-0.1-0.5-0.1c-0.7,0.1-1.1,0.2-1.8,0.4
				l-0.2-1c1-0.2,1.6-0.3,2.7-0.5c0.2,0,0.4-0.1,0.5-0.3c0.1-0.1,0.2-0.3,0.1-0.5c0-0.2-0.1-0.4-0.3-0.5c-0.1-0.1-0.3-0.1-0.5-0.1
				c-1.4,0.2-2.1,0.4-3.5,0.7c-0.2,0-0.4,0.1-0.5,0.3c-0.1,0.2-0.2,0.4-0.1,0.6l1.1,4.6c0,0.2,0.2,0.3,0.3,0.4l0,0
				c0.1,0.1,0.2,0.1,0.4,0.1c0.1,0,0.1,0,0.2,0c1.3-0.3,1.9-0.4,3.1-0.6c0.2,0,0.4-0.2,0.5-0.3c0.1-0.1,0.2-0.3,0.1-0.5
				C115.8,192.2,115.7,192,115.5,191.9z M111.8,193.4L111.8,193.4L111.8,193.4L111.8,193.4z"/>
			<path class="st12" d="M120.5,186.6L120.5,186.6c-0.1-0.1-0.3-0.2-0.5-0.1c-1.7,0.1-2.5,0.2-4.1,0.5c-0.2,0-0.4,0.1-0.5,0.3
				c-0.1,0.1-0.2,0.3-0.1,0.5c0,0.2,0.1,0.4,0.3,0.5c0.1,0.1,0.3,0.1,0.5,0.1c0.5-0.1,0.8-0.1,1.3-0.2l0.5,4c0,0.2,0.1,0.4,0.3,0.5
				c0.1,0.1,0.3,0.1,0.4,0.1c0,0,0.1,0,0.1,0c0.2,0,0.4-0.1,0.5-0.3c0.1-0.1,0.2-0.3,0.2-0.5l-0.4-4c0.4,0,0.8-0.1,1.3-0.1
				c0.2,0,0.4-0.1,0.5-0.2c0.1-0.1,0.2-0.3,0.2-0.5C120.7,186.8,120.6,186.7,120.5,186.6z M118.5,192.4L118.5,192.4L118.5,192.4
				L118.5,192.4z"/>
			<path class="st12" d="M123,187.8c0.3-0.2,0.6-0.3,0.9-0.3c0.3,0,0.5,0,0.6,0.1c0.2,0.1,0.3,0.2,0.5,0.3c0.1,0.1,0.3,0.2,0.5,0.2
				c0.2,0,0.3-0.1,0.5-0.2c0.2-0.1,0.2-0.3,0.2-0.5c0-0.1,0-0.2-0.1-0.3c0-0.1-0.1-0.2-0.2-0.3c-0.3-0.2-0.6-0.4-1-0.5
				c-0.3-0.1-0.7-0.2-1.1-0.1c-0.6,0-1.2,0.2-1.7,0.5c-0.5,0.3-0.9,0.7-1.1,1.2c-0.3,0.5-0.4,1-0.3,1.6c0,0.6,0.2,1.1,0.5,1.6
				c0.3,0.5,0.7,0.8,1.2,1.1c0.5,0.2,1,0.4,1.5,0.4c0,0,0,0,0.1,0c0.7,0,1.4-0.2,1.9-0.7l0,0c0.1-0.1,0.2-0.3,0.2-0.5
				c0-0.2-0.1-0.4-0.2-0.5c-0.1-0.1-0.3-0.2-0.5-0.2c-0.1,0-0.3,0-0.4,0.1c-0.4,0.3-0.7,0.4-1.1,0.4c-0.3,0-0.6-0.1-0.9-0.2
				c-0.3-0.2-0.5-0.4-0.7-0.6c-0.2-0.3-0.3-0.6-0.3-0.9c0-0.3,0-0.6,0.2-0.9C122.6,188.1,122.8,187.9,123,187.8z"/>
			<path class="st12" d="M132.4,186.6c-0.2,0-0.4,0-0.5,0.1c-0.2,0.1-0.3,0.3-0.3,0.5l-0.2,1.6c-1.1-0.1-1.7-0.2-2.8-0.2l0.1-1.6
				c0-0.2-0.1-0.4-0.2-0.5c-0.1-0.1-0.3-0.2-0.5-0.2c-0.2,0-0.4,0-0.5,0.2c-0.2,0.1-0.2,0.3-0.3,0.5l-0.2,4.7c0,0.2,0.1,0.4,0.2,0.5
				l0,0c0.1,0.1,0.3,0.2,0.5,0.2c0.2,0,0.4-0.1,0.5-0.2c0.1-0.1,0.2-0.3,0.2-0.5l0.1-1.7c1,0.1,1.7,0.1,2.7,0.2l-0.2,1.7
				c0,0.2,0,0.4,0.2,0.5c0.1,0.1,0.3,0.2,0.5,0.3c0,0,0.1,0,0.1,0c0.2,0,0.3-0.1,0.4-0.1c0.1-0.1,0.2-0.3,0.3-0.5l0.6-4.7
				c0-0.2,0-0.4-0.2-0.5C132.8,186.7,132.6,186.6,132.4,186.6z M127.5,191.9L127.5,191.9L127.5,191.9L127.5,191.9z"/>
			<path class="st12" d="M139.8,188c-0.1-0.2-0.3-0.3-0.5-0.3c-0.2,0-0.4,0-0.5,0.1c-0.2,0.1-0.3,0.3-0.3,0.5l-0.7,3.2
				c0,0.2-0.1,0.3-0.2,0.4c-0.1,0.1-0.3,0.2-0.5,0.2c-0.2,0-0.4,0.1-0.7,0c-0.3,0-0.5-0.1-0.7-0.3c-0.2-0.1-0.3-0.2-0.4-0.4
				c-0.1-0.2-0.1-0.3-0.1-0.5l0.5-3.2c0-0.2,0-0.4-0.1-0.6c-0.1-0.1-0.3-0.2-0.5-0.3c-0.2,0-0.4,0-0.5,0.1c-0.2,0.1-0.3,0.3-0.3,0.5
				l-0.5,3.2c-0.1,0.4,0,0.9,0.2,1.2c0.2,0.4,0.5,0.7,0.8,0.9c0.4,0.2,0.8,0.4,1.3,0.5c0.2,0,0.4,0.1,0.6,0.1c0.2,0,0.5,0,0.7-0.1
				c0.4-0.1,0.8-0.3,1.1-0.6c0.3-0.3,0.5-0.7,0.6-1.1l0.7-3.2C139.9,188.4,139.9,188.2,139.8,188z"/>
			<path class="st12" d="M144.5,189.4c-0.3-0.3-0.6-0.5-1.1-0.6c-0.6-0.2-0.9-0.3-1.5-0.4c-0.2-0.1-0.4,0-0.5,0
				c-0.2,0.1-0.3,0.2-0.4,0.4l-1.2,4.6c0,0.2,0,0.4,0.1,0.5l0,0c0.1,0.2,0.2,0.3,0.4,0.3c0.1,0,0.1,0,0.2,0c0.1,0,0.2,0,0.3-0.1
				c0.2-0.1,0.3-0.2,0.3-0.4l0.3-1.1c0.2,0.1,0.4,0.1,0.7,0.2c0.4,0.1,0.8,0.1,1.2,0.1c0.4-0.1,0.7-0.2,1-0.5
				c0.3-0.2,0.5-0.6,0.6-0.9c0.1-0.4,0.1-0.8,0.1-1.2C145,190,144.8,189.7,144.5,189.4z M142.7,191.6L142.7,191.6
				c-0.3-0.1-0.5-0.1-0.7-0.2l0.4-1.5c0.2,0.1,0.4,0.1,0.8,0.2c0.2,0.1,0.4,0.2,0.5,0.4c0.1,0.2,0.1,0.4,0.1,0.6
				c-0.1,0.2-0.2,0.3-0.4,0.4C143.1,191.6,142.9,191.6,142.7,191.6z M140.3,193.8L140.3,193.8L140.3,193.8L140.3,193.8z"/>
		</g>
		<g>
			<path class="st12" d="M107.7,184.3c0.1,0.2,0.2,0.3,0.4,0.4c0.1,0,0.2,0.1,0.3,0.1c0.1,0,0.1,0,0.2,0c0.2-0.1,0.4-0.2,0.5-0.3
				c0.1-0.2,0.2-0.4,0.1-0.6l-1-3.9c0.5-0.1,0.9-0.2,1.5-0.4c0.2,0,0.4-0.1,0.5-0.3c0.1-0.2,0.2-0.4,0.1-0.6c0-0.2-0.2-0.4-0.4-0.4
				c-0.2-0.1-0.3-0.1-0.5-0.1c-1.8,0.4-2.7,0.7-4.6,1.2c-0.2,0.1-0.3,0.2-0.5,0.3c-0.1,0.2-0.1,0.4-0.1,0.6c0.1,0.2,0.2,0.3,0.4,0.4
				c0.2,0.1,0.4,0.1,0.5,0c0.6-0.2,0.9-0.3,1.5-0.4L107.7,184.3z"/>
			<path class="st12" d="M111.5,182.7c0.4,0.4,0.9,0.7,1.5,0.8c0.3,0.1,0.7,0.1,1,0.1c0.3,0,0.5,0,0.8-0.1c0.7-0.1,1.2-0.3,1.7-0.7
				c0.5-0.3,0.9-0.8,1.1-1.3c0.3-0.5,0.3-1.1,0.3-1.7c-0.1-0.6-0.3-1.1-0.7-1.6c-0.4-0.4-0.9-0.7-1.5-0.9c-0.6-0.2-1.3-0.2-2-0.1
				c-0.7,0.1-1.3,0.4-1.9,0.7c-0.5,0.4-0.9,0.8-1.1,1.4c-0.2,0.5-0.3,1.1-0.1,1.7C110.8,181.7,111.1,182.2,111.5,182.7z
				 M114.5,178.7c0.2,0,0.5,0,0.7,0.1c0.3,0.1,0.6,0.3,0.8,0.5c0.2,0.2,0.3,0.5,0.4,0.9c0,0.3,0,0.6-0.1,0.9
				c-0.1,0.3-0.3,0.5-0.6,0.7l0,0c-0.3,0.2-0.6,0.3-1,0.4c-0.4,0.1-0.8,0.1-1.1-0.1c-0.3-0.1-0.6-0.3-0.9-0.5
				c-0.2-0.2-0.4-0.5-0.4-0.8c-0.1-0.3,0-0.6,0.1-0.9c0.1-0.3,0.3-0.6,0.6-0.8c0.3-0.2,0.7-0.4,1.1-0.4
				C114.2,178.7,114.4,178.7,114.5,178.7z"/>
			<path class="st12" d="M119.6,182.7c0.1,0.1,0.3,0.1,0.5,0.1c0,0,0.1,0,0.1,0c0.2,0,0.4-0.1,0.5-0.2c0.1-0.1,0.2-0.3,0.2-0.5
				l-0.2-2.1c0.5,0.7,0.9,1.3,1.5,2.2c0.2,0.2,0.4,0.4,0.7,0.4c0.3,0,0.5-0.1,0.6-0.3l0,0c0.5-1,0.8-1.6,1.3-2.4l0,2.2
				c0,0.2,0.1,0.4,0.2,0.5c0.1,0.1,0.3,0.2,0.5,0.2c0,0,0,0,0,0c0.2,0,0.4-0.1,0.5-0.2c0.2-0.1,0.2-0.3,0.2-0.5l0-4.7
				c0-0.2-0.1-0.4-0.3-0.5c-0.1-0.1-0.3-0.2-0.5-0.2c0,0,0,0,0,0c-0.3,0-0.5,0.1-0.7,0.3l0,0c-0.9,1.5-1.3,2.3-2.1,3.7
				c-0.9-1.3-1.4-2.1-2.5-3.5c-0.2-0.2-0.4-0.3-0.7-0.3c-0.2,0-0.4,0.1-0.5,0.2c-0.2,0.1-0.2,0.3-0.2,0.6l0.4,4.7
				C119.3,182.4,119.4,182.6,119.6,182.7z"/>
			<path class="st12" d="M128.4,182.2c0.2-0.3,0.3-0.5,0.4-0.8c1,0,1.5,0.1,2.5,0.2c0.1,0.3,0.2,0.5,0.3,0.8
				c0.1,0.1,0.1,0.3,0.3,0.3c0.1,0.1,0.2,0.1,0.4,0.1c0,0,0.1,0,0.1,0c0.2,0,0.3,0,0.5-0.1c0.2-0.1,0.3-0.3,0.3-0.5l0,0
				c0-0.1,0-0.2,0-0.3c-0.7-2-1.1-2.9-2-4.9c-0.1-0.3-0.4-0.5-0.7-0.5c-0.3,0-0.6,0.1-0.8,0.4c-1.1,1.8-1.6,2.7-2.6,4.6
				c0,0.1-0.1,0.2-0.1,0.3c0,0.2,0.1,0.4,0.2,0.5c0.1,0.1,0.3,0.2,0.5,0.2c0.1,0,0.3,0,0.4-0.1C128.2,182.4,128.3,182.4,128.4,182.2
				z M129.5,180.2c0.3-0.5,0.5-0.9,0.7-1.3c0.2,0.5,0.4,0.9,0.6,1.4C130.3,180.2,129.9,180.2,129.5,180.2z"/>
			<path class="st12" d="M133.5,178.2c0.6,0.1,1,0.1,1.5,0.2l-0.5,4c0,0.2,0,0.4,0.2,0.5c0.1,0.1,0.3,0.2,0.5,0.3c0,0,0.1,0,0.1,0
				c0.2,0,0.3,0,0.4-0.1c0.2-0.1,0.3-0.3,0.3-0.5l0.6-4c0.5,0.1,0.9,0.1,1.5,0.2c0.2,0,0.4,0,0.5-0.1c0.2-0.1,0.3-0.3,0.3-0.5
				c0-0.2,0-0.4-0.2-0.5l0,0c-0.1-0.1-0.3-0.2-0.5-0.3c-1.9-0.3-2.8-0.4-4.6-0.6c-0.2,0-0.4,0-0.5,0.1c-0.2,0.1-0.3,0.3-0.3,0.5
				c0,0.2,0,0.4,0.2,0.5C133.2,178.1,133.3,178.2,133.5,178.2z M138.5,178L138.5,178L138.5,178L138.5,178z"/>
			<path class="st12" d="M138.7,182.3c0.2,0.5,0.6,1,1,1.3c0.5,0.4,1,0.6,1.7,0.8c0.4,0.1,0.8,0.1,1.1,0.1c0.3,0,0.5,0,0.8-0.1
				c0.6-0.1,1.1-0.4,1.5-0.7c0.4-0.4,0.7-0.9,0.9-1.4c0.2-0.6,0.2-1.2,0-1.7c-0.2-0.5-0.5-1-1-1.4c-0.5-0.4-1.1-0.7-1.8-0.8
				c-0.7-0.2-1.4-0.2-2,0c-0.6,0.1-1.1,0.4-1.6,0.8c-0.4,0.4-0.7,0.9-0.8,1.5C138.4,181.2,138.5,181.8,138.7,182.3z M144.2,181
				c0.1,0.3,0.1,0.6,0,0.9c-0.1,0.3-0.2,0.6-0.5,0.8c-0.2,0.2-0.5,0.4-0.9,0.4c-0.4,0.1-0.7,0.1-1.1,0c-0.4-0.1-0.7-0.3-1-0.5
				c-0.3-0.2-0.5-0.5-0.6-0.8c-0.1-0.3-0.1-0.6-0.1-0.9c0.1-0.3,0.2-0.6,0.4-0.8c0.2-0.2,0.5-0.4,0.9-0.5c0.2,0,0.3-0.1,0.5-0.1
				c0.2,0,0.4,0,0.7,0.1c0.4,0.1,0.8,0.3,1.1,0.5C143.9,180.4,144.1,180.7,144.2,181z"/>
		</g>
	</g>
</g>
</svg>
