<svg id="Layer_1" data-name="Layer 1" xmlns="http://www.w3.org/2000/svg" viewBox="0 0 250 250"><defs><style>.cls-1{fill:#f86e33;}.cls-2{fill:#dc5219;}.cls-3{fill:#bc4425;}.cls-4{fill:#f8ac82;}.cls-5{fill:#fefefe;}.cls-6{fill:#be6e2a;}.cls-7{fill:#b1812a;}.cls-8{fill:#f3cf71;}.cls-9{fill:#f3cf70;}.cls-10{fill:#e3cb6d;}.cls-11{fill:#e78d69;}.cls-12{fill:#b1822a;}.cls-13{fill:#874321;}.cls-14{fill:#d2aa60;}.cls-15{fill:#d0a050;}.cls-16{fill:#b2812a;}.cls-17{fill:#da551b;}.cls-18{fill:#db5319;}.cls-19{fill:#b4822b;}.cls-20{fill:#d9561c;}.cls-21{fill:#e7bb65;}.cls-22{fill:#d4a150;}.cls-23{fill:#b4842d;}.cls-24{fill:#dd531a;}.cls-25{fill:#e0b968;}.cls-26{fill:#ca6324;}.cls-27{fill:#e78e42;}.cls-28{fill:#d05f1f;}.cls-29{fill:#d05d20;}.cls-30{fill:#c2953f;}.cls-31{fill:#c74e1b;}.cls-32{fill:#c0732f;}.cls-33{fill:#ce5d20;}.cls-34{fill:#d8551b;}.cls-35{fill:#e6b75e;}.cls-36{fill:#cc893d;}.cls-37{fill:#dba051;}.cls-38{fill:#ecad59;}.cls-39{fill:#cc631f;}.cls-40{fill:#bd7525;}.cls-41{fill:#f8743c;}.cls-42{fill:#fbb091;}.cls-43{fill:#fde1d6;}.cls-44{fill:#f1cd6f;}.cls-45{fill:#e2bb62;}.cls-46{fill:#be6d2a;}.cls-47{fill:#f87036;}.cls-48{fill:#e4bc5f;}.cls-49{fill:#ab7239;}.cls-50{fill:#bf8a44;}.cls-51{fill:#bc8e39;}.cls-52{fill:#b67a2a;}.cls-53{fill:#cf9f4f;}.cls-54{fill:#d15c1f;}.cls-55{fill:#d8ab59;}.cls-56{fill:#d8ac5b;}.cls-57{fill:#be8948;}.cls-58{fill:none;}</style></defs><title>products</title><path class="cls-1" d="M77,212.11c-.47-8.75-.71-17.51-1-26.27-.54-17-.6-34-.53-51q.06-16.29.43-32.59c.27-11,.71-21.92,1.38-32.86.46-7.64,1.09-15.27,2-22.87.56-.54,1.19-.31,1.79-.15a149.11,149.11,0,0,0,23.25,4,232.09,232.09,0,0,0,33.35.76,198.86,198.86,0,0,0,27-3.17,3.26,3.26,0,0,1,1.58-.06c.62.43.47,1.08.42,1.7a186.45,186.45,0,0,1-6.49,32.93c-1.48,5.28-3.42,10.38-4.86,15.68a.84.84,0,0,1-.25.37c-.74-.14-.63-.82-.7-1.35-.45-3.54-1-7-1.45-10.58-.16-1.36-.7-2-2-1.87a28.53,28.53,0,0,1-3.46,0c-1.16-.06-1.65.52-1.78,1.72-.5,5.16-1.27,10.16-1.76,15.3-.07.73-.18,1.45-.29,2.18-.14,1,.22,1.37,1.1,1.35a8.65,8.65,0,0,1,1.44,0c1.23.13,2-.32,1.9-1.8a2.59,2.59,0,0,1,.26-1.06,1.29,1.29,0,0,1,1.37-.91c.68.06,1,.56,1.09,1.25.13,1,0,2,.93,2.67.56.6.14,1.18-.07,1.72-1.53,3.85-3.05,7.7-4.82,11.43a2.17,2.17,0,0,1-.19.41c-.09.2-.19.39-.29.59a13,13,0,0,1-1.4,2.69c-.51.41-1.35,0-1.7.8a1.07,1.07,0,0,1-.44.5.81.81,0,0,1-.85-.15c-.18-1.55-.91-2.19-2.37-1.83a1.6,1.6,0,0,1-1.35-.31,3,3,0,0,1-.37-1.59c-.75-.56-.85-.51-1,.54-.11.84.1,1.83-.92,2.22a3.35,3.35,0,0,1-.84.13c-2.31.12-2.47,0-2.74-2.5a1.16,1.16,0,0,0-.29-.69c-1.88-.65-2.22-.48-2.83,1.41a2,2,0,0,1-.53.92c-.77.43-.65,1.18-.62,1.92.29,6.54.82,13.08.77,19.64-.18,3.53.18,7.1-.45,10.62-.31.53-.44,1.39-1.33.86a6,6,0,0,1-.26-2.48v-27.9c0-2.7-.2-2.88-2.67-2.57-.57.1-.6,1-1.18,1a1.33,1.33,0,0,1-.56-.74c0-1.06-1.16-1.1-1.53-1.86-.41-1.17-1.29-1.14-2.17-1s-.8,1.17-.8,1.9q0,18.41,0,36.8c0,4.14.08,8.28-.1,12.42-.58,1.33-1.49,2.51-1.56,4.09a.33.33,0,0,1-.51.31c-.64-.81-.45-1.79-.45-2.71v-43.9c0-1,.26-2-.63-2.76a1.52,1.52,0,0,1-.63-1.32,2.1,2.1,0,0,0-.64-1.51,1,1,0,0,0-1.11-.87,1,1,0,0,0-.46.18c-2,.27-1.94.27-2,2.4-.14,7.76-.48,15.52-.82,23.27-.15,3.51-.14,7-.3,10.54-.39,8.38-.53,16.78-.92,25.16a3.06,3.06,0,0,1-.23,1.23c-.22.32-.45.66-.88.33a10.64,10.64,0,0,1-.55-4.15c-.12-5-.52-10-.69-15-.17-4.7-.4-9.4-.55-14.1.08-1,0-2.1,0-3.15-.08-3,0-6.06-.15-9.1-.25-5.16-.1-10.34-.29-15.51,0-.55.17-1.18-.41-1.56-.58-.6-1.16-.35-1.74,0-.9.33-.89,1.15-.86,2,.36,10.26.41,20.54.61,30.81.17,9,.49,18,.56,27a76.23,76.23,0,0,1,.16,8c-.38,1.46-1.58,2.21-2.4,3.29a48.81,48.81,0,0,1-6,6.53c-.39.34-.81,1-1.2,0-.17-2.93-.38-5.86-.43-8.8-.12-8-.36-16-.35-24,0-2,0-4,.07-6,.1-5-.32-10.09-.27-15.12.12-12.25.15-24.49.32-36.73.13-9.45.34-18.91.85-28.35.25-4.56.36-9.12.76-13.68a9,9,0,0,0-1.27-5.86,3.21,3.21,0,0,0-4.35-1.33,3.14,3.14,0,0,0-1.27,1.21,9.77,9.77,0,0,0-1.62,4.82c-.41,4.24-.42,8.5-.6,12.75-.35,7.92-.44,15.82-.88,23.82v.47c.18,6.63-.44,13.23-.3,19.86.19,8.62-.6,17.23-.25,25.84.36,8.83,0,17.66.3,26.48.2,7.25.27,14.5.59,21.73.16,3.62.16,7.24.47,10.85a2.39,2.39,0,0,1-.1.52c-.4,1.05-1.37,1.42-2.1,2.07A30.78,30.78,0,0,1,79,213.1C77.21,214.14,77.21,214.12,77,212.11Z"/><path class="cls-2" d="M155.08,98.56A9.19,9.19,0,0,1,156,94.5a217,217,0,0,0,8.83-34,117.22,117.22,0,0,0,1.53-12.38c1.4-1.18,2.29-.86,2.58,1.06.52,3.57.79,7.19,1.06,10.8.43,5.86.82,11.72,1.1,17.59.23,5.14.49,10.28.64,15.42.35,11.49.45,23,.68,34.48.2,9.93.28,19.86.11,29.78-.11,6.88,0,13.76-.23,20.63-.31,8.87-.49,17.74-.9,26.59-.52,11.27-1.07,22.55-2.27,33.76-.27,2.51-.78,3-3.11,2.57a199.43,199.43,0,0,0-20.55-2.36c-5.33-.39-10.68-.38-16-.67-5.12-.28-10.22,0-15.3.18-11.08.4-22.13,1.27-33,3.82a2.54,2.54,0,0,1-1.84,0c-.89-7.23-1.47-14.49-1.82-21.77-.13-2.62-.31-5.23-.47-7.85.39.35.12.9.37,1.39a56.21,56.21,0,0,0,7-4.88c.85,1.63.61,3.48.67,5.21.1,2.62.3,5.24.4,7.86a10.21,10.21,0,0,0,1.52,5.35c1.46,2.21,3.69,2.37,5.43.4a7.28,7.28,0,0,0,1.71-5.21c-.13-4.3-.45-8.59-.72-12.88-.16-2.57,0-5.15-.38-7.71a1.67,1.67,0,0,1,.23-1.05l.19-.18c.55-1.1,1.62-1.6,2.37-2.47,2.15-2.48,4.35-4.89,6.52-7.33a2.17,2.17,0,0,1,.46,1.75c.26,8.95.27,17.91.6,26.86,0,.88-.28,2,1.07,2.14s1.86-.49,2-1.78a.67.67,0,0,1,.3-.34c.85.22.41,1.28,1,1.78.49-.51.14-1.43.7-1.88a1.59,1.59,0,0,0,1-1.77,2.13,2.13,0,0,1,.39-1.57c.86.24.59,1,.68,1.64-.23,1.41.14,2.4,1.55,2.67,1.13.44,2.24.77,3.29-.21.35-3.44,0-6.88.16-10.32,0-.7-.18-1.5.53-2,.57.25.54.83.55,1.33.07,2.09.44,4.15.31,6.25a16.35,16.35,0,0,0,.43,4c.14.68.16,1.38.31,2.06a5.76,5.76,0,0,1,.11.93c.11,1.58.9,2.14,2.28,1.68.53-.17.64-.57.66-1.07,0-.94,0-1.88.06-2.82a1.76,1.76,0,0,1,.28-.71.79.79,0,0,1,.9-.1c.51.64.5,1.87,1.68,1.78,1.06.37,2.22-.15,3.26.41a1.36,1.36,0,0,1,.35.67c.33,1.38,1,1.89,2.32,1.77.61,0,.68-.47.71-1a4.82,4.82,0,0,1,.24-1.85.94.94,0,0,1,1.29-.33.47.47,0,0,1,.09.06c.65.51,1.23.17,1.84.07.64.42.48,1.13.53,1.76.09.46-.14,1.22.6,1.18s.54-.75.63-1.25c.12-.66-.34-1.53.59-1.91a10.07,10.07,0,0,0,2.37-.54c1.17-.55,2.14-.07,2.77,1.15,2.13.55,2.35.45,3.45-1.46,2-.91,1.92-.92,2.09-3.4.32-4.67.22-9.35.27-14a2.8,2.8,0,0,1,.33-1.5c.83-.29.68.48.75.91a14.4,14.4,0,0,0,.24,1.85c.14,5.65.47,11.3.42,17V222c0,1.1.34,1.66,1.42,1.64s1.51-.49,1.47-1.61a7.53,7.53,0,0,1,0-.95,6.64,6.64,0,0,1,.06-1.41,1.45,1.45,0,0,1,.36-.77,2.45,2.45,0,0,0,1.28-2.7c-.45-5.76-.16-11.54-.5-17.31-.25-4.34-.21-8.71-.33-13.06-.33-11.07-.55-22.14-.83-33.21-.18-6.77-.41-13.54-.44-20.32,0-2.51-.26-5-.23-7.55a1.73,1.73,0,0,0-.75-1.74,4.51,4.51,0,0,1-.38-2.43,1.17,1.17,0,0,0-1.25-1.34c-.82,0-1.65.18-2.35-.45q2.73-6.48,5.48-12.94c.49-.56,1.14-.44,1.74-.46,1.82-.07,1.84-.08,1.54-2.08-.16-1-.27-2.06-.41-3.09A1.83,1.83,0,0,1,155.08,98.56Z"/><path class="cls-3" d="M79.32,241.72a68.62,68.62,0,0,1,10.89-2.18c4.13-.57,8.27-1.07,12.4-1.54,1.67-.2,3.35-.14,5-.3,3.21-.31,6.44-.29,9.66-.38,2.3,0,4.63-.28,6.91-.22,4.61.11,9.23.09,13.85.26,4.45.16,8.91.46,13.34,1a134.54,134.54,0,0,1,15.24,2.1c1.22.28,1.93-.05,2-1.52.28-3.59.64-7.17.9-10.76q.62-8.6,1.13-17.2c.13-2.14.17-4.28.28-6.43.24-4.81.09-9.65.37-14.46.58-9.8.3-19.62.61-29.41.33-10,.31-20,.13-29.93-.13-6.82,0-13.64-.21-20.46q-.36-13.11-.87-26.19c-.21-5.33-.51-10.65-.87-16-.42-6.09-.93-12.17-1.47-18.25-.21-2.31-.33-2.33-2.29-1.75-4.51.93-9.06,1.6-13.62,2.24-5.38.74-10.78,1.13-16.18,1.41-5.13.25-10.27.14-15.41.11-6,0-12-.6-17.94-1.17A143.6,143.6,0,0,1,79.8,46.52a1.88,1.88,0,0,0-.58,0q-1-2.33-2-4.6a5.53,5.53,0,0,1-.46-3,3.27,3.27,0,0,1,2.5-.5h94c.89,0,1.85-.23,2.63.5a6,6,0,0,1-1,4.16c-1.58,2.26-1.59,4.68-1.24,7.3.72,5.39,1.08,10.83,1.4,16.27.54,9.25,1,18.5,1.26,27.77q.31,10.92.56,21.82c.35,14.75.26,29.49.21,44.23,0,7.18-.15,14.37-.32,21.55q-.21,9.09-.63,18.22c-.4,8.69-.81,17.37-1.39,26-.32,4.8-.65,9.61-1.36,14.37a5.94,5.94,0,0,0,1,3.54c.76,1.62,1.78,3.16,1.58,5.13a2,2,0,0,1-1.43.65,20,20,0,0,1-3,.17h-92c-.94,0-1.94.23-2.78-.51-.26-2.11.68-3.83,1.58-5.53A10.59,10.59,0,0,0,79.32,241.72Z"/><path class="cls-2" d="M175.88,38.91H76.7V32.46c0-.74.22-1.09.92-1H174c2,0,2,0,2,2.12C175.92,35.34,175.9,37.12,175.88,38.91Z"/><path class="cls-4" d="M84.5,208.3c-.3-5.91-.48-11.83-.66-17.76-.09-2.77-.11-5.55-.21-8.32-.36-9.5-.12-19-.37-28.5-.15-5.67-.3-11.35-.11-17,.24-7.4,0-14.8.23-22.2.26-9.7.53-19.39.86-29.08.22-6.44.54-12.86.85-19.29a10.53,10.53,0,0,1,1.56-5,3.84,3.84,0,0,1,3.85-2c1.71.2,2.69,1.51,3.36,3.1a8.94,8.94,0,0,1,.73,3.82c-.21,4.65-.53,9.3-.77,14-.15,2.82-.28,5.65-.33,8.48-.1,5.92-.22,11.85-.41,17.76-.19,5.67-.12,11.33-.21,17-.11,8.4-.32,16.8-.2,25.2.07,4.71.16,9.43.18,14.16,0,6.07,0,12.15.08,18.23.11,6.53.38,13.06.58,19.59h0a9.82,9.82,0,0,1-2.67,3c-1.59,1.53-3.21,3-4.91,4.41C85.5,208.17,85.12,208.75,84.5,208.3Z"/><path class="cls-5" d="M128,72.21c-5.45.07-10.62-.28-15.62-2.06a12.21,12.21,0,0,1-3.63-1.89c-2-1.65-2-3.62,0-5.23a14.17,14.17,0,0,1,5.49-2.45,47.54,47.54,0,0,1,25.54.4,12.18,12.18,0,0,1,3.93,1.92c2.29,1.75,2.28,3.82,0,5.51A18.34,18.34,0,0,1,137,71.12,46,46,0,0,1,128,72.21Z"/><path class="cls-6" d="M110,215.88a14.12,14.12,0,0,0,0,1.84c.13,1.27-.29,1.84-1.48,1.61-.75-.42-.68-1.21-.7-1.93-.27-8.07-.7-16.13-1.13-24.19a18.64,18.64,0,0,1,.09-4.09,9.31,9.31,0,0,0,.19-2.88,3.3,3.3,0,0,1,.4-1.6c.2-6.95.3-13.9.63-20.84.26-5.33.4-10.66.58-16,.29-8.36.76-16.71.82-25.07,0-.87.25-1.27,1.08-1.19h1.73c.73.65.39,1.56.49,2.37v3a6.79,6.79,0,0,0,.25,1.9,38.92,38.92,0,0,1-.07,7.24,10.69,10.69,0,0,0-.1,1.26c.17,5.26-.25,10.5-.32,15.75-.11,9.35-.37,18.7-.66,28-.17,5.34.23,10.72-.6,16a8.78,8.78,0,0,0-.22,2.8,65.65,65.65,0,0,1-.29,7.68v4.06A9.18,9.18,0,0,1,110,215.88Z"/><path class="cls-7" d="M106.79,219.35a.43.43,0,0,1,0,.16c-.12.75.38,1.9-.31,2.18a7.06,7.06,0,0,1-3,.11c-.61,0-.46-.7-.47-1.14l-.3-15.32q-.15-7.35-.32-14.71c0-6.86-.28-13.72-.35-20.59,0-2.6-.12-5.23-.19-7.84-.17-6.49-.34-13-.47-19.48-.08-4.07-.06-8.15-.13-12.22,0-2.29-.1-4.58-.28-6.85-.13-1.54.44-2,1.71-1.77a1.55,1.55,0,0,1,.46,1.27c.15,4.14.4,8.28.61,12.41.29,5.87.51,11.74.79,17.6.24,4.77.43,9.54.66,14.3.28,5.55.4,11.11.81,16.65.16,2.15.16,4.3.23,6.45.24,7.71,1,15.38,1,23.1-.07,1.31,0,2.61,0,3.91A2.61,2.61,0,0,1,106.79,219.35Z"/><path class="cls-8" d="M117.21,219.34c-.62-.9-.45-2-.52-3-.19-2.87-.26-5.75-.38-8.63a34.78,34.78,0,0,1-.39-7.06v-1.26c0-.21-.23-.09-.16,0,.31.4.07.91.14,1.38.16,6-.07,12.09,0,18.13a3.9,3.9,0,0,1-.11,1.7c-1.31.22-2.65.93-3.83-.38-.65-1.29-.33-2.69-.24-4,.25-3.52.08-7,.21-10.56.33-8.34.35-16.69.71-25,0-.47.08-.94.07-1.42-.15-6.72.25-13.44.39-20.16.23-10.76.61-21.52.79-32.28,0-.61-.06-1.29.53-1.71,1.23-.28,1.39.43,1.39,1.58v46A4.4,4.4,0,0,0,116,175a1.77,1.77,0,0,1,.47,1.42c.12,3.87.43,7.73.53,11.59.12,4.75.44,9.49.61,14.23a141.61,141.61,0,0,1,.19,15A2.89,2.89,0,0,1,117.21,219.34Z"/><path class="cls-9" d="M123.54,121.57c1-.58,2.07-.21,3.11-.23.45,0,.64.39.65.87V155c.58.65.41,1.48.41,2.24v44.81c.23,5.86-.29,11.7-.28,17.56a2.57,2.57,0,0,1-.38,1.64,5.61,5.61,0,0,1-2,.13c-.46,0-1,.15-1.21-.54a1.41,1.41,0,0,1,.3-1.6c1-.71,1-1.74.92-2.79-.36-11.27-.43-22.55-.65-33.83-.09-4.4,0-8.81-.19-13.21-.22-6.45-.07-12.9-.34-19.34-.21-5.09-.08-10.17-.21-15.25a6.85,6.85,0,0,0-.2-1.86c-.27-3-.08-5.94-.14-8.9A14.77,14.77,0,0,1,123.54,121.57Z"/><path class="cls-10" d="M138.32,121.2a9.18,9.18,0,0,0,2.4,0c1.25-.34,1.51.2,1.38,1.37v.93a4.18,4.18,0,0,0-.72,2.64v75c0,5.14.2,10.28-.24,15.41a22.28,22.28,0,0,0,.06,2.83.77.77,0,0,1-.38.74c-2.73-.06-2.89.79-2.87-3.08V123.29A2.84,2.84,0,0,1,138.32,121.2Z"/><path class="cls-11" d="M84.5,208.3c2.15-1.18,3.78-3.1,5.62-4.72,1.15-1,2.23-2.11,3.34-3.17.43,6.53.54,13.08,1.11,19.6.25,2.9.19,5.8-2,8.05-1.85,1.93-4.32,1.64-5.85-.63a10.59,10.59,0,0,1-1.62-5.29c-.3-4.5-.45-9-.66-13.5A2,2,0,0,0,84.5,208.3Z"/><path class="cls-5" d="M155.08,98.56c.24,2,.43,4,.76,6,.17,1-.08,1.18-.91,1.15h-3c-1,0-1.41-.39-1.37-1.45,0-.47-.08-1-.07-1.42,0-.67-.13-1.1-.87-1.09s-.93.19-1.05,1c-.13.92.28,2.18-.36,2.7-.82.67-2,.22-3.08.24-2.1,0-2.12,0-1.85-2.17.73-6,1.5-12,2.2-18.08.1-.93.36-1.24,1.22-1.21,1.78.07,3.57.07,5.35,0,.81,0,1,.3,1.16,1.12.51,4,1.07,8,1.61,12A2.62,2.62,0,0,0,155.08,98.56Z"/><path class="cls-5" d="M113.61,84.29c3.74,0,3.68,0,4.19,4q1,7.92,2.19,15.85c.19,1.26-.06,1.76-1.25,1.57a4.22,4.22,0,0,0-.87,0c-2.82,0-2.85,0-3.2-2.93-.09-.73-.24-1-.94-1s-.87.2-.94,1c-.28,2.94-.31,2.94-3.06,2.94-2.53,0-2.5,0-2.16-2.76q1.08-8.73,2.07-17.46c.11-.92.34-1.31,1.22-1.24S112.69,84.29,113.61,84.29Z"/><path class="cls-12" d="M127,221.2l.33-19.21a25.05,25.05,0,0,0,.14-4.24v-7.16c0-7.39.13-14.78.19-22.16,0-4,0-8,.09-11.94a7,7,0,0,1,.44-2.45c.1-3.57.21-7.14.31-10.71.79.19.68.93.69,1.51.1,5,.4,10,.65,15.06s.37,9.84.77,14.74c.19,2.2.14,4.4.22,6.6.23,6.8.93,13.58.7,20.4-.08,1.28,0,2.57,0,3.85-.06,2.49.12,5-.07,7.48-.44,1.92-.12,3.87-.22,5.8a2.94,2.94,0,0,1-.39,2.09v.48c0,3.42,0,3.41-3.1,2.75a.73.73,0,0,1-.67-.78v-1.77c-.09-.07-.13-.14-.11-.22S127,221.2,127,221.2Z"/><path class="cls-5" d="M129.35,90.84a5.57,5.57,0,0,0-1,0c-1,.13-1.44-.17-1.33-1.35.07-.65.15-1.41-.49-1.86a.55.55,0,0,0-.77.17v0a2.94,2.94,0,0,0,.94,3.92c1.09.77,2.2,1.51,3.23,2.37,2.29,1.89,3.17,6.86,1.76,9.62a3.48,3.48,0,0,1-1.09,1.23,7.44,7.44,0,0,1-8,.08c-1.38-1-2.55-5.14-1.91-6.72.09-.22.2-.35.41-.35H125c.56,0,.53.49.53.91v2.37c0,.54.07,1.1.71,1.15s1-.45,1-1.07c.15-1.47,0-2.83-1.26-3.75s-2.19-1.72-3.33-2.5c-2.3-1.59-2.51-5-1.83-8,.47-2.09,2.33-3.15,5.1-3.17a11.09,11.09,0,0,1,1.73.11c3.11.43,4.67,2.76,4.15,6.11-.08.54-.31.72-.76.71s-1.15,0-1.73,0Z"/><path class="cls-13" d="M136,220.91a15.86,15.86,0,0,1,0,2c-.1.66,0,1.53-1,1.5s-.91-.81-.92-1.54c.34-.94-.08-1.84-.09-2.76,0-3.29-.15-6.59.06-9.88a4.77,4.77,0,0,0,.18-1.4c-.15-7.87.18-15.74.34-23.6.18-8.86.22-17.73.74-26.58V158c-.19-7,.28-14,.36-20.94.05-4.35.19-8.7.23-13.06a2.64,2.64,0,0,1,.47-1.77c.39-.77.07-1.62.23-2.43.08-.43-.07-1,.56-1,.47,0,1.11-.29,1.2.61a2.19,2.19,0,0,0-.12,1.08c.1,7.6-.14,15.2-.17,22.8,0,8-.27,16-.4,24-.35,8.65-.41,17.3-.6,26s-.45,17.41-.56,26.12a3.32,3.32,0,0,1-.15,1.08A2.22,2.22,0,0,1,136,220.91Z"/><path class="cls-5" d="M96.61,94.88v-9.3c0-1,.28-1.35,1.22-1.31,1.83.09,3.66,0,5.49.08,3,.13,4.17,1.41,4.3,4.66,0,1.15.06,2.31,0,3.47-.06,3.31-1,4.48-4.07,4.55-1.49,0-1.9.5-1.78,2.06.13,1.83,0,3.67,0,5.51,0,.91-.27,1.2-1.08,1.16a21.45,21.45,0,0,0-3,0c-.92.07-1.14-.33-1.13-1.27C96.63,101.29,96.61,98.08,96.61,94.88Z"/><path class="cls-6" d="M136.3,122.2c0,3.52.15,7-.07,10.56-.28,4.46,0,8.93-.3,13.37-.28,3.93,0,7.87-.26,11.79-.32,4.46-.09,8.92-.29,13.37-.36,8.28-.39,16.56-.62,24.84-.12,4.35-.12,8.7-.22,13.06a1.34,1.34,0,0,1-.26,1c-.53-.53-.41-1.25-.41-1.91v-7.82a7.06,7.06,0,0,0-.22-2,6.72,6.72,0,0,1-.12-1.41c.19-7.19-.34-14.36-.33-21.55,0-7.71-.18-15.43-.34-23.13-.12-5.77-.07-11.54-.16-17.31,0-2.25-.42-4.48-.28-6.74v-3.85c-.21-1.93-.68-3.86.16-5.75.33.25.27.63.29,1,.09,2.46.09,2.46,2.33,2.46Z"/><path class="cls-13" d="M140.9,219.39a5.38,5.38,0,0,1-.2-3c.28-5,.21-10,.25-14.94a1.81,1.81,0,0,0,.12-.92c-.07-6,.13-12,.17-17.95.07-12,.52-24,.74-36,.13-6.93.57-13.84.52-20.77a3.43,3.43,0,0,1,.43-2.26l0-.62c.62-.8,1.34-.6,2.08-.26.05,2.68.08,5.36,0,8a21.16,21.16,0,0,0-.21,4.5V138c.1,5.41-.25,10.81-.35,16.21-.14,7.55-.3,15.11-.53,22.65-.37,12.44-.61,24.88-.94,37.32a39.68,39.68,0,0,1-.22,4.08C142.67,219.62,142.21,219.81,140.9,219.39Z"/><path class="cls-13" d="M114.4,125.05c-.14,6.14-.27,12.29-.43,18.43q-.47,18.72-1,37.44c-.17,7.08-.24,14.17-.51,21.25-.22,6-.1,12.05-.56,18.06-2,.37-1.69-1.17-1.68-2.45.16-2,0-4,.14-6v-4.12c.55-3.44.08-6.93.42-10.38.37-4.55.1-9.12.37-13.67.23-3.88,0-7.76.26-11.62s.11-7.85.27-11.77c.32-7.8.45-15.6.63-23.41.06-2.77.16-5.54.19-8.32a4.7,4.7,0,0,1-.11-1.54v-1.56a14.2,14.2,0,0,1,.32-2.84.49.49,0,0,1,.67-.11C115.07,122.72,114.21,124.13,114.4,125.05Z"/><path class="cls-12" d="M146.44,118.74h2.71c.9,0,1.37.42,1.32,1.48v2.64a2.94,2.94,0,0,1,.45,1.94c.18,7.83.17,15.66.36,23.48.23,9.66.34,19.32.61,29,.09,3.26.26,6.51.19,9.77-.14,7,.51,14,.28,21-.24.87.41,2-.74,2.6-.79-1.92-.58-4-.67-6q-.67-15.18-1.45-30.33c-.25-5.13-.37-10.28-.66-15.41-.4-7.06-.65-14.14-1-21.21-.25-4.5-.32-9-.67-13.51,0-.66.07-1.39-.51-1.88a1.37,1.37,0,0,1-.29-.42,19.4,19.4,0,0,1,.1-2.75A2.69,2.69,0,0,1,146.44,118.74Z"/><path class="cls-5" d="M136,97.13c0-2.42-.05-4.84,0-7.25,0-1.09-.3-1.35-1.23-1.3-.61,0-1.62.45-1.8-.39a13.49,13.49,0,0,1,0-3.59c0-.4.56-.3.89-.3h9.39c.72,0,.94.3.88,1v1.1c0,2.13,0,2.19-1.93,2.2-1,0-1.09.48-1.08,1.35v14c0,1.3-.19,1.84-1.56,1.8-3.6-.1-3.6,0-3.6-3.92Z"/><path class="cls-14" d="M130.81,220.86c.09-2.62-.29-5.26.24-7.86.58.58.44,1.35.45,2.07a34.87,34.87,0,0,0,.17,4.21c-.15-4.35-.3-8.7-.3-13.06a19.56,19.56,0,0,0-.26-4.52c.2-4.51-.15-9-.37-13.49-.4-8.46-.74-16.92-1.14-25.38-.2-4.12-.34-8.25-.63-12.37-.17-2.37.17-4.8-.47-7.13.1-6.14-.59-12.24-.63-18.36a14.56,14.56,0,0,0-.25-2.18c-.12-1,.27-1.36,1.15-1.23a4,4,0,0,1,.73,2.8c.17,7.39.69,14.77,1,22.16.21,6.13.61,12.26.83,18.39.14,4,.49,8,.5,11.93a6.44,6.44,0,0,0,.22,2c.22,3.09.23,6.19.35,9.28.22,5.19.46,10.39.71,15.57.27,5.55.39,11.11.77,16.66a.86.86,0,0,1-.14.56c-.44.64-.78,1.84-1.56.23C131.89,220.66,131.21,221,130.81,220.86Z"/><path class="cls-14" d="M106.79,213.66c0-7.65-.74-15.27-1-22.91-.1-3.92-.31-7.84-.52-11.76q-.51-9.88-.91-19.77c-.16-4-.39-7.94-.56-11.91-.28-6.43-.6-12.86-.91-19.29-.09-2-.1-4.08-.25-6.12.4-.89.81-.89,1.21,0,.83,1.7.58,3.61.62,5.37.14,7,.65,14,.66,21a16,16,0,0,0,.16,3.32c.29,7.64.57,15.28.89,22.92.14,3.5.38,7,.58,10.5.45.69.18,1.47.26,2.21v1.91c.08,6.09.48,12.16.83,18.24.19,3.39.24,6.78.34,10.17a4.15,4.15,0,0,0,.27,1.84V220c-.1.64.39,1.74-.61,1.75s-.63-1.08-.75-1.74a2.68,2.68,0,0,0,0-.63C106.67,217.46,107.21,215.52,106.79,213.66Z"/><path class="cls-12" d="M131.39,177.06c-.82-18.5-1.56-37-2.62-55.5.16-.9.06-2.15.57-2.61.72-.66,1.92-.16,2.91-.23a1.31,1.31,0,0,1,.28,0,27.49,27.49,0,0,0,.29,5.66,22.24,22.24,0,0,0-.15,4c0,6.76.13,13.53,0,20.28-.15,5.93-.06,11.85-.28,17.77-.1,3-.19,6-.23,9a3.51,3.51,0,0,1-.26,1.53.32.32,0,0,1-.42.16Z"/><path class="cls-15" d="M142.93,123.47c.08,6.92-.24,13.83-.48,20.74-.22,6.53-.24,13.07-.4,19.6-.12,4.91-.35,9.82-.47,14.73-.1,4,0,8.06-.16,12.08-.13,3.3-.22,6.6-.24,9.9a3.36,3.36,0,0,1-.23.88V125.28c0-.9-.26-2,1.19-1.83Z"/><path class="cls-16" d="M117.45,170.77V120.69c0-.63-.36-1.6.34-1.84a4.64,4.64,0,0,1,3.12,0c.59.23.2,1.14.31,1.74-1.83.33-2.09,1.67-2,3.4a11.11,11.11,0,0,1-.14,2.51c-.22,2.37-.09,4.73-.09,7.09,0,8.77-.19,17.54-.33,26.31-.17,10-.17,20.06-.5,30.08a4,4,0,0,1-.35,2.14.32.32,0,0,1-.45,0l0,0a3.16,3.16,0,0,1-.33-1.81v-16.8A6.91,6.91,0,0,1,117.45,170.77Z"/><path class="cls-2" d="M137.21,167.29c.13-6.64.28-13.28.4-19.92.08-4.55,0-9.11.23-13.65s.15-8.9.24-13.35a1.42,1.42,0,0,1,.26-1v90.7c0,.78,0,1.57-.05,2.36a.39.39,0,0,1-.46-.24,3.12,3.12,0,0,1-.23-1.38c.06-9.17-.4-18.33-.35-27.51,0-5,0-9.94.08-14.91A1.8,1.8,0,0,0,137.21,167.29Z"/><path class="cls-17" d="M117.45,170.77v21.44a2.79,2.79,0,0,1,.4,1.93v6.09c0,.74.24,1.62-.65,2.05q-.6-13.69-1.25-27.37A4.5,4.5,0,0,1,117.45,170.77Z"/><path class="cls-18" d="M128.21,154c0,4,.2,8-.07,12-.33,5.09,0,10.17-.28,15.23-.2,3.14-.14,6.27-.24,9.41-.09.15-.17.15-.26,0V155Z"/><path class="cls-19" d="M105.07,148.37c-.21-5-.34-9.93-.64-14.89-.24-3.86-.48-7.72-.53-11.59.91-.09,1.11.45,1.13,1.34.07,4.69-.08,9.37.22,14,.24,3.68.07,7.39.08,11.09C105.21,148.51,105.15,148.51,105.07,148.37Z"/><path class="cls-6" d="M118.92,126.29c0-1.34.08-2.69,0-4s.28-1.87,1.5-1.66a6,6,0,0,0,.85,0c1.12-.2,1.63.28,1.43,1.54a1.23,1.23,0,0,1-.69.53,2.23,2.23,0,0,0-1.56,2.59,1.49,1.49,0,0,1-.25,1,.91.91,0,0,1-1.09.15Z"/><path class="cls-2" d="M146.42,121.57v.54c0,.56.06,1.11.13,1.67a.87.87,0,0,1-.35.58c-.81.49-.82,1.36-.85,2.2-.06,1.89,0,3.78,0,5.66a3.16,3.16,0,0,1-.36,2,.31.31,0,0,1-.43-.09h0a15.28,15.28,0,0,1,.08-3.38v-6.47a3.58,3.58,0,0,1,.26-1.68c-.15-.14-.14-.26,0-.38a14.84,14.84,0,0,1,1.17-2.82C146.93,120,146.52,120.81,146.42,121.57Z"/><path class="cls-20" d="M106.84,187.5V185l.54-.32c-.13,1.47.32,3-.29,4.44h0C106.77,188.58,107.06,188,106.84,187.5Z"/><path class="cls-21" d="M113.42,122.42l-.59.09c-.42.42.35,1.32-.53,1.56,0-.83-.07-1.67-.1-2.5C113.21,120.85,113.49,121.32,113.42,122.42Z"/><path class="cls-8" d="M121.86,122.23l.83-.08a.68.68,0,0,1,.31.65.62.62,0,0,1,0,.71.92.92,0,0,1-.9.19.8.8,0,0,1-.48-.52C121.65,122.84,121.6,122.49,121.86,122.23Z"/><path class="cls-22" d="M123,123.44v-.64c.48-.25.09-1,.54-1.23.09.75.17,1.5.26,2.25A.69.69,0,0,1,123,123.44Z"/><path class="cls-23" d="M105.07,148.37h.26v3.17C104.78,150.53,105.15,149.43,105.07,148.37Z"/><path class="cls-24" d="M146.42,121.57c-.11-.73.26-1.54-.28-2.21l.29-.33A2.75,2.75,0,0,1,146.42,121.57Z"/><path class="cls-24" d="M145,122.18v.38a2.3,2.3,0,0,0-2,.29C143.36,121.66,144.31,122.43,145,122.18Z"/><path class="cls-6" d="M145,134.17c.11-3,0-6,.11-9,.08-1.35.66-1,1.3-1.1.9,1.39.63,3.06.68,4.55.12,3.86.59,7.71.38,11.59-.2,8.19.34,16.36.38,24.55,0,2.87.15,5.76.21,8.65.16,6.66.21,13.32.56,20a5.28,5.28,0,0,1-.28,2.78c-.34.35-.53.13-.55-.23a14.91,14.91,0,0,1,0-2.5l.09-.12h-.11c-.26,1.89.33,3.75.23,5.65a2.36,2.36,0,0,1-.4,1.77v9.74c0,2.72-.49,5.41-.29,8.13,0,.72-.2,1.06-.89,1.08a12.3,12.3,0,0,0-1.7.28,2.78,2.78,0,0,1-.48-2.07c0-20.08-.09-40.16.06-60.23,0-4.93,0-9.87.27-14.79.29-2.29.06-4.6.14-6.89A3,3,0,0,1,145,134.17Z"/><path class="cls-13" d="M123,123.44l.82.38c0,3,0,6.06.07,9.09a3.31,3.31,0,0,1,.12,1.4c-.1,9.82.08,19.65.19,29.47.2,17.56.07,35.11.17,52.66,0,1.54-.43,3-.39,4.53,0,.22-.22.31-.44.25-1.54.31-1.44-.82-1.4-1.9a1.38,1.38,0,0,1-.55-1.06c.18-2.4-.43-4.81,0-7.21a21.13,21.13,0,0,0,.16-4.13v-81c0-.81-.2-1.7.46-2.38Z"/><path class="cls-6" d="M117.21,202.28c.43-.57.14-1.25.24-1.87a58.27,58.27,0,0,0,.15-6.2,5.61,5.61,0,0,1,.13-2c.06-4-.14-8.05.27-12.07a32.32,32.32,0,0,0,0-3.41c-.12-10.76.3-21.52.4-32.28.06-5.66.09-11.33.2-17,0-.42-.07-.86.28-1.17h0a3.05,3.05,0,0,1,.46,2.1c-.1,8.61.24,17.22.37,25.83.09,5.88,0,11.78.27,17.64.31,5.63,0,11.24.25,16.86.39,9.44.29,18.9.55,28.35a9.53,9.53,0,0,0,.43,2.3V220c-.35,1.85-1.69,2.29-3.75,1.24-.51-.56-.19-1.26-.29-1.89a111.3,111.3,0,0,0,0-15.17Z"/><path class="cls-13" d="M121.26,219.37c-.84,0-.89-.53-.89-1.23,0-8.19-.25-16.37-.37-24.55-.09-6.29,0-12.6-.28-18.88-.27-5.51.09-11-.28-16.52-.34-5.14-.11-10.27-.31-15.4-.21-5.49-.14-11-.2-16.5h1.18c1.06-.1,1,.81,1,1.47v6.62c0,7.08.33,14.15.35,21.23,0,5.13.31,10.26.21,15.4a8.38,8.38,0,0,0,.13,2c.07,6.35,0,12.71,0,19.06a8.37,8.37,0,0,0,.1,2c.08,2.81,0,5.62,0,8.44V207a23.75,23.75,0,0,1-.15,4.13l.3,8.17Z"/><path class="cls-9" d="M151.94,208c-.11-8.75-.15-17.51-.35-26.26-.25-10.15-.38-20.3-.61-30.44-.15-6.39-.06-12.78-.31-19.16-.13-3.09-.14-6.18-.2-9.27.88-.11,1.14.32,1.15,1.27.08,5.24.21,10.48.33,15.72q.28,12.18.58,24.36c.19,7.65.37,15.29.58,22.93q.34,12.42.72,24.85a43.51,43.51,0,0,0,.13,4.85c.18,1.6-.37,2.23-1.75,2.24a2.47,2.47,0,0,1-.4-1.92,51.13,51.13,0,0,1,.23-7.32A3.32,3.32,0,0,0,151.94,208Z"/><path class="cls-25" d="M147,140.14c.07-5.37-.46-10.71-.63-16.07v-.64a2.35,2.35,0,0,1,.07-1.55h0c.79-.12,1.1.2,1.13,1.12.15,4.71.32,9.42.58,14.13.35,6.27.59,12.54.9,18.81.31,6.06.54,12.12.85,18.17s.64,12.32.86,18.48c.22,6,.57,11.92.86,17.87A18.77,18.77,0,0,1,152,215c.13,1.56-.14,3.14.13,4.7v1.19c-1.26.46-1.8.1-1.82-1.53,0-2.42-.22-4.82-.33-7.23-.27-5.72-.47-11.43-.8-17.14-.26-4.55-.45-9.12-.63-13.67-.23-5.93-.56-11.85-.79-17.77-.15-3.93-.09-7.87-.37-11.79S147.29,144,147,140.14Z"/><path class="cls-12" d="M147,140.14c.32.33.25.77.26,1.18.21,7.53.69,15.05,1.09,22.57.31,6.05.41,12.12.7,18.17.41,8.46.89,16.92,1.19,25.39.14,4,.49,7.94.52,11.92,0,1.11.25,1.76,1.41,1.49v.62c0,2.46-1,3.27-3.2,2.59-.5-.15-.55-.5-.55-.94,0-3.18.12-6.37-.08-9.53-.2-3.35-.18-6.69-.24-10-.08-2.42-.65-4.84,0-7.25-.29-4.81-.07-9.64-.36-14.44-.27-4.61,0-9.22-.25-13.81-.35-5.39,0-10.79-.32-16.17C147,148,147.11,144.06,147,140.14Z"/><path class="cls-15" d="M144.71,142.66V220c.2,1.47-.31,2.12-1.73,1.9a11.13,11.13,0,0,0-2,0,2.35,2.35,0,0,1,0-1.84v-.62c1.14.11,1.5-.36,1.53-1.69.14-8.25.41-16.51.61-24.77.11-4.55.18-9.1.28-13.65q.28-11.7.58-23.41c.16-6,.35-11.93.53-17.9.19-.1.32,0,.38.19A30.6,30.6,0,0,1,144.71,142.66Z"/><path class="cls-15" d="M123.52,221.22c.53-.44.31-1.07.31-1.62V132.91c.43.49.25,1.1.25,1.65,0,4.2-.16,8.41.08,12.6.32,5.6,0,11.21.3,16.79.3,5.25,0,10.49.28,15.72.34,5.4,0,10.8.29,16.18.33,5.19,0,10.38.28,15.56.1,2.19.24,4.38.24,6.58,0,.71,0,1.38-.91,1.39-.63,0-.53.6-.54,1.06,0,.63.33.8.83.79h2v.34C125.86,221.37,124.65,221.88,123.52,221.22Z"/><path class="cls-16" d="M117.48,221.23a11.55,11.55,0,0,1,1.86,0,1.51,1.51,0,0,0,1.85-1,1.55,1.55,0,0,0,0-.21c0,1,0,2,0,3s-.34,1.44-1.33,1.41C116.94,224.28,117.55,224.8,117.48,221.23Z"/><path class="cls-26" d="M133.69,220.91v-.27c-.22-6.58-.2-13.16-.18-19.74a3.31,3.31,0,0,1,.47-2.38c.45.47.26,1.09.27,1.64v21.05c0,.55.17,1.16-.25,1.64C133.88,222.19,134.21,221.47,133.69,220.91Z"/><path class="cls-27" d="M116,200.43c.1,2.42.18,4.85.26,7.29-.47.46-.26,1.08-.26,1.63V219c0,.55.18,1.16-.24,1.65V200.43C115.85,200.28,115.94,200.27,116,200.43Z"/><path class="cls-28" d="M148.15,196.32v7.25c-.69-.82.15-2-.56-2.83v-7.87C148.14,194,147.5,195.24,148.15,196.32Z"/><path class="cls-29" d="M140.92,220v1.84c-.79-1.88-.91-1.87-2.88-1.09a7,7,0,0,1-2.09.15,1.6,1.6,0,0,1,0-.31c1.41-.44,1.72-1.54,1.61-3-.09-1.19,0-2.4,0-3.6a2.18,2.18,0,0,1,.43-1.6h.24c0,1.92.11,3.86,0,5.78-.06,1.37.25,2.08,1.63,1.82A4.69,4.69,0,0,1,140.92,220Z"/><path class="cls-30" d="M152.21,219.66a1.89,1.89,0,0,1-.23-.55q-.16-4.32-.3-8.64c.53-.78.12-1.7.29-2.53.48.77.22,1.63.24,2.45v9.27Z"/><path class="cls-31" d="M110.52,211.76c-.11,2,.32,4-.26,6-.12-.63.22-1.34-.28-1.9l.27-4.11A.16.16,0,0,1,110.52,211.76Z"/><path class="cls-32" d="M106.79,213.66c.56,1.87.16,3.8.27,5.7h-.27Z"/><path class="cls-33" d="M110.82,197.26a86.12,86.12,0,0,1-.28,10.41c-.1.14-.19.15-.28,0a92.74,92.74,0,0,0,.3-9.72A2.29,2.29,0,0,1,110.82,197.26Z"/><path class="cls-34" d="M110.26,207.66h.28v4.09h-.33C110.21,210.41,110.26,209,110.26,207.66Z"/><path class="cls-35" d="M112.3,124.07c.51-.39,0-1.18.53-1.56-.09.94-.17,1.89-.26,2.84-.1.14-.19.13-.27,0Z"/><path class="cls-36" d="M112.58,126.93v1.55c-.45-.45-.2-1-.25-1.57C112.39,126.77,112.49,126.79,112.58,126.93Z"/><path class="cls-37" d="M112.58,126.93h-.29v-1.57h.27Z"/><path class="cls-38" d="M116,200.43h-.27v-1.54A2.49,2.49,0,0,1,116,200.43Z"/><path class="cls-39" d="M127.34,190.66h.26v7.25c-.09.15-.18.16-.28,0C127.33,195.47,127.34,193.06,127.34,190.66Z"/><path class="cls-40" d="M127.33,197.89h.28c-.15,1.37.33,2.78-.28,4.11Z"/><path class="cls-41" d="M149.64,91.1c.18,2,.35,4,.55,6.06.06.67-.13,1-.78,1s-.76-.47-.7-1c.19-2,.39-4,.59-5.93Z"/><path class="cls-41" d="M114,91.94c.13,1.72.24,3.44.41,5.16,0,.61,0,1-.67,1s-.91-.34-.83-1c.21-1.82.39-3.64.59-5.45C113.79,91.42,113.85,91.72,114,91.94Z"/><path class="cls-42" d="M114,91.94l-.5-.32V90.39c.34-.25.38.1.51.29Z"/><path class="cls-43" d="M114,90.66l-.51-.29c0-.24,0-.61.32-.5S114,90.39,114,90.66Z"/><path class="cls-44" d="M131.66,206.1c0,3.92.21,7.84.56,11.74a10.42,10.42,0,0,1,0,1.58c0,.49.15,1.17-.62,1.12s-.53-.64-.53-1.08V213c0-2.5,0-5,.07-7.51C131.67,205.3,131.4,206,131.66,206.1Z"/><path class="cls-45" d="M131.66,206.1l-.54-.61V201.7C131.84,203.09,131.64,204.66,131.66,206.1Z"/><path class="cls-46" d="M138,212.4v6.07c0,2.13,0,2.13-2,2.13.12-8.11.1-16.23.4-24.33.16-4.13-.05-8.27.24-12.38.39-5.53.06-11.08.53-16.6.42.42.26,1,.27,1.48,0,2.26-.07,4.51,0,6.76.3,7.59.08,15.18.36,22.75C138,203,137.9,207.66,138,212.4Z"/><path class="cls-47" d="M101.81,90.72V89c0-.34-.12-.79.36-.88a.79.79,0,0,1,1,.57.36.36,0,0,1,0,.11,10.17,10.17,0,0,1,0,3.73.89.89,0,0,1-.92.82c-.69,0-.4-.68-.43-1.07S101.81,91.24,101.81,90.72Z"/><path class="cls-9" d="M134,198.52q0,10.14-.06,20.3c0,.61.19,1.27-.23,1.82-.62-1.24-.35-2.65-.51-4-.28-2.27-.2-4.59-.32-6.89-.41-7.56-.51-15.15-1-22.71-.17-2.83-.09-5.65-.24-8.47a2.56,2.56,0,0,1,0-1.55c.13-7.8.23-15.61.38-23.41.17-8.49.38-17,.57-25.45.07-.15.14-.16.21,0,.34,6.23.22,12.48.38,18.72.17,6.71.08,13.43.31,20.14.2,5.61,0,11.23.28,16.83C134,188.77,133.83,193.66,134,198.52Z"/><path class="cls-48" d="M132.78,128.2h-.21c.07-1.27-.34-2.58.25-3.81Z"/><path class="cls-49" d="M144.66,130.71v3.46a1.22,1.22,0,0,1,.08.9.25.25,0,0,1-.34.08l0,0C144.5,133.66,144.13,132.15,144.66,130.71Z"/><path class="cls-50" d="M144.41,135.13h.26a5.51,5.51,0,0,1,0,2.85h-.23C144.42,137,144.42,136.08,144.41,135.13Z"/><path class="cls-51" d="M131.62,177.06v1.55c-.46-.44-.21-1-.25-1.55Z"/><path class="cls-6" d="M106.84,187.5c.4.47.18,1,.22,1.57C106.63,188.6,106.83,188,106.84,187.5Z"/><path class="cls-52" d="M117.77,192.21v6.73c0,.5.15,1.06-.28,1.47v-8.2Z"/><path class="cls-53" d="M121.51,173a1.94,1.94,0,0,1-.24-1.2c-.11-8.75-.14-17.5-.37-26.24-.15-6-.21-12.05-.26-18.07,0-.49.17-1.11-.53-1.26v-.16c-.06-1.63-.4-3.43,1.76-3.87l-.06.91v48.41C121.82,172.06,121.92,172.66,121.51,173Z"/><path class="cls-54" d="M144.66,138v-3.85h.27v7c0,.5.17,1-.25,1.47C144.69,141.1,144.68,139.54,144.66,138Z"/><path class="cls-24" d="M146.43,121.88l-.06,1.55A1.16,1.16,0,0,1,146.43,121.88Z"/><path class="cls-55" d="M121.51,173V124.94c0-.6-.2-1.27.26-1.8l.37.36c0,3.89-.06,7.78-.07,11.66v30.59a4.7,4.7,0,0,0-.11,1.71v25a3,3,0,0,1-.16,1.69,14.05,14.05,0,0,1-.2-4.34C121.53,184.22,121.53,178.66,121.51,173Z"/><path class="cls-44" d="M121.8,194.15v-26.6c0-.6-.21-1.26.25-1.8v36.87c-.08.15-.16.14-.23,0C121.85,199.79,121.82,197,121.8,194.15Z"/><path class="cls-56" d="M121.87,202.66h.23v4.42c-.09.15-.17.14-.23,0C121.88,205.54,121.87,204.08,121.87,202.66Z"/><path class="cls-57" d="M121.88,207h.23c-.1,1.37.39,2.79-.29,4.11Z"/><rect class="cls-58" width="250" height="250"/></svg>