<?xml version="1.0" encoding="utf-8"?>
<!-- Generator: Adobe Illustrator 25.0.0, SVG Export Plug-In . SVG Version: 6.00 Build 0)  -->
<svg version="1.1" id="Layer_1" xmlns="http://www.w3.org/2000/svg" xmlns:xlink="http://www.w3.org/1999/xlink" x="0px" y="0px"
	 viewBox="0 0 250 250" style="enable-background:new 0 0 250 250;" xml:space="preserve">
<style type="text/css">
	.st0{fill:none;}
	.st1{fill-rule:evenodd;clip-rule:evenodd;fill:#F3F4F7;}
	.st2{fill-rule:evenodd;clip-rule:evenodd;fill:#D7E0F0;}
	.st3{fill-rule:evenodd;clip-rule:evenodd;fill:#CBD8EB;}
	.st4{fill-rule:evenodd;clip-rule:evenodd;fill:#C0CFE7;}
	.st5{fill-rule:evenodd;clip-rule:evenodd;fill:#B4C6E2;}
	.st6{fill-rule:evenodd;clip-rule:evenodd;fill:#A9BDDD;}
	.st7{fill-rule:evenodd;clip-rule:evenodd;fill:#9EB4D8;}
	.st8{fill-rule:evenodd;clip-rule:evenodd;fill:#B5C6E2;}
	.st9{fill-rule:evenodd;clip-rule:evenodd;fill:#B1C3E0;}
	.st10{fill-rule:evenodd;clip-rule:evenodd;fill:#ACBFDE;}
	.st11{fill-rule:evenodd;clip-rule:evenodd;fill:#A7BBDC;}
	.st12{fill-rule:evenodd;clip-rule:evenodd;fill:#A2B7DA;}
	.st13{fill-rule:evenodd;clip-rule:evenodd;fill:#C9D6EB;}
	.st14{fill-rule:evenodd;clip-rule:evenodd;fill:#C4D2E8;}
	.st15{fill-rule:evenodd;clip-rule:evenodd;fill:#BACAE5;}
	.st16{fill-rule:evenodd;clip-rule:evenodd;fill:#AFC2E0;}
	.st17{opacity:0.2;}
	.st18{fill-rule:evenodd;clip-rule:evenodd;fill:#020202;}
	.st19{fill-rule:evenodd;clip-rule:evenodd;fill:#5E0A1A;}
	.st20{fill-rule:evenodd;clip-rule:evenodd;fill:#F5E4CE;}
	.st21{fill-rule:evenodd;clip-rule:evenodd;fill:#D64539;}
	.st22{fill-rule:evenodd;clip-rule:evenodd;fill:#B00622;}
	.st23{fill-rule:evenodd;clip-rule:evenodd;fill:#850217;}
	.st24{fill-rule:evenodd;clip-rule:evenodd;fill:#B82E21;}
	.st25{fill-rule:evenodd;clip-rule:evenodd;fill:#C73124;}
	.st26{fill-rule:evenodd;clip-rule:evenodd;fill:#E36054;}
	.st27{fill-rule:evenodd;clip-rule:evenodd;fill:#BF112E;}
	.st28{fill-rule:evenodd;clip-rule:evenodd;fill:#FA9C93;}
	.st29{opacity:0.5;}
	.st30{opacity:0.5;fill-rule:evenodd;clip-rule:evenodd;fill:#FFFFFF;}
	.st31{fill-rule:evenodd;clip-rule:evenodd;fill:#FFFFFF;}
</style>
<rect class="st0" width="250" height="250"/>
<g>
	<g>
		<path class="st1" d="M228.1,129.3v96c0,12.8-10.5,23.3-23.3,23.3H46.2c-12.8,0-23.3-10.5-23.3-23.3v-96
			c0-12.8,10.5-23.3,23.3-23.3h158.6C217.6,106,228.1,116.5,228.1,129.3z"/>
		<path class="st2" d="M226.7,126.1v102.3c0,10.3-8.4,18.7-18.7,18.7H43.1c-10.3,0-18.7-8.4-18.7-18.7V126.1
			c0-10.3,8.4-18.7,18.7-18.7H208C218.3,107.4,226.7,115.8,226.7,126.1z"/>
		<g>
			<path class="st2" d="M221.1,126.9v100.7c0,7.7-6.3,14-14,14H43.9c-7.7,0-14-6.3-14-14V126.9c0-7.7,6.3-14,14-14h163.3
				C214.8,113,221.1,119.3,221.1,126.9z"/>
			<path class="st3" d="M220.6,127v100.6c0,7.5-6.1,13.6-13.6,13.6H43.9c-7.5,0-13.6-6.1-13.6-13.6V127c0-7.5,6.1-13.6,13.6-13.6
				h163.2C214.5,113.5,220.6,119.6,220.6,127z"/>
			<path class="st4" d="M220.2,127.1v100.4c0,7.2-5.9,13.1-13.1,13.1H44c-7.2,0-13.1-5.9-13.1-13.1V127.1c0-7.2,5.9-13.1,13.1-13.1
				h163C214.2,113.9,220.2,119.9,220.2,127.1z"/>
			<path class="st5" d="M219.7,127.2v100.3c0,7-5.7,12.7-12.7,12.7H44.1c-7,0-12.7-5.7-12.7-12.7V127.2c0-7,5.7-12.7,12.7-12.7
				h162.9C214,114.4,219.7,120.2,219.7,127.2z"/>
			<path class="st6" d="M219.2,127.2v100.1c0,6.8-5.5,12.3-12.3,12.3H44.1c-6.8,0-12.3-5.5-12.3-12.3V127.2
				c0-6.8,5.5-12.3,12.3-12.3h162.7C213.7,114.9,219.2,120.5,219.2,127.2z"/>
		</g>
		<path class="st7" d="M218.7,127.3v100c0,6.5-5.4,11.9-11.9,11.9H44.2c-6.5,0-11.9-5.4-11.9-11.9v-100c0-6.5,5.4-11.9,11.9-11.9
			h162.6C213.4,115.4,218.7,120.7,218.7,127.3z"/>
		<g>
			<path class="st8" d="M208.1,134.9v84.8c0,3.8-3.1,6.9-6.9,6.9H49.8c-3.8,0-6.9-3.1-6.9-6.9v-84.8c0-3.8,3.1-6.9,6.9-6.9h151.5
				C205,128,208.1,131.1,208.1,134.9z"/>
			<path class="st9" d="M207.6,135v84.7c0,3.6-2.9,6.5-6.5,6.5H49.8c-3.6,0-6.5-2.9-6.5-6.5V135c0-3.6,2.9-6.5,6.5-6.5h151.3
				C204.7,128.5,207.6,131.4,207.6,135z"/>
			<path class="st10" d="M207.1,135v84.5c0,3.3-2.7,6-6,6H49.9c-3.3,0-6-2.7-6-6V135c0-3.3,2.7-6,6-6h151.2
				C204.4,129,207.1,131.7,207.1,135z"/>
			<path class="st11" d="M206.7,135.1v84.4c0,3.1-2.5,5.6-5.6,5.6H50c-3.1,0-5.6-2.5-5.6-5.6v-84.4c0-3.1,2.5-5.6,5.6-5.6H201
				C204.1,129.5,206.7,132,206.7,135.1z"/>
			<path class="st12" d="M206.2,135.2v84.3c0,2.9-2.3,5.2-5.2,5.2H50.1c-2.9,0-5.2-2.3-5.2-5.2v-84.3c0-2.9,2.3-5.2,5.2-5.2H201
				C203.8,129.9,206.2,132.3,206.2,135.2z"/>
		</g>
		<path class="st7" d="M205.7,135.2v84.1c0,2.6-2.2,4.8-4.8,4.8H50.1c-2.6,0-4.8-2.2-4.8-4.8v-84.1c0-2.6,2.2-4.8,4.8-4.8h150.8
			C203.5,130.4,205.7,132.6,205.7,135.2z"/>
		<path class="st13" d="M225.6,155.4c0,0.8,0,22.2-1.7,18.8c-2-4-1.4-7.6-1.2-12.1c0.1-2.3,0.3-4.6,0.3-6.9
			c-0.1-4.3-0.3-8.3-0.3-12.7c0-5.4,0.5-16.3-2.1-20.8c-0.4-0.6-4.1-6-2.3-6.2c1.4-0.1,4.3,3.7,4.9,5.1c2.6,5.2,2.1,13.9,2.3,19.8
			C225.6,145.3,225.5,150.3,225.6,155.4z"/>
		<path class="st14" d="M175.4,113.1c-12.9,0-24.6-0.3-37.6-0.2c-14.5,0.1-30.2,0-44.7-0.5c-17.3-0.6,2.8-1.6,7.1-1.7
			c14.1-0.3,29.3-0.2,43.5-0.3c3.8,0,57.6-0.1,46.8,2C187,113,179.3,113.1,175.4,113.1z"/>
		<path class="st15" d="M40.7,227.9c-2.7-3.8-2.8-10.4-3.4-15c-1-8.3-0.3-16.8-1.3-25c0-0.4-0.3-4.1-1.5-3.1
			c-1.2,1-0.8,16.9-0.9,19.1c-0.1,6.2,0.1,12.3,0,18.6C34,238.5,42.6,238,56,237.8c0.9,0,5.8,0,5.4-1.7c-0.3-1.4-8.8-2.3-10.5-2.7
			C46.9,232.4,43.6,231.1,40.7,227.9z"/>
		<path class="st16" d="M213.3,119.6c-0.9-0.6-1.7-1-2.6-1.5c-1.7-0.7-8.2-2.4-9.1-0.2c-0.8,2,2.6,3.8,3.7,5.1
			c2.5,3.3,0.4,3.7,4.8,7.3c2.1,1.7,2.5,2.9,4.1,4.6c4.1,4.2,3.7-5.1,3.4-7.1C217.1,124.5,215.9,121.7,213.3,119.6z"/>
	</g>
	<g class="st17">
		<path class="st18" d="M65.2,134.3c-21.3,7.8-17.7,10.5-23.5,30.3c-3.4,11.5-2.5,12.9-1.4,24.5c0.4,4.6,0.9,7.5,0.7,12.1
			c0,0.7-0.1,1.4-0.1,2.2c-0.2,3.7-1,12,0.3,15.1c1.6,3.9,6.6,4.5,10.3,5c1.4,0.2,4.4,0.7,5.8,0.5c3.1-0.4,3.8-1.4,7,0.3
			c1.4,0.7,2.1,1.2,3.7,1.5c5.6,1.1,10.9,1.9,16.6,2.4c1,0.1,2,0.2,3.1,0.3c5.1,0.5,7.6,1.4,12.7-0.2c6.8-2.2,5.8-1.3,12.4,0.3
			c5.8,1.3,13.4,1.2,19.5,1.3c9.2,0.1,13.9-0.8,22.4-4.2c1.9-0.8,3.8-1.5,5.8-2.2c2-0.6,3.7-1.2,5.8-0.6c1,0.3,1.4,0.3,2.5,0.4
			c3.1,0.3,1.4,1.9,4,2.5c0.7,0.2,1.4,0.2,2.2,0.3c3.5,0.4,7.5,0.1,10.9-0.2c5.9-0.6,6.5-4.4,7.8-9.5c0.4-1.4,0.7-2.8,1.1-4.2
			c1-3.7,2.2-7.7,2.9-11.5c0.6-3.5,1.8-6.3,2.4-9.8c0.1-0.6,0.2-1.1,0.3-1.7c0.4-1.9,0.7-3.3,1-5.2c0.5-3.1,1.2-5.7,1.3-8.9
			c0.1-2.9,0-5.3-0.1-8.2c-0.1-1.9,0.2-3.2,0.4-5c0.3-2.6-2.4-3.7-4.5-4.4c-1.3-0.4-2.3-0.6-3.7-0.6c-1.9,0-3.9,0.3-5.8,0.4
			c-8.6,0.4-10.8,0.7-19-2.7c-7.6-3.2-10.8-5.6-19.4-6.8c-11-1.2-13.1-1.6-22.2-8.6c-8.9-7-12.5-7.4-23.4-9.1
			C90.2,127.9,79,129.5,65.2,134.3L65.2,134.3z"/>
	</g>
	<g>
		<path class="st19" d="M68.4,129.9c-21.3,7.8-17.7,10.5-23.5,30.3c-3.4,11.5-2.5,12.9-1.4,24.5c0.4,4.6,0.9,7.5,0.7,12.1
			c0,0.7-0.1,1.4-0.1,2.2c-0.2,3.7-1,12,0.3,15.1c1.6,3.9,6.6,4.5,10.3,5c1.4,0.2,4.4,0.7,5.8,0.5c3.1-0.4,3.8-1.4,7,0.3
			c1.4,0.7,2.1,1.2,3.7,1.5c5.6,1.1,10.9,1.9,16.6,2.4c1,0.1,2,0.2,3.1,0.3c5.1,0.5,7.6,1.4,12.7-0.2c6.8-2.2,5.8-1.3,12.4,0.3
			c5.8,1.3,13.4,1.2,19.5,1.3c9.2,0.1,13.9-0.8,22.4-4.2c1.9-0.8,3.8-1.5,5.8-2.2c2-0.6,3.7-1.2,5.8-0.6c1,0.3,1.4,0.3,2.5,0.4
			c3.1,0.3,1.4,1.9,4,2.5c0.7,0.2,1.4,0.2,2.2,0.3c3.5,0.4,7.5,0.1,10.9-0.2c5.9-0.6,6.5-4.4,7.8-9.5c0.4-1.4,0.7-2.8,1.1-4.2
			c1-3.7,2.2-7.7,2.9-11.5c0.6-3.5,1.8-6.3,2.4-9.8c0.1-0.6,0.2-1.1,0.3-1.7c0.4-1.9,0.7-3.3,1-5.2c0.5-3.1,1.2-5.7,1.3-8.9
			c0.1-2.9,0-5.3-0.1-8.2c-0.1-1.9,0.2-3.2,0.4-5c0.3-2.6-2.4-3.7-4.5-4.4c-1.3-0.4-2.3-0.6-3.7-0.6c-1.9,0-3.9,0.3-5.8,0.4
			c-8.6,0.4-10.8,0.7-19-2.7c-7.6-3.2-10.8-5.6-19.4-6.8c-11-1.2-13.1-1.6-22.2-8.6c-8.9-7-12.5-7.4-23.4-9.1
			C93.5,123.5,82.2,125.1,68.4,129.9L68.4,129.9z"/>
	</g>
	<g>
		<path class="st20" d="M70.3,125.9c-21.2,7.8-17.6,10.5-23.5,30.3c-3.4,11.5-2.5,12.9-1.4,24.5c0.4,4.6,0.9,7.5,0.7,12.1
			c0,0.7-0.1,1.4-0.1,2.2c-0.2,3.7-1,12,0.3,15.1c1.6,3.9,6.6,4.5,10.3,5c1.4,0.2,4.4,0.7,5.8,0.5c3.1-0.4,3.7-1.4,7,0.3
			c1.4,0.7,2.1,1.2,3.7,1.5c5.6,1.1,10.9,1.9,16.5,2.4c1,0.1,2,0.2,3.1,0.3c5.1,0.5,7.6,1.4,12.6-0.2c6.8-2.2,5.8-1.3,12.3,0.3
			c5.8,1.3,13.4,1.2,19.4,1.3c9.1,0.1,13.9-0.8,22.3-4.2c1.9-0.8,3.8-1.5,5.8-2.2c2-0.6,3.7-1.2,5.8-0.6c1,0.3,1.4,0.3,2.5,0.4
			c3.1,0.3,1.4,1.9,4,2.5c0.7,0.2,1.4,0.2,2.2,0.3c3.5,0.4,7.4,0.1,10.9-0.2c5.9-0.6,6.5-4.4,7.8-9.5c0.4-1.4,0.7-2.8,1.1-4.2
			c1-3.7,2.2-7.7,2.9-11.5c0.6-3.5,1.8-6.3,2.4-9.8c0.1-0.6,0.2-1.1,0.3-1.7c0.4-1.9,0.7-3.3,1-5.2c0.5-3.1,1.2-5.7,1.3-8.9
			c0.1-2.9,0-5.3-0.1-8.2c-0.1-1.9,0.2-3.2,0.4-5c0.3-2.6-2.3-3.7-4.4-4.4c-1.3-0.4-2.3-0.6-3.7-0.6c-1.9,0-3.8,0.3-5.8,0.4
			c-8.6,0.4-10.8,0.7-19-2.7c-7.6-3.2-10.8-5.6-19.4-6.8c-11-1.2-13-1.6-22.1-8.6c-8.8-7-12.5-7.4-23.4-9.1
			C95.3,119.5,84.1,121.2,70.3,125.9L70.3,125.9z"/>
		<path class="st21" d="M121.5,126.5c-6.2-2-11.6-2.8-18.1-2.1c-2.5,0.2-8,0.1-10,1.2c-1.2,0.7-2.1,2.6-2.9,3.7
			c-1.1,1.5-2.3,2.9-2.8,4.7c-0.4,2-0.1,3.6-0.2,5.5c-0.2,2.2-2.6,4.9-3.1,7.8c-0.1,0.3-0.1,0.7-0.1,1l0,0.2c0,0.5-0.4,5.1-0.5,5.4
			c-0.2,0.4-0.6-0.3-0.7-0.5c-0.5-1.3,0-5.7,0.3-7.2c0.1-0.3,0.1-0.5,0.2-0.8c0.9-2.6,2-3.4,2.4-6.4c0.3-1.7,0.3-2.6,0.3-4.3l0-0.3
			c0.1-3.5,2.6-4.6,3.1-7.7c0.3-1.9-1.2-2-2.6-1.9c-0.9,0-2,0.2-2.9,0.2c-4.2,0.3-8.1,1.6-12,3l-0.6,0.2c-4.6,1.6-9.2,3.6-12.7,7.2
			c-2,2.1-3.1,1.8-3.5,5.1c-0.2,1.5-0.4,2.2-0.8,3.6c-0.7,2.5-1.2,5.1-1.9,7.7c-0.6,2.5-1.2,4.9-1.7,7.4c-0.4,1.9-1.9,4.4-0.9,6.2
			c0.7,1.2,0.9,1.6,0.8,3.1c-0.1,1.2-0.4,2.3-0.6,3.5c-0.4,1.9-1,3.7-1.5,5.6c-0.1,0.6-0.3,1.2-0.4,1.7c-0.1,0.3-0.2,0.7-0.3,1
			c-0.1,0.4-0.2,0.8-0.3,1.2c-0.5,2.8,1.6,1.5,2.8,3.4c0.2,0.4,0.4,0.7,0.6,1.1c1.1,1.9,1.5,2.9,2.1,5l0,0.1
			c0.9,3.4,1.3,6.9,1.9,10.4c1.4,7.2,4,4.6,8.6,8.8c4,3.7,3.3,0.8,8.1-0.3c6.3-1.2,10.5-1.3,16.9-0.4c2.2,0.2,3.7,0.1,4.1-2.4
			c0.1-0.4,0.1-1.8,0.9-1.6c0.6,0.2,0.8,2,1,2.6c0.3,0.9,0.7,2.2,1.4,2.9c0.2,0.2,0.4,0.3,0.7,0.5c0.9,0.4,1.8,0.7,2.7,1.1
			c0.9,0.5,1.7,1.1,2.6,1.8c4.7,2.7,8.4,1.7,13.5,1.8c4.8,0.1,6-1.4,8.2-5.5c1.7-3.6,2-5.9,2.3-9.7c0.2-2.1-0.1-4.6-0.1-6.8
			c0-0.6,0-1.3,0-1.9c0-0.7,0-1.3-0.1-2c-0.5-3.7-1.1-4.5-4.3-6.3c-2.1-1.2-0.7-1.8,1-1.8c2.6,0.1,4,0.4,5.3-2.3
			c1-2,1.4-3.6,2.2-5.6c0.6-1.7,2.2-3.9,3.3-5.3c1.6-2,2.3-3,1.3-5.6l-0.1-0.2c-1.2-2.8-0.9-3.5-0.1-6.4c1-3.6,1.4-5.7,1.4-9.5
			c-0.1-3.7-0.7-7.3-2.1-10.8C131.2,130.9,126.8,128.6,121.5,126.5L121.5,126.5z M88.5,184.7c2,1.3,5.1-1.2,6.7-2.3
			c0.5-0.3,0.9-0.6,1.4-0.9c3.2-1.9,4.8-2.2,8.6-1.6c0.7,0.1,4.3,0.8,4.4,1.6c-0.6,0.4-4.7,0-5.7,0c-6,0.1-9.6,2.3-13,7.2
			c-1.3,1.8-0.9,3.4-0.1,5.3c0.1,0.3,0.3,0.6,0.4,0.9c0.9,2,0.9,2.6,1.3,4.7c1,4.3-0.4,2.3-1.5-0.3c-0.3-0.8-0.6-1.5-1-2.2
			c-0.3-0.6-0.6-1.2-0.9-1.8c-0.1-0.3-0.2-0.5-0.3-0.8c-0.9-2.6-1.4-3.5-3.7-5.1c-0.6-0.4-2.1-0.9-2.4-1.4c-0.8-1,1.6-1.5,2.1-2.3
			c0.3-0.4,0.3-1,0.2-1.5c-0.1-1.8-0.8-3.9-0.9-5.8l0-0.2c-0.1-1-0.5-4.4,0.1-5.1c0.9-1,1.5,4.6,1.6,5
			C86.2,180.3,86.8,183.4,88.5,184.7L88.5,184.7z"/>
		<path class="st22" d="M136.2,165.7c-0.2,1.8-1.6,3.1-2.4,4.9c-1.7,3.7-2.1,7.9-3.2,11.7c-2.2,7.5-1.5,9.5-1.9,16.7
			c-0.4,5.7-2,8.1-4.1,13.2l-0.3,0.8c-0.6,1.3-1.2,2.8,0.7,2.9c6.9-0.4,18.4-1,22.3-7.6c1.7-2.7,3.4-5.4,5-8.1
			c0.7-1.2,1.2-1.7,2.1-2.8c0.6-0.7,1.1-1.6,1.6-2.4c1.2-1.7,1.2-2.3,1.9-4.1c0.3-0.9,0.8-1.6,1.1-2.6c0.1-0.3,0.2-0.6,0.3-0.8
			c0.1-0.4,0.9-3.3,1.8-2.2c1,1.3-0.3,3.3-0.9,4.6c-0.8,1.7-1.6,3.8-2.8,5.3c-1.1,1.5-1.9,2.4-2.7,4.1c-0.2,0.4-0.4,0.8-0.6,1.2
			c-0.3,0.6-0.5,1-0.7,1.6c-0.3,1.1-0.3,1.9-0.8,2.9c-0.9,1.5-3.4,5.3-0.6,6.2l0.5,0.1c1.9,0.3,7.9-0.1,10.3-0.2
			c5.2-0.2,10.3-0.3,15.5-0.3c4.1,0,13.3,0,16.2-3.1c1.6-2,2.9-8.7,3.6-11.4c0.8-3.5,0.9-5.7,1.2-9.1c1-7.6,3-13.6,4.9-20.8
			c0.9-3.8,1.1-7.1,1.8-10.8c0.6-2.9,0.8-4.1-2.5-5c-2.3-0.6-4.8-0.5-7.2-0.2c-1.8,0.3-3.6,0.6-5.4,0.9l-0.6,0.1
			c-3.9,0.4-5.3,0.3-9.1-0.5c-2.1-0.5-6.4-1.7-7.5,1c-0.9,2.2-0.9,4.7-2,7.1l-0.1,0.2c-1.6,3.5-2.4,4-2.6,8.1
			c-0.1,2.4-0.3,4.8-2.2,6.5c-0.5,0.4-0.8,0.5-1.3,0.7c-0.8,0.1-0.6-0.1-0.4-0.7c1.1-3.2,2.4-2.8,2.6-6.8c0.2-4.2,0.8-4.6,2.1-8.4
			c0.8-2.3,0.9-3.6,0.9-5.9c0-2.3,0.9-4.4-1.5-5.9c-1.4-0.9-3.5-1.6-5-2.2c-6.4-2.6-8.6-2.1-15.1-2.7c-4.8-0.4-7.4-2.5-11.3-4.8
			c-4.4-2.5-2,2.5-1.3,4.3c1.4,4.3,3.1,9.5,2.2,14.1c-0.5,2.3-1.1,3.4-1.9,5.5C136,162.6,136.4,163.7,136.2,165.7L136.2,165.7z"/>
		<path class="st23" d="M71.5,211.4c-6.1,1.1-2.1,3.2,1.4,4c3.8,0.8,7.6,1.2,11.4,2c1.1,0.2,2.3,0.5,3.4,0.7
			c1.2,0.2,2.3,0.3,3.6,0.5c2,0.4,4.2,0.7,6.2,0.9c0.5,0,1,0.1,1.5,0.1c1.4,0,2.8,0,4.2-0.4c0.6-0.2,1-0.4,1.4-0.7
			c1.4-1.2-1.5-2.1-2.3-2.5c-1.7-0.8-3.1-1.9-4.9-2.7c-2.1-0.9-1.8-0.7-3.2-2.4c-1.1-1.2-2-0.3-3.5-0.2c-1.4,0.1-2.9-0.2-4.2-0.3
			l-0.2,0C81.4,210,76.3,210.5,71.5,211.4L71.5,211.4z"/>
		<path class="st23" d="M139.4,214.7l0.5-0.1c2.6-0.5,3.6-0.3,5.8-2c1.6-1.3,2.6-1.5,4.6-0.7c2.5,1.1,3.1,0.9,5.7,0.5
			c1.8-0.3,3.7-0.6,5.6-0.4l0.3,0c0.7,0.1,1.7,0.3,1.7,1.1c-0.1,0.7-1,1-1.5,1.3c-6.1,2.7-15.5,5.7-22.2,5.6l-0.6,0
			c-3.2-0.1-6-0.1-9.2-0.5c-1.2-0.2-2.4-0.3-3.6-0.6c-3.4-0.7-1.7-1.5,0.5-1.9c1.6-0.3,2.7-0.3,4.3-0.4c3-0.2,4.1-1.1,6.8-1.6
			C138.5,214.8,138.9,214.8,139.4,214.7L139.4,214.7z"/>
		<path class="st24" d="M51.8,191.1c-0.2-0.8-1.8-6.2-3.1-5.7c-0.6,0.2-0.5,2.7-0.6,3.4c0,0.4,0,0.7-0.1,1.1
			c-0.4,4.5-0.6,9.5-0.5,14c0,1.3,0.1,4.6,0.8,5.7c2.4,3.4,8.1,4.8,12.1,4.7c5.2-0.1,2.4-3.4-0.3-5.1c-2.9-1.8-4.7-2.3-5.9-6
			c-0.9-2.8-1-6.2-1.6-9.2C52.4,193.1,52.1,192.1,51.8,191.1L51.8,191.1z"/>
		<path class="st25" d="M86.7,175.1c-0.1-0.8-0.2-3.3-0.5-3.8c-0.8-1.3-2.9,0.5-2.7-3.2c0.1-1.5,0.2-2.1,0.1-3.6
			c-0.2-1.8-0.3-3.5-0.5-5.3c-0.2-1.4-0.4-2.2,1-3c1.5-0.8,1.7-1.5,2-3.1c0.5-2.1,0.8-4,1.1-6.1c0.1-0.7,0.2-1.3,0.4-2
			c0.1-0.4,0.2-0.7,0.3-1.1c1.3-4.3,1.7-6.7,4.1-10.8c1.6-2.3,6-5.8,8.7-6.6c2.6-0.7,0.8,1.3,0.3,2.3c-0.5,1-0.9,3.7-0.7,4.7
			c0.2,1.1,1.1,2.6,1.5,3.7c0.5,1.1,0.4,1.8,0.2,3c-0.3,2.1,0.6,3.2,1.2,5.1c0.1,0.3,0.1,0.5,0.3,0.7c0.7,1.5,1.3,1.9,1.2,3.8
			c-0.1,1.1-0.5,2.4-0.7,3.5c0,0.2-0.1,0.5-0.1,0.7c-0.5,2.2-1.7,2.2-0.9,5.1c0.4,1.6,1.6,4,1.2,5.6c-0.2,0.8-0.5,1.4-0.7,2.3
			c-0.2,0.9-0.2,1.4-0.5,2.4c-0.1,0.2-0.1,0.4-0.2,0.6c-0.4,1.2-0.3,1.9,0.6,2.8c1.1,1.2,3.1,2.3,3.8,3.5c0.9,1.7-2,1-2.8,0.9
			c-2.8-0.3-3.9,0.5-6.3,1.3c-2.6,0.9-3,1.6-5.1,3c-2.5,1.6-3.6,2.3-5-1C87,178.9,86.9,177,86.7,175.1L86.7,175.1z"/>
		<path class="st26" d="M126.5,136.6c0.7-2.1-0.5-3.8,0-4.6c0.6-1.1,2.7,1,3.2,1.5c1.6,1.8,2.6,3.6,3.3,5.9c0.1,0.3,0.2,0.5,0.2,0.7
			c0.7,2.4,0.9,4.9,1,7.4c0.1,2-0.4,3.9-0.8,5.8c-0.3,1.3-0.6,2.6-0.9,3.8c-0.6,2.1-0.6,2.9,0.1,4.9c0.3,1,1,3.1,0.4,4.1
			c-0.6,0.8-2,1.9-2.8,2.7c-0.7,0.8-1.5,2.7-2.1,3.2c-1.3,1.1-1.6-2.8-1.6-3.5c0-0.9,0.1-1.8,0.1-2.7c0-0.5,0-0.9-0.1-1.3
			c-0.1-0.5-0.3-0.9-0.6-1.4c-0.6-0.8-1-1.2-1.7-2c-1.8-2,0.6-2.8-0.7-5.7c-0.6-1.4-1.2-2.5-0.3-3.9c0.2-0.4,0.5-0.8,0.8-1.2
			c0.8-1.3,0.6-1.6,0.3-3c-0.3-2,1.4-2.2,1.2-5c-0.1-1.7-0.3-2.1,0.3-3.8c0.2-0.6,0.5-1.2,0.7-1.8L126.5,136.6z"/>
		<path class="st25" d="M73.8,199.4c-0.8,0.2-1.6,0.4-2.4,0.6c-2.8,0.8-8.3,3.5-10.8,2.6c-2.6-1-3.2-5.2-3.6-7.6
			c-0.8-5.8-0.1-7.1-4-12c-3.4-4.2-0.4-6.9,0.6-11.6c0.6-2.7,0.9-4.7-0.3-7.3c-1.6-2.7-0.7-3.9,0.2-6.6c2.6-7.6,5.8-14.1,12.1-19.3
			c1.7-1.4,3.5-2.6,5.4-3.8c2.1-1.3,10.2-5.5,6.4,0.9c-5,8.5-5.6,10.6-6.1,20.5c-0.2,6.2,2.9,7.5,3.8,13.5c0.4,2.4,1.2,8.5,0.8,10.8
			c-0.6,3.1-3.6,8-3,10.3C74.1,194.5,81.5,197.3,73.8,199.4L73.8,199.4z"/>
		<path class="st27" d="M133,212.3c-1.5,0.6-4.4,2-5.6,0.3c-0.3-2.3,2.8-8.6,3.1-11.8c0.5-5.5-1.1-8.2,0.9-14.2
			c1-3.2,1.1-4.1,1.5-7.3c0.9-3.8,1.9-4,3.3-7.1c1.8-4.2,0.3-9.6,3.1-13.8c1.9-2.9,2.1,1.3,2.1,2.5c-0.1,2.2-0.6,4.5,1.1,6.1
			c1.3,1.2,1.6,1.5,1.1,3.5c-0.8,3.3-3.3,6.8-2.5,10.3c0.5,1.7,1.9,1.5,3.2,1c2.3-1,3.3-1.5,3.1,1.8c-0.3,3.9-2.4,7.3-2.3,11.4
			c0.3,4.4,5.9-3.7,7.2-1c0.9,1.9-3.5,8.1-4.7,9.7c-3.5,4.8-3.1,5.8-9.4,7.3C136.4,211.2,134.8,211.6,133,212.3L133,212.3z"/>
		<path class="st28" d="M124.7,184.5c-0.8-0.5-0.7-0.9,0.2-0.8c1.8,0,2.4-0.7,3.2-2.1c0.4-0.6,0.6-1.4,0.9-2
			c0.4-0.7,0.6-0.3,0.5,0.3c-0.2,1-0.4,1.6-0.7,2.6c-0.2,0.7-0.2,1.7-0.3,2.4l0,0.1c-0.2,1.1-0.5,1.2-0.9,2.2
			c-0.3,1.4-0.1,2.8-0.1,4.2c0.1,1.5,0.2,2.7,0.2,4.2c0,0.2,0,0.3,0,0.5c0,0.3,0,2.5-0.4,2.4c-0.4-0.1-0.4-2.4-0.4-2.8
			c0.3-2.2,0.3-2.3-0.2-4.5c-0.2-0.9-0.3-2.2-0.4-3.1c0-0.2,0-0.4-0.1-0.6c-0.1-0.8-0.2-1.8-0.8-2.4
			C125.3,184.9,125,184.7,124.7,184.5L124.7,184.5z"/>
		<path class="st28" d="M86.4,185.3c-0.1-0.4-1-3.3-0.7-3.5c0.4-0.3,1,2.7,1,3c0.3,1,0.6,1.9,1.7,2.3c0.7,0.2,1.1,0,1.7-0.2
			c0.4-0.1,0.9-0.2,0.4,0.4c-0.6,0.6-1.2,0.9-1.5,1.7c-0.2,0.5-0.1,1.1,0,1.6c0.2,1.1,0.7,2,1.1,3.1c0.3,0.6,0.4,1.2,0.4,1.9
			c0,0.6-0.3,0.3-0.5,0c-0.5-1.1-0.7-2.3-1.1-3.5c-0.4-1.1-0.9-2.4-2-2.9c-0.5-0.2-2-0.5-2.3-0.8c-0.1-0.1,0-0.3,0-0.4
			c0.2-0.2,0.7-0.3,1-0.4c1.1-0.3,1.1-0.7,0.9-1.8C86.5,185.6,86.4,185.4,86.4,185.3L86.4,185.3z"/>
		<path class="st28" d="M117.3,219c-1.5-0.2-2.9-0.6-4.4-0.9c-0.4-0.1-2.8-0.4-1.3-0.9c1.2-0.4,3.8-0.3,5.3-0.4
			c0.6-0.1,1.2-0.1,1.8-0.2c1.5-0.1,1.6-0.3,2.8-1.1c1.8-1.1,1,1.6,1.3,2.5c0.4,1,1.9,2.2-0.7,1.7c-0.9-0.2-1.6-0.3-2.6-0.4
			C118.7,219.2,118,219.2,117.3,219L117.3,219z"/>
		<path class="st26" d="M162.7,147.2c-0.6-0.8-2.7-2-2.9-2.4c-0.3-1,3.9,0.2,4.2,0.3c1.5,0.5,4.6,1.5,5.6,2.6c1.1,1.4,0.6,3,0.6,4.7
			c0,2.5-0.4,5.5-2.1,7.4c-1.3,1.5-1-2.2-0.9-2.7c0.3-4.1-3.4-4.6-3.8-7.8C163.4,148.4,163.4,148.1,162.7,147.2L162.7,147.2z"/>
		<path class="st27" d="M170.6,165.1c0.5-3,2-4.7,2.9-7.6c0.2-0.7,2-6.6,2.6-2.8c0.3,1.9,0,3.5-0.1,5.3c-0.1,1.5,0.3,2.1,1.4,3.1
			c2.6,2.4,0.3,7.1,2.1,7.4c1.8,0.3,4.4-8.1,4.7-4.5c0.2,2.6-2.1,10.6-2.9,13.6c-0.5,1.9-1,3.8-1.4,5.8c-0.2,0.8-0.4,1.9-0.3,2.7
			c0.5,2.5,4.9-1.6,2.8,4.4c-0.3,0.8-1.8,5.1-2.5,5.3c-2.1,0.4-1.9-3-3.2-1.8c-1.1,1.2-3.7,9.2-4.7,9.4c-1,0.2-0.4-4.2-0.4-5
			c0-1,0-2.1-0.7-2.9c-0.9-0.8-0.8-0.7-1-2c-0.2-2.4,0.8-7.4,0.1-9.1c-0.9-2.2-3-0.2-4-2c-0.8-1.4-1.1-4.6-3-4.6
			c-0.6,0-1.3,0.2-1.8,0.4c-1.6,0.5-2.2,0.3-1.8-1.6c0.2-1,2.2-6.2,3.5-5.2c1,0.7,1.3,4.1,4.1,2.3c0.6-0.4,1-0.9,1.4-1.5
			c1.2-2.1,1.8-4.8,2-7.2c0-0.5,0.1-1.1,0.1-1.6L170.6,165.1z"/>
		<path class="st28" d="M192.8,209.5c0.5-0.2,3-1.8,3.1-0.5c0.1,1.1-1.7,2.5-1.6,3.9l0,0.2c0.2,1,0.2,1.5-0.9,2
			c-0.8,0.4-1.8,0.6-2.7,0.9c-2.1,0.7-3.3,0.4-5.4,0.6l-0.2,0c-1.3,0.1-2.7,0-4,0c-1.1,0-3.1,0.3-3.9-0.5c-1-0.9-0.3-1.5-2.3-2
			c-1.7-0.4-3.2-0.7-4.9-1c-0.4-0.1-1.8-0.3-1.7-1c0.1-1.1,3.8-0.8,4.6-0.8c0.4,0,0.8,0,1.2,0c1.2-0.1,1.9-0.1,3.1,0
			c1.2,0.1,1.9,0.1,3.1,0c1-0.1,2.1-0.1,3.1-0.2c1.1-0.1,2.1-0.1,3.2-0.2C189.2,210.9,190.7,210.5,192.8,209.5L192.8,209.5z"/>
		<path class="st28" d="M181.5,172.3C181.7,172.3,181.7,172.3,181.5,172.3C181.2,172.2,181.2,172.3,181.5,172.3L181.5,172.3z"/>
		<path class="st28" d="M191.8,155.9c0.1,0,0.3,0.1,0.2,0.2c-0.1,0.1-0.2,0.2-0.3,0.1c-0.1,0-0.2-0.1-0.2-0.2
			C191.6,155.9,191.8,155.9,191.8,155.9L191.8,155.9z"/>
		<path class="st28" d="M197.6,160.4c-0.3-0.2,0.1-1.2,0.4-1C198.2,159.6,197.8,160.6,197.6,160.4L197.6,160.4z"/>
		<path class="st28" d="M194.1,165.3c-0.2-0.1-0.3-0.4-0.2-0.7c0.1-0.2,0.3-0.4,0.6-0.3c0.2,0.1,0.3,0.4,0.2,0.7
			C194.5,165.3,194.3,165.5,194.1,165.3L194.1,165.3z"/>
		<path class="st28" d="M187.8,173c-0.1,0-0.3-0.1-0.3-0.1c0.1-0.2,0.1-0.3,0.3-0.3c0.1,0,0.2,0.1,0.2,0.3
			C188.1,173,187.9,173,187.8,173L187.8,173z"/>
		<path class="st28" d="M189,156.7c-0.5-0.2-0.2-0.6,0.3-0.5C189.8,156.4,189.5,156.9,189,156.7L189,156.7z"/>
		<path class="st28" d="M186.5,166.4c-0.4-0.1-0.6,0.3-0.7,0.6c-0.1,0.3,0,0.8,0.3,0.9c0.4,0.1,0.6-0.4,0.7-0.6
			C187,166.9,186.9,166.5,186.5,166.4L186.5,166.4z"/>
		<path class="st28" d="M190.3,165.3c0.2,0.1,0.4-0.2,0.5-0.4c0.1-0.2,0-0.5-0.2-0.6c-0.2-0.1-0.4,0.2-0.5,0.4
			C190,164.9,190.1,165.2,190.3,165.3L190.3,165.3z"/>
		<path class="st28" d="M192.6,159c-0.4,0-0.5,0.9-0.1,0.9C192.8,160,193,159.1,192.6,159L192.6,159z"/>
		<path class="st28" d="M192.6,172.5c-0.4-0.1-0.6,0.3-0.6,0.5c0,0.2,0.1,0.4,0.3,0.4c0.3,0.1,0.6-0.1,0.6-0.4
			C192.9,172.8,192.9,172.6,192.6,172.5L192.6,172.5z"/>
		<path class="st28" d="M198,156.1c0.1,0,0.3-0.1,0.3-0.2c0-0.2-0.1-0.3-0.3-0.3c-0.1,0-0.2,0.1-0.3,0.2
			C197.8,156,197.9,156.1,198,156.1L198,156.1z"/>
		<path class="st28" d="M195.4,169.4c-0.3-0.2-0.6,0.5-0.3,0.7C195.3,170.3,195.7,169.6,195.4,169.4L195.4,169.4z"/>
		<path class="st28" d="M202.2,164.2c-0.3-0.2,0.2-1.4,0.5-1.2C203,163.3,202.5,164.5,202.2,164.2L202.2,164.2z"/>
		<path class="st28" d="M198.8,169.8c-0.2,0-0.2-0.3-0.2-0.5c0-0.2,0.2-0.4,0.4-0.3c0.2,0.1,0.2,0.3,0.1,0.5
			C199.2,169.6,199,169.8,198.8,169.8L198.8,169.8z"/>
		<path class="st28" d="M200.4,158.9c-0.5-0.2-0.2-0.8,0.3-0.7C201.2,158.3,200.9,159,200.4,158.9L200.4,158.9z"/>
		<path class="st28" d="M198.3,184.1c0.2,0.1,0.2,0.4,0.2,0.6c-0.1,0.2-0.3,0.5-0.5,0.4c-0.2-0.1-0.2-0.4-0.2-0.6
			C197.8,184.3,198,184,198.3,184.1L198.3,184.1z"/>
		<path class="st28" d="M196.9,175.8c-0.3-0.1-0.3-0.5-0.3-0.7c0-0.2,0.1-0.6,0.4-0.6c0.3,0.1,0.4,0.5,0.4,0.7
			C197.3,175.5,197.2,175.8,196.9,175.8L196.9,175.8z"/>
		<path class="st28" d="M197.7,178.5c0.2,0.1,0.2,0.3,0.2,0.5c0,0.1-0.2,0.4-0.4,0.3c-0.2-0.1-0.2-0.3-0.1-0.5
			C197.4,178.7,197.5,178.4,197.7,178.5L197.7,178.5z"/>
		<path class="st28" d="M190.4,180.1c0.3,0.1,0.5-0.2,0.6-0.5c0.1-0.3,0.1-0.7-0.2-0.8c-0.4-0.1-0.5,0.2-0.6,0.5
			C190.1,179.5,190.1,179.9,190.4,180.1L190.4,180.1z"/>
		<path class="st28" d="M187.2,175.2c-0.2-0.1-0.3-0.4-0.3-0.6c0-0.2,0.2-0.4,0.4-0.4c0.3,0.1,0.4,0.3,0.3,0.6
			C187.7,175.1,187.5,175.3,187.2,175.2L187.2,175.2z"/>
		<path class="st28" d="M181.1,176.3c0.3,0.2-0.1,1.1-0.4,0.9C180.5,177,180.8,176.1,181.1,176.3L181.1,176.3z"/>
		<path class="st28" d="M185.8,176.8c0.2,0.1,0.2,0.3,0.1,0.4c0,0.1-0.2,0.3-0.4,0.3c-0.2-0.1-0.2-0.3-0.1-0.4
			C185.5,176.9,185.6,176.8,185.8,176.8L185.8,176.8z"/>
		<path class="st28" d="M176.1,193.4c-0.3-0.1-0.5,0.3-0.5,0.5c-0.1,0.2-0.1,0.7,0.2,0.7c0.3,0.1,0.5-0.3,0.5-0.5
			C176.4,193.9,176.4,193.5,176.1,193.4L176.1,193.4z"/>
		<path class="st28" d="M190.3,197.7c-0.3,0-0.5,0.3-0.5,0.6c0,0.3,0.1,0.5,0.4,0.6c0.3,0,0.5-0.3,0.5-0.6
			C190.8,198,190.7,197.7,190.3,197.7L190.3,197.7z"/>
		<path class="st28" d="M191.5,194c0.3,0,0.5-0.4,0.6-0.7c0-0.3,0-0.7-0.4-0.7c-0.3,0-0.6,0.4-0.6,0.7
			C191.1,193.6,191.2,193.9,191.5,194L191.5,194z"/>
		<path class="st28" d="M193.4,186.1c0.2,0.1,0.2,0.4,0.2,0.6c-0.1,0.2-0.3,0.5-0.5,0.4c-0.2-0.1-0.2-0.4-0.1-0.6
			C193,186.3,193.2,186,193.4,186.1L193.4,186.1z"/>
		<path class="st28" d="M179.8,188.5c0.2,0.2-0.3,1.6-0.5,1.4C179.1,189.6,179.6,188.2,179.8,188.5L179.8,188.5z"/>
		<path class="st28" d="M182.8,183.1c-0.2-0.1-0.4,0.1-0.5,0.3c0,0,0,0.1,0,0.1c0,0.2,0,0.4,0.2,0.5c0.2,0.1,0.4-0.1,0.5-0.3
			c0,0,0-0.1,0-0.1C183.1,183.4,183,183.2,182.8,183.1L182.8,183.1z"/>
		<path class="st28" d="M188.7,186c0.4,0.1,0.5-0.8,0.1-0.9C188.4,185.1,188.3,185.9,188.7,186L188.7,186z"/>
		<path class="st28" d="M184.1,199.3c-0.2,0-0.2-0.3-0.2-0.5c0,0,0-0.1,0-0.1c0-0.1,0.2-0.4,0.3-0.3c0.2,0,0.2,0.3,0.2,0.4
			c0,0,0,0.1,0,0.1C184.4,199.1,184.2,199.4,184.1,199.3L184.1,199.3z"/>
		<path class="st28" d="M177.6,199c0.3,0.2,0,1.5-0.3,1.3C177,200.2,177.3,198.8,177.6,199L177.6,199z"/>
		<path class="st28" d="M181.3,203.8c0.7-0.1,0.4-1.1-0.2-1C180.4,202.8,180.6,203.8,181.3,203.8L181.3,203.8z"/>
		<path class="st28" d="M185.7,204.8c0.2,0,0.6-0.2,0.5-0.4c-0.1-0.3-0.4-0.4-0.7-0.4c-0.3,0-0.6,0.2-0.5,0.5
			C185.1,204.7,185.4,204.8,185.7,204.8L185.7,204.8z"/>
		<path class="st28" d="M184.4,190.8c0.4,0.2,0.5,0.5,0.4,0.8c-0.2,0.4-0.5,0.5-0.9,0.4c-0.4-0.2-0.5-0.4-0.4-0.8
			C183.7,190.8,184,190.7,184.4,190.8L184.4,190.8z"/>
		<path class="st28" d="M138.2,176.1C137.8,175.9,138.8,176.4,138.2,176.1L138.2,176.1z"/>
		<path class="st28" d="M138.1,194.2c0.3-0.7-1.3,0.4-0.1,0.1C138,194.3,138.1,194.3,138.1,194.2L138.1,194.2z"/>
		<path class="st28" d="M146.1,192.9c1.5-1.4-0.8-1.3-0.3,0C145.9,193,146,193,146.1,192.9L146.1,192.9z"/>
		<path class="st28" d="M146,186.2c-1.3,1.1,1.2,1.1,0.6-0.2C146.2,186,146.3,186,146,186.2L146,186.2z"/>
		<path class="st28" d="M144.4,178.1C144.3,178.9,145.7,178,144.4,178.1L144.4,178.1z"/>
		<path class="st28" d="M135.8,193c1.4-0.5-1.5-0.7-0.4-0.1C135.5,193,135.6,193,135.8,193L135.8,193z"/>
		<path class="st28" d="M139.3,182.7c-0.7-1.1,2.1-2.1,0.9-0.1C139.9,183.1,139.6,183.1,139.3,182.7L139.3,182.7z"/>
		<path class="st28" d="M142.7,185.1c0.4,0.8-1.4,1.4-0.6,0C142.3,184.8,142.5,184.8,142.7,185.1L142.7,185.1z"/>
		<path class="st28" d="M141.3,190.6c0.4,1.3-1.6,0.8-0.3,0C141.1,190.5,141.2,190.5,141.3,190.6L141.3,190.6z"/>
		<path class="st28" d="M149,179.9c-0.5-0.9,1.7-0.9,0.7,0.2C149.5,180.3,149.2,180.1,149,179.9L149,179.9z"/>
		<path class="st28" d="M143.7,196.9c-0.8,1.2-0.3-1.3,0-0.2C143.8,196.7,143.8,196.8,143.7,196.9L143.7,196.9z"/>
		<path class="st28" d="M150.1,182.7c1.1-0.7-0.2,1.3-0.3,0.4C149.8,182.9,150,182.7,150.1,182.7L150.1,182.7z"/>
		<path class="st28" d="M152.9,191.5c1.5-1.6-0.7-1.5-0.3-0.1C152.7,191.6,152.8,191.5,152.9,191.5L152.9,191.5z"/>
		<path class="st28" d="M153.3,184.4c-0.8,0.7,0.5,1.1,0.4-0.1C153.5,184.2,153.5,184.2,153.3,184.4L153.3,184.4z"/>
		<path class="st28" d="M147.8,195.5c1.6-0.8-1.2-1.2-0.4-0.1C147.5,195.5,147.7,195.5,147.8,195.5L147.8,195.5z"/>
		<path class="st28" d="M161.3,175.1c0.9-0.7-0.6-1.3-0.5,0.1C161,175.3,161,175.3,161.3,175.1L161.3,175.1z"/>
		<path class="st28" d="M155.1,179.5c-1.4,0.4-0.2,1.8,0.5,0.1C155.5,179.5,155.4,179.5,155.1,179.5L155.1,179.5z"/>
		<path class="st28" d="M157.8,178.2c0.8-0.7-0.5-0.9-0.4,0.2C157.6,178.4,157.5,178.4,157.8,178.2L157.8,178.2z"/>
		<path class="st28" d="M151.3,174.3c0.8-1,1,1.8-0.1,0.9C151,175,151.2,174.5,151.3,174.3L151.3,174.3z"/>
		<path class="st28" d="M145.3,176.3c-1.5,0.7,0.9,1.1,0.7-0.1C145.6,176.2,145.6,176.2,145.3,176.3L145.3,176.3z"/>
		<path class="st28" d="M140.7,172.5c0.6-1.1-1-0.7-0.5,0.2C140.3,172.9,140.6,172.6,140.7,172.5L140.7,172.5z"/>
		<path class="st28" d="M145.1,174.6c1.3,0.2,0.1-1.6-0.1-0.3L145.1,174.6z"/>
		<path class="st28" d="M145,154.4c-0.6-1.2,1.3-1.9,0.6,0C145.5,154.9,145.3,154.8,145,154.4L145,154.4z"/>
		<path class="st28" d="M162.3,159.9c1.2,0-0.2,2.2-0.6,0.6C161.6,160.1,162,160,162.3,159.9L162.3,159.9z"/>
		<path class="st28" d="M160.6,164.6c0.8-0.7,0.9,1.8-0.2,1.3C159.9,165.7,160.4,164.9,160.6,164.6L160.6,164.6z"/>
		<path class="st28" d="M158.5,171.5c0.7-0.7-1.1-1.2-0.7-0.1C158,171.6,158.3,171.6,158.5,171.5L158.5,171.5z"/>
		<path class="st28" d="M146.8,160c-0.4-0.8-1,2.5,0,1.2C147,160.9,146.9,160.4,146.8,160L146.8,160z"/>
		<path class="st28" d="M146.4,168.2c-0.9,0.5-0.3-1.9,0.3-0.8C146.9,167.7,146.6,168,146.4,168.2L146.4,168.2z"/>
		<path class="st28" d="M154,169.6c-0.1,0.9-1.7-0.1-0.5-0.4C153.7,169.1,153.9,169.4,154,169.6L154,169.6z"/>
		<path class="st28" d="M156.6,155.3c-0.8,0.2-0.1,1.7,0.4,0.4C157.1,155.4,156.9,155.3,156.6,155.3L156.6,155.3z"/>
		<path class="st28" d="M150.4,149.8c-0.4-0.9-1.4,1.9-0.1,1C150.5,150.6,150.5,150.1,150.4,149.8L150.4,149.8z"/>
		<path class="st28" d="M155.9,150.6c-1.7-0.1-0.1-2.2,0.6-0.3C156.3,150.6,156.4,150.6,155.9,150.6L155.9,150.6z"/>
		<path class="st28" d="M161.4,152.4c0.5,1.1-2.4-0.2-0.9-0.7C160.9,151.6,161.3,152.2,161.4,152.4L161.4,152.4z"/>
		<path class="st28" d="M151.8,162c-0.1,1.4,2.8,0.5,1.1-0.6C152.4,161,152,161.5,151.8,162L151.8,162z"/>
		<path class="st28" d="M104.3,157C103.9,156.8,105,157.2,104.3,157L104.3,157z"/>
		<path class="st28" d="M106.4,174.3C107.6,174.7,107.1,173.2,106.4,174.3L106.4,174.3z"/>
		<path class="st28" d="M117.3,173.2c-0.9-0.5-1,1.9,0,0.8C117.5,173.8,117.4,173.5,117.3,173.2L117.3,173.2z"/>
		<path class="st28" d="M116.5,168.2c1.1-0.4-1.5-1.9-0.9-0.5C115.7,168,116.1,168.1,116.5,168.2L116.5,168.2z"/>
		<path class="st28" d="M111.9,159.2C112.4,159.8,113,159.4,111.9,159.2L111.9,159.2z"/>
		<path class="st28" d="M103.5,172.2c-0.9,0.5,0.7,0.9,1,0C104.2,172,103.8,172.1,103.5,172.2L103.5,172.2z"/>
		<path class="st28" d="M106.8,162.1c0.4-1.2,2.5,0.5,0.8,0.9C106.9,163.1,106.8,162.6,106.8,162.1L106.8,162.1z"/>
		<path class="st28" d="M111.7,166.3c-1.1,0.4-0.7-2,0.2-0.8C112,165.8,111.8,166.1,111.7,166.3L111.7,166.3z"/>
		<path class="st28" d="M110.6,171.6c-1.2,0.1,0.5-1.8,0.6-0.5C111.3,171.4,110.8,171.6,110.6,171.6L110.6,171.6z"/>
		<path class="st28" d="M117.5,160.9c1.2-0.1,0.7,1.8-0.2,0.6C117.1,161.3,117.3,161,117.5,160.9L117.5,160.9z"/>
		<path class="st28" d="M113.7,177.6c1.4-0.7-0.3,1.4-0.4,0.5C113.3,178,113.6,177.7,113.7,177.6L113.7,177.6z"/>
		<path class="st28" d="M119.5,165c-1,0.3-0.1-1.1,0.4-0.4C119.7,164.8,119.7,164.8,119.5,165L119.5,165z"/>
		<path class="st28" d="M123.5,172.6c-1.1,0.2,0.1,2.3,0.2,0.6C123.7,173,123.7,172.7,123.5,172.6L123.5,172.6z"/>
		<path class="st28" d="M123,167.3c0.9-0.7-1.1-1.2-0.2-0.1L123,167.3z"/>
		<path class="st28" d="M118.9,176.5c-1.1-0.6-1,1.3,0.1,0.7C119.3,177,119.1,176.6,118.9,176.5L118.9,176.5z"/>
		<path class="st28" d="M127.7,156.9c-1,0.7,1.1,1.6,0.4,0.2C128,157,127.8,156.9,127.7,156.9L127.7,156.9z"/>
		<path class="st28" d="M123.2,163c1,0,0.1-2.1-0.3-0.7C122.8,162.6,123,162.8,123.2,163L123.2,163z"/>
		<path class="st28" d="M125,160.3c-0.6,1.4,1.1,0.6,0.3-0.1C125.2,160.1,125.1,160.2,125,160.3L125,160.3z"/>
		<path class="st28" d="M119,156.6c0.7,1.4-1.6,0.8-0.7-0.3C118.5,156.1,118.9,156.4,119,156.6L119,156.6z"/>
		<path class="st28" d="M112.9,157.6C110.8,157.8,112.9,159.1,112.9,157.6L112.9,157.6z"/>
		<path class="st28" d="M106.3,153.4c-1.3-0.2,0.4,1.7,0.3,0.4C106.6,153.6,106.5,153.4,106.3,153.4L106.3,153.4z"/>
		<path class="st28" d="M112,155.4c-0.5-0.7-0.6,1.3,0.1,0.7C112.2,156,112.1,155.6,112,155.4L112,155.4z"/>
		<path class="st28" d="M110.8,136.9c-0.6-1.2,1.3-1.9,0.6,0C111.3,137.4,111,137.2,110.8,136.9L110.8,136.9z"/>
		<path class="st28" d="M127.5,142.9c0.2-1.3,2.1,0.5,0.6,0.7C127.7,143.6,127.5,143.1,127.5,142.9L127.5,142.9z"/>
		<path class="st28" d="M126.3,148.3c-0.8-1.3,1.7-1.8,0.8-0.1C126.9,148.6,126.6,148.6,126.3,148.3L126.3,148.3z"/>
		<path class="st28" d="M124.8,153.3c-1-0.6-0.7,1.5,0.2,0.7C125.2,153.8,124.9,153.5,124.8,153.3L124.8,153.3z"/>
		<path class="st28" d="M112.2,144c1.3-0.3-0.2-2.7-0.3-0.8C111.9,143.5,112,143.8,112.2,144L112.2,144z"/>
		<path class="st28" d="M111.7,149.9c0.1-1.3,1.7,0,0.5,0.5C111.9,150.5,111.7,150.2,111.7,149.9L111.7,149.9z"/>
		<path class="st28" d="M119.6,152.4c-1.1-0.4,0.6-1.4,0.6-0.3C120.2,152.4,119.8,152.4,119.6,152.4L119.6,152.4z"/>
		<path class="st28" d="M122.4,137.8c-0.8,0.2-0.1,1.7,0.4,0.3C122.9,137.9,122.7,137.8,122.4,137.8L122.4,137.8z"/>
		<path class="st28" d="M116.2,132.3c-0.4-0.9-1.4,1.9-0.1,1C116.3,133.1,116.3,132.5,116.2,132.3L116.2,132.3z"/>
		<path class="st28" d="M121.7,133.1c-1.7-0.1-0.1-2.2,0.6-0.3C122.1,133.1,122.2,133.1,121.7,133.1L121.7,133.1z"/>
		<path class="st28" d="M127.2,134.9c0.5,1.1-2.4-0.2-0.9-0.7C126.7,134.1,127.1,134.6,127.2,134.9L127.2,134.9z"/>
		<path class="st28" d="M119.2,144.9c0.6-1.2-2.4-1.5-1.3,0.1C118.2,145.6,118.8,145.2,119.2,144.9L119.2,144.9z"/>
		<path class="st28" d="M56.2,168.5C55.9,168.4,56.9,168.8,56.2,168.5L56.2,168.5z"/>
		<path class="st28" d="M62.4,189.1C63.6,189.5,63.3,188,62.4,189.1L62.4,189.1z"/>
		<path class="st28" d="M71.9,192.8c0.6,1.7,1.3-1.5,0.2-1.4C71.7,191.4,71.9,192.5,71.9,192.8L71.9,192.8z"/>
		<path class="st28" d="M70,181.5c-1.1-0.1,1.8,3,1,1C70.8,182.1,70.4,181.7,70,181.5L70,181.5z"/>
		<path class="st28" d="M64.1,171.3C64.9,172,65.1,171.7,64.1,171.3L64.1,171.3z"/>
		<path class="st28" d="M60.2,186.7c1.1-1.1-2-0.5-0.9,0.3C59.6,187.2,60,186.9,60.2,186.7L60.2,186.7z"/>
		<path class="st28" d="M61.3,174.9c0.6,1.4-2.4,0.6-1.3-0.6C60.5,173.9,61.1,174.6,61.3,174.9L61.3,174.9z"/>
		<path class="st28" d="M65.1,178.4c0.7-0.8,1.4,2.4,0.2,1C65.1,179.1,65,178.8,65.1,178.4L65.1,178.4z"/>
		<path class="st28" d="M66.3,185c1.2-0.1-0.1,2.4-0.4,0.7C65.8,185.4,66.1,185.2,66.3,185L66.3,185z"/>
		<path class="st28" d="M70.5,175c-1,0.4-1.1-2.4,0-0.9C70.7,174.4,70.7,174.7,70.5,175L70.5,175z"/>
		<path class="st28" d="M68.4,197.4c-1.1,0,1.1-2,0.7-0.5C69,197.2,68.6,197.4,68.4,197.4L68.4,197.4z"/>
		<path class="st28" d="M72.5,178.6c0.8,0.5-0.4,1.5-0.4,0.2C72.1,178.5,72.3,178.5,72.5,178.6L72.5,178.6z"/>
		<path class="st28" d="M79.7,197c0.7-0.8-1.2-4.1-0.8-1.5C78.9,195.9,79.2,196.8,79.7,197L79.7,197z"/>
		<path class="st28" d="M75.9,182.6C76.3,185.1,77.4,182.4,75.9,182.6L75.9,182.6z"/>
		<path class="st28" d="M73.4,199c0.7,1.7,1.9,0,0.3-0.9C73.2,197.8,73.4,198.7,73.4,199L73.4,199z"/>
		<path class="st28" d="M80,169.8c0.4-1.3-1.2-1.7-0.6-0.1C79.6,170,79.8,170,80,169.8L80,169.8z"/>
		<path class="st28" d="M75.5,175.3c-1.1,0.8,1.1,2.7,0.5,0.7C75.9,175.8,75.7,175.4,75.5,175.3L75.5,175.3z"/>
		<path class="st28" d="M77.5,173.8c0.1-1.9-1.3,0.3-0.2,0.5C77.5,174.1,77.5,174.1,77.5,173.8L77.5,173.8z"/>
		<path class="st28" d="M70.2,167.6c1.1-0.5,0.8,2.8-0.1,1.2C70,168.4,70,168,70.2,167.6L70.2,167.6z"/>
		<path class="st28" d="M64.9,169.3C63,169.7,64.8,171.1,64.9,169.3L64.9,169.3z"/>
		<path class="st28" d="M58.5,164.1c-0.4-1.6-1.3,1-0.1,0.7C58.5,164.4,58.5,164.5,58.5,164.1L58.5,164.1z"/>
		<path class="st28" d="M64,167.3c0.3-1.2-1.1-1.3-0.5,0.1C63.7,167.6,63.9,167.5,64,167.3L64,167.3z"/>
		<path class="st28" d="M62.7,141.1c-0.6-1.7,1.3-2.6,0.6,0C63.2,141.7,62.9,141.5,62.7,141.1L62.7,141.1z"/>
		<path class="st28" d="M79.3,149.2c0.2-1.8,2.1,0.7,0.6,0.9C79.5,150.3,79.4,149.6,79.3,149.2L79.3,149.2z"/>
		<path class="st28" d="M78.1,156.8c-0.8-1.8,1.7-2.4,0.8-0.1C78.7,157.1,78.4,157.1,78.1,156.8L78.1,156.8z"/>
		<path class="st28" d="M76.7,163.6c-1-0.8-0.7,2,0.2,0.9C77,164.3,76.8,163.8,76.7,163.6L76.7,163.6z"/>
		<path class="st28" d="M64.1,150.8c1.3-0.5-0.2-3.7-0.3-1C63.7,150.1,63.8,150.6,64.1,150.8L64.1,150.8z"/>
		<path class="st28" d="M63.5,159c0.1-1.8,1.7,0,0.5,0.6C63.7,159.7,63.6,159.2,63.5,159L63.5,159z"/>
		<path class="st28" d="M71.5,162.3c-1.1-0.5,0.6-1.9,0.6-0.4C72,162.3,71.6,162.3,71.5,162.3L71.5,162.3z"/>
		<path class="st28" d="M74.3,142.3c-0.8,0.3-0.1,2.3,0.4,0.5C74.7,142.4,74.6,142.3,74.3,142.3L74.3,142.3z"/>
		<path class="st28" d="M68,134.7c-0.4-1.2-1.4,2.5-0.1,1.4C68.2,135.8,68.1,135.1,68,134.7L68,134.7z"/>
		<path class="st28" d="M73.6,135.9c-1.7-0.1-0.1-3,0.6-0.4C74,135.9,74,135.8,73.6,135.9L73.6,135.9z"/>
		<path class="st28" d="M79.1,138.3c0.5,1.5-2.4-0.3-0.9-0.9C78.5,137.3,78.9,138,79.1,138.3L79.1,138.3z"/>
		<path class="st28" d="M71.1,152c0.6-1.7-2.4-2.1-1.3,0.2C70.1,153,70.7,152.5,71.1,152L71.1,152z"/>
		<path class="st27" d="M108.4,203.7c-0.2-0.7-0.4-1.4-0.6-2c-0.5-1.1-1.1-1.7-2.3-1.9c-1.2-0.2-1.7,0.7-2.8-0.8
			c-0.6-0.8-1.2-2-1.7-3c-0.9-1.6-1.4-2.5-1.8-4.3c-0.2-1-0.4-2.1-1-3c-0.6-0.9-1.2-1.9,0.4-2.3c0.7-0.1,2.3,0,2.7-0.2
			c0.5-0.2,0.4-0.9,1.6-1.3c1.1-0.4,1.9-0.5,3-0.6c1-0.1,2-0.3,3-0.3c0.6-0.1,1.3-0.1,1.9-0.1c3.2-0.1,5.1-1.6,8,0.5
			c1.1,0.8,2,1.6,3.2,2.4c2.2,1.4,2.2,3.3,2.4,5.7c0,0.4,0.1,0.9,0.1,1.3c0.1,1.5,0.1,2.9,0,4.4c0,1.8,0.2,2.5-0.3,4.4
			c-0.4,1.4-0.5,2.9-0.9,4.3c-0.3,1.1-1.1,2.5-1.9,3.4c-1.3,1.4-1-1.1-1.3-2c-0.3-0.9-0.7-1.8-1-2.6c-0.3-0.7-1.6-3.5-2.5-2.9
			c-0.5,0.3-1.3,1.4-1.7,1.9c-0.4,0.4-1,1.3-1.6,1.4c-1.2,0.1-0.7-1-2.4-0.7c-1.1,0.2-1.6,0.3-2-0.9
			C108.6,204.3,108.5,204,108.4,203.7L108.4,203.7z"/>
	</g>
	<g class="st29">
		<path class="st30" d="M178.9,191.8c2.6,0.1,10.1,8.7,12.4,11c1,1,19.6,19.8,15.9,9.1c-2.1-5.9-10.1-15.5-9.8-20.7
			c0.2-4.6,5.5-0.2,6.8,1.1c2.3,2.2,9.1,10.7,10.8,11.4l0.6,0.1c2.5-0.6,2.7-7.5,6.2-6.5c3.8,1.1,2.7,18.6,2.6,22.6
			c-0.9,21.3-10,20.8-28.4,21.7c-3.3,0.2-20.7,1.5-22.2-1.3c-1.2-2,4.4-5.1,5.9-6.6c3.9-3.8,4-7,2.5-12c-1.2-4,0.5-4.3,4.3-3.4
			c5.3,1.2,7.5,1.6,3.8-4.5c-3-5-6.3-8.6-9.2-14.1c-0.8-1.6-3.4-6.4-2.7-7.9L178.9,191.8z"/>
		<path class="st30" d="M49.5,147.5c3,4.4,11.5,15.5,12.5,19.6c1.2,5.2-5.7,0.4-7.1-0.9c-4.2-3.8-7-7.5-10.7-11.6
			c-1.6-1.8-4.1-2.5-6.4-2c-4.2,0.9-4.4,11.8-8.4,10.5c-3.5-1.1-2-17.4-1.8-20.4c0.2-3.6,0.4-7.2,0.6-10.8
			c0.9-19.3,8.3-21,25.7-21.8c2.3-0.1,36.8-2.4,18.9,4.4c-3.3,1.2-11.8,4.1-7.1,8.9c2.1,2.2,13.7,9.7,12.9,12.7
			c-0.9,3.2-11.4-1.6-13.9-1.5c-2.2,0.5-1.8,2.6-1.2,4.3c1.2,3.8,5.8,9.8,8.2,13.5c1.8,2.7,11.4,14.2,11.6,16
			c0.4,2.8-9.8-6.2-10.2-6.6c-6.5-6-11.8-12.5-17.9-18.6c-9.7-9.6-14.4-9-5.9,3.8L49.5,147.5z"/>
		<path class="st31" d="M208.7,214c-0.3-1.2-1.5-6.3-2.7-6.5c-1.2-0.2-1.1,4.6-4.1,4.1c-5.6-2.3-15.3-14.6-20.7-18.8
			c-2.6-2-2.3-0.9-0.6,0.9c4,4.5,11.6,12.8,13.6,14.7c3.3,3.2,8.6,8.1,12.5,7.9C207.7,216.2,209,215.4,208.7,214z"/>
		<path class="st31" d="M176.2,199.2c-4.9-6.9-7-14-10.8-21.2c-2.7-5.1-4.3-4.8-2.2,1c4,11.3,8.5,19.5,16.3,28.6
			c1.1,1.3,5.9,6,4.3,7.4c-1.3,1.2-8.9-0.5-2.1,5.1c3.1,2.5,13.7,8.5,17.8,8.9c2.3,0.2,1.3-1.1,0.3-2c-2.8-2.5-11.4-6.6-11.8-9.7
			c-0.4-2.7,3.6-1.5,0.9-4.8C185,207.7,180.2,204.7,176.2,199.2z"/>
		<path class="st31" d="M157.6,111.7c2,0.2,14.7,0.3,15.9,0.4c-2,5.1,1.7,11.4,5.6,14.6c1.8,1.5,2.9,2.1,4.3,4.1
			c3.4,5.1-0.3,4.1-0.6,4.7c-0.2,0.3-0.1,1,0.6,2.4c2.2,4,5.3,8.8,8.7,11.8c7.8,6.9,15.8,17.3,21.3,26.1c0.5,0.8,3.7,5.9,1.8,6.6
			c-1.7,0.6-10.9-12.3-12.1-13.8c-5.2-6.9-10.7-13.9-15.3-21.2l-0.4-0.6c-3-4.7-7.4-11.4-11.2-15.5c-0.7-0.8-2.4-2.4-3.2-0.7
			c-0.8,1.7,2.5,6.5,1.3,7l-0.1,0c-0.9,0.1-3.1-2.6-3.7-3.3c-1.2-1.4-5.6-6.4-5.8-8c-0.1-1.6,2.2-0.4,2.8,0c0.9,0.5,3,2,3.9,1
			c0.5-0.5-0.4-1.8-0.7-2.2c-1.4-2.4-2.4-3.5-4.7-5.3c-1.8-1.4-3.5-2.6-5-4.3l-0.2-0.2l-0.2-0.2
			C159.7,113.7,158.9,112.7,157.6,111.7z"/>
		<path class="st31" d="M70.4,143.4c0.2,2.4,11.8,14.9,14.1,17.7c1.3,1.5,11.6,15,12.7,14.7c1.8-0.3-14.7-20.4-15.9-21.8
			c-2.2-2.6-8-9.2-10.5-10.6C70.7,143.3,70.5,143.3,70.4,143.4z"/>
		<path class="st31" d="M65.6,134.9c-1.2-1-2.3-1.8-3.7-2.6c-0.4-0.2-0.7-0.5-1.1-0.7l-0.3-0.2c-2.8-1.8-7.6-2.2-2.7,1.2
			c1.1,0.8,2.4,1.8,3.3,2.7c0.8,0.8,2.9,2.9,2,4.3c-0.1,0.2-0.3,0.3-0.5,0.4c-1.3,0.7-0.3,2,0.3,2.8c0.7,1,1.4,1.8,2.2,2.7
			c4.7,5.5,9,10.5,13.3,16.3c0.7,1,4.3,6,5.2,6c2,0-7.5-12.3-8.2-13.1c-2.9-3.6-6.1-7.1-8.7-10.9c-0.2-0.3-0.4-0.6-0.6-1
			c-0.3-0.5-0.9-1.6-0.6-2.3c0.7-1.1,2.3-0.4,3.3-1.1c0.3-0.2-0.1-1.2-0.2-1.4C68.2,137.2,66.3,135.5,65.6,134.9z"/>
		<path class="st30" d="M145.6,126.4c1-2.6,2.3-2.8,4.6-1.4c2,1.2,6.3,6.6,8.3,6.5c1.4,0,0-3.7-0.2-4.4c-1.2-3.4-5.3-11.7-7.5-14.5
			l-0.2-0.2l-0.2-0.3c-12.1,0-24.2,0-36.4,0c0.4,1,2.3,5.3,0.6,5.8c-1.6,0.5-9.8-2.5-11.8-3.1c-2.1-0.6-3.8-0.7-5.3,1
			c-2,2.2-1.8,1.9-0.2,4.7c2.1,3.7,5.1,6,8.1,9c2.5,2.5,4.3,4.5,6.4,7.4c1.5,2,9.9,13.6,8.1,3.6c-0.3-1.7-1.4-6.4,2.1-4.6
			c2.4,1.4,7.6,6.4,10,8.6c2.5,2.4,4.8,5.4,7.2,8c3.6,3.8,6.8,7.9,10.5,11.6c0.9,0.9,3.9,4,4.7,1.5c0.6-3.8-5-12.6-7.5-15.7
			c-0.4-0.5-9.2-10.7-4.4-9.2c1.5,0.5,8.3,6.4,9.4,5.5c1.1-1-4.8-8.9-5.5-10.3c-1-1.9-1.3-3.2-1.5-5.4c0-1.3,0.3-2.5,0.6-3.7
			L145.6,126.4z"/>
		<path class="st31" d="M146.3,149.6c3,4.2,4.4,6.7,6.6,11.4c2,4.1,1.4,0.3,0.7-1.5c-1-2.5-6.8-11.9-6.6-13.5c0.2-1.7,4.6,2.8,5,0.3
			c0-2.3-4.8-7.9-6.5-10c-2.1-2.7-4-5-6.5-7.3c-1-0.9-4.1-3.6-5.5-3.4c-1,0.1,1.8,2.4,2.1,2.6c2.1,2.1,7.8,8.6,8.3,11.4
			c0.4,2.1-2.3,0.4-3.3,1.1c-0.5,0.3-0.2,0.6,0,1.2C141.9,144.1,144.8,147.5,146.3,149.6z"/>
		<path class="st31" d="M113.6,138.3c-0.7-0.7-4.1-4.4-4.6-4.5c-2.1-0.6,2.3,4.9,2.6,5.1c2.2,2.5,4.3,4.5,6.4,7.2
			c1.6,2,12.3,15.5,13.7,16.3c1.7,0.8-1.3-4.6-1.5-4.9c-1.6-2.4-4.5-5.4-6.4-7.7C120.5,145.8,117.3,142,113.6,138.3z"/>
		<path class="st30" d="M184.7,159.4c-2.3-2.3-2.7-3.1-4.3-5.5c-4.8-6.3-6.7-0.6-12-6.6c-1.3-1.4-13.6-15.2-15.2-11.4
			c-2,4.8,12.1,13.2,10,20.7c-0.7,2.4-3.2,4.3-3,5.9c1.9,8,8.1,13.7,13.6,19.5c1.3,1.4,7.7,7.7,7.3,2c-0.3-3.8-6.6-11.6-0.1-13
			c6.2-1.4,10.6,14,15.1,13.3c2.5-0.4,3.3-2.6,7.1-0.8c0.9,0.4,4.6,3.3,4.9,1.4c0.1-0.7-5.9-7.6-6.7-8.5c-3.5-4.2-8-8.3-11.8-12.3
			C187.8,162.5,186.3,160.9,184.7,159.4z"/>
		<path class="st31" d="M201.5,151c0.2,2.3,9.6,13.8,11.4,16.3c1,1.4,9.4,13.8,10.3,13.6c1.4-0.3-11.9-18.9-12.9-20.1
			c-1.8-2.4-6.5-8.5-8.5-9.8C201.7,151,201.6,150.9,201.5,151z"/>
		<path class="st31" d="M154.2,241.5c-1.5-0.1-11.2-0.2-12.1-0.2c1-1.8,0.1-4.2-1.7-6.3c-2.2-2.5-4.1-2.6-5.8-4.5
			c-2.6-3,0.2-2.4,0.4-2.7c0.1-0.2,0-0.6-0.5-1.4c-1.1-1.6-4.2-5.2-5.9-6.3c-2.6-1.8-8.8-5.7-8.4-9.3c0.2-1.7,2.4,0.5,2.9,1
			c2.9,2.6,5.8,6.4,8.4,9.5c1.5,1.7,8.2,9.7,10.1,9.5c1.7-0.1,3.2-2.7,4.7,0c1.4,2.6,2.3,5.7,4.5,7.7
			C151.8,239.4,152.5,240.4,154.2,241.5z"/>
		<path class="st30" d="M209.4,113c-2.7-1.4-5.2-0.1-8.1-0.4c-1.3-0.1-2.5-0.3-3.9-0.4c-2.2-0.1-3.9,0.4-6.2,0.2
			c-4.7-0.5-6,1.1-4.9,5.7c0.3,1.2,0.7,2.5,1.1,3.7c1.1,3.1,2.4,6,3.5,9.1c0.3,0.9,1,2.7,0.9,3.7c-0.5,2-3.6,2.6-1.5,5.8
			c0.9,1.3,3.7,3.5,5,4.7c0.7,0.6,1,0.9,1.9,0.9c2.8-0.3,3.9-4.6,8.5-0.3c2.2,2.2,3.4,5.2,5.6,7.7c0.7,0.8,4.2,5,5.2,4.5
			c1.7-0.7-0.3-7.2-0.8-8.5c-1-2.7-2.5-5.5-3.3-8.1c-0.5-1.6-0.9-3.7,0-5.3c2-3.3,2-2.8,2-6.8c0-4.5-0.5-7.9-2-12.2
			C211.8,115.3,211,114,209.4,113z"/>
		<path class="st31" d="M165.6,219.4c0.8,0.7,5.5,4.8,5.9,4.7c0.9-0.1-3-4.8-3.5-5.2c-3-2.5-5.6-2.8-6-7.1c-0.2-2.5-4-6.5-5.8-8.1
			c-3-2.8-1.6-0.4-0.3,1.3c1.8,2.3,3.7,3.7,3.9,6.8C160.1,215.4,163.1,217.3,165.6,219.4z"/>
		<path class="st30" d="M94.6,197.4c-2.3-2.3-2.7-3.1-4.3-5.5c-4.8-6.3-6.7-0.6-12-6.6c-1.3-1.4-13.6-15.2-15.2-11.4
			c-2,4.8,12.1,13.2,10,20.7c-0.7,2.4-3.2,4.3-3,5.9c1.9,8,8.1,13.7,13.6,19.5c1.3,1.4,7.7,7.7,7.3,2c-0.3-3.8-6.6-11.6-0.1-13
			c6.2-1.4,10.6,14,15.1,13.3c2.5-0.4,3.3-2.6,7.1-0.8c0.9,0.4,4.6,3.3,4.9,1.4c0.1-0.7-5.9-7.6-6.7-8.5c-3.5-4.2-8-8.3-11.8-12.3
			C97.7,200.5,96.2,198.9,94.6,197.4z"/>
		<path class="st31" d="M36.9,203.2c0.7,2.6,11.4,13.7,13.8,16.3c0.8,0.9,9.6,11.2,10.2,11c1.6-0.3-15.2-18.6-16.2-19.8
			c-1.8-2.1-5.3-6.2-7.5-7.6C37.1,203.1,37,203.1,36.9,203.2z"/>
	</g>
</g>
</svg>
