<svg id="Layer_1" data-name="Layer 1" xmlns="http://www.w3.org/2000/svg" viewBox="0 0 250 250"><defs><style>.cls-1,.cls-21{fill:#f9ed32;}.cls-2{fill:#318f6a;}.cls-3{fill:#b54c50;}.cls-4{fill:#fbac45;}.cls-5{fill:#7fbaa3;}.cls-6{fill:#ed9a2d;}.cls-7{fill:#75b299;}.cls-8{fill:#f8ed32;}.cls-9{fill:#cb8587;}.cls-10{fill:#b44d50;}.cls-11{fill:#f6ec33;}.cls-12{fill:#d19093;}.cls-13{fill:#c98326;}.cls-14{fill:#faab45;}.cls-15{fill:#e0903b;}.cls-16{fill:#cd8688;}.cls-17{fill:#803b3e;}.cls-18{fill:#73b39a;}.cls-19{fill:#7fb9a2;}.cls-20,.cls-21{isolation:isolate;}.cls-21{font-size:37.05px;font-family:ArialMT, Arial;}.cls-22{fill:none;}</style></defs><title>products</title><rect class="cls-1" x="64.5" y="67.58" width="28.1" height="53.52"/><path class="cls-2" d="M38.67,131.12a70.28,70.28,0,0,1,.26-9.29c.16-1.51.08-3,.14-4.55.14-3.37.25-6.76.48-10.11.31-4.67.77-9.37,1-14,.24-4.14.63-8.25,1-12.35.62-6.22,1.17-12.46,2.17-18.64.94-1,2-.35,3.05-.29s2,0,3,.08a9.66,9.66,0,0,1,2.28.17c7,1.18,14.13,1.62,21.22,2.23,8,.7,16,1,24,1.57,3.52.24,7,.29,10.57.44q24.81.94,49.62.4c10.44-.24,20.89-.48,31.3-1.46a54.64,54.64,0,0,0,8.82-1.08,4.28,4.28,0,0,1,2.74,0,2.69,2.69,0,0,1,1.34,2.22c1.09,8,1.9,16.19,2.6,24.3q.94,11,1.48,22.1c.22,4.75.67,9.5.55,14.26a7.44,7.44,0,0,1-.29,2.25c-2.75,4.64-5.92,9-8.87,13.54-1.33,2.09-2.75,4.15-4.14,6.22-1.77,2.68-2.32,2.61-4.39.09q-4.6-5.6-9.3-11.15a18,18,0,0,1-2.25-2.68c-2-2.68-4.31-5.22-6.42-7.84-.68-.84-1.14-.8-1.71.08-1.09,1.67-2.18,3.34-3.44,4.92a1.47,1.47,0,0,1-.48.38c-7.12,2.35-10.71,8-13.38,14.43-.39.93-.5,2.05-1.55,2.6-1.15-.09-1.54-1.1-2.08-1.85-4.84-6.69-9.88-13.19-14.71-19.86-1.34-1.92-1.44-1.88-3.47-.62q-10.43,6.54-20.84,13a1.9,1.9,0,0,1-1.46.29c-6.58-4.19-12.86-8.81-19.25-13.27a2.83,2.83,0,0,0-3.84,0c-5.08,3.59-10.21,7.08-15.38,10.53-.77.52-1.66,1.34-2.3-.21-.45-2.68.2-5.36.18-8-.07-6.21.72-12.39.49-18.6a4.26,4.26,0,0,1,.55-3c1.16-.28,1.34.76,1.71,1.34,2.88,5,7.64,5.21,12.5,3.47l.18-.09c1.06-.63,2.68-1.34,1.92-2.68s-2.09-.4-3.12,0c-4.63,2.06-8.13.55-9.89-4.37a33.15,33.15,0,0,1-1.7-9.57c-.26-5.74.49-11.45.49-17.19,0-4,2.67-6.25,6.77-6.13,1.11,0,2.18.39,3.29.36.53,0,1.2,0,1.34-.58a1.55,1.55,0,0,0-.86-1.5,5.29,5.29,0,0,0-2.76-.81,13.13,13.13,0,0,0-7.54,1.84,6.1,6.1,0,0,0-3,5.35,31,31,0,0,1-.85,8c-1.34,0-1.34-1-1.53-1.81a22,22,0,0,0-1.64-4.68c-1.85-3.37-4.71-3.81-7.42-1a26.79,26.79,0,0,0-5.35,8.61,100.11,100.11,0,0,0-6.81,28.95,131.84,131.84,0,0,0-.83,15.52,3.59,3.59,0,0,1-.26,1.62C40.65,133.83,39.83,132.09,38.67,131.12Z"/><path class="cls-3" d="M38.67,131.12c1.33.4,2.35,1.57,3.7,2.08a1.23,1.23,0,0,1,.39.54c.87,6.15,1,12.4,2.25,18.51s2.78,12.43,6.12,18A13.28,13.28,0,0,0,53,172.72c1.77,1.78,3,2,5.36.95a1.73,1.73,0,0,1,1-.22c.94,1,.55,2.2.59,3.33.19,6.23,5,12.19,10.7,13.31a9.26,9.26,0,0,0,6.69-1.27c.68-.43,1.34-1.08,2.19-1s1.56,1.33,2.33,2c1.62,1.34,3.35,1.79,4.71,1a2.16,2.16,0,0,0,1.19-2.41A1.48,1.48,0,0,0,86.17,187c-5.17-.17-7.69-3.69-9.82-7.72a9.06,9.06,0,0,1-.41-.95,13.7,13.7,0,0,0-1.22-2.67,28.08,28.08,0,0,0-2.67-4.87c-2-2.54-4.45-4.1-7.88-3.32-.65.15-1.34.43-1.81-.44a2.49,2.49,0,0,1,0-1.43c2.55-8.39,3.25-17.12,4-25.79a1.35,1.35,0,0,1,.85-1.08c3-2,6-4,8.93-6s6.17-4.18,9.21-6.32a1.42,1.42,0,0,1,2,0q10,7,20.07,14a1.11,1.11,0,0,1,.25.32c0,.95-.82,1-1.33,1.34a37.88,37.88,0,0,0-18,21.4,17.42,17.42,0,0,0-.83,4.9c0,.92.34,1.63,1.34,1,4.44-2.67,8.71-1.24,12.9.56A32.28,32.28,0,0,0,112.28,173c11.17.82,21.4-7.54,19.77-19.26-.84-6.32-6.49-11.85-13.38-13.15a18.86,18.86,0,0,0-7.41,0c-.79.17-1.62.51-2.37-.18,4.12-2.89,8.51-5.35,12.75-8,2.91-1.86,5.86-3.63,8.77-5.49,1.6-1,1.53-1.16,2.67.44q8.23,11.16,16.52,22.26a6.14,6.14,0,0,0,.43.45c.7,1.33-.29,2.44-.49,3.66a94.67,94.67,0,0,1-4.6,13.54c-3,6.36-7.36,11.36-14.48,13.31a23.18,23.18,0,0,1-2.88.39,3.42,3.42,0,0,0-3.31,3.53,3.37,3.37,0,0,0,.14.89c.5,3.18,3.69,5.35,7.32,5,3.89-.36,6.33-2.79,8.4-5.78.87-1.25,1.25-2.8,2.37-3.88a.86.86,0,0,1,.63,0,2.77,2.77,0,0,1,.59.31c7.86,6.44,21,5.87,29.15-2.83,8.74-9.36,12-20.25,9.13-32.84a22.39,22.39,0,0,0-2.16-5.35c-.35-.66-.9-1.34-.43-2.12a84.57,84.57,0,0,1,5.53,6.44l6,7.15,14.29-21.4c1.13.27,1,1.23,1,2a274.57,274.57,0,0,1,.1,32.33c-.14,2.15,0,4.29,0,6.43-.15,9-.69,18-1.34,26.92a4.1,4.1,0,0,1-.27,1.2,14.09,14.09,0,0,1-2.9,3.21q-5.85,5.91-11.75,11.76c-2.22,2.23-2.46,2.21-4.38-.4-4.91-6.69-9.79-13.38-14.71-20.07-1.34-1.79-1.34-1.76-2.68,0-5.35,7-10.81,13.88-16.23,20.8-1.33,1.76-1.86,1.72-3.34,0-5-5.73-10-11.52-14.93-17.28-1-1.11-1.54-1.13-2.68-.18-6.93,5.95-13.94,11.8-20.94,17.68-1.82,1.54-2.24,1.5-4-.13-6-5.55-12-11-18.06-16.52-1.43-1.34-2.36-1.09-3.72,0-7.45,5.64-15,11.14-22.47,16.76-1.93,1.47-3.53,1.18-4.95-.78a.52.52,0,0,1,0-.73,18.29,18.29,0,0,0,9.29-4.23A14.56,14.56,0,0,0,69.76,204a6.52,6.52,0,0,0-1-7.35c-4.72-5.77-14.72-6.2-19.83-.87A10.23,10.23,0,0,0,46.38,203c0,.68.31,1.34-.08,2-.86.58-1.44-.13-2-.53a43,43,0,0,1-5-4,15.91,15.91,0,0,1-.2-3.71c-.21-4.48-.36-9-.54-13.46-.49-12.44-.34-24.9-.37-37.34,0-3.53,0-7.06.13-10.58C38.34,134,38.53,132.55,38.67,131.12Z"/><path class="cls-3" d="M44.43,245a26.79,26.79,0,0,0-5.51-.44c-1.14,0-1.24-.53-1.1-1.41.78-4.4,1.53-8.79,2.68-13.1a18.66,18.66,0,0,0,.57-5.47c.26-.12-.1-.08.16-.12,4.3-.53,8.59-1.34,12.93-.47.45,1.34-.68,1.11-1.25,1.18-2.19.25-4.37.64-6.47.88,5.85.23,11.79,0,17.71-.34a8,8,0,0,1,3.09.22c1.15.94,0,1.46-.44,2a19.12,19.12,0,0,0-3.89,10.49,1,1,0,0,0,.31,1,87.78,87.78,0,0,1,4-11.14c.37-.85.45-1.9,1.49-2.36a61.68,61.68,0,0,1,8-.56c8.11.08,16.19-.64,24.27-.47,12.39.26,24.77-.83,37.14-.36,12.59.48,25.19.08,37.77.47,6,.19,11.89.24,17.84.35a9.61,9.61,0,0,0,3.86-.62,7.81,7.81,0,0,1,4.39.12,4.25,4.25,0,0,1,1.69,2.53,165.83,165.83,0,0,1,4.68,16.36c.57,2.48,0,3.2-2.54,3.2-7.88,0-15.76.87-23.64.4-9-.53-17.92.86-26.88,1.22-3.74.15-7.48.37-11.19.39-8.24,0-16.45.76-24.68.48-10.37-.34-20.74-.27-31.1-.87-10.14-.59-20.26-1.26-30.38-2.3-3.64-.39-7.33,0-11-.52A4.29,4.29,0,0,1,44.43,245Z"/><path class="cls-2" d="M54.33,224.39a42.64,42.64,0,0,0-6.78.15,50.61,50.61,0,0,1-6.4.08,88,88,0,0,1-.91-9.46c-.33-4.87-.64-9.75-1-14.63,1.26.14,2,1.17,3,1.8A44.46,44.46,0,0,0,46.1,205a1.16,1.16,0,0,1,.71.55,10.71,10.71,0,0,0,9.74,7.1.84.84,0,0,1,.43.4c3.52,2.78,2.52,2.4,5.63.1,7.38-5.36,14.64-10.9,22-16.37l.33-.24c1.62-1.16,1.58-1.12,3,.23,5.36,4.83,10.71,9.63,16,14.46,1.08,1,2.1,2,3.16,3s1.12,1,2.2.12l19.63-16.59c1-.85,2-1.71,3-2.53a.86.86,0,0,1,1.21,0,.65.65,0,0,1,.13.16c4.34,5.11,8.71,10.18,13.07,15.27,1,1.21,2.06,2.42,3.12,3.61.78.88,1,.87,1.73-.07q4.35-5.53,8.68-11.1c3.06-3.92,6.09-7.87,9.14-11.8a4.64,4.64,0,0,1,.69-.64c2.44,3.27,4.83,6.47,7.19,9.7,3.16,4.29,6.23,8.64,9.44,12.88,1.66,2.19,1.17,2.34,3.21.31l12.93-12.93c.49-.49,1-.93,1.52-1.4.93.16.7.89.67,1.46-.39,8-1.34,15.93-2.45,23.85a1.24,1.24,0,0,1-.29.54h-4.15a5.43,5.43,0,0,1-3.29,0,122.71,122.71,0,0,0-13.38-1.34c-6.69-.56-13.51-.94-20.27-1.19-8-.31-16.17-.79-24.27-.47-3.46.13-6.9-.59-10.35-.42-8,.43-16.18.21-24.26.46-9,.29-17.95.65-26.92,1.22-5.5.34-11,.65-16.47,1.43A6.52,6.52,0,0,1,54.33,224.39Z"/><path class="cls-3" d="M49.78,62.41c-2,.4-4-.2-6-.21-.23-.54.09-1,0-1.62A97.11,97.11,0,0,1,41.9,45.86c-.14-2.28-.14-2.28,2-2.36,5.53-.21,11-.42,16.57-.61,4.49-.16,9-.13,13.46-.38,5.52-.34,11-.21,16.57-.43,8.23-.32,16.46-.15,24.67-.44,5.19-.19,10.37-.11,15.55-.22,13.08-.27,26.16-.08,39.24-.12,1.87,0,3.73,0,5.61.14,3.66.18,7.27-.57,10.91-.75a54.75,54.75,0,0,1,8.1,0c2.41.22,4.83.09,7.24.33,1.71.17,1.64.13,1.75,1.94s-.54,3.56-.27,5.35a3.25,3.25,0,0,1,.4,2.2A45.71,45.71,0,0,1,201.57,61c-.47,1.17.15,2.67-1.26,3.54l-2.47.09h-.41c-7.51-.32-15.05-.24-22.58-.24-5.46,0-10.93.16-16.39,0-12.31-.45-24.62-.13-36.91-.49-4.6-.13-9.25,0-13.85-.48-1-.78-.91-1.93-1-3-.6-4.44-1.13-8.91-1.73-13.38a27.77,27.77,0,0,0,1.34,13.82c.25.76,1.08,1.58.16,2.45a6.35,6.35,0,0,1-3.26.23c-4.67-.63-9.37-.19-14-.4q-3.63-.16-7.25-.69a4.55,4.55,0,0,1-1-2.83q-1.14-6.42-2-12.89a26.17,26.17,0,0,0,1.77,13.38c.32.71.92,1.46.2,2.29a13.23,13.23,0,0,1-6.13.09,4.66,4.66,0,0,1-1.18-2.77C72.45,55.5,71.22,51.27,70.23,47a25.66,25.66,0,0,0,3.1,13.38c.35.65,1.22,1.25.42,2.13-5.36-.08-10.61.08-15.91-.11A36.81,36.81,0,0,0,49.78,62.41Z"/><path class="cls-4" d="M149.19,153.58c0-1.34.84-2.38.88-3.67,1.13-2.29,1.9-4.71,3.15-6.95a23.49,23.49,0,0,1,7.41-8.49,35.15,35.15,0,0,1,4.69-2.1,10.89,10.89,0,0,1,11,1.88,4.75,4.75,0,0,0,1.23,1.09l1.88,2.34c0,.82.67,1.34,1,2a29.72,29.72,0,0,1,2.89,17.52,36.14,36.14,0,0,1-5.86,16.19c-4,6-9.23,10.55-16.52,11.9-6.21,1.15-12,.3-17.25-3.76a2.52,2.52,0,0,1-.37-.49,5.22,5.22,0,0,0-.43-.39h0c-.71-.83-.32-1.68,0-2.53C145.83,170.16,147.06,161.75,149.19,153.58Z"/><path class="cls-5" d="M42.49,133.6l-.12-.4v-2.49a138.66,138.66,0,0,1,2.06-23.45A95.16,95.16,0,0,1,50,87.19a32.87,32.87,0,0,1,4.83-8.43c3.19-3.93,7.26-4.27,9.57,1.09A27.26,27.26,0,0,1,65.72,84a6.51,6.51,0,0,0,.73,1.91,2.13,2.13,0,0,1,.74,2c0,6.41,0,12.81,1.52,19.09a1.57,1.57,0,0,1-.17,1.2,2.47,2.47,0,0,0-.31,1.8c.24,6.83-.4,13.66-.49,20.49,0,2.68-.3,5.52-.36,8.27l-.4.64c-2,2.17-4.67,3.39-7,5a1.46,1.46,0,0,1-1.75,0c-5.06-3.33-10.17-6.59-15.1-10.12A2.82,2.82,0,0,1,42.49,133.6Z"/><path class="cls-6" d="M108.89,140.31c1.23-.18,2.46-.28,3.68-.53,6.62-1.33,15.32,2.68,18.6,9.21A16.8,16.8,0,0,1,129,166.46a19.18,19.18,0,0,1-12.63,6.81c-5.11.7-9.69-.71-14.21-2.67a28.14,28.14,0,0,0-7.28-2.28,9.36,9.36,0,0,0-6.08,1.58c-1.43.83-1.88.64-1.9-1.06a19.62,19.62,0,0,1,2-8.81,40.26,40.26,0,0,1,14.8-17.21c1.26-.83,2.67-1.43,4-2.14A2.64,2.64,0,0,0,108.89,140.31Z"/><path class="cls-7" d="M197.84,64.65a3.4,3.4,0,0,1-2.32.72c-2,.12-4,.33-6,.62-2.88.41-5.81,0-8.65.66a3.55,3.55,0,0,1-1,0c-6.15,0-12.29.29-18.42.57-8.44.38-16.86.14-25.28.29-4.78.08-9.57.22-14.32-.09s-9.82,0-14.72-.43c-3.1-.24-6.21-.12-9.36-.36-5-.39-10-.56-15.05-.86-3.64-.2-7.28-.53-10.92-.84s-7.12-.62-10.7-1.06c-2.68-.33-5.46-.71-8.21-.93a1.52,1.52,0,0,1-1.13-.39c2.45-1.26,5-.4,7.52-.36,2.77,0,5.53,0,8.29.13,11.6.45,23.21.41,34.79,1,1.66.08,3.31,0,5,0,13.38.18,26.76.29,40,.51,14.19.22,28.35.24,42.54.34,2.55,0,5.11.18,7.65.27Z"/><path class="cls-8" d="M172.87,86.86V72.54a2.2,2.2,0,0,1,1.86-2.5l.28,0c1.75-.3,2.41.24,2.42,2,0,4.28-.34,8.54-.63,12.8a103.56,103.56,0,0,0-.58,10.71c.09,2.67-.27,5.35-.34,8,0,.7-.09,1.46-1,1.6s-1.06-.54-1.34-1.09a6.91,6.91,0,0,1-.67-3.41Z"/><path class="cls-9" d="M197.72,64.51c-.62,0-1.24.1-1.86.1-11.63,0-23.28.31-34.9-.08-13-.42-25.89.08-38.8-.42-8-.3-16,.07-24.08-.4-6.57-.39-13.15,0-19.69-.41-5.54-.39-11.07,0-16.58-.42-3.32-.23-6.69-.27-9.93-.29l-2.1-.18c-.22-.57,0-.72.58-.71,2.43,0,4.86-.2,7.32-.06,4.25.25,8.52.1,12.77.09a13.08,13.08,0,0,1,3.47.35.23.23,0,0,1,.31-.08.3.3,0,0,1,.08.08l6.69.08c.14-.17.28-.16.42,0,6.32.37,12.65.37,19,.49,2.11,0,4.22.42,6.35.3a.3.3,0,0,1,.4-.05l0,.05c1.18,0,2.36,0,3.53.07,12.17.4,24.34.12,36.49.5,14.45.46,28.9,0,43.35.39A32.48,32.48,0,0,1,197.72,64.51Z"/><path class="cls-10" d="M177.57,135.34a1.94,1.94,0,0,1-1.26-.59,11.71,11.71,0,0,0-9.55-2.42,6.93,6.93,0,0,1-1.44,0c1.34-2.12,2.77-4.25,4.33-6.69C172.44,129,175.17,132,177.57,135.34Z"/><path class="cls-11" d="M174,115c-1.86,0-2.81-.75-2.79-2.22a2.66,2.66,0,0,1,2.86-2.48h0a2.56,2.56,0,0,1,2.49,1.14,2.2,2.2,0,0,1-1.79,3.56A7.48,7.48,0,0,1,174,115Z"/><path class="cls-12" d="M42.49,133.6c3.37,1.85,6.42,4.2,9.66,6.28,2,1.26,3.93,2.51,5.82,3.89a1.6,1.6,0,0,0,2.16,0,59.56,59.56,0,0,1,6.68-4.33,50.07,50.07,0,0,1-.66,8.64c-.35,3.21-.77,6.41-1.34,9.61a68,68,0,0,1-1.94,8.45,10,10,0,0,0-.2,1.22c-.44,2.46-1,4.88-3.39,6.27-2.54,2.37-4.77,1.66-6.81-.5a23.55,23.55,0,0,1-4.67-8.25,87.64,87.64,0,0,1-4.33-18.07c-.55-3.84-.54-7.71-1.13-11.52A9.57,9.57,0,0,1,42.49,133.6Z"/><path class="cls-12" d="M57,213.12l-.47-.1a43.47,43.47,0,0,1-10-7.44l-.38-.52a11.77,11.77,0,0,1,0-5.28,10.69,10.69,0,0,1,8.23-7.88,15.17,15.17,0,0,1,13.58,3.21,7,7,0,0,1,2.25,9.19A15.37,15.37,0,0,1,57,213.12Z"/><path class="cls-13" d="M59.36,173.59c1.73-1.76,2.17-4.22,3.39-6.27,1.34-.18,2.41-.84,3.78-.64a8.92,8.92,0,0,1,6.29,4.14,17.66,17.66,0,0,1,2.41,4.74c.23.91.75,1.69,1,2.58,1,2.68,2.27,5.15,3.26,7.8.26.67.84,1.34.27,2.1a2,2,0,0,0-.94.4c-4.43,3.84-10.53,2.68-14.25-.83a15.23,15.23,0,0,1-5.19-11.94C59.43,175,59.38,174.29,59.36,173.59Z"/><path class="cls-6" d="M149.19,153.58a48.65,48.65,0,0,1-1.59,9.12,110.86,110.86,0,0,1-3.75,14.6,6.63,6.63,0,0,0-.92,3.36,13.17,13.17,0,0,0-1.67,3.06,18.27,18.27,0,0,1-4.08,4.93,9.17,9.17,0,0,1-10.94.64,6,6,0,0,1-2.34-6,3.45,3.45,0,0,1,3.7-3c7-.34,11.46-4.61,15.09-10,2.38-3.54,3.57-7.62,4.83-11.63A43,43,0,0,1,149.19,153.58Z"/><path class="cls-6" d="M192.16,189.54c-2.93-.75-2.91-.72-6.27.52a9.33,9.33,0,0,1-7.4,0,6.45,6.45,0,0,1-3.61-7c.6-3.53,3.36-5,6.25-5.35a7.53,7.53,0,0,1,4.7,1.26,14,14,0,0,1,6.31,8.16A3.48,3.48,0,0,1,192.16,189.54Z"/><path class="cls-14" d="M79.78,188c-1.15-3-2.32-6-3.45-8.94-.12-.32-.19-.65-.28-1,.13-.2.26-.19.4,0a18.67,18.67,0,0,0,4.17,6.1A7.64,7.64,0,0,0,86,186.42c1.74,0,2.29.38,2.52,1.53A2.91,2.91,0,0,1,87,191.24a4.45,4.45,0,0,1-5-.79A12.12,12.12,0,0,1,79.78,188Z"/><path class="cls-15" d="M76.45,178.12h-.4a4.43,4.43,0,0,1-.82-2.56A5.35,5.35,0,0,1,76.45,178.12Z"/><path class="cls-6" d="M142.93,180.63l.43.39Z"/><path class="cls-16" d="M54.33,224.39l4.26-.24c8.47-.51,17-.83,25.42-1,16-.39,32-.59,47.93-.28,10.17.2,20.34,0,30.49.43,5.81.23,11.63,0,17.4.43,5,.39,10.06.33,15,1l2.92.41a4.41,4.41,0,0,1-2.92.81c-5.11,0-10.25.24-15.36,0-11.53-.67-23.09,0-34.61-.45-6.92-.3-13.84-.5-20.73-.21-10.28.43-20.6-.08-30.87.41-5.68.27-11.34,0-17,.41-2.76.2-5.51.18-8.26.36-.13.17-.25.16-.37,0-7.11-.14-14.2.68-21.31.36a4.39,4.39,0,0,1-2.4-.35c1.66-1.16,3.43-.94,5-1.27S52.58,224.62,54.33,224.39Z"/><path class="cls-17" d="M118.32,246.26a19.42,19.42,0,0,1-.64-8.3,43.79,43.79,0,0,1,1.61-8.88,8.35,8.35,0,0,1,1-2.68c.16-.21.42-.43.7-.23a.69.69,0,0,1,.26.51,8.27,8.27,0,0,1-.12,1.22c-.36,3-.73,6-1.08,9-.31,2.68-.58,5.35-.87,8A1.92,1.92,0,0,1,118.32,246.26Z"/><path class="cls-17" d="M133.17,227a11,11,0,0,1,.57,2.53c0,3.22.37,6.46-.24,9.68-.31,1.69.08,3.46-.5,5.12-.11.32-.09.69-.21,1a.6.6,0,0,1-.65.4.43.43,0,0,1-.36-.44c-.09-3.15-.95-6.28-.21-9.37a10.68,10.68,0,0,0,.13-3.09,41.06,41.06,0,0,1,.54-4.69,1,1,0,0,1,.88-1.14Z"/><path class="cls-17" d="M201,244.8a1.61,1.61,0,0,1-.67-1.34A49.3,49.3,0,0,0,197,228c-.16-.47-.73-1.11,0-1.45s1,.43,1.25.87A21.4,21.4,0,0,1,201.58,244a2.35,2.35,0,0,1-.23.57S201.19,244.65,201,244.8Z"/><path class="cls-17" d="M195.23,244.89a2.15,2.15,0,0,1-.73-1.47,44.86,44.86,0,0,0-3.29-15.07,7.91,7.91,0,0,1-.33-1c-.08-.27-.16-.59.11-.77s.65,0,.88.26a17.45,17.45,0,0,1,2.93,5.22,24.46,24.46,0,0,1,1.34,10.39A4.31,4.31,0,0,1,195.23,244.89Z"/><path class="cls-17" d="M157.11,238.83c.24,1.26-.36,2.93-.47,4.64a1.34,1.34,0,0,1-.17.59c-.14.23-.32.46-.66.38a.46.46,0,0,1-.33-.46c0-1.19-.44-2.3-.44-3.46,0-4-.89-7.92-.9-11.93-.07-.6-.16-1.2-.29-1.8a.55.55,0,0,1,.49-.59.64.64,0,0,1,.5.29,16.42,16.42,0,0,1,.77,1.9A38.46,38.46,0,0,1,157.11,238.83Z"/><path class="cls-17" d="M125,245.61c-1.12-3.64.23-15.9,2.08-18.65C128.4,229.46,126.9,243,125,245.61Z"/><path class="cls-17" d="M188.55,245.23c-1.26-6-2.23-12-3-18.49a5.93,5.93,0,0,1,2.17,3.34,38,38,0,0,1,1.75,12.44A3.49,3.49,0,0,1,188.55,245.23Z"/><path class="cls-17" d="M85.36,244.18a16.27,16.27,0,0,1,.21-5.9,43.52,43.52,0,0,1,3.15-9.36A13.27,13.27,0,0,1,89.91,227c.13-.22.33-.47.67-.28a.6.6,0,0,1,.28.7c-.22.87-.43,1.74-.69,2.6q-1.8,6.24-3.66,12.48A2.27,2.27,0,0,1,85.36,244.18Z"/><path class="cls-17" d="M109.05,244.78a38,38,0,0,1,2.68-18.5C112.66,229.12,110.85,242.09,109.05,244.78Z"/><path class="cls-17" d="M163.87,226.4a30.4,30.4,0,0,1,1.7,18,1.11,1.11,0,0,1-.93-1.05q-.85-8-1.66-16.17C163,226.9,163.21,226.7,163.87,226.4Z"/><path class="cls-17" d="M179.44,226.87a3.17,3.17,0,0,1,1.34,2.07,52.39,52.39,0,0,1,1.43,8.53c.13,2-.15,4-.12,5.91a5.42,5.42,0,0,1-.08.81.65.65,0,0,1-.52.58.58.58,0,0,1-.57-.51c-.16-.81-.37-1.62-.45-2.43-.32-3.2-.59-6.43-.9-9.64a19.35,19.35,0,0,1-.38-4.09A1.89,1.89,0,0,1,179.44,226.87Z"/><path class="cls-17" d="M173.25,244.54a2.85,2.85,0,0,1-.74-1.92c.13-2.22-.43-4.38-.51-6.57-.09-2.53-.45-5.05-.69-7.56a.67.67,0,0,1,0-.2c0-.6-.27-1.46.46-1.62s.87.75,1,1.34a23.11,23.11,0,0,1,1.33,6.69c.11,2.4,0,4.83,0,7.23A3.7,3.7,0,0,1,173.25,244.54Z"/><path class="cls-17" d="M147.45,244.81c-1.63-6-1.11-12.11-1.19-18.4a1.63,1.63,0,0,1,1.23,1.52c1.1,4.89.88,9.87.84,14.82A2.86,2.86,0,0,1,147.45,244.81Z"/><path class="cls-17" d="M104.64,227.74c.56.19.47.64.4,1-.31,1.55-.64,3.09-1,4.63l-1.88,8.84a1.35,1.35,0,0,1-.08.4c-.37.44-.07,1.51-.94,1.34s-.62-1-.62-1.59a35.9,35.9,0,0,1,2.76-13.21A2,2,0,0,1,104.64,227.74Z"/><path class="cls-17" d="M93.09,241.24a29.66,29.66,0,0,1,2.89-12,9.63,9.63,0,0,1,.58-1.1.67.67,0,0,1,.65-.41c.3.05.47.51.42.81-.43,2.09-.89,4.18-1.34,6.27-.52,2.34-1,4.69-1.58,7a12.06,12.06,0,0,1-.49,1.58c-.13.31-.34.63-.77.51s-.33-.4-.35-.67C93.08,242.63,93.09,241.93,93.09,241.24Z"/><path class="cls-17" d="M82.35,226.43a2.48,2.48,0,0,1,.23,2.14c-1.07,4.35-2.17,8.68-3.26,13a1.88,1.88,0,0,1-.73,1.2C77,239.53,79.22,229.83,82.35,226.43Z"/><path class="cls-17" d="M138.41,233.32V227.5c0-.4.09-.89.64-.87s.49.43.59.76a19.35,19.35,0,0,1,.79,4.66c.08,2.67,0,5.35,0,8a18.53,18.53,0,0,1-.46,2.68c0,.36-.19.74-.57.74a.63.63,0,0,1-.6-.64.17.17,0,0,1,0-.07c.12-1.61-.51-3.13-.47-4.73s0-3.18,0-4.76Z"/><path class="cls-17" d="M59.46,227.3c-1.77,4.51-2.29,9.36-4.19,13.75-.23.54-.24,1.46-1,1.34s-.32-1-.28-1.55A37.89,37.89,0,0,1,56.15,231,4.94,4.94,0,0,1,59.46,227.3Z"/><path class="cls-17" d="M67.74,226.37a1.15,1.15,0,0,1,.37,0,4.52,4.52,0,0,1-.61,2.57A83.6,83.6,0,0,0,64,238.88c-.18.63-.46,1.23-.8,2.16a4.07,4.07,0,0,1-.86-2.75,22.4,22.4,0,0,1,2.76-8.83A10.94,10.94,0,0,1,67.74,226.37Z"/><path class="cls-17" d="M75,227.85a2,2,0,0,1,.15,1.68c-1.14,3.91-1.74,7.94-2.79,11.87-.1.36,0,.95-.56.94s-.68-.59-.72-1.09a22.94,22.94,0,0,1,2.5-12A2.5,2.5,0,0,1,75,227.85Z"/><path class="cls-17" d="M46.88,241.18a12.45,12.45,0,0,1,4-12.33c.34-.28.71-.56,1.11-.3s.11.74,0,1.09a51.52,51.52,0,0,0-3.31,7.3l-.81,2.77A2,2,0,0,1,46.88,241.18Z"/><path class="cls-17" d="M44.71,228.72a1.89,1.89,0,0,1,0,1.51A53.15,53.15,0,0,0,42,240.14a4.39,4.39,0,0,1-.32,1.18c-.15.32-.46.25-.69,0a.82.82,0,0,1-.3-.51c-.43-4.44-.11-8.67,3.41-12A1.56,1.56,0,0,1,44.71,228.72Z"/><path class="cls-18" d="M194.92,224.69c-3.93,0-7.91.23-11.83-.1-5.59-.46-11.18,0-16.76-.4-9.37-.61-18.73,0-28-.41-14.3-.66-28.62-.43-42.92-.22-9.6.15-19.21,0-28.8.37a79.75,79.75,0,0,1-8,.22,3,3,0,0,1,.75-.28c4.48,0,8.92-.71,13.38-.93,5-.27,10-.55,15.06-.86,3.31-.21,6.69-.08,9.92-.36,7.25-.64,14.51-.12,21.75-.46a69,69,0,0,1,8.26-.26c7.81.58,15.62,0,23.41.45,3.45.17,6.9.12,10.34.36,4.95.35,9.9.58,14.85.84s9.62.69,14.38,1.34C192.11,224.11,193.63,223.85,194.92,224.69Z"/><path class="cls-19" d="M46.48,205.58c3.44,2.36,6.84,4.77,10,7.44A10,10,0,0,1,46.48,205.58Z"/><path class="cls-17" d="M198.09,43.92A26.23,26.23,0,0,1,195.92,58a14.91,14.91,0,0,1-2,3.61c-.22.27-.53.51-.88.26s-.2-.5-.12-.76c.64-2.12,1.34-4.19,1.93-6.32.77-3.06,1.41-6.15,2.1-9.23A1.93,1.93,0,0,1,198.09,43.92Z"/><path class="cls-17" d="M191.69,44.18c1.88,2.91-.37,14.33-3.58,17.85a3,3,0,0,1-.17-2.4c1.33-4.75,1.92-9.69,3.21-14.45C191.24,44.83,191.19,44.34,191.69,44.18Z"/><path class="cls-17" d="M176,43.94c.68.29.91.64.91.93,0,2,.75,4,.28,6.12-.33,1.58-.19,3.26-.51,4.89a33.41,33.41,0,0,1-1.33,4.75,5,5,0,0,1-.62,1.07.76.76,0,0,1-.52.25.48.48,0,0,1-.43-.51l0-.11a32.26,32.26,0,0,0,.45-3.67c.52-3.46.94-6.93,1.19-10.42C175.55,46.17,175.76,45.13,176,43.94Z"/><path class="cls-17" d="M130.45,44a6,6,0,0,1,.78,3.1c.13,4.32.46,8.67-.76,12.91-.24.85-.12,2.34-1.26,2.18-.8-.12-.45-1.59-.34-2.39.45-3.76.09-7.55.73-11.29a12.19,12.19,0,0,0,0-2.26A2.55,2.55,0,0,1,130.45,44Z"/><path class="cls-17" d="M107.22,62.92h-.44a17.39,17.39,0,0,1-2.42-7.78,42.54,42.54,0,0,1-.51-4.49c0-1.54.47-3,.49-4.49,0-.36.18-.76.55-.78s.59.47.64.9c.28,2.17.67,4.33.81,6.51.18,3,.8,6,1.12,9A2.19,2.19,0,0,1,107.22,62.92Z"/><path class="cls-17" d="M98.47,61.08c0,.33,0,.74-.4.85s-.63-.24-.78-.53a24.59,24.59,0,0,1-1.67-5.35,39.17,39.17,0,0,1-.47-8.45,22.08,22.08,0,0,1,.52-2.67.55.55,0,0,1,.58-.48.62.62,0,0,1,.49.58c.14,1.34.35,2.75.41,4.1.13,3.24.72,6.41.95,9.62A16.85,16.85,0,0,0,98.47,61.08Z"/><path class="cls-17" d="M74.35,62.05H74c-2.53-2.9-3.32-6.51-4.11-10.17a22.2,22.2,0,0,1-.39-5.52c0-.43.1-.94.57-1s.6.47.69.87c.6,2.48,1.17,5,1.79,7.4.54,2.14,1.1,4.25,1.72,6.37A6.3,6.3,0,0,1,74.35,62.05Z"/><path class="cls-17" d="M154.57,62.23c-1.34-1.85-.78-3.7-.79-5.36,0-6.27.47-9.74,1.55-11.46C156.82,47.84,156.41,58.21,154.57,62.23Z"/><path class="cls-17" d="M181.71,61.92a12.61,12.61,0,0,1-.06-3.73c.48-4,1.07-8,1.62-12a3.12,3.12,0,0,1,.14-.8.72.72,0,0,1,.43-.39.46.46,0,0,1,.54.36.31.31,0,0,1,0,.1c-.12,1.63.75,3.16.32,4.88s-.19,3.83-.59,5.73a32.38,32.38,0,0,1-1.55,5.35C182.48,61.62,182.34,61.88,181.71,61.92Z"/><path class="cls-17" d="M160.62,62a4.65,4.65,0,0,1-.5-4,17.86,17.86,0,0,0,.27-3.26,63.62,63.62,0,0,1,.85-8.38v-.21c0-.35.2-.74.58-.75a.64.64,0,0,1,.59.69v0c0,1.73.76,3.39.44,5.11-.47,2.5-.19,5.09-.88,7.55C161.69,59.8,161.79,61.1,160.62,62Z"/><path class="cls-17" d="M121.71,44.45c1.48,2.47,1.82,12.2.63,17-.78,0-.9-.66-.93-1.12-.09-1.6-.57-3.12-.52-4.73.1-2.83,0-5.67,0-8.51A3.88,3.88,0,0,1,121.71,44.45Z"/><path class="cls-17" d="M167.76,61.92c-.54-.24-.64-.51-.66-.78a5.14,5.14,0,0,1,0-1.24c.82-5,.71-10,1.8-15.2a1.9,1.9,0,0,1,1,1.85C170,51.75,170.42,57,167.76,61.92Z"/><path class="cls-17" d="M113.67,44.83a1.46,1.46,0,0,1,1,1.49c-.14,2.15.58,4.23.47,6.37a40.57,40.57,0,0,0,.36,6.79c.1.71.43,2-.7,2-.75,0-.7-1.15-.91-1.84-1.34-4.11-.79-8.32-.78-12.51A9.88,9.88,0,0,1,113.67,44.83Z"/><path class="cls-17" d="M64,45.37a7.11,7.11,0,0,1,.76,3.48A55.18,55.18,0,0,0,66.92,59.1c.18.62.8,1.49.08,1.87s-1.07-.7-1.34-1.21a17.71,17.71,0,0,1-2.5-13.19A1.42,1.42,0,0,1,64,45.37Z"/><path class="cls-17" d="M145.82,61.92c-.88-2.61-.08-14.4,1.11-16.51C148.79,48.41,148.09,59.3,145.82,61.92Z"/><path class="cls-17" d="M61.25,61.09c-.62.19-1-.26-1.16-.64a24.82,24.82,0,0,1-3.06-15c.74-.16.89.33,1,.67,1.16,4.88,2.29,9.76,3.41,14.71C61.42,60.89,61.3,61,61.25,61.09Z"/><path class="cls-17" d="M81.45,62.13H81c-2.93-4.84-3.11-10.19-2.9-15.61a2,2,0,0,1,.19-.8.47.47,0,0,1,.58-.32.47.47,0,0,1,.31.32,10.4,10.4,0,0,1,.54,2.2c.27,4.33,1.34,8.55,1.89,12.83A2.26,2.26,0,0,1,81.45,62.13Z"/><path class="cls-17" d="M137.28,62.23a20,20,0,0,1-.08-5.46c.52-3.61.39-7.27,1.05-10.85a.55.55,0,0,1,.54-.51C140.55,49,139.76,59.28,137.28,62.23Z"/><path class="cls-17" d="M90.08,61.52c-2.94-3.21-4.09-12.63-2-15.88.82.53.82,1.33.85,2.15A74,74,0,0,0,90.08,58,11.74,11.74,0,0,1,90.08,61.52Z"/><path class="cls-17" d="M54,60.37a3.37,3.37,0,0,1-1.77-1.81,21.06,21.06,0,0,1-2.37-12.21c0-.43.12-.94.59-1s.56.48.66.9c.56,2.67.88,5.35,1.64,7.88.51,1.78,1,3.6,1.43,5.35A.66.66,0,0,1,54,60.37Z"/><path class="cls-17" d="M45,45.28a.89.89,0,0,1,.65.72,34.33,34.33,0,0,1,.79,3.62c.29,2.68,1.17,5.22,1.55,7.87.06.47.39,1-.27,1.22s-.72-.28-.91-.63a18.29,18.29,0,0,1-2.37-7.4,12.87,12.87,0,0,1,0-4.87C44.57,45.52,44.67,45.32,45,45.28Z"/><g class="cls-20"><text class="cls-21" transform="translate(87.24 110.5) scale(0.96 1)">r</text><text class="cls-21" transform="translate(101.15 110.5) scale(0.96 1)">i</text><text class="cls-21" transform="translate(111.49 110.5) scale(0.96 1)">s</text><text class="cls-21" transform="translate(127.63 110.5) scale(0.96 1)">p</text><text class="cls-21" transform="translate(149.96 110.5) scale(0.96 1)">s</text></g><rect class="cls-22" width="250" height="250"/></svg>