<svg id="Layer_1" data-name="Layer 1" xmlns="http://www.w3.org/2000/svg" viewBox="0 0 250 250"><defs><style>.cls-1{fill:#68bb35;}.cls-2{fill:#8fd853;}.cls-3{fill:#fe8431;}.cls-4{fill:#39394d;}.cls-5{fill:#fc5e15;}.cls-6{fill:#ea8e2a;}.cls-7{fill:#cc583c;}.cls-8{fill:#d40000;}.cls-9{fill:#459b1e;}.cls-10{fill:#fb5e15;}.cls-11{fill:#303046;}.cls-12{fill:#ee1e1d;}.cls-13{fill:#d8641a;}.cls-14{fill:#b23b24;}.cls-15{fill:#b33c25;}.cls-16{fill:#007136;}.cls-17{fill:#343449;}.cls-18{fill:#313146;}.cls-19{fill:#333348;}.cls-20{fill:#fb5e16;}.cls-21{fill:#f46a61;}.cls-22{fill:#303045;}.cls-23{fill:#fc5f16;}.cls-24{fill:none;}</style></defs><title>products</title><path class="cls-1" d="M114,133a.65.65,0,0,0,0-.34,3.27,3.27,0,0,0,.42-1.36c.42-1.6,1.6-2.55,3-2.29a2.55,2.55,0,0,1,2.11,2.9,4.33,4.33,0,0,0,0,.72,15.08,15.08,0,0,0-.85,4.2c.53.1.79-.2,1.12-.32a2.55,2.55,0,0,1,2.44,4.48A28,28,0,0,1,119,143a4.5,4.5,0,0,0-2.66,3.81,42.08,42.08,0,0,1-.85,4.31c1.7-.59,2.9-1.25,3.09-3a13.28,13.28,0,0,1,.42-2c.33-1.13.85-1.57,1.7-1.5a1.55,1.55,0,0,1,1.36,1.62,1.4,1.4,0,0,0,.13.36c.63.25,1-.27,1.45-.52a4.82,4.82,0,0,1,1.44-.75,1.52,1.52,0,0,1,1.76.64,1.46,1.46,0,0,1-.22,1.85,9.6,9.6,0,0,1-.95.85v.16a.67.67,0,0,1-.1.31,1.69,1.69,0,0,1-.17.29s-.08.13-.06.12,0,.14,0,.14l.11.27.21.27a1.89,1.89,0,0,1,.38.51,1.66,1.66,0,0,1,.11.49,2.82,2.82,0,0,1-.17,1.32,2.32,2.32,0,0,1-2.65,1.15c-2.94-1-5.11.63-7.35,1.94a3.28,3.28,0,0,1-.64.34,36.3,36.3,0,0,1-6.53-1.3,4.18,4.18,0,0,1-1.36-1.59,7.5,7.5,0,0,0-5.35-3.9,2.15,2.15,0,0,1-1.24-3.69c.72-.9.33-1.84.67-2.71v-.73a1.35,1.35,0,0,1,1.09-1.48,1.65,1.65,0,0,1,1.78.65,9.53,9.53,0,0,0,1.47,2c.35,0,.41-.23.52-.44a1.53,1.53,0,0,1,2-.74c.79.23.92.85.9,1.61v.91c.57.48.4,1.1.36,1.7s-.23,1.35.38,1.92c.62-1.11.14-2.71,1.46-3.54a1.76,1.76,0,0,0-.12-2.18c-1.1-1.61-2.17-3.24-3.25-4.86a4.12,4.12,0,0,1,.07-2.55h0c.11-.14.23-.25.35-.39h0c.12-.11.25-.22.36-.34h0a1,1,0,0,1,.49-.34l.64-.1a1.26,1.26,0,0,1,1,0l.39.07c.2.22.56.13.73.4h0a1.37,1.37,0,0,1,.38.38h0a.86.86,0,0,1,.37.5.24.24,0,0,0,.07.2c.71.23.37-.52.65-.69a.77.77,0,0,0,0-.37C114,134,113.59,133.4,114,133Z"/><path class="cls-2" d="M140.59,170.53a37.71,37.71,0,0,0-3.15-3.3,1.78,1.78,0,0,0-1.45-.61h-2.56a1.49,1.49,0,0,1-1.66-1.12,1.42,1.42,0,0,1,.94-1.76l.17,0c.16-.06.32-.15.48-.22-.11-.71-.71-1-1.1-1.44-1-1.14-1.2-2-.46-2.68s1.47-.5,2.55.47c.45.4.76,1,1.36,1.14.35-.05.33-.34.41-.55a1.4,1.4,0,0,1,1.69-1h0a1.46,1.46,0,0,1,1.12,1.61v1.28c0,2.38,0,2.38,1.95,4,.54-.49.28-1.13.29-1.7,0-1.53.27-3.15-.16-4.54s-2-2.2-3-3.35c-.16-.17-.35-.34-.52-.51-1.7-1.79-1.7-2.83,0-4.63a2.87,2.87,0,0,1,2.19,0h0c.18.22.57.14.7.44h0a.82.82,0,0,1,.42.38h0a.27.27,0,0,0,.37,0h0a13.93,13.93,0,0,0,0-3.29,9.63,9.63,0,0,1,.1-1.08,2.45,2.45,0,0,1,4.2-1.66c.18.16.32.35.49.53h0c.4,1.47.05,3,.18,4.47,0,.39-.28,1,.55,1h0a1.85,1.85,0,0,1,.37-.37h0a1,1,0,0,1,.47-.35.3.3,0,0,0,.27-.08,2.77,2.77,0,0,1,1.8,0c2,1.55,2.08,2.78.32,4.6a25.91,25.91,0,0,0-2.6,2.74c.24.85-.24,1.7-.22,2.55s0,1.7.06,2.81a2.91,2.91,0,0,0,.58-2.11c.08-.77-.08-1.62.77-2.11,1.59-1,1.7-1,2.92.42a3.53,3.53,0,0,1,.85.1l.85-.7c1.4-1.24,1.84-1.21,3.1.26.06,1.94-.45,3.85-.17,5.84.12.85-1.13,1.51-2.07,1.39-2.48-.32-4.14,1-5.76,2.5l-.61.6a2.52,2.52,0,0,1-.77.51,34.49,34.49,0,0,1-5,.15C141.29,171.08,140.81,171,140.59,170.53Z"/><path class="cls-3" d="M101.25,155.69a24.49,24.49,0,0,1,6.92-1.46,22.82,22.82,0,0,1,6.45,1.24,15.43,15.43,0,0,1,6,4.25,9,9,0,0,1,1.38,4.47c.19,2.66-1,3.69-3.62,3.26-1.08-.17-2.15-.44-3.23-.59-.57-.08-1.2-.12-1.37.56s.45,1.07,1.05,1.23c1.23.33,2.55.47,3.74.85,1.51.48,2.15,1.39,1.84,2.66a2.26,2.26,0,0,1-2.63,1.71c-.25,0-.48-.12-.72-.12-.6,0-1.37-.23-1.6.5-.27.94.63,1,1.23,1.23,1.85.78,2.14,1.29,1.43,3.25-2.55,7.05-5.3,14-8,21a92.78,92.78,0,0,1-3.6,8.77,3.3,3.3,0,0,1-3.08,2c-.91-.22-1.15-1-1.46-1.7a13.94,13.94,0,0,0-10.64-8.73,2.42,2.42,0,0,1-2.11-1.48,35.24,35.24,0,0,1-.1-5.9c.32-1.71.57-3.39.75-5.06.71-.95,1.65-.81,2.65-.65,2.87.47,5.67,1.26,8.51,1.7a3.16,3.16,0,0,0,.53.13c.74,0,1.83.57,2.06-.44.3-1.23-1-1.09-1.7-1.3-3.16-.85-6.42-1.3-9.59-2.1a3.69,3.69,0,0,1-2.18-1.2c-.61-1.7-.3-3.48-.27-5.21a3.6,3.6,0,0,1,.74-1.71c.74-.79,1.64-.6,2.55-.42a41.91,41.91,0,0,0,4.31.8c.56.05,1.19.08,1.31-.64s-.47-.92-1-1.09c-1.64-.49-3.34-.71-5-1.1a3.76,3.76,0,0,1-2.07-1.06,1.66,1.66,0,0,1-.27-.8,21.68,21.68,0,0,1,.33-2.55v-.49A17,17,0,0,1,94.56,160a2,2,0,0,1,.32-.38l.17-.18a2.5,2.5,0,0,1,.34-.31l.17-.14a2.28,2.28,0,0,1,.33-.29l.15-.13a2.69,2.69,0,0,1,.32-.27l.15-.14a3.92,3.92,0,0,1,.32-.25,2,2,0,0,1,.36-.29,3.88,3.88,0,0,0,.48-.3,1.72,1.72,0,0,1,.27-.27l.3-.23a2.11,2.11,0,0,1,.31-.21,5698693492839,5698693492839,0,0,1,.62-.4,1.43,1.43,0,0,1,.3-.2,1.24,1.24,0,0,1,.34-.18,2.16,2.16,0,0,1,.34-.17,1.24,1.24,0,0,1,.38-.09,3.63,3.63,0,0,1,.56.09Z"/><path class="cls-4" d="M147,152l-.38.37Z"/><path class="cls-4" d="M147.49,151.63,147,152Z"/><path class="cls-3" d="M140.59,170.53a27,27,0,0,1,6.29-.2c.39,0,.75-.18,1.13-.21h.45a3.7,3.7,0,0,0,.86.32,1.87,1.87,0,0,1,.4.07,3.93,3.93,0,0,1,.56.24,2.21,2.21,0,0,1,.34.18c.16.09.31.19.48.27l.34.16.51.24a2.59,2.59,0,0,1,.38.17,2.88,2.88,0,0,1,.38.22,2.52,2.52,0,0,1,.74.63l.16.22a2.52,2.52,0,0,1,.28.75c.46,1.32,1.3,2.47,1.54,3.89.38,2.3-.39,3.35-2.7,3.4-1.09,0-2.19,0-3.29.08-.42,0-.92.11-1,.64a.86.86,0,0,0,.95.85,31.72,31.72,0,0,0,3.65.12c1.21.05,2.18.4,2.32,1.79.13,1.18-.69,2-2.09,2.29a2.05,2.05,0,0,0-.55,0c-.57.1-1.38,0-1.45.78s.74.8,1.31.94c1.74.42,2.19,1,1.95,2.65a32.84,32.84,0,0,1-1.2,6.52c0,.12-.08.27-.17.32-3,1.6-5.79,3.47-8.82,5-1.31-.16-2.09-1.19-3-1.91a16.67,16.67,0,0,0-9.89-3.57c-1.11,0-2.19-.07-2.88-1.16-.54-1.21-1-2.43-.17-3.71,1.14-1.13,2.62-.56,3.95-.74,1-.13,2.62.41,2.62-.79,0-1.44-1.7-.74-2.66-.85-1.66-.24-3.58.53-4.79-1.33a2.57,2.57,0,0,1-.31-1.15c.28-1.49-.06-3,.25-4.51a17,17,0,0,1,8.62-11.77A10,10,0,0,1,137,171a2.15,2.15,0,0,1,.45-.14c.29-.08.56-.19.85-.28a1.26,1.26,0,0,1,.43-.08h.85a.78.78,0,0,1,.4.15Z"/><path class="cls-5" d="M105.28,208.38c1.13-3.54,2.6-6.95,3.91-10.43q3.84-10,7.66-20c.48-1.27.46-1.27-.91-1.71a4,4,0,0,1-1.7-.61c-.52-.47-1-.94-.68-1.7a1.54,1.54,0,0,1,1.49-1.14,10.31,10.31,0,0,1,2.35.25c1.07.22,1.53-.18,1.7-1.32.15-.91-.08-1.24-1.15-1.48s-2.38-.48-3.57-.73a6.64,6.64,0,0,1-1.24-.32,1.78,1.78,0,0,1-1.19-2.18,1.64,1.64,0,0,1,2-1.13h0c1.5.22,3,.57,4.48.85s1.64.23,1.91-1.31a14.45,14.45,0,0,0-.35-4.68c-.06-.37-.08-.74-.12-1.09a15.56,15.56,0,0,1,4.43,8.66c.1.53.21,1.06.33,1.58,1,.65.85,1.71.73,2.63a49.37,49.37,0,0,1-4.38,14,5,5,0,0,0-.14.52,3.29,3.29,0,0,1-.21.76,2.76,2.76,0,0,1-.2.47,7.87,7.87,0,0,0-.42,1.18c-1.88,4.65-3.28,9.47-5.53,14a4.14,4.14,0,0,1-2,2l-4.88,2.78C106.91,208.57,106.13,209.05,105.28,208.38Z"/><path class="cls-4" d="M140.4,152.05a1,1,0,0,1-.71-.43A.9.9,0,0,1,140.4,152.05Z"/><path class="cls-4" d="M141.12,152.35c-.09.44-.22.31-.37,0Z"/><path class="cls-4" d="M140.77,152.39a.51.51,0,0,1-.42-.38Z"/><path class="cls-6" d="M101.61,250.47c-.73,0-1.46-.05-2.19-.05H28c-.79,0-1.58,0-2.38-.06a1.91,1.91,0,0,1-1-2c-.06-6.87-.11-13.73,0-20.6,0-1.89.79-2.56,2.74-2.65a48.59,48.59,0,0,1,5.66.06c8.28-.16,16.57-.18,24.85,0a46.51,46.51,0,0,1,6,0c8.75-.19,17.5-.15,26.25,0,3.19,0,6.39-.21,9.59,0,5.58-.21,11.17-.19,16.75,0a79.81,79.81,0,0,1,8.75,0c.71,0,1.41-.2,2.11-.15,1.14.48,2.28.06,3.41.06,4.18,0,8.35-.15,12.53.11a102,102,0,0,1,11.06,0c10.12-.23,20.23-.19,30.34,0q12.47-.25,24.91,0a63.84,63.84,0,0,1,7.32,0c1.82.08,2.55.78,2.61,2.55.13,6.71.11,13.41,0,20.11a3.9,3.9,0,0,1-1,2.56c-.79,0-1.58.06-2.38.06H142.29c-.73,0-1.46,0-2.19,0-2.55,0-5.11,0-7.66,0H103.8A13.38,13.38,0,0,0,101.61,250.47Z"/><path class="cls-7" d="M127.26,225.87h-1.87a4.43,4.43,0,0,1-1.1-1.44,3.53,3.53,0,0,0-3.52-2.11,3.32,3.32,0,0,0-3.23,2.24,3.32,3.32,0,0,1-.92,1.33H99.69a2,2,0,0,1-.27-2.06,38.2,38.2,0,0,1,1.28-4.19,16.19,16.19,0,0,0,1.24-7.3,2,2,0,0,1,.74-2.13c.85-.66,1.91-.92,2.6-1.77a66.45,66.45,0,0,0,7.92-4.39,4,4,0,0,0,.74-.79,41.61,41.61,0,0,1,12.18-6.77,4.16,4.16,0,0,1,3-.25,3.08,3.08,0,0,0,1.76.38A17.46,17.46,0,0,1,143.82,202c.21.21.46.39.69.59a1.72,1.72,0,0,1-.3,1.7,16.78,16.78,0,0,0-2.88,12.12,2,2,0,0,1-.07.54c-1,2.15-3,3.26-5,4.35C133.34,223,130.65,225.12,127.26,225.87Z"/><path class="cls-8" d="M102.68,210.15a18.63,18.63,0,0,0,.1,2.36,13.49,13.49,0,0,1-.68,5.53c-.85,2.55-1.61,5.19-2.41,7.79q-4.71.16-9.36,0c-.86-.85-.43-1.83-.26-2.76.44-2.44,1-4.87,1.3-7.34.74-5.7-1.41-10.14-6-13.61-.89-.69-2.42-.76-2.5-2.34,1-1.21,2.62-.85,3.91-1.27a2.13,2.13,0,0,1,2.24.48c.72.1,1.45.18,2.16.33a14.27,14.27,0,0,1,11,9.45A2.34,2.34,0,0,0,102.68,210.15Z"/><path class="cls-5" d="M89.53,186l.07-1.83.27-.38c4.26.85,8.57,1.7,12.83,2.66a1.65,1.65,0,0,1,1.54,1.75,1,1,0,0,1-.06.36c-.17,1-1,1.5-2.22,1.25-3.51-.69-7-1.44-10.52-2.15-.59-.12-1.2-.15-1.8-.23C89.14,187,89.32,186.52,89.53,186Z"/><path class="cls-5" d="M90.22,173.58c0-.12.11-.24.17-.36l5.87,1.21a13.82,13.82,0,0,1,1.41.35c1.18.39,1.76,1.24,1.5,2.13a1.9,1.9,0,0,1-2.32,1.22c-1.61-.3-3.21-.64-4.81-1a7.87,7.87,0,0,0-1.79-.29A6.82,6.82,0,0,1,90.22,173.58Z"/><path class="cls-1" d="M208.93,171.3a.48.48,0,0,0-.06-.29,5.37,5.37,0,0,1,.07-.9,2,2,0,0,1,1.56-1.6,1.9,1.9,0,0,1,2,1c.16.25.3.52.5.85a4.3,4.3,0,0,0,1.05-1.7c.3-.53.53-1.1.85-1.6a1.9,1.9,0,0,1,3.47,1.51,12.87,12.87,0,0,1-.72,1.71,6.76,6.76,0,0,0-.8,2c.95-.09,1.94-.3,2.66.54a2.85,2.85,0,0,1,.35,2.26c-1.13,1.14-2.67,1.43-4.12,1.81a3.41,3.41,0,0,0-2.51,2.13c-.4,1-.93,1.92-1.48,3,1.47,0,2.36-.45,2.82-1.63.18-.45.43-.85.65-1.31a1.23,1.23,0,0,1,1.33-.75,1.14,1.14,0,0,1,1,1.11c0,.22-.09.49.22.66.61.17,1.14-.29,1.7-.34a1.22,1.22,0,0,1,1.43.85,1.14,1.14,0,0,1-.74,1.44h-.05l-1.41.57a.42.42,0,0,0,0,.59,1.2,1.2,0,0,1,.08,1.69h0a1.24,1.24,0,0,1-1.76.16L217,185c-1.84-1.46-3.63-.85-5.46,0a4.9,4.9,0,0,0-.62.38,4.82,4.82,0,0,1-4.65-2.26c-.17-.58-.38-1.15-.5-1.7a4,4,0,0,0-2.84-3.41,1.71,1.71,0,0,1-1.34-1.7c.22-.21.13-.63.5-.73a.33.33,0,0,0,.25-.08c.28-.37,1.24.28,1.1-.72a.57.57,0,0,0-.08-.34c-.17-.23-.11-.54-.29-.77a.63.63,0,0,0-.06-.33.48.48,0,0,1,0-.68l0,0h0c.11-.13.21-.27.31-.4h0c.15-.09.28-.21.43-.3h.95a1.16,1.16,0,0,1,.46.36h0a1,1,0,0,1,.36.47.34.34,0,0,0,.05.26c.2.24.15.56.3.81a.47.47,0,0,0,.05.28c.24.29.49.18.74,0h0a1.75,1.75,0,0,1,1.82,0h0a2.08,2.08,0,0,1,.1,1.79.47.47,0,0,0-.09.28,1.21,1.21,0,0,1-.28.46.4.4,0,0,0-.08.28,1.41,1.41,0,0,1-.28.45.37.37,0,0,0-.09.28,1.46,1.46,0,0,1-.28.46v.39c.21.25.18.58.3.85a.24.24,0,0,0,0,.24.41.41,0,0,0,.57.14.4.4,0,0,0,.15-.14h0c.23-.18.15-.52.35-.72h0c.23-.18.16-.52.36-.71h0c.24-.18.16-.52.37-.72h0c.24-.18.16-.52.35-.71h0c.24-.18.16-.51.34-.7v-.39c-.19-.24-.15-.56-.3-.85a.48.48,0,0,0-.06-.29c-.21-.23-.15-.56-.31-.8a.4.4,0,0,0-.07-.3c-.18-.24-.13-.56-.29-.8a.46.46,0,0,0-.07-.3C209,171.86,209.09,171.54,208.93,171.3Z"/><path class="cls-9" d="M140.71,217.16a17,17,0,0,1,3.8-14.51,18.94,18.94,0,0,1,8.36-4.93c1.65-1.79,3.72-1,5.68-1,1.4.33,3,.06,4.19,1.14.37,1.34-.75,1.65-1.53,2.11a16.07,16.07,0,0,0-7.66,11.07,17.47,17.47,0,0,0,.24,7.41c.39,1.79.68,3.58,1,5.38a2,2,0,0,1-.41,2c-3.64.11-7.27.15-10.91,0a2.9,2.9,0,0,1-1.24-1.48q-.8-2.67-1.7-5.32A2.7,2.7,0,0,1,140.71,217.16Z"/><path class="cls-5" d="M158.66,197.32a35.12,35.12,0,0,0-5.79.36,53.9,53.9,0,0,1,.85-6.69c.21-1.55.2-1.6-1.43-1.7a7.85,7.85,0,0,1-1.08-.08,1.5,1.5,0,0,1-1.26-1.58,1.45,1.45,0,0,1,1.27-1.55c.72-.12,1.46,0,2.19-.12.94-.09,1.26-.52,1.25-1.44s-.57-1.09-1.33-1.09h-3.66a3.31,3.31,0,0,1-1.43-.19,1.85,1.85,0,0,1-1.15-1.89,1.54,1.54,0,0,1,1.64-1.19h4.39c1.46,0,1.7-.37,1.52-1.79a14,14,0,0,0-.9-3.35,4.58,4.58,0,0,1-.54-1.7q.18-.37.36,0v-.06a1.39,1.39,0,0,1,.43.37h0l.38.32h0a.85.85,0,0,0,.34.31l.06.06a.61.61,0,0,0,.31.3l.07.06a.51.51,0,0,0,.29.3l.07.06a.54.54,0,0,0,.3.31,17.87,17.87,0,0,1,3.8,7.5,18.87,18.87,0,0,1,.28,5v2.17c.75.59.54,1.38.47,2.17a11.55,11.55,0,0,1-1.23,4.7A4.51,4.51,0,0,1,158.66,197.32Z"/><path class="cls-10" d="M128.68,192.58a13.9,13.9,0,0,1-.53-3.9c.42.67,1.11.62,1.78.62h4.17a4.72,4.72,0,0,1,1.24.14,1.46,1.46,0,0,1,1,1.34,1.42,1.42,0,0,1-.85,1.47,3.6,3.6,0,0,1-1.77.31Z"/><path class="cls-11" d="M119.91,187.83a1.19,1.19,0,0,1-.43,1.09A1.53,1.53,0,0,1,119.91,187.83Z"/><path class="cls-11" d="M120.23,187a1,1,0,0,1-.32.85A1,1,0,0,1,120.23,187Z"/><path class="cls-1" d="M154.34,225.87c-.45-2.38-.85-4.77-1.35-7.14a19,19,0,0,1,.3-10,16.42,16.42,0,0,1,8.69-10c.27-.13.53-.29.79-.43.56-1.7,2.17-1.78,3.47-1.89,3.32-.28,6.7-.49,9.9.9a4.86,4.86,0,0,1,.85.34,1.92,1.92,0,0,1,.5.34c6.74,3.41,9.94,9,10.21,16.38a5.47,5.47,0,0,1-1,3.61,2.41,2.41,0,0,0-1.16,2.27V224a2.39,2.39,0,0,1-.76,2Z"/><path class="cls-12" d="M83,200a14.57,14.57,0,0,1,9.19,11.53,13.35,13.35,0,0,1-.07,5q-.88,4.65-1.79,9.28c-4.61,0-9.22.06-13.84.06-4.18,0-8.37,0-12.55,0a2.93,2.93,0,0,1-1.08-2c-.41-2.64-1.09-5.23-1.43-7.86-.85-6.2,2.15-13.15,8.14-15.91a9.81,9.81,0,0,1,1.6-.85,15.92,15.92,0,0,1,9.83-.75C81.87,198.63,82.76,198.86,83,200Z"/><path class="cls-8" d="M71.21,200.06a14.28,14.28,0,0,0-8.78,10.46,17.71,17.71,0,0,0,.15,7.6,61.62,61.62,0,0,1,1.31,7.72H58.06a2.07,2.07,0,0,1-.85-1.7v-1.63c0-3.82,0-3.84-3.78-4.26a2.49,2.49,0,0,1-2-1.09,13.26,13.26,0,0,1,1-10.7A13.87,13.87,0,0,1,55.84,202a2.68,2.68,0,0,1,.48-.35l.27-.12A14.73,14.73,0,0,1,62,199a11.91,11.91,0,0,1,5.59-.44c.62.42,1.36.22,2,.37A1.88,1.88,0,0,1,71.21,200.06Z"/><path class="cls-13" d="M51.84,216.73a1.78,1.78,0,0,0,1.76.72h3.1c1,0,1.3.4,1.3,1.32,0,2.37,0,4.74.06,7.11h-25v-7.12c0-.92.33-1.3,1.28-1.27,1.39,0,2.8,0,4.19,0a2,2,0,0,1,1.53-.8c2.65.57,5.31.12,8,0A37.25,37.25,0,0,1,51.84,216.73Z"/><path class="cls-13" d="M184.76,225.9v-6.56c0-1.7,0-1.7,1.77-2a3.23,3.23,0,0,1,2.55-.71c3.08,0,6.17.06,9.25-.09,1.76.31,3.62-.33,5.33.54.55.55,1.26.32,1.9.34.91,0,1.82,0,2.72,0,1.36,0,1.39,0,1.41,1.47v6.91Z"/><path class="cls-14" d="M140.71,217.16c.94,2.9,2,5.77,2.72,8.73H127.26a55.33,55.33,0,0,1,6.24-3.81A39.23,39.23,0,0,0,140.71,217.16Z"/><path class="cls-13" d="M46.24,243.75A5.11,5.11,0,0,1,41.57,239a4.94,4.94,0,0,1,4.75-4.64A4.89,4.89,0,0,1,51,239.05,5.09,5.09,0,0,1,46.24,243.75Z"/><path class="cls-13" d="M202.67,239.05a4.52,4.52,0,0,1-4.4,4.68c-3.16-.13-4.74-2.14-4.76-4.7a4.58,4.58,0,1,1,9.16,0h0Z"/><path class="cls-14" d="M116.62,225.87c.09-2.72,1.56-4.32,4-4.37,2.87-.06,4.47,1.4,4.72,4.36Z"/><path class="cls-5" d="M215.49,191.89a15.42,15.42,0,0,1,0,6.86c-.26.85-.57,1.7-.85,2.55-3.28,5.53-7.28,10.55-11,15.79a7.34,7.34,0,0,1-5-.05,1.22,1.22,0,0,1-.46-1.28,127.44,127.44,0,0,1,7.66-11.07c.46-.64.92-1.28,1.34-1.94.32-.51.5-1,0-1.49-.8-.85-1.41-1.77-.69-2.91s2-.94,3.13-.66a.54.54,0,0,0,.59-.14,22,22,0,0,0-2.64-1.55c-1-.67-1.65-1.48-1.14-2.75.43-1.08,1.57-1.4,3-.91.57.21,1.1.51,1.66.76,1.56.71,1.79.58,2.16-1.14.2-.92-.12-2,.74-2.73a.44.44,0,0,1,.49,0h0a1,1,0,0,1,.33.55.12.12,0,0,0,0,.17h0c.2.21.13.54.33.75h0C215.49,191.06,215.15,191.63,215.49,191.89Z"/><path class="cls-2" d="M33.13,183.44c-.26-1-.23-1.93,1-2.36-.51-.77-1.25-1-1.78-1.48a1.29,1.29,0,0,1-.44-1.76,1.38,1.38,0,0,1,1.9-.46h0a18.24,18.24,0,0,0,1.88,1.07c.08-.09.22-.16.22-.24,0-.91.43-1.58,1.41-1.53s1.21.7,1.31,1.5c0,.36.21.71.22,1.07,0,1.57,1,2.39,2.55,3a36.6,36.6,0,0,0-1-5.3c-.11-.52-.61-.73-1-1-1-.68-2-1.34-3-2-1.7-1.19-1.89-2.07-.71-3.94a3,3,0,0,1,3.19.26c.23-1.49-.37-2.72-.53-4A2.12,2.12,0,0,1,40,163.61a2.07,2.07,0,0,1,1.05,0,2.16,2.16,0,0,1,1.7,1.92,19.37,19.37,0,0,0,.85,3.69c2.23-2,3.21-1.93,4.62.3v1c-.19.24-.11.59-.38.79h0c-.19.21-.11.59-.43.73l.06-.05a.86.86,0,0,1-.37.43h0c-.19.21-.11.6-.43.73l.06,0a1,1,0,0,1-.37.44h0L46,174a.21.21,0,0,0-.1.21.73.73,0,0,1-.36.53h0c-.1.12-.19.25-.29.38a.19.19,0,0,0-.1.2.9.9,0,0,1-.31.54v.38c.35.45,0,1.05.33,1.51a.36.36,0,0,0,.06.3c.35.45,0,1.06.32,1.52a.34.34,0,0,0,0,.31c.44.22-.27,1.2.71,1.09h0c.23-.19.14-.56.43-.71h0a1.86,1.86,0,0,1,.33-.41h0a1.86,1.86,0,0,0,0-1.61l-.14-.61c-.24-.39-.08-.85-.27-1.25v-.85c.17-.25.09-.68.51-.77a.2.2,0,0,0,.21-.09,1.8,1.8,0,0,1,1.44,0h.06a.75.75,0,0,0,.31.3V175c.17.25.26.61.68.38h0c.23-.18.14-.56.43-.7h0a1.7,1.7,0,0,1,.33-.42h0c.24-.17.14-.57.46-.69l-.07.06c.27-.47.85-.13,1.16-.42a.1.1,0,0,0,.15,0l0,0c.27.15.65.08.85.39l-.06-.05c.32.17.24.55.42.8-.1,1.14-1,1.9-1.39,2.75-.09.28,0,.39.12.39.85.06,1.59.3,1.62,1.32s-.71,1.4-1.54,1.42c-2.29.06-3.59,1.42-4.56,3.27a11.91,11.91,0,0,1-.77,1.22,6,6,0,0,1-5.43,1.15,16.48,16.48,0,0,0-3.24-2.13.82.82,0,0,1-.52-.32h0c-.15-.2-.32-.08-.48,0h-.13l-.12.06c-.55.45-1.28-.06-1.84.36h0a1.86,1.86,0,0,1-1.83,0h0a3.33,3.33,0,0,1-.39-.36Z"/><path class="cls-14" d="M113.66,217.72a2.72,2.72,0,0,1-5.44,0,2.56,2.56,0,0,1,2.68-2.43l.18,0a2.39,2.39,0,0,1,2.58,2.19Z"/><path class="cls-15" d="M125,210.12a1.69,1.69,0,0,1-1.58,1.81h-.24a2.07,2.07,0,0,1-1.7-1.82,1.79,1.79,0,0,1,1.82-1.76h.08A1.63,1.63,0,0,1,125,210,.92.92,0,0,1,125,210.12Z"/><path class="cls-3" d="M41.66,185.9a20.63,20.63,0,0,1,5.43-1.15,14.38,14.38,0,0,1,5.84,1.31c2.06.9,2.86,2.7,3.25,4.72.22,1.18-.6,1.81-1.63,2.08s-2,.46-3,.62c-.48.07-1,.29-.91.92s.68.4,1.09.37c1-.05,1.92-.37,2.89-.48,1.15-.13,2.13.07,2.44,1.32a2,2,0,0,1-1.34,2.4l-.08,0c-.16.07-.36.09-.52.16-.42.2-1.06.27-.94.91s.69.39,1.09.46c1.89.4,2.2.85,1.7,2.56h0a1.82,1.82,0,0,1-.34.34,14.45,14.45,0,0,0-5.11,11.41,28.25,28.25,0,0,0,.34,2.88c-.34.94-1.16.73-1.86.73H40.08c.05-1.25,1.05-1.3,1.92-1.47,2-.4,4-.8,6.07-1.23.49-.1,1.25-.22,1.1-.93s-.85-.4-1.26-.34c-2.34.29-4.64.85-7,1.3-1.09.2-2.27.74-3.3-.24a38.33,38.33,0,0,1-1.93-5.48c.61-1.26,1.92-1.11,3-1.41.69-.19,1.42-.28,2.11-.51.36-.11.73-.28.63-.73s-.49-.49-.85-.43c-1.26.16-2.5.45-3.74.67a2.1,2.1,0,0,1-2.17-.51,31.29,31.29,0,0,1-1.57-5.52,26.33,26.33,0,0,1,.36-4.69,14.4,14.4,0,0,1,6.81-9.24C40.71,186.43,41.18,186.17,41.66,185.9Z"/><path class="cls-16" d="M67.55,199.19a6.27,6.27,0,0,1,5.52-2.56c2.22,0,2.28-.08,1.57-2.27a13.44,13.44,0,0,0-3.12-5.28c-.75-.78-1.49-1.57-2.24-2.36a2.33,2.33,0,0,0-.27-.35.81.81,0,0,0,0-.31c.64-.85,1.25-1.65,1.94-2.42,1.09-1.22,1.94-1.25,3.07-.1.68.69,1.28,1.45,1.92,2.18a1.87,1.87,0,0,0,.08.34,3.17,3.17,0,0,0,.3.34h0a1.61,1.61,0,0,1,.35.43,1.61,1.61,0,0,0,0,.31c.12.13.23.26.34.4a1,1,0,0,0,0,.34,4.16,4.16,0,0,1,.32.39,31.29,31.29,0,0,1,2,7c.15,1.26.38,1.36,1.9,1.36a6.78,6.78,0,0,1,5.58,2.55,15.65,15.65,0,0,1-4,.85,14.34,14.34,0,0,0-11.74.08Z"/><path class="cls-5" d="M57.27,188.64a16.35,16.35,0,0,1,4.56,10.89,33.71,33.71,0,0,0-4.92,2.55c-.35-1.79-.35-1.79-2.07-1.7-1.15.07-1.78-.33-1.9-1.2s.24-1.31,1.32-1.64c.41-.13.86-.16,1.26-.28a1.21,1.21,0,0,0,1-1.37,1.1,1.1,0,0,0-.06-.26c-.21-.79-.75-.85-1.43-.7-1.19.27-2.39.45-3.57.73a1.71,1.71,0,0,1-1.56-.28,1.29,1.29,0,0,1-.36-1.8,1.27,1.27,0,0,1,.36-.37,3.23,3.23,0,0,1,1.7-.64c.86-.12,1.71-.26,2.56-.43,1.7-.34,1.75-.54,1.13-2.21A14.29,14.29,0,0,0,53,186a1.73,1.73,0,0,0,.31-.07.14.14,0,0,0,.18.07h0a1,1,0,0,1,.54.3.14.14,0,0,0,.19.07h0a.88.88,0,0,1,.54.33h0c.2.22.57.14.72.44l-.05-.06a1.61,1.61,0,0,1,.43.35h0c.18.23.59.12.69.47l-.06-.07a.6.6,0,0,1,.43.4l-.05,0A.75.75,0,0,1,57.27,188.64Z"/><path class="cls-17" d="M46.31,180.89c-.25.38-.49.27-.6-.07a5.05,5.05,0,0,1-.11-1Z"/><path class="cls-17" d="M48.87,174.61H47.43A1,1,0,0,1,48.87,174.61Z"/><path class="cls-17" d="M47.09,178.17c.33.55.49,1.08-.05,1.61Z"/><path class="cls-17" d="M45.19,177.65a2.18,2.18,0,0,1-.32-1.51A1.93,1.93,0,0,1,45.19,177.65Z"/><path class="cls-17" d="M45.56,179.48a2.16,2.16,0,0,1-.29-1.47A2,2,0,0,1,45.56,179.48Z"/><path class="cls-17" d="M52.25,173.24l-1.16.41A1.14,1.14,0,0,1,52.25,173.24Z"/><path class="cls-17" d="M46.72,176.31a1.61,1.61,0,0,1,.25,1.28A1.54,1.54,0,0,1,46.72,176.31Z"/><path class="cls-17" d="M50,175.4c-.63.61-.53-.1-.68-.38Z"/><path class="cls-17" d="M47.74,171.36a1.31,1.31,0,0,1,.38-.78A1,1,0,0,1,47.74,171.36Z"/><path class="cls-17" d="M47.32,172.05a.94.94,0,0,1,.43-.73A.83.83,0,0,1,47.32,172.05Z"/><path class="cls-17" d="M46.59,173.18a.9.9,0,0,1,.43-.73A.85.85,0,0,1,46.59,173.18Z"/><path class="cls-17" d="M53.25,173.64a1.43,1.43,0,0,1-.85-.39A.94.94,0,0,1,53.25,173.64Z"/><path class="cls-17" d="M46.74,180.17a1,1,0,0,1-.43.71A.92.92,0,0,1,46.74,180.17Z"/><path class="cls-17" d="M51.16,173.59a.94.94,0,0,1-.46.69A.9.9,0,0,1,51.16,173.59Z"/><path class="cls-17" d="M53.61,174.38a1.31,1.31,0,0,1-.42-.79A.9.9,0,0,1,53.61,174.38Z"/><path class="cls-17" d="M47.22,174.7l-.51.78A.85.85,0,0,1,47.22,174.7Z"/><path class="cls-17" d="M50.37,174.68a.94.94,0,0,1-.43.7A1,1,0,0,1,50.37,174.68Z"/><path class="cls-17" d="M46.28,173.56a.49.49,0,0,1,.37-.43Z"/><path class="cls-17" d="M47,179.79a.46.46,0,0,1-.33.42Z"/><path class="cls-17" d="M47,172.46a.5.5,0,0,1,.37-.43Z"/><path class="cls-17" d="M44.87,175.76a.59.59,0,0,1,.3-.54Z"/><path class="cls-17" d="M46,173.92a.43.43,0,0,1,.29-.38Z"/><path class="cls-17" d="M49.24,175l-.31-.31Z"/><path class="cls-17" d="M45.27,175a.41.41,0,0,1,.29-.38Z"/><path class="cls-17" d="M50.69,174.3a.46.46,0,0,1-.33.42Z"/><path class="cls-17" d="M45.55,174.66l.36-.54Z"/><path class="cls-18" d="M76.33,186.37,76,186Z"/><path class="cls-18" d="M76.69,186.81l-.35-.43Z"/><path class="cls-18" d="M77.07,187.52l-.31-.4Z"/><path class="cls-18" d="M77.43,188.23l-.32-.4Z"/><path class="cls-3" d="M214.1,189.23a16.51,16.51,0,0,1-.49,4.32c-.42,1.21-.67,1.37-1.86.85-.93-.43-1.83-.94-2.78-1.37s-1.63-.33-2,.4-.16,1.37.81,1.89,2.06,1.05,3.09,1.57c.43.23.95.45.57,1.08s-.6,1.28-1.51.85a7.43,7.43,0,0,0-1.52-.61,1.2,1.2,0,0,0-1.54.63,1.32,1.32,0,0,0,.44,1.62c.49.43,1.36.53,1.42,1.31s-.65,1.14-1,1.7c-2.92,4.1-5.89,8.18-8.84,12.26-.76-.15-.63-.75-.64-1.27-.11-6.55-2.89-11.51-8.7-14.67a2.58,2.58,0,0,1-1.47-1.53,2,2,0,0,1,.85-2,2.42,2.42,0,0,1,2.24.26c.71.32,1.39.72,2.11,1,.47.19,1.09.74,1.43.11s-.44-.86-.85-1.14c-.92-.57-2-1-2.86-1.54a2.53,2.53,0,0,1-1.18-1.55,12,12,0,0,1,5.4-8.74,1.78,1.78,0,0,1,1.7-.35,15.1,15.1,0,0,1,6.71-1.47c.92.07,1.82.2,2.73.3a23.51,23.51,0,0,1,4.65,2.26l2.76,2.89h0c.09.15.25.25.32.42h0C214.23,188.75,214.21,189,214.1,189.23Z"/><path class="cls-16" d="M178.84,183.12a23.83,23.83,0,0,0-4.73,5.29,18.24,18.24,0,0,0-1.86,4.36c-.4,1.52-.33,1.59,1.17,1.65h1.1a7.53,7.53,0,0,1,6.21,2.93c-.85,1.78-2.42.93-3.71,1.08h-.32a2.14,2.14,0,0,1-.38-.23,18,18,0,0,0-13.55.07,29,29,0,0,1-4.11-.9l.19-.41c1-2.39,3-3.19,5.37-3.24a1.92,1.92,0,0,0,2.22-2,17.36,17.36,0,0,1,1-4,5.38,5.38,0,0,1,.28-.7c.09-.21.2-.42.3-.62l.29-.59a2.64,2.64,0,0,1,.18-.38,2,2,0,0,1,.19-.39,1.93,1.93,0,0,1,.19-.38,2.71,2.71,0,0,1,.21-.37,1.81,1.81,0,0,1,.28-.34,1.25,1.25,0,0,1,.37-.22,2.32,2.32,0,0,0,.39-.18l2.12-2.92a11.06,11.06,0,0,1,.79-1c1.47-1.59,2-1.63,3.53,0C177.56,180.57,178.89,181.37,178.84,183.12Z"/><path class="cls-19" d="M208.59,175.74l-.1-1.8A1.32,1.32,0,0,1,208.59,175.74Z"/><path class="cls-19" d="M208.52,174a4.3,4.3,0,0,0-1.82,0,1.23,1.23,0,0,1,1.75-.07Z"/><path class="cls-19" d="M203.43,174.61c.35.51.19.74-.4.74h-.7Z"/><path class="cls-19" d="M208.52,179.42c0,.25-.1.52-.38.53s-.32-.29-.34-.53Z"/><path class="cls-19" d="M206.71,173.94c-.12.24-.25.52-.58.42-.08,0-.1-.27-.15-.42Z"/><path class="cls-19" d="M208.93,171.3a1,1,0,0,1,.3.8A1.1,1.1,0,0,1,208.93,171.3Z"/><path class="cls-19" d="M203.06,172.48c0,.24-.05.47-.06.71C202.72,172.91,202.77,172.69,203.06,172.48Z"/><path class="cls-19" d="M209.29,172.39a1,1,0,0,1,.3.8A1.11,1.11,0,0,1,209.29,172.39Z"/><path class="cls-19" d="M205.93,173.65a1,1,0,0,1-.3-.8A1.11,1.11,0,0,1,205.93,173.65Z"/><path class="cls-19" d="M203.06,173.52a1,1,0,0,1,.29.76A1.06,1.06,0,0,1,203.06,173.52Z"/><path class="cls-19" d="M209.66,173.49a1,1,0,0,1,.31.8A1.08,1.08,0,0,1,209.66,173.49Z"/><path class="cls-19" d="M210,174.61a1.06,1.06,0,0,1,.3.85A1.08,1.08,0,0,1,210,174.61Z"/><path class="cls-19" d="M202.08,175.46l-.5.73A.85.85,0,0,1,202.08,175.46Z"/><path class="cls-19" d="M210.32,175.78a.83.83,0,0,1-.34.7Z"/><path class="cls-19" d="M210,176.5a.9.9,0,0,1-.35.71A1.12,1.12,0,0,1,210,176.5Z"/><path class="cls-19" d="M209.62,177.23a1,1,0,0,1-.37.71A1.1,1.1,0,0,1,209.62,177.23Z"/><path class="cls-19" d="M209.25,178a1,1,0,0,1-.36.72A1,1,0,0,1,209.25,178Z"/><path class="cls-19" d="M207.75,179.19a1,1,0,0,1-.29-.85A1.08,1.08,0,0,1,207.75,179.19Z"/><path class="cls-19" d="M208.89,178.69a1,1,0,0,1-.36.72A1.07,1.07,0,0,1,208.89,178.69Z"/><path class="cls-19" d="M205.57,172.59l-.35-.48Z"/><path class="cls-19" d="M203.36,172.11l-.31.39C203.15,172.36,203.26,172.23,203.36,172.11Z"/><path class="cls-19" d="M205.28,172.12l-.46-.36Z"/><path class="cls-19" d="M203.82,171.76l-.42.3Z"/><path class="cls-19" d="M207.83,177.21l.28-.46Z"/><path class="cls-19" d="M208.22,176.48l.28-.46Z"/><path class="cls-19" d="M207.49,177.94l.28-.46Z"/><path class="cls-5" d="M37.66,214.56l8.61-1.65c.78-.15,1.56-.29,2.34-.4a1.55,1.55,0,0,1,1.88,1,1.46,1.46,0,0,1-1.12,1.74h-.09c-2.3.55-4.63,1-7,1.43a4.88,4.88,0,0,0-2.22.74H38.54C38.25,216.49,38,215.52,37.66,214.56Z"/><path class="cls-20" d="M34.66,206.16a44.59,44.59,0,0,0,5.39-.91,5.35,5.35,0,0,1,1.26-.14,1.41,1.41,0,0,1,.31,2.76c-1.24.31-2.5.56-3.74.85-.71.15-1.44.27-2.15.41A10.46,10.46,0,0,1,34.66,206.16Z"/><path class="cls-9" d="M177,198.44c1.12-.72,2.49-.63,3.71-1.08a23.32,23.32,0,0,1,7.66.85,4.07,4.07,0,0,0,.74.51,16.33,16.33,0,0,1,9.69,17c-.08.48-.15.95-.22,1.43a1.7,1.7,0,0,1-1.18.4l-10.9-.08A17.38,17.38,0,0,0,177,198.44Z"/><path class="cls-2" d="M158.47,212a2,2,0,0,1-2-2.7,14.85,14.85,0,0,1,6.17-7.43,5.84,5.84,0,0,1,1.34-.56,1.94,1.94,0,0,1,2.29,1,2,2,0,0,1-.56,2.32,3.52,3.52,0,0,1-.45.3,10.92,10.92,0,0,0-5.1,5.73C159.82,211.39,159.38,212.06,158.47,212Z"/><path class="cls-9" d="M176.34,198.15l.38.23Z"/><path class="cls-21" d="M67.31,212.06a1.71,1.71,0,0,1-1.7-2.37,11.38,11.38,0,0,1,3.29-5,10.29,10.29,0,0,1,2.75-1.87,1.82,1.82,0,0,1,2.56.6,1.71,1.71,0,0,1-.61,2.33,1.15,1.15,0,0,1-.25.12A9.93,9.93,0,0,0,68.84,211,1.53,1.53,0,0,1,67.31,212.06Z"/><path class="cls-5" d="M56.56,202.44l.34-.34Z"/><path class="cls-22" d="M215.49,191.89a1.53,1.53,0,0,1-.38-1.12A1.3,1.3,0,0,1,215.49,191.89Z"/><path class="cls-22" d="M214.1,189.23l-.13-.65a1,1,0,0,1,.42.71A1.36,1.36,0,0,0,214.1,189.23Z"/><path class="cls-22" d="M215.11,190.78a.88.88,0,0,1-.34-.75A1.05,1.05,0,0,1,215.11,190.78Z"/><path class="cls-22" d="M214,188.62a.45.45,0,0,1-.32-.42Z"/><path class="cls-22" d="M214.72,189.86a.69.69,0,0,1-.32-.55Z"/><path class="cls-18" d="M33.5,183.78h1.82a1.25,1.25,0,0,1-1.78,0A.08.08,0,0,1,33.5,183.78Z"/><path class="cls-18" d="M35.31,183.8a2.91,2.91,0,0,1,1.85-.36C36.61,184,36,183.79,35.31,183.8Z"/><path class="cls-18" d="M37.4,183.4c.17-.17.34-.18.48,0Z"/><path class="cls-18" d="M33.13,183.44l.39.36Z"/><path class="cls-18" d="M37.9,183.45a.64.64,0,0,1,.52.32C38.24,183.67,38.07,183.56,37.9,183.45Z"/><path class="cls-18" d="M55.48,187.18a.94.94,0,0,1-.71-.44A.94.94,0,0,1,55.48,187.18Z"/><path class="cls-18" d="M56.53,188a.88.88,0,0,1-.69-.47A.83.83,0,0,1,56.53,188Z"/><path class="cls-18" d="M54,186.34a.62.62,0,0,1-.53-.29Z"/><path class="cls-18" d="M54.72,186.74a.66.66,0,0,1-.53-.33Z"/><path class="cls-18" d="M69,186.34l.27.35Z"/><path class="cls-18" d="M55.83,187.47a.5.5,0,0,1-.43-.34Z"/><path class="cls-18" d="M56.9,188.28a.49.49,0,0,1-.43-.4Z"/><path class="cls-18" d="M57.27,188.64a.54.54,0,0,1-.42-.41Z"/><path class="cls-23" d="M189.19,196.26a10.07,10.07,0,0,1,1-2.87c.85,1,2.18,1.28,3.27,1.92.57.34,1.18.61,1.7,1s1,.92.58,1.7a1.27,1.27,0,0,1-1.67.7l-.17-.08c-1-.45-2-1-2.94-1.44C190.37,196.87,189.79,196.56,189.19,196.26Z"/><path class="cls-18" d="M169.72,184.23l.32-.4Z"/><path class="cls-18" d="M169.35,185c.11-.13.21-.27.32-.39A2.37,2.37,0,0,0,169.35,185Z"/><path class="cls-18" d="M169,185.67l.31-.39A2.53,2.53,0,0,1,169,185.67Z"/><path class="cls-18" d="M168.63,186.44l.31-.41Z"/><path class="cls-18" d="M168.25,187.49c.09-.12.18-.23.28-.34C168.43,187.26,168.34,187.37,168.25,187.49Z"/><rect class="cls-24" width="250" height="250"/></svg>