<svg id="Layer_1" data-name="Layer 1" xmlns="http://www.w3.org/2000/svg" viewBox="0 0 250 250"><defs><style>.cls-1{fill:#d89922;}.cls-2{fill:#a93013;}.cls-3{fill:#c0c3bb;}.cls-4{fill:#858880;}.cls-5{fill:#86887f;}.cls-6{fill:#ecab2b;}.cls-7{fill:#e8e3c9;}.cls-8{fill:#ecac2e;}.cls-9{fill:#edad30;}.cls-10{fill:#fcfcfc;}.cls-11{fill:#f5d28d;}.cls-12{fill:#fefefe;}.cls-13{fill:#5da62c;}.cls-14{fill:#9b2b0f;}.cls-15{fill:#532d29;}.cls-16{fill:#559423;}.cls-17{fill:#a5513f;}.cls-18{fill:#4c2821;}.cls-19{fill:#c4b65f;}.cls-20{fill:#c4b760;}.cls-21{fill:#fefdfd;}.cls-22{fill:#c3705c;}.cls-23{fill:#f2c56d;}.cls-24{fill:#898c83;}.cls-25{fill:#abaca9;}.cls-26{fill:#868980;}.cls-27{fill:#fdfdfd;}.cls-28{fill:#fdfdfc;}.cls-29{fill:#e4e5e3;}.cls-30{fill:#cdd0ca;}.cls-31{fill:#eeefec;}.cls-32{fill:#dddfdc;}.cls-33{fill:#dadcd8;}.cls-34{fill:#fdfefd;}.cls-35{fill:#dee0db;}.cls-36{fill:#be422b;}.cls-37{fill:#3f8300;}.cls-38{fill:#d5cd7a;}.cls-39{fill:#c45c4a;}.cls-40{fill:#a43022;}.cls-41{fill:#83cf3f;}.cls-42{fill:#b45b50;}.cls-43{fill:#5ea72c;}.cls-44{fill:#b55c50;}.cls-45{fill:#d4c87b;}.cls-46{fill:#c3aa2b;}.cls-47{fill:#dbce75;}.cls-48{fill:#8bcb55;}.cls-49{fill:#ddd7a6;}.cls-50{fill:#ded8a8;}.cls-51{fill:#8bcb54;}.cls-52{fill:#408301;}.cls-53{fill:#3f8301;}.cls-54{fill:#418402;}.cls-55{fill:#7fb543;}.cls-56{fill:#ddd6a0;}.cls-57{fill:#8aca54;}.cls-58{fill:#c1b565;}.cls-59{fill:#8aca53;}.cls-60{fill:#88c952;}.cls-61{fill:#85c64f;}.cls-62{fill:#beb763;}.cls-63{fill:#d8d5a2;}.cls-64{fill:#448a09;}.cls-65{fill:#76ba42;}.cls-66{fill:#79bd44;}.cls-67{fill:#ded7a6;}.cls-68{fill:#6a4a46;}.cls-69{fill:#3a7500;}.cls-70{fill:#b27965;}.cls-71{fill:#d9d39b;}.cls-72{fill:#c6ba7b;}.cls-73{fill:#e7e8e5;}.cls-74{fill:#dfe1dc;}.cls-75{fill:#f8f8f8;}.cls-76{fill:#e3e4e0;}.cls-77{fill:#c0b165;}.cls-78{fill:#bfb165;}.cls-79{fill:#cac468;}.cls-80{fill:#c8c366;}.cls-81{fill:#d3c96f;}.cls-82{fill:#c7c366;}.cls-83{fill:#d4c970;}.cls-84{fill:#c2867f;}.cls-85{fill:#b55c51;}.cls-86{fill:#f4f4f4;}.cls-87{fill:#d5d5d4;}.cls-88{fill:#f1f1f0;}.cls-89{fill:#f2f2f2;}.cls-90{fill:#fefefd;}.cls-91{fill:#f9f9f9;}.cls-92{fill:#d7d8d6;}.cls-93{fill:#d9d9d7;}.cls-94{fill:#8d9087;}.cls-95{fill:#e0e2dd;}.cls-96{fill:#8e9188;}.cls-97{fill:#e0e2de;}.cls-98{fill:none;}</style></defs><title>products</title><path class="cls-1" d="M62.53,136.75a.22.22,0,0,0-.06-.18,2,2,0,0,1-.4-1.51,34.23,34.23,0,0,1,.15-5.16c.42-.78,1-.42,1.5-.19a84.57,84.57,0,0,0,16.86,5.42,1.83,1.83,0,0,1,.39.09c.54.12,1.08.2,1.3-.51a1.06,1.06,0,0,0-.78-1.43c-1.44-.47-2.91-.78-4.39-1.12a66.45,66.45,0,0,1-13.51-4.53,2.47,2.47,0,0,1-1.12-.93l0-.07a2.07,2.07,0,0,1-.44-1.39V112a2.58,2.58,0,0,1,.17-.91c.37-.67.91-.43,1.39-.21,8.73,4.07,18.1,5.47,27.53,6.57,2,.24,4,.29,6,.71a.68.68,0,0,1,.34.61v25a20.4,20.4,0,0,0-.87,5,8.16,8.16,0,0,0,.56,3,2.72,2.72,0,0,1,0,2.41,7.25,7.25,0,0,1-1.77,3.07C92.68,160,93,162.9,96.31,165a3.79,3.79,0,0,1,.66.44,1.18,1.18,0,0,1,.34.59,33.27,33.27,0,0,1-.07,7.33c-.72.86-1.79.65-2.7.91l-.38.11c-3.13,1-3.91,2.76-2.65,5.79a15.94,15.94,0,0,0,.72,1.43A10.43,10.43,0,0,0,96,184.89c.51.24,1.09.45,1.3,1.07.29,2.6.08,5.21.13,7.82V199a.79.79,0,0,1-.19.62,38,38,0,0,1-9.2,2.75,5.24,5.24,0,0,1-4-1.21c-.31-.22-.64-.65-1-.32s-.06.78.14,1.19a4.29,4.29,0,0,1,.42.68c.78,2.88,3.08,4.1,5.58,5.1,2.65,1.06,5.18,2.4,8,3,.27.12.49.28.45.63-.51,1.56,0,3.22-.38,4.79a.87.87,0,0,1-.28.35c-1.38.43-2.74-.05-4.09-.19a132.68,132.68,0,0,1-18.15-3.13,61.7,61.7,0,0,1-10.94-3.51,3.83,3.83,0,0,1-1.27-.73,1.56,1.56,0,0,1-.36-.64,7.89,7.89,0,0,1-.13-2v-24a4.36,4.36,0,0,1,.29-2.23c.52-.54,1.08-.27,1.56,0,5.3,2.52,11,3.82,16.63,5.29.51.13,1.34.74,1.66-.31s-.11-1.5-1.29-1.74a93.18,93.18,0,0,1-12-3.28,25.8,25.8,0,0,1-6.65-3,1.61,1.61,0,0,1-.17-.43,33.83,33.83,0,0,1,.09-6.52c.58-.78,1.2-.25,1.75,0a84.72,84.72,0,0,0,17,5.33c.52.11,1.29.6,1.43-.5.11-.89-.2-1.37-1.16-1.57a84.24,84.24,0,0,1-14.85-4.26,14.19,14.19,0,0,1-4-2.14v-.06a2.48,2.48,0,0,1-.42-1.77c.12-1.71-.33-3.45.32-5.12.56-.48,1.09-.18,1.62.06,5.47,2.6,11.31,4,17.13,5.47.44.12,1.06.39,1.21-.33s.22-1.4-.64-1.68c-1.15-.37-2.35-.65-3.5-.9A66.32,66.32,0,0,1,64.06,158a4.38,4.38,0,0,1-1.7-1.25v-.07a2.1,2.1,0,0,1-.41-1.5,33.09,33.09,0,0,1,.15-5.17c.34-.68.89-.48,1.37-.24,5.28,2.59,10.94,3.91,16.59,5.41.3.08.6.15.91.21.55.09,1.13.13,1.26-.6s0-1.36-.83-1.56c-2.14-.44-4.25-1-6.36-1.52a51.51,51.51,0,0,1-11.47-4.12,2.33,2.33,0,0,1-1.1-.91v-.08a1.33,1.33,0,0,1-.4-1c0-2-.36-3.9.28-5.88.66-.55,1.27-.1,1.85.17a81.14,81.14,0,0,0,16.53,5.19c.61.13,1.39.54,1.61-.5s-.33-1.38-1.21-1.56a104,104,0,0,1-13.23-3.64,34.24,34.24,0,0,1-4.18-1.77A2.18,2.18,0,0,1,62.53,136.75Z"/><path class="cls-2" d="M97.3,118.6l-.29-.23a3.08,3.08,0,0,1-.41-2.18V92c0-2,0-2-1.92-2.16-7.81-.78-15.63-1.56-23.24-3.57-2.35-.63-4.74-1.28-7-2.13-1.4-.51-1.51-.45-1.51,1.07v23a6.65,6.65,0,0,1-.15,2.13c-.92.65-1.28.52-2.09-.78V81.66a1.13,1.13,0,0,1,1.15,0c6.62,2.48,13.56,3.55,20.59,4.49C89,87,95.59,87.59,102.22,88c5.07.31,10.16.36,15.21.59q6.82.3,13.64.16c5.34-.14,10.69-.28,16-.54,8.11-.41,16.19-1.06,24.23-2.11a107.17,107.17,0,0,0,16.26-3.18c1.16-.33,2.28-.78,3.42-1.15.52-.18,1.08-.56,1.56.09a3.57,3.57,0,0,1,.17,1.45v24.91a5,5,0,0,1-.11,1.33c-.53.66-1,1.46-2.05.91a4.54,4.54,0,0,1-.23-2.1V84.83c0-.66-.38-.85-1-.66-2.68.78-5.4,1.51-8.08,2.34A1.41,1.41,0,0,0,180.22,88v24.45a9.49,9.49,0,0,1-.1,2,1.19,1.19,0,0,1-.21.44,22.72,22.72,0,0,1-6.18,1.56A163.16,163.16,0,0,1,153.42,119q-9.28.66-18.55.83c-4.1.09-8.21.3-12.29.16-8-.26-16-.29-24-1C98.09,119,97.62,119,97.3,118.6Z"/><path class="cls-2" d="M62.46,208.58l.27.28a7.29,7.29,0,0,1,.13,1.86c0,6.7,0,13.39,0,20.09a3.59,3.59,0,0,0,2,3.55,26.33,26.33,0,0,0,6.44,2.19,118,118,0,0,0,13.5,2,88.06,88.06,0,0,0,10.26.78c1.47,0,1.5,0,1.5-1.43V218.46c0-.7-.14-1.45.41-2v-.1c1.09-.49,2.19-.08,3.29,0,4.89.22,9.77.59,14.67.82,5.75.26,11.49.19,17.19.16q10.43-.06,20.81-.93a177.19,177.19,0,0,0,25.53-3.66,1.34,1.34,0,0,1,1.38.22,3.93,3.93,0,0,1,.27,2.09v19.12c0,1.9.26,2.1,2.14,1.71a19.67,19.67,0,0,0,6-1.84,3.65,3.65,0,0,0,2.07-3.54c-.07-6.25,0-12.56,0-18.85a11.27,11.27,0,0,1,.07-2,1.86,1.86,0,0,1,.19-.46c.58-.39,1.09-1.21,1.88-.31v23.07c.3,1.4-.53,2.3-1.47,3.07-2.23,1.8-4.95,2.34-7.66,2.91-4.69,1-9.38,1.4-14.13,2-3.81.47-7.63.78-11.45,1-5.08.31-10.16.52-15.23.79-6.95.34-13.9.25-20.85.29-4.24,0-8.47-.24-12.69-.31-4.69-.08-9.33-.44-14-.78-5.77-.41-11.52-.94-17.26-1.68-4.4-.57-8.85-1-13.06-2.62-1.93-.73-3.6-1.8-4.22-3.95a.69.69,0,0,1,.13-.44V207.83C61.46,207.47,62,208,62.46,208.58Z"/><path class="cls-3" d="M92.75,64.55l2.69-.08c.59-.2,1.24.12,1.83-.2h.27a2.38,2.38,0,0,1,1.64-.36c.73.17,1.67-.36,2.16.63a1.58,1.58,0,0,1-1.23.4c-11.38.79-22.66,2-33.75,5a2.09,2.09,0,0,0-.64.17,29.62,29.62,0,0,0-4,1.46,33.91,33.91,0,0,1,4.6-1.62c7.62-2.17,15.45-3,23.28-3.9,5.31-.6,10.65-1,16-1.25,2.93-.15,5.87-.34,8.81-.33,6.73,0,13.46-.42,20.18-.29,5.43.12,10.86.39,16.29.4.41,0,.79.14,1.19.14.89,0,1.78,0,2.66-.07.16-.1-.13-.2,0-.06s0,.12-.06.12h-2.61c-2.45-.33-4.9-.11-7.36-.24-7-.35-14.06-.28-21.09-.3-4.64,0-9.27.26-13.91.29-.74-.08-1.48,0-2.21-.06-.44-.05-1,0-1.08-.65a4.4,4.4,0,0,1,3.2-.31,5.83,5.83,0,0,0,3.6-.16,1.19,1.19,0,0,1,1.25.19h4.29a2.1,2.1,0,0,1,1.65-.35,68.49,68.49,0,0,0,13.43.15c3.81-.27,7.55.31,11.33.11a1.52,1.52,0,0,1,1.11.37c.36,0,.71.35,1.07.05,1.09-.5,2.22-.12,3.31-.07a11,11,0,0,1,3.91.56h1.33c.59.33,1.25,0,1.85.22l1.63,0c1.08.38,2.18,0,3.27.09,4.11.27,8.18.86,12.25,1.43.66.09,1.2.54,1.88.58h.29a53.52,53.52,0,0,1,13.16,3,16.65,16.65,0,0,1,3.91,2.07,1.86,1.86,0,0,1,.89,1.41l.53,1.05a1.26,1.26,0,0,1,0,1.32l-.06.58c-.26,1.56-1.41,2.41-2.7,3.12a38.4,38.4,0,0,1-10,3.37,175,175,0,0,1-24.22,3.32c-4.58.36-9.16.61-13.74.78-7.75.33-15.5.67-23.25.46-6.51-.18-13-.31-19.5-.72C94,85.9,85.86,85.21,77.8,84a84.37,84.37,0,0,1-12.67-2.74,22.11,22.11,0,0,1-4.93-2,5.39,5.39,0,0,1-2.34-2.24c.13.62.31,1.27-.26,1.82-.41-.39-.15-.91-.27-1.37a1.71,1.71,0,0,1-.24-1.47,5.08,5.08,0,0,0,.19-1.64c.22-1.66,1.43-2.41,2.79-3l.78-.47a10.82,10.82,0,0,1,5.31-2l1.35-.31c1.74-1.15,3.78-1.16,5.71-1.56.86-.16,1.74-.17,2.6-.29a4.17,4.17,0,0,0,1.88-.28c2.08-.87,4.32-.78,6.49-1.15A10.72,10.72,0,0,1,88.1,65h.28A16.36,16.36,0,0,1,92.75,64.55Z"/><path class="cls-4" d="M118.45,249.92l-5.39-.06c-1.31-.36-2.67,0-4-.21l-3-.08c-.88-.31-1.79,0-2.67-.19l-2.18-.06c-.68-.35-1.42,0-2.11-.21l-1.93-.06c-.59-.32-1.24,0-1.84-.2l-1.61-.08c-.51-.3-1.09,0-1.6-.19l-1.38-.06c-.4-.31-.86-.07-1.28-.16l-1.4-.11c-.4-.32-.89,0-1.3-.21L85.72,248c-.39-.31-.88,0-1.3-.2a103.36,103.36,0,0,1-20.85-4.07A17.9,17.9,0,0,1,59,241.54a2.48,2.48,0,0,1-1.36-1.85A13.13,13.13,0,0,1,57.5,237c0-.78.43-.7.84-.4,6.07,4.45,13.35,4.91,20.39,6.18,5.75,1,11.58,1.5,17.4,2,3.24.27,6.48.51,9.74.61,8.55.3,17.11.79,25.67.51,6.37-.2,12.73-.3,19.1-.72,8.19-.52,16.36-1.18,24.47-2.47a79.32,79.32,0,0,0,13.45-3c2.28-.78,4.57-1.56,6.32-3.36a.64.64,0,0,1,.61-.2c.19,4.43-.65,5.58-5.31,7.17a88,88,0,0,1-15.54,3.52c-3.66.54-7.32,1.09-11,1.39-.43.17-.93-.09-1.34.19l-1.63.13c-.51.09-1.06-.16-1.57.15a5.21,5.21,0,0,0-1.67.11c-.52.09-1.07-.13-1.56.14a8.75,8.75,0,0,0-2.17.14c-.61.08-1.25-.14-1.85.14a11,11,0,0,0-2.43.12,10,10,0,0,0-2.62.16,14.42,14.42,0,0,0-3,.11,23.19,23.19,0,0,0-3.72.14c-1.88.09-3.77-.14-5.65.12C129.12,250,123.8,250.05,118.45,249.92Z"/><path class="cls-3" d="M195.52,236.23c-1.46,2.05-3.72,2.88-5.93,3.64a95.09,95.09,0,0,1-18.36,3.81c-5.59.78-11.19,1.28-16.81,1.65-6.25.42-12.51.6-18.76.83-5,.19-10.06.18-15.09.14-5.43,0-10.86-.23-16.27-.54s-10.71-.73-16-1.3c-8.26-.9-16.5-1.9-24.44-4.5a12.85,12.85,0,0,1-6.19-3.66v3.39c-.48-1.23-.12-2.51-.23-3.76.34-.58,0-1.27.23-1.87a2.82,2.82,0,0,1,3-1.91.35.35,0,0,1,.06.24c.45,2.18,2.06,3.23,4,3.91a56.85,56.85,0,0,0,11.68,2.52c6.1.9,12.23,1.5,18.37,2,3.24.25,6.47.56,9.72.6a2.74,2.74,0,0,1,1.68.3c.56.92,1.48.36,2.22.52,7,.51,14.07.54,21.1.87,7.63.36,15.24-.07,22.85-.21a135.75,135.75,0,0,0,21.57-2,63.49,63.49,0,0,0,10.49-2.66,4.22,4.22,0,0,0,1.88-.93c.43-.63,1.18-.53,1.78-.79,2-.85,4-1.75,4.51-4.21l.14-.15C195,232.63,195.63,233.53,195.52,236.23Z"/><path class="cls-5" d="M57.61,78.75V76.41c3.51,4,8.31,4.69,12.9,5.72a138.25,138.25,0,0,0,17.87,2.76c4.78.47,9.55.83,14.34,1.1s9.7.33,14.53.56,9.81.19,14.71.15q8.4-.08,16.81-.54c5.63-.31,11.26-.74,16.86-1.34a129.43,129.43,0,0,0,20.31-3.46,32.93,32.93,0,0,0,5.79-2,7.89,7.89,0,0,0,3.78-3.23V79c-.19,1.57-1.56,1.9-2.62,2.6a.84.84,0,0,1-.54.07c-7.55,3-15.5,4.11-23.44,5.15-5.2.67-10.41,1.14-15.63,1.47-5.84.37-11.72.57-17.56.71-4.41.11-8.82.18-13.23.13-6-.07-12-.2-18-.55-9-.51-17.87-1.26-26.69-2.64a82.06,82.06,0,0,1-17.19-4.27L58.25,80A1.56,1.56,0,0,1,57.61,78.75Z"/><path class="cls-6" d="M62.46,208.58l-1.89-.79c-.39-.24-.24-.64-.24-1V178.59a.47.47,0,0,1,.31-.16,4,4,0,0,1,1.64.78c.22.19.52.34.48.71-.5.42-.29,1-.29,1.5Q62.44,195,62.46,208.58Z"/><path class="cls-7" d="M62.45,166.87a68.38,68.38,0,0,0,8.39,3.38c3.65,1,7.27,2.1,11,2.77.86.16,1.21,1.18.89,2.51-.26,1.06-.93.37-1.37.27a100.81,100.81,0,0,1-15.22-4.44c-1.24-.49-2.45-1.07-3.67-1.6-.06,0-.09-.1-.07-.14s0-.08.06-.08Z"/><path class="cls-7" d="M62.43,156.72c5.83,3.13,12.18,4.69,18.56,6.1,1.75.4,2,.87,1.75,2.65-.12.72-.55.57-1,.46-6.32-1.61-12.72-3-18.61-6a1.66,1.66,0,0,0-.38-.11c-.23-.11-.63,0-.63-.45C62.79,158.57,62.34,157.61,62.43,156.72Z"/><path class="cls-7" d="M62.47,146.75c6,3.13,12.44,4.63,18.93,6.14a1.89,1.89,0,0,1,1.35,2.31,2.67,2.67,0,0,1-.14.36c-.35.62-.88.3-1.31.2-4-1-8-2-11.93-3.29-2.34-.78-4.61-1.84-6.9-2.8-.06,0-.09-.1-.07-.14s0-.08.06-.08Z"/><path class="cls-7" d="M62.53,136.75c5.94,3.07,12.38,4.61,18.84,6.1a1.9,1.9,0,0,1,1.41,2.3,1.93,1.93,0,0,1-.2.52c-.32.51-.72.15-1.07.08-6.41-1.49-12.77-3.13-18.75-6-.23-.11-.62,0-.62-.45C62.79,138.53,62.28,137.58,62.53,136.75Z"/><path class="cls-7" d="M62.45,126.68c6,3.06,12.39,4.61,18.85,6.1a1.73,1.73,0,0,1,1.3,2.64c-.26.63-.78.37-1.13.28-3.85-1-7.69-1.89-11.46-3.13-2.58-.85-5.06-1.92-7.54-3-.06,0-.09-.09-.07-.14s0-.08.06-.08Z"/><path class="cls-3" d="M192.33,81.63l.3-.21a2,2,0,0,1,.39,1.51c-.33,8.42-.07,16.83-.14,25.25,0,1.08.48,2.2-.25,3.22q0,12.33,0,24.63v70.55q0,12.78,0,25.56a.47.47,0,0,1-.1.1l-.17-.06v-23.6c-.65-.72-.45-1.61-.45-2.43v-94a4,4,0,0,1,.43-2.46c0-5.26,0-10.51,0-15.76C192.38,89.81,192.34,85.73,192.33,81.63Z"/><path class="cls-8" d="M60.63,109.54a5.59,5.59,0,0,0,1.8,1.11.1.1,0,0,1,.1.12s0,.08-.06.08V126.6c-1-.45-2.26-.72-2.14-2.27.25-2.21.06-4.43.11-6.65s-.07-4.35.06-6.53Z"/><path class="cls-9" d="M62.46,129.36a.81.81,0,0,0,0,.22v7c-2.05-.73-2.05-.73-2.05-2.83v-5.17C61.29,128.4,61.68,129.38,62.46,129.36Z"/><path class="cls-9" d="M62.14,139.3l.63.45c-.54.51-.28,1.17-.3,1.75v5.18c-2.07-.79-2.07-.79-2.07-3v-5.19Z"/><path class="cls-9" d="M62.14,159.35l.63.45c-.54.52-.28,1.17-.3,1.77v5.2a2.63,2.63,0,0,1-2.09-3.22c.09-1.63.11-3.26,0-4.89C61.2,158.57,61.53,159.35,62.14,159.35Z"/><path class="cls-9" d="M62.46,149.45a.81.81,0,0,0,0,.22v7c-2.06-.73-2-.73-2.06-2.8,0-1.45,0-2.9-.06-4.35.26-.26-.14-.87.49-.94A4.63,4.63,0,0,0,62.46,149.45Z"/><path class="cls-6" d="M62.46,169.51a.81.81,0,0,0,0,.22v7c-.78.41-1.11-.3-1.64-.54a4.1,4.1,0,0,1-.49-.53v-5.1a2.4,2.4,0,0,0,0-1.67C61.29,168.41,61.66,169.62,62.46,169.51Z"/><path class="cls-10" d="M60.51,111.15v11.72a2.83,2.83,0,0,1-.14,1.44V112A1.14,1.14,0,0,1,60.51,111.15Z"/><path class="cls-11" d="M60.34,175.66c.2,0,.42,0,.53.25a3.88,3.88,0,0,1-.24,2.66l-.29.06Z"/><path class="cls-10" d="M57.61,234.06c-.08.63.21,1.29-.23,1.87C57.46,235.31,57.15,234.64,57.61,234.06Z"/><path class="cls-12" d="M97.24,64.27c-.57.44-1.22.16-1.84.2C96,64.07,96.66,64.35,97.24,64.27Z"/><path class="cls-12" d="M195.58,75.5a9.72,9.72,0,0,0-.06-1.32C196.37,74.59,196,75,195.58,75.5Z"/><path class="cls-12" d="M157.77,64.48c-.62,0-1.28.22-1.86-.21C156.53,64.35,157.19,64,157.77,64.48Z"/><path class="cls-10" d="M60.35,168.89a2,2,0,0,1,0,1.67Z"/><path class="cls-10" d="M60.84,148.56c-.5.13-.24.67-.49.94C60.51,149.19,59.82,148.41,60.84,148.56Z"/><path class="cls-6" d="M97.3,118.6c11.14.78,22.3,1.25,33.46,1.05,4.31-.08,8.6-.16,12.93-.38,6.25-.31,12.41-.72,18.59-1.41A134.29,134.29,0,0,0,178.69,115c.34-.09.69-.13,1-.19a1.61,1.61,0,0,1,.44,1.35c0,9,.09,18,0,27.06a1.66,1.66,0,0,1-1.23,1.41,12.34,12.34,0,0,0-3.35,1.9,2.65,2.65,0,0,0-1,1.38,4.06,4.06,0,0,1,0,.78c-.34,1.2-1.3,2-2,3a28.58,28.58,0,0,1-5.31,5.78,12.82,12.82,0,0,0-3.12,3.64,22.84,22.84,0,0,1-8,8.22c-4.15,2.49-7.63,5.84-11.6,8.59-2,1.36-4,2.69-6,4a1.62,1.62,0,0,1-1.12.37.39.39,0,0,1-.29-.45c3.17-3.45,4.54-7.81,6.12-12.08a7.59,7.59,0,0,1,2.13-3.34,15,15,0,0,0,4.59-7.69,76.49,76.49,0,0,1,5.38-13.52c.41-.78.7-1.64,1-2.46a11.57,11.57,0,0,0,.09-9.6,10.77,10.77,0,0,1,.08-8.34,19.41,19.41,0,0,0,.88-3.91c-1.65.92-2.28,2.7-3.38,4.06a29.67,29.67,0,0,1-4.69,5.79,16.47,16.47,0,0,0-4.46,6.71A139.57,139.57,0,0,1,136.32,157a146.16,146.16,0,0,1-10.94,17.9,78.22,78.22,0,0,1-11.82,12.31c-5,4.35-10.27,8.29-15.63,12.19a.54.54,0,0,1-.56-.09c-.48-.37-.3-.9-.3-1.36V185.69c0-.06.09-.1.13-.16a1.08,1.08,0,0,1,.59-.05c4.24.26,7.93-1.3,11.39-3.55a10.79,10.79,0,0,0,4.46-5.66c1.4-2.43-1.42-6.92-4.31-7.57a2.4,2.4,0,0,0-2,.5,22.52,22.52,0,0,0-4.32,3.33,5.4,5.4,0,0,1-2.41,1.35,14.61,14.61,0,0,1-2.29.16c-.42-.13-.93-.06-1.27-.45v-7.81a.8.8,0,0,1,.73-.24c3.48.3,6.12-1.46,8.41-3.71a13.7,13.7,0,0,0,4.37-7.94c.53-3.78-.08-7.34-3.21-9.8a9.06,9.06,0,0,0-7.61-1.47c-1,.21-1.5,1.27-2.5,1.46a1.92,1.92,0,0,1-.19-1.29V120C97,119.5,96.85,119,97.3,118.6Z"/><path class="cls-6" d="M179.73,212.92c-2.83.55-5.65,1.16-8.48,1.64-4.69.78-9.38,1.42-14.14,1.81-4.42.36-8.84.86-13.28,1-6.44.16-12.88.64-19.33.23-.66,0-1.33.08-2,.09-6.68,0-13.29-.37-20-.83-1.86-.13-3.7-.33-5.54-.5v-4.06c0-.43-.08-.91.54-1a49.26,49.26,0,0,0,6.45-1.56,9.7,9.7,0,0,1,4.36.42,9.68,9.68,0,0,0,7.23-1.07c3.63-2.16,7.68-3,11.72-4,4.39-1.11,8.37-2.94,11.5-6.4,1.83-2,3.8-3.9,5.79-5.75,2.94-2.74,6.68-4,10.16-5.87,1.5-.78,3-1.56,4.47-2.42a19.61,19.61,0,0,0,7.81-9.37,22.58,22.58,0,0,1,5.38-7.88,37,37,0,0,0,6.5-7.61c.23-.37.56-1.35,1.15-.21a9,9,0,0,1,.13,2.14v48.69a7.54,7.54,0,0,1-.12,2.12A1,1,0,0,1,179.73,212.92Z"/><path class="cls-13" d="M179.72,159a32.4,32.4,0,0,1-6.38,7.81A21.77,21.77,0,0,0,167.5,175c-2.35,5.91-6.85,9.56-12.44,12.22-3.53,1.67-7.27,3-10.16,5.81a67.35,67.35,0,0,0-5.47,5.35c-3.91,4.69-9.29,6.47-14.91,7.65a32.3,32.3,0,0,0-8.45,3.12,10.28,10.28,0,0,1-6,1.46,22,22,0,0,1-3.43-.5,7.64,7.64,0,0,0-5.06.61,7.69,7.69,0,0,1-4,.47l-.56-.29a1.34,1.34,0,0,1-.19-1.41.57.57,0,0,1,.28-.29,6.26,6.26,0,0,1,2.11.2,3.94,3.94,0,0,0,3-.84c-1.93-.63-3.86-.54-5.3-1.75a1.08,1.08,0,0,1-.35-.73,10.69,10.69,0,0,1,.22-2.26c.24-.5.72-.61,1.21-.74a73.84,73.84,0,0,0,10.3-3.68c3.6-1.56,7.3-2.88,10.86-4.53a123.69,123.69,0,0,0,15.92-8.46,208.6,208.6,0,0,0,18.39-12.9,143.38,143.38,0,0,0,11.82-10.63c2.23-2.3,4.21-4.84,6.32-7.25a5.37,5.37,0,0,1,1.18-1.29,4.8,4.8,0,0,0-1.16,1.26,44.86,44.86,0,0,1-4.25,4.25c-3.91,3.53-7.58,7.28-11.62,10.65a138.64,138.64,0,0,1-25.22,17.19c-4.4,2.27-8.8,4.53-13.28,6.55A97.39,97.39,0,0,1,100.31,200c-.7.16-1.36.43-2.06.57-.47.09-1,.3-1.38-.14a.85.85,0,0,1,.12-1l.32-.28h.45c1.4-.86,3-1.23,4.45-2a10.14,10.14,0,0,0,3.55-1.11,9.16,9.16,0,0,1,1.63-.54,14.27,14.27,0,0,1,2.19-.78c1.2-.44,2.42-.84,3.6-1.34a2.9,2.9,0,0,1,.53-.26c3.71-1.25,7.32-2.78,10.94-4.22a9.3,9.3,0,0,0,2.4-1.43,41.41,41.41,0,0,0,5.14-5.77c.43-.66,1.18-1,1.57-1.74a58.71,58.71,0,0,0,5.89-8.52,46.64,46.64,0,0,0,4.22-7.4q2.2-4,4-8.21a35.5,35.5,0,0,0,3-7.54c.17-.61.69-1.09.78-1.76a19.43,19.43,0,0,0,1.31-5.47,17.75,17.75,0,0,0-.2-5.77,3.93,3.93,0,0,0-1.56-2.17,1.28,1.28,0,0,1-.14-.37,21.43,21.43,0,0,1,2.35-7.25,3.23,3.23,0,0,0,.3-.72,20.16,20.16,0,0,1,2.76-3.91c.34-.33.78-.88,1.21-.62s.12.88,0,1.35c-.42,2.13-1.24,4.16-1.66,6.31a9.78,9.78,0,0,0,.93,5.81c1.26,3.07.85,6-.31,8.93-1,2.57-2.16,5.07-3.42,7.53-1.5,2.94-2.14,6.25-3.25,9.31-.86,2.42-1.76,4.79-3.85,6.44s-2.65,3.84-3.47,6a33.8,33.8,0,0,1-3.81,8.06,9.54,9.54,0,0,1-1.75,1.84c0,.08-.16.18,0,.27s.21,0,.3,0a108.58,108.58,0,0,0,13.28-9.38,49.59,49.59,0,0,1,5.13-3.59,23.43,23.43,0,0,0,8.24-8.54,11.14,11.14,0,0,1,3-3.39c3-2.35,5.11-5.53,7.39-8.54,1.15.41,2,.31,2.26-1.14.08-.46.57-.78.93-1.11s.87-.94,1.47-.49,0,.93-.22,1.56c.32-.57.71-.78.95-.31.35.69.74,1.56.17,2.25s-1.27.36-1.89-.06c.59.55,1.62.56,1.87,1.52.67,2.17.43,4.4.36,6.61A2,2,0,0,1,179.72,159Z"/><path class="cls-14" d="M62.47,110.85a.67.67,0,0,1,0-.2V85c0-2.08,0-2,1.9-1.31A82.35,82.35,0,0,0,76.8,87a119.17,119.17,0,0,0,14.07,1.9c1.56.12,3.12.45,4.74.48,1.09,0,1.45.3,1.44,1.42,0,9.19,0,18.37,0,27.55A108.76,108.76,0,0,1,84.58,117a81.58,81.58,0,0,1-19.07-4.81C64.49,111.78,63.48,111.3,62.47,110.85Z"/><path class="cls-14" d="M97,216.43v22.06c0,1.14-.13,1.44-1.48,1.29-2.27-.27-4.59-.26-6.9-.45-2.55-.21-5.06-.59-7.61-.84a67.14,67.14,0,0,1-9.77-1.56c-2.65-.65-5.37-1.23-7.64-2.94a2.58,2.58,0,0,1-1.18-2.22V210.1c0-.42-.15-.9.26-1.25,8.15,3.48,16.74,5.27,25.48,6.43C91.14,215.7,94.11,216.05,97,216.43Z"/><path class="cls-15" d="M97.24,144.06a4.79,4.79,0,0,1,4.38-2c7.54.12,9.92,5.47,9.38,11.3-.54,5.37-5.25,10.83-10.23,12.26a8.84,8.84,0,0,1-3.69.18l-.29-.25a.87.87,0,0,1,.35-.91c4.75.6,7.64-2.52,10.53-5.47a7.59,7.59,0,0,0,1.75-4.69,14.68,14.68,0,0,0-.49-7c-1.1-2.89-5-4.64-7.56-4.68a1.13,1.13,0,0,0-1,.43,4.71,4.71,0,0,0,1.65.69c2.92,1.23,5.47,2.83,6.43,6.12.87,3.13-.18,5.88-1.82,8.37a13.92,13.92,0,0,1-8.11,5.77c-.56.16-1.24.45-1.66-.33a53.49,53.49,0,0,1,0-8.3,4.81,4.81,0,0,0,.12-1.31,3.64,3.64,0,0,0-.08-2.5A10.36,10.36,0,0,1,97.24,144.06Z"/><path class="cls-16" d="M97,199.54v1a.75.75,0,0,1-.36.51c-3.12,1.36-6.25,2.85-9.78,2.81a8.35,8.35,0,0,1-2.11-.26,18.56,18.56,0,0,0,8.64.27,10.26,10.26,0,0,1,3.45-.23l.16.14c-.12.78.28,1.66-.28,2.4-.5.15-.83-.23-1.2-.42-.6-.32-1.22-.46-1.66.17a1.27,1.27,0,0,0,.32,1.76h0a6.46,6.46,0,0,0,2.08,1.16,1.09,1.09,0,0,1,.72.55V211a50.91,50.91,0,0,1-10.94-4.44,4.36,4.36,0,0,1-2.34-2.93c-.2-.82-.84-1.36-1.17-2.09a1,1,0,0,1,.27-1.3.72.72,0,0,1,1,.09l0,.06c2,2.15,4.44,1.79,6.92,1C92.84,200.76,94.89,200.16,97,199.54Z"/><path class="cls-7" d="M62.77,179.92l-.62-.45c0-.87-.36-1.79.38-2.54a62.57,62.57,0,0,0,12.23,4.45c2.35.6,4.75,1.18,7.12,1.73.43.1.78.18.78.7A11.69,11.69,0,0,1,82.5,186c0,.22-.56,0-.85-.1C75.19,184.44,68.79,182.79,62.77,179.92Z"/><path class="cls-17" d="M92,181.85a11.89,11.89,0,0,1-1.17-2.66c-.67-2.9.47-4.59,3.55-5.14a1.57,1.57,0,0,1,1,1.71c-.08,1.09.31,1.47,1.35,1.32a.55.55,0,0,1,.36.15.9.9,0,0,1,.22.36,10.72,10.72,0,0,1-.16,4.44c-.6.54-1.16.16-1.69-.12-.85-.45-1.66-1-2.58-1.57-.06.69.78,1.13.38,1.8C92.71,182.42,92.35,182,92,181.85Z"/><path class="cls-18" d="M96.82,154.28a15.4,15.4,0,0,1,.17,4.18c.06,1.9,0,3.79,0,5.69-.12.18.17.36,0,.54,0,.31.05.62-.28.79-3.55-1.28-4.59-5-2.15-7.87C95.47,156.61,96.55,155.72,96.82,154.28Z"/><path class="cls-19" d="M97,177.24a5.25,5.25,0,0,1-1.17.22c-.5,0-1.1-.13-.86-.83a2.86,2.86,0,0,0-.66-2.58,9,9,0,0,1,2.67-.52c.45.07,1-.15,1.35.24a2,2,0,0,0-1,2A1.72,1.72,0,0,1,97,177.24Z"/><path class="cls-20" d="M92,181.85l1.3.24c.26-.22.48-.1.7,0a14.93,14.93,0,0,0,3.12,2.35,1.14,1.14,0,0,1,.15.36.88.88,0,0,1-.23.74v.07A9.83,9.83,0,0,1,92,181.85Z"/><path class="cls-21" d="M62.53,176.93c-.25.83.26,1.77-.38,2.54l-1.56-.9c0-.89-.34-1.82.24-2.66l1.56.83A1.33,1.33,0,0,1,62.53,176.93Z"/><path class="cls-22" d="M179.8,114.65q0-13.64-.06-27.27a1,1,0,0,1,.86-1.14c3.07-.89,6.14-1.77,9.2-2.69,1-.31.93.3.93,1v26.1a.3.3,0,0,1,0,.38,15.08,15.08,0,0,1-4,2c-1.78.65-3.58,1.26-5.41,1.78C180.79,114.87,180.28,115.05,179.8,114.65Z"/><path class="cls-23" d="M179.8,114.65a40.56,40.56,0,0,0,9.46-3.19c.48-.22,1-.41,1.45-.63a1.51,1.51,0,0,1,.43,1.22c0,7,.13,14.07-.06,21a.32.32,0,0,1-.07.25c-2.47,2.44-3.62,6-6.75,7.89a42.4,42.4,0,0,1-3.86,2.57.72.72,0,0,1-.64,0q0-14.49,0-29Z"/><path class="cls-6" d="M190.73,133.66V110.83a.55.55,0,0,1,0-.25l1.57-.89c0,8.37,0,16.76,0,25.14v73.71l-1.56.61c-.66-.71-.45-1.57-.45-2.43V149.49c0-4-.09-7.93.08-11.89a10.54,10.54,0,0,1,.85-2.44C191.63,134.48,191,134.14,190.73,133.66Z"/><path class="cls-23" d="M190.71,137.12v72a1.8,1.8,0,0,0-.08.21c-.84,1-2.14,1.2-3.27,1.64a47,47,0,0,1-6.25,1.82,1.49,1.49,0,0,1-1.39-.14V159a20,20,0,0,0,0-8.29,3.84,3.84,0,0,0,.41-3A3.27,3.27,0,0,1,181.9,144c2.88-1.82,5.94-3.44,8-6.32C190.06,137.37,190.27,137,190.71,137.12Z"/><path class="cls-22" d="M179.77,212.68a44.91,44.91,0,0,0,9.16-2.66c.58-.23,1.16-.44,1.74-.66q0,11.31.07,22.61a1.94,1.94,0,0,1-1.05,1.56,13.23,13.23,0,0,1-5.47,2.35c-1,.19-1.92.36-2.88.53-1.14.2-1.63-.1-1.62-1.45.08-6.9,0-13.82,0-20.74v-1.33A.59.59,0,0,0,179.77,212.68Z"/><path class="cls-24" d="M192.36,232.18a.49.49,0,0,1,.17.06,4.08,4.08,0,0,1-2.34,3.42,23.28,23.28,0,0,1-3.76,1.56,5.82,5.82,0,0,1-3.18,1.2,190.17,190.17,0,0,1-23.5,3.58c-6,.53-12,.7-18,.82-3.9.08-7.81.17-11.72.21-6,.07-11.94-.31-17.9-.44a29.17,29.17,0,0,0-4.38-.24,2,2,0,0,1-1.52-.31c-.34-.31-.79-.21-1.15-.22-5.68-.22-11.32-.72-17-1.3-4.41-.46-8.82-.94-13.19-1.67-4-.68-8.1-1.22-11.79-3.13a3.65,3.65,0,0,1-2.41-3.37A6.67,6.67,0,0,0,65,236.21a53.4,53.4,0,0,0,10.68,2.24c5.89.86,11.81,1.43,17.74,1.87,4.25.32,8.51.52,12.76.7,7.56.32,15.12.51,22.66.48,8.6,0,17.14-.43,25.7-.89s17.34-1.33,25.94-2.62a29.13,29.13,0,0,0,8.86-2.35A5.2,5.2,0,0,0,192.36,232.18Z"/><path class="cls-25" d="M192.05,75.74c-1.37,1-3.05,1.41-4.55,2.17-1,.32-2,.45-2.94.78-.28.37-.69.22-1.05.26-3.72.87-7.47,1.66-11.24,2.3C167.54,82,162.78,82.58,158,83c-3.45.33-6.92.43-10.39.58-9.93.41-19.86.34-29.8.27-3.25,0-6.47-.43-9.72-.4a21.73,21.73,0,0,0-2.91-.13,10.36,10.36,0,0,1-2.48-.33c-4.57-.1-9.1-.62-13.63-1a157.89,157.89,0,0,1-17.31-2.5c-3.67-.79-7.39-1.57-10.62-3.69a6.12,6.12,0,0,1,2.71-1.37,83.13,83.13,0,0,1,13.39-3.12c5.19-.85,10.42-1.42,15.63-2,3.32-.34,6.67-.44,10-.64,5.47-.32,10.86-.6,16.29-.62,4,0,8,.1,12,.08q11.73,0,23.38.78c5.69.42,11.38.87,17,1.66,5.86.82,11.72,1.7,17.37,3.68A12.4,12.4,0,0,1,192.05,75.74Z"/><path class="cls-26" d="M192.05,75.74c-1,.23-1.64-.56-2.46-.85a91.9,91.9,0,0,0-15.28-3.49c-3.72-.62-7.49-.74-11.2-1.46a32.88,32.88,0,0,0-3.71-.26c-3.75-.34-7.51-.56-11.26-.78-9-.52-18-.31-27-.43-5-.07-9.93.26-14.9.37-4.35.08-8.71.42-13,.78-3.82.33-7.62.83-11.41,1.33A96.3,96.3,0,0,0,64,74.7c-1,.32-1.8,1-2.87,1-1-.63-.68-1.17.12-1.69a25.48,25.48,0,0,1,8.33-3.13,137.18,137.18,0,0,1,19.53-3c2.82-.26,5.65-.63,8.47-.84s5.84-.32,8.76-.44c8.36-.35,16.73-.65,25.1-.51,5.7.09,11.39.23,17.07.55,6.39.37,12.76.79,19.11,1.57a114.75,114.75,0,0,1,18.83,3.48,18,18,0,0,1,5.35,2.35C192.48,74.54,192.84,75.07,192.05,75.74Z"/><path class="cls-27" d="M152.17,64.73c-8.07.06-16.13-.36-24.23-.2-5.11.11-10.24.11-15.36.29s-10.16.36-15.17.83c-7.82.71-15.55,1.45-23.26,2.8-2.75.49-5.47,1.28-8.21,1.72-.27.12-.56.25-.54-.26A82.49,82.49,0,0,1,78.11,67Q87.49,65.41,97,64.75c1.42-.1,2.84-.14,4.25-.24a17.35,17.35,0,0,1,5.08-.45,9.57,9.57,0,0,0,3.29,0c8.2-.34,16.41-.3,24.6-.22,5.56.06,11.11.33,16.67.53a6.49,6.49,0,0,1,1.29.29Z"/><path class="cls-28" d="M108,83.35c4.94.09,9.88.21,14.84.24,5.53,0,11.07.07,16.6-.07,6.18-.16,12.36-.4,18.52-.83,4.88-.34,9.72-1,14.59-1.56.26-.08.57-.25.53.27-5.55,1-11.12,1.74-16.75,2.2-5.09.43-10.2.61-15.3.83-4.51.21-9,.23-13.49.14-6.57-.12-13.14-.5-19.71-.78a1.89,1.89,0,0,1-.6-.22C107.39,83.31,107.71,83.49,108,83.35Z"/><path class="cls-29" d="M173,81.38l-.54-.28,11-2.11c-2.89,1.09-5.94,1.46-8.93,2.14C174.08,81.25,173.55,81.3,173,81.38Z"/><path class="cls-30" d="M109.61,64a1.29,1.29,0,0,1-1.12.24c-2.42-.14-4.81.26-7.22.26-.67-.47-1.42-.12-2.13-.24.16-.08.31-.22.47-.23l6.79-.28C107.44,64.26,108.55,63.86,109.61,64Z"/><path class="cls-31" d="M65.43,69.91c.11.22.32.24.54.26l-4.54,1.67A9.86,9.86,0,0,1,65.43,69.91Z"/><path class="cls-32" d="M184.56,78.74A5.86,5.86,0,0,1,187.5,78,6.31,6.31,0,0,1,184.56,78.74Z"/><path class="cls-33" d="M102.71,83a7.75,7.75,0,0,1,2.39.28c.07,0,.1.1.07.15a.44.44,0,0,1-.12.1A3.28,3.28,0,0,1,102.71,83Z"/><path class="cls-12" d="M105.05,83.56a.89.89,0,0,1,0-.23l2.9,0c-.22.24-.51.18-.78.19Z"/><path class="cls-34" d="M152.17,64.73V64.6h2.61A6.57,6.57,0,0,1,152.17,64.73Z"/><path class="cls-10" d="M57.39,75.74c.07-.52-.18-1.08.21-1.56C57.56,74.74,57.81,75.3,57.39,75.74Z"/><path class="cls-34" d="M112.08,242.31c8.82.18,17.65.39,26.46.18,3.6-.09,7.21-.07,10.81-.24a206.2,206.2,0,0,0,36.18-4.76c.3-.07.59-.18.89-.27.23.08.66.17.17.43a15.82,15.82,0,0,1-2.2.94,73.25,73.25,0,0,1-16.24,3.48c-4.69.53-9.44.93-14.19,1.13-2.54.11-5.08.08-7.6.21-4.8.25-9.62.38-14.42.19-3.9-.16-7.73-.09-11.6-.25-4.12-.18-8.23-.5-12.34-.78,0-.3.14-.4.38-.39A26.92,26.92,0,0,1,112.08,242.31Z"/><path class="cls-35" d="M112.08,242.31c-1.33.25-2.73-.24-4,.3-.63-.15-1.48.42-1.86-.57A47.11,47.11,0,0,1,112.08,242.31Z"/><path class="cls-36" d="M126.19,136.8c.21-.27.52-.23.78-.25a3.09,3.09,0,0,1,2.93.62,7.5,7.5,0,0,1,3.25,5.47c.43,5.88-1.71,10.94-5.47,15.29a7.46,7.46,0,0,1-7.37,2.44,11.16,11.16,0,0,0,1.25.37,12,12,0,0,0,1.32.19,5,5,0,0,0,4.31-1.35c3.81-3.33,5.69-7.68,6.53-12.51a15.46,15.46,0,0,0,.26-4.5,6.62,6.62,0,0,0-2.65-4.61c-.37-.28-.92-.44-.86-1.07,2.34.26,3.3,2,4,4a12.9,12.9,0,0,1,0,7.73,28,28,0,0,1-4.81,10c-3.12,4-8.59,4.46-11.8.84a1.32,1.32,0,0,1-.51-.9c.33-1,.24-2,.52-3a5,5,0,0,1,2.35-3.13,13.44,13.44,0,0,0,3.19-2.15,4.69,4.69,0,0,0,1.24-4.9,19.92,19.92,0,0,0-.72-2.14,4.29,4.29,0,0,1,1.3-5.47A5.18,5.18,0,0,0,126.19,136.8Z"/><path class="cls-37" d="M107.45,195.75c-.46.46-1.18.15-1.65.57a12,12,0,0,0-3.51,1c-1.3,1.11-3,1.39-4.52,1.86,2.34-1.84,4.76-3.71,7.16-5.53a134.23,134.23,0,0,0,15.38-13.4c4.41-4.56,7.81-9.88,11.09-15.3a157.43,157.43,0,0,0,13.82-29.55,9.49,9.49,0,0,1,2.52-3.58,45.31,45.31,0,0,0,6-7.08c-.19,2-1.39,3.58-1.84,5.47-.2.86-.44,1.71-.57,2.58-.64.54-1.46.28-2.17.52a3.5,3.5,0,0,0-2.64,2.4,4.47,4.47,0,0,0-.08,3.24,3.2,3.2,0,0,1-.22,2.67c-.49,1.12-1.56,1.67-2.38,2.48-1.47,1.46-1.57,2.34-.52,4.12.13.13,0-.05.09.1.29.45,1.13.73.9,1.29s-1.07.33-1.65.41a3.71,3.71,0,0,0-2.86,2.62,4.79,4.79,0,0,0-.27,2.87A3,3,0,0,1,139,158a8.24,8.24,0,0,1-2.57,2.08,2.84,2.84,0,0,0-1.23,3.9,5,5,0,0,0,1.28,1.5.59.59,0,0,1,.18.52c-.78.63-1.75,0-2.56.43a3.92,3.92,0,0,0-2.47,1.79,4.84,4.84,0,0,0-1.07,3.12,3.25,3.25,0,0,1-1.22,2.68,8.73,8.73,0,0,1-2.79,1.48c-2.14,1-2.71,2.24-2,4.46.14.63,1.17,1,.73,1.67s-1.22,0-1.85,0h-.26a3.82,3.82,0,0,0-3.18,1.86,4.23,4.23,0,0,0-.78,1.79,3.87,3.87,0,0,1-2,2.79c-1,.46-2.16.43-3.12.95a3,3,0,0,0-1.37,1.16,3.78,3.78,0,0,0-.31,2.5.64.64,0,0,1-.18.33,1.45,1.45,0,0,1-.88.2,3,3,0,0,0-3.13,1.77A2.1,2.1,0,0,1,107.45,195.75Z"/><path class="cls-38" d="M97,177.24a18,18,0,0,0,0-2.08c-.14-1.08.29-1.56,1.36-1.39l2.07-.23a4.42,4.42,0,0,0,3.51.1,2.76,2.76,0,0,1,2.56.17c.48.29,1.11.59,1.62.14s.08-1-.06-1.49a2.53,2.53,0,0,0-.85-1.62c-1-.64-.84-1.25,0-1.9.91-1.28,2.57-.84,4,.22a7.4,7.4,0,0,1,3,4.82,3.15,3.15,0,0,1-.31,2.13c-.32.53-.48,1.27-1.39.94-.3-.49,0-1,.08-1.42a5.53,5.53,0,0,0-1.26-5,1.65,1.65,0,0,0-1.48-.72,13.71,13.71,0,0,1,1.26,4.19,4.17,4.17,0,0,1-1.12,3.8c-.88.33-1.83.28-2.73.57s-1.23-.29-1.38-1.06c-.08-.37-.06-.85-.61-.89a.59.59,0,0,0-.57.29c-.31.45.08.72.3,1,.1.14,0,0,.08.11,1.39,2,1.32,2.52-.56,4-.24.28-.37.68-.78.78-1,0-1.86.5-2.83.57s-1.77.26-2.34-.64c0-.56.52-.66.84-.93a2.16,2.16,0,0,0,.52-3A2.19,2.19,0,0,0,98.8,178a5.91,5.91,0,0,1-1.73-.64Z"/><path class="cls-39" d="M130.48,136.84c.68.55,1.41,1.06,2.06,1.66,1.79,1.68,2.05,3.95,1.88,6.15a28.17,28.17,0,0,1-1.72,7.47,21,21,0,0,1-5.47,7.93c-2,1.91-6.49,1.57-8-.23,2.28.53,4.45.61,6.43-.65a11.7,11.7,0,0,0,3.77-4.08c2.14-3.65,3.68-7.48,3.44-11.84a8,8,0,0,0-3.08-5.81,3.42,3.42,0,0,0-2.83-.89C128.21,136,129.33,136.45,130.48,136.84Z"/><path class="cls-40" d="M126.19,136.8c0,.83-.79,1.18-1.24,1.66a3.59,3.59,0,0,0-.91,4.12c.26.71.46,1.44.79,2.13,1.28,3-.24,5.55-2.61,7a6.85,6.85,0,0,1-.71.37,5.65,5.65,0,0,0-3.59,5.8c0,.33.23.93-.54.67-1.32-2.21-.72-4.69,1.56-6.38,1.21-.91,2.48-1.71,3.13-3.19a4.4,4.4,0,0,0,.23-3.43,6.64,6.64,0,0,1,3.13-8.4Z"/><path class="cls-41" d="M190.71,137.12c-2.12,3.22-5.35,5.1-8.53,7-1.64,1-2.06,1.8-1.72,3.67.07.4.09.79.17,1.18a1.37,1.37,0,0,1-.88,1.72l-.06,0c-.35-.78-1.25-.63-1.75-1.13-.2-.2-.57-.36-.38-.79a.66.66,0,0,1,.39-.32c.36-.05.38.29.48.52.22.52.63.52,1.11.38s.5-.54.4-1-.22-.91-.34-1.34c-.41,0-.35.31-.39.5s0,.74-.49.51c-.33-.15-.34-.48-.18-.78s1-.93.38-1.3-.92.5-1.34.86a2.35,2.35,0,0,0-.79,1c-.55,1.7-.92,1.8-2.34.69l-.28-.57c4.55-3.38,9.71-5.93,13.72-10.07a29.12,29.12,0,0,0,2-2.34c.41-.54.86-1.22,1.74-.67A6.3,6.3,0,0,1,190.71,137.12Z"/><path class="cls-42" d="M107.17,168.94c-.42.72-.41,1.19.42,1.75s.94,1.95,1.19,3c.18.78-.78,1.15-1.26.84-1.71-1-3.38-.58-5.12-.22a1.73,1.73,0,0,1-2-.78c1.75-.31,2.68-1.82,4-2.76A9.82,9.82,0,0,1,107.17,168.94Z"/><path class="cls-43" d="M191.58,135a1.42,1.42,0,0,0-1.45.78,24.67,24.67,0,0,1-9.37,8.07,40.36,40.36,0,0,0-3.91,3c-.78.59-1.56,1.38-2.7,1.27.18-1.51,1.47-2,2.53-2.7a34,34,0,0,1,3.07-1.56c3.58-2.28,7.31-4.41,9.1-8.6a2.73,2.73,0,0,1,1.87-1.56C191.2,134,192.2,134,191.58,135Z"/><path class="cls-44" d="M112.56,177.06c.6-.09.85-.68,1.33-.94a9.88,9.88,0,0,1-4.22,5.76,20.14,20.14,0,0,1-11,4c-.39,0-.79.12-1.14-.22.28-.52.84-.56,1.28-.78a2.18,2.18,0,0,1,1.12-.24,10.79,10.79,0,0,0,5.47-1.39,14.06,14.06,0,0,0,6.38-5.63A1,1,0,0,1,112.56,177.06Z"/><path class="cls-45" d="M98.87,185l-1.34.59-.52-.06v-.78a1.31,1.31,0,0,1,1.84.23Z"/><path class="cls-36" d="M125.37,137.13,123.16,139A3,3,0,0,1,125.37,137.13Z"/><path class="cls-46" d="M137.44,182.1a1.38,1.38,0,0,1-.91.53c0-.5.36-.64.67-.78Z"/><path class="cls-47" d="M136.3,165.6a2.75,2.75,0,0,1-1.3-1.45c0-2.19.78-3.78,3-4.61s3.41-2.57,2.71-4.69c-.78-2.35-.15-3.91,1.77-5.11l1.64-.11-1.11-1.32a4.32,4.32,0,0,1,2.47-5.07,4.78,4.78,0,0,0,2-1.76,2.75,2.75,0,0,0,.29-2.55c-.07-.16-.12-.33-.18-.5-1.1-3-1-3.27,1.32-5.39.78-.43,1.61-.17,2.42-.24a.74.74,0,0,0,.08.22,21.47,21.47,0,0,0,1.56,1.92,13.41,13.41,0,0,1,.27,6.17,14,14,0,0,1-2.87,6c-1.42,1.74-3.19,2.61-5.32,2,2.34,1.07,4.19.15,5.77-1.81.27-.33.51-.78,1.06-.62.16.79-.62,1-.78,1.57-.58,1.39-1.8,1.84-3.12,2.13a3.12,3.12,0,0,0-1.5.41.91.91,0,0,1-.89-.24c1.85,2.17,1.79,4.61.88,7a18.12,18.12,0,0,1-2.89,5.1c-1.66,2-3.61,3.31-6.38,2.62A.87.87,0,0,0,136.3,165.6Z"/><path class="cls-47" d="M134,166.08c.83-.48,1.78.12,2.62-.3,1.33-.42,2.58.21,3.9.32.56.56,0,.65-.35.78a4.19,4.19,0,0,1-2,.06c-.53.07-.23.35-.13.54a6.4,6.4,0,0,1-.22,6.49,17.43,17.43,0,0,1-5.9,6.57,5.91,5.91,0,0,1-5.8.62A13.56,13.56,0,0,0,128,182c.31.09.79.13.65.66-.47.36-1.1.29-1.57.58a.86.86,0,0,1-.78-.35c.52,2.35.41,4.44-1.43,6.14a83.84,83.84,0,0,1-11.16,4.32c-.1.11-.4-.08-.36.25L109.6,195c-.52-.78,0-1.67,1.14-1.88.51-.09,1.08.17,1.51-.29a.45.45,0,0,1,0-.23,3.74,3.74,0,0,1,3.46-3.84,12.07,12.07,0,0,0,1.46-.1c1.74-.3,3.12-1.39,3.19-2.94a4.33,4.33,0,0,1,2.89-4.42,4,4,0,0,1,2,.37c-.18-.78-.88-1-.93-1.69a4.32,4.32,0,0,1,3.77-4.69c2.92-.56,4.1-1.87,3.91-4.78-.13-1.68.11-3,1.64-3.91C133.8,166.51,133.87,166.27,134,166.08Z"/><path class="cls-37" d="M96.74,200.83l.27-.26a126.3,126.3,0,0,0,14.4-4.22c4.23-1.64,8.38-3.44,12.42-5.47,8-4,15.87-8.19,23-13.64,3.6-2.75,7.15-5.54,10.57-8.51,4.13-3.6,8-7.48,12-11.21.79-.69,1.57-1.3,2.35-2h0a28.64,28.64,0,0,1-4.15,5.34A129.5,129.5,0,0,1,145,180.33a177.28,177.28,0,0,1-16,10.27,140.17,140.17,0,0,1-15.12,7c-3.73,1.5-7.45,3.07-11.22,4.5-1.82.69-3.72,1.14-5.59,1.69v0A4.06,4.06,0,0,1,96.74,200.83Z"/><path class="cls-48" d="M125.37,200c6,.27,10.53-2.54,14.36-6.85.73-.83,1.46-1.67,2.2-2.5.23-.25.54-.64.89-.39s0,.66-.16.93a40.53,40.53,0,0,1-5.18,7.09,16.79,16.79,0,0,1-5.28,4.23,13,13,0,0,1-6.19,1.3c-1.09-.06-2.18-.18-3.27-.27-1.56-.12-2.34-1.05-1.92-2.58.08-.33.15-.44-.24-.69-1.21-.79-1.22-1.82,0-2.69a42.05,42.05,0,0,0,4.85-4.08,6.84,6.84,0,0,1,3.42-1.72c.23,0,.58-.11.67.24s-.15.39-.34.51c-1,.65-2,1.33-3,1.94a8.06,8.06,0,0,0-4,4.84c-.13.48-.26.78.43.7C123.49,199.93,124.42,200,125.37,200Z"/><path class="cls-48" d="M147.92,186.91c-1.56-.09-3.12.27-4.52-.73a1.56,1.56,0,0,1-.78-1.9,1.61,1.61,0,0,1,1.8-1.08,39.56,39.56,0,0,0,6,.22c3.74-.36,7.39-1,10.44-3.48A15.36,15.36,0,0,0,164,176.3a14.16,14.16,0,0,1,1.51-2c.22-.23.37-.61.73-.37s.08.54,0,.84a6.29,6.29,0,0,1-1.56,3c-2.61,2.8-5.24,5.56-8.68,7.42A14.28,14.28,0,0,1,147.92,186.91Z"/><path class="cls-48" d="M109.89,210.21c-2.43-.07-4.75-2-6.66-4.52a1.63,1.63,0,0,1,.91-2.65,1,1,0,0,0,.71-.67c.05-.19.25-.47.41-.48,1.61-.12,2.77-1.46,4.38-1.57.31,0,.67-.1.78.27s-.21.59-.48.67c-.63.2-1.19.71-1.88.63-1.11-.13-1.46.9-2.18,1.36-.39.24,0,.45.16.6,2.16,2,4.48,3.55,7.65,2.62a6.34,6.34,0,0,0,3.39-2.44c.19-.27.32-.78.78-.55s.11.53.07.78C117.4,207.88,114.58,210.22,109.89,210.21Z"/><path class="cls-49" d="M140.73,166.33a16.9,16.9,0,0,1-4.13-.55l-.3-.18c.18-.2-.57-.9.22-.66,4.69,1.38,6.55-1.82,8.48-5a11.09,11.09,0,0,0,1.73-5.23,5.6,5.6,0,0,0-2.24-4.63c.93-.31,1.33.78,2.12.64,1.6.78,2.3,3.13,1.45,5.08a35.4,35.4,0,0,1-3.94,8.23,4.31,4.31,0,0,1-2.06,2.15C141.66,166.38,141.22,166.69,140.73,166.33Z"/><path class="cls-50" d="M128.61,182.66c-1.21-.57-2.63-.78-3.52-2.24,1,.18,1.73.82,2.63.89,2.15.18,3.75-.85,5.33-2.08a16.53,16.53,0,0,0,5.07-6.92c.78-2,.21-3.9-1.14-5.72h1a3.68,3.68,0,0,1,1.82,5.06A46.8,46.8,0,0,1,134,180.2c-1.42,1.29-2.89,2.49-4.94,2.57A.74.74,0,0,1,128.61,182.66Z"/><path class="cls-51" d="M178.17,152.41a15,15,0,0,1-.3,1.88,65.13,65.13,0,0,1-2.35,7c-.12.26-.22.67-.63.51s-.24-.47-.18-.71c.72-2.61.2-5.27.24-7.91a4.17,4.17,0,0,1,.05-1.06c.26-1,.53-2.08,1.82-1.9S178,151.54,178.17,152.41Z"/><path class="cls-51" d="M155.39,124.6a.77.77,0,0,1,.21,1.09,8.22,8.22,0,0,0-.06,5.62c.35,1.05.62,2.13,1,3.18a2.72,2.72,0,0,1,.12,1.57c-.09.37-.19.9-.65.9s-.25-.56-.37-.86a6.69,6.69,0,0,0-.64-1.6c-2.06-2.79-1.73-5.65-.31-8.55C154.87,125.52,155.12,125.11,155.39,124.6Z"/><path class="cls-48" d="M166.92,164.09a4.34,4.34,0,0,1,2.44-3.56c.57-.18,1.14-.34.79.67a5.22,5.22,0,0,0,0,3.13c.28,1-.4,1.76-.67,2.62a.62.62,0,0,1-.81.35l-.1,0A7.66,7.66,0,0,1,166.92,164.09Z"/><path class="cls-51" d="M140.85,173.63c-.5,3.31-2.52,5.51-4.82,7.54-.9.78-1.84,1.56-2.77,2.28-.23.2-.49.29-.68,0s0-.43.2-.55C136.12,180.45,137.87,176.54,140.85,173.63Z"/><path class="cls-52" d="M148.1,155.81c.1-1.87.07-3.69-1.46-5.08-.1-.22-.36-.53.16-.49a5.62,5.62,0,0,0,4.29-1.91c.41.7-.1,1.28-.31,1.83-.69,1.83-1.48,3.62-2.25,5.42C148.46,155.75,148.42,156.05,148.1,155.81Z"/><path class="cls-53" d="M139.83,171.65c.12-2,0-3.81-1.82-5.06.92,0,1.86.31,2.72-.26a6.94,6.94,0,0,0,3.4-2.35c-.6,2.26-2.13,4-3.13,6.06C140.68,170.62,140.52,171.36,139.83,171.65Z"/><path class="cls-49" d="M151.93,146.74c-.88.55-1.24,1.56-2.12,2.17-2,1.34-3.4,1.41-5.54.06.2-.33.5-.11.68-.07,3.12.61,4.94-1.08,6.3-3.51a13.32,13.32,0,0,0,1.81-4.27.28.28,0,0,1,.11-.05.35.35,0,0,1,.12.07A14.15,14.15,0,0,1,151.93,146.74Z"/><path class="cls-54" d="M128.61,182.66a.39.39,0,0,0,.26,0c1.18-.14,2.29-.61,3.46-.86.26.78-.48,1-.78,1.32a33.22,33.22,0,0,1-4.36,4.59c-.17-1.51,0-3-.07-4.56-.06-.28-.09-.52.33-.51S128.22,182.65,128.61,182.66Z"/><path class="cls-55" d="M97,209.44a8.66,8.66,0,0,1-2.9-1.32c-.88-.65-1.22-1.48-.59-2.39s1.5-.78,2.35-.12c.27.22.58.4.87.6l.28.51a2.32,2.32,0,0,1,0,2.66Z"/><path class="cls-51" d="M97,209.36v-2.67a13.33,13.33,0,0,0,4.53,1.35c.44.06,1,0,1,.61s-.53.63-.9.78C100.1,210.22,98.55,209.77,97,209.36Z"/><path class="cls-56" d="M127.1,183.15c.94,1.5.46,3,.08,4.56a4.34,4.34,0,0,1-2.35,1.35c.42-1.28,1.5-2.27,1.39-3.78a6.24,6.24,0,0,0-.72-3.08C126.3,182.23,126.46,183.1,127.1,183.15Z"/><path class="cls-57" d="M155.12,174.64a12.89,12.89,0,0,1-3.05,3.91c-.36.31-.86.87-1.34.27s0-1.07.4-1.39c.92-.78,1.91-1.42,2.88-2.1C154.37,175.08,154.75,174.87,155.12,174.64Z"/><path class="cls-57" d="M149.06,159a6.35,6.35,0,0,1-2.56,5c-.2.17-.53.47-.78.12s0-.54.17-.71A25.47,25.47,0,0,0,149.06,159Z"/><path class="cls-58" d="M112.26,192.81c-.44.44-.44.45-1.18.53-1,.11-1.56.54-1.47,1.63l-2.16.78C108.18,193.38,109.84,192.46,112.26,192.81Z"/><path class="cls-59" d="M147.06,181.83c-.38,0-.79,0-.91-.41s.26-.71.62-.88c.61-.28,1.22-.54,1.84-.78a.54.54,0,0,1,.62.12c.19.21.09.42,0,.61A2.49,2.49,0,0,1,147.06,181.83Z"/><path class="cls-59" d="M166,169c.5.17,1,.53.78,1-.3.65-.16,1.86-1.15,1.82-1.15-.06-.16-1.14-.49-1.74C165,169.72,165.36,169.09,166,169Z"/><path class="cls-60" d="M174.16,163.19a7.11,7.11,0,0,1-3.66,2.93C171.33,164.66,172.77,164,174.16,163.19Z"/><path class="cls-61" d="M143.92,166.73a4.94,4.94,0,0,1-2,4Z"/><path class="cls-62" d="M102.29,197.35c.84-1.47,2.24-1,3.51-1C104.69,196.86,103.63,197.58,102.29,197.35Z"/><path class="cls-47" d="M132.33,181.8a5.78,5.78,0,0,1-3.46.86,15.7,15.7,0,0,0,5-2.46C133.62,181,132.88,181.29,132.33,181.8Z"/><path class="cls-63" d="M153,135c-.86-.33-1.24-1.23-2-1.71l.45-.21A2.54,2.54,0,0,1,153,135Z"/><path class="cls-61" d="M154.89,143.42a8,8,0,0,1,1-2.82C156,141.74,156,142.6,154.89,143.42Z"/><path class="cls-64" d="M171.72,155.58c.15-.85.87-1.21,1.47-1.66A3.7,3.7,0,0,1,171.72,155.58Z"/><path class="cls-65" d="M151.74,151.14a.92.92,0,0,1,0,1.09C151.31,151.84,151.67,151.54,151.74,151.14Z"/><path class="cls-66" d="M150.92,154.11a.44.44,0,0,1-.06.61l-.08.05c-.38,0-.17-.26-.12-.41S150.82,154.2,150.92,154.11Z"/><path class="cls-67" d="M113.33,193.62c-.22-.13-.59-.36-.4-.55s.46.29.78.31Z"/><path class="cls-68" d="M97,164.69c.15-.18-.87-.36,0-.54,5.33-.78,10.28-5.25,11.15-10.46.63-3.73-.58-6.32-4.69-8.68a16.39,16.39,0,0,0-3.22-1.25c-.24-.07-.61-.13-.59-.42s.29-.41.47-.61a1.25,1.25,0,0,1,1-.27c4.57.17,8.77,2.94,8.77,8.38,0,3-.11,5.95-1.91,8.42-2.06,2.84-5.08,4.54-8.26,5.86C98.87,165.48,97.89,165,97,164.69Z"/><path class="cls-69" d="M96.74,200.83c.57.94.12,2,.27,2.94-4.35.47-8.74,1.88-13-.41,1-.1,2.09.18,3.13.18,3.07,0,5.69-1.44,8.49-2.34C96,201.09,96.31,200.8,96.74,200.83Z"/><path class="cls-42" d="M97,177.32a3.48,3.48,0,0,1,3.23,1.36c1,1.5.4,2.86-1.56,4a.9.9,0,0,1-.73.24,1.59,1.59,0,0,1-.38-.07c-.31-.18-.78-.16-.78-.72C97.31,180.53,96.87,178.88,97,177.32Z"/><path class="cls-70" d="M96.74,182.1l.78.5c-1.32.88-2.55.46-3.76-.24l-.55-.27c-.22-.78-1.12-1.28-1-2.35C93.9,180.39,95.09,181.68,96.74,182.1Z"/><path class="cls-71" d="M97.81,182.67h.78c1.25.78,2.51.28,3.76,0,.43-.1.87-.59,1.33-.06s0,.87-.44,1a10.25,10.25,0,0,1-3.32,1.11l-1.08.29L97,184.75v-.25C96.49,183.22,96.58,183,97.81,182.67Z"/><path class="cls-72" d="M97.81,182.67c-1,.28-.79,1.12-.79,1.84a6.39,6.39,0,0,1-3.2-2.15,9.93,9.93,0,0,0,3.76.24Z"/><path class="cls-26" d="M174.42,73.4l4.53,1a3.65,3.65,0,0,1,1,.31c.58.34,1.37.51,1.39,1.43s-.74,1-1.31,1.32A16.47,16.47,0,0,1,174.54,79c-4.92.67-9.84,1.21-14.79,1.42-3.37.14-6.74.23-10.09.54s-7,.28-10.47.4c-6.58.25-13.18.14-19.77.06-3,0-6.1-.13-9.15-.18-6.7-.14-13.4-.47-20.07-1a118.12,118.12,0,0,1-14.51-1.82,15.37,15.37,0,0,1-2.88-1c-.56-.24-1.12-.56-1.16-1.17s.58-1,1.14-1.33a21.64,21.64,0,0,1,4.87-1.29,81.72,81.72,0,0,1,12-1.43c3.25-.29,6.51-.64,9.78-.68,4,0,7.92-.21,11.88-.35,7.82-.26,15.63-.19,23.44-.19,4.08,0,8.16.18,12.24.26a3.18,3.18,0,0,1,1.9.48c-.61.85-1.62.85-2.48,1.18a88,88,0,0,1-10.4-.08c-3-.24-6.06,0-9.09-.08h-5.47a29.16,29.16,0,0,0-6,.22h-4a20.78,20.78,0,0,0-4.39.19c-2.34.18-4.64,0-7,.11a11.35,11.35,0,0,1-3.13.23H95a6.51,6.51,0,0,0-2,.15,3,3,0,0,1-.66.1c-1.56.18-3.13.25-4.69.43a2.45,2.45,0,0,1-.66.1,21.94,21.94,0,0,0-3.13.29,6.51,6.51,0,0,0-2.19.21c-.78.1-1.61.33-2.43.4a15.2,15.2,0,0,0-4.25,1,18.64,18.64,0,0,0,5.81,1.3c5.12.72,10.27,1.09,15.42,1.41,6.9.41,13.8.4,20.69.63,1.34,0,2.67.19,4,.15h13.29a3.68,3.68,0,0,0,1.32-.12c2.83-.28,5.68-.06,8.52-.13,1,0,2,0,2.92-.07.18,0,0,0,.12-.07s.08-.14-.05-.19a2.94,2.94,0,0,1-1.1-.91c-.25-.44-.56-1,.33-1.11A8.66,8.66,0,0,0,152,78.66c3.64-.12,7.28.12,10.94-.31,1.87-.22,3.9.35,5.83.33a8.32,8.32,0,0,0,4.58-1.25,4.75,4.75,0,0,1,1.78-.47,1.91,1.91,0,0,1,.41-.11,8.59,8.59,0,0,1,1.81-.32c.18,0,.4,0,.5-.16.2-.32-.12-.38-.3-.41-.78-.14-1.5-.52-2.3-.6-.43,0-.9,0-1.15-.49A1.26,1.26,0,0,1,174.42,73.4Z"/><path class="cls-3" d="M175.49,77.14a8.29,8.29,0,0,0-2.8,1.11c-2.58,1.13-5.3.78-8,.55a12.55,12.55,0,0,0-2.6-.1,64.21,64.21,0,0,1-13.15,0,3.51,3.51,0,0,1-2.7-1.57c-1.05-1.28-.91-3.57.25-4.32a14.88,14.88,0,0,1,5-1.21h2.82a44.1,44.1,0,0,0,5-.11,14.33,14.33,0,0,1,4.08.28c.86.3,1.66-.15,2.49-.17a33.18,33.18,0,0,0,4.11-.1c1.73,0,3.31.32,4.38,1.86v1.56A6.1,6.1,0,0,0,175.49,77.14Z"/><path class="cls-73" d="M151.39,71.84c-1.56.39-3.19.32-4.56,1.3a.38.38,0,0,1,0-.53l0,0a8.15,8.15,0,0,1,2.13-.84c.78.06,1.44-.36,2.2-.17C151.21,71.63,151.39,71.62,151.39,71.84Z"/><path class="cls-74" d="M159.36,71.52c-1.67.53-3.38.12-5.07.22-.07,0-.1-.09-.07-.14s.05-.07.07-.07Z"/><path class="cls-75" d="M170,71.53c-1.47.49-3,.14-4.48.22-.06,0-.08-.1-.06-.14s.05-.06.07-.06Z"/><path class="cls-76" d="M165.57,71.55v.2c-.63.56-1.48.12-2.18.46-.06,0,0-.27.07-.41C164.17,71.84,164.83,71.37,165.57,71.55Z"/><path class="cls-12" d="M154.28,71.53v.21l-2.9.06-.27-.26Z"/><path class="cls-77" d="M134,166.08c.28.25.56.47,0,.78-1.43.71-1.84,1.76-1.7,3.44.3,3.49-1.06,4.9-4.54,5.4a3.74,3.74,0,0,0-2.86,2.5,13.66,13.66,0,0,0-.57,1.78c-1.09-1.71-.16-4,2.09-4.86a8.43,8.43,0,0,0,2.73-1.32,2.17,2.17,0,0,0,1.38-2.05,9.37,9.37,0,0,1,1-3.91A3.6,3.6,0,0,1,134,166.08Z"/><path class="cls-77" d="M149,133.06a1,1,0,0,1-.39.79c-1.39,1.08-1.49,2.34-.87,4,1.16,3,.7,4.12-2.07,5.76-1.49.88-2.49,2-2.31,3.86a2.49,2.49,0,0,1-.23.88c-1.12-1.68-1-2.86.3-4.27.78-.86,2-1.36,2.62-2.41a1.92,1.92,0,0,0,.57-2,7.86,7.86,0,0,1-.26-4.11A3.46,3.46,0,0,1,149,133.06Z"/><path class="cls-78" d="M142.56,149.76c.22.78-.55.85-.87,1.12a2.52,2.52,0,0,0-.78,3.07c.93,2.87.21,4.69-2.61,5.84a3.9,3.9,0,0,0-2.89,3.52,3.19,3.19,0,0,1-.38.84,3,3,0,0,1,1-4.28,16,16,0,0,0,2.71-1.91,1.9,1.9,0,0,0,.78-2.09,9.58,9.58,0,0,1,.05-3.5A3.75,3.75,0,0,1,142.56,149.76Z"/><path class="cls-77" d="M123.24,181.27c.32.61-.2.71-.55.79-1.38.3-1.79,1.27-1.85,2.54-.13,3-1.61,4.42-4.58,4.46-2.15,0-3.12.91-4,3.51a2.54,2.54,0,0,1,.25-2.76c.61-.16.89-.74,1.36-1.09,1-.69,2.2-.53,3.24-1a2.6,2.6,0,0,0,1.9-2,26.92,26.92,0,0,1,.78-2.61A3.8,3.8,0,0,1,123.24,181.27Z"/><path class="cls-79" d="M131.52,167.8a42.5,42.5,0,0,1-.86,4.61c-.16.61-.4,1.61-1.56,1.36a3.51,3.51,0,0,0,1.19-2.82A4.13,4.13,0,0,1,131.52,167.8Z"/><path class="cls-80" d="M139.6,152.37c.08,1.49.22,3,.19,4.48,0,.45-.16,1.24-1,1.11a4.62,4.62,0,0,0,.39-3.28A3.51,3.51,0,0,1,139.6,152.37Z"/><path class="cls-81" d="M146.31,135.51c-.13,1.65.42,3.23.48,4.84,0,.52.08,1.25-.78,1.3a3.56,3.56,0,0,0,.12-2.79A4.25,4.25,0,0,1,146.31,135.51Z"/><path class="cls-82" d="M119.79,183.17c-.25,1.75-.25,3.63-2.13,4.64-.23.12-.4.15-.56-.07a3.71,3.71,0,0,0,1.88-3A2.55,2.55,0,0,1,119.79,183.17Z"/><path class="cls-83" d="M113.86,188.72c-.36.48-.48,1.27-1.36,1.09A2.28,2.28,0,0,1,113.86,188.72Z"/><path class="cls-84" d="M100,184.75a11,11,0,0,1,2.76-1.18c.45-.19,1-.26,1-.9l.44-.79a16.06,16.06,0,0,0,4.53-3.12,2.37,2.37,0,0,1,1.24-.74c.69-.15,1.35-.61,2.11-.33-.89,2.08-2.63,3.41-4.36,4.69a18.43,18.43,0,0,1-6.75,2.7A.83.83,0,0,1,100,184.75Z"/><path class="cls-71" d="M112,177.59a4.32,4.32,0,0,1-2.15.48c-.11,0-.15-.08-.12-.15s0-.1.09-.1c1.61-2.3.86-4.62,0-6.94-.11-.29-.28-.56-.41-.84s-.19-.42,0-.62.41,0,.61,0c1.42.34,2.86,2.48,3,4.34a11,11,0,0,1-.53,3.26Z"/><path class="cls-85" d="M109.86,177.82v.25a24.53,24.53,0,0,1-3.91,3.06,4.93,4.93,0,0,1-1.81.69l.16-.2c.41-.52,1.52-.43,1.45-1.21a3.82,3.82,0,0,0-1.26-2.57c-.33-.28-.66-.48-.42-1a1.59,1.59,0,0,1,1.45-.78c.59,0,.6.53.62,1,.07,1.1.44,1.62,1.57.94C108.39,177.63,109.14,177.86,109.86,177.82Z"/><path class="cls-25" d="M146.8,72.56v.54c-.42,0-.83,0-.78.6a9.9,9.9,0,0,0,.22,3.47c-.59,1.19.89,1.12,1.1,1.82a3.69,3.69,0,0,1-2.68.5c-4.18-.07-8.36.26-12.5.31-3.55-.1-7.09.22-10.64.13a1,1,0,0,0-.64.13c-15.63-.61-31.31-.07-46.68-3.69,1.56-1.22,3.42-1.3,5.18-1.65a4.72,4.72,0,0,0,2.5-.14c.86-.29,1.77,0,2.63-.25s1.8-.06,2.69-.27A9.36,9.36,0,0,1,89,73.91c1.8-.14,3.6-.24,5.38-.51,1.51-.12,3,.11,4.54-.13a16.84,16.84,0,0,1,2.92-.17c2.12,0,4.23-.11,6.34-.26a24.12,24.12,0,0,0,3.61-.12c1.22,0,2.43,0,3.63,0,2-.09,3.91-.2,5.91-.38,4.81,0,9.62-.21,14.41,0C139.43,72.56,143.11,72.46,146.8,72.56Z"/><path class="cls-86" d="M132.12,79.56,147.35,79l1.21.31a89.86,89.86,0,0,1-12.68.53,23.68,23.68,0,0,1-3.37.09C132.29,79.92,132.08,79.88,132.12,79.56Z"/><path class="cls-25" d="M175.49,77.14c-1.41-.22-1.12-1.26-1.06-2.2a10.57,10.57,0,0,1,3.19.58c.46.09,1.14.17,1.11.68s-.68.58-1.17.62a1.73,1.73,0,0,0-1.84.31h-.23Z"/><path class="cls-87" d="M132.12,79.56c1.22.56,2.52.06,3.76.27a1.74,1.74,0,0,1-1.28.23H120.86a.62.62,0,0,1,.57-.26C125,80,128.55,79.31,132.12,79.56Z"/><path class="cls-88" d="M94.35,73.65a49,49,0,0,1-5.41.47c-.42-.22-.92.08-1.32-.22a25.42,25.42,0,0,1,4.85-.5C93.08,73.67,93.79,73.05,94.35,73.65Z"/><path class="cls-89" d="M94.35,73.65c-.62-.11-1.29.19-1.88-.23l.52-.09c.61-.24,1.29.06,1.91-.19H97c.6.27,1.28-.09,1.86.24C97.4,73.85,95.86,73.55,94.35,73.65Z"/><path class="cls-87" d="M121.34,72.32a19.13,19.13,0,0,1-5.89.47V72.6A26.4,26.4,0,0,1,121.34,72.32Z"/><path class="cls-87" d="M108.22,73.08c-.28-.4-.78-.17-1.09-.31a15.59,15.59,0,0,1,4.37-.17.51.51,0,0,1,.25.25C110.61,73.4,109.39,73,108.22,73.08Z"/><path class="cls-12" d="M87.08,74.18a8.75,8.75,0,0,1-2.7.23c-.26.17-.48.22-.51-.21A12.81,12.81,0,0,1,87.08,74c.09,0,.12.11.09.17S87.14,74.18,87.08,74.18Z"/><path class="cls-90" d="M98.88,73.4c-.61-.11-1.28.2-1.86-.24a22.57,22.57,0,0,0,3-.21c.54.43,1.27-.08,1.8.37Z"/><path class="cls-91" d="M83.91,74.24l.5.2a6.15,6.15,0,0,1-2.66.24c-.06-.05-.09-.09-.06-.13s0-.06.07-.06C82.39,73.9,83.17,74.33,83.91,74.24Z"/><path class="cls-10" d="M111.75,72.85l-.25-.25h4v.19Z"/><path class="cls-92" d="M81.76,74.49a.6.6,0,0,1,0,.19,2.26,2.26,0,0,1-2.39,0Z"/><path class="cls-93" d="M175.72,77.13c.47-.91,1.15-.64,1.84-.31Z"/><path class="cls-12" d="M87.08,74.18v-.26l.51,0c.44.08.93-.14,1.32.22Z"/><path class="cls-25" d="M94.89,73.14a3,3,0,0,1-1.91.19C93.59,73,94.26,73.16,94.89,73.14Z"/><path class="cls-25" d="M158.6,76.87h-5.86c-2.47,0-2.47,0-2.43-2.44.39-.64,1-.63,1.65-.63h7.36c.63,0,1.28,0,1.65.64l.09.06c0,.13.06.25.08.38C161.46,77.15,160.89,77.6,158.6,76.87Z"/><path class="cls-25" d="M166.4,76.88c-1.84-.16-.86-1.57-1.09-2.46a4.49,4.49,0,0,1,4.76,0l.08.06c.58,2.43.36,2.7-2.07,2.65A7.34,7.34,0,0,1,166.4,76.88Z"/><path class="cls-94" d="M161,74.42a3.41,3.41,0,0,0-1.81-.24h-7.3a3.09,3.09,0,0,0-1.56.24c-.09-.91.57-1,1.21-1h8.26C160.41,73.4,161.09,73.49,161,74.42Z"/><path class="cls-95" d="M158.6,76.87c2.35,0,2.35,0,2.46-2.38a6.19,6.19,0,0,1,.41,1c.37,1.49,0,1.94-1.56,1.94-1.85,0-3.7,0-5.56-.07C155.76,76.86,157.25,77.46,158.6,76.87Z"/><path class="cls-96" d="M170.07,74.42a9.83,9.83,0,0,0-4.76,0c.55-2,2.11-.79,3.19-1C169.12,73.29,170.11,73.2,170.07,74.42Z"/><path class="cls-97" d="M166.4,76.88a16.89,16.89,0,0,1,2.25,0c1.18.13,1.64-.31,1.47-1.48a4.71,4.71,0,0,1,0-.92,2.09,2.09,0,0,1,.39,2.34c-.29.78-1.19.55-1.88.57A3.14,3.14,0,0,1,166.4,76.88Z"/><rect class="cls-98" width="250" height="250"/></svg>