<svg id="Layer_1" data-name="Layer 1" xmlns="http://www.w3.org/2000/svg" viewBox="0 0 250 250"><defs><style>.cls-1{fill:#459b1e;}.cls-2{fill:#8fd86e;}.cls-3{fill:#368916;}.cls-4{fill:#56a929;}.cls-5{fill:#56a953;}.cls-6{fill:#ea8e2a;}.cls-7{fill:#8fd853;}.cls-8{fill:#d8641a;}.cls-9{fill:#39394d;}.cls-10{fill:#353549;}.cls-11{fill:#313147;}.cls-12{fill:#68bb35;}.cls-13{fill:#459b45;}.cls-14{fill:#2a2a40;}.cls-15{fill:#313146;}.cls-16{fill:#37374c;}.cls-17{fill:none;}</style></defs><title>products</title><path class="cls-1" d="M64.08,157.51a2.1,2.1,0,0,0,.94-.66,66.93,66.93,0,0,1,11.36-11.7,3.09,3.09,0,0,0,.23-.31,1,1,0,0,1,.49-.41.88.88,0,0,0,.32-.12,1,1,0,0,0,.32-.3h0l4.2-2.78c3-2,6-2.33,9-.27a2.2,2.2,0,0,0,1.27.38c2.27,1.86,2.72,4.38,2.23,7a6.58,6.58,0,0,0,3.26,7.44,87.36,87.36,0,0,1,7.84,5.07,7.77,7.77,0,0,1,2.89,8.53c-.65,2.8-1.41,5.57-2,8.36-.81,3.5,0,5.5,3,7.56,2.31,1.59,4.79,2.93,7.1,4.54a9.4,9.4,0,0,1,3.09,3.21c-.09,2-1.64,2.58-3.09,3q-5.1,1.6-10.31,2.78c-.45.09-.88.23-1.32.32a63.92,63.92,0,0,1-12.35-3.57c-2.55-1.09-3.8-3.28-4.27-6.11-.56-3.44-.06-6.9-.64-10.32a6.42,6.42,0,0,0-4.93-5.45c-2.62-.8-5.27-1.48-7.91-2.21-3.78-1-6.07-3.33-6.54-7.34a6.48,6.48,0,0,0-2.94-5.07C64.74,158.77,64.06,158.38,64.08,157.51Z"/><path class="cls-2" d="M188.44,136.64A40.76,40.76,0,0,1,192,141a22,22,0,0,1,3.5,11.65,1.73,1.73,0,0,1-.07,2.17,29.52,29.52,0,0,0-3.57,9.67,5.84,5.84,0,0,1-4.41,4.54,24,24,0,0,0-14.29,11.19,26.88,26.88,0,0,0-2.81,7.88c-.22,1-.44,2.09-1.73,2.34a1.64,1.64,0,0,1-1.19-1.42c-.65-3.27-1.89-6.37-2.8-9.56a2.84,2.84,0,0,1-.06-1.16c.82-4.55,3.29-7.39,8-8.42a45.88,45.88,0,0,0,7.38-2.61,10.81,10.81,0,0,0,1.27-.5c.53-.31,1-.67.73-1.39s-.82-.6-1.35-.47a22.28,22.28,0,0,0-3.16,1c-1.82.73-3.68,1.33-5.56,1.89a1.73,1.73,0,0,1-2-.3c-.54-.64-.25-1.35,0-2a7.15,7.15,0,0,1,5.11-5.13c3.25-.94,6.41-2.2,9.59-3.38.37-.14.74-.27,1.1-.43.59-.26,1.05-.65.81-1.34a1.18,1.18,0,0,0-1.62-.57c-1.48.54-3,1-4.43,1.57a32,32,0,0,1-4.28,1.41c-1.84.44-2.53-.31-1.87-2.1,1.06-2.87,2.34-5.66,3.58-8.46a10.37,10.37,0,0,0,.78-2c.12-.53.25-1.09-.34-1.39a1,1,0,0,0-1.35.4.85.85,0,0,0-.09.22c-.64,1.28-1.27,2.57-1.84,3.89-3.4,7.84-6.73,15.71-10.26,23.49-.37.82-.65,1.75-1.74,1.94-1.2-.2-1.66-1.18-2.16-2.08a59.79,59.79,0,0,0-7.09-10.25,4,4,0,0,1-1.25-2.79c-.12-2.38-.39-4.74-.29-7.13a3,3,0,0,1,1.21-2.68,21.19,21.19,0,0,1,33-13.41Z"/><path class="cls-3" d="M119.4,193.05a1.73,1.73,0,0,1-1-.49c-2.32-2.47-5.38-3.87-8.16-5.68a21.43,21.43,0,0,1-2.82-2.09,6.47,6.47,0,0,1-1.92-6.6c.67-2.93,1.38-5.84,2.19-8.73a7.4,7.4,0,0,0-1.92-7.56,5.64,5.64,0,0,1-.46-.63c0-1.1.82-1.58,1.56-2.07,1.73-1.15,3.52-2.23,5.29-3.32,2.83-1.76,4.1-4.14,3.48-7.56-.48-2.65-.22-5.22,2.26-7a2.48,2.48,0,0,0,1.44-.52,7.33,7.33,0,0,1,8.26,0,28.62,28.62,0,0,0,4,2.43,6.18,6.18,0,0,1,3.36,1.83,65.07,65.07,0,0,1,9.84,10,3.47,3.47,0,0,1,1.17,2.59c-.14.22.14,0-.06.18-2.78,2.15-4,5-4.62,8.46-.45,2.44-2.41,4-4.79,4.77-2.71.94-5.51,1.6-8.28,2.35-4.08,1.1-5.86,3.14-5.91,7.38a85.81,85.81,0,0,1-.51,8.78C121.58,191.07,121.57,192.88,119.4,193.05Z"/><path class="cls-4" d="M117.85,141.32c.23.5,0,.85-.32,1.23a6.82,6.82,0,0,0-1.14,5.57c.72,3.92-.45,6.44-3.87,8.54-2.44,1.5-4.84,3.07-7.26,4.61a10,10,0,0,1-2.87-1.64c-1.9-1.13-3.77-2.34-5.65-3.51a6.58,6.58,0,0,1-3.15-7.24,7.89,7.89,0,0,0-1.17-6.5,1,1,0,0,1-.13-1.09A27.73,27.73,0,0,1,117.85,141.32Z"/><path class="cls-5" d="M145.6,157.38c-1.8-1.94-3.35-4.1-5.2-6a75.32,75.32,0,0,0-7.61-6.9,4.8,4.8,0,0,1-1.26-1.2,17.79,17.79,0,0,1,20.37,4.1c.47.5.75,1.26,1.59,1.32a20.55,20.55,0,0,0-.1,7.54,4.83,4.83,0,0,1-.34,2.65,1.17,1.17,0,0,1-1.1.18,12.9,12.9,0,0,0-5.06-1A1.66,1.66,0,0,1,145.6,157.38Z"/><path class="cls-6" d="M225.81,250.63c-.85,0-1.69.06-2.54.06h-79c-.85,0-1.7,0-2.55.06s-1.82-.06-2.73-.06H102.67c-.72,0-1.43,0-2.15.05s-1.57-.05-2.35-.05H21.52c-.85,0-1.69,0-2.54-.06V226.44c0-2,0-2,2.07-2,2.28,0,4.56-.06,6.83-.09.86-.94,2-.82,3.11-.83H50.17c2.9,0,3.09-.28,3.2-3.12.07-1.65-.46-3.4.63-4.93,1.35-.37,1.33.69,1.42,1.47a37,37,0,0,1,.09,4.47c0,1.47.67,2.15,2.13,2.11a35.43,35.43,0,0,1,4.48.15c1.32-.25,2.65.06,4-.06,3.75-.15,7.5-.11,11.25,0,1.77.15,3.53-.18,5.29-.08,1,.39,1.94,0,2.91,0h35.24c1.61,0,3.23.54,4.83-.1,10.24.21,20.48,0,30.72.09h9.2a19.82,19.82,0,0,0,2.67,0c1.43.37,2.85-.06,4.27,0,5.86.11,11.72-.11,17.58.13q13.35-.27,26.71,0a62.88,62.88,0,0,1,7-.06c2.1.08,2.76.65,2.79,2.68.13,7.42.08,14.84,0,22.26A2.45,2.45,0,0,1,225.81,250.63Z"/><path class="cls-7" d="M77.35,224.38H66c-2.06-1.4-1.84-3.5-1.49-5.5,1.16-6.07,4.52-10.31,10.67-12,.34-.07.68-.15,1-.25.53-.2.93-.54.77-1.17s-.67-.77-1.23-.68a13.59,13.59,0,0,0-5.49,2,16.63,16.63,0,0,0-5,4.67c-.44.67-.92,1.42-1.81,1.28s-1-1.11-1.09-1.87a63,63,0,0,1-.17-13.31,62.2,62.2,0,0,1,1-7.94c.14-.7.32-1.58-.68-1.73s-1.09.72-1.26,1.42a33.71,33.71,0,0,0-1,6c-.15,2.34-.46,4.67-.52,7a69,69,0,0,0,2.52,19.33c.25.94.64,1.9-.23,2.76-2,0-3.91.06-5.87,0-1.56,0-1.63-.09-1.66-1.7V217.4a3.07,3.07,0,0,0-.26-1.91c-.33.21-.62.56-1,.59a69.07,69.07,0,0,1-10.57,0,1.25,1.25,0,0,1-1-.82c-.6-2.55-.75-5.17-1.2-7.74v-5.26a60.85,60.85,0,0,1,2.94-19.55c.13-.43.21-.87.31-1.31s.1-.68.34-.94h0c.84-1.9,1.66-3.81,2.52-5.7a81.61,81.61,0,0,1,6.11-10.42c.27-.17.16-.59.48-.73h0a1,1,0,0,1,.39-.45h0c.1-.16.25-.28.35-.43h0c.27-.18.16-.61.5-.73h-.06a.86.86,0,0,1,.41-.45h0a17.39,17.39,0,0,0,1.33-1.39,7.24,7.24,0,0,1,8.07-2.81,7.54,7.54,0,0,1,5.09,7,6.55,6.55,0,0,0,5,5.93c2.74.85,5.53,1.55,8.3,2.31a8.64,8.64,0,0,1,4,2.29c1.73,1.69,2.1,3.85,2.19,6.1.09,2.67.08,5.34.35,8,.33,3.35,1.85,5.44,5.07,6.48,3.53,1.15,7.2,1.87,10.7,3.13,2.46.45,3.91,2,4.33,4.78a34.35,34.35,0,0,1,.48,6.41,29,29,0,0,0,.29,4.46,6.25,6.25,0,0,0,4.8,5.52c2.79.87,5.65,1.51,8.45,2.38,1.12.35,2.48.59,2.44,2.27h-25.1c-6,0-12,0-18,0-.42-1.48.75-2.13,1.6-2.83a20.6,20.6,0,0,1,7.23-3.77c.44-.14.87-.29,1.31-.42.77-.22,1.65-.47,1.3-1.53-.3-.89-1.11-.72-1.83-.53a23.68,23.68,0,0,0-10.94,5.88C80,222.33,79,223.71,77.35,224.38Z"/><path class="cls-8" d="M41.66,215.29l10.3.07a6.88,6.88,0,0,1,2.31.16v7c0,1.7-.14,1.85-1.73,1.86H27.92v-7c0-1.95,0-2,1.9-2H40.11C40.62,215.38,41.14,215.32,41.66,215.29Z"/><path class="cls-9" d="M77.1,144.43l-.49.41Z"/><path class="cls-9" d="M77.74,144l-.32.3Z"/><path class="cls-10" d="M53.13,163.64a1,1,0,0,1-.48.73A1,1,0,0,1,53.13,163.64Z"/><path class="cls-10" d="M54.32,162.08a.88.88,0,0,1-.5.73A1,1,0,0,1,54.32,162.08Z"/><path class="cls-10" d="M53.47,163.24a.56.56,0,0,1-.39.45Z"/><path class="cls-10" d="M53.8,162.88a.52.52,0,0,1-.35.43Z"/><path class="cls-10" d="M54.67,161.68a.53.53,0,0,1-.41.45Z"/><path class="cls-11" d="M44,180.49a1.12,1.12,0,0,1-.34.94A1.16,1.16,0,0,1,44,180.49Z"/><path class="cls-5" d="M190.08,224.42h-22c-.46-1.49.71-2.32,1.48-3.18,3.84-4.27,7.7-8.52,11.49-12.84a7.05,7.05,0,0,1,5.34-2.4,51.25,51.25,0,0,1,5.68,0c5.11.19,10.18-.63,15.28-.43a3.08,3.08,0,0,0,1.53-.28,1.16,1.16,0,0,0,.73-1.25,1.12,1.12,0,0,0-.91-.92,1.92,1.92,0,0,0-.58-.11,111.63,111.63,0,0,0-12.54.14,42.2,42.2,0,0,1-6.26.14c-1.85-.09-2.25-1-1.26-2.62a35.28,35.28,0,0,1,3.7-4.29c2.32-2.73,4.83-5.32,7.16-8a5.18,5.18,0,0,1,4.48-2c4.58.24,9.13-.3,13.7-.4a7.59,7.59,0,0,0,1.17-.09c.78-.17,1.36-.58,1.3-1.45s-.75-1-1.43-1a87.85,87.85,0,0,0-9.6.11c-.32,0-.64.15-1,.16-.93,0-1.94.09-2.4-.92s.21-1.6.79-2.25c5.54-6.16,11-12.43,16.56-18.54a4.69,4.69,0,0,0,.51-.59c.47-.72,1.06-1.53.26-2.29s-1.59-.1-2.19.51c-3.2,3.26-6.21,6.7-9.24,10.12-3.51,4-7,7.92-10.51,11.87-2,2.29-4.12,4.54-6.12,6.86a6,6,0,0,1-.84.83c-1.4,1.08-2.54.67-2.77-1.06-.41-3-.72-6.09-.85-9.15a6.14,6.14,0,0,0-.26-2.13c-.26-.65-.64-1.19-1.43-1.07a1.34,1.34,0,0,0-1.18,1.5.15.15,0,0,1,0,.07c.25,3.25.41,6.51.79,9.74.19,1.62.31,3.24.55,4.85a5.87,5.87,0,0,1-1.79,5.13c-5.84,6.33-11.43,12.89-17.27,19.22-.68.73-1.29,1.84-2.54.76-.71-1.91.19-3.72.47-5.53a65,65,0,0,0,.07-18c-.14-1.15-.5-2.34.63-3.24a9.58,9.58,0,0,0,.84-2.59c2.06-9.79,7.8-16.31,17.38-19.34a5.44,5.44,0,0,0,4.19-4.62,24.13,24.13,0,0,1,3.62-9.44,4.37,4.37,0,0,0,.69-1.6c.73-.13,1-.78,1.44-1.25a23.7,23.7,0,0,1,13.82-7.87,24.29,24.29,0,0,1,19.58,4.49c.52.39,1.06.75,1.59,1.12h.2a1.34,1.34,0,0,1,.4,0l.18.08a1.2,1.2,0,0,1,.34.21l.15.13a1,1,0,0,1,.28.26s.13.14.14.13a1.72,1.72,0,0,1,.27.27s.13.15.14.14a1.16,1.16,0,0,1,.26.28,1.79,1.79,0,0,0,.13.14,1.94,1.94,0,0,1,.26.31,1.83,1.83,0,0,1,.24.31l.27.32a2.28,2.28,0,0,1,.29.33,1.82,1.82,0,0,1,.34.34l.17.19a3.65,3.65,0,0,1,.5.67,20.49,20.49,0,0,1,4,12.94,20.21,20.21,0,0,0,.21,4.66,17.29,17.29,0,0,1-2.4,7.7c0,.18-.09.37-.15.56a8.23,8.23,0,0,1-.47,1c-3.42,5.55-8,9.67-14.34,11.62a6.27,6.27,0,0,0-3.63,2.1,4.28,4.28,0,0,0-.37,1,3.11,3.11,0,0,0-.45,1.55A24.59,24.59,0,0,1,206.44,214c-1.56.91-3.41,1.25-5,2.16-2.73.2-5.47,0-8.2.12-1.94.05-2.23.36-2.3,2.32v3.7A2.62,2.62,0,0,1,190.08,224.42Z"/><path class="cls-12" d="M168.82,190.25a30.06,30.06,0,0,0,.5,5.43,63.61,63.61,0,0,1-1,19.94c-.12.57-.17,1.16-.25,1.73a7.55,7.55,0,0,1-2.34,7c-.45,0-.91.07-1.36.07H127a10.32,10.32,0,0,1-1.36-.06,5.3,5.3,0,0,0-2.72-1.46c-2.63-.72-5.27-1.44-7.91-2.14a7.91,7.91,0,0,1-5.12-3.62,12,12,0,0,1-1.08-5.3c-.13-2.33-.08-4.66-.28-7a7.85,7.85,0,0,0-3.68-6.3c3.28-1.08,6.63-1.93,10-2.82,1.78-.47,3.53-1,4.6-2.7a6.37,6.37,0,0,0,1.6-4.29c.19-2.92.21-5.86.43-8.77.32-4.07,2.06-6.33,6.12-7.34,2.84-.71,5.67-1.51,8.48-2.35a6.45,6.45,0,0,0,4.87-6,7.7,7.7,0,0,1,4.25-6.5,3.22,3.22,0,0,0,.43-.39h1.76a8,8,0,0,1,5.66,1.5c1.28,1.62,2.57,3.24,3.84,4.87a77.49,77.49,0,0,1,6.08,9.68c2,1,2.15,2.83,2.3,4.69.14.57.23,1.15.42,1.7a67.73,67.73,0,0,1,2.66,9.17A2.15,2.15,0,0,0,168.82,190.25Z"/><path class="cls-5" d="M165.27,178.13c-1.13-1.38-1.47-3.15-2.3-4.69a65.33,65.33,0,0,0,3.36-7.26c3.22-7.28,6.37-14.59,9.56-21.89a4.72,4.72,0,0,1,.7-1.16,1.78,1.78,0,0,1,2.3-.49,1.6,1.6,0,0,1,.88,2,17.15,17.15,0,0,1-1,2.56c-1.34,3.12-2.7,6.23-4,9.34a.48.48,0,0,0,.06.59,3.46,3.46,0,0,0,1.61-.4l8.29-3a2,2,0,0,1,2.49.48,1.91,1.91,0,0,1-.18,2.7,2,2,0,0,1-.82.43c-2.14.82-4.3,1.55-6.46,2.31s-4.17,1.53-6.28,2.21a2.71,2.71,0,0,0-1.88,1.81c-.43,1.19-1,2.34-1.66,4l7.05-2.43c1.18-.41,2.33-.87,3.52-1.23a1.89,1.89,0,0,1,2.51.92l.06.15c.43,1,0,1.89-1.27,2.45-1.5.64-3,1.17-4.58,1.72-2.64,1-5.29,1.91-8,2.79a3.12,3.12,0,0,0-2.2,2A35.49,35.49,0,0,1,165.27,178.13Z"/><path class="cls-13" d="M165.72,224.38c1-2.26,1.42-4.73,2.34-7,1.29-1.37,2.65-2.68,3.87-4.12,2.92-3.42,6-6.74,9-10.09,2.26-2.52,4.44-5.13,6.81-7.55a3.08,3.08,0,0,0,.8-2.13,33.34,33.34,0,0,0-.45-4.47c-.26-3.76-.67-7.52-1.05-11.27a2.53,2.53,0,0,1,1.47-2.89,2.07,2.07,0,0,1,2.67,1,5,5,0,0,1,.48,2.28c0,3.46.62,6.87.8,10.32,0,.32,0,.7.41.8s.62-.15.83-.39c1.32-1.45,2.71-2.84,3.91-4.38,1.69-2.17,3.74-4,5.48-6.11,2.61-3.17,5.41-6.18,8.11-9.27,1-1.13,2.06-2.17,3-3.32,2.16-2.52,4.46-4.93,6.79-7.31,1.27-1.31,2.5-1.15,3.43.22a1.58,1.58,0,0,1,.17,1.83,9.17,9.17,0,0,1-.93,1.48c-2.7,3-5.46,6-8.15,9s-5.15,5.88-7.73,8.82c-.6.68-1.29,1.3-1.88,2s-.35,1,.4,1a3.35,3.35,0,0,0,1,0c3.7-.7,7.43-.24,11.15-.33,1.55,0,2.18.59,2.22,1.86a2.3,2.3,0,0,1-2.08,2.41H218c-5,0-9.9.67-14.87.38a3.7,3.7,0,0,0-3.26,1.39c-2.69,3.1-5.42,6.16-8.13,9.25-1.23,1.41-2.78,2.56-3.74,4.55a29.07,29.07,0,0,0,6.46,0,39.82,39.82,0,0,1,4.88-.29H208c1.72,0,2.85.84,2.84,2,0,1.33-1.1,2.29-2.89,2.27-6.27-.09-12.52.68-18.79.42a20.51,20.51,0,0,0-4.88.35,2.87,2.87,0,0,0-1.78,1c-2.85,3.23-5.82,6.35-8.63,9.61-1.92,2.22-4,4.28-5.74,6.66A7.91,7.91,0,0,1,165.72,224.38Z"/><path class="cls-8" d="M201.81,215.29l11.87.1h1.17c1.85,0,1.86,0,1.88,1.8v7.2H190.07v-7c0-2,0-2,1.92-2h8.62C201,215.37,201.42,215.32,201.81,215.29Z"/><path class="cls-12" d="M62.07,224.38c-.42-1.71-.86-3.42-1.28-5.13A63.2,63.2,0,0,1,59,200.62a68,68,0,0,1,1.48-11.82v-.19c.32-1.48,1.28-2.29,2.36-2a2.14,2.14,0,0,1,1.39,2.8,75.75,75.75,0,0,0-1.36,18.89,34.22,34.22,0,0,0,.49,4.07c1-.69,1.33-1.73,1.95-2.5a17,17,0,0,1,10.4-6.11A1.89,1.89,0,0,1,78.08,205a.75.75,0,0,1,0,.16,1.87,1.87,0,0,1-1.28,2.31,2.57,2.57,0,0,1-.4.07,14,14,0,0,0-5.88,2.54c-3.33,2.58-4.82,6.07-5.34,10.09a11.24,11.24,0,0,0,.79,4.21A23.56,23.56,0,0,1,62.07,224.38Z"/><path class="cls-8" d="M203.4,243.56c-2.39,0-4.94-2.43-4.94-4.73a5,5,0,1,1,10-.34A5.5,5.5,0,0,1,203.4,243.56Z"/><path class="cls-8" d="M46,238.34a4.61,4.61,0,0,1-4.06,5.1,4.81,4.81,0,0,1-.85,0,4.77,4.77,0,0,1-4.91-4.61c0-.13,0-.26,0-.39a5,5,0,0,1,5-5A5,5,0,0,1,46,238.34Z"/><path class="cls-12" d="M77.35,224.38a23.5,23.5,0,0,1,11.56-9,24.9,24.9,0,0,1,3.17-1c1.58-.42,2.58,0,2.9,1.15.37,1.33-.2,2.14-1.89,2.59a24.31,24.31,0,0,0-6.67,2.76,12.8,12.8,0,0,0-3.92,3.48A36.88,36.88,0,0,1,77.35,224.38Z"/><path class="cls-14" d="M219,193.77l.85.44c.36.2.63.48.47.92a.79.79,0,0,1-.71.56.76.76,0,0,1-.84-.61c-.05-.18-.06-.37-.1-.56A1.08,1.08,0,0,1,219,193.77Z"/><path class="cls-15" d="M237.53,178.88a1.09,1.09,0,0,1-.4.79A1.09,1.09,0,0,1,237.53,178.88Z"/><path class="cls-16" d="M234.35,151.48a1,1,0,0,1,.46.71A1,1,0,0,1,234.35,151.48Z"/><path class="cls-16" d="M235.2,152.64l.37.48Z"/><path class="cls-16" d="M234.85,152.24l.33.4Z"/><path class="cls-16" d="M234,151.08l.41.42Z"/><path class="cls-16" d="M233.58,150.69l.41.41Z"/><path class="cls-16" d="M233.2,150.3l.41.41Z"/><path class="cls-16" d="M232.79,149.88l.42.42Z"/><path class="cls-16" d="M232.4,149.51l.42.42Z"/><path class="cls-16" d="M232,149.12l.41.41Z"/><rect class="cls-17" width="250" height="250"/></svg>