<svg id="Layer_1" data-name="Layer 1" xmlns="http://www.w3.org/2000/svg" viewBox="0 0 87.76 48.06"><defs><style>.cls-1{fill:#adb0d7;}.cls-2{fill:#8b93b4;}.cls-3{fill:#dbcfb5;}.cls-4{fill:#f1ede3;}.cls-5{fill:#fff;}.cls-6{fill:#c2c4e1;}.cls-7{fill:#c8cae4;}</style></defs><path class="cls-1" d="M15.35,0h57A11.81,11.81,0,0,1,84.13,11.81V26a0,0,0,0,1,0,0H3.54a0,0,0,0,1,0,0V11.81A11.81,11.81,0,0,1,15.35,0Z"/><path class="cls-2" d="M39.61-20.95H56.55a0,0,0,0,1,0,0V53a0,0,0,0,1,0,0H39.61a8.5,8.5,0,0,1-8.5-8.5v-57A8.5,8.5,0,0,1,39.61-20.95Z" transform="translate(59.86 -27.8) rotate(90)"/><path class="cls-3" d="M17.09,17.26A12.05,12.05,0,0,1,18,21.94c0,5-2.86,9.12-6.39,9.12A5.28,5.28,0,0,1,7.76,29.2c1.12,2.66,3.15,4.45,5.48,4.45,3.53,0,6.39-4.09,6.39-9.12A10.81,10.81,0,0,0,17.09,17.26Z"/><path class="cls-4" d="M11.61,31.06C15.14,31.06,18,27,18,21.94a12.05,12.05,0,0,0-.91-4.68,5.25,5.25,0,0,0-3.85-1.85c-3.53,0-6.39,4.08-6.39,9.12a12.18,12.18,0,0,0,.91,4.67A5.28,5.28,0,0,0,11.61,31.06Z"/><path class="cls-5" d="M10.35,20.36a.67.67,0,0,1-.43-.12.74.74,0,0,1-.23-1,4.87,4.87,0,0,1,3.85-2.52.76.76,0,0,1,.78.74.75.75,0,0,1-.73.78A3.42,3.42,0,0,0,11,20,.74.74,0,0,1,10.35,20.36Z"/><path class="cls-3" d="M78.27,17.26a12.05,12.05,0,0,1,.91,4.68c0,5-2.86,9.12-6.38,9.12a5.28,5.28,0,0,1-3.86-1.86c1.12,2.66,3.15,4.45,5.48,4.45,3.53,0,6.39-4.09,6.39-9.12A10.81,10.81,0,0,0,78.27,17.26Z"/><path class="cls-4" d="M72.8,31.06c3.52,0,6.38-4.09,6.38-9.12a12.05,12.05,0,0,0-.91-4.68,5.25,5.25,0,0,0-3.85-1.85c-3.53,0-6.39,4.08-6.39,9.12a12.18,12.18,0,0,0,.91,4.67A5.28,5.28,0,0,0,72.8,31.06Z"/><path class="cls-5" d="M71.53,20.36a.67.67,0,0,1-.43-.12.75.75,0,0,1-.23-1,4.87,4.87,0,0,1,3.85-2.52.76.76,0,0,1,.78.74.75.75,0,0,1-.73.78A3.39,3.39,0,0,0,72.15,20,.78.78,0,0,1,71.53,20.36Z"/><path class="cls-3" d="M63,17.26a12.24,12.24,0,0,1,.91,4.68c0,5-2.86,9.12-6.39,9.12a5.26,5.26,0,0,1-3.85-1.86c1.11,2.66,3.15,4.45,5.48,4.45,3.53,0,6.39-4.09,6.39-9.12A10.81,10.81,0,0,0,63,17.26Z"/><path class="cls-4" d="M57.5,31.06c3.53,0,6.39-4.09,6.39-9.12A12.24,12.24,0,0,0,63,17.26a5.25,5.25,0,0,0-3.85-1.85c-3.53,0-6.39,4.08-6.39,9.12a12,12,0,0,0,.91,4.67A5.26,5.26,0,0,0,57.5,31.06Z"/><path class="cls-5" d="M56.23,20.36a.71.71,0,0,1-.43-.12.76.76,0,0,1-.23-1,4.9,4.9,0,0,1,3.86-2.52.76.76,0,1,1,0,1.52A3.42,3.42,0,0,0,56.85,20,.75.75,0,0,1,56.23,20.36Z"/><path class="cls-3" d="M47.68,17.26a12.05,12.05,0,0,1,.91,4.68c0,5-2.86,9.12-6.39,9.12a5.28,5.28,0,0,1-3.85-1.86c1.12,2.66,3.15,4.45,5.48,4.45,3.53,0,6.39-4.09,6.39-9.12A10.81,10.81,0,0,0,47.68,17.26Z"/><path class="cls-4" d="M42.2,31.06c3.53,0,6.39-4.09,6.39-9.12a12.05,12.05,0,0,0-.91-4.68,5.25,5.25,0,0,0-3.85-1.85c-3.53,0-6.39,4.08-6.39,9.12a12.18,12.18,0,0,0,.91,4.67A5.28,5.28,0,0,0,42.2,31.06Z"/><path class="cls-5" d="M40.94,20.36a.67.67,0,0,1-.43-.12.74.74,0,0,1-.23-1,4.87,4.87,0,0,1,3.85-2.52.76.76,0,0,1,.78.74.75.75,0,0,1-.73.78A3.39,3.39,0,0,0,41.56,20,.78.78,0,0,1,40.94,20.36Z"/><path class="cls-3" d="M32.39,17.26a12.24,12.24,0,0,1,.91,4.68c0,5-2.86,9.12-6.39,9.12a5.26,5.26,0,0,1-3.85-1.86c1.11,2.66,3.15,4.45,5.48,4.45,3.52,0,6.38-4.09,6.38-9.12A10.8,10.8,0,0,0,32.39,17.26Z"/><path class="cls-4" d="M26.91,31.06c3.53,0,6.39-4.09,6.39-9.12a12.24,12.24,0,0,0-.91-4.68,5.25,5.25,0,0,0-3.85-1.85c-3.53,0-6.39,4.08-6.39,9.12a12,12,0,0,0,.91,4.67A5.26,5.26,0,0,0,26.91,31.06Z"/><path class="cls-5" d="M25.64,20.36a.71.71,0,0,1-.43-.12.76.76,0,0,1-.23-1,4.9,4.9,0,0,1,3.86-2.52.76.76,0,0,1,0,1.52A3.42,3.42,0,0,0,26.26,20,.75.75,0,0,1,25.64,20.36Z"/><path class="cls-6" d="M84.74,29.51l-.32.94-1.14,3.28-.61,1.75-3,8.66a5.84,5.84,0,0,1-5.52,3.92H68.88a4.81,4.81,0,0,1-4.8-4.79,1.36,1.36,0,0,0-.92-1.34A1.34,1.34,0,0,0,61.4,43.2v.07a4.8,4.8,0,0,1-4.8,4.79H50a4.79,4.79,0,0,1-4.8-4.78,1.39,1.39,0,0,0-1.11-1.4,1.33,1.33,0,0,0-1.56,1.32v.07a4.8,4.8,0,0,1-4.8,4.79H31.15a4.79,4.79,0,0,1-4.8-4.78,1.39,1.39,0,0,0-1.11-1.4,1.34,1.34,0,0,0-1.57,1.32v.07a4.8,4.8,0,0,1-4.8,4.79H13.58a5.85,5.85,0,0,1-5.53-3.93l-3-8.65-.61-1.75L3.34,30.45,3,29.51Z"/><path class="cls-7" d="M85.24,30.44H2.52a2.52,2.52,0,0,1,0-5H85.24a2.52,2.52,0,1,1,0,5Z"/><polygon class="cls-1" points="84.42 30.45 83.28 33.73 4.46 33.73 3.34 30.45 84.42 30.45"/></svg>