<svg id="Layer_1" data-name="Layer 1" xmlns="http://www.w3.org/2000/svg" viewBox="0 0 48.16 95.93"><defs><style>.cls-1{fill:#eef8fe;}.cls-2{fill:#e92b40;}.cls-3{fill:#ae104b;}.cls-4{fill:#ff3d3d;}.cls-5{fill:#fff;}.cls-6{fill:#299aea;}.cls-7{fill:#61b6f2;}</style></defs><polygon class="cls-1" points="30.24 18.47 0 18.46 8.96 7.27 39.2 7.27 30.24 18.47"/><rect class="cls-2" x="30.24" y="18.47" width="17.92" height="77.46"/><polygon class="cls-3" points="39.2 7.27 35.73 11.61 48.16 18.46 39.2 7.27"/><polygon class="cls-4" points="48.16 18.46 35.73 11.61 30.24 18.47 48.16 18.46"/><path class="cls-4" d="M12.58,0h23A3.62,3.62,0,0,1,39.2,3.62V7.27a0,0,0,0,1,0,0H9a0,0,0,0,1,0,0V3.62A3.62,3.62,0,0,1,12.58,0Z"/><rect class="cls-1" y="18.47" width="30.24" height="77.46"/><path class="cls-4" d="M30.24,18.47V52.66A15.13,15.13,0,0,1,0,52.66V18.46Z"/><path class="cls-5" d="M15.12,64a12.09,12.09,0,1,1,12.1-12.09A12.1,12.1,0,0,1,15.12,64Zm0-23.48A11.4,11.4,0,1,0,26.53,51.91,11.41,11.41,0,0,0,15.12,40.52Z"/><ellipse class="cls-5" cx="15.12" cy="51.91" rx="9.68" ry="9.67"/><path class="cls-6" d="M19.69,7.55a5.28,5.28,0,0,0-3.21,1.59,5.16,5.16,0,0,0-1.58,3.2l-1.08.44,1.78,1.77.05,0c1.28,1.28,3.73.91,5.47-.83S23.23,9.58,22,8.3L20.13,6.48Z"/><path class="cls-7" d="M20.13,6.48c1.28,1.27.9,3.72-.84,5.46s-4.19,2.12-5.47.84-.91-3.73.84-5.47S18.85,5.2,20.13,6.48Z"/><path class="cls-1" d="M25.77,30.68H4.47a1,1,0,1,1,0-2h21.3a1,1,0,0,1,0,2Z"/><path class="cls-1" d="M9.77,35.23H4.47a1,1,0,1,1,0-2h5.3a1,1,0,0,1,0,2Z"/><path class="cls-1" d="M25.77,35.23h-11a1,1,0,0,1,0-2h11a1,1,0,0,1,0,2Z"/><path class="cls-4" d="M9.77,91.94H4.47a1,1,0,1,1,0-2h5.3a1,1,0,0,1,0,2Z"/><path class="cls-4" d="M25.77,91.94h-11a1,1,0,0,1,0-2h11a1,1,0,0,1,0,2Z"/><path class="cls-7" d="M7,50.08a.93.93,0,0,1,.93-.93.91.91,0,0,1,.88.62l.75,2.11c.05.17.09.32.11.42l0,.18h0l0-.18c0-.1.06-.24.12-.42l.75-2.14a.9.9,0,0,1,1.74.3V53.4a.59.59,0,0,1-1.18,0V50.73h0l0,.26a4,4,0,0,1-.15.56l-.71,2a.63.63,0,0,1-.59.42A.64.64,0,0,1,9,53.57l-.71-2c-.06-.2-.12-.41-.15-.56a2.38,2.38,0,0,1-.05-.26h0v2.7a.56.56,0,1,1-1.12,0Z"/><path class="cls-7" d="M13.29,49.75a.6.6,0,1,1,1.2,0v3.63a.6.6,0,1,1-1.2,0Z"/><path class="cls-7" d="M15.43,49.75a.61.61,0,0,1,.61-.6.6.6,0,0,1,.6.6V53H18.3a.5.5,0,0,1,0,1H16a.49.49,0,0,1-.54-.54Z"/><path class="cls-7" d="M19.39,49.74a.58.58,0,0,1,.59-.59.59.59,0,0,1,.6.59v1.54l1.5-1.94a.53.53,0,0,1,.4-.19.5.5,0,0,1,.5.5.47.47,0,0,1-.11.31l-1,1.2,1.22,1.91a.57.57,0,0,1,.09.32.59.59,0,0,1-.58.6.61.61,0,0,1-.51-.28l-1-1.64-.52.64v.69A.6.6,0,0,1,20,54a.59.59,0,0,1-.59-.59Z"/><rect class="cls-3" x="33.79" y="26.62" width="10.97" height="14.45" rx="2.09"/><rect class="cls-3" x="33.79" y="85.83" width="10.97" height="6.11" rx="2.09"/><rect class="cls-3" x="33.79" y="45.24" width="10.97" height="31.85" rx="2.09"/><path class="cls-3" d="M7.61,18.46v.05A7.61,7.61,0,0,1,0,26.11V18.46Z"/><path class="cls-6" d="M19,78.82A3.84,3.84,0,1,1,15.12,75,3.84,3.84,0,0,1,19,78.82Z"/></svg>