<svg id="Layer_1" data-name="Layer 1" xmlns="http://www.w3.org/2000/svg" viewBox="0 0 72.31 59.69"><defs><style>.cls-1{fill:#74b8e2;}.cls-2{fill:#1379da;}.cls-3{fill:#b0e2fc;}.cls-4{fill:#ceecfc;}.cls-5{fill:#fafdff;}.cls-6{fill:#61b6f2;}.cls-7{fill:#ff3d3d;}.cls-8{fill:#fff;}.cls-9{fill:#299aea;}</style></defs><rect class="cls-1" x="2.97" y="6.34" width="14.13" height="2.11"/><path class="cls-2" d="M3.57,0H16.49A1.47,1.47,0,0,1,18,1.47V6.23a.85.85,0,0,1-.85.85H3a.85.85,0,0,1-.85-.85V1.47A1.47,1.47,0,0,1,3.57,0Z"/><path class="cls-3" d="M18.84,14.05,17.1,8.45H12.7l1.74,5.6a27,27,0,0,1,1.22,8V56.22a3.47,3.47,0,0,1-3.47,3.47h4.4a3.47,3.47,0,0,0,3.47-3.47V22.08A27,27,0,0,0,18.84,14.05Z"/><path class="cls-4" d="M15.66,56.22V22.08a27,27,0,0,0-1.22-8L12.7,8.45H3l-1.74,5.6a26.76,26.76,0,0,0-1.23,8V56.22a3.47,3.47,0,0,0,3.47,3.47h8.72A3.47,3.47,0,0,0,15.66,56.22Z"/><path class="cls-5" d="M5,13.84a.78.78,0,0,1-.37,0,.77.77,0,0,1-.5-1l.71-2.24a.77.77,0,0,1,1-.5.76.76,0,0,1,.5,1l-.71,2.24A.77.77,0,0,1,5,13.84Z"/><path class="cls-5" d="M4.57,16.26l-.2.63a18.06,18.06,0,0,0-.55,5.61.77.77,0,1,1-1.53.12,19.32,19.32,0,0,1,.6-6.14.1.1,0,0,0,0,0l.21-.64a.77.77,0,0,1,1.46.46Z"/><polygon class="cls-6" points="15.66 25.71 15.66 55.4 0 55.4 0 30.48 1.07 27.13 4.9 25.71 15.66 25.71"/><path class="cls-7" d="M4.78,25.71A4.78,4.78,0,0,1,0,30.48V25.71Z"/><path class="cls-8" d="M13.77,29.69H6.29a.54.54,0,1,1,0-1.07h7.48a.54.54,0,1,1,0,1.07Z"/><path class="cls-8" d="M13.77,53.65H6.29a.54.54,0,1,1,0-1.07h7.48a.54.54,0,1,1,0,1.07Z"/><path class="cls-8" d="M9.51,51.09H6.3A.54.54,0,1,1,6.3,50H9.51a.54.54,0,1,1,0,1.07Z"/><path class="cls-8" d="M13.77,51.08h-2a.54.54,0,1,1,0-1.07h2a.54.54,0,1,1,0,1.07Z"/><rect class="cls-9" x="15.66" y="25.71" width="4.4" height="29.69"/><path class="cls-8" d="M16.43,36.86a7.48,7.48,0,0,0-.77-1.35A6.86,6.86,0,0,0,3.84,36.86H0v5.43H3.84a6.86,6.86,0,0,0,11.82,1.35,7.48,7.48,0,0,0,.77-1.35h3.63V36.86Z"/><path class="cls-7" d="M2,38.12a.34.34,0,0,1,.3.18l.53,1,.5-1a.31.31,0,0,1,.29-.18.33.33,0,0,1,.32.32.42.42,0,0,1,0,.16l-.71,1.25v.92a.38.38,0,0,1-.38.37.37.37,0,0,1-.37-.37v-.88l-.73-1.25A.34.34,0,0,1,2,38.12Z"/><path class="cls-7" d="M5.44,38.09a1.54,1.54,0,0,1,0,3.08,1.54,1.54,0,0,1,0-3.08Zm0,2.49c.38,0,.66-.28.66-.95s-.28-.94-.66-.94-.66.27-.66.94S5.06,40.58,5.43,40.58Z"/><path class="cls-7" d="M8.67,38.09c.54,0,1.11.25,1.11.66a.3.3,0,0,1-.3.33c-.4,0-.27-.42-.81-.42-.37,0-.68.28-.68,1s.31,1,.67,1A.56.56,0,0,0,9.27,40v0H8.86a.26.26,0,0,1,0-.52h.76a.3.3,0,0,1,.34.33v1a.31.31,0,0,1-.61,0v-.05h0a.85.85,0,0,1-.8.38c-.76,0-1.3-.53-1.3-1.5A1.43,1.43,0,0,1,8.67,38.09Z"/><path class="cls-7" d="M10.52,38.5a.37.37,0,0,1,.38-.38.38.38,0,0,1,.37.38V40c0,.33.14.54.48.54s.48-.22.48-.54V38.5a.38.38,0,1,1,.75,0V40a1.07,1.07,0,0,1-1.22,1.19c-.94,0-1.24-.5-1.24-1.19Z"/><path class="cls-7" d="M13.54,38.49a.31.31,0,0,1,.34-.34h1c.67,0,1.09.33,1.09.91a.89.89,0,0,1-.53.84l.37.71a.33.33,0,0,1,0,.17.36.36,0,0,1-.36.36.37.37,0,0,1-.32-.19l-.44-.85H14.3v.67a.38.38,0,0,1-.76,0Zm1.13,1c.26,0,.49-.07.49-.4s-.23-.4-.49-.4H14.3v.8Z"/><path class="cls-7" d="M16.41,38.15h1.88a.3.3,0,0,1,.3.3.29.29,0,0,1-.3.3h-.56v2a.38.38,0,0,1-.75,0v-2h-.57a.29.29,0,0,1-.29-.3A.3.3,0,0,1,16.41,38.15Z"/><path class="cls-9" d="M14.36,36a5.4,5.4,0,0,0-4.21-1.92,5.28,5.28,0,0,0-4.8,2.84H15A4.24,4.24,0,0,0,14.36,36Z"/><path class="cls-9" d="M5.94,43.23a5.42,5.42,0,0,0,4.22,1.92A5.26,5.26,0,0,0,15,42.31H5.35A5,5,0,0,0,5.94,43.23Z"/><rect class="cls-1" x="29.09" y="6.34" width="14.13" height="2.11"/><path class="cls-2" d="M29.7,0H42.62a1.47,1.47,0,0,1,1.47,1.47V6.23a.85.85,0,0,1-.85.85H29.08a.85.85,0,0,1-.85-.85V1.47A1.47,1.47,0,0,1,29.7,0Z"/><path class="cls-3" d="M45,14.05l-1.74-5.6H38.82l1.74,5.6a27,27,0,0,1,1.22,8V56.22a3.47,3.47,0,0,1-3.47,3.47h4.41a3.47,3.47,0,0,0,3.47-3.47V22.08A27,27,0,0,0,45,14.05Z"/><path class="cls-4" d="M41.78,56.22V22.08a27,27,0,0,0-1.22-8l-1.74-5.6H29.09l-1.74,5.6a27.07,27.07,0,0,0-1.22,8V56.22a3.46,3.46,0,0,0,3.46,3.47h8.72A3.47,3.47,0,0,0,41.78,56.22Z"/><path class="cls-5" d="M31.09,13.84a.74.74,0,0,1-.36,0,.76.76,0,0,1-.5-1l.71-2.24a.76.76,0,0,1,1-.5.77.77,0,0,1,.5,1l-.71,2.24A.79.79,0,0,1,31.09,13.84Z"/><path class="cls-5" d="M30.7,16.26l-.21.63A18.05,18.05,0,0,0,30,22.5a.77.77,0,1,1-1.54.12A19.62,19.62,0,0,1,29,16.48a.1.1,0,0,1,0,0l.2-.64a.77.77,0,0,1,1.47.46Z"/><polygon class="cls-6" points="41.79 25.71 41.79 55.4 26.13 55.4 26.13 30.48 27.19 27.13 31.02 25.71 41.79 25.71"/><path class="cls-7" d="M30.91,25.71a4.78,4.78,0,0,1-4.78,4.77V25.71Z"/><path class="cls-8" d="M39.9,29.69H32.41a.54.54,0,0,1,0-1.07H39.9a.54.54,0,1,1,0,1.07Z"/><path class="cls-8" d="M39.9,53.65H32.41a.54.54,0,0,1,0-1.07H39.9a.54.54,0,1,1,0,1.07Z"/><path class="cls-8" d="M35.64,51.09H32.42a.54.54,0,0,1,0-1.07h3.22a.54.54,0,0,1,0,1.07Z"/><path class="cls-8" d="M39.9,51.08h-2a.54.54,0,1,1,0-1.07h2a.54.54,0,1,1,0,1.07Z"/><rect class="cls-9" x="41.79" y="25.71" width="4.4" height="29.69"/><path class="cls-8" d="M42.55,36.86a6.85,6.85,0,0,0-12.58,0H26.13v5.43H30a6.83,6.83,0,0,0,12.58,0h3.64V36.86Z"/><path class="cls-7" d="M28.08,38.12a.34.34,0,0,1,.3.18l.53,1,.5-1a.31.31,0,0,1,.28-.18.32.32,0,0,1,.32.32.29.29,0,0,1,0,.16l-.71,1.25v.92a.38.38,0,0,1-.75,0v-.88l-.73-1.25a.35.35,0,0,1-.05-.18A.35.35,0,0,1,28.08,38.12Z"/><path class="cls-7" d="M31.56,38.09a1.54,1.54,0,1,1-1.46,1.54A1.39,1.39,0,0,1,31.56,38.09Zm0,2.49c.37,0,.66-.28.66-.95s-.29-.94-.66-.94-.66.27-.66.94S31.18,40.58,31.56,40.58Z"/><path class="cls-7" d="M34.8,38.09c.54,0,1.11.25,1.11.66a.3.3,0,0,1-.3.33c-.41,0-.28-.42-.81-.42-.38,0-.69.28-.69,1s.32,1,.68,1A.56.56,0,0,0,35.4,40v0H35a.26.26,0,1,1,0-.52h.76a.3.3,0,0,1,.33.33v1a.28.28,0,0,1-.3.3.29.29,0,0,1-.31-.3v-.05h0a.82.82,0,0,1-.79.38c-.77,0-1.3-.53-1.3-1.5A1.43,1.43,0,0,1,34.8,38.09Z"/><path class="cls-7" d="M36.64,38.5a.38.38,0,1,1,.76,0V40c0,.33.13.54.48.54s.48-.22.48-.54V38.5a.37.37,0,1,1,.74,0V40a1.07,1.07,0,0,1-1.22,1.19c-.93,0-1.24-.5-1.24-1.19Z"/><path class="cls-7" d="M39.67,38.49a.3.3,0,0,1,.33-.34h1c.67,0,1.09.33,1.09.91a.9.9,0,0,1-.52.84l.37.71a.47.47,0,0,1,0,.17.36.36,0,0,1-.37.36.38.38,0,0,1-.32-.19l-.43-.85h-.4v.67a.38.38,0,0,1-.75,0Zm1.13,1c.25,0,.48-.07.48-.4s-.23-.4-.48-.4h-.38v.8Z"/><path class="cls-7" d="M42.54,38.15h1.88a.31.31,0,0,1,.3.3.3.3,0,0,1-.3.3h-.57v2a.37.37,0,0,1-.37.37.38.38,0,0,1-.38-.37v-2h-.56a.29.29,0,0,1-.3-.3A.3.3,0,0,1,42.54,38.15Z"/><path class="cls-9" d="M40.49,36a5.42,5.42,0,0,0-4.22-1.92,5.26,5.26,0,0,0-4.79,2.84h9.59A4.2,4.2,0,0,0,40.49,36Z"/><path class="cls-9" d="M32.06,43.23a5.43,5.43,0,0,0,4.22,1.92,5.26,5.26,0,0,0,4.79-2.84H31.48A4.91,4.91,0,0,0,32.06,43.23Z"/><rect class="cls-1" x="55.22" y="6.34" width="14.13" height="2.11"/><path class="cls-2" d="M55.82,0H68.74a1.47,1.47,0,0,1,1.47,1.47V6.23a.85.85,0,0,1-.85.85H55.21a.85.85,0,0,1-.85-.85V1.47A1.47,1.47,0,0,1,55.82,0Z"/><path class="cls-3" d="M71.09,14.05l-1.74-5.6H65l1.74,5.6a27,27,0,0,1,1.22,8V56.22a3.47,3.47,0,0,1-3.47,3.47h4.41a3.46,3.46,0,0,0,3.46-3.47V22.08A27,27,0,0,0,71.09,14.05Z"/><path class="cls-4" d="M67.91,56.22V22.08a27,27,0,0,0-1.22-8L65,8.45H55.22l-1.74,5.6a26.76,26.76,0,0,0-1.23,8V56.22a3.47,3.47,0,0,0,3.47,3.47h8.72A3.47,3.47,0,0,0,67.91,56.22Z"/><path class="cls-5" d="M57.22,13.84a.78.78,0,0,1-.37,0,.77.77,0,0,1-.5-1l.71-2.24a.77.77,0,0,1,1-.5.76.76,0,0,1,.5,1l-.71,2.24A.77.77,0,0,1,57.22,13.84Z"/><path class="cls-5" d="M56.82,16.26l-.2.63a18.06,18.06,0,0,0-.55,5.61.76.76,0,0,1-.62.82.78.78,0,0,1-.91-.7,19.32,19.32,0,0,1,.6-6.14.1.1,0,0,0,0,0l.21-.64a.77.77,0,1,1,1.46.46Z"/><polygon class="cls-6" points="67.91 25.71 67.91 55.4 52.25 55.4 52.25 30.48 53.32 27.13 57.15 25.71 67.91 25.71"/><path class="cls-7" d="M57,25.71a4.78,4.78,0,0,1-4.78,4.77V25.71Z"/><path class="cls-8" d="M66,29.69H58.54a.54.54,0,1,1,0-1.07H66a.54.54,0,0,1,0,1.07Z"/><path class="cls-8" d="M66,53.65H58.54a.54.54,0,1,1,0-1.07H66a.54.54,0,0,1,0,1.07Z"/><path class="cls-8" d="M61.76,51.09H58.55a.54.54,0,1,1,0-1.07h3.21a.54.54,0,1,1,0,1.07Z"/><path class="cls-8" d="M66,51.08H64A.54.54,0,0,1,64,50h2a.54.54,0,0,1,0,1.07Z"/><rect class="cls-9" x="67.91" y="25.71" width="4.4" height="29.69"/><path class="cls-8" d="M68.68,36.86a6.82,6.82,0,0,0-6.3-4.14,6.85,6.85,0,0,0-6.29,4.14H52.25v5.43h3.84a6.85,6.85,0,0,0,12.59,0h3.63V36.86Z"/><path class="cls-7" d="M54.21,38.12a.34.34,0,0,1,.3.18l.53,1,.5-1a.31.31,0,0,1,.28-.18.33.33,0,0,1,.33.32.3.3,0,0,1,0,.16l-.71,1.25v.92a.37.37,0,0,1-.37.37.38.38,0,0,1-.38-.37v-.88l-.73-1.25a.48.48,0,0,1,0-.18A.34.34,0,0,1,54.21,38.12Z"/><path class="cls-7" d="M57.69,38.09a1.54,1.54,0,1,1-1.45,1.54A1.39,1.39,0,0,1,57.69,38.09Zm0,2.49c.37,0,.66-.28.66-.95s-.29-.94-.66-.94S57,39,57,39.63,57.31,40.58,57.69,40.58Z"/><path class="cls-7" d="M60.93,38.09c.54,0,1.11.25,1.11.66a.3.3,0,0,1-.3.33c-.41,0-.27-.42-.81-.42-.37,0-.69.28-.69,1s.32,1,.68,1a.56.56,0,0,0,.61-.58v0h-.41a.26.26,0,0,1,0-.52h.76a.3.3,0,0,1,.33.33v1a.27.27,0,0,1-.3.3.28.28,0,0,1-.3-.3v-.05h0a.85.85,0,0,1-.8.38c-.76,0-1.3-.53-1.3-1.5A1.43,1.43,0,0,1,60.93,38.09Z"/><path class="cls-7" d="M62.77,38.5a.38.38,0,0,1,.76,0V40c0,.33.14.54.48.54s.48-.22.48-.54V38.5a.38.38,0,1,1,.75,0V40A1.08,1.08,0,0,1,64,41.18c-.93,0-1.24-.5-1.24-1.19Z"/><path class="cls-7" d="M65.8,38.49a.3.3,0,0,1,.33-.34h1c.68,0,1.09.33,1.09.91a.89.89,0,0,1-.52.84l.37.71a.33.33,0,0,1,0,.17.36.36,0,0,1-.36.36.35.35,0,0,1-.32-.19L67,40.1h-.4v.67a.38.38,0,0,1-.75,0Zm1.13,1c.26,0,.48-.07.48-.4s-.22-.4-.48-.4h-.38v.8Z"/><path class="cls-7" d="M68.67,38.15h1.88a.3.3,0,0,1,.3.3.29.29,0,0,1-.3.3H70v2a.38.38,0,0,1-.76,0v-2h-.56a.3.3,0,0,1-.3-.3A.31.31,0,0,1,68.67,38.15Z"/><path class="cls-9" d="M66.62,36a5.43,5.43,0,0,0-4.22-1.92,5.28,5.28,0,0,0-4.8,2.84h9.6A4.61,4.61,0,0,0,66.62,36Z"/><path class="cls-9" d="M58.19,43.23a5.42,5.42,0,0,0,4.22,1.92,5.26,5.26,0,0,0,4.79-2.84H57.6A5,5,0,0,0,58.19,43.23Z"/></svg>