<svg id="Layer_1" data-name="Layer 1" xmlns="http://www.w3.org/2000/svg" viewBox="0 0 74.72 57.53"><defs><style>.cls-1{fill:#d32144;}.cls-2{fill:#ff3d3d;}.cls-3{fill:#ffe21f;}.cls-4{fill:#fff;}.cls-5{fill:#1379da;}.cls-6{fill:#61b6f2;}.cls-7{fill:#299aea;}</style></defs><polygon class="cls-1" points="72.47 11.55 42.88 11.55 40.63 6.05 74.72 6.05 72.47 11.55"/><polygon class="cls-1" points="42.88 52.04 72.47 52.04 74.72 57.53 40.63 57.53 42.88 52.04"/><rect class="cls-2" x="42.88" y="11.47" width="29.59" height="10.73"/><rect class="cls-3" x="42.88" y="22.2" width="29.59" height="29.84"/><path class="cls-3" d="M69.3,23H46A12,12,0,0,1,69.3,23Z"/><path class="cls-2" d="M65.62,22.2H49.73a8.58,8.58,0,0,1,15.89,0Z"/><path class="cls-4" d="M65.17,34.44h-15a5,5,0,1,1,0-10h15a5,5,0,1,1,0,10Z"/><path class="cls-2" d="M60.23,43.23H48.89a1,1,0,1,1,0-2.09H60.23a1,1,0,1,1,0,2.09Z"/><path class="cls-2" d="M66.44,38.68H48.89a1,1,0,1,1,0-2.09H66.44a1,1,0,1,1,0,2.09Z"/><path class="cls-2" d="M66.44,43.23H64a1,1,0,1,1,0-2.09h2.47a1,1,0,1,1,0,2.09Z"/><path class="cls-1" d="M50.2,52H42.88V44.73A7.31,7.31,0,0,1,50.2,52Z"/><polygon class="cls-1" points="31.84 11.55 2.25 11.55 0 6.05 34.09 6.05 31.84 11.55"/><polygon class="cls-1" points="2.25 52.04 31.84 52.04 34.09 57.53 0 57.53 2.25 52.04"/><rect class="cls-2" x="2.25" y="11.47" width="29.59" height="10.73"/><rect class="cls-3" x="2.25" y="22.2" width="29.59" height="29.84"/><path class="cls-3" d="M28.67,23H5.42a12,12,0,0,1,23.25,0Z"/><path class="cls-2" d="M25,22.2H9.1a8.59,8.59,0,0,1,15.9,0Z"/><path class="cls-4" d="M24.54,34.44h-15a5,5,0,1,1,0-10h15a5,5,0,1,1,0,10Z"/><path class="cls-2" d="M19.6,43.23H8.26a1,1,0,1,1,0-2.09H19.6a1,1,0,1,1,0,2.09Z"/><path class="cls-2" d="M25.81,38.68H8.26a1,1,0,1,1,0-2.09H25.81a1,1,0,1,1,0,2.09Z"/><path class="cls-2" d="M25.81,43.23H23.34a1,1,0,1,1,0-2.09h2.47a1,1,0,1,1,0,2.09Z"/><path class="cls-1" d="M9.57,52H2.25V44.73A7.31,7.31,0,0,1,9.57,52Z"/><polygon class="cls-5" points="53.89 6.14 20.82 6.14 18.31 0 56.41 0 53.89 6.14"/><polygon class="cls-5" points="20.83 51.39 53.89 51.39 56.41 57.53 18.31 57.53 20.83 51.39"/><rect class="cls-6" x="20.83" y="6.05" width="33.07" height="11.99"/><rect class="cls-3" x="20.83" y="18.04" width="33.07" height="33.35"/><path class="cls-3" d="M50.36,18.93h-26a13.43,13.43,0,0,1,26,0Z"/><path class="cls-5" d="M46.24,18H28.48a9.59,9.59,0,0,1,17.76,0Z"/><path class="cls-4" d="M45.74,31.73H29a5.62,5.62,0,0,1,0-11.24H45.74a5.62,5.62,0,0,1,0,11.24ZM29,21.36a4.75,4.75,0,1,0,0,9.49H45.74a4.75,4.75,0,1,0,0-9.49Z"/><path class="cls-5" d="M28.37,24.13c.65,0,1.55.27,1.55.9a.48.48,0,0,1-.48.48c-.49,0-.4-.59-1.07-.59-.5,0-.88.37-.88,1.26s.4,1.29.88,1.29c.7,0,.6-.66,1.11-.66a.49.49,0,0,1,.49.49c0,.65-.9,1-1.6,1a1.81,1.81,0,0,1-1.95-2A1.9,1.9,0,0,1,28.37,24.13Z"/><path class="cls-5" d="M30.52,24.67a.51.51,0,0,1,.51-.5.5.5,0,0,1,.5.5v1.07H33V24.67a.5.5,0,0,1,.5-.5.51.51,0,0,1,.51.5v3a.5.5,0,0,1-.51.5.5.5,0,0,1-.5-.5V26.55H31.53v1.16a.5.5,0,0,1-.5.5.5.5,0,0,1-.51-.5Z"/><path class="cls-5" d="M34.78,24.66a.4.4,0,0,1,.44-.45h1.94a.41.41,0,0,1,.4.41.4.4,0,0,1-.4.4H35.78v.78h1.14a.39.39,0,0,1,.39.39.4.4,0,0,1-.39.4H35.78v.77h1.48a.41.41,0,1,1,0,.81h-2a.4.4,0,0,1-.44-.45Z"/><path class="cls-5" d="M38.23,24.66a.4.4,0,0,1,.44-.45h1.94a.41.41,0,0,1,.4.41.4.4,0,0,1-.4.4H39.23v.78h1.14a.39.39,0,0,1,.39.39.4.4,0,0,1-.39.4H39.23v.77h1.48a.41.41,0,1,1,0,.81h-2a.4.4,0,0,1-.44-.45Z"/><path class="cls-5" d="M43.17,24.12c.59,0,1.49.24,1.49.82a.44.44,0,0,1-.46.43c-.44,0-.45-.48-1.06-.48-.34,0-.54.16-.54.34s.1.34.5.42l.64.14c.81.17,1.13.58,1.13,1.17s-.43,1.3-1.66,1.3c-.79,0-1.67-.23-1.67-.84A.44.44,0,0,1,42,27c.44,0,.51.42,1.14.42.43,0,.65-.13.65-.38s-.1-.31-.48-.39l-.64-.13c-.74-.16-1.1-.53-1.1-1.18S42.16,24.12,43.17,24.12Z"/><path class="cls-5" d="M45.46,24.66a.41.41,0,0,1,.45-.45h1.93a.42.42,0,0,1,.41.41.41.41,0,0,1-.41.4H46.46v.78H47.6a.39.39,0,0,1,.4.39.4.4,0,0,1-.4.4H46.46v.77H48a.41.41,0,0,1,0,.81h-2a.41.41,0,0,1-.45-.45Z"/><path class="cls-5" d="M40.22,41.55H27.54a1.17,1.17,0,0,1,0-2.34H40.22a1.17,1.17,0,0,1,0,2.34Z"/><path class="cls-5" d="M47.16,36.47H27.54a1.17,1.17,0,1,1,0-2.34H47.16a1.17,1.17,0,1,1,0,2.34Z"/><path class="cls-5" d="M47.16,41.55H44.39a1.17,1.17,0,0,1,0-2.34h2.77a1.17,1.17,0,0,1,0,2.34Z"/><path class="cls-7" d="M29,51.39H20.83V43.22A8.17,8.17,0,0,1,29,51.39Z"/></svg>